<svg width="292" height="351" viewBox="0 0 292 351" fill="none" xmlns="http://www.w3.org/2000/svg">
<path d="M292 292L-7.32114e-05 5.10549e-05L-2.21565e-05 292L292 292Z" fill="#A80108"/>
<path d="M145 351L3.05207e-06 206L3.05207e-06 351H145Z" fill="#E2B87F"/>
<path d="M180.821 68.2887V78.4513L132.988 127.144L85.1794 78.4635V68.2887L72.1374 55V70.434H57L70.042 83.6981H75.136V79.5178L127.448 132.771L69.8373 191.429V180.114L62.0337 188.046V204.62H78.3272L86.1307 196.688H75.7501L132.988 138.41L190.599 197.056H179.833L187.625 205H203.918V188.401L196.115 180.458V191.393L138.527 132.771L190.864 79.4933V83.6981H195.958L209 70.434H193.863V55L180.821 68.2887Z" fill="white"/>
</svg>
