<svg width="472" height="671" viewBox="0 0 472 671" fill="none" xmlns="http://www.w3.org/2000/svg">
<path d="M48.6507 333.141L37.2034 352.029L24.6115 354.318L9.15777 349.167L0 370.917L9.15777 381.791L12.0196 389.805L26.901 384.653L32.0522 393.239L19.4603 402.969L12.0196 421.284L6.29597 432.732V442.462L24.6115 454.481L17.1708 463.067L24.6115 467.646L26.901 484.816L24.6115 491.112V499.698H34.914L44.6441 518.586L48.6507 547.204L40.6376 554.072L54.9466 580.401V597.571V611.88L65.8215 622.755V633.058L106.459 639.354L115.045 628.479H131.071L147.097 611.88V587.841L161.978 569.526L186.017 556.934L199.754 563.23V572.388L210.056 575.822L219.786 563.23L227.227 566.092H234.668L240.964 572.388L269.582 583.262H275.305L290.759 594.71L298.772 587.841L322.811 609.019C324.147 612.644 328.306 621.611 334.259 628.479C340.211 635.347 334.068 634.393 330.252 633.058L341.127 642.216V660.531L364.021 670.261L382.337 633.058L389.205 628.479L397.218 604.44L389.205 575.822L377.758 566.092L394.357 538.046L422.975 506.566L437.856 503.132L428.698 491.112L437.856 487.106V479.093V467.646L422.975 463.067L412.1 429.87L414.962 410.982L422.975 405.831V398.39H428.698L433.277 395.528L454.454 374.351L465.902 353.746L471.053 331.996L454.454 314.825L447.014 293.076L444.724 283.345L441.862 277.049L426.409 273.043L412.1 259.879L408.093 242.135L402.942 238.701L394.357 242.135V232.405L392.067 226.682H383.482L389.205 198.636L398.935 191.768L405.231 181.465L389.205 165.439L380.62 147.124V120.795L386.343 108.775L398.935 105.341H412.1L425.264 101.335V91.0322L416.679 77.2956V66.4207V63.5589L402.942 72.7167H389.205L380.62 77.2956H358.298L348.568 66.4207H334.831L322.811 60.6971H307.358L298.772 44.0986V34.9409V27.5002V16.053L286.18 9.18463L275.305 5.1781H256.418L246.687 0.0268555L234.668 9.18463V34.9409L243.826 52.1117L246.687 69.2825L240.964 88.1704L219.214 81.8744L180.866 77.2956L159.116 66.4207L135.649 52.1117L129.354 40.6645L120.768 44.0986L116.189 56.1182L103.025 69.2825V81.8744L107.604 95.6111L97.3013 101.335L86.9988 108.775L74.4069 115.644L72.1174 125.374L74.4069 139.111L97.3013 147.124L110.466 160.86L107.604 172.307L97.3013 175.169L90.433 184.899V211.8L79.5581 216.379L90.433 234.122L79.5581 249.004V259.879L72.1174 270.753L68.1109 273.615L48.6507 289.069L42.9271 306.24L48.6507 320.549V333.141Z" fill="#F6EAD9"/>
<path d="M279.134 272.95V282.209L235.229 326.575L191.346 282.22V272.95L179.375 260.842V274.904H165.48L177.452 286.99H182.127V283.181L230.144 331.702L177.264 385.149V374.839L170.101 382.066V397.168H185.056L192.219 389.941H182.691L235.229 336.84L288.11 390.276H278.228L285.38 397.514H300.335V382.39L293.173 375.152V385.115L240.314 331.702L288.353 283.159V286.99H293.029L305 274.904H291.106V260.842L279.134 272.95Z" fill="#CF102D"/>
<path d="M243.317 285.146H238.22L231.157 268.486C231.335 269.956 231.465 271.287 231.544 272.48C231.643 273.672 231.693 275.092 231.693 276.742V285.146H228.117V264.552H233.094L240.277 281.242C240.158 280.447 240.038 279.404 239.919 278.113C239.8 276.801 239.74 275.5 239.74 274.208V264.552H243.317V285.146Z" fill="#CF102D"/>
<path d="M297.701 317.702L297.284 320.623H289.684V326.375H296.301V329.296H289.684V335.346H297.821V338.297H285.75V317.702H297.701Z" fill="#CF102D"/>
<path d="M181.15 317.255C182.998 317.255 184.597 317.672 185.948 318.507C187.299 319.341 188.333 320.563 189.048 322.173C189.783 323.782 190.151 325.719 190.151 327.984C190.151 330.23 189.783 332.157 189.048 333.766C188.313 335.376 187.27 336.608 185.918 337.462C184.567 338.317 182.978 338.744 181.15 338.744C179.302 338.744 177.702 338.327 176.351 337.492C175 336.657 173.957 335.436 173.222 333.826C172.487 332.217 172.119 330.279 172.119 328.014C172.119 325.789 172.487 323.871 173.222 322.262C173.957 320.633 175 319.391 176.351 318.536C177.722 317.682 179.322 317.255 181.15 317.255ZM181.15 320.265C179.56 320.265 178.348 320.891 177.514 322.143C176.679 323.375 176.262 325.332 176.262 328.014C176.262 333.16 177.891 335.734 181.15 335.734C182.739 335.734 183.941 335.118 184.756 333.886C185.591 332.654 186.008 330.687 186.008 327.984C186.008 325.302 185.591 323.345 184.756 322.113C183.941 320.881 182.739 320.265 181.15 320.265Z" fill="#CF102D"/>
<rect x="233.817" y="401.31" width="4.74556" height="13.2876" fill="#CF102D"/>
<rect x="233.817" y="401.31" width="4.74556" height="13.2876" fill="#CF102D"/>
<rect x="233.817" y="365.244" width="4.74556" height="13.2876" fill="#CF102D"/>
<rect x="233.817" y="365.244" width="4.74556" height="13.2876" fill="#CF102D"/>
<rect x="242.565" y="399.652" width="4.74556" height="13.2876" transform="rotate(-45 242.565 399.652)" fill="#CF102D"/>
<rect x="242.565" y="399.652" width="4.74556" height="13.2876" transform="rotate(-45 242.565 399.652)" fill="#CF102D"/>
<rect x="217.062" y="374.149" width="4.74556" height="13.2876" transform="rotate(-45 217.062 374.149)" fill="#CF102D"/>
<rect x="217.062" y="374.149" width="4.74556" height="13.2876" transform="rotate(-45 217.062 374.149)" fill="#CF102D"/>
<rect x="247.579" y="392.294" width="4.74556" height="13.2876" transform="rotate(-90 247.579 392.294)" fill="#CF102D"/>
<rect x="247.579" y="392.294" width="4.74556" height="13.2876" transform="rotate(-90 247.579 392.294)" fill="#CF102D"/>
<rect x="211.512" y="392.294" width="4.74556" height="13.2876" transform="rotate(-90 211.512 392.294)" fill="#CF102D"/>
<rect x="211.512" y="392.294" width="4.74556" height="13.2876" transform="rotate(-90 211.512 392.294)" fill="#CF102D"/>
<rect x="245.921" y="383.545" width="4.74556" height="13.2876" transform="rotate(-135 245.921 383.545)" fill="#CF102D"/>
<rect x="245.921" y="383.545" width="4.74556" height="13.2876" transform="rotate(-135 245.921 383.545)" fill="#CF102D"/>
<rect x="220.418" y="409.048" width="4.74556" height="13.2876" transform="rotate(-135 220.418 409.048)" fill="#CF102D"/>
<rect x="220.418" y="409.048" width="4.74556" height="13.2876" transform="rotate(-135 220.418 409.048)" fill="#CF102D"/>
</svg>
