<svg width="179" height="103" viewBox="0 0 179 103" fill="none" xmlns="http://www.w3.org/2000/svg">
<g clip-path="url(#clip0_58_238)">
<path d="M108.104 25.0623C106.35 25.067 104.669 25.7642 103.43 27.0013C102.19 28.2383 101.493 29.9145 101.491 31.6628H105.201C105.201 30.8953 105.507 30.1592 106.051 29.6165C106.596 29.0738 107.334 28.7689 108.104 28.7689C108.874 28.7689 109.613 29.0738 110.158 29.6165C110.702 30.1592 111.008 30.8953 111.008 31.6628H114.709C114.707 29.916 114.011 28.2412 112.773 27.0044C111.536 25.7676 109.857 25.0693 108.104 25.0623Z" fill="#24847C"/>
<path d="M27.9425 40.8802C28.1802 40.8802 28.4081 40.7861 28.5762 40.6185C28.7442 40.451 28.8386 40.2239 28.8386 39.987V38.1113C28.8386 37.8744 28.7442 37.6473 28.5762 37.4798C28.4081 37.3123 28.1802 37.2182 27.9425 37.2182H21.051C20.8058 37.2095 20.5614 37.2511 20.333 37.3404C20.1046 37.4296 19.897 37.5647 19.7231 37.7372C19.5492 37.9097 19.4127 38.1159 19.322 38.3431C19.2313 38.5703 19.1884 38.8137 19.1959 39.0581V63.906C19.2006 64.3941 19.3978 64.8607 19.745 65.205C20.0921 65.5493 20.5612 65.7436 21.051 65.7459H27.9425C28.1802 65.7459 28.4081 65.6518 28.5762 65.4843C28.7442 65.3168 28.8386 65.0896 28.8386 64.8527V62.9771C28.8386 62.7402 28.7442 62.513 28.5762 62.3455C28.4081 62.178 28.1802 62.0839 27.9425 62.0839H22.906V53.2862H27.9425C28.1802 53.2862 28.4081 53.1921 28.5762 53.0246C28.7442 52.8571 28.8386 52.63 28.8386 52.3931V50.5174C28.8386 50.2805 28.7442 50.0534 28.5762 49.8859C28.4081 49.7184 28.1802 49.6243 27.9425 49.6243H22.906V40.8802H27.9425Z" fill="#24847C"/>
<path d="M40.0228 65.746C41.7944 65.7342 43.4893 65.0239 44.737 63.7703C45.9847 62.5168 46.6837 60.8219 46.6813 59.0562V38.1114C46.6813 37.8745 46.5869 37.6474 46.4188 37.4799C46.2508 37.3124 46.0228 37.2183 45.7851 37.2183H43.9121C43.6745 37.2183 43.4465 37.3124 43.2785 37.4799C43.1104 37.6474 43.016 37.8745 43.016 38.1114V59.0562C43.016 59.4468 42.9388 59.8335 42.7888 60.1944C42.6389 60.5552 42.419 60.8831 42.1419 61.1593C41.8648 61.4355 41.5358 61.6546 41.1738 61.804C40.8117 61.9535 40.4236 62.0304 40.0318 62.0304C39.6399 62.0304 39.2518 61.9535 38.8897 61.804C38.5277 61.6546 38.1987 61.4355 37.9216 61.1593C37.6445 60.8831 37.4247 60.5552 37.2747 60.1944C37.1247 59.8335 37.0475 59.4468 37.0475 59.0562V38.1114C37.0475 37.8745 36.9531 37.6474 36.785 37.4799C36.617 37.3124 36.389 37.2183 36.1514 37.2183H34.2336C33.9994 37.2291 33.7777 37.3267 33.612 37.4919C33.4462 37.6571 33.3483 37.878 33.3374 38.1114V59.0562C33.3374 60.8258 34.0409 62.5233 35.2939 63.7772C36.5469 65.031 38.2472 65.7389 40.0228 65.746Z" fill="#24847C"/>
<path d="M52.2463 39.0314V64.8261C52.2463 65.0629 52.3407 65.2901 52.5088 65.4576C52.6769 65.6251 52.9048 65.7192 53.1425 65.7192H55.0244C55.2621 65.7192 55.49 65.6251 55.6581 65.4576C55.8262 65.2901 55.9206 65.0629 55.9206 64.8261V53.2863H60.957C61.1947 53.2863 61.4227 53.1922 61.5907 53.0247C61.7588 52.8572 61.8532 52.6301 61.8532 52.3932V50.5175C61.8532 50.2806 61.7588 50.0535 61.5907 49.886C61.4227 49.7185 61.1947 49.6244 60.957 49.6244H55.9564V40.8803H60.9929C61.2306 40.8803 61.4585 40.7862 61.6266 40.6186C61.7946 40.4511 61.889 40.224 61.889 39.9871V38.1114C61.889 37.8745 61.7946 37.6474 61.6266 37.4799C61.4585 37.3124 61.2306 37.2183 60.9929 37.2183H54.1014C53.8585 37.2098 53.6164 37.2506 53.3899 37.3382C53.1633 37.4259 52.957 37.5585 52.7835 37.7281C52.61 37.8977 52.4729 38.1007 52.3805 38.3247C52.2882 38.5488 52.2425 38.7892 52.2463 39.0314Z" fill="#24847C"/>
<path d="M65.8682 59.1187C65.8682 60.8787 66.5697 62.5666 67.8184 63.8112C69.0671 65.0557 70.7608 65.7549 72.5267 65.7549C74.2926 65.7549 75.9863 65.0557 77.235 63.8112C78.4837 62.5666 79.1852 60.8787 79.1852 59.1187V56.9751C79.1852 56.7382 79.0908 56.511 78.9227 56.3435C78.7547 56.176 78.5267 56.0819 78.289 56.0819H76.4071C76.1694 56.0819 75.9415 56.176 75.7734 56.3435C75.6053 56.511 75.5109 56.7382 75.5109 56.9751V59.1187C75.5109 59.9004 75.1993 60.6501 74.6447 61.2028C74.0901 61.7556 73.3379 62.0661 72.5536 62.0661C71.7692 62.0661 71.017 61.7556 70.4624 61.2028C69.9078 60.6501 69.5962 59.9004 69.5962 59.1187V43.8276C69.5962 43.4406 69.6727 43.0573 69.8213 42.6997C69.97 42.3421 70.1878 42.0172 70.4624 41.7435C70.737 41.4698 71.0631 41.2527 71.4219 41.1045C71.7807 40.9564 72.1652 40.8802 72.5536 40.8802C72.9419 40.8802 73.3265 40.9564 73.6853 41.1045C74.0441 41.2527 74.3701 41.4698 74.6447 41.7435C74.9194 42.0172 75.1372 42.3421 75.2858 42.6997C75.4344 43.0573 75.5109 43.4406 75.5109 43.8276V45.7837C75.5109 46.0206 75.6053 46.2477 75.7734 46.4152C75.9415 46.5827 76.1694 46.6768 76.4071 46.6768H78.2622C78.4998 46.6768 78.7278 46.5827 78.8958 46.4152C79.0639 46.2477 79.1583 46.0206 79.1583 45.7837V43.8276C79.1583 42.0676 78.4568 40.3796 77.2081 39.1351C75.9594 37.8906 74.2658 37.1914 72.4998 37.1914C70.7339 37.1914 69.0402 37.8906 67.7915 39.1351C66.5428 40.3796 65.8413 42.0676 65.8413 43.8276L65.8682 59.1187Z" fill="#24847C"/>
<path d="M108.131 37.245C107.253 37.2391 106.382 37.4064 105.568 37.7371C104.754 38.0679 104.015 38.5556 103.391 39.1723C102.767 39.789 102.272 40.5225 101.933 41.3306C101.595 42.1388 101.42 43.0056 101.419 43.8813V64.826C101.419 65.0629 101.513 65.2901 101.681 65.4576C101.849 65.6251 102.077 65.7192 102.315 65.7192H104.17C104.408 65.7192 104.636 65.6251 104.804 65.4576C104.972 65.2901 105.066 65.0629 105.066 64.826V53.2863H111.124V64.826C111.124 65.0629 111.219 65.2901 111.387 65.4576C111.555 65.6251 111.783 65.7192 112.021 65.7192H113.876C114.113 65.7192 114.341 65.6251 114.509 65.4576C114.677 65.2901 114.772 65.0629 114.772 64.826V43.8813C114.772 42.1243 114.073 40.4391 112.828 39.195C111.583 37.951 109.894 37.2498 108.131 37.245ZM111.124 49.5975H105.12V43.8813C105.162 43.1218 105.494 42.4071 106.048 41.8842C106.603 41.3613 107.337 41.0699 108.1 41.0699C108.863 41.0699 109.597 41.3613 110.151 41.8842C110.706 42.4071 111.038 43.1218 111.08 43.8813L111.124 49.5975Z" fill="#24847C"/>
<path d="M128.295 37.1556H119.378C119.14 37.1556 118.912 37.2497 118.744 37.4172C118.576 37.5847 118.482 37.8119 118.482 38.0488V39.9245C118.482 40.1613 118.576 40.3885 118.744 40.556C118.912 40.7235 119.14 40.8176 119.378 40.8176H121.986V64.7902C121.997 65.0236 122.095 65.2445 122.261 65.4097C122.426 65.5749 122.648 65.6725 122.882 65.6834H124.737C124.971 65.6725 125.193 65.5749 125.359 65.4097C125.525 65.2445 125.622 65.0236 125.633 64.7902V40.8444H128.241C128.479 40.8444 128.707 40.7503 128.875 40.5828C129.043 40.4153 129.137 40.1881 129.137 39.9513V38.0756C129.145 37.8431 129.061 37.6169 128.904 37.4451C128.746 37.2733 128.528 37.1695 128.295 37.1556Z" fill="#24847C"/>
<path d="M141.594 37.1914H134.703C134.457 37.1828 134.213 37.2244 133.985 37.3136C133.756 37.4029 133.549 37.538 133.375 37.7105C133.201 37.8829 133.064 38.0892 132.974 38.3164C132.883 38.5436 132.84 38.7869 132.848 39.0314V63.9061C132.852 64.3941 133.049 64.8607 133.397 65.205C133.744 65.5493 134.213 65.7437 134.703 65.746H141.594C141.832 65.746 142.06 65.6519 142.228 65.4844C142.396 65.3169 142.49 65.0897 142.49 64.8528V62.9772C142.49 62.7403 142.396 62.5131 142.228 62.3456C142.06 62.1781 141.832 62.084 141.594 62.084H136.558V53.2863H141.594C141.832 53.2863 142.06 53.1922 142.228 53.0247C142.396 52.8572 142.49 52.63 142.49 52.3931V50.5175C142.49 50.2806 142.396 50.0534 142.228 49.8859C142.06 49.7184 141.832 49.6243 141.594 49.6243H136.558V40.8802H141.594C141.832 40.8802 142.06 40.7861 142.228 40.6186C142.396 40.4511 142.49 40.2239 142.49 39.987V38.1114C142.494 37.9919 142.473 37.8728 142.43 37.7614C142.386 37.6499 142.321 37.5482 142.237 37.4624C142.154 37.3766 142.054 37.3084 141.943 37.2619C141.833 37.2153 141.714 37.1914 141.594 37.1914Z" fill="#24847C"/>
<path d="M153.719 37.245C151.947 37.2426 150.245 37.939 148.986 39.1823C147.727 40.4255 147.012 42.1147 146.998 43.8812V64.826C146.998 65.0629 147.092 65.2901 147.261 65.4576C147.429 65.6251 147.657 65.7192 147.894 65.7192H149.74C149.978 65.7192 150.206 65.6251 150.374 65.4576C150.542 65.2901 150.636 65.0629 150.636 64.826V53.3488H156.596V64.826C156.596 65.0629 156.69 65.2901 156.858 65.4576C157.027 65.6251 157.254 65.7192 157.492 65.7192H159.338C159.576 65.7192 159.804 65.6251 159.972 65.4576C160.14 65.2901 160.234 65.0629 160.234 64.826V43.8812C160.226 42.1484 159.541 40.487 158.325 39.2484C157.109 38.0099 155.457 37.2914 153.719 37.245ZM156.668 49.6511H150.708V43.8812C150.75 43.1218 151.082 42.4071 151.636 41.8842C152.191 41.3613 152.925 41.0699 153.688 41.0699C154.451 41.0699 155.185 41.3613 155.739 41.8842C156.294 42.4071 156.626 43.1218 156.668 43.8812V49.6511Z" fill="#24847C"/>
<path d="M178.077 37.1914H176.222C175.984 37.1914 175.756 37.2855 175.588 37.453C175.42 37.6205 175.326 37.8477 175.326 38.0846V59.0562C175.326 59.845 175.011 60.6015 174.452 61.1593C173.892 61.717 173.133 62.0304 172.341 62.0304C171.55 62.0304 170.791 61.717 170.231 61.1593C169.672 60.6015 169.357 59.845 169.357 59.0562V38.3079C169.235 28.2458 165.147 18.6354 157.975 11.5526C150.803 4.46975 141.123 0.4831 131.027 0.453776C120.93 0.424452 111.227 4.35481 104.014 11.3958C96.8007 18.4369 92.656 28.0234 92.4753 38.0846V49.5975H86.5516V38.1114C86.5516 37.8745 86.4572 37.6473 86.2891 37.4798C86.1211 37.3123 85.8931 37.2182 85.6555 37.2182H83.7735C83.5358 37.2182 83.3079 37.3123 83.1398 37.4798C82.9718 37.6473 82.8773 37.8745 82.8773 38.1114V64.6831C82.9514 69.2756 82.1077 73.8368 80.3956 78.1011C78.6834 82.3653 76.1369 86.2474 72.9045 89.5212C69.6721 92.7949 65.8184 95.3949 61.5679 97.1696C57.3173 98.9443 52.7549 99.8583 48.1465 99.8583C43.538 99.8583 38.9756 98.9443 34.7251 97.1696C30.4745 95.3949 26.6208 92.7949 23.3884 89.5212C20.156 86.2474 17.6095 82.3653 15.8974 78.1011C14.1852 73.8368 13.3416 69.2756 13.4156 64.6831V43.8277C13.4156 42.0546 12.7089 40.3541 11.4509 39.1004C10.193 37.8466 8.48681 37.1423 6.7078 37.1423C4.92878 37.1423 3.22262 37.8466 1.96467 39.1004C0.706712 40.3541 0 42.0546 0 43.8277L0 64.826C0.0109087 65.0594 0.108828 65.2803 0.274585 65.4455C0.440343 65.6107 0.662002 65.7083 0.896165 65.7192H2.77811C3.01227 65.7083 3.23393 65.6107 3.39969 65.4455C3.56545 65.2803 3.66337 65.0594 3.67428 64.826V43.8277C3.67428 43.0388 3.98869 42.2823 4.54834 41.7245C5.10799 41.1668 5.86704 40.8534 6.65851 40.8534C7.44997 40.8534 8.20902 41.1668 8.76867 41.7245C9.32833 42.2823 9.64274 43.0388 9.64274 43.8277V64.6831V64.826C9.64274 74.9859 13.6923 84.7297 20.9005 91.9138C28.1088 99.0979 37.8853 103.134 48.0793 103.134C58.2733 103.134 68.0497 99.0979 75.258 91.9138C82.4662 84.7297 86.5158 74.9859 86.5158 64.826V64.6831V53.2863H92.4215V64.826C92.4324 65.0594 92.5303 65.2803 92.6961 65.4455C92.8618 65.6107 93.0835 65.7083 93.3177 65.7192H95.1727C95.4104 65.7192 95.6383 65.6251 95.8064 65.4576C95.9745 65.2901 96.0689 65.0629 96.0689 64.826V38.3079C96.2056 29.2234 99.92 20.5567 106.411 14.1773C112.902 7.79791 121.649 4.2173 130.764 4.20792C139.88 4.19855 148.635 7.76115 155.139 14.1272C161.643 20.4932 165.375 29.1523 165.531 38.2364V59.0562C165.531 60.8233 166.235 62.5181 167.489 63.7676C168.743 65.0172 170.443 65.7192 172.216 65.7192C173.989 65.7192 175.69 65.0172 176.943 63.7676C178.197 62.5181 178.901 60.8233 178.901 59.0562V38.1114C178.909 37.8818 178.828 37.6581 178.674 37.4868C178.521 37.3155 178.307 37.2097 178.077 37.1914Z" fill="#24847C"/>
</g>
<defs>
<clipPath id="clip0_58_238">
<rect width="179" height="103" fill="white"/>
</clipPath>
</defs>
</svg>
