<svg width="400" height="83" viewBox="0 0 400 83" fill="none" xmlns="http://www.w3.org/2000/svg">
<g clip-path="url(#clip0_58_325)">
<path d="M6.37 54.25V58.84C6.37 59.48 5.67 59.94 4.8 59.94H1.6C0.7 59.94 0 59.47 0 58.84V54.25C0 53.61 0.7 53.12 1.6 53.12H4.8C5.82 53.12 6.37 53.61 6.37 54.25Z" fill="black"/>
<path d="M399.37 54.25V58.84C399.37 59.48 398.67 59.94 397.8 59.94H394.6C393.7 59.94 393 59.47 393 58.84V54.25C393 53.61 393.7 53.12 394.6 53.12H397.8C398.82 53.12 399.37 53.61 399.37 54.25Z" fill="black"/>
<path d="M26.8499 39.09V54.23H35.5799C36.4799 54.23 37.1799 54.93 37.1799 55.83V59.04C37.1799 59.94 36.4799 60.64 35.5799 60.64H26.8499V75.89H35.5799C36.4799 75.89 37.1799 76.59 37.1799 77.49V80.7C37.1799 81.6 36.4799 82.3 35.5799 82.3H23.6399C21.8299 82.3 20.4299 80.8 20.4299 79.09V35.86C20.4299 34.05 21.8299 32.65 23.6399 32.65H35.5799C36.4799 32.65 37.1799 33.35 37.1799 34.25V37.46C37.1799 38.36 36.4799 39.06 35.5799 39.06H26.8499V39.09Z" fill="black"/>
<path d="M58.14 47.6201V44.2101C58.14 41.4001 55.83 39.0901 53.02 39.0901C50.21 39.0901 47.91 41.4001 47.91 44.2101C47.91 45.0767 48.01 45.6467 48.21 45.9201L62.15 64.3701C63.7567 66.5101 64.56 68.6501 64.56 70.7901C64.56 77.1101 59.35 82.3201 53.03 82.3201C46.71 82.3201 41.5 77.1001 41.5 70.7901V67.3801C41.5 66.48 42.2 65.7801 43.1 65.7801H46.31C47.21 65.7801 47.92 66.48 47.92 67.3801V70.7901C47.92 73.6001 50.23 75.9101 53.03 75.9101C55.83 75.9101 58.15 73.6001 58.15 70.7901C58.15 69.9234 58.05 69.3534 57.85 69.0801L43.91 50.6301C42.3033 48.4901 41.5 46.3501 41.5 44.2101C41.5 37.8901 46.71 32.6801 53.03 32.6801C59.35 32.6801 64.56 37.9001 64.56 44.2101V47.6201C64.56 48.5201 63.86 49.2201 62.96 49.2201H59.75C58.85 49.2201 58.14 48.5201 58.14 47.6201Z" fill="black"/>
<path d="M95.0499 44.21V49.02C95.0499 55.44 89.8399 60.65 83.5199 60.65H78.3099V80.71C78.3099 81.51 77.6099 82.31 76.6999 82.31H73.4899C72.6899 82.31 71.8899 81.51 71.8899 80.71V34.27C71.8899 33.37 72.6899 32.67 73.4899 32.67H83.5199C89.8399 32.67 95.0499 37.89 95.0499 44.2V44.21ZM88.6299 44.21C88.6299 41.4 86.3199 39.09 83.5099 39.09H78.2999V54.23H83.5099C86.3199 54.23 88.6299 51.92 88.6299 49.01V44.2V44.21Z" fill="black"/>
<path d="M124.44 44.31V80.72C124.44 81.62 123.74 82.32 122.83 82.32H119.62C118.72 82.32 118.02 81.62 118.02 80.72V60.76H107.69V80.72C107.69 81.62 106.99 82.32 106.09 82.32H102.88C101.98 82.32 101.28 81.62 101.28 80.72V44.31C101.28 37.99 106.5 32.78 112.91 32.78C119.32 32.78 124.44 38 124.44 44.31ZM118.02 44.31C118.02 41.5 115.71 39.19 112.9 39.19C110.09 39.19 107.68 41.5 107.68 44.31V54.34H118.01V44.31H118.02Z" fill="black"/>
<path d="M149.41 47.6201V44.2101C149.41 41.4001 147.1 39.0901 144.29 39.0901C141.48 39.0901 139.17 41.4001 139.17 44.2101V70.7901C139.17 73.6001 141.48 75.9101 144.29 75.9101C147.1 75.9101 149.41 73.6001 149.41 70.7901V67.0801C149.41 66.1801 150.11 65.4801 151.01 65.4801H154.22C155.12 65.4801 155.82 66.1801 155.82 67.0801V70.7901C155.82 77.1101 150.6 82.3201 144.29 82.3201C137.98 82.3201 132.76 77.1001 132.76 70.7901V44.2101C132.76 37.8901 137.88 32.6801 144.29 32.6801C150.7 32.6801 155.82 37.9001 155.82 44.2101V47.6201C155.82 48.5201 155.12 49.2201 154.22 49.2201H151.01C150.11 49.2201 149.41 48.5201 149.41 47.6201Z" fill="black"/>
<path d="M169.57 39.09V54.23H178.3C179.2 54.23 179.91 54.93 179.91 55.83V59.04C179.91 59.94 179.21 60.64 178.3 60.64H169.57V75.89H178.3C179.2 75.89 179.91 76.59 179.91 77.49V80.7C179.91 81.6 179.21 82.3 178.3 82.3H166.37C164.56 82.3 163.16 80.8 163.16 79.09V35.86C163.16 34.05 164.56 32.65 166.37 32.65H178.3C179.2 32.65 179.91 33.35 179.91 34.25V37.46C179.91 38.36 179.21 39.06 178.3 39.06H169.57V39.09Z" fill="black"/>
<path d="M219.32 47.6201V44.2101C219.32 41.4001 217.01 39.0901 214.21 39.0901C211.41 39.0901 209.09 41.4001 209.09 44.2101V70.7901C209.09 73.6001 211.4 75.9101 214.21 75.9101C217.02 75.9101 219.32 73.6001 219.32 70.7901V67.0801C219.32 66.1801 220.02 65.4801 220.93 65.4801H224.14C225.04 65.4801 225.74 66.1801 225.74 67.0801V70.7901C225.74 77.1101 220.53 82.3201 214.21 82.3201C207.89 82.3201 202.68 77.1001 202.68 70.7901V44.2101C202.68 37.8901 207.8 32.6801 214.21 32.6801C220.62 32.6801 225.74 37.9001 225.74 44.2101V47.6201C225.74 48.5201 225.04 49.2201 224.14 49.2201H220.93C220.03 49.2201 219.32 48.5201 219.32 47.6201Z" fill="black"/>
<path d="M239.48 80.7201C239.48 81.6201 238.78 82.3201 237.87 82.3201H234.66C233.76 82.3201 233.06 81.6201 233.06 80.7201V34.2801C233.06 33.3801 233.76 32.6801 234.66 32.6801H237.87C238.67 32.6801 239.48 33.3801 239.48 34.2801V80.7201Z" fill="black"/>
<path d="M265.46 34.2801V37.4901C265.46 38.3901 264.76 39.0901 263.86 39.0901H259.35V80.7101C259.35 81.5101 258.65 82.3101 257.75 82.3101H254.54C253.64 82.3101 252.94 81.5101 252.94 80.7101V39.0901H248.43C247.53 39.0901 246.83 38.3901 246.83 37.4901V34.2801C246.83 33.3801 247.53 32.6801 248.43 32.6801H263.88C264.78 32.6801 265.48 33.3801 265.48 34.2801H265.46Z" fill="black"/>
<path d="M292.94 44.2101V70.6901C292.94 77.1101 287.73 82.3201 281.41 82.3201C275.09 82.3201 269.78 77.1001 269.78 70.6901V44.2101C269.78 37.8901 274.99 32.6801 281.41 32.6801C287.83 32.6801 292.94 37.9001 292.94 44.2101ZM286.52 44.2101C286.52 41.4001 284.21 39.0901 281.4 39.0901C278.59 39.0901 276.19 41.4001 276.19 44.2101V70.6901C276.19 73.6001 278.5 75.9101 281.4 75.9101C284.3 75.9101 286.52 73.6001 286.52 70.6901V44.2101Z" fill="black"/>
<path d="M323.43 34.2801V49.0201C323.43 54.3401 319.92 58.7501 315.11 60.1501V80.7101C315.11 81.5101 314.31 82.3101 313.5 82.3101H310.29C309.39 82.3101 308.69 81.5101 308.69 80.7101V60.1501C303.77 58.7501 300.27 54.3301 300.27 49.0201V34.2801C300.27 33.3801 300.97 32.6801 301.87 32.6801H305.08C305.98 32.6801 306.69 33.3801 306.69 34.2801V49.0201C306.69 51.9301 309 54.2401 311.9 54.2401C314.8 54.2401 317.02 51.9301 317.02 49.0201V34.2801C317.02 33.3801 317.72 32.6801 318.62 32.6801H321.83C322.73 32.6801 323.43 33.3801 323.43 34.2801Z" fill="black"/>
<path d="M337.17 39.09V54.23H345.9C346.8 54.23 347.5 54.93 347.5 55.83V59.04C347.5 59.94 346.8 60.64 345.9 60.64H337.17V75.89H345.9C346.8 75.89 347.5 76.59 347.5 77.49V80.7C347.5 81.6 346.8 82.3 345.9 82.3H333.96C332.15 82.3 330.75 80.8 330.75 79.09V35.86C330.75 34.05 332.15 32.65 333.96 32.65H345.9C346.8 32.65 347.5 33.35 347.5 34.25V37.46C347.5 38.36 346.8 39.06 345.9 39.06H337.17V39.09Z" fill="black"/>
<path d="M378.99 44.2101V80.7201C378.99 81.5201 378.29 82.3201 377.39 82.3201H374.18C373.28 82.3201 372.58 81.5201 372.58 80.7201V44.2101C372.58 41.4001 370.27 39.0901 367.46 39.0901C364.65 39.0901 362.25 41.4001 362.25 44.2101V80.7201C362.25 81.5201 361.55 82.3201 360.64 82.3201H357.43C356.53 82.3201 355.83 81.5201 355.83 80.7201V44.2101C355.83 37.8901 361.04 32.6801 367.46 32.6801C373.88 32.6801 378.99 37.9001 378.99 44.2101Z" fill="black"/>
<path d="M268.89 0C289.35 0.02 306.63 17.01 306.68 38H300.26C300.78 20.5 286.87 6.97 269.81 6.44C252.75 5.91 239.99 18.58 239.48 36.08C239.46 36.72 239.46 37.36 239.48 38H232.98C233.03 17.01 248.44 0.02 268.89 0Z" fill="black"/>
</g>
<defs>
<clipPath id="clip0_58_325">
<rect width="399.37" height="82.32" fill="white"/>
</clipPath>
</defs>
</svg>
