<svg width="257" height="630" viewBox="0 0 257 630" fill="none" xmlns="http://www.w3.org/2000/svg">
<path fill-rule="evenodd" clip-rule="evenodd" d="M257 1.46746V0.608337C208.263 27.1184 167.452 66.162 138.795 113.735C109.554 162.279 94.073 217.873 94.013 274.552L94.013 447.333C94.005 487.091 83.4454 526.133 63.4136 560.469C47.3847 587.944 25.7512 611.617 0.0205077 630H1.33903C26.7862 611.663 48.2014 588.15 64.1209 560.904C84.2552 526.444 94.8753 487.249 94.8938 447.333L94.8938 274.552C94.7677 233.753 102.728 193.334 118.314 155.632C133.901 117.931 156.803 83.6958 185.698 54.9074C206.793 33.7688 230.806 15.7735 257 1.46746ZM66.1841 630H64.8525C77.9172 616.022 89.5026 600.625 99.3692 584.037C123.968 542.681 136.975 495.458 137.021 447.333L137.021 274.552C136.937 239.304 143.844 204.389 157.34 171.83C170.836 139.271 190.654 109.715 215.647 84.8729C228.286 72.2094 242.141 60.8523 257 50.9605V52.0304C223.868 74.1322 195.997 103.419 175.528 137.832C150.927 179.191 137.929 226.423 137.902 274.552L137.902 447.333C138 482.609 131.096 517.554 117.593 550.14C105.364 579.651 87.9433 606.695 66.1841 630ZM121.956 630H121.011C135.375 610.294 147.388 588.907 156.763 566.268C172.375 528.567 180.362 488.142 180.26 447.333L180.26 274.552C180.29 234.677 190.9 195.524 211.005 161.095C223.287 140.063 238.843 121.255 257 105.332V106.512C239.125 122.274 223.799 140.853 211.674 161.606C191.651 195.879 181.075 234.853 181.026 274.552L181.026 447.333C181.13 488.243 173.125 528.767 157.473 566.561C148.145 589.084 136.212 610.37 121.956 630Z" fill="#24847C"/>
</svg>
