<svg width="395" height="143" viewBox="0 0 395 143" fill="none" xmlns="http://www.w3.org/2000/svg">
<path d="M21.4663 135.462C25.6057 140.221 32.0977 142.795 40.173 142.795C46.8686 142.795 52.1843 141.793 55.532 140.426L54.7403 127.331C52.5688 127.923 49.221 128.515 44.697 128.515C37.6396 128.515 33.9525 124.894 32.4822 118.29H15.0874C15.8112 125.76 17.7339 131.567 21.4436 135.462H21.4663Z" fill="white"/>
<path d="M31.7133 58.1201H56.5275V44.8199H31.7133V17.2629L14.7709 21.8178V44.8199H0V58.1201H14.7709V95.5155H31.7133V58.1201Z" fill="#7A69BA"/>
<path d="M152.075 87.8633C152.075 70.2132 143.796 42.6562 112.671 42.6562C84.8931 42.6562 67.9507 65.4533 67.9507 94.4223C67.9507 94.8095 67.9959 95.1511 67.9959 95.5382H151.532C151.735 93.7618 152.075 91.1656 152.075 87.8861V87.8633ZM84.7121 83.4906C86.092 71.3975 93.7828 55.1366 111.313 55.1366C130.812 55.1366 135.539 72.3995 135.336 83.4906H84.7121Z" fill="white"/>
<path d="M114.842 142.795C130.02 142.795 140.448 139.629 146.555 136.851L143.592 124.348C137.1 127.126 129.613 129.313 117.194 129.313C106.97 129.313 97.6054 125.896 91.5206 118.29H72.8364C79.9617 133.549 94.5743 142.795 114.819 142.795H114.842Z" fill="white"/>
<path d="M190.868 118.29H173.541V140.814H190.868V118.29Z" fill="white"/>
<path d="M190.868 0H173.541V95.5155H190.868V0Z" fill="white"/>
<path d="M237.352 118.29H220.025V140.814H237.352V118.29Z" fill="white"/>
<path d="M237.352 0H220.025V95.5155H237.352V0Z" fill="white"/>
<path d="M283.836 118.29H266.509V140.814H283.836V118.29Z" fill="white"/>
<path d="M283.836 0H266.509V22.5238H283.836V0Z" fill="white"/>
<path d="M394.205 118.29H376.878V140.814H394.205V118.29Z" fill="white"/>
<path d="M283.836 44.8198H266.509V95.5155H283.836V44.8198Z" fill="white"/>
<path d="M329.936 118.29H312.609V140.814H329.936V118.29Z" fill="white"/>
<path d="M329.936 83.1035C329.936 80.1201 330.321 77.1594 331.112 74.9731C334.075 65.2484 342.943 57.118 354.366 57.118C370.72 57.118 376.42 70.0083 376.42 85.4721V95.5155H393.747V83.4907C393.747 50.559 373.253 42.6335 360.066 42.6335C344.3 42.6335 333.284 51.5611 328.556 60.6708H328.172L327.176 44.7971H311.817C312.406 52.7226 312.609 60.853 312.609 70.7826V95.4928H329.936V83.0807V83.1035Z" fill="white"/>
</svg>
