<svg width="138" height="50" viewBox="0 0 138 50" fill="none" xmlns="http://www.w3.org/2000/svg">
<path d="M7.50676 47.3642C8.95431 49.0285 11.2245 49.9284 14.0484 49.9284C16.3898 49.9284 18.2486 49.578 19.4193 49.1002L19.1425 44.5214C18.3831 44.7285 17.2124 44.9355 15.6304 44.9355C13.1625 44.9355 11.8731 43.6694 11.359 41.3601H5.27612C5.52925 43.972 6.2016 46.0026 7.49885 47.3642H7.50676Z" fill="black"/>
<path d="M11.0899 20.3216H19.7673V15.6712H11.0899V6.03589L5.16528 7.6285V15.6712H0V20.3216H5.16528V33.3969H11.0899V20.3216Z" fill="#7A69BA"/>
<path d="M53.1795 30.7215C53.1795 24.5501 50.2844 14.9148 39.4002 14.9148C29.6866 14.9148 23.762 22.8858 23.762 33.0148C23.762 33.1502 23.7778 33.2696 23.7778 33.405H52.9897C53.0609 32.7839 53.1795 31.8761 53.1795 30.7294V30.7215ZM29.6233 29.1925C30.1058 24.9642 32.7953 19.2785 38.9256 19.2785C45.7441 19.2785 47.3973 25.3145 47.3261 29.1925H29.6233Z" fill="black"/>
<path d="M40.1595 49.9284C45.4671 49.9284 49.1137 48.8215 51.2494 47.85L50.2132 43.4783C47.943 44.4498 45.3247 45.2142 40.9821 45.2142C37.4068 45.2142 34.132 44.0198 32.0042 41.3601H25.4705C27.9621 46.6954 33.072 49.9284 40.1516 49.9284H40.1595Z" fill="black"/>
<path d="M66.7451 41.3601H60.686V49.2356H66.7451V41.3601Z" fill="black"/>
<path d="M66.7451 0H60.686V33.397H66.7451V0Z" fill="black"/>
<path d="M83.0005 41.3601H76.9414V49.2356H83.0005V41.3601Z" fill="black"/>
<path d="M83.0005 0H76.9414V33.397H83.0005V0Z" fill="black"/>
<path d="M99.2557 41.3601H93.1965V49.2356H99.2557V41.3601Z" fill="black"/>
<path d="M99.2557 0H93.1965V7.87546H99.2557V0Z" fill="black"/>
<path d="M137.851 41.3601H131.792V49.2356H137.851V41.3601Z" fill="black"/>
<path d="M99.2557 15.6714H93.1965V33.3971H99.2557V15.6714Z" fill="black"/>
<path d="M115.376 41.3601H109.317V49.2356H115.376V41.3601Z" fill="black"/>
<path d="M115.376 29.0571C115.376 28.0139 115.511 26.9787 115.788 26.2143C116.824 22.814 119.925 19.9712 123.919 19.9712C129.638 19.9712 131.631 24.4783 131.631 29.8852V33.3969H137.691V29.1925C137.691 17.6779 130.524 14.9067 125.912 14.9067C120.399 14.9067 116.547 18.0283 114.894 21.2135H114.759L114.411 15.6632H109.04C109.246 18.4344 109.317 21.2772 109.317 24.7491V33.389H115.376V29.0491V29.0571Z" fill="black"/>
</svg>
