<?xml version="1.0" standalone="no"?>
<!DOCTYPE svg PUBLIC "-//W3C//DTD SVG 20010904//EN"
 "http://www.w3.org/TR/2001/REC-SVG-20010904/DTD/svg10.dtd">
<svg version="1.0" xmlns="http://www.w3.org/2000/svg"
 width="1263.000000pt" height="1263.000000pt" viewBox="0 0 1263.000000 1263.000000"
 preserveAspectRatio="xMidYMid meet">
<metadata>
Created by potrace 1.14, written by Peter Selinger 2001-2017
</metadata>
<g transform="translate(0.000000,1263.000000) scale(0.100000,-0.100000)"
fill="#000000" stroke="none">
<path d="M2430 11914 c-42 -18 -86 -58 -108 -99 -16 -28 -17 -166 -20 -1702
l-2 -1673 1290 0 1290 0 0 1745 0 1745 -1207 0 c-1057 -1 -1212 -3 -1243 -16z"/>
<path d="M5200 10020 l0 -1910 -1450 0 -1450 0 2 -1247 3 -1248 1448 -3 1447
-2 0 -1944 0 -1944 103 -7 c375 -25 635 -114 862 -296 89 -72 193 -198 239
-291 36 -70 46 -75 46 -23 0 40 32 135 64 189 52 88 172 189 301 253 166 83
308 121 633 169 l32 5 0 1944 0 1945 1448 2 1447 3 3 1248 2 1247 -1450 0
-1450 0 0 1910 0 1910 -1140 0 -1140 0 0 -1910z"/>
<path d="M7800 10185 l0 -1745 1290 0 1290 0 0 1653 c0 1122 -3 1664 -11 1690
-13 49 -63 105 -114 128 -38 18 -101 19 -1247 19 l-1208 0 0 -1745z"/>
<path d="M2303 3918 c3 -1488 0 -1400 57 -1562 88 -256 312 -483 565 -575 172
-62 151 -61 1095 -61 l860 0 0 1785 0 1785 -1290 0 -1291 0 4 -1372z"/>
<path d="M7800 3505 l0 -1785 859 0 c940 0 926 -1 1092 60 166 60 331 184 438
329 64 87 134 232 163 341 l22 85 3 1378 4 1377 -1291 0 -1290 0 0 -1785z"/>
</g>
</svg>
