<svg xmlns="http://www.w3.org/2000/svg" fill="#0AC189" xml:space="preserve" x="0" y="0" version="1.1" viewBox="0 0 35.9 31.4"><path d="M17.95 31.45c-.3 0-.5-.2-.7-.4l-3-5.6h-6.1c-4.5 0-8.2-3.7-8.2-8.2v-9c0-4.5 3.7-8.2 8.2-8.2h19.4c4.5 0 8.2 3.7 8.2 8.2v9c0 4.5-3.7 8.2-8.2 8.2h-6.1l-3 5.6c0 .2-.2.4-.5.4zm-9.7-29.9c-3.7 0-6.7 3-6.7 6.7v9c0 3.7 3 6.7 6.7 6.7h6.5c.3 0 .5.2.7.4l2.6 4.8 2.6-4.8c.1-.2.4-.4.7-.4h6.5c3.7 0 6.7-3 6.7-6.7v-9c0-3.7-3-6.7-6.7-6.7H8.25z"/><path d="M17.95 14.55c-1.4 0-2.6-1.2-2.6-2.6 0-1.4 1.2-2.6 2.6-2.6s2.6 1.2 2.6 2.6c0 1.5-1.2 2.6-2.6 2.6zm0-3.7c-.6 0-1.1.5-1.1 1.1s.5 1.1 1.1 1.1 1.1-.5 1.1-1.1c0-.6-.5-1.1-1.1-1.1zM8.95 14.55c-1.4 0-2.6-1.2-2.6-2.6 0-1.4 1.2-2.6 2.6-2.6s2.6 1.2 2.6 2.6c0 1.5-1.1 2.6-2.6 2.6zm0-3.7c-.6 0-1.1.5-1.1 1.1s.5 1.1 1.1 1.1 1.1-.5 1.1-1.1c0-.6-.5-1.1-1.1-1.1zM26.95 14.55c-1.4 0-2.6-1.2-2.6-2.6 0-1.4 1.2-2.6 2.6-2.6s2.6 1.2 2.6 2.6c0 1.5-1.2 2.6-2.6 2.6zm0-3.7c-.6 0-1.1.5-1.1 1.1s.5 1.1 1.1 1.1 1.1-.5 1.1-1.1c0-.6-.5-1.1-1.1-1.1z"/></svg>