<svg xmlns="http://www.w3.org/2000/svg" data-name="Calque 1" viewBox="0 0 557.15 623.21"><g style="isolation:isolate;opacity:.1"><path d="M145.19 508.04c-1.62 11.36 2.41 22.42 7.34 32.78 6.71 14.1 17.24 25.09 32.63 30.06 11.11 3.58 22.21 3.4 33.43-.74 9.54-3.51 17.41-8.82 23.21-17.08 5.09-7.26 6.93-15.65 4.45-23.94-2.45-8.17-7.56-15.16-16.1-18.39-3.54-1.34-7.59-1.13-11.15-.29-5.18 1.23-9.85 3.82-12.79 8.68-1.33 2.19-.83 2.96 1.75 2.86 2.45-.09 4.93-.33 7.35.41 6.36 1.95 9 6.83 9.18 12.86.25 8.55-3.82 16.14-12.3 19.09-7.33 2.54-14.77 1.61-21.89-1.71-12.58-5.86-14.41-16.28-11.91-28.26 1.63-7.78 5.4-14.97 11.09-20.86 1.93-2 .15-2.82-1.15-3.43-5.63-2.67-10.79-5.96-15.64-9.92-13.42-10.96-18.44-27.31-9-43.16 4.66-7.82 11.11-10.5 19.54-8.38 3.78.95 7.64 5.23 7.93 9.04.2 2.58.21 5.18.12 7.77-.19 5.76-1.33 7.16-7.06 8.94-2.46.76-2.95 2.25-1.81 4.47 2.67 5.16 7.66 7.17 12.69 8.57 10.37 2.87 21.17 3.53 31.72 5.54 15.49 2.95 29.62 8.43 39.01 21.99 3.78 5.47 6.51 11.5 8.18 18.08 1.95 7.69 1.82 15.42 1.35 23.12-.65 10.73-4.55 20.33-11.28 28.89-4.16 5.29-9 9.7-14.42 13.55-9.7 6.89-20.57 10.68-32.25 12.91-16 3.05-31.46 1.52-46.55-4.09-10.52-3.91-19.16-10.76-27.24-18.46-9.64-9.18-17.53-19.69-23.67-31.36-3.43-6.52-5.66-13.67-7.88-20.8-4.17-13.43-4.96-27.1-4.17-40.91.53-9.13 1.95-18.15 3.94-27.18 3.32-15.08 8.6-29.46 14.92-43.34 6.49-14.23 14.08-28.03 22.87-41.08 3-4.46 5.79-9.06 8.74-13.55 1.21-1.84 1.37-3.27-.93-4.34-2.01-.93-1.75-2.27-.52-3.72.58-.68 1.17-1.35 1.69-2.07 2.07-2.83 4.47-5.12 1.72-9.38-3.35-5.2-.41-12.52 6.1-14.46 6.73-2.01 12.65-6.03 19.62-7.21 1.55-.26 2.44-1.43 3.18-2.67 9.47-15.96 18.91-31.93 28.38-47.89 7.09-11.95 14.08-23.95 21.33-35.8 6.88-11.25 13.46-22.7 20.44-33.87 5.99-9.57 11.49-19.44 17.63-28.93 3.04-4.7 6.22-9.51 8.5-14.69 1.5-3.4 3.61-3.49 6.51-2.58 10.96 3.41 22.02 6.45 33.22 8.98 1.65.37 3.1 1.21 4.7 1.71 1.95.6.81 2.28.09 3.48-3.54 5.96-7.07 11.93-10.63 17.88-6.8 11.35-13.63 22.68-20.42 34.03-6.94 11.6-13.83 23.24-20.8 34.83-9.14 15.19-18.4 30.32-27.49 45.53-8 13.38-15.76 26.9-23.84 40.22-1.43 2.36-1.54 4.36-.29 6.4 1.56 2.53 1.34 4.88.16 7.38-.94 1.99-1.08 3.71.63 5.65 4.91 5.57.16 16.9-4.82 19.71-.11.06-.22.24-.31.22-6.81-.98-10.04 5.49-15.44 7.46-1.95.71-4.15 1.15-5.64.28-2.63-1.53-3.46.09-4.64 1.64-5.83 7.67-11.51 15.42-16.57 23.68-5.14 8.4-10.39 16.71-14.82 25.5-6.3 12.5-12.01 25.26-15.75 38.79-2.78 10.09-4.95 20.3-4.19 31.54Zm37.16-31.83c-2.43-2.85-4.62-5.82-5.21-9.69-.39-2.52.24-4.41 2.82-5.2 7-2.14 7.46-2.74 7.33-9.92-.07-3.5-.75-6.73-4.36-8.29-4-1.73-8.14-1.34-11.42 1.31-9.99 8.05-10.5 25.06-3.72 34.18 7.22 9.73 17.09 16.15 28.47 20.21 2.19.78 2.47 1.39.69 2.99-5.54 5-9.61 11.08-12.45 17.93-2.71 6.55-4.35 13.29-1.22 20.19 2.42 5.34 7 7.9 12.33 10.03 9.78 3.9 19.34.64 23.89-8.66 1.98-4.04 1.62-8.31-1.26-11.61-2.46-2.82-7.19-3.96-10.94-2.48 2.35 1.12 4.66 2.02 6.75 3.27 2.47 1.47 3.98 3.99 3.86 6.71-.12 2.73-1.61 5.16-4.7 5.93-2.13.53-4.24 1.45-6.39 1.54-4.29.18-8.49-.26-11.77-3.72-6.33-6.65-5.91-14.01-2.92-21.7.65-1.67 1.3-3.38 2.8-4.56.93-.73 2.03-.83 2.87-.18 1.1.84.4 1.73-.25 2.65-5.07 7.18-3.17 18.38 3.75 23.86 2.25 1.78 3.93.58 5.67-.33 1.28-.67 3.16-1.28 2.85-3.27-.36-2.36-2.55-2.21-4.26-2.63-3.21-.78-4.44-2.51-2.65-5.62.31-.54.95-.99.06-1.54-4.22-2.61-2.84-6.29-1.33-9.45 4.29-8.97 12.53-12.11 21.61-12.5 16.11-.69 26.63 13.22 27.94 28.01 1.4 15.77-6.92 27.07-19.77 35.09-9.33 5.82-19.54 8.82-30.85 8.69-13.15-.15-24.43-4.37-34.63-12.39-7.58-5.96-12.86-13.54-17.08-22.07-3.63-7.34-6.34-15.09-7.49-23.04-2.08-14.44-.36-28.69 3.48-42.87 3.11-11.47 7.03-22.62 12.07-33.24 7.04-14.85 15.23-29.16 24.8-42.6 3.64-5.11 7.27-10.25 11.13-15.19 1.58-2.03.87-2.99-.8-4.18-1.95-1.39-3.06-.32-4.16 1.17-4.81 6.5-9.8 12.87-14.45 19.48-9.04 12.86-16.64 26.54-22.84 40.99-3.19 7.45-5.93 15.03-8.15 22.85-1.83 6.47-3.45 12.99-4.21 19.61-1.25 10.87-1.87 21.75-.38 32.77 1.69 12.49 5.02 24.32 10.56 35.59 2.01 4.09 4.03 8.17 6.58 12.03-1.01-.38-1.85-.89-2.44-1.6-9.73-11.72-16.95-24.85-20.43-39.66-3.68-15.68-3.1-31.66.16-47.28 2.53-12.15 6.69-23.97 11.8-35.38 6.14-13.72 12.91-27.1 21.22-39.66 5.27-7.96 10.37-16.04 15.98-23.75 2.02-2.77 1.55-3.95-1.01-5.36-5.1-2.82-9.82-6.23-14.44-9.74-2.26-1.71-3.4-1.31-4.93.91-10.95 15.86-20.49 32.55-28.88 49.86-6.83 14.1-12.09 28.84-15.81 44.09-3.04 12.46-4.26 25.12-4.17 37.94.09 12.79 2.2 25.2 6.71 37.14 5.77 15.3 14.74 28.58 26.26 40.19 7.75 7.81 16.17 14.63 26.49 18.82 8.81 3.58 18.04 5.74 27.46 5.9 14.16.23 27.81-2.63 40.57-9.13 11.82-6.02 21.56-14.58 26.97-26.52 8.38-18.47 7.32-37-3.69-54.43-5.73-9.08-14.3-15.02-24.2-18.42-7.37-2.53-15.3-3.47-23.02-4.92-10.23-1.91-20.9-1.85-30.38-7.01-1.45-.07-2.04-1.29-2.9-2.15Zm131.1-295.91c-.25.65-.44 1.44-.83 2.09-4.67 7.69-9.32 15.4-14.09 23.04-7.84 12.58-15.83 25.07-23.63 37.68-5.58 9.01-10.61 18.39-16.52 27.18-8.18 12.19-15.47 24.93-23.4 37.27-5.59 8.7-11.12 17.5-16.32 26.46-.93 1.6-1.3 2.55.93 3.87 2.14 1.26 2.87.83 3.88-.9 1.74-2.99 3.51-5.96 5.31-8.91 4.43-7.24 8.85-14.5 13.21-21.78 6.92-11.53 13.68-23.15 20.69-34.63 7.54-12.35 14.73-24.9 22.11-37.34 7.22-12.16 14.47-24.29 21.73-36.42 4.87-8.14 9.92-16.18 14.6-24.43 1.13-1.99 4.07-3.52 3.36-5.82-.86-2.81-4.33-1.33-6.48-2.31-7.43-3.36-15.7-4.01-23.23-7.09-3.06-1.25-5.79-1.41-7.26 2.58-.83 2.24-2.31 4.26-3.57 6.33-6.41 10.53-12.89 21-19.24 31.57-5.68 9.46-11.2 19.01-16.83 28.5-5.12 8.63-10.22 17.27-15.47 25.82-6.39 10.41-12.79 20.83-19.01 31.33-6.68 11.27-13.49 22.45-20.2 33.7-1.18 1.97-.55 3 1.22 4.05 5.54 3.28 11.23 6.37 16.42 10.12 2.6 1.88 3.34.67 4.39-1.08 6.77-11.18 13.4-22.45 20.28-33.56 7.73-12.48 15.75-24.78 23.52-37.24 9.2-14.77 18.24-29.64 27.4-44.44 7.44-12 15.03-23.91 22.34-35.99.89-1.47 1.56-1.87 2.91-1.5.82.23 1.76.59 1.76 1.85ZM172.64 328.83c-2.24.35-4.74 1.25-6.76 3.26-3.72 3.7-3.8 6.23 0 9.77 1.87 1.74 3.91 3.35 6.06 4.75 7.88 5.13 16.27 9.39 24.04 14.75 8.9 6.14 9.09 5.86 14.52-3.43.07-.11.13-.23.18-.34 1.38-2.83 1.45-4.99-1.47-7.38-8.27-6.78-17.66-11.87-26.25-18.15-2.87-2.1-6.3-2.91-10.33-3.22Zm-5.98 18.93c-1.62 1.85-3.61 3.54-4.8 5.67-.88 1.57 1.49 1.66 2.28 2.53 1.58 1.73 3.76 2.64 5.54 4.04 9.15 7.21 18.64 13.93 28.57 20.03 4.12 2.53 5.17 2.24 8.3-2.43 2.34-3.49-1.83-2.97-2.83-4.42-.07-.11-.16-.21-.26-.29-11.24-8.39-22.82-16.29-34.44-24.14-.62-.42-1.41-.6-2.37-1Zm43.77-2.33c.52-4.9.88-8.84-3.44-11.32-4.77-2.74-9.58-5.45-14.16-8.5-3.02-2-6.18-1.54-9.38-1.49-1.07.02-2.2.54-2.33 1.68-.1.87.68 1.61 1.5 2.09 1.66.95 3.37 1.75 4.99 2.83 7.34 4.9 14.83 9.59 22.82 14.71Zm7.09-3.09c-.68-.11-1 .35-.96.87.17 2.17.04 4.47.76 6.45.53 1.47 2.33 2.33 4.08 2.58.74.1 1.18-.33 1.49-.96 1.08-2.15-2.98-8.89-5.38-8.94Zm3.88 20.67c-2.41 1.64-4.69 2.02-6.41 3.71-1.41 1.38-5.35 1.99-4.4 3.52 1.31 2.09 3.32-1.24 5.04-1.97 2.04-.87 5.31-1.07 5.78-5.26Z"/><path d="M451.15 132.64c-.96 11.38-1.31 24.12-4.17 36.76-3.59 15.86-8.68 31.14-14.88 46.06-6.84 16.48-15.4 32.13-24.69 47.36-2.27 3.72-4.36 6.97-1.32 11.51 1.72 2.56-.12 5.46-2.54 7-2.71 1.72-2.07 3.14-.66 5.27 2.97 4.48 4.51 9.18 1.59 14.45-1.86 3.36-4.31 5.56-8.29 5.1-4.38-.5-7.17.54-8.85 5.24-1.75 4.87-2.32 4.71-7.24 2.22-1.44-.73-2.17-.13-2.81 1.02-7 12.58-15.29 24.36-22.45 36.86-5.68 9.92-12.3 19.31-18.41 28.99a4377.55 4377.55 0 0 0-21.17 33.95c-10.69 17.3-21.32 34.63-31.99 51.95-2.08 3.38-4.3 6.68-6.27 10.12-1.28 2.23-2.76 3.09-5.37 2.31-5.67-1.69-11.42-3.12-17.14-4.59-5.96-1.53-11.91-3.21-17.94-4.49-3.07-.66-3.66-1.45-1.91-4.28 9.75-15.88 19.34-31.85 28.97-47.81 7.13-11.82 14.27-23.64 21.33-35.51 5.51-9.25 11.05-18.49 16.57-27.73 6.95-11.63 13.86-23.3 21.04-34.79 5.72-9.16 10.9-18.66 16.97-27.6 1.22-1.79 1.5-3.78-1.29-4.54-2.96-.81-2.14-2.88-1.5-4.62.52-1.42 1.54-2.7 2.49-3.92 1.57-2.03 1.58-3.77-.08-5.89-3.04-3.88-3.61-8.36-.92-12.51 2.36-3.65 5.16-7.3 10.51-6.63 1.2.15 2.36.35 3.06-1.46 2.33-5.96 7.02-8.4 13.08-6.46 3.55 1.13 5.19.09 6.63-3 5.78-12.4 12.64-24.25 18.41-36.67 4.62-9.95 9.4-19.84 13.64-29.94 5.8-13.82 9.41-28.16 9.5-43.41.09-14.87-1.16-29.55-6.79-43.23-6.06-14.75-16.03-26.12-32.39-30.79-7.87-2.25-15.7-3.25-23.72-2.79-12.39.7-24.28 3.41-33.99 11.74-7.84 6.73-11.02 15.84-9.23 25.72 2.02 11.12 7.32 20.46 18.78 25.11 7.08 2.87 13.18.7 19.21-2.51 2.14-1.14 4-2.85 5.88-4.43 1.94-1.64 2.94-3.15-.78-3.89-1.87-.37-3.64-1.27-5.43-1.99-7.75-3.11-10.26-7.16-8.11-14.91 1.95-7.05 5.09-13.51 12.58-16.71 3.97-1.69 8.16-1.73 11.75-.46 7.6 2.67 13.57 7.64 16.85 15.39 5.24 12.39 2.87 23.62-4.87 34.12-1.6 2.16-4.67 4.25-4.64 6.35.03 2.69 4.13 2.14 6.34 3.29 7.4 3.85 14.2 8.37 18.85 15.47 7.33 11.18 9.02 23 3.87 35.59-2.49 6.08-10.85 12.25-17.13 11.31-5.65-.85-10.52-3.99-14.18-8.54-1.73-2.16-3.35-4.45-4.71-6.86-1.16-2.04-1.82-4.19 1.88-4.59 3.3-.36 5.96-2.48 8.64-4.14 2.96-1.83 2.85-5.13.2-8.01-3.37-3.64-7.53-6.09-12.06-8.11-8.4-3.74-17.6-3.43-26.29-5.54-6.57-1.6-13.18-3-19.57-5.57-5.4-2.17-10.57-4.63-15.67-7.34-4.96-2.64-8.93-6.48-12.05-10.98-8.59-12.41-13.49-26.1-12.32-41.39.94-12.28 5.86-23 13.7-32.48 7.78-9.4 17.54-16.03 28.56-21.05 9.75-4.45 20.07-6.31 30.61-7.56 10.06-1.19 19.96.42 29.48 2.87 9.72 2.51 18.91 6.77 27.36 12.66 8.89 6.19 16.84 13.18 23.63 21.56 7.92 9.78 13.61 20.67 17.68 32.63 4.27 12.53 5.83 25.33 6.19 39.78Zm-46.59-73.58c1.07-.5 1.45.09 1.91.5 9.64 8.72 16.27 19.38 20.79 31.51 2.98 8 5.27 16.18 6.51 24.57 1.9 12.82 2.22 25.72 1.06 38.68-.95 10.7-2.89 21.23-5.37 31.62-2.21 9.23-5.38 18.24-8.89 27.09-4.51 11.36-9.31 22.58-15.61 33.11-2.78 4.64-5.26 9.46-7.99 14.13-1.72 2.94 1.41 3.22 2.49 4.26 1.44 1.4 2.06-.5 2.71-1.55 2.86-4.6 5.31-9.48 8.21-14.01 4.75-7.4 8.6-15.29 12.28-23.15 5.09-10.87 9.67-22 13.45-33.48 3.58-10.91 6.46-21.95 8.55-33.17 1.59-8.51 1.69-17.22 1.9-25.91.26-11.34-.72-22.58-3.75-33.37-2.95-10.51-7.33-20.57-13.65-29.8-7.62-11.12-16.86-20.5-27.88-27.98-10.71-7.28-22.72-11.92-35.59-13.96-16.46-2.61-32.32-.46-47.52 6.4-11.93 5.38-22.07 12.82-29.85 23.62-6.47 8.99-10.05 18.8-10.34 29.68-.26 9.96 2.84 19.21 7.32 28.09 4.03 8.01 9.9 14.36 17.59 18.6 13.04 7.19 27.48 10.7 42.08 12.42 10.84 1.28 20.36 4.71 28.59 11.44 5.18 4.24 8.36 11.75-.7 17.05-1.76 1.03-3.55 2.02-5.42 2.83-1.23.53-1.7.9-.78 2.21 2.48 3.53 5.55 6.49 9.02 8.94 3.56 2.5 8.67 1.59 12.24-1.12 8.8-6.69 8.89-19.77 6.34-28.49-3-10.26-10.41-17.08-19.75-22.09-4.68-2.51-10.11-2.94-14.93-5.97 2.09-1.38 3.35-3.29 4.92-4.93 4.92-5.13 9.03-11.1 10.72-18 3.22-13.12-2.37-25.8-16.42-30.85-2.66-.96-4.96-.85-7.5.18-6.42 2.6-9.16 8.04-10.88 14.12-1.22 4.31.48 7.15 4.63 8.93 5.27 2.26 10.67 4.03 16.99 4.15-5.95 7.43-11.51 14.04-20.26 17.12-8.87 3.12-17 1.9-24.52-3.45-8.07-5.74-12.19-13.84-14.09-23.45-2.76-14.02 3.82-28.56 16.25-35.55 7.99-4.49 16.5-7.18 25.54-8.12 14.69-1.54 28.8.21 41.84 7.84 8.35 4.88 14.82 11.63 19.44 19.91 7.41 13.28 10.23 28.01 11.07 42.95.94 16.6-1.19 32.78-7.35 48.55-4.94 12.63-10.31 25-16.22 37.17-6.17 12.72-12.34 25.44-19.26 37.77-.73 1.3-.82 1.75.66 2.6 4.03 2.32 7.99 4.81 11.79 7.5 2.29 1.62 3.59 1.33 4.73-1.14 2.18-4.68 5.31-8.83 7.62-13.46 5.29-10.57 10.57-21.12 14.88-32.15 3.71-9.49 7.15-19.08 9.57-28.97 1.37-5.59 2.93-11.14 3.7-16.91.94-7.03 2.29-14.02 2.5-21.13.5-16.33-.31-32.54-5.54-48.21-2.19-6.57-4.95-12.89-8.41-18.95-3.29-5.77-7.32-10.98-11.42-16.24ZM272.79 474.39c.61.12.8-1.1 1.32-1.94 10.03-16.02 20.1-32.02 30.09-48.07 12.77-20.53 25.44-41.12 38.23-61.64a6852.44 6852.44 0 0 1 30.35-48.23c1.78-2.8 1.4-4.34-1.57-5.96-8.02-4.4-16.13-8.71-23.68-13.82-3.55-2.4-4.26-1.1-5.83 1.6-5.23 8.97-10.64 17.84-16.01 26.72-4.45 7.36-9.23 14.53-13.34 22.07-4.73 8.68-10.04 17.01-15.1 25.47-5.88 9.83-11.91 19.59-17.94 29.34-9.05 14.64-17.65 29.56-26.49 44.34-3.75 6.27-7.67 12.44-11.38 18.73-.91 1.54-2.19 2.92 1.4 3.9 5.41 1.47 10.98 2.41 16.32 4.26 4.13 1.43 8.53 2.06 13.63 3.23Zm122.55-189.03c-.64 1.36.33 2.49.59 3.65.69 3.05-.59 5.58-2.7 7.08-2.23 1.57-5.26 1.22-7.8.08-1.78-.8-1.81-2.23-.52-3.81 2.05-2.51 4.05-5.09 6.82-6.8 2.69-1.66 1.83-2.72-.27-3.94-13.18-7.69-26.18-15.71-39.96-22.35-2.36-1.14-4.57-2.15-6.73.09-2.25 2.32-4.3 4.59-3.36 8.43 1.07 4.37 4.43 6.62 7.62 8.79 9.24 6.29 18.55 12.53 28.19 18.18 5.14 3.01 10.62 5.73 16.52 7.2 4.12 1.03 6.39-.39 7.42-4.52 1.26-5.08-.39-8.54-5.81-12.07Zm-34.15-35.58c-1.22.3-3.55-.16-4.43 2.02-.71 1.75-.49 3.93 1.22 4.91 2.37 1.36 3.94 3.61 6.23 4.97 10.15 6.02 20.93 10.95 30.53 17.9 2.73 1.98 4.18-.77 6.02-1.69 1.77-.89 1.95-2.43.65-4.19-1.83-2.46-3.89-4.63-6.13-6.73-3.61-3.39-7.9-5.81-11.94-8.52-6.5-4.37-13.47-8.01-22.15-8.68Zm24.73 55.79c.22-1.36-.66-1.4-1.31-1.8-12.84-8.12-25.66-16.26-38.46-24.44-1.14-.73-1.83-.68-2.48.52-2.31 4.26-3.69 4.53 1.72 7.14.81.39 1.57.88 2.34 1.35 10.78 6.68 21.18 13.98 32.33 20.06 2.29 1.25 5.63-.56 5.86-2.83ZM185.25 478.36c1.4 3.77 5.29 4.24 8.18 5.98 1.66 1 3.33 1.73 4.52 4.03-5-.14-8.65-2.45-12.45-4.13-6.19-2.73-12.11-6.09-15.14-12.51-3.17-6.71-1.82-16.59 5.8-20.4 1.5-.75 2.69-1.14 3.64.45.72 1.2.64 2.24-.7 3.31-1.56 1.25-2.95 2.84-4.06 4.51-3.77 5.67-.28 13.47 7.32 16.61.86.86 1.45 2.08 2.9 2.15ZM225.33 492.29c17.67 2.31 33.15 8.74 40.53 27.3 1.56 3.92 1.83 8.22 1.64 12.22-1.03 20.87-10.74 36.88-28.17 48.4-5.02 3.31-10.65 5.09-16.09 7.4-1.22.52-2.97 1.25-3.54.11-.78-1.56.98-2.55 2.28-3.02 6.46-2.36 12.31-5.86 17.77-9.9 14.4-10.66 23.92-24.26 22.32-42.97-.79-9.22-4.84-17.44-11.94-24.04-7.74-7.2-16.66-11.09-27.15-11.52-1.43-.06-2.17-.36-2.19-1.92-.02-1.47.48-2.2 2.03-2.05.64.06 1.3.01 2.52.01Z"/><path d="M304.85 118.16c-4.75-4.98-7.96-10.74-10.6-16.8-3.56-8.17-4.08-16.82-2.2-25.38 1.38-6.29 4.71-11.85 9.37-16.52 9.22-9.24 20.83-13.46 33.24-16.14 2.1-.45 2.49.87 3.04 2.12.67 1.53-.38 1.93-1.63 2.37-7.38 2.64-15.03 4.48-21.87 8.69-11.92 7.34-17.64 18.19-17.4 31.63.16 9.34 2.67 18.55 7.47 26.88.49.85 1.39 1.63.58 3.14ZM391.77 166.79c-.22 7.59-5.56 14.17-12.85 16.61-1.75.59-2.68.42-3.4-1.18-.76-1.67-.04-2.87 1.44-3.45 3.64-1.42 5.58-4.35 7.44-7.52 3.77-6.47 1.81-8.97-1.66-13.63-3.3-4.43-7.68-7.86-12.56-10.55-.56-.31-1-.82-1.54-1.15-1.93-1.19-3.61-3-2.22-5.02 1.44-2.08 3.27.07 4.67.93 7.78 4.79 15.18 9.94 19.22 18.65 1.03 2.21 1.62 4.31 1.47 6.3ZM351.62 92.94c-2.37-5.09.31-9.6 5.7-10.37 4.39-.62 8.4 1.65 10.02 5.95.85 2.25 1.74 4.48 2.22 6.9.37 1.9.49 3.59-1.46 4.05-1.8.42-3.52-.45-4.06-2.63-.48-1.97-1.1-3.9-1.74-5.84-1.87-5.64-4.92-4.82-8.45-1.32-.79.79-1.29 1.87-2.22 3.25ZM269.1 468.04c-2.19-.33-2.68-1.32-1.37-3.39 4.25-6.72 8.38-13.52 12.6-20.26 6.82-10.89 13.66-21.77 20.52-32.64 7.82-12.39 15.71-24.73 23.48-37.15 6.1-9.74 12.03-19.59 18.09-29.36 5.07-8.17 10.28-16.26 15.29-24.47 1.05-1.72 2.43-1.54 3.63-1.01 1.91.84.64 1.98-.05 3.08-7.59 12.04-15.18 24.07-22.71 36.15-7.87 12.64-15.66 25.33-23.51 37.98-10.63 17.14-21.23 34.3-31.96 51.38-3.74 5.96-7.69 11.78-10.97 18.01-.61 1.16-1.66 1.57-3.02 1.69Z"/></g></svg>