<svg xmlns="http://www.w3.org/2000/svg" fill="#0AC189" xml:space="preserve" id="Calque_1" x="0" y="0" version="1.1" viewBox="0 0 33.5 39.5"><path d="M30.8 39.5h-27c-2.1 0-3.8-1.7-3.8-3.8v-32C0 1.7 1.7 0 3.8 0h27c1.5 0 2.8 1.2 2.8 2.8v34c-.1 1.5-1.3 2.7-2.8 2.7zm-27-38c-1.2 0-2.2 1-2.2 2.2v32c0 1.2 1 2.2 2.2 2.2h27c.7 0 1.2-.6 1.2-1.2v-34c0-.7-.6-1.2-1.2-1.2h-27z"/><path d="M7.8 39.5c-.4 0-.8-.3-.8-.8v-26c0-.4.3-.7.8-.7s.8.3.8.8v26c-.1.4-.4.7-.8.7zM7.8 8.5c-.5 0-.8-.3-.8-.7v-7c0-.5.3-.8.8-.8s.8.3.8.8v7c-.1.4-.4.7-.8.7zM14.8 31h8v1.5h-8zM14.8 27h11v1.5h-11zM14.8 23h11v1.5h-11zM22.8 10.5c1.5.8 2.5 2.4 2.5 4.1 0 .6-.1 1.1-.3 1.6-.2.4-.4.8-.8 1-.3.2-.8.4-1.2.4-.3 0-.7-.1-.9-.2-.3-.2-.5-.4-.6-.7-.4.6-1.1 1-1.9.9-.9 0-1.8-.5-2.2-1.3-.4-.9-.4-1.9 0-2.8.4-.8 1.3-1.3 2.2-1.3.6 0 1.3.2 1.7.7v-.6h1.5v3.5c0 .5.2.7.5.7s.5-.2.6-.5c.2-.4.2-.9.2-1.4 0-.7-.2-1.3-.5-1.9-.3-.6-.8-1-1.4-1.3-.7-.3-1.4-.5-2.1-.5-.7 0-1.5.2-2.1.5-.6.3-1.1.8-1.4 1.4-.3.6-.5 1.3-.5 2s.2 1.4.5 2c.3.6.8 1.1 1.4 1.4.6.3 1.4.5 2.1.5.7 0 1.5-.2 2.2-.5l.3 1c-.4.2-.8.3-1.2.4-.4.1-.9.1-1.3.1-1 0-1.9-.2-2.7-.6-.8-.4-1.4-1-1.8-1.8-.4-.8-.7-1.7-.7-2.6 0-.9.2-1.8.7-2.5.4-.8 1.1-1.4 1.9-1.8.9-.4 1.8-.7 2.8-.6.7 0 1.7.2 2.5.7zM21 16c.3-.3.4-.7.4-1.1 0-.4-.1-.8-.4-1.1-.3-.3-.6-.4-1-.4s-.7.1-1 .4c-.3.3-.4.7-.4 1.1 0 .4.1.8.4 1.1.3.3.6.4 1 .4s.7-.2 1-.4z"/></svg>