<svg xmlns="http://www.w3.org/2000/svg" fill="#0AC189" xml:space="preserve" id="Calque_1" x="0" y="0" version="1.1" viewBox="0 0 45 31.6"><g><circle cx="39.8" cy="25.9" r=".9"/><path d="M45 18.7c-.1-.2-.2-.4-.4-.5l-6.8-4c-.2-.5-.5-1-.9-1.3-.1-.4-.3-.8-.5-1.2.1-.7 0-1.4-.3-2.1-.4-.6-.9-1.1-1.6-1.4.4-.8.3-1.8-.1-2.6-.4-.7-1.1-1.3-1.9-1.5-.3 0-.6-.1-.8-.1.1-.6-.1-1.2-.4-1.8-.4-.7-1.1-1.2-1.8-1.4-.8-.2-1.6-.1-2.3.3-.1 0-1.6.9-3.8 2-1.7-1-4.5-2.7-4.5-2.7-1.5-.9-3.3-.4-4.2 1-.5.8-.7 1.6-.5 2.4-.8.2-1.5.7-1.9 1.4-.4.7-.6 1.5-.4 2.3-.8.2-1.5.7-1.9 1.4-.4.6-.5 1.3-.4 2l-.4.4c-.6.2-1.1.7-1.5 1.2-.3.5-.5 1.1-.4 1.6L.5 18c-.4.2-.6.8-.4 1.2l6.7 12c.2.4.8.6 1.2.3l4.7-2.6c.4-.2.6-.8.3-1.2l-.9-1.6 2.2-1.2c1.3.6 2.7 1 4.1 1 1.6 0 3.1-.4 4.5-1.1 1.1.4 2.3.7 3.5.7 1.3 0 2.6-.3 3.8-.8l2.2 1.3-.9 1.5c-.3.4-.1 1 .3 1.2l4.6 2.7c.1.1.3.1.5.1.3 0 .6-.2.8-.4l.8-1.3c.3-.4.2-1-.3-1.2-.4-.3-1-.2-1.2.3l-.4.6-3.1-1.8 6.2-10.2 3.1 1.8-1.8 2.9c-.3.4-.2 1 .3 1.2.4.3 1 .2 1.2-.3l2.2-3.7c.3-.2.3-.5.3-.7zm-10.7.2 2-1.1c.7-.4 1.2-1 1.4-1.7l.5.3-4.8 7.9-1.8-1.1 2.7-4.3zM16.1 2.4c.2-.4.7-.6 1.1-.6.2 0 .5.1.7.2l1.7 1c.3.2.5.5.6.8.1.3 0 .7-.1 1-.1.2-.2.3-.4.4l-.2.1c-.4.2-.8.1-1.2 0l-1.7-1c-.4-.3-.6-.6-.7-1 0-.3 0-.6.2-.9zm-2.3 3.7c.2-.4.7-.6 1.1-.6.2 0 .5.1.7.2l2.9 1.7c.3.2.5.5.6.8.1.3 0 .7-.1 1-.4.6-1.1.8-1.8.5l-3-1.8c-.2-.2-.4-.5-.5-.9-.1-.3 0-.6.1-.9zm-2.2 3.7c.4-.6 1.2-.8 1.8-.4l3 1.8c.3.2.5.5.6.8.1.3 0 .7-.1 1-.4.6-1.2.8-1.8.4l-3-1.8c-.3-.2-.5-.5-.6-.8-.2-.4-.1-.7.1-1zm1.2 4.2c.3.2.5.5.6.8.1.3 0 .7-.1 1-.4.6-1.2.8-1.8.4l-1.7-1c-.3-.2-.5-.5-.6-.8-.1-.3 0-.7.1-1 .4-.6 1.2-.8 1.8-.4l1.7 1zM8 29.6 2.1 19.1l3.1-1.7 5.9 10.4L8 29.6zm3.3-5-4.6-8.1 1.2-.6c.2.3.6.6.9.8l.7.4 3.6 6.4-1.8 1.1zm3.7-1.3-2.9-5.1c1.1 0 2-.6 2.6-1.5.3-.4.4-1 .4-1.5 1.2.2 2.5-.3 3.2-1.4.4-.7.6-1.5.4-2.3v-.1c.8-.2 1.4-.7 1.8-1.4.4-.7.6-1.5.4-2.3-.1-.4-.3-.7-.5-1.1l7.5-4.1c.3-.2.7-.2 1-.1.3.1.6.3.8.6.2.3.2.6.1 1-.1.3-.3.6-.6.8l-4.9 2.7c-.4.2-.6.8-.4 1.2s.8.6 1.2.4L30.8 6c.3-.2.7-.2 1-.1.8.1 1.2.8 1.1 1.5-.1.4-.3.7-.7.8l-5.7 3.1c-.4.2-.6.7-.4 1.2.2.4.7.6 1.2.4h.1l5.3-2.9c.3-.2.7-.2 1-.1.3.1.6.3.8.6.2.3.2.6.1 1-.1.3-.3.6-.6.8L28.6 15c-.4.2-.6.8-.4 1.2s.8.6 1.2.4l4.9-2.5c.3-.2.7-.2 1-.1.3.1.6.3.8.6.2.3.2.6.1 1-.1.3-.3.6-.6.8l-13.1 6.8c-2.3 1.3-5.1 1.3-7.5.1zm10.3.3 6-3.1-1.5 2.5c-1.4.6-3 .9-4.5.6z"/></g></svg>