<svg xmlns="http://www.w3.org/2000/svg" fill="#0AC189" xml:space="preserve" id="Calque_1" x="0" y="0" version="1.1" viewBox="0 0 27.8 37"><path d="M13.9 31.6c-.9 0-1.5.7-1.5 1.5s.7 1.5 1.5 1.5c.9 0 1.5-.7 1.5-1.5s-.7-1.5-1.5-1.5z"/><path d="M23.9 0h-20C1.7 0 0 1.7 0 3.9v29.3C0 35.3 1.7 37 3.9 37h20c2.1 0 3.9-1.7 3.9-3.9V3.9C27.8 1.7 26 0 23.9 0zm2.3 33.1c0 1.3-1 2.3-2.3 2.3h-20c-1.3 0-2.3-1-2.3-2.3V3.9c0-1.3 1-2.3 2.3-2.3h20c1.3 0 2.3 1 2.3 2.3v29.2z"/><path d="M23.9 3.1h-20c-.4 0-.8.3-.8.8v26.2c0 .4.3.8.8.8h20c.4 0 .8-.3.8-.8V3.9c0-.5-.4-.8-.8-.8zm-.8 26.2H4.6V4.6h18.5v24.7z"/></svg>	