<svg xmlns="http://www.w3.org/2000/svg" fill="#0AC189" xml:space="preserve" id="Calque_1" x="0" y="0" version="1.1" viewBox="0 0 39.5 39.5"><path d="M19.8 0C8.9 0 0 8.9 0 19.8s8.9 19.8 19.8 19.8 19.8-8.9 19.8-19.8C39.5 8.9 30.6 0 19.8 0zm0 38C9.7 38 1.5 29.8 1.5 19.8 1.5 9.7 9.7 1.5 19.8 1.5c10 0 18.2 8.2 18.2 18.3 0 10-8.2 18.2-18.2 18.2z"/><path d="M19 4.8h1.5v2H19zM32.8 19h2v1.5h-2zM19 32.8h1.5v2H19zM4.8 19h2v1.5h-2zM26.7 11.7 21 17.4c-.4-.2-.8-.4-1.3-.4s-.9.1-1.3.4l-3.2-3.2c-.3-.3-.8-.3-1.1 0s-.3.8 0 1.1l3.2 3.2c-.2.4-.4.8-.4 1.3 0 1.5 1.2 2.8 2.8 2.8s2.8-1.2 2.8-2.8c0-.5-.1-.9-.4-1.3l5.7-5.7c.3-.3.3-.8 0-1.1s-.8-.3-1.1 0z"/></svg>