<?xml version="1.0" encoding="utf-8"?>
<!-- Generator: Adobe Illustrator 27.2.0, SVG Export Plug-In . SVG Version: 6.00 Build 0)  -->
<svg version="1.1" id="Calque_1" xmlns="http://www.w3.org/2000/svg" xmlns:xlink="http://www.w3.org/1999/xlink" x="0px" y="0px"
	 viewBox="0 0 137.3 52" style="enable-background:new 0 0 137.3 52;" xml:space="preserve">
<style type="text/css">
	.st0{fill:#0AC17B;}
	.st1{fill:#FFBA2F;}
	.st2{enable-background:new    ;}
</style>
<g>
	<path d="M0,39.5h7V26.8l6.2,13.7h1.1l6.2-13.6v12.7h6.9V11.1h-6.4l-7.4,15.5L6.5,11.1H0L0,39.5z M1.8,38.2V14.9l3.5,7.8v15.6
		L1.8,38.2z M16.3,32.1l-1.7-3.7l5.9-12.5v7.2L16.3,32.1z"/>
	<path class="st0" d="M20.5,26.9v12.7h6.9V11.1h-6.9V26.9z"/>
	<path class="st1" d="M7,26.8l5.9,13.1l3.4-7.7L6.5,11.1H0L7,26.8z M1.8,14.9l3.5,7.8L1.8,14.9z"/>
	<g class="st2">
		<path d="M31.5,10.4h18.3v6H38.3v5h10.6v5.9H38.3v5h12V38H31.5V10.4z"/>
		<path d="M58.5,16.4h-6.2v-6h19.2v6h-6.3V38h-6.8V16.4z"/>
		<path d="M79.5,16.4h-6.2v-6h19.2v6h-6.3V38h-6.8V16.4z"/>
		<path d="M95.7,10.4H114v6h-11.5v5h10.6v5.9h-10.6v5h12V38H95.7V10.4z"/>
		<path d="M122.6,16.4h-6.2v-6h19.2v6h-6.3V38h-6.8V16.4z"/>
	</g>
</g>
</svg>
