<svg width="160" height="215" viewBox="0 0 160 215" fill="none" xmlns="http://www.w3.org/2000/svg">
<g clip-path="url(#clip0_9_966)">
<path d="M21.4507 0.0598188C20.6121 0.859895 19.796 1.66371 19.0025 2.47874L18.9724 2.46753C6.72782 15.037 -0.018764 29.4309 3.91985e-05 44.3556C0.0188424 59.7926 8.89018 72.863 22.2743 84.7109C34.9025 95.8933 50.9529 105.528 67.1349 115.065C82.1511 123.918 96.9831 132.805 107.441 142.058C117.144 150.65 123.571 159.937 123.586 170.566C123.601 181.711 118.614 192.407 109.577 201.687V201.728C104.914 206.517 99.153 210.944 92.4252 214.877L138.546 214.817C139.384 214.017 140.204 213.213 140.994 212.398L141.024 212.409C153.265 199.843 160.011 185.442 159.993 170.521C159.974 155.088 151.102 142.017 137.718 130.166C125.09 118.983 109.04 109.349 92.8577 99.8152C77.8414 90.9582 63.0095 82.0751 52.5512 72.8182C42.8525 64.2267 36.4256 54.9436 36.4105 44.307C36.3955 33.162 41.3783 22.4694 50.4151 13.19V13.1489C55.0783 8.35968 60.8396 3.93309 67.5636 0L21.4507 0.0598188Z" fill="#0A7CC1"/>
<path d="M0.225635 215L61.7421 214.921C66.5933 211.714 70.9557 208.27 74.7464 204.625C85.2987 194.486 91.4361 182.889 91.4211 170.614C91.4022 157.495 83.189 146.451 70.7902 136.484C59.4707 127.38 45.0637 119.529 30.5326 111.749L0.067688 95.4446L0.105294 124.453L0.225635 215Z" fill="#39B54A"/>
</g>
<defs>
<clipPath id="clip0_9_966">
<rect width="160" height="215" fill="white"/>
</clipPath>
</defs>
</svg>
