<svg width="371" height="500" viewBox="0 0 371 500" fill="none" xmlns="http://www.w3.org/2000/svg">
<g clip-path="url(#clip0_122_123)">
<path d="M49.6972 0.139113C47.7543 1.99976 45.8636 3.86909 44.0253 5.76452L43.9556 5.73843C15.5871 34.9697 -0.0434726 68.4438 9.08154e-05 103.153C0.0436542 139.053 20.5969 169.449 51.6053 197.002C80.8625 223.008 118.048 245.414 155.539 267.593C190.329 288.182 224.691 308.849 248.921 330.368C271.4 350.349 286.29 371.946 286.325 396.665C286.36 422.583 274.807 447.459 253.87 469.039V469.134C243.066 480.272 229.719 490.566 214.132 499.713L320.984 499.574C322.927 497.713 324.826 495.844 326.656 493.949L326.726 493.975C355.085 464.752 370.716 431.261 370.672 396.56C370.629 360.669 350.076 330.273 319.067 302.711C289.81 276.705 252.624 254.299 215.134 232.128C180.344 211.531 145.981 190.872 121.751 169.345C99.2811 149.364 84.3911 127.776 84.3563 103.04C84.3214 77.121 95.8657 52.2545 116.802 30.6745V30.5789C127.606 19.4411 140.954 9.14671 156.532 0L49.6972 0.139113Z" fill="#0A7CC1"/>
<path d="M0.522671 500L143.045 499.817C154.284 492.357 164.391 484.35 173.173 475.873C197.621 452.293 211.84 425.322 211.805 396.778C211.762 366.268 192.733 340.585 164.007 317.405C137.782 296.234 104.404 277.975 70.7382 259.881L0.156738 221.964L0.243865 289.426L0.522671 500Z" fill="#39B54A"/>
</g>
<defs>
<clipPath id="clip0_122_123">
<rect width="370.69" height="500" fill="white"/>
</clipPath>
</defs>
</svg>
