<?xml version="1.0" standalone="no"?>
<!DOCTYPE svg PUBLIC "-//W3C//DTD SVG 20010904//EN"
 "http://www.w3.org/TR/2001/REC-SVG-20010904/DTD/svg10.dtd">
<svg version="1.0" xmlns="http://www.w3.org/2000/svg"
 width="636.000000pt" height="636.000000pt" viewBox="0 0 636.000000 636.000000"
 preserveAspectRatio="xMidYMid meet">
<metadata>
Created by potrace 1.14, written by Peter Selinger 2001-2017
</metadata>
<g transform="translate(0.000000,636.000000) scale(0.100000,-0.100000)"
fill="#000000" stroke="none">
<path d="M659 6320 c-1 -3 -2 -32 -3 -65 l-1 -60 -73 -3 -73 -3 2 -2552 c1
-2431 2 -2556 20 -2624 41 -165 131 -279 270 -345 134 -64 100 -62 1047 -63
743 -1 864 -3 876 -15 11 -12 234 -383 331 -553 l22 -39 23 49 c12 26 33 72
47 101 l25 54 31 -53 30 -53 26 54 c15 30 39 84 55 120 16 36 47 103 68 149
22 45 50 107 63 137 l24 54 933 2 933 3 57 27 c31 15 72 43 92 61 19 19 54 42
78 53 59 26 148 118 179 184 62 130 58 -54 58 2790 l0 2595 -2570 0 c-1413 0
-2570 -2 -2570 -5z"/>
</g>
</svg>
