<svg width="420" height="420" viewBox="0 0 420 420" fill="none" xmlns="http://www.w3.org/2000/svg">
<path d="M0 210C0 94.0187 94.0187 0 210 0C325.981 0 420 94.0187 420 210C420 325.981 325.981 420 210 420C94.0187 420 0 325.981 0 210Z" fill="white"/>
<path d="M186.83 210.042C186.83 197.248 197.207 186.829 210.043 186.829C222.879 186.829 233.214 197.206 233.214 210.042C233.214 222.878 222.837 233.213 210.043 233.213C197.249 233.213 186.83 222.836 186.83 210.042Z" fill="#D20A11"/>
<path d="M185.162 175.743L210.083 99.0612L235.005 175.743H238.881C266.553 173.826 288.39 150.53 288.39 122.357C288.39 94.1852 264.552 69.0969 235.088 69.0969H110.647V175.785H185.203L185.162 175.743Z" fill="#D20A11"/>
<path d="M288.849 195.164L250.383 223.086L275.304 299.768L210.083 252.383L144.862 299.768L169.783 223.086L110.647 180.119V351.153H264.886C308.978 351.153 344.693 315.396 344.693 271.304C344.693 235.588 321.23 205.332 288.849 195.164Z" fill="#0056A4"/>
</svg>
