<svg width="206" height="420" viewBox="0 0 206 420" fill="none" xmlns="http://www.w3.org/2000/svg">
<path d="M97.6228 122.956L102.529 127.417L107.435 122.956C130.011 102.47 139.2 85.3301 139.2 63.853C139.2 42.0455 129.97 24.8225 107.393 4.41932L102.487 0L97.5812 4.41932C75.0048 24.7812 65.7747 42.0042 65.7747 63.853C65.8578 85.2888 75.0463 102.429 97.6228 122.956ZM102.529 19.6598C118.37 35.1068 124.69 47.8691 124.69 63.8117C124.69 79.6717 118.578 92.021 102.529 107.674C86.4801 92.021 80.3682 79.713 80.3682 63.8117C80.3682 47.8691 86.688 35.1068 102.529 19.6598Z" fill="#FAB600"/>
<path d="M37.2948 187.8C47.3149 193.541 57.5845 196.391 69.4756 196.391C79.1631 196.391 89.9732 194.45 102.53 190.65C115.127 194.45 125.896 196.391 135.583 196.391C147.433 196.391 157.703 193.541 167.764 187.8C186.765 176.896 197.201 160.376 203.645 130.721L205.059 124.319L198.781 122.336C169.718 113.085 150.094 113.787 131.093 124.691C113.256 134.934 103.07 150.381 96.4177 177.433C73.3007 184.207 58.9566 183.546 44.5708 175.286C30.6424 167.314 22.7012 155.502 17.1714 134.149C38.5421 128.243 52.8031 129.193 66.7315 137.164C72.1781 140.262 76.5437 143.855 80.2025 148.233L90.8047 138.362C86.1896 132.951 80.7015 128.49 74.0075 124.649C54.9651 113.746 35.3823 113.043 6.31976 122.295L0 124.36L1.41361 130.762C7.85809 160.376 18.294 176.896 37.2948 187.8ZM138.328 137.205C152.256 129.234 166.517 128.284 187.888 134.19C182.358 155.543 174.375 167.356 160.488 175.327C146.643 183.257 132.839 184.166 111.178 178.177C116.791 156.535 124.482 145.135 138.328 137.205Z" fill="#FAB600"/>
<path d="M131.052 212.376C113.215 222.619 103.028 238.066 96.376 265.119C73.2591 271.892 58.915 271.231 44.5293 262.971C30.6009 255 22.6596 243.187 17.1298 221.834C38.5005 215.928 52.7615 216.878 66.6899 224.849C72.1365 227.947 76.5021 231.54 80.1609 235.918L90.7631 226.047C86.1481 220.636 80.6598 216.176 73.9659 212.335C54.9235 201.431 35.3406 200.729 6.27814 209.98L0 212.004L1.41361 218.406C7.89966 248.02 18.294 264.54 37.2948 275.485C47.3149 281.226 57.5845 284.076 69.4756 284.076C77.2506 284.076 85.7323 282.837 95.295 280.4V353.381H109.847V280.4C119.368 282.837 127.85 284.076 135.667 284.076C147.516 284.076 157.786 281.226 167.847 275.485C186.848 264.582 197.284 248.061 203.729 218.406L205.142 212.004L198.864 210.022C169.718 200.77 150.094 201.472 131.052 212.376ZM160.488 262.971C146.643 270.901 132.839 271.81 111.178 265.821C116.791 244.178 124.482 232.779 138.328 224.849C152.256 216.878 166.517 215.928 187.888 221.834C182.358 243.187 174.417 255 160.488 262.971Z" fill="#FAB600"/>
<path d="M102.532 420L66.1102 374.485C62.7425 370.272 57.6285 367.835 52.2234 367.835H1.24976V353.38H59.25C64.655 353.38 69.769 355.817 73.1368 360.029L102.532 396.788L131.969 360.029C135.336 355.817 140.45 353.38 145.814 353.38H203.814V367.835H152.799C147.394 367.835 142.28 370.272 138.954 374.485L102.532 420Z" fill="#C90C0F"/>
</svg>
