<svg width="94" height="113" viewBox="0 0 94 113" fill="none" xmlns="http://www.w3.org/2000/svg">
<path d="M75.6299 40.507L61.2534 60.4518L46.6926 40.26L30.7802 60.4518L16.8952 40.3835L3.37891 59.2168C3.37891 77.8032 3.37891 97.1923 3.37891 98.3037C3.37891 101.082 5.16061 106.146 11.1815 106.146C17.2024 106.146 35.5724 106.146 37.6613 106.146C39.7501 106.146 46.6926 107.01 46.5698 110.9C46.5083 107.01 53.5122 106.146 55.6011 106.146C57.69 106.146 76.06 106.146 82.0809 106.146C88.1018 106.146 89.8835 101.082 89.8835 98.3037C89.8835 97.1923 89.8835 77.3709 89.8835 58.4759L75.6299 40.507Z" fill="#FEFEFE" stroke="#252525"/>
<path d="M46.5701 110.839C46.5701 110.386 46.652 109.995 46.8158 109.666C46.652 109.666 46.5086 109.645 46.3857 109.604C46.5086 109.974 46.5701 110.386 46.5701 110.839Z" stroke="#252525"/>
<path d="M22.4248 81.1993C23.8379 70.3316 18.8614 63.9097 18.8614 63.9097C16.2196 61.1928 17.1412 52.9802 17.1412 52.9802C10.5059 61.5633 12.2876 68.5409 12.2876 68.5409C13.332 71.4431 12.6562 76.5682 11.7961 77.7414C6.38954 84.9043 10.6288 91.7584 10.6288 91.7584C12.2876 94.9076 10.8745 97.254 10.8745 97.254C8.96993 100.959 8.41699 103.738 8.41699 105.652C9.21568 105.899 10.1373 106.084 11.1817 106.084C14.3765 106.084 20.9503 106.084 26.7869 106.084C26.6026 102.009 25.7425 95.8955 23.4693 92.9316C22.0562 91.0791 21.3804 89.1032 22.4248 81.1993Z" fill="#EC1C24" stroke="#252525" stroke-linecap="round" stroke-linejoin="round"/>
<path d="M52.0376 80.3967C55.3552 69.9611 49.8258 64.0333 49.8258 64.0333C47.184 61.3163 48.1056 53.1038 48.1056 53.1038C41.286 59.8344 43.9278 68.1704 43.9278 68.1704C44.9722 71.0726 41.8389 77.0005 41.8389 77.0005C36.3095 85.0278 39.75 92.1289 39.75 92.1289C41.716 96.8835 39.8729 100.465 39.8729 100.465C38.4598 103.058 37.8454 104.849 37.6611 106.084C39.5043 106.084 45.1566 106.763 46.3853 109.604C46.5082 109.645 46.6515 109.666 46.8154 109.666C47.9827 106.763 53.6964 106.084 55.601 106.084C55.7239 106.084 55.9082 106.084 56.1539 106.084C55.7853 102.132 54.6794 96.3278 52.8363 92.9316C52.2834 91.8819 49.5801 88.3005 52.0376 80.3967Z" fill="#EC1C24" stroke="#252525" stroke-linecap="round" stroke-linejoin="round"/>
<path d="M80.2378 80.8289C83.5554 70.3934 77.2273 64.0333 77.2273 64.0333C74.5855 61.3163 76.4286 53.1038 76.4286 53.1038C69.609 59.8344 71.4521 68.1704 71.4521 68.1704C73.6639 71.5666 70.1619 78.4207 70.1619 78.4207C67.1515 83.5458 69.2404 89.7824 69.2404 89.7824C71.2064 94.5371 67.1515 99.5387 67.1515 99.5387C65.7998 102.688 65.3083 104.726 65.124 106.084C71.2678 106.084 78.6404 106.084 82.0809 106.084C82.6133 106.084 83.1253 106.043 83.6168 105.961C83.4325 102.132 82.8796 96.6365 81.0364 93.3021C80.4835 92.3141 77.7802 88.7327 80.2378 80.8289Z" fill="#EC1C24" stroke="#252525" stroke-linecap="round" stroke-linejoin="round"/>
<path d="M16.7722 40.1983L3.25586 59.0316H3.50161V4.4458H90.0062L89.8833 59.1551L75.5068 40.3218L61.1304 60.2048L46.5696 40.013L30.6572 60.2048L16.7722 40.1983Z" fill="#007ABA" stroke="#252525" stroke-linecap="round" stroke-linejoin="round"/>
<path d="M12.41 31.0596C12.41 31.0596 10.2597 29.2689 9.52246 24.823L12.41 31.0596Z" fill="#FEFEFE"/>
<path d="M12.41 31.0596C12.41 31.0596 10.2597 29.2689 9.52246 24.823" stroke="#252525"/>
<path d="M10.3822 40.4453C10.3822 40.4453 10.5666 38.0371 9.27637 36.9874C9.27637 36.9874 17.0175 19.0803 29.1208 14.1404C29.1208 14.1404 13.8842 23.6497 10.3822 40.4453Z" fill="#FEFEFE" stroke="#252525" stroke-width="0.8"/>
<path d="M19.291 7.65698C19.291 7.65698 13.2701 13.3379 18.7381 22.0444C18.7381 22.0444 21.3799 18.463 21.1956 16.24C21.1956 16.24 21.5028 12.6586 19.291 7.65698Z" fill="#FEFEFE" stroke="#252525"/>
<path d="M27.7083 24.2673C27.7083 24.2673 18.7384 22.2913 15.2979 28.8984C15.2979 28.8984 19.107 30.0099 20.8887 29.2072C20.8887 29.2072 25.3122 28.0339 27.7083 24.2673Z" fill="#FEFEFE" stroke="#252525"/>
<path d="M8.29366 18.0305C8.29366 18.0305 4.11589 25.1934 11.8571 31.9857C11.8571 31.9857 13.3316 27.7868 12.5943 25.6873C12.5943 25.6873 11.7956 22.1677 8.29366 18.0305Z" fill="#FEFEFE" stroke="#252525"/>
<path d="M13.1469 13.0291C13.1469 13.0291 8.10903 19.6362 14.9901 27.293C14.9901 27.293 17.0175 23.3411 16.4646 21.1799C16.4646 21.1799 16.096 17.5985 13.1469 13.0291Z" fill="#FEFEFE" stroke="#252525"/>
<path d="M28.384 6.48364C28.384 6.48364 22.1787 9.07709 24.2676 17.0427C24.2676 17.0427 27.2166 15.1285 27.6467 13.3995C27.6467 13.3995 28.814 10.806 28.384 6.48364Z" fill="#FEFEFE" stroke="#252525"/>
<path d="M42.1457 13.8318C42.1457 13.8318 37.9679 9.20068 31.7627 13.6466C31.7627 13.6466 34.4045 15.3755 36.0019 15.499C37.5379 15.5608 39.1967 15.746 42.1457 13.8318Z" fill="#FEFEFE" stroke="#252525"/>
<path d="M26.5404 29.3924C26.5404 29.3924 19.9665 25.4405 13.4541 32.4181C13.4541 32.4181 17.3247 33.9 19.2907 33.2208C19.2907 33.2208 22.5469 32.5416 26.5404 29.3924Z" fill="#FEFEFE" stroke="#252525"/>
<path d="M21.8711 16.8573C21.8711 16.2398 22.3626 15.7458 22.977 15.7458C23.5914 15.7458 24.0829 16.2398 24.0829 16.8573C24.0829 17.4748 23.5914 17.9688 22.977 17.9688C22.3626 17.9688 21.8711 17.4748 21.8711 16.8573Z" fill="#FEFEFE" stroke="#252525"/>
<path d="M20.458 22.2914C20.458 21.6739 20.9495 21.1799 21.5639 21.1799C22.1783 21.1799 22.6698 21.6739 22.6698 22.2914C22.6698 22.9089 22.1783 23.4029 21.5639 23.4029C20.9495 23.4029 20.458 22.9089 20.458 22.2914Z" fill="#FEFEFE" stroke="#252525"/>
<path d="M12.0409 30.7508C12.0409 30.7508 9.82914 28.9601 9.15332 24.5142L12.0409 30.7508Z" fill="#FEFEFE"/>
<path d="M12.0409 30.7508C12.0409 30.7508 9.82914 28.9601 9.15332 24.5142" stroke="#252525"/>
<path d="M19.1682 21.2415C19.1682 21.2415 17.9394 18.7098 19.1682 14.3257V21.2415Z" fill="#FEFEFE"/>
<path d="M19.1682 21.2415C19.1682 21.2415 17.9394 18.7098 19.1682 14.3257" stroke="#252525"/>
<path d="M39.0736 14.1406C39.0736 14.1406 36.9233 12.9674 32.3154 13.5848L39.0736 14.1406Z" fill="#FEFEFE"/>
<path d="M39.0736 14.1406C39.0736 14.1406 36.9233 12.9674 32.3154 13.5848" stroke="#252525"/>
<path d="M22.1786 26.4286C22.1786 26.4286 19.7211 26.3051 15.7891 28.7133L22.1786 26.4286Z" fill="#FEFEFE"/>
<path d="M22.1786 26.4286C22.1786 26.4286 19.7211 26.3051 15.7891 28.7133" stroke="#252525"/>
<path d="M15.2974 26.1197C15.2974 26.1197 13.6386 23.835 14.1301 19.3274L15.2974 26.1197Z" fill="#FEFEFE"/>
<path d="M15.2974 26.1197C15.2974 26.1197 13.6386 23.835 14.1301 19.3274" stroke="#252525"/>
<path d="M20.643 31.2449C20.643 31.2449 18.2469 30.6274 13.9463 32.3564L20.643 31.2449Z" fill="#FEFEFE"/>
<path d="M20.643 31.2449C20.643 31.2449 18.2469 30.6274 13.9463 32.3564" stroke="#252525"/>
<path d="M72.8652 8.27432C72.7423 7.84208 68.1959 7.40984 68.1959 7.40984L62.2364 7.16284L60.9462 7.22459L59.4717 7.40984L56.2155 7.78033C56.2155 7.78033 53.0822 8.02732 52.222 8.02732C51.3619 8.02732 49.5188 8.64481 49.5188 8.64481C49.5188 8.64481 45.4639 10.2503 45.1567 10.4973C44.788 10.7443 44.5423 11.4852 44.2351 13.3995C43.9894 15.3137 44.9724 16.3634 44.9724 17.2279C44.9724 18.1541 45.0338 19.2656 44.9724 20.0683C44.8495 20.871 43.9894 22.5382 43.9894 22.5382C43.9894 22.5382 42.9449 23.835 42.2691 23.9585C42.2281 23.9585 42.2077 23.9585 42.2077 23.9585C41.9005 22.6 38.8286 22.5382 38.8286 22.5382C38.8286 22.5382 36.1253 21.6738 35.2652 21.118C34.3436 20.624 34.2207 18.8333 33.7907 17.5984C33.2992 16.3634 31.5789 16.0546 30.9645 15.9311C30.3501 15.8694 27.4626 17.4131 27.4626 17.4131L24.1449 17.9689L23.7148 18.4011C24.3292 18.4011 26.6024 19.3891 26.9711 19.5126C27.2782 19.6978 27.6469 19.3891 28.3227 21.5503C29.0599 23.7732 30.7802 24.576 31.2103 24.8847C31.6403 25.2552 32.3776 25.5022 32.3776 25.5022C32.992 28.1574 35.1423 29.7628 35.1423 29.7628C35.5928 30.1745 36.0229 30.545 36.4325 30.8743L35.3266 31.3066L34.0364 31.7388L32.439 31.924L30.5959 32.665C30.5959 32.665 27.524 33.406 27.8312 38.9634C28.0769 44.5208 28.4456 48.1022 28.4456 48.1022C28.4456 48.1022 28.6913 52.8568 28.0155 53.9066C27.2782 54.9563 28.9371 54.2771 28.9371 54.2771L30.3501 52.4246L31.1488 52.3011L32.6848 49.9546L33.2992 48.1639L33.8521 48.9049L35.0809 47.423L36.0639 45.2617L37.5998 44.3355L38.5828 42.5448L39.0129 40.4454L39.1972 39.6426L39.6273 38.5311L39.9959 37.9137L41.7162 37.4814L42.2691 36.6787L42.9449 36.0612H43.9279V34.2705C43.9689 34.3117 43.9894 34.3322 43.9894 34.3322C45.2181 33.7148 49.5802 36.0612 49.5802 36.0612H50.809L54.5567 38.7781C54.741 39.8279 59.0416 41.2481 59.0416 41.2481C59.226 42.0508 62.7893 48.5344 64.6325 46.4967C65.1854 45.941 65.0011 45.2 64.5096 44.3973C65.0011 44.706 65.9841 45.0765 66.4756 43.965C66.9671 42.7301 63.158 40.3836 61.7449 39.5191C63.0351 40.2601 66.2913 42.1126 66.7214 42.1126C67.2743 42.1126 68.3188 42.1126 67.7658 40.6923C67.2743 39.3339 62.5436 37.7284 62.5436 37.7284C63.158 37.7902 67.7658 39.5191 68.1959 39.5191C68.626 39.5191 69.9776 40.0749 69.5475 38.1607C69.3018 37.1109 67.4586 36.4934 65.8612 36.1847L67.3972 36.4317C69.5475 36.4934 70.6534 35.382 70.6534 35.382C71.3907 34.4557 70.2233 34.2087 70.2233 34.2087C69.7933 34.2087 68.1959 34.147 66.7828 34.0235C68.5645 33.9617 70.592 33.7765 70.592 33.7765C70.592 33.7765 70.592 33.7765 70.8992 33.5913C71.2678 33.406 71.6364 33.3443 71.6364 32.0475C71.6364 30.6891 67.8887 31.677 67.3972 31.677C66.9671 31.677 63.9567 31.677 63.4652 31.7388C63.0351 31.8623 62.605 31.8623 61.9907 31.924C61.3763 32.0475 61.192 31.4918 60.7619 31.4918C60.3318 31.4918 59.9018 31.5536 59.5331 31.5536C59.226 31.5536 58.4887 31.2448 58.4887 31.2448L57.8743 31.0596H57.0142L55.9083 30.6273L52.4678 29.0219L50.9318 28.2809L51.1776 28.1574L52.5907 26.9224L52.222 25.8727L53.5122 25.6874L54.0652 25.0699L53.3279 24.2055L54.741 23.835C54.741 23.835 55.1711 23.1557 55.2939 22.4148C55.3554 21.7355 54.6795 20.9328 54.6795 20.9328H55.2939C56.3384 20.3153 56.2155 18.3393 56.2155 18.3393C62.2364 17.4131 62.9737 14.9432 62.9737 14.9432C62.9737 14.9432 66.107 13.8317 66.6599 13.3995C67.1514 12.9672 67.3972 11.9175 67.3972 11.9175C67.3972 11.9175 70.4077 10.9913 70.8377 10.6825C71.1449 10.4355 70.7763 9.81803 70.5305 9.50929C70.4691 9.44754 70.4076 9.32404 70.4076 9.32404C71.9436 9.50929 72.8652 8.27432 72.8652 8.27432Z" fill="#FEFEFE" stroke="#252525"/>
<path d="M32.4385 35.5054C32.4385 35.5054 34.0973 36.2464 34.2816 34.9497C34.2816 34.9497 39.381 35.8142 39.2581 32.5415" fill="#FEFEFE"/>
<path d="M32.4385 35.5054C32.4385 35.5054 34.0973 36.2464 34.2816 34.9497C34.2816 34.9497 39.381 35.8142 39.2581 32.5415" stroke="#252525"/>
<path d="M47.4297 22.7236C47.4297 22.7236 49.58 22.7854 48.5356 20.7476C48.5356 20.7476 50.0101 20.0067 48.7813 18.8334C48.7813 18.8334 50.8088 17.5985 49.3957 16.7957C49.3957 16.7957 50.7473 16.3635 48.9656 14.4493C47.2454 12.5351 48.5356 12.2263 48.9656 11.9793C49.3957 11.7323 50.1944 11.4854 50.1944 11.4854" fill="#FEFEFE"/>
<path d="M47.4297 22.7236C47.4297 22.7236 49.58 22.7854 48.5356 20.7476C48.5356 20.7476 50.0101 20.0067 48.7813 18.8334C48.7813 18.8334 50.8088 17.5985 49.3957 16.7957C49.3957 16.7957 50.7473 16.3635 48.9656 14.4493C47.2454 12.5351 48.5356 12.2263 48.9656 11.9793C49.3957 11.7323 50.1944 11.4854 50.1944 11.4854" stroke="#252525"/>
<path d="M43.9889 33.8384C43.9889 33.8384 44.3575 36.4936 43.4359 36.0613C42.5758 35.6291 42.5758 37.2346 41.9614 36.3083C41.9614 36.3083 42.6987 37.7285 41.1013 37.5433C41.1013 37.5433 39.6268 38.4078 39.381 37.2346C39.381 37.2346 40.2411 38.9018 39.1967 39.3958C39.1967 39.3958 37.3536 40.3837 37.3536 38.7783C37.3536 38.7783 36.8006 40.075 35.8791 40.2602C35.8791 40.2602 34.8346 40.2602 34.6503 39.581C34.6503 39.581 34.6503 41.9275 33.4215 41.9275C32.1928 41.9275 32.2542 41.8657 31.947 41.2482C31.947 41.2482 31.1483 42.9154 30.5954 42.9772C30.5954 42.9772 29.7967 43.2859 29.6738 42.3597" fill="#FEFEFE"/>
<path d="M43.9889 33.8384C43.9889 33.8384 44.3575 36.4936 43.4359 36.0613C42.5758 35.6291 42.5758 37.2346 41.9614 36.3083C41.9614 36.3083 42.6987 37.7285 41.1013 37.5433C41.1013 37.5433 39.6268 38.4078 39.381 37.2346C39.381 37.2346 40.2411 38.9018 39.1967 39.3958C39.1967 39.3958 37.3536 40.3837 37.3536 38.7783C37.3536 38.7783 36.8006 40.075 35.8791 40.2602C35.8791 40.2602 34.8346 40.2602 34.6503 39.581C34.6503 39.581 34.6503 41.9275 33.4215 41.9275C32.1928 41.9275 32.2542 41.8657 31.947 41.2482C31.947 41.2482 31.1483 42.9154 30.5954 42.9772C30.5954 42.9772 29.7967 43.2859 29.6738 42.3597" stroke="#252525"/>
<path d="M36.9241 30.6274C36.9241 30.6274 35.3267 30.8744 34.8966 31.3067C34.4666 31.7389 33.7908 31.7389 33.1764 31.7389C32.562 31.7389 28.7529 32.3564 27.8927 35.8761C27.8927 35.8761 27.8313 40.6307 28.0156 42.9772C28.0156 42.9772 29.3672 50.3253 27.8313 53.9067C27.8313 53.9067 27.7084 55.1417 29.3058 53.9684C29.3058 53.9684 31.3947 51.8072 31.0261 47.6701L30.9032 42.9772" fill="#FEFEFE"/>
<path d="M36.9241 30.6274C36.9241 30.6274 35.3267 30.8744 34.8966 31.3067C34.4666 31.7389 33.7908 31.7389 33.1764 31.7389C32.562 31.7389 28.7529 32.3564 27.8927 35.8761C27.8927 35.8761 27.8313 40.6307 28.0156 42.9772C28.0156 42.9772 29.3672 50.3253 27.8313 53.9067C27.8313 53.9067 27.7084 55.1417 29.3058 53.9684C29.3058 53.9684 31.3947 51.8072 31.0261 47.6701L30.9032 42.9772" stroke="#252525"/>
<path d="M30.5342 52.3011C30.5342 52.3011 31.5786 52.9185 32.6231 49.7694C32.6231 49.7694 34.2819 45.3852 33.9133 42.0508" fill="#FEFEFE"/>
<path d="M30.5342 52.3011C30.5342 52.3011 31.5786 52.9185 32.6231 49.7694C32.6231 49.7694 34.2819 45.3852 33.9133 42.0508" stroke="#252525"/>
<path d="M33.2373 47.9169C33.2373 47.9169 33.4831 49.5223 34.2817 48.7196C34.2817 48.7196 37.4151 44.1502 36.7393 39.5808" fill="#FEFEFE"/>
<path d="M33.2373 47.9169C33.2373 47.9169 33.4831 49.5223 34.2817 48.7196C34.2817 48.7196 37.4151 44.1502 36.7393 39.5808" stroke="#252525"/>
<path d="M36.0635 45.1384C36.0635 45.1384 38.6439 45.2001 39.1968 39.3958L36.0635 45.1384Z" fill="#FEFEFE"/>
<path d="M36.0635 45.1384C36.0635 45.1384 38.6439 45.2001 39.1968 39.3958" stroke="#252525"/>
<path d="M49.1494 28.0339C49.1494 28.0339 54.3102 28.1574 51.9756 25.7492C51.9756 25.7492 54.4945 26.3049 53.8801 24.8229C53.8801 24.8229 53.02 23.9585 52.6514 23.835C52.6514 23.835 54.9246 25.0082 55.3546 22.9705C55.3546 22.9705 55.6004 21.5503 53.9416 20.9328C53.9416 20.9328 55.6004 21.3033 55.969 19.5126C55.969 19.5126 56.3377 18.0306 55.7847 17.5984C55.7847 17.5984 55.1703 17.3514 54.8631 17.3514C54.8631 17.3514 56.5834 16.7956 56.522 15.9311C56.522 15.9311 56.5834 14.9432 55.7847 14.9432L54.8631 14.6962C54.8631 14.6962 56.6448 14.6344 56.5834 13.7699C56.5834 13.7699 56.3377 12.3497 55.1703 12.4115C55.1703 12.4115 56.1533 12.1645 55.969 11.1765C55.969 11.1765 55.7847 10.312 54.4945 10.312" fill="#FEFEFE"/>
<path d="M49.1494 28.0339C49.1494 28.0339 54.3102 28.1574 51.9756 25.7492C51.9756 25.7492 54.4945 26.3049 53.8801 24.8229C53.8801 24.8229 53.02 23.9585 52.6514 23.835C52.6514 23.835 54.9246 25.0082 55.3546 22.9705C55.3546 22.9705 55.6004 21.5503 53.9416 20.9328C53.9416 20.9328 55.6004 21.3033 55.969 19.5126C55.969 19.5126 56.3377 18.0306 55.7847 17.5984C55.7847 17.5984 55.1703 17.3514 54.8631 17.3514C54.8631 17.3514 56.5834 16.7956 56.522 15.9311C56.522 15.9311 56.5834 14.9432 55.7847 14.9432L54.8631 14.6962C54.8631 14.6962 56.6448 14.6344 56.5834 13.7699C56.5834 13.7699 56.3377 12.3497 55.1703 12.4115C55.1703 12.4115 56.1533 12.1645 55.969 11.1765C55.969 11.1765 55.7847 10.312 54.4945 10.312" stroke="#252525"/>
<path d="M69.8542 9.50943C69.8542 9.50943 59.4098 9.07719 56.3379 11.1766" stroke="#252525"/>
<path d="M56.584 13.7699C56.584 13.7699 58.4271 13.1524 58.8572 12.9672C59.2873 12.782 60.4546 12.782 60.9461 12.6585C61.499 12.5967 62.6049 12.535 63.3422 12.535C64.018 12.535 65.9225 11.9792 65.9225 11.9792C67.95 11.9792 70.469 10.7443 70.469 10.7443C71.3905 10.312 70.2846 9.50928 70.2846 9.50928" fill="#FEFEFE"/>
<path d="M56.584 13.7699C56.584 13.7699 58.4271 13.1524 58.8572 12.9672C59.2873 12.782 60.4546 12.782 60.9461 12.6585C61.499 12.5967 62.6049 12.535 63.3422 12.535C64.018 12.535 65.9225 11.9792 65.9225 11.9792C67.95 11.9792 70.4689 10.7443 70.4689 10.7443C71.3905 10.312 70.2846 9.50928 70.2846 9.50928" stroke="#252525"/>
<path d="M67.2741 11.9175C67.2741 11.9175 67.9499 13.5847 64.448 14.4492C64.448 14.4492 61.7447 15.0667 60.946 14.9432C60.946 14.9432 57.444 14.9432 56.5225 15.9311" fill="#FEFEFE"/>
<path d="M67.2741 11.9175C67.2741 11.9175 67.9499 13.5847 64.448 14.4492C64.448 14.4492 61.7447 15.0667 60.946 14.9432C60.946 14.9432 57.444 14.9432 56.5225 15.9311" stroke="#252525"/>
<path d="M63.158 14.8813C63.158 14.8813 62.2364 16.4868 60.8848 16.9808C59.4717 17.5365 56.9527 18.2158 55.9697 18.2158" fill="#FEFEFE"/>
<path d="M63.158 14.8813C63.158 14.8813 62.2364 16.4868 60.8848 16.9808C59.4717 17.5365 56.9527 18.2158 55.9697 18.2158" stroke="#252525"/>
<path d="M52.037 31.9241C52.037 31.9241 54.2487 34.0235 55.6004 33.9618C55.6004 33.9618 57.2592 34.394 58.0579 33.5913C58.0579 33.5913 58.4265 33.7765 57.9965 34.4558C57.9965 34.4558 58.6108 35.5055 60.2697 35.1967C60.2697 35.1967 58.6108 35.629 57.8121 35.629C57.8121 35.629 58.2422 36.7405 57.8736 36.6787C57.5664 36.617 56.7677 36.4935 55.969 35.6907C55.1703 34.9498 54.0644 34.641 54.0644 34.641L53.2657 33.9618C53.2657 33.9618 51.2383 33.159 51.2383 32.7886C51.2383 32.7886 51.9755 33.5295 52.037 31.9241Z" fill="#FEFEFE" stroke="#252525"/>
<path d="M50.8086 35.5056C50.8086 35.5056 53.6347 37.0493 54.372 38.1608C54.372 38.1608 56.0308 38.2843 56.6452 37.7903L56.3994 38.7165L57.1981 38.9018C57.1981 38.9018 57.9968 40.075 58.6112 39.9515C58.6112 39.9515 55.9694 40.816 55.2936 40.075C55.2936 40.075 53.5119 38.1608 52.836 37.4816C52.0988 36.7406 50.8086 36.0614 50.8086 36.0614V35.5056Z" fill="#FEFEFE" stroke="#252525"/>
<path d="M32.4386 18.5863C32.4386 17.9071 31.8242 17.3513 31.087 17.3513C30.3497 17.3513 29.7354 17.9071 29.7354 18.5863C29.7354 19.2655 30.3497 19.8213 31.087 19.8213C31.8242 19.8213 32.4386 19.2655 32.4386 18.5863Z" fill="#252525"/>
<path d="M30.7188 18.5863C30.7188 18.2775 30.9645 18.0305 31.2717 18.0305C31.6403 18.0305 31.8861 18.2775 31.8861 18.5863C31.8861 18.9567 31.6403 19.2037 31.2717 19.2037C30.9645 19.2037 30.7188 18.9567 30.7188 18.5863Z" fill="#FEFEFE" stroke="#FEFEFE" stroke-width="0.4"/>
</svg>
