<svg width="1728" height="234" viewBox="0 0 1728 234" fill="none" xmlns="http://www.w3.org/2000/svg">
<path d="M35.5518 163.466C19.2131 138.655 5.04281 153.128 0 163.466V233.057H1727.67C1727.92 203.808 1728.27 145.917 1727.67 148.337C1726.91 151.363 1710.27 145.312 1708.76 143.043C1707.24 140.773 1690.6 140.017 1680.77 143.043C1670.93 146.068 1649 148.337 1648.24 145.312C1647.49 142.286 1633.87 143.043 1633.11 145.312C1632.51 147.127 1619.25 148.085 1612.69 148.337C1608.15 147.329 1597.86 144.253 1593.02 140.017C1588.18 135.781 1572.85 140.269 1565.79 143.043C1560.75 145.564 1549.6 149.548 1545.37 145.312C1540.07 140.017 1512.84 145.312 1496.2 143.043C1482.89 141.227 1477.04 142.286 1475.78 143.043C1474.77 143.799 1470.18 144.858 1459.89 143.043C1447.03 140.773 1434.93 149.85 1431.15 145.312C1428.12 141.681 1405.68 140.269 1394.84 140.017C1387.53 141.782 1370.64 144.253 1361.56 140.017C1350.21 134.722 1332.81 143.043 1323.74 140.017C1314.66 136.991 1310.12 145.312 1294.24 145.312C1278.35 145.312 1279.11 140.017 1267.76 131.696C1258.68 125.04 1249.36 131.948 1245.83 136.235C1241.03 142.79 1229.18 152.725 1220.11 140.017C1211.03 127.309 1197.67 134.722 1192.12 140.017C1189.35 145.312 1182.29 154.691 1176.23 149.85C1168.67 143.799 1164.89 145.312 1150.52 149.85C1136.14 154.389 1142.2 152.12 1130.09 149.85C1117.99 147.581 1107.4 149.85 1097.57 145.312C1087.73 140.773 1071.09 155.902 1060.5 152.12C1049.91 148.337 1044.62 155.902 1035.54 149.85C1026.46 143.799 1016.63 158.927 1006.8 155.902C998.93 153.481 995.45 162.457 994.694 167.248H978.053V158.927L953.091 149.85C949.056 149.85 940.08 148.943 936.449 145.312C932.819 141.681 915.27 143.799 906.949 145.312L864.589 149.85C851.982 150.102 823.743 149.548 811.64 145.312C799.537 141.076 793.99 141.53 792.729 142.286C786.426 142.286 773.365 140.622 771.55 133.966C769.734 127.309 761.212 128.166 757.178 129.427C754.908 131.948 749.765 136.386 747.344 133.966C744.924 131.545 738.771 132.957 735.998 133.966C733.981 133.966 729.341 133.058 726.921 129.427C724.5 125.796 721.374 130.94 720.113 133.966C717.592 132.453 711.792 128.519 708.767 124.888C705.741 121.258 696.412 126.401 692.125 129.427C690.612 136.235 686.679 148.338 683.048 142.286C679.417 136.235 669.937 134.218 665.651 133.966C656.826 136.739 638.571 140.622 636.15 133.966C633.73 127.309 608.415 128.166 596.06 129.427C595.808 133.209 594.244 140.017 590.008 136.991C584.714 133.209 565.047 142.286 562.021 142.286C558.995 142.286 555.97 152.12 552.944 149.85C550.523 148.035 530.251 149.094 520.418 149.85L513.61 142.286L491.674 136.991C487.135 140.269 477.604 144.858 475.789 136.991C473.973 129.124 461.417 131.696 455.366 133.966C453.853 138.252 447.65 144.858 434.942 136.991C419.057 127.158 413.762 136.991 410.737 136.991C408.316 136.991 397.121 139.513 391.826 140.773C388.548 142.034 380.48 145.009 374.428 146.825C368.377 148.64 371.907 161.197 374.428 167.248H358.544V152.12L354.762 142.286C342.911 143.043 317.394 143.799 310.133 140.773C301.056 136.991 274.581 140.773 264.747 136.991C256.881 133.966 240.794 138.252 233.734 140.773L231.465 130.94H198.939L193.644 139.26H170.951L164.143 152.12V161.197H153.553L152.797 142.286H121.784L121.027 163.466C121.027 159.684 119.666 151.061 114.22 146.825C108.773 142.589 103.378 148.59 101.36 152.12L95.3091 144.555H69.5907C68.33 144.303 64.5984 143.95 59.7573 144.555C54.9162 145.161 55.2187 149.85 55.9752 152.12L47.6545 163.466C47.4024 154.641 45.234 137.445 38.5775 139.26C31.921 141.076 33.7868 156.154 35.5518 163.466Z" fill="#252525"/>
<path d="M841.684 147.032C843.34 149.108 842.098 155.339 841.684 157H854.936C852.451 152.708 848.476 144.457 852.451 145.786C857.421 147.447 870.674 145.786 877.3 142.048C882.601 139.057 885.307 125.295 885.997 118.788C886.173 117.127 888.482 115.465 891.795 114.219C895.673 112.761 904.232 110.793 904.634 107.574C905.048 104.251 902.977 102.175 901.32 100.928C903.805 100.513 907.114 99.2821 907.533 98.0212C907.947 96.775 907.533 95.529 906.29 94.6983C915.401 89.2989 913.745 82.238 910.017 78.4999C908.361 76.8386 907.532 75.1772 907.947 74.3465C910.058 70.1108 910.846 68.947 911.26 67.2857C911.366 66.8609 911.561 62.6034 910.017 61.0555C908.775 59.8095 909.603 58.1481 910.017 57.7327C912.999 51.0873 901.734 43.0573 898.007 42.365C880.116 8.80528 852.037 0 830.502 0C808.966 0 787.845 8.30713 787.845 22.844C789.087 27.8283 785.348 27.6301 783.704 27.828C773.35 29.074 771.279 33.2275 771.279 38.6269V44.8571C772.604 52.4994 767.552 51.0873 763.825 55.656C762.582 58.9788 760.097 59.3941 760.925 67.2857C761.869 76.2748 758.717 87.499 754.299 93.0369C745.602 103.421 764.137 110.015 767.552 111.727C770.037 112.973 769.667 113.804 771.279 116.296C781.219 131.664 796.542 121.696 800.683 120.034C801.719 119.619 803.168 120.034 803.997 120.034C803.997 120.034 805.101 121.557 804.411 122.526C803.997 128.341 808.966 129.172 812.28 128.341C814.93 127.677 814.764 129.172 814.35 130.418C813.025 130.75 812.418 133.325 812.28 134.571C813.936 142.878 827.051 145.509 833.401 145.786C835.61 145.509 840.359 145.37 841.684 147.032Z" fill="#252525"/>
<path fill-rule="evenodd" clip-rule="evenodd" d="M975.643 117.238C975.524 117.238 975.428 117.298 975.428 117.357C975.428 117.417 975.5 117.548 975.583 117.631C975.666 117.703 975.821 117.917 975.94 118.108C976.131 118.417 976.131 118.429 975.904 118.429C975.774 118.429 975.535 118.501 975.369 118.584C975.154 118.691 975.047 118.691 974.928 118.584C974.845 118.513 974.452 118.334 974.059 118.191C973.524 118.001 972.964 117.917 971.857 117.87C970.595 117.81 970.262 117.834 969.678 118.024C969.297 118.143 969 118.298 969 118.37C969 118.441 968.69 118.453 968.143 118.406C967.666 118.346 967.226 118.275 967.178 118.227C967.119 118.167 967.131 118.012 967.202 117.87C967.274 117.715 967.309 117.536 967.274 117.476C967.238 117.405 967.071 117.429 966.833 117.548C966.619 117.643 966.321 117.893 966.166 118.108C965.928 118.441 965.904 118.548 966.012 118.906C966.083 119.132 966.226 119.418 966.345 119.525C966.464 119.632 966.881 119.871 967.274 120.037C967.666 120.216 968.024 120.418 968.071 120.49C968.119 120.573 968.166 120.657 968.166 120.692C968.166 120.728 968.012 120.847 967.809 120.954C967.619 121.074 967.369 121.169 967.274 121.169C967.178 121.169 966.678 120.847 966.178 120.466C965.666 120.073 965.035 119.68 964.774 119.585C964.512 119.489 963.976 119.382 963.583 119.335C963.083 119.275 962.654 119.311 962.154 119.442C961.762 119.549 961.381 119.728 961.297 119.835C961.214 119.942 961.143 120.133 961.143 120.252C961.143 120.359 961.214 120.633 961.309 120.847C961.404 121.05 961.654 121.419 961.881 121.657C962.095 121.895 962.416 122.241 962.583 122.431C962.75 122.622 963.059 122.92 963.262 123.11C963.476 123.289 963.666 123.408 963.702 123.372C963.738 123.337 963.881 123.372 964.035 123.456C964.178 123.527 964.607 123.61 964.988 123.634C965.357 123.646 965.797 123.61 965.964 123.551C966.162 123.472 966.262 123.472 966.262 123.551C966.262 123.622 966.464 123.634 966.797 123.587C967.095 123.527 967.333 123.527 967.333 123.587C967.333 123.634 967.25 123.873 967.154 124.123C967.059 124.361 967 124.587 967.035 124.623C967.071 124.659 967.202 124.575 967.583 124.206L967.571 124.897C967.571 125.266 967.631 125.707 967.69 125.874C967.762 126.04 967.881 126.743 967.976 127.458C968.071 128.16 968.202 128.887 968.285 129.089C968.357 129.292 968.5 129.852 968.583 130.34C968.714 131.078 968.714 131.329 968.583 131.769C968.5 132.067 968.357 132.794 968.274 133.377C968.178 134.116 968.166 134.509 968.25 134.628C968.321 134.723 968.559 134.902 968.774 135.009C969.071 135.164 969.583 135.235 970.726 135.283C972.095 135.331 972.345 135.307 972.928 135.092C973.285 134.961 973.75 134.759 973.94 134.664C974.285 134.485 974.297 134.461 974.119 133.199L974.452 133.282C974.631 133.33 974.869 133.461 974.988 133.58C975.095 133.699 975.238 133.794 975.309 133.794C975.381 133.794 975.5 133.973 975.595 134.187C975.678 134.39 975.952 134.711 976.19 134.902C976.428 135.08 976.869 135.616 977.19 136.093C977.5 136.557 977.857 137.153 977.988 137.415C978.119 137.665 978.512 138.201 978.869 138.606C979.214 138.999 979.726 139.464 980.012 139.63C980.285 139.797 980.774 140.143 981.095 140.405C981.416 140.667 981.845 141.048 982.035 141.25C982.238 141.453 982.476 141.667 982.583 141.727C982.678 141.786 982.952 142.072 983.178 142.37C983.393 142.668 983.666 142.989 983.762 143.084C983.857 143.18 984.095 143.466 984.274 143.716C984.452 143.954 984.797 144.287 985.047 144.454C985.285 144.621 985.833 144.835 986.262 144.931C986.69 145.026 987.262 145.097 987.547 145.109C987.821 145.109 988.047 145.121 988.059 145.145C988.071 145.157 988.107 146.455 988.238 150.886L989.024 152.792L988.821 154.042C988.702 154.733 988.404 155.9 988.154 156.639C987.893 157.365 987.69 158.044 987.69 158.116C987.69 158.199 987.571 158.461 987.416 158.687C987.262 158.914 987.047 159.343 986.928 159.64C986.821 159.938 986.44 160.522 986.071 160.95C985.666 161.427 985.428 161.808 985.452 161.951C985.476 162.07 985.643 162.284 985.821 162.427C986.107 162.63 986.321 162.677 987.131 162.677C987.666 162.666 988.297 162.606 988.524 162.523C988.75 162.451 989.166 162.153 989.452 161.879C989.928 161.403 989.976 161.308 990.047 160.557C990.095 160.045 990.19 159.712 990.309 159.64C990.404 159.581 990.571 159.557 990.666 159.593C990.762 159.64 990.94 159.688 991.059 159.712C991.202 159.747 991.285 159.664 991.333 159.426C991.381 159.247 991.369 158.866 991.309 158.568C991.262 158.271 991.226 157.449 991.238 156.722C991.25 155.996 991.285 154.828 991.321 154.102C991.357 153.375 991.452 152.518 991.524 152.196C991.583 151.863 991.809 151.279 992 150.886C992.345 150.207 992.357 150.124 992.297 149.04C992.262 148.361 992.285 147.599 992.535 146.36L992.619 147.194C992.666 147.658 992.75 148.385 992.821 148.825C992.881 149.278 993.047 149.862 993.178 150.136C993.321 150.421 993.643 150.874 993.893 151.148C994.178 151.47 994.381 151.827 994.428 152.101C994.476 152.351 994.488 153.518 994.393 156.841L993.75 158.032C993.404 158.687 992.857 159.509 992.547 159.855C992.238 160.188 991.976 160.522 991.976 160.593C991.976 160.665 992.107 160.855 992.262 161.046C992.547 161.355 992.583 161.367 993.797 161.367C995 161.367 995.071 161.355 995.559 161.01C995.833 160.819 996.214 160.462 996.404 160.236C996.654 159.926 996.774 159.628 996.845 159.104C996.893 158.711 997.024 158.211 997.131 158.009C997.262 157.758 997.404 157.627 997.547 157.651C997.714 157.675 997.75 157.592 997.738 157.199C997.738 156.937 997.607 156.317 997.464 155.829C997.321 155.341 997.131 154.447 997.035 153.864C996.94 153.28 996.797 152.565 996.738 152.279C996.666 152.006 996.619 151.279 996.619 150.683C996.619 149.945 996.666 149.528 996.762 149.421C996.857 149.326 996.904 148.992 996.904 148.587C996.893 148.218 996.797 147.479 996.69 146.955C996.595 146.431 996.452 145.228 996.393 144.276C996.321 143.323 996.285 142.537 996.297 142.513C996.309 142.501 996.619 142.56 996.976 142.656C997.333 142.751 998.059 142.953 998.583 143.12C999.107 143.287 1000.05 143.62 1000.67 143.859C1001.29 144.097 1002.5 144.478 1003.34 144.704C1004.2 144.931 1004.98 145.133 1005.07 145.157C1005.17 145.181 1005.49 145.276 1005.79 145.359C1006.17 145.478 1007.08 145.514 1008.88 145.514C1010.79 145.514 1011.65 145.455 1012.27 145.312C1012.74 145.205 1013.56 144.966 1014.12 144.776C1014.68 144.573 1015.4 144.311 1015.73 144.192C1016.06 144.061 1016.58 143.811 1016.9 143.609C1017.23 143.418 1017.64 143.144 1017.82 143.001C1018.01 142.846 1018.25 142.727 1018.34 142.727C1018.44 142.727 1018.52 142.763 1018.52 142.822C1018.52 142.87 1018.81 143.215 1019.18 143.597C1019.54 143.966 1019.96 144.549 1020.13 144.871C1020.36 145.312 1020.43 145.657 1020.43 146.217C1020.43 146.681 1020.49 147.051 1020.61 147.229C1020.74 147.42 1020.88 147.479 1021.15 147.468C1021.46 147.432 1021.55 147.36 1021.69 146.955C1021.77 146.693 1021.86 146.384 1021.86 146.276C1021.86 146.157 1022 145.955 1022.51 145.574L1022.84 145.967C1023.04 146.181 1023.25 146.515 1023.34 146.717C1023.43 146.92 1023.46 147.265 1023.44 147.491C1023.4 147.718 1023.43 148.027 1023.51 148.182C1023.58 148.337 1023.75 148.444 1023.92 148.444C1024.06 148.444 1024.25 148.325 1024.34 148.182C1024.44 148.027 1024.59 147.765 1024.68 147.587C1024.76 147.396 1025.05 147.146 1025.34 147.015C1025.62 146.884 1025.84 146.777 1025.84 146.777C1025.84 146.777 1025.94 147.348 1026.06 148.051C1026.17 148.766 1026.38 149.826 1026.52 150.409C1026.71 151.231 1026.77 151.791 1026.76 152.792C1026.74 153.518 1026.68 154.423 1026.62 154.816C1026.56 155.21 1026.34 156.091 1026.13 156.782C1025.92 157.508 1025.63 158.211 1025.44 158.449C1025.26 158.676 1024.98 159.104 1024.8 159.402C1024.63 159.7 1024.23 160.164 1023.89 160.45C1023.56 160.724 1023.29 161.034 1023.29 161.129C1023.29 161.224 1023.42 161.451 1023.56 161.641C1023.79 161.891 1024.02 161.999 1024.67 162.118C1025.12 162.201 1025.68 162.249 1025.9 162.213C1026.18 162.165 1026.54 161.951 1026.94 161.582C1027.46 161.105 1027.57 160.939 1027.57 160.593C1027.57 160.367 1027.64 160.045 1027.73 159.89C1027.8 159.724 1027.93 159.581 1027.99 159.569C1028.06 159.545 1028.2 159.593 1028.31 159.676C1028.51 159.807 1028.5 159.867 1028.18 160.593C1027.99 161.022 1027.56 161.701 1027.23 162.118C1026.73 162.737 1026.64 162.892 1026.74 163.094C1026.81 163.225 1026.98 163.416 1027.13 163.511C1027.3 163.63 1027.68 163.69 1028.23 163.69C1028.69 163.69 1029.26 163.63 1029.51 163.571C1029.77 163.499 1030.17 163.237 1030.49 162.916C1030.99 162.415 1031.02 162.332 1031.02 161.76C1031.02 161.391 1031.09 161.01 1031.38 160.593L1031.71 160.843C1031.93 161.01 1032.09 161.058 1032.2 160.998C1032.34 160.915 1032.36 160.676 1032.29 159.759C1032.24 159.14 1032.2 157.449 1032.2 156.008C1032.21 154.566 1032.27 152.851 1032.34 152.196C1032.42 151.541 1032.51 150.469 1032.56 149.814C1032.63 149.004 1032.74 148.456 1032.9 148.087C1033.05 147.789 1033.17 147.432 1033.17 147.289C1033.17 147.134 1033.29 146.765 1033.42 146.455C1033.56 146.134 1033.7 145.669 1033.73 145.407C1033.76 145.145 1033.69 144.478 1033.59 143.918C1033.49 143.358 1033.26 142.132 1033.09 141.179C1032.82 139.642 1032.8 139.261 1032.87 137.784C1032.9 136.867 1033.06 135.581 1033.19 134.926C1033.32 134.271 1033.48 133.473 1033.54 133.139C1033.58 132.817 1033.67 132.198 1033.71 131.769C1033.76 131.341 1033.84 130.888 1033.92 130.757C1033.98 130.626 1034.06 129.721 1034.09 128.732C1034.12 127.755 1034.14 126.302 1034.14 125.516C1034.13 124.373 1034.08 123.98 1033.89 123.551C1033.77 123.253 1033.58 122.777 1033.48 122.479C1033.34 122.086 1033.17 121.848 1032.79 121.598C1032.5 121.395 1032.09 121.074 1031.88 120.883C1031.57 120.597 1031.32 120.49 1030.75 120.418C1030.34 120.359 1029.64 120.299 1029.18 120.276C1028.73 120.264 1028.21 120.192 1028.05 120.121C1027.82 120.037 1027.62 120.061 1027.15 120.24C1026.7 120.418 1026.34 120.466 1025.67 120.442C1025.18 120.418 1024.19 120.407 1023.46 120.407C1022.63 120.418 1021.89 120.49 1021.44 120.609C1020.94 120.752 1020.25 120.811 1019.12 120.811C1018.24 120.811 1016.52 120.752 1015.31 120.669C1014.09 120.585 1012.42 120.526 1011.56 120.538C1010.71 120.538 1009.25 120.549 1008.32 120.561C1007.32 120.561 1006.59 120.621 1006.56 120.692C1006.52 120.764 1005.92 120.788 1004.93 120.752C1003.89 120.716 1003.04 120.621 1002.45 120.466C1001.8 120.287 1001.31 120.24 1000.61 120.287C1000.08 120.311 999.571 120.359 999.476 120.395C999.381 120.43 999.059 120.407 998.762 120.347C998.464 120.299 997.928 120.299 997.571 120.347C997.19 120.407 996.238 120.395 995.309 120.311C994.428 120.24 993.488 120.168 993.226 120.133C992.964 120.109 991.571 120.049 990.131 120.013C988.476 119.978 987.119 120.002 986.44 120.085C985.857 120.156 985.345 120.264 985.309 120.323C985.274 120.383 984.714 120.466 984.059 120.514C983.404 120.549 982.821 120.645 982.75 120.704C982.69 120.764 982.607 120.811 982.571 120.811C982.535 120.811 982.524 120.621 982.547 120.395C982.559 120.168 982.5 119.906 982.428 119.823C982.345 119.74 982.166 119.632 982.035 119.573C981.904 119.525 981.607 119.466 981.381 119.43C981.154 119.394 980.893 119.346 980.821 119.323C980.738 119.287 980.238 119.335 978.774 119.561L978.024 120.359C977.607 120.811 977.19 121.169 977.095 121.169C977 121.169 976.69 121.062 976.416 120.931C976.131 120.8 975.904 120.645 975.904 120.573C975.904 120.514 976.071 120.359 976.274 120.252C976.476 120.133 976.797 119.918 976.988 119.775C977.262 119.561 977.333 119.406 977.333 119.061C977.345 118.775 977.25 118.489 977.083 118.263C976.94 118.084 976.607 117.774 976.345 117.584C976.083 117.393 975.762 117.238 975.643 117.238ZM1032.68 129.328C1032.62 130.316 1032.52 131.567 1032.46 132.127C1032.4 132.686 1032.27 133.889 1032.18 134.807C1032.08 135.724 1031.92 136.772 1031.81 137.129C1031.67 137.594 1031.59 138.487 1031.56 140.226C1031.52 141.572 1031.5 142.858 1031.49 143.084C1031.49 143.466 1031.45 143.418 1031.18 142.668C1030.9 141.929 1030.86 141.608 1030.82 139.809C1030.79 138.677 1030.82 137.189 1030.9 136.414C1030.98 135.664 1031.14 134.354 1031.27 133.496C1031.4 132.639 1031.56 131.543 1031.62 131.055C1031.68 130.566 1031.81 129.435 1031.92 128.553C1032.01 127.672 1032.11 126.767 1032.13 126.564C1032.15 126.35 1032.24 126.171 1032.3 126.171C1032.37 126.171 1032.51 126.481 1032.62 126.862C1032.77 127.434 1032.79 127.815 1032.68 129.328Z" fill="#252525"/>
<path d="M625.208 45.0637C625.929 45.0602 627.386 46.2969 628.433 48.4439C628.531 48.6044 628.622 48.7776 628.711 48.9891C630.16 52.454 630.131 54.7813 631.197 55.5875C632.262 56.3936 631.907 58.0056 631.41 60.0581L626.793 61.9647L623.595 59.9122L623.098 53.9003C623.098 53.9003 623.738 52.3621 623.951 51.7757C623.984 51.6852 624.059 51.4655 624.152 51.2C623.877 50.7812 623.723 50.354 623.772 49.9605C623.827 49.6948 624.07 49.6014 624.411 49.6526C624.109 49.2128 623.933 48.7617 623.985 48.3473C624.04 48.0819 624.284 47.9886 624.624 48.0394C624.322 47.5996 624.146 47.1485 624.198 46.7341C624.264 46.4149 624.603 46.3454 625.056 46.4759C624.853 46.1173 624.745 45.7582 624.787 45.4224C624.837 45.1808 624.988 45.0643 625.208 45.0632L625.208 45.0637Z" fill="#252525"/>
<path d="M625.208 45.0637C625.929 45.0602 627.386 46.2969 628.433 48.4439C628.531 48.6044 628.622 48.7776 628.711 48.9891C630.16 52.454 630.131 54.7813 631.197 55.5875C632.262 56.3936 631.907 58.0056 631.41 60.0581L626.793 61.9647L623.595 59.9122L623.098 53.9003C623.098 53.9003 623.738 52.3621 623.951 51.7757C623.984 51.6852 624.059 51.4655 624.152 51.2C623.877 50.7812 623.723 50.354 623.772 49.9605C623.827 49.6948 624.07 49.6014 624.411 49.6526C624.109 49.2128 623.933 48.7617 623.985 48.3473C624.04 48.0819 624.284 47.9886 624.624 48.0394C624.322 47.5996 624.146 47.1485 624.198 46.7341C624.264 46.4149 624.603 46.3454 625.056 46.4759C624.853 46.1173 624.745 45.7582 624.787 45.4224C624.837 45.1808 624.988 45.0643 625.208 45.0632L625.208 45.0637Z" fill="#252525"/>
<path d="M636.252 60.3058C635.705 60.6913 633.598 63.5348 633.202 64.5123C632.842 65.4007 632.378 66.3158 631.817 66.954C629.867 69.1791 628.388 70.105 625.471 70.1256C624.728 70.1333 622.639 69.7404 620.43 69.1414C618.449 68.6043 618.309 69.4345 617.477 69.5109C614.154 69.8162 612.826 69.991 611.624 69.6776C615.571 67.3398 624.488 60.3443 628.649 59.6249C630.32 59.4653 631.81 58.8094 632.378 58.4418C632.677 58.2484 633.42 57.8536 633.798 57.2496C634.246 56.5344 635.034 55.9842 635.96 56.2816C636.854 56.5688 637.499 56.9527 637.705 57.6234C637.893 58.2354 637.612 58.5836 637.372 59.0532C636.834 60.1072 636.877 59.8745 636.252 60.3057L636.252 60.3058Z" fill="#252525"/>
<path d="M629.129 59.4329C631.269 59.733 631.978 61.7248 632.956 63.4293C633.007 63.4971 633.147 63.7561 633.349 63.754C633.359 63.7539 633.4 63.8414 633.54 63.7206C633.435 63.8896 633.34 64.1516 633.236 64.3275C633.093 64.4661 632.799 64.1534 632.463 63.8716C631.769 63.2374 631.491 62.1523 631.022 61.3582C630.489 60.7095 629.861 59.8299 629.129 59.4329Z" fill="#252525"/>
<path d="M628.704 59.6685C627.753 59.3493 627.119 59.6685 626.723 58.1525C626.327 56.6366 626.644 55.2802 626.644 55.2802L626.861 54.6221C626.861 54.6221 626.961 54.4823 626.644 53.844C626.327 53.2057 620.464 48.1791 619.593 47.4612C618.721 46.7433 617.295 46.1846 617.295 46.1846C616.01 46.1541 615.18 47.0577 615.869 50.0144C615.77 50.5729 616.344 55.041 616.899 55.5198C617.453 55.9985 619.907 58.7392 619.828 59.6169C619.748 60.4946 619.04 64.0454 620.704 63.3273C622.368 62.6092 623.979 62.0303 624.296 62.1101C624.613 62.1899 624.584 63.1794 624.901 63.1794C625.218 63.1794 627.912 62.7804 628.387 61.9826C628.863 61.1847 628.546 59.7485 628.704 59.6687L628.704 59.6685Z" fill="#252525"/>
<path d="M618.799 64.9439C615.434 66.5507 610.662 67.9503 610.662 67.9503C610.662 67.9503 608.603 68.6759 609.306 68.7277C610.009 68.7796 611.818 68.4167 612.621 68.2612C613.425 68.1057 617.896 66.8617 617.896 66.8617L618.8 64.9438L618.799 64.9439Z" fill="#252525"/>
<path d="M617.141 66.9651C614.128 68.0536 610.913 68.883 610.913 68.883C610.913 68.883 610.21 69.4013 611.064 69.2458C611.917 69.0903 616.187 68.0536 616.187 68.0536L617.142 66.9651L617.141 66.9651Z" fill="#252525"/>
<path d="M624.93 61.6702C620.484 63.5257 620.135 63.8935 618.692 63.9464C617.248 63.9993 617.612 63.7583 618.344 63.1922C619.077 62.6261 619.833 62.214 619.833 62.214C619.833 62.214 618.897 62.5299 618.811 62.1656C618.758 61.9418 619.312 61.2991 619.686 61.0606C620.009 60.8543 618.764 60.9619 618.812 60.8115C618.869 60.634 620.574 58.9878 620.574 58.9878C620.574 58.9878 620.342 59.1549 620.536 59.9734C620.737 60.8229 621.16 61.1235 621.823 61.4461C622.471 61.7618 624.77 61.6574 624.93 61.6703L624.93 61.6702Z" fill="#252525"/>
<path d="M612.885 43.6602C614.692 43.6462 619.912 47.3444 620.737 48.4275C620.343 48.4485 619.726 48.317 619.003 48.0811C619.139 48.1736 619.251 48.256 619.324 48.3249C619.049 48.3764 618.624 48.3593 618.118 48.2896C618.737 48.5058 619.222 48.7114 619.444 48.862C619.201 48.9495 618.823 48.999 618.367 49.016C618.767 49.1226 619.081 49.232 619.254 49.3319C618.903 49.5644 618.221 49.7488 617.407 49.8658C618.069 49.9218 618.598 50.006 618.853 50.1048C618.474 50.3942 617.644 50.6748 616.672 50.8857C617.89 50.9138 618.973 51.0343 619.376 51.1904C619.013 51.4669 618.241 51.7366 617.324 51.9441C618.595 51.9704 619.74 52.1161 620.157 52.3065C619.554 52.8478 617.826 53.3669 616.178 53.5636C618.017 53.4388 620.187 53.5935 620.797 53.8298C620.57 54.0034 620.179 54.174 619.694 54.3285C620.369 54.3169 620.913 54.3478 621.18 54.4215C620.832 54.7443 620.047 55.1026 619.111 55.4077C620.212 55.2574 621.175 55.2247 621.563 55.3323C621.157 55.8354 620.1 56.4411 618.908 56.9199C620.41 56.6811 621.905 56.5984 622.415 56.7146C621.945 57.1925 620.607 57.7833 619.195 58.1947C620.855 57.9931 622.631 58.0312 623.193 58.2444C622.793 58.6909 621.786 59.1735 620.639 59.5304C621.953 59.3306 623.175 59.2639 623.627 59.3652C622.603 60.4661 617.38 62.183 616.388 61.1804C616.468 60.7263 617.269 60.3339 618.316 60.0275C617.204 60.1463 616.25 60.0425 615.892 59.5625C615.96 59.1792 616.411 58.8759 617.06 58.6468C616.183 58.7484 615.463 58.6956 615.157 58.3903C615.205 58.1454 615.479 57.9212 615.893 57.7216C615.161 57.7876 614.574 57.6976 614.305 57.372C614.389 56.8513 615.16 56.4085 616.176 56.0651C615.104 56.1874 614.196 56.1283 613.858 55.7589C613.935 55.4356 614.412 55.1685 615.088 54.9555C614.274 54.9157 613.629 54.7573 613.382 54.4295C613.527 54.0073 614.38 53.7576 615.463 53.6294C614.194 53.7054 613.086 53.5503 612.744 53.0136C612.832 52.7108 613.181 52.4837 613.685 52.3177C612.863 52.2793 612.211 52.1202 611.962 51.7901C612.048 51.5403 612.381 51.351 612.863 51.2113C612.183 51.1506 611.656 50.992 611.438 50.703C611.589 50.2628 612.509 50.0097 613.657 49.8868C612.757 49.7487 612.048 49.4844 611.821 49.0626C611.998 48.6446 612.778 48.4725 613.775 48.4484C612.887 48.1935 612.205 47.8626 612.027 47.4783C612.299 47.1014 613.383 47.1442 614.649 47.3709C613.396 46.8939 612.359 46.3091 612.204 45.7705C612.519 45.4516 613.531 45.6441 614.7 46.0447C613.472 45.2711 612.535 44.4439 612.442 43.7901C612.547 43.7022 612.698 43.6617 612.885 43.6602L612.885 43.6602Z" fill="#252525"/>
<path d="M628.74 63.0398C627.817 63.7299 627.391 64.19 626.041 64.19C624.691 64.19 623.128 63.6839 623.128 63.6839C623.128 63.6839 625.046 64.9722 626.112 64.7421C627.177 64.512 628.953 63.0398 628.74 63.0398Z" fill="#252525"/>
<path fill-rule="evenodd" clip-rule="evenodd" d="M626.408 69.4847C625.504 70.0286 624.6 71.1942 623.294 70.4949C621.988 69.7955 621.787 69.0962 621.787 69.0962C621.787 69.0962 623.093 68.7854 624.098 68.8631C625.102 68.9408 626.408 69.4847 626.408 69.4847Z" fill="#252525"/>
<path fill-rule="evenodd" clip-rule="evenodd" d="M623.997 70.1112C623.452 70.0235 623.124 70.15 622.892 70.6296C622.662 71.1042 621.891 70.5259 621.385 70.5259C620.81 70.5259 620.741 70.0689 620.481 69.8002C620.015 69.3197 619.716 69.1782 619.577 69.1782C619.136 69.1782 620.489 69.1823 620.883 69.3856C620.944 69.4172 621.915 70.3469 621.184 69.5929C620.507 68.8936 621.407 69.4025 621.787 69.6966C622.451 70.2104 622.387 69.9047 623.193 69.6966C623.517 69.613 623.714 69.936 623.997 70.1112L623.997 70.1112Z" fill="#252525"/>
<path d="M636.567 60.0944C635.997 61.5717 633.739 63.6191 633.674 63.7217C632.924 64.9038 631.806 59.318 629.005 59.5514C630.515 59.3144 631.373 58.9076 632.392 58.4229C632.711 58.2711 633.135 57.9801 633.795 57.1809C634.329 56.5341 635.045 55.9588 635.992 56.1777C636.857 56.3777 637.643 56.9255 637.849 57.5961C638.038 58.2081 637.682 58.5708 637.442 59.0404C636.904 60.0944 637.192 59.6632 636.567 60.0944Z" fill="#252525"/>
<path d="M636.567 60.0944C635.997 61.5717 633.739 63.6191 633.674 63.7217C632.924 64.9038 631.806 59.318 629.005 59.5514C630.515 59.3144 631.373 58.9076 632.392 58.4229C632.711 58.2711 633.135 57.9801 633.795 57.1809C634.329 56.5341 635.045 55.9588 635.992 56.1777C636.857 56.3777 637.643 56.9255 637.849 57.5961C638.038 58.2081 637.682 58.5708 637.442 59.0404C636.904 60.0944 637.192 59.6632 636.567 60.0944Z" fill="#252525"/>
<path fill-rule="evenodd" clip-rule="evenodd" d="M635.995 58.3158C635.87 58.5933 635.522 58.6983 635.216 58.5502C634.911 58.4022 634.764 58.0571 634.889 57.7796C635.013 57.5021 635.362 57.3971 635.667 57.5452C635.973 57.6932 636.119 58.0382 635.995 58.3158Z" fill="#252525"/>
<path fill-rule="evenodd" clip-rule="evenodd" d="M635.91 58.3395C635.83 58.5181 635.626 58.5952 635.454 58.5118C635.282 58.4284 635.208 58.2161 635.288 58.0376C635.368 57.8591 635.572 57.7819 635.744 57.8653C635.916 57.9487 635.991 58.161 635.91 58.3395Z" fill="#252525"/>
<path fill-rule="evenodd" clip-rule="evenodd" d="M635.744 58.0763C635.683 58.2123 635.511 58.2636 635.361 58.1908C635.211 58.1181 635.139 57.9489 635.2 57.8129C635.261 57.6769 635.432 57.6256 635.582 57.6984C635.732 57.7711 635.805 57.9403 635.744 58.0763Z" fill="#252525"/>
<path fill-rule="evenodd" clip-rule="evenodd" d="M637.536 59.0313C637.424 59.2779 637.222 59.4242 637.085 59.358C636.947 59.2918 636.926 59.0381 637.037 58.7915C637.149 58.5449 637.351 58.3986 637.488 58.4649C637.626 58.5311 637.647 58.7847 637.536 59.0313Z" fill="#252525"/>
<path fill-rule="evenodd" clip-rule="evenodd" d="M637.333 59.0525C637.271 59.1889 637.155 59.268 637.075 59.229C636.994 59.1901 636.978 59.048 637.04 58.9116C637.101 58.7751 637.217 58.6961 637.298 58.735C637.379 58.7739 637.394 58.916 637.333 59.0525Z" fill="#252525"/>
<path fill-rule="evenodd" clip-rule="evenodd" d="M637.444 59.0072C637.397 59.1104 637.306 59.1681 637.24 59.1361C637.174 59.104 637.158 58.9944 637.204 58.8912C637.251 58.788 637.342 58.7303 637.408 58.7623C637.474 58.7943 637.49 58.904 637.444 59.0072Z" fill="#252525"/>
<path d="M636.468 60.0347C636.175 60.1177 635.428 59.5447 635.545 59.2873C635.554 59.267 635.529 59.2613 635.542 59.2785C635.587 59.3388 635.674 59.3826 635.733 59.4372C635.883 59.576 636.162 59.6642 636.28 59.7596C636.357 59.821 636.443 59.9455 636.468 60.0347Z" fill="#252525"/>
<path d="M636.994 59.1784C637.094 58.7952 636.431 58.4522 636.196 58.5359C636.154 58.5509 635.983 58.5831 636.025 58.6385C636.1 58.7368 636.463 58.7717 636.607 58.8373C636.786 58.9186 636.908 59.0972 636.997 59.1872" fill="#252525"/>
<path d="M636.493 60.0718C636.192 59.9881 635.932 59.9277 635.785 59.731C635.701 59.669 635.55 59.5049 635.533 59.4004C635.45 59.5835 635.647 59.9836 635.703 60.1516C635.859 60.4309 635.901 60.694 635.814 60.9685C635.914 61.0182 635.958 60.9611 636.103 60.8046C636.358 60.3587 636.396 60.3697 636.493 60.0718Z" fill="#252525"/>
<path d="M636.331 58.6524C636.839 58.7995 636.911 58.9618 637.087 59.4159C637.101 59.6198 637.057 59.774 636.999 59.9648C636.912 60.2188 636.835 60.374 636.676 60.3271C636.427 60.2537 636.593 60.0803 636.37 59.8395C636.191 59.6479 636.056 59.674 635.811 59.5116C635.566 59.3492 635.497 59.2866 635.512 59.1013C635.508 58.6161 635.956 58.6123 636.331 58.6524Z" fill="#252525"/>
<path d="M636.213 58.9583C636.153 58.9256 636.126 58.9555 636.101 58.9779C635.982 59.0848 636.282 59.3586 636.303 59.312C636.319 59.2757 636.209 59.1293 636.198 59.0989C636.195 59.0875 636.384 59.0895 636.213 58.9583Z" fill="#252525"/>
<path d="M636.83 58.9997C636.957 59.1755 636.995 59.3719 636.962 59.5966C636.932 59.8035 636.814 60.1212 636.814 60.1212C636.807 59.8125 636.817 59.4826 636.638 59.2312C636.464 58.999 636.425 58.8357 636.425 58.8357C636.425 58.8357 636.604 58.8071 636.83 58.9997Z" fill="#252525"/>
<path d="M629.129 59.4329C631.269 59.733 631.978 61.7248 632.956 63.4293C633.007 63.4971 633.147 63.7561 633.349 63.754C633.359 63.7539 633.4 63.8414 633.54 63.7206C633.435 63.8896 633.34 64.1516 633.236 64.3275C633.093 64.4661 632.799 64.1534 632.463 63.8716C631.769 63.2374 631.491 62.1523 631.022 61.3582C630.489 60.7095 629.861 59.8299 629.129 59.4329Z" fill="#252525"/>
<path d="M612.885 43.6602C614.692 43.6462 619.912 47.3444 620.737 48.4275C620.343 48.4485 619.726 48.317 619.003 48.0811C619.139 48.1736 619.251 48.256 619.324 48.3249C619.049 48.3764 618.624 48.3593 618.118 48.2896C618.737 48.5058 619.222 48.7114 619.444 48.862C619.201 48.9495 618.823 48.999 618.367 49.016C618.767 49.1226 619.081 49.232 619.254 49.3319C618.903 49.5644 618.221 49.7488 617.407 49.8658C618.069 49.9218 618.598 50.006 618.853 50.1048C618.474 50.3942 617.644 50.6748 616.672 50.8857C617.89 50.9138 618.973 51.0343 619.376 51.1904C619.013 51.4669 618.241 51.7366 617.324 51.9441C618.595 51.9704 619.74 52.1161 620.157 52.3065C619.554 52.8478 617.826 53.3669 616.178 53.5636C618.017 53.4388 620.187 53.5935 620.797 53.8298C620.57 54.0034 620.179 54.174 619.694 54.3285C620.369 54.3169 620.913 54.3478 621.18 54.4215C620.832 54.7443 620.047 55.1026 619.111 55.4077C620.212 55.2574 621.175 55.2247 621.563 55.3323C621.157 55.8354 620.1 56.4411 618.908 56.9199C620.41 56.6811 621.905 56.5984 622.415 56.7146C621.945 57.1925 620.607 57.7833 619.195 58.1947C620.855 57.9931 622.631 58.0312 623.193 58.2444C622.793 58.6909 621.786 59.1735 620.639 59.5304C621.953 59.3306 623.175 59.2639 623.627 59.3652C622.603 60.4661 617.38 62.183 616.388 61.1804C616.468 60.7263 617.269 60.3339 618.316 60.0275C617.204 60.1463 616.25 60.0425 615.892 59.5625C615.96 59.1792 616.411 58.8759 617.06 58.6468C616.183 58.7484 615.463 58.6956 615.157 58.3903C615.205 58.1454 615.479 57.9212 615.893 57.7216C615.161 57.7876 614.574 57.6976 614.305 57.372C614.389 56.8513 615.16 56.4085 616.176 56.0651C615.104 56.1874 614.196 56.1283 613.858 55.7589C613.935 55.4356 614.412 55.1685 615.088 54.9555C614.274 54.9157 613.629 54.7573 613.382 54.4295C613.527 54.0073 614.38 53.7576 615.463 53.6294C614.194 53.7054 613.086 53.5503 612.744 53.0136C612.832 52.7108 613.181 52.4837 613.685 52.3177C612.863 52.2793 612.211 52.1202 611.962 51.7901C612.048 51.5403 612.381 51.351 612.863 51.2113C612.183 51.1506 611.656 50.992 611.438 50.703C611.589 50.2628 612.509 50.0097 613.657 49.8868C612.757 49.7487 612.048 49.4844 611.821 49.0626C611.998 48.6446 612.778 48.4725 613.775 48.4484C612.887 48.1935 612.205 47.8626 612.027 47.4783C612.299 47.1014 613.383 47.1442 614.649 47.3709C613.396 46.8939 612.359 46.3091 612.204 45.7705C612.519 45.4516 613.531 45.6441 614.7 46.0447C613.472 45.2711 612.535 44.4439 612.442 43.7901C612.547 43.7022 612.698 43.6617 612.885 43.6602L612.885 43.6602Z" fill="#252525"/>
<path d="M592.293 33.9361C592.838 33.9335 593.941 34.8496 594.733 36.44C594.807 36.5589 594.876 36.6872 594.943 36.8438C596.04 39.4104 596.018 41.1344 596.825 41.7315C597.631 42.3287 597.362 43.5227 596.986 45.0431L593.492 46.4554L591.072 44.935L590.696 40.4818C590.696 40.4818 591.18 39.3423 591.341 38.908C591.366 38.8409 591.423 38.6782 591.493 38.4815C591.285 38.1713 591.168 37.8549 591.206 37.5634C591.248 37.3666 591.431 37.2974 591.689 37.3353C591.461 37.0095 591.328 36.6754 591.367 36.3684C591.409 36.1718 591.593 36.1027 591.851 36.1404C591.622 35.8146 591.489 35.4804 591.528 35.1735C591.578 34.937 591.835 34.8855 592.177 34.9822C592.024 34.7166 591.942 34.4506 591.974 34.2019C592.012 34.0229 592.126 33.9366 592.293 33.9358L592.293 33.9361Z" fill="#252525"/>
<path d="M592.293 33.9361C592.838 33.9335 593.941 34.8496 594.733 36.44C594.807 36.5589 594.876 36.6872 594.943 36.8438C596.04 39.4104 596.018 41.1344 596.825 41.7315C597.631 42.3287 597.362 43.5227 596.986 45.0431L593.492 46.4554L591.072 44.935L590.696 40.4818C590.696 40.4818 591.18 39.3423 591.341 38.908C591.366 38.8409 591.423 38.6782 591.493 38.4815C591.285 38.1713 591.168 37.8549 591.206 37.5634C591.248 37.3666 591.431 37.2974 591.689 37.3353C591.461 37.0095 591.328 36.6754 591.367 36.3684C591.409 36.1718 591.593 36.1027 591.851 36.1404C591.622 35.8146 591.489 35.4804 591.528 35.1735C591.578 34.937 591.835 34.8855 592.177 34.9822C592.024 34.7166 591.942 34.4506 591.974 34.2019C592.012 34.0229 592.126 33.9366 592.293 33.9358L592.293 33.9361Z" fill="#252525"/>
<path d="M600.649 45.2265C600.236 45.5121 598.641 47.6183 598.342 48.3424C598.069 49.0004 597.718 49.6783 597.294 50.1511C595.818 51.7993 594.699 52.4851 592.491 52.5004C591.929 52.5061 590.348 52.2151 588.676 51.7714C587.177 51.3735 587.071 51.9885 586.442 52.0451C583.927 52.2712 582.922 52.4007 582.012 52.1686C584.999 50.4368 591.747 45.255 594.896 44.7221C596.16 44.6039 597.288 44.118 597.718 43.8457C597.944 43.7024 598.507 43.41 598.793 42.9626C599.131 42.4328 599.728 42.0253 600.429 42.2456C601.105 42.4583 601.593 42.7427 601.749 43.2395C601.892 43.6928 601.679 43.9508 601.498 44.2986C601.09 45.0794 601.123 44.907 600.649 45.2264L600.649 45.2265Z" fill="#252525"/>
<path d="M595.259 44.5799C596.879 44.8022 597.415 46.2776 598.156 47.5402C598.194 47.5904 598.3 47.7822 598.453 47.7807C598.461 47.7806 598.492 47.8454 598.598 47.7559C598.518 47.8811 598.446 48.0752 598.368 48.2055C598.26 48.3082 598.037 48.0765 597.782 47.8678C597.257 47.398 597.047 46.5942 596.692 46.006C596.289 45.5255 595.813 44.8739 595.259 44.5799Z" fill="#252525"/>
<path d="M594.938 44.7545C594.219 44.5181 593.739 44.7545 593.439 43.6316C593.14 42.5087 593.38 41.5039 593.38 41.5039L593.543 41.0164C593.543 41.0164 593.619 40.9129 593.38 40.4401C593.14 39.9673 588.703 36.2438 588.043 35.7121C587.384 35.1803 586.304 34.7664 586.304 34.7664C585.332 34.7438 584.704 35.4132 585.225 37.6033C585.151 38.017 585.585 41.3267 586.005 41.6814C586.424 42.036 588.281 44.0661 588.221 44.7163C588.161 45.3665 587.625 47.9967 588.884 47.4647C590.143 46.9328 591.363 46.504 591.603 46.5631C591.843 46.6222 591.821 47.3552 592.06 47.3552C592.3 47.3552 594.339 47.0597 594.699 46.4686C595.058 45.8776 594.819 44.8138 594.938 44.7547L594.938 44.7545Z" fill="#252525"/>
<path d="M587.442 48.6621C584.895 49.8524 581.284 50.8891 581.284 50.8891C581.284 50.8891 579.726 51.4266 580.258 51.465C580.79 51.5034 582.159 51.2346 582.767 51.1194C583.375 51.0043 586.758 50.0828 586.758 50.0828L587.442 48.6621L587.442 48.6621Z" fill="#252525"/>
<path d="M586.187 50.1594C583.907 50.9657 581.474 51.5801 581.474 51.5801C581.474 51.5801 580.942 51.9641 581.588 51.8488C582.234 51.7336 585.465 50.9657 585.465 50.9657L586.188 50.1594L586.187 50.1594Z" fill="#252525"/>
<path d="M592.082 46.2372C588.718 47.6116 588.454 47.8841 587.361 47.9233C586.269 47.9625 586.545 47.784 587.099 47.3646C587.653 46.9453 588.225 46.64 588.225 46.64C588.225 46.64 587.517 46.874 587.452 46.6042C587.412 46.4384 587.831 45.9623 588.114 45.7857C588.359 45.6328 587.416 45.7125 587.453 45.6011C587.496 45.4697 588.786 44.2502 588.786 44.2502C588.786 44.2502 588.61 44.374 588.757 44.9803C588.909 45.6096 589.23 45.8322 589.731 46.0712C590.222 46.3051 591.961 46.2278 592.082 46.2373L592.082 46.2372Z" fill="#252525"/>
<path d="M582.967 32.8965C584.335 32.8862 588.285 35.6255 588.909 36.4278C588.611 36.4434 588.145 36.346 587.597 36.1713C587.701 36.2398 587.785 36.3008 587.841 36.3518C587.632 36.39 587.311 36.3773 586.928 36.3257C587.396 36.4859 587.763 36.6381 587.931 36.7497C587.747 36.8145 587.461 36.8512 587.116 36.8638C587.419 36.9428 587.657 37.0238 587.788 37.0978C587.522 37.27 587.005 37.4066 586.389 37.4933C586.891 37.5347 587.291 37.5971 587.484 37.6703C587.197 37.8846 586.569 38.0926 585.833 38.2487C586.756 38.2696 587.575 38.3588 587.879 38.4744C587.605 38.6793 587.021 38.8791 586.327 39.0327C587.289 39.0522 588.156 39.1601 588.471 39.3011C588.015 39.7022 586.707 40.0867 585.459 40.2324C586.852 40.1399 588.494 40.2545 588.955 40.4296C588.783 40.5582 588.487 40.6845 588.12 40.799C588.632 40.7903 589.043 40.8133 589.245 40.8679C588.982 41.1069 588.388 41.3724 587.679 41.5984C588.512 41.4871 589.241 41.4628 589.535 41.5425C589.227 41.9152 588.427 42.3639 587.525 42.7185C588.662 42.5416 589.794 42.4804 590.179 42.5664C589.824 42.9204 588.811 43.358 587.743 43.6628C588.999 43.5135 590.343 43.5417 590.769 43.6996C590.466 44.0304 589.704 44.3878 588.835 44.6522C589.83 44.5042 590.755 44.4548 591.097 44.5299C590.321 45.3453 586.369 46.6171 585.618 45.8745C585.679 45.5381 586.285 45.2474 587.077 45.0204C586.236 45.1085 585.514 45.0316 585.243 44.676C585.295 44.3921 585.636 44.1674 586.127 43.9977C585.463 44.073 584.919 44.0338 584.687 43.8077C584.723 43.6263 584.93 43.4603 585.244 43.3124C584.69 43.3613 584.246 43.2946 584.042 43.0534C584.105 42.6677 584.69 42.3397 585.458 42.0854C584.647 42.1759 583.96 42.1322 583.704 41.8585C583.763 41.6191 584.123 41.4211 584.635 41.2634C584.019 41.2339 583.531 41.1166 583.344 40.8738C583.454 40.5611 584.099 40.3761 584.918 40.2811C583.958 40.3374 583.12 40.2225 582.861 39.825C582.927 39.6007 583.192 39.4324 583.573 39.3095C582.951 39.281 582.457 39.1632 582.269 38.9187C582.334 38.7336 582.586 38.5934 582.951 38.4899C582.437 38.4449 582.038 38.3275 581.873 38.1134C581.987 37.7873 582.683 37.5999 583.552 37.5088C582.871 37.4065 582.334 37.2107 582.162 36.8983C582.296 36.5887 582.887 36.4612 583.641 36.4433C582.969 36.2545 582.453 36.0094 582.319 35.7247C582.524 35.4456 583.345 35.4773 584.302 35.6452C583.354 35.2919 582.57 34.8587 582.453 34.4597C582.691 34.2235 583.456 34.366 584.341 34.6628C583.412 34.0898 582.703 33.477 582.633 32.9927C582.712 32.9277 582.826 32.8976 582.968 32.8965L582.967 32.8965Z" fill="#252525"/>
<path d="M594.965 47.2517C594.266 47.7629 593.944 48.1037 592.922 48.1037C591.901 48.1037 590.718 47.7288 590.718 47.7288C590.718 47.7288 592.17 48.6831 592.976 48.5127C593.783 48.3423 595.127 47.2517 594.965 47.2517Z" fill="#252525"/>
<path fill-rule="evenodd" clip-rule="evenodd" d="M593.2 52.0256C592.516 52.4285 591.832 53.2919 590.843 52.7739C589.855 52.2559 589.703 51.7378 589.703 51.7378C589.703 51.7378 590.691 51.5076 591.452 51.5651C592.212 51.6227 593.2 52.0256 593.2 52.0256Z" fill="#252525"/>
<path fill-rule="evenodd" clip-rule="evenodd" d="M591.376 52.4897C590.963 52.4247 590.716 52.5184 590.54 52.8737C590.366 53.2252 589.782 52.7969 589.399 52.7969C588.964 52.7969 588.912 52.4584 588.715 52.2593C588.363 51.9034 588.137 51.7986 588.031 51.7986C587.698 51.7986 588.721 51.8016 589.019 51.9522C589.066 51.9756 589.8 52.6643 589.247 52.1057C588.734 51.5878 589.416 51.9647 589.703 52.1825C590.206 52.5632 590.157 52.3367 590.768 52.1825C591.013 52.1207 591.162 52.3599 591.376 52.4897L591.376 52.4897Z" fill="#252525"/>
<path d="M600.889 45.0698C600.457 46.1641 598.749 47.6808 598.7 47.7568C598.132 48.6324 597.286 44.4947 595.166 44.6677C596.309 44.4921 596.958 44.1907 597.729 43.8317C597.971 43.7193 598.292 43.5037 598.791 42.9117C599.195 42.4326 599.737 42.0064 600.454 42.1686C601.108 42.3167 601.703 42.7225 601.859 43.2193C602.002 43.6726 601.733 43.9413 601.551 44.2891C601.144 45.0698 601.362 44.7504 600.889 45.0698Z" fill="#252525"/>
<path d="M600.889 45.0698C600.457 46.1641 598.749 47.6808 598.7 47.7568C598.132 48.6324 597.286 44.4947 595.166 44.6677C596.309 44.4921 596.958 44.1907 597.729 43.8317C597.971 43.7193 598.292 43.5037 598.791 42.9117C599.195 42.4326 599.737 42.0064 600.454 42.1686C601.108 42.3167 601.703 42.7225 601.859 43.2193C602.002 43.6726 601.733 43.9413 601.551 44.2891C601.144 45.0698 601.362 44.7504 600.889 45.0698Z" fill="#252525"/>
<path fill-rule="evenodd" clip-rule="evenodd" d="M600.454 43.7508C600.359 43.9573 600.095 44.0367 599.865 43.928C599.635 43.8193 599.526 43.5637 599.621 43.3572C599.716 43.1506 599.98 43.0713 600.21 43.18C600.44 43.2886 600.549 43.5442 600.454 43.7508Z" fill="#252525"/>
<path fill-rule="evenodd" clip-rule="evenodd" d="M600.391 43.7692C600.33 43.902 600.175 43.9601 600.045 43.8989C599.916 43.8377 599.86 43.6804 599.921 43.5476C599.983 43.4148 600.137 43.3567 600.267 43.4179C600.396 43.4791 600.452 43.6364 600.391 43.7692Z" fill="#252525"/>
<path fill-rule="evenodd" clip-rule="evenodd" d="M600.265 43.5744C600.218 43.6756 600.089 43.7144 599.975 43.661C599.862 43.6076 599.808 43.4822 599.855 43.381C599.902 43.2798 600.031 43.2411 600.144 43.2945C600.257 43.3479 600.311 43.4732 600.265 43.5744Z" fill="#252525"/>
<path fill-rule="evenodd" clip-rule="evenodd" d="M601.622 44.2826C601.538 44.4652 601.385 44.5736 601.281 44.5245C601.176 44.4755 601.16 44.2876 601.245 44.1049C601.329 43.9223 601.482 43.8139 601.586 43.863C601.69 43.912 601.706 44.0999 601.622 44.2826Z" fill="#252525"/>
<path fill-rule="evenodd" clip-rule="evenodd" d="M601.468 44.2983C601.422 44.3994 601.334 44.458 601.273 44.4291C601.212 44.4003 601.2 44.295 601.247 44.194C601.293 44.0929 601.381 44.0343 601.442 44.0632C601.503 44.092 601.515 44.1973 601.468 44.2983Z" fill="#252525"/>
<path fill-rule="evenodd" clip-rule="evenodd" d="M601.552 44.2644C601.516 44.3411 601.447 44.3842 601.398 44.3608C601.348 44.3373 601.336 44.2561 601.372 44.1794C601.407 44.1027 601.476 44.0596 601.526 44.083C601.575 44.1065 601.587 44.1877 601.552 44.2644Z" fill="#252525"/>
<path d="M600.814 45.026C600.593 45.0874 600.028 44.663 600.116 44.4723C600.123 44.4573 600.104 44.453 600.114 44.4658C600.148 44.5105 600.214 44.5429 600.259 44.5834C600.372 44.6862 600.583 44.7515 600.673 44.8222C600.73 44.8676 600.796 44.9598 600.814 45.026Z" fill="#252525"/>
<path d="M601.212 44.3914C601.288 44.1075 600.786 43.8534 600.609 43.9154C600.577 43.9265 600.447 43.9504 600.479 43.9914C600.536 44.0642 600.811 44.0901 600.92 44.1387C601.055 44.1989 601.147 44.3312 601.214 44.3979" fill="#252525"/>
<path d="M600.833 45.0532C600.605 44.9913 600.408 44.9465 600.297 44.8008C600.233 44.7549 600.119 44.6333 600.106 44.5559C600.044 44.6915 600.192 44.9879 600.235 45.1124C600.353 45.3192 600.385 45.5142 600.319 45.7175C600.395 45.7542 600.428 45.712 600.538 45.596C600.73 45.2657 600.759 45.2739 600.833 45.0532Z" fill="#252525"/>
<path d="M600.71 44.0019C601.094 44.1109 601.149 44.2311 601.282 44.5675C601.292 44.7185 601.259 44.8328 601.215 44.9741C601.149 45.1622 601.091 45.2772 600.971 45.2424C600.782 45.188 600.908 45.0596 600.739 44.8813C600.604 44.7393 600.502 44.7587 600.316 44.6384C600.131 44.5181 600.079 44.4717 600.09 44.3344C600.087 43.975 600.426 43.9722 600.71 44.0019Z" fill="#252525"/>
<path d="M600.621 44.2284C600.576 44.2043 600.555 44.2264 600.536 44.243C600.446 44.3222 600.673 44.525 600.689 44.4905C600.702 44.4636 600.618 44.3552 600.61 44.3326C600.607 44.3242 600.751 44.3256 600.621 44.2284Z" fill="#252525"/>
<path d="M601.088 44.2593C601.184 44.3895 601.213 44.535 601.188 44.7015C601.165 44.8547 601.075 45.09 601.075 45.09C601.07 44.8613 601.078 44.617 600.942 44.4308C600.811 44.2588 600.781 44.1378 600.781 44.1378C600.781 44.1378 600.917 44.1166 601.088 44.2593Z" fill="#252525"/>
<path d="M595.259 44.5799C596.879 44.8022 597.415 46.2776 598.156 47.5402C598.194 47.5904 598.3 47.7822 598.453 47.7807C598.461 47.7806 598.492 47.8454 598.598 47.7559C598.518 47.8811 598.446 48.0752 598.368 48.2055C598.26 48.3082 598.037 48.0765 597.782 47.8678C597.257 47.398 597.047 46.5942 596.692 46.006C596.289 45.5255 595.813 44.8739 595.259 44.5799Z" fill="#252525"/>
<path d="M582.967 32.8965C584.335 32.8862 588.285 35.6255 588.909 36.4278C588.611 36.4434 588.145 36.346 587.597 36.1713C587.701 36.2398 587.785 36.3008 587.841 36.3518C587.632 36.39 587.311 36.3773 586.928 36.3257C587.396 36.4859 587.763 36.6381 587.931 36.7497C587.747 36.8145 587.461 36.8512 587.116 36.8638C587.419 36.9428 587.657 37.0238 587.788 37.0978C587.522 37.27 587.005 37.4066 586.389 37.4933C586.891 37.5347 587.291 37.5971 587.484 37.6703C587.197 37.8846 586.569 38.0926 585.833 38.2487C586.756 38.2696 587.575 38.3588 587.879 38.4744C587.605 38.6793 587.021 38.8791 586.327 39.0327C587.289 39.0522 588.156 39.1601 588.471 39.3011C588.015 39.7022 586.707 40.0867 585.459 40.2324C586.852 40.1399 588.494 40.2545 588.955 40.4296C588.783 40.5582 588.487 40.6845 588.12 40.799C588.632 40.7903 589.043 40.8133 589.245 40.8679C588.982 41.1069 588.388 41.3724 587.679 41.5984C588.512 41.4871 589.241 41.4628 589.535 41.5425C589.227 41.9152 588.427 42.3639 587.525 42.7185C588.662 42.5416 589.794 42.4804 590.179 42.5664C589.824 42.9204 588.811 43.358 587.743 43.6628C588.999 43.5135 590.343 43.5417 590.769 43.6996C590.466 44.0304 589.704 44.3878 588.835 44.6522C589.83 44.5042 590.755 44.4548 591.097 44.5299C590.321 45.3453 586.369 46.6171 585.618 45.8745C585.679 45.5381 586.285 45.2474 587.077 45.0204C586.236 45.1085 585.514 45.0316 585.243 44.676C585.295 44.3921 585.636 44.1674 586.127 43.9977C585.463 44.073 584.919 44.0338 584.687 43.8077C584.723 43.6263 584.93 43.4603 585.244 43.3124C584.69 43.3613 584.246 43.2946 584.042 43.0534C584.105 42.6677 584.69 42.3397 585.458 42.0854C584.647 42.1759 583.96 42.1322 583.704 41.8585C583.763 41.6191 584.123 41.4211 584.635 41.2634C584.019 41.2339 583.531 41.1166 583.344 40.8738C583.454 40.5611 584.099 40.3761 584.918 40.2811C583.958 40.3374 583.12 40.2225 582.861 39.825C582.927 39.6007 583.192 39.4324 583.573 39.3095C582.951 39.281 582.457 39.1632 582.269 38.9187C582.334 38.7336 582.586 38.5934 582.951 38.4899C582.437 38.4449 582.038 38.3275 581.873 38.1134C581.987 37.7873 582.683 37.5999 583.552 37.5088C582.871 37.4065 582.334 37.2107 582.162 36.8983C582.296 36.5887 582.887 36.4612 583.641 36.4433C582.969 36.2545 582.453 36.0094 582.319 35.7247C582.524 35.4456 583.345 35.4773 584.302 35.6452C583.354 35.2919 582.57 34.8587 582.453 34.4597C582.691 34.2235 583.456 34.366 584.341 34.6628C583.412 34.0898 582.703 33.477 582.633 32.9927C582.712 32.9277 582.826 32.8976 582.968 32.8965L582.967 32.8965Z" fill="#252525"/>
<path d="M588.192 72.915C588.484 72.9136 589.075 73.4174 589.499 74.2921C589.539 74.3575 589.576 74.4281 589.612 74.5142C590.2 75.9258 590.188 76.874 590.62 77.2024C591.052 77.5309 590.908 78.1876 590.706 79.0238L588.835 79.8006L587.538 78.9644L587.337 76.5151C587.337 76.5151 587.596 75.8884 587.683 75.6495C587.696 75.6126 587.727 75.5231 587.764 75.415C587.652 75.2443 587.59 75.0703 587.61 74.91C587.633 74.8017 587.731 74.7637 587.869 74.7845C587.747 74.6053 587.675 74.4216 587.696 74.2527C587.719 74.1446 587.817 74.1066 587.955 74.1273C587.833 73.9481 587.762 73.7644 587.783 73.5955C587.81 73.4655 587.947 73.4372 588.131 73.4903C588.048 73.3442 588.004 73.1979 588.022 73.0611C588.042 72.9627 588.103 72.9152 588.192 72.9148L588.192 72.915Z" fill="#252525"/>
<path d="M588.192 72.915C588.484 72.9136 589.075 73.4174 589.499 74.2921C589.539 74.3575 589.576 74.4281 589.612 74.5142C590.2 75.9258 590.188 76.874 590.62 77.2024C591.052 77.5309 590.908 78.1876 590.706 79.0238L588.835 79.8006L587.538 78.9644L587.337 76.5151C587.337 76.5151 587.596 75.8884 587.683 75.6495C587.696 75.6126 587.727 75.5231 587.764 75.415C587.652 75.2443 587.59 75.0703 587.61 74.91C587.633 74.8017 587.731 74.7637 587.869 74.7845C587.747 74.6053 587.675 74.4216 587.696 74.2527C587.719 74.1446 587.817 74.1066 587.955 74.1273C587.833 73.9481 587.762 73.7644 587.783 73.5955C587.81 73.4655 587.947 73.4372 588.131 73.4903C588.048 73.3442 588.004 73.1979 588.022 73.0611C588.042 72.9627 588.103 72.9152 588.192 72.9148L588.192 72.915Z" fill="#252525"/>
<path d="M592.669 79.1245C592.447 79.2815 591.593 80.44 591.433 80.8382C591.287 81.2001 591.099 81.573 590.871 81.833C590.081 82.7395 589.481 83.1167 588.299 83.1251C587.997 83.1283 587.15 82.9682 586.255 82.7241C585.452 82.5053 585.395 82.8436 585.058 82.8747C583.71 82.9991 583.172 83.0703 582.685 82.9426C584.285 81.9902 587.9 79.1402 589.587 78.8471C590.264 78.782 590.868 78.5148 591.099 78.365C591.22 78.2862 591.521 78.1254 591.674 77.8793C591.856 77.588 592.175 77.3638 592.551 77.485C592.913 77.602 593.175 77.7584 593.258 78.0316C593.335 78.281 593.221 78.4228 593.123 78.6142C592.905 79.0435 592.923 78.9487 592.669 79.1244L592.669 79.1245Z" fill="#252525"/>
<path d="M589.782 78.7691C590.65 78.8913 590.937 79.7028 591.334 80.3972C591.354 80.4249 591.411 80.5304 591.493 80.5295C591.497 80.5295 591.514 80.5651 591.57 80.5159C591.528 80.5847 591.489 80.6915 591.447 80.7632C591.389 80.8196 591.27 80.6922 591.134 80.5774C590.852 80.319 590.74 79.877 590.549 79.5535C590.333 79.2892 590.079 78.9308 589.782 78.7691Z" fill="#252525"/>
<path d="M589.609 78.8648C589.224 78.7348 588.967 78.8648 588.806 78.2472C588.646 77.6296 588.774 77.077 588.774 77.077L588.862 76.8089C588.862 76.8089 588.903 76.752 588.774 76.4919C588.646 76.2319 586.269 74.184 585.916 73.8915C585.562 73.599 584.984 73.3714 584.984 73.3714C584.463 73.359 584.126 73.7271 584.406 74.9317C584.366 75.1592 584.599 76.9796 584.823 77.1746C585.048 77.3697 586.043 78.4862 586.011 78.8438C585.979 79.2014 585.692 80.648 586.366 80.3555C587.041 80.0629 587.694 79.8271 587.822 79.8596C587.951 79.8921 587.939 80.2952 588.068 80.2952C588.196 80.2952 589.288 80.1327 589.481 79.8076C589.674 79.4825 589.545 78.8974 589.609 78.8649L589.609 78.8648Z" fill="#252525"/>
<path d="M585.595 81.0142C584.23 81.6688 582.296 82.239 582.296 82.239C582.296 82.239 581.461 82.5346 581.746 82.5557C582.031 82.5769 582.764 82.429 583.09 82.3657C583.416 82.3023 585.228 81.7955 585.228 81.7955L585.595 81.0142L585.595 81.0142Z" fill="#252525"/>
<path d="M584.922 81.8376C583.7 82.2811 582.397 82.619 582.397 82.619C582.397 82.619 582.112 82.8302 582.458 82.7668C582.804 82.7035 584.535 82.2811 584.535 82.2811L584.922 81.8376L584.922 81.8376Z" fill="#252525"/>
<path d="M588.08 79.6805C586.278 80.4364 586.136 80.5863 585.551 80.6078C584.966 80.6294 585.114 80.5312 585.41 80.3006C585.707 80.0699 586.014 79.902 586.014 79.902C586.014 79.902 585.635 80.0307 585.6 79.8823C585.578 79.7911 585.802 79.5293 585.954 79.4321C586.085 79.3481 585.58 79.3919 585.6 79.3306C585.623 79.2583 586.314 78.5876 586.314 78.5876C586.314 78.5876 586.22 78.6557 586.299 78.9892C586.38 79.3353 586.552 79.4577 586.821 79.5892C587.083 79.7178 588.015 79.6753 588.08 79.6805L588.08 79.6805Z" fill="#252525"/>
<path d="M583.197 72.343C583.929 72.3373 586.046 73.844 586.38 74.2853C586.22 74.2938 585.97 74.2402 585.677 74.1442C585.733 74.1818 585.778 74.2154 585.807 74.2435C585.696 74.2645 585.524 74.2575 585.319 74.2291C585.569 74.3172 585.766 74.4009 585.856 74.4623C585.757 74.4979 585.604 74.5181 585.419 74.525C585.582 74.5685 585.709 74.613 585.779 74.6537C585.637 74.7485 585.36 74.8236 585.03 74.8713C585.299 74.8941 585.513 74.9283 585.617 74.9686C585.463 75.0865 585.126 75.2009 584.732 75.2868C585.226 75.2982 585.665 75.3473 585.828 75.4109C585.681 75.5236 585.368 75.6334 584.997 75.7179C585.512 75.7287 585.976 75.788 586.145 75.8656C585.901 76.0861 585.2 76.2976 584.532 76.3778C585.278 76.3269 586.157 76.3899 586.405 76.4862C586.312 76.5569 586.154 76.6264 585.957 76.6894C586.231 76.6846 586.452 76.6972 586.56 76.7273C586.419 76.8588 586.1 77.0048 585.721 77.1291C586.167 77.0678 586.558 77.0545 586.715 77.0984C586.55 77.3033 586.122 77.5501 585.639 77.7451C586.248 77.6478 586.854 77.6141 587.06 77.6615C586.87 77.8562 586.328 78.0969 585.755 78.2645C586.428 78.1824 587.148 78.1979 587.376 78.2847C587.214 78.4667 586.805 78.6633 586.34 78.8087C586.873 78.7273 587.368 78.7001 587.552 78.7414C587.136 79.1899 585.019 79.8894 584.617 79.4809C584.65 79.2959 584.974 79.136 585.399 79.0112C584.948 79.0596 584.561 79.0173 584.416 78.8217C584.444 78.6656 584.626 78.542 584.89 78.4487C584.534 78.4901 584.242 78.4686 584.118 78.3442C584.137 78.2444 584.248 78.1531 584.417 78.0718C584.12 78.0986 583.882 78.062 583.773 77.9293C583.806 77.7172 584.119 77.5368 584.531 77.3969C584.097 77.4467 583.729 77.4226 583.591 77.2721C583.623 77.1404 583.816 77.0316 584.09 76.9448C583.76 76.9286 583.499 76.8641 583.398 76.7305C583.457 76.5585 583.803 76.4568 584.242 76.4045C583.728 76.4355 583.279 76.3723 583.14 76.1537C583.175 76.0303 583.317 75.9378 583.521 75.8702C583.188 75.8545 582.923 75.7897 582.823 75.6552C582.857 75.5534 582.993 75.4763 583.188 75.4194C582.912 75.3947 582.699 75.3301 582.61 75.2123C582.672 75.033 583.044 74.9299 583.51 74.8798C583.145 74.8235 582.858 74.7159 582.765 74.544C582.837 74.3737 583.154 74.3036 583.558 74.2938C583.198 74.1899 582.921 74.0551 582.849 73.8986C582.959 73.745 583.399 73.7625 583.912 73.8548C583.404 73.6605 582.984 73.4222 582.921 73.2028C583.049 73.0729 583.459 73.1513 583.933 73.3145C583.435 72.9993 583.055 72.6623 583.017 72.396C583.06 72.3602 583.121 72.3436 583.197 72.343L583.197 72.343Z" fill="#252525"/>
<path d="M589.625 80.2385C589.25 80.5197 589.078 80.7071 588.53 80.7071C587.983 80.7071 587.35 80.501 587.35 80.501C587.35 80.501 588.127 81.0258 588.559 80.9321C588.991 80.8383 589.711 80.2385 589.625 80.2385Z" fill="#252525"/>
<path fill-rule="evenodd" clip-rule="evenodd" d="M588.679 82.8641C588.312 83.0857 587.946 83.5605 587.416 83.2756C586.887 82.9907 586.805 82.7058 586.805 82.7058C586.805 82.7058 587.335 82.5791 587.742 82.6108C588.149 82.6425 588.679 82.8641 588.679 82.8641Z" fill="#252525"/>
<path fill-rule="evenodd" clip-rule="evenodd" d="M587.701 83.1194C587.48 83.0836 587.347 83.1352 587.253 83.3305C587.16 83.5239 586.848 83.2883 586.642 83.2883C586.409 83.2883 586.381 83.1021 586.276 82.9927C586.087 82.7969 585.966 82.7393 585.909 82.7393C585.731 82.7393 586.279 82.7409 586.439 82.8237C586.464 82.8366 586.857 83.2154 586.561 82.9082C586.286 82.6233 586.651 82.8306 586.805 82.9504C587.074 83.1598 587.048 83.0352 587.375 82.9504C587.507 82.9164 587.586 83.048 587.701 83.1194L587.701 83.1194Z" fill="#252525"/>
<path d="M592.798 79.0385C592.566 79.6404 591.651 80.4746 591.625 80.5164C591.321 80.998 590.867 78.7222 589.732 78.8173C590.344 78.7208 590.692 78.555 591.105 78.3576C591.234 78.2957 591.406 78.1772 591.674 77.8516C591.89 77.5881 592.181 77.3537 592.564 77.4429C592.915 77.5243 593.234 77.7475 593.317 78.0207C593.394 78.2701 593.249 78.4178 593.152 78.6091C592.934 79.0385 593.051 78.8629 592.798 79.0385Z" fill="#252525"/>
<path d="M592.798 79.0385C592.566 79.6404 591.651 80.4746 591.625 80.5164C591.321 80.998 590.867 78.7222 589.732 78.8173C590.344 78.7208 590.692 78.555 591.105 78.3576C591.234 78.2957 591.406 78.1772 591.674 77.8516C591.89 77.5881 592.181 77.3537 592.564 77.4429C592.915 77.5243 593.234 77.7475 593.317 78.0207C593.394 78.2701 593.249 78.4178 593.152 78.6091C592.934 79.0385 593.051 78.8629 592.798 79.0385Z" fill="#252525"/>
<path fill-rule="evenodd" clip-rule="evenodd" d="M592.566 78.314C592.515 78.427 592.374 78.4695 592.25 78.4091C592.126 78.3486 592.066 78.2081 592.117 78.0951C592.167 77.9822 592.308 77.9396 592.432 78.0001C592.556 78.0605 592.616 78.2011 592.566 78.314Z" fill="#252525"/>
<path fill-rule="evenodd" clip-rule="evenodd" d="M592.531 78.3237C592.499 78.3963 592.416 78.4276 592.346 78.3936C592.276 78.3596 592.246 78.2731 592.278 78.2004C592.311 78.1277 592.393 78.0964 592.463 78.1305C592.533 78.1645 592.563 78.251 592.531 78.3237Z" fill="#252525"/>
<path fill-rule="evenodd" clip-rule="evenodd" d="M592.464 78.2163C592.439 78.2716 592.37 78.2924 592.309 78.2627C592.248 78.233 592.219 78.1641 592.243 78.1087C592.268 78.0534 592.337 78.0326 592.398 78.0623C592.459 78.092 592.489 78.161 592.464 78.2163Z" fill="#252525"/>
<path fill-rule="evenodd" clip-rule="evenodd" d="M593.19 78.6053C593.144 78.7058 593.063 78.7654 593.007 78.7384C592.951 78.7114 592.942 78.6081 592.988 78.5076C593.033 78.4071 593.115 78.3476 593.17 78.3745C593.226 78.4015 593.235 78.5048 593.19 78.6053Z" fill="#252525"/>
<path fill-rule="evenodd" clip-rule="evenodd" d="M593.108 78.6139C593.083 78.6694 593.036 78.7016 593.003 78.6858C592.97 78.6699 592.964 78.612 592.989 78.5565C593.014 78.5009 593.061 78.4687 593.094 78.4845C593.126 78.5004 593.133 78.5583 593.108 78.6139Z" fill="#252525"/>
<path fill-rule="evenodd" clip-rule="evenodd" d="M593.152 78.5956C593.133 78.6376 593.096 78.6611 593.07 78.648C593.043 78.6349 593.036 78.5903 593.055 78.5482C593.074 78.5062 593.111 78.4828 593.137 78.4958C593.164 78.5089 593.171 78.5536 593.152 78.5956Z" fill="#252525"/>
<path d="M592.757 79.0141C592.638 79.048 592.335 78.8145 592.383 78.7096C592.386 78.7014 592.376 78.699 592.381 78.706C592.4 78.7306 592.435 78.7485 592.459 78.7707C592.52 78.8273 592.633 78.8632 592.681 78.9021C592.712 78.9271 592.747 78.9778 592.757 79.0141Z" fill="#252525"/>
<path d="M592.97 78.6651C593.011 78.509 592.742 78.3693 592.647 78.4034C592.63 78.4095 592.561 78.4226 592.578 78.4452C592.608 78.4852 592.755 78.4995 592.814 78.5261C592.886 78.5593 592.936 78.6321 592.972 78.6687" fill="#252525"/>
<path d="M592.767 79.0291C592.644 78.9951 592.539 78.9704 592.48 78.8903C592.445 78.8651 592.384 78.7982 592.377 78.7556C592.344 78.8302 592.423 78.9932 592.446 79.0617C592.509 79.1754 592.527 79.2827 592.491 79.3945C592.532 79.4147 592.55 79.3915 592.609 79.3277C592.712 79.146 592.727 79.1505 592.767 79.0291Z" fill="#252525"/>
<path d="M592.701 78.4509C592.907 78.5108 592.936 78.5769 593.008 78.7619C593.013 78.845 592.996 78.9078 592.972 78.9856C592.937 79.089 592.905 79.1523 592.841 79.1331C592.74 79.1032 592.807 79.0326 592.717 78.9345C592.645 78.8565 592.59 78.8671 592.49 78.8009C592.391 78.7348 592.363 78.7092 592.369 78.6337C592.367 78.4361 592.549 78.4345 592.701 78.4509Z" fill="#252525"/>
<path d="M592.653 78.5754C592.629 78.5622 592.618 78.5743 592.608 78.5835C592.56 78.627 592.681 78.7386 592.69 78.7196C592.696 78.7048 592.651 78.6451 592.647 78.6328C592.646 78.6281 592.723 78.6289 592.653 78.5754Z" fill="#252525"/>
<path d="M592.904 78.5926C592.955 78.6642 592.971 78.7442 592.957 78.8358C592.945 78.92 592.897 79.0495 592.897 79.0495C592.895 78.9237 592.898 78.7893 592.826 78.6869C592.755 78.5923 592.739 78.5258 592.739 78.5258C592.739 78.5258 592.812 78.5141 592.904 78.5926Z" fill="#252525"/>
<path d="M589.782 78.7691C590.65 78.8913 590.937 79.7028 591.334 80.3972C591.354 80.4249 591.411 80.5304 591.493 80.5295C591.497 80.5295 591.514 80.5651 591.57 80.5159C591.528 80.5847 591.489 80.6915 591.447 80.7632C591.389 80.8196 591.27 80.6922 591.134 80.5774C590.852 80.319 590.74 79.877 590.549 79.5535C590.333 79.2892 590.079 78.9308 589.782 78.7691Z" fill="#252525"/>
<path d="M583.197 72.343C583.929 72.3373 586.046 73.844 586.38 74.2853C586.22 74.2938 585.97 74.2402 585.677 74.1442C585.733 74.1818 585.778 74.2154 585.807 74.2435C585.696 74.2645 585.524 74.2575 585.319 74.2291C585.569 74.3172 585.766 74.4009 585.856 74.4623C585.757 74.4979 585.604 74.5181 585.419 74.525C585.582 74.5685 585.709 74.613 585.779 74.6537C585.637 74.7485 585.36 74.8236 585.03 74.8713C585.299 74.8941 585.513 74.9283 585.617 74.9686C585.463 75.0865 585.126 75.2009 584.732 75.2868C585.226 75.2982 585.665 75.3473 585.828 75.4109C585.681 75.5236 585.368 75.6334 584.997 75.7179C585.512 75.7287 585.976 75.788 586.145 75.8656C585.901 76.0861 585.2 76.2976 584.532 76.3778C585.278 76.3269 586.157 76.3899 586.405 76.4862C586.312 76.5569 586.154 76.6264 585.957 76.6894C586.231 76.6846 586.452 76.6972 586.56 76.7273C586.419 76.8588 586.1 77.0048 585.721 77.1291C586.167 77.0678 586.558 77.0545 586.715 77.0984C586.55 77.3033 586.122 77.5501 585.639 77.7451C586.248 77.6478 586.854 77.6141 587.06 77.6615C586.87 77.8562 586.328 78.0969 585.755 78.2645C586.428 78.1824 587.148 78.1979 587.376 78.2847C587.214 78.4667 586.805 78.6633 586.34 78.8087C586.873 78.7273 587.368 78.7001 587.552 78.7414C587.136 79.1899 585.019 79.8894 584.617 79.4809C584.65 79.2959 584.974 79.136 585.399 79.0112C584.948 79.0596 584.561 79.0173 584.416 78.8217C584.444 78.6656 584.626 78.542 584.89 78.4487C584.534 78.4901 584.242 78.4686 584.118 78.3442C584.137 78.2444 584.248 78.1531 584.417 78.0718C584.12 78.0986 583.882 78.062 583.773 77.9293C583.806 77.7172 584.119 77.5368 584.531 77.3969C584.097 77.4467 583.729 77.4226 583.591 77.2721C583.623 77.1404 583.816 77.0316 584.09 76.9448C583.76 76.9286 583.499 76.8641 583.398 76.7305C583.457 76.5585 583.803 76.4568 584.242 76.4045C583.728 76.4355 583.279 76.3723 583.14 76.1537C583.175 76.0303 583.317 75.9378 583.521 75.8702C583.188 75.8545 582.923 75.7897 582.823 75.6552C582.857 75.5534 582.993 75.4763 583.188 75.4194C582.912 75.3947 582.699 75.3301 582.61 75.2123C582.672 75.033 583.044 74.9299 583.51 74.8798C583.145 74.8235 582.858 74.7159 582.765 74.544C582.837 74.3737 583.154 74.3036 583.558 74.2938C583.198 74.1899 582.921 74.0551 582.849 73.8986C582.959 73.745 583.399 73.7625 583.912 73.8548C583.404 73.6605 582.984 73.4222 582.921 73.2028C583.049 73.0729 583.459 73.1513 583.933 73.3145C583.435 72.9993 583.055 72.6623 583.017 72.396C583.06 72.3602 583.121 72.3436 583.197 72.343L583.197 72.343Z" fill="#252525"/>
</svg>
