<svg width="803" height="1040" viewBox="0 0 803 1040" fill="none" xmlns="http://www.w3.org/2000/svg">
<path d="M223.168 25.1243C223.168 25.1243 112.017 149.031 213.503 337.462C213.503 337.462 261.83 259.235 258.447 211.842C258.447 211.842 263.279 133.614 223.168 25.1243Z" fill="#F7F7F7"/>
<path d="M99.4508 416.831C99.4508 416.831 84.9528 340.317 20.6784 250.099C20.6784 250.099 -56.161 405.982 86.4026 552.729C86.4026 552.729 89.3022 542.451 92.6851 528.176C95.1014 531.031 96.5512 532.744 96.5512 532.744L93.6516 524.179C100.417 493.916 108.633 445.952 99.4508 416.831Z" fill="#F7F7F7"/>
<path d="M453.203 155.312C453.203 155.312 502.013 193.569 531.009 195.282C560.005 196.424 590.451 200.421 644.577 159.88C644.577 159.88 567.254 59.3839 453.203 155.312Z" fill="#F7F7F7"/>
<path d="M115.878 563.007C115.878 563.007 186.918 593.841 222.68 578.995C222.68 578.995 283.571 564.72 357.511 496.2C357.511 496.2 331.415 478.499 291.787 473.36C318.85 457.372 354.128 429.393 377.808 384.855C377.808 384.855 213.498 343.172 149.707 485.922C149.707 485.922 167.587 492.203 189.818 496.2C165.654 509.904 141.008 531.031 115.878 563.007Z" fill="#F7F7F7"/>
<path d="M285.505 343.172C285.505 329.468 276.323 318.619 265.208 318.619C253.61 318.619 244.428 329.468 244.428 343.172C244.428 356.305 253.61 367.154 265.208 367.154C276.323 367.154 285.505 356.305 285.505 343.172Z" fill="#F7F7F7"/>
<path d="M1005.1 716.035C1028.78 732.023 1089.18 772.564 1096.92 772.564C1106.58 772.564 1125.91 772.564 1116.25 741.73C1106.58 711.467 1019.59 677.207 1019.59 677.207C1031.19 678.92 1116.25 715.464 1124.46 715.464C1132.68 715.464 1156.84 728.597 1148.63 686.914C1144.28 663.503 1110.45 650.941 1081.45 644.089L1109.96 648.657C1148.63 650.37 1169.41 625.817 1169.41 625.817C1182.45 606.974 1161.67 601.264 1161.67 601.264C1152.98 601.264 1123.98 598.98 1098.37 596.696C1130.26 595.554 1167.96 591.557 1167.96 591.557C1167.96 591.557 1167.96 591.557 1174.24 587.56C1181 584.134 1187.29 581.85 1187.29 553.3C1187.29 524.75 1118.18 545.877 1109.96 545.877C1101.75 545.877 1045.69 545.877 1037.47 547.59C1029.26 549.874 1021.53 549.874 1009.93 551.587C998.813 553.3 995.43 541.88 987.698 541.88C979.482 541.88 971.267 544.164 964.984 544.164C958.702 544.164 945.654 536.17 945.654 536.17L934.539 532.744H918.108L897.327 523.037L834.503 488.777L805.99 472.789L810.339 469.934L818.555 461.369C832.569 455.659 842.235 445.952 832.086 428.251L829.67 420.257L833.053 419.686C844.168 420.828 863.015 420.828 862.049 405.411L863.499 403.127L860.599 399.13C860.599 398.368 860.438 397.797 860.116 397.417C860.116 397.417 859.149 396.275 857.216 393.991L850.45 384.284L854.8 382.571C867.365 384.855 883.312 382.571 887.662 357.447C887.662 357.447 889.112 349.453 885.729 339.746C884.279 326.042 874.614 313.48 874.614 313.48H886.212C905.543 300.347 903.61 256.379 903.61 256.379C939.371 250.669 964.984 240.962 983.349 230.684C985.282 229.542 987.215 228.591 989.148 227.829C1012.83 217.551 1028.29 187.288 1030.71 182.72C1034.57 181.007 1042.31 177.581 1051.01 173.584C1053.91 173.013 1055.36 173.013 1055.36 173.013C1100.3 159.309 1107.55 137.611 1107.55 125.62C1109 121.052 1109.96 117.626 1109.96 117.626C1109.96 117.626 1164.57 98.7832 1172.79 90.7892C1178.59 85.0792 1171.34 72.5171 1167.47 66.2361C1191.15 62.8101 1210 43.3961 1210 43.3961C1209.68 42.6347 1209.2 42.0638 1208.55 41.6831C1209.52 40.5411 1210 39.3991 1210 39.3991C1208.07 30.2631 1124.46 20.556 1124.46 20.556L1014.76 14.846L990.598 16.559L963.535 20.556L903.61 27.9791C903.61 27.9791 845.618 33.6891 829.67 33.6891C813.722 33.6891 779.893 47.3931 779.893 47.3931C779.893 47.3931 705.47 81.6531 699.188 87.3632C692.905 93.0732 688.073 107.919 683.24 150.173C682.596 155.883 682.274 161.213 682.274 166.161C681.79 200.421 695.805 220.406 695.805 237.536C695.805 248.956 696.772 263.231 696.772 275.794C696.772 282.646 696.288 288.927 695.805 294.637C695.322 303.773 690.006 318.048 685.656 330.039L643.612 373.435C632.497 349.453 583.204 347.74 583.204 347.74C583.204 347.74 533.428 328.897 516.997 317.477C501.049 306.057 497.666 267.799 489.934 241.533C481.718 214.696 449.339 207.273 438.224 204.989C427.109 203.276 373.95 237.536 373.95 237.536L316.924 247.814C367.667 195.282 405.362 167.874 405.362 167.874C378.299 181.007 352.203 198.137 327.556 218.122C344.47 203.276 372.017 175.297 377.333 150.173C377.333 150.173 398.596 93.6442 390.864 0C390.864 0 276.813 55.9581 314.508 229.542C312.897 230.684 311.447 232.017 310.158 233.539C310.803 230.875 311.125 228.02 311.125 224.974C311.125 211.841 301.943 200.992 290.828 200.992C279.713 200.992 270.531 211.841 270.531 224.974C270.531 238.678 279.713 249.527 290.828 249.527C291.794 249.527 292.6 249.337 293.244 248.956C237.185 303.202 188.859 371.151 150.197 436.245C159.863 409.408 178.227 353.45 170.978 318.619C170.978 318.619 164.695 240.962 109.603 142.179C109.603 142.179 18.2656 284.359 142.465 449.378C76.7408 562.436 39.5293 662.932 39.5293 662.932C63.6926 685.772 60.3097 737.162 60.3097 737.162C99.9376 515.043 219.788 351.737 307.259 258.663C320.79 260.947 358.002 279.791 364.284 283.217C370.567 287.214 376.849 279.22 389.897 327.184C402.946 374.577 434.841 391.707 443.057 399.13C451.272 407.124 463.837 412.834 463.837 412.834C475.436 469.934 515.547 504.194 515.547 504.194C522.312 511.807 529.078 519.04 535.844 525.892C526.662 528.747 515.547 532.744 510.714 538.454C502.499 547.59 489.934 547.59 478.335 547.59C467.22 547.59 398.113 561.294 381.682 637.237C381.682 637.237 381.682 645.231 381.682 658.364C380.232 671.497 379.749 686.914 380.232 704.044C380.876 715.845 381.36 727.455 381.682 738.875C382.165 758.289 382.648 776.561 383.615 791.407C383.615 791.407 384.098 794.833 385.065 801.114C388.448 863.925 391.347 901.611 391.347 901.611C391.347 901.611 393.28 936.442 391.831 969.56C389.897 991.258 386.515 1011.24 380.232 1027.23C380.232 1027.23 380.232 1030.09 380.715 1032.94C378.782 1039.22 382.648 1040.36 387.481 1039.79C389.897 1039.79 393.28 1039.22 397.63 1036.37C399.563 1035.8 401.013 1035.22 401.013 1035.22L401.979 1033.51C403.59 1032.37 405.523 1031.04 407.778 1029.51C407.778 1029.51 415.511 1019.24 423.726 999.823L427.109 995.255L433.875 994.113C434.841 994.113 436.13 993.922 437.741 993.542L441.607 992.971L442.573 990.687C448.856 986.119 456.105 975.841 464.32 953.001L470.603 941.581L481.235 904.466C483.651 913.602 488.967 927.306 499.599 915.315C499.599 915.315 505.398 905.037 513.13 887.907L514.097 886.765L516.513 880.484C519.735 872.87 523.118 864.115 526.662 854.218L531.495 841.085L539.227 835.375C543.576 833.662 549.859 830.235 556.141 822.812L560.49 819.957L563.873 813.105C568.223 806.253 572.572 797.688 576.438 786.268L578.371 781.7L579.338 776.561C583.204 762.286 586.587 745.156 588.52 724.029L589.486 718.89L597.702 694.337L603.984 681.204L636.363 671.497L646.029 654.367L659.077 641.234H676.474L677.441 602.977C678.085 602.977 678.407 602.977 678.407 602.977C700.638 589.844 781.343 641.234 781.343 641.234H804.057L873.164 700.047C876.547 722.887 955.319 753.15 955.319 753.15C958.702 770.28 1024.43 911.318 1058.25 867.351C1068.4 854.218 1065.02 838.23 1055.84 822.242C1065.02 827.952 1083.87 835.946 1092.08 812.535C1101.27 785.697 1031.19 734.307 1005.1 716.035Z" fill="#F7F7F7"/>
</svg>
