<svg width="291" height="98" viewBox="0 0 291 98" fill="none" xmlns="http://www.w3.org/2000/svg">
<path d="M248.653 41.4378V12.7096C248.653 12.7096 248.653 12.7096 248.653 12.6044C248.653 9.23618 249.973 6.07193 252.375 3.69052C254.769 1.30912 257.96 0 261.356 0C264.859 0 268.036 1.41437 270.338 3.6971C272.64 5.97983 274.066 9.13092 274.066 12.6044C274.066 14.1635 273.748 15.6699 273.197 17.0909C274.63 16.5514 276.142 16.2357 277.708 16.2357C281.104 16.2357 284.295 17.5448 286.696 19.9262C289.097 22.3076 290.417 25.4719 290.417 28.8335C290.417 32.1951 289.097 35.3659 286.696 37.7473C284.295 40.1287 281.104 41.4378 277.621 41.4378H248.66H248.653Z" fill="#73AA17"/>
<path d="M246.152 12.466C246.152 12.466 246.152 12.4068 246.152 12.3739C246.152 5.677 240.68 0.249756 233.927 0.249756C227.181 0.249756 221.708 5.677 221.702 12.3739C221.702 15.0316 222.564 17.4854 224.03 19.4852C222.013 18.0248 219.526 17.1696 216.846 17.163C210.093 17.163 204.621 22.5903 204.621 29.2871C204.621 35.984 210.093 41.4113 216.846 41.4113C216.886 41.4113 216.926 41.4113 216.965 41.4113H246.152V12.466Z" fill="#73AA17"/>
<path d="M248.866 72.8633C248.866 72.8633 248.866 72.9291 248.866 72.9554C248.866 79.6457 254.338 85.0729 261.085 85.0795C267.837 85.0795 273.31 79.6523 273.303 72.9554C273.303 70.2977 272.441 67.8439 270.975 65.844C272.992 67.3045 275.472 68.1663 278.159 68.1663C284.905 68.1663 290.378 62.739 290.378 56.0487C290.378 49.3518 284.905 43.9312 278.159 43.9312C278.119 43.9312 278.079 43.9312 278.04 43.9312H248.853V72.8699L248.866 72.8633Z" fill="#73AA17"/>
<path d="M0 47.8322C0 47.1086 0.656708 46.4639 1.37975 46.4639H4.21222C5.01486 46.4639 5.59197 47.1151 5.59197 47.8322V68.8833H35.104V47.8322C35.104 47.1086 35.6878 46.4639 36.4838 46.4639H39.3162C40.0459 46.4639 40.696 47.1151 40.696 47.8322V95.559C40.696 96.2827 40.0393 96.9273 39.3162 96.9273H36.4838C35.6811 96.9273 35.104 96.2761 35.104 95.559V73.7119H5.5986V95.559C5.5986 96.2827 5.01486 96.9273 4.21885 96.9273H1.38638C0.656708 96.9273 0.0066334 96.2761 0.0066334 95.559V47.8322H0Z" fill="white"/>
<path d="M63.7601 38.8921C63.4683 38.3132 63.7601 37.7408 64.1979 37.5237L75.1033 31.465C75.5411 31.1755 76.629 31.0308 76.9938 31.6821L78.3006 34.2806C78.5924 34.8595 78.4465 35.5765 77.8628 35.7936L66.1614 40.6222C65.1465 41.0564 64.7817 41.0564 64.4898 40.4775L63.7601 38.8921ZM54.6724 47.8322C54.6724 47.1086 55.2561 46.4639 56.0521 46.4639H84.6952C85.4978 46.4639 86.0749 47.1152 86.0749 47.8322V49.9242C86.0749 50.6478 85.4912 51.2925 84.6952 51.2925H60.271V68.8833H81.133C81.8627 68.8833 82.5128 69.5346 82.5128 70.2517V72.3436C82.5128 73.1396 81.8561 73.7119 81.133 73.7119H60.271V92.0988H84.6952C85.4978 92.0988 86.0749 92.75 86.0749 93.4671V95.559C86.0749 96.2827 85.4912 96.9274 84.6952 96.9274H56.0521C55.2495 96.9274 54.6724 96.2761 54.6724 95.559V47.8322Z" fill="white"/>
<path d="M116.39 72.416C121.989 72.416 126.858 67.8044 126.858 61.8904C126.858 56.4105 121.989 51.7266 116.39 51.7266H102.287V72.416H116.39ZM96.543 47.8322C96.543 47.1086 97.1267 46.4639 97.9227 46.4639H116.748C125.471 46.4639 132.596 53.2397 132.596 61.818C132.596 68.4491 128.164 74.0014 121.836 76.5275L131.793 94.842C132.304 95.7761 131.793 96.9339 130.559 96.9339H127.07C126.194 96.9339 125.836 96.5721 125.471 95.8551L116.019 77.1853H102.135V95.5722C102.135 96.2958 101.478 96.9405 100.755 96.9405H97.9227C97.1201 96.9405 96.543 96.2892 96.543 95.5722V47.8454V47.8322Z" fill="white"/>
<path d="M166.692 92.6052C178.247 92.6052 187.773 83.2308 187.773 71.7711C187.773 60.3114 178.247 50.7924 166.692 50.7924C155.136 50.7924 145.684 60.3114 145.684 71.7711C145.684 83.2308 155.136 92.6052 166.692 92.6052ZM166.692 45.7467C181.232 45.7467 192.86 57.3511 192.86 71.7711C192.86 86.1912 181.232 97.6509 166.692 97.6509C152.151 97.6509 140.596 86.1912 140.596 71.7711C140.596 57.3511 152.151 45.7467 166.692 45.7467Z" fill="white"/>
<path d="M203.625 47.0427C203.625 46.319 204.282 45.7467 205.005 45.7467H206.093C206.604 45.7467 206.969 45.8914 207.254 46.3256L239.605 86.2635H239.751V47.8387C239.751 47.115 240.335 46.4703 241.131 46.4703H243.678C244.408 46.4703 245.058 47.1216 245.058 47.8387V96.3549C245.058 97.0785 244.401 97.6509 243.678 97.6509H243.094C242.584 97.6509 242.219 97.5061 241.933 97.072L209.005 56.338H208.932V95.5589C208.932 96.2825 208.348 96.9272 207.552 96.9272H205.005C204.276 96.9272 203.625 96.276 203.625 95.5589V47.0427Z" fill="white"/>
<path d="M89.8572 28.7612C91.2834 28.7612 92.4376 29.3138 93.3265 30.3203C93.5123 30.544 93.4725 30.8137 93.2469 30.9979L92.9153 31.3071C92.6035 31.5702 92.4177 31.3663 92.232 31.1624C91.5687 30.4256 90.8058 30.1361 89.8307 30.1361C88.0132 30.1361 86.5671 31.7347 86.5671 33.7017C86.5671 35.6686 87.9933 37.2869 89.771 37.2869C91.2171 37.2869 91.8406 36.5501 92.3779 35.9318C92.6433 35.6226 92.9152 35.7081 93.1806 35.9712L93.3066 36.0962C93.5123 36.3002 93.5985 36.5041 93.4327 36.7541C92.7096 37.8001 91.4294 38.6618 89.8373 38.6618C87.0049 38.6618 85.0215 36.5699 85.0215 33.7214C85.0215 30.8729 87.0911 28.7612 89.8572 28.7612Z" fill="white"/>
<path d="M100.052 37.2869C101.936 37.2869 103.315 35.6489 103.315 33.6819C103.315 31.715 101.929 30.1361 100.052 30.1361C98.1746 30.1361 96.7683 31.7544 96.7683 33.6819C96.7683 35.6094 98.1746 37.2869 100.052 37.2869ZM100.052 28.7612C102.699 28.7612 104.848 31.0176 104.848 33.6819C104.848 36.3462 102.699 38.6618 100.052 38.6618C97.4051 38.6618 95.2559 36.3857 95.2559 33.6819C95.2559 30.9782 97.4051 28.7612 100.052 28.7612Z" fill="white"/>
<path d="M107.448 29.4191C107.448 29.1954 107.653 28.9652 107.899 28.9652H108.231C108.436 28.9652 108.562 29.0441 108.602 29.2546L108.808 29.9717C108.808 29.9717 109.803 28.7612 111.766 28.7612C113.192 28.7612 113.955 29.2744 114.579 30.2611C114.705 30.1822 116.065 28.7612 117.988 28.7612C120.761 28.7612 121.418 30.544 121.418 32.9846V37.9843C121.418 38.2277 121.212 38.4382 120.96 38.4382H120.343C120.098 38.4382 119.885 38.2342 119.885 37.9843V32.9846C119.885 31.2216 119.308 30.1361 117.862 30.1361C116.31 30.1361 115.441 31.1426 115.089 31.4255C115.169 31.8334 115.215 32.4912 115.215 32.9846V37.9843C115.215 38.2277 115.01 38.4382 114.764 38.4382H114.141C113.915 38.4382 113.69 38.2342 113.69 37.9843V32.9846C113.69 31.1821 113.093 30.1361 111.541 30.1361C109.842 30.1361 108.98 31.4452 108.98 31.4452V37.9843C108.98 38.2277 108.755 38.4382 108.522 38.4382H107.905C107.66 38.4382 107.454 38.2342 107.454 37.9843V29.4125L107.448 29.4191Z" fill="white"/>
<path d="M124.549 29.4191C124.549 29.1954 124.755 28.9652 125.007 28.9652H125.339C125.544 28.9652 125.67 29.0441 125.71 29.2546L125.916 29.9717C125.916 29.9717 126.904 28.7612 128.874 28.7612C130.3 28.7612 131.063 29.2744 131.687 30.2611C131.813 30.1822 133.173 28.7612 135.096 28.7612C137.869 28.7612 138.526 30.544 138.526 32.9846V37.9843C138.526 38.2277 138.32 38.4382 138.075 38.4382H137.458C137.213 38.4382 137 38.2342 137 37.9843V32.9846C137 31.2216 136.423 30.1361 134.977 30.1361C133.425 30.1361 132.556 31.1426 132.204 31.4255C132.284 31.8334 132.33 32.4912 132.33 32.9846V37.9843C132.33 38.2277 132.125 38.4382 131.879 38.4382H131.262C131.037 38.4382 130.805 38.2342 130.805 37.9843V32.9846C130.805 31.1821 130.208 30.1361 128.655 30.1361C126.957 30.1361 126.095 31.4452 126.095 31.4452V37.9843C126.095 38.2277 125.869 38.4382 125.637 38.4382H125.02C124.775 38.4382 124.563 38.2342 124.563 37.9843V29.4125L124.549 29.4191Z" fill="white"/>
<path d="M141.537 29.419C141.537 29.1953 141.723 28.9651 141.988 28.9651H142.605C142.851 28.9651 143.063 29.1888 143.063 29.419V34.5436C143.063 36.4317 143.68 37.2934 145.066 37.2934C146.453 37.2934 147.342 36.4119 147.773 35.9185V29.419C147.773 29.1953 147.959 28.9651 148.204 28.9651H148.847C149.073 28.9651 149.279 29.1888 149.279 29.419V37.9908C149.279 38.2342 149.073 38.4447 148.847 38.4447H148.516C148.25 38.4447 148.144 38.2802 148.085 38.0368L147.899 37.4447C147.547 37.8131 146.658 38.6749 144.94 38.6749C142.194 38.6749 141.531 37.0369 141.531 34.5371V29.4322L141.537 29.419Z" fill="white"/>
<path d="M152.516 29.4191C152.516 29.1954 152.721 28.9652 152.973 28.9652H153.305C153.511 28.9652 153.637 29.0441 153.676 29.2546L153.882 29.9717C153.882 29.9717 155.103 28.7612 157.086 28.7612C159.859 28.7612 160.535 30.544 160.535 32.9846V37.9843C160.535 38.2277 160.31 38.4382 160.084 38.4382H159.467C159.222 38.4382 159.01 38.2342 159.01 37.9843V32.7741C159.01 30.9716 158.393 30.1296 156.987 30.1296C155.189 30.1296 154.048 31.4387 154.048 31.4387V37.9777C154.048 38.2211 153.822 38.4316 153.59 38.4316H152.973C152.728 38.4316 152.516 38.2277 152.516 37.9777V29.4059V29.4191Z" fill="white"/>
<path d="M170.479 32.8399C170.439 31.4452 169.324 30.1361 167.686 30.1361C166.048 30.1361 164.794 31.3663 164.608 32.8399H170.479ZM167.686 28.7612C170.187 28.7612 172.004 30.5835 172.004 33.0635C172.004 33.228 171.984 33.4714 171.965 33.6359C171.945 33.8793 171.739 34.0437 171.533 34.0437H164.588C164.628 35.6226 165.975 37.2803 167.713 37.2803C168.973 37.2803 169.762 36.8527 170.3 36.5041C170.631 36.2804 170.777 36.1949 171.023 36.5633L171.268 36.9119C171.454 37.2014 171.533 37.3001 171.188 37.5698C170.611 38.0237 169.351 38.6552 167.693 38.6552C164.8 38.6552 163.062 36.3988 163.062 33.6951C163.062 30.9913 164.8 28.7546 167.693 28.7546" fill="white"/>
<path d="M183.342 37.2869C185.06 37.2869 186.048 35.7672 186.048 35.7672V30.6623C186.048 30.6623 184.934 30.1295 183.607 30.1295C181.558 30.1295 180.423 31.807 180.423 33.695C180.423 35.583 181.604 37.2803 183.335 37.2803M183.395 28.7546C184.967 28.7546 186.042 29.3466 186.042 29.3466V24.5312C186.042 24.3075 186.247 24.0839 186.5 24.0839H187.077C187.322 24.0839 187.554 24.3075 187.554 24.5312V37.9776C187.554 38.221 187.329 38.4315 187.077 38.4315H186.705C186.5 38.4315 186.373 38.2671 186.294 38.0434L186.168 37.4316C186.168 37.4316 184.947 38.6618 183.15 38.6618C180.728 38.6618 178.871 36.3856 178.871 33.6819C178.871 30.9781 180.523 28.7612 183.402 28.7612" fill="white"/>
<path d="M197.604 32.8399C197.564 31.4452 196.449 30.1361 194.811 30.1361C193.173 30.1361 191.919 31.3663 191.733 32.8399H197.604ZM194.811 28.7612C197.312 28.7612 199.129 30.5835 199.129 33.0635C199.129 33.228 199.109 33.4714 199.09 33.6359C199.07 33.8793 198.864 34.0437 198.658 34.0437H191.713C191.753 35.6226 193.1 37.2803 194.838 37.2803C196.098 37.2803 196.881 36.8527 197.425 36.5041C197.756 36.2804 197.902 36.1949 198.148 36.5633L198.393 36.9119C198.579 37.2014 198.658 37.3001 198.313 37.5698C197.736 38.0237 196.476 38.6552 194.818 38.6552C191.925 38.6552 190.188 36.3988 190.188 33.6951C190.188 30.9913 191.925 28.7546 194.818 28.7546" fill="white"/>
</svg>
