<svg width="50" height="50" viewBox="0 0 50 50" fill="none" xmlns="http://www.w3.org/2000/svg">
<rect width="50" height="50" fill="#6EA216"/>
<path d="M29.607 27.7763V27.608H29.7763L33.9622 31.8091L33.9639 31.8107C34.0059 31.8528 34.0059 31.926 33.9639 31.968C33.9438 31.9881 33.9168 32 33.8836 32C33.8504 32 33.8234 31.9881 33.8033 31.968L29.607 27.7763ZM28.3024 25.6719L28.0112 26.0113L27.6714 26.3022C26.4056 27.386 24.6835 27.9445 22.8462 27.6373C20.3449 27.2143 18.338 25.117 18.0325 22.6042L18.0323 22.6027C17.5626 18.7861 20.7734 15.5764 24.5977 16.046L24.5992 16.0461C27.1168 16.3515 29.2157 18.3574 29.6386 20.8546C29.9458 22.6885 29.3871 24.4078 28.3024 25.6719ZM18.0997 21.8596C18.0997 25.0404 20.6718 27.608 23.8534 27.608C27.035 27.608 29.607 25.0404 29.607 21.8596C29.607 18.6788 27.035 16.1111 23.8534 16.1111C20.6718 16.1111 18.0997 18.6788 18.0997 21.8596Z" stroke="white" stroke-width="2"/>
</svg>
