<svg width="35" height="35" viewBox="0 0 35 35" fill="none" xmlns="http://www.w3.org/2000/svg">
<circle cx="17.5" cy="17.5" r="17.5" fill="#26383F"/>
<path fill-rule="evenodd" clip-rule="evenodd" d="M22.8532 12.956C22.6913 12.8605 22.5622 12.8921 22.4977 13.0491C22.4977 13.0491 22.9497 10.6286 22.5956 9.62213C21.8216 6.97955 15.4391 6.22546 15.4391 7.8603C12.6659 8.61537 13.1823 11.1629 13.5688 13.0816C13.5688 13.0816 13.3755 12.8605 13.1182 13.0816C12.8271 13.3958 13.1492 14.1197 13.2791 14.4967C13.3435 14.7481 13.4403 14.9363 13.5047 15.0935V15.1564C13.5047 15.4403 13.6011 15.6285 13.7623 15.6285C14.4075 18.0184 16.3409 20 18.0501 20C19.6291 20 21.5963 18.0184 22.2401 15.6285C22.3689 15.6285 22.4654 15.44 22.4654 15.1564V15.1248C22.5622 14.9675 22.6266 14.7793 22.7244 14.4964C22.8212 14.1503 23.2077 13.2077 22.8532 12.956Z" fill="white"/>
<path fill-rule="evenodd" clip-rule="evenodd" d="M15.184 20C10.4049 22.4548 8 21.0599 8 27H18.0462H18.1376H28C28 21.2837 25.5951 22.4548 20.8463 20C20.0252 20.6976 19.0812 21.1723 18.0462 21.1723C16.9503 21.172 15.9761 20.6976 15.184 20Z" fill="#6EA216"/>
</svg>
