<svg width="146" height="145" viewBox="0 0 146 145" fill="none" xmlns="http://www.w3.org/2000/svg">
<path d="M74.7051 70.4951V21.6219C74.7051 21.6219 74.7051 21.6219 74.7051 21.4429C74.7051 15.7128 76.945 10.3297 81.0196 6.27841C85.0942 2.2271 90.5082 0 96.2712 0C102.214 0 107.606 2.40617 111.512 6.28961C115.417 10.173 117.837 15.5338 117.837 21.4429C117.837 24.0952 117.297 26.6581 116.363 29.0754C118.794 28.1577 121.36 27.6205 124.017 27.6205C129.78 27.6205 135.194 29.8476 139.268 33.899C143.343 37.9503 145.583 43.3334 145.583 49.0522C145.583 54.771 143.343 60.1653 139.268 64.2166C135.194 68.268 129.78 70.4951 123.87 70.4951H74.7276H74.7051Z" fill="#F1F1F1"/>
<path d="M70.4725 21.2077C70.4725 21.2077 70.4725 21.1069 70.4725 21.051C70.4725 9.65807 61.1865 0.42511 49.7281 0.42511C38.281 0.42511 28.9949 9.65807 28.9837 21.051C28.9837 25.5723 30.4469 29.7468 32.9345 33.149C29.5127 30.6645 25.2918 29.2096 20.7444 29.1984C9.28602 29.1984 0 38.4313 0 49.8243C0 61.2172 9.28602 70.4501 20.7444 70.4501C20.812 70.4501 20.8795 70.4501 20.947 70.4501H70.4725V21.2077Z" fill="#F1F1F1"/>
<path d="M75.065 123.957C75.065 123.957 75.065 124.068 75.065 124.113C75.065 135.495 84.351 144.728 95.7981 144.739C107.257 144.739 116.543 135.506 116.531 124.113C116.531 119.592 115.068 115.417 112.581 112.015C116.002 114.5 120.212 115.966 124.771 115.966C136.218 115.966 145.504 106.733 145.504 95.3512C145.504 83.9582 136.218 74.7365 124.771 74.7365C124.703 74.7365 124.636 74.7365 124.568 74.7365H75.0425V123.968L75.065 123.957Z" fill="#F1F1F1"/>
<path d="M70.8779 74.244L70.8779 123.117C70.8779 123.117 70.8779 123.117 70.8779 123.296C70.8779 129.026 68.638 134.409 64.5634 138.461C60.4888 142.512 55.0748 144.739 49.3118 144.739C43.3688 144.739 37.9772 142.333 34.0715 138.449C30.1657 134.566 27.7457 129.205 27.7457 123.296C27.7457 120.644 28.286 118.081 29.2202 115.664C26.789 116.581 24.2227 117.119 21.5663 117.119C15.8033 117.119 10.3893 114.891 6.31467 110.84C2.24007 106.789 0.000186894 101.406 0.000187394 95.6869C0.000187894 89.968 2.24007 84.5737 6.31467 80.5224C10.3893 76.4711 15.8033 74.244 21.7126 74.244L70.8554 74.244L70.8779 74.244Z" fill="#F1F1F1"/>
</svg>
