<svg width="146" height="145" viewBox="0 0 146 145" fill="none" xmlns="http://www.w3.org/2000/svg">
<path d="M75.1221 70.6254V21.7523C75.1221 21.7523 75.1221 21.7523 75.1221 21.5732C75.1221 15.8432 77.362 10.4601 81.4366 6.40878C85.5112 2.35747 90.9252 0.130371 96.6882 0.130371C102.631 0.130371 108.023 2.53654 111.929 6.41998C115.834 10.3034 118.254 15.6641 118.254 21.5732C118.254 24.2256 117.714 26.7884 116.78 29.2058C119.211 28.2881 121.777 27.7509 124.434 27.7509C130.197 27.7509 135.611 29.978 139.685 34.0293C143.76 38.0806 146 43.4637 146 49.1826C146 54.9014 143.76 60.2957 139.685 64.347C135.611 68.3983 130.197 70.6254 124.287 70.6254H75.1446H75.1221Z" fill="white"/>
<path d="M70.8895 21.338C70.8895 21.338 70.8895 21.2373 70.8895 21.1814C70.8895 9.78844 61.6035 0.555481 50.1451 0.555481C38.6979 0.555481 29.4119 9.78844 29.4007 21.1814C29.4007 25.7027 30.8639 29.8771 33.3515 33.2793C29.9297 30.7948 25.7088 29.3399 21.1614 29.3288C9.70302 29.3288 0.416992 38.5617 0.416992 49.9546C0.416992 61.3475 9.70302 70.5805 21.1614 70.5805C21.229 70.5805 21.2965 70.5805 21.364 70.5805H70.8895V21.338Z" fill="white"/>
<path d="M75.482 124.087C75.482 124.087 75.482 124.199 75.482 124.244C75.482 135.625 84.768 144.858 96.2151 144.869C107.674 144.869 116.96 135.637 116.948 124.244C116.948 119.722 115.485 115.548 112.998 112.146C116.419 114.63 120.629 116.096 125.188 116.096C136.635 116.096 145.921 106.863 145.921 95.4815C145.921 84.0886 136.635 74.8669 125.188 74.8669C125.12 74.8669 125.053 74.8669 124.985 74.8669H75.4595V124.098L75.482 124.087Z" fill="white"/>
<path d="M71.2949 74.3744L71.2949 123.248C71.2949 123.248 71.2949 123.248 71.2949 123.427C71.2949 129.157 69.055 134.54 64.9804 138.591C60.9058 142.642 55.4918 144.869 49.7288 144.869C43.7858 144.869 38.3942 142.463 34.4885 138.58C30.5827 134.696 28.1627 129.336 28.1627 123.427C28.1627 120.774 28.703 118.211 29.6372 115.794C27.206 116.712 24.6397 117.249 21.9833 117.249C16.2203 117.249 10.8063 115.022 6.73166 110.97C2.65706 106.919 0.417179 101.536 0.41718 95.8172C0.41718 90.0984 2.65706 84.7041 6.73166 80.6528C10.8063 76.6015 16.2203 74.3744 22.1296 74.3744L71.2724 74.3744L71.2949 74.3744Z" fill="white"/>
</svg>
