<svg xmlns="http://www.w3.org/2000/svg" width="1920" height="499" fill="none"><path fill="#FCEBE9" d="M199.45 464h31.867s5.14-109.672 5.364-111.68c0 0-.055-33.006 3.789-68.099 4.274-39.017 7.084-63.897 7.233-64.046.144-.142 22.008-2.793 53.036-6.431 29.035-3.403 53.17-6.266 53.634-6.361.754-.153.787-.185.316-.299-.29-.07-25.177-.886-55.305-1.812-47.663-1.467-54.81-1.728-55.015-2.011-.13-.179-.827-3.175-1.549-6.659a737.017 737.017 0 0 0-1.585-7.509c-.238-1.031-4.417-7.257-34.274-51.064-36.904-54.147-34.81-51.094-34.946-50.958-.105.106-.6-.867 34.871 68.446 14.065 27.482 25.572 50.154 25.572 50.381 0 .228-10.682 32.348-23.738 71.377-13.055 39.029-23.864 71.376-24.019 71.881-.189.616-.206.893-.052.841.126-.043 10.443-21.046 22.925-46.674 12.482-25.629 22.864-46.919 23.07-47.312.221-.422.452-.637.564-.524.112.113-2.652 20.611-6.762 50.15a35823.709 35823.709 0 0 0-6.949 50.208L199.45 464ZM1848.05 440h-37.09s-5.98-127.999-6.24-130.343c0 0 .06-38.522-4.41-79.478-4.98-45.538-8.25-74.576-8.42-74.749-.17-.166-25.62-3.26-61.73-7.506-33.8-3.972-61.89-7.313-62.43-7.423-.88-.18-.92-.217-.37-.35.34-.082 29.31-1.034 64.37-2.115 55.48-1.711 63.8-2.016 64.04-2.346.15-.209.96-3.707 1.8-7.773.84-4.066 1.67-8.009 1.84-8.763.28-1.204 5.15-8.471 39.9-59.598 42.95-63.195 40.51-59.632 40.67-59.473.12.124.7-1.012-40.59 79.884-16.37 32.074-29.76 58.534-29.76 58.8 0 .266 12.43 37.753 27.63 83.305 15.2 45.551 27.78 83.303 27.96 83.892.22.719.24 1.042.06.982-.15-.05-12.16-24.563-26.69-54.474-14.52-29.911-26.61-54.759-26.85-55.218-.26-.493-.52-.743-.65-.611s3.08 24.055 7.87 58.53c4.45 32.069 8.08 58.598 8.08 58.598L1848.05 440ZM128.75 488h-23.509s-3.791-80.872-3.957-82.353c0 0 .041-24.339-2.795-50.216-3.153-28.772-5.226-47.118-5.336-47.227-.106-.105-16.235-2.06-39.124-4.743-21.42-2.51-39.224-4.62-39.566-4.69-.557-.114-.581-.137-.233-.221.213-.052 18.573-.653 40.798-1.336 35.161-1.082 40.433-1.274 40.585-1.483.096-.132.61-2.342 1.143-4.911.533-2.569 1.059-5.06 1.169-5.537.175-.76 3.258-5.351 25.284-37.654 27.224-39.928 25.68-37.677 25.78-37.576.077.078.443-.64-25.725 50.471-10.375 20.266-18.864 36.984-18.864 37.152 0 .168 7.88 23.853 17.511 52.633 9.632 28.78 17.605 52.632 17.72 53.005.139.454.152.658.038.62-.093-.031-7.704-15.519-16.912-34.418-9.208-18.898-16.867-34.597-17.019-34.887-.163-.312-.333-.47-.416-.386-.082.083 1.957 15.198 4.988 36.98 2.821 20.262 5.127 37.023 5.127 37.023L128.75 488Z"/><path fill="#FCEBE9" d="M1664.85 350h24.21s3.9-83.49 4.07-85.019c0 0-.04-25.127 2.88-51.842 3.24-29.703 5.38-48.643 5.49-48.756.11-.109 16.72-2.127 40.29-4.896 22.05-2.591 40.38-4.77 40.73-4.842.58-.117.6-.141.24-.228-.22-.054-19.12-.675-42-1.38-36.21-1.116-41.64-1.315-41.79-1.53-.1-.137-.63-2.418-1.18-5.07-.55-2.652-1.09-5.225-1.2-5.716-.18-.786-3.36-5.525-26.03-38.874-28.04-41.22-26.45-38.896-26.55-38.793-.08.08-.45-.66 26.49 52.106 10.68 20.921 19.42 38.181 19.42 38.354 0 .174-8.11 24.625-18.03 54.337-9.92 29.712-18.13 54.337-18.24 54.721-.15.469-.16.68-.04.641.09-.033 7.93-16.022 17.41-35.532 9.48-19.511 17.37-35.718 17.52-36.018.17-.321.35-.484.43-.398.09.086-2.01 15.691-5.13 38.177-2.91 20.918-5.28 38.222-5.28 38.222L1664.85 350ZM1259.01 240.707l5.18.836 35.59-5.154 115.68 18.665 5.84.942 4.68-28.985 8.63 1.393 2.56-4.888-4.35-6.001-15.54-2.508-6.58-46.999-51.8-8.357-20.15 47.986-25 1.266 1.66-10.332-3.45-.557 5.56-34.439 4.01-2.887-2.9-4.001-8.02 5.774-6.9-1.115-5.56 34.439-3.45-.557-1.67 10.332-13.81-2.229-1.12 6.888-8.63-1.393-3.33 20.663-5.18-.836-1.95 12.054Z"/><path fill="#FCEBE9" stroke="#fff" stroke-width="5" d="M1410.69 242.665c-2.84 17.629-19.54 29.627-37.33 26.757-17.79-2.87-29.87-19.512-27.03-37.142 2.85-17.63 19.55-29.628 37.34-26.758 17.79 2.871 29.87 19.513 27.02 37.143ZM1307.94 241.966c-1.46 9.098-10.03 15.283-19.13 13.815-9.09-1.468-15.28-10.033-13.81-19.131 1.47-9.098 10.03-15.283 19.13-13.815 9.1 1.467 15.28 10.033 13.81 19.131Z"/><path fill="#FCEBE9" d="M583.291 352.433C416.081 426.694 124.759 481.086 0 499h1920C1506.84 117.927 792.304 259.608 583.291 352.433Z"/></svg>