<svg xmlns="http://www.w3.org/2000/svg" data-name="Calque 2" viewBox="0 0 1920 153.3"><path d="M1919 87.48c-50.08-7.46-113.79-15.83-186.49-24.04-132.49 8.6-290.44 21.21-397.49 36.42-72.21 10.26-204.69 22.39-364.18 28.84 299.49 29.52 685.79 45.87 949.16-30.9V87.59l-.42-.05-.58-.06Z" style="fill:#eef5da"/><path d="M0 34v18.99c270.21 79.75 668.94 87.91 970.84 75.71-170.09-16.77-312.19-37.78-387.85-48.4C415.86 56.84 124.69 39.66 0 34Z" style="fill:#dcebb5"/><path d="M0 34c124.69 5.66 415.86 22.84 582.99 46.3 75.67 10.62 217.76 31.64 387.85 48.4 159.49-6.45 291.96-18.57 364.18-28.84 107.05-15.21 265-27.82 397.49-36.42C1451.25 31.7 1035.39 2.53 753.25 38.9 597.63 58.97 315.92 53.8 0 0v34Z" style="fill:#d2e59e"/></svg>