<?xml version="1.0" encoding="UTF-8"?>
<svg id="Calque_2" data-name="Calque 2" xmlns="http://www.w3.org/2000/svg" viewBox="0 0 456.04 550.43">
  <defs>
    <style>
      .cls-1 {
        fill: #f9c800;
      }

      .cls-2 {
        fill: none;
        stroke: #f9c800;
      }
    </style>
  </defs>
  <g id="Calque_1-2" data-name="Calque 1">
    <g>
      <path class="cls-1" d="m277.33,87.64s3.57-50.43,11.07-60.62c0,0,20.2-30.6,62.89-26.06,0,0,43.28-.57,36.93,26.63l30.01,2.35s57.12,2.18,30.01,33.34l-19.62,17,8.66-17s12.12-16.12-20.2-19.68h-43.86s17.89-44.35-51.93-24.52c0,0-17.31,1.13-21.93,28.9,0,0-15.58,66.29-15.58,154.67l-6.45-49.86s.11,62.89-41.44,112.18c0,0,9.81,6.8,3.46,25.49,0,0-1.15,37.39-27.12,61.76,0,0,11.54-52.69,10.96-72.52,0,0-23.08,28.89-22.5,30.6,0,0,12.12,24.36-31.74,46.46,0,0-54.24,89.52-64.63,104.82,0,0,16.16-56.66,77.9-146.74,0,0-4.62-5.1-10.39-4.53l6.93-19.83s25.96-12.46,41.54-37.39l3.46,1.7s33.47-50.67,34.05-94.04l-17.31,9.06s-12.69-76.49-27.12-76.49c0,0-1.73-10.6-53.09,63.46,0,0-145.41,234-159.83,268.56,0,0,81.36-202.83,182.92-341.08,0,0,41.54-64.59,68.67.57,0,0,8.65,27.22,13.85,75.93,0,0,11.44-12.47,11.44-73.1"/>
      <path class="cls-2" d="m277.33,87.64s3.57-50.43,11.07-60.62c0,0,20.2-30.6,62.89-26.06,0,0,43.28-.57,36.93,26.63l30.01,2.35s57.12,2.18,30.01,33.34l-19.62,17,8.66-17s12.12-16.12-20.2-19.68h-43.86s17.89-44.35-51.93-24.52c0,0-17.31,1.13-21.93,28.9,0,0-15.58,66.29-15.58,154.67l-6.45-49.86s.11,62.89-41.44,112.18c0,0,9.81,6.8,3.46,25.49,0,0-1.15,37.39-27.12,61.76,0,0,11.54-52.69,10.96-72.52,0,0-23.08,28.89-22.5,30.6,0,0,12.12,24.36-31.74,46.46,0,0-54.24,89.52-64.63,104.82,0,0,16.16-56.66,77.9-146.74,0,0-4.62-5.1-10.39-4.53l6.93-19.83s25.96-12.46,41.54-37.39l3.46,1.7s33.47-50.67,34.05-94.04l-17.31,9.06s-12.69-76.49-27.12-76.49c0,0-1.73-10.6-53.09,63.46,0,0-145.41,234-159.83,268.56,0,0,81.36-202.83,182.92-341.08,0,0,41.54-64.59,68.67.57,0,0,8.65,27.22,13.85,75.93,0,0,11.44-12.47,11.44-73.1v-.02Z"/>
      <path class="cls-1" d="m188.58,167.87l4.02,17.36S47.77,408.93,33.4,432.08c0,0,87.36-176.7,155.17-264.21"/>
      <path class="cls-2" d="m188.58,167.87l4.02,17.36S47.77,408.93,33.4,432.08c0,0,87.36-176.7,155.17-264.21h0Z"/>
      <path class="cls-1" d="m205.93,212.17l4.59,15.79s-134.92,211.48-141.24,218.81c0,0,20.67-62.04,136.64-234.61"/>
      <path class="cls-2" d="m205.93,212.17l4.59,15.79s-134.92,211.48-141.24,218.81c0,0,20.67-62.04,136.64-234.61h.01Z"/>
      <path class="cls-1" d="m352.18,74.13l74.27-7.35s-50.85,16.96-56.56,17.52c0,0-5.14,54.82,30.28,54.82,0,0,66.84-5.28,33.71,69.42,0,0-3.38,19.88-111.41,123.31,0,0-10.28.57,62.84,7.35l-83.41,11.3s113.69-135.65,112.55-141.86c0,0,32.57-58.78-26.28-55.95,0,0-43.99,2.26-35.99-78.56"/>
      <path class="cls-2" d="m352.18,74.13l74.27-7.35s-50.85,16.96-56.56,17.52c0,0-5.14,54.82,30.28,54.82,0,0,66.84-5.28,33.71,69.42,0,0-3.38,19.88-111.41,123.31,0,0-10.28.57,62.84,7.35l-83.41,11.3s113.69-135.65,112.55-141.86c0,0,32.57-58.78-26.28-55.95,0,0-43.99,2.26-35.99-78.56h0Z"/>
      <path class="cls-1" d="m308.7,375.91v14.21s69.23-35.14,68.66-36.97l3.4,8,7.94-16.4-80.01,31.16h.01Z"/>
      <path class="cls-2" d="m308.7,375.91v14.21s69.23-35.14,68.66-36.97l3.4,8,7.94-16.4-80.01,31.16h.01Z"/>
      <path class="cls-1" d="m392.91,321.94l22.95-7,6.36-10.64,11.75,7.68s-8.29-41.87-41.06,9.96"/>
      <path class="cls-2" d="m392.91,321.94l22.95-7,6.36-10.64,11.75,7.68s-8.29-41.87-41.06,9.96h0Z"/>
      <path class="cls-1" d="m406.64,329.65s15.13,6.37,16.97,8.18c.41.41,11.31-4.19,11.31-4.19,0,0-.66,12.51-.14,12.51,0,0,34.07-42.8-28.14-16.49"/>
      <path class="cls-2" d="m406.64,329.65s15.13,6.37,16.97,8.18c.41.41,11.31-4.19,11.31-4.19,0,0-.66,12.51-.14,12.51,0,0,34.07-42.8-28.14-16.49h0Z"/>
      <path class="cls-1" d="m399.28,331.5l-10.01,27.59s19.88,7.69,21.01,7.69l-10.57,17.14s56.81-23.98-.42-52.42"/>
      <path class="cls-2" d="m399.28,331.5l-10.01,27.59s19.88,7.69,21.01,7.69l-10.57,17.14s56.81-23.98-.42-52.42h0Z"/>
      <path class="cls-1" d="m177.12,510.13s74.24-135.64,74.24-134.24-.57-1.01-.57-1.01l13.47,76.87,29.24-62.89,25.8,91.93-30.1-38.17-4.87,49.45-17.77-22-18.3,26.79-6.63-76.42-46.79,77.55s-4.63,3.44,5,2.2l-9.06,13.42-13.64-3.5-.02.02Z"/>
      <path class="cls-2" d="m177.12,510.13s74.24-135.64,74.24-134.24-.57-1.01-.57-1.01l13.47,76.87,29.24-62.89,25.8,91.93-30.1-38.17-4.87,49.45-17.77-22-18.3,26.79-6.63-76.42-46.79,77.55s-4.63,3.44,5,2.2l-9.06,13.42-13.64-3.5-.02.02Z"/>
      <path class="cls-1" d="m212.9,372.12l-43.16,138.05-14.76.3,3.12-18.65s6.82.85,6.67-4.94l48.12-114.76h.01Z"/>
      <path class="cls-2" d="m212.9,372.12l-43.16,138.05-14.76.3,3.12-18.65s6.82.85,6.67-4.94l48.12-114.76h.01Z"/>
      <path class="cls-1" d="m208.8,501.91l-9.54,12.59,13.55,6.02-11.75,10.4s53.37-16.14,7.74-29"/>
      <path class="cls-2" d="m208.8,501.91l-9.54,12.59,13.55,6.02-11.75,10.4s53.37-16.14,7.74-29h0Z"/>
      <path class="cls-1" d="m156.51,531.86l16.28-12.44s35.95,31.44-20.81,30.49l15.57-6.97-11.04-11.07h0Z"/>
      <path class="cls-2" d="m156.51,531.86l16.28-12.44s35.95,31.44-20.81,30.49l15.57-6.97-11.04-11.07h0Z"/>
      <path class="cls-1" d="m147.71,493.81l-3.36,17.54-20.01.18s-.16,11.47,0,12.16,0,.68,0,.68c0,0-33.7-25.21,23.37-30.56"/>
      <path class="cls-2" d="m147.71,493.81l-3.36,17.54-20.01.18s-.16,11.47,0,12.16,0,.68,0,.68c0,0-33.7-25.21,23.37-30.56h0Z"/>
      <path class="cls-1" d="m351.81,9.9s-12.79,12.17-.61,21.17c0,0,15.41,8.28,21.56-10.54"/>
      <path class="cls-2" d="m351.81,14.14s-12.79,9.95-.61,17.31c0,0,15.41,6.77,21.56-8.62"/>
    </g>
  </g>
</svg>