<?xml version="1.0" encoding="UTF-8"?>
<svg id="Calque_2" data-name="Calque 2" xmlns="http://www.w3.org/2000/svg" viewBox="0 0 836.76 525.39">
  <defs>
    <style>
      .cls-1 {
        fill: #fff;
      }
    </style>
  </defs>
  <g id="Calque_3" data-name="Calque 3">
    <g>
      <path class="cls-1" d="m491.96,152.82h0s0,0,0,0c4.56-8.9,6.26-18.62,7.97-28.32,1.33-7.51,2.24-15.09,2.68-23.19-1.69.72-2.83,1.04-3.41,2.27h0c-4.32,2.51-8.03,5.82-11.88,8.95-.08.04-.16.1-.24.2,0,0,0,0,0,0-.69.42-1.35.9-2.07,1.24-1.43.68-2.87,1.93-4.53.79-1.65-1.14-1.04-2.96-.86-4.51.39-3.46,2.08-6.39,3.97-9.25,3.39-5.14,4.13-4-1.49-8.68,0,0,0,0,0,0h0c.08-.79-.52-1.16-.96-1.66-3.57-4.15-8.38-6.04-13.46-7.44h0s0,0,0,0c-13.73-3.66-27.24-3.57-40.42,2.31-2.72.85-4.98,2.56-7.39,4-1.25.75-1.47,1.3-.12,2.29,5.85,4.31,7.09,10.07,5.09,16.79-5.55,7.84-10.03,9.35-19.25,6.45-3.38-3.19-6.68-6.43-6.78-11.65-2.79.81-4.86,2.05-6.83,3.49-3.45,1.67-6.91,3.35-10.36,5.02-2.05.53-3.95,1.4-5.71,2.6h0c-4.79,1.82-9.49,3.84-13.95,6.37-7.13,2.96-14.26,5.92-21.39,8.87,0,0,0,0,0,0,0,0,0,0,0,0-2.66,1.16-6.43.82-7.15,4.69-.64,3.41-.87,6.89.59,10.23.15-.07.27-.18.38-.28,0,.03,0,.06.01.09,0,0,0,0,0,0-.13.07-.26.13-.39.19.88,4.12,2.73,7.7,5.85,10.58.25.27.51.54.76.81,1.15,1.91,2.8,3.23,4.86,4.05,9.24,6.01,19.62,8.82,30.32,10.76h0s0,0,0,0c0,0,0,0,0,0,0,0,0,0,0,0,3.42,1.45,7.14,1.55,10.71,2.33.26.26.53.53.79.79h0s0,0,0,0c-4,1.27-8.18,1.18-12.29,1.56-8.54.79-16.95-1.02-25.43-1.48,0,0,0,0,0,0,0,0,0,0,0,0-6.13-.94-11.47-3.88-16.86-6.69-10.72-8.12-16.28-18.88-16.74-32.34-.09-2.6.33-4.8,2.11-6.7,6.97-4.65,14.54-8.25,21.8-12.4,10.03-4.47,19.93-9.17,29.45-14.67,2.55-.37,4.6-1.78,6.66-3.18,0,0,0,0,0,0,1.59-.35,2.81-1.35,4.02-2.36h0s0,0,0,0c2.1-.69,3.98-1.88,5.37-3.51,5.24-6.14,11.78-10.68,18.33-15.22,0,0,0,0,0,0,0,0,0,0,0,0,9.61-4.91,19.64-8.52,30.3-10.46,7.27-1.32,14.63-1.09,21.92-1.92,11.63.73,23.01,2.43,33.42,8.15,1.66,1.72,3.65,2.98,5.71,4.15.28.24.55.48.83.73h0c3.06,2.85,5.26,7.96,11.24,3.99-3.64-3.13-6.33-7.06-10.32-9.66h0s0,0,0,0c-8.47-9.5-17.64-18.32-26.87-27.06-4.69-5.11-9.32-10.29-14.83-14.57,0,0,0,0,0,0,0,0,0,0,0,0-.3-.31-.6-.62-.9-.93,0,0,0,0,0,0-5.13-6.27-11.14-11.69-17-17.26-3.6-3.69-7.24-7.35-10.76-11.1-1.34-1.43-2.26-1.37-3.62.03-6.33,6.55-12.75,13-19.14,19.49h0c-7.34,6.73-14.37,13.75-21.08,21.11,0,0,0,0,0,0-11.84,11.36-23.55,22.85-34.73,34.85,0,0,0,0,0,0h0c-4.36,3.59-8.23,7.68-12,11.86h0c-1.27.79-2.36,1.75-3.06,3.09h0c-.88.85-1.76,1.71-2.64,2.56-1.38.77-2.44,1.87-3.23,3.23h0s-.03.03-.03.03c0,0,0,0,0,0h0c-3.31,2.66-6.26,5.67-8.96,8.94h0s0,0,0,0c-1.37,1.38-2.75,2.77-4.12,4.15-9.83,9.24-19.33,18.81-28.64,28.57-.07,0-.14.09-.21.24-1.55,1.68-4.71,2.21-3.96,5.54,0,0,0,0,0,0,0,0,0,0,0,0,.9,1.26,1.85,2.45,3.29,3.14,0,0,0,0,0,0h0c6.37,6.69,12.8,13.33,19.66,19.54h0s0,0,0,0c1.64,2.2,3.64,4.03,5.8,5.69,5.62,6.34,11.65,12.27,17.9,17.98.73,1.45,1.95,2.42,3.19,3.39.01.48.26.73.74.74,0,0,0,0,0,0,1.41,1.34,2.82,2.68,4.23,4.02,0,0,0,0,0,0q5.01,5.74,11.26,1.92c.92-.56,1.75-1.25,2.63-1.88h0c4.88-2.79,9.77-5.58,14.65-8.36.1-.08.21-.16.32-.23-.11.08-.21.15-.32.23.82.38,1.78-.9,2.53.21,0,0,0,0,0,0-1.74,1.58-3.48,3.16-5.22,4.74-4.81,3.77-9.5,7.67-13.65,12.18-1.86.86-1.97,1.89-.47,3.31,2.92,2.77,5.76,5.63,8.63,8.46,2.72,2.73,5.45,5.46,8.17,8.18h0s0,0,0,0c.35.72.78,1.34,1.62,1.53,0,0,0,0,0,0,7.01,7.13,13.83,14.46,21.33,21.1,1.33,1.94,2.98,3.57,4.88,4.95,2.71,2.77,5.42,5.55,8.13,8.32,0,0,0,0,0,0,1.37,1.87,3.12,3.35,4.95,4.74,2.41,3.06,5.16,5.77,8.19,8.22,0,0,0,0,0,0,.25.26.5.52.76.78.5,1.17,1.46,1.91,2.44,2.64,0,0,0,0,0,0,.61.48,1.21.95,1.82,1.43,1.1,2.31,3.31,3.63,4.92,5.48,1.1,1.26,1.99.94,2.62-.5,0,0,0,0,0,0,0,0,0,0,0,0,2.38-2.36,4.76-4.72,7.13-7.08,0,0,0,0,0,0,0,0,0,0,0,0,1.68-1.17,3.09-2.61,4.22-4.32h0c3.49-2.93,6.69-6.16,9.7-9.58h0s0,0,0,0c3.27-3.28,6.54-6.56,9.8-9.83,0,0,0,0,0,0h0c1.67-1.56,3.23-3.27,5.04-4.65,2.71-2.07,2.79-4.22,1.61-7.34-3.96-10.5-7.65-21.1-11.21-31.74-1.03-3.09-2.12-3.82-4.56-1.46h0s0,0,0,0c-3.84,1.47-7.51,3.26-10.91,5.58,0,0,0,0,0,0-6.57,3.07-13.11,6.22-19.32,9.99-.05,0-.1.02-.15.07-3.5,1.59-7,3.18-10.51,4.78-.29-.32-.57-.64-.86-.96,1.39-1.31,2.78-2.61,4.17-3.92,4.54-3.33,9.23-6.46,13.11-10.61,0,0,0,0,0,0h0c.26-.26.53-.52.79-.78h0s0,0,0,0c3.53-1.8,6.24-4.62,9.04-7.34,0,0,0,.01,0,.02,3.4-2,6.19-4.76,9.11-7.36,1.85-1.66,3.71-3.31,5.56-4.97,0,0,0,0,0,0,0,0,0,0,0,0,3.32-2.67,6.98-5.02,9.86-8.09,2.28-2.43,3.74-1.86,5.63-.06,1.57,2.46,3.14,3.06,4.9.12.53-.88,1.68-1.34,1.8-2.53,0,0,0,0,0,0,5.92-6.25,11.24-12.95,15.36-20.54,2.46-2.19,3.82-5.07,5.02-8.05.88-.9,1.35-2,1.58-3.22Zm-9.03-58.08s0,0,0,0c.05.06.08.14.12.2-.07.09-.14.15-.21.21.03-.12.07-.25.09-.41h0Zm-3.25-2.51s.02.03.02.04c-.02,0-.04,0-.05,0,0-.01.02-.02.03-.03Zm-130.77,35.22s0,0,0,0c0,0,0,0,0,0,0,0,0,0,0,0,0,0,0,0,0,0Zm48.27-90.64s-.05,0-.07-.02c.02,0,.03-.02.05-.02,0,.01.02.03.03.04Zm-.07-.02s0,.02,0,.03c0,0-.02-.01-.02-.02,0,0,.01,0,.02,0Zm46.56-16.32s-.04,0-.06.01c-.03,0-.06.01-.09,0,.02-.02.05-.04.08-.07.03.02.05.03.08.05Zm-99.74,91.48s0-.03,0-.04h.06s-.04.03-.06.04Zm127.53-58.94s0,0,0,0c0,0,0,0,0,.01,0,0,0,0,0,0Zm-95.6,63.02s0,0,0-.01c0,0,.01,0,.02,0,0,0,0,.01,0,.02Zm15.56,57.99s-.02,0-.03-.01c.03-.02.06-.03.09-.05-.02.03-.04.04-.07.06Zm13.88,89.74s-.02,0-.03-.01c0-.01,0-.02,0-.03.02,0,.03.02.05.02,0,0-.02.01-.02.02Zm47.38-44.03s.01,0,.02-.01h0s-.01.02-.02.02h0Zm-9.83,47.89s.03.03.05.04c-.02,0-.04,0-.06,0,0-.01,0-.03.01-.04Zm-14.71-44.68s0,0,0,0c0,0,0,.01.01.02,0,.01,0,.02,0,.04-.01-.02-.03-.04-.05-.05.01,0,.03,0,.04,0Zm9.01-20.4h0s0,.01,0,.02c0,0-.02-.01-.02-.02.01,0,.02,0,.03,0,0,0,0,0,0,0v-.02s.03,0,.05,0c-.02,0-.03.02-.05.02Zm15.52-13.89h0s-.05.08-.08.12c0-.03-.02-.06-.03-.09.03-.01.07-.02.1-.04,0,0,0,0,0,0-.03-.03-.06-.06-.09-.09.04.02.09.04.13.07-.01,0-.02.01-.04.02Zm25.35-80s0-.01,0-.02c0,0,0,0,0,0,0,0,0,0,0,.01Z"/>
      <path class="cls-1" d="m567.96,142.49c-3.31-3.1-6.15-6.7-9.84-9.4-3.42-4.17-7.3-7.9-11.36-11.44-2.5-2.98-5.16-5.8-8.26-8.17-1.38-1.9-2.98-3.57-4.92-4.91,0,0,0,0,0,0,0,0,0,0,0,0-.88-1.02-1.7-2.09-2.65-3.04q-5.09-5.07-7.95,1.63c-1.87,2.81-3.39,5.95-5.68,8.36-3.23,3.39-4.03,7.17-3.44,11.53,0,0,0,0,0,0h0s0,0,0,0c-.14.52-.34,1.06-.17,1.5-.37,3.16-.74,6.33-1.1,9.49-.33,1.89-.65,3.79-.98,5.68h0c-.08.45-.16.91-.24,1.36-2.27,8.24-5.15,16.26-8.88,23.96-.81,1.34-1.62,2.68-2.44,4.02-3.02,4.02-6.04,8.04-9.06,12.05-1.55,2.19-5.31,3.08-4.03,6.91,1.09,6.08,2.17,12.17,4.02,18.08.18,3.2.97,6.26,1.85,9.38,1.71-.42,2.56-1.58,3.34-2.82,11.93-11.46,23.64-23.14,35.1-35.07,1.12-.63,2-1.5,2.6-2.64h0c5.95-5.48,11.76-11.1,17.12-17.17,5.7-5.13,11.27-10.38,16.12-16.35,2.04-.48,2.47-1.47.87-2.97Zm-53.18-13.44s0,0,0,0c0,0,0,0,0,0-.02,0-.03-.02-.04-.03.02-.01.04-.03.05-.04,0,.02,0,.05,0,.07Z"/>
    </g>
    <path class="cls-1" d="m722.9,299.25c-.15-.07-.28-.16-.42-.24-.07-.69-.7-1.22-.9-1.88-3.77-4.4-7.88-8.45-12.35-12.14-1.86-3.02-4.5-5.28-7.28-7.39-1.03-1.51-2.02-3.06-4.02-3.44h0c-.73-2.64-3.07-3.86-4.9-5.53-.84-1.38-1.9-2.54-3.3-3.38-7.72-7.82-15.39-15.68-23.17-23.44-12.4-12.35-24.88-24.63-37.32-36.94-7.33-7.9-14.95-15.51-22.87-22.83-5.37-5.49-10.51-11.22-16.31-16.29-7.47-8.02-4.43-7.08-11.41-.4-.09.09-.11.24-.17.37-.05,0-.09.04-.13.11-2.92,2.48-5.75,5.04-8.11,8.08-8.7,8.66-17.41,17.33-26.11,25.99-2.74,2.75-5.47,5.49-8.21,8.24-2.14,1.69-4.06,3.59-5.66,5.8h0c-2.72,2.15-5.11,4.62-7.34,7.26l-18.8,18.79h0c-1.66,1.07-2.88,2.57-4.08,4.1-1.13.53-1.92,1.44-2.59,2.46h0c-3.77,3.81-7.54,7.62-11.31,11.43-1.06.58-1.87,1.4-2.42,2.48-5.75,5.17-11.23,10.61-16.38,16.37-2.94,2.49-5.77,5.08-8.14,8.13-3.79,3.31-7.41,6.8-10.67,10.64-2.44,2.34-4.91,4.66-7.3,7.05-.56.57-1.84,1.06-.88,2.26.59.74,1.39.79,2.21.46,7.37-2.99,14.08-.57,20.7,2.55,1.62,1.14,3.24,2.27,4.86,3.41h0c4.68,4.36,7.7,9.85,10.55,15.46,3.02,6.77,4.93,13.88,6.4,21.12.27,1.32.39,2.7,1.88,3.31,0,0,0,0,0,0,0,0,0,0,0,0,6.32,6.02,12.64,12.04,18.95,18.05v-17.24c.81-13.54,1.62-27.08,2.43-40.61,0,0,0,0,0,0h0c.54-3.33,1.02-6.66,1.62-9.98,2.28-12.61,3.52-25.58,12.33-35.96,11.41-11.62,25.48-18.09,41.29-21.03,10.97-2.04,21.86-.67,32.68,1.46,1.38.53,2.77,1.06,4.15,1.58,11.18,4.23,17.52,12.49,16.78,22.76-.26,3.63,1.4,4.2,4.09,4.3,11.11.4,22.21.96,33.25,2.33,6.94,1.63,13.86,3.33,20.28,6.55,2.19,1.96,4.38,3.91,6.57,5.87,2.79,5.46,1.9,10.61-.9,15.85-2.51,4.71-6.57,8.17-9.42,12.57,0,0,0,0,0,0,0,0,0,0,0,0-1.25.94-2.85,1.48-3.47,3.11,0,0,0,0,0,0h0c-2.21,1.93-4.42,3.86-6.63,5.79,0,0,0,0,0,0-2.33.65-3.3,3.99-6.34,3.22,0-.03-.01-.06-.01-.09,3.93-6.42,7.74-12.89,9.81-20.21h0c2.67-5.73,1.73-9.02-3.12-12.71-2.21-1.68-4.62-2.38-7.19-2.95-2.7-1.3-5.59-1.58-8.53-1.6-1.89-.97-3.97-.7-5.97-.85-11.93-.87-23.85.06-35.77.32-.51.01-1.11.14-1.68.2-.21-.02-.43,0-.65.02-.85-.05-1.55-.48-1.67-2.05-.18.54-.32.96-.38,1.28-.09-.31,0-.72.38-1.28.44-1.64.41-3.3.96-5,1.32-4.08,2.08-8.4,1.11-13.55-3.72,4.18-7.22,7.09-11.77,8.46-5.9,1.79-11.92.58-14.83-3.65-3.08-4.5-2.73-9.29.32-13.86.99-1.49.31-1.95-1.25-1.59-4.11-.48-8.19-.46-12.22.65h0s0,0,0,0c-6.53.54-12.52,2.55-17.78,6.55h0s0,0,0,0c-.58.27-1.16.55-1.73.82-2.72,1.23-4.86,3.16-6.69,5.47-1.4,1.07-2.26,2.5-2.71,4.19,0,0,0,0,0,0,0,0,0,0,0,0-2.73,7.63-4.37,15.52-5.49,23.53h0s0,0,0,0c-.17.36-.44.71-.51,1.09-4.72,25.42-7.49,51.09-9.7,76.84-.11,1.32.13,2.37,1.1,3.31,5.26,5.1,10.5,10.23,15.74,15.34,0,0,0,0,0,0h0c1.1,1.64,2.49,2.98,4.11,4.1h0c11.1,11.76,22.58,23.14,34.31,34.28,0,0,0,0,0,0h0c1.38,1.91,3.06,3.53,4.97,4.91h0s0,0,0,0c1.62,1.76,3.25,3.5,4.85,5.28,1.06,1.18,1.95,1.55,3.21.12,2.11-2.4,4.39-4.63,6.6-6.94.05,0,.1-.05.14-.13,5.4-4.91,10.58-10.03,15.46-15.45,3.32-3.2,6.75-6.29,9.92-9.64,1.89-2,5.96-3.99,5.03-6.2-1.31-3.13-5.53-1.19-8.51-1.43-1.57-.26-3.14-.53-4.71-.79-5.47-1.75-10.28-4.68-14.7-8.29,0,0,.02,0,.03,0,0,0,0,0,0,0-8.42-9.61-12.33-21.18-14.5-33.47-2.02-11.4-2.36-22.9-2-34.44.24-7.75.21-7.75,7.78-9.14.13-.02.24-.13.36-.19h0c2.7-.16,5.41-.24,8.1-.5,18.51-1.8,37.02-3.63,55.54-5.45,1.02.64,2.47-.34,3.33.88h0c-2.81,1.06-5.61,2.12-8.42,3.18-1.71.18-3.31.66-4.73,1.66v-.02c-4.22.92-8.28,2.33-12.23,4.07-4.3.85-8.39,2.32-12.36,4.14,0,0,0,0,0,0-1.86.59-3.71,1.18-5.57,1.77h0s0,0,0,0c-1.94.71-3.87,1.41-5.81,2.12,0,0,0,0,0,0,0,0,0,0,0,0-.92.2-1.83.45-2.76.58-3.86.55-5.09,2.52-4.31,6.44.81,4.1.84,8.35,1.38,12.51,1.15,8.84,2.16,17.74,6.55,25.77h0c1.46,3.81,3.78,6.92,7.33,9.05,2.85,2.36,6.25,2.97,9.79,3.02,5.4.08,10.78.21,16.06,1.47,1.5.36,2.98.48,3.73-1.34,4.36-3.83,8.45-7.94,12.32-12.27,0,0,0,0,0,0,4.04-3.56,7.86-7.33,11.38-11.41,0,0,0,0,0,0,0,0,0,0,0,0,0,0,0,0-.01,0,3.59-3.46,7.3-6.82,10.73-10.43,2.29-2.41,5.38-4.15,6.59-7.51l.32.03.24-.21c4.3-3.56,8.71-7.03,11.52-12.01.5-.12,1.16-.08,1.47-.4,4.71-4.74,9.37-9.53,14.05-14.31.04,0,.08-.03.11-.09,2.83-2.35,5.72-4.65,7.34-8.11,0,0,0,0,0,0l-.05.09c.29-.66,1.04-.94,1.33-1.6.83-.81.03-3.1,2.32-2.58,5.98-4.69,6.02-5.14.87-10.36Zm-119.89-118.73s-.04,0-.06,0c.01-.01.03-.03.04-.04,0,0,.02.02.03.03h0Zm56.33,117.49s.07.04.1.07h0s.07.01.11.02c-.03.02-.06.04-.09.05,0-.02-.01-.04-.02-.06,0,0,0,0,0,0-.04.02-.09.02-.14.03-.03-.01-.05-.02-.09-.04.05-.01.09-.03.13-.05Zm-46.67,112.4s.01,0,.02.01c-.03,0-.05,0-.08,0,.02,0,.04,0,.06,0Zm32.62-117.81c.09-.1.18-.21.27-.31,0,0,.06.33.06.33-.11,0-.23-.01-.34-.02Zm43.53-25.57s0,0,0,0c0,0,.02-.01.02-.02,0,0,0,0,0,0,0,0-.01,0-.02.01Z"/>
    <path class="cls-1" d="m333.57,459.47c-31.65.45-63.29.61-94.93-.17-1.83-.04-1.55,1-1.83,1.95,0,0,0,0,0,0,0,0,0,0,0,0-2.02,4.15-2.88,8.66-4.01,13.08,0,0,0,0,0,0-2.89,5.82-2.81,12.61-5.92,18.59-1.15-.78-2.13-1.44-3.11-2.1,0,0,0,0,0,0,0,0,0,0,0,0-5.91-8.93-11.85-17.85-17.72-26.82-1.26-1.92-2.58-3.39-5.14-3.34-4.62.1-9.24,0-13.87.05-1.47.02-3.15-.09-3.3,2.09-.13.25-.21.52-.24.78-1.22,3.9-2.44,7.81-3.66,11.71-1.85,1.74-1.61,4.12-1.92,6.33,0,0,0,0,0,0,0,0,0,0,0,0-2.5,4.98-3.47,10.45-4.82,15.78-1.7,6.76-4.09,13.36-4.76,20.36-.04.75-.09,1.49-.13,2.24,0,0,0,0,0,0-1.55,2.53-.92,3.74,2.12,3.7,4.08-.06,8.16-.18,12.23.03,2.86.15,4.16-1,4.8-3.69,1.19-5.01,2.58-9.98,3.97-14.94,1.47-5.29,3.03-10.55,4.79-16.65,2.81,3.82,5.03,6.83,7.25,9.85,3.38,6.93,8.69,12.62,12.36,19.36.99,5.24,3.39,7.38,8.29,7.38,4.21,0,8.42-.09,12.63.05,2.31.07,3.64-.96,4.17-3.03,1.54-6.01,3-12.05,4.49-18.07-.13-.1-.26-.2-.39-.3h0s0,0,0,0c.13.1.26.2.39.3,2.41-8.02,4.83-16.04,7.23-24.07.65-2.18,1.06-3.89,4.25-4.22,5.85-.61,11.67-.31,17.49-.33,4.51-.02,4.85.73,3.82,5.14-2.29,9.75-5.82,19.18-7.58,29.07-1.08,3.64-2.24,7.26-3.19,10.93-.58,2.24-.09,4.3,2.71,4.37,6.07.17,12.14.13,18.22.14,2.88,0,4.55-1,5.39-4.23,3.81-14.66,7.97-29.23,12.01-43.83,0,0,0,0,0,0,1.37-1.26,2.93-1.74,4.82-1.7,5.03.1,10.06.04,15.09.03,9.72,0,9.54-.07,12.96-9.1,2.14-5.64.69-6.8-4.94-6.72Zm.43,7.85s-.01-.02-.02-.03c.04-.08.08-.17.13-.25-.04.09-.08.19-.11.28Zm-154.22,11.11s-.04.06-.06.08c0,0,0,0,0,0,0,0,0,0,0,0,0,0,0,0,0,0,0,0,0,.01,0,.01,0,0,0,0,0,0h0s0,0,0,0c0-.06,0-.13,0-.19.02.03.04.07.06.1Zm60.54,39.37c0,.08-.01.15-.02.22-.02-.02-.03-.03-.05-.05.02-.06.05-.11.07-.18,0,0-.04-.01-.04-.01,0,0,0,0,0,0,.01-.02.02-.04.03-.06,0,.02,0,.05.01.07Z"/>
    <g>
      <path class="cls-1" d="m441.23,445.43c16.17.09,32.33.23,48.5.24,2.74,0,4.44-5.44,2.69-8.16-.76-.16-1.45-.2-2.01-.02-8.96-.1-17.93-.26-26.89-.2-2.68.02-3.28-.71-2.62-3.25,1.25-4.86,2.38-9.76,3.31-14.68.51-2.72,1.54-3.83,4.54-3.7,6.24.27,12.5.03,18.75.1,4,.04,2.96-3.3,3.41-5.3.67-3-2.02-1.87-3.28-1.88-6.78-.06-13.57.08-20.36.15l-.25-.09c.18-1.98.36-3.97.54-5.96h0s0,0,0,0h0s0,0,0,0c1.01-2.08,1.4-4.3,1.49-6.59h0c.54-2.2,1.09-4.4,1.63-6.6,8.53-1.15,17.1-.45,25.64-.4,4.17.02,5.92-.9,6.66-5.41.59-3.61-.54-3.28-2.88-2.86-9.81-.35-19.62-.37-29.44,0-1.65,0-3.31,0-4.96,0-1.6-.35-3.21-.35-4.81,0-2.51.33-5.39-1.65-7.49,1.21,0,0,0,0,0,0h0c-5.09,20.1-9.28,40.39-13.52,60.68"/>
      <path class="cls-1" d="m276.66,437.66s0,0,0,0c0,0,0,0,0,0-9.87-.76-19.74-.58-29.61-.09-.72-.37-1.45-.4-2.17,0,0,0,0,0,0,0h0c-.52-.21-1.04-.41-1.56-.62.08-.82.15-1.65.23-2.47h0s0,0,0,0c3.64-13.81,6.41-27.82,9.3-41.8.75-2.07,1.33-4.17,1.35-6.38q1.89-5.74-3.78-5.74c-3.79,0-7.59.1-11.37-.04-2.01-.07-2.89.64-3.27,2.62-1.1,5.7-2.37,11.37-3.57,17.06-3.14,12.94-6.13,25.91-8.47,39.02h0c-2.24,6.51-2.24,6.49,4.19,6.49,14.51-.01,29.02.02,43.53-.04,1.24,0,2.7.72,3.76-.61,0,0,0,0,0,0,0,0,0,0,0,0,.81-.93.98-2.04.91-3.21.13-1.4,1.49-2.64.53-4.18Z"/>
      <path class="cls-1" d="m217.73,437.14c-8.56.13-17.13-.16-25.68.15-3.72.14-4.85-1.02-4.05-4.46,1.5-4.97,2.67-10.02,3.29-15.18,1.29-3.53,2.15-7.15,2.47-10.9,0,0,0,0,0,0h0s0,0,0,0c0,0,0,0-.01.01h0s0,0,0,0c1.81-7.77,3.63-15.54,5.43-23.32.52-2.25-.68-2.92-2.66-2.89-4.75.08-9.49.14-14.24.21,0,0,0,0,0,0,0,0,0,0,0,0-.78-.21-1.53-.37-1.76.73,0,0,0,0,0,0,0,0,0,0,0,0-2.16,7.45-3.84,15.01-5.01,22.67h0,0c-1.97,7.21-3.64,14.48-4.83,21.86-1.3,5.39-2.48,10.82-3.96,16.16-.84,3.03.16,3.64,3.05,3.62,14.95-.12,29.9-.23,44.84.05,4.14.08,5.55-1.21,6.25-5.18.58-3.29-.39-3.58-3.13-3.54Z"/>
      <path class="cls-1" d="m339.62,380.57c-14.97.02-29.93.02-44.9-.02-1.53,0-2.71.19-2.91,2.01-.37,3.37-1.88,6.53-1.83,9.98-.15.34-.23.69-.27,1.04-3.67,14.05-6.55,28.27-9.43,42.49,0,0,0,0,0,0-.57,2.19-.98,4.43-1.73,6.54-1.07,3.02.04,3.59,2.72,2.77,7.82.71,15.66.27,23.49.26,8.1-.01,16.21.49,24.3-.3,0,0,0,0,0,0,0,0,0,0,0,0,2.97-1.86,2.42-4.86,2.46-7.66,0,0,0,0,0,0,0,0,0,0,0,0-.63-.16-1.26-.45-1.89-.45-9.07-.03-18.14-.09-27.21.04-2.59.04-3.26-.59-2.65-3.23,1-4.32,2.43-8.58,2.65-13.06.14-.62.31-1.24.34-1.85.98-3.27,3.75-3.78,7.45-3.51,5,.36,10.04.13,15.06.05,1.1-.02,2.49.66,3.28-.8,0,0,0,0,0,0,0,0,0,0,0,0,.24-.47.57-.92.7-1.41q1.34-4.93-3.62-4.95c-5.84-.01-11.68,0-17.52-.02-1.18,0-2.87.21-2.31-1.74,1.72-5.95,1.82-12.34,4.8-17.95,9.24.05,18.48.05,27.73.19,2.66.04,3.32-1.26,3.08-3.54.17-1.9,3.44-4.88-1.78-4.87Zm-52.24,45.67s0,0,0,0c0,0,0,0,0,0,0,0,0,0,0,.01Z"/>
      <path class="cls-1" d="m168.1,392.8c.74-1.82,1.26-3.68,1.21-5.66.3-1.01.52-2.06.93-3.03,1.24-2.93.18-3.75-2.79-3.6-4.83.25-9.67.21-14.5.29,0,0,0,0,0,0h0c-2.41.35-1.56,2.32-1.86,3.73-1.01,2.38-1.52,4.88-1.65,7.45h0c-1.24,3.6-2,7.32-2.49,11.09-3.19,12.25-5.97,24.6-8.19,37.06,0,0,0,0,0,0-.05.34-.09.68-.14,1.02-.02.16-.03.31-.04.47-.37,1.44-2.73,3.38,1.1,3.77h0s0,0,0,0h0c3.37.11,6.74.28,10.12.3,6.84.04,6.88.02,8.35-6.81,3.14-14.54,6.24-29.09,9.36-43.64.55-.73.78-1.54.6-2.45Z"/>
      <path class="cls-1" d="m147.36,381.05c.02-.07-.07-.24-.12-.24-4-.18-8.02-.94-11.96.42,0,0,0,0,0,0-2.19,3.2-4.25,6.47-5.87,10-3.34,5.43-6.68,10.86-10.03,16.29,0,0,0,0,0,0,0,0,0,0,0,0-.45.67-1.22,1.19-1.02,2.17-1.2,1.22-2.11,2.6-2.48,4.3,0,0,0,0,0,0h0c-2.69,4.33-5.33,8.7-8.12,12.96-.44.67-.65,3.32-2.46.95-2.39-14.28-4.84-28.54-7.99-42.68-.42-1.86.88-4.71-2.79-4.68-5.01.04-10.02.05-15.03,0-1.77-.02-2.49.51-2.07,2.38.81,3.58,1.54,7.19,2.28,10.78,0,.36.09.72.22,1.09,2.9,15.99,5.79,31.98,8.69,47.97.02,2.14.94,3.11,3.23,3.05,5.14-.13,10.28-.04,15.42-.03,1.1,0,2.23.07,2.42-1.45,2.02-2.48,3.72-5.16,4.88-8.16,1.19-1.06,1.87-2.44,2.37-3.92,0,0,0,0,0,0,4.77-7.18,9.43-14.43,13.09-22.26,0,0,0,0,0,0l.16-.24s-.13-.26-.13-.26c0,0,0,0,0,0h0c1.3-.2,1.6-1.34,2.13-2.26,4.99-8.61,9.98-17.21,14.97-25.82.07-.11.17-.22.21-.35Zm-67.22,11.75s0,0,0,0c0,0,0,0,0,0,0,0,0,0,0,0Z"/>
      <path class="cls-1" d="m442.84,397.7s0,0,0,0c0,0,0,0,0,0,.22-5.22-3.66-8.06-6.63-11.42h0c-3.18-3.61-7.61-4.58-11.98-5.09-12.56-1.46-25.19-.44-37.79-.63-10.45-.16-10.46-.04-11.5,10.56,0,0,0,0,0,0h0s0,0,0,0c0,0,.01-.01.02-.02-2.5,8.59-4.31,17.34-5.78,26.16-1.2,3.46-1.94,7.01-2.33,10.65-1.15,4.87-2.15,9.78-3.53,14.58-.77,2.69-.03,3.26,2.55,3.23,10.72-.11,21.45.17,32.16-.15,7-.21,14.07-.82,20.39-4.46,2.2-.65,4.53-1.08,5.77-3.38,0,0,0,0,0,0,.28-.26.57-.52.85-.79,6.71-3.28,11.1-8.62,13.81-15.47,2.72-3.97,3.61-8.5,3.99-13.18.9-3.54.96-7.08,0-10.61Zm-55.26,39.3c-2.57-.26-3.58-.82-2.84-3.72,1.39-5.51,2.34-11.13,3.47-16.71,1.82-7.83,3.62-15.66,5.46-23.48.34-1.42.86-2.8,1.3-4.2,5.42.33,10.86-.36,16.27.64,7.08,1.3,10.58,4.77,11.19,11.95,1.48,17.41-9.81,38.04-34.85,35.52Z"/>
    </g>
    <path class="cls-1" d="m174.6,459.77c-6.37-.09-12.74-.01-19.11-.03-1.41,0-2.78.08-3.44,1.57-1.17,2.64-3.29,5.01-2.49,8.25h0c-.03.53-.05,1.06-.08,1.59h0s0,0,0,0c-.68-.35-1.37-.71-2.41-1.24.38,2.29,1.1,4.19.82,6.18,0,0,0,0,0,0,0,0,0,0,0,0-2,6.44-3.66,12.96-4.94,19.58-.64,1.3-1.05,2.65-.76,4.13-2.4,3.84-2.52,8.42-4.11,12.52-.37.96-.39,2.41-1.65,2.45-.55.02-1.14-1.24-1.7-1.92h0s0,0,0,0c-2.14-8.11-4.16-16.25-6.45-24.32-2.43-8.57-4.12-17.34-7.22-25.72.03-2.3-1.6-2.07-3.13-2.07-5.57.01-11.15.09-16.71-.04-2.44-.06-3.88.87-5.39,2.8-3.93,5-7.21,10.51-11.76,15.02,0,0,0,0,0,0-4.62,5.32-9.09,10.74-12.25,17.11,0,0,0,0,0,0-2.22,2.91-3.99,6.19-7.11,8.73-1.4-3.39-.92-7.32-4.3-9.42h0s0,0,0,0c-2.13-3.07-4.99-5.27-8.25-7.04-4.18-2.27-8.33-4.6-12.45-6.98-1.82-1.06-4.39-1.89-3.76-4.65.55-2.42,3.02-2.3,5-2.72,5.32-1.12,10.58-.35,15.77.69,10.69,2.13,10.58,2.18,13.29-8.31.76-2.95-.26-3.99-2.92-4.37-3.1-.43-6.16-1.12-9.27-1.42-11.98-1.14-23.92-1.75-35.12,3.99-6.53,3.35-11.36,8.22-11.87,15.84-.45,6.66,4.07,10.59,9.21,13.84.11.07.22.16.33.24.39,1.1,1.25,1.77,2.21,2.3,3.74,2.07,7.52,4.06,11.24,6.17,1.42.81,2.77,1.81,2.88,3.68.12,2.11-1.65,2.84-3.03,3.41-2.47,1.02-5.14,1.26-7.89,1.13-6.53-.3-12.9-1.55-19.29-2.75-1.48-.28-3.38-.45-3.84,1.35-1.06,4.15-3.11,8.12-2.56,12.59,0,0,0,0,0,0,0,0,0,0,0,0,.07.99.65,1.34,1.58,1.43,7.87.72,15.69,2.17,23.65,1.57,0,0,0,0,0,0,8.69.47,17.09-.62,24.96-4.52.13-.06.27-.12.4-.2.74.17,2.28-.17,2.1.56-1.1,4.28,2.15,2.57,3.8,2.84,1.32.21,2.73-.14,4.06.05,6.53.96,12-.32,15.17-6.8h0c.52-.11,1.06-.17,1.56-.35,3.2-1.15,2.78-8.67,8.74-4.95,3.15-3.69,7.39-1.84,11.07-1.86,12.36-.05,10.8-2.4,14.12,11.1.76,3.07,2.24,4.32,5.26,4.31,13.86-.03,27.71-.07,41.57.03,3.11.02,4.9-1.75,5.03-4.24.21-4.27,2.3-8.03,2.62-12.2h0c1.39-5.41,2.78-10.83,4.17-16.25h0c3.24-9.09,5.64-18.43,8.26-27.71,1.09-3.86.47-4.91-3.62-4.96Zm-147.7,57.14s.01-.01.02-.02c0,0,.01.01.02.02-.01,0-.02,0-.04,0Zm.84,0h0s0,0,0,0c.06-.03.12-.07.18-.11,0,.02,0,.05,0,.07-.06.01-.12.02-.19.04Zm46.59-1.63s0,0,0,0c0,0,0-.01,0-.02,0,0,0,0,.01.01,0,0,0,0-.01.01Zm30.12-19.47c-3.66.02-7.46.61-10.95-.17-3.68-.82-.17-2.22.34-3.35,1.38-1.87,2.76-3.74,4.14-5.6,0,0,0,0,0,0,.87-2.66,2.97-4.35,5.24-6.91,1.06,5.16,2.03,9.7,2.91,14.26.23,1.18-.56,1.76-1.68,1.77Zm13.23,26.01s-.02,0-.03-.01h.03s0,0,0,.01Zm17.09.77s0-.01.01-.02c0,0,.01.01.02.02-.01,0-.02,0-.03,0Zm7.42-22.8s0,0,0,0c.11-.19.23-.39.34-.58-.04.25-.13.47-.34.58Zm1.46-2.49s.05-.08.07-.12c0,0,0,0,0,0,0,0,0,0,0,0,0,.04,0,.09,0,.13-.02,0-.05,0-.08-.01Z"/>
    <path class="cls-1" d="m819.83,459.9c-2.09-.24-2.91,1.11-2.68,3.11h0s0,0,0,0c-1.11,4.36-2.22,8.72-3.32,13.09.1-.1.2-.19.3-.29-.07.13-.16.23-.3.29-1.87,4.77-2.99,9.74-4.04,14.73-.78.52-.73,1.39-.93,2.17-.23.89-.25,2.12-1.35,2.26-1.17.15-1.28-1.2-1.83-1.91-1.07-1.39-2.14-2.77-3.22-4.15-.71-1.89-1.93-3.46-3.18-5h0c-1.06-2.41-2.15-4.8-4.12-6.64,0,0,0,0,0,0-1.83-2.78-3.38-5.76-5.71-8.19-.97-2.41-2.48-4.46-4.21-6.37h0s0,0,0,0c-.33-1.15-1.1-2.1-2.23-2.1-5.9-.03-11.83-.85-17.7.39-.1,0-.23.03-.36.07-.03,0-.06,0-.09.02h0c-1.62,1.35-1.33,3.41-1.8,5.14-3.25,11.88-7.07,23.61-9.6,35.69h0s0,0,0,0c-1.62,3.92-2.42,8.07-3.37,12.17h0s0,0,0,0c-1.19,1.57-1.15,3.58-1.85,5.31-1.27,3.16.12,4.27,3.04,4.26,4.33-.02,8.66-.15,12.99-.23,1.3-.02,2.49-.29,2.86-1.74,1.45-5.75,3.86-11.26,4.37-17.25,1.01-1.99,1.65-4.07,1.66-6.33,0,0,0,0,0,0,1.87-2.88,1.27-6.78,3.85-9.85,3.46,5.32,6.7,10.31,9.94,15.29h0c2.88,7.24,8.04,13.02,12.42,19.29,1.02,1.46,2.85,1.92,4.73,1.93,4.29.03,8.58-.68,12.88-.04,2.31.35,3.69-.94,4.07-3.03.35-1.97,1.47-3.84.97-5.95-.18,1.39-.5,2.55-.94,3.51.16-.81.34-1.73.61-2.78.07-.26.19-.49.33-.73,1.14-4.8,2.28-9.6,3.42-14.39,2.03-3.95,2.32-8.44,3.94-12.52h0c1.55-1.97,1.83-4.4,2.52-6.7,1.6-5.39,2.34-11.04,4.89-16.14v-5.72c-5.6-1.22-11.29-.03-16.93-.67Zm-68.07,54.56s0,0,0,0h0s0,0,0,0c0,0,0,0,0,.01,0,0,0,0,0,0Zm13.91-50.62s0-.09,0-.13c.03.03.06.06.09.1-.03.01-.06.03-.1.04h0Zm1.71,1.45c.04.06.08.12.11.19-.07,0-.13,0-.2,0,.01-.07.05-.13.08-.19Zm62.06,20.64s0,0,0,0c0,0,0,0,0-.01,0,0,0,0,0,0,0,0,0-.02,0-.02,0,0,0,0,0,0h0s0,0,0,0c0,0,0-.01,0-.02,0,0,.02,0,.02,0,0,.01,0,.02,0,.03Z"/>
    <path class="cls-1" d="m528.44,464.06c.77-2.82-.18-4.39-3.44-4.33-6.37.12-12.74-.05-19.1.11-2.01.05-3.92.74-4.54,3.22-2.37,9.41-4.8,18.82-7.28,28.2-2.63,9.93-5.28,19.85-8.05,29.74-.94,3.36.57,4.15,3.48,4.07,2.99-.08,5.98-.02,8.97-.02v-.02c2.72,0,5.48-.31,8.15.07,4.33.62,5.6-1.71,6.48-5.3,1.94-7.87,4.13-15.67,6.3-23.48,2.98-10.76,6.07-21.5,9.03-32.27Z"/>
    <path class="cls-1" d="m485.29,506.18c1.15-6.09,3.03-11.97,4.91-17.86,3.57-8.2,5.24-16.97,7.53-25.55.75-2.82-1.62-2.96-3.57-2.97-5.98-.05-11.97.02-17.95-.08-2.71-.05-4.26.96-5.01,3.67-1.59,5.73-3.5,11.37-5.1,17.1-.63,2.24-1.83,3.04-4.08,2.99-5.44-.1-10.88-.18-16.32.01-3.67.13-4.15-1.33-3.14-4.44,1.55-4.75,2.97-9.55,4.24-14.39.93-3.54-.16-4.88-3.7-4.9-6.12-.04-12.24-.01-18.36.04-1.26.01-2.91-.48-3.03,1.68-3.86,14.37-7.72,28.73-11.58,43.1-1.78,3.04-2.24,6.53-3.27,9.83h0c-.56,1.36-1.22,2.69-1.67,4.09-1.64,5.03-.67,6.45,4.59,6.53,5.44.09,10.88-.01,16.32.04,2.84.03,4.6-1.22,5.3-4,1.51-6.02,3.1-12.01,4.55-18.04.72-2.99,2.37-4.28,5.5-4.14,4.07.18,8.16.03,12.24.04,7.59.01,8.21-1.19,5.47,8.31-1.28,4.42-2.75,8.79-3.85,13.25-.62,2.52-.59,4.81,3.36,4.64,6.11-.27,12.24-.12,18.35-.04,2.2.03,3.89-.81,4.41-2.84,1.36-5.33,3.86-10.4,3.87-16.06,0,0,0,0,0,0,0,0,0,0,0,0Zm-57.18,14.59s-.06-.05-.09-.07c.07-.03.13-.07.19-.11-.03.06-.07.12-.1.18Zm12.35-36.57s0,0,0-.01c0,0,0,0,0,0,0,0,0,0,0,0,0,0,0,0,.01,0,0,0,0,0-.01.01Zm21.89,13.43c0-.07.01-.13.01-.2,0,0,0,0,0,0,.03,0,.06,0,.09,0,0,0,0,0,0,0,0,0-.09,0-.09,0,.17.05.31.1.44.15-.14,0-.29.02-.46.05Z"/>
    <path class="cls-1" d="m567.74,486.81s0,0,0,0h0c-3.89-2.21-7.82-4.35-11.64-6.66-1.44-.87-3.48-1.71-2.78-3.96.61-1.97,2.6-2.15,4.34-2.51,5.74-1.18,11.35.08,17.01.75,3.17.37,6.78,3.21,9.3,1.01,2.36-2.06,2.05-6.29,3.17-9.46,1.19-3.36-.57-4.08-3.12-4.58-6.55-1.3-13.2-2.11-19.84-2.22-7.16-.12-14.45-.08-20.98,3.7h0s0,0,0,0c-.46.06-.92.11-1.38.17,0,0,0,0,0,0,0,0,0,0,0,0-6.54,1.05-13.07,7.74-14.1,14.47,0,0,0,0,0,0-1.09,1.61-.85,3.44-.49,5.1,1.33,6.16,5.75,9.85,10.87,12.83,4.42,2.58,8.89,5.05,13.39,7.49,2.9,1.58,3.05,3.47.91,5.78-3.99,1.57-8.14,1.73-12.38,1.65-5.73-.1-11.1-2.25-16.79-2.62-2.48-.16-3.61.35-4.43,2.81-1.03,3.09-1.52,6.27-2.33,9.39-.85,3.3.68,4.95,3.84,5.06,3.66.13,7.33-.02,10.99-.04-.02,0-.04,0-.05,0,.02,0,.04,0,.06,0,2.11-.03,4.21-.06,6.32-.09,2.77,0,5.54,0,8.3,0,1.57.02,3.13.05,4.7.08h0c4.43.47,9.22.86,13.13-.7,4.88-1.96,9.33-5.4,13.41-8.85,3.46-2.93,5.29-7.49,5.25-11.9-.08-7.91-6.57-14.78-14.65-16.71Zm-3.65-24.67c.11.03.21.06.32.08-.18.03-.37.05-.55.09.07-.07.15-.13.23-.18Zm-37.87,51.58s-.04,0-.06,0c.02,0,.04,0,.07-.01,0,0,0,0,0,0Zm2.46-.91s-.02.01-.02.02c-.03,0-.06.01-.09.02.04-.03.07-.06.11-.09,0,.02,0,.04,0,.06Zm26.05-4.11s-.05-.03-.07-.04c.03-.01.06-.03.09-.04,0,.03-.02.06-.02.09Z"/>
    <path class="cls-1" d="m404.48,491.56c-6.1.03-12.21,0-18.32,0-.83,0-1.62.08-2.07.94-.94-.06-1.42.4-1.66,1.31-1.16,4.26-2.34,8.52-3.54,12.77-1.01,3.58-3.4,4.87-6.98,3.97-3.61-.91-7.25-1.69-10.88-2.53-.99-.6-1.89-1.29-2.42-2.36-2.65-6.36-1.29-12.34,1.69-18.17h0s0,0,0,0c5.06-8.5,12.94-12.18,22.44-13.07,8.47-.79,16.73.79,24.88,2.71,3.63.85,4.49-.32,4.17-3.52,0,0,0,0,0,0,0,0,0,0,0,0,.53-1.9,1.06-3.8,1.59-5.7,2.82-6.05,2.55-6.56-3.98-7.38-.27-.03-.54-.07-.8-.11-15.31-2.78-30.6-3.45-45.46,1.98-5.3,1.94-11.41,2.79-15.03,8.04,0,0,0,0,0,0-2.62,2.87-6.72,4.17-8.43,8,0,0,0,0,0,0-.99.86-1.97,1.73-2.96,2.59,0,0,0,0,0,0-2.14,1.21-2.92,3.47-4.06,5.42-.87,1.49-1.8,2.72-3.73,2.68-4.9-.09-9.82.11-14.68-.33-2.75-.25-4.35.73-4.97,3-.71,2.61-1.8,5.08-2.31,7.77-.45,2.36.17,3.15,2.28,3.73,3.51.96,7.06.58,10.55.42,5.04-.24,9.72-.4,11,6,0,0,0,0,0,0,.2,1.07.63,1.95,1.81,2.23-.22,2.09.45,3.55,2.74,3.84,0,0,0,0,0,0,0,0,0,0,0,0,7.82,6.95,17.1,9.54,27.38,9.14,0,0,0,0,0,0,1.4-.02,2.8-.04,4.21-.07.54-.15,1.08-.21,1.62-.22-.54.07-1.08.15-1.62.22,3.47.04,6.93.07,10.4.11,6.95.72,13.75-.37,20.55-1.55,1.17-.2,2.01-.59,2.35-1.84,2.36-8.72,4.75-17.43,7.15-26.13.71-2.59-.14-3.9-2.93-3.88Z"/>
    <path class="cls-1" d="m755.21,473.75c-.14-.1-.27-.16-.41-.19l.03-.09c.13.09.25.19.38.28.97-2.95,1.99-5.88,2.91-8.84,1.16-3.73.23-5.08-3.64-5.13-5.03-.07-10.06-.02-15.09-.02-6.68,0-7.07.09-8.44,6.64-1.54,7.4-4.85,14.37-5.24,22.03h0c-.27,1.07-.54,2.14-.81,3.21h0c-2.16,2.77-2.29,6.25-3.31,9.41-1.46,4.53-2.15,9.33-4.73,14.19-1.04-3.59-1.96-6.52-2.73-9.49-3.02-11.63-5.92-23.29-9.55-34.75-.16.09-.28.21-.4.33,0,0,0-.01,0-.02,0,0,0,0,0,0,.14-.1.27-.2.41-.31-.55-2.36-1.27-4.7-1.6-7.09-.44-3.17-2.06-4.33-5.23-4.22-5.14.18-10.3.25-15.43-.01-3.86-.2-6.1,1.51-7.51,4.81.15.08.29.16.44.25-.02.03-.04.05-.06.07-.13-.11-.25-.21-.38-.32-6.11,6.77-11.31,14.22-16.37,21.76-1.89,2.83-5.27,4.74-5.52,8.61h0c-2.1,2.73-4.19,5.46-6.29,8.19h0c-.39.51-.77,1.01-1.16,1.52-2.93,3.61-6.3,5.49-11.36,5.02-6.46-.6-13.01-.15-19.52-.15,0,0,0,0,0,0,0,0,0,0,0,0-5.53-1.65-5.59-1.67-4.04-7.13,3.5-12.32,7.03-24.63,10.62-36.93,1.28-4.38.41-5.64-4.24-5.65-5.57,0-11.16.21-16.72-.08-3.65-.19-5.14,1.51-5.95,4.68-2,7.85-4.06,15.68-6.16,23.5-2.89,10.81-5.89,21.59-8.73,32.42-1.08,4.12-.48,4.77,3.79,4.77,21.48.01,42.97.01,64.45-.01,1.4,0,3.12.56,3.8-1.44,0,0,0,0,0,0h0c1.69.03,2.02-1.31,2.76-2.47,4.73-7.35,9.84-14.17,20.29-11.59.77.19,1.63.03,2.44.03,12.11.02,12.18,0,15.58,11.47.85,2.86,2.56,3.99,5.3,4,13.6.02,27.19,0,40.79.03,2.19,0,3.59-.81,4.17-3.02,2.94-11.24,5.96-22.47,8.89-33.72,1.26-4.84,2.39-9.72,3.57-14.58Zm-161.97,8.05s0,0,0-.01c0,0,0,0,0,.01,0,0,0,0,0,0Zm.82-4.09c.01-.12.03-.23.04-.35.05.04.09.08.14.13-.06.07-.12.15-.18.22Zm13.95,32.58s0,0,0,0c0,0,0,0,0,0h0s0,0,0,0c0,0,0,0,0,0Zm42.87,6.16c-.07-.03-.12-.07-.19-.11.09,0,.17-.02.25-.04-.02.05-.05.1-.07.15Zm2.85.46h0s-.01.04-.02.07c-.02-.02-.04-.03-.06-.05.03,0,.05-.02.08-.03,0-.09,0-.17,0-.25.05.02.1.04.15.06-.05.07-.11.13-.16.19Zm13.07-34.2s0-.07,0-.1c.03.02.05.03.08.05-.03.02-.05.03-.08.05Zm14.44,13.1c-2.78-.06-6.96,1.33-8-.66-1.34-2.55,2.43-4.84,3.96-7.25.49-.77,1.2-1.4,1.81-2.09,0,0,0,0,0,0,0,0,0,0,0,0,.79-1.11,1.58-2.21,2.38-3.32h0c.13-1.35.91-2.15,2.1-2.74,1.23,1.98,1.27,4.01,1.4,6.02,0,0,0,0,0,0,.21.1.43.15.66.15.03,1.34.05,2.67.08,4.01,1.66,5.65,1.46,6-4.38,5.88Zm23.95-13.06s0-.08.02-.12h0s.06.05.09.07c-.04.02-.07.03-.11.05Z"/>
  </g>
</svg>