<?xml version="1.0" encoding="UTF-8"?>
<svg id="Calque_2" data-name="Calque 2" xmlns="http://www.w3.org/2000/svg" viewBox="0 0 519.5 570">
  <defs>
    <style>
      .cls-1 {
        fill: #004b8e;
      }

      .cls-2 {
        fill: #fdc64a;
      }
    </style>
  </defs>
  <g id="Calque_1-2" data-name="Calque 1">
    <polygon class="cls-1" points="238.5 0 234.33 .42 228.82 7.38 216.68 8 204.73 12.56 196.76 19.2 191.44 19.01 186.7 21.48 178.54 22.23 172.09 18.65 169.25 19.01 163.36 28.12 159.57 26.41 139.65 42.73 143.06 45.57 142.3 55.69 136.42 55.82 137.09 59.23 139.46 63.22 134.71 81.05 126.55 83.52 114.22 76.88 103.6 77.07 85 69.1 71.53 58.66 63.18 67.96 58.44 67.39 50.28 76.69 45.54 76.5 33.4 93.57 26.38 91.3 20.68 113.12 27.7 118.05 29.41 135.89 7.78 144.8 6.83 150.31 12.9 160.93 34.15 170.23 35.1 212.54 23.15 234.74 14.42 248.02 0 256.75 1.52 261.68 4.93 261.49 44.59 313.1 41.93 326.38 48.01 329.22 57.49 357.12 63.18 356.55 62.99 372.11 54.84 392.79 63.94 402.46 47.25 424.47 51.23 430.16 44.02 451.42 37.57 452.93 34.91 471.72 41.17 481.2 28.46 493.92 35.7 502.27 36.24 513.08 55.4 539.64 69.45 541.73 74.57 547.42 77.98 543.82 82.35 547.04 87.09 542.49 101.32 547.61 104.55 542.11 107.58 540.59 106.44 534.33 125.23 504.35 132.06 507.58 171.71 507.77 175.32 503.02 212.7 501.89 215.35 507.58 246.47 509.48 211.94 549.7 214.21 551.79 250.45 552.16 258.99 547.61 270.75 570 314.39 565.64 322.55 558.43 329 565.64 335.64 565.07 343.42 560.32 333.75 551.79 337.54 542.68 335.07 498.66 342.29 499.42 357.65 490.12 362.97 492.02 366.57 487.66 365.05 478.74 366.38 474.75 373.21 471.72 376.25 473.8 381.18 472.1 386.87 474.75 392.19 472.29 398.45 476.27 402.81 473.24 416.85 482.53 424.44 485 429.37 492.4 435.06 486.33 448.91 483.48 467.13 487.44 470.74 481.77 480.6 486.71 488.95 483.29 506.22 449.71 500.52 422.96 506.22 412.71 504.89 372.67 431.84 386.53 428.05 353.89 436.77 352.75 475.67 250.3 519.5 219.37 507.54 210.26 489.14 208.55 485.72 218.04 478.51 227.53 458.02 229.05 444.17 219.94 441.33 213.87 430.32 211.59 420.83 199.83 402.62 189.39 377.95 187.87 374.16 183.89 365.24 185.79 344.56 180.09 329.38 172.31 318.19 163.4 324.07 153.15 317.81 141.77 321.6 126.97 303.39 114.26 300.69 111.03 300.35 105.34 286.5 97.18 281 85.04 245.71 64.92 236.22 63.41 232.62 41.02 233.76 29.44 256.07 16.35 255.95 8.76 242.1 6.3 238.5 0"/>
    <path class="cls-2" d="m194.42,36.78c-6.38,0-11.56,5.17-11.56,11.56s11.56,23.23,11.56,23.23c0,0,11.56-16.84,11.56-23.23s-5.18-11.56-11.56-11.56Zm0,16.48c-3,0-5.43-2.43-5.43-5.43s2.43-5.43,5.43-5.43,5.43,2.43,5.43,5.43-2.43,5.43-5.43,5.43Z"/>
    <path class="cls-2" d="m124.82,180.19c-6.38,0-11.56,5.17-11.56,11.56s11.56,23.23,11.56,23.23c0,0,11.56-16.84,11.56-23.23s-5.18-11.56-11.56-11.56Zm0,16.48c-3,0-5.43-2.43-5.43-5.43s2.43-5.43,5.43-5.43,5.43,2.43,5.43,5.43-2.43,5.43-5.43,5.43Z"/>
    <path class="cls-2" d="m193.9,290.33c-6.38,0-11.56,5.17-11.56,11.56s11.56,23.23,11.56,23.23c0,0,11.56-16.84,11.56-23.23s-5.18-11.56-11.56-11.56Zm0,16.48c-3,0-5.43-2.43-5.43-5.43s2.43-5.43,5.43-5.43,5.43,2.43,5.43,5.43-2.43,5.43-5.43,5.43Z"/>
    <path class="cls-2" d="m352.93,272.94c-6.38,0-11.56,5.17-11.56,11.56s11.56,23.23,11.56,23.23c0,0,11.56-16.84,11.56-23.23s-5.17-11.56-11.56-11.56Zm0,16.48c-3,0-5.43-2.43-5.43-5.43s2.43-5.43,5.43-5.43,5.43,2.43,5.43,5.43c.01,3-2.42,5.43-5.43,5.43Z"/>
    <path class="cls-2" d="m93.55,422.97c-6.38,0-11.56,5.17-11.56,11.56s11.56,23.23,11.56,23.23c0,0,11.56-16.84,11.56-23.23s-5.17-11.56-11.56-11.56Zm0,16.48c-3,0-5.43-2.43-5.43-5.43s2.43-5.43,5.43-5.43,5.43,2.43,5.43,5.43-2.43,5.43-5.43,5.43Z"/>
    <path class="cls-2" d="m237.74,388.19c-6.38,0-11.56,5.17-11.56,11.56s11.56,23.23,11.56,23.23c0,0,11.56-16.84,11.56-23.23s-5.18-11.56-11.56-11.56Zm0,16.48c-3,0-5.43-2.43-5.43-5.43s2.43-5.43,5.43-5.43,5.43,2.43,5.43,5.43-2.43,5.43-5.43,5.43Z"/>
    <path class="cls-2" d="m280,494.1c-6.38,0-11.56,5.17-11.56,11.56s11.56,23.23,11.56,23.23c0,0,11.56-16.84,11.56-23.23s-5.18-11.56-11.56-11.56Zm0,16.48c-3,0-5.43-2.43-5.43-5.43s2.43-5.43,5.43-5.43,5.43,2.43,5.43,5.43-2.43,5.43-5.43,5.43Z"/>
    <path class="cls-2" d="m428.14,405.58c-6.38,0-11.56,5.17-11.56,11.56s11.56,23.23,11.56,23.23c0,0,11.56-16.84,11.56-23.23s-5.17-11.56-11.56-11.56Zm0,16.48c-3,0-5.43-2.43-5.43-5.43s2.43-5.43,5.43-5.43,5.43,2.43,5.43,5.43-2.43,5.43-5.43,5.43Z"/>
    <g>
      <path class="cls-2" d="m140.71,92.68v-10.5h2.01l6.2,7.56h-.98v-7.56h2.4v10.5h-2.01l-6.2-7.56h.98v7.56h-2.4Z"/>
      <path class="cls-2" d="m155.25,90.73h5.71v1.95h-8.13v-10.5h7.94v1.95h-5.52v6.6Zm-.18-4.33h5.06v1.91h-5.06v-1.91Z"/>
      <path class="cls-2" d="m167.56,92.86c-1.49,0-2.66-.42-3.5-1.25s-1.26-2.02-1.26-3.57v-5.87h2.45v5.81c0,.99.2,1.71.61,2.15s.98.67,1.71.67,1.31-.22,1.73-.67.62-1.16.62-2.15v-5.81h2.38v5.87c0,1.55-.42,2.74-1.26,3.57-.84.84-2,1.25-3.48,1.25Z"/>
      <path class="cls-2" d="m177.16,92.68h-2.44v-10.5h7.94v1.95h-5.49v8.55h0Zm-.19-5.77h5.04v1.95h-5.04v-1.95Z"/>
      <path class="cls-2" d="m184.3,92.68v-10.5h2.01l4.47,7.41h-1.06l4.38-7.41h2.02v10.5h-2.27l-.03-7h.45l-3.54,5.88h-1.08l-3.58-5.88h.49v7h-2.26Z"/>
      <path class="cls-2" d="m197.25,92.68l4.66-10.5h2.4l4.71,10.5h-2.55l-3.85-9.27h.98l-3.85,9.27h-2.5Zm2.35-2.25l.61-1.85h5.43l.63,1.85h-6.67Z"/>
      <path class="cls-2" d="m210.12,92.68v-10.5h2.44v10.5h-2.44Z"/>
      <path class="cls-2" d="m218.5,92.86c-.84,0-1.65-.11-2.42-.34-.78-.22-1.4-.52-1.87-.88l.83-1.83c.44.32.97.58,1.59.79.62.21,1.25.31,1.88.31.48,0,.87-.05,1.16-.15s.51-.23.65-.4.21-.36.21-.58c0-.28-.11-.5-.33-.67s-.51-.3-.88-.4-.76-.21-1.19-.3-.86-.21-1.3-.34c-.44-.14-.83-.32-1.2-.54-.37-.23-.65-.52-.87-.89-.21-.36-.32-.82-.32-1.37,0-.6.16-1.15.48-1.64s.81-.89,1.46-1.18,1.48-.44,2.47-.44c.66,0,1.31.08,1.96.24s1.21.39,1.69.69l-.77,1.83c-.47-.27-.96-.47-1.46-.61s-.98-.2-1.44-.2-.87.05-1.16.16c-.29.1-.5.25-.64.43s-.2.38-.2.6c0,.28.11.5.33.67s.51.3.87.4c.36.1.76.19,1.2.29.44.1.88.21,1.31.35s.83.32,1.19.53c.36.22.65.51.88.87.23.37.34.82.34,1.36,0,.59-.16,1.13-.49,1.62-.33.49-.82.89-1.48,1.19s-1.49.43-2.48.43Z"/>
      <path class="cls-2" d="m229.71,92.86c-.83,0-1.6-.14-2.3-.41-.7-.27-1.31-.65-1.83-1.14s-.92-1.06-1.21-1.72c-.29-.66-.43-1.38-.43-2.16s.14-1.51.43-2.17c.28-.65.69-1.23,1.21-1.72s1.13-.87,1.82-1.14,1.46-.41,2.29-.41,1.59.13,2.29.4c.69.27,1.3.64,1.82,1.13s.92,1.06,1.21,1.73c.29.66.43,1.38.43,2.17s-.14,1.5-.43,2.17-.69,1.24-1.21,1.73c-.52.49-1.13.87-1.82,1.13-.69.28-1.45.41-2.27.41Zm-.02-2.05c.47,0,.9-.08,1.3-.25s.74-.4,1.04-.71c.3-.3.53-.66.7-1.06s.25-.86.25-1.36-.08-.95-.25-1.36-.4-.76-.7-1.06c-.3-.31-.65-.54-1.04-.71s-.83-.25-1.3-.25-.91.08-1.31.25-.75.4-1.04.71-.52.66-.69,1.06-.25.86-.25,1.36.08.95.25,1.36.4.76.69,1.06c.29.31.64.54,1.04.71s.84.25,1.31.25Z"/>
      <path class="cls-2" d="m237.27,92.68v-10.5h2.01l6.2,7.56h-.98v-7.56h2.4v10.5h-2.01l-6.2-7.56h.98v7.56h-2.4Z"/>
    </g>
    <g>
      <path class="cls-2" d="m95.56,237.69c-.84,0-1.65-.11-2.42-.34-.78-.22-1.4-.52-1.87-.88l.83-1.83c.44.32.97.58,1.59.79s1.25.31,1.88.31c.48,0,.87-.05,1.16-.15.29-.1.51-.23.65-.4s.21-.36.21-.58c0-.28-.11-.5-.33-.67s-.51-.3-.88-.4c-.37-.11-.76-.21-1.19-.3-.43-.09-.86-.21-1.3-.34s-.83-.32-1.2-.54-.65-.52-.87-.88c-.21-.37-.32-.82-.32-1.37,0-.6.16-1.15.48-1.64.32-.49.81-.89,1.46-1.18s1.48-.44,2.47-.44c.66,0,1.31.08,1.96.24s1.21.39,1.69.69l-.77,1.83c-.47-.27-.96-.47-1.46-.61s-.98-.2-1.44-.2-.87.05-1.16.16-.5.25-.64.43-.2.38-.2.6c0,.28.11.5.33.67s.51.3.87.4.76.19,1.2.29.88.21,1.31.35.83.32,1.19.53c.36.22.65.51.88.87.23.37.34.82.34,1.36,0,.59-.16,1.13-.49,1.62s-.82.89-1.48,1.19-1.49.42-2.48.42Z"/>
      <path class="cls-2" d="m101.67,237.51v-10.5h2.44v10.5h-2.44Z"/>
      <path class="cls-2" d="m106.59,237.51v-10.5h4.54c.94,0,1.75.15,2.43.46.68.3,1.2.74,1.57,1.31.37.57.56,1.25.56,2.02s-.19,1.47-.56,2.03-.9,1-1.57,1.29c-.68.29-1.49.44-2.43.44h-3.21l1.11-1.05v3.99h-2.44Zm2.44-3.71l-1.11-1.16h3.07c.74,0,1.3-.16,1.68-.48s.57-.77.57-1.35-.19-1.03-.57-1.34c-.38-.32-.94-.47-1.68-.47h-3.07l1.11-1.16v5.96Zm4.25,3.72l-2.64-3.81h2.61l2.64,3.81h-2.61Z"/>
      <path class="cls-2" d="m116.23,237.51l4.66-10.5h2.4l4.71,10.5h-2.55l-3.85-9.27h.98l-3.85,9.27h-2.5Zm2.36-2.25l.61-1.84h5.43l.63,1.84h-6.67Z"/>
      <path class="cls-2" d="m133.54,237.69c-1.49,0-2.66-.42-3.5-1.25s-1.26-2.02-1.26-3.57v-5.87h2.45v5.81c0,.99.2,1.71.61,2.15s.98.67,1.71.67,1.31-.22,1.73-.67c.41-.45.62-1.16.62-2.15v-5.81h2.38v5.87c0,1.55-.42,2.74-1.26,3.57-.84.83-2,1.25-3.48,1.25Z"/>
      <path class="cls-2" d="m140.69,237.51v-10.5h2.44v8.52h5.23v1.98h-7.67Z"/>
      <path class="cls-2" d="m150.95,237.51v-8.52h-3.35v-1.98h9.15v1.98h-3.36v8.52h-2.44Z"/>
    </g>
    <g>
      <path class="cls-2" d="m159.25,347.48l-4.54-10.5h2.64l3.96,9.3h-1.55l4.02-9.3h2.42l-4.54,10.5h-2.41Z"/>
      <path class="cls-2" d="m167.07,347.48v-10.5h2.44v10.5h-2.44Z"/>
      <path class="cls-2" d="m171.99,347.48v-10.5h2.44v8.52h5.23v1.98h-7.67Z"/>
      <path class="cls-2" d="m181.05,347.48v-10.5h2.44v8.52h5.23v1.98h-7.67Z"/>
      <path class="cls-2" d="m192.52,345.53h5.71v1.95h-8.13v-10.5h7.94v1.95h-5.52v6.6Zm-.18-4.33h5.06v1.91h-5.06v-1.91Z"/>
      <path class="cls-2" d="m200.17,347.48v-10.5h4.54c.94,0,1.75.15,2.43.46s1.2.74,1.57,1.31c.37.57.56,1.25.56,2.03s-.19,1.47-.56,2.03c-.37.57-.9,1-1.57,1.29-.68.29-1.49.44-2.43.44h-3.21l1.11-1.05v3.99h-2.44Zm2.45-3.72l-1.11-1.15h3.07c.74,0,1.3-.16,1.68-.48.38-.32.57-.77.57-1.35s-.19-1.03-.57-1.34-.94-.47-1.68-.47h-3.07l1.11-1.15v5.94Zm4.24,3.72l-2.64-3.81h2.61l2.64,3.81h-2.61Z"/>
      <path class="cls-2" d="m216.3,347.66c-.83,0-1.6-.13-2.3-.41-.7-.27-1.31-.65-1.83-1.14-.52-.49-.92-1.07-1.21-1.72-.29-.66-.43-1.38-.43-2.16s.14-1.51.43-2.17c.28-.65.69-1.23,1.21-1.72s1.13-.87,1.82-1.14c.69-.27,1.46-.41,2.29-.41s1.59.13,2.29.4c.69.27,1.3.64,1.82,1.13.52.49.92,1.07,1.21,1.73.29.66.43,1.38.43,2.17s-.14,1.5-.43,2.17-.69,1.24-1.21,1.73c-.52.49-1.13.87-1.82,1.13-.7.28-1.45.41-2.27.41Zm-.02-2.05c.47,0,.9-.08,1.3-.25s.74-.4,1.04-.71c.3-.3.53-.66.7-1.06s.25-.86.25-1.36-.08-.95-.25-1.36c-.17-.41-.4-.76-.7-1.07-.3-.3-.65-.54-1.04-.71s-.83-.25-1.3-.25-.91.08-1.31.25-.75.4-1.04.71-.52.66-.69,1.07c-.17.4-.25.86-.25,1.36s.08.95.25,1.36.4.76.69,1.06c.29.31.64.54,1.04.71s.84.25,1.31.25Z"/>
      <path class="cls-2" d="m225.88,347.48v-8.52h-3.36v-1.98h9.15v1.98h-3.36v8.52h-2.43Z"/>
    </g>
    <g>
      <path class="cls-2" d="m311.47,329.7v-10.5h5.13c1.32,0,2.31.25,2.98.75s1,1.16,1,1.98c0,.55-.13,1.03-.41,1.43-.27.41-.64.72-1.12.94-.47.22-1.01.33-1.61.33l.29-.63c.66,0,1.24.11,1.75.33s.9.54,1.19.96.44.94.44,1.54c0,.9-.36,1.6-1.07,2.11s-1.75.76-3.13.76h-5.44Zm2.41-1.83h2.85c.62,0,1.09-.11,1.42-.32s.5-.53.5-.97-.17-.78-.5-.99-.8-.31-1.42-.31h-3.03v-1.77h2.6c.59,0,1.04-.1,1.36-.31.31-.21.47-.52.47-.94s-.16-.73-.47-.93c-.32-.2-.77-.3-1.36-.3h-2.42v6.84Z"/>
      <path class="cls-2" d="m321.56,329.7l4.67-10.5h2.4l4.71,10.5h-2.55l-3.85-9.27h.97l-3.85,9.27h-2.5Zm2.36-2.25l.61-1.85h5.43l.63,1.85h-6.67Z"/>
      <path class="cls-2" d="m338.87,329.88c-1.49,0-2.66-.42-3.5-1.25s-1.26-2.02-1.26-3.57v-5.87h2.45v5.8c0,.99.2,1.71.61,2.15.41.45.98.67,1.71.67s1.32-.22,1.73-.67c.41-.44.62-1.16.62-2.15v-5.8h2.38v5.87c0,1.55-.42,2.74-1.26,3.57-.84.83-2,1.25-3.48,1.25Z"/>
      <path class="cls-2" d="m346.03,329.7v-10.5h4.77c1.14,0,2.15.22,3.01.65.87.43,1.55,1.04,2.04,1.83.49.79.74,1.71.74,2.77s-.25,1.98-.74,2.77c-.49.79-1.17,1.39-2.04,1.83-.87.43-1.88.65-3.01.65h-4.77Zm2.44-1.98h2.21c.7,0,1.31-.13,1.82-.4.52-.26.92-.64,1.2-1.14s.43-1.07.43-1.73-.14-1.25-.43-1.74-.68-.87-1.2-1.13c-.51-.26-1.12-.4-1.82-.4h-2.21v6.54Z"/>
      <path class="cls-2" d="m363.52,329.88c-.83,0-1.59-.13-2.29-.41-.7-.27-1.31-.65-1.83-1.14-.52-.49-.92-1.07-1.21-1.72-.29-.66-.43-1.38-.43-2.16s.14-1.51.43-2.17c.28-.65.69-1.23,1.21-1.72s1.13-.87,1.82-1.14c.7-.27,1.46-.41,2.29-.41s1.59.13,2.29.4,1.3.64,1.82,1.13c.52.49.92,1.07,1.21,1.73.29.66.43,1.38.43,2.17s-.14,1.5-.43,2.17-.69,1.24-1.21,1.73c-.52.49-1.13.87-1.82,1.13s-1.46.41-2.28.41Zm-.02-2.06c.47,0,.9-.08,1.3-.25s.74-.4,1.04-.71c.3-.3.53-.66.7-1.06s.25-.86.25-1.36-.08-.95-.25-1.36c-.17-.41-.4-.76-.7-1.07-.3-.3-.65-.54-1.04-.71-.39-.17-.83-.25-1.3-.25s-.91.08-1.31.25-.75.4-1.04.71-.53.66-.69,1.07c-.17.4-.25.86-.25,1.36s.08.95.25,1.36.4.76.69,1.06c.29.31.64.54,1.04.71.41.17.84.25,1.31.25Z"/>
      <path class="cls-2" d="m375.74,329.88c-1.49,0-2.66-.42-3.5-1.25s-1.26-2.02-1.26-3.57v-5.87h2.45v5.8c0,.99.2,1.71.61,2.15.41.45.98.67,1.71.67s1.32-.22,1.73-.67c.41-.44.62-1.16.62-2.15v-5.8h2.38v5.87c0,1.55-.42,2.74-1.26,3.57-.84.83-2,1.25-3.48,1.25Z"/>
      <path class="cls-2" d="m382.9,329.7v-10.5h4.54c.94,0,1.75.15,2.43.46s1.21.74,1.58,1.31.55,1.25.55,2.03-.18,1.47-.55,2.03c-.37.57-.9,1-1.58,1.29s-1.49.44-2.43.44h-3.21l1.11-1.05v3.99h-2.44Zm2.44-3.72l-1.11-1.15h3.07c.74,0,1.3-.16,1.68-.48s.57-.77.57-1.35-.19-1.03-.57-1.34-.94-.47-1.68-.47h-3.07l1.11-1.15v5.94Zm4.25,3.72l-2.64-3.81h2.61l2.64,3.81h-2.61Z"/>
    </g>
    <g>
      <path class="cls-2" d="m385.31,460.87v-10.5h4.77c1.14,0,2.15.22,3.01.65.87.44,1.55,1.05,2.04,1.83.49.79.74,1.71.74,2.77s-.25,1.98-.74,2.77c-.49.79-1.17,1.4-2.04,1.83-.87.44-1.88.65-3.01.65h-4.77Zm2.44-1.98h2.21c.7,0,1.31-.13,1.82-.4.52-.27.92-.65,1.2-1.14s.43-1.07.43-1.73-.14-1.25-.43-1.74c-.29-.49-.68-.87-1.2-1.13-.51-.26-1.12-.4-1.82-.4h-2.21v6.54Z"/>
      <path class="cls-2" d="m402.79,461.05c-.83,0-1.59-.14-2.29-.41-.7-.27-1.31-.65-1.83-1.14s-.92-1.06-1.21-1.72c-.29-.66-.43-1.38-.43-2.16s.14-1.51.43-2.17c.28-.66.69-1.23,1.21-1.72s1.13-.87,1.82-1.14c.7-.27,1.46-.41,2.29-.41s1.59.13,2.29.4,1.3.64,1.82,1.13c.52.49.92,1.06,1.21,1.72s.43,1.38.43,2.17-.14,1.5-.43,2.17-.69,1.24-1.21,1.73-1.13.87-1.82,1.13c-.7.29-1.46.42-2.28.42Zm-.01-2.05c.47,0,.9-.08,1.3-.25s.74-.4,1.04-.71.53-.66.7-1.07c.17-.4.25-.86.25-1.36s-.08-.95-.25-1.36-.4-.76-.7-1.06c-.3-.31-.65-.54-1.04-.71-.39-.17-.83-.25-1.3-.25s-.91.08-1.31.25-.75.4-1.04.71c-.29.3-.53.66-.69,1.06s-.25.86-.25,1.36.08.95.25,1.36.4.76.69,1.07.64.54,1.04.71c.4.16.84.25,1.31.25Z"/>
      <path class="cls-2" d="m415.02,461.05c-1.49,0-2.66-.42-3.5-1.25s-1.26-2.02-1.26-3.57v-5.87h2.45v5.81c0,.99.21,1.71.62,2.15s.98.67,1.71.67,1.31-.22,1.72-.67.62-1.16.62-2.15v-5.81h2.38v5.87c0,1.55-.42,2.74-1.26,3.57s-2,1.25-3.48,1.25Z"/>
      <path class="cls-2" d="m425.32,460.87l-4.54-10.5h2.64l3.96,9.3h-1.54l4.02-9.3h2.42l-4.54,10.5h-2.42Z"/>
      <path class="cls-2" d="m433.14,460.87v-10.5h4.54c.94,0,1.75.15,2.43.46.68.3,1.2.74,1.57,1.31s.56,1.25.56,2.02-.19,1.47-.56,2.03c-.37.56-.89,1-1.57,1.29s-1.49.44-2.43.44h-3.21l1.11-1.05v3.99h-2.44Zm2.44-3.71l-1.11-1.16h3.08c.74,0,1.3-.16,1.68-.48s.57-.77.57-1.35-.19-1.03-.57-1.34c-.38-.32-.94-.47-1.68-.47h-3.08l1.11-1.16v5.96Zm4.25,3.72l-2.64-3.81h2.61l2.64,3.81h-2.61Z"/>
      <path class="cls-2" d="m442.78,460.87l4.66-10.5h2.4l4.71,10.5h-2.55l-3.86-9.27h.98l-3.86,9.27h-2.48Zm2.36-2.25l.62-1.84h5.43l.63,1.84h-6.68Z"/>
      <path class="cls-2" d="m455.65,460.87v-10.5h2.45v10.5h-2.45Z"/>
      <path class="cls-2" d="m460.57,460.87v-10.5h2.01l6.2,7.56h-.97v-7.56h2.4v10.5h-2.01l-6.2-7.56h.98v7.56h-2.41Z"/>
    </g>
    <g>
      <path class="cls-2" d="m219.89,485.54c-.84,0-1.65-.11-2.42-.34-.78-.22-1.4-.52-1.87-.88l.83-1.83c.44.32.97.58,1.59.79s1.25.31,1.88.31c.48,0,.87-.05,1.16-.15.29-.1.51-.23.65-.4s.21-.36.21-.58c0-.28-.11-.5-.33-.67s-.51-.3-.88-.4c-.37-.11-.76-.21-1.19-.3-.43-.09-.86-.21-1.3-.34s-.83-.32-1.2-.54-.65-.52-.87-.88c-.21-.37-.32-.82-.32-1.37,0-.6.16-1.15.48-1.64s.81-.89,1.46-1.18,1.48-.44,2.47-.44c.66,0,1.31.08,1.96.24s1.21.39,1.69.69l-.77,1.83c-.47-.27-.96-.47-1.46-.61s-.98-.2-1.44-.2-.87.05-1.16.16-.5.25-.64.43-.2.38-.2.6c0,.28.11.5.33.67s.51.3.87.4c.36.1.76.19,1.2.29s.88.21,1.31.35c.43.14.83.32,1.19.53.36.22.65.51.88.87.23.37.34.82.34,1.36,0,.59-.16,1.13-.49,1.62s-.82.89-1.48,1.19-1.49.42-2.48.42Z"/>
      <path class="cls-2" d="m224.62,485.36l4.66-10.5h2.4l4.71,10.5h-2.55l-3.85-9.27h.98l-3.85,9.27h-2.5Zm2.35-2.25l.61-1.84h5.43l.63,1.84h-6.67Z"/>
      <path class="cls-2" d="m237.49,485.36v-10.5h2.44v10.5h-2.44Z"/>
      <path class="cls-2" d="m242.41,485.36v-10.5h2.01l6.2,7.56h-.98v-7.56h2.4v10.5h-2.01l-6.2-7.56h.98v7.56h-2.4Z"/>
      <path class="cls-2" d="m256.7,485.36v-8.52h-3.36v-1.98h9.15v1.98h-3.36v8.52h-2.43Z"/>
      <path class="cls-2" d="m263.21,480.98v-1.88h4.25v1.88h-4.25Z"/>
      <path class="cls-2" d="m274.75,485.54c-.83,0-1.6-.13-2.29-.4-.7-.27-1.31-.64-1.82-1.13s-.91-1.07-1.19-1.73c-.29-.66-.43-1.38-.43-2.17s.14-1.51.43-2.17.69-1.24,1.21-1.72c.52-.49,1.13-.87,1.83-1.13.7-.26,1.47-.4,2.31-.4.93,0,1.77.16,2.51.46.74.31,1.37.76,1.88,1.35l-1.54,1.44c-.39-.41-.81-.71-1.26-.91-.45-.2-.95-.29-1.49-.29-.5,0-.96.08-1.38.25s-.78.4-1.09.7-.54.66-.71,1.06c-.17.41-.25.87-.25,1.37s.08.93.25,1.34.4.77.71,1.07c.3.3.67.54,1.08.71.41.17.87.25,1.37.25s.95-.08,1.4-.24c.46-.16.9-.42,1.33-.79l1.38,1.76c-.58.44-1.25.77-2,1s-1.49.32-2.24.32Zm2.02-1.65v-3.95h2.22v4.26l-2.22-.31Z"/>
      <path class="cls-2" d="m283.69,485.36h-2.44v-10.5h2.44v10.5Zm4.93-4.3h-5.13v-2.06h5.13v2.06Zm-.18-6.2h2.43v10.5h-2.43v-10.5Z"/>
      <path class="cls-2" d="m293.36,485.36v-10.5h2.44v10.5h-2.44Z"/>
      <path class="cls-2" d="m301.75,485.54c-.84,0-1.65-.11-2.42-.34s-1.4-.52-1.87-.88l.83-1.83c.44.32.97.58,1.59.79s1.25.31,1.88.31c.48,0,.87-.05,1.16-.15.29-.1.51-.23.65-.4.14-.17.21-.36.21-.58,0-.28-.11-.5-.33-.67s-.51-.3-.88-.4c-.37-.11-.76-.21-1.19-.3-.43-.09-.86-.21-1.3-.34-.43-.13-.83-.32-1.2-.54s-.65-.52-.87-.88c-.21-.37-.32-.82-.32-1.37,0-.6.16-1.15.48-1.64s.81-.89,1.46-1.18c.66-.29,1.48-.44,2.47-.44.66,0,1.31.08,1.96.24.64.16,1.21.39,1.69.69l-.77,1.83c-.47-.27-.96-.47-1.46-.61s-.98-.2-1.44-.2-.87.05-1.16.16-.5.25-.64.43c-.13.18-.2.38-.2.6,0,.28.11.5.33.67s.51.3.87.4c.36.1.76.19,1.2.29s.88.21,1.31.35c.43.14.83.32,1.18.53.36.22.65.51.88.87.22.37.34.82.34,1.36,0,.59-.16,1.13-.49,1.62s-.82.89-1.48,1.19-1.48.42-2.47.42Z"/>
      <path class="cls-2" d="m307.85,485.36v-10.5h2.45v8.52h5.23v1.98h-7.68Z"/>
      <path class="cls-2" d="m315.59,485.36l4.67-10.5h2.4l4.71,10.5h-2.55l-3.85-9.27h.97l-3.85,9.27h-2.5Zm2.36-2.25l.61-1.84h5.43l.63,1.84h-6.67Z"/>
      <path class="cls-2" d="m328.46,485.36v-10.5h2.44v10.5h-2.44Z"/>
      <path class="cls-2" d="m333.38,485.36v-10.5h2.01l6.2,7.56h-.98v-7.56h2.4v10.5h-2.01l-6.2-7.56h.97v7.56h-2.39Z"/>
    </g>
    <g>
      <path class="cls-2" d="m210.33,445.15v-8.52h-3.36v-1.98h9.15v1.98h-3.36v8.52h-2.43Z"/>
      <path class="cls-2" d="m219.84,443.2h5.71v1.95h-8.13v-10.5h7.94v1.95h-5.52v6.6Zm-.18-4.34h5.06v1.91h-5.06v-1.91Z"/>
      <path class="cls-2" d="m227.49,445.15v-10.5h4.54c.94,0,1.75.15,2.43.46s1.2.74,1.57,1.31.56,1.25.56,2.03-.19,1.47-.56,2.03c-.37.56-.9.99-1.57,1.29-.68.29-1.49.44-2.43.44h-3.21l1.11-1.05v3.99h-2.44Zm2.45-3.72l-1.11-1.15h3.07c.74,0,1.3-.16,1.68-.48s.57-.77.57-1.35-.19-1.03-.57-1.34c-.38-.32-.94-.47-1.68-.47h-3.07l1.11-1.16v5.95Zm4.24,3.72l-2.64-3.81h2.61l2.64,3.81h-2.61Z"/>
      <path class="cls-2" d="m240.54,445.15v-8.52h-3.36v-1.98h9.15v1.98h-3.36v8.52h-2.43Z"/>
      <path class="cls-2" d="m247.64,445.15v-10.5h4.54c.94,0,1.75.15,2.43.46s1.21.74,1.58,1.31.55,1.25.55,2.03-.18,1.47-.55,2.03c-.37.56-.9.99-1.58,1.29-.68.29-1.49.44-2.43.44h-3.21l1.11-1.05v3.99h-2.44Zm2.44-3.72l-1.11-1.15h3.07c.74,0,1.3-.16,1.68-.48s.57-.77.57-1.35-.19-1.03-.57-1.34c-.38-.32-.94-.47-1.68-.47h-3.07l1.11-1.16v5.95Zm4.25,3.72l-2.64-3.81h2.61l2.64,3.81h-2.61Z"/>
      <path class="cls-2" d="m261.08,443.2h5.71v1.95h-8.13v-10.5h7.94v1.95h-5.52v6.6Zm-.18-4.34h5.05v1.91h-5.05v-1.91Z"/>
    </g>
    <g>
      <path class="cls-2" d="m52.43,478.76h-2.44v-10.5h2.44v10.5Zm4.93-4.31h-5.13v-2.05h5.13v2.05Zm-.18-6.19h2.43v10.5h-2.43v-10.5Z"/>
      <path class="cls-2" d="m60.72,478.76l4.66-10.5h2.4l4.71,10.5h-2.55l-3.85-9.27h.98l-3.85,9.27h-2.5Zm2.36-2.25l.61-1.84h5.43l.63,1.84h-6.67Z"/>
      <path class="cls-2" d="m78.03,478.94c-1.49,0-2.66-.42-3.5-1.25s-1.26-2.02-1.26-3.57v-5.87h2.45v5.81c0,.99.2,1.71.61,2.15s.98.67,1.71.67,1.31-.22,1.73-.67c.41-.45.62-1.16.62-2.15v-5.81h2.38v5.87c0,1.55-.42,2.74-1.26,3.57-.84.83-2,1.25-3.48,1.25Z"/>
      <path class="cls-2" d="m87.18,478.76v-8.52h-3.36v-1.98h9.15v1.98h-3.36v8.52h-2.43Z"/>
      <path class="cls-2" d="m94.28,478.76v-10.5h4.54c.94,0,1.75.15,2.43.46.68.3,1.2.74,1.57,1.31.37.57.56,1.25.56,2.02s-.19,1.47-.56,2.03c-.37.56-.9,1-1.57,1.29-.68.29-1.49.44-2.43.44h-3.21l1.11-1.05v3.99h-2.44Zm2.44-3.71l-1.11-1.16h3.07c.74,0,1.3-.16,1.68-.48s.57-.77.57-1.35-.19-1.03-.57-1.34c-.38-.32-.94-.47-1.68-.47h-3.07l1.11-1.16v5.96Zm4.25,3.72l-2.64-3.81h2.61l2.64,3.81h-2.61Z"/>
      <path class="cls-2" d="m103.92,478.76l4.66-10.5h2.4l4.71,10.5h-2.55l-3.85-9.27h.98l-3.85,9.27h-2.5Zm2.36-2.25l.61-1.84h5.43l.63,1.84h-6.67Z"/>
      <path class="cls-2" d="m121.71,478.94c-.83,0-1.6-.13-2.29-.4-.7-.27-1.31-.64-1.81-1.13-.51-.49-.91-1.07-1.19-1.73-.29-.66-.43-1.38-.43-2.17s.14-1.51.43-2.17c.28-.66.69-1.24,1.21-1.72.52-.49,1.13-.87,1.83-1.13s1.47-.4,2.31-.4c.93,0,1.77.16,2.51.46.74.31,1.37.76,1.88,1.35l-1.54,1.44c-.39-.41-.81-.71-1.26-.91-.45-.2-.95-.29-1.49-.29-.5,0-.96.08-1.38.25s-.78.4-1.09.7-.54.66-.71,1.06c-.17.41-.25.87-.25,1.37s.08.93.25,1.34.4.77.71,1.07c.3.3.67.54,1.08.71.41.17.87.25,1.37.25s.95-.08,1.4-.24c.46-.16.9-.42,1.33-.79l1.38,1.76c-.58.44-1.25.77-2,1s-1.5.32-2.25.32Zm2.03-1.65v-3.95h2.22v4.26l-2.22-.31Z"/>
      <path class="cls-2" d="m130.62,476.81h5.71v1.95h-8.13v-10.5h7.94v1.95h-5.52v6.6Zm-.18-4.34h5.06v1.91h-5.06v-1.91Z"/>
    </g>
  </g>
</svg>