<?xml version="1.0" encoding="UTF-8"?><svg id="Calque_1" xmlns="http://www.w3.org/2000/svg" viewBox="0 0 329.25 329.35"><defs><style>.cls-1{fill:none;stroke:#124587;}.cls-2{fill:#124587;}</style></defs><path class="cls-2" d="m48.02,216.22s6.32-47.93,112.67-99.81c0,0-93.7,72.18-97.15,117.3l91.98-51.88,1.72-1.13S44.57,272.05,11.23,286.15l-9.2-15.23,35.06-20.3L.64,174.49l17.49-11.28,29.89,53.01Z"/><path class="cls-1" d="m48.02,216.22s6.32-47.93,112.67-99.81c0,0-93.7,72.18-97.15,117.3l91.98-51.88,1.72-1.13S44.57,272.05,11.23,286.15l-9.2-15.23,35.06-20.3L.64,174.49l17.49-11.28,29.89,53.01Z"/><path class="cls-2" d="m176.7,107.88s-82.28,14.1-78.83-43.45c0,0,5.18-5.08,70.77-33.85,0,0,27.62-30.47,63.29-28.21,0,0,37.98-10.15,63.29,16.93,0,0,18.99-5.08,33.37,0,0,0-9.78,25.05-20.71,35.66,0,0,7.48,28.1-28.77,69.85,0,0-69.62,32.72-89.76,41.75l61.56-46.83c5.75,3.95,6.9,5.08,6.9,5.08,0,0,37.98-32.16,37.98-89.15,0,0-21.29,18.06-22.44,13.54,0,0-5.18-7.33,8.05-18.05,0,0-34.52-36.67-90.33,2.82,0,0-1.15,6.2-74.8,31.6,0,0-12.66,36.11,58.69,41.19"/><path class="cls-1" d="m176.7,107.88s-82.28,14.1-78.83-43.45c0,0,5.18-5.08,70.77-33.85,0,0,27.62-30.47,63.29-28.21,0,0,37.98-10.15,63.29,16.93,0,0,18.99-5.08,33.37,0,0,0-9.78,25.05-20.71,35.66,0,0,7.48,28.1-28.77,69.85,0,0-69.62,32.72-89.76,41.75l61.56-46.83c5.75,3.95,6.9,5.08,6.9,5.08,0,0,37.98-32.16,37.98-89.15,0,0-21.29,18.06-22.44,13.54,0,0-5.18-7.33,8.05-18.05,0,0-34.52-36.67-90.33,2.82,0,0-1.15,6.2-74.8,31.6,0,0-12.66,36.11,58.69,41.19"/><path class="cls-2" d="m291.93,327.65c-14.17-115.32-49.6-186.33-49.6-186.33l37.13-17.04c39.68,148.84,12.47,203.37,12.47,203.37"/><path class="cls-1" d="m291.93,327.65c-14.17-114.92-49.6-185.68-49.6-185.68l37.13-16.98c39.68,148.32,12.47,202.67,12.47,202.67Z"/><path class="cls-2" d="m191.61,32.3s7.1,13,21.93,5.08c0,0,10.07-6.83,2.8-18.03"/><path class="cls-1" d="m191.61,32.3s7.1,13,21.93,5.08c0,0,10.07-6.83,2.8-18.03"/></svg>