<svg width="80" height="80" viewBox="0 0 80 80" fill="none" xmlns="http://www.w3.org/2000/svg">
<circle cx="40" cy="40" r="40" fill="white"/>
<g clip-path="url(#clip0_188_43)">
<path d="M46.2525 36.5046H40.3502C39.7709 36.5046 39.2427 36.0321 39.2427 35.3998C39.2427 34.7674 39.7692 34.2949 40.3502 34.2949H45.041C45.5675 35.0309 45.9901 35.7669 46.2525 36.5028V36.5046Z" fill="black"/>
<path d="M58.7436 57.8494H53.2093V46.0722C52.8924 46.1248 52.5772 46.1775 52.2602 46.1775C51.8394 46.1775 51.4168 46.1249 50.996 46.0195V57.8494H31.3893C30.7572 57.8494 30.2818 58.3219 30.2818 58.9542V60.5315C30.2818 61.74 29.2799 62.7394 28.0685 62.7394C26.857 62.7394 25.8551 61.74 25.8551 60.5315V32.0344C25.8551 31.4038 25.6966 30.7205 25.3815 30.1409L25.223 29.8774H42.8804C42.7219 29.1414 42.7219 28.4055 42.7219 27.6695H21.4267C19.002 27.6695 17 29.6666 17 32.0853V34.0824C17 34.713 17.5265 35.1872 18.1076 35.1872H23.6418V60.5825C23.6418 63.0011 25.6438 64.9982 28.0685 64.9982H55.4227C57.8473 64.9982 59.8493 63.0521 59.8493 60.5825V59.0051C59.8493 58.3746 59.3757 57.8476 58.7418 57.8476L58.7436 57.8494Z" fill="black"/>
<path d="M46.5675 42.2342H40.3483C39.769 42.2342 39.2407 41.7091 39.2407 41.1294C39.2407 40.4988 39.7672 40.0246 40.3483 40.0246H46.5146V41.6546C46.5146 41.8654 46.5146 42.0744 46.5675 42.2325V42.2342Z" fill="black"/>
<path d="M46.8316 45.8104H40.3483C39.7161 45.8104 39.2407 46.2829 39.2407 46.9153C39.2407 47.5476 39.7144 48.0201 40.3483 48.0201H46.8316C47.4637 48.0201 47.9391 47.5476 47.9391 46.9153C47.9391 46.2829 47.4655 45.8104 46.8316 45.8104Z" fill="black"/>
<path d="M46.8316 51.5401H40.3483C39.7161 51.5401 39.2407 52.0126 39.2407 52.6449C39.2407 53.2772 39.7144 53.7497 40.3483 53.7497H46.8316C47.4637 53.7497 47.9391 53.2772 47.9391 52.6449C47.9391 52.0126 47.4655 51.5401 46.8316 51.5401Z" fill="black"/>
<path d="M35.869 34.0859H29.9668C29.2819 34.0859 28.7554 34.6111 28.7554 35.2944V41.2348C28.7554 41.9181 29.2819 42.4433 29.9668 42.4433H35.9219C36.6068 42.4433 37.1333 41.9181 37.1333 41.2348V35.2944C37.1333 34.6111 36.554 34.0859 35.869 34.0859ZM35.2369 37.6604L32.8651 40.0263C32.7066 40.1844 32.4953 40.2371 32.2858 40.2371C32.0763 40.2371 31.865 40.1317 31.7065 40.0263L30.5461 38.8688C30.2292 38.5527 30.2292 38.0275 30.5461 37.7113C30.8631 37.3951 31.3895 37.3951 31.7065 37.7113L32.2858 38.2892L34.0783 36.5011C34.3952 36.1849 34.9217 36.1849 35.2387 36.5011C35.3972 36.6592 35.45 36.87 35.45 37.079C35.5028 37.2898 35.3972 37.4988 35.2387 37.6569L35.2369 37.6604Z" fill="black"/>
<path d="M35.869 45.5997H29.9668C29.2819 45.5997 28.7554 46.1248 28.7554 46.8081V52.7485C28.7554 53.4318 29.2819 53.957 29.9668 53.957H35.9219C36.6068 53.957 37.1333 53.4318 37.1333 52.7485V46.8081C37.1333 46.1248 36.554 45.5997 35.869 45.5997ZM35.2369 49.1741L32.9179 51.5401C32.7595 51.6982 32.5482 51.7509 32.3386 51.7509C32.1291 51.7509 31.9178 51.6455 31.7593 51.5401L30.5989 50.3826C30.282 50.0664 30.282 49.5412 30.5989 49.225C30.9159 48.9089 31.4424 48.9089 31.7593 49.225L32.3386 49.8029L34.1311 48.0148C34.4481 47.6987 34.9746 47.6987 35.2915 48.0148C35.45 48.1729 35.5028 48.3837 35.5028 48.5927C35.5028 48.8017 35.3972 49.0125 35.2387 49.1706L35.2369 49.1741Z" fill="black"/>
<path d="M55.6869 38.9215H48.8356C48.6243 38.9215 48.4658 39.0796 48.4658 39.2904V41.6564C48.4658 41.8671 48.6243 42.0252 48.8356 42.0252H49.6262C49.8375 43.2864 50.9433 44.2331 52.2621 44.2331C53.581 44.2331 54.6868 43.2864 54.8981 42.0252H55.6887C55.9 42.0252 56.0584 41.8671 56.0584 41.6564V39.2904C56.0584 39.0796 55.9 38.9215 55.6887 38.9215H55.6869Z" fill="#E30289"/>
<path d="M52.2605 18.9433C52.7342 18.9433 53.1568 18.5235 53.1568 18.0493V15.894C53.1568 15.4216 52.7359 15 52.2605 15C51.7851 15 51.3643 15.4198 51.3643 15.894V18.1019C51.3643 18.5744 51.7851 18.9433 52.2605 18.9433Z" fill="#E30289"/>
<path d="M46.4108 19.8374C46.5693 20.1008 46.8845 20.2572 47.2014 20.2572C47.3599 20.2572 47.5183 20.2045 47.6222 20.1518C48.0431 19.8883 48.2015 19.3631 47.9392 18.9433L46.8316 17.0498C46.5675 16.63 46.041 16.4719 45.6202 16.7336C45.1994 16.9971 45.0409 17.5223 45.3032 17.9421L46.4108 19.8356V19.8374Z" fill="#E30289"/>
<path d="M43.9335 22.3614L42.0354 21.2566C41.6146 20.9931 41.0863 21.1512 40.824 21.5728C40.5598 21.9926 40.7183 22.5195 41.1409 22.7812L43.0391 23.886C43.1975 23.9914 43.356 23.9914 43.4599 23.9914C43.7768 23.9914 44.0392 23.8333 44.2505 23.5716C44.5146 23.1518 44.3561 22.5722 43.9335 22.3632V22.3614Z" fill="#E30289"/>
<path d="M61.0099 23.9914C61.1683 23.9914 61.3268 23.9387 61.4307 23.886L63.3289 22.7812C63.7497 22.5177 63.9082 21.9926 63.6458 21.5728C63.3817 21.153 62.8552 20.9949 62.4344 21.2566L60.5362 22.3614C60.1154 22.6249 59.9569 23.1501 60.2193 23.5699C60.4306 23.8333 60.6929 23.9897 61.0099 23.9897V23.9914Z" fill="#E30289"/>
<path d="M56.8454 20.2045C57.0039 20.3098 57.1624 20.3098 57.2663 20.3098C57.5832 20.3098 57.8456 20.1518 58.0569 19.89L59.1644 17.9966C59.4286 17.5768 59.2701 17.0498 58.8475 16.7881C58.4267 16.5246 57.8984 16.6827 57.636 17.1043L56.5285 18.9978C56.3172 19.4176 56.4228 19.9445 56.8454 20.2062V20.2045Z" fill="#E30289"/>
<path d="M52.6304 20.626C50.1529 20.5206 47.8339 21.5728 46.3055 23.5699C45.4621 24.622 44.9884 25.8832 44.83 27.2497C44.6187 29.2995 45.1469 31.2457 46.4112 32.823C47.3074 33.9805 47.9395 35.0836 48.3093 36.1884L48.4678 36.6609C48.5206 36.8717 48.7319 37.0298 48.9943 37.0298H55.7399C55.9512 37.0298 56.1608 36.8717 56.2664 36.6609L56.4249 36.1884C56.7947 35.0836 57.374 34.0332 58.2702 32.9284C58.9552 32.0344 59.4817 31.0876 59.7458 29.9845C60.7477 25.1999 57.1627 20.8368 52.6304 20.626ZM57.0042 29.354C56.8986 29.7738 56.5305 30.0372 56.108 30.0372H55.8967C55.423 29.9318 55.1061 29.4067 55.2645 28.9324C55.5815 27.6713 55.0532 26.7772 54.738 26.3557C54.1587 25.567 53.3153 25.1472 52.4191 25.0945C51.9454 25.0945 51.5228 24.6747 51.5756 24.1478C51.5756 23.6753 51.9965 23.2537 52.5247 23.3064C54.0003 23.3591 55.3173 24.0951 56.2136 25.3035C56.6873 25.9341 57.4779 27.406 57.0042 29.3522V29.354Z" fill="#E30289"/>
</g>
<defs>
<clipPath id="clip0_188_43">
<rect width="46.7742" height="50" fill="white" transform="translate(17 15)"/>
</clipPath>
</defs>
</svg>
