<svg width="80" height="80" viewBox="0 0 80 80" fill="none" xmlns="http://www.w3.org/2000/svg">
<circle cx="40" cy="40" r="40" fill="white"/>
<g clip-path="url(#clip0_188_42)">
<path d="M45.0318 53.0447C44.3011 53.0447 43.7104 53.6369 43.7104 54.3676C43.7104 55.0983 44.3027 55.689 45.0318 55.689C45.7609 55.689 46.3531 55.0967 46.3531 54.3676C46.3531 53.6386 45.7609 53.0447 45.0318 53.0447Z" fill="black"/>
<path d="M34.9728 53.0447C34.2422 53.0447 33.6499 53.6369 33.6499 54.3676C33.6499 55.0983 34.2422 55.689 34.9728 55.689C35.7035 55.689 36.2942 55.0967 36.2942 54.3676C36.2942 53.6386 35.7019 53.0447 34.9728 53.0447Z" fill="black"/>
<path d="M40.0025 53.0447C39.2718 53.0447 38.6812 53.6369 38.6812 54.3676C38.6812 55.0983 39.2734 55.689 40.0025 55.689C40.7316 55.689 41.3254 55.0967 41.3254 54.3676C41.3254 53.6386 40.7332 53.0447 40.0025 53.0447Z" fill="black"/>
<path d="M35.2176 36.0411C35.5829 35.4086 35.3656 34.6007 34.7331 34.2353C34.1006 33.87 33.2927 34.0873 32.9274 34.7198C32.562 35.3523 32.7793 36.1602 33.4118 36.5255C34.0443 36.8909 34.8522 36.6736 35.2176 36.0411Z" fill="black"/>
<path d="M28.384 45.2357C29.0165 45.6011 29.8244 45.3838 30.1897 44.7513C30.5551 44.1188 30.3378 43.3109 29.7053 42.9455C29.0728 42.5802 28.2649 42.7975 27.8995 43.43C27.5342 44.0625 27.7515 44.8704 28.384 45.2357Z" fill="black"/>
<path d="M32.2195 38.5904C31.587 38.2251 30.779 38.4424 30.4137 39.0749C30.0484 39.7074 30.2656 40.5153 30.8981 40.8806C31.5306 41.246 32.3386 41.0287 32.7039 40.3962C33.0692 39.7637 32.852 38.9558 32.2195 38.5904Z" fill="black"/>
<path d="M49.8297 44.7256C50.195 45.3581 51.003 45.5753 51.6355 45.21C52.268 44.8447 52.4853 44.0367 52.1199 43.4042C51.7546 42.7717 50.9466 42.5561 50.3141 42.9198C49.6816 43.2835 49.4644 44.0931 49.8297 44.7256Z" fill="black"/>
<path d="M47.0921 34.6924C46.7267 34.0599 45.9188 33.8442 45.2863 34.208C44.6538 34.5733 44.4365 35.3812 44.8019 36.0137C45.1672 36.6462 45.9751 36.8619 46.6076 36.4982C47.2402 36.1328 47.4574 35.3249 47.0921 34.6924Z" fill="black"/>
<path d="M49.6058 39.0491C49.2404 38.4166 48.4325 38.1993 47.8 38.5647C47.1675 38.93 46.9502 39.7379 47.3155 40.3705C47.6809 41.003 48.4888 41.2186 49.1213 40.8549C49.7538 40.4912 49.9711 39.6816 49.6058 39.0491Z" fill="black"/>
<path d="M40.0139 33.1795C44.4752 33.1795 48.1045 29.5503 48.1045 25.089C48.1045 20.6276 44.4752 17 40.0139 17C35.5526 17 31.9233 20.6293 31.9233 25.0906C31.9233 29.5519 35.5526 33.1812 40.0139 33.1812V33.1795ZM40.0139 31.113C38.3385 31.113 36.8208 30.4242 35.728 29.3153V28.8985C35.728 27.5997 36.5714 26.5037 37.7334 26.0981C38.382 26.5439 39.1706 26.8127 40.0139 26.8127C40.8573 26.8127 41.6459 26.5455 42.2945 26.0981C43.4549 26.5037 44.2918 27.5997 44.2918 28.8985V29.325C43.199 30.429 41.6861 31.1147 40.0139 31.1147V31.113ZM40.0155 20.1802C41.4431 20.1802 42.6003 21.3374 42.6003 22.765C42.6003 24.1925 41.4431 25.3497 40.0155 25.3497C38.588 25.3497 37.4292 24.1925 37.4292 22.765C37.4292 21.3374 38.5864 20.1802 40.0155 20.1802Z" fill="black"/>
<path d="M56.9094 46.277C52.4481 46.277 48.8188 49.9063 48.8188 54.3676C48.8188 58.8289 52.4481 62.4582 56.9094 62.4582C61.3707 62.4582 65 58.8289 65 54.3676C65 49.9063 61.3707 46.277 56.9094 46.277ZM59.4958 52.0436C59.4958 53.4712 58.3386 54.6284 56.911 54.6284C55.4835 54.6284 54.3247 53.4712 54.3247 52.0436C54.3247 50.6161 55.4819 49.4589 56.911 49.4589C58.3402 49.4589 59.4958 50.6161 59.4958 52.0436ZM56.9094 60.3901C55.234 60.3901 53.7163 59.7013 52.6235 58.5924V58.1755C52.6235 56.8767 53.4685 55.7807 54.6289 55.3751C55.2791 55.8225 56.0661 56.0897 56.9094 56.0897C57.7528 56.0897 58.5414 55.8225 59.19 55.3751C60.3504 55.7807 61.1873 56.8767 61.1873 58.1755V58.602C60.0945 59.7061 58.5816 60.3917 56.9094 60.3917V60.3901Z" fill="black"/>
<path d="M23.0906 46.277C18.6293 46.277 15 49.9063 15 54.3676C15 58.8289 18.6293 62.4582 23.0906 62.4582C27.5519 62.4582 31.1812 58.8289 31.1812 54.3676C31.1812 49.9063 27.5519 46.277 23.0906 46.277ZM23.0906 49.4589C24.5181 49.4589 25.6753 50.6161 25.6753 52.0436C25.6753 53.4712 24.5181 54.6284 23.0906 54.6284C21.663 54.6284 20.5042 53.4712 20.5042 52.0436C20.5042 50.6161 21.6614 49.4589 23.0906 49.4589ZM23.0906 60.3901C21.4152 60.3901 19.8975 59.7013 18.8047 58.5924V58.1755C18.8047 56.8767 19.6496 55.7807 20.81 55.3751C21.4602 55.8225 22.2472 56.0897 23.0906 56.0897C23.9339 56.0897 24.7225 55.8225 25.3711 55.3751C26.5315 55.7807 27.3684 56.8767 27.3684 58.1755V58.602C26.2756 59.7061 24.7628 60.3917 23.0906 60.3917V60.3901Z" fill="black"/>
<path d="M40.0009 38.5985C36.5036 38.5985 33.6694 41.4343 33.6694 44.93C33.6694 48.4256 36.5036 51.2614 40.0009 51.2614C43.4982 51.2614 46.3324 48.4272 46.3324 44.93C46.3324 41.4327 43.4982 38.5985 40.0009 38.5985ZM43.2375 44.2122L39.8303 47.6193C39.6388 47.8108 39.3732 47.9219 39.1012 47.9219C38.8292 47.9219 38.5637 47.8124 38.3722 47.6193L36.597 45.8441C36.1946 45.4418 36.1946 44.7867 36.597 44.386C36.7917 44.1912 37.0508 44.0834 37.326 44.0834C37.6013 44.0834 37.8604 44.1912 38.0551 44.386L39.1012 45.4321L41.7793 42.754C41.9741 42.5593 42.2332 42.4514 42.5084 42.4514C42.7836 42.4514 43.0427 42.5593 43.2375 42.7524C43.6398 43.1548 43.6398 43.8098 43.2375 44.2122Z" fill="#E30289"/>
</g>
<defs>
<clipPath id="clip0_188_42">
<rect width="50" height="45.4566" fill="white" transform="translate(15 17)"/>
</clipPath>
</defs>
</svg>
