<svg width="80" height="80" viewBox="0 0 80 80" fill="none" xmlns="http://www.w3.org/2000/svg">
<circle cx="40" cy="40" r="40" fill="white"/>
<g clip-path="url(#clip0_188_44)">
<path d="M40.011 17C39.0419 17 38.2573 17.7845 38.2573 18.7537V23.1028C38.2573 24.0719 39.0419 24.8565 40.011 24.8565C40.9801 24.8565 41.7646 24.0719 41.7646 23.1028V18.7537C41.7646 17.7845 40.9801 17 40.011 17Z" fill="#E30289"/>
<path d="M32.0002 24.8501C32.2596 25.5614 32.9328 26.0054 33.6489 26.0054C33.8478 26.0054 34.0515 25.9704 34.2488 25.8988C35.159 25.5678 35.6285 24.5605 35.2975 23.6502L33.8096 19.5637C33.4786 18.6534 32.4697 18.1871 31.561 18.515C30.6508 18.846 30.1813 19.8533 30.5123 20.7635L32.0002 24.8501Z" fill="#E30289"/>
<path d="M45.751 25.8717C45.9483 25.9434 46.152 25.9784 46.3509 25.9784C47.067 25.9784 47.7401 25.536 47.9995 24.823L49.4874 20.7365C49.8184 19.8262 49.349 18.8189 48.4387 18.4879C47.5317 18.1601 46.5212 18.6264 46.1902 19.5366L44.7023 23.6232C44.3713 24.5334 44.8407 25.5407 45.751 25.8717Z" fill="#E30289"/>
<path d="M24.486 43.2858C27.6496 43.2858 30.2133 40.7221 30.2133 37.5586C30.2133 34.395 27.6496 31.8313 24.486 31.8313C21.3224 31.8313 18.7588 34.395 18.7588 37.5586C18.7588 40.7221 21.3224 43.2858 24.486 43.2858Z" fill="black"/>
<path d="M35.627 29.3568C34.2552 29.2868 33.1222 30.3752 33.1222 31.7311V33.1903C33.2097 38.2953 32.1038 41.9491 29.9284 43.7568C29.6451 43.9924 29.3587 44.212 29.0754 44.4188C27.761 45.3004 26.184 45.8192 24.4844 45.8192C22.5048 45.8192 20.6859 45.1174 19.2616 43.951C16.8857 45.0347 15 47.0334 15 50.3816V56.957C15 57.6174 15.5363 58.1537 16.1967 58.1537H32.7753C33.4357 58.1537 33.9704 57.6174 33.9704 56.957V50.3816C33.9704 50.1715 33.9624 49.9678 33.9497 49.7689C33.8272 48.0726 34.198 46.3873 35.1416 44.9726C37.0433 42.1257 37.9631 38.1601 37.8771 33.1474V31.8615C37.8771 30.5742 36.9128 29.4204 35.6286 29.3536L35.627 29.3568Z" fill="black"/>
<path d="M55.5139 43.2858C58.6775 43.2858 61.2411 40.7221 61.2411 37.5586C61.2411 34.395 58.6775 31.8313 55.5139 31.8313C52.3503 31.8313 49.7866 34.395 49.7866 37.5586C49.7866 40.7221 52.3503 43.2858 55.5139 43.2858Z" fill="black"/>
<path d="M60.7386 43.9542C59.3143 45.1206 57.4954 45.8224 55.5158 45.8224C53.8178 45.8224 52.2392 45.3036 50.9264 44.422C50.6415 44.2152 50.3551 43.9955 50.0734 43.76C47.8964 41.9523 46.7921 38.2985 46.8796 33.1935V31.7342C46.8796 30.3784 45.7465 29.2899 44.3748 29.36C43.089 29.4284 42.1246 30.5805 42.1246 31.8679V33.1537C42.0387 38.1665 42.9585 42.1305 44.8602 44.979C45.8054 46.3953 46.1762 48.0789 46.0521 49.7753C46.0378 49.9742 46.0298 50.1779 46.0298 50.388V56.9634C46.0298 57.6238 46.5645 58.1601 47.2249 58.1601H63.8035C64.4639 58.1601 64.9986 57.6238 64.9986 56.9634V50.388C64.9986 47.0398 63.1129 45.0411 60.737 43.9574L60.7386 43.9542Z" fill="black"/>
</g>
<defs>
<clipPath id="clip0_188_44">
<rect width="50" height="41.1569" fill="white" transform="translate(15 17)"/>
</clipPath>
</defs>
</svg>
