<svg width="184" height="184" viewBox="0 0 184 184" fill="none" xmlns="http://www.w3.org/2000/svg">
<path d="M126.716 59.7663C136.814 70.4079 129.675 93.5776 110.77 111.517C91.8647 129.457 68.353 135.373 58.2547 124.732C48.1564 114.09 55.2957 90.9204 74.2006 72.9807C93.1056 55.041 116.617 49.1247 126.716 59.7663Z" fill="#E30289"/>
<path d="M123.857 55.2952C135.421 67.4822 136.132 85.5834 125.445 95.7254C114.757 105.867 96.7179 104.21 85.1531 92.0225C73.5883 79.8355 72.8773 61.7343 83.565 51.5923C94.2526 41.4503 112.292 43.1081 123.857 55.2952Z" fill="#E30289"/>
<ellipse cx="92.222" cy="93.8502" rx="45.7456" ry="23.3889" transform="rotate(-16.0973 92.222 93.8502)" fill="#EEEEEE"/>
<path fill-rule="evenodd" clip-rule="evenodd" d="M119.528 117.89C128.998 115.16 135.533 109.86 137.337 102.823C139.141 95.7857 135.963 87.9948 128.974 81.0453C122.004 74.1147 111.376 68.1752 98.7306 64.9333C86.0848 61.6913 73.9101 61.7848 64.4657 64.5073C54.9955 67.2373 48.4609 72.5382 46.6568 79.5751C44.8528 86.612 48.0311 94.403 55.0197 101.352C61.9894 108.283 72.6174 114.223 85.2632 117.464C97.909 120.706 110.084 120.613 119.528 117.89ZM85.0149 118.433C110.59 124.99 134.45 118.112 138.306 103.071C142.162 88.0299 124.555 70.5214 98.9789 63.9646C73.4033 57.4078 49.5442 64.2857 45.6881 79.3268C41.8321 94.3678 59.4393 111.876 85.0149 118.433Z" fill="#A8A8A8"/>
<circle cx="92" cy="91" r="40" fill="white"/>
<path d="M90.0403 100.397L83.3488 112.342C82.854 113.21 81.5675 113.15 81.1632 112.222L79.0817 107.506L73.9769 108.209C72.9737 108.344 72.2554 107.281 72.7502 106.397L79.6208 94.1233L79.7403 94.8859C80.0388 96.7132 81.5812 98.0304 83.4221 98.0304C83.6166 98.0304 83.8111 98.015 84.0056 97.986L85.2187 97.8069L85.8926 98.8254C86.5819 99.8884 87.7489 100.532 89.0217 100.532C89.3663 100.532 89.711 100.487 90.0403 100.397Z" fill="#E30289"/>
<path d="M110.188 108.211L105.083 107.508L103.002 112.224C102.597 113.152 101.311 113.212 100.816 112.343L94.1248 100.399C94.454 100.489 94.7987 100.533 95.1433 100.533C96.4161 100.533 97.5831 99.8901 98.2724 98.8271L98.931 97.8086L100.142 97.9877C100.352 98.0184 100.547 98.0321 100.741 98.0321C102.582 98.0321 104.124 96.7149 104.423 94.8876L104.542 94.125L111.413 106.399C111.908 107.281 111.188 108.346 110.186 108.211H110.188Z" fill="#E30289"/>
<circle cx="92.3042" cy="83.1343" r="9" fill="white"/>
<path d="M108.091 83.2326L106.484 81.3624C106.254 81.0942 106.211 80.7235 106.378 80.4157L107.537 78.2723C107.769 77.842 107.588 77.3173 107.132 77.0972L104.857 76.0048C104.531 75.8476 104.334 75.5248 104.353 75.1806L104.487 72.779C104.513 72.2974 104.121 71.8853 103.609 71.8604L101.06 71.7346C100.695 71.7164 100.375 71.498 100.244 71.1752L99.3285 68.9292C99.1458 68.479 98.6084 68.254 98.1307 68.4261L95.7474 69.2884C95.4049 69.4125 95.0185 69.3347 94.7604 69.0914L92.9549 67.39C92.5931 67.049 92.0065 67.049 91.6447 67.39L89.8392 69.0914C89.5811 69.3347 89.1929 69.4125 88.8522 69.29L86.4689 68.4277C85.9912 68.2556 85.4555 68.4807 85.2711 68.9309L84.3561 71.1769C84.2244 71.4996 83.9047 71.7181 83.5394 71.7363L80.9911 71.8621C80.48 71.8869 80.0866 72.299 80.1147 72.7807L80.2481 75.1822C80.2675 75.5265 80.069 75.8492 79.7441 76.0065L77.4697 77.0988C77.0131 77.3173 76.8322 77.8436 77.064 78.2739L78.2231 80.4173C78.39 80.7252 78.3478 81.0959 78.1178 81.364L76.5108 83.2343C76.1894 83.61 76.2491 84.1595 76.6477 84.4624L78.6324 85.9768C78.9169 86.1936 79.0398 86.5495 78.945 86.8821L78.2846 89.2059C78.1529 89.6726 78.4462 90.151 78.9397 90.2751L81.4055 90.8974C81.7586 90.9868 82.0238 91.2632 82.0817 91.6042L82.4804 93.9809C82.5612 94.4575 83.0354 94.782 83.5412 94.7075L86.0632 94.3318C86.425 94.2771 86.7868 94.4294 86.9853 94.7191L88.3763 96.7366C88.6555 97.1405 89.2298 97.2563 89.6583 96.9932L91.7993 95.6823C92.1066 95.4936 92.5018 95.4936 92.8091 95.6823L94.9501 96.9932C95.3786 97.2563 95.9529 97.1405 96.2321 96.7366L97.6231 94.7191C97.8233 94.4294 98.1834 94.2788 98.5452 94.3318L101.067 94.7075C101.573 94.7836 102.047 94.4575 102.128 93.9809L102.527 91.6042C102.585 91.2632 102.848 90.9868 103.203 90.8974L105.669 90.2751C106.164 90.151 106.457 89.671 106.324 89.2059L105.663 86.8821C105.569 86.5495 105.692 86.1936 105.976 85.9768L107.961 84.4624C108.359 84.1595 108.419 83.6083 108.098 83.2343L108.091 83.2326ZM99.5533 79.7288L90.9246 87.8603C90.2239 88.5207 89.0893 88.5207 88.3886 87.8603L84.609 84.2985C83.9083 83.6381 83.9083 82.5689 84.609 81.9086C85.3098 81.2482 86.4443 81.2482 87.1451 81.9086L89.6566 84.2754L97.0172 77.3388C97.718 76.6784 98.8525 76.6784 99.5533 77.3388C100.254 77.9992 100.254 79.0684 99.5533 79.7288Z" fill="#41403F"/>
<path d="M147.808 77.362C147.702 77.6005 147.515 77.7667 147.249 77.8606C146.993 77.9503 146.748 77.9349 146.516 77.8146C146.284 77.6942 146.121 77.5004 146.027 77.2332L144.27 72.2282C144.176 71.961 144.188 71.7067 144.304 71.4639C144.42 71.2212 144.612 71.0537 144.879 70.9604L153.776 67.8488C154.043 67.7555 154.298 67.7697 154.543 67.8913C154.787 68.0129 154.96 68.2176 155.061 68.5055C155.151 68.7617 155.139 69.0143 155.024 69.2619C154.909 69.5095 154.719 69.6799 154.452 69.7732L146.418 72.5837L147.828 76.6031C147.922 76.8703 147.916 77.1229 147.81 77.362L147.808 77.362Z" fill="#D2D2D2"/>
<path d="M150.955 88.5981C149.995 88.2604 149.193 87.7147 148.549 86.9608C147.904 86.2069 147.502 85.3081 147.34 84.265C147.179 83.2219 147.293 82.2445 147.68 81.3323C148.067 80.4201 148.668 79.6623 149.483 79.0595C150.297 78.4566 151.237 78.0736 152.301 77.911C153.365 77.7485 154.376 77.833 155.335 78.1646C156.294 78.4962 157.096 79.0395 157.74 79.794C158.385 80.5479 158.787 81.4467 158.948 82.4898C159.109 83.5323 158.996 84.5102 158.608 85.4224C158.221 86.3346 157.621 87.0943 156.807 87.7038C155.993 88.3121 155.054 88.6982 153.99 88.8607C152.926 89.0232 151.914 88.9357 150.955 88.5987L150.955 88.5981ZM155.559 86.0297C156.1 85.6501 156.502 85.1762 156.767 84.607C157.03 84.0383 157.113 83.4319 157.014 82.7865C156.912 82.1307 156.653 81.5732 156.236 81.1145C155.818 80.6559 155.292 80.3289 154.657 80.1341C154.022 79.9394 153.345 79.8976 152.625 80.0076C151.905 80.1176 151.27 80.3606 150.724 80.7359C150.176 81.1107 149.773 81.5797 149.513 82.1423C149.254 82.7043 149.174 83.3138 149.275 83.9695C149.375 84.6149 149.636 85.1688 150.059 85.6323C150.483 86.0959 151.01 86.4277 151.64 86.6285C152.271 86.8293 152.946 86.8747 153.666 86.7642C154.386 86.6542 155.017 86.4088 155.558 86.0291L155.559 86.0297Z" fill="#D2D2D2"/>
<path d="M153.702 100.488C153.502 100.662 153.261 100.742 152.979 100.727L149.525 100.542C149.145 100.522 148.861 100.338 148.672 99.9897C148.065 98.8898 147.795 97.7052 147.861 96.434C147.916 95.3588 148.232 94.3798 148.806 93.4957C149.38 92.6116 150.13 91.9279 151.053 91.4441C151.977 90.9603 152.971 90.7467 154.036 90.8034C155.1 90.8606 156.066 91.1788 156.934 91.7592C157.802 92.339 158.476 93.0996 158.955 94.0397C159.434 94.9799 159.645 95.9884 159.589 97.063C159.533 98.1375 159.267 99.0607 158.791 99.8295C158.696 99.9879 158.575 100.104 158.429 100.178C158.284 100.252 158.129 100.284 157.967 100.276C157.695 100.261 157.464 100.159 157.272 99.9693C157.081 99.7791 156.991 99.5538 157.005 99.2934C157.013 99.1307 157.066 98.954 157.164 98.7629C157.444 98.19 157.6 97.5885 157.633 96.9589C157.67 96.2638 157.527 95.6135 157.205 95.0086C156.882 94.4031 156.431 93.9135 155.852 93.5397C155.273 93.1653 154.63 92.9596 153.924 92.9221C153.218 92.8845 152.558 93.02 151.942 93.3304C151.327 93.6408 150.828 94.0794 150.444 94.6467C150.06 95.2141 149.85 95.8453 149.814 96.5404C149.798 96.8446 149.808 97.1718 149.844 97.5221C149.88 97.8724 149.934 98.1803 150.008 98.4456L152.126 98.5589L152.206 97.0278C152.221 96.7455 152.325 96.5137 152.52 96.3335C152.715 96.1534 152.953 96.071 153.236 96.0858C153.518 96.1011 153.746 96.2082 153.921 96.4086C154.096 96.6085 154.176 96.849 154.162 97.1319L154.022 99.8036C154.007 100.086 153.9 100.314 153.7 100.489L153.702 100.488Z" fill="#D2D2D2"/>
<path d="M147.312 103.745C147.164 103.506 147.116 103.253 147.167 102.986C147.222 102.698 147.362 102.478 147.584 102.328C147.806 102.177 148.057 102.129 148.335 102.182L157.595 103.971C157.873 104.025 158.087 104.166 158.236 104.394C158.386 104.622 158.433 104.885 158.375 105.184C158.324 105.451 158.186 105.663 157.963 105.819C157.739 105.975 157.488 106.026 157.21 105.973L147.95 104.184C147.672 104.131 147.459 103.984 147.311 103.745L147.312 103.745Z" fill="#D2D2D2"/>
<path d="M153.504 117.288C153.287 117.216 153.101 117.069 152.945 116.845C152.782 116.608 152.743 116.361 152.829 116.103C152.886 115.927 152.991 115.767 153.142 115.622C153.545 115.194 153.844 114.687 154.038 114.098C154.276 113.375 154.329 112.694 154.202 112.057C154.074 111.419 153.78 110.865 153.322 110.393C152.864 109.921 152.279 109.568 151.567 109.332C150.347 108.929 149.315 108.952 148.469 109.4C147.623 109.848 147.026 110.604 146.676 111.667C146.469 112.297 146.408 112.883 146.493 113.426C146.514 113.639 146.502 113.818 146.454 113.963C146.366 114.231 146.177 114.421 145.889 114.532C145.642 114.622 145.404 114.629 145.178 114.555C145.012 114.5 144.876 114.409 144.769 114.282C144.662 114.155 144.597 114.002 144.577 113.824C144.439 112.885 144.519 111.962 144.817 111.053C145.15 110.041 145.67 109.182 146.377 108.477C147.084 107.771 147.939 107.304 148.943 107.074C149.946 106.844 151.041 106.925 152.23 107.316C153.283 107.664 154.15 108.216 154.829 108.973C155.508 109.729 155.943 110.608 156.135 111.61C156.327 112.612 156.248 113.645 155.898 114.709C155.597 115.628 155.115 116.413 154.454 117.066C154.183 117.331 153.867 117.405 153.506 117.285L153.504 117.288Z" fill="#D2D2D2"/>
<path d="M142.756 117.019C142.674 116.751 142.692 116.494 142.809 116.249C142.935 115.984 143.125 115.807 143.379 115.718C143.633 115.629 143.888 115.645 144.143 115.768L152.649 119.848C152.904 119.971 153.074 120.161 153.162 120.419C153.25 120.678 153.227 120.945 153.096 121.22C152.979 121.464 152.792 121.634 152.536 121.729C152.28 121.823 152.024 121.809 151.769 121.686L143.263 117.606C143.008 117.483 142.839 117.288 142.757 117.02L142.756 117.019Z" fill="#D2D2D2"/>
<path d="M138.957 125.994C138.694 126.051 138.457 126.014 138.246 125.879C138.017 125.732 137.88 125.532 137.835 125.279C137.791 125.024 137.845 124.778 137.996 124.54L140.932 119.935C141.084 119.697 141.292 119.549 141.554 119.491C141.816 119.433 142.067 119.48 142.305 119.632L150.259 124.708C150.497 124.86 150.645 125.068 150.704 125.331C150.762 125.593 150.716 125.844 150.564 126.083L147.628 130.688C147.476 130.926 147.274 131.077 147.019 131.141C146.766 131.204 146.52 131.16 146.281 131.008C146.052 130.861 145.915 130.665 145.873 130.419C145.83 130.172 145.888 129.925 146.045 129.677L148.42 125.952L146.081 124.458L144.1 127.565C143.949 127.803 143.746 127.955 143.492 128.018C143.239 128.082 142.992 128.038 142.753 127.885C142.524 127.739 142.388 127.543 142.345 127.296C142.302 127.05 142.36 126.803 142.518 126.555L144.498 123.448L141.953 121.824L139.578 125.549C139.426 125.787 139.219 125.935 138.956 125.994L138.957 125.994Z" fill="#D2D2D2"/>
<path d="M133.109 132.814C132.849 132.836 132.612 132.753 132.402 132.565C132.199 132.384 132.093 132.162 132.086 131.901C132.079 131.64 132.169 131.404 132.357 131.193L135.884 127.24C136.072 127.029 136.3 126.917 136.569 126.902C136.838 126.887 137.078 126.973 137.289 127.161L144.328 133.444C144.539 133.633 144.65 133.864 144.662 134.137C144.674 134.409 144.578 134.659 144.376 134.887C144.196 135.09 143.969 135.201 143.696 135.22C143.424 135.239 143.182 135.154 142.971 134.965L136.614 129.291L133.781 132.465C133.593 132.677 133.368 132.793 133.108 132.815L133.109 132.814Z" fill="#D2D2D2"/>
<path d="M129.489 134.007C130.086 133.777 130.738 133.677 131.447 133.706C131.839 133.724 132.135 133.856 132.333 134.102C132.49 134.297 132.556 134.526 132.533 134.79C132.509 135.054 132.396 135.268 132.193 135.432C132.033 135.562 131.848 135.627 131.639 135.628C131.075 135.622 130.581 135.686 130.157 135.818C129.733 135.95 129.302 136.195 128.862 136.549C128.389 136.932 128.066 137.367 127.895 137.855C127.724 138.344 127.765 138.744 128.018 139.057C128.326 139.438 128.737 139.599 129.249 139.542C129.762 139.484 130.43 139.213 131.254 138.729C133.324 137.504 134.948 137.619 136.125 139.075C136.556 139.609 136.791 140.184 136.83 140.804C136.869 141.423 136.732 142.031 136.417 142.627C136.103 143.224 135.65 143.761 135.059 144.24C134.526 144.67 133.96 144.994 133.361 145.213C132.762 145.431 132.2 145.536 131.675 145.526C131.273 145.529 130.968 145.404 130.764 145.151C130.606 144.956 130.539 144.726 130.563 144.463C130.587 144.198 130.697 143.988 130.891 143.831C131.017 143.728 131.163 143.674 131.325 143.668C131.689 143.668 132.127 143.584 132.64 143.414C133.152 143.245 133.566 143.033 133.879 142.781C134.411 142.35 134.743 141.918 134.873 141.483C135.004 141.049 134.94 140.671 134.679 140.349C134.385 139.985 134.013 139.832 133.562 139.888C133.111 139.944 132.517 140.173 131.779 140.574C130.949 141.034 130.237 141.341 129.64 141.494C129.044 141.647 128.497 141.641 128.001 141.476C127.504 141.311 127.027 140.945 126.568 140.378C126.137 139.845 125.909 139.256 125.884 138.611C125.859 137.967 126.009 137.335 126.333 136.716C126.657 136.098 127.107 135.556 127.682 135.092C128.29 134.6 128.893 134.239 129.489 134.009L129.489 134.007Z" fill="#D2D2D2"/>
<path d="M113.899 145.256C113.651 145.173 113.467 145.004 113.348 144.747C113.233 144.5 113.224 144.256 113.321 144.013C113.418 143.77 113.594 143.589 113.851 143.47L118.658 141.241C118.914 141.122 119.169 141.109 119.421 141.201C119.674 141.294 119.861 141.468 119.979 141.725L123.957 150.28C124.076 150.536 124.087 150.792 123.99 151.047C123.893 151.302 123.706 151.494 123.43 151.622C123.184 151.736 122.931 151.748 122.674 151.657C122.416 151.567 122.228 151.394 122.108 151.137L118.517 143.411L114.657 145.202C114.401 145.321 114.148 145.339 113.9 145.257L113.899 145.256Z" fill="#D2D2D2"/>
<path d="M109.887 145.1C110.024 144.855 110.223 144.69 110.481 144.606C110.76 144.515 111.019 144.531 111.259 144.653C111.499 144.775 111.663 144.971 111.751 145.239L114.682 154.205C114.77 154.474 114.75 154.73 114.623 154.971C114.496 155.212 114.288 155.38 113.999 155.475C113.741 155.559 113.488 155.54 113.244 155.421C112.998 155.3 112.832 155.106 112.744 154.837L109.813 145.871C109.724 145.602 109.749 145.345 109.887 145.101L109.887 145.1Z" fill="#D2D2D2"/>
<path d="M100.379 152.334C99.9351 151.94 99.6451 151.38 99.5098 150.652C99.2727 149.379 99.4712 148.425 100.105 147.788C100.738 147.151 101.557 146.74 102.562 146.554L106.555 145.816C106.834 145.764 107.083 145.815 107.305 145.967C107.527 146.12 107.664 146.335 107.716 146.614L109.442 155.885C109.494 156.163 109.444 156.414 109.291 156.635C109.139 156.857 108.924 156.994 108.646 157.045L104.605 157.792C102.574 158.167 101.38 157.403 101.026 155.499C100.937 155.018 100.972 154.572 101.133 154.16C101.295 153.749 101.569 153.396 101.957 153.103C101.349 152.984 100.823 152.726 100.379 152.333L100.379 152.334ZM103.557 155.687C103.817 155.866 104.145 155.919 104.541 155.846L107.187 155.357L106.721 152.855L104.026 153.352C103.706 153.412 103.445 153.57 103.244 153.828C103.043 154.086 102.977 154.398 103.045 154.761C103.127 155.2 103.298 155.508 103.557 155.687ZM101.802 149.018C101.568 149.338 101.499 149.754 101.595 150.267C101.713 150.898 101.955 151.279 102.322 151.41C102.689 151.541 103.114 151.563 103.595 151.474L106.369 150.961L105.793 147.865L102.906 148.398C102.403 148.491 102.036 148.697 101.802 149.017L101.802 149.018Z" fill="#D2D2D2"/>
<path d="M88.2004 148.52C88.1196 148.379 88.08 148.231 88.0805 148.079C88.0816 147.883 88.1476 147.704 88.2792 147.542C88.4436 147.348 88.6943 147.251 89.0312 147.253C89.2923 147.255 89.5309 147.316 89.7484 147.438C90.5294 147.889 90.9156 148.799 90.9081 150.17C90.9059 150.561 91.0318 150.872 91.2864 151.103C91.5409 151.333 91.9071 151.449 92.3855 151.453L95.4362 151.474L95.4533 148.31C95.4549 148.017 95.5349 147.778 95.6932 147.594C95.8515 147.41 96.0615 147.319 96.3225 147.321C96.6376 147.323 96.9121 147.42 97.1448 147.611C97.378 147.803 97.4936 148.04 97.4913 148.323L97.4405 157.752C97.4389 158.034 97.3425 158.27 97.1508 158.46C96.9597 158.648 96.7224 158.742 96.4401 158.74L91.7418 158.708C91.1766 158.705 90.644 158.548 90.1454 158.24C89.6467 157.932 89.2494 157.51 88.9527 156.976C88.6567 156.441 88.5099 155.842 88.5137 155.178C88.5169 154.634 88.6659 154.105 88.9624 153.591C89.2583 153.076 89.6417 152.668 90.1107 152.367C89.428 151.883 89.056 151.24 88.9959 150.435C88.9642 150.26 88.9489 150.091 88.95 149.929C88.9085 149.591 88.8664 149.349 88.8238 149.202C88.7812 149.055 88.684 148.942 88.5322 148.865C88.3919 148.777 88.2807 148.662 88.1998 148.521L88.2004 148.52ZM91.282 153.402C91.0963 153.586 90.9429 153.833 90.8211 154.142C90.6999 154.451 90.6382 154.785 90.6367 155.144C90.6351 155.448 90.6936 155.728 90.8115 155.985C90.9295 156.241 91.0808 156.446 91.2649 156.599C91.4489 156.753 91.639 156.83 91.8345 156.832L95.4067 156.856L95.4265 153.154L91.8543 153.129C91.6588 153.128 91.4682 153.219 91.282 153.402Z" fill="#D2D2D2"/>
<path d="M79.4434 147.245C79.2909 147.023 79.2373 146.789 79.2827 146.543C79.3323 146.276 79.4663 146.074 79.6847 145.938C79.9038 145.801 80.1521 145.76 80.4296 145.811L85.8031 146.815C86.0812 146.867 86.2962 147.003 86.4494 147.225C86.6019 147.447 86.6519 147.697 86.6011 147.975L84.8843 157.244C84.8329 157.521 84.6964 157.737 84.4743 157.89C84.2528 158.042 84.0028 158.091 83.7247 158.04L78.3511 157.037C78.0736 156.985 77.8568 156.853 77.7024 156.642C77.5481 156.43 77.4963 156.186 77.5483 155.908C77.5979 155.641 77.7289 155.44 77.9413 155.309C78.1537 155.177 78.4044 155.139 78.6934 155.193L83.0402 156.004L83.5451 153.278L79.9203 152.601C79.6428 152.55 79.426 152.418 79.2716 152.206C79.1172 151.995 79.0655 151.75 79.1175 151.472C79.1671 151.205 79.2981 151.005 79.5104 150.874C79.7228 150.742 79.9735 150.704 80.2625 150.757L83.8874 151.434L84.4371 148.467L80.0903 147.656C79.8128 147.604 79.5972 147.468 79.4441 147.245L79.4434 147.245Z" fill="#D2D2D2"/>
<path d="M76.544 144.8C77.05 145.193 77.4723 145.701 77.8133 146.323C78 146.669 78.0397 146.99 77.9312 147.287C77.8458 147.522 77.6838 147.697 77.4447 147.812C77.2056 147.927 76.964 147.94 76.7186 147.85C76.5249 147.779 76.3737 147.655 76.2643 147.476C75.978 146.99 75.6693 146.598 75.337 146.304C75.0047 146.009 74.5729 145.764 74.0409 145.569C73.4689 145.36 72.9291 145.308 72.4223 145.412C71.9154 145.515 71.5932 145.757 71.4551 146.134C71.2872 146.594 71.361 147.029 71.6746 147.439C71.9887 147.849 72.5658 148.283 73.4064 148.74C75.5254 149.884 76.2653 151.335 75.6248 153.092C75.3903 153.736 75.0186 154.233 74.5076 154.585C73.9973 154.936 73.4055 155.131 72.7323 155.168C72.0584 155.206 71.3644 155.094 70.6491 154.832C70.0048 154.597 69.4351 154.278 68.9382 153.877C68.4419 153.476 68.0622 153.047 67.7996 152.593C67.5886 152.25 67.5392 151.925 67.6513 151.619C67.7368 151.384 67.8993 151.209 68.1378 151.093C68.3769 150.978 68.6137 150.964 68.8487 151.049C69.0017 151.105 69.1232 151.201 69.212 151.339C69.3998 151.65 69.6981 151.983 70.1088 152.335C70.5188 152.687 70.913 152.933 71.2913 153.071C71.9356 153.307 72.4772 153.369 72.9167 153.257C73.3567 153.147 73.6474 152.896 73.7885 152.508C73.9485 152.069 73.8881 151.671 73.6067 151.313C73.326 150.956 72.823 150.564 72.0985 150.138C71.2755 149.663 70.645 149.209 70.2058 148.778C69.7671 148.345 69.4899 147.874 69.3748 147.363C69.2597 146.852 69.3267 146.254 69.5757 145.57C69.8102 144.926 70.1971 144.429 70.7366 144.077C71.276 143.724 71.8951 143.528 72.5927 143.488C73.2908 143.448 73.9872 143.555 74.6813 143.809C75.4173 144.077 76.0374 144.409 76.5428 144.801L76.544 144.8Z" fill="#D2D2D2"/>
<path d="M36.0962 104.805C36.2023 104.566 36.3892 104.4 36.6556 104.306C36.9118 104.216 37.1564 104.232 37.3884 104.352C37.6204 104.472 37.7839 104.666 37.8776 104.933L39.6345 109.938C39.7282 110.206 39.7168 110.46 39.6005 110.703C39.4841 110.946 39.2923 111.113 39.0253 111.206L30.1287 114.318C29.8616 114.411 29.606 114.397 29.3619 114.275C29.1178 114.154 28.9446 113.949 28.8436 113.661C28.7536 113.405 28.7655 113.152 28.8807 112.905C28.9959 112.657 29.1858 112.487 29.4528 112.393L37.4869 109.583L36.0762 105.564C35.9825 105.296 35.9883 105.044 36.095 104.805L36.0962 104.805Z" fill="#41403F"/>
<path d="M32.9493 93.5686C33.9094 93.9063 34.7111 94.452 35.3558 95.2059C36.0005 95.9598 36.403 96.8586 36.5641 97.9017C36.7251 98.9448 36.6117 99.9222 36.2244 100.834C35.8371 101.747 35.2361 102.504 34.4218 103.107C33.6075 103.71 32.668 104.093 31.6038 104.256C30.5397 104.418 29.5282 104.334 28.5694 104.002C27.6105 103.671 26.8088 103.127 26.1647 102.373C25.52 101.619 25.1174 100.72 24.9564 99.6769C24.796 98.6344 24.9088 97.6565 25.2961 96.7443C25.6833 95.8321 26.2838 95.0724 27.0975 94.4629C27.9112 93.8546 28.8501 93.4685 29.9142 93.306C30.9783 93.1434 31.9904 93.231 32.9499 93.568L32.9493 93.5686ZM28.3457 96.137C27.8044 96.5166 27.4023 96.9905 27.138 97.5597C26.8743 98.1284 26.7916 98.7348 26.891 99.3802C26.9923 100.036 27.2513 100.593 27.6687 101.052C28.0861 101.511 28.6121 101.838 29.2473 102.033C29.8824 102.227 30.56 102.269 31.2799 102.159C31.9999 102.049 32.6341 101.806 33.1808 101.431C33.7282 101.056 34.1316 100.587 34.3916 100.024C34.651 99.4624 34.7307 98.8529 34.6295 98.1972C34.53 97.5517 34.2686 96.9979 33.8451 96.5343C33.4216 96.0708 32.8944 95.739 32.2641 95.5382C31.6338 95.3374 30.9586 95.2919 30.2381 95.4025C29.5182 95.5125 28.8876 95.7579 28.3463 96.1376L28.3457 96.137Z" fill="#41403F"/>
<path d="M30.2026 81.6785C30.4022 81.5044 30.6437 81.4245 30.9254 81.4392L34.3794 81.6245C34.76 81.6448 35.0437 81.829 35.2327 82.177C35.84 83.2769 36.1098 84.4615 36.044 85.7327C35.9883 86.8079 35.6727 87.7869 35.0984 88.671C34.5242 89.5551 33.7749 90.2388 32.8512 90.7226C31.9276 91.2064 30.9339 91.42 29.869 91.3633C28.8047 91.3061 27.8386 90.9879 26.9706 90.4075C26.1021 89.8277 25.4289 89.0671 24.9498 88.1269C24.4707 87.1868 24.2593 86.1783 24.3156 85.1037C24.3719 84.0292 24.6377 83.106 25.1137 82.3372C25.2089 82.1788 25.3297 82.0629 25.4753 81.9889C25.621 81.915 25.7751 81.8823 25.9378 81.8909C26.2098 81.9057 26.4406 82.0079 26.6326 82.1974C26.824 82.3876 26.9134 82.6129 26.8996 82.8733C26.8912 83.036 26.8385 83.2126 26.7409 83.4038C26.4609 83.9767 26.3041 84.5782 26.2711 85.2078C26.2346 85.9029 26.3777 86.5532 26.6999 87.1581C27.0228 87.7636 27.4736 88.2532 28.0524 88.627C28.6319 89.0014 29.2743 89.2071 29.9804 89.2446C30.6865 89.2822 31.3469 89.1467 31.9623 88.8363C32.5777 88.5259 33.077 88.0873 33.4609 87.52C33.8447 86.9526 34.0543 86.3214 34.0909 85.6263C34.107 85.3221 34.0965 84.9949 34.0604 84.6446C34.0243 84.2943 33.9701 83.9864 33.8964 83.7211L31.7788 83.6078L31.6986 85.1389C31.6836 85.4211 31.5793 85.653 31.3846 85.8331C31.1898 86.0133 30.9519 86.0957 30.669 86.0809C30.3867 86.0655 30.1583 85.9585 29.9833 85.7581C29.809 85.5582 29.7286 85.3177 29.743 85.0348L29.8825 82.3631C29.8975 82.0808 30.0042 81.8526 30.2044 81.6779L30.2026 81.6785Z" fill="#41403F"/>
<path d="M36.5924 78.4212C36.7407 78.6605 36.7888 78.9137 36.7374 79.1802C36.6824 79.4685 36.5429 79.6882 36.3208 79.8386C36.0981 79.9896 35.848 80.038 35.5699 79.9843L26.3098 78.1958C26.0317 78.1422 25.8179 78.0012 25.6684 77.7728C25.5188 77.5444 25.4719 77.2815 25.5294 76.9822C25.5808 76.7157 25.7184 76.504 25.9417 76.3475C26.1656 76.1916 26.4163 76.1402 26.6944 76.1938L35.9546 77.9824C36.2327 78.036 36.4459 78.1825 36.5936 78.4212L36.5924 78.4212Z" fill="#41403F"/>
<path d="M30.4004 64.879C30.6178 64.9508 30.8037 65.0978 30.9593 65.3214C31.1221 65.5583 31.1612 65.806 31.0758 66.0639C31.0182 66.2393 30.9139 66.3995 30.7629 66.5445C30.3595 66.9722 30.0605 67.4802 29.8667 68.0689C29.6286 68.7918 29.5751 69.4723 29.703 70.1099C29.831 70.7474 30.1246 71.3019 30.5821 71.7739C31.0402 72.2454 31.6251 72.5985 32.338 72.8346C33.5573 73.2374 34.59 73.2145 35.4354 72.7665C36.2813 72.319 36.8788 71.5624 37.2283 70.4996C37.4355 69.8696 37.497 69.2832 37.4116 68.7404C37.3902 68.5273 37.4028 68.3482 37.45 68.2037C37.5385 67.9355 37.7272 67.7456 38.0155 67.6347C38.2625 67.5444 38.5004 67.5373 38.727 67.6121C38.8921 67.6669 39.0288 67.7575 39.1351 67.8844C39.2427 68.0114 39.3071 68.1644 39.3279 68.3429C39.4658 69.2816 39.3857 70.2049 39.0871 71.1135C38.7545 72.1253 38.2343 72.9846 37.5275 73.6902C36.8207 74.3957 35.9657 74.8632 34.9617 75.0931C33.9589 75.3231 32.8631 75.2415 31.6747 74.8503C30.6211 74.5029 29.7544 73.9504 29.0757 73.1941C28.397 72.4377 27.9611 71.559 27.7691 70.5565C27.5778 69.5546 27.6566 68.522 28.0061 67.458C28.3077 66.5391 28.7898 65.7533 29.4505 65.1011C29.721 64.8354 30.0373 64.7622 30.3986 64.882L30.4004 64.879Z" fill="#41403F"/>
<path d="M41.1483 65.1472C41.231 65.4156 41.213 65.673 41.096 65.9176C40.9693 66.1828 40.7794 66.3593 40.5251 66.4484C40.2714 66.5381 40.017 66.5215 39.7619 66.3987L31.2559 62.3188C31.0009 62.196 30.8301 62.0059 30.7425 61.7472C30.6549 61.4885 30.6772 61.222 30.8087 60.9471C30.9257 60.7025 31.1126 60.5327 31.3687 60.4381C31.6248 60.3436 31.8804 60.3578 32.1355 60.4806L40.6415 64.5604C40.8966 64.6832 41.0655 64.8788 41.1476 65.1466L41.1483 65.1472Z" fill="#41403F"/>
<path d="M44.9475 56.1728C45.2103 56.1153 45.4471 56.1531 45.6585 56.288C45.8874 56.4345 46.0248 56.6349 46.0693 56.8881C46.1138 57.1425 46.06 57.3884 45.9083 57.6262L42.9727 62.2314C42.8205 62.4699 42.613 62.6178 42.3508 62.6759C42.0886 62.734 41.8378 62.6871 41.5991 62.5345L33.646 57.4583C33.4079 57.3063 33.2597 57.0986 33.2006 56.8357C33.1421 56.5734 33.1887 56.3227 33.3409 56.0842L36.2765 51.479C36.4281 51.2412 36.6308 51.0895 36.8851 51.026C37.1382 50.9624 37.3847 51.0063 37.6234 51.1589C37.8524 51.3053 37.9891 51.5015 38.0318 51.748C38.0745 51.9946 38.017 52.2416 37.8593 52.4892L35.4846 56.215L37.8237 57.7084L39.8042 54.6015C39.9558 54.3636 40.1585 54.212 40.4128 54.1484C40.6659 54.0849 40.9124 54.1288 41.1511 54.2813C41.3801 54.4278 41.5168 54.624 41.5595 54.8705C41.6022 55.117 41.5447 55.3641 41.387 55.6116L39.4065 58.7185L41.952 60.3432L44.3267 56.6173C44.4783 56.3794 44.6859 56.2315 44.9487 56.1728L44.9475 56.1728Z" fill="#41403F"/>
<path d="M50.7955 49.3527C51.056 49.3304 51.2922 49.4138 51.503 49.6015C51.7059 49.7826 51.8111 50.0042 51.8186 50.2653C51.8254 50.527 51.7351 50.7631 51.5477 50.9736L48.0203 54.9263C47.8322 55.1374 47.6041 55.2502 47.3351 55.2651C47.0662 55.2801 46.8269 55.1938 46.6155 55.0054L39.5765 48.7223C39.3651 48.5339 39.2544 48.3031 39.2421 48.0299C39.2304 47.7573 39.3261 47.5073 39.5281 47.2798C39.7089 47.0771 39.9352 46.9662 40.2084 46.947C40.4804 46.9277 40.7227 47.0123 40.9335 47.2013L47.2909 52.8756L50.1237 49.7013C50.3118 49.4902 50.5363 49.3738 50.7968 49.3515L50.7955 49.3527Z" fill="#41403F"/>
<path d="M54.4155 48.1593C53.8183 48.3896 53.1663 48.4899 52.4578 48.4608C52.0656 48.4423 51.7699 48.3104 51.5718 48.065C51.4144 47.87 51.3481 47.6411 51.3716 47.377C51.395 47.1129 51.5084 46.8987 51.7117 46.7343C51.8719 46.6045 52.057 46.5397 52.2658 46.5386C52.8298 46.5445 53.3233 46.4811 53.7476 46.3485C54.1713 46.2164 54.6027 45.9721 55.0426 45.6172C55.5159 45.2351 55.8385 44.7994 56.0094 44.3115C56.1808 43.8229 56.1399 43.4228 55.8865 43.1099C55.5784 42.7291 55.1679 42.5673 54.6555 42.6252C54.1426 42.6825 53.4744 42.9534 52.6503 43.4372C50.5804 44.6627 48.9569 44.5474 47.7799 43.0913C47.3485 42.5579 47.1137 41.9822 47.0744 41.363C47.0351 40.7437 47.1725 40.1361 47.4871 39.5395C47.8018 38.943 48.2543 38.4054 48.8458 37.9269C49.3785 37.4962 49.9441 37.1724 50.5432 36.9537C51.1428 36.7356 51.7043 36.631 52.2295 36.6405C52.632 36.6377 52.9362 36.7624 53.141 37.0157C53.2984 37.2107 53.3653 37.4402 53.3412 37.7037C53.3171 37.9684 53.208 38.1783 53.0139 38.336C52.8871 38.4385 52.742 38.4925 52.5793 38.4984C52.2156 38.4988 51.778 38.5828 51.2645 38.7525C50.7522 38.9221 50.339 39.1337 50.0259 39.386C49.4932 39.8166 49.162 40.2486 49.0312 40.6832C48.9004 41.1178 48.965 41.4955 49.2251 41.8174C49.5198 42.1813 49.892 42.3352 50.3425 42.2784C50.7935 42.2223 51.3877 41.9938 52.1256 41.5925C52.9552 41.1323 53.6677 40.8256 54.2644 40.6725C54.8604 40.5199 55.4074 40.5258 55.9035 40.6907C56.4003 40.8561 56.8777 41.222 57.3365 41.7887C57.7679 42.3221 57.9954 42.9111 58.0208 43.5553C58.0455 44.2 57.896 44.8319 57.5717 45.4503C57.2473 46.0687 56.7979 46.6105 56.2227 47.0751C55.6141 47.5671 55.0115 47.9278 54.4155 48.1581L54.4155 48.1593Z" fill="#41403F"/>
<path d="M70.0054 36.9107C70.2532 36.9935 70.4372 37.163 70.557 37.4199C70.672 37.667 70.6806 37.9111 70.5837 38.1539C70.4867 38.3966 70.3102 38.578 70.0535 38.6962L65.2469 40.9257C64.9907 41.0445 64.7358 41.0576 64.4832 40.9652C64.2305 40.8727 64.044 40.6983 63.9255 40.4414L59.9476 31.887C59.8284 31.6307 59.8173 31.3745 59.9143 31.1196C60.0112 30.8646 60.1981 30.6729 60.4742 30.545C60.7206 30.4311 60.9731 30.4191 61.2306 30.5092C61.4887 30.5998 61.6764 30.773 61.7962 31.0299L65.3879 38.7554L69.2478 36.9648C69.5039 36.846 69.7564 36.828 70.0048 36.9101L70.0054 36.9107Z" fill="#41403F"/>
<path d="M74.0172 37.0668C73.8801 37.3119 73.6817 37.4763 73.4238 37.5605C73.1446 37.6514 72.8853 37.636 72.6454 37.5138C72.4056 37.3916 72.2415 37.196 72.1539 36.9276L69.223 27.9616C69.1347 27.6926 69.1546 27.4371 69.2813 27.1961C69.4086 26.9546 69.6167 26.7866 69.9056 26.6921C70.1636 26.6079 70.4161 26.6263 70.6609 26.7461C70.9062 26.8664 71.0727 27.0608 71.161 27.3298L74.0919 36.2958C74.1801 36.5648 74.1554 36.8216 74.0178 37.0662L74.0172 37.0668Z" fill="#41403F"/>
<path d="M83.526 29.8327C83.9694 30.2265 84.2594 30.787 84.3947 31.5144C84.6318 32.7877 84.4334 33.7419 83.8 34.3789C83.1667 35.0159 82.3474 35.4269 81.3422 35.6132L77.3492 36.3509C77.0706 36.4023 76.821 36.3517 76.5993 36.1992C76.3776 36.0467 76.2403 35.8316 76.1885 35.5529L74.4624 26.2813C74.4106 26.0038 74.4608 25.7531 74.6131 25.5316C74.7653 25.3101 74.9801 25.1731 75.2587 25.1217L79.2996 24.3749C81.3307 23.9999 82.5242 24.7639 82.8783 26.6675C82.9679 27.1489 82.9324 27.5951 82.7712 28.0066C82.61 28.4181 82.3353 28.7707 81.9476 29.0636C82.556 29.183 83.0819 29.4408 83.526 29.8339L83.526 29.8327ZM80.3472 26.4792C80.0872 26.3006 79.7593 26.2481 79.3636 26.3207L76.7176 26.8099L77.1838 29.3121L79.8784 28.8144C80.1989 28.7551 80.4598 28.5963 80.6606 28.3384C80.8613 28.0805 80.9273 27.7691 80.8596 27.4054C80.778 26.967 80.6065 26.6585 80.3472 26.4792ZM82.1029 33.1489C82.3364 32.8291 82.4053 32.4127 82.3096 31.8996C82.192 31.2688 81.9495 30.8879 81.5827 30.7565C81.2153 30.6257 80.7909 30.6042 80.3096 30.6931L77.5355 31.2059L78.1115 34.3019L80.9984 33.7685C81.501 33.6754 81.8688 33.4693 82.1023 33.1495L82.1029 33.1489Z" fill="#41403F"/>
<path d="M95.7041 33.6463C95.785 33.7878 95.8245 33.9353 95.824 34.0877C95.823 34.2832 95.7569 34.4623 95.6253 34.6243C95.4609 34.819 95.2102 34.9154 94.8733 34.9133C94.6122 34.9119 94.3736 34.8504 94.1562 34.7288C93.3751 34.2778 92.989 33.3675 92.9965 31.9966C92.9986 31.6057 92.8727 31.2941 92.6182 31.0639C92.3636 30.8336 91.9975 30.7174 91.5191 30.7134L88.4684 30.6923L88.4513 33.8565C88.4496 34.1498 88.3697 34.3889 88.2114 34.5727C88.053 34.7566 87.8431 34.8475 87.582 34.8461C87.2669 34.844 86.9924 34.7467 86.7598 34.5553C86.5265 34.3633 86.411 34.1264 86.4132 33.8435L86.464 24.4147C86.4656 24.1324 86.562 23.8963 86.7537 23.707C86.9448 23.5184 87.1821 23.4244 87.4644 23.4265L92.1628 23.4584C92.728 23.4618 93.2605 23.6183 93.7592 23.9264C94.2578 24.2346 94.6552 24.6562 94.9518 25.1907C95.2479 25.7257 95.3946 26.325 95.3909 26.9886C95.3876 27.5326 95.2387 28.0618 94.9422 28.5758C94.6463 29.0904 94.2629 29.4981 93.7938 29.7995C94.4765 30.2833 94.8486 30.9271 94.9086 31.7321C94.9403 31.907 94.9556 32.0752 94.9545 32.2379C94.9961 32.5754 95.0381 32.8177 95.0807 32.9647C95.1233 33.1116 95.2206 33.2246 95.3724 33.3012C95.5127 33.3893 95.6239 33.5042 95.7047 33.6457L95.7041 33.6463ZM92.6226 28.7642C92.8082 28.581 92.9616 28.334 93.0834 28.0251C93.2046 27.7155 93.2663 27.3817 93.2679 27.0229C93.2695 26.7187 93.211 26.4382 93.093 26.1819C92.9751 25.9256 92.8237 25.7209 92.6397 25.5672C92.4556 25.4135 92.2655 25.3362 92.07 25.3349L88.4979 25.3104L88.4781 29.0131L92.0503 29.0376C92.2458 29.0389 92.4363 28.948 92.6226 28.7642Z" fill="#41403F"/>
<path d="M104.461 34.9221C104.614 35.1438 104.667 35.3781 104.622 35.624C104.572 35.8911 104.438 36.0931 104.22 36.229C104.001 36.3654 103.752 36.4071 103.475 36.3553L98.1014 35.3521C97.8233 35.2997 97.6083 35.1636 97.4552 34.9413C97.3026 34.7196 97.2527 34.4694 97.3035 34.1914L99.0203 24.9228C99.0717 24.6454 99.2081 24.43 99.4302 24.2772C99.6517 24.125 99.9018 24.0754 100.18 24.1266L105.553 25.1297C105.831 25.1815 106.048 25.3134 106.202 25.5248C106.356 25.7362 106.408 25.9809 106.356 26.2589C106.307 26.526 106.176 26.7263 105.963 26.8572C105.751 26.9894 105.5 27.0275 105.211 26.9739L100.864 26.1627L100.359 28.8888L103.984 29.5653C104.262 29.6171 104.479 29.749 104.633 29.9604C104.787 30.1718 104.839 30.4164 104.787 30.6945C104.737 30.9615 104.606 31.1618 104.394 31.2928C104.182 31.425 103.931 31.463 103.642 31.4094L100.017 30.7329L99.4674 33.6994L103.814 34.5106C104.092 34.5624 104.307 34.6992 104.46 34.9215L104.461 34.9221Z" fill="#41403F"/>
<path d="M107.361 37.3665C106.855 36.9734 106.432 36.4661 106.091 35.8436C105.905 35.498 105.865 35.1769 105.973 34.8801C106.059 34.6452 106.221 34.4698 106.46 34.3547C106.699 34.2395 106.941 34.2263 107.186 34.3163C107.38 34.3875 107.531 34.5121 107.64 34.6907C107.927 35.1772 108.235 35.5683 108.568 35.863C108.9 36.1577 109.332 36.4027 109.864 36.5973C110.436 36.8066 110.975 36.8586 111.482 36.7552C111.989 36.6517 112.311 36.4097 112.449 36.0322C112.617 35.5727 112.544 35.1374 112.23 34.728C111.916 34.318 111.339 33.8841 110.498 33.4269C108.379 32.2822 107.639 30.8313 108.28 29.0742C108.514 28.4303 108.886 27.9333 109.397 27.5816C109.907 27.2304 110.499 27.036 111.172 26.9982C111.846 26.9611 112.54 27.0727 113.255 27.3343C113.9 27.5697 114.469 27.8882 114.966 28.2893C115.463 28.6909 115.842 29.1192 116.105 29.5735C116.316 29.9167 116.365 30.2415 116.253 30.548C116.168 30.7829 116.005 30.9576 115.767 31.0734C115.528 31.1886 115.291 31.203 115.056 31.1172C114.903 31.0612 114.781 30.9652 114.693 30.828C114.505 30.5164 114.206 30.1841 113.796 29.8317C113.386 29.4798 112.992 29.2337 112.613 29.0956C111.969 28.8602 111.427 28.7979 110.988 28.9093C110.548 29.02 110.257 29.2706 110.116 29.6584C109.956 30.0978 110.016 30.4955 110.298 30.8533C110.579 31.2105 111.081 31.603 111.806 32.0291C112.629 32.5039 113.26 32.9572 113.699 33.3892C114.137 33.8218 114.415 34.2931 114.53 34.8037C114.645 35.3144 114.578 35.9123 114.329 36.5963C114.094 37.2403 113.707 37.7378 113.168 38.0902C112.629 38.4425 112.009 38.6388 111.312 38.6789C110.614 38.7185 109.917 38.6117 109.223 38.3581C108.487 38.0892 107.867 37.7579 107.362 37.3653L107.361 37.3665Z" fill="#41403F"/>
<path d="M133.259 50.6615C134.547 50.9653 135.838 50.1671 136.141 48.8788C136.445 47.5905 135.647 46.2999 134.359 45.9962C133.07 45.6924 131.78 46.4905 131.476 47.7788C131.172 49.0671 131.97 50.3578 133.259 50.6615Z" fill="#D2D2D2"/>
<path d="M48.3328 134.215C49.6211 134.519 50.9117 133.721 51.2154 132.433C51.5192 131.144 50.7211 129.854 49.4328 129.55C48.1445 129.246 46.8539 130.044 46.5501 131.333C46.2463 132.621 47.0445 133.912 48.3328 134.215Z" fill="#D2D2D2"/>
</svg>
