<svg width="62" height="45" viewBox="0 0 62 45" fill="none" xmlns="http://www.w3.org/2000/svg">
<path d="M60.2974 17.3799C57.5013 13.4159 52.4579 9.49861 49.6531 5.35587H42.0662L41.5697 15.841C40.9298 11.9578 38.9252 8.35599 35.8445 5.55443C32.7639 2.75287 28.7661 0.896127 24.4272 0.251637C20.0883 -0.392853 15.632 0.208176 11.7004 1.96815C7.76875 3.72813 4.56462 6.55622 2.54951 10.0451C0.534395 13.5339 -0.187687 17.5035 0.487266 21.3819C1.16222 25.2604 3.19937 28.8476 6.3053 31.6269C9.41122 34.4061 13.4256 36.234 17.7703 36.8472C22.1149 37.4604 26.5655 36.8273 30.4811 35.039C27.9463 37.4174 27.3192 40.4332 28.3035 42.3763C29.6536 45.0578 36.0559 45.5863 41.6829 43.3245C46.9092 41.2415 50.228 37.6739 49.6705 35.0313V22.4942C54.139 23.0616 54.4177 24.2897 52.4056 27.7096L56.6041 30.4766C60.9594 26.5282 63.8077 22.3388 60.3148 17.3799" fill="white"/>
<path d="M36.6656 32.8938C31.4915 34.969 28.3122 38.6454 29.5578 41.1093C30.8034 43.5732 35.9688 43.8919 41.1951 41.8166C45.9598 39.9046 49.0346 36.6401 48.5294 34.2073V20.893C53.9996 21.4371 57.0135 22.0589 54.6268 27.8339L56.2469 28.9687C60.2451 25.3467 61.4733 22.5641 58.2765 18.0172C55.6633 14.3797 51.0729 10.7888 48.512 6.98804H43.5121V31.5258C41.1449 31.5268 38.8072 31.9939 36.6656 32.8938Z" fill="#1C1C1C"/>
<path d="M21.1607 2.34011C25.3817 2.33334 29.4748 3.63245 32.7428 6.01619C36.0109 8.39993 38.2519 11.7209 39.084 15.4134C39.9161 19.1059 39.288 22.9417 37.3065 26.2673C35.3251 29.593 32.1129 32.2029 28.217 33.6525C24.3212 35.1021 19.9826 35.3018 15.9403 34.2176C11.898 33.1334 8.40185 30.8322 6.04742 27.7062C3.693 24.5801 2.62586 20.8224 3.02776 17.0731C3.42966 13.3237 5.27575 9.81467 8.25161 7.14352C9.94133 5.62198 11.9521 4.41413 14.1677 3.58969C16.3834 2.76526 18.7601 2.34056 21.1607 2.34011Z" fill="#E30289"/>
<path d="M9.4969 11.1618C9.71467 9.73169 12.9114 7.43103 15.1588 6.93359C17.1519 6.98772 19.1066 7.43639 20.8816 8.24715C21.0994 9.68506 21.7962 13.5869 21.7962 13.5869L16.5699 18.0716L10.3244 16.7269C9.92372 15.289 9.29656 12.3743 9.45335 11.1618" fill="white"/>
<path d="M4.25339 21.8724C3.99208 20.2713 3.18199 15.4213 5.94324 11.2941L8.96581 11.2241C9.19663 13.1553 9.56614 15.0713 10.0721 16.9602C8.81841 18.3483 8.00073 20.0087 7.70278 21.7714C6.55298 21.8569 4.78474 21.888 4.21855 21.8647" fill="white"/>
<path d="M16.8057 18.3516C17.4764 17.7686 21.1609 14.6674 21.8839 14.0845C24.2486 14.5515 26.5764 15.1565 28.8524 15.8955C29.3489 17.6676 30.4464 20.7377 30.2112 22.3C29.5231 23.1628 29.0527 23.9167 25.5685 26.2718C23.1003 25.9563 20.6861 25.3662 18.3823 24.5152C17.9729 23.2871 16.8318 19.8517 16.8057 18.3516Z" fill="white"/>
<path d="M29.3403 15.9654C29.6538 15.5224 32.0754 11.9936 32.2322 11.6594C33.5129 11.892 34.7389 12.3206 35.8558 12.9263C36.9115 15.0369 37.503 17.3088 37.5979 19.6185C36.9656 21.0918 36.0618 22.4605 34.9237 23.6679C33.9917 23.3726 31.0649 22.2689 30.6294 22.1134C30.8646 20.1781 29.6625 16.8437 29.3315 15.9343" fill="white"/>
<path d="M37.9197 19.8982C37.9197 19.8438 38.2769 19.8982 38.2769 19.8982C37.9575 22.9715 36.6271 25.892 34.4529 28.2925C33.9042 28.8521 30.5419 31.9067 27.9026 32.7695C25.6287 33.5533 23.2149 33.9641 20.7773 33.982V33.3291C22.9004 33.1089 24.8774 32.2542 26.3869 30.9041C28.5977 30.9688 30.7849 30.4816 32.7021 29.4972C33.0767 29.2952 33.0592 29.3107 33.3554 28.72C34.0585 27.3475 34.5845 25.9081 34.9233 24.4296C35.8553 23.3103 37.5365 21.3206 37.9371 19.9215" fill="white"/>
<path d="M32.3102 11.2008C33.6243 11.452 34.8779 11.9099 36.0121 12.5532C36.4215 12.2189 36.7003 11.978 36.7003 11.978C36.1689 11.2008 34.3746 8.30938 32.4669 7.05801C31.0232 6.05734 29.4674 5.19258 27.8242 4.47754V6.76265C29.3273 8.06572 30.7465 9.44366 32.075 10.8899C32.1212 11.0147 32.2021 11.127 32.3102 11.2163" fill="white"/>
<path d="M21.3349 7.92076C23.2442 7.21431 25.2729 6.79918 27.3364 6.69271C27.3364 5.86882 27.3364 4.36096 27.3364 4.36096C25.4378 3.66878 23.4031 3.32259 21.3523 3.34276C19.276 3.2696 17.2039 3.56279 15.2549 4.20551L15.3768 6.53726C17.4503 6.58197 19.4815 7.06973 21.3 7.95963" fill="white"/>
<path d="M26.2478 30.3755C25.5597 30.9973 22.6852 33.2747 19.1835 32.785C15.6819 32.2953 14.6018 31.3782 14.0269 30.803C13.1059 29.7008 12.6107 28.3616 12.6158 26.9867L18.1992 24.8804C20.5001 25.6781 22.8718 26.3021 25.2896 26.7458L26.2478 30.3755Z" fill="white"/>
<path d="M10.9953 31.0284L13.4429 30.974C12.6034 29.7591 12.1405 28.367 12.1015 26.9401C10.1918 25.6985 8.66872 24.0425 7.67656 22.1289L4.34912 22.1989C5.22018 24.6006 6.09123 27.3909 10.9953 31.0284Z" fill="white"/>
</svg>
