<svg width="63" height="40" viewBox="0 0 63 40" fill="none" xmlns="http://www.w3.org/2000/svg">
<path d="M14.6639 27.3144C15.1435 27.7611 15.5313 27.3144 15.5383 26.2636L15.5806 13.5974C15.5806 12.5718 15.1928 12.0936 14.7133 12.534L7.59825 19.0276C7.36712 19.245 7.23828 19.5333 7.23828 19.833C7.23828 20.1327 7.36712 20.4209 7.59825 20.6384L14.6639 27.3144Z" fill="#E30289"/>
<path d="M55.9297 35.0726H6.6391C6.33549 35.071 6.04494 34.9622 5.8309 34.77C5.61687 34.5779 5.49674 34.3179 5.49675 34.047V5.51195C5.49674 5.24103 5.61687 4.98111 5.8309 4.78894C6.04494 4.59678 6.33549 4.48799 6.6391 4.48633H55.9297C56.2333 4.48799 56.5239 4.59678 56.7379 4.78894C56.9519 4.98111 57.0721 5.24103 57.0721 5.51195V34.047C57.0721 34.3179 56.9519 34.5779 56.7379 34.77C56.5239 34.9622 56.2333 35.071 55.9297 35.0726ZM55.9297 0H6.6391C5.00081 0 3.42962 0.580722 2.27117 1.61441C1.11272 2.64811 0.461914 4.05009 0.461914 5.51195L0.461914 34.047C0.461914 35.5089 1.11272 36.9109 2.27117 37.9446C3.42962 38.9783 5.00081 39.559 6.6391 39.559H55.9297C57.5668 39.5573 59.1362 38.9758 60.2931 37.9423C61.45 36.9088 62.0998 35.5078 62.0998 34.047V5.51195C62.0998 4.05118 61.45 2.65015 60.2931 1.61664C59.1362 0.583126 57.5668 0.00166755 55.9297 0Z" fill="#1C1C1C"/>
<path d="M25.0226 18.3165H17.6255V21.0725H25.0226V18.3165Z" fill="#1C1C1C"/>
<path d="M25.0156 17.0393V13.8932H22.5052C21.4476 13.895 20.419 14.2025 19.5736 14.7697C18.7283 15.3369 18.1116 16.1331 17.8159 17.0393H25.0156Z" fill="#1C1C1C"/>
<path d="M17.689 22.3561C17.8776 23.3747 18.4652 24.3005 19.3472 24.9688C20.2291 25.6371 21.3482 26.0045 22.5052 26.0055H25.0156V22.3561H17.689Z" fill="#1C1C1C"/>
<path d="M33.4141 18.3165H26.165V21.0725H33.4141V18.3165Z" fill="#1C1C1C"/>
<path d="M26.165 17.0393V13.8932H28.6684C29.7132 13.8997 30.727 14.2105 31.5557 14.7784C32.3843 15.3463 32.9824 16.1402 33.2589 17.0393H26.165Z" fill="#1C1C1C"/>
<path d="M33.3505 22.3561C33.179 23.3599 32.6147 24.2772 31.7577 24.9452C30.9006 25.6133 29.8061 25.9889 28.6683 26.0055H26.2002V22.3561H33.3505Z" fill="#1C1C1C"/>
<path d="M53.7368 27.5032C53.4053 27.3522 47.3339 24.7661 47.3339 24.7661V23.1742C47.6477 22.9649 47.9068 22.6973 48.0931 22.3898C48.2794 22.0823 48.3885 21.7423 48.4128 21.3935L48.4763 20.8335C48.9417 20.8335 49.3789 20.3238 49.4917 19.6757V19.6191C49.6116 18.9144 49.2943 18.2851 48.7865 18.2159L48.9346 16.8191C48.8221 15.8937 48.3305 15.0381 47.5542 14.4164C46.7778 13.7948 45.7715 13.4509 44.7284 13.4509C43.6853 13.4509 42.6789 13.7948 41.9026 14.4164C41.1262 15.0381 40.6346 15.8937 40.5221 16.8191L40.6561 18.1908C40.1484 18.26 39.831 18.8892 39.9509 19.5939V19.6505C40.0637 20.2798 40.5009 20.7894 40.9663 20.8083L41.0298 21.3683C41.0451 21.7185 41.1457 22.0614 41.3247 22.3733C41.5038 22.6852 41.7569 22.9585 42.0664 23.1742V24.7661C42.0664 24.7661 36.0161 27.283 35.6635 27.5032C35.311 27.7234 34.3872 28.0191 34.3872 28.6484V32.7194H55.0131V28.6484C55.0131 28.0191 54.0752 27.6605 53.7368 27.5032Z" fill="#1C1C1C"/>
</svg>
