<svg width="63" height="44" viewBox="0 0 63 44" fill="none" xmlns="http://www.w3.org/2000/svg">
<path d="M31.8645 3.99463H26.8793V6.78396H28.9238C29.2277 6.78569 29.5186 6.89419 29.7335 7.08595C29.9484 7.27771 30.07 7.53729 30.0719 7.80847V32.1721C30.07 32.4427 29.9481 32.7016 29.733 32.8923C29.5179 33.083 29.227 33.19 28.9238 33.19H5.90861C5.60606 33.19 5.31591 33.0828 5.10197 32.8919C4.88804 32.701 4.76785 32.4421 4.76785 32.1721V7.80847C4.76785 7.5379 4.8878 7.2783 5.10152 7.08636C5.31524 6.89441 5.60538 6.7857 5.90861 6.78396H7.95308V3.99463H2.96783C2.41381 3.99463 1.88248 4.19101 1.49074 4.54057C1.09899 4.89013 0.878906 5.36423 0.878906 5.85859L0.878906 35.3713C0.878906 35.8656 1.09899 36.3397 1.49074 36.6893C1.88248 37.0388 2.41381 37.2352 2.96783 37.2352H31.8571C32.4112 37.2352 32.9425 37.0388 33.3342 36.6893C33.726 36.3397 33.9461 35.8656 33.9461 35.3713V5.85859C33.9461 5.36423 33.726 4.89013 33.3342 4.54057C32.9425 4.19101 32.4112 3.99463 31.8571 3.99463" fill="#1C1C1C"/>
<path d="M17.4198 4.09377C17.1695 4.09771 16.9236 4.03501 16.7135 3.91366C16.5033 3.79231 16.3385 3.61784 16.24 3.4125C16.1414 3.20717 16.1137 2.9803 16.1604 2.76086C16.2071 2.54141 16.3259 2.33935 16.5019 2.18048C16.6778 2.0216 16.9028 1.91312 17.1482 1.86888C17.3935 1.82464 17.6481 1.84666 17.8794 1.93211C18.1107 2.01756 18.3081 2.16257 18.4466 2.34864C18.5851 2.5347 18.6583 2.75337 18.6569 2.97672C18.6531 3.26967 18.522 3.54987 18.2913 3.75826C18.0605 3.96665 17.748 4.08694 17.4198 4.09377ZM22.4791 2.38845H20.6939C20.5407 1.71443 20.131 1.10841 19.5343 0.673105C18.9376 0.237804 18.1906 0 17.4198 0C16.6491 0 15.902 0.237804 15.3053 0.673105C14.7086 1.10841 14.2989 1.71443 14.1457 2.38845H12.3605C12.0229 2.39952 11.691 2.46988 11.3839 2.5955C11.0767 2.72112 10.8004 2.89953 10.5706 3.12053C10.3408 3.34154 10.1621 3.60079 10.0447 3.88348C9.92728 4.16616 9.87348 4.46672 9.88637 4.76797V7.82169C9.86342 8.01863 9.92827 8.21572 10.0669 8.37033C10.2055 8.52494 10.4068 8.62466 10.6271 8.64791H24.2125C24.4321 8.62305 24.6322 8.5229 24.7704 8.36869C24.9087 8.21447 24.9743 8.01829 24.9533 7.82169V4.76797C24.9773 4.16003 24.7305 3.56834 24.2668 3.12239C23.8031 2.67644 23.1603 2.41254 22.4791 2.38845Z" fill="#1C1C1C"/>
<path d="M10.6196 14.2994C10.4756 14.3102 10.3306 14.2943 10.1938 14.2525C10.057 14.2108 9.93141 14.1442 9.82497 14.0569C9.71853 13.9696 9.63356 13.8635 9.57544 13.7454C9.51732 13.6273 9.4873 13.4997 9.4873 13.3707C9.4873 13.2417 9.51732 13.1141 9.57544 12.996C9.63356 12.8779 9.71853 12.7718 9.82497 12.6845C9.93141 12.5972 10.057 12.5306 10.1938 12.4889C10.3306 12.4471 10.4756 12.4312 10.6196 12.442H24.2124C24.3565 12.4312 24.5015 12.4471 24.6383 12.4889C24.7751 12.5306 24.9007 12.5972 25.0071 12.6845C25.1135 12.7718 25.1985 12.8779 25.2566 12.996C25.3148 13.1141 25.3448 13.2417 25.3448 13.3707C25.3448 13.4997 25.3148 13.6273 25.2566 13.7454C25.1985 13.8635 25.1135 13.9696 25.0071 14.0569C24.9007 14.1442 24.7751 14.2108 24.6383 14.2525C24.5015 14.2943 24.3565 14.3102 24.2124 14.2994H10.6196Z" fill="#1C1C1C"/>
<path d="M10.6197 18.9196C10.3426 18.9196 10.077 18.8214 9.88111 18.6467C9.68524 18.4719 9.5752 18.2348 9.5752 17.9876C9.5752 17.7405 9.68524 17.5034 9.88111 17.3286C10.077 17.1539 10.3426 17.0557 10.6197 17.0557H24.2124C24.4895 17.0557 24.7551 17.1539 24.951 17.3286C25.1469 17.5034 25.2569 17.7405 25.2569 17.9876C25.2569 18.2348 25.1469 18.4719 24.951 18.6467C24.7551 18.8214 24.4895 18.9196 24.2124 18.9196H10.6197Z" fill="#1C1C1C"/>
<path d="M10.6197 23.5397C10.3426 23.5397 10.077 23.4415 9.88111 23.2668C9.68524 23.092 9.5752 22.8549 9.5752 22.6078C9.5752 22.3606 9.68524 22.1235 9.88111 21.9488C10.077 21.774 10.3426 21.6758 10.6197 21.6758H24.2124C24.4895 21.6758 24.7551 21.774 24.951 21.9488C25.1469 22.1235 25.2569 22.3606 25.2569 22.6078C25.2569 22.8549 25.1469 23.092 24.951 23.2668C24.7551 23.4415 24.4895 23.5397 24.2124 23.5397H10.6197Z" fill="#1C1C1C"/>
<path d="M10.6196 28.1534C10.4756 28.1642 10.3306 28.1483 10.1938 28.1065C10.057 28.0648 9.93141 27.9982 9.82497 27.9109C9.71853 27.8236 9.63356 27.7175 9.57544 27.5994C9.51732 27.4813 9.4873 27.3537 9.4873 27.2247C9.4873 27.0957 9.51732 26.9681 9.57544 26.85C9.63356 26.7319 9.71853 26.6258 9.82497 26.5385C9.93141 26.4512 10.057 26.3846 10.1938 26.3429C10.3306 26.3011 10.4756 26.2852 10.6196 26.296H19.0494C19.3103 26.3157 19.5533 26.422 19.7305 26.594C19.9077 26.766 20.006 26.9911 20.006 27.2247C20.006 27.4583 19.9077 27.6834 19.7305 27.8554C19.5533 28.0274 19.3103 28.1337 19.0494 28.1534H10.6196Z" fill="#1C1C1C"/>
<path d="M14.0049 33.7055C14.0049 24.4518 22.5532 17.9412 32.9311 17.9412C43.309 17.9412 51.5906 24.4518 51.5906 33.7055L60.9241 35.8008C60.9241 35.8008 62.5167 35.8008 62.5167 37.1228C62.5167 38.4447 61.776 38.5439 60.4871 38.5439H13.353L14.0049 33.7055Z" fill="#E30289"/>
<path d="M14.5158 39.7932H25.1011L14.3676 43.6798C13.9427 42.4043 13.9947 41.04 14.5158 39.7932Z" fill="#E30289"/>
<path d="M35.3902 21.808C41.5755 22.7532 46.8052 25.6285 49.7682 29.2969C47.7904 23.6323 41.3088 19.4814 33.605 19.4814C29.1435 19.4452 24.8311 20.9136 21.5308 23.5927C25.7961 21.6292 30.6768 21.0008 35.3902 21.808Z" fill="white"/>
<path d="M28.3681 36.5345H28.2867C27.864 36.522 27.4525 36.4103 27.0936 36.2107C26.7347 36.0111 26.441 35.7307 26.2422 35.3977L23.2347 30.4007C23.0723 30.1511 22.968 29.875 22.9278 29.5887C22.8877 29.3024 22.9126 29.0118 23.001 28.7343C23.0895 28.4567 23.2397 28.198 23.4427 27.9734C23.6457 27.7488 23.8973 27.563 24.1826 27.427C24.4678 27.2911 24.7808 27.2079 25.1029 27.1822C25.425 27.1566 25.7495 27.1892 26.0572 27.2779C26.3649 27.3667 26.6494 27.5099 26.8937 27.6989C27.138 27.8879 27.3372 28.1189 27.4792 28.3781L28.5311 30.1231L32.7312 24.1148C33.0759 23.6301 33.6224 23.2874 34.2503 23.1622C34.8782 23.037 35.5361 23.1395 36.0794 23.4472C36.6226 23.7548 37.0066 24.2424 37.1469 24.8027C37.2872 25.363 37.1723 25.9501 36.8275 26.4348L30.4052 35.5299C30.1885 35.8373 29.888 36.0908 29.5318 36.2665C29.1755 36.4422 28.7752 36.5344 28.3681 36.5345Z" fill="white"/>
</svg>
