<svg width="62" height="56" viewBox="0 0 62 56" fill="none" xmlns="http://www.w3.org/2000/svg">
<path d="M40.4629 16.5449C40.9972 16.8905 41.5636 17.1948 42.1559 17.4546C42.3561 17.552 42.5745 17.6008 42.7748 17.682C42.975 17.7632 43.5758 17.9906 43.9944 18.1043C44.4131 18.218 44.4859 18.2018 44.7226 18.2505C44.9592 18.2992 45.4872 18.4129 45.8694 18.4617H46.6704H47.7444C48.1449 18.4617 48.5272 18.4617 48.9277 18.3642L49.7832 18.2505C50.1913 18.1799 50.593 18.0822 50.9847 17.9581C51.2567 17.8971 51.5242 17.8212 51.7857 17.7307C52.2276 17.5928 52.6593 17.4301 53.0781 17.2434C53.2784 17.1459 53.4968 17.081 53.697 16.9673C54.302 16.6376 54.8744 16.2627 55.4082 15.8465C54.783 14.8527 54.0836 13.8976 53.3148 12.9876C52.9325 12.5491 52.532 12.0943 52.1133 11.6719C51.6946 11.2496 51.2577 10.8273 50.8026 10.4374C50.3476 10.0476 49.8379 9.59278 49.3281 9.20294C45.6855 6.40263 41.2977 4.48417 36.5855 3.63147C36.0399 4.73221 35.7075 5.90758 35.6025 7.10755C35.3709 9.53752 36.0705 11.9657 37.5867 13.9947C38.3704 14.9887 39.344 15.8519 40.4629 16.5449Z" fill="#E5177F"/>
<path d="M48.9459 18.4617C48.5455 18.4617 48.1632 18.5429 47.7627 18.5591C48.1632 18.5429 48.5455 18.5104 48.9459 18.4617Z" fill="#E5177F"/>
<path d="M42.7928 17.6982C42.5925 17.6982 42.3741 17.5683 42.1738 17.4708C42.3741 17.5683 42.5925 17.617 42.7928 17.6982Z" fill="#E5177F"/>
<path d="M52.0767 11.7206C51.658 11.2982 51.2211 10.8759 50.766 10.4861C50.3109 10.0962 49.8012 9.64143 49.2915 9.25159C49.8012 9.64143 50.2927 10.0475 50.766 10.4861C51.2393 10.9247 51.658 11.2982 52.0767 11.7206Z" fill="#E5177F"/>
<path d="M44.7408 18.2667C44.5042 18.2667 44.2493 18.1855 44.0127 18.1205C44.2493 18.1855 44.5042 18.2179 44.7408 18.2667Z" fill="#E5177F"/>
<path d="M41.2453 47.2449C40.1755 45.707 38.6837 44.4382 36.911 43.5583C35.1383 42.6785 33.1434 42.2167 31.1149 42.2167C29.0865 42.2167 27.0915 42.6785 25.3188 43.5583C23.5462 44.4382 22.0544 45.707 20.9845 47.2449C20.2668 48.2676 19.7555 49.3946 19.4736 50.5748C22.1794 51.6855 25.0686 52.3985 28.0294 52.6864C29.0512 52.7841 30.0782 52.8329 31.1058 52.8326C33.1444 52.837 35.1773 52.6409 37.1677 52.2478C39.0818 51.8778 40.9484 51.3335 42.738 50.6235C42.6348 50.2153 42.501 49.8137 42.3376 49.4215C42.0631 48.6627 41.6969 47.9329 41.2453 47.2449Z" fill="#41403F"/>
<path d="M58.7212 25.1214C58.1757 25.0889 57.6284 25.0889 57.0829 25.1214H56.2273L55.1715 25.2676L54.3341 25.4463L53.3147 25.7549L52.5502 26.0473C52.2193 26.1827 51.8972 26.3345 51.5854 26.5021L50.8754 26.8757L50.0016 27.4929L49.3827 27.9477C49.0914 28.1914 48.8366 28.4513 48.5817 28.7112C48.3269 28.9711 48.2359 29.0523 48.0902 29.231C47.8266 29.5486 47.5835 29.8795 47.3621 30.2218L47.0162 30.7091C46.7121 31.2332 46.4505 31.776 46.2334 32.3335C46.0131 32.9847 45.8667 33.654 45.7966 34.3314C45.5281 36.0883 45.7662 37.8773 46.4883 39.5293C47.4406 41.7655 49.2193 43.645 51.5307 44.8571C54.4329 42.083 56.5761 38.7473 57.7928 35.1111C58.1026 34.2486 58.3518 33.3697 58.5392 32.4796C58.8542 31.0128 59.0127 29.5225 59.0125 28.029C59.0125 27.4929 59.0125 26.9731 58.9033 26.4046C58.794 25.8361 58.7758 25.5437 58.7212 25.1214Z" fill="#41403F"/>
<path d="M21.7674 16.5449C22.3281 16.1741 22.8575 15.7669 23.3511 15.3267C23.8174 14.8866 24.2435 14.4141 24.6254 13.9135C25.3762 12.9204 25.9361 11.8224 26.2819 10.6648C26.4428 10.0879 26.5584 9.50176 26.6278 8.91054C26.8363 7.13069 26.5422 5.33258 25.7722 3.68018C24.4123 3.92413 23.0739 4.25527 21.7674 4.67102C17.883 5.89662 14.356 7.88373 11.4459 10.4861C10.789 11.0789 10.1749 11.7082 9.6073 12.3704C8.57102 13.4707 7.64514 14.6502 6.84033 15.8952C7.36436 16.3149 7.93113 16.6902 8.53328 17.016C8.73352 17.1297 8.95197 17.1946 9.15221 17.2921C9.55637 17.4967 9.97608 17.6758 10.4083 17.8281C10.6631 17.9256 10.918 17.9743 11.191 18.0555C11.5836 18.1774 11.985 18.2751 12.3925 18.3479L13.2481 18.4616L14.4313 18.5591H15.5053H16.3063C16.6886 18.5591 17.0708 18.4291 17.4531 18.3479C17.8354 18.2667 17.9446 18.2667 18.1813 18.2017C18.4179 18.1368 19.0186 17.9256 19.4191 17.7794C19.8196 17.6332 19.8196 17.6495 20.0199 17.552C20.6312 17.2579 21.2155 16.9212 21.7674 16.5449Z" fill="#41403F"/>
<path d="M15.1958 30.7416C15.0866 30.5629 14.9591 30.4167 14.8499 30.238C14.7407 30.0593 14.3948 29.572 14.14 29.2634L13.6303 28.7436C13.3754 28.4837 13.1206 28.2238 12.8293 27.9802L12.2104 27.5091C11.9191 27.298 11.6461 27.103 11.3366 26.9081L10.6266 26.5345C10.3148 26.367 9.9927 26.2151 9.66184 26.0797L8.89728 25.7873L7.87787 25.4787L7.0405 25.365C6.69155 25.3004 6.33916 25.2516 5.98468 25.2188H5.12911C4.5836 25.1863 4.03628 25.1863 3.49077 25.2188C3.35909 26.1836 3.29223 27.1545 3.29053 28.1264C3.29499 29.3275 3.39231 30.527 3.58179 31.7162C3.77829 32.8628 4.058 33.9968 4.41916 35.111C4.87497 36.5774 5.48445 38.0023 6.23954 39.3668C7.43516 41.3676 8.92934 43.2145 10.6813 44.857C11.5407 44.4101 12.3303 43.864 13.0295 43.2327C13.7289 42.5964 14.3401 41.8875 14.8499 41.1211C15.5164 40.1136 15.9959 39.0165 16.2698 37.8724C16.4123 37.2904 16.4916 36.6975 16.5065 36.1019C16.5636 34.8674 16.3662 33.6341 15.9239 32.4634C15.7404 31.8708 15.4967 31.2945 15.1958 30.7416Z" fill="#41403F"/>
<path d="M31.1061 39.5293C27.711 39.5473 24.4228 40.5913 21.778 42.4911C19.1333 44.3909 17.288 47.0342 16.5431 49.99C16.4069 50.5817 16.4959 51.1969 16.796 51.7383C17.0961 52.2797 17.5901 52.7163 18.1997 52.9788C22.2438 54.6318 26.6397 55.4875 31.0879 55.4875C35.5361 55.4875 39.9321 54.6318 43.9762 52.9788C44.5985 52.7199 45.1034 52.2796 45.4078 51.7304C45.7122 51.1813 45.798 50.556 45.6509 49.9575C44.9027 47.0091 43.0578 44.3735 40.4168 42.4799C37.7757 40.5864 34.4941 39.5464 31.1061 39.5293ZM28.0297 52.6864C25.0689 52.3986 22.1797 51.6855 19.4739 50.5748C19.7558 49.3946 20.2671 48.2676 20.9848 47.2449C22.0371 45.7316 23.4947 44.4757 25.2263 43.5901C27.0193 42.6836 29.0453 42.2078 31.1061 42.2095C31.9584 42.2182 32.8069 42.3108 33.6365 42.4856C35.1976 42.7832 36.6757 43.3578 37.9829 44.1754C39.2901 44.9931 40.3997 46.0369 41.2456 47.2449C41.6936 47.9174 42.0598 48.6308 42.3379 49.3728C42.5013 49.765 42.6351 50.1666 42.7383 50.5748C40.9487 51.2848 39.0821 51.8291 37.168 52.1991C35.1776 52.5922 33.1447 52.7883 31.1061 52.7839C30.0794 52.8004 29.0525 52.7679 28.0297 52.6864Z" fill="white"/>
<path d="M59.0307 22.4412C58.5396 22.4169 58.0473 22.4169 57.5562 22.4412C54.2805 22.4426 51.0964 23.4054 48.4946 25.1811C45.8928 26.9569 44.0178 29.447 43.1587 32.2675C42.2997 35.0881 42.5042 38.0825 43.7408 40.7891C44.9774 43.4956 47.1774 45.7641 50.0016 47.2448C50.4666 47.485 50.9934 47.6137 51.5307 47.6184C51.9449 47.62 52.3548 47.5442 52.7342 47.396C53.1135 47.2477 53.4539 47.0302 53.7334 46.7575C59.0042 41.6809 61.9303 35.0143 61.9251 28.0939C61.9224 27.0086 61.8555 25.9242 61.7248 24.8452C61.65 24.2305 61.3422 23.6571 60.8522 23.2199C60.3622 22.7826 59.7196 22.5079 59.0307 22.4412ZM46.4519 39.5292C45.7298 37.8772 45.4917 36.0882 45.7601 34.3313C45.848 33.6803 46.0066 33.0383 46.2334 32.4146C46.4505 31.8572 46.7121 31.3143 47.0162 30.7903L47.3621 30.303C47.5835 29.9606 47.8266 29.6298 48.0902 29.3121C48.2358 29.1334 48.4179 28.971 48.5817 28.7923C48.7456 28.6137 49.0914 28.2726 49.3827 28.0289L50.0016 27.5741L50.8754 26.9568L51.5853 26.5832C51.8972 26.4157 52.2193 26.2639 52.5501 26.1284L53.3147 25.836L54.3341 25.5274L55.1715 25.3487L56.2273 25.2026H57.0829C57.6284 25.1701 58.1757 25.1701 58.7212 25.2026C58.7212 25.6249 58.7212 26.0797 58.7212 26.5183C58.7212 26.9568 58.8304 27.5741 58.8304 28.1426C58.8828 29.5932 58.7853 31.045 58.5392 32.4796C58.3518 33.3697 58.1025 34.2485 57.7928 35.111C56.5761 38.7473 54.4328 42.083 51.5307 44.857C49.2057 43.6506 47.4134 41.7705 46.4519 39.5292Z" fill="white"/>
<path d="M38.6788 18.7215C41.4311 20.5123 44.7884 21.4069 48.1905 21.2562C51.5927 21.1054 54.8341 19.9184 57.374 17.8931C57.8679 17.4904 58.197 16.9522 58.3091 16.3637C58.4213 15.7752 58.31 15.1701 57.993 14.6444C56.6084 12.4483 54.8935 10.4317 52.8959 8.65062C48.6174 4.75034 43.1258 2.08524 37.1315 1L36.5489 1C35.9606 1.001 35.3854 1.15523 34.8938 1.44378C34.4023 1.73232 34.0159 2.14262 33.782 2.62434C32.4392 5.40638 32.1923 8.51228 33.0816 11.4356C33.9709 14.3589 35.9439 16.9271 38.6788 18.7215ZM36.5489 3.68015C41.2611 4.53285 45.6489 6.45131 49.2916 9.25162C49.8013 9.64146 50.2928 10.0475 50.7661 10.4861C51.2394 10.9247 51.6581 11.2983 52.0768 11.7206C52.4954 12.1429 52.8959 12.5978 53.2782 13.0363C54.0471 13.9463 54.7465 14.9014 55.3716 15.8952C54.8379 16.3113 54.2654 16.6863 53.6605 17.0159C53.4602 17.1297 53.2418 17.1946 53.0416 17.2921C52.6418 17.4935 52.2284 17.6725 51.8037 17.8281C51.5422 17.9186 51.2747 17.9946 51.0027 18.0555C50.611 18.1796 50.2094 18.2774 49.8013 18.3479L48.9457 18.4616C48.5452 18.4616 48.1629 18.5428 47.7625 18.5591H46.6884H45.8875C45.5052 18.5591 45.1229 18.4291 44.7406 18.3479C44.3584 18.2667 44.2491 18.2667 44.0125 18.2017C43.7758 18.1367 43.1933 17.9256 42.7928 17.7794C42.3924 17.6332 42.3742 17.6494 42.1739 17.552C41.5817 17.2922 41.0153 16.9879 40.481 16.6424C39.346 15.9218 38.3656 15.025 37.5866 13.9947C36.0893 12.0056 35.3783 9.62772 35.5659 7.23745C35.6606 6.00988 35.9932 4.80628 36.5489 3.68015Z" fill="white"/>
<path d="M14.8499 21.2717C17.9977 21.271 21.0638 20.3779 23.606 18.7215C26.331 16.9201 28.2914 14.3479 29.1675 11.4245C30.0436 8.50103 29.7836 5.39897 28.4299 2.62435C28.1664 2.05464 27.692 1.5827 27.0858 1.28714C26.4797 0.991588 25.7784 0.890252 25.0987 1.00001C19.1335 2.07908 13.6641 4.72004 9.38882 8.58566C7.39129 10.3667 5.67635 12.3834 4.29177 14.5795C3.97475 15.1051 3.86347 15.7102 3.97559 16.2987C4.08771 16.8872 4.41681 17.4255 4.91069 17.8281C7.63479 20.03 11.1744 21.2563 14.8499 21.2717ZM21.6764 4.67101C23.0125 4.25147 24.3815 3.92029 25.7722 3.68017C26.5762 5.33043 26.9017 7.13473 26.7188 8.92677C26.6229 9.54185 26.4769 10.1499 26.2819 10.746C25.9361 11.9036 25.3762 13.0016 24.6254 13.9947C24.2435 14.4953 23.8174 14.9678 23.3511 15.4079C22.8574 15.8481 22.3281 16.2553 21.7674 16.6261C21.1891 16.9774 20.5804 17.287 19.947 17.552C19.7468 17.6495 19.5465 17.6982 19.3463 17.7794C19.146 17.8606 18.5271 18.088 18.1084 18.2017C17.6897 18.3154 17.6169 18.2992 17.3803 18.3479C17.1436 18.3967 16.6157 18.5104 16.2334 18.5591H15.4325H14.3584C13.958 18.5591 13.5757 18.5591 13.1752 18.4616L12.3196 18.3479C11.9429 18.2716 11.572 18.1739 11.2092 18.0555C10.9361 17.9743 10.6813 17.9256 10.4264 17.8281C9.99448 17.6568 9.57497 17.4615 9.17037 17.2434C8.97013 17.1459 8.75169 17.0809 8.55145 16.9672C7.9493 16.6414 7.38252 16.2662 6.8585 15.8464C7.66019 14.6189 8.57991 13.4558 9.60726 12.3704C10.1708 11.7254 10.7788 11.1124 11.4276 10.5349C14.3113 7.92298 17.813 5.91948 21.6764 4.67101Z" fill="white"/>
<path d="M18.8549 31.5862C17.8844 28.9082 15.987 26.5738 13.4356 24.9189C10.8842 23.264 7.81029 22.3737 4.65601 22.3762C4.17098 22.3515 3.68475 22.3515 3.19971 22.3762C2.50554 22.4377 1.857 22.7129 1.3654 23.1545C0.873796 23.5962 0.56979 24.1767 0.505557 24.7965C0.359547 25.8745 0.286599 26.9593 0.287112 28.0452C0.286505 34.96 3.21221 41.62 8.4788 46.6925C8.75829 46.9653 9.09866 47.1828 9.47801 47.331C9.85737 47.4793 10.2673 47.5551 10.6815 47.5534C11.219 47.5503 11.7462 47.4214 12.2106 47.1798C15.1305 45.6336 17.3771 43.2501 18.5837 40.4181C19.7904 37.5862 19.886 34.4729 18.8549 31.5862ZM10.6815 44.857C9.38387 43.6146 8.23675 42.2534 7.25915 40.7962C6.93148 40.3089 6.62202 39.8054 6.33076 39.3018C5.57567 37.9373 4.96619 36.5125 4.51038 35.0461C3.76276 32.7667 3.38274 30.4039 3.38175 28.0289C3.38345 27.057 3.45032 26.0861 3.58199 25.1214C4.1275 25.0889 4.67482 25.0889 5.22033 25.1214H6.07591C6.43038 25.1542 6.78277 25.203 7.13173 25.2676L7.9691 25.4462L8.98851 25.7549L9.75307 26.0472C10.0839 26.1827 10.406 26.3345 10.7179 26.5021L11.4278 26.8757C11.7373 27.0706 12.0103 27.2655 12.3016 27.4767L12.9205 27.9477C13.2118 28.1914 13.4666 28.4513 13.7215 28.7112L14.2312 29.2309C14.486 29.5396 14.7045 29.8807 14.9411 30.2055C15.1778 30.5304 15.1778 30.5304 15.287 30.7091C15.6006 31.2291 15.8626 31.7726 16.0698 32.3334C16.512 33.5042 16.7095 34.7375 16.6523 35.9719C16.6374 36.5675 16.5582 37.1605 16.4156 37.7425C16.1417 38.8866 15.6622 39.9836 14.9958 40.9911C14.4507 41.8104 13.7899 42.5637 13.0297 43.2327C12.3305 43.864 11.5409 44.4102 10.6815 44.857Z" fill="white"/>
</svg>
