<svg width="63" height="42" viewBox="0 0 63 42" fill="none" xmlns="http://www.w3.org/2000/svg">
<path d="M60.2329 35.6399C60.2329 35.6399 60.2329 35.5648 60.2329 35.5397L57.6506 11.3582C57.6336 11.2223 57.5766 11.0928 57.4854 10.9829C57.3942 10.8729 57.2721 10.7864 57.1314 10.7321L56.9068 10.657L55.7701 10.2688L54.8999 10.0183L56.6963 28.8025C56.7237 29.0386 56.684 29.277 56.581 29.4958C56.478 29.7147 56.3149 29.9069 56.1069 30.0547C55.9129 30.1943 55.6834 30.289 55.4386 30.3305C55.1938 30.372 54.9413 30.359 54.7035 30.2927C51.7538 29.6057 48.7137 29.2772 45.6655 29.3159C44.6129 29.3159 43.5463 29.3159 42.4797 29.4286C40.7229 29.5202 39.0065 29.9358 37.4388 30.6492C35.8711 31.3627 34.4862 32.3584 33.3716 33.5736C36.0235 32.4492 38.8714 31.7376 41.7921 31.4698C48.0794 30.6558 57.0612 34.2373 60.2329 35.6399Z" fill="#1C1C1C"/>
<path d="M21.7934 31.4072C24.7145 31.6728 27.5628 32.3845 30.2139 33.511C29.0993 32.2958 27.7144 31.3001 26.1467 30.5866C24.579 29.8732 22.8625 29.4576 21.1057 29.366C20.0391 29.2909 18.9725 29.2533 17.9199 29.2533C14.8658 29.2074 11.8194 29.5404 8.86792 30.2426C8.62837 30.3019 8.37654 30.3102 8.13275 30.2667C7.88897 30.2232 7.66006 30.1291 7.46451 29.9921C7.25442 29.8458 7.08991 29.6539 6.98671 29.4346C6.88351 29.2154 6.84507 28.9761 6.87508 28.7399L8.58724 10.0183L7.71712 10.2938L6.31371 10.7572C6.1713 10.8092 6.0476 10.8951 5.95605 11.0055C5.8645 11.1159 5.80861 11.2465 5.79445 11.3833L3.24023 35.5397C3.24023 35.5397 3.24023 35.6023 3.24023 35.6399C6.53826 34.2373 15.4078 30.6558 21.7934 31.4072Z" fill="#1C1C1C"/>
<path d="M44.6553 36.028C47.2814 36.4826 49.8661 37.1105 52.3881 37.9064L54.2967 38.52C55.4756 38.9082 56.444 39.2589 57.1036 39.4843L57.4123 39.597L57.8474 39.7598C57.9404 39.7727 58.0351 39.7727 58.1281 39.7598C58.2499 39.7589 58.3699 39.7332 58.4789 39.6846C58.5846 39.6413 58.6791 39.5788 58.7564 39.5012C58.8337 39.4236 58.8921 39.3326 58.928 39.2338L59.5315 37.5808C56.865 36.4037 47.9112 32.6969 41.9748 33.3982C34.8314 34.2372 32.614 36.316 32.5859 36.3411C32.357 36.5515 32.0444 36.673 31.7158 36.6792C31.5542 36.6742 31.3953 36.6407 31.2484 36.5805C31.1014 36.5203 30.9693 36.4347 30.8597 36.3285C30.8597 36.3285 28.6283 34.2372 21.4709 33.3982C15.5345 32.6969 6.59471 36.3912 3.92822 37.5808L4.53169 39.2338C4.56758 39.3326 4.62602 39.4236 4.70331 39.5012C4.78061 39.5788 4.87508 39.6413 4.98078 39.6846C5.0898 39.7332 5.2098 39.7589 5.33164 39.7598C5.44738 39.7585 5.56175 39.7372 5.66846 39.6972L6.93153 39.2213C7.91392 38.8707 9.3875 38.3698 11.1418 37.8438L13.2609 37.2302L14.3837 36.9296C15.1275 36.7293 15.8853 36.554 16.6432 36.3912C17.401 36.2284 18.1448 36.0781 18.8746 35.9654C19.4872 35.8787 20.1068 35.8368 20.7271 35.8402C21.7174 35.8431 22.7048 35.9354 23.6743 36.1157C24.3058 36.2409 24.9233 36.3912 25.5127 36.554C26.8268 36.9306 28.1037 37.4039 29.33 37.969C30.3405 38.4324 31.0281 38.8081 31.2387 38.9333H31.3088H31.4211H31.5474H31.8562H31.9825C31.9825 38.9333 37.2453 35.8026 42.5642 35.8026C43.2675 35.82 43.9676 35.8954 44.6553 36.028Z" fill="#1C1C1C"/>
<path d="M23.716 2.22908C23.0114 2.1214 22.2978 2.06694 21.5829 2.06628C20.9684 2.06809 20.3545 2.10154 19.7444 2.16647C18.5454 2.27958 17.3582 2.47637 16.1937 2.75504L15.3938 2.94288L13.9202 3.35613C12.9908 3.62771 12.0774 3.94119 11.1836 4.29534C11.1192 4.3192 11.0639 4.35901 11.0241 4.41005C10.9843 4.46109 10.9617 4.52123 10.959 4.58336L10.5099 9.37958L8.85389 27.5501C8.84678 27.6049 8.85601 27.6604 8.88066 27.711C8.9053 27.7615 8.94448 27.8054 8.99423 27.8381C9.05014 27.8655 9.11289 27.8799 9.17668 27.8799C9.24046 27.8799 9.30322 27.8655 9.35912 27.8381C12.3004 27.1081 15.3447 26.7623 18.3971 26.8113C19.4356 26.8113 20.4882 26.8113 21.5408 26.924C25.0278 27.16 28.277 28.5917 30.6068 30.9187V6.37412C29.8361 5.3001 28.8272 4.37827 27.6421 3.6654C26.457 2.95252 25.1209 2.46371 23.716 2.22908Z" fill="#E71B81"/>
<path d="M41.9463 26.9365C42.9848 26.8614 44.0514 26.8238 45.0899 26.8238C48.1423 26.7762 51.1864 27.122 54.1279 27.8507C54.1838 27.8781 54.2466 27.8924 54.3104 27.8924C54.3742 27.8924 54.4369 27.8781 54.4928 27.8507C54.5426 27.8179 54.5817 27.7741 54.6064 27.7235C54.631 27.6729 54.6403 27.6174 54.6332 27.5626L52.528 4.64596C52.526 4.58237 52.5015 4.52098 52.4579 4.47064C52.4236 4.41748 52.3687 4.37738 52.3035 4.35794C50.143 3.50807 47.8838 2.87391 45.5671 2.467C44.3604 2.25416 43.1342 2.14097 41.9042 2.12889C41.5349 2.10954 41.1647 2.10954 40.7955 2.12889C40.4446 2.12889 40.0938 2.1915 39.771 2.24159C38.2498 2.47008 36.8086 3.01017 35.5608 3.81946C34.5008 4.50259 33.5879 5.35109 32.8662 6.32401V30.8937C35.1993 28.5691 38.4573 27.1492 41.9463 26.9365Z" fill="#E71B81"/>
<path d="M31.7156 41.2375C31.879 41.251 32.0435 41.251 32.2068 41.2375H32.5577C32.6833 41.2112 32.8056 41.1735 32.9226 41.1248L33.2454 40.9996L33.3997 40.9245L33.526 40.8493C36.3086 39.2442 39.4983 38.2883 42.8026 38.0693C43.2725 38.0727 43.7415 38.1061 44.206 38.1694C48.5378 38.9962 52.7683 40.1999 56.8367 41.7635C57.2365 41.9136 57.6661 41.9902 58.0998 41.9889C58.5496 41.9867 58.994 41.9015 59.405 41.7384C59.8049 41.5751 60.1624 41.3394 60.4547 41.0462C60.7471 40.753 60.9679 40.4088 61.1031 40.0353L61.7066 38.3823L62.4083 36.3411C62.443 36.234 62.4711 36.1253 62.4925 36.0155C62.5159 35.8241 62.5159 35.6309 62.4925 35.4395L59.9664 11.1704C59.9214 10.6463 59.7137 10.1438 59.3667 9.71916C59.0197 9.29449 58.547 8.96444 58.0016 8.76598C57.9033 8.76598 57.0613 8.46544 55.6579 8.03966V8.01462L55.2088 7.86435L54.886 4.40806C54.8378 3.98205 54.668 3.57418 54.3928 3.2234C54.1176 2.87262 53.7463 2.59065 53.3142 2.40442C49.7145 0.969087 45.8434 0.153333 41.9044 4.55499e-05C41.0532 -0.00381569 40.2032 0.0590396 39.3642 0.187887C36.376 0.68794 33.6902 2.133 31.7998 4.25779C29.8817 2.11237 27.1521 0.665238 24.1232 0.187887C23.2842 0.0590396 22.4342 -0.00381569 21.583 4.55499e-05C17.658 0.156235 13.8013 0.971966 10.2153 2.40442C9.77731 2.58347 9.40073 2.86353 9.12443 3.21573C8.84814 3.56794 8.68212 3.97953 8.64352 4.40806L8.32073 7.87687L7.8155 8.03966C6.5384 8.45292 5.65424 8.76598 5.48584 8.76598C4.9484 8.9606 4.48106 9.28298 4.13465 9.69807C3.78824 10.1132 3.57601 10.6051 3.52106 11.1203L0.92474 35.3393C0.896831 35.5221 0.896831 35.7075 0.92474 35.8903C0.939304 36.0094 0.96752 36.1269 1.00895 36.2409L1.68258 38.2446L2.32815 39.9352C2.46652 40.309 2.69005 40.6533 2.9847 40.9464C3.27935 41.2395 3.63875 41.4751 4.04032 41.6383C4.44562 41.7951 4.88268 41.876 5.32444 41.876C5.7662 41.876 6.20327 41.7951 6.60857 41.6383C10.677 40.0747 14.9075 38.8709 19.2393 38.0442C19.7038 37.9809 20.1728 37.9474 20.6427 37.944C23.9531 38.1648 27.148 39.1251 29.9333 40.7366L30.0736 40.8117L30.228 40.8869L30.5368 41.0121L30.8596 41.0998C31.0104 41.1422 31.1655 41.1715 31.3227 41.1874L31.7156 41.2375ZM25.4704 36.6166C24.881 36.4538 24.2635 36.3036 23.632 36.1783C22.6625 35.9981 21.6751 35.9058 20.6848 35.9028C20.0645 35.8995 19.445 35.9414 18.8323 36.0281C18.1025 36.1408 17.4289 36.291 16.6009 36.4538C15.7729 36.6166 15.0852 36.7919 14.3414 36.9923L13.2186 37.2929L11.0995 37.9065C9.82238 38.3072 8.67158 38.6829 7.7734 38.9959L6.94539 39.284L5.68231 39.7598C5.57561 39.7999 5.46124 39.8211 5.34549 39.8224C5.22366 39.8216 5.10365 39.7959 4.99464 39.7473C4.88894 39.7039 4.79447 39.6415 4.71717 39.5639C4.63988 39.4863 4.58144 39.3952 4.54555 39.2965L3.94208 37.6435C6.60857 36.4538 15.5483 32.7596 21.4848 33.4609C28.6422 34.2999 30.8596 36.3787 30.8736 36.3912C30.9832 36.4973 31.1153 36.583 31.2622 36.6432C31.4092 36.7034 31.5681 36.7369 31.7297 36.7418C32.0583 36.7357 32.3709 36.6142 32.5998 36.4037C32.5998 36.4037 34.8453 34.2999 41.9886 33.4609C47.9251 32.7596 56.8788 36.4663 59.5453 37.6435L58.9419 39.2965C58.906 39.3952 58.8475 39.4863 58.7702 39.5639C58.6929 39.6415 58.5985 39.7039 58.4928 39.7473C58.3838 39.7959 58.2638 39.8216 58.1419 39.8224C58.0489 39.8354 57.9542 39.8354 57.8612 39.8224L57.0613 39.4843C56.4438 39.2589 55.4754 38.9083 54.2545 38.5201L52.3458 37.9065C49.8238 37.1106 47.2391 36.4827 44.613 36.0281C44.0004 35.9414 43.3808 35.8995 42.7605 35.9028C37.4416 35.9028 32.2209 39.0085 32.1788 39.0335H32.0525H31.7437H31.6174H31.5051H31.435C31.2244 38.9083 30.5368 38.5326 29.5263 38.0693C28.2246 37.4801 26.8674 36.994 25.4704 36.6166ZM3.24037 35.5397L5.83669 11.3582C5.85085 11.2215 5.90674 11.0908 5.99829 10.9804C6.08984 10.87 6.21354 10.7841 6.35595 10.7321L7.75937 10.2687L8.58738 10.0183L6.79101 28.8024C6.76101 29.0387 6.79944 29.2779 6.90264 29.4972C7.00584 29.7164 7.17035 29.9084 7.38044 30.0547C7.576 30.1917 7.8049 30.2857 8.04869 30.3292C8.29247 30.3727 8.5443 30.3645 8.78386 30.3051C11.7353 29.6029 14.7818 29.27 17.8359 29.3158C18.8884 29.3158 19.955 29.3158 21.0216 29.4286C22.7784 29.5201 24.4949 29.9358 26.0626 30.6492C27.6303 31.3626 29.0152 32.3584 30.1298 33.5736C27.4788 32.447 24.6305 31.7354 21.7093 31.4698C15.408 30.6558 6.5384 34.2373 3.25441 35.6398C3.25441 35.6023 3.24037 35.5647 3.24037 35.5397ZM11.1837 4.29536C12.1005 3.93921 13.0373 3.62572 13.9905 3.35615L15.4641 2.9429L16.2641 2.75505C17.4285 2.47639 18.6157 2.27959 19.8147 2.16648C20.4248 2.10156 21.0387 2.06811 21.6532 2.0663C22.3681 2.06696 23.0817 2.12142 23.7864 2.2291C25.1912 2.46373 26.5273 2.95254 27.7124 3.66541C28.8975 4.37828 29.9064 5.30012 30.6771 6.37414V30.9313C28.3473 28.6042 25.0981 27.1725 21.6111 26.9365C20.5585 26.8614 19.5059 26.8238 18.4674 26.8238C15.3868 26.7675 12.3136 27.1134 9.34522 27.8507C9.28932 27.8781 9.22656 27.8925 9.16278 27.8925C9.09899 27.8925 9.03624 27.8781 8.98034 27.8507C8.93058 27.818 8.8914 27.7741 8.86676 27.7235C8.84212 27.6729 8.83288 27.6174 8.83999 27.5627L10.5101 9.3796L10.9591 4.58338C10.9619 4.52125 10.9844 4.46111 11.0242 4.41007C11.064 4.35903 11.1194 4.31922 11.1837 4.29536ZM35.6171 3.75688C36.865 2.94759 38.3061 2.40749 39.8274 2.17901C40.1502 2.17901 40.501 2.09135 40.8519 2.0663C41.2211 2.04696 41.5913 2.04696 41.9606 2.0663C43.1906 2.07839 44.4167 2.19157 45.6235 2.40442C47.9402 2.81132 50.1993 3.44548 52.3599 4.29536C52.425 4.31479 52.48 4.35489 52.5142 4.40806C52.5578 4.4584 52.5824 4.51979 52.5844 4.58338L54.6334 27.5501C54.6405 27.6049 54.6313 27.6604 54.6066 27.711C54.582 27.7616 54.5428 27.8054 54.493 27.8382C54.4371 27.8656 54.3744 27.8799 54.3106 27.8799C54.2468 27.8799 54.1841 27.8656 54.1282 27.8382C51.1866 27.1095 48.1425 26.7637 45.0902 26.8113C44.0516 26.8113 42.9851 26.8113 41.9465 26.924C38.4774 27.1494 35.242 28.5682 32.9226 30.8812V6.32404C33.6375 5.32867 34.5508 4.45859 35.6171 3.75688ZM54.9 10.0183L55.7702 10.2938L56.9069 10.682L57.1315 10.7571C57.2722 10.8114 57.3943 10.8979 57.4855 11.0079C57.5766 11.1178 57.6337 11.2473 57.6507 11.3832L60.247 35.5647C60.247 35.5647 60.247 35.6273 60.247 35.6649C57.0332 34.2623 48.0935 30.6558 41.7079 31.4322C38.7872 31.7 35.9394 32.4116 33.2875 33.536C34.4021 32.3208 35.7869 31.3251 37.3546 30.6116C38.9223 29.8982 40.6388 29.4826 42.3956 29.391C43.4622 29.3158 44.5288 29.2783 45.5814 29.2783C48.6296 29.2395 51.6697 29.5681 54.6194 30.2551C54.8572 30.3214 55.1097 30.3344 55.3544 30.2929C55.5992 30.2514 55.8288 30.1567 56.0228 30.0171C56.2308 29.8692 56.3939 29.677 56.4969 29.4582C56.5999 29.2394 56.6395 29.0009 56.6122 28.7648L54.9 10.0183Z" fill="white"/>
</svg>
