<svg width="60" height="50" viewBox="0 0 60 50" fill="none" xmlns="http://www.w3.org/2000/svg">
<g clip-path="url(#clip0_124_39177)">
<path d="M43.3639 16.0653L42.3226 15.4546L35.9219 24.0355C36.2585 24.2506 36.5796 24.4865 36.8927 24.7433L43.3678 16.0653H43.3639Z" fill="#E30289"/>
<path d="M48.7705 30.3818L48.6335 29.2819L40.2559 30.1077C40.3342 30.472 40.385 30.8363 40.4125 31.2041L48.7705 30.3783V30.3818Z" fill="#E30289"/>
<path d="M22.9601 16.3256L21.7896 16.7107L24.5025 23.2166C24.8783 23.0501 25.2581 22.9009 25.6495 22.7725L22.964 16.3256H22.9601Z" fill="#E30289"/>
<path d="M10.558 22.8904L9.92773 23.8481L19.1197 28.5982C19.2606 28.2513 19.429 27.9077 19.6169 27.5746L10.558 22.8939V22.8904Z" fill="#E30289"/>
<path d="M10.1665 35.8502L10.4836 36.9189L19.01 34.9272C18.8809 34.5733 18.7752 34.2194 18.689 33.8585L10.1626 35.8467L10.1665 35.8502Z" fill="#E30289"/>
<path d="M28.1082 8.9834L26.8633 9.07708L28.1395 22.2381C28.5545 22.193 28.9694 22.1687 29.3844 22.1687L28.1043 8.9834H28.1082Z" fill="#E30289"/>
<path d="M23.6961 37.0126C26.8749 39.8301 32.0347 39.8336 35.2174 37.0126C38.4001 34.1916 38.3962 29.6219 35.2174 26.8009C32.0347 23.9799 26.8789 23.9799 23.6961 26.8009C20.5134 29.6219 20.5134 34.1916 23.6961 37.0126Z" fill="#1C1C1C"/>
<path d="M43.7087 49.0286V48.1507C43.7087 43.1681 39.148 39.1257 33.5303 39.1257H25.3836C19.7658 39.1257 15.2051 43.1681 15.2012 48.1473V49.0251H43.7087V49.0286Z" fill="#1C1C1C"/>
<path d="M48.2344 22.7863C54.6644 22.7863 59.877 18.1662 59.877 12.4671C59.877 6.76791 54.6644 2.14783 48.2344 2.14783C41.8044 2.14783 36.5918 6.76791 36.5918 12.4671C36.5918 18.1662 41.8044 22.7863 48.2344 22.7863Z" fill="#E30289"/>
<path d="M49.4048 35.1701C52.6198 35.1701 55.2261 32.86 55.2261 30.0105C55.2261 27.1609 52.6198 24.8508 49.4048 24.8508C46.1898 24.8508 43.5835 27.1609 43.5835 30.0105C43.5835 32.86 46.1898 35.1701 49.4048 35.1701Z" fill="#E30289"/>
<path d="M27.4663 10.3192C30.6813 10.3192 33.2876 8.0092 33.2876 5.15962C33.2876 2.31004 30.6813 0 27.4663 0C24.2513 0 21.645 2.31004 21.645 5.15962C21.645 8.0092 24.2513 10.3192 27.4663 10.3192Z" fill="#E30289"/>
<path d="M9.12148 32.1618C14.1591 32.1618 18.243 28.5422 18.243 24.0771C18.243 19.6121 14.1591 15.9924 9.12148 15.9924C4.08383 15.9924 0 19.6121 0 24.0771C0 28.5422 4.08383 32.1618 9.12148 32.1618Z" fill="#E30289"/>
<path d="M21.6448 18.2304C23.5734 18.2304 25.1368 16.8447 25.1368 15.1354C25.1368 13.426 23.5734 12.0403 21.6448 12.0403C19.7163 12.0403 18.1528 13.426 18.1528 15.1354C18.1528 16.8447 19.7163 18.2304 21.6448 18.2304Z" fill="#E30289"/>
<path d="M11.3607 39.556C13.2892 39.556 14.8527 38.1703 14.8527 36.4609C14.8527 34.7516 13.2892 33.3658 11.3607 33.3658C9.43207 33.3658 7.86865 34.7516 7.86865 36.4609C7.86865 38.1703 9.43207 39.556 11.3607 39.556Z" fill="#E30289"/>
</g>
<defs>
<clipPath id="clip0_124_39177">
<rect width="59.8769" height="49.0286" fill="white"/>
</clipPath>
</defs>
</svg>
