<svg width="55" height="55" viewBox="0 0 55 55" fill="none" xmlns="http://www.w3.org/2000/svg">
<mask id="mask0_216_47" style="mask-type:luminance" maskUnits="userSpaceOnUse" x="0" y="0" width="55" height="55">
<path d="M54.9836 0H0V54.9836H54.9836V0Z" fill="white"/>
</mask>
<g mask="url(#mask0_216_47)">
<path d="M48.5491 12.8771C52.1061 12.8771 54.9918 9.99145 54.9918 6.43448C54.9918 2.87751 52.1061 -0.00817871 48.5491 -0.00817871C44.9921 -0.00817871 42.1064 2.87751 42.1064 6.43448C42.1064 9.99145 44.9921 12.8771 48.5491 12.8771Z" fill="#1C1C1C"/>
<path d="M6.43436 54.9918C9.99133 54.9918 12.877 52.1061 12.877 48.5491C12.877 44.9921 9.99133 42.1064 6.43436 42.1064C2.87739 42.1064 -0.00830078 44.988 -0.00830078 48.5491C-0.00830078 52.1102 2.87739 54.9918 6.43436 54.9918Z" fill="#1C1C1C"/>
<path d="M6.43436 12.8771C9.99133 12.8771 12.877 9.99145 12.877 6.43448C12.877 2.87751 9.99133 -0.00817871 6.43436 -0.00817871C2.87739 -0.00817871 -0.00830078 2.87751 -0.00830078 6.43448C-0.00830078 9.99145 2.87739 12.8771 6.43436 12.8771Z" fill="#1C1C1C"/>
<path d="M48.5491 54.9918C52.1061 54.9918 54.9918 52.1061 54.9918 48.5491C54.9918 44.9921 52.1061 42.1064 48.5491 42.1064C44.9921 42.1064 42.1064 44.9921 42.1064 48.5491C42.1064 52.1061 44.9921 54.9918 48.5491 54.9918Z" fill="#1C1C1C"/>
<path d="M21.7962 21.7962C20.3186 23.2779 18.0837 23.5972 16.3072 22.7294L11.5469 27.4898L18.3825 34.3254L17.2446 35.4633C16.606 36.1018 16.606 37.1047 17.2446 37.7432C17.8831 38.3817 18.8859 38.3817 19.5245 37.7432L20.6624 36.6053L27.498 43.4409L32.2583 38.6805C31.3906 36.9041 31.7099 34.6733 33.1916 33.1916C34.6692 31.7099 36.9041 31.3906 38.6805 32.2583L43.4409 27.498L36.6053 20.6624L37.7473 19.5245C38.3858 18.8859 38.3858 17.8831 37.7473 17.2446C37.1088 16.606 36.1059 16.606 35.4674 17.2446L34.3295 18.3825L27.4939 11.5469L22.7335 16.3072C23.6013 18.0837 23.282 20.3145 21.8003 21.7962H21.7962Z" fill="#E30289"/>
<path d="M46.2694 30.3222L45.7168 29.7697C45.3771 30.1094 38.5537 36.9327 38.8812 36.6053L37.7433 35.4674C37.1048 34.8288 36.1019 34.8288 35.4634 35.4674C34.8249 36.1059 34.8249 37.1087 35.4634 37.7473L36.6054 38.8852C36.3066 39.1799 29.426 46.0646 29.7698 45.7208L30.3224 46.2733C33.4659 49.4169 38.5701 49.4169 41.7137 46.2733L46.2694 41.7176C49.4129 38.5741 49.4129 33.4699 46.2694 30.3263V30.3222Z" fill="#1C1C1C"/>
<path d="M8.71021 24.6614L9.26688 25.214C9.60661 24.8743 16.4299 18.051 16.1025 18.3784L17.2404 19.5163C17.8789 20.1549 18.8817 20.1549 19.5203 19.5163C20.1588 18.8778 20.1588 17.875 19.5203 17.2364L18.3783 16.0985C18.6771 15.8038 25.5577 8.91908 25.2139 9.26291L24.6613 8.71033C21.5178 5.56677 16.4136 5.56677 13.27 8.71033L8.71021 13.266C5.56665 16.4096 5.56665 21.5138 8.71021 24.6573V24.6614Z" fill="#1C1C1C"/>
<path d="M34.5301 14.0274C36.3106 13.1596 38.5414 13.4789 40.019 14.9606C41.5008 16.4423 41.82 18.6731 40.9523 20.4496C41.2593 20.7525 45.9459 25.4432 45.7126 25.2099L46.2652 24.6573C49.4088 21.5138 49.4088 16.4096 46.2652 13.266L41.7095 8.71033C38.566 5.56677 33.4618 5.56677 30.3182 8.71033L29.7656 9.26291C30.0235 9.52487 34.8207 14.3221 34.526 14.0233L34.5301 14.0274Z" fill="#1C1C1C"/>
<path d="M24.6611 46.2693L25.2137 45.7167C24.9558 45.4548 20.1586 40.6576 20.4533 40.9564C18.6769 41.8241 16.4461 41.5048 14.9644 40.0231C13.4868 38.5414 13.1675 36.3106 14.0312 34.5342C13.7242 34.2272 9.03748 29.5405 9.27079 29.7738L8.71411 30.3264C5.57056 33.4699 5.57056 38.5741 8.71411 41.7177L13.2739 46.2734C16.4175 49.417 21.5176 49.417 24.6652 46.2734L24.6611 46.2693Z" fill="#1C1C1C"/>
</g>
</svg>
