<svg width="63" height="47" viewBox="0 0 63 47" fill="none" xmlns="http://www.w3.org/2000/svg">
<path d="M47.365 8.79904C48.0592 8.79901 48.7378 8.61488 49.3145 8.27005C49.8912 7.92522 50.3401 7.43523 50.6041 6.86231C50.8681 6.28939 50.9354 5.65938 50.7973 5.05229C50.6593 4.44519 50.3221 3.8884 49.8288 3.4526C49.3354 3.01681 48.708 2.72169 48.0262 2.6047C47.3445 2.48771 46.6392 2.55414 45.9998 2.79556C45.3605 3.03697 44.816 3.44248 44.4354 3.96058C44.0549 4.47868 43.8554 5.08601 43.8625 5.70545C43.8625 6.53433 44.2315 7.32926 44.8883 7.91536C45.5452 8.50147 46.436 8.83074 47.365 8.83074" fill="#41403F"/>
<path d="M57.2973 18.7708C58.0772 18.7771 58.8416 18.5764 59.4935 18.1944C60.1454 17.8123 60.6554 17.266 60.9588 16.6249C61.2621 15.9837 61.3452 15.2766 61.1973 14.5933C61.0495 13.9099 60.6775 13.2812 60.1285 12.7869C59.5795 12.2925 58.8783 11.9549 58.1138 11.8168C57.3494 11.6787 56.5562 11.7464 55.835 12.0112C55.1137 12.2761 54.4969 12.7262 54.0628 13.3044C53.6288 13.8826 53.397 14.5628 53.397 15.2588C53.397 16.1891 53.8107 17.0815 54.5472 17.7399C55.2838 18.3983 56.2831 18.7691 57.3257 18.7708" fill="#41403F"/>
<path d="M31.807 5.29968C32.3944 5.29968 32.9685 5.14427 33.4569 4.8531C33.9453 4.56193 34.3259 4.14808 34.5506 3.66389C34.7754 3.17969 34.8342 2.6469 34.7196 2.13288C34.6051 1.61886 34.3222 1.14671 33.9069 0.776121C33.4916 0.405534 32.9625 0.153162 32.3864 0.0509171C31.8103 -0.0513275 31.2132 0.00114812 30.6706 0.201708C30.128 0.402268 29.6642 0.741905 29.3379 1.17767C29.0116 1.61343 28.8374 2.12575 28.8374 2.64984C28.8374 3.35262 29.1503 4.02662 29.7072 4.52356C30.2641 5.0205 31.0195 5.29968 31.807 5.29968Z" fill="#41403F"/>
<path d="M57.7661 19.3286C55.1872 19.3286 53.0985 20.9705 53.0985 22.9991V27.7663H51.976L48.2746 21.7439C49.2885 21.6266 50.2196 21.1832 50.8932 20.4969C51.5669 19.8107 51.9367 18.9287 51.9334 18.0164V13.1605C51.9334 12.1769 51.4955 11.2336 50.7161 10.5381C49.9367 9.84267 48.8796 9.45195 47.7773 9.45195C46.6751 9.45195 45.6179 9.84267 44.8385 10.5381C44.0591 11.2336 43.6212 12.1769 43.6212 13.1605V14.1494L42.7971 12.8055C42.5524 12.4138 42.1992 12.0846 41.7714 11.8494C41.3436 11.6141 40.8553 11.4806 40.3532 11.4615H35.3375V8.72927C35.3375 7.20149 33.7532 5.95898 31.7853 5.95898C29.8174 5.95898 28.2331 7.22685 28.2331 8.72927V11.4615H23.5441C23.0447 11.4903 22.5608 11.6278 22.1347 11.8621C21.7087 12.0964 21.3535 12.4203 21.1002 12.8055L19.8499 14.7516V13.0147C19.8499 12.5276 19.7424 12.0454 19.5335 11.5955C19.3246 11.1455 19.0185 10.7367 18.6326 10.3923C18.2466 10.048 17.7885 9.77481 17.2842 9.58844C16.78 9.40207 16.2396 9.30615 15.6938 9.30615C15.148 9.30615 14.6075 9.40207 14.1033 9.58844C13.5991 9.77481 13.1409 10.048 12.755 10.3923C12.369 10.7367 12.0629 11.1455 11.854 11.5955C11.6452 12.0454 11.5377 12.5276 11.5377 13.0147V17.8769C11.5315 18.826 11.9305 19.7415 12.6537 20.4374C13.3769 21.1333 14.3699 21.5574 15.4309 21.6235L11.4666 27.7789C11.3245 27.7789 11.1754 27.7789 11.0262 27.7789H10.1665V22.9991C10.1665 20.9705 8.0352 19.3223 5.49182 19.3223C2.94844 19.3223 0.824219 20.9705 0.824219 22.9991V32.4257C0.824219 34.4543 2.91292 36.0961 5.49182 36.0961H5.64101H5.75469H11.0759H11.353H51.8482C51.9688 36.1026 52.0898 36.1026 52.2105 36.0961H57.5317H57.6454H57.7946C60.3664 36.0961 62.4622 34.4543 62.4622 32.4257V22.9991C62.4622 20.9705 60.3308 19.3286 57.7946 19.3286" fill="#41403F"/>
<path d="M16.1553 8.65316C16.848 8.65316 17.5252 8.46987 18.1012 8.12646C18.6772 7.78305 19.1261 7.29495 19.3912 6.72387C19.6563 6.1528 19.7256 5.52441 19.5905 4.91816C19.4554 4.31192 19.1218 3.75504 18.6319 3.31796C18.1421 2.88089 17.518 2.58323 16.8386 2.46264C16.1592 2.34205 15.455 2.40394 14.815 2.64049C14.175 2.87703 13.628 3.27761 13.2431 3.79156C12.8583 4.30551 12.6528 4.90975 12.6528 5.52788C12.6519 5.93853 12.7419 6.34531 12.9175 6.72486C13.0932 7.10442 13.3512 7.44928 13.6766 7.73965C14.002 8.03003 14.3885 8.2602 14.8139 8.41697C15.2392 8.57373 15.6951 8.654 16.1553 8.65316Z" fill="#41403F"/>
<path d="M5.96076 18.7645C6.7395 18.7645 7.50073 18.5583 8.14813 18.1721C8.79553 17.786 9.3 17.2371 9.59768 16.595C9.89537 15.9529 9.97289 15.2464 9.82045 14.565C9.66801 13.8835 9.29245 13.2578 8.7413 12.7669C8.19015 12.276 7.48819 11.942 6.72424 11.8072C5.96029 11.6724 5.1687 11.7429 4.44964 12.0096C3.73059 12.2764 3.11638 12.7276 2.68476 13.3059C2.25314 13.8843 2.0235 14.5639 2.02491 15.2588C2.02491 15.7197 2.12676 16.1761 2.32464 16.6018C2.52253 17.0276 2.81255 17.4143 3.17812 17.7399C3.54369 18.0655 3.97763 18.3236 4.45511 18.4994C4.93259 18.6752 5.44423 18.7653 5.96076 18.7645Z" fill="#41403F"/>
<path d="M37.7673 32.2229C37.7673 29.6428 35.1103 27.5508 31.8209 27.5508C28.5316 27.5508 25.8745 29.6428 25.8745 32.2229V38.2706C25.8745 40.8507 28.5387 42.9427 31.8209 42.9427C35.1032 42.9427 37.7673 40.8507 37.7673 38.2706V32.2229ZM36.8082 21.9595C36.8152 22.8461 36.5266 23.7145 35.9789 24.4543C35.4313 25.1941 34.6494 25.7718 33.7328 26.114C32.8161 26.4562 31.8061 26.5474 30.8313 26.376C29.8564 26.2045 28.9607 25.7782 28.2581 25.1513C27.5555 24.5244 27.0778 23.7251 26.8856 22.8552C26.6935 21.9853 26.7957 21.0841 27.1792 20.2662C27.5627 19.4483 28.2101 18.7506 29.0392 18.2619C29.8683 17.7733 30.8415 17.5157 31.8351 17.522C33.1512 17.5303 34.4107 18.0005 35.3413 18.8309C36.272 19.6613 36.7989 20.7851 36.8082 21.9595Z" fill="#2B93D1"/>
<path fill-rule="evenodd" clip-rule="evenodd" d="M31.8134 21.0419C31.4343 21.0395 31.0897 21.1396 30.827 21.2944C30.5667 21.4478 30.4291 21.6273 30.3667 21.7604C30.3078 21.8861 30.3011 21.9958 30.3233 22.0961C30.3466 22.2016 30.4177 22.3603 30.6021 22.5249C30.7907 22.6931 31.0769 22.845 31.4414 22.9091C31.8062 22.9733 32.1803 22.9365 32.5022 22.8163C32.8231 22.6965 33.0336 22.5175 33.1502 22.36C33.2621 22.2088 33.2895 22.0797 33.2888 21.9873C33.2879 21.8738 33.2395 21.6725 32.9982 21.4573C32.7443 21.2307 32.3243 21.0451 31.8134 21.0419ZM27.2523 15.2295C28.6478 14.407 30.2497 13.9919 31.8578 14.002C33.979 14.0154 36.078 14.7702 37.6854 16.2044C39.3054 17.6499 40.3109 19.6965 40.3286 21.9316C40.3419 23.6124 39.792 25.2202 38.8086 26.5486C38.7924 26.5705 38.7761 26.5923 38.7597 26.614C40.2739 27.9806 41.2878 29.8677 41.2878 32.2228V38.2706C41.2878 43.5388 36.2088 46.4626 31.8214 46.4626C27.4339 46.4626 22.355 43.5388 22.355 38.2706V32.2228C22.355 29.8807 23.3577 28.0015 24.8581 26.6367C24.1845 25.7526 23.695 24.7287 23.4489 23.6143C23.0868 21.9749 23.2845 20.2821 23.9925 18.7719C24.6971 17.2692 25.8544 16.0534 27.2523 15.2295ZM29.395 32.2226L29.395 32.2228V38.2706L29.395 38.2707C29.3949 38.2768 29.391 38.4912 29.7918 38.8061C30.2018 39.1282 30.908 39.4226 31.8214 39.4226C32.7347 39.4226 33.441 39.1282 33.851 38.8061C34.2518 38.4912 34.2479 38.2768 34.2478 38.2707L34.2478 38.2706V32.2228L34.2478 32.2226C34.2479 32.2127 34.2499 31.9989 33.8525 31.6864C33.4449 31.3659 32.7395 31.0708 31.8214 31.0708C30.9032 31.0708 30.1979 31.3659 29.7902 31.6864C29.3928 31.9989 29.3949 32.2127 29.395 32.2226Z" fill="white"/>
<path d="M37.7673 32.2229C37.7673 29.6428 35.1103 27.5508 31.8209 27.5508C28.5316 27.5508 25.8745 29.6428 25.8745 32.2229V38.2706C25.8745 40.8507 28.5387 42.9427 31.8209 42.9427C35.1032 42.9427 37.7673 40.8507 37.7673 38.2706V32.2229ZM36.8082 21.9595C36.8152 22.8461 36.5266 23.7145 35.9789 24.4543C35.4313 25.1941 34.6494 25.7718 33.7328 26.114C32.8161 26.4562 31.8061 26.5474 30.8313 26.376C29.8564 26.2045 28.9607 25.7782 28.2581 25.1513C27.5555 24.5244 27.0778 23.7251 26.8856 22.8552C26.6935 21.9853 26.7957 21.0841 27.1792 20.2662C27.5627 19.4483 28.2101 18.7506 29.0392 18.2619C29.8683 17.7733 30.8415 17.5157 31.8351 17.522C33.1512 17.5303 34.4107 18.0005 35.3413 18.8309C36.272 19.6613 36.7989 20.7851 36.8082 21.9595Z" fill="#E30289"/>
</svg>
