<svg width="71" height="53" viewBox="0 0 71 53" fill="none" xmlns="http://www.w3.org/2000/svg">
<path d="M13.9494 14.8119C13.8417 8.45622 21.4721 3.15981 30.9698 2.98027H31.4725C40.7546 2.96232 48.2773 7.89965 48.3851 14.1476C48.4928 20.3956 41.2035 25.5843 31.9572 25.9792C31.302 27.3016 30.3694 28.4672 29.2231 29.3967C28.0767 30.3262 26.7435 30.9977 25.3143 31.3654C25.1491 31.4366 24.9731 31.4791 24.7936 31.4911C24.5423 31.4911 24.4166 31.3295 24.9372 30.5934C26.2309 29.2665 27.132 27.6073 27.5406 25.7997C19.8563 24.7763 14.0392 20.3058 13.9494 14.8119Z" fill="#E71B81"/>
<path d="M33.7537 28.816C31.9654 31.4013 29.3503 33.3008 26.3388 34.2022C25.8445 34.3886 25.3227 34.4918 24.7947 34.5074C24.2019 34.5007 23.6226 34.3293 23.1216 34.0122C22.6207 33.6951 22.2178 33.245 21.958 32.712C21.6862 31.9809 21.6279 31.1876 21.7901 30.4246C21.9522 29.6616 22.328 28.9605 22.8737 28.4031C23.0266 28.2437 23.1704 28.0759 23.3046 27.9004C15.9794 25.7998 11.0779 20.7188 10.9882 14.8299C10.8445 6.75067 19.606 0.233401 30.917 0H31.4736C42.4793 0 51.2049 6.1941 51.3486 14.0938C51.4742 21.5447 43.8618 27.7927 33.7537 28.816ZM30.9709 2.98035C21.4733 3.15989 13.8428 8.45629 13.9506 14.812C13.9506 20.3059 19.8574 24.7764 27.5417 25.7818C27.1239 27.5702 26.2235 29.2097 24.9384 30.5217C24.4177 31.2578 24.5434 31.4193 24.7947 31.4193C24.9742 31.4074 25.1503 31.3649 25.3154 31.2937C26.7447 30.9259 28.0779 30.2544 29.2242 29.325C30.3706 28.3955 31.3031 27.2299 31.9583 25.9075C41.1866 25.5125 48.4759 20.3059 48.3862 14.0759C48.2964 7.84586 40.7558 2.9624 31.4736 2.9624L30.9709 2.98035Z" fill="white"/>
<path d="M41.5098 29.247C42.3838 29.9074 43.4485 30.2665 44.544 30.2703H44.6697C45.7652 30.2665 46.8298 29.9074 47.7039 29.247C48.3532 28.7731 48.884 28.1553 49.2547 27.442C49.6254 26.7287 49.8258 25.9392 49.8404 25.1355C49.841 24.7975 49.8049 24.4603 49.7327 24.1301C49.6372 23.6182 49.455 23.1264 49.1941 22.6758C48.8126 21.9554 48.2661 21.3353 47.5993 20.8663C46.9325 20.3973 46.1643 20.0925 45.3573 19.977C44.5502 19.8615 43.7273 19.9384 42.9557 20.2015C42.1841 20.4646 41.4856 20.9064 40.9173 21.4909C40.5695 21.838 40.2786 22.2379 40.0555 22.6758C39.7946 23.1264 39.6124 23.6182 39.5169 24.1301C39.4447 24.4603 39.4086 24.7975 39.4092 25.1355C39.4196 25.9362 39.6145 26.7237 39.9788 27.4368C40.3432 28.1499 40.8671 28.7693 41.5098 29.247Z" fill="#1C1C1C"/>
<path d="M49.7858 33.7712C49.2995 33.2633 48.7284 32.8441 48.0981 32.5324H48.0084C46.9662 32.0535 45.8338 31.8026 44.6869 31.7963H44.5612C43.4143 31.8026 42.2819 32.0535 41.2398 32.5324H41.15C40.5197 32.8441 39.9486 33.2633 39.4623 33.7712C39.024 34.2326 38.7037 34.7931 38.5287 35.405C38.4429 35.7026 38.4006 36.011 38.403 36.3207V45.4592C38.3962 46.0909 38.5639 46.7122 38.8878 47.2546C39.5251 48.1704 40.3856 48.9083 41.3879 49.3984C42.3901 49.8886 43.501 50.1147 44.6151 50.0554C45.7322 50.1178 46.8466 49.8932 47.8523 49.4029C48.858 48.9127 49.7214 48.1731 50.3603 47.2546C50.6842 46.7122 50.852 46.0909 50.8451 45.4592V36.3207C50.8475 36.011 50.8052 35.7026 50.7194 35.405C50.5444 34.7931 50.2241 34.2326 49.7858 33.7712Z" fill="#1C1C1C"/>
<path d="M58.1531 29.2471C59.0296 29.9029 60.0927 30.2615 61.1873 30.2705H61.2592C62.3487 30.264 63.4069 29.905 64.2754 29.2471C65.15 28.5993 65.7996 27.6937 66.1329 26.6576C66.4662 25.6215 66.4664 24.507 66.1336 23.4708C65.8007 22.4346 65.1515 21.5287 64.2772 20.8805C63.4028 20.2324 62.3474 19.8745 61.2592 19.8572C60.1633 19.8559 59.0949 20.2004 58.2063 20.8417C57.3176 21.4829 56.654 22.3882 56.3098 23.4287C55.9656 24.4691 55.9586 25.5916 56.2895 26.6363C56.6205 27.681 57.2726 28.5946 58.1531 29.2471Z" fill="#1C1C1C"/>
<path d="M61.2585 50.0375C62.3731 50.1002 63.4851 49.8756 64.488 49.3852C65.4908 48.8948 66.3509 48.1549 66.9858 47.2367C67.3151 46.6957 67.489 46.0745 67.4885 45.4413V36.3207C67.4819 36.0116 67.4397 35.7044 67.3628 35.405C67.1739 34.7952 66.8484 34.2364 66.4112 33.7712C65.9315 33.2637 65.3664 32.8443 64.7415 32.5324H64.6338C63.5781 32.0331 62.4263 31.7696 61.2585 31.7604C60.112 31.771 58.9806 32.0218 57.937 32.4965C57.3067 32.8082 56.7356 33.2274 56.2493 33.7353C55.811 34.1967 55.4908 34.7573 55.3157 35.3691C55.2299 35.6667 55.1876 35.9751 55.19 36.2848V45.4233C55.1912 46.054 55.3584 46.6732 55.6748 47.2187C56.2968 48.1167 57.1335 48.845 58.1086 49.3372C59.0838 49.8295 60.1666 50.0702 61.2585 50.0375Z" fill="#1C1C1C"/>
<path d="M61.2588 53C66.4116 53 70.4512 49.6964 70.4512 45.4593V36.3208C70.4217 35.1792 70.1135 34.0622 69.5533 33.067C68.9931 32.0719 68.1981 31.2289 67.2375 30.6114C68.6366 29.1291 69.4252 27.1737 69.4458 25.1355C69.45 23.8007 69.1278 22.4851 68.5073 21.3033C67.8867 20.1215 66.9866 19.1094 65.8854 18.3551C64.7841 17.6008 63.5152 17.1272 62.189 16.9755C60.8628 16.8238 59.5197 16.9988 58.2766 17.485C57.0335 17.9712 55.9282 18.754 55.0568 19.7652C54.1855 20.7764 53.5746 21.9853 53.2774 23.2866C52.9802 24.5878 53.0057 25.9421 53.3516 27.2313C53.6975 28.5205 54.3535 29.7055 55.2622 30.6832C54.3027 31.3005 53.5095 32.1439 52.9523 33.1394C52.3951 34.1349 52.0909 35.252 52.0664 36.3926V45.5311C52.0664 49.6964 56.106 53 61.2588 53ZM57.8655 32.4966C58.9312 32.012 60.0882 31.761 61.2588 31.7605C62.3997 31.7688 63.5258 32.0197 64.5623 32.4966H64.6701C65.2949 32.8085 65.8601 33.2278 66.3398 33.7354C66.777 34.2006 67.1024 34.7594 67.2913 35.3692C67.3683 35.6686 67.4104 35.9758 67.417 36.2849V45.4234C67.4175 46.0567 67.2436 46.6779 66.9143 47.2188C66.6712 47.6472 66.3553 48.03 65.9807 48.3499C64.6393 49.4715 62.9349 50.0651 61.187 50.0196C59.433 50.0696 57.7214 49.4756 56.3753 48.3499C56.0058 48.025 55.6907 47.6432 55.4417 47.2188C55.1253 46.6733 54.9581 46.0541 54.957 45.4234V36.3208C54.9545 36.0111 54.9969 35.7027 55.0827 35.4051C55.2577 34.7933 55.578 34.2328 56.0163 33.7713C56.5026 33.2635 57.0737 32.8442 57.7039 32.5325L57.8655 32.4966ZM56.0701 25.0637C56.1482 23.7333 56.7317 22.4831 57.7013 21.5688C58.6708 20.6545 59.9531 20.1452 61.2857 20.1452C62.6184 20.1452 63.9007 20.6545 64.8702 21.5688C65.8398 22.4831 66.4233 23.7333 66.5013 25.0637C66.5043 25.8788 66.3138 26.683 65.9455 27.4102C65.5772 28.1375 65.0416 28.7669 64.3828 29.2469C63.5143 29.9048 62.4561 30.2638 61.3665 30.2703H61.2588C60.1642 30.2613 59.1011 29.9028 58.2246 29.2469C57.5653 28.7788 57.0241 28.1635 56.6439 27.4498C56.2637 26.7362 56.055 25.9438 56.0342 25.1355L56.0701 25.0637Z" fill="white"/>
<path d="M45.1001 53C50.2529 53 54.2925 49.6964 54.2925 45.4593V36.3208C54.263 35.1792 53.9548 34.0622 53.3946 33.067C52.8345 32.0719 52.0394 31.2289 51.0788 30.6114C52.4779 29.1291 53.2665 27.1737 53.2871 25.1355C53.2913 23.8007 52.9691 22.4851 52.3486 21.3033C51.728 20.1215 50.8279 19.1094 49.7267 18.3551C48.6255 17.6008 47.3565 17.1272 46.0303 16.9755C44.7042 16.8238 43.361 16.9988 42.1179 17.485C40.8748 17.9712 39.7695 18.754 38.8981 19.7652C38.0268 20.7764 37.4159 21.9853 37.1187 23.2866C36.8215 24.5878 36.847 25.9421 37.1929 27.2313C37.5389 28.5205 38.1948 29.7055 39.1035 30.6832C38.144 31.3005 37.3508 32.1439 36.7936 33.1394C36.2364 34.1349 35.9322 35.252 35.9077 36.3926V45.5311C35.9077 49.6964 39.9473 53 45.1001 53ZM41.7068 32.4966C42.7725 32.012 43.9295 31.761 45.1001 31.7605C46.241 31.7688 47.3671 32.0197 48.4036 32.4966H48.5114C49.1362 32.8085 49.7014 33.2278 50.1811 33.7354C50.6183 34.2006 50.9437 34.7594 51.1326 35.3692C51.2096 35.6686 51.2517 35.9758 51.2583 36.2849V45.4234C51.2588 46.0567 51.0849 46.6779 50.7556 47.2188C50.5125 47.6472 50.1966 48.03 49.822 48.3499C48.4806 49.4715 46.7762 50.0651 45.0283 50.0196C43.2743 50.0696 41.5627 49.4756 40.2167 48.3499C39.8471 48.025 39.532 47.6432 39.2831 47.2188C38.9666 46.6733 38.7994 46.0541 38.7983 45.4234V36.3208C38.7959 36.0111 38.8382 35.7027 38.924 35.4051C39.099 34.7933 39.4193 34.2328 39.8576 33.7713C40.3439 33.2635 40.915 32.8442 41.5452 32.5325L41.7068 32.4966ZM39.9114 25.0637C39.9895 23.7333 40.573 22.4831 41.5426 21.5688C42.5121 20.6545 43.7944 20.1452 45.127 20.1452C46.4597 20.1452 47.742 20.6545 48.7115 21.5688C49.6811 22.4831 50.2646 23.7333 50.3427 25.0637C50.3456 25.8788 50.1551 26.683 49.7868 27.4102C49.4185 28.1375 48.883 28.7669 48.2241 29.2469C47.3556 29.9048 46.2974 30.2638 45.2078 30.2703H45.1001C44.0055 30.2613 42.9424 29.9028 42.0659 29.2469C41.4066 28.7788 40.8654 28.1635 40.4852 27.4498C40.1051 26.7362 39.8963 25.9438 39.8755 25.1355L39.9114 25.0637Z" fill="white"/>
<path d="M5.97595 29.456C6.87858 30.1437 7.97807 30.5176 9.10938 30.5216H9.23917C10.3705 30.5176 11.47 30.1437 12.3726 29.456C13.0432 28.9626 13.5913 28.3193 13.9741 27.5766C14.3569 26.8339 14.5639 26.0118 14.579 25.175C14.5796 24.823 14.5423 24.4719 14.4677 24.128C14.3691 23.5951 14.181 23.083 13.9115 22.6138C13.5175 21.8636 12.9532 21.218 12.2646 20.7296C11.576 20.2412 10.7826 19.9239 9.94922 19.8036C9.11582 19.6833 8.26602 19.7634 7.46917 20.0373C6.67232 20.3113 5.951 20.7713 5.36409 21.3799C5.00487 21.7414 4.70452 22.1578 4.47413 22.6138C4.20466 23.083 4.01655 23.5951 3.91789 24.128C3.84332 24.4719 3.80602 24.823 3.80665 25.175C3.81738 26.0087 4.0187 26.8287 4.39494 27.5712C4.77118 28.3137 5.31221 28.9587 5.97595 29.456Z" fill="#E71781"/>
<path d="M15.1513 32.6565C14.59 32.1075 13.9307 31.6543 13.2031 31.3173H13.0995C11.8965 30.7997 10.5893 30.5284 9.26533 30.5216H9.12026C7.7963 30.5284 6.48913 30.7997 5.28607 31.3173H5.18244C4.45488 31.6543 3.79563 32.1075 3.23426 32.6565C2.72833 33.1553 2.3586 33.7613 2.15654 34.4227C2.05751 34.7444 2.00864 35.0777 2.01146 35.4125V45.2913C2.00353 45.9742 2.19718 46.6458 2.57105 47.2322C3.3067 48.2221 4.30007 49.0198 5.45706 49.5497C6.61404 50.0795 7.89633 50.324 9.18243 50.2599C10.472 50.3274 11.7585 50.0845 12.9194 49.5545C14.0803 49.0246 15.077 48.225 15.8145 47.2322C16.1884 46.6458 16.3821 45.9742 16.3741 45.2913V35.4125C16.3769 35.0777 16.3281 34.7444 16.229 34.4227C16.027 33.7613 15.6573 33.1553 15.1513 32.6565Z" fill="#E71781"/>
<path d="M9.1924 53C14.3452 53 18.3848 49.6964 18.3848 45.4593V36.3208C18.3553 35.1792 18.047 34.0622 17.4869 33.067C16.9267 32.0719 16.1317 31.2289 15.1711 30.6114C16.5702 29.1291 17.3587 27.1737 17.3794 25.1355C17.3836 23.8007 17.0614 22.4851 16.4409 21.3033C15.8203 20.1215 14.9202 19.1094 13.819 18.3551C12.7177 17.6008 11.4488 17.1272 10.1226 16.9755C8.79644 16.8238 7.45331 16.9988 6.21021 17.485C4.96711 17.9712 3.86174 18.754 2.99041 19.7652C2.11908 20.7764 1.5082 21.9853 1.21099 23.2866C0.913778 24.5878 0.939254 25.9421 1.28519 27.2313C1.63114 28.5205 2.28705 29.7055 3.1958 30.6832C2.23632 31.3005 1.44312 32.1439 0.885888 33.1394C0.328656 34.1349 0.0244486 35.252 0 36.3926V45.5311C0 49.6964 4.03963 53 9.1924 53ZM5.79912 32.4966C6.86475 32.012 8.02175 31.761 9.1924 31.7605C10.3333 31.7688 11.4594 32.0197 12.4959 32.4966H12.6037C13.2285 32.8085 13.7937 33.2278 14.2734 33.7354C14.7106 34.2006 15.036 34.7594 15.2249 35.3692C15.3019 35.6686 15.344 35.9758 15.3506 36.2849V45.4234C15.3511 46.0567 15.1772 46.6779 14.8479 47.2188C14.6048 47.6472 14.2889 48.03 13.9143 48.3499C12.5729 49.4715 10.8685 50.0651 9.12059 50.0196C7.36658 50.0696 5.65497 49.4756 4.30894 48.3499C3.93942 48.025 3.62424 47.6432 3.37534 47.2188C3.05889 46.6733 2.8917 46.0541 2.89058 45.4234V36.3208C2.88814 36.0111 2.93047 35.7027 3.01626 35.4051C3.19129 34.7933 3.51159 34.2328 3.94987 33.7713C4.43616 33.2635 5.00726 32.8442 5.63753 32.5325L5.79912 32.4966ZM4.00373 25.0637C4.08181 23.7333 4.66533 22.4831 5.63487 21.5688C6.60441 20.6545 7.88668 20.1452 9.21933 20.1452C10.552 20.1452 11.8343 20.6545 12.8038 21.5688C13.7734 22.4831 14.3569 23.7333 14.4349 25.0637C14.4379 25.8788 14.2474 26.683 13.8791 27.4102C13.5108 28.1375 12.9752 28.7669 12.3164 29.2469C11.4479 29.9048 10.3897 30.2638 9.30013 30.2703H9.1924C8.09777 30.2613 7.03466 29.9028 6.1582 29.2469C5.49891 28.7788 4.95772 28.1635 4.57753 27.4498C4.19734 26.7362 3.98859 25.9438 3.96782 25.1355L4.00373 25.0637Z" fill="white"/>
</svg>
