<svg width="65" height="60" viewBox="0 0 65 60" fill="none" xmlns="http://www.w3.org/2000/svg">
<path d="M52.2102 30.7546H11.0134C8.91476 30.7546 6.90212 30.0107 5.41818 28.6865C3.93425 27.3624 3.10059 25.5665 3.10059 23.6939C3.10059 21.8213 3.93425 20.0254 5.41818 18.7013C6.90212 17.3772 8.91476 16.6333 11.0134 16.6333H11.5169C11.5623 15.0006 12.053 13.4024 12.9463 11.9769C13.8396 10.5514 15.1087 9.34165 16.6439 8.45226C18.179 7.56288 19.9338 7.02066 21.7566 6.87252C23.5794 6.72439 25.4152 6.97481 27.1051 7.6021C28.1742 4.95206 30.2964 2.74446 33.069 1.39823C35.8415 0.0520052 39.0715 -0.339164 42.1459 0.298958C45.2202 0.937079 47.9251 2.56009 49.7472 4.85998C51.5692 7.15987 52.3817 9.97659 52.0303 12.7756H52.2102C54.8811 12.7756 57.4427 13.7224 59.3313 15.4076C61.2199 17.0929 62.281 19.3786 62.281 21.7619C62.281 24.1452 61.2199 26.4309 59.3313 28.1161C57.4427 29.8014 54.8811 30.7481 52.2102 30.7481" fill="#E30289"/>
<path d="M15.7828 46.9426H12.0854V43.669H15.7756L15.7828 46.9426ZM10.6467 46.9426H6.95646V43.669H10.6467V46.9426ZM10.6467 51.5191H6.95646V48.2263H10.6467V51.5191ZM17.5812 41.4353L6.07167 35.928C4.8272 35.331 3.77696 35.7803 3.77696 36.955V53.6823C3.77107 54.2341 4.00824 54.7659 4.43741 55.1633C4.86658 55.5606 5.45344 55.7918 6.07167 55.8069H12.0854V48.2263H15.7756V55.8069H17.5812C17.9978 55.7541 18.3747 55.5581 18.6315 55.2606C18.8882 54.9632 19.0044 54.5879 18.9551 54.215V43.669C18.9499 43.2212 18.8211 42.7814 18.5802 42.3884C18.3393 41.9955 17.9938 41.6615 17.574 41.416" fill="#41403F"/>
<path fill-rule="evenodd" clip-rule="evenodd" d="M7.5617 32.8165C7.56233 32.8168 7.56296 32.8171 7.56359 32.8174L19.2032 38.3869L19.3304 38.4618C20.2041 38.9758 20.9659 39.6971 21.5168 40.5927C22.0697 41.4916 22.385 42.5274 22.4044 43.607L22.4049 43.638V54.0587C22.4942 55.3497 22.049 56.581 21.243 57.5149C20.389 58.5042 19.2131 59.0778 18.0142 59.2296L17.7984 59.2569H6.0293L5.98714 59.2559C4.58162 59.2215 3.17633 58.6976 2.09333 57.6948C1.00305 56.6854 0.316656 55.2489 0.32677 53.6685V36.955C0.32677 35.2299 1.19924 33.4441 3.06441 32.6209C4.70197 31.8982 6.37229 32.2467 7.5606 32.8159C7.56097 32.8161 7.56134 32.8163 7.5617 32.8165Z" fill="white"/>
<path d="M29.0616 56.956C28.9539 56.9655 28.8455 56.9655 28.7379 56.956H21.9257C21.5708 56.9373 21.2236 56.8557 20.9045 56.716C20.5853 56.5763 20.3005 56.3812 20.0668 56.1422C19.8331 55.9031 19.6551 55.6249 19.5432 55.3238C19.4313 55.0227 19.3878 54.7048 19.4152 54.3885V40.3828C19.4192 39.7654 19.6014 39.1595 19.9441 38.6232C20.2868 38.0869 20.7785 37.6385 21.3718 37.321C21.5432 37.2424 21.7329 37.2006 21.9257 37.199L26.0259 37.3017V30.883C26.023 30.519 26.0862 30.157 26.213 29.8111L31.2052 15.9337C31.3755 15.377 31.7384 14.8824 32.2421 14.5205C32.7459 14.1586 33.3648 13.9479 34.0107 13.9182C34.6551 13.9324 35.2785 14.1255 35.7943 14.4707C36.31 14.8158 36.6923 15.2958 36.888 15.8438L42.3478 29.7212C42.4927 30.0926 42.5657 30.4833 42.5636 30.8766V53.8686C42.617 54.6365 42.3277 55.3922 41.759 55.9706C41.1903 56.549 40.3883 56.9032 39.528 56.956H29.0616Z" fill="#41403F"/>
<path d="M34.0826 12.8591H33.9675C33.0824 12.9015 32.2333 13.1861 31.5357 13.6742C30.8382 14.1623 30.326 14.8302 30.0687 15.5871L25.0836 29.4709C24.9196 29.9206 24.8371 30.3908 24.8391 30.8637V36.2106L21.9617 36.14H21.8969C21.5111 36.1407 21.1311 36.2244 20.7892 36.3839C20.0035 36.7909 19.3505 37.3739 18.8951 38.0753C18.4396 38.7767 18.1973 39.5721 18.1923 40.3828V54.3692C18.1643 54.8253 18.2383 55.2818 18.41 55.7121C18.5818 56.1424 18.8478 56.5379 19.1927 56.8755C19.5375 57.2131 19.9542 57.486 20.4185 57.6783C20.8828 57.8707 21.3854 57.9786 21.8969 57.9958H28.63C28.7451 57.9958 28.8818 57.9958 29.04 57.9958H39.528C41.8587 57.9958 43.7506 56.1408 43.7506 53.8493V30.8637C43.754 30.3477 43.6567 29.8351 43.4629 29.3489L37.9815 15.478C37.7107 14.7375 37.1915 14.0892 36.4941 13.6208C35.7968 13.1524 34.9549 12.8865 34.0826 12.8591ZM34.0826 14.9837C34.4691 15.0095 34.8376 15.1401 35.1385 15.3581C35.4394 15.5761 35.6583 15.871 35.7659 16.2033L41.2257 30.0614C41.327 30.3192 41.3781 30.5906 41.3768 30.8637V53.8686C41.4273 54.3553 41.262 54.8403 40.9164 55.2195C40.5708 55.5987 40.0723 55.8419 39.528 55.8969H29.0616C28.985 55.9032 28.908 55.9032 28.8314 55.8969H21.9257C21.5282 55.8519 21.1665 55.6691 20.9188 55.3881C20.6711 55.107 20.5574 54.7502 20.6021 54.3949V40.3828C20.6089 39.9586 20.7333 39.5426 20.9643 39.1718C21.1953 38.8011 21.5256 38.4872 21.9257 38.2582L27.2129 38.3929V30.8637C27.212 30.611 27.2557 30.3598 27.3424 30.1192L32.3418 16.2418C32.4381 15.8971 32.6529 15.588 32.956 15.3577C33.2592 15.1275 33.6355 14.9877 34.0323 14.9581H34.0826" fill="white"/>
<path d="M15.7828 46.9426H12.0854V43.669H15.7756L15.7828 46.9426ZM10.6467 46.9426H6.95646V43.669H10.6467V46.9426ZM10.6467 51.5191H6.95646V48.2263H10.6467V51.5191ZM17.5812 41.4353L6.07167 35.928C4.8272 35.331 3.77696 35.7803 3.77696 36.955V53.6823C3.77107 54.2341 4.00824 54.7659 4.43741 55.1633C4.86658 55.5606 5.45344 55.7918 6.07167 55.8069H12.0854V48.2263H15.7756V55.8069H17.5812C17.9978 55.7541 18.3747 55.5581 18.6315 55.2606C18.8882 54.9632 19.0044 54.5879 18.9551 54.215V43.669C18.9499 43.2212 18.8211 42.7814 18.5802 42.3884C18.3393 41.9955 17.9938 41.6615 17.574 41.416" fill="#41403F"/>
<path d="M37.1327 33.5468C37.1327 34.0546 36.9639 34.551 36.6478 34.9732C36.3316 35.3954 35.8822 35.7245 35.3564 35.9188C34.8307 36.1131 34.2521 36.164 33.694 36.0649C33.1358 35.9659 32.6231 35.7213 32.2207 35.3622C31.8183 35.0032 31.5442 34.5457 31.4332 34.0476C31.3222 33.5496 31.3792 33.0334 31.597 32.5642C31.8147 32.0951 32.1835 31.6941 32.6567 31.412C33.1299 31.1298 33.6862 30.9792 34.2553 30.9792C35.0184 30.9792 35.7503 31.2498 36.2899 31.7313C36.8295 32.2128 37.1327 32.8658 37.1327 33.5468Z" fill="white"/>
<path d="M37.3916 48.1238H32.0469V55.8969H37.3916V48.1238Z" fill="white"/>
<path d="M64.2517 43.194L54.7276 34.3746C54.3945 34.0853 53.948 33.9233 53.4831 33.9233C53.0183 33.9233 52.5718 34.0853 52.2387 34.3746L42.7146 43.194C42.4779 43.412 42.3186 43.6875 42.2568 43.9859C42.195 44.2844 42.2333 44.5925 42.367 44.8715C42.5007 45.1506 42.7238 45.3882 43.0083 45.5545C43.2929 45.7209 43.6261 45.8085 43.9662 45.8064H44.9014V54.9467C44.9014 55.09 44.933 55.2319 44.9945 55.3643C45.0559 55.4967 45.146 55.617 45.2595 55.7183C45.3731 55.8196 45.5079 55.9 45.6563 55.9549C45.8046 56.0097 45.9637 56.0379 46.1243 56.0379H60.6982C61.0225 56.0379 61.3335 55.923 61.5629 55.7183C61.7922 55.5137 61.921 55.2361 61.921 54.9467V45.8064H63.0001C63.3402 45.8085 63.6734 45.7209 63.9579 45.5545C64.2424 45.3882 64.4656 45.1506 64.5993 44.8715C64.733 44.5925 64.7713 44.2844 64.7095 43.9859C64.6477 43.6875 64.4884 43.412 64.2517 43.194Z" fill="#41403F"/>
<path d="M59.4682 48.7014H54.7134V56.0381H59.4682V48.7014Z" fill="white"/>
<path d="M52.6849 48.7078H47.2754V52.3087H52.6849V48.7078Z" fill="white"/>
<path d="M49.491 35.0808H45.3188V41.0695H49.491V35.0808Z" fill="#41403F"/>
</svg>
