<svg width="56" height="42" viewBox="0 0 56 42" fill="none" xmlns="http://www.w3.org/2000/svg">
<g clip-path="url(#clip0_216_77)">
<path d="M34.5977 16.049L34.0663 15.6998L30.8003 20.6067C30.9721 20.7298 31.1359 20.8647 31.2957 21.0115L34.5997 16.049H34.5977Z" fill="#E30289"/>
<path d="M37.3564 24.2358L37.2865 23.6068L33.0117 24.0791C33.0517 24.2874 33.0776 24.4957 33.0916 24.7061L37.3564 24.2338V24.2358Z" fill="#E30289"/>
<path d="M24.1866 16.1979L23.5894 16.4181L24.9737 20.1385C25.1654 20.0433 25.3592 19.9579 25.559 19.8845L24.1886 16.1979H24.1866Z" fill="#E30289"/>
<path d="M17.8582 19.9519L17.5366 20.4995L22.2269 23.2159C22.2988 23.0175 22.3847 22.8211 22.4806 22.6306L17.8582 19.9539V19.9519Z" fill="#E30289"/>
<path d="M17.6582 27.3629L17.8201 27.9741L22.1708 26.8351C22.1048 26.6327 22.0509 26.4304 22.007 26.224L17.6562 27.3609L17.6582 27.3629Z" fill="#E30289"/>
<path d="M26.8134 11.9993L26.1782 12.0528L26.8294 19.5789C27.0412 19.5531 27.2529 19.5392 27.4647 19.5392L26.8115 11.9993H26.8134Z" fill="#E30289"/>
<path d="M24.5618 28.0276C26.1838 29.6388 28.8166 29.6408 30.4406 28.0276C32.0646 26.4145 32.0626 23.8013 30.4406 22.1881C28.8166 20.575 26.1858 20.575 24.5618 22.1881C22.9377 23.8013 22.9377 26.4145 24.5618 28.0276Z" fill="#41403F"/>
<path d="M34.7734 34.8989V34.3969C34.7734 31.5476 32.4462 29.236 29.5797 29.236H25.4227C22.5562 29.236 20.229 31.5476 20.2271 34.3949V34.8969H34.7734V34.8989Z" fill="#41403F"/>
<path d="M37.0829 19.8925C40.3639 19.8925 43.0236 17.2505 43.0236 13.9915C43.0236 10.7324 40.3639 8.09045 37.0829 8.09045C33.8019 8.09045 31.1421 10.7324 31.1421 13.9915C31.1421 17.2505 33.8019 19.8925 37.0829 19.8925Z" fill="#E30289"/>
<path d="M37.6799 26.974C39.3204 26.974 40.6502 25.653 40.6502 24.0235C40.6502 22.394 39.3204 21.073 37.6799 21.073C36.0394 21.073 34.7095 22.394 34.7095 24.0235C34.7095 25.653 36.0394 26.974 37.6799 26.974Z" fill="#E30289"/>
<path d="M26.4855 12.7632C28.126 12.7632 29.4559 11.4422 29.4559 9.81268C29.4559 8.18317 28.126 6.86218 26.4855 6.86218C24.845 6.86218 23.5151 8.18317 23.5151 9.81268C23.5151 11.4422 24.845 12.7632 26.4855 12.7632Z" fill="#E30289"/>
<path d="M17.125 25.2537C19.6956 25.2537 21.7794 23.1838 21.7794 20.6305C21.7794 18.0772 19.6956 16.0073 17.125 16.0073C14.5545 16.0073 12.4707 18.0772 12.4707 20.6305C12.4707 23.1838 14.5545 25.2537 17.125 25.2537Z" fill="#E30289"/>
<path d="M23.5152 17.2871C24.4993 17.2871 25.2971 16.4947 25.2971 15.5172C25.2971 14.5397 24.4993 13.7473 23.5152 13.7473C22.5312 13.7473 21.7334 14.5397 21.7334 15.5172C21.7334 16.4947 22.5312 17.2871 23.5152 17.2871Z" fill="#E30289"/>
<path d="M18.2677 29.4821C19.2518 29.4821 20.0495 28.6897 20.0495 27.7122C20.0495 26.7347 19.2518 25.9423 18.2677 25.9423C17.2836 25.9423 16.4858 26.7347 16.4858 27.7122C16.4858 28.6897 17.2836 29.4821 18.2677 29.4821Z" fill="#E30289"/>
</g>
<g clip-path="url(#clip1_216_77)">
<path d="M47.4504 3.27661H9.69727V29.7759H47.4504V3.27661Z" fill="white"/>
<path d="M46.6095 28.7638H10.5376C10.3156 28.7623 10.1033 28.673 9.94688 28.5156C9.79047 28.3581 9.70269 28.1451 9.7027 27.9232V4.51757C9.7042 4.29661 9.79264 4.08512 9.94889 3.92887C10.1051 3.77262 10.3166 3.68418 10.5376 3.68268H46.6095C46.8315 3.68267 47.0444 3.77045 47.2019 3.92686C47.3594 4.08327 47.4486 4.29562 47.4502 4.51757V27.9232C47.4502 28.1461 47.3616 28.3599 47.2039 28.5176C47.0463 28.6752 46.8325 28.7638 46.6095 28.7638ZM46.6095 0H10.5376C9.33946 0 8.19039 0.475957 7.34319 1.32317C6.49598 2.17037 6.02002 3.31944 6.02002 4.51757V27.9232C6.02002 29.1218 6.49579 30.2715 7.34284 31.1196C8.18988 31.9677 9.33893 32.4449 10.5376 32.4465H46.6095C47.8092 32.4465 48.9597 31.9699 49.808 31.1216C50.6563 30.2733 51.1328 29.1228 51.1328 27.9232V4.51757C51.1313 3.31891 50.6541 2.16986 49.806 1.32282C48.9579 0.475773 47.8082 -9.57884e-07 46.6095 0Z" fill="#41403F"/>
<path d="M54.3354 37.8275C54.3265 38.3059 54.2234 38.7778 54.0321 39.2164C53.8407 39.6549 53.5648 40.0515 53.2202 40.3834C52.8756 40.7152 52.4689 40.976 52.0235 41.1507C51.578 41.3254 51.1026 41.4106 50.6242 41.4015H6.50065C6.01966 41.4208 5.53973 41.3427 5.08966 41.1719C4.6396 41.0011 4.22868 40.7411 3.88155 40.4076C3.53442 40.0741 3.25825 39.6739 3.06959 39.2311C2.88094 38.7882 2.78369 38.3118 2.78369 37.8304C2.78369 37.349 2.88094 36.8726 3.06959 36.4297C3.25825 35.9868 3.53442 35.5866 3.88155 35.2531C4.22868 34.9196 4.6396 34.6597 5.08966 34.4889C5.53973 34.3181 6.01966 34.24 6.50065 34.2592H50.6242C51.5893 34.2408 52.5223 34.6063 53.2182 35.2754C53.9141 35.9444 54.3159 36.8624 54.3354 37.8275Z" fill="#41403F"/>
<path d="M51.1274 9.4469H5.9917V24.9953H51.1274V9.4469Z" fill="white"/>
<path d="M4.1789 11.3568L5.1396 16.1775C5.35118 17.3783 5.59136 18.6707 5.78579 20.0145H5.85441C6.07171 18.6707 6.42625 17.3497 6.69502 16.2003L7.94164 11.3568H10.8009L11.996 16.0116C12.3277 17.3555 12.6422 18.6478 12.8595 20.0145H12.9052C13.0711 18.6936 13.3113 17.3497 13.6029 16.0116L14.5808 11.3568H18.1548L14.5579 23.0853H11.1554L10.0517 18.9852C9.72979 17.7763 9.47399 16.5507 9.28547 15.314H9.23401C9.05588 16.5432 8.79994 17.7598 8.46774 18.9566L7.32405 23.0853H3.89298L0.461914 11.3568H4.1789Z" fill="#E30289"/>
<path d="M22.8267 11.3568L23.7874 16.1775C24.0047 17.3783 24.2448 18.6707 24.4335 20.0145H24.5079C24.7252 18.6707 25.0797 17.3497 25.3485 16.2003L26.5951 11.3568H29.4543L30.6438 16.0116C30.9812 17.3555 31.29 18.6478 31.5073 20.0145H31.5587C31.7246 18.6936 31.9647 17.3497 32.2507 16.0116L33.2342 11.3568H36.8083L33.2114 23.0853H29.7803L28.6995 18.9852C28.3726 17.7761 28.1092 16.5507 27.9104 15.314C27.7342 16.5417 27.486 17.758 27.167 18.9566L26.0233 23.0853H22.5922L19.1611 11.3568H22.8267Z" fill="#E30289"/>
<path d="M41.4804 11.3568L42.4411 16.1775C42.6584 17.3783 42.8986 18.6707 43.0873 20.0145H43.1616C43.3732 18.6707 43.7334 17.3497 43.9965 16.2003L45.2431 11.3568H48.1023L49.2975 16.0116C49.6349 17.3555 49.9437 18.6478 50.161 20.0145H50.2124C50.384 18.6936 50.6242 17.3497 50.9101 16.0116L51.8937 11.3568H55.4677L51.8651 23.0853H48.4569L47.3532 18.9852C47.0291 17.7765 46.7714 16.5509 46.5812 15.314H46.5355C46.3593 16.5417 46.1111 17.758 45.7921 18.9566L44.6141 23.0853H41.183L37.752 11.3568H41.4804Z" fill="#E30289"/>
<path d="M8.41075 37.8275C8.41188 38.0878 8.3357 38.3427 8.19187 38.5597C8.04804 38.7768 7.84303 38.9462 7.6028 39.0467C7.36257 39.1471 7.09794 39.1739 6.84244 39.1238C6.58693 39.0737 6.35204 38.9489 6.16753 38.7652C5.98302 38.5815 5.85718 38.3472 5.80597 38.0919C5.75475 37.8366 5.78046 37.5719 5.87984 37.3312C5.97922 37.0905 6.14779 36.8848 6.3642 36.74C6.58062 36.5952 6.83513 36.5179 7.0955 36.5179C7.44334 36.5179 7.77701 36.6557 8.02351 36.9011C8.27 37.1466 8.40923 37.4796 8.41075 37.8275Z" fill="white"/>
<path d="M13.0084 37.8275C13.0095 38.0881 12.9332 38.3432 12.7891 38.5603C12.645 38.7775 12.4397 38.947 12.1991 39.0472C11.9586 39.1475 11.6936 39.174 11.438 39.1234C11.1823 39.0729 10.9474 38.9475 10.7632 38.7632C10.5789 38.5789 10.4535 38.344 10.4029 38.0884C10.3524 37.8327 10.3789 37.5678 10.4791 37.3272C10.5794 37.0867 10.7489 36.8813 10.966 36.7372C11.1832 36.5931 11.4383 36.5168 11.6989 36.518C12.0457 36.5195 12.3779 36.6579 12.6232 36.9032C12.8684 37.1484 13.0069 37.4806 13.0084 37.8275Z" fill="white"/>
<path d="M17.6171 37.8275C17.6171 38.0865 17.5403 38.3397 17.3964 38.555C17.2525 38.7704 17.048 38.9382 16.8087 39.0373C16.5694 39.1364 16.3061 39.1624 16.0521 39.1118C15.7981 39.0613 15.5647 38.9366 15.3816 38.7534C15.1985 38.5703 15.0737 38.337 15.0232 38.0829C14.9727 37.8289 14.9986 37.5656 15.0977 37.3263C15.1968 37.0871 15.3647 36.8825 15.58 36.7386C15.7954 36.5947 16.0486 36.5179 16.3076 36.5179C16.6549 36.5179 16.988 36.6559 17.2335 36.9015C17.4791 37.1471 17.6171 37.4802 17.6171 37.8275Z" fill="white"/>
</g>
<defs>
<clipPath id="clip0_216_77">
<rect width="30.5528" height="28.0367" fill="white" transform="translate(12.4707 6.86218)"/>
</clipPath>
<clipPath id="clip1_216_77">
<rect width="55" height="41.4015" fill="white" transform="translate(0.461914)"/>
</clipPath>
</defs>
</svg>
