<svg width="68" height="53" viewBox="0 0 68 53" fill="none" xmlns="http://www.w3.org/2000/svg">
<path d="M22.0082 13.4128C22.0063 13.02 22.1349 12.6355 22.3778 12.3079C22.6207 11.9804 22.967 11.7244 23.373 11.5725C23.7789 11.4206 24.2262 11.3794 24.6583 11.4543C25.0905 11.5293 25.488 11.7168 25.8007 11.9933C26.1133 12.2698 26.3271 12.6228 26.4149 13.0077C26.5027 13.3926 26.4606 13.7921 26.294 14.1557C26.1274 14.5192 25.8437 14.8306 25.4787 15.0502C25.1138 15.2699 24.6841 15.3881 24.2439 15.3899C23.9513 15.3923 23.661 15.3428 23.3899 15.2445C23.1187 15.1462 22.8721 15.001 22.6643 14.8172C22.4564 14.6333 22.2914 14.4146 22.1788 14.1735C22.0662 13.9325 22.0082 13.6739 22.0082 13.4128ZM19.3534 24.8746C19.2884 24.9937 19.2576 25.1253 19.2635 25.2576C19.2635 25.6762 20.062 26.264 20.4812 26.3975C21.7286 26.6714 23.0093 26.806 24.2938 26.7983C25.5794 26.7933 26.8595 26.6497 28.1065 26.3708C28.3508 26.2753 28.5712 26.137 28.7546 25.9641C28.938 25.7913 29.0808 25.5874 29.1744 25.3645C29.2513 25.189 29.2788 24.9994 29.2542 24.8123L28.7951 23.4942C29.8896 23.093 30.9226 22.5693 31.8692 21.9357L32.9371 22.9688C33.1364 23.1144 33.3795 23.2043 33.6358 23.2271C33.8738 23.2357 34.1113 23.2014 34.3342 23.1265C34.5571 23.0515 34.7608 22.9373 34.9333 22.7907C35.8235 21.9631 36.5977 21.042 37.2388 20.0477C37.8836 19.0651 38.3898 18.0151 38.7459 16.9217C38.7848 16.6644 38.766 16.4028 38.6906 16.1521C38.6152 15.9014 38.4847 15.6665 38.3067 15.4611C38.187 15.3721 37.9574 15.1405 37.8077 15.1227L36.3605 14.8021C36.4363 14.3295 36.4363 13.8497 36.3605 13.3772C36.4358 12.8479 36.4358 12.3123 36.3605 11.783L37.9275 11.3645C38.0735 11.3543 38.2142 11.3115 38.3367 11.2398C38.9455 10.9459 38.8058 10.1889 38.706 9.79702C38.0089 7.59346 36.713 5.57752 34.9333 3.92805C34.5939 3.66088 33.4561 3.11762 33.0469 3.33136C32.9182 3.41983 32.8126 3.53228 32.7375 3.66088L31.6795 4.72958C30.844 4.01292 29.8111 3.50599 28.6853 3.26012L29.1045 1.91533C29.1605 1.70469 29.1286 1.48308 29.0147 1.29192C28.9286 1.08883 28.7951 0.904402 28.623 0.750861C28.4509 0.59732 28.2442 0.478177 28.0166 0.401334C26.7562 0.124707 25.462 -0.00992962 24.1641 0.000569812C22.8815 0.00923757 21.6047 0.155756 20.3614 0.436957C19.9323 0.561639 19.1138 1.06927 19.1138 1.48785C19.1138 1.62144 18.9941 1.79065 19.1138 1.90642L19.6628 3.26902C18.5007 3.5459 17.4384 4.0858 16.5787 4.83645L15.4809 3.72322C15.3907 3.61904 15.2789 3.53135 15.1515 3.46495C14.7423 3.25121 13.8839 3.74103 13.5546 4.00821C11.764 5.66719 10.4611 7.69562 9.76191 9.91279C9.67209 10.3047 9.54234 11.4001 9.97151 11.6138C10.0969 11.6784 10.2365 11.7179 10.3807 11.7296L11.9976 12.0146C11.9976 12.6558 11.9976 12.727 12.0974 13.4484C12.0974 13.9917 12.0974 14.4103 12.1772 15.0871L10.5604 15.381C10.418 15.405 10.2802 15.447 10.1512 15.5057C9.73197 15.7283 9.70203 16.61 9.79186 17.0108C10.1587 18.1078 10.6678 19.1629 11.3089 20.1545C11.9574 21.1433 12.742 22.0559 13.6444 22.8708C13.9738 23.1469 14.8321 23.4675 15.2413 23.2538C15.3712 23.1905 15.4837 23.1023 15.5707 22.9955L16.6586 21.8645C17.578 22.6354 18.7005 23.1868 19.9223 23.4675L19.3534 24.8746Z" fill="white"/>
<path d="M45.8225 35.8646C45.6427 35.3998 45.6216 34.8978 45.7618 34.4222C45.9019 33.9467 46.1971 33.5189 46.6098 33.1931C47.0226 32.8673 47.5344 32.6581 48.0805 32.592C48.6266 32.5259 49.1823 32.6059 49.6775 32.8218C50.1726 33.0377 50.5848 33.3798 50.8618 33.8049C51.1389 34.2299 51.2684 34.7188 51.234 35.2096C51.1995 35.7003 51.0026 36.1709 50.6683 36.5618C50.3339 36.9527 49.8771 37.2462 49.3556 37.4053C48.6554 37.6148 47.8908 37.5685 47.2287 37.2765C46.5667 36.9844 46.0611 36.4704 45.8225 35.8468M47.7587 50.399C47.7369 50.562 47.7609 50.7272 47.8286 50.8799C48.0182 51.3875 49.2159 51.7705 49.7748 51.7705C51.38 51.6465 52.9621 51.3474 54.4857 50.8799C56.0109 50.4229 57.466 49.7977 58.8173 49.0186C59.0672 48.8215 59.2688 48.5806 59.4096 48.311C59.5504 48.0413 59.6274 47.7486 59.6358 47.4511C59.6504 47.215 59.599 46.9793 59.4861 46.7654L58.3682 45.4206C59.4997 44.5562 60.5056 43.5688 61.3624 42.4817L63.119 43.3722C63.4363 43.4868 63.7868 43.5056 64.1171 43.4257C64.4083 43.3549 64.6796 43.2303 64.9134 43.06C65.1472 42.8897 65.3384 42.6775 65.4745 42.4371C66.132 41.1327 66.6015 39.7591 66.8718 38.3493C67.1754 36.9445 67.2927 35.5127 67.2211 34.0834C67.0738 33.4435 66.6509 32.8806 66.0434 32.516C65.8195 32.3908 65.5672 32.3117 65.3048 32.2844L63.4384 32.418C63.3391 31.8254 63.1511 31.2472 62.8795 30.6992C62.7163 30.0452 62.4649 29.4112 62.1309 28.8112L63.8776 27.8048C64.0482 27.7397 64.1989 27.6389 64.3167 27.5109C64.9056 26.9498 64.3966 26.1038 64.1071 25.6674C63.1817 24.489 62.0991 23.4154 60.8834 22.4702C59.6693 21.5218 58.3283 20.7111 56.8911 20.0567C56.3721 19.8608 54.7752 19.6114 54.3859 20.0122C54.275 20.1641 54.1971 20.3333 54.1564 20.5109L53.3878 22.1585C52.0756 21.5943 50.6168 21.3573 49.166 21.4727L49.0662 19.6916C49.032 19.4212 48.8945 19.1696 48.6769 18.9791C48.4893 18.774 48.2556 18.6062 47.9908 18.4866C47.7261 18.3669 47.4363 18.2981 47.1399 18.2844C43.9191 18.5098 40.8117 19.4463 38.0974 21.0096C37.6283 21.3124 36.8798 22.1941 37.0993 22.7017C37.0993 22.8531 37.0993 23.0936 37.2191 23.2094L38.4767 24.6343C37.2096 25.3692 36.1779 26.3849 35.4825 27.5821L33.6959 26.6916C33.5418 26.5978 33.3691 26.5313 33.1869 26.4956C32.608 26.3888 31.8096 27.2704 31.5301 27.7068C30.8362 29.0017 30.3266 30.369 30.013 31.7768C29.6967 33.1861 29.576 34.6249 29.6537 36.0605C29.7236 36.5593 30.0529 37.8951 30.6518 38.002C30.8297 38.0332 31.0128 38.0332 31.1908 38.002L33.2368 37.7705C33.5562 38.5185 33.6061 38.5987 33.9953 39.4358C34.2848 40.0682 34.4544 40.5669 34.8137 41.3595L33.0372 42.2501C32.8749 42.3275 32.7268 42.4266 32.598 42.544C32.1988 42.9537 32.598 44.0135 32.8376 44.4498C33.7546 45.6314 34.8306 46.7081 36.0414 47.656C37.2516 48.6038 38.5934 49.409 40.0337 50.0516C40.5527 50.2565 41.7104 50.3455 42.0997 49.9448C42.2204 49.8181 42.315 49.6734 42.3791 49.5173L43.1676 47.7985C44.6036 48.3871 46.1823 48.6443 47.7587 48.5465V50.399Z" fill="white"/>
<path d="M17.4976 13.4217C17.4976 12.2395 17.8906 11.0837 18.6269 10.1008C19.3632 9.11791 20.4098 8.35198 21.6341 7.89995C22.8584 7.44791 24.2055 7.33009 25.5048 7.56139C26.8042 7.7927 27.9975 8.36272 28.9337 9.19935C29.8699 10.036 30.5069 11.1016 30.7642 12.2614C31.0215 13.4212 30.8874 14.623 30.379 15.7148C29.8706 16.8066 29.0107 17.7392 27.908 18.3948C26.8054 19.0504 25.5096 19.3993 24.1846 19.3976C23.3056 19.3976 22.4353 19.2429 21.6233 18.9425C20.8113 18.6421 20.0737 18.2018 19.4526 17.6468C18.8316 17.0917 18.3392 16.4329 18.0037 15.7079C17.6683 14.983 17.4963 14.2061 17.4976 13.4217ZM20.1724 23.9663C20.1153 24.0748 20.088 24.1938 20.0926 24.3136C20.0967 24.4936 20.1619 24.6682 20.2794 24.8145C20.397 24.9608 20.5615 25.0718 20.7513 25.133C23.0095 25.6316 25.3698 25.6316 27.628 25.133C27.8177 25.0718 27.9822 24.9608 28.0998 24.8145C28.2174 24.6682 28.2826 24.4936 28.2867 24.3136C28.2865 24.1942 28.2593 24.0761 28.2069 23.9663L27.7278 22.6927C29.0874 22.2849 30.3426 21.6401 31.4207 20.7958L32.4187 21.8022C32.4953 21.8971 32.5941 21.9761 32.7082 22.0337C32.8861 22.1201 33.0893 22.1562 33.2907 22.1371C33.4922 22.118 33.6824 22.0447 33.836 21.9268C34.6479 21.1896 35.3522 20.3637 35.9319 19.4688C36.5014 18.5721 36.9503 17.6185 37.2694 16.6279C37.2989 16.4556 37.2711 16.2794 37.1895 16.1211C37.1079 15.9628 36.976 15.8294 36.8102 15.7373C36.6958 15.6725 36.5659 15.6328 36.431 15.6215L34.9339 15.3276C35.2122 14.0722 35.2122 12.7802 34.9339 11.5248L36.391 11.2665C36.5249 11.2512 36.654 11.2118 36.7703 11.1508C36.9361 11.0587 37.0679 10.9252 37.1496 10.7669C37.2312 10.6086 37.2589 10.4324 37.2294 10.2602C36.9261 9.25885 36.4905 8.29322 35.9319 7.38357C35.3465 6.48934 34.6428 5.6611 33.836 4.91665C33.6813 4.80021 33.4906 4.72849 33.2892 4.711C33.0877 4.6935 32.8851 4.73106 32.7082 4.81868C32.5941 4.87632 32.4953 4.95531 32.4187 5.05023L31.4207 6.0566C30.3373 5.21209 29.0795 4.56467 27.7178 4.15074L28.2069 2.88611C28.2593 2.77628 28.2865 2.65816 28.2867 2.53878C28.2806 2.36034 28.2145 2.18767 28.0971 2.04315C27.9796 1.89864 27.8162 1.78896 27.628 1.72835C25.3715 1.21718 23.0077 1.21718 20.7513 1.72835C20.5583 1.78207 20.3899 1.88998 20.2712 2.03602C20.1525 2.18205 20.0898 2.3584 20.0926 2.53878C20.088 2.65856 20.1153 2.77761 20.1724 2.88611L20.6515 4.15074C19.2989 4.57064 18.0488 5.21755 16.9686 6.0566L15.9705 5.05023C15.8876 4.9572 15.7861 4.87869 15.6711 4.81868C15.4953 4.73302 15.2946 4.69656 15.0953 4.71403C14.8959 4.7315 14.707 4.8021 14.5533 4.91665C13.7436 5.65674 13.0426 6.48569 12.4673 7.38357C11.8833 8.27612 11.4273 9.23058 11.1099 10.2245C11.0858 10.3443 11.0895 10.4672 11.1207 10.5856C11.152 10.7041 11.21 10.8156 11.2914 10.9132C11.3728 11.0108 11.4757 11.0926 11.5938 11.1533C11.7119 11.2141 11.8428 11.2526 11.9782 11.2665L13.4354 11.5248C13.1571 12.7802 13.1571 14.0722 13.4354 15.3276L11.9782 15.5859C11.8478 15.6023 11.7223 15.6417 11.609 15.7016C11.4413 15.7925 11.3075 15.9255 11.224 16.0839C11.1406 16.2423 11.1113 16.4191 11.1399 16.5922C11.4572 17.5862 11.9133 18.5407 12.4972 19.4332C13.0701 20.3298 13.7713 21.1561 14.5832 21.8912C14.7349 22.0086 14.9227 22.0824 15.1221 22.1031C15.3215 22.1237 15.5233 22.0903 15.701 22.007C15.8163 21.9437 15.9178 21.8622 16.0005 21.7665L16.9985 20.7602C18.0822 21.6043 19.3399 22.2517 20.7014 22.666L20.1724 23.9663Z" fill="#E30289"/>
<path d="M24.1745 10.937C23.6186 10.9317 23.0735 11.074 22.6083 11.3457C22.1432 11.6175 21.7791 12.0064 21.5622 12.4632C21.3453 12.92 21.2855 13.424 21.3903 13.9112C21.4951 14.3984 21.7598 14.8468 22.1508 15.1995C22.5418 15.5521 23.0415 15.7931 23.5863 15.8919C24.1312 15.9906 24.6966 15.9426 25.2108 15.754C25.725 15.5654 26.1648 15.2447 26.4744 14.8326C26.7839 14.4205 26.9491 13.9356 26.9492 13.4395C26.9505 13.1106 26.8788 12.7846 26.7384 12.4805C26.5979 12.1763 26.3914 11.9 26.1307 11.6674C25.87 11.4347 25.5603 11.2504 25.2194 11.1251C24.8786 10.9998 24.5133 10.9358 24.1446 10.937M29.7438 13.4395C29.7438 14.4277 29.4154 15.3937 28.8001 16.2153C28.1849 17.0369 27.3104 17.6773 26.2873 18.0554C25.2642 18.4336 24.1384 18.5325 23.0522 18.3397C21.9661 18.147 20.9684 17.6711 20.1854 16.9724C19.4023 16.2737 18.869 15.3834 18.653 14.4143C18.437 13.4451 18.5478 12.4405 18.9716 11.5276C19.3954 10.6147 20.1131 9.83436 21.0339 9.28537C21.9546 8.73638 23.0372 8.44336 24.1446 8.44336C25.6296 8.44336 27.0538 8.96974 28.1038 9.90671C29.1539 10.8437 29.7438 12.1145 29.7438 13.4395Z" fill="#41403F"/>
<path d="M40.3431 37.521C39.8011 36.1003 39.7434 34.5681 40.1773 33.1181C40.6112 31.6682 41.5172 30.3656 42.7808 29.3751C44.0444 28.3846 45.6087 27.7507 47.2761 27.5536C48.9434 27.3565 50.6388 27.605 52.1478 28.2676C53.6569 28.9303 54.9118 29.9774 55.7539 31.2765C56.596 32.5757 56.9875 34.0684 56.8788 35.5661C56.7701 37.0637 56.1661 38.4989 55.1432 39.6903C54.1204 40.8816 52.7245 41.7755 51.1323 42.259C48.9974 42.9072 46.6615 42.7722 44.6382 41.8836C42.6148 40.9951 41.0699 39.4259 40.3431 37.521ZM48.4076 49.2233C48.3899 49.3746 48.4139 49.5275 48.4774 49.6686C48.5574 49.8863 48.7124 50.0759 48.9203 50.2102C49.1283 50.3446 49.3785 50.4169 49.6352 50.4167C51.1048 50.3146 52.5538 50.0452 53.9468 49.6152C55.3515 49.1943 56.6925 48.62 57.9391 47.9053C58.1446 47.7656 58.295 47.5713 58.3685 47.3504C58.4421 47.1294 58.435 46.8934 58.3483 46.6763C58.2973 46.5313 58.2123 46.3977 58.0988 46.2844L56.8912 44.9396C58.3401 43.948 59.5545 42.71 60.4643 41.2971L62.1211 42.1877C62.254 42.2745 62.4077 42.3325 62.5702 42.3569C62.8304 42.4034 63.1005 42.3707 63.3375 42.2642C63.5745 42.1576 63.7646 41.9834 63.8777 41.7691C64.512 40.5846 64.9781 39.3341 65.265 38.0465C65.5405 36.7587 65.6443 35.4464 65.5744 34.1368C65.541 33.9056 65.4264 33.6898 65.2471 33.5202C65.0679 33.3506 64.833 33.236 64.5763 33.1928C64.4118 33.1615 64.2418 33.1615 64.0773 33.1928L62.2009 33.4154C62.0805 32.609 61.8699 31.8154 61.5721 31.0465C61.279 30.2803 60.9047 29.5407 60.4543 28.8378L62.0911 27.9472C62.2427 27.8827 62.3784 27.7919 62.4903 27.6801C62.6618 27.5045 62.7666 27.2851 62.7899 27.0532C62.8133 26.8212 62.7538 26.5887 62.6201 26.3887C61.7795 25.3143 60.7977 24.3337 59.6957 23.4676C58.5869 22.6016 57.3635 21.8598 56.0528 21.2589C55.8115 21.1708 55.5456 21.1518 55.2917 21.2044C55.0378 21.2571 54.8085 21.3788 54.6355 21.5528C54.5302 21.6683 54.4521 21.8016 54.406 21.9447L53.6674 23.5121C51.9745 22.8971 50.1655 22.5766 48.3377 22.5681V20.876C48.3481 20.7255 48.3278 20.5747 48.2778 20.4307C48.1937 20.2125 48.0346 20.0236 47.8232 19.8909C47.6117 19.7581 47.3586 19.6884 47.1001 19.6915C45.6299 19.7904 44.1805 20.0598 42.7884 20.493C41.4244 20.9404 40.1272 21.5357 38.9259 22.2653C38.7169 22.4026 38.5626 22.5959 38.4854 22.817C38.4082 23.0381 38.4121 23.2754 38.4967 23.4943C38.5514 23.6371 38.6399 23.7677 38.7562 23.8773L39.924 25.2042C38.4796 26.2003 37.2661 27.4374 36.3509 28.8467L34.704 28.0096C34.5692 27.9183 34.4117 27.8572 34.2449 27.8315C33.9917 27.7851 33.7284 27.8119 33.4933 27.908C33.2583 28.0041 33.0636 28.1644 32.9375 28.3658C32.2908 29.5399 31.8114 30.7815 31.5102 32.0618C31.2187 33.3507 31.1081 34.667 31.1809 35.9803C31.2143 36.2115 31.3288 36.4274 31.5081 36.597C31.6874 36.7665 31.9222 36.8811 32.1789 36.9243C32.3434 36.9556 32.5135 36.9556 32.678 36.9243L34.5543 36.7017C34.8024 38.3134 35.3953 39.8674 36.301 41.2793L34.6741 42.1699C34.521 42.2323 34.3848 42.3234 34.2749 42.4371C34.1005 42.611 33.9929 42.83 33.9677 43.0623C33.9426 43.2946 34.0012 43.528 34.1351 43.7284C34.9738 44.8069 35.9595 45.7881 37.0695 46.6496C38.1745 47.515 39.3987 48.2512 40.7124 48.8404C40.9488 48.9369 41.2139 48.9621 41.4678 48.9123C41.7217 48.8625 41.9505 48.7404 42.1197 48.5643C42.2327 48.4507 42.3177 48.3172 42.3692 48.1725L43.0878 46.605C44.7822 47.2096 46.5928 47.5121 48.4175 47.4956L48.4076 49.2233Z" fill="#E30289"/>
<path d="M47.24 32.0616C46.5728 32.2648 45.9882 32.6401 45.5601 33.1398C45.132 33.6396 44.8797 34.2415 44.835 34.8692C44.7904 35.497 44.9554 36.1225 45.3093 36.6665C45.6632 37.2106 46.19 37.6487 46.823 37.9256C47.456 38.2024 48.1668 38.3054 48.8655 38.2216C49.5642 38.1379 50.2193 37.871 50.748 37.4549C51.2767 37.0388 51.6551 36.4921 51.8355 35.884C52.0159 35.2759 51.99 34.6337 51.7612 34.0387C51.4549 33.242 50.8067 32.5863 49.959 32.2156C49.1113 31.8449 48.1334 31.7895 47.24 32.0616ZM55.1247 33.0146C55.5823 34.2047 55.6333 35.4893 55.2713 36.7053C54.9093 37.9213 54.1506 39.014 53.0915 39.8446C52.0324 40.6753 50.7206 41.2064 49.3226 41.3707C47.9246 41.5349 46.5035 41.3249 45.2395 40.7672C43.9755 40.2096 42.9257 39.3294 42.2232 38.2384C41.5208 37.1475 41.1974 35.8949 41.2941 34.6396C41.3908 33.3844 41.9032 32.1831 42.7664 31.1882C43.6295 30.1932 44.8045 29.4495 46.1421 29.0514C47.9224 28.5192 49.8664 28.6372 51.5495 29.3798C53.2326 30.1223 54.5179 31.4291 55.1247 33.0146Z" fill="#41403F"/>
<path d="M12.2672 38.9192C12.3883 38.5614 12.6255 38.2437 12.949 38.0064C13.2725 37.769 13.6676 37.6227 14.0844 37.5859C14.5011 37.549 14.9208 37.6234 15.2901 37.7995C15.6595 37.9756 15.962 38.2456 16.1593 38.5752C16.3566 38.9049 16.4398 39.2793 16.3985 39.6512C16.3571 40.0231 16.193 40.3756 15.9269 40.6642C15.6609 40.9528 15.3048 41.1644 14.9038 41.2723C14.5029 41.3802 14.075 41.3795 13.6745 41.2703C13.1406 41.1223 12.6935 40.7925 12.4301 40.3525C12.1667 39.9124 12.1082 39.3975 12.2672 38.9192ZM6.27882 48.6711C6.18168 48.7638 6.11294 48.8773 6.07921 49.0006C5.94946 49.3836 6.48842 50.1138 6.82776 50.3365C7.87709 50.8911 8.99598 51.3335 10.1613 51.6546C11.3295 51.9677 12.5361 52.1531 13.7544 52.2067C14.0072 52.1819 14.2516 52.1114 14.473 51.9997C14.6943 51.8879 14.8878 51.7372 15.0419 51.5566C15.1647 51.4162 15.2469 51.2511 15.2814 51.0757V49.7665C16.3996 49.6771 17.5 49.4586 18.5551 49.1164L19.2238 50.3276C19.3602 50.5108 19.5548 50.6534 19.7827 50.7373C19.9975 50.8078 20.2263 50.8379 20.4548 50.8257C20.6833 50.8134 20.9064 50.7591 21.1102 50.666C22.1937 50.1415 23.1995 49.4983 24.1044 48.7512C24.9954 48.0085 25.7769 47.1676 26.4299 46.2487C26.5441 46.0245 26.6073 45.7824 26.6158 45.5362C26.6244 45.2901 26.5782 45.0449 26.4798 44.8149C26.4099 44.6991 26.2702 44.4408 26.1404 44.3874L24.9228 43.7283C25.1513 43.3253 25.3191 42.8971 25.4218 42.4548C25.6292 41.9756 25.7732 41.4765 25.851 40.9675H27.378C27.5137 40.9852 27.6516 40.9852 27.7872 40.9675C28.426 40.8517 28.5358 40.0769 28.5757 39.7385C28.5885 38.654 28.4578 37.5718 28.1865 36.5146C27.9101 35.4736 27.4946 34.4659 26.9489 33.5133C26.7293 33.1838 25.8709 32.409 25.4218 32.4981C25.2805 32.5498 25.1518 32.6254 25.0426 32.7207L23.755 33.4332C23.2131 32.5674 22.4202 31.8477 21.4595 31.3492L22.2579 30.2271C22.3657 30.0471 22.4009 29.8396 22.3577 29.6393C22.3457 29.4378 22.2862 29.2408 22.183 29.0612C22.0798 28.8817 21.9353 28.7236 21.7589 28.5973C19.6395 27.4674 17.2388 26.8248 14.7724 26.7271C14.3432 26.7271 13.445 26.9853 13.3152 27.3683C13.3152 27.493 13.1156 27.6176 13.1356 27.7423L13.2054 29.1049C12.0659 29.0716 10.9356 29.2984 9.92178 29.7639L9.31296 28.4993C9.2691 28.3805 9.19769 28.2713 9.10336 28.1787C8.79396 27.8848 7.86575 28.1164 7.47651 28.2767C6.41018 28.8075 5.42128 29.4536 4.5322 30.2003C3.63627 30.9372 2.84821 31.772 2.18673 32.6851C1.98712 33.0146 1.528 33.9764 1.84739 34.2703C1.94245 34.362 2.05807 34.4348 2.18673 34.4841L3.56407 35.1431C3.38442 35.7309 3.38442 35.8021 3.20476 36.4701C3.07501 36.9777 2.93528 37.3607 2.76561 37.9841L1.20862 37.8505C1.07 37.8283 0.928056 37.8283 0.789432 37.8505C0.35028 37.9484 0.0408784 38.7411 0.000955557 39.124C-0.0127633 40.215 0.121284 41.3035 0.400184 42.3657C0.674949 43.4281 1.10092 44.4546 1.66773 45.4205C1.88731 45.7589 2.55602 46.2665 2.99517 46.1775C3.13289 46.1486 3.26217 46.094 3.37443 46.0171L4.71185 45.2691C5.31329 46.1944 6.15972 46.9742 7.17708 47.5401L6.27882 48.6711Z" fill="white"/>
<path d="M8.18523 37.815C8.55637 36.7407 9.27574 35.7887 10.2526 35.0788C11.2294 34.369 12.42 33.9332 13.674 33.8264C14.9281 33.7197 16.1896 33.9467 17.2992 34.4789C18.4089 35.0111 19.317 35.8246 19.9091 36.8168C20.5013 37.809 20.7508 38.9354 20.6263 40.054C20.5018 41.1726 20.0088 42.2333 19.2095 43.1022C18.4102 43.9711 17.3405 44.6093 16.1352 44.9363C14.9299 45.2633 13.643 45.2645 12.437 44.9396C11.6314 44.7239 10.8817 44.3679 10.2312 43.8922C9.58064 43.4165 9.04216 42.8305 8.64684 42.1681C8.25152 41.5057 8.00719 40.7799 7.92796 40.0327C7.84873 39.2856 7.93617 38.5318 8.18523 37.815ZM7.36681 48.0923C7.28223 48.1766 7.22073 48.2772 7.18716 48.3862C7.13687 48.5487 7.14338 48.7211 7.2058 48.8802C7.26822 49.0394 7.38359 49.1777 7.53648 49.2768C9.43618 50.2959 11.5901 50.8774 13.8044 50.9689C13.9975 50.9653 14.1844 50.9073 14.3385 50.8034C14.4926 50.6995 14.6061 50.5548 14.6627 50.39C14.6869 50.2783 14.6869 50.1634 14.6627 50.0516L14.6128 48.7781C15.9916 48.7382 17.3481 48.4568 18.6051 47.9498L19.2039 49.1165C19.2438 49.2198 19.3085 49.314 19.3936 49.3926C19.5251 49.5225 19.7002 49.6109 19.8927 49.6446C20.0852 49.6783 20.2847 49.6555 20.4615 49.5796C21.4272 49.1018 22.3224 48.5184 23.1263 47.843C23.9253 47.1685 24.6321 46.4122 25.2323 45.5898C25.3252 45.4367 25.3618 45.2614 25.3367 45.0887C25.3116 44.916 25.2262 44.7548 25.0925 44.6279C25.0044 44.5456 24.8994 44.4791 24.7831 44.432L23.5356 43.8353C23.8555 43.298 24.1162 42.7343 24.3141 42.1521C24.5093 41.5713 24.6397 40.9747 24.7033 40.3709L26.1206 40.4956C26.2452 40.5225 26.3752 40.5225 26.4998 40.4956C26.6901 40.4579 26.8618 40.3665 26.9894 40.235C27.117 40.1035 27.1938 39.9388 27.2085 39.7653C27.2452 37.7909 26.7343 35.8391 25.7213 34.0834C25.6208 33.9347 25.47 33.8184 25.2906 33.7512C25.1113 33.684 24.9126 33.6693 24.7233 33.7094C24.6031 33.7346 24.4906 33.7833 24.3939 33.8519L23.1762 34.5198C22.45 33.4772 21.5044 32.5699 20.3916 31.848L21.22 30.8239C21.3021 30.7366 21.3663 30.6371 21.4097 30.53C21.4604 30.3666 21.4531 30.1932 21.3887 30.0337C21.3244 29.8742 21.2061 29.7364 21.0504 29.6394C19.1559 28.6097 16.9989 28.0274 14.7825 27.9473C14.5889 27.9496 14.4013 28.007 14.2469 28.1111C14.0925 28.2152 13.9794 28.3606 13.9241 28.5261C13.8999 28.6379 13.8999 28.7528 13.9241 28.8646L13.974 30.1292C12.5958 30.1725 11.24 30.4537 9.98175 30.9574L9.38291 29.8086C9.34218 29.6984 9.27393 29.5979 9.1833 29.5147C9.05128 29.3882 8.87742 29.3027 8.68709 29.2707C8.49675 29.2386 8.29993 29.2617 8.12534 29.3366C7.15841 29.8091 6.26291 30.3897 5.46049 31.0643C4.6553 31.7392 3.94481 32.4988 3.34458 33.3264C3.25311 33.4798 3.21741 33.6549 3.24245 33.8272C3.26749 33.9996 3.35202 34.1607 3.48431 34.2882C3.57161 34.3692 3.67703 34.433 3.79372 34.4753L5.0413 35.072C4.72317 35.61 4.46252 36.1735 4.26281 36.7552C4.0682 37.3366 3.93455 37.9329 3.86358 38.5363L2.4563 38.4206C2.33401 38.4028 2.2093 38.4028 2.08701 38.4206C1.89478 38.4597 1.7215 38.5524 1.59229 38.6853C1.46309 38.8182 1.38467 38.9844 1.3684 39.1597C1.35067 40.143 1.47138 41.1244 1.72771 42.0809C1.97734 43.0396 2.35954 43.967 2.86551 44.8417C2.96243 44.9935 3.11282 45.1124 3.29331 45.18C3.4738 45.2477 3.67428 45.2602 3.86358 45.2157C3.98979 45.1902 4.10872 45.1417 4.21291 45.0732L5.42057 44.3964C6.14149 45.4426 7.08799 46.3508 8.20519 47.0682L7.36681 48.0923Z" fill="#E30289"/>
<path d="M15.0524 37.1914C14.5484 37.0555 14.0106 37.0559 13.5068 37.1925C13.003 37.3292 12.5559 37.5959 12.2218 37.959C11.8878 38.3222 11.6818 38.7655 11.6298 39.2331C11.5779 39.7006 11.6823 40.1714 11.9299 40.586C12.1776 41.0006 12.5573 41.3405 13.0212 41.5627C13.4851 41.7849 14.0124 41.8796 14.5365 41.8346C15.0607 41.7897 15.5581 41.6072 15.9661 41.3102C16.3741 41.0133 16.6744 40.6151 16.829 40.166C17.0344 39.5613 16.9628 38.9086 16.6297 38.3511C16.2967 37.7935 15.7295 37.3764 15.0524 37.1914ZM19.3841 40.8517C19.0771 41.7508 18.4784 42.5486 17.6637 43.1442C16.849 43.7399 15.8547 44.1069 14.8064 44.1987C13.7582 44.2905 12.7029 44.1031 11.7739 43.6601C10.8449 43.2172 10.0838 42.5385 9.58679 41.7099C9.08974 40.8812 8.87901 39.9397 8.9812 39.0043C9.08339 38.0689 9.49392 37.1814 10.1609 36.454C10.828 35.7266 11.7216 35.1919 12.729 34.9174C13.7363 34.6428 14.8123 34.6408 15.821 34.9115C17.1762 35.2777 18.3129 36.1093 18.9811 37.2232C19.6493 38.3372 19.7942 39.6424 19.3841 40.8517Z" fill="#41403F"/>
</svg>
