<svg width="238" height="70" viewBox="0 0 238 70" fill="none" xmlns="http://www.w3.org/2000/svg">
<path d="M237.751 44.2223C237.25 45.9104 237.071 47.6718 236.482 49.3472C233.163 58.7751 223.183 64.7367 213.236 63.5917C204.37 62.5705 196.422 55.3529 194.684 47.0238C192.839 38.1873 195.235 30.6656 202.277 24.9284C209.606 18.9542 219.514 18.3922 227.486 23.4417C233.066 26.975 236.507 32.0601 237.514 38.678C237.552 38.9234 237.392 39.2568 237.753 39.4036V44.2244L237.751 44.2223ZM200.35 41.8591C200.306 50.3726 207.236 57.3701 215.804 57.4603C224.301 57.5505 231.397 50.574 231.462 42.0646C231.527 33.4587 224.613 26.4361 216.012 26.3732C207.423 26.3103 200.396 33.2595 200.35 41.8591Z" fill="black"/>
<path d="M40.0452 0.00209694C40.0745 0.23276 40.301 0.190821 40.4331 0.28099C41.1083 0.740219 41.4166 1.35462 41.1733 2.16404C40.9322 2.96717 40.345 3.36559 39.5293 3.34252C38.7492 3.31945 38.2082 2.8791 38.0174 2.1263C37.8014 1.28123 38.1181 0.624888 38.9023 0.224372C39.0218 0.163561 39.1707 0.165658 39.2085 0H40.0472L40.0452 0.00209694Z" fill="black"/>
<path d="M0 45.6901C0.306153 45.4238 0.570367 45.0736 0.92475 44.91C1.7111 44.5473 2.43035 44.7402 2.95878 45.4406C3.46414 46.1095 3.36139 47.0636 2.71344 47.6088C2.04661 48.1708 1.32527 48.1897 0.610209 47.678C0.394224 47.5228 0.203403 47.332 0 47.158C0 46.6694 0 46.1808 0 45.6901Z" fill="black"/>
<path d="M0 22.8462C0.138398 22.6575 0.272602 22.4624 0.417291 22.2779C1.07363 21.4433 2.15565 21.3448 2.89168 22.0473C3.55012 22.6763 3.56689 23.7584 2.92733 24.3958C2.21017 25.1109 1.10299 25.0333 0.440357 24.226C0.293571 24.0456 0.287281 23.75 0 23.685C0 23.404 0 23.1251 0 22.8462Z" fill="black"/>
<path d="M38.3677 70C38.4076 69.7337 38.1518 69.6833 38.0259 69.5387C37.3444 68.746 37.3843 67.7542 38.1287 67.1272C38.7934 66.5652 39.8188 66.6239 40.406 67.2551C41.0581 67.9576 40.9805 68.9662 40.2172 69.6708C40.0935 69.784 39.9635 69.8909 39.8356 70H38.3677Z" fill="black"/>
<path d="M137.108 40.0452C138.668 36.4028 140.122 33.012 141.575 29.6213C145.213 21.1266 148.851 12.6319 152.496 4.14138C153.047 2.85805 153.735 1.66909 155.31 1.48036C157.14 1.26018 158.377 2.18913 158.893 4.24203C159.43 6.37252 159.875 8.52608 160.351 10.6712C163.255 23.7478 166.155 36.8264 169.057 49.9029C169.776 53.1384 170.521 56.3677 171.223 59.6054C171.813 62.3209 170.502 63.8748 167.807 63.7112C166.371 63.6252 165.513 62.906 165.155 61.3438C164.106 56.7557 163.091 52.1592 162.068 47.5648C159.667 36.7781 157.27 25.9894 154.871 15.1964C154.431 15.2468 154.454 15.6473 154.345 15.9031C149.709 26.6939 145.085 37.4911 140.455 48.2861C140.208 48.8607 139.952 49.4478 139.597 49.9574C138.337 51.7649 135.938 51.7859 134.636 50.014C134.351 49.6261 134.131 49.1794 133.94 48.7328C129.203 37.7134 124.472 26.6898 119.741 15.6662C119.647 15.4481 119.551 15.2321 119.36 14.8001C118.601 18.2076 117.894 21.3908 117.185 24.5718C114.472 36.7593 111.763 48.9467 109.041 61.132C108.615 63.0423 107.676 63.7678 105.816 63.7133C103.629 63.6504 102.454 62.2434 102.916 60.1003C104.109 54.5769 105.348 49.062 106.575 43.547C109.424 30.7096 112.276 17.87 115.137 5.03467C115.279 4.39091 115.449 3.73457 115.732 3.14533C116.703 1.11969 119.332 0.828215 120.779 2.5519C121.234 3.09501 121.513 3.73457 121.788 4.37624C126.747 15.9388 131.707 27.5013 136.666 39.0659C136.773 39.3154 136.886 39.5608 137.104 40.0473L137.108 40.0452Z" fill="#EB028C"/>
<path d="M179.55 41.9177C179.55 35.9457 179.55 29.9736 179.55 24.0015C179.55 23.687 179.534 23.3703 179.559 23.0579C179.722 21.0259 180.658 20.1327 182.62 20.1201C184.719 20.1054 185.621 20.9043 185.837 22.9887C185.877 23.3682 185.879 23.7541 185.879 24.1378C185.879 35.9771 185.879 47.8185 185.879 59.6578C185.879 60.0059 185.885 60.3582 185.852 60.7042C185.598 63.2772 183.495 64.4829 181.102 63.4323C180.299 63.08 179.85 62.4342 179.695 61.6017C179.594 61.0565 179.555 60.4924 179.555 59.9388C179.544 53.9311 179.548 47.9234 179.548 41.9177H179.55Z" fill="black"/>
<path d="M94.5573 41.9513C94.5573 48.0974 94.5573 54.2436 94.5573 60.3897C94.5573 63.1094 92.473 64.4955 89.9336 63.468C89.2101 63.1765 88.7236 62.6523 88.4972 61.9058C88.3336 61.369 88.3 60.8133 88.3 60.2492C88.3063 47.9905 88.3042 35.7339 88.3063 23.4752C88.3063 21.1686 89.2521 20.1369 91.3574 20.1201C93.5634 20.1033 94.5573 21.0805 94.5573 23.3011C94.5615 29.5165 94.5573 35.7339 94.5573 41.9492V41.9513Z" fill="black"/>
<path d="M25.7505 35.2013C25.7547 31.9342 27.7782 29.0929 30.867 28.0109C33.9118 26.9456 37.3151 27.9375 39.3575 30.4538C39.779 30.9738 39.8964 31.2402 39.2149 31.7099C36.6105 33.5027 36.6126 36.9396 39.2317 38.7262C39.9677 39.2274 39.7308 39.5021 39.3428 39.9844C37.2774 42.5343 33.8866 43.4821 30.7517 42.3707C27.7531 41.3055 25.7463 38.4306 25.7526 35.2034L25.7505 35.2013Z" fill="#EB028C"/>
<path d="M94.7649 4.79987C94.7482 6.6284 93.1545 8.1361 91.2882 8.08997C89.5184 8.04593 88.0296 6.46065 88.061 4.65099C88.0925 2.8602 89.6379 1.3525 91.4371 1.3567C93.2761 1.36089 94.7796 2.91892 94.7629 4.80197L94.7649 4.79987Z" fill="black"/>
<path d="M185.793 4.72226C185.816 6.56546 184.294 8.07736 182.4 8.08784C180.649 8.09623 179.112 6.53611 179.085 4.72435C179.06 2.95873 180.588 1.41119 182.4 1.36715C184.247 1.32312 185.768 2.82662 185.793 4.72226Z" fill="black"/>
<path d="M23.9008 30.2253C23.8903 31.9238 22.5504 33.2428 20.8351 33.2407C19.1386 33.2386 17.8134 31.9028 17.8113 30.1896C17.8092 28.4303 19.1659 27.0945 20.9273 27.1239C22.6217 27.1511 23.9113 28.4953 23.9008 30.2274V30.2253Z" fill="black"/>
<path d="M36.17 18.6543C37.8203 18.6836 39.2022 20.1263 39.1603 21.7766C39.1183 23.4332 37.7134 24.7731 36.0274 24.7668C34.3205 24.7584 32.947 23.3137 33.0016 21.5816C33.054 19.9082 34.4464 18.6228 36.17 18.6543Z" fill="black"/>
<path d="M47.0888 26.4298C47.1076 28.1325 45.7593 29.5039 44.0566 29.5165C42.3371 29.5291 40.9867 28.2059 40.9699 26.4906C40.9531 24.7501 42.2448 23.4459 43.9958 23.4354C45.7446 23.4249 47.0699 24.7061 47.0888 26.4277V26.4298Z" fill="black"/>
<path d="M32.5822 48.4287C32.5654 46.7574 33.9242 45.3462 35.585 45.3064C37.2919 45.2665 38.7661 46.6987 38.7472 48.3805C38.7283 50.0496 37.3171 51.4734 35.6878 51.4651C34.0186 51.4567 32.599 50.0685 32.5822 48.4287Z" fill="black"/>
<path d="M41.5069 32.146C43.1656 32.1293 44.5894 33.5069 44.6209 35.1635C44.6523 36.8327 43.1677 38.332 41.5069 38.3089C39.8587 38.2859 38.4517 36.862 38.4517 35.2138C38.4517 33.551 39.8314 32.167 41.509 32.1481L41.5069 32.146Z" fill="#EB028C"/>
<path d="M23.7939 39.5105C23.7834 41.1482 22.3344 42.5426 20.6737 42.5091C18.9793 42.4755 17.6352 41.1041 17.6478 39.4266C17.6625 37.7113 19.0989 36.3189 20.8142 36.363C22.4624 36.4049 23.8044 37.8245 23.7939 39.5105Z" fill="black"/>
<path d="M46.7932 43.8847C46.7932 45.6147 45.4449 46.963 43.7485 46.9336C42.0101 46.9022 40.6932 45.5706 40.7121 43.8595C40.731 42.1149 42.0332 40.8294 43.7778 40.8315C45.5288 40.8336 46.7953 42.1149 46.7932 43.8847Z" fill="black"/>
<path d="M26.5933 43.5932C28.3379 43.6037 29.6108 44.9017 29.6003 46.6589C29.5877 48.4015 28.2876 49.6785 26.5324 49.6722C24.8276 49.6659 23.4625 48.282 23.5003 46.5981C23.5401 44.8556 24.8528 43.5827 26.5933 43.5911V43.5932Z" fill="black"/>
<path d="M26.9646 20.1201C28.6694 20.139 29.9884 21.481 29.9821 23.19C29.9758 24.9242 28.5897 26.262 26.8283 26.2327C25.1486 26.2054 23.8338 24.8173 23.8653 23.1083C23.8968 21.4139 25.2577 20.1012 26.9646 20.1222V20.1201Z" fill="black"/>
<path d="M37.4974 61.2243C36.0883 61.2348 34.9664 60.1088 34.9811 58.6996C34.9958 57.3261 36.0736 56.2273 37.4261 56.2043C38.8269 56.1791 39.9949 57.301 40.0075 58.6808C40.0179 60.0836 38.9024 61.216 37.4974 61.2243Z" fill="black"/>
<path d="M54.5436 35.2307C54.5331 36.6377 53.3903 37.7533 51.9895 37.7239C50.6349 37.6967 49.5319 36.5916 49.5151 35.2433C49.4963 33.8593 50.637 32.7039 52.0294 32.6955C53.428 32.6871 54.5562 33.8236 54.5457 35.2307H54.5436Z" fill="#EB028C"/>
<path d="M54.3023 50.6515C54.2918 52.0649 53.1385 53.1909 51.7461 53.1448C50.3768 53.0987 49.3157 52.0083 49.3052 50.6348C49.2948 49.2193 50.4019 48.0933 51.8153 48.0849C53.2077 48.0765 54.3106 49.2151 54.3002 50.6494L54.3023 50.6515Z" fill="black"/>
<path d="M54.5498 19.793C54.5183 21.1875 53.4573 22.2254 52.0691 22.2171C50.6537 22.2087 49.5486 21.0889 49.5654 19.6756C49.5821 18.2748 50.7355 17.155 52.132 17.1886C53.56 17.2222 54.5813 18.323 54.5498 19.793Z" fill="black"/>
<path d="M24.1484 14.0684C24.1484 15.5362 23.1209 16.5658 21.6488 16.57C20.2229 16.5742 19.143 15.4733 19.1619 14.0369C19.1807 12.6739 20.2711 11.5814 21.63 11.5646C23.0517 11.5479 24.1463 12.6362 24.1484 14.0684Z" fill="black"/>
<path d="M37.8728 13.8692C36.472 13.8692 35.39 12.7662 35.3963 11.3403C35.4026 9.9416 36.5223 8.83652 37.9252 8.84071C39.284 8.8449 40.4184 10.0024 40.4268 11.3885C40.4331 12.7368 39.2714 13.8671 37.8728 13.8692Z" fill="black"/>
<path d="M10.8662 45.5182C9.40886 45.5182 8.33313 44.453 8.3478 43.0229C8.36248 41.6011 9.47805 40.4919 10.8788 40.5107C12.2502 40.5296 13.4077 41.7249 13.3742 43.09C13.3406 44.453 12.2397 45.5182 10.8662 45.5182Z" fill="black"/>
<path d="M21.3656 53.2328C22.7748 53.2517 23.861 54.3924 23.8149 55.8057C23.7687 57.175 22.6783 58.2298 21.3069 58.2277C19.8726 58.2235 18.8179 57.1457 18.8304 55.6946C18.843 54.2414 19.8999 53.2139 21.3656 53.2328Z" fill="black"/>
<path d="M13.4561 26.6627C13.4352 28.0781 12.3175 29.1371 10.8811 29.0951C9.54115 29.0574 8.46542 27.9292 8.47171 26.5683C8.4759 25.1634 9.59147 24.0876 11.03 24.1002C12.4727 24.1128 13.4771 25.1738 13.4561 26.6627Z" fill="black"/>
<path d="M16.3603 65.8481C15.4083 65.8292 14.7226 65.1016 14.7645 64.1538C14.8023 63.2814 15.5362 62.5622 16.3917 62.558C17.2976 62.5538 18.0357 63.3087 18.0315 64.2356C18.0274 65.1855 17.3207 65.8691 16.3603 65.8502V65.8481Z" fill="black"/>
<path d="M61.8304 33.5699C62.7573 33.5531 63.4912 34.2807 63.4891 35.2139C63.4891 36.1072 62.816 36.8117 61.929 36.8516C61.0022 36.8935 60.2368 36.1847 60.2074 35.2621C60.1781 34.3352 60.8952 33.5887 61.8304 33.572V33.5699Z" fill="#EB028C"/>
<path d="M61.2181 13.4014C61.216 14.3241 60.4758 15.0643 59.5657 15.0517C58.6996 15.0391 57.9783 14.3262 57.9552 13.4622C57.9301 12.5375 58.6409 11.7889 59.5615 11.77C60.4862 11.7511 61.2202 12.4746 61.2181 13.4014Z" fill="black"/>
<path d="M18.4132 5.57369C18.4111 6.47327 17.6269 7.25753 16.7441 7.24495C15.8382 7.23236 15.0917 6.45021 15.1168 5.54223C15.142 4.64894 15.834 3.96324 16.7252 3.95066C17.6541 3.93598 18.4153 4.66991 18.4111 5.57369H18.4132Z" fill="black"/>
<path d="M59.4167 55.3172C60.3666 55.3612 61.023 56.0951 60.9559 57.0366C60.8909 57.9383 60.2052 58.5548 59.293 58.5318C58.3305 58.5066 57.6679 57.8125 57.6951 56.8563C57.7224 55.9127 58.4396 55.271 59.4167 55.3172Z" fill="black"/>
</svg>
