<svg width="43" height="60" viewBox="0 0 43 60" fill="none" xmlns="http://www.w3.org/2000/svg">
<path d="M25.7192 8.92139L17.3716 9.94098L9.02393 10.9464L9.24611 12.3483L17.5938 11.3429L25.9255 10.3375L25.7192 8.92139Z" fill="#1C1C1C"/>
<path d="M26.3699 13.2264L26.1477 11.8103L17.8159 12.8157L13.5151 13.3397H25.4177L26.3699 13.2264Z" fill="#1C1C1C"/>
<path d="M5.84994 20.4342V16.2851C5.94794 15.4535 6.40993 14.6901 7.13541 14.1609L6.10386 7.34952C6.09269 7.28248 6.09661 7.21413 6.11539 7.14846C6.13417 7.08279 6.16744 7.02112 6.21325 6.96706C6.25906 6.913 6.31649 6.86763 6.38218 6.83361C6.44787 6.79959 6.5205 6.7776 6.59583 6.76892L26.8143 4.33323C26.8894 4.32326 26.966 4.32676 27.0396 4.34352C27.1132 4.36028 27.1823 4.38996 27.2429 4.43084C27.3035 4.47171 27.3543 4.52296 27.3924 4.58158C27.4306 4.64019 27.4552 4.70501 27.4649 4.77222L28.7663 13.3396H31.004L29.6867 4.57397C29.6867 4.43236 29.6074 4.30491 29.5598 4.1633L29.4646 4.03585C29.4179 3.94334 29.3649 3.85348 29.3059 3.76679C29.2689 3.71159 29.2264 3.65946 29.1789 3.61102C29.115 3.5321 29.0461 3.45645 28.9726 3.38445L28.798 3.22868L28.5758 3.04459L28.3695 2.90298C28.2914 2.84312 28.2062 2.7909 28.1156 2.74721L27.9093 2.63392L27.6395 2.52063L27.4967 2.44983L27.2269 2.37902H27.0206C26.9047 2.3652 26.7873 2.3652 26.6714 2.37902L6.37365 4.80055C6.21534 4.82016 6.06061 4.85825 5.91342 4.91383C5.40835 5.12415 4.96339 5.43404 4.61208 5.82013C4.4936 5.95387 4.38745 6.09594 4.29468 6.24496C4.11981 6.50255 3.99631 6.78523 3.92967 7.08046C3.92967 7.08046 3.92967 7.08046 3.92967 7.17959C3.91407 7.31612 3.91407 7.45372 3.92967 7.59025L5.89755 20.4909L5.84994 20.4342Z" fill="#1C1C1C"/>
<path d="M20.1805 50.5547H19.1807V54.2932H20.0059C21.3866 54.2932 22.5134 53.7692 22.5134 52.4239C22.5134 51.0786 21.5294 50.5547 20.1805 50.5547Z" fill="#1C1C1C"/>
<path d="M37.6536 32.9668H37.4473V44.3947C37.3335 45.1401 36.9492 45.8317 36.353 46.3637C35.7568 46.8957 34.9817 47.2387 34.1463 47.3401H9.1351C8.30257 47.2358 7.53105 46.8916 6.93802 46.3598C6.34498 45.8281 5.96292 45.138 5.85 44.3947V32.9668H5.15172C4.64243 32.9573 4.14455 33.102 3.73929 33.3774C3.58121 33.4878 3.45132 33.627 3.35828 33.7858C3.26524 33.9445 3.21118 34.1191 3.19971 34.2979V56.2757C3.20358 56.4638 3.258 56.6484 3.35841 56.8138C3.53666 57.0712 3.78868 57.2814 4.08843 57.4227C4.43972 57.574 4.82515 57.6515 5.2152 57.6493H37.6536C37.9165 57.6462 38.1778 57.6129 38.4312 57.5502C38.7605 57.4816 39.0566 57.321 39.2764 57.0918C39.4962 56.8625 39.6282 56.5766 39.6532 56.2757V34.3404C39.5823 33.9257 39.3348 33.5514 38.9623 33.2955C38.5898 33.0396 38.121 32.9218 37.6536 32.9668ZM11.4204 54.7888C10.6252 55.1521 9.74272 55.3368 8.84944 55.3269C7.9866 55.3269 7.15909 55.0211 6.54897 54.4767C5.93885 53.9322 5.59608 53.1939 5.59608 52.4239C5.59608 51.654 5.93885 50.9156 6.54897 50.3712C7.15909 49.8268 7.9866 49.5209 8.84944 49.5209C9.7323 49.4742 10.6032 49.7214 11.2934 50.2148L10.4841 50.9795C10.0479 50.631 9.48247 50.4393 8.89705 50.4414C8.29938 50.4414 7.72618 50.6532 7.30356 51.0304C6.88093 51.4075 6.64351 51.9189 6.64351 52.4523C6.64351 52.9856 6.88093 53.497 7.30356 53.8741C7.72618 54.2512 8.29938 54.4631 8.89705 54.4631C9.39777 54.4815 9.89528 54.3839 10.3412 54.1799V52.8771H9.07162V51.9849H11.4521L11.4204 54.7888ZM16.9908 55.1853H12.7217V49.6625H16.8321V50.5547H13.8326V51.9708H16.6734V52.8488H13.8326V54.3498H17.0066L16.9908 55.1853ZM20.387 55.1853H18.0858V49.6625H20.5139C20.9393 49.6327 21.3668 49.6855 21.767 49.8173C22.1673 49.9491 22.5308 50.1567 22.8324 50.4259C23.1341 50.6951 23.3668 51.0194 23.5145 51.3766C23.6622 51.7337 23.7214 52.1152 23.6879 52.4947C23.6736 52.868 23.5767 53.235 23.4028 53.5747C23.229 53.9144 22.9815 54.22 22.6747 54.4741C22.3679 54.7281 22.0078 54.9254 21.6152 55.0548C21.2226 55.1842 20.8052 55.243 20.387 55.2278V55.1853ZM35.8127 53.4294C35.5952 53.4156 35.3869 53.3458 35.2131 53.2285C35.0392 53.1112 34.9071 52.9514 34.833 52.7685C34.7588 52.5856 34.7457 52.3875 34.7952 52.198C34.8447 52.0086 34.9548 51.8361 35.112 51.7013C35.2692 51.5666 35.4668 51.4755 35.6809 51.4389C35.895 51.4024 36.1164 51.4221 36.3182 51.4955C36.5201 51.569 36.6937 51.6932 36.818 51.8529C36.9423 52.0127 37.0121 52.2012 37.0188 52.3956C37.0236 52.5362 36.9953 52.6761 36.9358 52.8063C36.8763 52.9365 36.7868 53.0541 36.6731 53.1516C36.5594 53.249 36.4241 53.3241 36.2759 53.3719C36.1277 53.4198 35.9699 53.4393 35.8127 53.4294Z" fill="#1C1C1C"/>
<path d="M34.1464 13.3396H9.1352C8.38019 13.3918 7.67097 13.6831 7.13557 14.1609C6.41008 14.6901 5.9481 15.4535 5.8501 16.2851V20.4342V44.3946C5.96302 45.138 6.34508 45.828 6.93811 46.3598C7.53115 46.8915 8.30266 47.2357 9.1352 47.3401H34.1464C34.9818 47.2386 35.7569 46.8956 36.3531 46.3636C36.9493 45.8317 37.3336 45.14 37.4474 44.3946V16.2851C37.4443 16.1129 37.4177 15.9417 37.368 15.7753C37.1424 15.1399 36.7204 14.5741 36.1505 14.1433C35.5806 13.7124 34.8859 13.4338 34.1464 13.3396ZM34.8447 44.3946C34.8447 44.4764 34.8266 44.5574 34.7915 44.633C34.7564 44.7086 34.705 44.7773 34.6401 44.8352C34.5753 44.893 34.4983 44.9389 34.4136 44.9702C34.3289 45.0016 34.2381 45.0177 34.1464 45.0177H9.1352C8.95277 45.014 8.77921 44.9467 8.65166 44.8302C8.52412 44.7138 8.45274 44.5574 8.45279 44.3946V16.2851C8.45279 16.1198 8.52635 15.9613 8.65731 15.8445C8.78826 15.7276 8.96587 15.662 9.15107 15.662H34.1464C34.2387 15.6601 34.3305 15.6749 34.4162 15.7055C34.5019 15.7361 34.5797 15.7819 34.645 15.8402C34.7103 15.8984 34.7616 15.9679 34.7959 16.0444C34.8303 16.1208 34.8468 16.2027 34.8447 16.2851V44.3946Z" fill="#E71B81"/>
<path d="M21.6407 21.0857H11.3252V22.8275H21.6407H30.2105H31.9563V21.0857H29.9408H21.6407Z" fill="#E71B81"/>
<path d="M11.9124 31.7914H11.3252V31.8622V32.9667V33.5332H21.6407H31.9563V32.9667V31.7914H21.6407H11.9124Z" fill="#E71B81"/>
<path d="M21.6407 24.6543H11.3252V26.3961H21.6407H30.7501H31.9563V24.6543H30.4803H21.6407Z" fill="#E71B81"/>
<path d="M21.6407 28.2228H11.3252V29.9646H14.7849H21.6407H27.0365H31.9563V29.0724V28.2228H29.2425H21.6407Z" fill="#E71B81"/>
<path d="M9.13505 13.3397H13.5152L17.816 12.8157L26.1477 11.8103L26.3699 13.2264L25.4018 13.3397H28.7663L27.465 4.8431C27.4552 4.77588 27.4306 4.71107 27.3925 4.65245C27.3543 4.59383 27.3035 4.54259 27.2429 4.50171C27.1823 4.46084 27.1132 4.43115 27.0396 4.41439C26.966 4.39763 26.8894 4.39414 26.8143 4.40411L6.59584 6.76899C6.52051 6.77766 6.44788 6.79965 6.38219 6.83368C6.3165 6.8677 6.25907 6.91307 6.21326 6.96713C6.16745 7.02119 6.13418 7.08286 6.1154 7.14853C6.09662 7.2142 6.0927 7.28255 6.10387 7.34959L7.13543 14.161C7.67082 13.6831 8.38005 13.3918 9.13505 13.3397ZM17.3716 9.91272L25.7192 8.89313L25.9256 10.3092L17.5938 11.3288L9.24614 12.3484L9.02396 10.9323L17.3716 9.91272Z" fill="white"/>
<path d="M40.0657 31.1541V16.2851C39.9651 14.9137 39.3091 13.6218 38.22 12.65C37.1309 11.6782 35.6831 11.0929 34.1462 11.0031H33.3051L32.2577 4.24829C31.9902 3.10381 31.3102 2.06894 30.3215 1.3018C29.3328 0.534663 28.0898 0.0774419 26.7825 0L26.2271 0L6.02448 2.47817C4.66177 2.69157 3.43845 3.35359 2.59655 4.33325C2.12039 4.81003 1.75916 5.36906 1.53529 5.97564C1.31143 6.58222 1.22971 7.22339 1.29521 7.85933L3.21549 20.6042V30.97C2.43759 31.2238 1.76378 31.6814 1.28235 32.2828C0.800931 32.8843 0.53436 33.6014 0.517578 34.3403L0.517578 56.2757C0.543898 56.7929 0.685123 57.3003 0.933052 57.7684C1.18098 58.2365 1.53067 58.656 1.96182 59.0025C2.39296 59.349 2.89696 59.6156 3.44455 59.7869C3.99214 59.9581 4.5724 60.0305 5.15163 60H37.6535C38.2327 60.0305 38.813 59.9581 39.3606 59.7869C39.9082 59.6156 40.4122 59.349 40.8433 59.0025C41.2744 58.656 41.6241 58.2365 41.8721 57.7684C42.12 57.3003 42.2612 56.7929 42.2875 56.2757V34.3403C42.28 33.6786 42.0687 33.0314 41.6769 32.4695C41.2851 31.9076 40.7277 31.4525 40.0657 31.1541ZM39.6531 56.2615C39.6281 56.5624 39.4961 56.8483 39.2763 57.0775C39.0565 57.3068 38.7604 57.4674 38.4311 57.536C38.1777 57.5987 37.9164 57.632 37.6535 57.6351H5.15163C4.78763 57.6507 4.42531 57.582 4.09992 57.4356C3.77454 57.2892 3.49717 57.0701 3.29484 56.7996C3.19443 56.6342 3.14 56.4496 3.13614 56.2615V34.3403C3.14196 34.1659 3.19651 33.9955 3.29484 33.8447C3.39845 33.6836 3.53271 33.5399 3.69159 33.4199C3.88157 33.2877 4.09657 33.187 4.32639 33.1225C4.57723 33.0482 4.83972 33.0099 5.10402 33.0092H5.8023V20.4343L3.88203 7.53363C3.86643 7.3971 3.86643 7.2595 3.88203 7.12296C3.88203 7.12296 3.88203 7.12296 3.88203 7.02384C3.95544 6.74824 4.07873 6.48517 4.24704 6.24498C4.33981 6.09596 4.44596 5.95389 4.56444 5.82016C4.91575 5.43406 5.36072 5.12417 5.86578 4.91385C6.01297 4.85827 6.16771 4.82018 6.32601 4.80057L16.4352 3.56856L26.5603 2.35072C26.6762 2.3369 26.7936 2.3369 26.9095 2.35072H27.1158L27.3856 2.42152L27.5919 2.49233L27.8617 2.60562L28.068 2.7189C28.1586 2.7626 28.2437 2.81482 28.3219 2.87468L28.5282 3.01629L28.7504 3.20038L28.925 3.35615C28.9984 3.42815 29.0673 3.5038 29.1313 3.58272C29.1787 3.63116 29.2212 3.68329 29.2582 3.73849C29.3173 3.82518 29.3703 3.91504 29.4169 4.00755L29.5122 4.135C29.5122 4.27661 29.6074 4.40406 29.6391 4.54567L30.9563 13.3113H34.1303C34.7829 13.3902 35.4026 13.6144 35.9324 13.9634C36.4622 14.3124 36.8849 14.7748 37.1615 15.308C37.2385 15.4494 37.3022 15.5962 37.352 15.747C37.4016 15.9134 37.4283 16.0846 37.4313 16.2568V32.9667H37.6376C37.9019 32.9674 38.1644 33.0057 38.4152 33.08C38.7421 33.1478 39.0365 33.3063 39.256 33.5328C39.4756 33.7592 39.609 34.042 39.6372 34.3403L39.6531 56.2615Z" fill="white"/>
<path d="M9.03999 52.8487H10.3096V54.1515C9.86365 54.3555 9.36613 54.4531 8.86542 54.4348C8.26774 54.4348 7.69454 54.2229 7.27192 53.8458C6.8493 53.4687 6.61187 52.9572 6.61187 52.4239C6.61187 51.8906 6.8493 51.3791 7.27192 51.002C7.69454 50.6249 8.26774 50.413 8.86542 50.413C9.45083 50.4109 10.0163 50.6027 10.4524 50.9512L11.2618 50.2148C10.5732 49.7432 9.71564 49.5117 8.84955 49.5634C7.98671 49.5634 7.1592 49.8692 6.54908 50.4137C5.93895 50.9581 5.59619 51.6965 5.59619 52.4664C5.59619 53.2363 5.93895 53.9747 6.54908 54.5191C7.1592 55.0635 7.98671 55.3694 8.84955 55.3694C9.74283 55.3793 10.6253 55.1946 11.4205 54.8313V51.9991H9.03999V52.8487Z" fill="white"/>
<path d="M13.8326 52.792H16.6733V51.9141H13.8326V50.5546H16.832V49.6625H12.7217V55.1853H16.9907V54.2931H13.8326V52.792Z" fill="white"/>
<path d="M20.5141 49.6625H18.0859V55.2277H20.3871C20.8132 55.241 21.2379 55.1776 21.6359 55.0413C22.0339 54.9049 22.397 54.6984 22.7036 54.4341C23.0102 54.1697 23.254 53.853 23.4204 53.5028C23.5868 53.1525 23.6725 52.776 23.6722 52.3955C23.6889 52.0253 23.6178 51.6562 23.4637 51.3122C23.3096 50.9681 23.0759 50.657 22.7778 50.3991C22.4798 50.1411 22.1241 49.9422 21.734 49.8153C21.3439 49.6884 20.9282 49.6363 20.5141 49.6625ZM20.0062 54.2931H19.181V50.5546H20.1808C21.5297 50.5546 22.5137 51.0786 22.5137 52.4239C22.5137 53.7692 21.3869 54.2931 20.0062 54.2931Z" fill="white"/>
<path d="M35.8127 51.4184C35.5925 51.4323 35.3818 51.5037 35.2067 51.6235C35.0316 51.7433 34.8998 51.9064 34.8276 52.0925C34.7554 52.2786 34.7461 52.4795 34.8007 52.6703C34.8554 52.8611 34.9716 53.0334 35.135 53.1657C35.2984 53.2981 35.5017 53.3847 35.7198 53.4149C35.9379 53.445 36.1611 53.4174 36.3618 53.3354C36.5624 53.2533 36.7316 53.1205 36.8484 52.9535C36.9652 52.7864 37.0245 52.5924 37.0188 52.3955C37.0149 52.2597 36.9802 52.126 36.9168 52.0025C36.8533 51.879 36.7625 51.7682 36.6498 51.6769C36.5371 51.5856 36.4048 51.5156 36.2609 51.4712C36.117 51.4267 35.9645 51.4088 35.8127 51.4184Z" fill="white"/>
<path d="M34.8445 32.9667V16.2851C34.8467 16.2028 34.8301 16.1209 34.7958 16.0444C34.7615 15.9679 34.7101 15.8985 34.6448 15.8402C34.5796 15.782 34.5017 15.7361 34.416 15.7055C34.3303 15.6749 34.2385 15.6601 34.1462 15.662H9.13505C8.95262 15.6657 8.77906 15.733 8.65152 15.8495C8.52398 15.9659 8.45259 16.1223 8.45264 16.2851V44.3946C8.45264 44.5599 8.52621 44.7184 8.65716 44.8352C8.78811 44.9521 8.96572 45.0177 9.15092 45.0177H34.1462C34.2379 45.0177 34.3287 45.0016 34.4135 44.9703C34.4982 44.939 34.5752 44.8931 34.64 44.8352C34.7048 44.7774 34.7563 44.7087 34.7914 44.6331C34.8265 44.5575 34.8445 44.4765 34.8445 44.3946V32.9667ZM21.6406 29.9646H11.3251V28.2228H31.9562V29.9646H21.6406ZM31.9562 26.396H11.3251V24.6542H31.9562V26.396ZM29.9407 21.0857H31.9562V22.8275H11.3251V21.0857H29.9407ZM31.9562 33.5332H11.3251V31.7914H31.9562V33.5332Z" fill="white"/>
</svg>
