<svg width="84" height="54" viewBox="0 0 84 54" fill="none" xmlns="http://www.w3.org/2000/svg">
<path d="M0 32.7541C0 27.2459 1.58865 22.0328 4.76596 17.1148C7.94326 12.1967 11.8156 8.16393 16.383 5.0164C20.9504 1.67213 25.4184 0 29.7872 0C31.3759 0 32.8652 0.491803 34.2553 1.47541C35.6454 2.26229 36.3404 4.03279 36.3404 6.78688C36.3404 9.54098 35.4468 11.1148 33.6596 11.5082C32.0709 11.9016 29.6879 12.7869 26.5106 14.1639C23.3333 15.9344 20.8511 18 19.0638 20.3607C17.2766 22.7213 16.383 25.3771 16.383 28.3279C16.383 30.8852 17.078 32.9508 18.4681 34.5246C20.0567 35.9016 21.844 36.5902 23.8298 36.5902C25.2199 36.5902 26.6099 36.3934 28 36C29.5887 35.4098 30.7801 34.7213 31.5745 33.9344C32.9645 34.918 33.9574 36.0984 34.5532 37.4754C35.1489 38.6557 35.4468 40.1311 35.4468 41.9016C35.2482 45.0492 33.3617 47.9016 29.7872 50.459C26.4113 52.8197 22.6383 54 18.4681 54C13.1064 54 8.6383 51.8361 5.06383 47.5082C1.68794 43.1803 0 38.2623 0 32.7541ZM47.6596 32.7541C47.6596 27.2459 49.2482 22.0328 52.4255 17.1148C55.6028 12.1967 59.4752 8.16393 64.0426 5.0164C68.6099 1.67213 73.078 0 77.4468 0C79.0355 0 80.5248 0.491803 81.9149 1.47541C83.305 2.26229 84 4.03279 84 6.78688C84 9.54098 83.1064 11.1148 81.3192 11.5082C79.7305 11.9016 77.3475 12.7869 74.1702 14.1639C70.9929 15.9344 68.5106 18 66.7234 20.3607C64.9362 22.7213 64.0426 25.3771 64.0426 28.3279C64.0426 30.8852 64.7376 32.9508 66.1277 34.5246C67.7163 35.9016 69.5035 36.5902 71.4894 36.5902C72.8794 36.5902 74.2695 36.3934 75.6596 36C77.2482 35.4098 78.4397 34.7213 79.234 33.9344C80.6241 34.918 81.617 36.0984 82.2128 37.4754C82.8085 38.6557 83.1064 40.1311 83.1064 41.9016C82.9078 45.0492 81.0213 47.9016 77.4468 50.459C74.0709 52.8197 70.2979 54 66.1277 54C60.766 54 56.2979 51.8361 52.7234 47.5082C49.3475 43.1803 47.6596 38.2623 47.6596 32.7541Z" fill="#E30289"/>
</svg>
