<svg width="1202" height="290" viewBox="0 0 1202 290" fill="none" xmlns="http://www.w3.org/2000/svg">
<path d="M937.728 138.942L950.523 128.068L963.379 138.942H937.728Z" fill="#026770"/>
<path d="M962.039 188.392H938.764V185.719H962.039V188.392Z" fill="#026770"/>
<path d="M958.627 191.854H942.42V189.242H958.627V191.854Z" fill="#026770"/>
<path d="M957.652 197.261H943.455C945.161 196.957 946.502 195.803 946.502 194.406C946.502 193.069 945.161 191.915 943.455 191.611H957.652C955.885 191.915 954.605 193.069 954.605 194.406C954.605 195.803 955.885 196.957 957.652 197.261Z" fill="#026770"/>
<path d="M957.652 201.271H943.455V197.443H957.652V201.271Z" fill="#026770"/>
<path d="M954.605 249.566H946.136V201.271H954.605V249.566Z" fill="#026770"/>
<path d="M963.624 142.405H937.484V139.732H963.624V142.405Z" fill="#026770"/>
<path d="M957.652 257.828H943.455C945.161 257.524 946.502 256.37 946.502 255.033C946.502 253.636 945.161 252.482 943.455 252.178H957.652C955.885 252.482 954.605 253.636 954.605 255.033C954.605 256.37 955.885 257.524 957.652 257.828Z" fill="#026770"/>
<path d="M957.652 262.08H943.455V257.402H957.652V262.08Z" fill="#026770"/>
<path d="M961.003 271.192H940.104V262.08H961.003V271.192Z" fill="#026770"/>
<path d="M964.842 279.94H936.266V270.889H964.842V279.94Z" fill="#026770"/>
<path d="M968.863 289.052H932V279.94H968.863V289.052Z" fill="#026770"/>
<path d="M950.34 262.08V271.192H940.104V262.08H950.34Z" fill="#026770"/>
<path d="M950.341 270.889V279.94H936.266V270.889H950.341Z" fill="#026770"/>
<path d="M950.523 279.94V289.052H932V279.94H950.523Z" fill="#026770"/>
<path d="M954.605 201.271V249.566H950.584V201.271H954.605Z" fill="#026770"/>
<path d="M957.53 252.178H943.577V249.566H957.53V252.178Z" fill="#026770"/>
<path d="M952.777 179.583H948.451V152.732H952.777V179.583Z" fill="#026770"/>
<path d="M954.423 148.845C953.387 149.938 952.777 151.275 952.777 152.733H948.451C948.451 151.153 947.72 149.756 946.562 148.663V146.476H954.423V148.845Z" fill="#026770"/>
<path d="M962.77 146.84H938.337V142.405H962.77V146.84Z" fill="#026770"/>
<path d="M946.685 183.046C947.72 181.952 948.33 180.616 948.33 179.097H952.656C952.656 180.677 953.387 182.074 954.545 183.228V185.354H946.685V183.046Z" fill="#026770"/>
<path d="M960.699 179.583H958.14V152.732H960.699V179.583Z" fill="#026770"/>
<path d="M961.674 148.845C961.064 149.938 960.699 151.275 960.699 152.733H958.14C958.14 151.153 957.713 149.756 957.043 148.663V146.476H961.674V148.845Z" fill="#026770"/>
<path d="M957.104 183.046C957.713 181.952 958.078 180.616 958.078 179.097H960.638C960.638 180.677 961.003 182.074 961.673 183.228V185.354H957.104V183.046Z" fill="#026770"/>
<path d="M942.967 179.583H940.408V152.732H942.967V179.583Z" fill="#026770"/>
<path d="M943.943 148.845C943.333 149.938 942.968 151.275 942.968 152.733H940.409C940.409 151.153 940.043 149.756 939.373 148.663V146.476H943.943V148.845Z" fill="#026770"/>
<path d="M939.373 183.046C940.043 181.952 940.409 180.616 940.409 179.097H942.907C942.907 180.677 943.333 182.074 944.004 183.228V185.354H939.373V183.046Z" fill="#026770"/>
<path opacity="0.5" d="M944.187 138.942L950.523 128.068L956.86 138.942H944.187Z" fill="#026770"/>
<path d="M1120.61 98.8381L1139.44 0L1158.27 98.8381H1120.61Z" fill="#026770"/>
<path d="M1078.89 206.378V213.607V269.383V283.057H1012V213.607V206.378H1019.45V213.607H1026.89V206.378H1034.28V213.607H1041.72V206.378H1049.17V213.607H1056.61V206.378H1064.06V213.607H1071.44V206.378H1078.89Z" fill="#026770"/>
<path d="M1012 273.268H1078.89V283.872H1012V273.268Z" fill="#026770"/>
<path d="M1078.81 283.514V202.354L1109.89 180.12V283.332L1078.81 283.514Z" fill="#026770"/>
<path d="M1116.1 157.764V163.9V282.785H1109.89V163.9L1116.1 157.764Z" fill="#026770"/>
<path d="M1120.61 149.563V283.635L1116.1 283.514V149.563L1120.55 145.128V149.563H1120.61Z" fill="#026770"/>
<path d="M1158.27 283.514H1120.61V98.2305H1158.27V283.514Z" fill="#026770"/>
<path d="M1168.99 282.542V180.241L1200 202.354V282.724L1168.99 282.542Z" fill="#026770"/>
<path d="M1168.99 163.9V282.724H1162.71V163.9V157.764L1168.99 163.9Z" fill="#026770"/>
<path d="M1158.27 149.563V145.128L1162.71 149.563V283.453L1158.27 283.514V149.563Z" fill="#026770"/>
<path d="M1188.91 229.934V250.77H1174.23V229.934C1174.23 225.742 1177.52 222.401 1181.54 222.401C1185.62 222.401 1188.91 225.742 1188.91 229.934Z" fill="white" stroke="#026770" stroke-width="2.34146"/>
<path d="M1129.32 98.8381L1139.44 0L1149.55 98.8381H1129.32Z" fill="#026770"/>
<path d="M1120.61 98.8381L1139.44 72.4731L1158.27 98.8381H1120.61Z" fill="#026770"/>
<path d="M1181.54 235.037V250.77H1174.23V235.037C1174.23 231.878 1175.87 229.326 1177.89 229.326C1179.9 229.326 1181.54 231.878 1181.54 235.037Z" stroke="#026770" stroke-width="2.34146"/>
<path d="M1188.91 235.037V250.77H1181.54V235.037C1181.54 231.878 1183.19 229.326 1185.2 229.326C1187.27 229.326 1188.91 231.878 1188.91 235.037Z" stroke="#026770" stroke-width="2.34146"/>
<path d="M1181.54 230.298C1183.73 230.298 1185.5 228.53 1185.5 226.35C1185.5 224.169 1183.73 222.401 1181.54 222.401C1179.35 222.401 1177.58 224.169 1177.58 226.35C1177.58 228.53 1179.35 230.298 1181.54 230.298Z" stroke="#026770" stroke-width="2.34146"/>
<path d="M1106.05 229.934V250.77H1091.36V229.934C1091.36 225.742 1094.65 222.401 1098.74 222.401C1102.76 222.401 1106.05 225.742 1106.05 229.934Z" fill="white" stroke="#026770" stroke-width="2.34146"/>
<path d="M1098.74 235.037V250.77H1091.36V235.037C1091.36 231.878 1093.01 229.326 1095.08 229.326C1097.09 229.326 1098.74 231.878 1098.74 235.037Z" stroke="#026770" stroke-width="2.34146"/>
<path d="M1106.05 235.037V250.77H1098.74V235.037C1098.74 231.878 1100.38 229.326 1102.39 229.326C1104.4 229.326 1106.05 231.878 1106.05 235.037Z" stroke="#026770" stroke-width="2.34146"/>
<path d="M1098.74 230.298C1100.92 230.298 1102.7 228.53 1102.7 226.35C1102.7 224.169 1100.92 222.401 1098.74 222.401C1096.55 222.401 1094.78 224.169 1094.78 226.35C1094.78 228.53 1096.55 230.298 1098.74 230.298Z" stroke="#026770" stroke-width="2.34146"/>
<path d="M1146.75 106.371V127.208H1132.07V106.371C1132.07 102.18 1135.36 98.8384 1139.44 98.8384C1143.46 98.8384 1146.75 102.18 1146.75 106.371Z" fill="#026770" stroke="white" stroke-width="2.34146"/>
<path d="M1146.2 123.563H1132.68V119.796H1146.2V123.563Z" fill="#026770"/>
<path d="M1132.68 121.68H1146.2V123.563H1132.68V121.68Z" fill="#026770"/>
<path d="M1146.2 116.212H1132.68V112.446H1146.2V116.212Z" fill="#026770"/>
<path d="M1132.68 114.329H1146.2V116.212H1132.68V114.329Z" fill="#026770"/>
<path d="M1146.2 108.922H1132.61V105.217H1146.2V108.922Z" fill="#026770"/>
<path d="M1132.61 107.039H1146.2V108.922H1132.61V107.039Z" fill="#026770"/>
<path d="M1139.44 159.891C1143.65 159.891 1147.05 156.491 1147.05 152.297C1147.05 148.103 1143.65 144.704 1139.44 144.704C1135.23 144.704 1131.82 148.103 1131.82 152.297C1131.82 156.491 1135.23 159.891 1139.44 159.891Z" fill="#026770" stroke="white" stroke-width="2.34146"/>
<path d="M1139.44 152.297V147.802" stroke="white" stroke-width="2.34146"/>
<path d="M1143.34 152.297H1138.83" stroke="white" stroke-width="2.34146"/>
<path d="M1149.55 185.891V220.943H1129.32V185.891C1129.32 178.844 1133.83 173.073 1139.44 173.073C1145.04 173.073 1149.55 178.844 1149.55 185.891Z" fill="white" stroke="#026770" stroke-width="2.34146"/>
<path d="M1136.03 193.059V220.943H1129.32V193.059C1129.32 187.41 1130.79 182.854 1132.68 182.854C1134.56 182.854 1136.03 187.41 1136.03 193.059Z" stroke="#026770" stroke-width="2.34146"/>
<path d="M1135.72 182.854C1137.57 182.854 1139.07 181.358 1139.07 179.513C1139.07 177.667 1137.57 176.171 1135.72 176.171C1133.87 176.171 1132.37 177.667 1132.37 179.513C1132.37 181.358 1133.87 182.854 1135.72 182.854Z" stroke="#026770" stroke-width="2.34146"/>
<path d="M1142.79 193.059V220.943H1136.03V193.059C1136.03 187.41 1137.55 182.854 1139.44 182.854C1141.27 182.854 1142.79 187.41 1142.79 193.059Z" stroke="#026770" stroke-width="2.34146"/>
<path d="M1149.55 193.059V220.943H1142.79V193.059C1142.79 187.41 1144.31 182.854 1146.2 182.854C1148.03 182.854 1149.55 187.41 1149.55 193.059Z" stroke="#026770" stroke-width="2.34146"/>
<path d="M1143.09 182.854C1144.95 182.854 1146.45 181.358 1146.45 179.513C1146.45 177.667 1144.95 176.171 1143.09 176.171C1141.24 176.171 1139.74 177.667 1139.74 179.513C1139.74 181.358 1141.24 182.854 1143.09 182.854Z" stroke="#026770" stroke-width="2.34146"/>
<path d="M1116.71 156.246L1109.58 163.596" stroke="#026770" stroke-width="2.34146"/>
<path d="M1169.48 163.474L1162.17 156.306" stroke="#026770" stroke-width="2.34146"/>
<path d="M1078.51 202.293L1110.19 179.452" stroke="#026770" stroke-width="2.34146"/>
<path d="M1200.67 203.083L1168.99 180.241" stroke="#026770" stroke-width="2.34146"/>
<path d="M1148.94 247.673V282.725H1128.71V247.673C1128.71 240.626 1133.22 234.916 1138.83 234.916C1144.44 234.916 1148.94 240.626 1148.94 247.673Z" fill="white" stroke="#026770" stroke-width="2.34146"/>
<path d="M1135.42 246.64V251.925H1128.71V246.64C1128.71 245.546 1130.18 244.696 1132.07 244.696C1133.96 244.696 1135.42 245.546 1135.42 246.64Z" stroke="#026770" stroke-width="2.34146"/>
<path d="M1135.11 244.635C1136.96 244.635 1138.46 243.139 1138.46 241.294C1138.46 239.449 1136.96 237.953 1135.11 237.953C1133.26 237.953 1131.76 239.449 1131.76 241.294C1131.76 243.139 1133.26 244.635 1135.11 244.635Z" stroke="#026770" stroke-width="2.34146"/>
<path d="M1142.18 246.64V251.925H1135.42V246.64C1135.42 245.546 1136.94 244.696 1138.83 244.696C1140.66 244.696 1142.18 245.546 1142.18 246.64Z" stroke="#026770" stroke-width="2.34146"/>
<path d="M1148.94 246.64V251.925H1142.18V246.64C1142.18 245.546 1143.7 244.696 1145.59 244.696C1147.42 244.696 1148.94 245.546 1148.94 246.64Z" stroke="#026770" stroke-width="2.34146"/>
<path d="M1142.49 244.635C1144.34 244.635 1145.84 243.139 1145.84 241.294C1145.84 239.449 1144.34 237.953 1142.49 237.953C1140.64 237.953 1139.13 239.449 1139.13 241.294C1139.13 243.139 1140.64 244.635 1142.49 244.635Z" stroke="#026770" stroke-width="2.34146"/>
<path d="M1148.94 282.724H1128.71V251.925H1148.94V282.724Z" fill="#026770"/>
<path d="M1138.83 282.724V251.925H1148.94V282.724H1138.83Z" fill="#026770"/>
<path d="M1078.87 269.967H1116.1V283.514H1078.81L1078.87 269.967Z" fill="#026770"/>
<path d="M1162.77 269.967H1200V283.514H1162.71L1162.77 269.967Z" fill="#026770"/>
<path d="M573.062 240.887H462.534V189.98H573.062V240.887Z" fill="#026770"/>
<path d="M575.439 189.98H517.189H458.939C465.561 187.469 470.76 184.512 474.538 181.11C478.356 177.709 492.573 163.291 517.189 137.857C541.846 163.291 556.063 177.709 559.841 181.11C563.659 184.512 568.858 187.469 575.439 189.98Z" fill="#026770"/>
<path d="M458.939 189.98C465.561 187.469 470.76 184.512 474.538 181.11C478.356 177.709 492.573 163.291 517.189 137.857C541.846 163.291 556.063 177.709 559.841 181.11C563.659 184.512 568.858 187.469 575.439 189.98" stroke="#026770" stroke-width="9.36585"/>
<path d="M517.189 137.857L531.081 152.133H503.297L517.189 137.857Z" fill="#026770"/>
<path d="M510.73 241.677H488.612V208.083H510.73V241.677Z" fill="#026770"/>
<path d="M491.11 240.948V211.971C491.11 210.452 508.232 210.452 508.232 211.971V240.948" fill="white"/>
<path d="M491.11 240.948V211.971C491.11 210.452 508.232 210.452 508.232 211.971V240.948" stroke="#026770" stroke-width="3.5122"/>
<path d="M499.701 210.816V240.948" stroke="#026770" stroke-width="3.5122"/>
<path d="M491.11 220.354H508.232" stroke="#026770" stroke-width="3.5122"/>
<path d="M508.232 227.826H491.11" stroke="#026770" stroke-width="3.5122"/>
<path d="M491.11 235.298H508.232" stroke="#026770" stroke-width="3.5122"/>
<path d="M545.217 241.677H523.1V208.083H545.217V241.677Z" fill="#026770"/>
<path d="M525.598 240.948V211.971C525.598 210.452 542.719 210.452 542.719 211.971V240.948" fill="white"/>
<path d="M525.598 240.948V211.971C525.598 210.452 542.719 210.452 542.719 211.971V240.948" stroke="#026770" stroke-width="3.5122"/>
<path d="M534.189 210.816V240.948" stroke="#026770" stroke-width="3.5122"/>
<path d="M525.598 220.354H542.719" stroke="#026770" stroke-width="3.5122"/>
<path d="M542.719 227.826H525.598" stroke="#026770" stroke-width="3.5122"/>
<path d="M525.598 235.298H542.719" stroke="#026770" stroke-width="3.5122"/>
<path d="M510.73 199.153H488.612V169.812H510.73V199.153Z" fill="#026770"/>
<path d="M491.11 197.027V173.456C491.11 172.241 508.232 172.241 508.232 173.456V197.027" fill="white"/>
<path d="M491.11 197.027V173.456C491.11 172.241 508.232 172.241 508.232 173.456V197.027" stroke="#026770" stroke-width="3.5122"/>
<path d="M499.702 172.545V196.419" stroke="#026770" stroke-width="3.5122"/>
<path d="M491.11 181.475H508.232" stroke="#026770" stroke-width="3.5122"/>
<path d="M508.232 188.887H491.11" stroke="#026770" stroke-width="3.5122"/>
<path d="M491.11 196.358H508.232" stroke="#026770" stroke-width="3.5122"/>
<path d="M545.217 199.153H523.1V169.872H545.217V199.153Z" fill="#026770"/>
<path d="M525.598 197.088V173.517C525.598 172.242 542.719 172.242 542.719 173.517V197.088" fill="white"/>
<path d="M525.598 197.088V173.517C525.598 172.242 542.719 172.242 542.719 173.517V197.088" stroke="#026770" stroke-width="3.5122"/>
<path d="M534.189 172.545V196.42" stroke="#026770" stroke-width="3.5122"/>
<path d="M525.598 181.476H542.719" stroke="#026770" stroke-width="3.5122"/>
<path d="M542.719 188.948H525.598" stroke="#026770" stroke-width="3.5122"/>
<path d="M525.598 196.42H542.719" stroke="#026770" stroke-width="3.5122"/>
<path d="M533.518 154.138H500.92V152.133H533.518V154.138Z" fill="#026770"/>
<path d="M388.138 241.191H313.254V225.882H388.138V241.191Z" fill="#026770"/>
<path d="M308.44 225.882L346.583 197.209H382.045L401.177 225.882H308.44Z" fill="#026770"/>
<path d="M487.638 284.019H463.266V244.896H487.638V284.019Z" fill="#026770"/>
<path d="M463.326 210.27V284.018H449.373V238.882C449.373 220.779 402.091 220.779 402.091 238.882V284.018H388.138V210.27H463.326Z" fill="#026770"/>
<path d="M401.178 284.019V237.182C401.178 218.35 450.288 218.35 450.288 237.182V284.019" stroke="#026770" stroke-width="22.2439"/>
<path d="M405.381 247.57H395.45H394.17C393.256 247.57 392.586 246.902 392.586 245.99V243.743C392.586 242.892 393.256 242.163 394.17 242.163H395.45H405.381V247.57Z" fill="#026770"/>
<path d="M405.381 260.327H395.45H394.17C393.256 260.327 392.586 259.598 392.586 258.748V256.5C392.586 255.649 393.256 254.92 394.17 254.92H395.45H405.381V260.327Z" fill="#026770"/>
<path d="M405.381 273.084H395.45H394.17C393.256 273.084 392.586 272.355 392.586 271.505V269.257C392.586 268.407 393.256 267.678 394.17 267.678H395.45H405.381V273.084Z" fill="#026770"/>
<path d="M392.586 284.019V282.014C392.586 281.103 393.256 280.435 394.17 280.435H395.45H405.381V284.019H392.586Z" fill="#026770"/>
<path d="M446.145 242.163H456.076H457.356C458.209 242.163 458.94 242.892 458.94 243.743V245.99C458.94 246.902 458.209 247.57 457.356 247.57H456.076H446.145V242.163Z" fill="#026770"/>
<path d="M446.145 254.92H456.076H457.356C458.209 254.92 458.94 255.649 458.94 256.5V258.748C458.94 259.598 458.209 260.327 457.356 260.327H456.076H446.145V254.92Z" fill="#026770"/>
<path d="M446.145 267.678H456.076H457.356C458.209 267.678 458.94 268.407 458.94 269.257V271.505C458.94 272.355 458.209 273.084 457.356 273.084H456.076H446.145V267.678Z" fill="#026770"/>
<path d="M446.145 284.019V280.435H456.076H457.356C458.209 280.435 458.94 281.103 458.94 282.014V284.019H446.145Z" fill="#026770"/>
<path d="M437.918 219.443C438.04 219.443 438.162 219.443 438.284 219.443C439.807 219.443 440.965 220.597 440.965 221.934C440.965 223.27 439.746 224.364 438.223 224.364C438.101 224.364 437.999 224.364 437.918 224.364" stroke="#026770" stroke-width="3.5122"/>
<path d="M444.011 224.364H444.072C444.072 224.364 444.052 224.364 444.011 224.364ZM444.011 224.364C443.93 224.364 443.829 224.364 443.707 224.364C442.183 224.364 440.965 223.27 440.965 221.873C440.965 220.536 442.244 219.443 443.768 219.443C443.849 219.443 443.95 219.443 444.072 219.443" stroke="#026770" stroke-width="3.5122"/>
<path d="M407.453 219.443C407.575 219.443 407.697 219.443 407.819 219.443C409.281 219.443 410.5 220.598 410.5 221.934C410.5 223.271 409.281 224.364 407.758 224.364C407.636 224.364 407.514 224.364 407.393 224.364" stroke="#026770" stroke-width="3.5122"/>
<path d="M413.547 224.364H413.608C413.608 224.364 413.587 224.364 413.547 224.364ZM413.547 224.364C413.465 224.364 413.364 224.364 413.242 224.364C411.719 224.364 410.5 223.271 410.5 221.873C410.5 220.537 411.78 219.443 413.303 219.443C413.384 219.443 413.486 219.443 413.608 219.443" stroke="#026770" stroke-width="3.5122"/>
<path d="M425.793 229.103V284.141" stroke="#026770" stroke-width="3.5122"/>
<path d="M428.048 230.5V284.141" stroke="#026770" stroke-width="1.17073"/>
<path d="M430.059 231.472V284.141" stroke="#026770" stroke-width="1.17073"/>
<path d="M432.068 232.809V284.141" stroke="#026770" stroke-width="1.17073"/>
<path d="M434.08 233.841V284.141" stroke="#026770" stroke-width="1.17073"/>
<path d="M436.091 235.056V284.141" stroke="#026770" stroke-width="1.17073"/>
<path d="M438.102 236.149V284.141" stroke="#026770" stroke-width="1.17073"/>
<path d="M440.111 237V284.141" stroke="#026770" stroke-width="1.17073"/>
<path d="M442.123 237.79V284.141" stroke="#026770" stroke-width="1.17073"/>
<path d="M444.133 238.701V284.141" stroke="#026770" stroke-width="1.17073"/>
<path d="M446.084 239.734V284.141" stroke="#026770" stroke-width="1.17073"/>
<path d="M448.094 241.07V284.141" stroke="#026770" stroke-width="1.17073"/>
<path d="M423.6 230.5V284.141" stroke="#026770" stroke-width="1.17073"/>
<path d="M421.589 231.472V284.141" stroke="#026770" stroke-width="1.17073"/>
<path d="M419.578 232.809V284.141" stroke="#026770" stroke-width="1.17073"/>
<path d="M417.568 233.841V284.141" stroke="#026770" stroke-width="1.17073"/>
<path d="M415.557 235.056V284.141" stroke="#026770" stroke-width="1.17073"/>
<path d="M413.546 236.149V284.141" stroke="#026770" stroke-width="1.17073"/>
<path d="M411.535 237V284.141" stroke="#026770" stroke-width="1.17073"/>
<path d="M409.525 237.79V284.141" stroke="#026770" stroke-width="1.17073"/>
<path d="M407.514 238.701V284.141" stroke="#026770" stroke-width="1.17073"/>
<path d="M405.504 239.734V284.141" stroke="#026770" stroke-width="1.17073"/>
<path d="M403.492 241.07V284.141" stroke="#026770" stroke-width="1.17073"/>
<path d="M402.64 243.986H448.886" stroke="#026770" stroke-width="1.17073"/>
<path d="M402.64 262.636H448.886" stroke="#026770" stroke-width="1.17073"/>
<path d="M402.64 282.379H448.886" stroke="#026770" stroke-width="1.17073"/>
<path d="M487.639 244.896V284.019" stroke="#026770" stroke-width="22.2439"/>
<path d="M575.439 284.019H491.781V244.896H575.439V284.019Z" fill="#026770"/>
<path d="M388.138 284.019H294.792V244.836H388.138V284.019Z" fill="#026770"/>
<path d="M465.093 210.27H426.036H425.549H386.492L399.349 202.251H425.549H426.036H452.175L465.093 210.27Z" fill="#026770"/>
<path d="M576.596 244.897H565.812H565.69H559.414H554.905H463.326V240.887H558.5H559.414H565.69H565.812H573.062L576.596 244.897Z" fill="#026770"/>
<path d="M388.138 245.261H315.63H311.122H304.907H304.724H294L297.534 241.191H304.724H304.907H311.122H312.096H388.138V245.261Z" fill="#026770"/>
<path d="M390.027 245.261H388.138V210.27H390.027V245.261Z" fill="#026770"/>
<path d="M463.447 244.836H461.559V210.27H463.447V244.836Z" fill="#026770"/>
<path d="M830 230.007C830 244.811 842.079 256.853 856.973 256.853V203.115C842.079 203.115 830 215.158 830 230.007Z" fill="#026770"/>
<path d="M883.944 230.007C883.944 215.158 871.866 203.115 856.972 203.115V256.853C871.866 256.853 883.944 244.811 883.944 230.007Z" fill="#026770"/>
<path d="M856.972 239.423C852.249 242.14 844.076 229.373 843.485 235.575C843.092 239.71 846.528 242.804 853.793 244.856C859.06 239.393 860.12 237.582 856.972 239.423Z" fill="#026770"/>
<path d="M866.734 237.748C865.13 240.797 862.375 241.325 858.47 239.333L859.469 243.996C871.411 244.539 869.186 233.221 866.734 237.748Z" fill="#026770"/>
<path d="M851.341 283.157H862.603C862.603 283.157 861.467 214.071 856.972 227.11C854.036 235.591 852.159 254.273 851.341 283.157Z" fill="#026770"/>
<path d="M254.386 211.085C254.386 230.95 238.179 247.109 218.193 247.109V175C238.179 175 254.386 191.159 254.386 211.085Z" fill="#026770"/>
<path d="M182 211.085C182 191.159 198.208 175 218.193 175V247.109C198.208 247.109 182 230.95 182 211.085Z" fill="#026770"/>
<path d="M218.193 223.72C224.53 227.365 235.497 210.234 236.289 218.556C236.817 224.105 232.207 228.256 222.458 231.01C215.39 223.68 213.968 221.25 218.193 223.72Z" fill="#026770"/>
<path d="M205.092 221.472C207.245 225.563 210.942 226.272 216.182 223.599L214.841 229.856C198.817 230.585 201.802 215.398 205.092 221.472Z" fill="#026770"/>
<path d="M225.749 282.404H210.638C210.638 282.404 212.161 189.701 218.193 207.197C222.133 218.577 224.652 243.646 225.749 282.404Z" fill="#026770"/>
<path d="M0 207.945L25.8346 182.188V283.395H0V207.945Z" fill="#026770"/>
<path d="M25.835 283.395V164.632H130.331V283.213H25.835" fill="#026770"/>
<path d="M130.331 186.623V227.325H25.835V186.623H130.331Z" fill="#026770"/>
<path d="M36.9846 231.82H24.0064C22.7613 231.82 21.752 232.826 21.752 234.068V235.951C21.752 237.192 22.7613 238.198 24.0064 238.198H36.9846C38.2297 238.198 39.2391 237.192 39.2391 235.951V234.068C39.2391 232.826 38.2297 231.82 36.9846 231.82Z" fill="#026770"/>
<path d="M45.698 239.049H32.7198C31.4747 239.049 30.4653 240.055 30.4653 241.297V243.18C30.4653 244.421 31.4747 245.427 32.7198 245.427H45.698C46.9431 245.427 47.9525 244.421 47.9525 243.18V241.297C47.9525 240.055 46.9431 239.049 45.698 239.049Z" fill="#026770"/>
<path d="M35.8273 254.783H25.1036C23.8585 254.783 22.8491 255.789 22.8491 257.03V258.914C22.8491 260.155 23.8585 261.161 25.1036 261.161H35.8273C37.0724 261.161 38.0818 260.155 38.0818 258.914V257.03C38.0818 255.789 37.0724 254.783 35.8273 254.783Z" fill="#026770"/>
<path d="M98.8296 240.872H91.6398C90.5966 240.872 89.751 241.715 89.751 242.755V243.605C89.751 244.645 90.5966 245.489 91.6398 245.489H98.8296C99.8728 245.489 100.718 244.645 100.718 243.605V242.755C100.718 241.715 99.8728 240.872 98.8296 240.872Z" fill="#026770"/>
<path d="M124.177 243.909H116.987C115.944 243.909 115.098 244.752 115.098 245.792V246.642C115.098 247.682 115.944 248.526 116.987 248.526H124.177C125.22 248.526 126.066 247.682 126.066 246.642V245.792C126.066 244.752 125.22 243.909 124.177 243.909Z" fill="#026770"/>
<path d="M65.8052 231.516H58.6154C57.5722 231.516 56.7266 232.359 56.7266 233.399V234.25C56.7266 235.29 57.5722 236.133 58.6154 236.133H65.8052C66.8484 236.133 67.6941 235.29 67.6941 234.25V233.399C67.6941 232.359 66.8484 231.516 65.8052 231.516Z" fill="#026770"/>
<path d="M117.657 258.671H106.933C105.688 258.671 104.679 259.677 104.679 260.919V262.802C104.679 264.043 105.688 265.05 106.933 265.05H117.657C118.902 265.05 119.911 264.043 119.911 262.802V260.919C119.911 259.677 118.902 258.671 117.657 258.671Z" fill="#026770"/>
<path d="M9.74891 254.176V255.087C9.74891 256.606 8.5303 257.82 7.00703 257.82H0V251.442H7.00703C8.5303 251.442 9.74891 252.657 9.74891 254.176Z" fill="#026770"/>
<path d="M120.582 239.535V238.624C120.582 237.105 121.801 235.89 123.324 235.89H130.331V242.269H123.324C121.801 242.269 120.582 241.054 120.582 239.535Z" fill="#026770"/>
<path d="M4.87445 262.862V263.773C4.87445 265.292 4.26515 266.507 3.53398 266.507H0V260.128H3.53398C4.26515 260.128 4.87445 261.343 4.87445 262.862Z" fill="#026770"/>
<path d="M107.36 260.251C104.801 270.092 94.7474 275.984 84.9376 273.433C75.0668 270.942 69.1565 260.919 71.6547 251.077C74.2138 241.236 84.2673 235.344 94.1381 237.895C103.948 240.386 109.919 250.409 107.36 260.251V260.251Z" stroke="white" stroke-width="2.34146"/>
<path d="M94.1377 237.895L95.9047 230.909" stroke="white" stroke-width="2.34146"/>
<path d="M90.9697 237.348L91.5181 230.18" stroke="white" stroke-width="2.34146"/>
<path d="M87.74 237.348L87.0698 230.24" stroke="white" stroke-width="2.34146"/>
<path d="M84.5719 237.956L82.6221 231.03" stroke="white" stroke-width="2.34146"/>
<path d="M81.5864 239.11L78.479 232.609" stroke="white" stroke-width="2.34146"/>
<path d="M78.7834 240.689L74.6401 234.857" stroke="white" stroke-width="2.34146"/>
<path d="M76.3462 242.815L71.228 237.773" stroke="white" stroke-width="2.34146"/>
<path d="M74.3355 245.245L68.3643 241.175" stroke="white" stroke-width="2.34146"/>
<path d="M72.7514 248.04L66.1709 245.063" stroke="white" stroke-width="2.34146"/>
<path d="M71.6546 251.077L64.7085 249.255" stroke="white" stroke-width="2.34146"/>
<path d="M71.1669 254.236L63.9771 253.689" stroke="white" stroke-width="2.34146"/>
<path d="M71.167 257.456L64.0381 258.124" stroke="white" stroke-width="2.34146"/>
<path d="M71.7762 260.554L64.8301 262.498" stroke="white" stroke-width="2.34146"/>
<path d="M72.8727 263.591L66.4141 266.69" stroke="white" stroke-width="2.34146"/>
<path d="M74.5183 266.325L68.6689 270.517" stroke="white" stroke-width="2.34146"/>
<path d="M76.5896 268.755L71.5933 273.919" stroke="white" stroke-width="2.34146"/>
<path d="M79.0882 270.821L75.0059 276.713" stroke="white" stroke-width="2.34146"/>
<path d="M81.8909 272.4L78.9053 278.9" stroke="white" stroke-width="2.34146"/>
<path d="M84.9373 273.433L83.1094 280.419" stroke="white" stroke-width="2.34146"/>
<path d="M88.106 273.979L87.5576 281.148" stroke="white" stroke-width="2.34146"/>
<path d="M91.2744 273.918L92.0055 281.087" stroke="white" stroke-width="2.34146"/>
<path d="M94.4424 273.372L96.3922 280.297" stroke="white" stroke-width="2.34146"/>
<path d="M97.4893 272.218L100.597 278.718" stroke="white" stroke-width="2.34146"/>
<path d="M100.231 270.638L104.435 276.47" stroke="white" stroke-width="2.34146"/>
<path d="M102.668 268.512L107.787 273.554" stroke="white" stroke-width="2.34146"/>
<path d="M104.74 266.082L110.65 270.091" stroke="white" stroke-width="2.34146"/>
<path d="M106.324 263.288L112.843 266.264" stroke="white" stroke-width="2.34146"/>
<path d="M107.36 260.25L114.367 262.012" stroke="white" stroke-width="2.34146"/>
<path d="M107.908 257.091L115.098 257.638" stroke="white" stroke-width="2.34146"/>
<path d="M107.847 253.871L115.037 253.203" stroke="white" stroke-width="2.34146"/>
<path d="M107.299 250.713L114.184 248.83" stroke="white" stroke-width="2.34146"/>
<path d="M106.142 247.736L112.661 244.638" stroke="white" stroke-width="2.34146"/>
<path d="M104.496 245.003L110.345 240.811" stroke="white" stroke-width="2.34146"/>
<path d="M102.424 242.573L107.482 237.409" stroke="white" stroke-width="2.34146"/>
<path d="M99.9263 240.507L104.009 234.614" stroke="white" stroke-width="2.34146"/>
<path d="M97.1235 238.927L100.109 232.366" stroke="white" stroke-width="2.34146"/>
<path d="M86.2171 259.035L84.9985 254.54L88.2279 251.199L92.7976 252.353L94.0772 256.848L90.7869 260.19L86.2171 259.035Z" fill="white"/>
<path d="M89.5073 255.694L107.116 260.189" stroke="white" stroke-width="2.34146"/>
<path d="M89.5073 255.694L106.446 249.012" stroke="white" stroke-width="2.34146"/>
<path d="M89.5073 255.694L99.2563 240.385" stroke="white" stroke-width="2.34146"/>
<path d="M89.5073 255.694L88.4106 237.591" stroke="white" stroke-width="2.34146"/>
<path d="M89.5074 255.694L77.9307 241.722" stroke="white" stroke-width="2.34146"/>
<path d="M89.5069 255.694L71.8979 251.138" stroke="white" stroke-width="2.34146"/>
<path d="M89.5072 255.694L72.6294 262.315" stroke="white" stroke-width="2.34146"/>
<path d="M89.5072 255.694L79.7583 271.002" stroke="white" stroke-width="2.34146"/>
<path d="M89.5073 255.694L90.665 273.797" stroke="white" stroke-width="2.34146"/>
<path d="M89.5073 255.694L101.084 269.666" stroke="white" stroke-width="2.34146"/>
<path d="M89.5682 270.82C98.1156 270.82 105.045 263.912 105.045 255.39C105.045 246.868 98.1156 239.96 89.5682 239.96C81.0208 239.96 74.0918 246.868 74.0918 255.39C74.0918 263.912 81.0208 270.82 89.5682 270.82Z" stroke="white" stroke-width="2.34146"/>
<path d="M89.507 258.428C91.0213 258.428 92.2489 257.204 92.2489 255.694C92.2489 254.184 91.0213 252.96 89.507 252.96C87.9927 252.96 86.7651 254.184 86.7651 255.694C86.7651 257.204 87.9927 258.428 89.507 258.428Z" fill="#026770"/>
<path d="M36.4363 276.47V283.456H32.0493V276.47H36.4363Z" fill="#026770"/>
<path d="M40.0312 269.667H43.8089V276.47H40.0312V269.667Z" fill="#026770"/>
<path d="M47.8306 262.498H52.766V269.666H47.8306V262.498Z" fill="#026770"/>
<path d="M58.189 258.428H62.2104V262.498H58.189V258.428Z" fill="#026770"/>
<path d="M122.471 254.236H126.127V258.428H122.471V254.236Z" fill="#026770"/>
<path d="M130.331 164.146V188.445H25.835V164.146H26.0178L78.1744 106.86L130.331 164.146Z" fill="#026770"/>
<path d="M105.045 219.123H93.4678V197.254H105.045V219.123Z" fill="white" stroke="#026770" stroke-width="1.17073"/>
<path d="M99.2559 197.254V219.123V197.254Z" fill="#A5A4A4"/>
<path d="M99.2559 197.254V219.123" stroke="#026770" stroke-width="1.17073"/>
<path d="M93.4678 203.025H105.045H93.4678Z" fill="white"/>
<path d="M93.4678 203.025H105.045" stroke="#026770" stroke-width="1.17073"/>
<path d="M93.4678 213.231H105.045H93.4678Z" fill="white"/>
<path d="M93.4678 213.231H105.045" stroke="#026770" stroke-width="1.17073"/>
<path d="M56.1168 219.123H44.54V197.254H56.1168V219.123Z" fill="white" stroke="#026770" stroke-width="1.17073"/>
<path d="M50.3286 197.254V219.123V197.254Z" fill="white"/>
<path d="M50.3286 197.254V219.123" stroke="#026770" stroke-width="1.17073"/>
<path d="M44.54 203.025H56.1168H44.54Z" fill="#A5A4A4"/>
<path d="M44.54 203.025H56.1169" stroke="#026770" stroke-width="1.17073"/>
<path d="M44.54 213.231H56.1168H44.54Z" fill="#A5A4A4"/>
<path d="M44.54 213.231H56.1169" stroke="#026770" stroke-width="1.17073"/>
<path d="M83.9626 180.487H72.3857V158.618H83.9626V180.487Z" fill="white" stroke="#026770" stroke-width="1.17073"/>
<path d="M78.1743 158.618V180.487V158.618Z" fill="#A5A4A4"/>
<path d="M78.1743 158.618V180.487" stroke="#026770" stroke-width="1.17073"/>
<path d="M72.3857 164.389H83.9626H72.3857Z" fill="#A5A4A4"/>
<path d="M72.3857 164.389H83.9626" stroke="#026770" stroke-width="1.17073"/>
<path d="M72.3857 174.534H83.9626H72.3857Z" fill="#A5A4A4"/>
<path d="M72.3857 174.534H83.9626" stroke="#026770" stroke-width="1.17073"/>
<path d="M17.3043 243.301H8.53027V226.778H17.3043V243.301Z" fill="white" stroke="#026770" stroke-width="1.17073"/>
<path d="M12.9175 226.778V243.301V226.778Z" fill="white"/>
<path d="M12.9175 226.778V243.301" stroke="#026770" stroke-width="1.17073"/>
<path d="M8.53027 231.151H17.3043H8.53027Z" fill="white"/>
<path d="M8.53027 231.151H17.3043" stroke="#026770" stroke-width="1.17073"/>
<path d="M8.53027 238.806H17.3043H8.53027Z" fill="white"/>
<path d="M8.53027 238.806H17.3043" stroke="#026770" stroke-width="1.17073"/>
<path d="M728.535 244.131H758.086V287.141H728.535V244.131Z" fill="#026770"/>
<path d="M757.842 244.131H787.393V287.141H757.842V244.131Z" fill="#026770"/>
<path opacity="0.2" d="M782.58 254.823H733.104V247.412H782.58V254.823Z" fill="#026770"/>
<path d="M687.529 207.378C687.611 207.378 687.712 207.378 687.834 207.378C688.931 207.378 689.845 208.228 689.845 209.2C689.845 210.233 688.931 211.084 687.773 211.023C687.692 211.023 687.611 211.023 687.529 211.023" stroke="#026770" stroke-width="1.17073"/>
<path d="M692.159 211.023C692.078 211.023 691.976 211.023 691.854 211.023C690.758 211.023 689.844 210.233 689.844 209.201C689.844 208.168 690.758 207.317 691.915 207.378C691.997 207.378 692.078 207.378 692.159 207.378" stroke="#026770" stroke-width="1.17073"/>
<path d="M694.536 230.584H697.826V239.514H695.084C695.937 236.477 694.475 230.766 694.536 230.584Z" fill="#026770"/>
<path d="M604.419 190.915C612.828 195.835 627.512 172.872 628.548 183.989C629.238 191.441 623.084 196.99 610.086 200.635C600.662 190.874 598.773 187.634 604.419 190.915Z" fill="#026770"/>
<path d="M605.454 187.938C608.379 193.406 613.335 194.357 620.321 190.793L618.554 199.116C597.168 200.088 601.128 179.737 605.454 187.938Z" fill="#026770"/>
<path d="M727.316 286.838H594V206.406H727.316V286.838Z" fill="#026770"/>
<path d="M719.944 176.7L727.438 206.406H594L601.494 176.7H719.944Z" fill="#026770"/>
<path d="M620.993 236.416H611.305V218.131H620.993V236.416Z" fill="white" stroke="#026770" stroke-width="1.17073"/>
<path d="M616.117 218.131V236.416V218.131Z" fill="white"/>
<path d="M616.117 218.131V236.416" stroke="#026770" stroke-width="1.17073"/>
<path d="M611.305 222.99H620.993H611.305Z" fill="white"/>
<path d="M611.305 222.99H620.993" stroke="#026770" stroke-width="1.17073"/>
<path d="M611.305 231.495H620.993H611.305Z" fill="white"/>
<path d="M611.305 231.495H620.993" stroke="#026770" stroke-width="1.17073"/>
<path d="M647.375 236.416H637.688V218.131H647.375V236.416Z" fill="white" stroke="#026770" stroke-width="1.17073"/>
<path d="M642.562 218.131V236.416V218.131Z" fill="white"/>
<path d="M642.562 218.131V236.416" stroke="#026770" stroke-width="1.17073"/>
<path d="M637.688 222.99H647.375H637.688Z" fill="white"/>
<path d="M637.688 222.99H647.375" stroke="#026770" stroke-width="1.17073"/>
<path d="M637.688 231.495H647.375H637.688Z" fill="white"/>
<path d="M637.688 231.495H647.375" stroke="#026770" stroke-width="1.17073"/>
<path d="M620.993 264.057H611.305V245.832H620.993V264.057Z" fill="white" stroke="#026770" stroke-width="1.17073"/>
<path d="M616.117 245.832V264.057V245.832Z" fill="white"/>
<path d="M616.117 245.832V264.057" stroke="#026770" stroke-width="1.17073"/>
<path d="M611.305 250.631H620.993H611.305Z" fill="white"/>
<path d="M611.305 250.631H620.993" stroke="#026770" stroke-width="1.17073"/>
<path d="M611.305 259.136H620.993H611.305Z" fill="white"/>
<path d="M611.305 259.136H620.993" stroke="#026770" stroke-width="1.17073"/>
<path d="M647.375 264.057H637.688V245.832H647.375V264.057Z" fill="white" stroke="#026770" stroke-width="1.17073"/>
<path d="M642.562 245.832V264.057V245.832Z" fill="white"/>
<path d="M642.562 245.832V264.057" stroke="#026770" stroke-width="1.17073"/>
<path d="M637.688 250.631H647.375H637.688Z" fill="white"/>
<path d="M637.688 250.631H647.375" stroke="#026770" stroke-width="1.17073"/>
<path d="M637.688 259.136H647.375H637.688Z" fill="white"/>
<path d="M637.688 259.136H647.375" stroke="#026770" stroke-width="1.17073"/>
<path d="M699.836 236.416H690.148V218.131H699.836V236.416Z" fill="white" stroke="#026770" stroke-width="1.17073"/>
<path d="M695.023 218.131V236.416V218.131Z" fill="white"/>
<path d="M695.023 218.131V236.416" stroke="#026770" stroke-width="1.17073"/>
<path d="M690.148 222.99H699.836H690.148Z" fill="white"/>
<path d="M690.148 222.99H699.836" stroke="#026770" stroke-width="1.17073"/>
<path d="M690.148 231.495H699.836H690.148Z" fill="white"/>
<path d="M690.148 231.495H699.836" stroke="#026770" stroke-width="1.17073"/>
<path d="M727.438 218.86L757.721 172.934L788.003 218.86H727.438Z" fill="#026770"/>
<path d="M726.586 218.859H788.004V286.959H784.47C784.592 285.501 784.653 284.022 784.653 282.524C784.653 263.51 772.589 248.14 757.721 248.14C742.793 248.14 730.729 263.51 730.729 282.524C730.729 284.022 730.81 285.501 730.973 286.959H726.586" fill="#026770"/>
<path d="M728.474 286.23V286.533C728.474 286.452 728.474 286.371 728.474 286.29C728.312 284.752 728.23 283.192 728.23 281.613C728.413 260.776 741.635 243.949 757.843 244.131C774.05 244.252 787.09 261.323 786.907 282.16C786.907 283.739 786.825 285.278 786.663 286.776" stroke="#026770" stroke-width="1.17073"/>
<path d="M733.47 238.603C733.592 238.562 733.693 238.542 733.775 238.542C735.237 238.603 736.456 239.818 736.456 241.397C736.395 242.916 735.237 244.131 733.775 244.131C733.653 244.131 733.531 244.111 733.409 244.07" stroke="#026770" stroke-width="1.17073"/>
<path d="M739.381 244.131C739.259 244.131 739.158 244.131 739.076 244.131C737.614 244.131 736.395 242.855 736.456 241.336C736.456 239.757 737.614 238.542 739.076 238.542C739.198 238.542 739.32 238.562 739.442 238.603" stroke="#026770" stroke-width="1.17073"/>
<path d="M774.721 238.603C774.843 238.562 774.964 238.542 775.086 238.542C776.548 238.603 777.706 239.818 777.706 241.397C777.706 242.916 776.488 244.131 775.025 244.131C774.903 244.131 774.802 244.111 774.721 244.07" stroke="#026770" stroke-width="1.17073"/>
<path d="M780.63 244.131H780.691C780.651 244.131 780.63 244.131 780.63 244.131ZM780.63 244.131C780.549 244.131 780.448 244.131 780.326 244.131C778.864 244.131 777.706 242.855 777.706 241.336C777.706 239.757 778.864 238.542 780.326 238.542C780.448 238.542 780.569 238.562 780.691 238.603" stroke="#026770" stroke-width="1.17073"/>
<path d="M754.796 249.112L754.369 243.28H761.133L760.767 249.112H754.796Z" fill="#026770"/>
<path d="M783.494 273.715H787.759V287.202H784.225C785.322 282.585 783.433 274.019 783.494 273.715Z" fill="#026770"/>
<path d="M788.003 222.99H727.438V218.859H788.003V222.99Z" fill="#026770"/>
<path d="M727.438 210.537H594V206.406H727.438V210.537Z" fill="#026770"/>
<path d="M699.836 205.009H690.148V186.784H699.836V205.009Z" fill="white" stroke="#026770" stroke-width="1.17073"/>
<path d="M695.023 186.784V205.009V186.784Z" fill="white"/>
<path d="M695.023 186.784V205.009" stroke="#026770" stroke-width="1.17073"/>
<path d="M690.148 191.583H699.836H690.148Z" fill="white"/>
<path d="M690.148 191.583H699.836" stroke="#026770" stroke-width="1.17073"/>
<path d="M690.148 200.088H699.836H690.148Z" fill="white"/>
<path d="M690.148 200.088H699.836" stroke="#026770" stroke-width="1.17073"/>
<path d="M688.625 186.723L694.779 180.163L700.933 186.723H688.625Z" fill="#026770"/>
<path d="M757.72 172.934L760.767 177.55H754.674L757.72 172.934Z" fill="#026770"/>
<path d="M751.689 182.106H763.753L766.739 186.663H748.703L751.689 182.106Z" fill="#026770"/>
<path d="M772.649 195.533H772.405H742.854L745.778 191.037H747.728H767.53H769.602L772.649 195.533Z" fill="#026770"/>
<path d="M778.316 204.159H778.133H777.89H737.31H737.127L740.113 199.603H741.331H741.514H744.012H771.126H773.868H774.051H775.27L778.316 204.159Z" fill="#026770"/>
<path d="M784.042 212.785H783.921H783.738H783.372H731.642H731.459H731.398L734.384 208.29H735.298H736.821H737.004H740.233H774.781H778.315H778.498H780.082H780.996L784.042 212.785Z" fill="#026770"/>
<path d="M787.76 235.809L823.038 249.477V286.777H787.76V235.809Z" fill="#026770"/>
<path d="M823.282 287.202H787.028V273.715H823.282V287.202Z" fill="#026770"/>
<path d="M787.211 235.201L823.218 249.612" stroke="#026770" stroke-width="2.34146"/>
<path d="M726.28 273.473H731.886C730.667 277.361 730.403 281.917 731.094 287.141H726.28V273.473Z" fill="#026770"/>
<path d="M727.195 273.473V287.141H594V273.473H727.195Z" fill="#026770"/>
</svg>
