<svg width="103" height="206" viewBox="0 0 103 206" fill="none" xmlns="http://www.w3.org/2000/svg">
<path d="M174.92 121.308C164.697 161.041 124.192 184.937 84.46 174.714C44.7277 164.465 20.8317 123.961 31.0802 84.2283C41.303 44.4961 81.8077 20.6001 121.54 30.8486C161.272 41.0713 185.168 81.576 174.92 121.308ZM121.54 30.8486L128.776 2.72956L121.54 30.8486ZM108.768 28.7113L111.034 -0.231689L108.768 28.7113ZM95.8157 28.8401L93.009 -0.0514395L95.8157 28.8401ZM83.0953 31.2091L75.3187 3.24456L83.0953 31.2091ZM70.967 35.7411L58.4525 9.55331L70.967 35.7411ZM59.8172 42.3331L42.951 18.7203L59.8172 42.3331ZM49.9808 50.7533L29.252 30.4108L49.9808 50.7533ZM41.7408 60.7443L17.819 44.3158L41.7408 60.7443ZM35.3805 72.0228L8.961 59.9976L35.3805 72.0228ZM31.0802 84.2283L2.96125 76.9925L31.0802 84.2283ZM28.943 97.0003L0 94.76L28.943 97.0003ZM29.0717 109.953L0.18025 112.759L29.0717 109.953ZM31.4407 122.673L3.47625 130.45L31.4407 122.673ZM35.9727 134.801L9.785 147.316L35.9727 134.801ZM42.5647 145.951L18.952 162.843L42.5647 145.951ZM50.985 155.788L30.6425 176.516L50.985 155.788ZM60.976 164.028L44.5475 187.949L60.976 164.028ZM72.2545 170.388L60.2292 196.807L72.2545 170.388ZM84.46 174.714L77.2242 202.807L84.46 174.714ZM97.232 176.825L94.966 205.768L97.232 176.825ZM110.184 176.697L112.991 205.614L110.184 176.697ZM122.905 174.328L130.681 202.318L122.905 174.328ZM135.033 169.796L147.547 195.983L135.033 169.796ZM146.183 163.204L163.049 186.842L146.183 163.204ZM156.019 154.783L176.748 175.126L156.019 154.783ZM164.259 144.792L188.181 161.221L164.259 144.792ZM170.619 133.514L197.039 145.539L170.619 133.514ZM174.92 121.308L203.039 128.57L174.92 121.308ZM177.057 108.536L206 110.802L177.057 108.536ZM176.928 95.584L205.82 92.7773L176.928 95.584ZM174.559 82.8635L202.524 75.087L174.559 82.8635ZM170.027 70.7353L196.215 58.2208L170.027 70.7353ZM163.435 59.5855L187.048 42.7193L163.435 59.5855ZM155.015 49.7491L175.357 29.0203L155.015 49.7491ZM145.024 41.5091L161.452 17.5873L145.024 41.5091ZM133.746 35.1488L145.771 8.72931L133.746 35.1488ZM89.7387 116.39L84.666 98.1848L97.9015 84.6918L116.21 89.404L121.282 107.609L108.047 121.102L89.7387 116.39ZM102.974 102.897L173.916 121.18L102.974 102.897ZM102.974 102.897L171.109 75.9883L102.974 102.897ZM102.974 102.897L142.269 41.0713L102.974 102.897ZM102.974 102.897L98.4422 29.7671L102.974 102.897ZM102.974 102.897L56.3152 46.4016L102.974 102.897ZM102.974 102.897L32.033 84.6145L102.974 102.897ZM102.974 102.897L34.814 129.806L102.974 102.897ZM102.974 102.897L63.654 164.723L102.974 102.897ZM102.974 102.897L107.506 176.027L102.974 102.897ZM102.974 102.897L149.607 159.393L102.974 102.897ZM103.257 164.079C68.804 164.079 40.9425 136.218 40.9425 101.764C40.9425 67.3106 68.804 39.4491 103.257 39.4491C137.711 39.4491 165.572 67.3106 165.572 101.764C165.572 136.218 137.711 164.079 103.257 164.079ZM102.974 114.021C96.82 114.021 91.8503 109.051 91.8503 102.897C91.8503 96.7428 96.82 91.7988 102.974 91.7988C109.103 91.7988 114.072 96.7428 114.072 102.897C114.072 109.051 109.103 114.021 102.974 114.021Z" stroke="#026770" stroke-width="2"/>
</svg>
