<?xml version="1.0" encoding="UTF-8"?><svg xmlns="http://www.w3.org/2000/svg" data-name="Calque 1" viewBox="0 0 955 372"><path d="M942.8 113.26c-8.13-22.46-19.36-41.82-33.68-58.09-14.32-16.6-31.4-29.45-51.24-38.57-19.52-9.44-41-14.16-64.42-14.16S747.42 7 727.57 16.11c-16 7.2-30.24 16.92-42.75 29.15V19.04c0-3.25-1.14-6.02-3.42-8.3-2.28-2.28-5.04-3.42-8.3-3.42H431.52c-3.58 0-6.51 1.14-8.79 3.42-1.95 2.28-2.93 5.04-2.93 8.3v2.49c-6.5-4.22-13.75-7.98-21.77-11.28C381.44 3.42 361.26 0 337.51 0c-19.52 0-36.44 3.58-50.76 10.74-7.85 3.75-15.09 8.05-21.76 12.87v-4.57c0-3.25-1.14-6.02-3.42-8.3-2.28-2.28-5.04-3.42-8.3-3.42H11.71c-3.58 0-6.51 1.14-8.78 3.42C.98 13.02 0 15.78 0 19.04v66.88c0 3.25.98 6.02 2.93 8.3 2.28 2.28 5.21 3.42 8.78 3.42h130.31c3.25 0 5.37.98 6.34 2.93 1.3 1.95 1.14 4.39-.49 7.32L5.86 354.91c-1.63 2.6-1.95 5.05-.98 7.32.98 1.95 3.25 2.93 6.83 2.93h87.85c3.25 0 6.51-.98 9.76-2.93 3.25-2.28 5.69-4.72 7.32-7.32l128.81-229.89 33.02 7.28c6.83.98 11.39-2.11 13.67-9.27.98-3.26 2.44-6.84 4.39-10.74 2.28-3.9 5.21-7.48 8.79-10.74 3.58-3.25 7.97-6.02 13.18-8.3s11.55-3.42 19.03-3.42c22.12 0 34 8.62 35.63 25.87.65 6.83-.81 12.85-4.39 18.06-3.58 5.21-7.81 9.11-12.69 11.72-9.11 4.56-18.87 7.32-29.28 8.3-10.09.98-18.55 1.3-25.38.98-3.58 0-6.51 1.14-8.79 3.42-1.95 1.95-2.93 4.56-2.93 7.81V207c0 3.25.98 5.86 2.93 7.81 2.28 1.95 5.04 2.77 8.3 2.44 5.86-.65 12.85-.98 20.99-.98s15.78 1.3 22.94 3.9c7.16 2.28 13.18 6.18 18.06 11.72 5.21 5.53 7.81 13.51 7.81 23.92 0 5.86-2.77 11.72-8.3 17.58-5.53 5.53-13.83 8.3-24.89 8.3-7.48 0-13.99-1.14-19.52-3.42-5.21-2.6-9.6-5.53-13.18-8.79-3.58-3.58-6.34-7.32-8.3-11.23-1.95-4.23-3.42-8.14-4.39-11.72-.98-2.93-2.77-5.21-5.37-6.83-2.28-1.95-5.04-2.6-8.3-1.95l-62.47 14.16c-3.25.65-5.69 2.28-7.32 4.88-1.3 2.6-1.46 5.53-.49 8.79 3.9 10.41 9.11 21.81 15.62 34.17 6.51 12.37 14.8 23.92 24.89 34.66 10.41 10.41 22.94 19.2 37.58 26.36 14.64 6.83 31.72 10.25 51.24 10.25 8.13 0 16.92-.65 26.35-1.95 9.76-1.3 19.36-3.58 28.79-6.84 9.44-3.25 18.55-7.65 27.33-13.18 6.19-3.98 11.92-8.73 17.21-14.21l-11.54 20.07c-1.63 2.6-1.95 5.05-.98 7.32.98 1.95 3.25 2.93 6.83 2.93h87.85c3.25 0 6.51-.98 9.76-2.93 3.25-2.28 5.69-4.72 7.32-7.32l95.48-170.4c0 .82-.02 1.64-.02 2.47 0 24.41 3.42 47.52 10.25 69.32 7.16 21.81 17.57 41.01 31.23 57.61 14.64 18.55 32.21 32.87 52.71 42.96 20.5 10.09 42.95 15.13 67.35 15.13s45.39-4.88 65.89-14.65c20.5-10.09 38.23-24.57 53.2-43.45 13.67-16.6 24.08-35.8 31.23-57.61 7.48-21.81 11.22-44.91 11.22-69.32 0-26.69-4.07-51.26-12.2-73.72Zm-375.11-5.37L463.31 289.44c.04-.14.09-.29.13-.43 1.63-5.86 2.6-11.23 2.93-16.11.65-5.21.98-9.6.98-13.18 0-9.76-1.3-18.39-3.9-25.87-2.6-7.81-6.02-14.65-10.25-20.5-3.9-5.86-8.3-10.74-13.18-14.65-4.88-4.23-9.76-7.49-14.64-9.76-6.18-2.93-6.18-5.7 0-8.3 4.88-1.95 9.76-4.56 14.64-7.81 4.88-3.58 9.27-8.14 13.18-13.67 4.23-5.53 7.65-12.2 10.25-20.02 2.6-7.81 3.9-17.09 3.9-27.83 0-4.54-.3-9.09-.89-13.67h95.38c3.25 0 5.37.98 6.34 2.93 1.3 1.95 1.14 4.39-.49 7.32Z"/></svg>