<?xml version="1.0" encoding="UTF-8"?>
<svg id="Calque_1" data-name="Calque 1" xmlns="http://www.w3.org/2000/svg" viewBox="0 0 1730 1394.68" width="100%" height="auto">
  <path d="M1530.06,0h-36.46c147.55,208.42,224.32,463.72,203.79,661.58-28.17,271.17-189.71,465.26-418.78,569.42-252.13,114.65-586.06,120.35-913.98,0-26.22-9.62-52.4-20.05-78.5-31.29-83.85-43.16-166.41-88.69-244-143.57-14.31-10.12-24.71-18.25-38.19-29-1.32-1.05-2.63-2.11-3.94-3.17v13.86c20.94,17.15,42.27,33.46,63.94,48.64,1.18.82,2.46,1.57,3.65,2.39l85.53,63.98c46.45,23.42,89.11,55.88,136.39,78.16,7.23,3.41,14.56,6.58,22.04,9.44,413.43,220.11,843.6,193.55,1119.93-9.44,125.75-92.37,219.64-221.28,265.6-380.11,18.56-64.16,29.4-129.18,32.92-194.58v-95.18c-10.08-189.64-79.8-380.52-199.94-561.13Z" style="fill: #2eadc3;"/>
</svg>