<svg width="311" height="161" viewBox="0 0 311 161" fill="none" xmlns="http://www.w3.org/2000/svg">
<g clip-path="url(#clip0_93_59)">
<path d="M209.51 161C209.734 160.432 209.891 160.062 210.034 159.693C211.831 155.033 211.682 150.598 208.523 146.52C206.834 144.344 204.669 142.749 202.266 141.463C198.405 139.396 194.273 138.205 189.929 137.678C178.246 136.262 166.516 136.289 154.778 136.392C153.716 136.399 152.661 136.583 151.599 136.611C150.809 136.631 149.951 136.611 149.577 135.708C149.202 134.797 149.495 133.983 150.128 133.292C151.401 131.903 153.056 131.095 154.785 130.507C158.856 129.131 162.628 127.112 166.359 125.018C166.679 124.841 166.931 124.539 167.217 124.293L167.088 124.033C166.543 124.108 165.998 124.17 165.454 124.266C159.326 125.374 153.206 126.538 147.065 127.578C144.226 128.057 141.332 128.228 138.486 128.673C136.505 128.987 134.551 129.501 132.604 130C130.786 130.466 129.193 131.417 127.736 132.601C127.402 132.874 127.089 133.196 126.831 133.538C126.082 134.537 126.157 135.605 127.232 136.221C128.424 136.898 129.717 137.507 131.045 137.802C136.117 138.931 141.216 139.909 146.302 140.977C148.406 141.422 150.36 142.236 152.055 143.591C153.927 145.09 154.2 146.965 152.845 148.942C151.517 150.879 149.665 152.138 147.5 152.959C143.524 154.465 139.365 155.149 135.184 155.738C128.008 156.75 120.792 157.318 113.555 157.558C106.808 157.784 100.054 157.838 93.3068 158.051C88.9836 158.181 84.6604 158.489 80.3371 158.619C79.6699 158.639 78.9823 158.153 78.3083 157.9C78.3355 157.791 78.3628 157.681 78.39 157.578C78.9278 157.619 79.4657 157.715 80.0035 157.702C83.7004 157.592 87.4041 157.551 91.101 157.305C95.8803 156.983 100.646 156.531 105.419 156.066C110.13 155.601 114.834 155.074 119.539 154.526C123.672 154.04 127.804 153.534 131.93 152.952C135.109 152.501 138.268 151.837 141.216 150.503C142.483 149.928 143.722 149.161 144.777 148.251C146.152 147.06 146.064 145.685 144.729 144.433C143.266 143.064 141.468 142.215 139.589 141.654C136.362 140.683 133.074 139.937 129.84 138.992C127.94 138.438 126.034 137.815 124.264 136.953C121.949 135.817 121.255 134.353 123.569 131.821C125.237 129.993 127.518 129.138 129.785 128.344C133.898 126.907 138.153 126.25 142.483 125.86C147.037 125.456 151.565 124.847 156.106 124.314C161.212 123.718 166.291 122.801 171.465 123.109C171.785 123.13 172.105 123.15 172.514 123.178C170.485 124.266 168.545 125.272 166.645 126.346C163.969 127.865 161.301 129.412 158.679 131.02C157.76 131.581 156.971 132.361 156.167 133.093C155.983 133.258 155.888 133.634 155.929 133.887C155.949 134.004 156.378 134.12 156.63 134.127C162.724 134.25 168.824 134.318 174.917 134.489C179.785 134.626 184.666 134.715 189.514 135.14C195.927 135.694 202.293 136.7 208.121 139.677C212.369 141.846 215.113 145.459 216.645 149.935C217.632 152.816 216.876 155.443 214.786 157.654C213.363 159.152 211.648 160.199 209.523 161.007L209.51 161Z" fill="#E6E6E6"/>
<path d="M189.235 62.15C188.343 62.7112 187.546 63.2244 186.729 63.724C186.586 63.8129 186.355 63.8813 186.212 63.8334C184.905 63.3818 184.074 64.073 183.346 65.0036C183.128 65.2842 182.93 65.5853 182.774 65.9001C182.454 66.5297 182.1 66.386 181.827 65.9206C181.569 65.4758 181.412 64.9763 181.228 64.4904C178.131 56.347 175.026 48.2036 171.949 40.0465C171.738 39.4785 171.479 39.369 170.927 39.4853C164.664 40.7924 158.346 41.7573 151.973 42.3732C146.52 42.9001 141.06 43.167 135.593 42.5785C135.246 42.5443 134.898 42.469 134.449 42.4005V36.967C136.553 37.056 138.67 37.145 140.781 37.2339C148.835 37.5898 156.889 37.8361 164.95 37.5145C167.612 37.4118 170.274 37.2202 172.929 36.9944C173.569 36.9397 173.767 37.1723 173.984 37.6787C175.993 42.3526 178.103 46.9786 180.82 51.283C181.916 53.028 183.223 54.6636 184.598 56.2033C185.688 57.4214 185.858 57.3324 186.947 56.1143C189.991 52.7269 192.217 48.8263 194.11 44.7067C194.545 43.7623 194.906 42.7838 195.369 41.8599C195.492 41.6204 195.866 41.3467 196.118 41.3535C201.503 41.5041 206.895 41.6957 212.281 41.8805C214.922 41.9694 217.557 42.0789 220.199 42.1268C220.825 42.1405 220.968 42.3595 221.118 42.948C221.506 44.5014 221.982 46.0411 222.52 47.5466C222.806 48.3473 223.46 48.6552 224.386 48.6963C231.078 48.97 237.764 49.3122 244.45 49.6338C245.593 49.6886 246.758 49.9144 247.867 49.7501C248.78 49.6133 249.631 49.0179 250.57 48.6005C250.938 49.4285 251.36 50.4208 251.816 51.3994C253.137 54.2256 254.492 57.0313 256.473 59.4675C256.779 59.8507 257.092 60.2681 257.494 60.5145C258.134 60.9046 258.175 61.3904 258.052 62.0405C257.923 62.7591 257.896 63.4913 257.801 64.4288C254.505 60.8567 252.109 56.9355 250.264 52.4532C247.697 56.1827 245.226 59.8028 243.326 63.7992C243.884 59.5154 245.226 55.5737 248.289 52.3369H226.68C226.735 52.419 226.789 52.5353 226.871 52.6243C229.029 54.9989 231.412 57.1134 234.094 58.8721C234.632 59.228 234.904 59.5838 234.83 60.2476C234.761 60.8361 234.816 61.4315 234.816 62.2458C233.808 61.5478 232.95 60.9867 232.133 60.3776C228.573 57.7088 225.353 54.6841 223.106 50.7766C222.255 49.2985 221.676 47.663 221.056 46.0617C220.859 45.5484 220.655 45.3363 220.11 45.2952C215.903 45.0078 211.695 44.652 207.488 44.3988C204.744 44.2345 201.993 44.1866 199.25 44.1182C198.569 44.0977 197.895 44.2071 197.214 44.2277C196.669 44.2414 196.533 44.4467 196.629 45.001C197.057 47.5603 198.371 49.6338 200.087 51.4815C202.906 54.5199 206.419 56.5318 210.143 58.2152C210.953 58.5847 212.056 58.7626 212.471 59.3991C212.873 60.0081 212.553 61.0893 212.553 61.9653C212.553 62.5332 212.553 63.1012 212.553 63.8677C203.634 60.5077 197.309 54.9099 194.92 45.2815C192.809 50.1744 190.991 55.081 187.22 58.9132C187.866 59.9602 188.527 61.0209 189.235 62.1637V62.15Z" fill="#E6E6E6"/>
<path d="M104.084 47.047C100.108 49.2984 96.5339 51.8235 94.4506 55.9842C93.763 57.3529 93.5315 58.831 93.5655 60.3502C92.5443 57.0175 94.2872 52.7679 99.1551 46.8485C98.7534 46.8485 98.447 46.8485 98.1407 46.8485C89.8346 46.787 81.5286 46.7733 73.2225 46.6296C68.7087 46.5543 64.1948 46.2669 59.681 46.0342C58.9185 45.9931 58.4487 46.2327 57.9721 46.8349C54.711 50.9476 51.2864 54.9167 47.2015 58.2493C46.5887 58.7489 45.9352 59.18 45.1522 59.7548C45.0637 58.7078 44.9684 57.8045 44.9275 56.9012C44.9207 56.7301 45.125 56.5317 45.2679 56.3743C49.0329 52.3436 52.8115 48.3335 56.556 44.2823C57.1687 43.6185 57.8768 43.2353 58.7346 43.1327C59.681 43.0232 60.6341 42.9137 61.5805 42.9205C74.4072 42.9958 87.2339 43.0916 100.061 43.1874C101.286 43.1943 102.512 43.2627 103.737 43.2216C104.35 43.2011 104.615 43.4201 104.888 43.9676C106.222 46.6911 107.55 49.4147 109.02 52.0631C109.687 53.2675 110.641 54.3213 111.526 55.3957C111.914 55.8679 112.458 56.21 113.051 56.7164C113.493 55.731 113.895 54.8756 114.256 53.9997C116.257 49.0863 117.544 44.0018 117.129 38.6572C116.925 36.0568 116.271 33.4906 115.788 30.9176C115.522 29.5284 115.182 28.1461 114.868 26.7637C114.787 26.709 114.705 26.6474 114.623 26.5927C114.188 27.1812 113.759 27.7697 113.323 28.3582C113.241 28.3035 113.16 28.2556 113.078 28.2008C112.635 26.8595 112.179 25.5183 111.764 24.1702C111.696 23.958 111.723 23.6569 111.825 23.4585C112.295 22.5689 112.69 21.6108 113.323 20.8512C117.068 16.2936 120.342 11.4418 122.65 5.98094C123.454 4.08538 124.019 2.12138 124.141 0.0136719C124.311 0.732208 124.468 1.45074 124.645 2.16928C126.143 8.21183 128.662 13.7274 133.012 18.2713C133.557 18.8393 134.136 19.3868 134.749 19.8863C135.15 20.208 135.327 20.5364 135.266 21.0634C135.082 22.7673 134.939 24.4781 134.762 26.4079C128.689 21.5766 125.714 15.144 123.944 7.84914C123.386 9.3957 122.936 10.8259 122.364 12.2014C121.132 15.1508 119.859 18.0797 118.559 20.9949C118.239 21.7135 117.803 22.4046 117.285 22.9931C116.782 23.5611 116.775 24.1086 116.87 24.7929C117.551 29.6447 118.15 34.5102 117.878 39.4305C117.633 43.7486 117.306 48.0598 116.965 52.3642C116.605 56.8875 115.679 61.3082 113.82 65.4552C113.16 66.9265 112.091 68.2062 111.172 69.5543C110.981 69.8349 110.647 70.0059 110.259 70.3344C110.157 69.2874 110.096 68.3704 109.967 67.4671C109.83 66.4954 109.565 65.5442 109.463 64.5656C109.367 63.5939 109.286 62.5947 109.429 61.6367C109.524 61.0277 110.028 60.4734 110.416 59.789C107.945 55.9158 105.31 51.9262 104.091 47.0538L104.084 47.047Z" fill="#E6E6E6"/>
</g>
<defs>
<clipPath id="clip0_93_59">
<rect width="311" height="161" fill="white"/>
</clipPath>
</defs>
</svg>
