<svg width="179" height="92" viewBox="0 0 179 92" fill="none" xmlns="http://www.w3.org/2000/svg">
<g clip-path="url(#clip0_89_59)">
<path d="M16.9752 67.036C12.3317 67.0751 8.72663 66.2031 5.62313 63.7552C2.95459 61.6475 1.44202 58.8202 0.662226 55.5707C0.168487 53.5138 -0.156754 51.4179 0.0744414 49.2984C0.775864 42.8775 4.09881 38.4392 10.2745 36.3276C14.6123 34.8417 18.9893 34.6931 23.3233 36.441C28.3194 38.451 31.2427 42.1971 32.5319 47.3432C33.68 51.9379 33.0923 56.2511 30.4903 60.2319C28.3077 63.5753 25.118 65.507 21.2778 66.3751C19.6202 66.7505 17.9157 66.903 16.9713 67.0438L16.9752 67.036ZM7.01814 51.5156C7.06124 52.0435 7.08867 52.5753 7.14745 53.1032C7.37081 55.1797 7.79793 57.2052 8.73839 59.0901C10.6193 62.8558 14.1225 64.5685 18.237 63.7317C21.0623 63.1569 22.9941 61.4402 24.2363 58.9258C25.8586 55.6411 26.3523 52.1921 25.6274 48.5789C25.1533 46.2092 24.4362 43.949 22.9197 42.0172C21.4776 40.1833 19.6281 38.9398 17.2809 38.7208C14.8396 38.494 12.7001 39.3777 10.9994 41.1179C8.18587 43.9959 7.30027 47.6443 7.02205 51.5117L7.01814 51.5156Z" fill="#242021"/>
<path d="M71.216 35.964C71.4041 35.9522 71.5217 35.9327 71.6392 35.9327C73.7709 35.9522 75.9026 35.9718 78.0304 35.9913C78.6103 35.9952 78.9121 36.1829 79.0806 36.7304C79.1864 37.0823 79.2373 37.4656 79.2491 37.837C79.3078 39.7297 79.3274 41.6184 79.398 43.511C79.4176 44.035 79.4998 44.5747 79.6644 45.0713C80.213 46.6941 81.8079 47.4957 83.4615 47.0265C85.7656 46.3695 88.1207 46.0567 90.5149 46.1271C93.7556 46.2249 95.997 47.832 97.3411 50.7335C98.0542 52.2742 98.3481 53.9244 98.3638 55.6059C98.3952 59.0471 98.3795 62.4843 98.3795 65.9254C98.3795 66.0193 98.3677 66.1092 98.3599 66.2305H93.2932C93.2932 66.0467 93.2932 65.8824 93.2932 65.7143C93.2932 62.5547 93.3128 59.3951 93.2854 56.2394C93.2697 54.4562 92.8034 52.7787 91.8825 51.2458C90.8794 49.5761 89.4099 48.5867 87.4585 48.3443C86.0674 48.1722 84.7076 48.3052 83.4027 48.8409C81.0242 49.8185 79.6252 51.9888 79.5704 54.8356C79.5038 58.4449 79.5547 62.0581 79.5547 65.6713C79.5547 65.8433 79.5547 66.0154 79.5547 66.2226H74.3038C74.3038 66.0467 74.3038 65.8824 74.3038 65.7143C74.3038 57.2405 74.3038 48.7627 74.3117 40.2889C74.3117 39.9369 74.2176 39.671 73.9982 39.4012C73.0773 38.2789 72.1721 37.1449 71.2199 35.964H71.216Z" fill="#252122"/>
<path d="M66.7057 66.4651H61.063C61.063 66.1913 61.0669 65.9254 61.063 65.6634C60.9963 62.3983 60.9336 59.1292 60.8553 55.864C60.8083 54.0183 60.3615 52.2781 59.3192 50.7257C57.6656 48.2622 54.4171 47.3823 51.4546 48.5789C48.9389 49.5917 47.3637 51.981 47.3558 54.8121C47.348 58.1594 47.3558 61.5028 47.3558 64.8501C47.3558 65.5188 46.6387 66.3751 45.9687 66.383C43.641 66.4103 41.3095 66.3947 38.9074 66.3947C39.6088 65.2489 40.2789 64.1697 41.3095 63.3602C41.4388 63.2585 41.5524 63.0435 41.5564 62.8792C41.5955 58.6873 41.623 54.4992 41.6386 50.3073C41.6386 50.0961 41.5446 49.8498 41.4192 49.6777C40.5924 48.5789 39.746 47.4957 38.8329 46.3148C39.0681 46.3148 39.213 46.3148 39.3541 46.3148C41.4388 46.3382 43.5235 46.35 45.6042 46.3969C45.8668 46.4047 46.1803 46.5299 46.3801 46.7019C47.1011 47.3237 47.9946 47.4605 48.8606 47.0421C50.6513 46.1857 52.5753 45.8534 54.5268 45.6461C56.3019 45.4584 58.0653 45.4623 59.7777 46.0411C63.418 47.2728 65.4949 49.8967 66.3569 53.5373C66.5881 54.5149 66.6822 55.5472 66.6939 56.5522C66.737 59.6805 66.7096 62.8049 66.7096 65.9333C66.7096 66.1014 66.7096 66.2735 66.7096 66.4573L66.7057 66.4651Z" fill="#242021"/>
<path d="M131.166 46.6237C132.483 46.5729 133.721 46.5103 134.955 46.4947C135.1 46.4947 135.308 46.7019 135.382 46.8622C136.801 49.9906 138.2 53.1306 139.607 56.2668C139.689 56.4505 139.771 56.6422 139.885 56.8064C140.99 58.3745 142.35 58.6286 144.011 57.4829C144.995 56.8064 145.492 55.774 145.857 54.6713C146.691 52.1335 147.526 49.5995 148.365 47.0617C148.404 46.9444 148.447 46.827 148.51 46.6511H152.154C152.111 46.7762 152.06 46.9326 152.005 47.0851C149.086 54.8473 146.174 62.6094 143.231 70.3637C142.373 72.62 140.649 74.0825 138.525 75.1149C137.001 75.8539 135.375 76.2724 133.697 76.3975C133.106 76.4405 132.491 76.1981 131.766 76.0651C132.526 75.197 133.345 74.7004 134.246 74.3289C135.23 73.9222 136.1 73.3435 136.852 72.6005C138.631 70.8447 139.136 68.7957 138.282 66.426C135.966 59.9895 133.654 53.5529 131.338 47.1164C131.288 46.9717 131.237 46.831 131.166 46.6276V46.6237Z" fill="#242021"/>
<path d="M120.586 92C120.715 91.6754 120.805 91.4643 120.888 91.2531C121.922 88.5901 121.836 86.0562 120.018 83.7256C119.046 82.4821 117.8 81.571 116.417 80.8358C114.195 79.6549 111.816 78.9745 109.316 78.6734C102.592 77.8639 95.8403 77.8795 89.0847 77.9382C88.4734 77.9421 87.866 78.0477 87.2547 78.0633C86.8001 78.0751 86.3064 78.0633 86.0909 77.5472C85.8754 77.0271 86.0439 76.5617 86.4083 76.1668C87.1411 75.373 88.0933 74.9116 89.0886 74.5753C91.4319 73.7893 93.6028 72.6357 95.7501 71.4391C95.9343 71.3374 96.0793 71.1654 96.2439 71.0246L96.1694 70.876C95.8559 70.919 95.5425 70.9542 95.229 71.009C91.7023 71.6425 88.1795 72.3072 84.6449 72.9016C83.0109 73.1753 81.3455 73.2731 79.7075 73.5273C78.5672 73.7071 77.4426 74.0004 76.3219 74.2859C75.2756 74.5518 74.3587 75.0953 73.5201 75.7718C73.3281 75.9283 73.1479 76.112 72.999 76.3076C72.5679 76.8785 72.611 77.4885 73.2302 77.8404C73.9159 78.2276 74.6604 78.5756 75.4245 78.7437C78.3439 79.389 81.2789 79.9481 84.2061 80.5582C85.4169 80.8123 86.5415 81.2777 87.5172 82.0519C88.5948 82.9083 88.7516 83.9798 87.9718 85.1099C87.2077 86.2165 86.1418 86.936 84.8957 87.4053C82.6073 88.2656 80.213 88.6566 77.807 88.9929C73.6769 89.5716 69.5232 89.8962 65.3578 90.0331C61.4745 90.1621 57.5872 90.1934 53.7039 90.3146C51.2157 90.3889 48.7274 90.5649 46.2391 90.6392C45.8551 90.6509 45.4593 90.3733 45.0714 90.2286C45.087 90.166 45.1027 90.1035 45.1184 90.0448C45.4279 90.0683 45.7375 90.123 46.0471 90.1152C48.1749 90.0526 50.3066 90.0292 52.4343 89.8884C55.1852 89.7046 57.9282 89.4465 60.6751 89.1806C63.3867 88.9147 66.0944 88.6136 68.8022 88.3008C71.1807 88.0231 73.5593 87.7338 75.934 87.4014C77.7639 87.1433 79.5821 86.764 81.2789 86.0014C82.0077 85.673 82.7209 85.235 83.3283 84.7149C84.1198 84.0345 84.0689 83.2485 83.3009 82.5329C82.4584 81.7508 81.4239 81.266 80.3423 80.9453C78.4849 80.39 76.5923 79.9638 74.731 79.4242C73.6377 79.1074 72.5405 78.7516 71.5217 78.2589C70.1893 77.6097 69.7897 76.7729 71.122 75.3261C72.082 74.282 73.3947 73.7932 74.6996 73.3396C77.0664 72.5184 79.5155 72.143 82.0077 71.9201C84.6293 71.6894 87.2351 71.3414 89.8488 71.0363C92.7877 70.6961 95.711 70.1721 98.6891 70.3481C98.8732 70.3598 99.0574 70.3716 99.2925 70.3872C98.1248 71.009 97.008 71.5838 95.9147 72.1977C94.3747 73.0658 92.8386 73.9496 91.33 74.8685C90.801 75.1892 90.3464 75.635 89.8841 76.0534C89.7783 76.1472 89.7234 76.3623 89.7469 76.507C89.7587 76.5735 90.0055 76.6399 90.1505 76.6439C93.6576 76.7142 97.1687 76.7533 100.676 76.8511C103.478 76.9293 106.287 76.9802 109.077 77.2226C112.768 77.5393 116.432 78.1142 119.787 79.8152C122.232 81.0548 123.811 83.1195 124.693 85.6769C125.261 87.3232 124.826 88.8248 123.623 90.0878C122.804 90.9442 121.816 91.5425 120.594 92.0039L120.586 92Z" fill="#F58923"/>
<path d="M108.916 35.5143C108.403 35.8349 107.945 36.1282 107.474 36.4137C107.392 36.4645 107.259 36.5036 107.177 36.4762C106.424 36.2181 105.946 36.6131 105.527 37.1449C105.402 37.3052 105.288 37.4773 105.198 37.6572C105.014 38.0169 104.81 37.9348 104.653 37.6689C104.504 37.4147 104.414 37.1293 104.308 36.8516C102.525 32.1982 100.738 27.5449 98.9672 22.8837C98.8458 22.5591 98.6969 22.4965 98.3795 22.563C94.7744 23.3099 91.1379 23.8613 87.4702 24.2132C84.3314 24.5143 81.1887 24.6668 78.0421 24.3305C77.8423 24.311 77.6424 24.268 77.3838 24.2289V21.124C78.5946 21.1748 79.8133 21.2257 81.0281 21.2765C85.6637 21.4798 90.2994 21.6206 94.939 21.4368C96.4711 21.3782 98.0033 21.2687 99.5315 21.1396C99.8999 21.1084 100.013 21.2413 100.139 21.5307C101.295 24.2015 102.51 26.8449 104.073 29.3046C104.704 30.3017 105.456 31.2363 106.248 32.1161C106.875 32.8122 106.973 32.7613 107.6 32.0653C109.351 30.1296 110.633 27.9007 111.722 25.5467C111.973 25.007 112.181 24.4478 112.447 23.9199C112.518 23.7831 112.733 23.6266 112.878 23.6306C115.978 23.7166 119.081 23.8261 122.181 23.9317C123.701 23.9825 125.218 24.0451 126.738 24.0724C127.099 24.0803 127.181 24.2054 127.267 24.5417C127.49 25.4293 127.765 26.3092 128.074 27.1695C128.239 27.627 128.615 27.803 129.148 27.8264C133 27.9828 136.848 28.1784 140.696 28.3621C141.354 28.3934 142.024 28.5225 142.663 28.4286C143.188 28.3504 143.678 28.0102 144.219 27.7717C144.43 28.2448 144.673 28.8118 144.936 29.371C145.696 30.986 146.476 32.5893 147.616 33.9814C147.793 34.2004 147.973 34.4389 148.204 34.5797C148.572 34.8026 148.596 35.0802 148.525 35.4517C148.451 35.8623 148.435 36.2807 148.38 36.8164C146.484 34.7752 145.104 32.5345 144.042 29.9732C142.565 32.1044 141.143 34.173 140.049 36.4567C140.371 34.0088 141.143 31.7564 142.906 29.9068H130.469C130.5 29.9537 130.531 30.0202 130.578 30.071C131.82 31.4279 133.192 32.6362 134.736 33.6412C135.045 33.8445 135.202 34.0479 135.159 34.4272C135.12 34.7635 135.151 35.1037 135.151 35.569C134.571 35.1702 134.078 34.8495 133.607 34.5015C131.558 32.9764 129.704 31.248 128.411 29.0152C127.922 28.1705 127.588 27.2359 127.232 26.3209C127.118 26.0276 127.001 25.9064 126.687 25.883C124.265 25.7187 121.844 25.5154 119.422 25.3707C117.843 25.2768 116.26 25.2495 114.681 25.2104C114.289 25.1986 113.901 25.2612 113.509 25.2729C113.196 25.2807 113.117 25.3981 113.172 25.7148C113.419 27.1773 114.175 28.3621 115.163 29.418C116.785 31.1542 118.807 32.3038 120.95 33.2658C121.417 33.4769 122.051 33.5786 122.291 33.9423C122.522 34.2903 122.338 34.9082 122.338 35.4087C122.338 35.7333 122.338 36.0578 122.338 36.4958C117.204 34.5758 113.564 31.3771 112.188 25.8751C110.974 28.6711 109.927 31.4748 107.757 33.6646C108.129 34.2629 108.509 34.869 108.916 35.5221V35.5143Z" fill="#F58923"/>
<path d="M125.28 66.3986C123.948 66.3986 122.663 66.4494 121.385 66.379C120.645 66.3399 119.92 66.0701 119.175 65.9645C118.407 65.8511 117.639 65.9254 116.926 66.2656C114.834 67.2628 112.631 67.1025 110.425 66.8952C110.116 66.8678 109.806 66.8014 109.496 66.7505C108.529 66.5863 107.702 66.1718 106.996 65.4679C105.707 64.1775 104.657 62.7619 104.438 60.8967C104.206 58.9141 104.994 57.2795 106.334 55.8992C107.004 55.2109 107.937 54.9529 108.873 54.9529C109.9 54.9529 110.931 55.0936 111.957 55.1601C113.513 55.2618 115.061 55.207 116.562 54.7378C119.242 53.9049 119.959 50.976 117.98 48.9543C116.895 47.8437 115.504 47.3041 114.018 47.0695C112.663 46.8544 111.283 46.7958 109.912 46.6824C109.59 46.655 109.265 46.6784 108.94 46.6433C112.529 46.0841 116.119 45.7751 119.712 46.5924C120.033 46.6667 120.347 46.7645 120.657 46.8701C123.063 47.6678 124.501 49.2085 124.798 51.8245C125.069 54.206 125.288 56.5796 125.273 58.9767C125.257 61.4324 125.273 63.8842 125.273 66.4025L125.28 66.3986ZM114.469 65.5344C115.899 65.5148 117.153 65.1082 118.102 64.0172C119.363 62.5664 119.822 60.8497 119.548 58.961C119.332 57.4555 118.435 56.4466 116.985 56.0439C116.185 55.821 115.327 55.7271 114.493 55.7232C111.718 55.7115 109.712 57.4242 109.214 60.1498C108.756 62.6603 109.88 64.4786 112.353 65.159C113.043 65.3467 113.764 65.4132 114.469 65.5305V65.5344Z" fill="#252122"/>
<path d="M175.242 66.0154C171.32 67.1768 167.374 67.7594 163.412 66.293C162.432 65.9294 161.496 65.3584 160.649 64.7367C159.254 63.7122 158.318 62.3435 157.867 60.6308C157.26 58.3236 156.88 56.0165 157.315 53.639C157.812 50.9095 159.266 48.8331 161.739 47.5778C165.563 45.6344 169.533 45.259 173.506 47.0734C176.312 48.3521 178.228 50.4872 178.898 53.5764C179.016 54.1121 179.031 54.6987 178.961 55.2461C178.828 56.2785 178.095 56.865 177.052 56.8729C174.059 56.8963 171.069 56.9081 168.075 56.9393C167.624 56.9432 167.166 56.9863 166.723 57.0762C164.431 57.5337 163.416 59.0079 163.941 61.2642C164.141 62.1363 164.505 62.9887 164.913 63.7864C165.316 64.5803 166.1 65.0143 166.892 65.3741C168.091 65.9215 169.364 66.2031 170.673 66.2109C172.064 66.2187 173.455 66.1092 174.846 66.0467C174.98 66.0427 175.117 66.031 175.25 66.0232L175.242 66.0154ZM168.157 56.2667C168.157 56.3059 168.161 56.3489 168.165 56.388C169.004 56.3059 169.858 56.2941 170.677 56.126C172.374 55.7701 173.655 54.8707 174.023 53.068C174.435 51.062 173.455 49.0677 171.582 48.2113C170.787 47.8477 169.897 47.5817 169.027 47.4918C165.019 47.0734 163.067 49.8693 163.083 52.5988C163.095 54.6713 164.223 55.9891 166.284 56.255C166.899 56.3332 167.53 56.2667 168.157 56.2667Z" fill="#252122"/>
<path d="M59.907 26.884C57.6186 28.1705 55.5613 29.6135 54.3623 31.991C53.9665 32.7731 53.8332 33.6177 53.8528 34.4858C53.2651 32.5815 54.2682 30.1531 57.07 26.7706C56.8388 26.7706 56.6624 26.7706 56.4861 26.7706C51.7055 26.7354 46.9248 26.7276 42.1442 26.6455C39.5462 26.6024 36.9482 26.4382 34.3501 26.3053C33.9113 26.2818 33.6409 26.4187 33.3666 26.7628C31.4896 29.1129 29.5186 31.381 27.1674 33.2853C26.8147 33.5708 26.4386 33.8171 25.9879 34.1456C25.937 33.5473 25.8821 33.0311 25.8586 32.515C25.8547 32.4172 25.9723 32.3038 26.0545 32.2139C28.2215 29.9106 30.3963 27.6192 32.5515 25.3042C32.9042 24.9249 33.3117 24.7059 33.8055 24.6472C34.3501 24.5847 34.8987 24.5221 35.4434 24.526C42.826 24.569 50.2086 24.6238 57.5911 24.6785C58.2965 24.6824 59.0018 24.7215 59.7072 24.6981C60.0598 24.6864 60.2127 24.8115 60.3694 25.1243C61.1374 26.6807 61.9016 28.237 62.748 29.7503C63.132 30.4386 63.6806 31.0408 64.19 31.6547C64.4134 31.9245 64.7269 32.12 65.0678 32.4094C65.3225 31.8463 65.5537 31.3575 65.7614 30.857C66.9134 28.0493 67.654 25.1439 67.415 22.0898C67.2974 20.6039 66.9213 19.1375 66.643 17.6672C66.4902 16.8734 66.2943 16.0835 66.114 15.2936C66.067 15.2623 66.02 15.2271 65.973 15.1958C65.7222 15.5321 65.4753 15.8684 65.2245 16.2047C65.1775 16.1734 65.1305 16.146 65.0834 16.1148C64.8287 15.3483 64.5662 14.5819 64.3272 13.8115C64.288 13.6903 64.3036 13.5182 64.3624 13.4048C64.6328 12.8965 64.8601 12.349 65.2245 11.915C67.3797 9.31066 69.2645 6.53818 70.5929 3.41768C71.0553 2.3345 71.3806 1.21222 71.4511 0.0078125C71.5491 0.418405 71.6392 0.828997 71.7411 1.23959C72.6032 4.69247 74.053 7.84426 76.557 10.4408C76.8705 10.7653 77.2036 11.0782 77.5562 11.3636C77.7874 11.5474 77.8893 11.7351 77.854 12.0362C77.7482 13.0099 77.6659 13.9875 77.5641 15.0902C74.0687 12.3295 72.3563 8.65371 71.3375 4.48522C71.0161 5.36897 70.7575 6.18625 70.4284 6.97224C69.7191 8.65762 68.9863 10.3313 68.2379 11.9971C68.0537 12.4077 67.8029 12.8026 67.5051 13.1389C67.2151 13.4635 67.2112 13.7763 67.2661 14.1674C67.6579 16.9398 68.0028 19.7201 67.846 22.5317C67.705 24.9992 67.5169 27.4627 67.3209 29.9224C67.1133 32.5072 66.5803 35.0333 65.5106 37.403C65.1305 38.2437 64.5152 38.975 63.9862 39.7453C63.8765 39.9056 63.6845 40.0034 63.4612 40.1911C63.4024 39.5928 63.3671 39.0688 63.2927 38.5526C63.2143 37.9974 63.0615 37.4538 63.0027 36.8946C62.9478 36.3393 62.9008 35.7684 62.9831 35.221C63.038 34.8729 63.3279 34.5562 63.5513 34.1652C62.1288 31.9519 60.6124 29.6721 59.9109 26.8879L59.907 26.884Z" fill="#F58923"/>
</g>
<defs>
<clipPath id="clip0_89_59">
<rect width="179" height="92" fill="white"/>
</clipPath>
</defs>
</svg>
