<svg width="373" height="708" viewBox="0 0 373 708" fill="none" xmlns="http://www.w3.org/2000/svg">
<g clip-path="url(#clip0_3044_101)">
<path d="M282 360.189C234.754 469.958 40.9303 707.75 -3.0047 707.75H-8.8627C-52.6704 707.75 -246.621 469.958 -293.867 360.189C-386.577 145.026 -273.619 0.000113277 -164.355 0.000113277C-31.1486 0.000113277 -17.7771 97.0172 -30.1298 156.028C-41.0817 148.151 -52.0336 140.4 -61.33 133.899C-87.4364 115.395 -125.386 115.771 -149.073 132.649C-172.505 149.401 -171.231 184.908 -171.231 193.284C-171.231 201.786 -172.505 237.292 -149.073 254.045C-125.386 270.798 -87.4364 271.298 -61.33 252.795C-56.7455 249.544 -51.6516 245.919 -46.4304 242.168C-51.2696 248.919 -55.9814 255.295 -60.3113 261.046C-79.0314 286.676 -78.6494 324.057 -61.4574 347.186C-44.3928 370.315 -8.22595 369.065 0.306366 369.065C8.96603 369.065 45.0055 370.315 62.1974 347.186C79.2621 324.057 79.6441 286.676 60.924 261.046C53.0284 250.294 43.35 237.292 34.1809 224.665C46.0243 233.166 58.1223 241.668 68.1828 248.794C94.2892 267.297 132.366 266.922 155.926 250.169C179.485 233.291 178.211 197.91 178.211 189.409C178.211 181.032 179.485 145.526 155.926 128.648C132.366 111.895 94.2892 111.52 68.1828 130.023C55.3207 139.15 39.1475 150.652 24.2478 161.154C10.8763 103.268 3.61742 -0.124909 152.487 0.000113277C261.752 0.125135 374.582 145.026 282 360.189Z" fill="white"/>
</g>
<defs>
<clipPath id="clip0_3044_101">
<rect width="373" height="708" fill="white"/>
</clipPath>
</defs>
</svg>
