<svg width="360" height="756" viewBox="0 0 360 756" fill="#f6f6f6" xmlns="http://www.w3.org/2000/svg">
<path d="M639.504 384.642C589.985 501.863 386.837 755.799 340.789 755.799H334.649C288.734 755.799 85.4521 501.863 35.9331 384.642C-61.2363 154.871 57.1555 0.000120968 171.677 0.000120968C311.291 0.000120968 325.306 103.604 312.359 166.62C300.88 158.209 289.401 149.932 279.657 142.989C252.295 123.23 212.52 123.63 187.693 141.654C163.134 159.544 164.469 197.461 164.469 206.406C164.469 215.485 163.134 253.402 187.693 271.292C212.52 289.182 252.295 289.716 279.657 269.957C284.462 266.486 289.801 262.614 295.274 258.608C290.202 265.818 285.263 272.627 280.725 278.768C261.104 306.138 261.505 346.057 279.524 370.757C297.409 395.456 335.316 394.121 344.259 394.121C353.335 394.121 391.109 395.456 409.128 370.757C427.013 346.057 427.414 306.138 407.793 278.768C399.517 267.287 389.373 253.402 379.763 239.917C392.176 248.996 404.856 258.074 415.401 265.684C442.763 285.444 482.672 285.043 507.365 267.153C532.058 249.129 530.723 211.346 530.723 202.267C530.723 193.322 532.058 155.405 507.365 137.382C482.672 119.491 442.763 119.091 415.401 138.85C401.92 148.596 384.969 160.879 369.352 172.094C355.337 110.279 347.729 -0.133389 503.761 0.000120968C618.282 0.133631 736.54 154.871 639.504 384.642Z"/>
</svg>
