<svg width="1908" height="165" viewBox="0 0 1908 165" fill="none" xmlns="http://www.w3.org/2000/svg">
<g clip-path="url(#clip0_93_511)">
<path d="M-6.10352e-05 49C-0.176244 49.5271 6.63953 52.5901 7.10935 52.8829L26.607 63.3072C29.6608 64.8298 33.1845 66.7039 37.1193 68.8122C48.9823 75.137 63.5468 82.926 81.8111 89.9536C105.596 100.729 135.665 111.505 174.014 123.159C180.063 124.682 186.523 126.38 193.159 128.196C205.668 131.534 218.412 134.872 231.978 138.093L246.073 140.845C262.575 144.125 279.43 147.463 296.99 149.981C336.337 155.72 388.84 162.455 445.571 163.685C498.368 165.852 554.276 165.325 611.947 162.221C644.189 160.523 672.672 158.473 699.099 155.955C724.47 154.022 750.192 151.153 775.093 148.4L788.307 146.936C853.906 139.323 918.917 130.07 968.307 122.925L1233.82 83.1017C1244.09 81.7547 1254.25 80.4077 1264.35 79.0022C1282.74 76.484 1300.94 74.0243 1319.03 71.916C1367.89 65.6497 1420.45 60.379 1479.59 55.8696C1488.81 55.5182 1497.68 55.0497 1506.43 54.5812C1523.23 53.7028 1538.91 52.8829 1554.59 52.7658C1578.43 52.1216 1601.75 51.5945 1624.18 52.4729C1628 52.5901 1631.87 52.6486 1635.75 52.7072C1643.15 52.8243 1650.08 52.9414 1656.89 53.41L1688.43 55.5768C1703.05 56.1039 1717.03 57.8022 1730.59 59.442C1736.06 60.0862 1740.93 60.7304 1745.98 61.2575C1757.43 62.253 1768.24 64.2442 1778.69 66.2354C1784.68 67.3481 1790.5 68.4608 1796.25 69.2807C1812.28 71.5647 1826.79 75.2542 1838.48 78.2409C1843.7 79.6464 1848.64 80.7591 1853.39 81.8718C1860.32 83.453 1866.9 85.0343 1872.72 86.9083C1872.72 86.9083 1874.77 87.5525 1897.73 94.7558L1918.64 101.139C1919.29 101.198 1919.7 101.022 1919.93 100.554C1920.11 100.085 1919.93 99.4995 1919.46 99.2652L1894.62 86.147C1882.41 79.705 1865.61 70.8619 1844.06 62.8387C1832.13 57.8608 1817.81 51.8873 1802.18 47.2022L1793.08 44.2155C1779.98 39.9403 1766.48 35.4895 1751.91 32.2685C1707.81 20.9072 1667.29 13.4111 1627.64 9.19448C1586.71 3.6895 1539.32 0.761326 1478.18 0C1425.74 0.351381 1369.3 1.2884 1312.57 6.2663C1194.12 15.0508 1068.38 33.3812 957.443 49.6033L779.321 75.6055C714.486 84.2144 660.691 91.242 607.073 96.5713C554.276 101.608 498.426 106.586 445.982 107.991L408.338 109.045L371.104 108.87C355.6 109.28 338.628 108.518 323.065 107.815C315.665 107.464 308.618 107.171 301.688 106.937C288.768 106.41 276.2 105.18 264.044 104.009C254.941 103.13 246.19 102.311 238.027 101.783C225.048 100.378 212.833 98.6796 201.029 97.0984C193.335 96.0442 186.699 95.1072 180.709 94.3459L174.073 93.116C140.539 86.9083 111.586 81.5205 87.5077 74.6685C67.7752 70.1006 51.5076 64.8298 38.47 60.5547C34.9463 59.3834 31.775 58.3879 28.8974 57.4508L-6.10352e-05 49Z" fill="#23597A"/>
</g>
<defs>
<clipPath id="clip0_93_511">
<rect width="1920" height="165" fill="white"/>
</clipPath>
</defs>
</svg>
