<svg width="230" height="20" viewBox="0 0 230 20" fill="none" xmlns="http://www.w3.org/2000/svg">
<path d="M0.71875 5.8096L1.50875 6.14477C1.48778 6.20761 1.50875 6.27046 1.56468 6.30537L3.88574 7.54829C4.24928 7.72984 4.66875 7.95328 5.13715 8.20466C6.54937 8.95879 8.28317 9.88749 10.4574 10.7254C13.2888 12.0102 16.8683 13.295 21.4335 14.6846C22.1536 14.8662 22.9226 15.0686 23.7126 15.2851C25.2017 15.6831 26.7188 16.0811 28.3338 16.4652L30.0117 16.7934C31.9762 17.1844 33.9826 17.5824 36.073 17.8827C40.757 18.567 47.0071 19.37 53.7606 19.5166C60.0456 19.775 66.7012 19.7121 73.5665 19.3421C77.4046 19.1396 80.7953 18.8952 83.9413 18.5949C86.9615 18.3645 90.0236 18.0223 92.9879 17.6941L94.5609 17.5196C102.37 16.6118 110.109 15.5086 115.989 14.6567L147.596 9.90844C148.819 9.74784 150.029 9.58724 151.231 9.41965C153.419 9.1194 155.587 8.82612 157.74 8.57475C163.557 7.8276 169.814 7.19915 176.854 6.66149C177.951 6.61959 179.007 6.56373 180.049 6.50787C182.048 6.40313 183.915 6.30537 185.781 6.29141C188.62 6.2146 191.395 6.15175 194.066 6.25649C194.52 6.27046 194.982 6.27744 195.443 6.28442C196.324 6.29839 197.149 6.31235 197.96 6.36821L201.714 6.62658C203.455 6.68942 205.119 6.89192 206.734 7.08743C207.384 7.16424 207.964 7.24105 208.565 7.3039C209.929 7.4226 211.215 7.66001 212.46 7.89743C213.173 8.0301 213.865 8.16277 214.55 8.26052C216.458 8.53285 218.185 8.97276 219.577 9.32887C220.199 9.49646 220.786 9.62913 221.352 9.7618C222.177 9.95034 222.96 10.1389 223.652 10.3623C223.652 10.3623 223.897 10.4391 226.631 11.298L229.119 12.0591C229.196 12.0661 229.245 12.0451 229.273 11.9893C229.294 11.9334 229.273 11.8636 229.217 11.8357L226.26 10.2715C224.806 9.50344 222.806 8.44906 220.241 7.49243C218.822 6.8989 217.116 6.18667 215.256 5.62805L214.172 5.27193C212.613 4.7622 211.005 4.23151 209.272 3.84746C204.021 2.49282 199.197 1.59904 194.478 1.09628C189.605 0.439909 183.964 0.090775 176.686 0C170.443 0.0418961 163.724 0.153619 156.971 0.747148C142.87 1.79455 127.902 3.98013 114.695 5.91434L93.4912 9.01466C85.773 10.0411 79.3691 10.879 72.9862 11.5145C66.7012 12.115 60.0526 12.7085 53.8095 12.8761L49.3282 13.0018L44.8958 12.9808C43.0501 13.0297 41.0297 12.9389 39.177 12.8551C38.2962 12.8132 37.4572 12.7783 36.6323 12.7504C35.0942 12.6875 33.5981 12.5409 32.1509 12.4013C31.0673 12.2965 30.0256 12.1988 29.0539 12.1359C27.5088 11.9683 26.0547 11.7658 24.6494 11.5773C23.7336 11.4516 22.9436 11.3399 22.2305 11.2491L21.4405 11.1025C17.4486 10.3623 14.0019 9.7199 11.1356 8.90293C8.78653 8.35828 6.84998 7.72984 5.29795 7.2201C4.87848 7.08045 4.50096 6.96175 4.15839 6.85002L0.725741 5.8096H0.71875Z" fill="#54A333"/>
</svg>
