<svg viewBox="0 0 366 49" fill="none" xmlns="http://www.w3.org/2000/svg">
<path d="M15.5034 47.409L24.8751 0H19.4053L12.4375 40.295L5.46973 0H0L9.30202 47.409H15.5034ZM31.7732 8.02066C32.4003 8.00322 32.9752 7.86373 33.4803 7.54988C33.9855 7.25346 34.4036 6.86988 34.7171 6.36423C35.0307 5.85858 35.17 5.30061 35.1874 4.69034C35.17 4.06264 35.0132 3.48725 34.7171 2.9816C34.4036 2.47595 34.0029 2.05747 33.4803 1.74362C32.9752 1.42977 32.4003 1.2903 31.7732 1.27286C31.1635 1.2903 30.6235 1.4472 30.1184 1.74362C29.6132 2.05747 29.2125 2.45852 28.9164 2.9816C28.6029 3.48725 28.4635 4.06264 28.4461 4.69034C28.4635 5.30061 28.6203 5.87601 28.9164 6.36423C29.23 6.86988 29.6306 7.2709 30.1184 7.54988C30.6235 7.86373 31.1635 8.02066 31.7732 8.02066ZM34.1945 47.409V13.0771H29.3693V47.409H34.1945ZM46.963 47.409V0H42.1378V47.409H46.963ZM59.749 47.409V0H54.9237V47.409H59.749ZM78.2833 48.2634C79.4853 48.246 80.635 48.0193 81.7324 47.566C82.8124 47.0952 83.8227 46.4675 84.746 45.6131C85.6866 44.7762 86.5053 43.7997 87.237 42.6315L84.3279 40.0684C83.5614 41.3935 82.6905 42.4048 81.6976 43.1197C80.7047 43.8346 79.6943 44.1833 78.6491 44.2008C77.0117 44.1833 75.653 43.6603 74.5555 42.6315C73.4581 41.5853 72.6394 40.1381 72.0994 38.2899C71.542 36.4417 71.2633 34.2796 71.2633 31.8385H87.8815V30.1298C87.8815 27.6713 87.7073 25.3522 87.3066 23.1901C86.9234 21.0281 86.3312 19.145 85.4776 17.4885C84.6415 15.8495 83.5614 14.5592 82.2201 13.6351C80.8614 12.6936 79.224 12.2228 77.2904 12.2228C75.4091 12.2228 73.7891 12.711 72.3955 13.6351C71.0194 14.5592 69.8871 15.8321 68.9987 17.4885C68.0929 19.1275 67.431 21.0281 66.9955 23.1901C66.56 25.3522 66.3509 27.7061 66.3509 30.1995C66.3509 32.7975 66.5948 35.1688 67.0651 37.3658C67.5355 39.5627 68.2671 41.4633 69.2426 43.0849C70.2181 44.7064 71.4723 45.9793 72.953 46.8685C74.4685 47.7752 76.2452 48.246 78.2833 48.2634ZM83.0388 28.2118H71.2459C71.2459 27.2354 71.2981 26.1892 71.4026 25.1081C71.5071 24.0271 71.6987 22.9635 71.9426 21.9173C72.2039 20.8711 72.5523 19.9296 73.0052 19.0752C73.4581 18.2208 74.033 17.5408 74.6949 17.0526C75.3743 16.547 76.193 16.2854 77.1336 16.268C78.0743 16.2854 78.893 16.5121 79.5724 16.9829C80.2517 17.4711 80.8092 18.1162 81.2621 18.9357C81.715 19.7552 82.0634 20.6794 82.3247 21.7081C82.5685 22.7368 82.7601 23.8004 82.8647 24.9163C83.004 26.0497 83.0388 27.1307 83.0388 28.2118ZM99.0125 47.409V22.946C99.4655 21.9347 100.04 20.9932 100.702 20.1214C101.382 19.2496 102.131 18.5521 102.967 18.0116C103.803 17.4885 104.726 17.1921 105.684 17.1921C106.102 17.1921 106.538 17.2619 106.956 17.4013V12.3448C105.754 12.3448 104.656 12.6064 103.646 13.1295C102.653 13.6526 101.765 14.3674 100.998 15.309C100.215 16.2331 99.5525 17.2967 99.0125 18.5173V13.0423H94.1874V47.3742H99.0125V47.409ZM118.906 48.2634C120.648 48.246 122.215 47.8624 123.609 47.0952C125.02 46.328 126.117 45.2644 126.936 43.8695C127.755 42.492 128.173 40.8705 128.19 39.0048C128.173 37.4007 127.946 35.9883 127.459 34.8027C127.006 33.5996 126.379 32.5708 125.612 31.6816C124.863 30.7923 124.01 29.9903 123.086 29.3103C122.181 28.6128 121.257 27.9502 120.334 27.34C119.411 26.7123 118.575 26.102 117.808 25.4569C117.059 24.8117 116.432 24.0968 115.962 23.3296C115.509 22.545 115.265 21.6558 115.248 20.6096C115.248 19.7901 115.439 19.0578 115.822 18.3952C116.188 17.7326 116.711 17.1921 117.39 16.8085C118.087 16.4249 118.888 16.2157 119.811 16.1982C120.961 16.1982 122.041 16.4772 123.034 17.0177C124.044 17.5583 124.898 18.3254 125.63 19.3193L127.894 16.0587C126.849 14.8208 125.647 13.8618 124.271 13.1992C122.877 12.5541 121.379 12.2228 119.742 12.2228C117.913 12.2228 116.31 12.6064 114.951 13.3561C113.593 14.1059 112.53 15.1172 111.781 16.39C111.032 17.6629 110.666 19.1275 110.649 20.7491C110.666 22.3358 110.893 23.7132 111.363 24.864C111.833 26.0323 112.443 27.061 113.209 27.9154C113.959 28.7872 114.812 29.5544 115.735 30.2344C116.641 30.9144 117.564 31.5595 118.488 32.1698C119.411 32.7801 120.247 33.4078 121.013 34.0703C121.762 34.7155 122.39 35.4652 122.86 36.2673C123.33 37.1042 123.557 38.0458 123.574 39.1443C123.557 40.2079 123.348 41.132 122.895 41.8992C122.442 42.6664 121.85 43.2418 121.083 43.6603C120.317 44.0613 119.463 44.2705 118.54 44.2705C117.181 44.2531 115.962 43.9044 114.864 43.2592C113.767 42.5967 112.791 41.6899 111.938 40.574L109.604 43.9218C110.666 45.3864 111.973 46.4675 113.506 47.1824C115.039 47.8973 116.85 48.2634 118.906 48.2634ZM144.617 32.3965V28.0549H132.197V32.3965H144.617ZM155.539 47.409V0H150.714V47.409H155.539ZM174.073 48.2634C175.275 48.246 176.425 48.0193 177.522 47.566C178.602 47.0952 179.613 46.4675 180.536 45.6131C181.477 44.7762 182.295 43.7997 183.027 42.6315L180.118 40.0684C179.351 41.3935 178.48 42.4048 177.487 43.1197C176.495 43.8346 175.484 44.1833 174.439 44.2008C172.802 44.1833 171.443 43.6603 170.346 42.6315C169.248 41.5853 168.429 40.1381 167.889 38.2899C167.332 36.4417 167.053 34.2796 167.053 31.8385H183.671V30.1298C183.671 27.6713 183.497 25.3522 183.097 23.1901C182.713 21.0281 182.121 19.145 181.268 17.4885C180.449 15.8495 179.351 14.5592 178.01 13.6351C176.651 12.6936 175.014 12.2228 173.08 12.2228C171.199 12.2228 169.579 12.711 168.185 13.6351C166.809 14.5592 165.677 15.8321 164.789 17.4885C163.883 19.1275 163.221 21.0281 162.785 23.1901C162.35 25.3522 162.141 27.7061 162.141 30.1995C162.141 32.7975 162.385 35.1688 162.855 37.3658C163.325 39.5627 164.057 41.4633 165.033 43.0849C166.008 44.7064 167.262 45.9793 168.743 46.8685C170.258 47.7752 172.035 48.246 174.073 48.2634ZM178.829 28.2118H167.036C167.036 27.2354 167.088 26.1892 167.193 25.1081C167.297 24.0271 167.489 22.9635 167.733 21.9173C167.994 20.8711 168.342 19.9296 168.795 19.0752C169.248 18.2208 169.805 17.5408 170.485 17.0526C171.164 16.547 171.965 16.2854 172.924 16.268C173.864 16.2854 174.683 16.5121 175.362 16.9829C176.042 17.4711 176.599 18.1162 177.052 18.9357C177.505 19.7552 177.853 20.6794 178.115 21.7081C178.358 22.7368 178.55 23.8004 178.655 24.9163C178.777 26.0497 178.829 27.1307 178.829 28.2118ZM200.568 32.3965V28.0549H188.148V32.3965H200.568ZM217.814 47.409C220.235 47.3916 222.186 46.8685 223.736 45.8049C225.269 44.7587 226.419 43.2767 227.151 41.3761C227.9 39.4581 228.248 37.2089 228.248 34.6109C228.248 33.1985 228.074 31.8211 227.76 30.5308C227.447 29.2056 226.976 28.02 226.384 26.9564C225.774 25.8753 225.06 24.9861 224.224 24.2886C223.388 23.5912 222.447 23.1553 221.42 22.9635C222.691 22.5102 223.771 21.8127 224.694 20.8711C225.618 19.9296 226.332 18.7265 226.82 17.2618C227.325 15.7972 227.569 14.071 227.586 12.0833C227.586 9.65967 227.203 7.53246 226.419 5.7191C225.652 3.92317 224.503 2.51083 222.987 1.51697C221.454 0.523104 219.59 0.0174362 217.361 0H207.136V47.409H217.814ZM216.333 20.7491H212.501V4.7601H216.333C217.761 4.77754 218.911 5.14368 219.747 5.85856C220.583 6.55601 221.193 7.515 221.541 8.7181C221.907 9.9212 222.081 11.2987 222.081 12.7982C222.099 14.3326 221.907 15.6926 221.541 16.8783C221.193 18.0813 220.583 19.0055 219.747 19.7029C218.911 20.3829 217.761 20.7317 216.333 20.7491ZM216.612 42.6315H212.501V25.5092H216.612C217.692 25.5266 218.632 25.7533 219.399 26.2066C220.165 26.66 220.81 27.2877 221.298 28.1072C221.785 28.9092 222.151 29.8333 222.378 30.8446C222.604 31.8734 222.726 32.9719 222.726 34.1226C222.743 35.8837 222.517 37.4007 222.116 38.6735C221.698 39.9463 221.036 40.9228 220.148 41.6202C219.225 42.2828 218.058 42.6315 216.612 42.6315ZM244.884 48.2634C246.451 48.246 247.845 47.9321 249.029 47.287C250.231 46.6418 251.259 45.7526 252.113 44.6192C252.966 43.4859 253.646 42.1607 254.203 40.6438C254.743 39.1268 255.126 37.4878 255.37 35.7093C255.631 33.9309 255.753 32.1 255.753 30.1995C255.753 28.299 255.631 26.4682 255.37 24.7071C255.126 22.9461 254.726 21.2896 254.203 19.7901C253.663 18.2731 252.966 16.9654 252.113 15.8146C251.259 14.6987 250.231 13.8095 249.029 13.1818C247.827 12.5541 246.451 12.2228 244.884 12.2228C243.316 12.2228 241.922 12.5541 240.72 13.1818C239.518 13.8269 238.491 14.6987 237.637 15.8146C236.784 16.948 236.069 18.2731 235.529 19.7901C234.989 21.2896 234.589 22.9461 234.327 24.7071C234.083 26.4682 233.944 28.299 233.944 30.1995C233.944 32.1 234.083 33.9309 234.327 35.7093C234.589 37.4704 234.989 39.1094 235.529 40.6438C236.069 42.1607 236.784 43.4859 237.637 44.6192C238.508 45.7526 239.536 46.6418 240.72 47.287C241.922 47.9321 243.298 48.246 244.884 48.2634ZM244.884 43.9218C243.734 43.9043 242.793 43.5208 242.027 42.7536C241.278 41.9864 240.668 40.9576 240.25 39.6499C239.815 38.3422 239.501 36.895 239.327 35.256C239.153 33.6344 239.048 31.9431 239.065 30.2169C239.048 28.4907 239.153 26.8169 239.327 25.2128C239.501 23.5912 239.815 22.1266 240.25 20.8363C240.668 19.5286 241.278 18.4998 242.027 17.7501C242.793 16.9829 243.734 16.5818 244.884 16.5818C246.033 16.5993 246.991 16.9829 247.74 17.7501C248.507 18.4998 249.099 19.546 249.535 20.8363C249.97 22.1266 250.284 23.5912 250.458 25.2128C250.632 26.8169 250.737 28.4907 250.719 30.2169C250.737 31.9605 250.632 33.6344 250.458 35.256C250.284 36.895 249.97 38.3422 249.535 39.6499C249.099 40.9576 248.507 41.9864 247.74 42.7536C246.974 43.5208 246.016 43.9043 244.884 43.9218ZM281.308 47.409V13.0771H276.483V38.4468C276.134 39.4058 275.646 40.3125 275.054 41.132C274.445 41.9515 273.783 42.6315 272.999 43.1372C272.232 43.6428 271.396 43.9043 270.525 43.9218C269.463 43.9218 268.644 43.5731 268.086 42.8407C267.546 42.1084 267.25 41.0099 267.25 39.5104V13.0771H262.425V40.8007C262.408 43.3464 262.913 45.2295 263.923 46.45C264.933 47.6706 266.571 48.2808 268.818 48.2634C269.933 48.246 270.978 48.0018 271.954 47.5136C272.929 47.008 273.817 46.3454 274.584 45.5259C275.35 44.689 275.995 43.7649 276.483 42.7187V47.409H281.308ZM291.672 8.02066C292.3 8.00322 292.874 7.86373 293.38 7.54988C293.885 7.25346 294.303 6.86988 294.616 6.36423C294.93 5.85858 295.087 5.30061 295.087 4.69034C295.069 4.06264 294.912 3.48725 294.616 2.9816C294.303 2.47595 293.902 2.05747 293.38 1.74362C292.874 1.42977 292.3 1.2903 291.672 1.27286C291.063 1.2903 290.523 1.4472 290.018 1.74362C289.53 2.05747 289.112 2.45852 288.816 2.9816C288.502 3.48725 288.345 4.06264 288.345 4.69034C288.363 5.30061 288.52 5.87601 288.816 6.36423C289.129 6.86988 289.53 7.2709 290.018 7.54988C290.523 7.86373 291.063 8.02066 291.672 8.02066ZM294.094 47.409V13.0771H289.269V47.409H294.094ZM306.862 47.409V0H302.037V47.409H306.862ZM319.648 47.409V0H314.823V47.409H319.648ZM338.183 48.2634C339.385 48.246 340.534 48.0193 341.632 47.566C342.712 47.0952 343.722 46.4675 344.645 45.6131C345.586 44.7762 346.405 43.7997 347.136 42.6315L344.227 40.0684C343.478 41.3935 342.59 42.4048 341.597 43.1197C340.604 43.8346 339.576 44.1833 338.548 44.2008C336.911 44.1833 335.552 43.6603 334.455 42.6315C333.375 41.5853 332.539 40.1381 331.999 38.2899C331.441 36.4417 331.163 34.2796 331.163 31.8385H347.781V30.1298C347.781 27.6713 347.607 25.3522 347.206 23.1901C346.823 21.0281 346.213 19.145 345.377 17.4885C344.558 15.8495 343.461 14.5592 342.119 13.6351C340.761 12.6936 339.123 12.2228 337.19 12.2228C335.308 12.2228 333.688 12.711 332.295 13.6351C330.919 14.5592 329.786 15.8321 328.898 17.4885C328.01 19.1275 327.33 21.0281 326.895 23.1901C326.459 25.3522 326.25 27.7061 326.25 30.1995C326.25 32.7975 326.494 35.1688 326.964 37.3658C327.435 39.5627 328.166 41.4633 329.142 43.0849C330.135 44.7064 331.372 45.9793 332.852 46.8685C334.368 47.7752 336.144 48.246 338.183 48.2634ZM342.938 28.2118H331.145C331.145 27.2354 331.197 26.1892 331.302 25.1081C331.406 24.0271 331.598 22.9635 331.842 21.9173C332.103 20.8711 332.452 19.9296 332.904 19.0752C333.357 18.2208 333.915 17.5408 334.594 17.0526C335.274 16.547 336.092 16.2854 337.033 16.268C337.974 16.2854 338.792 16.5121 339.472 16.9829C340.151 17.4711 340.708 18.1162 341.161 18.9357C341.614 19.7552 341.963 20.6794 342.224 21.7081C342.468 22.7368 342.659 23.8004 342.764 24.9163C342.903 26.0497 342.938 27.1307 342.938 28.2118ZM361.194 48.2634C362.256 48.246 363.18 48.0716 363.946 47.7229C364.73 47.3742 365.392 46.8859 365.949 46.2757L364.381 42.7187C364.12 43.1023 363.807 43.3987 363.406 43.6254C363.023 43.8346 362.57 43.9392 362.117 43.9392C361.316 43.9392 360.758 43.6254 360.445 43.0151C360.131 42.4049 359.974 41.4459 359.992 40.173V17.349H364.608V13.0946H359.992V3.71392H355.097V13.0946H351.613V17.349H355.097V40.8704C355.079 43.3813 355.567 45.2469 356.543 46.4675C357.518 47.6706 359.069 48.2634 361.194 48.2634Z" fill="white" fill-opacity="0.6"/>
</svg>
