<?xml version="1.0" encoding="UTF-8"?><svg id="b" xmlns="http://www.w3.org/2000/svg" viewBox="0 0 497.49 474.87"><g id="c"><path d="M38.22,178.03c21.4,0,38.22,16.82,38.22,37.14v222.57c0,20.32-17.9,37.14-38.22,37.14-21.4,0-38.22-16.82-38.22-37.14V215.17c0-20.32,16.82-37.14,38.22-37.14Z" style="fill:#171b1a;"/><path d="M178.3,0c21.53,0,38.22,16.82,38.22,37.14v222.57c0,20.32-17.9,37.14-38.22,37.14-21.4,0-38.22-16.82-38.22-37.14V37.14c0-20.32,16.82-37.14,38.22-37.14Z" style="fill:#171b1a;"/><path d="M319.05,0c21.4,0,38.22,16.82,38.22,37.14v222.57c0,20.32-17.9,37.14-38.22,37.14-21.4,0-38.21-16.82-38.21-37.14V37.14c0-20.32,16.81-37.14,38.21-37.14Z" style="fill:#171b1a;"/><path d="M459.13,178.03c21.53,0,38.36,16.82,38.36,37.14v222.57c0,20.32-18.04,37.14-38.36,37.14-21.4,0-38.21-16.82-38.21-37.14V215.17c0-20.32,16.81-37.14,38.21-37.14Z" style="fill:#171b1a;"/></g></svg>