<?xml version="1.0" encoding="UTF-8"?><svg id="b" xmlns="http://www.w3.org/2000/svg" viewBox="0 0 531.12 474.87"><g id="c"><path d="M0,55.17C0,24.62,24.63,0,55.04,0s55.04,24.62,55.04,55.17-24.63,55.04-55.04,55.04S0,85.58,0,55.17Z" style="fill:#43bdad;"/><path d="M420.91,55.17c0-30.55,24.62-55.17,55.03-55.17s55.17,24.62,55.17,55.17-24.76,55.04-55.17,55.04-55.03-24.62-55.03-55.04Z" style="fill:#fc52a7;"/><path d="M209.65,419.84c0-30.55,24.63-55.17,55.04-55.17s55.17,24.63,55.17,55.17-24.76,55.04-55.17,55.04-55.04-24.62-55.04-55.04Z" style="fill:#ffb641;"/></g></svg>