<svg width="80" height="63" viewBox="0 0 80 63" fill="none" xmlns="http://www.w3.org/2000/svg">
<path d="M39.9632 28.5661L79.7782 3.70028C79.5076 2.65198 78.8997 1.72179 78.0483 1.0531C77.1968 0.384417 76.149 0.0143652 75.0665 0H4.85988C3.77733 0.0143652 2.72955 0.384417 1.87809 1.0531C1.02663 1.72179 0.41876 2.65198 0.148193 3.70028L39.9632 28.5661Z" fill="#FD3C88"/>
<path d="M39.963 34.4125L0 9.42334V57.2063C0 58.5148 0.519798 59.7697 1.44505 60.6949C2.3703 61.6202 3.6252 62.14 4.9337 62.14H75.0663C76.3748 62.14 77.6297 61.6202 78.555 60.6949C79.4802 59.7697 80 58.5148 80 57.2063V9.42334L39.963 34.4125Z" fill="#FD3C88"/>
</svg>
