<svg width="160" height="37" viewBox="0 0 160 37" fill="none" xmlns="http://www.w3.org/2000/svg">
<path fill-rule="evenodd" clip-rule="evenodd" d="M6.13902 26.4442C6.13902 28.105 4.68582 29.4297 3.07445 29.4297C1.32468 29.4297 0 28.105 0 26.4442V2.97559C0 1.3148 1.32468 0 3.07445 0H13.0788C15.8863 0 18.4467 0.50417 20.4041 1.95737C22.5394 3.52919 23.7751 6.25764 23.7751 9.41118C23.7751 12.1792 22.7074 14.6506 20.5326 16.519C19.8505 17.0726 19.1684 17.4977 18.4862 17.8437L23.261 24.6945C23.6466 25.2481 23.7751 25.8017 23.7751 26.3157C23.7751 28.0655 22.4109 29.4297 20.7006 29.4297C19.5144 29.4297 18.7037 28.8761 18.1007 27.9765L12.1001 18.9113H6.13902V26.4442ZM6.13902 5.18999V13.751H12.5252C13.7609 13.751 14.9076 13.5731 15.8072 13.0195C16.8749 12.3472 17.5471 11.1906 17.5471 9.49027C17.5471 7.78004 16.9144 6.67284 15.9357 6.00062C14.9966 5.39759 13.8499 5.18999 12.6141 5.18999H6.13902Z" fill="#171B1A"/>
<path fill-rule="evenodd" clip-rule="evenodd" d="M37.9412 16.9441V16.608C37.9412 15.5799 37.7732 14.8582 37.3481 14.3046C36.8834 13.7115 36.0728 13.4544 35.0447 13.4544C32.7908 13.4544 31.3474 14.7791 29.6867 14.7791C28.53 14.7791 27.6403 13.8795 27.6403 12.7328C27.6403 11.4081 28.708 10.5975 30.1117 10.0439C31.7725 9.41119 33.7694 9.11462 35.7268 9.11462C37.6446 9.11462 40.205 9.49028 41.8658 11.329C42.9236 12.4758 43.5662 14.0476 43.5662 16.4795V26.7013C43.5662 28.194 42.2514 29.4297 40.7586 29.4297C39.7799 29.4297 38.8803 28.9552 38.4157 28.2336C36.7055 29.2122 35.0447 29.4297 33.1763 29.4297C29.5977 29.4297 26.7012 27.1659 26.7012 23.4192C26.7012 18.4368 32.2767 17.3692 37.9412 16.9441V16.9441ZM37.9412 24.4473V20.7402C35.3907 20.8193 32.0691 21.1653 32.0691 23.2512C32.0691 24.6154 33.3839 25.2481 34.9656 25.2481C35.9443 25.2481 36.9625 25.0405 37.9412 24.4473V24.4473Z" fill="#171B1A"/>
<path d="M50.9114 9.15417C52.0977 9.15417 53.1258 9.91537 53.5509 10.9435C54.8261 9.79675 56.6155 9.15417 58.4937 9.15417C60.8762 9.15417 63.0906 9.9648 64.5833 11.9617C66.0662 10.1329 68.2806 9.15417 70.8805 9.15417C72.9664 9.15417 74.9337 9.70777 76.377 11.072C77.7016 12.2583 78.5024 14.2255 78.5024 17.0331V26.7408C78.5024 28.2336 77.1876 29.4693 75.6948 29.4693C74.123 29.4693 72.8873 28.2336 72.8873 26.7408V18.4368C72.8873 17.122 72.6698 15.7974 72.0371 14.9472C71.5626 14.3541 70.8014 13.8795 69.5657 13.8795C68.2806 13.8795 67.3909 14.5221 66.8768 15.4118C66.2837 16.4399 66.1156 17.8832 66.1156 19.544V26.7408C66.1156 28.2336 64.7909 29.4693 63.2982 29.4693C61.7264 29.4693 60.4907 28.2336 60.4907 26.7408V18.4368C60.4907 17.122 60.2831 15.7974 59.6405 14.9472C59.166 14.3541 58.4048 13.8795 57.1691 13.8795C55.8938 13.8795 55.0436 14.5221 54.49 15.4118C53.9364 16.3905 53.7585 17.7943 53.719 19.4155V26.7013C53.719 28.2336 52.3943 29.4693 50.9114 29.4693C49.3297 29.4693 48.094 28.2336 48.094 26.7013V11.9222C48.094 10.3899 49.3297 9.15417 50.9114 9.15417V9.15417Z" fill="#171B1A"/>
<path fill-rule="evenodd" clip-rule="evenodd" d="M141.583 25.8906C141.583 27.0374 140.772 27.848 139.161 28.4906C137.411 29.2122 135.493 29.4297 133.625 29.4297C130.343 29.4297 127.703 28.4016 125.914 26.5728C124.075 24.6945 123.057 22.1044 123.057 19.03C123.057 16.0939 124.125 13.583 125.825 11.8332C127.535 10.1329 129.957 9.11462 133.022 9.11462C136.175 9.11462 138.429 10.1329 139.962 11.6651C141.84 13.583 142.394 15.8863 142.394 17.7943C142.394 19.8011 141.375 20.9478 139.626 20.9478H128.979C129.493 23.5477 131.233 24.9515 134.001 24.9515C136.986 24.9515 138.093 23.6367 139.497 23.6367C140.693 23.6367 141.583 24.6549 141.583 25.8906V25.8906ZM136.947 17.2407C136.769 15.2042 135.365 13.5434 133.071 13.5434C130.728 13.5434 129.315 14.9867 128.939 17.2407H136.947Z" fill="#171B1A"/>
<path d="M157.44 14.4727C155.7 14.4727 154.889 13.5434 152.971 13.5434C151.825 13.5434 150.974 13.9191 150.974 14.9076C150.974 15.7578 151.825 16.2224 152.803 16.608C154.167 17.1616 155.443 17.4977 156.807 18.1798C159.1 19.3364 160 21.0763 160 23.1622C160 26.7408 156.975 29.4297 152.032 29.4297C148.117 29.4297 144.578 28.5697 144.578 25.9302C144.578 24.6945 145.518 23.7158 146.753 23.7158C148.454 23.7158 149.353 25.0405 151.825 25.0405C153.228 25.0405 154.079 24.5264 154.079 23.5082C154.079 22.569 153.357 22.1835 152.289 21.7189C151.053 21.1653 149.521 20.7402 148.157 20.0581C146.071 18.9904 145.003 17.3692 145.003 14.9076C145.003 11.329 147.732 9.06519 152.675 9.06519C156.421 9.06519 159.575 9.91536 159.575 12.1792C159.575 13.5829 158.636 14.4727 157.44 14.4727V14.4727Z" fill="#171B1A"/>
<path d="M85.8175 14.1958C87.3894 14.1958 88.6251 15.4315 88.6251 16.9243V33.2752C88.6251 34.7679 87.3103 36.0036 85.8175 36.0036C84.2457 36.0036 83.01 34.7679 83.01 33.2752V16.9243C83.01 15.4315 84.2457 14.1958 85.8175 14.1958Z" fill="#171B1A"/>
<path d="M96.1088 1.11707C97.6905 1.11707 98.9163 2.35278 98.9163 3.84552V20.1965C98.9163 21.6892 97.6015 22.9249 96.1088 22.9249C94.537 22.9249 93.3013 21.6892 93.3013 20.1965V3.84552C93.3013 2.35278 94.537 1.11707 96.1088 1.11707V1.11707Z" fill="#171B1A"/>
<path d="M106.449 1.11707C108.021 1.11707 109.257 2.35278 109.257 3.84552V20.1965C109.257 21.6892 107.942 22.9249 106.449 22.9249C104.877 22.9249 103.642 21.6892 103.642 20.1965V3.84552C103.642 2.35278 104.877 1.11707 106.449 1.11707V1.11707Z" fill="#171B1A"/>
<path d="M116.74 14.1958C118.322 14.1958 119.558 15.4315 119.558 16.9243V33.2752C119.558 34.7679 118.233 36.0036 116.74 36.0036C115.168 36.0036 113.933 34.7679 113.933 33.2752V16.9243C113.933 15.4315 115.168 14.1958 116.74 14.1958Z" fill="#171B1A"/>
<path d="M81.7744 5.1702C81.7744 2.92615 83.5835 1.11707 85.8177 1.11707C88.0518 1.11707 89.8609 2.92615 89.8609 5.1702C89.8609 7.40437 88.0518 9.21345 85.8177 9.21345C83.5835 9.21345 81.7744 7.40437 81.7744 5.1702V5.1702Z" fill="#43BDAD"/>
<path d="M112.697 5.1702C112.697 2.92615 114.506 1.11707 116.74 1.11707C118.974 1.11707 120.793 2.92615 120.793 5.1702C120.793 7.40437 118.974 9.21345 116.74 9.21345C114.506 9.21345 112.697 7.40437 112.697 5.1702V5.1702Z" fill="#FC52A7"/>
<path d="M97.1765 31.9605C97.1765 29.7164 98.9856 27.9073 101.22 27.9073C103.454 27.9073 105.273 29.7164 105.273 31.9605C105.273 34.1947 103.454 36.0037 101.22 36.0037C98.9856 36.0037 97.1765 34.1947 97.1765 31.9605Z" fill="#FFB641"/>
</svg>
