<svg width="241" height="226" viewBox="0 0 241 226" fill="none" xmlns="http://www.w3.org/2000/svg">
<g clip-path="url(#clip0_2555_14)">
<mask id="mask0_2555_14" style="mask-type:alpha" maskUnits="userSpaceOnUse" x="17" y="92" width="33" height="123">
<path d="M33.5957 92.5049C42.425 92.5049 49.3662 99.4289 49.3662 107.793V199.412C49.3662 207.776 41.9807 214.7 33.5957 214.7C24.7664 214.7 17.8252 207.776 17.8252 199.412V107.793C17.8252 99.4289 24.7664 92.5049 33.5957 92.5049Z" fill="#161B1D"/>
</mask>
<g mask="url(#mask0_2555_14)">
<rect x="-136.233" y="92.4714" width="318.002" height="122.062" fill="#FD3C88"/>
</g>
<mask id="mask1_2555_14" style="mask-type:alpha" maskUnits="userSpaceOnUse" x="75" y="19" width="33" height="123">
<path d="M91.4023 19.2209C100.287 19.2209 107.173 26.145 107.173 34.5092V126.128C107.173 134.492 99.7874 141.416 91.4023 141.416C82.5731 141.416 75.6318 134.492 75.6318 126.128V34.5092C75.6318 26.145 82.5731 19.2209 91.4023 19.2209Z" fill="#161B1D"/>
</mask>
<g mask="url(#mask1_2555_14)">
<rect x="13.6973" y="17.3845" width="231.375" height="126.131" fill="#FD3C88"/>
</g>
<mask id="mask2_2555_14" style="mask-type:alpha" maskUnits="userSpaceOnUse" x="133" y="19" width="33" height="123">
<path d="M149.487 19.2209C158.316 19.2209 165.257 26.145 165.257 34.5092V126.128C165.257 134.492 157.872 141.416 149.487 141.416C140.658 141.416 133.716 134.492 133.716 126.128V34.5092C133.716 26.145 140.658 19.2209 149.487 19.2209Z" fill="#161B1D"/>
</mask>
<g mask="url(#mask2_2555_14)">
<rect x="13.6973" y="17.3845" width="231.375" height="126.131" fill="#FD3C88"/>
</g>
<mask id="mask3_2555_14" style="mask-type:alpha" maskUnits="userSpaceOnUse" x="191" y="92" width="33" height="123">
<path d="M207.293 92.5049C216.178 92.5049 223.119 99.4289 223.119 107.793V199.412C223.119 207.776 215.678 214.7 207.293 214.7C198.464 214.7 191.523 207.776 191.523 199.412V107.793C191.523 99.4289 198.464 92.5049 207.293 92.5049Z" fill="#161B1D"/>
</mask>
<g mask="url(#mask3_2555_14)">
<rect x="159.186" y="85.0737" width="96.2519" height="129.46" fill="#FD3C88"/>
</g>
<path d="M10.8838 41.9317C10.8838 29.3577 21.0458 19.2209 33.5955 19.2209C46.1453 19.2209 56.3073 29.3577 56.3073 41.9317C56.3073 54.4504 46.1453 64.5871 33.5955 64.5871C21.0458 64.5871 10.8838 54.4504 10.8838 41.9317Z" fill="#FD3C88"/>
<path d="M184.582 41.9317C184.582 29.3577 194.744 19.2209 207.294 19.2209C219.843 19.2209 230.061 29.3577 230.061 41.9317C230.061 54.4504 219.843 64.5871 207.294 64.5871C194.744 64.5871 184.582 54.4504 184.582 41.9317Z" fill="#FD3C88"/>
<path d="M97.3994 192.045C97.3994 179.471 107.561 169.334 120.111 169.334C132.661 169.334 142.878 179.471 142.878 192.045C142.878 204.563 132.661 214.7 120.111 214.7C107.561 214.7 97.3994 204.563 97.3994 192.045Z" fill="#FD3C88"/>
</g>
<defs>
<clipPath id="clip0_2555_14">
<rect width="241" height="226" fill="white"/>
</clipPath>
</defs>
</svg>
