<svg width="181" height="77" viewBox="0 0 181 77" fill="none" xmlns="http://www.w3.org/2000/svg">
<g clip-path="url(#clip0_2554_167)">
<mask id="mask0_2554_167" style="mask-type:alpha" maskUnits="userSpaceOnUse" x="13" y="-24" width="25" height="93">
<path d="M25.2314 -23.4166C31.8626 -23.4166 37.0757 -18.2083 37.0757 -11.9166V57C37.0757 63.2917 31.5289 68.5 25.2314 68.5C18.6003 68.5 13.3872 63.2917 13.3872 57V-11.9166C13.3872 -18.2083 18.6003 -23.4166 25.2314 -23.4166Z" fill="#161B1D"/>
</mask>
<g mask="url(#mask0_2554_167)">
<rect x="-102.317" y="-23.4419" width="238.831" height="91.8167" fill="white"/>
</g>
<mask id="mask1_2554_167" style="mask-type:alpha" maskUnits="userSpaceOnUse" x="56" y="-79" width="25" height="93">
<path d="M68.6465 -78.5416C75.3193 -78.5416 80.4907 -73.3333 80.4907 -67.0416V1.87505C80.4907 8.16671 74.944 13.375 68.6465 13.375C62.0154 13.375 56.8022 8.16671 56.8022 1.87505V-67.0416C56.8022 -73.3333 62.0154 -78.5416 68.6465 -78.5416Z" fill="#161B1D"/>
</mask>
<g mask="url(#mask1_2554_167)">
<rect x="10.2871" y="-79.923" width="173.771" height="94.8772" fill="white"/>
</g>
<mask id="mask2_2554_167" style="mask-type:alpha" maskUnits="userSpaceOnUse" x="100" y="-79" width="25" height="93">
<path d="M112.27 -78.5416C118.901 -78.5416 124.114 -73.3333 124.114 -67.0416V1.87505C124.114 8.16671 118.567 13.375 112.27 13.375C105.639 13.375 100.426 8.16671 100.426 1.87505V-67.0416C100.426 -73.3333 105.639 -78.5416 112.27 -78.5416Z" fill="#161B1D"/>
</mask>
<g mask="url(#mask2_2554_167)">
<rect x="10.2871" y="-79.923" width="173.771" height="94.8772" fill="white"/>
</g>
<mask id="mask3_2554_167" style="mask-type:alpha" maskUnits="userSpaceOnUse" x="143" y="-24" width="25" height="93">
<path d="M155.685 -23.4166C162.358 -23.4166 167.571 -18.2083 167.571 -11.9166V57C167.571 63.2917 161.983 68.5 155.685 68.5C149.054 68.5 143.841 63.2917 143.841 57V-11.9166C143.841 -18.2083 149.054 -23.4166 155.685 -23.4166Z" fill="#161B1D"/>
</mask>
<g mask="url(#mask3_2554_167)">
<rect x="119.555" y="-29.0065" width="72.2888" height="97.3814" fill="white"/>
</g>
<path d="M73.1504 51.4583C73.1504 42 80.7824 34.375 90.2078 34.375C99.6331 34.375 107.307 42 107.307 51.4583C107.307 60.875 99.6331 68.5 90.2078 68.5C80.7824 68.5 73.1504 60.875 73.1504 51.4583Z" fill="white"/>
</g>
<defs>
<clipPath id="clip0_2554_167">
<rect width="181" height="170" fill="white" transform="translate(0 -93)"/>
</clipPath>
</defs>
</svg>
