<svg width="294" height="92" viewBox="0 0 294 92" fill="none" xmlns="http://www.w3.org/2000/svg">
<path d="M30.0941 39.8334L15.7985 39.9806C14.7647 39.6243 14.2798 38.4137 14.168 37.3863C13.8387 34.3558 15.0759 30.857 17.8185 29.3363C18.3417 29.0465 19.7376 28.6668 20.0465 28.3574C20.285 28.1194 21.0655 26.002 21.4151 25.4217C22.0149 24.4241 22.6256 23.8493 23.6376 23.2635C24.7066 22.6449 26.5694 22.3607 26.6429 20.7937C26.7165 19.2268 25.4011 18.9535 25.247 17.5166C24.935 14.6012 25.6161 11.6811 28.5777 10.5151C29.9337 9.98106 30.9535 10.4243 32.2837 10.3115C33.2003 8.77982 33.9948 7.36716 35.5135 6.34446C37.7767 4.8206 40.3449 5.21449 42.9178 5.47134C43.3636 4.72585 43.3409 3.82375 43.6201 3.03285C44.3708 0.906803 46.0131 0.196556 48.1433 0.0469887C50.107 -0.0908322 55.0377 0.0689147 56.827 0.600621C60.7215 1.75722 63.1286 5.42044 63.881 9.27394C65.5522 9.4932 67.2742 8.99203 68.9219 9.15648C73.5539 9.61928 76.6492 14.3929 75.5418 18.883C74.9874 21.1312 73.2513 20.9292 71.2782 20.8916C67.5948 20.8204 63.224 20.1594 59.561 20.5706C58.1752 20.7264 57.7303 21.9597 59.2443 22.1398C61.9611 22.4632 64.8374 21.7115 67.6073 22.5322C70.07 23.2612 72.6984 25.6911 73.6282 28.0896C74.0466 29.1703 73.9027 31.0731 75.1907 31.2227C77.9622 31.5445 80.7204 30.431 83.1659 32.3167C85.6285 34.2148 86.9564 37.9148 86.3346 40.9727C85.8834 43.1904 82.4683 42.8419 80.8143 42.8161C77.0973 42.7582 72.2581 42.2507 68.624 42.6532C68.0664 42.7151 67.9671 42.8044 67.6879 43.2789L67.6097 42.8083L66.672 42.9665V59.8808H67.2976V43.9061C67.5831 43.9852 67.6003 44.679 67.6167 44.9179C67.9295 49.437 67.1796 54.4651 67.447 58.8691C67.5127 59.9482 67.4846 60.2136 68.5121 60.6224C76.0916 62.1862 84.507 65.7531 92.2343 66.1431C94.0783 66.2363 95.278 65.6756 97 65.5957C94.7845 69.0146 92.508 72.3928 89.7341 75.3873C70.0465 96.6367 37.1097 97.5608 16.0198 77.8148C3.3775 65.9755 -2.09516 48.7902 0.724847 31.6323C0.948508 30.2728 1.4318 28.9761 1.64295 27.6167C1.84941 27.3582 1.92683 27.6378 1.95342 27.8508C2.23808 30.1241 2.29282 32.4286 2.62518 34.698C4.13998 45.0299 9.1528 56.0258 19.4217 59.9999C22.7289 61.2802 26.2668 61.66 29.7812 61.5245C29.8516 61.4822 30.0941 61.0993 30.0941 61.0547V39.8334ZM67.4126 13.8815C67.4713 13.9285 68.3159 14.9379 68.3714 15.0334C68.7569 15.6873 68.8273 16.6943 68.6036 17.4124C68.4558 17.8885 67.013 19.0389 67.612 19.3999L73.4444 19.2871C74.8302 17.9394 74.1146 14.4234 73.0573 13.0014C70.9928 10.2254 68.9423 10.6678 65.9776 10.7101C65.3222 10.7195 62.6774 10.8142 62.2966 10.6263C61.9157 10.4384 61.771 8.55351 61.6264 8.00849C60.921 5.35153 58.8744 2.70552 56.1693 1.88564C54.5576 1.39701 49.3735 1.4761 47.5185 1.61392C47.1588 1.64054 46.3799 1.74861 46.078 1.88173C45.163 2.28423 44.5382 6.01401 43.997 6.94117C40.047 6.18628 35.684 6.27086 33.847 10.4697C33.8173 10.5637 34.2998 10.6733 34.4077 10.6874C35.0451 10.7712 36.2275 10.8487 36.8876 10.8659C37.3341 10.8777 38.199 10.8698 38.5799 10.6686C38.9029 10.4979 39.1985 9.68271 39.53 9.34912C40.194 8.68115 42.6144 7.59816 43.5309 7.48149C43.9571 7.42745 44.1964 7.63262 44.7618 7.46582C45.4868 7.25205 46.1124 6.45566 46.7365 6.15261C47.7398 5.66476 53.1765 5.74071 54.5584 5.84878C58.0681 6.12364 59.9559 8.61694 60.1162 12.0405C60.1342 12.425 59.7596 13.0695 60.1022 13.2942C60.7387 13.7116 64.6583 13.2363 65.8165 13.3639C66.1528 13.4007 67.1764 13.6928 67.4126 13.8808V13.8815ZM56.9827 24.955V21.5878C56.9827 21.1806 56.3273 19.1681 56.1209 18.6927C54.3488 14.6059 51.1096 14.2504 47.0587 14.6215C44.5656 14.8502 44.4795 15.8416 44.3223 18.1446C44.2684 18.9371 44.1792 20.2432 44.5554 20.8838H52.2154C52.7612 21.3294 52.3124 23.8477 51.7892 24.0693C51.578 24.1586 51.3528 24.1602 51.1276 24.179C47.2776 24.5071 42.9616 23.8947 39.0773 24.1664C37.4014 24.2839 35.6316 24.962 35.0607 26.72C34.6877 27.8696 35.1866 28.7975 35.1116 29.7333C34.9473 31.7748 33.1432 28.5869 32.9062 28.478C31.6902 27.9181 31.5095 30.702 31.4947 31.4474C31.4712 32.6119 31.6292 34.1498 33.0016 34.3378C33.5874 34.4184 34.5563 34.4748 35.1773 34.5069C36.6545 34.5844 38.1537 34.4529 39.6309 34.5085V30.9846C39.6309 29.94 41.2177 28.1076 42.203 27.7662C43.2455 27.4052 47.3433 27.2862 48.4335 27.4984C49.0732 27.6229 49.1952 28.4655 49.1678 29.027C46.9109 29.1961 43.4574 28.0074 42.4103 30.7936C42.1843 31.395 41.8449 34.2031 42.4048 34.5093L52.1943 34.4873C52.5837 34.3558 52.6346 33.0543 52.798 32.5868C53.3134 31.1107 55.3075 29.6127 56.8982 29.6487C60.0983 29.7208 58.8064 33.0426 59.2795 34.9501C59.4789 35.7551 60.2273 36.8045 61.0023 37.1396C62.2512 37.6791 67.0928 37.6048 68.6357 37.4912C69.173 37.4513 69.686 37.2845 70.2146 37.2015L70.4328 37.0636C70.8629 36.0457 70.3796 34.5124 71.7544 34.3511C73.1973 34.1812 76.3888 34.4435 77.6424 35.1921C78.3173 35.5954 79.8086 37.2719 79.8086 38.0339V41.2445C81.0896 41.0824 82.8937 41.4661 84.1035 41.2406C84.5368 41.1599 84.8066 40.7151 84.8996 40.3165C85.0748 39.5687 84.7417 36.9509 84.4633 36.1897C82.7756 31.5696 78.0944 32.6463 74.2523 32.6385C73.9371 32.6385 73.6509 32.496 73.3373 32.4897C72.7578 32.4788 71.9711 32.8632 71.3009 32.4921C71.2156 30.6879 71.0498 29.4537 70.0238 27.9463C68.3221 25.4468 66.4366 24.8187 63.4782 24.7945C62.8416 24.789 62.2926 24.9628 61.7585 24.9636C60.1671 24.9675 58.5733 24.9479 56.9842 24.9573L56.9827 24.955ZM33.2206 25.1899C33.3426 24.796 33.2206 22.966 33.2206 22.3708C33.2206 22.3301 33.5796 21.6911 33.6093 21.6637C34.2208 21.1164 39.272 21.9229 40.1518 21.3654C40.5827 21.0921 40.4857 19.3623 40.1056 18.9191C37.9011 18.8611 35.6543 18.7483 33.449 18.84C32.6576 18.8729 31.3946 18.9167 30.6556 19.0169C28.6395 19.2902 27.3718 22.0819 26.9589 23.8516C26.8095 23.7843 26.6742 23.731 26.5045 23.7765C24.2304 24.388 22.7789 25.2612 22.0047 27.5791C21.4565 29.222 21.5003 29.7075 23.4437 29.8147C25.8171 29.9455 25.1117 29.4725 25.7499 27.8852C26.6961 25.5298 29.5505 25.1907 31.7418 25.2612C32.1156 25.2729 33.0759 25.6566 33.2206 25.1899ZM63.0794 39.99H57.0609C57.0186 39.99 56.5236 40.1756 56.5048 40.2445L56.5455 58.2043C56.748 58.8903 58.6132 58.7031 59.2318 58.8025C60.1147 58.9435 62.0213 59.5598 62.7267 59.5386C62.9183 59.5332 62.9691 59.4791 63.0809 59.3327V39.9908L63.0794 39.99ZM56.0458 40.1458L54.4254 40.1685L54.1619 40.6869C54.2823 46.5521 53.9499 52.4565 54.3433 58.2967L55.7431 58.4024L56.0458 40.1458ZM46.1961 58.7838C46.817 58.9036 50.1047 58.8715 50.1047 58.2356V45.2366C49.2272 44.6642 47.8673 45.1403 46.9062 45.1645C43.1876 45.2601 39.4253 45.0126 35.7247 45.2389C35.6512 45.2734 35.4095 45.5224 35.4095 45.5498V60.7414C35.4095 60.8385 35.6418 60.9583 35.7849 60.9685C36.0281 60.9858 39.0069 60.3147 39.3877 60.1847C39.6239 60.104 39.8366 60.0821 40.0173 59.8754C40.7047 59.0884 39.7811 55.9968 40.5678 54.7885C41.4249 53.4714 43.1016 52.9671 44.5405 53.6296C45.0864 53.8809 46.1969 55.1252 46.1969 55.729V58.783L46.1961 58.7838ZM94.033 67.3991C84.1716 67.3365 74.9201 63.6388 65.4544 61.4948C57.4057 59.6718 49.4626 59.505 41.3788 61.2395C33.3645 62.9591 30.7885 64.7445 22.0923 62.963C20.1662 62.5683 17.8928 61.2395 16.3389 62.934C14.5637 64.8706 16.5665 66.9003 18.0555 68.2605C24.3946 74.0506 35.0341 75.7796 43.2721 76.7913L43.5364 77.1883C43.6083 77.5391 43.3784 77.4029 43.1509 77.4201C38.5768 77.7561 32.4832 76.5164 28.0287 75.3395C25.979 74.7984 23.2763 73.5674 21.3486 73.2612C19.6907 72.9981 18.2471 73.4147 18.0648 75.3238C17.8873 77.186 21.6575 80.0364 23.0769 81.0825C33.194 88.5413 47.5803 91.8075 59.9888 89.9054C73.9129 87.7708 86.3284 79.0191 94.0338 67.3976L94.033 67.3991Z" fill="white"/>
<path d="M161 84.1894L160.699 91.5859C160.657 91.7459 159.868 91.8317 159.682 91.8434C156.462 92.0549 151.682 92.0494 148.458 91.8434C145.422 91.6491 143.232 90.3935 141.299 88.0929C138.54 84.8075 138.991 81.9209 139.036 77.8606C139.227 60.3059 139.514 42.6724 139.672 25.1208C139.722 19.6371 139.687 14.1143 139.588 8.64852C139.546 8.57828 139.165 8.33637 139.121 8.33637H129.155L128.611 48.4488C126.512 48.5042 124.396 48.3738 122.297 48.4417C121.869 48.4558 120.716 48.8936 120.532 48.3473L120.989 8.58843C120.528 8.18809 119.985 8.49791 119.507 8.49869C116.417 8.50415 113.324 8.48152 110.235 8.49088L109.769 48.6041C106.008 48.4136 102.802 45.6441 102 41.9529C102.073 28.2868 102.273 14.6411 102.449 1H140.522C144.062 1 147.194 4.77705 147.449 8.10303C147.802 12.7104 147.311 17.5402 147.288 22.1405C147.197 40.7167 147.173 59.3007 146.977 77.8606C146.961 79.4127 146.896 81.3161 147.176 82.8253C147.259 83.2748 147.403 83.5347 147.808 83.7524C147.939 83.8234 149.018 84.1879 149.086 84.1879H160.998L161 84.1894Z" fill="white"/>
<path d="M155.824 15.2106C160.526 15.6891 167.794 14.2932 172.184 15.5182C175.021 16.3096 178.593 20.5634 178.827 23.4441C179.34 29.7978 178.536 36.9376 178.67 43.3514C178.075 45.1726 176.015 47.29 174.05 47.6379C171.519 48.0867 161.041 48.1535 158.616 47.6379C154.861 46.8389 151.722 43.1927 151.055 39.5487C151.505 33.2785 150.62 26.125 151.211 19.9581C151.417 17.8088 153.618 15.503 155.824 15.2099V15.2106ZM170.754 40.3857L170.992 22.7598C170.679 22.5228 170.286 22.4864 169.906 22.456C167.189 22.2396 162.874 22.295 160.121 22.4545C159.784 22.4742 159.447 22.4644 159.146 22.6406C159.141 23.0165 158.996 23.3864 158.966 23.7555C158.585 28.5485 159.247 33.7965 158.965 38.6381C158.865 39.5799 160.278 40.3849 161.059 40.3849H170.755L170.754 40.3857Z" fill="white"/>
<path d="M210.745 48H202.647L202.969 22.754L202.934 22.5561C202.765 22.5691 202.494 22.3797 202.413 22.3797H189.332L188.786 48H181L181.311 15.015L200.863 15.0088C205.024 14.8217 208.612 17.6322 210.306 21.2014C211.537 23.798 210.76 28.6053 210.738 31.5017C210.696 37.0001 210.782 42.5039 210.744 48H210.745Z" fill="white"/>
<path d="M189 52L188.845 58.407L175.203 58.4281L174.709 67.3922C174.692 67.5234 174.87 67.7812 174.947 67.7812H184.03L183.875 74.1875H175.412C175.37 74.1875 174.879 74.3727 174.86 74.4414C174.859 76.832 174.891 79.225 174.876 81.6164C174.87 82.4695 174.439 84.6812 175.276 85.2625C175.351 85.3148 175.993 85.5938 176.034 85.5938H188.689V92H174.947C173.391 92 171.044 90.0984 170.052 88.957C167.157 85.6258 168.16 82.7914 168.2 78.8031C168.269 71.7648 167.963 64.3687 168.342 57.3844C168.417 55.9906 168.443 54.807 169.356 53.7172C169.596 53.4312 171.348 52 171.532 52H189Z" fill="white"/>
<path d="M225.374 8.00077L225.2 14.829L230 14.9105L229.924 20.6904L229.681 21.2207H225.296L224.748 47.8151C222.742 47.8665 220.719 47.7459 218.711 47.8081C218.235 47.8227 217.291 48.164 216.906 47.9004C216.515 47.6337 216.908 46.4854 216.922 46.0527C217.124 39.7225 217.135 33.3246 217.236 26.9921C217.268 25.0191 217.198 23.0392 217.228 21.067C217.058 21.0086 216.886 21.2199 216.837 21.2199H213V15.4554C213 15.4139 213.186 14.9274 213.254 14.9082L217.22 14.756L217.228 8H225.373L225.374 8.00077Z" fill="white"/>
<path d="M256.063 92C254.108 91.7521 251.622 89.3424 250.756 87.6164C249.553 85.218 250.141 82.4336 250.161 79.8907C250.197 75.2543 250.072 70.6163 250.312 66.0016L256.3 66.1621L256.134 85.5084C256.165 86.1488 256.475 86.1801 256.999 86.2322C259.25 86.4569 263.543 86.3999 265.838 86.2298C266.129 86.2081 266.414 86.1784 266.675 86.0388L267.012 66L273 66.1605L272.684 91.9992H256.063V92Z" fill="white"/>
<path d="M207.23 67.0008C209.254 67.3202 212.171 70.2777 212.719 72.2444C213.299 74.3308 212.805 76.6911 212.786 78.799C212.747 83.1399 212.949 87.5179 212.626 91.831L206.848 92L206.925 72.5554H197.172C197.021 72.6526 196.975 72.7683 196.944 72.9412C196.784 73.8239 196.987 75.3501 196.95 76.3423C196.936 76.708 196.794 77.0452 196.785 77.4102C196.656 82.214 196.894 87.0418 196.792 91.8457L191 92L191.153 67H207.23V67.0008Z" fill="white"/>
<path d="M293.999 72.4787C293.827 73.0225 291.034 72.562 290.445 72.5482C287.488 72.4795 284.534 72.6006 281.597 72.7032C280.797 74.5806 281.824 75.0449 283.392 75.5625C286.08 76.4495 288.819 76.5305 291.074 78.4133C293.988 80.8468 294.101 83.4215 293.848 86.9851C293.683 89.3083 292.599 91.5783 289.961 91.8359C285.714 92.2509 280.423 91.7364 276.023 91.8298C275.62 91.8383 275.255 92.1422 275 91.7604V86.6696C275 86.6187 275.21 86.4351 275.158 86.2839H286.954C287.887 86.2839 288.095 83.1415 287.602 82.5669C286.673 81.484 280.482 80.8067 278.482 79.2664C275.653 77.0882 274.754 73.6427 275.389 70.2326C275.603 69.0818 277.507 67 278.721 67H293.762L294 67.2314V72.4764L293.999 72.4787Z" fill="white"/>
<path d="M233.837 67.0008V72.7461C232.259 72.5264 230.633 72.5567 229.034 72.5846C228.674 72.5908 228.341 72.7461 227.98 72.7523C227.144 72.7671 222.024 72.604 221.828 72.9231C221.986 76.6848 221.542 80.7376 221.809 84.4674C221.846 84.9915 222.002 85.6335 222.095 86.1615C222.127 86.2065 222.754 86.4099 222.797 86.4099H233.99C234.047 86.5769 233.838 86.7508 233.838 86.7981V92H221.731C219.812 92 216.438 88.3447 216.186 86.4736C216.575 81.3812 215.612 75.3354 216.19 70.3556C216.242 69.9099 216.376 69.4697 216.629 69.0947C216.922 68.6584 218.675 67 219.143 67H233.839L233.837 67.0008Z" fill="white"/>
<path d="M241.782 91.9092C239.698 91.5738 236.464 88.0934 236.192 85.9497C235.647 81.6599 236.446 75.9359 236.339 71.5406C236.337 64.6892 236.261 57.8276 236.486 51L242.321 51.1586C242.288 53.2983 242.36 55.446 242.326 57.5874C242.218 64.5489 242.245 71.539 242.173 78.5172C242.153 80.4366 241.85 82.4352 242.007 84.3831C242.086 85.3559 242.355 86.201 243.471 86.201H248L247.846 91.9092C245.996 91.6967 243.557 92.1946 241.782 91.9092Z" fill="white"/>
<path d="M243 31.1657L242.567 47.4084C242.473 47.5546 241.888 47.7413 241.698 47.772C240.481 47.9699 235.902 48.1873 234.955 47.7248C234.657 47.5786 233.071 45.7906 233.012 45.4802C233.034 43.1389 232.872 40.7812 233.307 38.4729C235.408 37.2292 237.918 36.9413 240.172 36.0424C240.544 35.6743 240.187 35.0753 240.197 34.6877C240.204 34.4478 240.323 34.2064 240.323 33.944C240.323 33.5265 240.167 31.4258 240.235 31.3134C240.596 30.7189 242.393 31.1499 243 31.1657ZM235.842 40.6852V45.1084L240.168 45.259L240.316 39.2601C240.102 39.0479 235.968 40.2796 235.842 40.6852Z" fill="white"/>
<path d="M254.247 47.555C254.165 47.8024 253.261 47.9061 252.98 47.9306C251.825 48.0299 247.668 48.0647 246.721 47.7417C246.384 47.6269 245.282 46.081 245.184 45.7076C244.903 44.6521 244.999 39.2506 245.109 37.9195C245.145 37.4662 245.266 37.041 245.399 36.6114C248.548 35.7255 254.707 35.1514 254.994 39.7047C255.031 40.2943 254.908 41.8795 254.358 42.1928C253.349 42.7669 251.172 43.0691 249.975 43.4751C249.237 43.7254 248.552 44.1099 247.828 44.3869L248.107 45.3336L254.248 45.258V47.5543L254.247 47.555ZM249.725 38.6366C249.304 38.6773 247.936 38.8454 247.731 39.1817C247.634 39.618 247.515 40.6906 247.87 40.9765C248.048 41.1403 248.223 41.1136 248.442 41.0847C248.815 41.0351 251.614 40.2343 251.775 40.0721C252.022 39.8232 252.146 38.8551 251.861 38.6566C251.625 38.4929 250.124 38.5973 249.725 38.6366Z" fill="white"/>
<path d="M136 66V73H127.831C127.064 73 125 70.6176 125 69.9884V66H136Z" fill="white"/>
<path d="M193 39.7287C193.018 39.5995 193.155 39.3821 193.184 39.219C194.406 38.8685 196.389 38.9079 197.512 39.5633C198.677 40.2431 198.875 41.0584 198.963 42.4007C199.077 44.1448 198.886 46.0614 198.934 47.8165C198.829 47.8393 198.647 48 198.594 48H193V39.7287Z" fill="white"/>
<path d="M165.989 51.201C166.032 51.421 165.941 51.5823 165.863 51.7761C165.35 53.0591 162.449 57.894 161.423 58.69C159.982 59.807 157.807 59.7144 156.04 60C155.813 59.7815 156.611 58.4475 156.77 58.1449C157.404 56.936 159.977 52.0818 160.762 51.4256C161.83 50.5347 164.621 51.3415 165.989 51.2017V51.201Z" fill="white"/>
<path d="M231 41.1579V43.6053L230.609 43.8421L226 44V41H230.609C230.661 41 230.847 41.2092 231 41.1579Z" fill="white"/>
</svg>
