<svg width="200" height="232" viewBox="0 0 200 232" fill="none" xmlns="http://www.w3.org/2000/svg">
<path d="M0 199.628L199.628 0L199.628 199.628L0 199.628Z" fill="#A80108"/>
<path d="M125.829 65.4395V70.9226L99.9386 97.1938L74.0617 70.9292V65.4395L67.0026 58.2698V66.5969H58.8093L65.8684 73.7534H68.6256V71.498L96.9403 100.23L65.7576 131.878V125.773L61.5339 130.053V138.995H70.3529L74.5766 134.716H68.958L99.9386 103.272L131.121 134.914H125.294L129.511 139.2H138.33V130.244L134.107 125.959V131.858L102.937 100.23L131.265 71.4848V73.7534H134.022L141.081 66.5969H132.888V58.2698L125.829 65.4395Z" fill="white"/>
<path d="M106.828 232L199.628 139.2V232H106.828Z" fill="#E2B87F"/>
</svg>
