<svg width="272" height="108" viewBox="0 0 272 108" fill="none" xmlns="http://www.w3.org/2000/svg">
<path fill-rule="evenodd" clip-rule="evenodd" d="M100.415 67.7354L118.507 56.9939L111.723 51.3402L103.525 53.6017L99.8503 60.3861L100.415 67.7354Z" fill="#F1CB25"/>
<path d="M7.03954 59.1004C7.03954 62.5528 8.11138 65.4142 10.247 67.6931C12.3826 69.9806 15.0583 71.1199 18.2743 71.1199C21.4988 71.1199 24.1827 69.9806 26.3183 67.6931C28.4538 65.4142 29.5257 62.5528 29.5257 59.1004C29.5257 55.6903 28.4539 52.8456 26.3016 50.55C24.149 48.2625 21.4732 47.1143 18.2743 47.1143C15.0754 47.1143 12.3996 48.254 10.2555 50.5415C8.1114 52.8204 7.03956 55.6733 7.03956 59.1004L7.03954 59.1004ZM0 59.1004C0 56.5851 0.447171 54.2217 1.35048 52.0187C2.24524 49.8238 3.57055 47.8486 5.31784 46.1013C7.04807 44.3882 9.01469 43.088 11.2092 42.2103C13.4126 41.3241 15.7675 40.885 18.2743 40.885C20.7896 40.885 23.1616 41.3326 25.3812 42.2189C27.5928 43.1136 29.5679 44.4048 31.2986 46.1013C33.0288 47.832 34.337 49.7986 35.2318 51.993C36.1181 54.196 36.5657 56.568 36.5657 59.1004C36.5657 61.658 36.1181 64.0381 35.2318 66.2411C34.337 68.436 33.0288 70.4026 31.2986 72.1328C29.5679 73.8293 27.5928 75.1209 25.3812 76.0157C23.1616 76.9019 20.7896 77.3491 18.2743 77.3491C15.7675 77.3491 13.4126 76.9019 11.2092 76.0157C9.01469 75.1209 7.04807 73.8293 5.31784 72.1328C3.57055 70.3855 2.24524 68.4104 1.35048 66.2159C0.447171 64.0129 0 61.6409 0 59.1004L0 59.1004Z" fill="#695B53"/>
<path d="M61.3307 50.4062V76.5896L55.3545 77.1972V73.2047C54.3672 74.5385 53.2612 75.5344 52.0289 76.2013C50.8051 76.8683 49.4461 77.1972 47.9689 77.1972C45.4114 77.1972 43.4614 76.3784 42.1024 74.7412C40.7434 73.1036 40.0598 70.7487 40.0598 67.6846V50.8115L46.5425 50.4062V65.7602C46.5425 67.9039 46.8126 69.3896 47.3613 70.2251C47.9015 71.061 48.8129 71.4744 50.1045 71.4744C51.6492 71.4744 52.8307 70.9428 53.6409 69.8791C54.4431 68.8157 54.848 67.254 54.848 65.1863V50.8115L61.3307 50.4062V50.4062Z" fill="#695B53"/>
<path d="M67.5177 76.995V56.4332H63.4155L64.9857 50.8116L67.5177 50.786C67.6696 47.3592 68.5644 44.7846 70.202 43.0629C71.8478 41.3407 74.2449 40.4801 77.3935 40.4801H78.7102L81.04 46.3548H79.3264C77.3597 46.3548 75.9841 46.6671 75.1904 47.2918C74.3972 47.9165 74.0004 48.9798 74.0004 50.4907V50.8116H79.8243V56.4332H74.0004V76.5896L67.5177 76.995H67.5177Z" fill="#695B53"/>
<path d="M83.319 76.995V56.4332H79.2168L80.787 50.8116L83.319 50.786C83.4709 47.3592 84.3657 44.7846 86.0033 43.0629C87.6491 41.3407 90.0462 40.4801 93.1947 40.4801H94.5115L96.8412 46.3548H95.1276C93.161 46.3548 91.7854 46.6671 90.9917 47.2918C90.1985 47.9165 89.8017 48.9798 89.8017 50.4907V50.8116H95.6256V56.4332H89.8017V76.5896L83.319 76.995H83.319Z" fill="#695B53"/>
<path d="M121.412 73.6945C119.648 74.8423 117.859 75.7034 116.052 76.2858C114.238 76.8597 112.355 77.1469 110.414 77.1469C108.498 77.1469 106.717 76.8175 105.054 76.1676C103.4 75.5178 101.914 74.5556 100.589 73.2892C99.2554 72.0061 98.2424 70.546 97.5418 68.9002C96.8412 67.2626 96.4866 65.5238 96.4866 63.6754C96.4866 61.7929 96.8326 60.0456 97.5166 58.4335C98.2001 56.8215 99.2216 55.3609 100.589 54.0612C101.914 52.7611 103.374 51.7904 104.995 51.1576C106.607 50.5244 108.413 50.2035 110.414 50.2035C113.115 50.2035 115.537 50.8619 117.682 52.1872C119.825 53.504 121.59 55.4288 122.974 57.9522L104.995 69.1025C105.771 69.8202 106.632 70.3689 107.595 70.7316C108.549 71.0947 109.595 71.2718 110.735 71.2718C111.883 71.2718 113.115 71.0354 114.415 70.5545C115.723 70.0818 117.184 69.3222 118.821 68.2841L121.412 73.6945H121.412ZM102.868 64.5783L114.567 57.4039C114.052 56.8296 113.436 56.391 112.727 56.1038C112.009 55.8166 111.199 55.6733 110.313 55.6733C108.169 55.6733 106.388 56.4076 104.961 57.8763C103.535 59.345 102.817 61.1938 102.817 63.439C102.817 63.7514 102.826 63.9873 102.834 64.1397C102.843 64.2997 102.851 64.4435 102.868 64.5783V64.5783Z" fill="#695B53"/>
<path d="M138.682 77.1469C138.564 77.1469 138.403 77.155 138.184 77.172C137.331 77.2228 136.749 77.248 136.454 77.248C133.044 77.248 130.553 76.3703 128.984 74.6145C127.405 72.8586 126.62 70.0732 126.62 66.2582V56.4332H122.518L124.088 50.8116H126.62V46.6078L133.052 43.4678V50.8116H139.028V56.4332H133.052V66.3004C133.052 68.3007 133.39 69.6512 134.065 70.3604C134.749 71.0695 135.981 71.4237 137.762 71.4237C138.311 71.4237 138.775 71.4156 139.163 71.407C139.552 71.3985 139.931 71.39 140.294 71.3733L138.682 77.1469H138.682Z" fill="#695B53"/>
<path fill-rule="evenodd" clip-rule="evenodd" d="M271.102 68.8494L214.887 69.7446L213.303 59.8301L238.138 55.6617C248.976 61.9033 260.014 66.2978 271.102 68.8494V68.8494ZM163.255 70.5664L147.877 70.8114L163.227 68.235L163.255 70.5664Z" fill="#75A6B1"/>
<path fill-rule="evenodd" clip-rule="evenodd" d="M163.131 60.2107L147.563 69.2868L163.2 65.9608L163.131 60.2107Z" fill="#83B9C5"/>
<path fill-rule="evenodd" clip-rule="evenodd" d="M208.946 33.4999L203.48 36.6864L205.759 37.3627C205.759 37.3627 209.067 45.9635 214.871 49.5686L214.919 54.9594L231.332 51.4678C223.415 46.2771 215.913 40.2326 208.946 33.4999Z" fill="#83B9C5"/>
<path fill-rule="evenodd" clip-rule="evenodd" d="M202.096 26.4753L196.521 30.6713L196.364 28.9202L182.443 21.0926L167.639 28.1061L182.09 0C187.917 9.46058 194.641 18.3677 202.096 26.4753ZM163.078 55.8461L147.249 67.7618L162.858 37.4049L163.078 55.8461Z" fill="#75A6B1"/>
<path d="M16.3861 86.1266H13.3447L13.8537 83.4453H17.0812L17.2553 82.5637H12.985L11.396 90.9307H15.8523L16.0264 90.0491H12.6001L13.171 86.9957H16.2125L16.3861 86.1266Z" fill="#75A6B1"/>
<path d="M18.2235 90.9307L19.9119 82.117H18.8814L17.2058 90.9307H18.2235Z" fill="#75A6B1"/>
<path d="M21.0662 90.9307L22.7547 82.117H21.7242L20.0486 90.9307H21.0662Z" fill="#75A6B1"/>
<path d="M27.0621 89.8136C26.6896 90.012 26.1558 90.2356 25.4483 90.2356C24.8275 90.2356 24.3436 89.9625 24.1076 89.4287C23.9711 89.1057 23.934 88.5472 23.9835 88.2865C26.2057 88.3236 27.9807 87.9016 27.9807 86.325C27.9807 85.4686 27.3599 84.7859 26.2181 84.7859C24.2813 84.7859 22.9407 86.834 22.9407 88.6466C22.9407 89.9749 23.6357 91.0549 25.2247 91.0549C26.0316 91.0549 26.7642 90.8437 27.211 90.5829L27.0621 89.8136L27.0621 89.8136ZM26.9874 86.3625C26.9874 87.2936 25.7214 87.5044 24.1077 87.492C24.356 86.5486 25.0882 85.5928 26.0692 85.5928C26.6153 85.5928 26.9874 85.8659 26.9874 86.3625L26.9874 86.3625Z" fill="#75A6B1"/>
<path d="M29.5072 90.9307L30.0658 87.914C30.3017 86.6356 31.2328 85.6423 31.9901 85.6423C32.7471 85.6423 32.8836 86.1637 32.8836 86.6728C32.8836 86.9087 32.8589 87.1447 32.8094 87.4054L32.1391 90.9307H33.132L33.7157 87.8521C33.964 86.5115 34.8451 85.6423 35.5901 85.6423C36.2605 85.6423 36.496 86.0519 36.496 86.6851C36.496 86.9335 36.4589 87.2437 36.4094 87.4673L35.7638 90.9307H36.7695L37.4398 87.3802C37.5017 87.0453 37.5388 86.648 37.5388 86.3625C37.5388 85.2327 36.7819 84.7859 36.0864 84.7859C35.1805 84.7983 34.4108 85.2574 33.877 86.1266C33.8275 85.3692 33.3927 84.7859 32.474 84.7859C31.6795 84.7859 30.9226 85.2203 30.364 86.0519H30.3265L30.4878 84.9224H29.5819C29.5196 85.4191 29.433 86.0024 29.3088 86.6727L28.502 90.9307H29.5072H29.5072Z" fill="#75A6B1"/>
<path d="M42.7156 89.8136C42.3431 90.012 41.8093 90.2356 41.1019 90.2356C40.4811 90.2356 39.9972 89.9625 39.7612 89.4287C39.6247 89.1057 39.5876 88.5472 39.6371 88.2865C41.8593 88.3236 43.6343 87.9016 43.6343 86.325C43.6343 85.4686 43.0135 84.7859 41.8716 84.7859C39.9349 84.7859 38.5942 86.834 38.5942 88.6466C38.5942 89.9749 39.2893 91.0549 40.8783 91.0549C41.6852 91.0549 42.4178 90.8437 42.8645 90.5829L42.7156 89.8136L42.7156 89.8136ZM42.641 86.3625C42.641 87.2936 41.375 87.5044 39.7612 87.492C40.0096 86.5486 40.7418 85.5928 41.7227 85.5928C42.2689 85.5928 42.641 85.8659 42.641 86.3625L42.641 86.3625Z" fill="#75A6B1"/>
<path d="M45.1856 90.9307L46.874 82.117H45.8436L44.168 90.9307H45.1856Z" fill="#75A6B1"/>
<path d="M48.0282 90.9307L49.7166 82.117H48.6861L47.0105 90.9307H48.0282Z" fill="#75A6B1"/>
<path d="M54.0242 89.8136C53.6517 90.012 53.1179 90.2356 52.4105 90.2356C51.7896 90.2356 51.3058 89.9625 51.0698 89.4287C50.9333 89.1057 50.8962 88.5472 50.9456 88.2865C53.1679 88.3236 54.9429 87.9016 54.9429 86.325C54.9429 85.4686 54.3221 84.7859 53.1802 84.7859C51.2435 84.7859 49.9028 86.834 49.9028 88.6466C49.9028 89.9749 50.5979 91.0549 52.1869 91.0549C52.9938 91.0549 53.7264 90.8437 54.1731 90.5829L54.0242 89.8136L54.0242 89.8136ZM53.9495 86.3625C53.9495 87.2936 52.6836 87.5044 51.0698 87.492C51.3182 86.5486 52.0504 85.5928 53.0313 85.5928C53.5775 85.5928 53.9496 85.8659 53.9496 86.3625L53.9495 86.3625Z" fill="#75A6B1"/>
<path d="M57.9713 87.1694L57.8101 87.9763H60.7896L60.9385 87.1694H57.9713Z" fill="#75A6B1"/>
<path d="M68.4489 82.4272C67.3941 82.4272 66.3513 82.862 65.6434 83.557C64.6257 84.5623 64.042 86.1885 64.042 87.6661C64.042 89.4411 65.0601 91.0672 67.22 91.0672C68.3746 91.0672 69.3428 90.6328 70.0878 89.9002C71.0807 88.9073 71.6021 87.3059 71.6021 85.8535C71.6021 84.0661 70.6958 82.4272 68.4489 82.4272V82.4272ZM68.3123 83.2963C70.1373 83.2963 70.5221 84.7113 70.5221 85.903C70.5221 87.07 70.063 88.5719 69.2809 89.3664C68.7595 89.8878 68.0768 90.1985 67.3689 90.1985C65.7304 90.1985 65.1224 88.9444 65.1224 87.579C65.1224 86.412 65.5939 84.9472 66.4007 84.1403C66.9098 83.6189 67.5677 83.2963 68.3123 83.2963V83.2963Z" fill="#75A6B1"/>
<path d="M76.9899 84.9225L76.4062 88.001C76.1583 89.3293 75.2021 90.1985 74.4575 90.1985C73.7501 90.1985 73.4894 89.7761 73.4894 89.1557C73.4894 88.8949 73.5265 88.6095 73.6007 88.2741L74.2339 84.9225H73.2035L72.5583 88.3236C72.4837 88.7209 72.4465 89.0439 72.4465 89.3293C72.4465 90.6947 73.2534 91.0672 74.0232 91.0672C74.8177 91.0672 75.6117 90.5829 76.1455 89.8012H76.1707L76.009 90.9307H76.94C77.0023 90.434 77.0893 89.8507 77.2131 89.1804L78.0204 84.9225H76.9899L76.9899 84.9225Z" fill="#75A6B1"/>
<path d="M86.7346 82.1417C86.5857 82.0551 86.3126 81.9804 85.903 81.9804C85.3816 81.9804 84.8602 82.1664 84.4753 82.5142C83.9415 82.9985 83.6437 83.7678 83.4948 84.6123L83.4325 84.9225H80.9995L81.049 84.6741C81.2103 83.8054 81.5333 82.9733 82.3525 82.9733C82.5386 82.9733 82.725 83.0232 82.8492 83.0975L83.1594 82.2906C82.9734 82.1916 82.7003 82.117 82.3896 82.117C81.7568 82.117 81.2849 82.3405 80.9372 82.6879C80.4409 83.1969 80.1679 83.9419 80.0313 84.6494L79.9814 84.9225H79.1745L79.0256 85.7293H79.8201L78.8396 90.9307H79.8696L80.8506 85.7293H83.2836L82.2907 90.9307H83.3207L84.3017 85.7293H85.6423L85.7912 84.9225H84.463L84.5125 84.637C84.6865 83.6437 85.0834 82.8492 85.903 82.8492C86.1386 82.8492 86.3498 82.8867 86.5111 82.961L86.7347 82.1417H86.7346Z" fill="#75A6B1"/>
<path d="M89.8379 89.8136C89.4654 90.012 88.9317 90.2356 88.2242 90.2356C87.6034 90.2356 87.1195 89.9625 86.8835 89.4287C86.747 89.1057 86.7099 88.5472 86.7594 88.2865C88.9816 88.3236 90.7566 87.9016 90.7566 86.325C90.7566 85.4686 90.1358 84.7859 88.994 84.7859C87.0572 84.7859 85.7166 86.834 85.7166 88.6466C85.7166 89.9749 86.4116 91.0549 88.0006 91.0549C88.8075 91.0549 89.5401 90.8437 89.9869 90.5829L89.838 89.8136L89.8379 89.8136ZM89.7633 86.3625C89.7633 87.2936 88.4973 87.5044 86.8835 87.492C87.1319 86.5486 87.8641 85.5928 88.845 85.5928C89.3912 85.5928 89.7633 85.8659 89.7633 86.3625L89.7633 86.3625Z" fill="#75A6B1"/>
<path d="M92.904 83.5694L92.6433 84.9224H91.7865L91.6252 85.7293H92.4944L91.8983 88.7707C91.8117 89.2051 91.7742 89.5529 91.7742 89.9002C91.7742 90.5087 92.1219 91.0672 93.0406 91.0672C93.3384 91.0672 93.6486 91.0301 93.8351 90.9554L93.8846 90.1485C93.7481 90.1733 93.5744 90.1857 93.4007 90.1857C93.0035 90.1857 92.8294 89.9749 92.8294 89.6148C92.8294 89.2922 92.8793 88.9815 92.9412 88.6466L93.4997 85.7293H94.9398L95.1011 84.9224H93.661L93.9717 83.3087L92.9041 83.5694H92.904Z" fill="#75A6B1"/>
<path d="M97.6708 87.1694L97.5095 87.9763H100.489L100.638 87.1694H97.6708Z" fill="#75A6B1"/>
<path d="M105.864 90.9307L108.198 85.9653C108.545 85.2079 108.769 84.5623 109.042 83.7678H109.079C109.03 84.7236 109.017 85.1955 109.054 86.1761L109.278 90.9307H110.358L114.243 82.5637H113.163L110.916 87.5914C110.594 88.3488 110.345 89.0191 110.097 89.7389H110.072C110.085 89.1928 110.085 88.4602 110.048 87.3802L109.874 82.5637H108.769L106.46 87.6409C105.988 88.6714 105.79 89.2175 105.591 89.7637H105.566C105.578 89.2299 105.603 88.659 105.566 87.579L105.392 82.5637H104.35L104.759 90.9307H105.864H105.864Z" fill="#75A6B1"/>
<path d="M118.266 90.9307C118.241 90.2604 118.328 89.1928 118.527 88.15L119.135 85.0219C118.725 84.8853 118.092 84.7859 117.521 84.7859C114.901 84.7859 113.362 86.9957 113.362 89.081C113.362 90.2232 114.033 91.0672 115.088 91.0672C115.944 91.0672 116.763 90.6205 117.421 89.3788H117.446C117.372 89.9996 117.31 90.5706 117.31 90.9307H118.266L118.266 90.9307ZM117.633 87.5044C117.335 89.1057 116.317 90.2232 115.46 90.2232C114.666 90.2232 114.43 89.5653 114.43 88.8949C114.442 87.2313 115.708 85.6052 117.26 85.6052C117.608 85.6052 117.831 85.6547 117.98 85.6922L117.633 87.5044H117.633Z" fill="#75A6B1"/>
<path d="M120.835 90.9307L121.332 88.2865C121.593 86.8839 122.387 85.804 123.281 85.804C123.392 85.804 123.492 85.8164 123.554 85.8287L123.752 84.8107C123.678 84.7983 123.554 84.7859 123.467 84.7859C122.66 84.7859 122.015 85.4067 121.63 86.226H121.593C121.654 85.7664 121.704 85.3444 121.754 84.9224H120.848C120.786 85.481 120.686 86.2755 120.537 87.0576L119.805 90.9307H120.835L120.835 90.9307Z" fill="#75A6B1"/>
<path d="M123.244 90.9307H127.837L127.998 90.0867H124.671V90.0491C125.056 89.7142 125.379 89.3912 125.913 88.8079L128.793 85.6051L128.929 84.9224H124.609L124.448 85.7664H127.526L127.514 85.804C127.117 86.1884 126.782 86.4991 126.273 87.0576L123.355 90.2975L123.244 90.9307L123.244 90.9307Z" fill="#75A6B1"/>
<path d="M132.951 82.4148L131.722 84.1902H132.529L134.18 82.4148H132.951ZM133.125 89.8136C132.752 90.012 132.219 90.2356 131.511 90.2356C130.89 90.2356 130.406 89.9625 130.17 89.4287C130.034 89.1057 129.997 88.5472 130.046 88.2865C132.268 88.3236 134.043 87.9016 134.043 86.325C134.043 85.4686 133.423 84.7859 132.281 84.7859C130.344 84.7859 129.003 86.834 129.003 88.6466C129.003 89.9749 129.698 91.0548 131.287 91.0548C132.094 91.0548 132.827 90.8436 133.274 90.5829L133.125 89.8136L133.125 89.8136ZM133.05 86.3625C133.05 87.2936 131.784 87.5043 130.17 87.492C130.419 86.5486 131.151 85.5928 132.132 85.5928C132.678 85.5928 133.05 85.8659 133.05 86.3625L133.05 86.3625Z" fill="#75A6B1"/>
<path d="M138.748 89.8136C138.376 90.012 137.842 90.2356 137.134 90.2356C136.514 90.2356 136.03 89.9625 135.794 89.4287C135.657 89.1057 135.62 88.5472 135.67 88.2865C137.892 88.3236 139.667 87.9016 139.667 86.325C139.667 85.4686 139.046 84.7859 137.904 84.7859C135.967 84.7859 134.627 86.834 134.627 88.6466C134.627 89.9749 135.322 91.0549 136.911 91.0549C137.718 91.0549 138.45 90.8437 138.897 90.5829L138.748 89.8136L138.748 89.8136ZM138.673 86.3625C138.673 87.2936 137.407 87.5044 135.794 87.492C136.042 86.5486 136.774 85.5928 137.755 85.5928C138.301 85.5928 138.673 85.8659 138.673 86.3625L138.673 86.3625Z" fill="#75A6B1"/>
<path fill-rule="evenodd" clip-rule="evenodd" d="M172.048 33.1342L174.455 31.9599L174.291 37.9596L171.895 38.9773L172.048 33.1342Z" fill="#81766F"/>
<path fill-rule="evenodd" clip-rule="evenodd" d="M271.102 73.0477L147.877 72.0518L238.139 79.7425C248.975 76.5739 260.014 74.3431 271.102 73.0477V73.0477Z" fill="#93A134"/>
<path fill-rule="evenodd" clip-rule="evenodd" d="M208.946 90.9934L147.563 72.8258L231.331 81.872C223.415 84.5068 215.914 87.5756 208.946 90.9934Z" fill="#F1CB25"/>
<path fill-rule="evenodd" clip-rule="evenodd" d="M202.095 94.5592L147.249 73.5998L182.091 108C187.917 103.198 194.641 98.6755 202.095 94.5592Z" fill="#695B53"/>
<path fill-rule="evenodd" clip-rule="evenodd" d="M162.799 45.1805L162.774 30.411L174.697 22.0296L183.297 17.5382C183.297 17.5382 192.775 25.5523 197.674 27.4042V34.9621L205.759 37.3627C205.759 37.3627 209.067 45.9635 214.871 49.5686L215.044 69.0829L214.287 69.1196L212.851 51.5382L197.674 48.6858L198.109 63.7172H197.03L196.364 28.9202L184.336 24.3406L183.985 43.8433L182.438 36.4679L182.443 24.3943L163.732 31.6481L162.868 41.0877L162.799 45.1805L162.799 45.1805Z" fill="#695B53"/>
</svg>
