<svg width="2149" height="3966" viewBox="0 0 2149 3966" fill="none" xmlns="http://www.w3.org/2000/svg">
<path fill-rule="evenodd" clip-rule="evenodd" d="M1422.84 3846.54L1423.34 3845.97C1256.34 3325.46 1196.4 2828.35 1208.38 2375.77C1244.93 992.389 1911.56 19.3542 1911.56 19.3542L2025.91 111.911C1454.13 1337.56 2131.46 2294.17 2131.46 2294.17C1546.47 2827.67 1674.06 3687.26 1674.06 3687.26L1422.81 3846.54H1422.84Z" fill="white"/>
<path fill-rule="evenodd" clip-rule="evenodd" d="M1418.69 3857.58L1410.73 3849.94C1256.94 3370.63 1193.62 2910.93 1193.62 2487.39C1193.62 2449.78 1194.12 2412.36 1195.15 2375.43C1231.85 987.83 1899.92 12.9394 1900.62 11.8109L1908.6 0L2042.22 108.054L2037.82 117.382C1869.05 479.383 1809.71 817.486 1809.71 1114.06C1809.71 1465.36 1892.99 1758.75 1976.23 1964.15C2059.41 2169.65 2142 2286.13 2142.2 2286.43L2149 2295.98L2140.34 2303.88C1737.26 2671.17 1675.36 3196.77 1675.41 3482.42C1675.41 3606.95 1687.15 3685.01 1687.15 3685.21L1688.32 3693.68L1429.79 3857.58H1418.69ZM1585.85 683.805C1415.13 1098.82 1239.73 1686.4 1221.52 2376.15C1220.49 2412.84 1220.04 2450 1220.04 2487.39C1220.04 2903.53 1281.53 3354.93 1430.74 3825.71L1659.88 3680.49C1656.85 3656.7 1649.07 3584.8 1649.07 3482.49C1649.17 3195.49 1710.09 2667.29 2114.15 2292.1C2067.09 2221.23 1783.39 1767.18 1783.29 1114.11C1783.29 816.509 1842.31 477.678 2009.5 115.677L1914.48 38.8181C1879.63 92.2807 1734.73 321.954 1585.85 683.805Z" fill="white"/>
<path fill-rule="evenodd" clip-rule="evenodd" d="M2117.25 2304.03C1937.62 2304.13 1830.47 2256.99 1768.68 2192.47C1706.99 2127.87 1692.3 2048.08 1692.3 1986.87C1692.3 1945.82 1698.91 1912.72 1702.68 1896.92C1561.18 1809.23 1512.45 1646.71 1512.5 1465.03C1512.7 1117.35 1688.3 688.52 1756.85 518.629C1903.78 155.173 1950.06 70.1144 1950.61 69.2869L1973.7 81.8501C1973.6 82.4268 1928.09 165.655 1781.36 528.534C1712.62 697.773 1538.82 1125.55 1539.02 1465.03C1539.12 1646.63 1588.05 1799.85 1724.7 1879.32L1733.71 1884.56L1730.63 1894.66C1730.83 1894.76 1718.64 1933.46 1718.64 1986.87C1720.7 2100.99 1767.28 2275.6 2117.23 2277.55H2123.68V2304.03H2117.23H2117.25Z" fill="white"/>
<path fill-rule="evenodd" clip-rule="evenodd" d="M1077.69 3650.63C1125.8 3746.12 1205.68 3896.67 1205.68 3896.67L1388.74 3733.5C1104.51 2725.61 1238.08 1977.29 1238.08 1977.29C884.029 1470.32 1031.93 1044.37 1031.93 1044.37L952.728 1004.65C812.003 1260.33 732.847 1624.09 732.847 1624.09C559.349 2568.53 1014.2 3517.09 1014.2 3517.09C1014.2 3517.09 1029.51 3555.11 1077.67 3650.6H1077.69V3650.63Z" fill="white"/>
<path fill-rule="evenodd" clip-rule="evenodd" d="M1194 3902.94C1194 3902.94 1114.14 3752.28 1065.91 3656.59L1077.69 3650.65L1089.42 3644.71C1128.43 3721.89 1188.12 3835.34 1209.41 3875.61L1373.73 3729.16C1228.65 3211.51 1193.47 2762.7 1193.47 2448.67C1193.47 2181.58 1218.97 2011.99 1224.1 1980.34C1032.18 1703.58 987.902 1450.23 988.003 1276.65C988.003 1160.17 1007.77 1079.6 1015.95 1051.24L958.256 1022.3C822.535 1274.72 745.806 1626.29 745.806 1626.52C718.211 1776.87 706.603 1927.46 706.603 2074.38C706.503 2459.32 786.46 2818.92 866.416 3082.04C946.323 3345.12 1025.88 3511.07 1026.55 3512.2C1026.55 3512.3 1041.44 3549.47 1089.42 3644.73L1077.69 3650.67L1065.91 3656.62C1017.62 3560.88 1002.06 3522.48 1002.29 3522.88C1001.94 3521.86 680.234 2851.62 680.134 2074.33C680.134 1925.98 691.867 1773.89 719.962 1621.3C720.162 1620.62 799.118 1256.57 941.169 998.306L947.274 987.172L1048.17 1037.7L1044.39 1048.73C1044.69 1048.94 1014.5 1134.42 1014.5 1276.6C1014.5 1446.59 1057.7 1695.78 1248.86 1969.69L1252.04 1974.3L1251.11 1979.64C1251.21 1980.09 1219.84 2153.85 1219.84 2448.64C1219.84 2762.27 1255.32 3211.71 1401.42 3729.86L1403.67 3737.86L1201.88 3917.81L1194.05 3902.94H1194Z" fill="white"/>
<path fill-rule="evenodd" clip-rule="evenodd" d="M1239.71 3748.95L985.751 3930.85C-845.049 2218.09 471.111 313.624 471.111 313.624L556.922 356.579C408.466 1583.31 1111.09 2115.63 1111.09 2115.63C815.855 2681.05 1223.24 3706.02 1223.24 3706.02L1239.73 3748.97H1239.71V3748.95Z" fill="white"/>
<path fill-rule="evenodd" clip-rule="evenodd" d="M976.693 3940.57C223.133 3235.8 -0.125036 2496.57 5.2528e-05 1870.97C0.200195 971.459 459.551 307.264 460.177 306.136L466.731 296.632L571.155 348.916L570.03 358.144C555.845 474.824 549.49 585.159 549.49 689.301C549.49 1182.1 692.316 1536.05 834.843 1766.95C977.419 1997.91 1118.59 2104.76 1119.02 2105.06L1127.93 2111.78L1122.7 2121.73C1045.59 2269.26 1016.82 2450.18 1016.82 2636.3C1016.72 3150.09 1234.95 3700.16 1235.58 3701.19L1252.01 3744.14L1255.69 3753.7L984.574 3947.91L976.693 3940.51V3940.57ZM26.3938 1870.97C26.594 2488.05 244.724 3215.56 986.825 3913.76L1223.64 3744.12L1211.01 3710.92C1210.81 3710.09 990.578 3157.26 990.528 2636.32C990.528 2451.49 1018.22 2270.36 1094.35 2119.2C1021.88 2059.52 523.096 1614.64 523.096 689.326C523.096 586.965 529.176 478.635 542.66 364.312L475.813 330.811C421.649 414.916 26.2937 1042.3 26.4438 1870.95H26.3938V1870.97Z" fill="white"/>
<path fill-rule="evenodd" clip-rule="evenodd" d="M490.899 2619.97C490.799 2534.73 512.814 2490.05 526.624 2470.49C470.059 2425.02 454.298 2360.1 454.498 2304.43C454.548 2249.74 468.883 2202.22 475.438 2183.29C408.74 2120.62 387.751 2045.32 387.951 1978.54C388.051 1891.1 422.2 1817.22 433.808 1794.43C312.797 1604.88 270.717 1395.22 270.717 1195.51C270.918 734.205 494.376 324.785 494.776 323.757L517.918 336.47C518.368 337.298 297.011 742.606 297.136 1195.48C297.136 1393.81 339.366 1600.49 460.177 1786.46L464.58 1793.33L460.577 1800.25C460.977 1800.65 414.144 1882.1 414.344 1978.51C414.444 2042.13 433.858 2110.89 499.63 2169.6L506.585 2175.71L503.107 2184.44C503.458 2184.54 480.792 2239.86 480.892 2304.41C481.092 2359.2 496.403 2417.9 553.318 2457.32L567.703 2467.23L554.344 2478.41C554.744 2478.99 546.563 2484.3 536.981 2505.72C527.4 2527.06 517.317 2562.99 517.317 2619.94C517.117 2790.96 610.133 3151.08 1082.39 3858.46H1082.49L1060.43 3873.03C586.992 3163.64 491.074 2800.54 490.849 2619.92L490.899 2619.97Z" fill="white"/>
<path fill-rule="evenodd" clip-rule="evenodd" d="M1240.13 3748.96L1158.47 3806.43C503.159 2613.98 735.574 1613.03 735.574 1613.03C896.263 1948.25 1110.67 2114.41 1110.67 2114.41C835.195 2626.52 1183.62 3596.52 1183.62 3596.52L1240.13 3748.96Z" fill="white"/>
<path fill-rule="evenodd" clip-rule="evenodd" d="M1146.91 3812.82C762.24 3112.82 682.283 2478.44 682.283 2072.2C682.283 1784.08 722.512 1610.8 722.737 1610.02L731.193 1573.39L747.479 1607.19C906.943 1939.85 1118.32 2103.47 1118.72 2103.9L1127.62 2110.72L1122.3 2120.58C1045.77 2262.71 1017.77 2442.5 1017.87 2627.39C1017.67 3095.01 1195.62 3591.1 1196.02 3591.85L1252.59 3744.29L1256.02 3753.84L1153.94 3825.69L1146.94 3812.8H1146.91V3812.82ZM708.752 2072.2C708.752 2472.45 787.032 3096.97 1162.97 3787.07L1224.14 3744.01L1171.16 3601C1170.96 3600.18 991.478 3101.38 991.377 2627.39C991.377 2444.01 1018.25 2264.04 1093.93 2117.82C1053.7 2084.11 881.474 1930.32 741.1 1654.01C729.592 1719.23 708.752 1865.4 708.752 2072.2Z" fill="white"/>
<path fill-rule="evenodd" clip-rule="evenodd" d="M1368.77 3734.49L1478.12 3643.46C1462.46 3599.18 1395.87 3395.53 1395.77 3125.16C1395.77 2912.16 1437.17 2657.61 1577.92 2407.5C1534.36 2371.32 1339.35 2202.7 1224.74 1985.19H1224.84L1248.14 1972.78C1373.83 2212.06 1602.59 2393.68 1603.11 2393.91L1611.97 2400.98L1606.39 2410.94C1464.01 2659.24 1422.26 2912.81 1422.26 3125.16C1422.16 3426.1 1505.87 3642.43 1506.07 3642.96L1509.55 3651.74L1385.71 3754.88L1368.82 3734.51H1368.77V3734.49Z" fill="white"/>
</svg>
