<svg width="207" height="80" viewBox="0 0 207 80" fill="none" xmlns="http://www.w3.org/2000/svg">
<path d="M206.32 37.7812V43.2656H188.156V37.7812H206.32ZM190.453 9.14062V43.2656H183.422V9.14062H190.453ZM203.953 23.0391V28.3828H188.156V23.0391H203.953ZM206.297 9.14062V14.6484H188.156V9.14062H206.297Z" fill="#415464"/>
<path d="M177.305 9.14062V43.2656H170.273L156.562 20.3906V43.2656H149.531V9.14062H156.562L170.297 32.0391V9.14062H177.305Z" fill="#415464"/>
<path d="M136.734 9.14062H143.742V31.6875C143.742 34.3125 143.18 36.5234 142.055 38.3203C140.945 40.1172 139.406 41.4688 137.438 42.375C135.484 43.2812 133.234 43.7344 130.688 43.7344C128.141 43.7344 125.875 43.2812 123.891 42.375C121.922 41.4688 120.375 40.1172 119.25 38.3203C118.141 36.5234 117.586 34.3125 117.586 31.6875V9.14062H124.617V31.6875C124.617 33.2188 124.859 34.4688 125.344 35.4375C125.828 36.4062 126.523 37.1172 127.43 37.5703C128.352 38.0234 129.438 38.25 130.688 38.25C131.969 38.25 133.055 38.0234 133.945 37.5703C134.852 37.1172 135.539 36.4062 136.008 35.4375C136.492 34.4688 136.734 33.2188 136.734 31.6875V9.14062Z" fill="#415464"/>
<path d="M87.5625 14.9766L78.2812 43.2656H70.8047L83.4844 9.14062H88.2422L87.5625 14.9766ZM95.2734 43.2656L85.9688 14.9766L85.2188 9.14062H90.0234L102.773 43.2656H95.2734ZM94.8516 30.5625V36.0703H76.8281V30.5625H94.8516Z" fill="#415464"/>
<path d="M69.1875 37.7812V43.2656H52.0078V37.7812H69.1875ZM54.2812 9.14062V43.2656H47.25V9.14062H54.2812Z" fill="#415464"/>
<path d="M16.9219 14.9766L7.64062 43.2656H0.164062L12.8438 9.14062H17.6016L16.9219 14.9766ZM24.6328 43.2656L15.3281 14.9766L14.5781 9.14062H19.3828L32.1328 43.2656H24.6328ZM24.2109 30.5625V36.0703H6.1875V30.5625H24.2109ZM14.8828 0L19.5 7.21875H13.9688L7.54688 0H14.8828Z" fill="#415464"/>
<rect y="73.2656" width="94" height="6" fill="#E61849"/>
</svg>
