<svg xmlns="http://www.w3.org/2000/svg" width="14" height="14" viewBox="0 0 14 14">
  <g id="Groupe_727" data-name="Groupe 727" transform="translate(167.935 -1302.285)">
    <g id="Groupe_726" data-name="Groupe 726" transform="translate(-918.434 1542.948) rotate(-90)">
      <path id="Tracé_802" data-name="Tracé 802" d="M-21.218-10.564a1.787,1.787,0,0,1-1.787,1.787,1.786,1.786,0,0,1-1.787-1.787,1.787,1.787,0,0,1,1.787-1.787,1.787,1.787,0,0,1,1.787,1.787" transform="translate(256.668 768.063)"/>
      <path id="Tracé_803" data-name="Tracé 803" d="M-41.562-15.2a4.433,4.433,0,0,0-4.428,4.428,4.433,4.433,0,0,0,4.428,4.428,4.433,4.433,0,0,0,4.428-4.428A4.433,4.433,0,0,0-41.562-15.2m0,11.428a7.008,7.008,0,0,1-7-7,7.008,7.008,0,0,1,7-7,7.008,7.008,0,0,1,7,7,7.008,7.008,0,0,1-7,7" transform="translate(275.224 768.275)"/>
    </g>
  </g>
</svg>
