<svg xmlns="http://www.w3.org/2000/svg" width="23.389" height="23.208" viewBox="0 0 23.389 23.208">
  <g id="Groupe_721" data-name="Groupe 721" transform="translate(-1839 332.909)">
    <g id="Groupe_720" data-name="Groupe 720" transform="translate(1726.974 -447)">
      <path id="Tracé_831" data-name="Tracé 831" d="M-18.822-9.389a2.973,2.973,0,0,1-2.985,2.962,2.973,2.973,0,0,1-2.985-2.962,2.973,2.973,0,0,1,2.985-2.962,2.974,2.974,0,0,1,2.985,2.962" transform="translate(145.527 135.084)" fill="#e7255b"/>
      <path id="Tracé_832" data-name="Tracé 832" d="M-36.867-13.513a7.378,7.378,0,0,0-7.4,7.341,7.378,7.378,0,0,0,7.4,7.341,7.378,7.378,0,0,0,7.4-7.341,7.378,7.378,0,0,0-7.4-7.341m0,18.945a11.663,11.663,0,0,1-11.695-11.6,11.663,11.663,0,0,1,11.695-11.6,11.663,11.663,0,0,1,11.694,11.6,11.663,11.663,0,0,1-11.694,11.6" transform="translate(160.588 131.867)" fill="#e7255b"/>
    </g>
  </g>
</svg>
