<svg xmlns="http://www.w3.org/2000/svg" width="310.501" height="432" viewBox="0 0 310.501 432">
  <path id="Intersection_2" data-name="Intersection 2" d="M121.5,430.959V335.345A136.143,136.143,0,0,0,216.007,373.4c75.341,0,136.634-61.305,136.634-136.647S291.348,100.107,216.007,100.107A136.146,136.146,0,0,0,121.5,138.155V42.541A214.726,214.726,0,0,1,216.007,20.75c119.1,0,215.994,96.9,215.994,216s-96.9,216-215.994,216A214.732,214.732,0,0,1,121.5,430.959Zm39.37-194.208a55.138,55.138,0,1,1,55.138,55.136A55.132,55.132,0,0,1,160.87,236.751Z" transform="translate(-121.5 -20.75)" fill="#fff0f3"/>
</svg>
