<svg xmlns="http://www.w3.org/2000/svg" width="362" height="230" viewBox="0 0 362 230">
  <path id="Intersection_1" data-name="Intersection 1" d="M10,249.386A181.805,181.805,0,0,1,16.522,201H87.169a114.548,114.548,0,0,0-10.656,48.386c0,63.347,51.359,114.893,114.493,114.893S305.5,312.733,305.5,249.386A114.544,114.544,0,0,0,294.844,201h70.635A181.811,181.811,0,0,1,372,249.386C372,349.527,290.8,431,191.006,431S10,349.527,10,249.386Zm134.8,0a46.2,46.2,0,1,1,46.2,46.357A46.278,46.278,0,0,1,144.8,249.388Z" transform="translate(-10 -201)" fill="#e7255b"/>
</svg>
