<svg xmlns="http://www.w3.org/2000/svg" width="535.622" height="535.623" viewBox="0 0 535.622 535.623">
  <g id="Groupe_721" data-name="Groupe 721" transform="translate(969.205 -2212.189)">
    <g id="Groupe_720" data-name="Groupe 720" transform="translate(-969.205 2212.189)">
      <path id="Tracé_802" data-name="Tracé 802" d="M111.936,56.015A68.364,68.364,0,1,1,43.572-12.351a68.351,68.351,0,0,1,68.364,68.366" transform="translate(224.25 211.802)" fill="#713475" opacity="0.15"/>
      <path id="Tracé_803" data-name="Tracé 803" d="M219.258,80.618c-93.413,0-169.4,76-169.4,169.417s75.991,169.423,169.4,169.423,169.41-76.01,169.41-169.423-76-169.417-169.41-169.417m0,437.228C71.582,517.847-48.562,397.7-48.562,250.035S71.582-17.776,219.258-17.776s267.8,120.148,267.8,267.811-120.139,267.811-267.8,267.811" transform="translate(48.562 17.776)" fill="#713475" opacity="0.15"/>
    </g>
  </g>
</svg>
