<svg width="181" height="57" viewBox="0 0 181 57" fill="none" xmlns="http://www.w3.org/2000/svg">
<g clip-path="url(#clip0_1_8)">
<path d="M1.014 21.203H3.349C3.48177 21.2025 3.61334 21.2281 3.7362 21.2784C3.85906 21.3287 3.97081 21.4028 4.06506 21.4963C4.15931 21.5898 4.23422 21.7009 4.28551 21.8234C4.33681 21.9459 4.36348 22.0772 4.364 22.21V37.896C4.36452 38.0288 4.39119 38.1601 4.44249 38.2826C4.49378 38.405 4.56869 38.5162 4.66294 38.6097C4.75719 38.7032 4.86894 38.7772 4.9918 38.8276C5.11466 38.8779 5.24623 38.9035 5.379 38.903H10.466C10.7341 38.9022 10.9915 39.0078 11.1818 39.1966C11.3721 39.3854 11.4797 39.6419 11.481 39.91V41.703C11.4805 41.8358 11.4538 41.9671 11.4025 42.0896C11.3512 42.212 11.2763 42.3232 11.1821 42.4167C11.0878 42.5102 10.9761 42.5842 10.8532 42.6346C10.7303 42.6849 10.5988 42.7105 10.466 42.71H1.014C0.746039 42.7108 0.488721 42.6052 0.298588 42.4164C0.108454 42.2275 0.001059 41.971 0 41.703V22.21C0.001059 21.942 0.108454 21.6855 0.298588 21.4966C0.488721 21.3078 0.746039 21.2022 1.014 21.203Z" fill="#2B2E34"/>
<path d="M24.136 27.658L21.769 34.369C21.7416 34.4451 21.7332 34.5268 21.7443 34.6069C21.7555 34.6871 21.7859 34.7633 21.833 34.8291C21.8801 34.8949 21.9425 34.9483 22.0148 34.9847C22.0871 35.0211 22.1671 35.0394 22.248 35.038H27.048C27.1293 35.0394 27.2097 35.021 27.2823 34.9844C27.3549 34.9477 27.4175 34.8939 27.4645 34.8276C27.5116 34.7613 27.5418 34.6845 27.5526 34.6039C27.5633 34.5233 27.5541 34.4413 27.526 34.365L25.091 27.654C25.0551 27.556 24.9901 27.4715 24.9046 27.4117C24.8191 27.352 24.7173 27.3199 24.613 27.3199C24.5087 27.3199 24.4069 27.352 24.3214 27.4117C24.2359 27.4715 24.1708 27.556 24.135 27.654M18.129 42.711H15.6C15.4345 42.7119 15.2713 42.672 15.1248 42.5949C14.9783 42.5178 14.8531 42.4058 14.7602 42.2688C14.6673 42.1318 14.6095 41.974 14.5921 41.8094C14.5746 41.6448 14.5979 41.4784 14.66 41.325L22.623 21.832C22.6999 21.6457 22.8304 21.4865 22.9979 21.3745C23.1654 21.2625 23.3625 21.2028 23.564 21.203H26.028C26.231 21.2026 26.4295 21.2631 26.5977 21.3766C26.766 21.4902 26.8964 21.6516 26.972 21.84L34.747 41.333C34.8075 41.4863 34.8295 41.652 34.811 41.8158C34.7926 41.9795 34.7343 42.1363 34.6412 42.2723C34.5482 42.4083 34.4232 42.5194 34.2772 42.5958C34.1313 42.6723 33.9688 42.7119 33.804 42.711H31.228C31.0218 42.7113 30.8205 42.6488 30.6507 42.5318C30.481 42.4148 30.351 42.2488 30.278 42.056L29.189 39.156C29.116 38.9629 28.9858 38.7967 28.8159 38.6795C28.646 38.5623 28.4444 38.4997 28.238 38.5H21.1C20.8926 38.4996 20.6902 38.5628 20.5198 38.681C20.3494 38.7991 20.2193 38.9667 20.147 39.161L19.082 42.053C19.0098 42.2474 18.8797 42.415 18.7093 42.5332C18.5389 42.6514 18.3364 42.7145 18.129 42.714" fill="#2B2E34"/>
<path d="M83.576 21.203C83.6402 21.2027 83.7038 21.2151 83.7633 21.2394C83.8227 21.2638 83.8767 21.2996 83.9223 21.3448C83.9679 21.39 84.0042 21.4438 84.029 21.503C84.0538 21.5622 84.0667 21.6258 84.067 21.69V34.428C83.9857 35.548 84.1976 36.6699 84.682 37.683C84.9721 38.1984 85.3995 38.6233 85.9165 38.9105C86.4336 39.1977 87.0201 39.336 87.611 39.31C88.1899 39.3496 88.7684 39.2264 89.2809 38.9542C89.7935 38.6821 90.2196 38.2718 90.511 37.77C91.0198 36.7339 91.2326 35.5774 91.126 34.428V21.69C91.1265 21.5606 91.1783 21.4368 91.2699 21.3455C91.3616 21.2542 91.4856 21.203 91.615 21.203H94.999C95.0631 21.2027 95.1267 21.2151 95.1861 21.2395C95.2455 21.2638 95.2995 21.2996 95.345 21.3449C95.3905 21.3901 95.4266 21.4439 95.4514 21.5031C95.4761 21.5623 95.4888 21.6258 95.489 21.69V34.428C95.489 37.628 94.873 39.543 93.204 41.054C91.6916 42.4455 89.6929 43.1868 87.639 43.118C85.5604 43.1804 83.5374 42.4411 81.989 41.053C79.997 39.165 79.704 37.304 79.704 34.427V21.69C79.7042 21.5613 79.7554 21.4378 79.8462 21.3466C79.937 21.2554 80.0602 21.2038 80.189 21.203H83.576Z" fill="#2B2E34"/>
<path d="M98.878 21.203H102.339C102.442 21.2027 102.542 21.2348 102.626 21.2947C102.71 21.3547 102.772 21.4394 102.805 21.537L107.649 36.137C107.682 36.2345 107.744 36.3193 107.828 36.3794C107.911 36.4395 108.012 36.4718 108.115 36.4718C108.217 36.4718 108.318 36.4395 108.401 36.3794C108.485 36.3193 108.547 36.2345 108.58 36.137L113.477 21.536C113.51 21.4388 113.572 21.3544 113.656 21.2946C113.739 21.2349 113.839 21.2028 113.942 21.203H117.403C117.481 21.2027 117.558 21.2211 117.628 21.2569C117.697 21.2926 117.757 21.3445 117.802 21.4083C117.848 21.472 117.877 21.5457 117.888 21.6231C117.898 21.7005 117.89 21.7794 117.864 21.853L110.454 42.388C110.42 42.4825 110.357 42.5641 110.274 42.6217C110.192 42.6793 110.094 42.7101 109.993 42.71H106.26C106.159 42.7102 106.061 42.6793 105.978 42.6215C105.896 42.5637 105.833 42.4818 105.799 42.387L98.416 21.853C98.3898 21.7793 98.3818 21.7003 98.3926 21.6228C98.4034 21.5454 98.4327 21.4716 98.478 21.4078C98.5233 21.3441 98.5833 21.2922 98.653 21.2565C98.7226 21.2209 98.7998 21.2025 98.878 21.203Z" fill="#2B2E34"/>
<path d="M121.7 21.203H125.084C125.148 21.2027 125.212 21.2151 125.271 21.2395C125.331 21.2638 125.385 21.2996 125.43 21.3449C125.476 21.3901 125.512 21.4439 125.536 21.5031C125.561 21.5623 125.574 21.6258 125.574 21.69V42.224C125.574 42.2881 125.561 42.3515 125.536 42.4106C125.511 42.4697 125.475 42.5233 125.43 42.5685C125.384 42.6136 125.33 42.6493 125.271 42.6736C125.212 42.6979 125.148 42.7103 125.084 42.71H121.7C121.636 42.7103 121.572 42.6979 121.513 42.6736C121.454 42.6493 121.4 42.6136 121.354 42.5685C121.309 42.5233 121.273 42.4697 121.248 42.4106C121.223 42.3515 121.21 42.2881 121.21 42.224V21.69C121.21 21.6258 121.223 21.5623 121.248 21.5031C121.272 21.4439 121.309 21.3901 121.354 21.3449C121.4 21.2996 121.454 21.2638 121.513 21.2395C121.572 21.2151 121.636 21.2027 121.7 21.203Z" fill="#2B2E34"/>
<path d="M131.753 21.203H142.927C143.056 21.2027 143.181 21.2539 143.273 21.3452C143.365 21.4365 143.416 21.5605 143.417 21.69V24.524C143.416 24.6535 143.365 24.7775 143.273 24.8688C143.181 24.9601 143.056 25.0113 142.927 25.011H136.117C135.988 25.0105 135.864 25.0612 135.772 25.1522C135.68 25.2431 135.628 25.3667 135.627 25.496V29.403C135.627 29.5325 135.679 29.6565 135.771 29.7478C135.863 29.8391 135.987 29.8903 136.117 29.89H142.781C142.91 29.8895 143.034 29.9402 143.126 30.0312C143.218 30.1221 143.27 30.2457 143.271 30.375V33.211C143.271 33.2751 143.258 33.3385 143.233 33.3976C143.208 33.4567 143.172 33.5103 143.127 33.5555C143.081 33.6006 143.027 33.6363 142.968 33.6606C142.909 33.6849 142.845 33.6973 142.781 33.697H136.117C135.987 33.6967 135.863 33.7479 135.771 33.8392C135.679 33.9305 135.627 34.0545 135.627 34.184V38.414C135.627 38.4781 135.64 38.5415 135.665 38.6006C135.69 38.6597 135.726 38.7133 135.771 38.7585C135.817 38.8036 135.871 38.8393 135.93 38.8636C135.989 38.8879 136.053 38.9003 136.117 38.9H142.927C143.056 38.8997 143.181 38.9509 143.273 39.0422C143.365 39.1335 143.416 39.2575 143.417 39.387V42.222C143.417 42.2861 143.404 42.3495 143.379 42.4086C143.354 42.4677 143.318 42.5213 143.273 42.5665C143.227 42.6116 143.173 42.6473 143.114 42.6716C143.055 42.6959 142.991 42.7083 142.927 42.708H131.753C131.689 42.7084 131.625 42.6961 131.566 42.6719C131.506 42.6477 131.452 42.612 131.407 42.5668C131.361 42.5217 131.325 42.468 131.3 42.4088C131.275 42.3496 131.262 42.2862 131.262 42.222V21.69C131.262 21.6258 131.275 21.5622 131.3 21.503C131.325 21.4438 131.361 21.39 131.407 21.3448C131.452 21.2996 131.506 21.2638 131.566 21.2394C131.625 21.2151 131.689 21.2027 131.753 21.203Z" fill="#2B2E34"/>
<path d="M148.248 21.69C148.248 21.6258 148.261 21.5623 148.286 21.5031C148.31 21.4439 148.346 21.3901 148.392 21.3449C148.437 21.2996 148.491 21.2638 148.551 21.2395C148.61 21.2151 148.674 21.2027 148.738 21.203H154.809C158.176 21.203 160.109 21.727 161.282 22.57C162.173 23.2538 162.888 24.1408 163.367 25.1571C163.846 26.1733 164.075 27.2893 164.035 28.412C164.063 29.8372 163.654 31.2369 162.863 32.423C162.278 33.4236 161.36 34.187 160.269 34.58C160.202 34.6043 160.14 34.6433 160.09 34.6942C160.04 34.7451 160.001 34.8066 159.978 34.8742C159.954 34.9419 159.946 35.0139 159.953 35.0851C159.961 35.1564 159.984 35.225 160.022 35.286L164.081 41.975C164.126 42.049 164.15 42.1336 164.151 42.22C164.152 42.3064 164.13 42.3915 164.087 42.4666C164.044 42.5417 163.982 42.604 163.907 42.6472C163.832 42.6903 163.747 42.7127 163.661 42.712H159.836C159.75 42.712 159.666 42.6896 159.592 42.647C159.517 42.6044 159.455 42.543 159.412 42.469L154.148 33.442C154.105 33.3679 154.083 33.2838 154.083 33.1982C154.083 33.1126 154.106 33.0286 154.149 32.9546C154.192 32.8807 154.254 32.8194 154.328 32.7769C154.402 32.7345 154.486 32.7124 154.572 32.713C156.008 32.713 157.56 32.625 158.472 31.928C158.919 31.5389 159.274 31.0556 159.512 30.5129C159.75 29.9701 159.865 29.3814 159.848 28.789C159.859 28.1776 159.717 27.5733 159.436 27.0304C159.154 26.4874 158.742 26.023 158.237 25.679C157.293 25.1775 156.228 24.9464 155.161 25.011H153.102C153.038 25.0106 152.974 25.0229 152.915 25.0472C152.855 25.0715 152.801 25.1073 152.755 25.1525C152.71 25.1978 152.673 25.2516 152.649 25.3109C152.624 25.3701 152.611 25.4337 152.611 25.498V42.224C152.611 42.2881 152.598 42.3516 152.573 42.4107C152.549 42.4699 152.512 42.5236 152.467 42.5688C152.421 42.6139 152.367 42.6496 152.308 42.6739C152.249 42.6981 152.185 42.7104 152.121 42.71H148.738C148.674 42.7103 148.61 42.6979 148.551 42.6736C148.492 42.6493 148.438 42.6136 148.392 42.5685C148.347 42.5233 148.311 42.4697 148.286 42.4106C148.261 42.3515 148.248 42.2881 148.248 42.224V21.69Z" fill="#2B2E34"/>
<path d="M140.458 18.162L139.758 19.578C139.701 19.6929 139.601 19.7809 139.48 19.8233C139.358 19.8657 139.225 19.8591 139.109 19.805L132.832 16.869C132.717 16.8154 132.627 16.7188 132.583 16.5998C132.538 16.4809 132.542 16.3492 132.593 16.233L133.387 14.445C133.415 14.3835 133.455 14.3283 133.505 14.2828C133.554 14.2374 133.613 14.2028 133.677 14.181C133.741 14.1592 133.809 14.1509 133.876 14.1564C133.943 14.1619 134.009 14.1811 134.068 14.213L140.246 17.52C140.357 17.579 140.441 17.6789 140.48 17.7985C140.518 17.9181 140.509 18.048 140.454 18.161" fill="#2B2E34"/>
<path d="M168.605 21.203H179.78C179.91 21.2027 180.034 21.2539 180.126 21.3452C180.218 21.4365 180.269 21.5605 180.27 21.69V24.524C180.269 24.6535 180.218 24.7775 180.126 24.8688C180.034 24.9601 179.91 25.0113 179.78 25.011H172.969C172.84 25.0105 172.716 25.0612 172.624 25.1522C172.532 25.2431 172.48 25.3667 172.479 25.496V29.403C172.48 29.5325 172.531 29.6565 172.623 29.7478C172.715 29.8391 172.839 29.8903 172.969 29.89H179.633C179.697 29.8896 179.761 29.9018 179.82 29.926C179.879 29.9502 179.933 29.9858 179.979 30.0309C180.024 30.0759 180.06 30.1295 180.085 30.1885C180.11 30.2476 180.123 30.311 180.123 30.375V33.211C180.123 33.2751 180.11 33.3386 180.085 33.3977C180.061 33.4569 180.024 33.5106 179.979 33.5558C179.933 33.6009 179.879 33.6366 179.82 33.6609C179.761 33.6851 179.697 33.6974 179.633 33.697H172.969C172.839 33.6967 172.715 33.7479 172.623 33.8392C172.531 33.9305 172.48 34.0545 172.479 34.184V38.414C172.479 38.4781 172.492 38.5415 172.517 38.6006C172.542 38.6597 172.578 38.7133 172.623 38.7585C172.669 38.8036 172.723 38.8393 172.782 38.8636C172.841 38.8879 172.905 38.9003 172.969 38.9H179.78C179.91 38.8997 180.034 38.9509 180.126 39.0422C180.218 39.1335 180.269 39.2575 180.27 39.387V42.222C180.27 42.2861 180.257 42.3495 180.232 42.4086C180.207 42.4677 180.171 42.5213 180.126 42.5665C180.08 42.6116 180.026 42.6473 179.967 42.6716C179.908 42.6959 179.844 42.7083 179.78 42.708H168.605C168.541 42.7083 168.477 42.6959 168.418 42.6716C168.359 42.6473 168.305 42.6116 168.259 42.5665C168.214 42.5213 168.178 42.4677 168.153 42.4086C168.128 42.3495 168.115 42.2861 168.115 42.222V21.69C168.115 21.6258 168.128 21.5623 168.153 21.5031C168.177 21.4439 168.213 21.3901 168.259 21.3449C168.304 21.2996 168.358 21.2638 168.418 21.2395C168.477 21.2151 168.541 21.2027 168.605 21.203Z" fill="#2B2E34"/>
<path d="M66.705 31.902C66.7035 32.2925 66.6252 32.6789 66.4744 33.0391C66.3236 33.3993 66.1033 33.7263 65.8261 34.0014C65.5489 34.2764 65.2202 34.4942 64.8589 34.6422C64.4975 34.7902 64.1105 34.8656 63.72 34.864C63.3295 34.8656 62.9425 34.7902 62.5811 34.6422C62.2197 34.4942 61.8911 34.2764 61.6139 34.0014C61.3367 33.7263 61.1164 33.3993 60.9656 33.0391C60.8148 32.6789 60.7364 32.2925 60.735 31.902C60.7364 31.5115 60.8148 31.1251 60.9656 30.7649C61.1164 30.4047 61.3367 30.0777 61.6139 29.8026C61.8911 29.5276 62.2197 29.3098 62.5811 29.1618C62.9425 29.0138 63.3295 28.9384 63.72 28.94C64.5086 28.9371 65.266 29.2475 65.8258 29.8029C66.3856 30.3584 66.7018 31.1134 66.705 31.902Z" fill="#E7255B"/>
<path d="M63.721 24.562C61.7668 24.5561 59.8901 25.3258 58.5028 26.7021C57.1155 28.0784 56.3308 29.9488 56.321 31.903C56.3308 33.8572 57.1155 35.7276 58.5028 37.1039C59.8901 38.4802 61.7668 39.2498 63.721 39.244C65.6752 39.2498 67.5519 38.4802 68.9392 37.1039C70.3265 35.7276 71.1112 33.8572 71.121 31.903C71.1112 29.9488 70.3265 28.0784 68.9392 26.7021C67.5519 25.3258 65.6752 24.5561 63.721 24.562ZM63.721 43.507C60.6331 43.5155 57.6679 42.2991 55.4755 40.1246C53.2832 37.95 52.0427 34.9948 52.026 31.907C52.0427 28.8191 53.2832 25.8639 55.4755 23.6894C57.6679 21.5149 60.6331 20.2985 63.721 20.307C66.8087 20.2987 69.7737 21.5152 71.9658 23.6897C74.1579 25.8643 75.3983 28.8193 75.415 31.907C75.3983 34.9947 74.1579 37.9497 71.9658 40.1242C69.7737 42.2987 66.8087 43.5152 63.721 43.507Z" fill="#E7255B"/>
<path d="M46.452 18.685C46.5848 18.6857 46.7164 18.6602 46.8393 18.61C46.9622 18.5598 47.074 18.4858 47.1684 18.3924C47.2627 18.299 47.3377 18.1879 47.3891 18.0655C47.4406 17.9431 47.4674 17.8118 47.468 17.679V14.079L47.478 4.268H47.513C49.4657 8.25787 51.6212 12.1453 53.971 15.915C54.0456 16.0274 54.1418 16.1238 54.254 16.1987C54.3662 16.2735 54.4922 16.3254 54.6246 16.3511C54.757 16.3769 54.8932 16.3761 55.0253 16.3488C55.1573 16.3215 55.2827 16.2682 55.394 16.192L57.263 14.919C57.4814 14.7716 57.6328 14.544 57.6843 14.2855C57.7358 14.0271 57.6832 13.7589 57.538 13.539C54.522 8.90899 50.829 1.292 50.79 1.209C50.6135 0.845646 50.3382 0.539395 49.9956 0.325378C49.6529 0.111362 49.257 -0.00175927 48.853 -0.00100728H45.329C44.7618 -0.00313391 44.2169 0.220026 43.8142 0.619423C43.4114 1.01882 43.1837 1.56178 43.181 2.129L43.169 14.074V17.674C43.1695 17.8068 43.1962 17.9381 43.2475 18.0606C43.2988 18.183 43.3737 18.2942 43.4679 18.3877C43.5622 18.4812 43.6739 18.5552 43.7968 18.6056C43.9197 18.6559 44.0512 18.6815 44.184 18.681L46.452 18.685Z" fill="#E7255B"/>
<path d="M62.755 50.848C59.8387 50.7033 56.9941 49.8935 54.4388 48.4806C51.8835 47.0676 49.6852 45.089 48.012 42.696C47.6571 42.1889 47.4668 41.5849 47.467 40.966V22.005C47.4665 21.8722 47.4398 21.7409 47.3885 21.6184C47.3372 21.4959 47.2623 21.3848 47.1681 21.2913C47.0738 21.1978 46.9621 21.1237 46.8392 21.0734C46.7163 21.0231 46.5848 20.9975 46.452 20.998H44.179C44.0462 20.9975 43.9147 21.0231 43.7918 21.0734C43.6689 21.1237 43.5572 21.1978 43.463 21.2913C43.3687 21.3848 43.2938 21.4959 43.2425 21.6184C43.1912 21.7409 43.1645 21.8722 43.164 22.005V31.835H43.148V42.186C43.1508 42.7427 43.305 43.2882 43.594 43.764C45.5887 47.0816 48.3734 49.854 51.6997 51.8341C55.0261 53.8141 58.7907 54.9402 62.658 55.112C62.7948 55.1185 62.9314 55.0972 63.0598 55.0495C63.1881 55.0018 63.3055 54.9286 63.4048 54.8343C63.5041 54.74 63.5833 54.6266 63.6377 54.501C63.692 54.3753 63.7204 54.2399 63.721 54.103V51.851C63.7192 51.5923 63.618 51.3443 63.4384 51.1581C63.2588 50.972 63.0144 50.862 62.756 50.851" fill="#E7255B"/>
<path d="M80.366 53.175C80.3643 53.6239 80.2742 54.0682 80.1007 54.4823C79.9273 54.8964 79.674 55.2723 79.3553 55.5884C79.0366 55.9046 78.6588 56.155 78.2433 56.3251C77.8278 56.4952 77.3829 56.5818 76.934 56.58C76.0276 56.5832 75.157 56.2263 74.5136 55.5878C73.8702 54.9493 73.5067 54.0814 73.503 53.175C73.5046 52.7259 73.5946 52.2816 73.7679 51.8673C73.9413 51.453 74.1945 51.0769 74.5132 50.7606C74.8319 50.4442 75.2098 50.1937 75.6254 50.0234C76.0409 49.8531 76.4859 49.7663 76.935 49.768C77.3839 49.7662 77.8288 49.8528 78.2443 50.0229C78.6598 50.193 79.0376 50.4434 79.3563 50.7596C79.675 51.0758 79.9283 51.4516 80.1017 51.8657C80.2752 52.2799 80.3653 52.7241 80.367 53.173" fill="#E7255B"/>
<path d="M86.353 55.594H85.532L84.173 51.028H85.079L85.927 54.287L86.71 51.028H87.61L86.353 55.594Z" fill="#2B2E34"/>
<path d="M89.045 53.324C89.045 54.442 89.345 54.868 89.893 54.868C90.411 54.868 90.716 54.443 90.716 53.316C90.716 52.189 90.416 51.764 89.868 51.764C89.349 51.764 89.045 52.18 89.045 53.316V53.324ZM88.107 53.31C88.107 52.003 88.667 50.933 89.885 50.933C91.103 50.933 91.655 52 91.655 53.31C91.655 54.62 91.095 55.687 89.885 55.687C88.675 55.687 88.107 54.622 88.107 53.31Z" fill="#2B2E34"/>
<path d="M95.806 55.594H94.991C94.991 55.394 94.991 55.202 94.999 54.994C94.9305 55.2171 94.7861 55.4092 94.5909 55.537C94.3957 55.6648 94.1619 55.7204 93.93 55.694C93.181 55.694 92.695 55.277 92.695 54.281V51.03H93.584V53.996C93.584 54.363 93.658 54.821 94.202 54.821C94.622 54.821 94.919 54.551 94.919 53.954V51.03H95.808L95.806 55.594Z" fill="#2B2E34"/>
<path d="M98.862 52.321C98.854 51.888 98.649 51.7 98.278 51.7C98.2134 51.6945 98.1485 51.7029 98.0874 51.7245C98.0263 51.7461 97.9706 51.7805 97.9238 51.8253C97.8771 51.8702 97.8405 51.9245 97.8163 51.9846C97.7922 52.0447 97.7812 52.1093 97.784 52.174C97.784 52.615 98.269 52.697 98.804 52.861C99.119 52.9235 99.4006 53.0985 99.596 53.3533C99.7915 53.6082 99.8874 53.9255 99.866 54.246C99.8668 54.4437 99.827 54.6394 99.749 54.821C99.6711 55.0026 99.5566 55.1663 99.4128 55.3019C99.269 55.4375 99.0988 55.5421 98.9129 55.6092C98.727 55.6763 98.5292 55.7045 98.332 55.692C98.126 55.7068 97.9192 55.6784 97.7248 55.6087C97.5304 55.539 97.3527 55.4295 97.203 55.2872C97.0533 55.1449 96.935 54.9729 96.8557 54.7823C96.7763 54.5916 96.7376 54.3865 96.742 54.18H97.632C97.6283 54.2749 97.6443 54.3695 97.6791 54.4578C97.7139 54.5462 97.7667 54.6263 97.8341 54.6932C97.9015 54.76 97.9821 54.8121 98.0708 54.8462C98.1594 54.8802 98.2541 54.8955 98.349 54.891C98.4277 54.898 98.507 54.8875 98.5813 54.8604C98.6555 54.8332 98.7229 54.79 98.7786 54.7339C98.8342 54.6778 98.8768 54.61 98.9033 54.5356C98.9299 54.4611 98.9396 54.3817 98.932 54.303C98.932 53.846 98.454 53.739 97.903 53.56C97.5919 53.5014 97.3129 53.3313 97.1183 53.0817C96.9237 52.832 96.8269 52.52 96.846 52.204C96.8461 52.02 96.8856 51.8381 96.962 51.6706C97.0383 51.5032 97.1496 51.354 97.2884 51.2332C97.4272 51.1124 97.5903 51.0227 97.7667 50.9702C97.9431 50.9178 98.1287 50.9037 98.311 50.929C98.5008 50.9095 98.6925 50.9316 98.8729 50.994C99.0532 51.0563 99.2177 51.1574 99.3549 51.29C99.492 51.4226 99.5986 51.5836 99.667 51.7617C99.7354 51.9398 99.7641 52.1307 99.751 52.321H98.862Z" fill="#2B2E34"/>
<path d="M105.672 52.857C105.664 52.334 105.482 51.665 104.89 51.665C104.405 51.665 104.083 52.114 104.083 52.857H105.672ZM106.289 50.505H105.489L104.847 49.818L104.204 50.505H103.397L104.419 49.377H105.275L106.289 50.505ZM104.082 53.616C104.082 54.254 104.305 54.866 104.898 54.866C105.087 54.8637 105.268 54.7903 105.405 54.6606C105.542 54.5309 105.625 54.3543 105.638 54.166H106.52C106.469 54.6303 106.246 55.0586 105.894 55.366C105.604 55.5778 105.253 55.6898 104.894 55.685C103.667 55.685 103.123 54.574 103.123 53.307C103.123 51.951 103.723 50.922 104.885 50.922C105.144 50.9117 105.401 50.9706 105.629 51.0928C105.858 51.215 106.05 51.3959 106.185 51.617C106.495 52.2326 106.624 52.9239 106.556 53.61L104.082 53.616Z" fill="#2B2E34"/>
<path d="M107.797 51.86H107.246V51.027H107.797V49.942H108.686V51.028H109.229V51.861H108.686V55.595H107.797V51.86Z" fill="#2B2E34"/>
<path d="M112.367 52.857C112.359 52.334 112.177 51.668 111.587 51.668C111.102 51.668 110.78 52.117 110.78 52.86L112.367 52.857ZM110.777 53.616C110.777 54.254 111 54.866 111.593 54.866C111.782 54.8637 111.963 54.7903 112.1 54.6606C112.237 54.5309 112.32 54.3543 112.333 54.166H113.214C113.164 54.6313 112.94 55.0605 112.587 55.368C112.297 55.5798 111.946 55.6918 111.587 55.687C110.36 55.687 109.816 54.576 109.816 53.309C109.816 51.953 110.416 50.924 111.578 50.924C111.837 50.9137 112.094 50.9726 112.322 51.0948C112.551 51.217 112.743 51.3979 112.878 51.619C113.189 52.2343 113.318 52.9259 113.249 53.612L110.777 53.616Z" fill="#2B2E34"/>
<path d="M116.114 52.321C116.106 51.888 115.9 51.7 115.53 51.7C115.465 51.6947 115.401 51.7032 115.34 51.7248C115.279 51.7465 115.223 51.7809 115.176 51.8257C115.13 51.8705 115.093 51.9247 115.069 51.9848C115.045 52.0448 115.033 52.1093 115.036 52.174C115.036 52.615 115.521 52.697 116.056 52.861C116.371 52.9235 116.653 53.0985 116.848 53.3533C117.043 53.6082 117.139 53.9255 117.118 54.246C117.119 54.4437 117.079 54.6394 117.001 54.821C116.923 55.0026 116.809 55.1663 116.665 55.3019C116.521 55.4375 116.351 55.5421 116.165 55.6092C115.979 55.6763 115.781 55.7045 115.584 55.692C115.378 55.7068 115.171 55.6784 114.977 55.6087C114.782 55.539 114.605 55.4295 114.455 55.2872C114.305 55.1449 114.187 54.9729 114.108 54.7823C114.028 54.5916 113.99 54.3865 113.994 54.18H114.884C114.88 54.2748 114.897 54.3694 114.931 54.4577C114.966 54.5459 115.019 54.626 115.086 54.6928C115.154 54.7597 115.234 54.8118 115.323 54.8459C115.412 54.88 115.506 54.8954 115.601 54.891C115.68 54.898 115.759 54.8875 115.833 54.8604C115.908 54.8332 115.975 54.79 116.031 54.7339C116.086 54.6778 116.129 54.61 116.155 54.5356C116.182 54.4611 116.192 54.3817 116.184 54.303C116.184 53.846 115.706 53.739 115.154 53.56C114.843 53.5012 114.564 53.331 114.37 53.0814C114.176 52.8318 114.079 52.5198 114.098 52.204C114.098 52.02 114.138 51.8381 114.214 51.6706C114.29 51.5032 114.402 51.354 114.54 51.2332C114.679 51.1124 114.842 51.0227 115.019 50.9702C115.195 50.9178 115.381 50.9037 115.563 50.929C115.753 50.9095 115.945 50.9316 116.125 50.994C116.305 51.0563 116.47 51.1574 116.607 51.29C116.744 51.4226 116.851 51.5836 116.919 51.7617C116.987 51.9398 117.016 52.1307 117.003 52.321H116.114Z" fill="#2B2E34"/>
<path d="M121.238 53.323C121.238 54.335 121.518 54.818 122.011 54.818C122.126 54.8227 122.24 54.7954 122.341 54.7391C122.441 54.6827 122.524 54.5996 122.58 54.499C122.744 54.279 122.77 53.985 122.77 53.314C122.77 52.643 122.744 52.341 122.58 52.122C122.522 52.0232 122.439 51.9421 122.338 51.8873C122.238 51.8325 122.124 51.8061 122.01 51.811C121.517 51.811 121.237 52.285 121.237 53.311L121.238 53.323ZM123.658 55.594H122.838C122.838 55.349 122.838 55.169 122.846 54.994C122.774 55.2022 122.637 55.382 122.456 55.5073C122.275 55.6327 122.058 55.697 121.838 55.691C120.973 55.691 120.348 54.874 120.348 53.314C120.348 51.819 120.883 50.929 121.838 50.929C122.063 50.9184 122.285 50.9834 122.468 51.1138C122.652 51.2441 122.786 51.4322 122.85 51.648C122.842 51.448 122.842 51.256 122.842 51.028H123.657L123.658 55.594Z" fill="#2B2E34"/>
<path d="M128.038 55.594H127.223C127.223 55.394 127.223 55.202 127.231 54.994C127.162 55.2171 127.018 55.4092 126.823 55.537C126.628 55.6648 126.394 55.7204 126.162 55.694C125.413 55.694 124.927 55.277 124.927 54.281V51.03H125.816V53.996C125.816 54.363 125.89 54.821 126.434 54.821C126.854 54.821 127.151 54.551 127.151 53.954V51.03H128.04L128.038 55.594Z" fill="#2B2E34"/>
<path d="M134.769 53.929C134.736 54.861 134.251 55.694 133.279 55.694C132.135 55.694 131.501 54.737 131.501 53.316C131.501 51.805 132.193 50.931 133.271 50.931C134.251 50.931 134.745 51.757 134.761 52.712H133.839C133.806 52.026 133.551 51.765 133.205 51.765C133.086 51.7597 132.968 51.7914 132.868 51.8557C132.768 51.92 132.69 52.0137 132.645 52.124C132.483 52.4999 132.413 52.9087 132.439 53.317C132.439 54.412 132.719 54.868 133.213 54.868C133.625 54.868 133.813 54.468 133.847 53.929H134.769Z" fill="#2B2E34"/>
<path d="M138.035 52.857C138.026 52.334 137.845 51.668 137.255 51.668C136.77 51.668 136.448 52.117 136.448 52.86L138.035 52.857ZM136.445 53.616C136.445 54.254 136.668 54.866 137.261 54.866C137.45 54.8639 137.631 54.7907 137.768 54.661C137.906 54.5312 137.989 54.3545 138.002 54.166H138.884C138.833 54.6316 138.609 55.0608 138.255 55.368C137.965 55.5799 137.614 55.6919 137.255 55.687C136.028 55.687 135.485 54.576 135.485 53.309C135.485 51.953 136.085 50.924 137.247 50.924C137.506 50.9137 137.763 50.9726 137.991 51.0948C138.22 51.217 138.412 51.3979 138.547 51.619C138.858 52.2345 138.986 52.9259 138.918 53.612L136.445 53.616Z" fill="#2B2E34"/>
<path d="M140.004 51.028H140.786C140.786 51.215 140.786 51.395 140.777 51.592C140.865 51.3782 141.019 51.1984 141.218 51.0792C141.416 50.96 141.647 50.9077 141.877 50.93C142.63 50.929 143.116 51.346 143.116 52.34V55.594H142.227V52.628C142.227 52.261 142.153 51.812 141.609 51.812C141.181 51.812 140.892 52.073 140.892 52.669V55.594H140.004V51.028Z" fill="#2B2E34"/>
<path d="M144.541 51.86H143.99V51.027H144.541V49.942H145.43V51.028H145.973V51.861H145.43V55.595H144.541V51.86Z" fill="#2B2E34"/>
<path d="M146.856 51.028H147.671C147.671 51.305 147.671 51.534 147.663 51.763C147.719 51.4988 147.874 51.2658 148.095 51.111C148.317 50.9562 148.588 50.8912 148.856 50.929V51.999C148.743 51.9268 148.612 51.8902 148.478 51.894C148.078 51.894 147.744 52.286 147.744 53.013V55.594H146.856V51.028Z" fill="#2B2E34"/>
<path d="M151.928 52.857C151.919 52.334 151.738 51.668 151.148 51.668C150.663 51.668 150.341 52.117 150.341 52.86L151.928 52.857ZM150.338 53.616C150.338 54.254 150.561 54.866 151.154 54.866C151.343 54.8637 151.524 54.7903 151.661 54.6606C151.798 54.5309 151.881 54.3543 151.894 54.166H152.775C152.725 54.6313 152.501 55.0605 152.148 55.368C151.858 55.5798 151.507 55.6918 151.148 55.687C149.921 55.687 149.377 54.576 149.377 53.309C149.377 51.953 149.977 50.924 151.139 50.924C151.398 50.9137 151.655 50.9726 151.883 51.0948C152.112 51.217 152.304 51.3979 152.439 51.619C152.75 52.2345 152.879 52.9259 152.81 53.612L150.338 53.616Z" fill="#2B2E34"/>
<path d="M157.004 53.315C157.004 54.337 157.285 54.81 157.778 54.81C157.892 54.8145 158.005 54.7881 158.105 54.7335C158.205 54.6789 158.288 54.5982 158.346 54.5C158.51 54.271 158.536 53.986 158.536 53.308C158.536 52.63 158.51 52.343 158.346 52.123C158.29 52.0223 158.208 51.9391 158.107 51.8827C158.007 51.8264 157.893 51.7991 157.778 51.804C157.285 51.804 157.004 52.286 157.004 53.304V53.315ZM159.424 55.594H158.604C158.604 55.324 158.604 55.128 158.612 54.932C158.556 55.1546 158.425 55.3513 158.242 55.4896C158.059 55.6278 157.833 55.6992 157.604 55.692C156.74 55.692 156.114 54.874 156.114 53.314C156.114 51.819 156.649 50.929 157.604 50.929C157.811 50.9207 158.016 50.9811 158.185 51.1008C158.355 51.2205 158.48 51.3928 158.542 51.591C158.534 51.411 158.534 51.231 158.534 51.027V49.55H159.423L159.424 55.594Z" fill="#2B2E34"/>
<path d="M163.045 52.857C163.036 52.334 162.855 51.668 162.264 51.668C161.779 51.668 161.457 52.117 161.457 52.86L163.045 52.857ZM161.456 53.616C161.456 54.254 161.679 54.866 162.272 54.866C162.461 54.8637 162.642 54.7904 162.779 54.6607C162.916 54.531 163 54.3544 163.013 54.166H163.894C163.843 54.6317 163.618 55.061 163.264 55.368C162.974 55.5799 162.623 55.6918 162.264 55.687C161.037 55.687 160.493 54.576 160.493 53.309C160.493 51.953 161.093 50.924 162.255 50.924C162.514 50.9136 162.771 50.9725 163 51.0947C163.228 51.2169 163.42 51.3979 163.555 51.619C163.869 52.2349 164.001 52.9278 163.934 53.616H161.456Z" fill="#2B2E34"/>
<path d="M167.616 51.86H167.065V51.027H167.616V49.942H168.505V51.028H169.048V51.861H168.505V55.595H167.616V51.86Z" fill="#2B2E34"/>
<path d="M170.547 53.324C170.547 54.442 170.847 54.868 171.395 54.868C171.913 54.868 172.218 54.443 172.218 53.316C172.218 52.189 171.918 51.764 171.37 51.764C170.852 51.764 170.547 52.18 170.547 53.316V53.324ZM169.609 53.31C169.609 52.003 170.169 50.933 171.387 50.933C172.605 50.933 173.157 52 173.157 53.31C173.157 54.62 172.597 55.687 171.387 55.687C170.177 55.687 169.609 54.622 169.609 53.31Z" fill="#2B2E34"/>
<path d="M177.308 55.594H176.493C176.493 55.394 176.493 55.202 176.501 54.994C176.433 55.2171 176.288 55.4092 176.093 55.537C175.898 55.6648 175.664 55.7204 175.432 55.694C174.683 55.694 174.197 55.277 174.197 54.281V51.03H175.085V53.996C175.085 54.363 175.16 54.821 175.703 54.821C176.123 54.821 176.42 54.551 176.42 53.954V51.03H177.309L177.308 55.594Z" fill="#2B2E34"/>
<path d="M178.742 49.941V51.027H178.191V51.86H178.742V55.594H179.631V51.86H180.174V51.027H179.631V49.941H178.742Z" fill="#2B2E34"/>
</g>
<defs>
<clipPath id="clip0_1_8">
<rect width="180.27" height="56.58" fill="white"/>
</clipPath>
</defs>
</svg>
