<svg xmlns="http://www.w3.org/2000/svg" width="348.739" height="556.234" viewBox="0 0 348.739 556.234">
  <g id="Groupe_725" data-name="Groupe 725" transform="translate(864.115 -3093.219)">
    <g id="Groupe_724" data-name="Groupe 724" transform="translate(-864.115 3093.219)">
      <g id="Groupe_653" data-name="Groupe 653" transform="translate(38.125 199.552)">
        <path id="Tracé_804" data-name="Tracé 804" d="M-24.792,16.77A29.126,29.126,0,1,0,4.334-12.351,29.118,29.118,0,0,0-24.792,16.77" transform="translate(109.76 97.31)" fill="#713475"/>
        <path id="Tracé_805" data-name="Tracé 805" d="M65.532,24.137A72.167,72.167,0,1,1-6.643,96.3,72.251,72.251,0,0,1,65.532,24.137m0,186.244A114.078,114.078,0,1,0-48.562,96.3,114.22,114.22,0,0,0,65.532,210.381" transform="translate(48.562 17.776)" fill="#713475"/>
      </g>
      <path id="Tracé_806" data-name="Tracé 806" d="M90.794,105.786a9.672,9.672,0,0,1-9.423-9.9V60.462h.02L81.3-35.989H80.97C69.83-12.279,43.916,41.458,20.993,78.554A9.13,9.13,0,0,1,7.778,81.274L-9.567,68.757a10.223,10.223,0,0,1-2.558-13.569C15.882,9.715,50.16-65.21,50.527-66.009a19.887,19.887,0,0,1,17.984-11.9h32.713c11.013,0,19.936,9.372,19.945,20.937l.107,117.434h.038V95.888a9.665,9.665,0,0,1-9.421,9.9Z" transform="translate(227.27 77.909)" fill="#713475"/>
      <path id="Tracé_807" data-name="Tracé 807" d="M-72.456,169c56.668-2.98,106.4-34.028,136.872-80.145a30.865,30.865,0,0,0,5.062-17.007V-114.563a9.67,9.67,0,0,1,9.419-9.9H100a9.671,9.671,0,0,1,9.424,9.9v96.638h.15V83.834a31.524,31.524,0,0,1-4.145,15.51C69.061,163.455,3.669,207.372-71.551,210.918A9.676,9.676,0,0,1-81.419,201V178.863A9.677,9.677,0,0,1-72.456,169" transform="translate(239.167 330.885)" fill="#713475"/>
      <path id="Tracé_808" data-name="Tracé 808" d="M-28.5,19.278A33.468,33.468,0,1,0,4.968-14.2,33.471,33.471,0,0,0-28.5,19.278" transform="translate(28.5 503.48)" fill="#713475"/>
    </g>
  </g>
</svg>
