<svg width="300" height="87" viewBox="0 0 300 87" fill="none" xmlns="http://www.w3.org/2000/svg">
<g clip-path="url(#clip0_58_276)">
<path d="M42.67 48.53V84.94C42.67 85.84 41.97 86.54 41.07 86.54H37.86C36.96 86.54 36.26 85.84 36.26 84.94V64.98H25.93V84.94C25.93 85.84 25.23 86.54 24.33 86.54H21.12C20.22 86.54 19.52 85.84 19.52 84.94V48.53C19.52 42.21 24.74 37 31.15 37C37.56 37 42.68 42.22 42.68 48.53H42.67ZM36.25 48.53C36.25 45.72 33.94 43.41 31.13 43.41C28.32 43.41 25.91 45.72 25.91 48.53V58.56H36.24V48.53H36.25Z" fill="black"/>
<path d="M67.65 51.84V48.43C67.65 45.62 65.34 43.31 62.54 43.31C59.74 43.31 57.42 45.62 57.42 48.43V75.01C57.42 77.82 59.73 80.13 62.54 80.13C65.35 80.13 67.65 77.82 67.65 75.01V71.3C67.65 70.4 68.35 69.7 69.25 69.7H72.46C73.36 69.7 74.06 70.4 74.06 71.3V75.01C74.06 81.33 68.84 86.54 62.53 86.54C56.22 86.54 51 81.32 51 75.01V48.43C51 42.11 56.12 36.9 62.53 36.9C68.94 36.9 74.06 42.12 74.06 48.43V51.84C74.06 52.74 73.36 53.44 72.46 53.44H69.25C68.35 53.44 67.65 52.74 67.65 51.84Z" fill="black"/>
<path d="M96.0299 38.5V41.71C96.0299 42.61 95.3299 43.31 94.4299 43.31H89.9199V84.93C89.9199 85.73 89.2199 86.53 88.3199 86.53H85.1099C84.2099 86.53 83.5099 85.73 83.5099 84.93V43.31H78.9999C78.0999 43.31 77.3999 42.61 77.3999 41.71V38.5C77.3999 37.6 78.0999 36.9 78.9999 36.9H94.4499C95.3499 36.9 96.0499 37.6 96.0499 38.5H96.0299Z" fill="black"/>
<path d="M126.52 38.5V74.91C126.52 81.33 121.3 86.54 114.99 86.54C108.68 86.54 103.36 81.32 103.36 74.91V38.5C103.36 37.6 104.16 36.9 104.96 36.9H108.17C109.07 36.9 109.77 37.6 109.77 38.5V74.91C109.77 77.82 112.08 80.13 114.99 80.13C117.9 80.13 120.11 77.82 120.11 74.91V38.5C120.11 37.6 120.81 36.9 121.71 36.9H124.92C125.82 36.9 126.52 37.6 126.52 38.5Z" fill="black"/>
<path d="M158.02 48.53V84.94C158.02 85.84 157.32 86.54 156.42 86.54H153.21C152.31 86.54 151.61 85.84 151.61 84.94V64.98H141.28V84.94C141.28 85.84 140.58 86.54 139.68 86.54H136.47C135.57 86.54 134.87 85.84 134.87 84.94V48.53C134.87 42.21 140.09 37 146.5 37C152.91 37 158.03 42.22 158.03 48.53H158.02ZM151.6 48.53C151.6 45.72 149.29 43.41 146.48 43.41C143.67 43.41 141.26 45.72 141.26 48.53V58.56H151.59V48.53H151.6Z" fill="black"/>
<path d="M182.99 81.73V84.94C182.99 85.74 182.29 86.54 181.39 86.54H169.56C167.75 86.54 166.35 85.04 166.35 83.33V38.5C166.35 37.6 167.05 36.9 167.95 36.9H171.16C171.96 36.9 172.76 37.6 172.76 38.5V80.12H181.39C182.29 80.12 182.99 80.82 182.99 81.72V81.73Z" fill="black"/>
<path d="M196.73 84.94C196.73 85.84 196.03 86.54 195.13 86.54H191.92C191.02 86.54 190.32 85.84 190.32 84.94V38.5C190.32 37.6 191.02 36.9 191.92 36.9H195.13C195.93 36.9 196.74 37.6 196.74 38.5V84.94H196.73Z" fill="black"/>
<path d="M222.71 38.5V41.71C222.71 42.61 222.01 43.31 221.11 43.31H216.6V84.93C216.6 85.73 215.9 86.53 215 86.53H211.79C210.89 86.53 210.19 85.73 210.19 84.93V43.31H205.68C204.78 43.31 204.08 42.61 204.08 41.71V38.5C204.08 37.6 204.78 36.9 205.68 36.9H221.13C222.03 36.9 222.73 37.6 222.73 38.5H222.71Z" fill="black"/>
<path d="M236.45 43.31V58.45H245.18C246.08 58.45 246.78 59.15 246.78 60.05V63.26C246.78 64.16 246.08 64.86 245.18 64.86H236.45V80.11H245.18C246.08 80.11 246.78 80.81 246.78 81.71V84.92C246.78 85.82 246.08 86.52 245.18 86.52H233.24C231.43 86.52 230.03 85.02 230.03 83.31V40.08C230.03 38.27 231.43 36.87 233.24 36.87H245.18C246.08 36.87 246.78 37.57 246.78 38.47V41.68C246.78 42.58 246.08 43.28 245.18 43.28H236.45V43.31ZM235.25 28.37L241.07 18.14C241.57 17.14 243.08 16.33 244.18 16.33H247.29C248.49 16.33 249 17.13 248.39 18.14L242.57 28.37C242.07 29.37 240.56 30.18 239.46 30.18H236.35C235.15 30.18 234.64 29.38 235.25 28.37Z" fill="black"/>
<path d="M272.66 51.84V48.43C272.66 45.62 270.35 43.31 267.54 43.31C264.73 43.31 262.43 45.62 262.43 48.43C262.43 49.2967 262.53 49.8667 262.73 50.14L276.67 68.59C278.277 70.73 279.08 72.87 279.08 75.01C279.08 81.33 273.86 86.54 267.55 86.54C261.24 86.54 256.02 81.32 256.02 75.01V71.6C256.02 70.7 256.72 70 257.62 70H260.83C261.73 70 262.43 70.7 262.43 71.6V75.01C262.43 77.82 264.74 80.13 267.54 80.13C270.34 80.13 272.66 77.82 272.66 75.01C272.66 74.1433 272.56 73.5733 272.36 73.3L258.42 54.85C256.813 52.71 256.01 50.57 256.01 48.43C256.01 42.11 261.23 36.9 267.54 36.9C273.85 36.9 279.07 42.12 279.07 48.43V51.84C279.07 52.74 278.37 53.44 277.47 53.44H274.26C273.36 53.44 272.66 52.74 272.66 51.84Z" fill="black"/>
<path d="M158.66 0C179.66 0.02 196.68 17.46 196.73 39H190.31C190.84 21.04 177.11 7.04 159.61 6.5C142.11 5.96 127.05 19.08 126.52 37.04C126.5 37.7 126.5 38.35 126.52 39.01H120.1C120.15 17.46 137.67 0.02 158.66 0Z" fill="black"/>
<path d="M6.37 59.25V63.84C6.37 64.48 5.67 64.94 4.8 64.94H1.6C0.7 64.94 0 64.47 0 63.84V59.25C0 58.61 0.7 58.12 1.6 58.12H4.8C5.82 58.12 6.37 58.61 6.37 59.25Z" fill="black"/>
<path d="M299.37 59.25V63.84C299.37 64.48 298.67 64.94 297.8 64.94H294.6C293.7 64.94 293 64.47 293 63.84V59.25C293 58.61 293.7 58.12 294.6 58.12H297.8C298.82 58.12 299.37 58.61 299.37 59.25Z" fill="black"/>
</g>
<defs>
<clipPath id="clip0_58_276">
<rect width="299.37" height="86.54" fill="white"/>
</clipPath>
</defs>
</svg>
