<svg width="214" height="83" viewBox="0 0 214 83" fill="none" xmlns="http://www.w3.org/2000/svg">
<g clip-path="url(#clip0_58_315)">
<path d="M42.2799 11.63V48.04C42.2799 48.94 41.5799 49.64 40.6799 49.64H37.4699C36.5699 49.64 35.8699 48.94 35.8699 48.04V28.08H25.5399V48.04C25.5399 48.94 24.8399 49.64 23.9399 49.64H20.7299C19.8299 49.64 19.1299 48.94 19.1299 48.04V11.63C19.1099 5.31998 24.3299 0.0999756 30.7499 0.0999756C37.1699 0.0999756 42.2799 5.31998 42.2799 11.63ZM35.8599 11.63C35.8599 8.81997 33.5499 6.50998 30.7399 6.50998C27.9299 6.50998 25.5199 8.81997 25.5199 11.63V21.66H35.8499V11.63H35.8599Z" fill="black"/>
<path d="M67.2501 15.04V11.63C67.2501 8.71998 64.9401 6.50998 62.1401 6.50998C59.3401 6.50998 57.0201 8.71998 57.0201 11.63V38.21C57.0201 41.02 59.3301 43.32 62.1401 43.32C64.9501 43.32 67.2501 41.01 67.2501 38.21V27.88H63.7401C62.8401 27.88 62.1401 27.18 62.1401 26.38V23.17C62.1401 22.27 62.8401 21.57 63.7401 21.57H72.0601C72.9601 21.57 73.6601 22.27 73.6601 23.17V38.21C73.6601 44.53 68.4401 49.64 62.1301 49.64C55.8201 49.64 50.6001 44.52 50.6001 38.21V11.63C50.6101 5.21998 55.8201 0.0999756 62.1401 0.0999756C68.4601 0.0999756 73.6701 5.21998 73.6701 11.63V15.04C73.6701 15.94 72.9701 16.64 72.0701 16.64H68.8601C67.9601 16.64 67.2601 15.94 67.2601 15.04H67.2501Z" fill="black"/>
<path d="M88.42 6.42V21.56H97.15C98.05 21.56 98.75 22.26 98.75 23.16V26.37C98.75 27.27 98.05 27.97 97.15 27.97H88.42V43.22H97.15C98.05 43.22 98.75 43.92 98.75 44.82V48.03C98.75 48.93 98.05 49.63 97.15 49.63H85.21C83.4 49.63 82 48.13 82 46.42V3.21C82 1.4 83.4 0 85.21 0H97.15C98.05 0 98.75 0.7 98.75 1.6V4.81C98.75 5.71 98.05 6.41 97.15 6.41H88.42V6.42Z" fill="black"/>
<path d="M130.24 11.53V48.04C130.24 48.84 129.54 49.64 128.64 49.64H125.43C124.53 49.64 123.83 48.84 123.83 48.04V11.53C123.83 8.72 121.52 6.41 118.71 6.41C115.9 6.41 113.49 8.72 113.49 11.53L113.59 48.04C113.59 48.84 112.79 49.64 111.88 49.64H108.67C107.77 49.64 107.06 48.84 107.06 48.04V11.53C107.06 5.21 112.28 0 118.69 0C125.1 0 130.22 5.22 130.22 11.53H130.24Z" fill="black"/>
<path d="M161.74 11.63V38.01C161.74 44.43 156.62 49.64 150.21 49.64H141.79C140.08 49.64 138.58 48.14 138.58 46.43V3.21C138.58 1.4 140.08 0 141.79 0H150.21C156.63 0 161.74 5.22 161.74 11.63ZM155.32 11.63C155.32 8.72 153.01 6.41 150.2 6.41H144.98V43.12H150.2C153.01 43.12 155.32 40.81 155.32 38V11.63Z" fill="black"/>
<path d="M193.23 11.63V48.04C193.23 48.94 192.53 49.64 191.63 49.64H188.42C187.52 49.64 186.82 48.94 186.82 48.04V28.08H176.49V48.04C176.49 48.94 175.79 49.64 174.89 49.64H171.68C170.78 49.64 170.07 48.94 170.07 48.04V11.63C170.07 5.30998 175.29 0.0999756 181.7 0.0999756C188.11 0.0999756 193.23 5.31998 193.23 11.63ZM186.81 11.63C186.81 8.81997 184.5 6.50998 181.69 6.50998C178.88 6.50998 176.47 8.81997 176.47 11.63V21.66H186.8V11.63H186.81Z" fill="black"/>
<path d="M142.07 82.44C123.27 82.43 107.12 66.81 107.07 47.52H113.59C113.12 63.6 125.55 76.03 141.22 76.52C156.89 77.01 169.58 65.37 170.06 49.29C170.08 48.7 170.08 48.11 170.06 47.53H176.48C176.44 66.82 160.87 82.43 142.07 82.45V82.44Z" fill="black"/>
<path d="M6.37 22.77V27.36C6.37 28 5.67 28.46 4.8 28.46H1.6C0.7 28.46 0 27.99 0 27.36V22.77C0 22.13 0.7 21.64 1.6 21.64H4.8C5.82 21.64 6.37 22.13 6.37 22.77Z" fill="black"/>
<path d="M213.37 22.77V27.36C213.37 28 212.67 28.46 211.8 28.46H208.6C207.7 28.46 207 27.99 207 27.36V22.77C207 22.13 207.7 21.64 208.6 21.64H211.8C212.82 21.64 213.37 22.13 213.37 22.77Z" fill="black"/>
</g>
<defs>
<clipPath id="clip0_58_315">
<rect width="213.37" height="82.44" fill="white"/>
</clipPath>
</defs>
</svg>
