<svg width="331" height="82" viewBox="0 0 331 82" fill="none" xmlns="http://www.w3.org/2000/svg">
<g clip-path="url(#clip0_58_343)">
<path d="M43.2801 11.53V16.34C43.2801 22.76 38.0601 27.97 31.7501 27.97H26.5301V48.03C26.5301 48.83 25.8301 49.63 24.9301 49.63H21.7201C20.9201 49.63 20.1101 48.83 20.1101 48.03V1.6C20.1101 0.7 20.9101 0 21.7201 0H31.7501C38.0701 0 43.2801 5.22 43.2801 11.53ZM36.8601 11.53C36.8601 8.72 34.5501 6.41 31.7401 6.41H26.5201V21.55H31.7401C34.5501 21.55 36.8601 19.24 36.8601 16.33V11.52V11.53Z" fill="black"/>
<path d="M84.0699 81.19C65.2699 81.18 49.4699 65.56 49.4199 46.27H55.9199C55.4499 62.35 67.5499 74.78 83.2199 75.27C98.8899 75.76 111.93 64.12 112.41 48.04C112.43 47.45 112.43 46.86 112.41 46.28H118.91C118.87 65.57 102.87 81.18 84.0699 81.2V81.19Z" fill="black"/>
<path d="M72.6699 11.63V48.04C72.6699 48.94 71.9699 49.64 71.0699 49.64H67.8599C66.9599 49.64 66.2599 48.94 66.2599 48.04V28.08H55.9299V48.04C55.9299 48.94 55.2299 49.64 54.3299 49.64H51.1199C50.2199 49.64 49.4399 48.94 49.4399 48.04L49.5199 11.63C49.4999 5.31998 54.7199 0.0999756 61.1399 0.0999756C67.5599 0.0999756 72.6699 5.31998 72.6699 11.63ZM66.2499 11.63C66.2499 8.81997 63.9399 6.50998 61.1299 6.50998C58.3199 6.50998 55.9099 8.81997 55.9099 11.63V21.66H66.2399V11.63H66.2499Z" fill="black"/>
<path d="M102.06 16.35C102.06 19.66 100.76 22.67 98.55 24.77C100.76 26.88 102.06 29.79 102.06 33.09V48.03C102.06 48.83 101.36 49.63 100.45 49.63H97.24C96.34 49.63 95.64 48.83 95.64 48.03V33.09C95.64 30.28 93.33 27.97 90.52 27.97H85.4V48.03C85.4 48.83 84.6 49.63 83.8 49.63H80.59C79.69 49.63 78.99 48.83 78.99 48.03V3.21C78.99 1.4 80.39 0 82.2 0H90.53C96.95 0 102.06 5.22 102.06 11.53V16.34V16.35ZM95.64 11.53C95.64 8.72 93.33 6.41 90.52 6.41H85.4V21.55H90.52C93.33 21.55 95.64 19.24 95.64 16.33V11.52V11.53Z" fill="black"/>
<path d="M125.03 1.6V4.81C125.03 5.71 124.33 6.41 123.43 6.41H118.92V48.03C118.92 48.83 118.22 49.63 117.32 49.63H114.11C113.21 49.63 112.43 48.83 112.43 48.03L112.51 6.41H108C107.1 6.41 106.39 5.71 106.39 4.81V1.6C106.39 0.7 107.09 0 108 0H123.45C124.35 0 125.05 0.7 125.05 1.6H125.03Z" fill="black"/>
<path d="M138.77 6.42V21.56H147.5C148.4 21.56 149.1 22.26 149.1 23.16V26.37C149.1 27.27 148.4 27.97 147.5 27.97H138.77V43.22H147.5C148.4 43.22 149.1 43.92 149.1 44.82V48.03C149.1 48.93 148.4 49.63 147.5 49.63H135.56C133.75 49.63 132.35 48.13 132.35 46.42V3.21C132.35 1.4 133.75 0 135.56 0H147.5C148.4 0 149.1 0.7 149.1 1.6V4.81C149.1 5.71 148.4 6.41 147.5 6.41H138.77V6.42Z" fill="black"/>
<path d="M180.59 11.53V48.04C180.59 48.84 179.89 49.64 178.99 49.64H175.78C174.88 49.64 174.18 48.84 174.18 48.04V11.53C174.18 8.72 171.87 6.41 169.06 6.41C166.25 6.41 163.84 8.72 163.84 11.53V48.04C163.84 48.84 163.14 49.64 162.24 49.64H159.03C158.13 49.64 157.42 48.84 157.42 48.04V11.53C157.42 5.21 162.64 0 169.05 0C175.46 0 180.58 5.22 180.58 11.53H180.59Z" fill="black"/>
<path d="M212.09 11.63V48.04C212.09 48.94 211.39 49.64 210.49 49.64H207.28C206.38 49.64 205.68 48.94 205.68 48.04V28.08H195.35V48.04C195.35 48.94 194.65 49.64 193.75 49.64H190.54C189.64 49.64 188.93 48.94 188.93 48.04V11.63C188.93 5.30998 194.15 0.0999756 200.56 0.0999756C206.97 0.0999756 212.09 5.31998 212.09 11.63ZM205.67 11.63C205.67 8.81997 203.36 6.50998 200.55 6.50998C197.74 6.50998 195.33 8.81997 195.33 11.63V21.66H205.66V11.63H205.67Z" fill="black"/>
<path d="M226.83 48.04C226.83 48.94 226.13 49.64 225.23 49.64H222.02C221.12 49.64 220.41 48.94 220.41 48.04V1.6C220.41 0.7 221.11 0 222.02 0H225.23C226.03 0 226.83 0.7 226.83 1.6V48.04Z" fill="black"/>
<path d="M257.72 16.35C257.72 19.66 256.42 22.67 254.21 24.77C256.42 26.88 257.72 29.79 257.72 33.09V48.03C257.72 48.83 257.02 49.63 256.11 49.63H252.9C252 49.63 251.3 48.83 251.3 48.03V33.09C251.3 30.28 248.99 27.97 246.18 27.97H241.06V48.03C241.06 48.83 240.26 49.63 239.46 49.63H236.25C235.35 49.63 234.65 48.83 234.65 48.03V3.21C234.65 1.4 236.05 0 237.86 0H246.19C252.61 0 257.72 5.22 257.72 11.53V16.34V16.35ZM251.3 11.53C251.3 8.72 248.99 6.41 246.18 6.41H241.06V21.55H246.18C248.99 21.55 251.3 19.24 251.3 16.33V11.52V11.53Z" fill="black"/>
<path d="M272.47 6.42V21.56H281.2C282.1 21.56 282.8 22.26 282.8 23.16V26.37C282.8 27.27 282.1 27.97 281.2 27.97H272.47V43.22H281.2C282.1 43.22 282.8 43.92 282.8 44.82V48.03C282.8 48.93 282.1 49.63 281.2 49.63H269.26C267.45 49.63 266.05 48.13 266.05 46.42V3.21C266.05 1.4 267.45 0 269.26 0H281.2C282.1 0 282.8 0.7 282.8 1.6V4.81C282.8 5.71 282.1 6.41 281.2 6.41H272.47V6.42Z" fill="black"/>
<path d="M303.76 14.94V11.53C303.76 8.72 301.45 6.41 298.64 6.41C295.83 6.41 293.52 8.72 293.52 11.53C293.52 12.3967 293.62 12.9667 293.82 13.24L307.76 31.69C309.367 33.83 310.17 35.97 310.17 38.11C310.17 44.43 304.96 49.64 298.64 49.64C292.32 49.64 287.11 44.42 287.11 38.11V34.7C287.11 33.8 287.81 33.1 288.72 33.1H291.93C292.83 33.1 293.53 33.8 293.53 34.7V38.11C293.53 40.92 295.84 43.23 298.65 43.23C301.46 43.23 303.77 40.92 303.77 38.11C303.77 37.2433 303.67 36.6733 303.47 36.4L289.53 17.95C287.923 15.81 287.12 13.67 287.12 11.53C287.12 5.21 292.34 0 298.65 0C304.96 0 310.18 5.22 310.18 11.53V14.94C310.18 15.84 309.48 16.54 308.58 16.54H305.37C304.47 16.54 303.77 15.84 303.77 14.94H303.76Z" fill="black"/>
<path d="M6.37 21.52V26.11C6.37 26.75 5.67 27.21 4.8 27.21H1.6C0.7 27.21 0 26.74 0 26.11V21.52C0 20.88 0.7 20.39 1.6 20.39H4.8C5.82 20.39 6.37 20.88 6.37 21.52Z" fill="black"/>
<path d="M330.37 21.52V26.11C330.37 26.75 329.67 27.21 328.8 27.21H325.6C324.7 27.21 324 26.74 324 26.11V21.52C324 20.88 324.7 20.39 325.6 20.39H328.8C329.82 20.39 330.37 20.88 330.37 21.52Z" fill="black"/>
</g>
<defs>
<clipPath id="clip0_58_343">
<rect width="330.37" height="81.19" fill="white"/>
</clipPath>
</defs>
</svg>
