<?xml version="1.0" encoding="UTF-8"?>
<svg id="Calque_2" data-name="Calque 2" xmlns="http://www.w3.org/2000/svg" viewBox="0 0 52.62 51.61">
  <g id="Calque_1-2" data-name="Calque 1">
    <g>
      <path d="M40.65,7.53c.12-1.29.17-4.65-.03-5.86-.36-2.23-3.6-2.22-3.96,0-.12.73.05,1.57-.01,2.31h-17.2l-.25,3.66h17.45c.08,3,3.71,3,4-.11h0ZM16.3,22.39h-6.77c-.52,0-.95.42-.96.94,0,0,0,0,0,0v4.96c0,.52.43.94.96.94h6.77c.52,0,.95-.42.96-.94,0,0,0,0,0,0v-4.96c0-.52-.43-.95-.96-.94,0,0,0,0,0,0M29.69,22.39h-6.77c-.52,0-.95.42-.96.94,0,0,0,0,0,0v4.96c0,.52.43.94.96.94h6.77c.52,0,.95-.42.96-.94,0,0,0,0,0,0v-4.96c0-.52-.43-.95-.96-.94,0,0,0,0,0,0M43.07,22.39h-6.77c-.52,0-.95.42-.96.94v4.96c0,.52.43.94.96.94h6.77c.52,0,.95-.42.96-.94,0,0,0,0,0,0v-4.96c0-.52-.43-.95-.96-.94,0,0,0,0,0,0M16.3,33.95h-6.77c-.52,0-.95.42-.96.94,0,0,0,0,0,0v4.96c0,.52.43.94.96.94h6.77c.52,0,.95-.42.96-.94,0,0,0,0,0,0v-4.96c0-.52-.43-.95-.96-.94,0,0,0,0,0,0M29.69,33.95h-6.77c-.52,0-.95.42-.96.94,0,0,0,0,0,0v4.96c0,.52.43.94.96.94h6.77c.52,0,.95-.42.96-.94,0,0,0,0,0,0v-4.96c0-.52-.43-.95-.96-.94,0,0,0,0,0,0M43.07,33.95h-6.77c-.52,0-.95.42-.96.94v4.96c0,.52.43.94.96.94h6.77c.52,0,.95-.42.96-.94,0,0,0,0,0,0v-4.96c0-.52-.43-.95-.96-.94,0,0,0,0,0,0"/>
      <path d="M52.6,39.19V8.25c.18-2.82-4.12-4.27-4.61-4.27h-4.36v3.66c3.04,0,4.97-.54,5.24,3.04.07.9.24,2.24.06,3.31H3.87s-.39-4.55.51-5.61c1.18-1.38,5.66-.48,7.44-.76.4,2.66,3.87,3.22,4.15.15.11-1.21.15-5.97-.29-6.82C15.24.11,14.49-.05,13.59.05c-1.84.2-1.65,2.6-1.61,3.92h-7.1C2.78,3.98-.13,7.07,0,9.22l.03,37.61c-.04,4.35,4.24,4.78,4.34,4.78h43.9c.1,0,4.38-.43,4.34-4.78v-7.63s0,0,0,0M47.63,47.57c-1.38-.01-6.7,0-8.41,0,0,0-32.58-.03-34.22,0-1.65.02-1.37-1.95-1.37-1.95l.12-28.45h45.12l.12,22.07h0l.03,6.39s.27,1.97-1.37,1.95h0Z"/>
    </g>
  </g>
</svg>