<?xml version="1.0" encoding="UTF-8"?>
<svg id="Calque_2" data-name="Calque 2" xmlns="http://www.w3.org/2000/svg" viewBox="0 0 56.74 50">
  <g id="Calque_1-2" data-name="Calque 1">
    <g>
      <path d="M13.23,46.12c-.17,1.6-1.23,3.06-2.76,3.58-1.07.36-4.73.33-5.98.23-1.91-.18-3.44-1.67-3.66-3.58v-21.93c.2-2.17,1.79-3.39,3.05-4.94-3.31-.26-5.08-4.09-2.93-6.76,1.69-2.1,4.22-1.21,6.54-1.47.69-2.06.88-4.34,1.89-6.28C10.8,2.25,13.71.36,16.78.15c7.55-.49,15.63.38,23.24,0,2.68.26,5.19,1.66,6.73,3.9,1.47,2.13,1.68,4.77,2.45,7.19,1.89.28,4.06-.45,5.72.71,3.32,2.31,1.81,7.26-2.11,7.52,1.26,1.49,2.79,2.75,3.04,4.83v21.93c-.14,1.97-1.72,3.52-3.66,3.69-1.25.11-4.91.14-5.98-.23-1.44-.49-2.76-2.15-2.76-3.7v-3.01H13.23c-.07,1,.1,2.14,0,3.13h0ZM47.5,16.52c-.75-2.67-1.29-5.42-2.06-8.09-.84-2.91-2.39-5.09-5.66-5.32-7.45-.53-15.5.41-23.01,0-2.2.25-4.16,1.62-5.03,3.67l-2.57,9.73h38.34ZM6.69,14.25h-3.1c-.28,0-.69.69-.73.98-.2,1.67,2.27,1.33,3.27,1.24l.56-2.22ZM53.08,14.25c-.79-.18-2.23.14-3.1,0l.56,2.22c.13.09,1.91.08,2.19.04,1.38-.19,1.18-2.07.35-2.26M53.03,40.04v-15.05c0-1.7-3.15-3.95-4.05-5.35l-.4-.17H7.99s-.24.11-.24.11c-.57.99-3.99,3.89-3.99,4.84v15.62h12.18c1.43-2.74,1.52-7.24,5.35-7.5,4.6-.32,9.57.25,14.22,0,1.26.14,2.36.74,3.01,1.86.93,1.6,1.46,3.93,2.23,5.64h12.29ZM37.58,40.04c-.54-1.19-.92-2.95-1.55-4.06-.13-.24-.28-.39-.55-.46l-14.44.06-.35.33-1.59,4.13h18.49,0ZM10.29,42.99H3.75v3.24c0,.24.57.69.85.73.83.13,3.75.11,4.62,0,.42-.05,1.07-.56,1.07-.97v-3.01h0ZM46.55,42.99l-.17.17v2.84c0,.34.6.9.96.96.88.14,3.57.1,4.51.01.55-.05,1.18-.49,1.18-1.08v-2.73l-.17-.17h-6.31Z"/>
      <path d="M12.53,22.24c6.32-.6,7.08,8.91,1.19,9.61-6.65.79-7.46-9.02-1.19-9.61M12.63,25.18c-1.91.31-2.04,3.34-.12,3.7,3.18.59,2.99-4.16.12-3.7M43.19,22.24c4.12-.43,6.88,4.42,4.31,7.75-3.11,4.01-9.42,1.2-8.53-3.83.37-2.08,2.15-3.7,4.23-3.92h0ZM43.3,25.18c-1.94.31-2.04,3.49.09,3.72,3.05.33,2.72-4.18-.09-3.72"/>
    </g>
  </g>
</svg>