<?xml version="1.0" encoding="UTF-8"?>
<svg id="Calque_2" data-name="Calque 2" xmlns="http://www.w3.org/2000/svg" viewBox="0 0 51.96 51.34">
  <g id="Calque_1-2" data-name="Calque 1">
    <g>
      <path d="M51.44,20.63c-1.49-7.32-6.12-13.63-12.68-17.31C35.35,1.41,29.59-.38,25.61.07c-.95.1-1.72,1.11-1.84,1.98-.16,1.12-.13,3.79-.03,4.93.09,1.07.76,1.94,1.71,2.21.85.24,1.71-.08,2.29-.85.12-.16.41-.76.45-1v-2.78h.15c3.11.28,6.37,1.4,9.18,3.17,1.03.65,1.63,1.09,1.79,1.33.11.14.12.23.04.38-.14.27-.55.63-.99,1-.46.39-.79.69-.96.93-.68.98-.34,2,.15,2.58.52.6,1.52,1.12,2.67.59.41-.19.81-.64,1.19-1.08.31-.35.62-.71.94-.92.22-.14.36-.17.51-.09l.04.03c2.58,3.41,4.08,7.07,4.44,10.87v.15s-2.72,0-2.72,0h-.11c-.14.05-.52.17-.63.21-.74.31-1.25,1.01-1.32,1.82-.08.77.27,1.52.92,1.94.16.1.7.34.9.4l2.97.02-.02.15c-.44,3.88-2,7.66-4.52,10.92l-.07.06s-.04.03-.06.03c-.18,0-.78-.62-1.49-1.35-.4-.41-.58-.59-.68-.67-1.04-.74-2.17-.39-2.84.28-.66.67-.97,1.8-.18,2.81.2.26.53.54.85.82.36.31.73.63.94.93.13.18.19.34.09.51l-.03.04c-3.37,2.5-7.17,4.02-11.01,4.39h-.15s0-2.69,0-2.69v-.1c-.07-.21-.14-.42-.21-.62-.41-.96-1.31-1.3-2.01-1.3s-1.6.34-2.01,1.31c-.08.2-.14.41-.2.62v2.81s-.17-.02-.17-.02c-3.91-.43-7.72-1.95-11-4.39l-.04-.04c-.08-.14-.06-.29.08-.5.21-.32.58-.63.94-.95.31-.27.64-.56.85-.81.79-1.01.47-2.15-.18-2.81-.66-.67-1.8-1.03-2.87-.26-.07.06-.23.22-.67.66-.7.71-1.3,1.33-1.48,1.34,0,0-.02,0-.07-.03l-.06-.07c-2.65-3.37-4.21-7.15-4.52-10.92v-.15s2.77,0,2.77,0c.48,0,1.28-.57,1.55-.95.67-.92.52-2.08-.35-2.84-.29-.25-.93-.6-1.31-.6h-2.67v-.15c.41-4.56,2.58-9.11,5.96-12.49l.23-.23v4.29l.03.07c.06.15.2.48.24.56.54,1.03,1.59,1.22,2.33,1.07.74-.15,1.65-.74,1.76-1.91.15-1.61.08-3.37.01-5.06-.06-1.54-.12-3.12-.02-4.61v-.12c-.26-1.07-1.05-1.67-2.39-1.77-1.12-.09-2.73-.14-4.4-.14s-3.27.05-4.39.14c-.98.07-1.86.61-2.24,1.37-.31.62-.25,1.31.16,1.96.27.42,1.12,1.07,1.64,1.07h4.14l-.24.24C-1.12,16.32-2.44,29.8,4.25,39.81c4.67,7,12.25,11.2,20.78,11.5.33.01.66.02.99.02,8.14,0,15.6-3.61,20.56-9.99,4.57-5.86,6.35-13.43,4.86-20.71"/>
      <path d="M23.74,25.63c.03.39.14.95.45,1.36.66.87,1.64,1.73,2.59,2.58.83.74,1.69,1.5,2.34,2.26l.05.06.07.04c.36.2.73.28,1.08.28.69,0,1.31-.33,1.71-.77.55-.6.91-1.67.1-2.7-.51-.65-1.19-1.26-1.91-1.9-.71-.64-1.44-1.29-1.99-1.99l-.03-.08c-.1-1.31-.05-2.69-.01-4.02.05-1.34.09-2.72-.01-4.02-.1-1.19-.87-2.42-2.35-2.34-1.09.06-1.99.96-2.09,2.1v.06c.08,1.37.02,2.83-.03,4.25-.06,1.61-.12,3.29.01,4.82h0Z"/>
    </g>
  </g>
</svg>