<?xml version="1.0" encoding="UTF-8"?>
<svg id="Calque_2" data-name="Calque 2" xmlns="http://www.w3.org/2000/svg" viewBox="0 0 60 33.02">
  <g id="Calque_1-2" data-name="Calque 1">
    <g>
      <path d="M1.32,13.78h22.37c.73,0,1.32.59,1.32,1.32s-.59,1.32-1.32,1.32H1.32c-.73,0-1.32-.59-1.32-1.32s.59-1.32,1.32-1.32M3.63,7.96h9.58c.73,0,1.32.59,1.32,1.32s-.59,1.32-1.32,1.32H3.63c-.73,0-1.32-.59-1.32-1.32s.59-1.32,1.32-1.32M7.16,19.02h9.58c.73,0,1.32.59,1.32,1.32s-.59,1.32-1.32,1.32H7.16c-.73,0-1.32-.59-1.32-1.32s.59-1.32,1.32-1.32"/>
      <path d="M59.92,6.52c-.04-4.74-1.63-6.45-6.2-6.48-10.32-.08-20.63-.03-30.95-.03-.38,0-.74,0-1.1.03-3.3.32-5.06,1.97-5.1,5.31-.04,2.45-.06,4.06-.06,6.51.51.34,1.11.51,1.72.49.61.03,1.21-.14,1.72-.47,0-2.23.01-3.45.03-5.67,0-.15,0-.31.01-.45.25.28.51.54.81.78,2.45,2.04,4.96,4.03,7.44,6.03l2.43,1.97-.21.21c-1.32,1.5-2.56,3.07-3.82,4.63-2.18,2.69-4.36,5.39-6.52,8.09l-.11.15v-.43c-.03-2.84-.04-5.67-.04-8.51-.46-.39-1.05-.58-1.66-.53-.64-.04-1.28.15-1.79.53,0,3.6.03,5.73.03,9.33,0,.56.07,1.1.21,1.64.37,1.66,1.66,2.97,3.32,3.36h33.69c4.35-.1,6.1-.5,6.16-4.94.08-7.19.08-14.38,0-21.55h-.01ZM23.11,4.16c-.29-.24-.59-.46-.9-.65h.38c10.32-.04,20.63-.06,30.95,0,2.35,0,2.92.6,2.93,2.96.06,7.01.06,14,0,21.01,0,.38-.01.7-.04.97l-.1-.12c-2.16-2.71-4.33-5.41-6.52-8.09-1.27-1.56-2.5-3.13-3.82-4.63-.14-.16-.3-.3-.47-.42l.42-.33c1.82-1.47,3.66-2.91,5.44-4.42,1.13-.95,1.26-1.92.49-2.63-1.07-.97-1.93-.43-2.72.21-2.48,1.97-4.94,3.96-7.4,5.96-1.1.89-2.2,1.77-3.27,2.67-1.72-1.46-3.48-2.86-5.24-4.3-3.37-2.73-6.74-5.45-10.12-8.16v-.03ZM22.66,29.81h-.17l.06-.07c1.64-1.95,3.21-3.96,4.82-5.94,1.26-1.56,2.52-3.11,3.78-4.67.57-.71,1.17-1.4,1.7-2.14.11-.14.21-.29.29-.45l.96.78c.89.72,1.76,1.46,2.68,2.13.29.22.6.42.92.57.71.58,1.38.28,2.02-.18.68-.49,1.31-1.03,1.96-1.56l1.53-1.24c.11.26.26.53.44.75.53.74,1.13,1.43,1.7,2.14,1.27,1.56,2.52,3.11,3.78,4.67,1.52,1.86,3,3.75,4.55,5.6h-.46l-30.55-.42h-.01Z"/>
    </g>
  </g>
</svg>