<?xml version="1.0" encoding="UTF-8"?>
<svg id="Calque_2" data-name="Calque 2" xmlns="http://www.w3.org/2000/svg" viewBox="0 0 60 46.2">
  <g id="Calque_1-2" data-name="Calque 1">
    <g>
      <path d="M13.6,1.91c0-1.05-.85-1.91-1.91-1.91s-1.91.85-1.91,1.91v3.41h3.82V1.91ZM9.78,44.29c0,1.05.85,1.91,1.91,1.91s1.91-.85,1.91-1.91v-10.37l-3.82-.02v10.39ZM45.41,1.91c-.03-1.06-.92-1.88-1.97-1.85-1.01.03-1.82.84-1.85,1.85v3.39c1.27,0,2.55.01,3.82.02V1.91ZM41.58,44.29c.03,1.06.92,1.88,1.97,1.85,1.01-.03,1.82-.84,1.85-1.85v-10.35h-3.82v10.35ZM51.43,6.89c-2.01-.02-4.02-.02-6.02-.03-1.28,0-2.55-.02-3.82-.02-9.33-.03-18.65,0-27.98,0h-4.96c-.51,0-1.02-.02-1.53.03C2.57,7.31.14,9.6.07,14.22l-.07,8.62c.07,6.56,2.25,8.91,8.57,8.96h1.21l3.82.02c9.33.05,18.66.04,27.98.02h9.76c.51,0,1.02,0,1.53-.03,4.55-.44,6.99-2.73,7.05-7.35l.08-8.62c-.07-6.56-2.25-8.91-8.57-8.95M55.18,23.3c0,.22,0,.41-.02.61-.12,2.04-1.16,3.04-3.05,3.12-.17,0-.34.01-.53.01-2.06.01-4.12.02-6.18.02h-3.82c-9.33.02-18.65.02-27.98,0h-4.78c-3.24,0-4.04-.83-4.06-4.1l.07-7.56c0-.21,0-.41.02-.61.11-2.04,1.16-3.03,3.05-3.12.16,0,.34,0,.52-.02h5.2c9.33-.03,18.65-.04,27.98-.02h3.82c1.93,0,3.86,0,5.79.02,3.24,0,4.03.83,4.06,4.1l-.08,7.55Z"/>
      <path d="M6.25,14.26c-.43.64-.65,1.39-.64,2.15l-.05,3.94,8.18-8.18h-1.16c-.41,0-.83,0-1.24.02-1.84.12-3.26.52-4.22,1.2M26.3,12.16l-14.33,14.33h5.39l14.34-14.34-5.4.02ZM47.32,12.2c-1.12,0-2.23,0-3.34-.01l-14.34,14.34h5.41l14.23-14.23c-.65-.07-1.3-.1-1.95-.1M48.49,26.5c3.7-.25,5.68-1.57,5.73-4.22l.04-3.28-7.51,7.51h.51c.41,0,.83,0,1.24-.02"/>
    </g>
  </g>
</svg>