<svg width="580" height="1072" fill="none" xmlns="http://www.w3.org/2000/svg"><path fill-rule="evenodd" clip-rule="evenodd" d="M44 861c179.493 0 325-145.507 325-325S223.493 211 44 211s-325 145.507-325 325 145.507 325 325 325Zm0 211c296.025 0 536-239.975 536-536S340.025 0 44 0s-536 239.975-536 536 239.975 536 536 536Z" fill="#EDEDED"/><path fill-rule="evenodd" clip-rule="evenodd" d="M44 861c179.493 0 325-145.507 325-325S223.493 211 44 211s-325 145.507-325 325 145.507 325 325 325Zm0 211c296.025 0 536-239.975 536-536S340.025 0 44 0s-536 239.975-536 536 239.975 536 536 536Z" fill="#EDEDED"/><path fill-rule="evenodd" clip-rule="evenodd" d="M44 861c179.493 0 325-145.507 325-325S223.493 211 44 211s-325 145.507-325 325 145.507 325 325 325Zm0 211c296.025 0 536-239.975 536-536S340.025 0 44 0s-536 239.975-536 536 239.975 536 536 536Z" fill="#F7F7F7"/></svg>