<svg width="769" height="1072" fill="none" xmlns="http://www.w3.org/2000/svg"><path fill-rule="evenodd" clip-rule="evenodd" d="M536 861c179.493 0 325-145.507 325-325S715.493 211 536 211 211 356.507 211 536s145.507 325 325 325Zm0 211c296.025 0 536-239.975 536-536S832.025 0 536 0 0 239.975 0 536s239.975 536 536 536Z" fill="#F7F7F7"/><path fill-rule="evenodd" clip-rule="evenodd" d="M536 861c179.493 0 325-145.507 325-325S715.493 211 536 211 211 356.507 211 536s145.507 325 325 325Zm0 211c296.025 0 536-239.975 536-536S832.025 0 536 0 0 239.975 0 536s239.975 536 536 536Z" fill="#F7F7F7"/><path fill-rule="evenodd" clip-rule="evenodd" d="M536 861c179.493 0 325-145.507 325-325S715.493 211 536 211 211 356.507 211 536s145.507 325 325 325Zm0 211c296.025 0 536-239.975 536-536S832.025 0 536 0 0 239.975 0 536s239.975 536 536 536Z" fill="#F7F7F7"/></svg>