<svg width="1920" height="2894" viewBox="0 0 1920 2894" fill="none" xmlns="http://www.w3.org/2000/svg">
<path d="M2317.95 2079.53L1934.44 1100.04L1608.26 1227.76L1735.97 1553.94L1408.84 1682.02L1281.13 1355.84L954.949 1483.56L1082.66 1809.74L636.408 1984.47L764.122 2310.65L1210.38 2135.92L1338.46 2463.05L2317.95 2079.53Z" fill="#636274" fill-opacity="0.05"/>
<path d="M238.895 2893.57L-144.617 1914.08L181.565 1786.36L6.46673 1339.16L333.594 1211.08L508.692 1658.28L834.874 1530.57L962.588 1856.75L636.406 1984.46L764.12 2310.64L1090.3 2182.93L1218.39 2510.06L238.895 2893.57Z" fill="#A6CE38" fill-opacity="0.05"/>
<path d="M978.317 582.459L1106.03 908.641L659.777 1083.37L787.861 1410.5L461.679 1538.21L333.595 1211.08L6.46763 1339.17L134.552 1666.29L-191.63 1794.01L-575.142 814.518L404.348 431.005L532.062 757.187L978.317 582.459Z" fill="#636274" fill-opacity="0.05"/>
<path d="M1735.97 1553.94L1561.24 1107.68L1887.42 979.971L1503.91 0.480002L524.418 383.993L652.132 710.174L978.314 582.46L1106.03 908.642L779.846 1036.36L907.931 1363.48L1234.11 1235.77L1408.84 1682.02L1735.97 1553.94Z" fill="#A6CE38" fill-opacity="0.05"/>
</svg>
