<svg width="55" height="43" viewBox="0 0 55 43" fill="none" xmlns="http://www.w3.org/2000/svg">
<path d="M27.0001 19.3332L53.9001 2.5332C53.7173 1.82495 53.3066 1.19649 52.7313 0.744706C52.1561 0.292925 51.4482 0.0429086 50.7168 0.0332031H3.28343C2.55203 0.0429086 1.84413 0.292925 1.26886 0.744706C0.693591 1.19649 0.282899 1.82495 0.100098 2.5332L27.0001 19.3332Z" fill="white"/>
<path d="M27 23.2832L0 6.3999V38.6832C0 39.5673 0.351189 40.4151 0.97631 41.0403C1.60143 41.6654 2.44928 42.0166 3.33333 42.0166H50.7167C51.6007 42.0166 52.4486 41.6654 53.0737 41.0403C53.6988 40.4151 54.05 39.5673 54.05 38.6832V6.3999L27 23.2832Z" fill="white"/>
</svg>
