<svg width="246" height="215" viewBox="0 0 246 215" fill="none" xmlns="http://www.w3.org/2000/svg">
<path d="M107.221 0C86.0147 0 65.2846 6.27598 47.6522 18.0343C30.0198 29.7925 16.2771 46.505 8.16176 66.0583C0.0464593 85.6116 -2.07688 107.127 2.06027 127.885C6.19741 148.643 16.4092 167.71 31.4044 182.675C46.3995 197.641 65.5044 207.832 86.3032 211.961C107.102 216.09 128.661 213.971 148.253 205.872C167.845 197.773 184.59 184.057 196.372 166.46C208.154 148.862 214.442 128.173 214.442 107.009C214.442 78.6283 203.146 51.4102 183.038 31.3421C162.93 11.2741 135.658 0 107.221 0ZM160.065 130.017C160.097 134.137 159.301 138.222 157.722 142.029C156.144 145.836 153.816 149.288 150.876 152.181C147.977 155.023 144.578 157.309 140.85 158.924C137.032 160.593 132.907 161.444 128.739 161.422C123.478 161.474 118.293 160.171 113.684 157.639C109.075 155.108 105.197 151.433 102.426 146.97C99.6128 151.354 95.7644 154.982 91.2187 157.534C86.6085 160.131 81.3955 161.471 76.1023 161.422C71.9106 161.459 67.7587 160.608 63.9213 158.924C60.2497 157.319 56.9185 155.031 54.1062 152.181C51.2932 149.314 49.0483 145.943 47.4901 142.244C45.8535 138.377 45.0268 134.216 45.0609 130.017V65.6332H54.8023V130.017C54.7838 132.882 55.3532 135.72 56.4756 138.357C57.5472 140.886 59.0802 143.194 60.9965 145.164C62.9698 147.161 65.3242 148.743 67.9205 149.817C70.5168 150.891 73.3024 151.434 76.1128 151.416C78.9371 151.427 81.7336 150.859 84.3284 149.746C86.877 148.669 89.1938 147.112 91.1519 145.16C93.1138 143.198 94.6943 140.89 95.8134 138.354C96.9875 135.73 97.5868 132.887 97.5711 130.014V65.6332H107.597V130.017C107.68 135.779 110.002 141.284 114.073 145.371C115.968 147.264 118.212 148.775 120.682 149.819C123.241 150.893 125.992 151.434 128.767 151.412C131.578 151.433 134.364 150.89 136.961 149.816C139.557 148.742 141.911 147.159 143.884 145.16C145.802 143.191 147.337 140.883 148.408 138.354C149.531 135.717 150.101 132.879 150.081 130.014V81.7617C150.384 81.7617 150.679 81.8073 150.988 81.8073C154.16 81.8085 157.282 81.0134 160.065 79.4953V130.017Z" fill="white"/>
<path d="M155.72 34.1867C147.033 28.4924 136.736 28.1451 133.629 26.847C136.624 28.4365 139.134 30.803 140.895 33.6971C142.656 36.5911 143.602 39.9056 143.634 43.2912C143.985 50.459 141.324 56.9077 140.667 61.1845C139.812 68.6049 143.075 73.794 148.84 74.9588C154.004 71.1205 157.347 61.9774 158.008 58.3987C158.455 55.1292 158.173 51.8015 157.181 48.6537C156.189 45.5058 154.513 42.6156 152.271 40.1898H152.254C152.187 40.1371 152.19 40.1371 152.254 40.1898C154.777 41.9541 156.903 44.2236 158.499 46.8537C160.094 49.4838 161.123 52.4167 161.52 55.4657C161.917 58.5146 161.673 61.6126 160.804 64.5623C159.935 67.5119 158.46 70.2485 156.472 72.5976C155.952 73.2993 155.417 73.9764 154.837 74.6185C158.593 73.2036 161.861 70.74 164.252 67.5217C166.642 64.3035 168.054 60.4666 168.319 56.4691C169.293 50.4696 164.554 39.5617 155.72 34.1867Z" fill="#006AB9"/>
<path d="M204.686 27.6644C223.747 25.1032 236.818 33.513 242.551 42.4632C241.166 41.779 239.739 41.1615 238.273 40.5896C211.97 30.3413 192.133 43.6455 183.952 63.1036V63.1316C183.889 63.279 183.893 63.2755 183.952 63.1316V63.0966C190.804 53.8798 199.747 45.705 212.888 44.6104C219.43 44.0631 236.87 45.5647 245.961 52.6799C246.664 63.2054 239.166 71.2748 225.87 73.2957C218.136 74.1693 205.678 72.5941 193.388 76.5657C180.996 80.3513 170.696 91.3012 169.529 101.602C170.33 95.6377 166.09 77.6357 171.901 59.9319C177.087 42.1404 193.785 28.8082 204.686 27.6644Z" fill="#7DAD14"/>
</svg>
