<?xml version="1.0" encoding="UTF-8"?><svg id="Calque_2" xmlns="http://www.w3.org/2000/svg" viewBox="0 0 3378.53 1828.4"><defs><style>.cls-1,.cls-2{fill:#fff;}.cls-2{stroke-width:.93px;}.cls-2,.cls-3{stroke:#fff;stroke-miterlimit:10;}.cls-3{fill:none;stroke-width:3.71px;}</style></defs><g id="Calque_1-2"><g><g><path class="cls-2" d="M2236.94,1023.49c-44.46,0-80.46,36.03-80.46,80.46v496.61c0,35.15-28.62,63.75-63.75,63.75-35.17,0-63.75-28.6-63.75-63.75v-496.61c0-44.43-36.03-80.46-80.48-80.46-44.43,0-80.46,36.03-80.46,80.46v496.61c0,35.15-28.6,63.75-63.75,63.75-35.15,0-63.75-28.6-63.75-63.75V730.68c0-44.4-36.02-80.43-80.43-80.43-44.47,0-80.48,36.03-80.48,80.43v869.88c0,123.89,100.77,224.65,224.66,224.65,54.85,0,105.16-19.77,144.2-52.57,39.06,32.79,89.35,52.57,144.22,52.57,123.86,0,224.66-100.76,224.66-224.65v-496.61c0-44.43-36.02-80.46-80.45-80.46"/><path class="cls-2" d="M225.12,1825.18c-123.88,0-224.66-100.74-224.66-224.65v-376.43c0-123.86,100.77-224.68,224.66-224.68,123.88,0,224.66,100.81,224.66,224.68,0,44.43-36.03,80.45-80.46,80.45-44.43,0-80.45-36.02-80.45-80.45,0-35.15-28.6-63.73-63.75-63.73-35.15,0-63.75,28.58-63.75,63.73v376.43c0,35.17,28.6,63.78,63.74,63.78,35.15,0,63.75-28.6,63.75-63.78,0-44.42,36.02-80.44,80.45-80.44s80.46,36.02,80.46,80.44c0,123.92-100.78,224.65-224.66,224.65"/><path class="cls-3" d="M792.06,1820.34c-41.33,0-81.94-11.51-117.97-33.82-51.02-31.64-86.63-81.22-100.35-139.68l-85.9-366.5c-28.3-120.61,46.84-241.71,167.44-270,120.58-28.3,241.75,46.81,270.01,167.46,10.16,43.27-16.69,86.53-59.95,96.69-43.29,10.17-86.56-16.7-96.71-59.97-8.02-34.23-42.37-55.5-76.6-47.49-34.23,8-55.55,42.37-47.51,76.59l85.93,366.5c3.88,16.58,13.97,30.66,28.46,39.63,14.46,8.97,31.55,11.78,48.12,7.89,16.61-3.91,30.68-14.01,39.66-28.48,8.97-14.49,11.77-31.56,7.89-48.14-10.14-43.27,16.69-86.57,59.95-96.69,43.27-10.17,86.56,16.69,96.71,59.95,13.69,58.43,3.82,118.71-27.8,169.69-31.64,51.01-81.24,86.62-139.68,100.33-17.16,4.04-34.5,6.03-51.69,6.03"/><path class="cls-2" d="M1273.94,1825.18c-123.88,0-224.66-100.74-224.66-224.65v-376.43c0-123.86,100.78-224.68,224.66-224.68,123.88,0,224.68,100.81,224.68,224.68,0,44.43-36.05,80.45-80.5,80.45-44.41,0-80.43-36.02-80.43-80.45,0-35.15-28.6-63.73-63.75-63.73-35.15,0-63.75,28.58-63.75,63.73v376.43c0,35.17,28.6,63.78,63.75,63.78,35.15,0,63.75-28.6,63.75-63.78,0-44.42,36.02-80.44,80.43-80.44,44.45,0,80.5,36.02,80.5,80.44,0,123.92-100.79,224.65-224.68,224.65"/></g><path class="cls-2" d="M1273.92,.46c-201.99,0-365.8,163.81-365.8,365.82,0,202.06,266.72,513.39,365.8,513.39,99.16,0,365.88-311.33,365.89-513.39,0-202.01-163.81-365.82-365.88-365.82Zm.04,565.66c-110.34,0-199.84-89.45-199.84-199.84,0-110.34,89.5-199.81,199.84-199.81,110.34,0,199.82,89.47,199.82,199.81,0,110.39-89.47,199.84-199.82,199.84Z"/></g><path class="cls-1" d="M2411.56,1760.44c0-39.89,27.32-68.7,66.48-68.7,39.15,0,65.74,28.07,65.74,68.7,0,39.15-26.59,67.96-66.48,67.96-38.42,0-65.74-28.81-65.74-67.96Z"/><path class="cls-1" d="M2608.8,1820.28c1.48-23.63,2.95-67.22,2.95-107.85v-586.46h112.28v375.94h1.47c21.42-31.02,59.1-50.97,109.33-50.97,86.42,0,149.95,71.65,149.21,182.46,0,130-82.73,195.01-165.46,195.01-42.11,0-94.82-45.83-94.82-45.83v37.59l-114.97,.11Zm115.24-153.64c0,7.39,.74,14.04,2.21,19.94,7.39,30.28,33.24,53.18,65.75,53.18,48.02,0,77.56-36.94,77.56-101.94,0-56.14-25.11-100.46-77.56-100.46-30.29,0-58.36,22.89-65.75,55.4-1.47,6.65-2.21,13.3-2.21,20.68v53.18Z"/><path class="cls-1" d="M3142.15,1675.49c3.69,46.54,49.49,68.7,101.93,68.7,38.42,0,69.44-5.17,99.73-14.77l14.77,76.09c-36.93,14.77-81.99,22.16-130.74,22.16-122.62,0-192.8-70.92-192.8-183.93,0-91.59,56.88-192.79,182.46-192.79,116.71,0,161.04,90.85,161.04,180.24,0,19.2-2.22,36.2-3.7,44.32h-232.68Zm132.22-76.82c0-27.33-11.82-73.13-63.53-73.13-47.28,0-66.48,42.84-69.43,73.13h132.96Z"/><ellipse class="cls-1" cx="2668.25" cy="1132.73" rx="55.51" ry="55.3"/></g></svg>