<svg width="50" height="50" viewBox="0 0 50 50" fill="none" xmlns="http://www.w3.org/2000/svg">
<circle cx="25" cy="25" r="25" fill="white"/>
<path d="M24.6667 20.5C23.5616 20.5 22.5018 20.939 21.7204 21.7204C20.939 22.5018 20.5 23.5616 20.5 24.6667C20.5 25.7717 20.939 26.8315 21.7204 27.6129C22.5018 28.3943 23.5616 28.8333 24.6667 28.8333C25.7717 28.8333 26.8315 28.3943 27.6129 27.6129C28.3943 26.8315 28.8333 25.7717 28.8333 24.6667C28.8333 23.5616 28.3943 22.5018 27.6129 21.7204C26.8315 20.939 25.7717 20.5 24.6667 20.5ZM24.6667 26.3333C24.2246 26.3333 23.8007 26.1577 23.4882 25.8452C23.1756 25.5326 23 25.1087 23 24.6667C23 24.2246 23.1756 23.8007 23.4882 23.4882C23.8007 23.1756 24.2246 23 24.6667 23C25.1087 23 25.5326 23.1756 25.8452 23.4882C26.1577 23.8007 26.3333 24.2246 26.3333 24.6667C26.3333 25.1087 26.1577 25.5326 25.8452 25.8452C25.5326 26.1577 25.1087 26.3333 24.6667 26.3333ZM24.6667 20.5C23.5616 20.5 22.5018 20.939 21.7204 21.7204C20.939 22.5018 20.5 23.5616 20.5 24.6667C20.5 25.7717 20.939 26.8315 21.7204 27.6129C22.5018 28.3943 23.5616 28.8333 24.6667 28.8333C25.7717 28.8333 26.8315 28.3943 27.6129 27.6129C28.3943 26.8315 28.8333 25.7717 28.8333 24.6667C28.8333 23.5616 28.3943 22.5018 27.6129 21.7204C26.8315 20.939 25.7717 20.5 24.6667 20.5ZM24.6667 26.3333C24.2246 26.3333 23.8007 26.1577 23.4882 25.8452C23.1756 25.5326 23 25.1087 23 24.6667C23 24.2246 23.1756 23.8007 23.4882 23.4882C23.8007 23.1756 24.2246 23 24.6667 23C25.1087 23 25.5326 23.1756 25.8452 23.4882C26.1577 23.8007 26.3333 24.2246 26.3333 24.6667C26.3333 25.1087 26.1577 25.5326 25.8452 25.8452C25.5326 26.1577 25.1087 26.3333 24.6667 26.3333ZM24.6667 8C22.478 8 20.3107 8.4311 18.2886 9.26867C16.2665 10.1063 14.4292 11.3339 12.8816 12.8816C9.75595 16.0072 8 20.2464 8 24.6667C8 29.0869 9.75595 33.3262 12.8816 36.4518C14.4292 37.9994 16.2665 39.2271 18.2886 40.0647C20.3107 40.9022 22.478 41.3333 24.6667 41.3333C29.0869 41.3333 33.3262 39.5774 36.4518 36.4518C39.5774 33.3262 41.3333 29.0869 41.3333 24.6667C41.3333 22.478 40.9022 20.3107 40.0647 18.2886C39.2271 16.2665 37.9994 14.4292 36.4518 12.8816C34.9041 11.3339 33.0668 10.1063 31.0447 9.26867C29.0226 8.4311 26.8554 8 24.6667 8ZM24.6667 31.3333C20.2833 31.3333 16.3333 28.7167 14.6667 24.6667C16.9667 19.15 23.3167 16.5333 28.8333 18.8333C31.4667 19.9333 33.5667 22.0333 34.6667 24.6667C33 28.7167 29.05 31.3333 24.6667 31.3333ZM24.6667 20.5C23.5616 20.5 22.5018 20.939 21.7204 21.7204C20.939 22.5018 20.5 23.5616 20.5 24.6667C20.5 25.7717 20.939 26.8315 21.7204 27.6129C22.5018 28.3943 23.5616 28.8333 24.6667 28.8333C25.7717 28.8333 26.8315 28.3943 27.6129 27.6129C28.3943 26.8315 28.8333 25.7717 28.8333 24.6667C28.8333 23.5616 28.3943 22.5018 27.6129 21.7204C26.8315 20.939 25.7717 20.5 24.6667 20.5ZM24.6667 26.3333C24.2246 26.3333 23.8007 26.1577 23.4882 25.8452C23.1756 25.5326 23 25.1087 23 24.6667C23 24.2246 23.1756 23.8007 23.4882 23.4882C23.8007 23.1756 24.2246 23 24.6667 23C25.1087 23 25.5326 23.1756 25.8452 23.4882C26.1577 23.8007 26.3333 24.2246 26.3333 24.6667C26.3333 25.1087 26.1577 25.5326 25.8452 25.8452C25.5326 26.1577 25.1087 26.3333 24.6667 26.3333Z" fill="#6CCBAD"/>
</svg>
