<svg version="1.2" xmlns="http://www.w3.org/2000/svg" viewBox="0 0 1066 440" width="400" height="165">
	<title>Logo_MJ-Carpe_Diem-ai</title>
	<style>
		.s0 { fill: #fefefe } 
	</style>
	<g id="Calque 1">
		<g id="&lt;Group&gt;">
			<path id="&lt;Compound Path&gt;" fill-rule="evenodd" class="s0" d="m620.3 32c9.9-3.3 23.1-1.8 33.3-1 23.1 2.1 47.2 8 68.6 17.2 21 9 41.7 18.4 60 32.4 8 6.1 17.1 13.7 20.1 23.7 3 10.4-1.8 23.6-5.1 33.5-1.1 3.2 6.5 3.8 8.7 5.4 3.7 2.6 5.7 6.8 6.8 11.1 1.1 4.1 0.4 8-1.1 12-3 7.8-10.3 10.9-15.5 10.6-2.9-0.1-6-1.6-8.5-3.2-3-1.9-4-1.7-5.3 1.6-13.8 35.3-33.8 68.4-51.5 101.9-16.2 30.7-56.3 42.8-89 40.2 5.1-8.9 12.9-16.3 19.1-24.5 6-7.8 4.1-17.1 3.7-26.5-0.9-22.2-0.1-44.5-0.4-66.7-0.3-22.5-0.9-45-1.1-67.5q-0.2-16.8-0.4-33.6-0.1-8.3-0.2-16.7c-0.1-4.6 0.5-9.8-0.8-14.2-0.9-3.2-6.4-4.3-9.1-5.3-4.1-1.5-8.2-2.8-12.5-3.8-8.9-2-17.9-2.8-27-3.8q0 0.2 0 0.4c0-0.1-4-0.3-0.7 0-4.2-0.4-8.5-0.8-12.7-1.2-0.9 0-7.3 0.2-3.9-2.7 3.8-3.2 7.8-6.3 11.7-9.5 3.9-3.2 7.8-8.2 12.8-9.8zm-7.2 23.2q0 0 0 0zm80.9 36.2c0 26.9 0.3 53.7 0.7 80.6 0.5 26.5-0.1 53.3 1.1 79.8 6.6-8.4 11.9-18.4 17.4-27.5 6.1-10.1 12.1-20.4 17.4-30.9 4.9-9.5 10.2-18.8 15-28.5 4.6-9.4 10.8-19.2 7.5-30-3.4-11.5-13.6-19.7-23.2-26.1-10.9-7.2-23.4-13.7-35.9-17.4z"/>
			<path id="&lt;Path&gt;" class="s0" d="m695.8 251.8c0.8-1 0-1.5 0 0z"/>
			<path id="&lt;Path&gt;" class="s0" d="m613.1 55.2q-0.3 0-0.7 0 0.3 0 0.7 0z"/>
			<path id="&lt;Path&gt;" class="s0" d="m185.4 75.4c1.3-5-0.4-0.9 0 0z"/>
			<path id="&lt;Path&gt;" class="s0" d="m67.5 338.4c-9.3 0.4-19.5 1.1-28.5-1.3-15.4-4.1-31.7-14.4-32.4-31.8-0.8-18.2 5.5-36.5 10.8-53.8 10.8-35.4 23.4-71.5 43.2-103 13.1-20.9 29-38.4 48.1-54 16.9-13.7 38.9-32.1 62-30.5 6.8 0.5 11.8 5.5 14.7 11.4 6.6-23.6 13.6-54 35.9-67.6 2.2-1.4 4.5-1.6 6.9 0.7 7.1 6.9 14.5 14.9 22.6 20.7 1.4 1 0.9 1.8 0.2 2.9-6.3 9.3-13.2 18.4-18.7 28.2-5.2 9.1-9.3 19.1-13.2 28.9-8.3 21.1-13 43.1-17.7 65.2-0.4 2-1.2 3.4-3.7 3.2-6.8-0.3-13.6-0.3-20.4-0.5-3.7-0.1-4-0.4-3.7-4.2 1-12.3 5.1-30.5-5-40.3-4-3.9-8.6-4.5-14-2.7-18.6 6.6-32.5 22.6-45.6 36.6-14.1 14.9-26.9 31.1-37 49-10 17.6-17.8 37.6-19.9 57.8-1.8 17.1-0.1 36.3 20.1 40.1 10.8 2 22.3 1.7 33.2 0.7 11.5-1.2 23.8-2.8 35-5.7 10.6-2.7 21.1-7.6 30.8-12.6 4.8-2.6 9.6-5.3 13.6-9.1 2.9-2.6 8.2-6.7 8.4-10.9 0-1.9 0.9-2.2 2.3-2.1 7.2 0.9 14.3 2.4 21.5 3.6 7 1.1-2.7 13.2-4.7 16.1-5.1 7.5-11 14.4-17.8 20.3-13.5 11.7-30.2 20.9-46.7 27.5-16.9 6.7-35.4 11.3-53.4 13.9-8.9 1.3-17.9 2.9-26.9 3.3z"/>
			<path id="&lt;Path&gt;" class="s0" d="m1012.8 361.4c-1.3-0.1-2.8-1-3.6-2-4.5-6.2-3.9-12.5-4.4-19.7-0.5-8-1-15.7-1-23.7 0-17.1-1.3-34.2-1.6-51.3-0.2-17.5-0.4-35-1-52.5-0.5-16.5 0.2-33.4-1.7-49.7-0.1-0.3-0.4-0.5-0.6-0.8-0.4 0.3-0.9 0.5-1 0.9-5.1 13.9-8.2 28.4-13 42.3-4.9 14.5-9.6 29.5-13.5 44.3-0.8 3.1-3.2 3.1-5.5 3.3-3 0.4-5.5-8.6-6.5-10.8-2.7-5.8-5.7-11.5-9-17.1-7.1-12-14.7-23.7-22.3-35.3-0.3-0.4-1-0.5-1.5-0.8-1.4 4.6-0.5 10.6-0.6 15.5q0 8-0.1 16.1c0 10-1.4 18.7 4.1 27.6 1.7 2.8 1.3 3.6-1.8 5-6.3 2.9-12.5 6.2-19 8.8-3.9 1.6-2.2-6.7-2.1-8.3q0.4-7.7 1-15.3c0.7-10.3 2.4-20.7 1.9-30.9-0.2-5.5-0.6-10.9-0.8-16.3-0.2-5.2 0.8-9.7 1.3-14.8 0.4-4.3-0.8-9.1 0.3-13.2 1.3-5.1 2.6-10.1 4.6-14.9 1.8-4 4.3-7.7 9.6-8 2.7-0.1 4 0.9 4.3 3.7 1 12.4 3.4 22.2 9.9 33 3.5 5.9 7.2 11.8 11.3 17.3 1.5 2.1 8.9 14.3 10.8 10 4.9-11.1 9.9-22.2 14.8-33.4 5-11.5 9.9-23.7 16.8-34.2 3.9-6 14.3-21.7 23.4-17.4 5.3 2.5 4.3 7.8 4.3 12.7q0 10.6 0 21.2 0 0 0 0c0 0 0 8.6 0 0 0 26.5 0.2 53 1 79.5 0.5 13.6 0.4 27.1 0.4 40.7q0 10.9 0 21.8c0 6-1.2 13.6 0.9 19.3 4.9-6.7 6.4-17.6 9.4-25.5 1.9-5 3.4-10.2 5-15.3 1-3 2.1-11.1 6.5-11.3 6.8-0.2 13.7-0.1 20.5-0.1 2.1 0 2.9 1.3 2 3.2-8.6 17.7-17.9 35.4-25.7 53.5-3.6 8.4-7.7 16.5-11.9 24.7-3 5.6-7.8 18.9-15.9 18.2z"/>
			<path id="&lt;Path&gt;" class="s0" d="m447.2 169.6c0.2 0 0-7.5 0 0z"/>
			<path id="&lt;Compound Path&gt;" fill-rule="evenodd" class="s0" d="m423 107c-8.2 1.1-16.6 1.5-24.8 2.9-5.9 1-6.1-10.8-6.8-14.7-1-6.5 59.2-12 65.9-12.1 20-0.3 46.8 3.3 57.3 23 11.1 20.7-6.1 42.6-19.9 57-8.4 8.8-17.1 17.2-25.9 25.4q-6.4 6-13.1 11.6c-2.7 2.3-12.7 8.1-12.6 11.9 1.2 25.1 2.1 50.1 3.4 75.1q-0.4 0.2-0.9 0.4c0.3-0.1-3.1-2.9 0 0-3.1-2.9-6.1-5.8-9.2-8.6-2.5-2.3-7-3.7-7.1-7.4-0.2-8.3-0.5-16.6-0.7-24.9-0.3-8.4 0.2-17.4-1.1-25.7-4.2 1.3-7.8 4.7-11.4 7.2-4.6 3.3-9.6 6.4-14 10-1.6 1.2-2.5 0.5-2.8-0.9-0.9-4.1-1.3-8.2-2.4-12.2-1.1-4.3 1.1-6.2 4.2-8.3 5.1-3.4 10-7 15-10.6 3.5-2.6 10.1-5.5 10.1-10.6-0.2-28.6-0.5-57.2 0-85.8 0.1-2.6-0.7-3-3.2-2.7zm23.2 4.5c0 6.4 0.3 12.8 0.5 19.1 0.5 13 0.5 26 0.5 39q0.3 0 0.6 0c0 2.9 0.1 5.6 0.4 8.5 10.4-6.4 19.7-16.2 24.1-27.7 2.2-5.8 3.1-11.7 1.8-17.8-1.4-6.4-4.3-11.8-9.4-15.9-4.2-3.3-8.8-5.3-13.8-6.8-2.7-0.9-4.7-2-4.7 1.6z"/>
			<path id="&lt;Path&gt;" class="s0" d="m340.5 187.9c2.8-2 0-6.4 0 0z"/>
			<path id="&lt;Path&gt;" class="s0" d="m354.7 202.1c7.3 3.9 0.5-0.5 0 0z"/>
			<path id="&lt;Compound Path&gt;" fill-rule="evenodd" class="s0" d="m343.2 213.6c-0.2-0.2-0.6-0.1-1.3-0.1 0.8 15.1 2.2 30.3 3.1 45.5 0.2 3.4 0.8 6.7 1.2 10.1 0.4 4-1.8 6-4.3 8.7-2.4 2.6-4.9 5.1-7.3 7.7-1.8 1.9-5.3 7.7-8.4 7.1-2.4-0.5-1.3-26.4-1.4-29.6-0.4-11.7-1.1-23.4-1.7-35.1-1.1-21.9-1.7-43.7-3.2-65.6 0-0.4-0.9-1.1-1.4-1.1q-3.8 0.1-7.6 0.5c-5.7 0.5-6.5-7-8.3-11.1-0.9-2-0.6-3.8 1.2-5.1 15.2-11 31.2-20.9 50-23.8 17-2.7 38.9-3.3 53 8.4 6 5 8.1 11.9 4.3 19.4-5.4 10.9-15.6 20.4-24.7 28.2-10.1 8.8-21.5 15.8-31.7 24.4 10.4 5.6 17.1 14.6 24.1 23.8 8.2 10.6 15.4 21.9 22.3 33.3 6.5 10.8 12.7 21.9 18.9 32.9 2.2 3.9 6.5 8.3 2.9 12.4-2.2 2.5-6.3 6-9.8 6-5.2 0-7.8-3.8-9.8-7.5-4.2-8.3-7-17.2-9.7-26.1-2.8-9-7-17.5-11.9-25.5-9.9-15.8-23.8-26.8-38.5-37.8zm-2.7-25.7c9.7-7 18.6-14.9 27.3-23 3.2-3.1 7-6.1 9-10.3 1.7-3.7 1.6-10.6-3.7-11.6-11.1-1.9-21.4 2.7-31.3 7.1-2.1 0.6-1.1 15.5-1.2 17.8-0.1 6.6-0.1 13.3-0.1 20z"/>
			<path id="&lt;Path&gt;" class="s0" d="m549.6 223.3q0.6 0 1.3 0-0.7 0-1.3 0z"/>
			<path id="&lt;Path&gt;" class="s0" d="m469.8 295c-4.8-12.5-3.1-28.6-0.1-41.3 0.6-2.6 0.5-3.1-2.2-3.1-1.6 0-3.3 0.2-4.9 0.3-4.8 0.5-1.2-16.6-0.8-19.8 0.1-0.7 1.2-1.9 2-2 2.4-0.4 4.9-0.6 7.4-0.5 5.3 0.1 8.2-13.6 10-17.4 3.6-7.7 7.5-15.1 11.6-22.5 8.2-14.9 16.5-29.5 27-42.9 2.2-2.7 4.8-1 7.5-0.3 4.4 1.2 8.9 2.4 13.3 3.8 9.5 3.1 18.5 7.7 27.3 12.5 7.5 4.1 14.8 8.6 22 13.2 3 2 2.8 3.6 0.7 6.3-3.1 4.2-6 8.5-8.9 12.8-1.2 1.9-2.4 2.4-4.7 1.3-14.4-7.4-30.4-15.2-46.1-19.2-6.3-1.6-8.5-0.5-12.9 5.5-8.7 12-13.5 26.8-18.9 40.6-0.1 0.3 0.7 1.5 1.1 1.5 16.5-0.1 32.9-0.4 49.4-0.5-7.7 0.1 0.7 0.7 1.3 0-3.6 4.2-8.6 7-13 10.3-4.6 3.4-9 7-13.5 10.5-4.8 3.7-8.9 4-14.8 4.9-6.3 0.8-13.3 2.6-19.6 2-6.2-0.6-5 16.4-5.3 20.4-0.5 6.5-2.2 15.2 4.8 19 8.5 4.8 21-0.5 28.8-4.6 10.5-5.4 20.3-12.4 29.8-19.5 4.8-3.6 9.3-7.5 13.9-11.4 1.5-1.3 8.5-9.4 9.9-5.7 4.2 10.8 8.6 20.5 9.3 32.1 0.3 4.4-11.9 7.8-14.9 8.9q-12 4.2-24.1 8c-15.7 4.9-31.6 9.5-47.8 12.2-10.1 1.8-21.1-6.4-24.6-15.4z"/>
			<path id="&lt;Compound Path&gt;" fill-rule="evenodd" class="s0" d="m301.2 352.3q-0.5 0.3-0.9 0.5c0.3-0.1-0.5-0.5 0 0-7.7-8-13.7-19.5-16.1-30.2-2.7-11.9-3.7-24.4-6.8-36.2-6.3-23.7-10.1-47.8-15.9-71.6-0.2-0.5-1.2-1.2-1.8-1.3q-5.4 0-10.9 0c-3.3 0-9.3-1.1-12.3 0.5-3 1.6-4.9 6.1-6.7 8.9-1 1.6-3.8 8.1-6 8.1-4.9-0.3-9.7-0.6-14.5-1-1.9-0.1-1.9-1.6-1.4-2.9 1.5-3.9 3.9-7.7 4.6-11.8-8-0.8-17.4 2.3-25.3 3.3-3 0.3-2.5-5.1-2.6-6.6-0.1-5.3 0-5.3 4.9-7.5 9.8-4.1 21.1-7.7 30-13.7 5-3.4 4.8-13.9 8.4-18.7 1.8-2.4 2.3-6.8 3.1-9.6 1.3-4.2 3-8.2 4.7-12.3 6.2-14.6 12.8-31.7 25.9-41.4 4.6-3.5 10.5 8.6 11.3 11.4 2.2 7.4 4 14.6 4.9 22.2 1.1 8.5 2 17 2.8 25.6 0.4 4.2 0.8 8.5 0.8 12.8 0 2.9-0.1 5.3 3.4 5.6 8.2 0.8 16.5 1.8 24.8 2.6 5 0.5 3.7 9.2 4.2 12.8 0.3 2.2-0.9 3.5-3.2 3.6-7 0.5-14 0.9-21 1.6-0.7 0-1.9 1.8-1.9 2.7 0.8 23.6 5.8 47.1 6.8 70.7 1 23.9 4.5 48 6.7 71.9zm-0.9 0.5q0 0 0 0 0 0 0 0zm-44.8-159.7c4.1 0.2 3.1-7.6 3.4-10.5q0.8-7.3 1.6-14.6c-0.7-3.8-1.4-8-2.1-12.2-0.7-4.2-4.9 3.7-5.2 4.4-2.5 5.2-3.8 11.4-5.5 16.9-1.2 3.9-4.5 10-4.2 14.1 0.2 2.6 10.1 1.8 12 1.9z"/>
			<path id="&lt;Path&gt;" class="s0" d="m260.5 168c-0.7-3.8-0.8 6.6 0 0z"/>
			<path id="&lt;Path&gt;" class="s0" d="m846.5 257.3q-0.2 0-0.5 0c0.2 0 0.5 0 0.5 0z"/>
			<path id="&lt;Path&gt;" class="s0" d="m858.9 173c-0.5-0.3-2.3 0.4-2.8 1.1-10 14.2-11.8 32.9-15.6 49.4-0.3 1.3-0.2 1.8 1.2 2 10.2 1.5 20.9 2.5 30.8 5.3 0.6 0.1 1.2 2.2 0.8 2.7q-5.8 9-11.8 17.8c-1.4 2-2.6 5-5.3 5.3-3.2 0.4-6.4 0.5-9.7 0.8q0-0.1 0-0.1c-0.7 0-0.7 0-0.5 0-1.2 0-2.5 0.1-3.7-0.1-2.2-0.2-2.9 0.9-3 2.8-0.3 6.5-0.1 13-0.8 19.4-0.7 6.3 0.9 10.2 4.1 15.5 5.9 9.7 21.3-3.3 27.5-7.1 10.5-6.3 20.8-13 31.4-19.2 0.5-0.3 1.6-0.3 2.2 0q6.6 4 13.2 8.1c2 1.2 10.3 4.8 5.5 7.6-11.8 6.7-23.2 14-34.7 21.1-5.9 3.6-11.7 7.4-17.6 11-4.5 2.8-9.9 7.5-15.5 7.6-6.5 0.2-12.2-1.6-17.3-5.6-12.1-9.5-14.2-25.6-15-40-0.2-4-0.3-7.9-0.3-11.9 0-2.6 1.6-7.8 0.3-10.1-2.1-3.7-8.3 2.6-6.9-4.3 1.4-7.7 1.8-15.9 4.1-23.3 0.9-3 3.5-2.7 5.9-3.8 1.8-0.8 1.9-3.1 2.2-4.8 1.6-8.3 3.5-16.6 5.6-24.7 4.3-16.9 8.6-36.3 21.4-49 2.9-2.9 5.3-2.5 8.3 0.7 7.9 8.3 16 16.5 24.2 24.5 3.5 3.4 10.2 7.5 9.4 13-0.3 2.3-0.3 11.7-4.4 9.2-11.1-7-21.9-14.2-33.2-20.9z"/>
			<path id="&lt;Path&gt;" class="s0" d="m801.1 310.7c-7.3 4.4-14.9 9.4-23 12.2-1.1-8 0-16.3 0.4-24.3q0.6-13.1 1.2-26.2c0.8-17 1.6-34.1 1.5-51.1 0-1.2-0.3-2.9-0.2-3.8 0-2.6-0.1-3.1-0.2-5 0-5-1.6-11.3 3.5-14.2 5.7-3.5 12.1-7.9 18.7-9.2 1.2 8.9 0.4 18.1 0.4 27q0 15.4 0 30.7c0 20 0.3 40.1-0.1 60.1 0 1.3-1.1 3.2-2.2 3.8z"/>
			<path id="&lt;Path&gt;" class="s0" d="m324.3 23.8c-2 4.9 0.1 0.1 0 0z"/>
			<path id="&lt;Path&gt;" class="s0" d="m318.3 15.6c2.5-4.3 5-8.8 8.9-12 2.1-1.8 11.7-6.5 11.2 0.2-1 11.5-1.9 22.9-2.8 34.4q-0.7 9.3-1.4 18.6c-0.3 3.6 0.7 13.9-2.8 16-3.1 1.9-6.4 3.6-10.1 5.5 1.2-18.4 2.4-36.4 3.6-54.3q-0.4-0.1-0.6-0.2c-3.1 7.7-6.2 15.3-9.4 23-1.7 4-3.5 8.1-5 12.2-1.4 3.7-2.3 8.5-4.9 11.5-1.1 1.4-3.6 0.7-4.1-1.1-3.8-12.6-10.7-23.9-16.7-35.5-0.7 5.8-1.4 11.6-2 17.4-0.3 3.6-0.7 7.3 0.1 10.9 0.4 1.9 2.8 6.2 0 7.2-3.9 1.3-7.8 2.6-12.4 4.1 0.8-11 3.5-21.6 4.1-32.7 0.1-2.8 0.2-5.8 0.7-8.6 0.4-2.2 1.9-5.3 1.6-7.5-0.6-5.8 1.8-11.2 5.5-15.5 6.6-7.7 6.6 10.7 7.6 13.3 2.8 8.2 7.7 15.5 11.9 23 5.6-10 11.1-20 17-29.9z"/>
			<path id="&lt;Path&gt;" class="s0" d="m392.4 4.8c1.4-0.3 7.1-3 8.6-1.5 1.9 1.9 2 7.9 2.6 10.5 1.3 5.3 1.9 10.7 2.6 16 1.4 10.5 3.6 20.8 4 31.5 0.1 4.7-5.3 10.2-10 11.8-7.3 2.5-15.4 1-22.7-0.8-4-0.9-7.9-2.4-11.8-3.8-1.7-0.5-5.2 0.1-4.6-2.4 0.7-3.2 1.6-6.4 2.6-9.6 6.9 2.3 34.4 14.2 32.9-1.7-1.1-10.4-2.7-21-5.4-31.1-1.5-5.3-7.3-4.5-11.6-4.4-6.4 0.1-12.8 0.2-19.2 0.2 1.1 0 0.4-3.8 0 0 0.2-2.4-0.3-10.4 1.9-11.9 3.5-2.2 11-0.4 15-0.5 5.1-0.2 10.1-1.1 15.1-2.3z"/>
			<path id="&lt;Path&gt;" class="s0" d="m347 68.3q-3.8 1.4-7.6 2.8c3.5-1.3 0.1-1.8 0 0 0.1-1.8 0.3-3.2 0.4-4.6 0.4-8.7 1.6-9.7 10.2-8.5 0.4 0.1 1.1 0.6 1.1 0.9 0.1 2.7 3.3 4.8 1.4 7.5-0.8 1.2-4.2 1.5-5.5 1.9z"/>
			<path id="&lt;Path&gt;" class="s0" d="m425.2 68.7c-2.8 1.6-9.9 0.2-13 0.2 4.2 0 0.4-3 0 0 0.4-3 0.8-5.9 1.2-8.8 2.8 0 5.2-0.1 7.6 0 0.7 0.1 1.6 0.5 2 1.1 0.8 1.2 4.5 6.1 2.2 7.5z"/>
			<path id="&lt;Path&gt;" class="s0" d="m37.4 438.4q-0.7 0.8-1.9 0.8h-4.5q-1.1 0-1.8-0.8-0.8-0.8-0.8-1.8v-33.4h-0.6l-6 33.8q-0.3 1-0.9 1.6-0.7 0.6-1.7 0.6h-1.8q-1.1 0-1.8-0.6-0.7-0.7-0.8-1.6l-5.5-33.8h-0.6v33.4q0 1-0.8 1.8-0.7 0.8-1.9 0.8h-3.4q-1 0-1.8-0.8-0.8-0.8-0.8-1.8v-51.3q0-1.1 0.8-1.9 0.8-0.8 1.8-0.8h10.4q1 0 1.7 0.7 0.8 0.6 0.8 1.5l3.5 23.6h0.6l3.8-23.6q0.1-0.9 0.8-1.5 0.7-0.7 1.8-0.7h9.5q1.2 0 1.9 0.8 0.7 0.8 0.7 1.9v51.3q0 1-0.7 1.8z"/>
			<path id="&lt;Compound Path&gt;" fill-rule="evenodd" class="s0" d="m59.1 439.2q-1.5 0.8-3.6 0.8-4.4 0-7.1-2.8-2.8-2.7-2.8-7.6 0-3.6 0.7-5.6 0.6-2 1.5-3.4 1-1.3 2.2-2.4 1.3-1.2 2.5-2 3-1.9 7-3v-6.3q0-1-0.4-1.5-0.4-0.5-1.4-0.5-1 0-1.3 0.5-0.4 0.5-0.4 1.5v1q0 1.1-0.8 1.9-0.8 0.7-1.8 0.7h-4.2q-1 0-1.8-0.7-0.7-0.8-0.7-1.9v-0.7q0-2.4 0.9-4.3 0.9-2 2.4-3.4 1.6-1.4 3.6-2.1 2.1-0.7 4.4-0.7 2.3 0 4.2 0.7 2 0.7 3.3 2.1 1.3 1.4 2.1 3.4 0.8 1.9 0.8 4.3v23.4q0 1.4 0.1 2.7 0.2 1.3 0.4 2.8 0 0.1 0 0.5 0 1-0.7 1.8-0.7 0.8-1.9 0.8h-3q-0.8 0-1-0.8l-0.2-1.5h-0.5q-0.9 1.5-2.5 2.3zm-1.9-7.4q2.3 0 2.3-2.5v-8.4q-1.3 0.4-2.1 1-0.9 0.6-1.4 1.2-0.5 0.7-0.9 1.6-0.4 0.8-0.3 4.6 0 2.5 2.4 2.5z"/>
			<path id="&lt;Path&gt;" class="s0" d="m76.9 400.1q0-1.1 0.8-1.8 0.8-0.7 1.8-0.7h3.7q1.1 0 1.9 0.7 0.8 0.7 0.8 1.8v36.5q0 1-0.8 1.8-0.8 0.8-1.9 0.8h-3.7q-1 0-1.8-0.8-0.8-0.8-0.8-1.8z"/>
			<path id="&lt;Path&gt;" class="s0" d="m77.7 383.4q0.8-0.8 1.8-0.8h3.7q1.1 0 1.9 0.8 0.8 0.8 0.8 1.9v4.2q0 1.1-0.8 1.8-0.8 0.8-1.9 0.8h-3.7q-1 0-1.8-0.8-0.8-0.7-0.8-1.8v-4.2q0-1.1 0.8-1.9z"/>
			<path id="&lt;Path&gt;" class="s0" d="m110.1 439q-2.1 1-4.8 1-5.3 0-8.2-2.8-2.8-2.9-2.8-7.6v-1q0-1.1 0.8-1.9 0.8-0.8 1.9-0.8h2.7q1.1 0 1.9 0.8 0.8 0.8 0.8 1.9v1q0 1 0.7 1.7 0.6 0.7 1.9 0.7 1.2 0 1.8-0.7 0.7-0.7 0.7-2.5 0-1.2-0.4-2.3-0.4-1-1.3-2.1-0.8-1-2.3-2.1-1.4-1.2-3.4-2.8-2.6-2-4.4-4.9-1.8-2.9-1.8-6.4 0-3.3 0.9-5.4 1-2.2 2.6-3.5 1.6-1.4 3.6-2 2-0.6 4.3-0.6 2.2 0 4.1 0.7 2 0.7 3.5 2.1 1.4 1.4 2.3 3.4 0.8 1.9 0.8 4.3v1q0 1-0.8 1.7-0.8 0.8-1.9 0.8h-2.8q-1.1 0-1.8-0.8-0.8-0.7-0.8-1.7v-1q0-1.1-0.6-1.7-0.7-0.6-1.9-0.6-1.3 0-1.9 0.7-0.7 0.7-0.7 2.3 0 0.9 0.2 1.5 0.2 0.7 0.6 1.3 0.4 0.6 1.1 1.3 0.7 0.6 1.7 1.5l1.6 1.2q1.6 1.3 3.2 2.8 1.5 1.5 2.6 3.3 1.2 1.7 1.9 3.7 0.7 1.9 0.7 4 0 2.2-0.6 4.3-0.7 2-2.1 3.6-1.4 1.6-3.6 2.6z"/>
			<path id="&lt;Compound Path&gt;" fill-rule="evenodd" class="s0" d="m139.6 439.2q-2.1 0.8-4.3 0.8-2.4 0-4.5-0.8-2-0.8-3.6-2.1-1.5-1.3-2.3-3.3-0.9-1.9-0.9-4.2v-22.4q0-2.4 0.9-4.3 0.8-2 2.3-3.4 1.6-1.4 3.6-2.1 2.1-0.7 4.5-0.7 2.2 0 4.3 0.7 2 0.7 3.6 2.1 1.6 1.4 2.4 3.4 0.9 1.9 0.9 4.3v22.4q0 2.3-0.9 4.2-0.8 2-2.4 3.3-1.6 1.3-3.6 2.1zm-4.2-7.4q1 0 1.6-0.6 0.6-0.5 0.6-1.5v-22.8q0-1-0.6-1.5-0.6-0.5-1.6-0.5-1.1 0-1.8 0.5-0.7 0.5-0.7 1.5v22.8q0 1 0.7 1.5 0.7 0.6 1.8 0.6z"/>
			<path id="&lt;Path&gt;" class="s0" d="m168 405.4q-0.7-0.5-1.6-0.5-1 0-1.7 0.5-0.7 0.5-0.7 1.5v29.7q0 1-0.8 1.8-0.8 0.8-1.9 0.8h-3.7q-1 0-1.8-0.8-0.8-0.8-0.7-1.8v-36.5q-0.1-1.1 0.7-1.8 0.8-0.7 1.8-0.7h4.8q0.8 0 1.1 0.7l0.1 1h0.5q1.1-1.2 2.8-1.9 1.8-0.7 3.5-0.7 1.4 0 2.8 0.5 1.3 0.4 2.3 1.4 1 1 1.6 2.3 0.6 1.3 0.6 2.8v32.9q0 1-0.8 1.8-0.8 0.8-2 0.8h-3.6q-1 0-1.8-0.8-0.8-0.8-0.8-1.8v-29.7q0-1-0.7-1.5z"/>
			<path id="&lt;Compound Path&gt;" fill-rule="evenodd" class="s0" d="m210 439.2q-1.6 0.8-3.5 0.8-1.4 0-2.8-0.5-1.3-0.6-2.3-1.4-0.9-0.9-1.5-2.2-0.6-1.3-0.6-3.1v-29.1q0-1.5 0.6-2.8 0.6-1.3 1.5-2.3 1-1 2.3-1.4 1.4-0.5 2.8-0.5 1.7 0 3.3 0.7 1.6 0.7 2.6 1.9h0.5v-14q0-1.1 0.7-1.9 0.8-0.8 1.8-0.8h3.8q1.2 0 1.9 0.8 0.7 0.8 0.7 1.9v51.3q0 1-0.7 1.8-0.7 0.8-1.9 0.8h-4.8q-0.8 0-0.9-0.8l-0.3-1h-0.5q-1.1 1.1-2.7 1.8zm0.7-7.4q0.9 0 1.5-0.6 0.7-0.5 0.7-1.5v-22.8q0-1-0.7-1.5-0.6-0.5-1.5-0.5-1 0-1.7 0.5-0.7 0.5-0.7 1.5v22.8q0 1 0.7 1.5 0.7 0.6 1.7 0.6z"/>
			<path id="&lt;Compound Path&gt;" fill-rule="evenodd" class="s0" d="m245.8 439.2q-2 0.8-4.2 0.8-2.4 0-4.5-0.8-2.1-0.8-3.6-2.1-1.5-1.3-2.4-3.3-0.9-1.9-0.9-4.2v-22.6q0-2.3 0.9-4.2 0.9-1.9 2.4-3.3 1.5-1.4 3.6-2.1 2.1-0.8 4.5-0.8 2.2 0 4.2 0.8 2.1 0.7 3.6 2.1 1.6 1.4 2.5 3.3 0.9 1.9 0.9 4.2v10.2q0 1.8-1.3 3.1-1.3 1.2-3.1 1.2h-9.2v8.2q0 1 0.7 1.6 0.7 0.5 1.7 0.5 1 0 1.6-0.5 0.6-0.6 0.6-1.7 0-1.1 0.8-1.9 0.7-0.8 1.8-0.8h3.8q1 0 1.8 0.8 0.8 0.8 0.8 1.9 0 2.3-0.9 4.2-0.9 2-2.5 3.3-1.5 1.3-3.6 2.1zm-2-22.8v-9.5q0-1.1-0.6-1.6-0.6-0.5-1.6-0.5-1 0-1.7 0.5-0.7 0.5-0.7 1.6v9.5z"/>
			<path id="&lt;Path&gt;" class="s0" d="m276.7 439q-2.2 1-4.9 1-5.3 0-8.1-2.8-2.8-2.9-2.8-7.6v-1q0-1.1 0.8-1.9 0.7-0.8 1.8-0.8h2.8q1.1 0 1.9 0.8 0.8 0.8 0.8 1.9v1q0 1 0.6 1.7 0.7 0.7 1.9 0.7 1.2 0 1.9-0.7 0.6-0.7 0.6-2.5 0-1.2-0.4-2.3-0.3-1-1.2-2.1-0.9-1-2.3-2.1-1.4-1.2-3.4-2.8-2.6-2-4.4-4.9-1.9-2.9-1.9-6.4 0-3.3 1-5.4 1-2.2 2.5-3.5 1.6-1.4 3.6-2 2-0.6 4.3-0.6 2.2 0 4.2 0.7 2 0.7 3.4 2.1 1.5 1.4 2.3 3.4 0.9 1.9 0.9 4.3v1q0 1-0.8 1.7-0.8 0.8-2 0.8h-2.8q-1 0-1.8-0.8-0.7-0.7-0.7-1.7v-1q0-1.1-0.7-1.7-0.6-0.6-1.8-0.6-1.3 0-2 0.7-0.6 0.7-0.6 2.3 0 0.9 0.2 1.5 0.2 0.7 0.6 1.3 0.4 0.6 1.1 1.3 0.7 0.6 1.7 1.5l1.6 1.2q1.6 1.3 3.1 2.8 1.6 1.5 2.7 3.3 1.2 1.7 1.9 3.7 0.7 1.9 0.7 4 0 2.2-0.7 4.3-0.6 2-2 3.6-1.5 1.6-3.6 2.6z"/>
			<path id="&lt;Path&gt;" class="s0" d="m320 439q-2.2 1-4.6 1-2.6 0-4.8-1-2.2-0.9-3.8-2.5-1.6-1.6-2.6-3.5-0.9-2-0.9-4.2v-8.8q0-1 0.8-1.8 0.7-0.8 1.9-0.8h4.4q1.2 0 1.9 0.8 0.7 0.8 0.7 1.9v8.1q0 0.8 0.7 1.3 0.7 0.5 1.7 0.5 0.9 0 1.6-0.5 0.6-0.4 0.6-1.3v-42.9q0-1.1 0.8-1.9 0.8-0.8 1.8-0.8h4.6q1.1 0 1.9 0.8 0.7 0.8 0.7 1.9v43.5q0 2.2-0.9 4.2-0.9 1.9-2.7 3.5-1.7 1.6-3.8 2.5z"/>
			<path id="&lt;Compound Path&gt;" fill-rule="evenodd" class="s0" d="m351.1 439.2q-2 0.8-4.3 0.8-2.4 0-4.5-0.8-2-0.8-3.6-2.1-1.5-1.3-2.3-3.3-0.9-1.9-0.9-4.2v-22.6q0-2.3 0.9-4.2 0.8-1.9 2.3-3.3 1.6-1.4 3.6-2.1 2.1-0.8 4.5-0.8 2.3 0 4.3 0.8 2 0.7 3.6 2.1 1.6 1.4 2.4 3.3 0.9 1.9 0.9 4.2v10.2q0 1.8-1.2 3.1-1.3 1.2-3.1 1.2h-9.3v8.2q0 1 0.7 1.6 0.7 0.5 1.8 0.5 1 0 1.6-0.5 0.6-0.6 0.6-1.7 0-1.1 0.7-1.9 0.8-0.8 1.9-0.8h3.7q1.1 0 1.9 0.8 0.7 0.8 0.7 1.9 0 2.3-0.9 4.2-0.8 2-2.4 3.3-1.6 1.3-3.6 2.1zm-2-22.8v-9.5q0-1.1-0.6-1.6-0.6-0.5-1.6-0.5-1.1 0-1.8 0.5-0.7 0.5-0.7 1.6v9.5z"/>
			<path id="&lt;Path&gt;" class="s0" d="m377.1 439.2q-1.7 0.8-3.6 0.8-1.4 0-2.8-0.5-1.3-0.6-2.3-1.4-0.9-0.9-1.5-2.2-0.6-1.3-0.6-3.1v-32.7q0-1.1 0.8-1.8 0.8-0.7 1.8-0.7h3.7q1.2 0 2 0.7 0.7 0.7 0.7 1.8v29.6q0 1 0.7 1.5 0.7 0.6 1.7 0.6 0.9 0 1.5-0.6 0.7-0.5 0.7-1.5v-29.6q0-1.1 0.7-1.8 0.8-0.7 1.8-0.7h3.8q1.2 0 1.9 0.7 0.7 0.7 0.7 1.8v36.5q0 1-0.7 1.8-0.7 0.8-1.9 0.8h-4.6q-0.8 0-0.9-0.8l-0.3-1h-0.5q-1 1.1-2.8 1.8z"/>
			<path id="&lt;Path&gt;" class="s0" d="m410.6 405.4q-0.7-0.5-1.5-0.5-1.1 0-1.8 0.5-0.7 0.5-0.7 1.5v29.7q0 1-0.8 1.8-0.8 0.8-1.8 0.8h-3.7q-1.1 0-1.8-0.8-0.8-0.8-0.8-1.8v-36.5q0-1.1 0.8-1.8 0.7-0.7 1.8-0.7h4.7q0.8 0 1.1 0.7l0.2 1h0.5q1-1.2 2.8-1.9 1.7-0.7 3.4-0.7 1.5 0 2.8 0.5 1.3 0.4 2.3 1.4 1 1 1.6 2.3 0.6 1.3 0.6 2.8v32.9q0 1-0.8 1.8-0.8 0.8-2 0.8h-3.6q-1 0-1.8-0.8-0.8-0.8-0.8-1.8v-29.7q0-1-0.7-1.5z"/>
			<path id="&lt;Compound Path&gt;" fill-rule="evenodd" class="s0" d="m444 439.2q-2 0.8-4.2 0.8-2.4 0-4.5-0.8-2.1-0.8-3.6-2.1-1.5-1.3-2.4-3.3-0.9-1.9-0.9-4.2v-22.6q0-2.3 0.9-4.2 0.9-1.9 2.4-3.3 1.5-1.4 3.6-2.1 2.1-0.8 4.5-0.8 2.2 0 4.2 0.8 2.1 0.7 3.6 2.1 1.6 1.4 2.5 3.3 0.9 1.9 0.9 4.2v10.2q0 1.8-1.3 3.1-1.3 1.2-3.1 1.2h-9.2v8.2q0 1 0.7 1.6 0.6 0.5 1.7 0.5 1 0 1.6-0.5 0.6-0.6 0.6-1.7 0-1.1 0.8-1.9 0.7-0.8 1.8-0.8h3.8q1 0 1.8 0.8 0.8 0.8 0.8 1.9 0 2.3-0.9 4.2-0.9 2-2.5 3.3-1.5 1.3-3.6 2.1zm-2-22.8v-9.5q0-1.1-0.6-1.6-0.6-0.5-1.6-0.5-1.1 0-1.7 0.5-0.7 0.5-0.7 1.6v9.5z"/>
			<path id="&lt;Path&gt;" class="s0" d="m474.9 439q-2.2 1-4.9 1-5.3 0-8.1-2.8-2.8-2.9-2.8-7.6v-1q0-1.1 0.8-1.9 0.7-0.8 1.8-0.8h2.8q1.1 0 1.9 0.8 0.8 0.8 0.8 1.9v1q0 1 0.6 1.7 0.7 0.7 1.9 0.7 1.2 0 1.9-0.7 0.6-0.7 0.6-2.5 0-1.2-0.4-2.3-0.4-1-1.2-2.1-0.9-1-2.3-2.1-1.4-1.2-3.4-2.8-2.6-2-4.4-4.9-1.9-2.9-1.9-6.4 0-3.3 1-5.4 1-2.2 2.5-3.5 1.6-1.4 3.6-2 2-0.6 4.3-0.6 2.2 0 4.2 0.7 2 0.7 3.4 2.1 1.5 1.4 2.3 3.4 0.8 1.9 0.8 4.3v1q0 1-0.7 1.7-0.8 0.8-2 0.8h-2.8q-1 0-1.8-0.8-0.7-0.7-0.7-1.7v-1q0-1.1-0.7-1.7-0.6-0.6-1.8-0.6-1.3 0-2 0.7-0.6 0.7-0.6 2.3 0 0.9 0.2 1.5 0.2 0.7 0.6 1.3 0.4 0.6 1.1 1.3 0.7 0.6 1.7 1.5l1.6 1.2q1.6 1.3 3.1 2.8 1.6 1.5 2.7 3.3 1.1 1.7 1.9 3.7 0.7 1.9 0.7 4 0 2.2-0.7 4.3-0.6 2-2 3.6-1.5 1.6-3.6 2.6z"/>
			<path id="&lt;Compound Path&gt;" fill-rule="evenodd" class="s0" d="m512.9 439.2q-1.6 0.8-3.5 0.8-1.4 0-2.7-0.5-1.3-0.6-2.3-1.4-1-0.9-1.5-2.2-0.6-1.3-0.6-3.1v-29.1q0-1.5 0.6-2.8 0.5-1.3 1.5-2.3 1-1 2.3-1.4 1.3-0.5 2.7-0.5 1.8 0 3.3 0.7 1.6 0.7 2.6 1.9h0.5v-14q0-1.1 0.8-1.9 0.8-0.8 1.8-0.8h3.7q1.2 0 1.9 0.8 0.7 0.8 0.7 1.9v51.3q0 1-0.7 1.8-0.7 0.8-1.9 0.8h-4.7q-0.8 0-0.9-0.8l-0.3-1h-0.5q-1.1 1.1-2.8 1.8zm0.7-7.4q0.9 0 1.6-0.6 0.6-0.5 0.6-1.5v-22.8q0-1-0.6-1.5-0.7-0.5-1.6-0.5-1 0-1.7 0.5-0.7 0.5-0.7 1.5v22.8q0 1 0.7 1.5 0.7 0.6 1.7 0.6z"/>
			<path id="&lt;Compound Path&gt;" fill-rule="evenodd" class="s0" d="m548.8 439.2q-2.1 0.8-4.3 0.8-2.4 0-4.5-0.8-2-0.8-3.6-2.1-1.5-1.3-2.4-3.3-0.8-1.9-0.8-4.2v-22.6q0-2.3 0.8-4.2 0.9-1.9 2.4-3.3 1.6-1.4 3.6-2.1 2.1-0.8 4.5-0.8 2.2 0 4.3 0.8 2 0.7 3.6 2.1 1.5 1.4 2.4 3.3 0.9 1.9 0.9 4.2v10.2q0 1.8-1.2 3.1-1.3 1.2-3.1 1.2h-9.3v8.2q0 1 0.7 1.6 0.7 0.5 1.8 0.5 1 0 1.6-0.5 0.6-0.6 0.6-1.7 0-1.1 0.7-1.9 0.8-0.8 1.8-0.8h3.8q1.1 0 1.8 0.8 0.8 0.8 0.8 1.9 0 2.3-0.9 4.2-0.9 2-2.4 3.3-1.6 1.3-3.6 2.1zm-2-22.8v-9.5q0-1.1-0.6-1.6-0.6-0.5-1.6-0.5-1.1 0-1.8 0.5-0.7 0.5-0.7 1.6v9.5z"/>
			<path id="&lt;Path&gt;" class="s0" d="m594 439q-2.2 1-4.6 1-2.5 0-4.8-1-2.3-0.9-3.9-2.5-1.6-1.6-2.6-3.5-1-2-1-4.2v-35.8q0-2.2 1-4.1 1-2 2.6-3.6 1.6-1.5 3.9-2.4 2.3-0.9 4.8-0.9 2.4 0 4.6 0.9 2.3 0.9 3.9 2.4 1.5 1.6 2.5 3.6 1 1.9 1 4.1v7.1q0 1.2-0.8 1.9-0.8 0.8-1.9 0.8h-4.5q-1 0-1.8-0.8-0.8-0.7-0.8-1.9v-6.8q0-0.8-0.6-1.2-0.6-0.5-1.6-0.5-1 0-1.7 0.5-0.6 0.4-0.6 1.3v35.2q0 0.8 0.6 1.2 0.7 0.5 1.7 0.5 1 0 1.6-0.5 0.6-0.4 0.6-1.2v-6.9q0-1.1 0.8-1.9 0.8-0.8 1.8-0.8h4.5q1.1 0 1.9 0.8 0.8 0.8 0.8 1.9v7.1q0 2.2-1 4.2-1 1.9-2.5 3.5-1.6 1.6-3.9 2.5z"/>
			<path id="&lt;Compound Path&gt;" fill-rule="evenodd" class="s0" d="m625 439.2q-2.1 0.8-4.3 0.8-2.4 0-4.5-0.8-2-0.8-3.6-2.1-1.5-1.3-2.4-3.3-0.8-1.9-0.8-4.2v-22.4q0-2.4 0.8-4.3 0.9-2 2.4-3.4 1.6-1.4 3.6-2.1 2.1-0.7 4.5-0.7 2.2 0 4.3 0.7 2 0.7 3.6 2.1 1.5 1.4 2.4 3.4 0.9 1.9 0.9 4.3v22.4q0 2.3-0.9 4.2-0.9 2-2.4 3.3-1.6 1.3-3.6 2.1zm-4.2-7.4q1 0 1.6-0.6 0.6-0.5 0.6-1.5v-22.8q0-1-0.6-1.5-0.6-0.5-1.6-0.5-1.1 0-1.8 0.5-0.7 0.5-0.7 1.5v22.8q0 1 0.7 1.5 0.7 0.6 1.8 0.6z"/>
			<path id="&lt;Path&gt;" class="s0" d="m662.3 400.6h0.5q1-1.5 2.7-2.7 1.6-1.2 3.8-1.2 1.5 0 2.8 0.5 1.3 0.4 2.3 1.4 0.9 1 1.5 2.3 0.6 1.3 0.6 2.8v32.9q0 1-0.7 1.8-0.8 0.8-1.9 0.8h-3.8q-1 0-1.7-0.8-0.8-0.8-0.8-1.8v-29.2q0-1.1-0.7-1.6-0.7-0.5-1.6-0.5-0.9 0-1.6 0.5-0.6 0.5-0.6 1.6v29.2q0 1-0.8 1.8-0.8 0.8-2 0.8h-3.6q-1 0-1.8-0.8-0.8-0.8-0.8-1.8v-29.7q0-1-0.7-1.5-0.7-0.5-1.6-0.5-1.1 0-1.7 0.5-0.7 0.5-0.7 1.5v29.7q0 1-0.8 1.8-0.8 0.8-1.9 0.8h-3.7q-1 0-1.8-0.8-0.8-0.8-0.8-1.8v-36.5q0-1.1 0.8-1.8 0.8-0.7 1.8-0.7h5q0.8 0 1 0.7l0.2 1h0.5q1-1.2 2.7-1.9 1.7-0.7 3.4-0.7 1.2 0 2.1 0.4 1 0.4 1.9 0.9 0.8 0.6 1.4 1.3 0.6 0.7 1.1 1.3z"/>
			<path id="&lt;Path&gt;" class="s0" d="m693.3 438.4q-0.8 0.8-1.8 0.8h-3.8q-1 0-1.7-0.8-0.8-0.8-0.8-1.8v-36.5q0-1.1 0.8-1.8 0.7-0.7 1.7-0.7h3.8q1 0 1.8 0.7 0.8 0.7 0.8 1.8v36.5q0 1-0.8 1.8z"/>
			<path id="&lt;Path&gt;" class="s0" d="m686 383.4q0.7-0.8 1.7-0.8h3.8q1 0 1.8 0.8 0.8 0.8 0.8 1.9v4.2q0 1.1-0.8 1.8-0.8 0.8-1.8 0.8h-3.8q-1 0-1.7-0.8-0.8-0.7-0.8-1.8v-4.2q0-1.1 0.8-1.9z"/>
			<path id="&lt;Path&gt;" class="s0" d="m715.9 405.4q-0.7-0.5-1.5-0.5-1.1 0-1.8 0.5-0.7 0.5-0.7 1.5v29.7q0 1-0.8 1.8-0.7 0.8-1.8 0.8h-3.7q-1 0-1.8-0.8-0.8-0.8-0.8-1.8v-36.5q0-1.1 0.8-1.8 0.8-0.7 1.8-0.7h4.8q0.7 0 1 0.7l0.2 1h0.5q1-1.2 2.8-1.9 1.7-0.7 3.4-0.7 1.5 0 2.8 0.5 1.3 0.4 2.3 1.4 1 1 1.6 2.3 0.6 1.3 0.6 2.8v32.9q0 1-0.8 1.8-0.8 0.8-1.9 0.8h-3.7q-1 0-1.8-0.8-0.8-0.8-0.8-1.8v-29.7q0-1-0.7-1.5z"/>
			<path id="&lt;Compound Path&gt;" fill-rule="evenodd" class="s0" d="m749.3 439.2q-2 0.8-4.2 0.8-2.4 0-4.5-0.8-2.1-0.8-3.6-2.1-1.5-1.3-2.4-3.3-0.9-1.9-0.9-4.2v-22.6q0-2.3 0.9-4.2 0.9-1.9 2.4-3.3 1.5-1.4 3.6-2.1 2.1-0.8 4.5-0.8 2.2 0 4.2 0.8 2.1 0.7 3.6 2.1 1.6 1.4 2.5 3.3 0.9 1.9 0.9 4.2v10.2q0 1.8-1.3 3.1-1.3 1.2-3.1 1.2h-9.2v8.2q0 1 0.7 1.6 0.7 0.5 1.7 0.5 1 0 1.6-0.5 0.6-0.6 0.6-1.7 0-1.1 0.8-1.9 0.7-0.8 1.8-0.8h3.8q1 0 1.8 0.8 0.8 0.8 0.8 1.9 0 2.3-0.9 4.2-0.9 2-2.5 3.3-1.5 1.3-3.6 2.1zm-2-22.8v-9.5q0-1.1-0.6-1.6-0.6-0.5-1.6-0.5-1 0-1.7 0.5-0.7 0.5-0.7 1.6v9.5z"/>
			<path id="&lt;Path&gt;" class="s0" d="m780.2 439q-2.2 1-4.9 1-5.3 0-8.1-2.8-2.8-2.9-2.8-7.6v-1q0-1.1 0.8-1.9 0.7-0.8 1.8-0.8h2.8q1.1 0 1.9 0.8 0.8 0.8 0.8 1.9v1q0 1 0.6 1.7 0.7 0.7 1.9 0.7 1.2 0 1.9-0.7 0.6-0.7 0.6-2.5 0-1.2-0.4-2.3-0.4-1-1.2-2.1-0.9-1-2.3-2.1-1.4-1.2-3.4-2.8-2.6-2-4.4-4.9-1.9-2.9-1.9-6.4 0-3.3 1-5.4 1-2.2 2.5-3.5 1.6-1.4 3.6-2 2-0.6 4.3-0.6 2.2 0 4.2 0.7 2 0.7 3.4 2.1 1.5 1.4 2.3 3.4 0.9 1.9 0.9 4.3v1q0 1-0.8 1.7-0.8 0.8-2 0.8h-2.8q-1 0-1.8-0.8-0.7-0.7-0.7-1.7v-1q0-1.1-0.7-1.7-0.6-0.6-1.8-0.6-1.3 0-2 0.7-0.6 0.7-0.6 2.3 0 0.9 0.2 1.5 0.2 0.7 0.6 1.3 0.4 0.6 1.1 1.3 0.7 0.6 1.7 1.5l1.6 1.2q1.6 1.3 3.1 2.8 1.6 1.5 2.7 3.3 1.1 1.7 1.9 3.7 0.7 1.9 0.7 4 0 2.2-0.7 4.3-0.6 2-2 3.6-1.5 1.6-3.6 2.6z"/>
			<path id="&lt;Path&gt;" class="s0" d="m805.2 415.5q0 1-0.8 1.8-0.8 0.7-1.9 0.7h-5.5q-1.1 0-1.9-0.7-0.7-0.8-0.7-1.8v-4.9q0-1 0.7-1.8 0.8-0.8 1.9-0.8h5.5q1.1 0 1.9 0.8 0.8 0.8 0.8 1.8z"/>
			<path id="&lt;Path&gt;" class="s0" d="m810.9 383.4q0.7-0.8 1.8-0.8h4.3q1 0 1.8 0.7 0.8 0.7 0.9 1.7l2.8 26.7h0.6l2.9-26.7q0.1-1 0.8-1.7 0.8-0.7 1.8-0.7h1.5q1.1 0 1.8 0.7 0.7 0.7 0.9 1.7l2.8 26.7h0.5q0.9-6.8 1.8-13.4 0.8-6.7 1.7-13.3 0.1-1 0.9-1.7 0.7-0.7 1.8-0.7h3.3q1.1 0 1.8 0.8 0.8 0.8 0.8 1.8v0.5l-7.2 51.3q-0.1 0.9-0.9 1.6-0.7 0.6-1.7 0.6h-3.3q-0.9 0-1.6-0.6-0.8-0.7-0.9-1.7l-3-23h-0.5l-3 23q-0.1 1-0.8 1.7-0.8 0.6-1.8 0.6h-3.5q-1 0-1.8-0.6-0.7-0.7-0.7-1.6l-7.3-51.3v-0.3q0-1.1 0.7-2z"/>
			<path id="&lt;Compound Path&gt;" fill-rule="evenodd" class="s0" d="m865.6 439.2q-1.6 0.8-3.6 0.8-4.5 0-7.2-2.8-2.7-2.7-2.7-7.6 0-3.6 0.6-5.6 0.6-2 1.6-3.4 0.9-1.3 2.2-2.4 1.2-1.2 2.5-2 3-1.9 6.9-3v-6.3q0-1-0.4-1.5-0.4-0.5-1.3-0.5-1 0-1.4 0.5-0.3 0.5-0.3 1.5v1q0 1.1-0.9 1.9-0.8 0.7-1.8 0.7h-4.1q-1 0-1.8-0.7-0.8-0.8-0.8-1.9v-0.7q0-2.4 0.9-4.3 1-2 2.5-3.4 1.5-1.4 3.6-2.1 2-0.7 4.4-0.7 2.3 0 4.2 0.7 1.9 0.7 3.2 2.1 1.4 1.4 2.2 3.4 0.7 1.9 0.7 4.3v23.4q0 1.4 0.2 2.7 0.1 1.3 0.3 2.8 0 0.1 0 0.5 0 1-0.7 1.8-0.7 0.8-1.8 0.8h-3q-0.9 0-1-0.8l-0.2-1.5h-0.6q-0.9 1.5-2.4 2.3zm-2-7.4q2.3 0 2.3-2.5v-8.4q-1.2 0.4-2.1 1-0.8 0.6-1.4 1.2-0.5 0.7-0.9 1.6-0.3 0.8-0.2 4.6 0 2.5 2.3 2.5z"/>
			<path id="&lt;Path&gt;" class="s0" d="m892.4 399.7h0.5q0.6-0.7 1.7-1.4 1.1-0.7 2.4-1.2 0.3 0 0.6 0 1 0 1.7 0.6 0.7 0.7 0.7 1.7v4q0 1.4-1 2-1.1 0.6-2.5 0.7-2 0.2-3.1 1-1.1 0.8-1.1 2.9v26.6q0 1-0.8 1.8-0.8 0.8-1.8 0.8h-3.8q-1 0-1.8-0.8-0.7-0.8-0.7-1.8v-36.5q0-1.1 0.7-1.8 0.8-0.7 1.8-0.7h5.2q0.8 0 0.9 0.8z"/>
			<path id="&lt;Path&gt;" class="s0" d="m920.4 405.4q-0.8-0.5-1.6-0.5-1.1 0-1.8 0.5-0.7 0.5-0.7 1.5v29.7q0 1-0.7 1.8-0.8 0.8-1.9 0.8h-3.7q-1 0-1.8-0.8-0.8-0.8-0.8-1.8v-36.5q0-1.1 0.8-1.8 0.8-0.7 1.8-0.7h4.8q0.8 0 1 0.7l0.2 1h0.5q1.1-1.2 2.8-1.9 1.7-0.7 3.4-0.7 1.5 0 2.8 0.5 1.3 0.4 2.4 1.4 1 1 1.5 2.3 0.6 1.3 0.6 2.8v32.9q0 1-0.8 1.8-0.8 0.8-1.9 0.8h-3.6q-1 0-1.8-0.8-0.8-0.8-0.8-1.8v-29.7q0-1-0.7-1.5z"/>
			<path id="&lt;Compound Path&gt;" fill-rule="evenodd" class="s0" d="m953.8 439.2q-2.1 0.8-4.3 0.8-2.4 0-4.5-0.8-2.1-0.8-3.6-2.1-1.5-1.3-2.4-3.3-0.8-1.9-0.8-4.2v-22.6q0-2.3 0.8-4.2 0.9-1.9 2.4-3.3 1.5-1.4 3.6-2.1 2.1-0.8 4.5-0.8 2.2 0 4.3 0.8 2 0.7 3.6 2.1 1.5 1.4 2.4 3.3 0.9 1.9 0.9 4.2v10.2q0 1.8-1.3 3.1-1.3 1.2-3 1.2h-9.3v8.2q0 1 0.7 1.6 0.7 0.5 1.7 0.5 1 0 1.7-0.5 0.6-0.6 0.6-1.7 0-1.1 0.7-1.9 0.8-0.8 1.8-0.8h3.8q1 0 1.8 0.8 0.8 0.8 0.8 1.9 0 2.3-0.9 4.2-0.9 2-2.4 3.3-1.6 1.3-3.6 2.1zm-2-22.8v-9.5q0-1.1-0.6-1.6-0.7-0.5-1.7-0.5-1 0-1.7 0.5-0.7 0.5-0.7 1.6v9.5z"/>
			<path id="&lt;Path&gt;" class="s0" d="m972.9 392.5q0.8-0.8 1.8-0.8h3.8q1 0 1.8 0.8 0.8 0.8 0.8 1.9v3.2h2.3q1 0 1.8 0.7 0.8 0.7 0.8 1.8v2.5q0 1.1-0.8 1.9-0.8 0.7-1.8 0.7h-2.3v24.1q0 0.8 0.6 1.3 0.6 0.5 1.7 0.5h1.2q0.4 0 0.6 0.3 0.3 0.3 0.3 0.6v4.6q0 1-0.7 1.8-0.7 0.8-1.9 0.8h-2.1q-1.9 0-3.5-0.7-1.6-0.6-2.7-1.8-1.2-1.2-1.8-2.7-0.6-1.6-0.6-3.3v-25.5h-1.8q-1 0-1.8-0.7-0.7-0.8-0.7-1.9v-2.5q0-1.1 0.7-1.8 0.8-0.7 1.8-0.7h1.8v-3.2q0-1.1 0.7-1.9z"/>
			<path id="&lt;Compound Path&gt;" fill-rule="evenodd" class="s0" d="m1000.6 397.4q2.1-0.7 4.5-0.7 2.2 0 4.2 0.7 2.1 0.7 3.7 2.1 1.5 1.4 2.4 3.4 0.9 1.9 0.9 4.3v22.4q0 2.3-0.9 4.2-0.9 2-2.4 3.3-1.6 1.3-3.7 2.1-2 0.8-4.2 0.8-2.4 0-4.5-0.8-2.1-0.8-3.6-2.1-1.5-1.3-2.4-3.3-0.8-1.9-0.8-4.2v-22.4q0-2.4 0.8-4.3 0.9-2 2.4-3.4 1.5-1.4 3.6-2.1zm4.5 7.5q-1 0-1.7 0.5-0.7 0.5-0.7 1.5v22.8q0 1 0.7 1.5 0.7 0.6 1.7 0.6 1 0 1.7-0.6 0.6-0.5 0.6-1.5v-22.8q0-1-0.6-1.5-0.7-0.5-1.7-0.5z"/>
			<path id="&lt;Path&gt;" class="s0" d="m1036.7 397.4q1.7-0.7 3.5-0.7 1.4 0 2.7 0.5 1.4 0.4 2.4 1.4 1 1 1.6 2.3 0.5 1.3 0.5 2.8v32.9q0 1-0.8 1.8-0.8 0.8-1.9 0.8h-3.6q-1 0-1.8-0.8-0.8-0.8-0.8-1.8v-29.7q0-1-0.7-1.5-0.7-0.5-1.6-0.5-1.1 0-1.8 0.5-0.6 0.5-0.6 1.5v29.7q0 1-0.8 1.8-0.8 0.8-1.9 0.8h-3.7q-1 0-1.8-0.8-0.8-0.8-0.8-1.8v-36.5q0-1.1 0.8-1.8 0.8-0.7 1.8-0.7h4.8q0.8 0 1.1 0.7l0.1 1h0.5q1.1-1.2 2.8-1.9z"/>
		</g>
	</g>
</svg>