<svg fill="#fff" xmlns="http://www.w3.org/2000/svg" viewBox="0 0 175.81 90.29"><path d="M108.14 90.29c-3.47-6.01-6.84-11.84-10.21-17.68C89.29 57.65 80.72 42.65 72 27.74c-5.48-9.36-13.69-14.92-24.48-16.34-14.48-1.91-29.14 7.17-34.21 21-7.22 19.7 5.86 41.22 26.73 43.54 12.64 1.4 22.76-3.46 30.32-13.66.47-.64.88-1.34 1.37-1.96 1.12-1.42 3.1-1.38 4.04.15 1.23 2 2.38 4.06 3.54 6.11.63 1.11.37 2.16-.37 3.12-7.28 9.53-16.67 15.59-28.68 17.18C36.67 88.69 24.5 85.34 14.37 76 3.85 66.3-1.01 54.13.18 39.79 1.76 20.64 16.43 4.43 35.18.85c18.83-3.6 36.76 4.46 46.45 21.05 8.65 14.81 17.15 29.72 25.72 44.58.22.38.45.75.74 1.23.22-.3.41-.51.55-.76 2.27-3.9 4.5-7.81 6.81-11.68.5-.84.3-1.46-.12-2.19-5.47-9.42-10.93-18.84-16.39-28.27-.38-.65-.76-1.32-1.03-2.02-.55-1.45.13-2.65 1.65-2.97.46-.1.95-.09 1.43-.09h43.63c2.6 0 3.49 1.49 2.2 3.71-5.68 9.8-11.35 19.61-17.09 29.38-.64 1.09-.62 1.87.02 2.92 2.15 3.55 4.19 7.16 6.28 10.75.21.37.44.73.76 1.26.83-1.42 1.59-2.71 2.34-4.01 7.91-13.72 15.84-27.43 23.72-41.17 1.11-1.94 2.66-2.91 4.86-2.84 1.91.06 3.84.04 5.73.25 2.25.25 2.94 1.71 1.8 3.77-1.47 2.65-3.05 5.24-4.57 7.87-10.42 18.03-20.83 36.07-31.25 54.1-.83 1.44-1.74 2.84-2.72 4.43-4.79-8.26-9.48-16.34-14.26-24.6-4.8 8.3-9.52 16.43-14.33 24.75Zm14.33-47.31c2.34-4.07 4.58-7.95 6.87-11.94h-13.77c2.31 4 4.55 7.88 6.89 11.94Z"/></svg>