<svg width="30" height="30" viewBox="0 0 30 30" fill="none" xmlns="http://www.w3.org/2000/svg">
<path d="M29.1667 14.5833C29.1667 18.4511 27.6302 22.1604 24.8953 24.8953C22.1604 27.6302 18.4511 29.1667 14.5833 29.1667C12.6682 29.1667 10.7719 28.7895 9.00253 28.0566C7.2332 27.3237 5.62555 26.2495 4.27136 24.8953C1.53645 22.1604 0 18.4511 0 14.5833C0 10.7156 1.53645 7.00627 4.27136 4.27136C7.00627 1.53645 10.7156 0 14.5833 0C16.4984 0 18.3948 0.377209 20.1641 1.11009C21.9335 1.84297 23.5411 2.91717 24.8953 4.27136C26.2495 5.62555 27.3237 7.2332 28.0566 9.00253C28.7895 10.7719 29.1667 12.6682 29.1667 14.5833ZM5.83333 16.0417H17.5L12.3958 21.1458L14.4667 23.2167L23.1 14.5833L14.4667 5.95L12.3958 8.02083L17.5 13.125H5.83333V16.0417Z" fill="#6CCBAD"/>
</svg>
