<?xml version="1.0" standalone="no"?>
<!DOCTYPE svg PUBLIC "-//W3C//DTD SVG 20010904//EN"
 "http://www.w3.org/TR/2001/REC-SVG-20010904/DTD/svg10.dtd">
<svg version="1.0" xmlns="http://www.w3.org/2000/svg"
 width="291.000000pt" height="291.000000pt" viewBox="0 0 291.000000 291.000000"
 preserveAspectRatio="xMidYMid meet">
<metadata>
Created by potrace 1.14, written by Peter Selinger 2001-2017
</metadata>
<g transform="translate(0.000000,291.000000) scale(0.100000,-0.100000)"
fill="#000000" stroke="none">
<path d="M2148 2545 c-62 -17 -112 -49 -146 -93 -23 -30 -27 -45 -27 -103 0
-53 4 -72 20 -89 50 -56 134 -63 295 -25 325 78 459 200 305 278 -85 42 -342
61 -447 32z m262 -30 c11 -13 6 -14 -36 -8 -80 10 -97 22 -33 22 39 1 60 -4
69 -14z m-300 -96 c-48 -38 -67 -43 -36 -10 17 17 37 31 45 31 12 0 9 -6 -9
-21z"/>
<path d="M1607 2155 c-54 -19 -112 -44 -130 -56 -78 -55 -287 -246 -287 -264
0 -5 -20 -39 -45 -74 -28 -40 -45 -76 -45 -93 0 -18 -5 -28 -15 -28 -8 0 -17
-10 -19 -22 -3 -13 -16 -70 -30 -128 -24 -102 -24 -120 -6 -120 14 0 90 111
90 131 0 10 18 33 39 51 57 49 143 160 138 178 -3 8 -8 23 -12 33 -4 10 -3 17
4 17 7 0 14 -7 17 -15 11 -28 29 -15 64 43 57 97 110 151 157 163 32 9 60 30
127 99 84 85 104 120 69 120 -10 0 -62 -16 -116 -35z"/>
<path d="M163 1724 c-21 -9 -15 -22 17 -39 34 -18 67 -20 72 -4 2 7 13 6 33
-4 17 -9 56 -23 87 -31 31 -9 78 -31 105 -50 26 -18 71 -45 99 -60 28 -15 94
-69 145 -119 107 -104 136 -115 197 -70 34 25 43 53 17 53 -8 0 -15 -4 -15
-10 0 -5 -5 -10 -11 -10 -5 0 -3 10 5 22 23 33 20 57 -9 64 -14 3 -38 21 -53
39 -32 38 -139 94 -249 129 -43 13 -98 33 -123 44 -57 26 -288 59 -317 46z"/>
<path d="M2096 1614 c149 -90 271 -216 314 -326 21 -53 25 -80 25 -168 0 -103
-1 -106 -37 -165 -55 -91 -111 -149 -226 -235 -132 -99 -188 -126 -319 -155
-58 -13 -116 -31 -130 -41 -14 -9 -40 -18 -57 -20 -17 -2 -60 -11 -96 -20 -36
-9 -85 -16 -110 -15 -25 0 -60 -4 -78 -9 -44 -12 -383 14 -477 37 -38 9 -98
29 -132 45 -38 18 -86 31 -127 35 -51 4 -78 13 -114 36 -50 33 -66 35 -90 11
-17 -17 -19 -14 39 -50 25 -16 46 -33 46 -38 3 -15 87 -53 133 -60 24 -4 67
-20 95 -35 27 -16 79 -34 115 -41 36 -8 74 -19 86 -27 11 -7 23 -10 27 -7 3 4
14 3 24 0 14 -6 15 -9 4 -15 -39 -25 210 -47 255 -23 12 7 26 7 35 1 25 -16
110 -10 208 15 53 14 152 36 221 51 167 36 294 77 415 136 98 47 205 128 205
155 0 7 27 44 61 81 42 47 76 98 111 171 l51 105 -5 96 c-6 111 -31 186 -89
272 -52 77 -175 173 -254 199 -22 7 -57 19 -78 26 -20 8 -54 14 -74 14 l-37 0
60 -36z"/>
<path d="M1393 1423 c-14 -9 -23 -26 -23 -42 0 -23 9 -31 61 -56 33 -16 65
-38 70 -48 7 -12 20 -17 42 -15 81 7 250 -28 288 -59 9 -7 21 -29 26 -48 10
-33 9 -39 -20 -77 -37 -47 -213 -147 -262 -148 -16 0 -41 -9 -55 -20 -19 -15
-41 -20 -95 -20 -38 -1 -88 -8 -110 -16 -31 -11 -90 -14 -260 -14 -279 0 -394
18 -480 73 -27 17 -84 49 -125 70 -78 40 -103 57 -82 57 7 0 12 7 12 16 0 12
-6 15 -22 10 -13 -3 -35 -6 -51 -6 -41 0 -66 -31 -62 -75 2 -20 5 -38 7 -39 2
-1 23 -15 48 -32 57 -39 145 -79 193 -88 21 -4 72 -19 115 -33 117 -40 510
-67 641 -44 36 6 107 13 156 15 107 5 223 43 381 127 216 115 253 149 252 231
0 29 -6 65 -14 79 -19 38 -95 102 -140 118 -21 8 -50 21 -64 30 -82 54 -375
91 -427 54z m521 -238 c6 -18 -2 -45 -15 -45 -5 0 -9 6 -9 14 0 8 -3 21 -6 30
-4 10 -1 16 9 16 8 0 17 -7 21 -15z"/>
<path d="M928 1246 c-55 -15 -79 -32 -71 -51 6 -18 25 -24 99 -31 88 -8 204 4
211 23 22 56 -120 91 -239 59z"/>
<path d="M539 1181 l-23 -18 21 -12 c12 -6 24 -24 28 -40 9 -40 64 -81 109
-81 19 0 38 -4 41 -10 3 -5 21 -10 39 -10 17 0 36 -4 41 -9 13 -12 320 -18
447 -9 101 7 155 26 191 66 11 12 16 26 12 32 -11 18 -86 50 -119 50 -25 0
-28 -3 -24 -24 5 -22 0 -25 -82 -45 -47 -11 -103 -21 -123 -21 -63 0 -237 29
-267 45 -16 8 -33 15 -38 15 -16 0 -95 40 -131 66 -41 29 -90 31 -122 5z"/>
<path d="M1780 1181 c0 -11 44 -61 54 -61 14 0 5 44 -11 56 -21 16 -43 18 -43
5z"/>
</g>
</svg>
