<svg width="55" height="42" viewBox="0 0 55 42" fill="none" xmlns="http://www.w3.org/2000/svg">
<path d="M27.0001 19.3L53.9001 2.5C53.7173 1.79175 53.3066 1.16328 52.7313 0.711503C52.1561 0.259722 51.4482 0.00970548 50.7168 0H3.28343C2.55203 0.00970548 1.84413 0.259722 1.26886 0.711503C0.693591 1.16328 0.282899 1.79175 0.100098 2.5L27.0001 19.3Z" fill="#4e5859"/>
<path d="M27 23.25L0 6.3667V38.65C0 39.5341 0.351189 40.3819 0.97631 41.0071C1.60143 41.6322 2.44928 41.9834 3.33333 41.9834H50.7167C51.6007 41.9834 52.4486 41.6322 53.0737 41.0071C53.6988 40.3819 54.05 39.5341 54.05 38.65V6.3667L27 23.25Z" fill="#4e5859"/>
</svg>
