<svg width="600" height="198" viewBox="0 0 600 198" preserveAspectRatio="xMidYMid meet" fill="none" xmlns="http://www.w3.org/2000/svg">
<path fill-rule="evenodd" clip-rule="evenodd" d="M304.372 111.577H290.116L277.572 89.9085H267.182V111.577H254.51V47.9023H276.876C280.93 47.9023 284.436 48.3879 287.392 49.3595C290.56 50.3733 293.18 51.8305 295.248 53.7311C297.318 55.6741 298.966 57.9551 300.19 60.5739C301.332 63.1081 301.902 66.0227 301.902 69.3173C301.902 73.7523 300.866 77.4693 298.796 80.4683C296.686 83.6361 293.686 85.9803 289.8 87.5009L304.372 111.577ZM267.182 59.5601V78.4407L278.396 78.6309C280.17 78.6309 281.69 78.3563 282.958 77.8073C284.266 77.2581 285.322 76.5189 286.126 75.5897C286.97 74.7027 287.604 73.7101 288.026 72.6119C288.448 71.5559 288.66 70.3943 288.66 69.1271C288.66 67.8177 288.448 66.6351 288.026 65.5791C287.604 64.4809 286.97 63.4883 286.126 62.6013C285.322 61.6721 284.266 60.9329 282.958 60.3837C281.69 59.8347 280.19 59.5601 278.46 59.5601H267.182Z" fill="#FEFEFE"/>
<path fill-rule="evenodd" clip-rule="evenodd" d="M318.312 79.9595C318.312 76.4115 318.882 70.8993 320.656 66.7177C322.43 62.6205 324.797 59.1147 327.753 56.2003C330.751 53.2857 334.278 51.0049 338.332 49.3575C342.346 47.7103 346.632 46.8867 351.194 46.8867C355.714 46.8867 359.98 47.7103 363.992 49.3575C368.09 51.0049 371.616 53.2857 374.574 56.2003C377.614 59.1147 379.981 62.5993 381.671 66.6543C383.445 70.8359 384.33 75.2921 384.33 80.0229C384.33 84.9647 383.486 89.4421 381.796 93.4547C380.064 97.5097 377.701 100.994 374.701 103.909C371.703 106.823 368.174 109.104 364.12 110.752C360.022 112.314 355.734 113.096 351.258 113.096C346.78 113.096 342.494 112.314 338.396 110.752C334.468 109.104 330.984 106.823 327.942 103.909C324.986 100.994 322.62 97.4673 320.846 93.3281C319.156 89.3153 318.312 84.8591 318.312 79.9595ZM331.49 79.9595C331.49 83.0429 331.976 85.8307 332.948 88.3227C333.918 90.8571 335.292 93.0535 337.066 94.9119C338.756 96.6437 340.847 98.0377 343.339 99.0935C345.705 100.065 348.364 100.551 351.322 100.551C354.194 100.551 356.896 100.023 359.43 98.9669C361.88 97.9953 363.992 96.5803 365.766 94.7219C367.456 92.9057 368.808 90.7093 369.822 88.1327C370.794 85.6405 371.279 82.8529 371.279 79.7695C371.279 76.6015 370.794 73.7715 369.822 71.2795C368.808 68.7451 367.456 66.5699 365.766 64.7535C363.992 62.8529 361.88 61.4167 359.43 60.4453C356.896 59.4315 354.236 58.9247 351.448 58.9247C348.448 58.9247 345.766 59.4103 343.402 60.3819C340.91 61.3955 338.818 62.7895 337.128 64.5635C335.44 66.3797 334.088 68.5551 333.074 71.0893C332.06 73.6237 331.49 77.5519 331.49 79.9595Z" fill="#FEFEFE"/>
<path d="M460.805 63.2976L447.879 66.6556L447.627 67.0358C445.853 64.586 443.551 62.7064 440.721 61.397C437.721 59.9608 434.681 59.2428 431.597 59.2428C428.683 59.2428 425.957 59.7708 423.423 60.8268C420.973 61.7982 418.861 63.2132 417.087 65.0718C415.355 66.9724 414.025 69.1688 413.097 71.661C412.209 74.1952 411.765 76.9618 411.765 79.9608C411.765 83.002 412.273 85.832 413.287 88.4508C414.299 91.0274 415.673 93.1816 417.405 94.9134C419.095 96.6028 421.185 97.9544 423.677 98.9682C426.043 99.9398 428.683 100.425 431.597 100.425C435.187 100.425 438.567 99.5596 441.733 97.8278C444.859 96.0538 447.183 93.7728 448.703 90.9852L461.439 94.343C460.045 97.2576 458.377 99.813 456.433 102.009C454.491 104.164 452.231 106.107 449.653 107.838C447.035 109.528 444.227 110.774 441.227 111.576C438.185 112.463 434.997 112.907 431.661 112.907C427.183 112.907 422.917 112.126 418.861 110.563C414.891 108.915 411.385 106.635 408.345 103.72C405.387 100.806 403.023 97.2786 401.249 93.1392C399.559 89.1266 398.713 84.6704 398.713 79.7708C398.713 75.04 399.601 70.5838 401.375 66.4022C403.107 62.2628 405.473 58.7358 408.471 55.8214C411.427 52.907 414.955 50.626 419.051 48.9788C423.023 47.3314 427.289 46.5078 431.851 46.5078C435.145 46.5078 438.185 46.909 440.973 47.7116C443.931 48.5564 446.613 49.6758 449.021 51.0696C451.597 52.5902 453.835 54.343 455.737 56.3282C457.847 58.5248 459.537 60.8478 460.805 63.2976Z" fill="#FEFEFE"/>
<path d="M519.285 47.7109H531.955V111.449H519.285V85.1555H491.723V111.449H479.051V47.7109H491.723V73.1807H519.285V47.7109Z" fill="#FEFEFE"/>
<path d="M567.055 99.6011H600.001V111.449H554.383V47.7109H599.431V59.5587H567.055V73.1173H592.653V84.2051H567.055V99.6011Z" fill="#FEFEFE"/>
<path d="M298.734 143.129H267.182V158.715H291.89V170.12H267.182V195.083H254.51V131.281H298.734V143.129Z" fill="#FEFEFE"/>
<path fill-rule="evenodd" clip-rule="evenodd" d="M458.458 195.144H444.266L431.658 173.475H421.33V195.144H408.66V131.469H430.962C435.016 131.469 438.544 131.954 441.542 132.926C444.668 133.982 447.266 135.439 449.336 137.298C451.404 139.241 453.052 141.522 454.276 144.14C455.418 146.675 455.988 149.589 455.988 152.884C455.988 157.319 454.952 161.057 452.884 164.098C450.772 167.266 447.772 169.61 443.886 171.131L458.458 195.144ZM421.268 143.127V161.944L432.482 162.134C434.256 162.134 435.776 161.859 437.044 161.31C438.396 160.761 439.452 160.043 440.212 159.156C441.098 158.227 441.754 157.213 442.176 156.115C442.598 155.101 442.81 153.961 442.81 152.694C442.81 151.342 442.598 150.159 442.176 149.146C441.754 148.047 441.098 147.034 440.212 146.104C439.452 145.217 438.396 144.499 437.044 143.95C435.776 143.401 434.298 143.127 432.608 143.127H421.268Z" fill="#FEFEFE"/>
<path d="M479.24 131.281H531.764V143.129H511.742V195.083H499.072V143.129H479.24V131.281Z" fill="#FEFEFE"/>
<path fill-rule="evenodd" clip-rule="evenodd" d="M318.312 163.467C318.312 159.919 318.882 154.471 320.656 150.226C322.43 146.128 324.797 142.623 327.753 139.708C330.751 136.794 334.278 134.513 338.332 132.865C342.346 131.218 346.632 130.395 351.194 130.395C355.714 130.395 359.98 131.218 363.992 132.865C368.09 134.513 371.616 136.794 374.574 139.708C377.614 142.623 379.981 146.107 381.671 150.162C383.445 154.344 384.33 158.8 384.33 163.531C384.33 168.473 383.486 172.95 381.796 176.963C380.064 181.018 377.701 184.502 374.701 187.417C371.703 190.331 368.174 192.612 364.12 194.259C360.022 195.822 355.734 196.604 351.258 196.604C346.78 196.604 342.494 195.822 338.396 194.259C334.468 192.612 330.984 190.331 327.942 187.417C324.986 184.502 322.62 180.975 320.846 176.836C319.156 172.823 318.312 168.367 318.312 163.467ZM331.49 163.467C331.49 166.551 331.976 169.339 332.948 171.831C333.918 174.407 335.292 176.604 337.066 178.42C338.756 180.152 340.847 181.546 343.339 182.601C345.705 183.573 348.364 184.059 351.322 184.059C354.194 184.059 356.896 183.531 359.43 182.475C361.88 181.503 363.992 180.088 365.766 178.23C367.456 176.414 368.808 174.217 369.822 171.641C370.794 169.148 371.279 166.361 371.279 163.277C371.279 160.109 370.794 157.279 369.822 154.787C368.808 152.253 367.456 150.078 365.766 148.261C363.992 146.361 361.88 144.925 359.43 143.953C356.896 142.939 354.236 142.433 351.448 142.433C348.448 142.433 345.766 142.918 343.402 143.89C340.91 144.904 338.818 146.297 337.128 148.071C335.44 149.888 334.088 152.063 333.074 154.597C332.06 157.132 331.49 161.06 331.49 163.467Z" fill="#FEFEFE"/>
<path d="M76.7266 133.309H95.4806V24.2695H76.7266V133.309Z" fill="#FEFEFE"/>
<path d="M139.641 91.8091L140.908 91.3021C147.497 88.7679 152.566 84.7763 156.177 79.5175C159.598 74.3855 161.372 68.0497 161.372 60.5735C161.372 54.9981 160.422 49.9927 158.458 45.7477C156.43 41.3127 153.579 37.4479 150.095 34.1533C146.673 30.9853 142.175 28.5145 136.853 26.7403C131.784 25.0931 125.702 24.2695 118.732 24.2695H110.369V42.3265H121.583C124.688 42.3265 127.476 42.8333 129.883 43.8471C132.354 44.8607 134.382 46.2547 135.902 47.9653C137.423 49.6759 138.627 51.5133 139.45 53.6041C140.211 55.5049 140.654 57.7225 140.654 60.2567C140.654 62.6011 140.211 64.8185 139.45 66.7193C138.627 68.7467 137.423 70.6475 135.839 72.3581C134.382 74.0687 132.354 75.4627 129.883 76.4765C127.476 77.4901 124.688 77.9969 121.457 77.9969L110.369 77.8069V95.3571H120.696L142.682 133.309H164.73L139.641 91.8091Z" fill="#FEFEFE"/>
<path d="M31.0454 0L44.0338 12.038C27.6874 29.5882 17.7402 53.1574 17.7402 79.0074C17.7402 133.369 61.774 177.466 116.135 177.466C159.852 177.466 196.853 149.018 209.714 109.673L226.568 115.185C211.362 161.626 167.645 195.143 116.135 195.143C52.0168 195.143 0 143.126 0 79.0074C0 48.4688 11.7846 20.718 31.0454 0Z" fill="white"/>
<path d="M278.838 0.0625H282.514L269.968 29.2706H266.484L254.002 0.125862H257.74L266.546 21.034L267.118 22.618C267.202 22.7446 267.308 22.977 267.434 23.3148C267.56 23.6528 267.646 23.9062 267.688 24.0752C267.856 24.4976 267.982 24.8144 268.068 25.0256L268.258 25.4056L268.448 25.0256C268.49 24.941 268.554 24.7722 268.638 24.5186C268.722 24.3074 268.786 24.1386 268.828 24.0118C268.912 23.885 269.018 23.6528 269.144 23.3148C269.272 22.977 269.356 22.7236 269.398 22.5546L269.968 20.9706L278.838 0.0625Z" fill="white"/>
<path d="M296.832 29.2706H293.412V0.0625H296.832V29.2706Z" fill="white"/>
<path d="M314.256 26.0392H329.904V29.2706H310.834V0.0625H314.256V26.0392Z" fill="white"/>
<path d="M344.352 26.0392H359.938V29.2706H340.93V0.0625H344.352V26.0392Z" fill="white"/>
<path d="M374.383 26.0392H390.667V29.2706H370.961V0.0625H390.413V3.29376H374.383V12.2906H387.245V15.3318H374.383V26.0392Z" fill="white"/>
<path fill-rule="evenodd" clip-rule="evenodd" d="M420.064 0.0625H432.354L432.228 0.189219C434.298 0.189219 436.262 0.548246 438.12 1.2663C439.936 1.98436 441.542 2.99808 442.936 4.30748C444.33 5.61688 445.406 7.1586 446.166 8.93262C446.97 10.7489 447.37 12.7552 447.37 14.9516C447.37 17.148 446.99 19.091 446.23 20.7806C445.428 22.5546 444.372 24.054 443.062 25.279C441.754 26.5038 440.19 27.4966 438.374 28.2568C436.6 28.9326 434.678 29.2706 432.608 29.2706H420.064V0.0625ZM423.548 26.0392H432.608C434.172 26.0392 435.628 25.7858 436.98 25.279C438.332 24.7722 439.536 24.033 440.592 23.0614C441.648 22.1322 442.492 20.9706 443.126 19.5768C443.718 18.2674 444.012 16.7045 444.012 14.8883C444.012 13.072 443.718 11.4669 443.126 10.0731C442.492 8.63694 441.648 7.43314 440.592 6.46166C439.494 5.4057 438.268 4.62428 436.916 4.11742C435.48 3.5683 433.982 3.29376 432.418 3.29376H423.548V26.0392Z" fill="white"/>
<path d="M462.893 26.0392H479.241V29.2706H459.473V0.0625H478.987V3.29376H462.893V12.2906H475.819V15.3318H462.893V26.0392Z" fill="white"/>
</svg>
