<svg width="140" height="20" viewBox="0 0 140 20" fill="none" xmlns="http://www.w3.org/2000/svg">
<ellipse cx="129.041" cy="10" rx="10.0403" ry="10" transform="rotate(-180 129.041 10)" fill="white"/>
<path d="M127.033 7.45601L129.515 9.93374L127.033 12.4115L127.797 13.1726L131.049 9.93374L127.797 6.69487L127.033 7.45601Z" fill="#0056A4"/>
<path d="M99.8414 17V5.71997H107.345V7.35197H101.809V10.456H106.993V12.088H101.809V15.368H107.345V17H99.8414Z" fill="white"/>
<path d="M92.6239 17V7.43197H88.7519V5.71997H98.5439V7.43197H94.6719V17H92.6239Z" fill="white"/>
<path d="M85.4039 17V5.71997H87.4519V17H85.4039Z" fill="white"/>
<path d="M78.2794 17.16C76.7327 17.16 75.5487 16.76 74.7273 15.96C73.9167 15.1493 73.5114 13.9546 73.5114 12.376V5.71997H75.5593V12.36C75.5593 13.3733 75.7887 14.136 76.2474 14.648C76.7167 15.1493 77.394 15.4 78.2794 15.4C79.1647 15.4 79.8367 15.1493 80.2953 14.648C80.754 14.136 80.9834 13.3733 80.9834 12.36V5.71997H83.0154V12.376C83.0154 13.9546 82.6154 15.1493 81.8154 15.96C81.0154 16.76 79.8367 17.16 78.2794 17.16Z" fill="white"/>
<path d="M67.3856 17.16C66.799 17.16 66.2336 17.1067 65.6896 17C65.1563 16.904 64.6603 16.76 64.2016 16.568C63.7536 16.376 63.3536 16.1467 63.0016 15.88L63.6256 14.264C63.9776 14.5093 64.3456 14.7227 64.7296 14.904C65.1243 15.0747 65.5403 15.208 65.9776 15.304C66.4256 15.3893 66.895 15.432 67.3856 15.432C68.2283 15.432 68.8416 15.2933 69.2256 15.016C69.6096 14.728 69.8016 14.36 69.8016 13.912C69.8016 13.6667 69.743 13.4587 69.6256 13.288C69.5083 13.1067 69.3163 12.952 69.0496 12.824C68.7829 12.696 68.4309 12.5893 67.9936 12.504L66.2336 12.136C65.2203 11.9227 64.4629 11.5653 63.9616 11.064C63.4709 10.552 63.2256 9.88 63.2256 9.048C63.2256 8.344 63.4123 7.73066 63.7856 7.208C64.1589 6.68533 64.6763 6.28 65.3376 5.992C65.9989 5.704 66.7616 5.56 67.6256 5.56C68.1376 5.56 68.6283 5.61333 69.0976 5.72C69.5776 5.816 70.0149 5.96533 70.4096 6.168C70.8149 6.36 71.1669 6.59466 71.4656 6.872L70.8416 8.408C70.3936 8.03466 69.903 7.75733 69.3696 7.576C68.8363 7.384 68.2496 7.288 67.6096 7.288C67.119 7.288 66.6976 7.35733 66.3456 7.496C65.9936 7.63466 65.7216 7.832 65.5296 8.088C65.3483 8.33333 65.2576 8.62666 65.2576 8.968C65.2576 9.352 65.3856 9.66133 65.6416 9.896C65.8976 10.12 66.335 10.296 66.9536 10.424L68.6976 10.792C69.7536 11.016 70.5376 11.368 71.0496 11.848C71.5723 12.328 71.8336 12.968 71.8336 13.768C71.8336 14.44 71.6523 15.032 71.2896 15.544C70.927 16.056 70.4096 16.456 69.7376 16.744C69.0763 17.0213 68.2923 17.16 67.3856 17.16Z" fill="white"/>
<path d="M46.0629 17L51.1669 5.71997H52.8469L57.9509 17H55.8709L54.5109 13.832L55.3749 14.392H48.6229L49.4869 13.832L48.1429 17H46.0629ZM51.9829 7.94397L49.7429 13.272L49.3269 12.76H54.6709L54.2709 13.272L52.0149 7.94397H51.9829Z" fill="white"/>
<path d="M38.5445 17V5.71997H40.5925V15.256H46.0005V17H38.5445Z" fill="white"/>
<path d="M24.6851 17V5.71997H32.1891V7.35197H26.6531V10.456H31.8371V12.088H26.6531V15.368H32.1891V17H24.6851Z" fill="white"/>
<path d="M13.7164 17V5.71997H18.6124C19.8497 5.71997 20.8044 6.01864 21.4764 6.61597C22.1484 7.20264 22.4844 8.0293 22.4844 9.09597C22.4844 9.7893 22.3297 10.3866 22.0204 10.888C21.7217 11.3893 21.2844 11.7733 20.7084 12.04C20.1324 12.3066 19.4337 12.44 18.6124 12.44L18.7564 12.2H19.2844C19.7217 12.2 20.1004 12.3066 20.4204 12.52C20.751 12.7333 21.039 13.0693 21.2844 13.528L23.1724 17H20.9164L18.9644 13.4C18.8364 13.1653 18.6924 12.984 18.5324 12.856C18.3724 12.7173 18.191 12.6213 17.9884 12.568C17.7857 12.5146 17.551 12.488 17.2844 12.488H15.7644V17H13.7164ZM15.7644 10.968H18.2604C18.9964 10.968 19.551 10.8186 19.9244 10.52C20.3084 10.2106 20.5004 9.75197 20.5004 9.14397C20.5004 8.54664 20.3084 8.09864 19.9244 7.79997C19.551 7.49064 18.9964 7.33597 18.2604 7.33597H15.7644V10.968Z" fill="white"/>
<path d="M9.21637 17V5.71997H11.2644V17H9.21637Z" fill="white"/>
<path d="M0.231995 17V5.71997H2.27999V15.256H7.68799V17H0.231995Z" fill="white"/>
</svg>
