<?xml version="1.0" encoding="UTF-8"?><svg id="uuid-1c13d403-de9f-4959-9b62-9bc3acefdf18" xmlns="http://www.w3.org/2000/svg" viewBox="0 0 427.44 366.83"><g id="uuid-27974aaa-34fe-410c-8a7f-fc28bb9c86bd"><g id="uuid-fd231051-9c8b-4d21-abd7-fd6389aab0c5"><path d="m6.64,366.83c.38-32.46-1.71-79.83-.92-112.28.11-4.37-.79-7.86-3.76-10.77-2.4-2.35-2.45-4.44-.94-7.46,9.5-19.06,18.77-38.23,28.16-57.34,1.3-2.65,2.29-5.15.36-7.95-.99-1.43-.48-2.91.59-4.12.77-.86,1.78-.82,2.72-.22,1.6,1.03,1.48,2.63.87,4-1.61,3.6-.44,6.76,1.01,10.05,8.36,18.87,16.61,37.8,25.02,56.65,1.14,2.55,1.34,4.68-.44,6.91-2.08,2.61-2.5,5.61-2.47,8.9.1,10.33.07,20.66-.18,30.98-.08,3.4.76,4.62,4.38,4.53,28.12-.69,56.25-1.22,84.38-1.69,2.65-.04,3.38-.91,3.42-3.47.34-21.14.55-42.28,1.35-63.41.29-7.67-.67-14.84-3.73-21.78-.96-2.18-1.35-4.21.59-5.92,14.94-13.18,21.13-31.55,29.09-48.88,11.25-24.5,22.45-49.02,33.67-73.54,2.09-4.56,3.09-9.05-.37-13.53-1.49-1.93-1.01-4.06.24-6.07,4.96-7.91,3.13-16.75,3.38-25.29.06-1.96-1.6-2.24-3.16-2.43-2.44-.3-4.87-.64-7.45-.98.3-.55.41-.96.55-.97q10.15-.65,10.15-10.82c0-3.33,0-6.66,0-9.93.45,4.8,1.31,9.68,1.24,14.54-.06,4.57,1.94,5.79,5.98,5.53,1.68-.11,3.55-.88,5.43.93-2.05,1.73-4.2.6-6.12.62-2.98.04-4.7.97-4.51,4.37.33,5.81-.4,11.82.84,17.41,1.39,6.26,4.89,11.89.6,18.53-1.47,2.28.35,5.67,1.72,8.47,16.44,33.64,32.77,67.34,49.11,101.04,3.52,7.25,10.15,11.81,15.23,17.7,1.5,1.74,2.81,3.22,1.92,5.67-5.27,14.5-3.83,29.51-3.42,44.44.38,13.64.78,27.29.94,40.94.05,4.09,1.01,5.67,5.62,5.56,26.63-.65,53.27-.98,79.91-1.26,3.38-.04,4.64-.82,4.47-4.48-.48-10.64-.51-21.3-.84-31.95-.11-3.43.16-7.05-2.8-9.74-2.01-1.83-.55-3.74.18-5.49,8.03-19.38,16.08-38.76,24.21-58.1,1.34-3.19,2.41-6.15.37-9.47-1.01-1.64-.45-3.24,1.21-4.28,1.12-.7,2.25-.51,3.22.34,1.46,1.27,1.93,2.98.66,4.42-2.64,3-1.53,5.7-.05,8.69,9.43,19.09,18.75,38.23,28.18,57.32.96,1.95,1.68,3.66-.24,5.34-2.66,2.33-2.82,5.31-2.73,8.6,1,36.44,1.94,84.68,2.73,121.13H6.64Zm223.06-127.05c0-4.99.04-9.98,0-14.97-.09-9.24-6.1-15.77-14.45-15.75-9.64.02-15.82,5.78-15.98,15.26-.17,10.14.02,20.3-.08,30.44-.03,2.63.56,3.95,3.57,3.89,7.82-.17,15.64-.17,23.45,0,3.05.07,3.6-1.28,3.53-3.9-.14-4.99-.04-9.98-.04-14.97Zm40.03,1.98c0-5.66.21-11.33-.06-16.97-.31-6.45-5.42-11.2-11.7-11.36-4.49-.12-8.7,4.15-8.81,9.7-.22,10.81-.04,21.63-.1,32.45-.01,1.98.57,3.03,2.71,3.32,4.94.68,9.88,1.46,14.77,2.46,2.47.5,3.29-.11,3.24-2.62-.12-5.66-.04-11.31-.05-16.97Zm-89.02-.81c0-2,.04-4,0-6-.1-4.49.45-9.01-.62-13.44-.99-4.05-3.38-7.05-7.64-7.6-4.18-.54-6.8,2.19-8.66,5.56-1.38,2.49-2.25,5.2-2.28,8.09-.11,8.82-.23,17.64-.27,26.47-.04,9.61,0,9.61,9.21,7.98,1.97-.35,3.92-.92,5.9-1.03,3.69-.2,4.66-2.06,4.45-5.55-.29-4.81-.07-9.66-.07-14.49Zm-151.16,26.89q-.02,13.28,12.56,12.92c.33,0,.66.01.99.04,1.42.14,2.2-.44,2.19-1.93-.04-6.79.19-13.59-.23-20.35-.25-4.05-4.2-6.53-8.78-6.24-4.4.28-6.51,2.89-6.7,7.12-.13,2.81-.02,5.63-.02,8.44Zm367.53-2.63c0-2.66,0-5.31,0-7.97,0-.33-.01-.66-.04-.99-.46-4.9-2.57-6.87-7.33-6.8-5.05.07-7.86,2.27-8.03,6.86-.22,6.13-.03,12.28-.1,18.42-.02,2.03.64,2.88,2.83,3.05,11.95.89,12.68.29,12.68-11.57,0-.33,0-.66-.01-1Zm-376.67,3.28s-.03,0-.04,0c0-2.82.13-5.65-.03-8.46-.22-3.91-1.37-7.68-6.07-7.62-4.66.05-5.15,4.09-5.32,7.62-.22,4.64-.06,9.29-.06,13.94,0,7.5-.01,7.31,7.25,6.87,3.51-.21,4.63-1.54,4.31-4.88-.24-2.47-.05-4.98-.05-7.47Zm397.37-2.94c0-2.81.07-5.63-.02-8.44-.11-3.61-.48-7.23-5.21-7.6-3.69-.29-5.93,2.48-6.03,7.42-.11,5.63-.05,11.26,0,16.88,0,1.08-.5,2.57.88,3.09,2.98,1.12,6.34,1.64,9.24.82,2.36-.67.9-3.74,1.1-5.73.21-2.13.05-4.3.04-6.45Z" style="fill:#3c4d54; stroke-width:0px;"/></g></g></svg>