<svg width="158" height="70" viewBox="0 0 158 70" fill="none" xmlns="http://www.w3.org/2000/svg">
<path d="M13.8505 44.576V67.1949C7.55659 67.1949 2.24536 62.9724 0.560111 57.1942C3.53263 61.0611 6.92278 61.9303 6.92278 61.9303C1.41502 57.1794 0.21127 51.6185 0 48.5812V46.4675C0.00982652 46.3687 0.0147398 46.3144 0.0147398 46.3144L0 46.3391V29.1231C1.45432 30.4763 2.81038 32.3381 3.7046 34.8963C3.7046 34.8963 3.0757 29.6811 0.0294795 25.5771C0.299709 25.7302 0.569938 25.8932 0.849994 26.071L3.92078 28.3823C5.8566 30.1009 7.82191 32.3924 9.52189 35.4494C9.52189 35.4494 8.87826 33.6469 7.5959 31.1775C11.5462 34.4716 13.8554 39.3756 13.8554 44.5661L13.8505 44.576ZM11.6248 50.7592C12.2733 38.6546 7.32075 35.889 7.32075 35.889C11.0597 43.5093 11.6248 50.7592 11.6248 50.7592Z" fill="#EE3831"/>
<path d="M47.0838 25.4536V53.2926C47.0838 60.982 40.8832 67.2146 33.2333 67.2146C33.2333 65.1651 33.2333 42.8524 33.2333 42.8524C33.2333 38.4718 35.287 34.3431 38.7705 31.7158L47.0788 25.4536H47.0838ZM44.6615 35.7654C41.2419 38.4619 37.2769 41.0399 34.9677 44.5463V46.0279C37.2228 42.6943 41.1387 40.5263 44.6615 38.1459V35.7704V35.7654Z" fill="#EE3831"/>
<path d="M32.1425 27.2266H31.5382C30.9339 27.2266 30.4426 26.7821 30.3492 26.1944C30.3001 25.8882 30.2313 25.587 30.1428 25.2907C30.7128 25.0437 31.1108 24.4906 31.1108 23.8338C31.1108 23.335 30.8798 22.8905 30.5113 22.5991C30.0004 22.1892 29.735 21.5472 29.735 20.8904V19.9915H29.2585V20.9743C29.2585 21.5818 29.0128 22.1793 28.5362 22.5547C28.0105 21.399 26.4432 20.1644 25.8437 19.7199C25.7651 19.6606 25.77 19.5322 25.8585 19.4878C25.9813 19.4285 26.0796 19.3248 26.1238 19.1915C26.2417 18.826 25.9715 18.4853 25.6227 18.4853H25.2836C25.1755 18.4853 25.1313 18.342 25.2247 18.2828C26.0943 17.7296 26.6692 16.7666 26.6692 15.6653C26.6692 14.6529 26.1828 13.7541 25.4261 13.1812C24.9938 12.8552 24.7186 12.3564 24.7186 11.8132V9.63031C24.7186 9.49697 24.8267 9.38832 24.9643 9.38832H25.3131C25.5047 9.38832 25.657 9.23522 25.657 9.04261C25.657 8.85001 25.5047 8.69691 25.3131 8.69691H24.9643C24.8316 8.69691 24.7235 8.58826 24.7235 8.45492V7.58078C24.7235 7.14618 24.4975 6.77085 24.1536 6.55849C23.962 6.43996 23.7949 6.17327 23.7949 5.95104V2.65204C23.7949 2.46437 23.9472 2.31621 24.129 2.31621C24.3157 2.31621 24.4631 2.46931 24.4631 2.65204V3.02737L25.8634 2.05447L24.4631 1.08156V1.45195C24.4631 1.63962 24.3108 1.78778 24.129 1.78778C23.9423 1.78778 23.7949 1.63468 23.7949 1.45195V0.666714C23.7949 0.518555 23.6721 0.39509 23.5247 0.39509C23.3773 0.39509 23.2545 0.518555 23.2545 0.666714V1.09143C22.5076 0.992663 21.4955 0.725977 21.2204 0C21.2204 0 21.2597 1.64456 22.6501 1.98533L22.8614 2.0594L22.6501 2.13348C21.2597 2.46931 21.2204 4.11881 21.2204 4.11881C21.4955 3.39283 22.5076 3.12121 23.2545 3.02737V5.96091C23.2545 6.18809 23.0874 6.44984 22.8958 6.56836C22.5519 6.78072 22.3259 7.15606 22.3259 7.59066V8.46479C22.3259 8.59814 22.2178 8.70679 22.0851 8.70679H21.7559C21.5643 8.70679 21.412 8.85988 21.412 9.05249C21.412 9.2451 21.5643 9.39819 21.7559 9.39819H22.0851C22.2178 9.39819 22.3259 9.50684 22.3259 9.64019V11.8231C22.3259 12.3663 22.0556 12.8651 21.6183 13.1911C20.8617 13.759 20.3753 14.6578 20.3753 15.6752C20.3753 16.7716 20.9501 17.7395 21.8198 18.2926C21.9131 18.3519 21.8689 18.4951 21.7608 18.4951H21.5643C21.3235 18.4951 21.0975 18.6482 21.0386 18.8803C20.9698 19.1421 21.0926 19.3841 21.299 19.4927C21.3874 19.5372 21.3874 19.6656 21.3088 19.7199C20.6996 20.1644 19.0831 21.4139 18.5623 22.5843C18.5623 22.5843 18.5623 22.5843 18.5574 22.5892C18.5574 22.5892 18.5574 22.5892 18.5525 22.5892C18.0808 22.1695 17.8057 21.5768 17.8057 20.9447V20.0014H17.3291V20.9002C17.3291 21.5571 17.0638 22.1991 16.5528 22.609C16.1892 22.9004 15.9534 23.3449 15.9534 23.8437C15.9534 24.5153 16.371 25.0832 16.9655 25.3154C16.877 25.6018 16.8083 25.8981 16.764 26.1994C16.6707 26.7871 16.1745 27.2315 15.575 27.2315H14.9707V28.2588H16.6805V67.2146L23.5689 70L30.5064 67.2146L30.4573 28.2588H32.1671V27.2315L32.1425 27.2266Z" fill="#EE3831"/>
<path d="M114.508 33.6416H114.543L128.379 44.7683V34.1453H135.242V59.2632H135.174L121.412 48.1414V58.5717H114.508V33.6416Z" fill="#EE3831"/>
<path d="M73.1437 45.9141L60.9342 33.6416V58.5668H67.405V49.9835L73.1437 55.7518L78.8823 49.9835V58.5668H85.358V33.6416L73.1437 45.9141Z" fill="#EE3831"/>
<path d="M112.543 46.319C112.543 53.322 106.898 58.9965 99.9307 58.9965C92.9637 58.9965 87.3184 53.322 87.3184 46.319C87.3184 39.3161 92.9637 33.6416 99.9307 33.6416C106.898 33.6416 112.543 39.3161 112.543 46.319ZM99.9307 40.6841C96.8353 40.6841 94.3247 43.2077 94.3247 46.319C94.3247 49.4304 96.8353 51.954 99.9307 51.954C103.026 51.954 105.537 49.4304 105.537 46.319C105.537 43.2077 103.026 40.6841 99.9307 40.6841Z" fill="#EE3831"/>
<path d="M147.26 58.9967C143.492 58.9967 139.826 57.362 137.208 54.5124L136.476 53.7124L141.099 49.4158L141.836 50.2257C143.379 51.9246 145.418 52.8975 147.437 52.8975C148.115 52.8876 151.515 52.7444 151.515 50.6356C151.515 49.5788 150.08 49.2627 147.034 48.8429C143.266 48.3194 137.576 47.5292 137.576 41.3362C137.576 36.8766 141.89 33.5134 147.604 33.5134C151.461 33.5134 154.62 34.7777 156.988 37.2717L157.75 38.0718L153.21 42.2795L152.473 41.5337C150.857 39.8892 149.334 39.183 147.393 39.183C145.005 39.183 143.934 40.1559 143.934 41.1238C143.934 42.1807 145.354 42.482 148.375 42.8721C152.159 43.361 157.873 44.1068 157.873 50.4233C157.873 55.9891 152.404 58.9918 147.26 58.9918V58.9967Z" fill="#EE3831"/>
</svg>
