<svg width="100" height="119" viewBox="0 0 100 119" fill="none" xmlns="http://www.w3.org/2000/svg">
<path fill-rule="evenodd" clip-rule="evenodd" d="M29.7986 22.7388L29.7653 45.4775C28.7359 46.0606 27.6843 46.6876 26.7766 47.2487C25.8579 47.8097 24.5185 48.6898 23.7879 49.2068L22.4596 50.1419L22.4043 23.7619L8.89971 23.7619L8.89971 35.8628L3.36507 35.8628L3.36507 73.7057C2.61236 75.6199 2.19172 76.83 1.94819 77.6111C1.6936 78.4031 1.37259 79.5362 1.21762 80.1413C1.06265 80.7463 0.819128 81.8904 0.664158 82.6714C0.509187 83.4635 0.298876 84.8166 0.199253 85.6967C0.0553519 86.8628 0 88.0949 0 90.317C0 92.5172 0.0553546 93.7273 0.188186 94.7724C0.298879 95.5645 0.487049 96.7746 0.608811 97.4676C0.730573 98.1607 1.00731 99.3818 1.20656 100.163C1.41687 100.955 1.81537 102.264 2.0921 103.078C2.3799 103.892 2.8116 105.036 3.05512 105.608C3.29865 106.18 3.81891 107.269 4.19526 108.028C4.57162 108.787 5.16936 109.877 5.52358 110.449C5.8778 111.021 6.51982 112.011 6.95152 112.649C7.38322 113.287 8.21341 114.398 8.80009 115.124C9.38676 115.85 10.4384 117.038 11.1468 117.764C11.8442 118.49 12.464 119.051 12.5083 118.996C12.5637 118.952 12.464 118.677 12.298 118.391C12.132 118.105 11.6781 117.258 11.2907 116.499C10.9033 115.74 10.3387 114.53 10.0288 113.804C9.71884 113.078 9.24286 111.846 8.97719 111.054C8.71153 110.273 8.31304 108.93 8.09165 108.083C7.87026 107.236 7.59353 106.026 7.47177 105.388C7.35001 104.75 7.1729 103.683 7.08435 103.023C6.98472 102.363 6.86297 100.977 6.78548 99.9428C6.71907 98.8647 6.68586 97.2806 6.73013 96.2025C6.77441 95.1794 6.87403 93.6613 6.96259 92.8472C7.06221 92.0332 7.22825 90.7681 7.36108 90.042C7.48284 89.316 7.80385 87.8308 8.06952 86.7418C8.33518 85.6527 8.8665 83.8705 9.24286 82.7815C9.60815 81.6924 10.217 80.1083 10.5822 79.2612C10.9475 78.4141 11.6338 76.951 12.1098 76.0159C12.5858 75.0809 13.416 73.5957 13.9473 72.7157C14.4676 71.8356 15.2756 70.5705 15.7406 69.9105C16.1944 69.2504 16.9803 68.1503 17.4784 67.4903C17.9876 66.8302 18.9396 65.6421 19.5927 64.8501C20.2568 64.069 21.6183 62.5839 22.6256 61.5608C23.633 60.5377 25.1162 59.1186 25.9132 58.4036C26.7213 57.6775 28.0939 56.5334 28.9573 55.8514C29.8318 55.1693 31.0604 54.2342 31.7025 53.7722C32.3445 53.3102 33.5842 52.4741 34.4698 51.891C35.3553 51.319 36.9161 50.3619 37.9566 49.7789C38.9861 49.1848 40.6575 48.2938 41.6648 47.7987C42.6721 47.3037 44.1333 46.6106 44.9303 46.2586C45.7162 45.9066 47.1663 45.3125 48.1404 44.9385C49.1145 44.5535 50.7306 43.9704 51.7379 43.6294C52.7452 43.2994 54.5384 42.7493 55.7228 42.4303C56.9072 42.1003 58.6894 41.6493 59.6746 41.4292C60.6708 41.2092 62.3423 40.8902 63.3828 40.7142C64.4344 40.5272 65.8955 40.3071 66.6261 40.2191C67.3567 40.1201 68.7957 39.9661 69.8362 39.8781C70.8656 39.7791 73.0573 39.6691 74.7067 39.6361C76.511 39.6031 78.5698 39.6251 79.9092 39.7021C81.1269 39.7681 82.9976 39.9221 84.0602 40.0431C85.1229 40.1641 86.7169 40.3842 87.6024 40.5272C88.4879 40.6812 90.0266 40.9782 91.0339 41.1872C92.0412 41.4072 93.8012 41.8473 94.9635 42.1773C96.1147 42.5073 97.6976 43.0024 98.4724 43.2774C99.2584 43.5524 99.9114 43.7504 99.9446 43.7064C99.9779 43.6514 100 35.8848 100 26.4351L100 9.24072L86.6062 9.24072L86.5508 21.8807L84.669 19.7905L75.7029 19.8015L74.3303 21.2867L74.3192 15.1812L66.3493 15.1812L66.3493 36.5229C63.737 36.5229 62.0545 36.5669 60.9254 36.6329C59.7963 36.6879 58.7115 36.7649 58.5123 36.7979L58.1581 36.8529L58.1581 24.2019L50.2435 24.2019C44.886 27.7002 43.3031 28.7122 43.2699 28.7122C43.2367 28.7122 43.2145 22.2547 43.2145 14.3561L43.2145 0L29.8207 0L29.7986 22.7388Z" fill="#B80F28"/>
</svg>
