<svg width="1920" height="3687" viewBox="0 0 1920 3687" fill="none" xmlns="http://www.w3.org/2000/svg">
<path d="M2553.54 -2523.06C2500.52 -2503.75 2407.16 -2467.71 2347.03 -2442.72C2286.91 -2417.73 2182.02 -2369.22 2114.04 -2335.57C2046.79 -2302.12 1955.07 -2254.47 1910.79 -2229.23C1867.24 -2204.19 1782.81 -2153 1723.58 -2116.2C1664.6 -2078.54 1557.12 -2005.19 1485.11 -1951.87C1413.11 -1898.55 1306.78 -1815.32 1248.7 -1765.85C1190.37 -1717.24 1110.46 -1646.89 1070.98 -1609.99C1031.5 -1573.09 944.911 -1486.97 879.396 -1418.75C813.881 -1350.53 716.416 -1240.99 662.623 -1176.01C608.83 -1111.03 528.966 -1009.15 484.953 -948.732C440.701 -889.175 368.861 -783.949 324.558 -716.029C280.493 -647.247 214.736 -539.993 178.014 -476.027C141.293 -412.06 61.7987 -251.839 0.52034 -119.85C-60.758 12.1384 -132.245 178.493 -157.552 249.505C-182.858 320.517 -220.368 432.941 -240.529 499.746C-261.423 566.754 -292.355 680.141 -310.591 751.052C-328.828 821.963 -352.655 929.672 -364.723 988.672C-376.058 1047.47 -393.496 1146.92 -402.65 1207.89C-412.537 1269.07 -425.613 1372.88 -431.872 1438.62C-438.863 1504.56 -446.863 1615.31 -450.463 1684.96C-454.064 1754.6 -456.732 1870.37 -456.687 1941.79C-456.641 2013.21 -453.023 2137.44 -447.424 2217.53C-442.558 2297.82 -431.153 2424.53 -421.857 2498.03C-412.561 2571.52 -392.841 2694.09 -379.166 2769.15C-363.584 2851.11 -331.275 2987.82 -297.891 3108.45C-267.131 3219.61 -225.315 3356.46 -205.181 3412.12C-185.047 3467.77 -152.648 3550.65 -133.672 3596.42C-114.696 3642.19 -85.857 3709.35 -68.7713 3745.44C-51.6856 3781.53 -15.572 3855.02 11.8882 3908.65C40.081 3962.07 86.6037 4047.53 116.279 4097.76C145.222 4148.2 207.759 4245.92 255.118 4314.45C301.744 4383.18 387.093 4497.79 445.168 4567.99C502.511 4638.39 589.173 4737.79 637.13 4788.53C685.819 4839.06 765.787 4917.12 815.244 4961.88C865.433 5006.43 949.099 5077.9 1000.77 5119.26C1053.17 5160.42 1145.39 5228.6 1205.6 5269.45C1265.57 5309.44 1316.08 5340.92 1317.57 5337.73C1319.05 5334.53 1283.96 5293.22 1239.88 5245.12C1196.05 5197.88 1112.56 5098.53 1054.5 5025.54C996.44 4952.55 910.614 4836.23 863.988 4767.5C818.094 4698.56 751.213 4593.69 715.984 4534.79C680.755 4475.89 621.201 4368.99 584.099 4297.62C546.997 4226.26 494.036 4117.53 466.866 4056.41C438.963 3995.48 390.45 3877.18 358.051 3794.3C323.745 3704.54 274.672 3558.56 236.927 3433.56C198.961 3304.92 161.558 3164.06 141.172 3070.44C123.409 2986.3 98.1356 2855.07 85.926 2779.6C72.9837 2704.33 55.9736 2577.31 47.4444 2498.03C38.1826 2418.96 27.2894 2288.39 23.156 2207.9C18.29 2127.61 14.5193 1988.58 15.0719 1899.37C14.892 1810.36 18.3958 1677.66 22.7464 1605.03C26.3645 1532.6 37.1428 1406.23 46.1795 1324.88C55.2163 1243.53 70.3387 1124.31 80.9755 1060.14C91.6124 995.973 110.806 888.619 125.123 820.647C138.708 752.879 164.751 641.773 182.731 572.788C199.979 504.006 230.383 397.26 249.044 336.436C268.438 275.408 304.703 167.04 330.01 96.0276C356.05 24.8126 403.356 -94.9605 435.512 -169.724C467.668 -244.487 523.017 -363.702 558.563 -434.765C594.348 -504.966 653.052 -614.906 690.012 -678.011C726.733 -741.978 788.554 -843.504 828.427 -904.632C868.301 -965.76 928.332 -1053.8 963.246 -1101.5C998.16 -1149.2 1063.05 -1233.94 1108.25 -1290.05C1153.46 -1346.16 1228.84 -1432.89 1275.24 -1484.69C1321.87 -1535.63 1397.94 -1614.2 1444.04 -1658.5C1489.91 -1703.66 1573.52 -1780.6 1629.41 -1829.46C1685.54 -1877.46 1787.46 -1959.47 1855.55 -2009.86C1923.4 -2061.1 2034.3 -2136.32 2100.87 -2177.93C2167.44 -2219.55 2261.65 -2275.3 2311.06 -2301.96C2360.71 -2327.76 2442.88 -2369.98 2494.47 -2394.47C2546.07 -2418.95 2644.58 -2461.98 2712.77 -2489.2C2800.02 -2524.48 2903.36 -2558.64 3060.14 -2602.03C3183.22 -2636.09 3326.05 -2670.05 3378.04 -2678.86C3430.26 -2686.82 3515.17 -2699.19 3567.87 -2705.42C3620.57 -2711.66 3705.71 -2720.38 3757.65 -2723.62C3809.6 -2726.86 3849.37 -2731.37 3845.48 -2734.01C3841.84 -2735.78 3780.9 -2736.54 3709.46 -2735.33C3638.26 -2733.25 3523.39 -2726.51 3453.38 -2720.12C3383.37 -2713.74 3270.65 -2699.24 3201.83 -2688.55C3133.02 -2677.85 2980.68 -2644.05 2863.71 -2613.53C2746.75 -2583.02 2606.56 -2542.37 2553.54 -2523.06Z" fill="#F9F2F1"/>
</svg>
