<svg width="1919" height="2293" viewBox="0 0 1919 2293" fill="none" xmlns="http://www.w3.org/2000/svg">
<path d="M1112.79 2293C960.213 2293 837.137 2262.51 743.559 2201.52C649.98 2140.54 581.831 2046.01 539.11 1917.95C498.424 1789.88 478.081 1626.24 478.081 1427.03C478.081 1229.84 500.458 1068.24 545.213 942.203C589.968 814.137 659.135 719.612 752.713 658.628C848.326 595.611 968.351 564.102 1112.79 564.102C1259.26 564.102 1393.52 598.66 1515.58 667.775C1637.64 736.891 1735.29 836.498 1808.52 966.597C1881.76 1094.66 1918.38 1248.14 1918.38 1427.03C1918.38 1605.91 1881.76 1760.41 1808.52 1890.51C1735.29 2018.57 1637.64 2118.18 1515.58 2189.33C1393.52 2258.44 1259.26 2293 1112.79 2293ZM-1 2262.51V0H688.632V817.186L658.118 1427.03L655.066 2036.87V2262.51H-1ZM948.007 1756.34C998.865 1756.34 1044.64 1744.14 1085.32 1719.75C1126.01 1695.36 1158.56 1658.77 1182.97 1609.98C1207.38 1559.16 1219.59 1498.17 1219.59 1427.03C1219.59 1353.85 1207.38 1293.88 1182.97 1247.12C1158.56 1198.34 1126.01 1161.75 1085.32 1137.35C1044.64 1112.96 998.865 1100.76 948.007 1100.76C897.15 1100.76 851.378 1112.96 810.691 1137.35C770.005 1161.75 737.456 1198.34 713.044 1247.12C688.632 1293.88 676.426 1353.85 676.426 1427.03C676.426 1498.17 688.632 1559.16 713.044 1609.98C737.456 1658.77 770.005 1695.36 810.691 1719.75C851.378 1744.14 897.15 1756.34 948.007 1756.34Z" fill="#FCF5F6"/>
</svg>
