<svg version="1.2" xmlns="http://www.w3.org/2000/svg" viewBox="0 0 57 105" width="57" height="105">
	<title>BLEGNY_LOGO_CMYK-ai</title>
	<style>
		.s0 { fill: #ffffff } 
	</style>
	<g id="Calque 1">
		<g id="&lt;Group&gt;">
			<path id="&lt;Path&gt;" class="s0" d="m15.6 2.2c0.5-0.3 0.3-1.2 0.9-1 0 0.3-0.2 0.7 0.4 0.7 0.4 0 0.2-0.7 0.9-0.7v1.9l1-0.7c-0.2 4.5 0.9 11.3-3.2 14.6l-1.2-0.2v-0.2c-1.1 0.7-1.5-0.7-1.7-1.4 0-2.4-1.3-5.2-0.7-7.6l-0.2-0.7c0 0.2 0.2 0 0.2-0.2-0.2-1.5 0-3.6 0.7-5h0.4c-0.4 0.5 0.2 0.7 0.2 1.2 1.1-0.2 0.4-1.2 1.1-1.7 0.6 0 0.8 0.5 1.2 1z"/>
			<path id="&lt;Path&gt;" class="s0" d="m7.5 70.7l0.8-0.8c0 1.4 1.7 1.6 1.2 3.1 1.7 3.6 3.1 6.7 5.6 10.2 4.3 3.7 8.6 6.4 13.9 7.6 3 0.6 6.5 0.6 9.1 1.7 1.2-0.9 2.5 0.6 4.1 0.1 3.5 0.5 7.1-1.4 10.3 0.1l1.2-0.7-0.2 0.1c0.1 0.9 1.1 0.5 1.8 0.7-0.4 0.5-1.1 0.3-1 0.8l1.5 0.3-0.2 0.2c-0.5-0.8-1 0.7-1.7-0.2-1 0.8-1.2 1.1-2.4 1.7 0.5 0.2 1.2 0.6 1.1-0.1 0 0.2 0.2 0.2 0.2 0.4 0.9-0.1 2.1-0.7 3 0.1-0.5 1.3-1.5 0-2.4 1.1 0.4 0.1 0.3 0.9 1 1.3 0.6-0.1-0.2-1.5 1-0.9l-0.4 0.3 0.7 0.4c-1.3 0.4-2.6 0.3-3.8 1-1.4-0.8-3.1 0.4-4.4 0.8 0.7 0.1 2.1 1.4 2.2 0.4l0.3 0.4c0.6-0.3 1.2-0.6 1.3-1.1l0.5 0.7c-0.2 0-0.4 0-0.4 0.2-0.2 0.3 0.1 0.5 0.3 0.5l-0.6 0.5-0.5-0.4c-1.6 0.7-3.1 0.7-4.8 0.7-0.8 0.8-2.6-0.1-3.2 0.4l0.4-0.7c-0.7 0-0.9-0.4-1.3 0.1l0.1 0.7c-0.8-1.1-1.2 1.1-1.9 0-0.6 0.6-1.6-0.7-1.9 0.5-1.6-0.7-4 0.3-6.1-0.8l-1.5 0.2c0-0.5-0.2-0.5-0.4-0.7-0.6 1.1-2.2-0.1-3 0-1.7 0.2-1.3-1.5-2.8-1.3l0.1 0.2c-1.4-1.2-3.7-0.5-5.1-1.7-1.9 0.3-1.9-3.1-3.9-2.1l-1.7-1.7c0.2 0 0.4-0.2 0.4-0.2 0-0.3-0.5-0.5-0.5-0.7l-0.3 1-1.3-2.2-0.2 0.3-1.1-0.4c-2.7-3.2-4.6-6.7-6.3-10.3 0.6-1-0.9-0.6-1-1.5-0.7-2.8-1.6-4.8-1.8-7.4l0.2 0.5c-0.1-0.7 0-1.9 0.2-2.7-0.9 0.4 0.3-1-0.3-0.9 0.7-0.6 2.2 0.7 2-1.2 1.3 1 0.7-1 1.9 0.2 1.1-0.1 1.9 0 2 1.2z"/>
		</g>
	</g>
</svg>