<svg width="53" height="10" viewBox="0 0 53 10" fill="none" xmlns="http://www.w3.org/2000/svg">
<path d="M10 5C10 7.76142 7.76142 10 5 10C2.23858 10 0 7.76142 0 5C0 2.23858 2.23858 0 5 0C7.76142 0 10 2.23858 10 5Z" fill="#18C2F2"/>
<path d="M31.5 5C31.5 7.76142 29.2614 10 26.5 10C23.7386 10 21.5 7.76142 21.5 5C21.5 2.23858 23.7386 0 26.5 0C29.2614 0 31.5 2.23858 31.5 5Z" fill="#18C2F2"/>
<path d="M53 5C53 7.76142 50.7614 10 48 10C45.2386 10 43 7.76142 43 5C43 2.23858 45.2386 0 48 0C50.7614 0 53 2.23858 53 5Z" fill="#18C2F2"/>
</svg>
