<svg width="1728" height="143" viewBox="0 0 1728 143" fill="none" xmlns="http://www.w3.org/2000/svg">
<mask id="mask0_110_32" style="mask-type:alpha" maskUnits="userSpaceOnUse" x="0" y="0" width="1728" height="143">
<path d="M1728 0H0V143H1728V0Z" fill="#D9D9D9"/>
</mask>
<g mask="url(#mask0_110_32)">
<path d="M857.262 0.370117C119.409 0.370117 -478.738 131.551 -478.738 293.37C-478.738 455.19 119.409 586.37 857.262 586.37C1595.11 586.37 2193.26 455.19 2193.26 293.37C2193.26 131.551 1595.11 0.370117 857.262 0.370117Z" fill="#CFDCD7"/>
<path d="M845.614 19.6006C108.378 49.7524 -482.994 227.634 -475.253 416.91C-467.512 606.186 136.411 735.181 873.647 705.03C1610.88 674.878 2202.26 496.996 2194.51 307.72C2186.77 118.444 1582.85 -10.5512 845.614 19.6006Z" fill="white"/>
</g>
</svg>
