<svg width="1728" height="156" viewBox="0 0 1728 156" fill="none" xmlns="http://www.w3.org/2000/svg">
<mask id="mask0_110_39" style="mask-type:alpha" maskUnits="userSpaceOnUse" x="0" y="-1" width="1728" height="157">
<path d="M0 156L1728 156L1728 -0.00012207L-1.3638e-05 2.89962e-05L0 156Z" fill="#D9D9D9"/>
</mask>
<g mask="url(#mask0_110_39)">
<rect x="-36" y="-25" width="1853" height="244" fill="white"/>
<path d="M866 19.0001C128.147 19.0002 -470 150.181 -470 312C-470 473.82 128.147 605 866 605C1603.85 605 2202 473.819 2202 312C2202 150.181 1603.85 19.0001 866 19.0001Z" fill="#CFDCD7"/>
<path d="M854.351 38.2306C117.115 68.3856 -474.257 246.27 -466.515 435.546C-458.773 624.821 145.151 753.814 882.387 723.659C1619.62 693.504 2210.99 515.62 2203.25 326.344C2195.51 137.068 1591.59 8.07552 854.351 38.2306Z" fill="#497E6E"/>
</g>
</svg>
