<svg width="111" height="88" viewBox="0 0 111 88" fill="none" xmlns="http://www.w3.org/2000/svg">
<path d="M108.505 12.94C103.35 12.2611 98.3712 11.4846 93.3688 10.9695C73.6988 8.95219 54.0131 10.2047 34.3236 10.6925C24.2213 10.9422 14.1112 10.8915 4.00497 10.95C2.21785 10.9617 1.56621 10.2203 1.85496 8.3903C2.1281 6.66951 2.51441 4.94482 3.0841 3.30598C3.2714 2.7675 4.15323 2.19391 4.77365 2.11977C22.3132 0.0204881 39.9191 -0.322889 57.5522 0.242903C71.4122 0.68383 85.2682 1.17939 99.1282 1.65543C102.238 1.76078 105.344 1.89736 108.454 1.991C109.367 2.01832 110.186 2.09245 110.218 3.26696C110.288 5.97105 110.577 8.69856 110.358 11.3831C109.788 18.278 109.008 25.1572 108.274 32.0365C106.917 44.7219 105.52 57.3995 104.162 70.085C103.756 73.8855 103.37 77.6861 103.093 81.4983C102.995 82.8133 102.433 83.2894 101.208 83.4298C91.5621 84.5263 81.9476 85.9661 72.2745 86.7075C57.642 87.8313 42.9938 87.2187 28.4237 85.5447C19.8783 84.5614 11.3915 83.0435 2.87728 81.7949C0.83263 81.4944 -0.0414185 80.3004 0.00150361 78.3299C0.32537 63.3033 0.575105 48.2727 1.03164 33.25C1.22284 26.9092 1.82765 20.5802 2.35052 14.255C2.40905 13.5644 3.16602 12.9322 3.59915 12.2728C3.87619 12.9752 4.43808 13.697 4.38345 14.3721C2.63535 35.5054 1.94859 56.6699 2.17881 77.8734C2.19442 79.2235 2.6822 79.6059 3.91914 79.8361C24.8144 83.742 45.8852 85.7671 67.1278 84.7604C77.7803 84.2571 88.382 82.708 99.0072 81.67C100.587 81.514 101.013 80.8311 101.181 79.2313C103.124 60.6187 105.18 42.0178 107.221 23.4169C107.596 20.0222 108.048 16.6391 108.505 12.94ZM107.763 3.95762C106.374 3.95762 105.094 3.99273 103.811 3.95371C93.6419 3.62595 83.4772 3.16161 73.3046 2.97041C58.0205 2.68556 42.7324 2.53728 27.4443 2.44754C24.0808 2.42803 20.7134 2.88847 16.866 3.16161C19.2072 4.88629 19.9564 6.62659 18.7194 8.95999C48.6439 8.60881 78.428 5.46379 108.138 10.8134C108.009 8.47224 107.896 6.42759 107.763 3.95371V3.95762ZM8.74201 3.94591C9.53412 4.78874 10.5565 5.41697 10.7945 6.2637C11.0169 7.0441 10.4042 8.06253 10.1779 8.89756H14.6535C13.9434 7.21579 13.2098 5.4833 12.4177 3.60644C12.2889 3.60644 11.9026 3.57522 11.5281 3.61424C10.5721 3.71179 9.62387 3.84055 8.74201 3.94981V3.94591Z" fill="black"/>
<path d="M67.8183 55.4562C65.9805 52.003 67.1082 48.3312 70.9361 46.7626C73.6207 45.6622 76.6408 45.2057 79.5556 44.913C80.8901 44.7803 82.4743 45.5061 83.7074 46.2436C86.6339 47.9878 87.063 50.9962 84.9872 53.712C84.7179 54.0632 84.4136 54.3832 84.0156 54.8475C87.4689 57.0444 86.7821 60.5288 86.7431 63.7363C87.0591 63.7831 87.184 63.8182 87.305 63.8143C88.101 63.7792 89.4277 63.4358 89.5994 63.7402C90.3681 65.1176 88.9711 65.4376 88.1283 65.8941C81.0774 69.7142 73.6597 70.4243 65.9532 68.3797C64.248 67.9271 63.4403 66.7252 63.3506 64.9849C63.1398 61.0556 64.7084 57.9535 67.8183 55.4601V55.4562ZM70.7448 50.2939C70.6044 50.1417 70.4639 49.9934 70.3234 49.8412C68.1188 52.6429 68.5168 53.872 71.9272 54.8865C75.556 55.9635 79.0015 55.4211 82.088 53.3648C83.0245 52.7404 83.9414 51.3123 83.9258 50.2627C83.9141 49.3652 82.724 48.1868 81.768 47.6522C79.0483 46.1421 75.4585 47.024 73.0509 49.3457C72.4969 49.8803 71.5291 49.9895 70.7487 50.2939H70.7448ZM78.8922 65.7888C78.7323 65.5781 78.5684 65.3634 78.4084 65.1527C77.2105 65.7302 76.0399 66.3663 74.8029 66.8462C74.4401 66.9867 73.7845 66.8033 73.4802 66.5262C73.2733 66.335 73.3202 65.6834 73.4685 65.3205C73.8158 64.4621 74.2879 63.6583 74.7093 62.831C74.5376 62.7218 74.362 62.6125 74.1903 62.5033C73.0822 63.9197 71.974 65.34 70.542 67.1701C73.1485 67.1701 75.0644 67.291 76.953 67.1076C77.6358 67.0413 78.2484 66.2531 78.8922 65.7927V65.7888ZM68.4075 66.7096C68.5987 65.2581 68.7705 63.9587 68.9383 62.6593C68.8095 62.6242 68.6807 62.593 68.5519 62.5579C67.8808 63.7519 67.2096 64.9498 66.4722 66.2648C67.1316 66.4131 67.7286 66.5496 68.4075 66.7057V66.7096Z" fill="black"/>
<path d="M61.3254 49.7671C61.5166 50.5827 62.0239 51.9406 62.1214 53.3297C62.5233 59.0227 58.7891 62.7764 52.2025 63.4359C43.8991 64.2709 38.6157 58.1057 40.676 49.9895C40.7696 49.6189 40.9023 49.2052 40.8282 48.8541C39.9034 44.5814 41.3393 41.0969 44.2073 38.3108C43.8717 36.5276 43.5713 34.9122 43.3177 33.5582C42.7519 33.6518 42.0495 33.7728 41.3471 33.8899C41.4017 33.1212 41.234 32.2432 41.5461 31.5994C44.8706 24.7748 54.0521 24.0061 58.5589 30.1322C60.6894 33.0275 60.6582 34.8302 58.274 37.827C58.7696 38.264 59.2495 38.744 59.7841 39.1498C62.2151 40.9876 63.5106 43.559 63.6666 46.4621C63.7213 47.4376 62.2697 48.499 61.3176 49.7671H61.3254ZM60.026 54.2115C60.0846 49.6267 55.4217 44.835 50.8641 44.7921C46.4041 44.753 42.2953 48.8385 42.2563 53.357C42.2212 57.8092 45.9008 61.6214 50.4544 61.3795C56.6469 61.0517 59.8934 58.8159 60.0221 54.2115H60.026ZM51.0241 38.2523C51.1061 38.4123 51.188 38.5723 51.27 38.7323C53.1468 37.8387 55.1212 37.1012 56.842 35.9735C57.4859 35.5521 58.0048 34.0694 57.7668 33.3319C56.9006 30.6278 54.8403 29.0358 52.0894 28.2905C49.8769 27.6935 48.3357 28.2007 46.9895 30.2454C45.8306 32.0052 45.0423 33.8899 45.8618 35.6341C46.3963 36.7734 48.203 37.347 49.4945 38.0728C49.9081 38.303 50.5052 38.2016 51.0202 38.2523H51.0241ZM42.8767 45.9393C43.6064 44.8506 44.3166 43.8361 44.9799 42.7903C45.6901 41.6705 46.3534 40.5194 46.8841 39.6336C45.6433 38.9547 42.9001 42.2167 42.8767 45.9393Z" fill="black"/>
<path d="M33.7227 55.312C35.8766 56.5997 36.7546 58.7107 37.293 61.0285C37.3086 61.0909 37.3125 61.1572 37.3359 61.2197C37.8003 62.519 39.0373 64.5012 38.5963 64.9968C37.0824 66.702 35.1665 68.5359 33.0672 69.1329C29.5827 70.1201 25.8368 70.2099 22.1962 70.6157C21.3729 70.7054 20.4988 70.6352 19.6833 70.4674C18.419 70.2099 16.1442 71.1542 16.8348 68.2979C14.5443 64.7978 16.4719 61.7269 17.9196 58.6755C18.3683 57.7313 19.3555 57.0445 20.1086 56.2329C17.4318 52.4557 18.4268 49.3224 22.7347 47.4222C25.0056 46.4193 27.1712 45.1902 29.7427 45.9823C30.8976 46.3374 32.0878 46.79 33.0555 47.4846C36.0093 49.5917 36.181 51.9602 33.7188 55.3198L33.7227 55.312ZM20.9358 53.0957C20.651 53.2752 20.3622 53.4586 20.0774 53.6381C20.6744 53.8995 21.287 54.1258 21.8606 54.4302C24.0848 55.6008 30.4099 54.953 32.3258 53.3415C33.6212 52.2528 33.6954 51.1056 32.5599 49.8375C30.5933 47.6407 27.8307 47.4143 25.5753 49.2483C25.3919 49.4005 25.0876 49.3966 24.8847 49.5292C24.1433 50.0248 23.3629 50.4852 22.7073 51.0822C22.0518 51.6792 21.525 52.4206 20.9397 53.0957H20.9358ZM17.2874 67.658C17.4162 67.8609 17.545 68.0599 17.6699 68.2628H29.0637C28.2287 67.2209 27.6863 66.066 27.2727 66.1089C26.0397 66.2415 24.5374 65.227 23.5112 66.8112C23.3161 67.1117 22.4303 67.2327 22.0128 67.0649C21.0412 66.6747 20.1632 66.0542 19.2462 65.5275C19.4296 65.2856 19.6091 65.0475 19.7925 64.8056C18.9575 65.7538 18.1225 66.7059 17.2913 67.6541L17.2874 67.658ZM31.5649 59.5223C33.1998 59.6198 33.6134 60.4315 33.2427 61.9727C32.8603 63.5531 32.7823 65.2114 32.5755 66.8346C32.8682 66.9478 33.1608 67.0649 33.4574 67.178C34.2729 66.0347 35.8415 64.8173 35.7439 63.756C35.5645 61.8011 34.4446 59.9164 33.6252 58.0434C33.4613 57.6727 32.8642 57.4971 32.4077 57.185C32.1034 58.0278 31.8654 58.6912 31.5727 59.5145L31.5649 59.5223Z" fill="black"/>
<path d="M78.3812 34.6351C74.05 34.3191 70.1207 33.4606 66.8781 30.3819C66.445 29.9683 65.2861 30.2922 64.4666 30.3234C63.6706 30.3546 62.8746 30.4483 62.0786 30.5107C62.0786 29.6523 61.9967 28.7821 62.0981 27.9315C62.1723 27.3032 62.4025 26.6594 62.7029 26.0975C63.7682 24.1036 64.4472 22.0824 64.6423 19.749C64.8647 17.0956 66.6869 15.1368 69.0476 13.9506C77.3081 9.80663 86.4584 10.8719 91.8822 20.065C95.0818 25.4888 93.2128 30.7916 87.2544 32.809C84.4176 33.7728 81.3467 34.0459 78.3812 34.6312V34.6351ZM64.494 28.0173C66.5464 26.8116 67.5999 27.8768 68.8993 29.1372C70.0504 30.2493 71.6736 31.1155 73.2344 31.5174C77.6515 32.649 82.1193 32.3212 86.4193 30.8658C91.2813 29.2191 92.6899 25.1845 89.9194 20.8766C85.0536 13.3184 78.0027 12.1752 70.3197 15.6987C68.3608 16.5961 66.6401 18.2506 66.6752 20.385C66.7181 22.933 65.766 24.9347 64.6813 27.0184C64.5759 27.2174 64.5915 27.4788 64.4979 28.0173H64.494Z" fill="black"/>
<path d="M25.7978 8.26922C23.4566 8.21459 21.5797 6.74744 21.7475 4.85106C21.9114 2.99761 23.6673 3.27465 24.9198 3.22392C26.9372 3.14198 28.4238 4.57792 28.338 6.32212C28.2522 8.07412 27.0854 8.36677 25.7978 8.27312V8.26922Z" fill="black"/>
<path d="M102.402 6.90365C101.547 5.11653 101.364 4.06688 104.638 4.84729C106.487 5.28431 106.643 4.4922 106.351 6.48223C106.3 6.83341 106.675 7.23141 106.733 7.62552C106.803 8.09766 106.889 8.66345 106.69 9.04195C106.573 9.26826 105.59 9.3463 105.559 9.27217C104.997 7.83623 102.3 9.89649 102.402 6.90755V6.90365Z" fill="black"/>
<path d="M47.3954 52.9746C47.3954 52.8693 47.3486 52.2215 47.4032 51.5816C47.5515 49.8374 48.7299 49.0492 50.3141 49.6852C52.4056 50.5281 54.4814 51.4099 56.5261 52.3542C56.9826 52.5649 57.5718 53.0956 57.5913 53.4975C57.6069 53.915 57.088 54.5081 56.6471 54.7578C54.6375 55.9128 52.5929 57.0093 50.5248 58.055C48.843 58.9096 47.9534 58.4257 47.7231 56.5957C47.5944 55.5734 47.5359 54.5393 47.3993 52.9707L47.3954 52.9746ZM54.0834 53.6887C52.4407 52.9629 51.1296 52.3815 49.5532 51.6831C49.6586 53.2204 49.7444 54.4418 49.8498 55.9401C51.3364 55.1519 52.507 54.5276 54.0873 53.6887H54.0834Z" fill="black"/>
<path d="M71.7947 21.1617C71.6269 20.6076 71.3147 20.0418 71.3459 19.4955C71.3693 19.1053 71.8142 18.4459 72.1302 18.4068C75.9035 17.9386 79.6845 17.5367 83.4695 17.2206C83.8051 17.1933 84.1991 17.8957 84.5659 18.2625C84.2265 18.5824 83.9104 19.1443 83.5436 19.1794C79.8835 19.5423 76.2156 19.8155 72.5516 20.112C72.298 20.4632 72.0483 20.8105 71.7947 21.1617Z" fill="black"/>
<path d="M75.7433 25.6918C77.8934 26.1171 80.059 26.4683 82.1778 27.0185C82.6889 27.1511 83.0362 27.9315 83.4576 28.4154C82.8177 28.6222 82.1543 29.0592 81.5417 29.0007C79.2395 28.7861 76.9413 28.4505 74.6586 28.0642C73.9991 27.9549 73.3904 27.5296 72.7583 27.2526C73.3514 26.8312 73.9133 26.3473 74.5532 26.0078C74.8654 25.84 75.3141 25.9337 75.7043 25.9103C75.7199 25.84 75.7355 25.7659 75.7473 25.6957L75.7433 25.6918Z" fill="black"/>
<path d="M76.6918 23.4754C75.4665 23.4754 74.2296 23.573 73.0199 23.4325C72.5205 23.374 72.0796 22.8199 71.6113 22.4882C72.0445 22.1253 72.4659 21.4659 72.9107 21.4464C75.4236 21.3449 77.9404 21.3567 80.4532 21.4464C80.8591 21.462 81.2415 22.059 81.6356 22.3868C81.2142 22.7497 80.82 23.3701 80.3596 23.4247C79.1539 23.573 77.9131 23.4754 76.6878 23.4754H76.6918Z" fill="black"/>
</svg>
