<svg width="74" height="92" viewBox="0 0 74 92" fill="none" xmlns="http://www.w3.org/2000/svg">
<path d="M5.23194 10.0716C4.38685 9.80027 3.61348 9.5321 2.82764 9.30757C1.89835 9.04251 1.14369 8.59344 1.31833 7.49576C1.49296 6.38872 2.36611 6.23283 3.32347 6.24218C9.07071 6.30455 14.818 6.35441 20.5652 6.40119C22.4238 6.41678 24.2792 6.40119 26.2626 6.40119C26.5494 4.77649 26.7864 3.20481 27.1076 1.65184C27.4881 -0.194261 28.486 -0.471803 29.9049 0.713196C30.3134 1.0531 31.0025 1.16849 31.5701 1.19032C40.1582 1.49593 48.7495 1.82648 57.3407 2.00735C59.7512 2.05724 60.5589 3.27965 59.2398 5.19124C59.0153 5.51555 58.9342 5.93656 58.6504 6.6538C61.9965 6.6538 65.1243 6.6538 68.2521 6.6538C69.2874 6.6538 70.3227 6.6725 71.358 6.6881C73.6781 6.72552 73.8964 6.94068 73.8652 9.33251C73.7124 22.0681 73.5471 34.8038 73.3975 47.5394C73.254 59.7573 73.1168 71.9753 72.9952 84.1964C72.9578 87.9198 72.3403 88.5091 68.6481 88.9301C51.4344 90.8885 34.1584 91.3375 16.8543 91.0288C11.8866 90.9415 6.92212 90.6422 1.9576 90.4207C0.320433 90.3459 -0.228409 89.7565 0.0834326 88.1537C1.25284 82.1694 2.36611 76.1696 3.74445 70.2352C5.7496 61.6003 5.74336 52.9124 5.1072 44.1434C4.58643 36.9711 4.1405 29.7862 4.02823 22.5983C3.9721 18.8499 4.71116 15.0922 5.09161 11.3377C5.13215 10.9354 5.17581 10.5362 5.22258 10.0716H5.23194ZM35.808 81.9418C34.6979 81.7173 33.7623 81.6455 32.9173 81.3274C31.6481 80.8472 31.093 79.7994 31.3643 78.4616C31.6231 77.1768 32.5898 76.7527 33.8029 76.787C34.2145 76.7995 34.6261 76.8587 35.0347 76.9242C37.782 77.367 40.5293 77.8161 43.4575 78.2901C43.4575 76.8774 43.4513 75.5396 43.4575 74.1987C43.4638 73.1697 43.7538 72.2528 44.9731 72.2809C46.2048 72.309 46.3982 73.2102 46.3483 74.2673C46.2859 75.6114 46.2391 76.9617 46.3202 78.3026C46.4138 79.8431 47.0842 80.2266 48.5717 79.8431C51.6215 79.051 54.6495 78.0905 57.7461 77.5822C60.534 77.1269 63.406 77.1082 66.2407 77.0801C66.724 77.0739 67.2167 77.9907 67.7063 78.4803C67.1918 78.9418 66.7303 79.5032 66.1409 79.8275C65.7854 80.0239 65.2303 79.8493 64.7625 79.8399C59.5236 79.762 54.5341 81.0187 49.5197 82.5655C49.869 84.4958 49.9345 86.2764 48.1383 87.6453C55.2108 87.1901 62.1618 86.582 69.1096 85.9115C69.4495 85.8803 69.8799 85.3408 70.0077 84.9541C70.1761 84.4334 70.1044 83.8284 70.1106 83.2577C70.3851 59.1773 70.6595 35.1 70.9245 11.0196C70.9308 10.5799 70.8715 10.1371 70.8435 9.65684H58.2201C58.1702 12.9187 56.6495 14.5694 53.6579 14.6089C45.5281 14.7087 37.3984 14.8334 29.2687 14.9145C26.6804 14.9394 25.748 13.9322 25.7698 11.3127C25.7761 10.6984 25.7698 10.0841 25.7698 9.35748H8.21627C8.10089 10.346 7.99174 11.3127 7.87636 12.2763C7.61441 14.4311 7.29633 16.5828 7.0874 18.7439C6.32027 26.6803 7.43043 34.5605 7.81087 42.4657C8.12271 48.9676 8.44391 55.5256 7.92314 61.9901C7.47408 67.5658 5.84939 73.0449 4.73923 78.5676C4.14361 81.527 3.54176 84.4833 2.91496 87.558C17.4842 88.4499 31.7323 88.4967 45.9398 87.795C45.1851 86.5695 44.5022 85.4625 43.7912 84.3024C43.0365 84.5207 42.2039 84.7951 41.3526 85.0009C39.3942 85.4749 37.4421 86.0269 35.4556 86.3169C34.7415 86.4198 33.9339 85.8678 33.1667 85.6153C33.4474 84.9136 33.6189 84.134 34.0368 83.529C34.4328 82.9553 35.0877 82.5623 35.8018 81.9355L35.808 81.9418ZM28.882 9.47598V11.7992H55.1453V9.47598H28.882ZM55.9811 4.90749C47.1934 4.6206 38.44 4.33682 29.593 4.0468C29.4714 4.8919 29.3716 5.58106 29.2656 6.33571C29.6523 6.38561 29.9017 6.44485 30.1512 6.44485C38.3121 6.48227 46.4761 6.50099 54.637 6.56959C55.8252 6.57895 55.9686 5.93657 55.9811 4.90437V4.90749Z" fill="black"/>
<path d="M20.5277 36.4564C18.7689 36.4564 17.007 36.444 15.2482 36.4596C13.979 36.472 13.321 35.917 13.3241 34.601C13.3304 31.1333 13.3179 27.6625 13.3054 24.1948C13.3023 23.2032 13.7264 22.6325 14.7649 22.5857C15.058 22.5732 15.5008 22.5733 15.6099 22.4017C16.7014 20.6773 18.4446 20.8644 20.0724 20.9143C22.5017 20.9891 24.9309 21.1575 27.3446 21.4226C27.9526 21.488 28.5077 22.0587 29.0846 22.4017C29.4027 22.5889 29.7613 22.7385 30.0202 22.988C30.4006 23.3529 30.9806 23.7988 30.9775 24.2042C30.9713 24.7063 30.5222 25.5732 30.148 25.6418C27.5628 26.1064 27.4818 27.8839 27.6096 29.9234C27.7063 31.4701 27.6034 33.0293 27.6502 34.5823C27.6876 35.8889 27.1044 36.5063 25.8103 36.5001C24.0515 36.4939 22.2896 36.5001 20.5308 36.5001C20.5308 36.4876 20.5308 36.4752 20.5308 36.4658L20.5277 36.4564ZM24.6814 29.7487C24.5629 29.7019 24.4444 29.6552 24.3259 29.6084C23.8363 30.441 23.3686 31.2861 22.8509 32.1C22.1836 33.1509 20.9643 33.2383 20.3344 32.1873C19.5111 30.8184 18.7471 29.3933 18.1826 27.9089C18.0049 27.4411 18.3978 26.3746 18.8188 26.1688C19.2585 25.9505 20.1472 26.2967 20.6493 26.6584C21.089 26.9765 21.2605 27.6625 21.7033 28.4577C22.4892 26.6584 24.6253 26.1626 24.9465 23.9766C21.8593 23.883 18.9747 23.4402 16.3209 24.831V33.4628H24.6783V29.7456L24.6814 29.7487Z" fill="black"/>
<path d="M28.0526 46.1549C30.1887 44.8265 32.2001 43.5853 34.199 42.3317C35.0721 41.7829 36.0014 41.2153 36.728 42.4066C37.4577 43.604 36.6563 44.2745 35.6771 44.867C33.6002 46.1206 31.5795 47.474 29.4808 48.6933C28.6731 49.1642 28.4673 49.6849 28.5952 50.5674C29.2532 55.1047 28.9694 55.4353 24.3978 55.2638C21.6099 55.1609 18.8283 54.9114 16.0404 54.7898C14.5218 54.7243 13.948 54.0071 14.0322 52.5165C14.1663 50.0903 14.2068 47.6611 14.2754 45.2318C14.3347 43.0988 15.7442 41.4274 17.8897 41.3806C20.3594 41.3276 22.8386 41.5022 25.3084 41.6924C26.746 41.8016 27.7127 42.525 27.6877 44.1778C27.6784 44.7672 27.8998 45.3597 28.0588 46.1549H28.0526ZM25.9476 51.478C25.8291 51.3595 25.7075 51.2442 25.589 51.1257C25.1992 51.2317 24.8125 51.3564 24.4165 51.4375C21.532 52.03 18.9374 49.3138 19.6484 46.4449C19.8761 45.5219 20.2815 44.7235 21.4104 44.92C22.5049 45.1133 22.7669 45.8867 22.5236 46.9064C22.3053 47.8201 22.6702 48.5779 23.5901 48.5498C24.1452 48.5311 25.1712 47.7952 25.1306 47.4989C24.9872 46.448 25.6233 44.7766 24.0891 44.4959C22.1837 44.1497 20.1879 44.2683 18.2327 44.2745C17.9021 44.2745 17.294 44.7111 17.2847 44.9637C17.2098 47.2619 17.241 49.5633 17.241 51.9957C19.848 52.1236 22.4769 52.2826 25.1057 52.3418C25.3801 52.3481 25.6701 51.7805 25.9539 51.478H25.9476Z" fill="black"/>
<path d="M21.1233 71.676C19.7793 71.676 18.4321 71.6916 17.0881 71.6729C15.7721 71.6541 15.0549 71.0648 15.2077 69.6428C15.5195 66.7676 15.1578 63.9672 14.188 61.2511C13.7857 60.1253 14.2535 59.5391 15.2669 59.09C17.9956 57.877 20.8645 58.6846 23.6555 58.4165C24.5442 58.3323 25.4392 58.1483 26.2906 57.8739C27.566 57.4622 28.8477 58.5007 28.7946 60.0131C28.698 62.698 28.5732 65.383 28.4672 68.0679C28.3674 70.6219 27.2947 71.6822 24.6908 71.7446C23.5027 71.7726 22.3115 71.7508 21.1233 71.7508C21.1233 71.7259 21.1233 71.704 21.1233 71.6791V71.676ZM25.4299 66.5462C23.852 67.1418 22.4175 67.7748 20.9238 68.1864C20.4747 68.3112 19.6234 67.9713 19.3833 67.5815C19.1431 67.1886 19.2991 66.4059 19.5298 65.91C19.7232 65.489 20.2689 65.2271 20.6525 64.8965C19.5236 63.1253 19.6702 62.698 21.9435 61.4912H17.5465C17.8584 63.9392 18.1546 66.2718 18.4633 68.6823H25.433V66.5462H25.4299Z" fill="black"/>
<path d="M31.8664 51.6868C31.5172 51.3189 30.7344 50.8667 30.6003 50.2679C30.3696 49.2451 31.1305 48.6744 32.1564 48.5965C35.253 48.3564 38.3496 48.163 41.4431 47.8886C46.4419 47.4458 51.4376 46.978 56.4271 46.4635C57.5092 46.3512 58.3636 46.5165 58.5351 47.6828C58.6973 48.7992 57.8709 49.2482 56.9135 49.3418C48.7246 50.1214 40.5356 50.8792 31.8633 51.69L31.8664 51.6868Z" fill="black"/>
<path d="M44.867 29.8331C48.8492 29.8331 52.8314 29.7988 56.8105 29.8674C57.4435 29.8798 58.2949 30.1823 58.6504 30.6501C59.4331 31.6885 58.5069 32.7831 56.9072 32.7613C50.9603 32.6739 45.0135 32.5742 39.0667 32.4713C36.9462 32.4338 34.8256 32.3621 32.7082 32.3403C31.6792 32.3309 30.9619 31.991 30.9713 30.8528C30.9806 29.674 31.7696 29.4526 32.7675 29.4589C36.7996 29.4776 40.8348 29.4651 44.867 29.4651V29.8331Z" fill="black"/>
<path d="M32.1034 66.1314C31.8727 65.8788 31.1648 65.4453 31.0057 64.8591C30.7032 63.7458 31.5671 63.2811 32.5306 63.1751C35.8237 62.8165 39.123 62.5015 42.4191 62.171C46.4357 61.7687 50.4553 61.382 54.4718 60.9642C55.5009 60.8581 56.4177 60.9548 56.6017 62.1647C56.7919 63.4152 55.8845 63.777 54.8835 63.8767C47.4679 64.622 40.0491 65.3455 32.1065 66.1282L32.1034 66.1314Z" fill="black"/>
</svg>
