<svg width="39" height="91" viewBox="0 0 39 91" fill="none" xmlns="http://www.w3.org/2000/svg">
<path d="M16.6642 29.3939C16.7693 27.4899 16.9286 25.5889 16.9413 23.6848C16.9413 23.2859 16.4827 22.6035 16.1228 22.5224C10.3576 21.2105 8.54529 15.3704 10.3099 10.5339C11.4852 7.31473 13.5619 4.6565 16.161 2.38157C16.3903 2.17901 16.4317 1.78324 16.6388 1.54016C17.0719 1.02909 17.4701 0.343493 18.0402 0.119117C18.8716 -0.204982 19.6328 0.144047 20.1297 1.02285C21.993 4.32617 23.9614 7.57338 25.7929 10.8923C26.9873 13.0612 27.6944 15.3673 27.1848 17.9009C26.586 20.8895 24.7896 22.6907 21.7255 23.0927C20.8432 23.208 20.5278 23.5571 20.531 24.3611C20.5406 26.4771 20.5342 28.593 20.5342 30.8337C20.8049 30.5376 21.1266 30.1948 21.4356 29.8489C24.8596 26.0127 29.0736 23.3607 34.0456 21.868C36.3103 21.1886 37.1957 21.6779 37.2722 23.9622C37.3709 26.8354 37.527 29.771 37.0429 32.5788C36.4377 36.0754 34.2336 38.7585 31.0548 40.4787C32.8894 40.4787 34.74 40.432 36.5842 40.4912C38.6769 40.5566 39.2725 41.2173 38.8871 43.2336C38.0589 47.5372 36.3867 51.4482 32.6378 54.7858C34.1507 54.7858 35.3101 54.7422 36.4632 54.7952C38.7406 54.898 39.2979 55.5306 38.8648 57.7432C38.2341 60.9749 37.0556 64.0102 35.0075 66.6559C32.1059 70.4049 28.8857 71.5423 22.6619 70.8786C23.0345 75.1074 23.3435 79.2646 23.7958 83.4031C23.971 84.9831 24.4711 86.5319 24.8437 88.0932C25.1145 89.24 25.4362 90.3993 23.834 90.8761C22.5281 91.2656 21.6777 90.7608 21.3974 89.0218C20.6425 84.338 19.9481 79.6386 19.413 74.9267C19.1741 72.8044 19.3716 70.6355 19.3716 68.4883C19.2347 68.4727 19.1009 68.454 18.9639 68.4385C18.6263 68.8093 18.3046 69.1957 17.951 69.5541C15.3042 72.2342 11.2303 72.8356 7.5706 71.0281C3.26746 68.9028 1.36911 65.1383 0.486819 60.7536C0.222451 59.4416 0.13648 58.0891 0.0377397 56.7491C-0.121518 54.5957 0.518681 54.0192 2.68777 54.256C3.10503 54.3028 3.51908 54.3558 3.66879 54.3713C2.69413 52.059 1.51564 49.7311 0.741647 47.2817C0.203355 45.5833 0.149195 43.7228 0.0122336 41.9216C-0.105617 40.3946 0.626981 39.7589 2.2546 39.9022C3.71658 40.03 5.16582 40.2762 6.74247 40.4881C6.5864 40.2699 6.52906 40.1141 6.41758 40.0456C2.36606 37.5681 0.700236 33.7942 0.499572 29.3223C0.413572 27.3714 0.630157 25.3988 0.811711 23.4449C0.955043 21.8742 1.85647 21.3226 3.46816 21.7402C8.01338 22.9244 11.9247 25.1994 15.2659 28.4216C15.6354 28.7769 15.9189 29.2194 16.2406 29.6183C16.3808 29.5435 16.5209 29.4687 16.661 29.3971L16.6642 29.3939ZM18.467 5.23302C18.2759 5.17692 18.0848 5.12083 17.8937 5.06162C16.5241 7.17761 14.8551 9.16271 13.8518 11.4314C12.0553 15.492 13.9123 18.5709 18.3269 19.4248C19.1518 19.5837 19.9991 19.6554 20.84 19.6772C22.4071 19.7208 23.5187 18.8514 23.5697 17.4366C23.6238 15.9532 23.3945 14.3171 22.7702 12.9802C21.5248 10.3126 19.9227 7.80399 18.467 5.2299V5.23302ZM4.21029 25.6201C3.77392 28.8829 3.90451 31.8839 5.68183 34.4767C6.51634 35.6983 7.85411 36.7454 9.19506 37.4403C11.0807 38.4126 13.6383 37.6429 14.6449 35.9351C15.0462 35.2558 15.2851 33.975 14.9028 33.4452C12.2878 29.7991 8.73002 27.2811 4.21029 25.6201ZM35.0585 43.9285C30.5611 44.0158 26.5382 45.0629 22.8434 47.263C21.3687 48.1418 20.8846 49.1733 21.7573 50.6037C22.388 51.6352 23.42 52.6885 24.5252 53.1373C26.9332 54.1189 29.08 53.0625 30.921 51.5199C33.2239 49.5878 34.259 46.942 35.0617 43.9285H35.0585ZM33.9405 25.5982C29.6023 27.1876 26.2739 29.5996 23.5155 32.8593C22.4803 34.0809 22.6205 35.1872 23.5919 36.1408C24.2991 36.8326 25.2864 37.4497 26.2484 37.6553C28.9303 38.2287 30.8382 36.842 32.2524 34.7977C34.1253 32.0833 34.259 29.02 33.9405 25.6014V25.5982ZM3.66245 43.567C3.79941 44.4988 3.85353 45.1719 3.99687 45.8232C4.72627 49.1047 6.00989 52.0528 9.29378 53.6702C11.7973 54.9042 14.5174 54.2779 15.8743 52.1556C16.4827 51.2083 16.9222 50.0708 15.9253 49.1795C12.4981 46.1131 8.45929 44.2713 3.65926 43.567H3.66245ZM3.4299 57.8461C4.02871 59.9278 4.40776 61.7446 5.07983 63.4523C5.94619 65.6462 7.51646 67.3072 9.80659 68.1985C12.2114 69.1334 14.6863 68.4322 15.9125 66.4097C16.5623 65.3377 16.8649 64.2221 15.6609 63.2186C12.2432 60.3796 8.35096 58.5784 3.4299 57.8461ZM35.0521 58.2574C31.386 58.3073 28.0384 59.024 24.8628 60.5074C23.0027 61.3758 22.1862 62.7844 22.4135 64.7331C22.6492 66.7525 23.5505 67.6251 25.6527 67.7685C27.9174 67.9212 29.7648 66.98 31.3255 65.4811C33.3481 63.5365 34.3323 61.0621 35.0521 58.2605V58.2574ZM20.1361 38.1508C20.2348 40.2325 20.3367 42.3143 20.4386 44.4489C22.7765 43.3987 24.917 42.4358 27.2421 41.3918C24.4296 41.1269 22.114 40.1422 20.1361 38.1508ZM10.4946 41.638C12.3993 42.6664 14.5302 43.8163 16.6037 44.9351V39.7059C14.4538 40.3852 12.3961 41.0366 10.4946 41.638ZM13.9855 57.6747C15.3679 58.6189 16.7184 59.5413 18.2918 60.6196C18.0561 58.8246 17.8587 57.3194 17.6548 55.7768C16.3362 56.4593 15.1831 57.0545 13.9823 57.6747H13.9855ZM24.3214 56.8738C23.1747 56.4344 22.337 56.1134 21.3114 55.7207C21.4547 56.6525 21.5694 57.3693 21.6968 58.2044C22.6237 57.7339 23.3499 57.3661 24.3214 56.8738Z" fill="black"/>
</svg>
