<svg width="81" height="92" viewBox="0 0 81 92" fill="none" xmlns="http://www.w3.org/2000/svg">
<path d="M77.0156 18.0042C70.9253 17.8171 65.2872 17.63 59.6522 17.4679C41.2192 16.944 22.7894 16.4326 4.35642 15.918C4.20049 15.9149 4.04458 15.8993 3.89177 15.9087C2.82839 15.9586 1.95522 15.653 2.00512 14.4212C2.05813 13.1613 3.02485 13.0428 4.03833 13.099C4.86471 13.1426 5.6942 13.1551 6.5237 13.1801C14.7033 13.4233 22.8829 13.6665 31.0625 13.9066C31.3151 13.9129 31.5677 13.9066 31.9357 13.9066C31.9357 13.0241 31.9295 12.2227 31.9357 11.4181C31.9638 8.26231 31.9794 5.1096 32.0324 1.95376C32.0542 0.572298 32.6904 -0.0357971 34.1872 0.00162389C39.3076 0.129479 44.4343 0.148173 49.5579 0.179357C51.1171 0.188712 51.5755 0.647143 51.3697 2.26872C50.8707 6.21976 50.3468 10.1677 49.8074 14.3183C50.297 14.3588 50.8364 14.4274 51.3759 14.443C59.9703 14.6987 68.5646 14.9482 77.159 15.1945C79.1641 15.2507 79.5165 15.547 79.5383 17.5583C79.6631 29.7264 79.7535 41.8913 79.8907 54.0594C79.9001 54.7797 80.2525 55.4908 80.3741 56.2174C80.4583 56.7132 80.6423 57.4678 80.399 57.6924C79.2951 58.7058 79.66 59.9844 79.5664 61.1756C79.4386 62.7754 79.2982 64.3782 79.2795 65.9811C79.2608 67.5029 78.5716 68.0892 77.0779 68.086C67.5511 68.0673 58.0213 68.086 48.4945 68.0954C47.8334 68.0954 47.1723 68.0954 46.349 68.0954C46.4083 69.3272 46.5174 70.4467 46.5049 71.5662C46.4395 77.6752 46.3459 83.7842 46.2617 89.8932C46.2617 90.0491 46.2524 90.205 46.2305 90.3578C46.1089 91.2497 45.8002 92.0449 44.7274 91.9669C43.6797 91.8921 43.4458 91.1343 43.4676 90.1894C43.5923 84.5981 43.7202 79.0068 43.7826 73.4154C43.8013 71.6192 43.6298 69.8199 43.5393 67.9301C39.8378 67.7118 36.2921 67.5029 32.6217 67.2846C33.0802 69.6796 33.5698 71.9342 33.9377 74.2075C34.7392 79.1533 34.6799 84.1054 33.9377 89.0605C33.7849 90.0927 33.5386 90.9908 32.2912 90.8099C31.0314 90.626 31.0594 89.6406 31.2091 88.6458C32.2538 81.7853 31.7548 75.0277 29.8869 68.348C29.5813 67.2534 29.0512 66.9416 27.9722 66.82C19.1814 65.8221 10.3937 64.7587 1.60909 63.6953C0.174618 63.5207 -0.224555 62.9001 0.112234 61.4189C2.15792 52.3973 3.24314 43.2635 3.20884 34.0111C3.19637 30.2347 2.95311 26.4583 2.80343 22.6819C2.76289 21.6403 2.5446 20.3836 4.01338 20.2838C5.45097 20.184 5.49775 21.4189 5.58195 22.4792C6.56425 35.2086 5.84701 47.8257 3.18077 60.3243C3.14023 60.5207 3.15269 60.7266 3.13398 61.1008C19.2843 63.5456 35.4813 65.0082 51.8686 65.3855C50.4747 63.4365 50.5994 62.9625 52.7044 62.0145C54.0702 61.4002 55.4548 60.8295 56.9548 59.8129C55.6014 59.3389 54.2792 58.6809 52.8852 58.4345C50.7491 58.0572 48.5506 58.0447 46.4083 57.7017C45.716 57.5895 44.531 56.8379 44.5778 56.523C44.7025 55.6716 45.2015 54.4212 45.8501 54.1997C47.0413 53.7944 48.4883 53.7881 49.7481 54.0282C52.0152 54.4617 54.2199 55.207 56.4558 55.7995C56.7396 55.8743 57.0608 55.8088 57.4724 55.8088C57.4724 55.2818 57.3259 54.7236 57.5098 54.312C57.75 53.7694 58.1865 53.0366 58.6449 52.9493C59.0722 52.8682 60.0046 53.47 60.0732 53.8785C60.3164 55.313 60.6594 56.3327 62.4463 56.0521C63.6064 55.8681 64.9005 56.4886 65.8267 55.1508C66.4316 54.2746 67.1925 54.5864 67.9472 55.2194C68.4274 55.6217 69.1072 55.9835 69.7122 56.0053C72.1259 56.0926 74.5458 56.0427 77.0218 56.0427V18.0011L77.0156 18.0042ZM46.979 14.0813C47.4935 10.5232 48.0205 6.87773 48.5693 3.07014H34.7454V14.0813H46.9758H46.979ZM76.8783 58.4564C73.7942 58.9553 70.9565 59.3732 68.1312 59.8846C66.9212 60.1029 65.4618 60.1777 64.6136 60.9012C62.2841 62.8814 59.8767 64.6121 56.9111 65.3418H76.5447C76.6569 63.0249 76.7598 60.9261 76.8783 58.4564Z" fill="black"/>
<path d="M17.9778 38.168C21.4392 38.2615 24.7853 38.8634 27.9504 40.2542C29.123 40.7687 30.1271 40.6689 31.3558 40.3197C32.6031 39.9642 34.1124 39.9704 35.3692 40.3197C37.3992 40.881 39.289 41.9225 41.2941 42.5992C41.9085 42.8082 42.9001 42.7396 43.3741 42.3622C44.977 41.0899 46.7015 40.9714 48.5071 41.5358C50.5371 42.1689 52.4238 42.2843 54.5287 41.5421C57.3353 40.5504 60.0421 41.224 62.3747 43.1512C63.1449 43.7874 63.5565 44.5389 62.805 45.4027C62.119 46.1948 61.3737 45.9609 60.6377 45.3435C58.9631 43.9402 57.0235 43.4287 54.9903 44.2738C52.745 45.2093 50.5777 45.175 48.3511 44.3861C46.9447 43.8871 45.6911 43.8653 44.4999 45.0441C43.4708 46.0638 42.1143 45.9266 40.8482 45.4432C38.9179 44.7042 36.9939 43.9464 35.1041 43.1107C33.9409 42.5961 32.9337 42.6772 31.6988 43.0514C30.4608 43.4256 28.8704 43.5285 27.6979 43.0732C23.4069 41.4111 19.0723 40.5816 14.4882 41.3082C13.5278 41.461 12.4925 41.4797 12.349 40.1793C12.2118 38.9476 13.0818 38.6201 14.1265 38.5359C15.4144 38.433 16.6992 38.2927 17.9871 38.168H17.9778Z" fill="black"/>
<path d="M42.1484 50.3579C36.8721 49.9338 31.9699 49.5409 27.0677 49.1448C26.8089 49.123 26.5127 49.1604 26.3037 49.0451C23.3319 47.4453 20.1355 47.9349 16.9578 47.8102C14.9683 47.7322 12.9943 46.8185 11.0484 46.1668C10.1566 45.8674 9.63267 45.0223 10.3062 44.2209C10.6649 43.7936 11.7594 43.4974 12.2303 43.7281C15.0494 45.119 17.9464 45.384 21.0024 44.8726C21.7852 44.7416 22.7456 44.7697 23.4286 45.1127C26.7091 46.7561 30.2735 46.5722 33.7568 46.9027C36.4885 47.1615 39.2265 47.3362 41.9644 47.5139C42.9374 47.5794 43.8136 47.8257 43.77 48.9609C43.7263 50.1708 42.8314 50.4421 42.1453 50.3579H42.1484Z" fill="black"/>
<path d="M42.5756 26.845C43.9758 27.4967 45.6722 28.0986 47.1597 29.031C48.5911 29.9291 49.8228 30.4624 51.4039 29.4052C51.959 29.0341 52.7791 28.9281 53.4776 28.925C57.6158 28.9063 61.7539 28.9561 65.892 28.9842C65.9949 28.9842 66.0979 28.9842 66.2008 28.9936C67.1612 29.0715 67.7943 29.5237 67.7225 30.5559C67.6539 31.532 66.9648 31.8095 66.0854 31.8001C62.309 31.7627 58.5326 31.6785 54.7593 31.7378C53.6679 31.7534 52.5234 32.0403 51.513 32.4612C50.169 33.0226 48.9091 33.1099 47.6368 32.4488C46.7231 31.9748 45.8531 31.4072 44.9675 30.8771C43.4114 29.9447 41.7991 29.6235 40.1058 30.4811C39.2233 30.9301 38.397 31.0923 37.8886 30.0133C37.3866 28.953 38.0009 28.3044 38.9053 27.9614C39.9562 27.5622 41.057 27.2971 42.5725 26.845H42.5756Z" fill="black"/>
<path d="M20.3507 28.5008C17.7032 27.3501 16.1221 28.9966 14.4756 30.4841C13.7428 31.1452 12.8727 31.7315 12.0588 30.771C11.2231 29.7794 11.8593 28.9935 12.7262 28.3137C13.9081 27.3875 14.9715 26.2961 16.2251 25.4853C16.7895 25.1204 17.6845 25.2015 18.4298 25.2046C19.0753 25.2046 19.7208 25.3886 20.3694 25.4697C21.4328 25.6007 22.5679 26.0029 23.5502 25.7722C25.2435 25.3761 26.6686 25.5944 28.0407 26.5923C28.1187 26.6485 28.3401 26.5424 28.4773 26.4769C29.5376 25.9718 30.3609 26.2337 30.6477 27.375C30.9253 28.479 30.0989 28.9966 29.1946 29.2024C28.5116 29.3584 27.7382 29.4176 27.0678 29.2585C26.0917 29.0247 25.203 28.4914 24.2581 29.4083C24.0866 29.5735 23.4099 29.3022 23.0076 29.1307C22.1376 28.7627 21.2956 28.3262 20.4443 27.9208C20.4131 28.1172 20.3819 28.3106 20.3507 28.507V28.5008Z" fill="black"/>
<path d="M54.725 37.6161C53.0723 37.6161 51.4195 37.5724 49.773 37.641C49.2086 37.6659 48.666 38.0495 48.0922 38.1244C47.4966 38.2023 46.6328 38.3333 46.3365 38.0183C45.9997 37.6628 45.8874 36.5309 46.1681 36.272C46.876 35.6234 47.8583 34.8874 48.7377 34.8781C52.6045 34.8282 56.4807 34.9716 60.3413 35.1962C60.8403 35.2242 61.2862 36.141 61.754 36.6462C61.2675 37.0703 60.8091 37.8219 60.2914 37.8624C58.4453 38.0121 56.5805 37.9217 54.7219 37.9217C54.7219 37.8187 54.7219 37.7158 54.7219 37.6161H54.725Z" fill="black"/>
<path d="M29.7808 33.9894C33.1581 34.2326 36.5416 34.454 39.9157 34.7378C40.9292 34.822 41.7992 35.2773 41.5061 36.5153C41.2192 37.7159 40.3211 37.719 39.2951 37.4571C36.7411 36.8053 34.1435 36.7367 31.6612 37.613C29.9149 38.2273 29.0542 36.8833 27.8724 36.2783C27.6291 36.1535 27.5075 35.1401 27.7289 34.8968C28.2372 34.3324 28.9887 33.9894 29.6405 33.5559C29.6873 33.7025 29.7341 33.8459 29.7839 33.9925L29.7808 33.9894Z" fill="black"/>
<path d="M15.7013 33.6058C16.1504 33.4592 16.8583 33.1193 17.6005 33.007C18.748 32.8324 19.958 32.5923 21.065 32.7919C22.0536 32.9696 22.8862 33.7929 23.9995 32.979C24.2177 32.8199 25.2811 33.2596 25.3466 33.559C25.4838 34.1858 25.4433 35.0808 25.0722 35.5423C24.1398 36.7024 22.7427 36.7928 21.564 36.0537C20.1856 35.193 18.9975 35.377 17.6192 35.9446C16.8427 36.2627 15.904 36.3469 15.0558 36.2907C14.1484 36.2284 13.2627 35.7887 13.4093 34.6442C13.5527 33.5185 14.3635 33.2815 15.7013 33.6058Z" fill="black"/>
</svg>
