<svg width="87" height="90" viewBox="0 0 87 90" fill="none" xmlns="http://www.w3.org/2000/svg">
<path d="M5.06004 70.1676C6.82506 69.9212 8.5932 69.6842 10.3582 69.4254C10.7667 69.3661 11.2002 69.1073 11.5651 69.1915C12.2418 69.3412 12.8779 69.678 13.5328 69.9337C13.1211 70.495 12.8249 71.365 12.2791 71.5646C9.57548 72.5563 6.74086 72.9804 3.88127 72.5407C3.07671 72.4159 1.93228 71.8047 1.72647 71.1654C1.48635 70.4201 1.86053 69.1977 2.3969 68.5304C4.89163 65.4213 8.38737 64.2644 12.2168 63.8559C12.9559 63.7779 14.0535 64.0991 13.935 62.7052C13.8321 61.5046 13.0307 61.1896 11.9829 61.1896C10.1711 61.1896 8.35621 61.227 6.54441 61.1522C3.87816 61.0431 2.79293 58.9288 4.34279 56.749C6.0891 54.2948 8.64308 53.2751 11.59 53.1722C12.4631 53.141 13.4112 53.4341 13.3363 51.956C13.2303 49.8885 13.0182 49.5953 11.3655 49.6327C9.04537 49.6858 6.72525 49.7669 4.40826 49.6858C3.08917 49.639 1.74203 49.2242 1.31169 47.7679C0.84393 46.1931 1.66718 44.9115 2.78046 43.9136C4.96023 41.9615 7.57973 41.3596 10.4456 41.6964C10.9071 41.7494 11.3686 41.8087 11.8301 41.8492C11.9205 41.8554 12.0204 41.7806 12.4008 41.6309C12.2293 39.9407 12.1326 38.1539 11.8426 36.3951C11.6648 35.3099 10.6763 35.4471 9.83123 35.4502C7.87287 35.4627 5.90824 35.5219 3.95923 35.3878C2.81789 35.3099 1.66406 34.8889 1.29609 33.5916C0.896928 32.179 1.5362 31.0252 2.54345 30.1271C4.22428 28.6302 6.31987 28.2934 8.48405 28.2591C11.1347 28.2155 11.1503 28.2186 11.0194 25.5274C10.9601 24.3393 10.798 23.1574 10.7075 21.9693C10.6296 20.9495 10.0651 20.5005 9.08277 20.4818C7.52979 20.4568 5.9706 20.5036 4.42387 20.3883C1.79192 20.1949 0.235869 19.1066 0.0175796 17.4476C-0.172644 16.0006 1.19321 14.3042 3.51644 13.615C5.12242 13.1379 6.85317 12.9384 8.534 12.904C9.80008 12.8791 10.3894 12.5236 10.3894 11.2638C10.3894 9.65777 10.2584 8.03618 10.4487 6.45202C10.6108 5.10486 10.9819 3.72028 11.5837 2.51346C11.8738 1.93343 12.881 1.50311 13.6201 1.4002C15.5629 1.13201 17.5337 1.02909 19.4983 0.951126C25.8069 0.701653 32.1154 0.445941 38.424 0.286902C44.7887 0.124744 51.1565 0.00626857 57.5212 3.17308e-05C62.4888 -0.00308669 67.4565 0.224537 72.4241 0.290023C74.8097 0.321207 76.6714 1.00413 77.9499 3.24316C79.2534 5.52896 80.8751 7.63703 82.3594 9.81993C82.6494 10.2472 82.8583 10.8334 83.2637 11.0642C85.0818 12.1026 85.007 13.7678 85.0038 15.5142C84.9695 27.8912 84.9976 40.2713 84.9601 52.6483C84.9539 55.3894 84.6982 58.1304 84.6951 60.8684C84.6858 69.3661 84.8978 77.8482 86.5879 86.2212C86.7688 87.1162 86.8811 88.1203 85.6774 88.3292C84.5111 88.5319 84.1774 87.5558 84.0246 86.6764C83.588 84.1256 82.9613 81.5716 82.8802 79.002C82.559 68.8142 82.2939 58.62 82.2471 48.4259C82.1972 37.5551 82.403 26.6812 82.5215 15.8104C82.5371 14.457 82.3126 13.3811 81.1526 12.4113C80.1952 11.6099 79.6308 10.3407 78.8886 9.28045C78.5113 8.74096 78.1308 8.20459 77.3855 7.71812C77.3262 8.17964 77.2359 8.64115 77.2109 9.1058C76.7057 18.3519 76.3377 27.6074 75.6797 36.841C74.8627 48.2856 74.6008 59.6865 76.6433 71.0501C77.0799 73.4793 77.3887 76.0333 77.1298 78.4625C76.7244 82.267 78.7514 84.4561 81.4114 86.4488C81.7825 86.7263 82.2721 86.8854 82.5683 87.2222C82.9425 87.6494 83.4789 88.2637 83.3916 88.6785C83.298 89.1213 82.5964 89.6608 82.0912 89.7481C80.8813 89.957 79.6276 89.982 78.3927 89.9726C76.9458 89.9633 75.502 89.7886 74.0519 89.7731C63.284 89.6546 52.5161 89.508 41.7482 89.4768C36.0041 89.4612 30.2506 89.508 24.5189 89.8167C20.3309 90.0412 17.83 88.1172 15.7406 84.7274C13.9382 81.7992 13.5827 78.8586 13.96 75.5718C14.2313 73.2174 14.0972 70.8162 14.1003 68.4368C14.1003 67.3953 13.6918 66.5377 12.4944 66.572C9.8406 66.6469 7.4113 67.4701 5.26583 69.0574C5.08184 69.1915 5.00083 69.4628 4.86986 69.6717C4.92911 69.8339 4.9883 69.9992 5.04755 70.1613L5.06004 70.1676ZM52.5067 3.05606C52.5067 3.05606 52.5067 3.0623 52.5067 3.06542C44.8978 3.06542 37.2826 2.95316 29.6768 3.10596C24.6624 3.20575 19.6573 3.68913 14.6461 3.98226C13.6232 4.04151 12.9122 4.41883 12.9247 5.53522C12.9683 8.89688 13.012 12.2616 13.1461 15.6233C13.171 16.2376 13.4892 16.9611 13.9101 17.4101C14.7677 18.3332 14.6928 19.0567 13.9319 19.986C13.5858 20.4101 13.3925 21.118 13.433 21.6762C13.8727 27.6635 14.25 33.6633 14.8799 39.632C16.2177 52.3146 16.9318 65.019 16.5888 77.7765C16.5389 79.6039 16.7198 79.7723 18.6064 79.8409C27.2943 80.1558 35.9823 80.477 44.6702 80.8014C47.5672 80.9105 50.4611 81.0415 53.355 81.1724C59.6106 81.4531 65.863 81.7681 72.1185 82.0019C74.2484 82.083 74.816 81.5997 74.7006 79.4947C74.5072 75.9335 74.0706 72.3879 73.7526 68.8329C73.2536 63.2696 72.3587 57.7032 72.3774 52.14C72.4023 45.0113 73.0914 37.8795 73.6371 30.7601C74.2858 22.2967 74.9219 13.8365 74.4324 5.33876C74.3263 3.48018 73.9615 3.07166 72.0718 3.0623C65.5512 3.04047 59.0274 3.05294 52.5037 3.05294L52.5067 3.05606ZM77.8969 87.2908C76.9022 85.6068 75.9323 84.8584 74.4199 84.7929C62.9971 84.2971 51.5775 83.7545 40.1547 83.2587C33.1258 82.9531 26.0937 82.7005 19.0617 82.4385C18.7312 82.4261 18.3944 82.5414 18.0576 82.6007C18.594 85.4385 20.7363 87.3313 23.387 87.2908C25.7663 87.2533 28.1426 87.0288 30.5188 87.0163C39.3752 86.9789 48.2283 86.9571 57.0846 87.0039C63.0346 87.0351 68.9876 87.1941 74.9376 87.2908C75.7951 87.3032 76.6527 87.2908 77.8907 87.2908H77.8969ZM6.46333 47.584C8.33126 47.3501 9.78753 47.2534 11.1939 46.9447C11.7397 46.8262 12.1763 46.2181 12.6628 45.8345C12.1981 45.4104 11.8021 44.8179 11.2532 44.5903C9.59113 43.9011 7.86036 44.0227 6.2918 44.8335C5.59639 45.1922 5.13486 46.0029 4.5673 46.6079C5.29701 46.9821 6.02987 47.3594 6.46333 47.5808V47.584ZM6.62549 58.6044C8.8614 58.6044 10.8354 58.7011 12.7969 58.5639C13.7916 58.4953 13.9288 57.6159 13.171 56.9049C11.3904 55.2334 8.04437 55.9195 6.62861 58.6044H6.62549ZM6.96542 18.0432C6.96542 18.0089 6.96543 17.9746 6.96855 17.9372C7.6889 17.9372 8.44353 18.0619 9.12335 17.8935C9.56616 17.7844 10.2054 17.2573 10.2117 16.905C10.221 16.5058 9.61295 15.7356 9.29175 15.7449C7.5735 15.7886 5.85526 15.9944 4.15261 16.2407C3.91249 16.275 3.60688 16.852 3.60064 17.1825C3.59752 17.3977 4.0559 17.7657 4.34903 17.8156C5.20971 17.959 6.08915 17.9777 6.9623 18.0432H6.96542ZM11.5401 32.0542C10.6327 31.574 9.92475 30.8786 9.24805 30.9035C7.60465 30.9659 5.79598 30.8069 4.35839 32.179C5.83964 33.3265 9.42895 33.3109 11.5401 32.0542Z" fill="black"/>
<path d="M42.2409 35.3442C41.8292 35.3068 41.4176 35.2632 41.0029 35.2351C40.1609 35.1759 39.715 35.5563 39.7773 36.4201C40.1297 41.2318 41.5548 45.6506 44.5578 49.4987C45.2813 50.428 45.7834 50.269 46.6752 49.533C48.5338 47.9925 50.5453 46.6267 52.5753 45.3107C53.726 44.5654 54.8985 44.8118 56.0274 45.6693C60.2435 48.8782 63.6769 52.7824 66.4803 57.2543C67.5624 58.9819 67.3722 59.9797 65.6509 61.224C58.7654 66.1948 51.3467 67.1209 43.4415 63.9994C42.8646 63.7717 42.2689 63.5503 41.7481 63.2229C40.5507 62.4714 39.8304 62.6865 39.2347 64.0337C38.1121 66.5783 36.1069 67.8818 33.2817 68.0814C32.5114 68.1344 31.7162 68.7238 31.052 69.2227C29.8202 70.1489 28.7256 71.2559 27.4814 72.1603C26.7329 72.7029 25.7413 72.6655 25.4264 71.6769C25.2829 71.2279 25.838 70.4888 26.1997 69.968C26.418 69.6562 26.8952 69.5346 27.2257 69.2882C29.2776 67.7664 29.2994 67.4484 27.759 65.5118C26.6083 64.068 25.9658 62.462 26.655 60.6003C27.55 58.1867 30.1882 57.6752 31.6133 59.8145C32.4241 61.0338 32.7578 62.6616 32.9854 64.1522C33.1725 65.3871 33.6341 65.5118 34.6195 65.1594C37.292 64.199 38.1433 61.0088 36.1194 59.1097C32.4179 55.6327 30.2786 51.192 28.5136 46.6048C26.1311 40.4117 24.0761 34.0937 24.4067 27.2956C24.575 23.8747 25.5636 20.7844 28.0053 18.274C29.3774 16.8614 30.9398 15.8572 33.001 15.7387C33.8648 15.6889 34.7411 15.4331 35.5644 15.1431C37.5913 14.4259 39.0757 15.1338 40.3075 16.7429C43.1889 20.513 45.5589 24.5545 47.1181 29.0606C47.5173 30.2113 48.141 31.2966 48.7522 32.3599C49.3977 33.4826 49.1295 34.2559 47.7792 34.7018C47.3395 34.8453 46.8749 34.942 46.4165 34.995C45.0319 35.1571 43.641 35.2881 42.2534 35.4347L42.244 35.3442H42.2409ZM52.516 63.0639C56.2924 63.3102 59.8256 61.9724 63.1343 59.8706C64.0885 59.2656 64.3661 58.6014 63.6457 57.5755C61.3163 54.2512 58.7061 51.2014 55.5659 48.6006C54.4058 47.637 53.4142 47.6651 52.1918 48.3761C49.6097 49.8761 47.7044 51.9872 46.1701 54.5194C45.8583 55.0339 45.1067 55.2803 44.5578 55.6514C44.2553 55.0246 43.9092 54.4134 43.6629 53.7647C43.4352 53.1629 43.4914 52.3802 43.1203 51.9155C38.9603 46.7327 37.1142 40.7703 36.9489 34.1998C36.9084 32.5626 37.3886 32.1073 39.0819 32.2757C40.6224 32.4316 42.1754 32.5657 43.7221 32.572C45.2158 32.5782 45.5589 32.1292 44.9321 30.7477C43.4571 27.5045 42.0351 24.2084 40.2264 21.1523C37.7878 17.0298 37.6256 17.1857 33.0166 18.642C30.1913 19.5338 28.2236 21.2365 27.6093 24.0774C27.1446 26.2197 26.8452 28.5149 27.0947 30.6697C27.8338 36.9845 29.9356 42.9501 32.3336 48.822C34.1299 53.219 36.9645 56.774 40.7783 59.5026C44.1868 61.9443 48.0411 63.226 52.5192 63.0576L52.516 63.0639ZM29.6643 63.7561C29.8857 63.6875 30.104 63.6158 30.3254 63.5472C30.1196 63.0077 29.9138 62.4682 29.708 61.9256C29.5146 61.9942 29.3212 62.066 29.131 62.1346C29.3088 62.6741 29.4865 63.2167 29.6643 63.7561Z" fill="black"/>
</svg>
