<svg width="143" height="90" viewBox="0 0 143 90" fill="none" xmlns="http://www.w3.org/2000/svg">
<path d="M42.2343 69.8292C40.9724 71.7679 40.0634 73.9678 38.4776 75.4279C35.6831 78.0048 32.6179 80.3545 29.3979 82.3707C26.9805 83.8839 25.941 82.7671 25.97 79.8082C26.0328 73.4118 25.8685 67.0105 25.7718 60.6092C25.7669 60.1402 25.6074 59.6616 25.472 59.2023C24.2972 55.1604 22.6388 54.1305 18.4035 54.498C13.2109 54.9524 8.01352 55.3393 2.80643 55.5762C1.9265 55.6149 0.567913 54.9718 0.205302 54.2514C-0.471571 52.917 0.640402 52.1483 1.86361 51.6164C10.9095 47.6809 17.2335 40.5109 23.7556 33.1861C20.9998 32.7558 18.3407 32.6785 15.9088 31.8808C11.9781 30.5947 8.1537 28.9412 4.40188 27.191C3.59931 26.8187 3.29955 25.3586 2.77256 24.4013C3.72501 24.0193 4.68716 23.2845 5.62995 23.3038C18.8 23.6181 31.7379 22.1144 44.4148 18.498C45.1593 18.2853 45.8991 18.0387 47.1465 17.6519C41.1948 14.6446 37.1384 10.1531 33.4301 5.29415C33.0046 4.73815 32.555 4.0854 32.4583 3.4327C32.3809 2.89604 32.7629 1.83721 33.0481 1.79854C33.9909 1.67283 35.1126 1.63899 35.9345 2.04028C43.6025 5.79692 51.551 8.77518 59.9249 10.4529C64.4019 11.3473 68.9466 11.9033 73.4817 12.4642C74.057 12.5367 74.9418 11.8646 75.3479 11.2989C77.8475 7.80338 80.1731 4.17729 82.7597 0.74458C83.2238 0.130559 84.6356 0.232071 85.6074 0C85.6461 0.995971 86.0812 2.23367 85.6509 2.94922C84.273 5.23125 84.2004 7.63416 85.6461 9.53907C88.1408 12.8316 91.0804 15.7857 93.9329 18.7929C94.2327 19.112 95.2963 19.0637 95.7846 18.7929C101.282 15.7325 107.108 13.9581 113.446 13.9484C114.196 13.9484 114.955 13.2087 115.69 13.2426C116.526 13.2812 117.686 13.5906 118.059 14.1902C118.339 14.6398 117.822 15.9839 117.261 16.4674C116.149 17.4295 114.761 18.0725 113.485 18.8509C107.557 22.4625 103.955 32.5045 106.165 39.3167C115.936 33.9597 124.89 37.3151 133.656 42.0097C134.521 42.4738 134.951 43.7502 135.585 44.6495C134.618 45.1958 133.709 46.0467 132.679 46.2401C119.964 48.6285 108.65 54.4013 96.7564 60.6334C98.0957 61.2039 98.7919 61.5036 99.493 61.7937C105.009 64.0468 109.743 67.4118 113.731 71.8356C114.645 72.851 115.428 73.9098 114.341 75.2103C113.229 76.5447 112.271 75.3505 111.174 74.9927C107.543 73.813 103.902 72.1741 100.175 71.8791C92.0329 71.2361 83.833 71.3086 75.6573 71.1152C75.0433 71.1007 74.4244 71.3279 73.5348 71.4923C76.0006 76.4238 76.8612 81.5101 76.252 86.78C76.1263 87.892 75.3141 88.9315 74.8209 90C73.7911 89.386 72.4808 88.9992 71.775 88.1289C66.3116 81.3457 59.6928 76.2208 51.4446 73.2619C48.3648 72.1547 45.314 70.9702 42.2343 69.8195V69.8292ZM30.3987 77.7003C34.5711 75.2635 37.3318 71.6616 38.9563 67.1604C39.6766 65.1684 40.7693 64.7865 42.6501 65.6954C44.8837 66.7784 47.1513 67.8324 49.501 68.6108C58.107 71.4585 65.7991 75.7228 71.9007 82.5689C72.036 82.7188 72.2826 82.7719 72.6791 82.9702C72.6065 78.6865 71.2721 75.0121 69.1883 71.5407C67.8249 69.2731 68.3568 68.0838 71.0014 67.7937C74.1102 67.4504 77.248 67.1072 80.3616 67.17C88.0103 67.3248 95.6541 67.7115 103.303 68.0065C100.078 66.3384 96.5921 65.0669 93.1545 63.6745C92.2794 63.3215 90.9015 62.6011 90.9015 62.0499C90.9015 61.1507 91.6364 59.9323 92.4293 59.415C95.7798 57.2248 99.111 54.8993 102.737 53.2603C110.806 49.61 119.05 46.3417 127.167 42.938C123.764 41.4053 119.949 40.274 115.897 40.216C112.378 40.1676 109.308 41.2265 107.059 44.2192C105.686 46.0468 104.168 45.7712 103.312 43.61C101.644 39.4037 101.34 35.0427 102.089 30.5995C102.853 26.0645 104.976 22.1676 108.229 18.2901C103.694 19.0153 100.01 20.4803 96.6646 22.743C95.1561 23.7631 93.899 23.7583 92.5646 22.5496C91.9119 21.9597 91.1723 21.4617 90.4954 20.9009C86.4583 17.5745 83.0933 13.7115 80.9418 8.69782C79.9507 10.4722 79.0707 12.1838 78.5969 13.9968C78.0989 15.9162 77.161 16.7236 75.1884 16.4238C69.4059 15.5439 63.551 15.0072 57.8507 13.7695C52.4116 12.5898 47.1271 10.6995 41.6638 9.08947C44.8983 12.4883 48.6404 14.7172 53.2673 15.4907C54.1811 15.6455 54.974 16.5496 55.8201 17.1056C55.0852 17.9081 54.4857 19.1652 53.5912 19.4311C47.3012 21.3022 41.0208 23.3376 34.6002 24.6044C27.7831 25.9533 20.8113 26.5189 13.9168 27.4279C18.2585 29.004 22.8564 29.1636 27.4929 29.1829C28.3197 29.1829 29.6734 29.6809 29.8427 30.2321C30.0796 31.0153 29.7266 32.3497 29.1271 32.9492C23.0691 39.0073 16.9096 44.9637 10.7887 50.9637C10.6678 51.0846 10.6726 51.336 10.5614 51.747C14.2165 51.2055 17.6976 50.6446 21.1932 50.2095C21.9957 50.108 23.0111 50.1902 23.6541 50.606C26.8548 52.6753 28.8322 55.6197 29.1368 59.473C29.6106 65.4585 29.9732 71.4537 30.3987 77.6809V77.7003Z" fill="black"/>
<path d="M117.169 30.1112C116.009 29.5117 114.757 29.2699 114.554 28.6656C114.278 27.863 114.544 26.5914 115.056 25.8662C117.087 22.9895 119.34 20.2675 121.448 17.444C126.109 11.2023 132.52 7.63415 139.777 5.33279C141.841 4.68009 143.185 5.72924 142.373 7.68734C139.279 15.1716 136.349 22.8928 127.883 26.1805C124.334 27.5584 120.737 28.8058 117.174 30.1112H117.169ZM136.823 10.6269C129.377 13.0104 125.171 18.7252 120.602 24.8412C128.821 22.8493 134.289 18.556 136.823 10.6269Z" fill="black"/>
<path d="M55.1336 49.4118C54.1183 50.0064 53.2141 50.9589 52.252 51.0217C48.418 51.2731 44.5405 51.5729 40.7307 51.2538C34.0925 50.693 29.7363 45.6019 29.5042 38.7413C29.277 32.0644 32.4632 28.1628 39.5558 26.8574C44.439 25.9581 49.3318 26.0451 53.9346 28.2401C56.41 29.4198 57.0868 31.1652 55.8878 33.0363C55.5058 33.6309 54.6114 34.3852 54.1134 34.2836C53.4414 34.1434 52.8854 33.278 52.3487 32.664C51.9523 32.2095 51.7589 31.3247 51.3189 31.199C47.3254 30.0822 43.3028 29.7196 39.2319 30.967C34.8806 32.2965 32.8499 35.1974 33.3382 39.5971C33.8362 44.0886 36.8 47.149 41.1272 47.3231C44.8161 47.4681 48.5099 47.3183 52.2037 47.3231C52.9095 47.3231 53.6203 47.4633 54.3261 47.5359C54.5727 45.7276 54.5824 43.7067 55.1481 41.855C56.7629 36.5802 63.5123 34.7816 67.4189 38.5769C68.0184 39.162 68.3664 40.6704 68.0425 41.3956C67.4768 42.6478 66.244 42.4399 65.219 41.5745C63.6573 40.2449 61.9458 39.805 60.1618 41.0378C58.2279 42.3722 58.1553 44.4367 58.4986 46.4576C58.5905 46.9991 59.5043 47.7437 60.0941 47.7969C61.5929 47.9323 63.1497 47.5261 64.6292 47.7292C65.5091 47.8549 66.2875 48.73 67.1143 49.2667C66.5002 49.9532 65.978 51.0991 65.2576 51.2441C61.5542 51.9887 57.7589 52.6511 55.1336 49.4166V49.4118Z" fill="black"/>
<path d="M86.1489 41.4972C88.2327 44.2095 90.4229 46.7477 92.2117 49.5519C92.8886 50.6059 92.9418 52.3319 92.6566 53.6132C92.5115 54.2562 90.9789 54.5898 90.07 55.0684C89.6783 54.2417 89.2335 53.4343 88.9193 52.5785C88.7742 52.1869 89.0353 51.6309 88.8612 51.2683C86.2891 45.9161 80.057 41.4101 74.4486 42.73C74.1054 44.9202 73.7476 47.1974 73.3802 49.4697C73.2545 50.2578 73.3028 51.1909 72.887 51.7904C72.4616 52.4093 71.5333 53.0813 70.8854 53.0233C70.3584 52.9798 69.4591 51.8581 69.5075 51.2828C69.991 45.539 70.3536 39.7663 71.3447 34.0999C71.8959 30.9524 73.4865 27.9597 74.8016 24.9814C75.0868 24.3336 76.5663 23.502 76.8564 23.6953C77.6783 24.2514 78.1715 25.3005 78.6453 25.9484C81.0143 26.3884 83.8137 26.3061 85.8927 27.4907C87.6187 28.477 88.8854 30.8025 89.6686 32.8041C91.2303 36.7832 90.0748 39.0749 86.1392 41.4972H86.1489ZM75.3382 38.3352C77.8427 38.3352 80.2359 38.6591 82.4986 38.253C85.3753 37.7356 86.5792 35.5745 85.8733 33.2006C85.1481 30.7494 82.5325 29.6374 79.8878 30.3674C75.8072 31.4891 76.1553 34.9992 75.3382 38.34V38.3352Z" fill="black"/>
</svg>
