<svg width="93" height="90" viewBox="0 0 93 90" fill="none" xmlns="http://www.w3.org/2000/svg">
<path d="M27.7379 48.6352C26.3923 43.1014 25.6469 37.498 26.1049 31.8031C27.0082 20.5839 31.2724 11.0386 40.8176 4.58251C49.2225 -1.10292 58.2497 -1.45037 67.1822 3.27486C76.0862 7.98429 80.5999 15.7007 80.8715 25.7387C81.1052 34.3489 77.5518 41.4905 71.7053 47.6023C71.102 48.2309 70.3723 48.7394 69.6996 49.3048C69.7754 49.4596 69.8543 49.6143 69.9301 49.7691C70.4734 49.7691 71.0167 49.7786 71.56 49.7691C77.5897 49.6554 83.6194 49.5291 89.6523 49.4217C92.0275 49.3806 92.4477 49.8354 92.1444 52.1854C90.5051 64.9492 86.6643 76.9992 80.5398 88.329C79.8323 89.6366 79.0079 90.0725 77.555 89.9904C59.2163 88.9797 40.8618 88.8407 22.5041 89.0997C15.9501 89.1913 9.39922 89.4913 2.84518 89.6777C0.77315 89.7377 0.397276 89.2355 0.709975 87.1382C2.59564 74.4597 6.66385 62.5361 13.0694 51.4242C14.2002 49.4627 15.4447 47.5676 16.6418 45.644C17.144 44.8386 17.7979 44.3806 18.7328 44.9491C19.7151 45.5461 19.4845 46.2978 18.9413 47.0843C18.6223 47.5455 18.3569 48.0414 18.0252 48.5973C21.3575 48.5973 24.5572 48.5973 27.7537 48.6036C27.8263 50.8399 27.6779 51.0325 25.4385 51.1557C22.82 51.3042 20.2015 51.4747 17.5799 51.4937C16.4144 51.5032 15.7922 51.9296 15.3057 52.9467C13.5496 56.6327 11.5755 60.2208 9.95513 63.9606C6.79972 71.2411 4.72764 78.8533 3.50527 86.8603C4.17489 86.8603 4.74033 86.8729 5.30572 86.8603C11.4397 86.6992 17.5768 86.3454 23.7076 86.4023C41.3261 86.5697 58.9415 86.8918 76.56 87.1951C77.656 87.214 78.2246 86.9108 78.7426 85.9253C82.5803 78.6069 85.524 70.9537 87.4508 62.9183C88.1046 60.1924 88.5847 57.4255 89.1722 54.5354C87.4097 54.5417 87.0244 53.5468 87.097 52.5676C80.5114 52.5676 74.0647 52.5329 67.6212 52.6087C66.7621 52.6181 65.7609 52.9814 65.0786 53.5088C58.0002 58.9827 50.3375 63.7774 44.6837 70.9379C44.3773 71.3264 43.3255 71.1211 42.6179 71.1937C42.6369 70.5557 42.3969 69.7124 42.7159 69.3144C44.052 67.6372 45.3975 65.9063 47.0273 64.5354C51.5946 60.6851 56.3167 57.0212 60.9314 53.2278C61.4399 52.8108 61.8315 52.0559 61.9484 51.3989C62.1379 50.3503 62.6844 50.1071 63.6351 49.9302C64.5985 49.7533 65.5776 49.3395 66.4052 48.8089C67.2738 48.2498 68.0097 47.4602 68.7425 46.7147C75.1292 40.2333 79.0806 32.7697 78.0793 23.3382C76.5695 9.10562 61.6957 -0.562813 48.1328 4.00449C39.273 6.98934 33.8971 13.5213 30.8649 22.1031C27.4189 31.86 28.338 41.601 31.3418 51.2821C33.7645 59.0838 37.479 66.2916 41.4556 73.3858C41.9452 74.2576 42.3431 75.183 41.1745 75.8053C40.0847 76.3833 39.5478 75.6063 39.1056 74.7598C37.2674 71.2285 35.2016 67.7951 33.6476 64.1469C31.4808 59.0616 29.6962 53.8153 27.7442 48.6352H27.7379Z" fill="black"/>
<path d="M38.992 19.2952C37.4253 20.9376 35.8524 22.5769 34.2889 24.2225C33.894 24.6395 33.5971 25.2901 33.1233 25.4544C32.58 25.6439 31.7777 25.587 31.3134 25.287C31.0608 25.1227 31.0323 24.0551 31.304 23.7077C36.9136 16.5693 43.7614 11.3987 53.1834 10.7923C58.9605 10.4196 64.1627 12.2042 68.5499 16.0229C74.3901 21.1082 74.0774 28.8783 67.9245 33.5814C61.3136 38.6351 49.1942 39.1942 42.1505 34.7659C37.0178 31.541 35.745 26.5883 38.6193 21.0419C38.8688 20.5586 39.1056 20.069 39.3488 19.5795C39.2288 19.4847 39.112 19.3899 38.992 19.2952ZM56.7178 13.6066C56.4336 15.2174 55.3818 15.2648 54.0047 15.1353C48.2024 14.592 42.4285 18.2781 40.347 23.7298C39.0267 27.1853 39.7563 29.8259 42.7475 32.0179C46.7336 34.9365 51.2978 35.5587 56.0578 35.0849C59.6996 34.7217 63.1519 33.6983 66.1115 31.4273C70.6915 27.9149 71.0799 22.4379 67.0401 18.3413C64.2385 15.5017 60.7546 14.1151 56.7148 13.6097L56.7178 13.6066Z" fill="black"/>
<path d="M55.0816 31.4557C54.6267 31.3768 53.9034 31.3862 53.3033 31.1209C51.5566 30.3407 49.7404 29.6237 48.1675 28.5625C45.8364 26.9895 45.7196 23.9352 47.8674 22.1063C48.7487 21.3578 49.9079 20.6976 51.0228 20.5176C53.0696 20.1859 55.1795 20.1354 57.2579 20.1701C59.0298 20.1986 62.5548 23.2371 63.0759 24.9396C63.4897 26.2914 63.0096 27.4254 62.1315 28.4014C60.3153 30.4229 57.9685 31.2978 55.0784 31.462L55.0816 31.4557ZM56.5503 28.4487C59.5605 27.8802 60.2553 26.9832 59.2288 24.7311C58.3065 26.0135 57.3937 27.2801 56.5503 28.4487Z" fill="black"/>
</svg>
