<svg width="109" height="90" viewBox="0 0 109 90" fill="none" xmlns="http://www.w3.org/2000/svg">
<path d="M12.135 79.7037C8.94737 79.5774 8.04087 78.0319 9.06253 74.3911C6.95976 74.3911 4.9053 74.4208 2.85454 74.3836C0.666319 74.3428 0.25765 73.9156 0.250219 71.7719C0.242789 68.6252 0.291068 65.4784 0.231626 62.3317C0.201904 60.6785 0.896618 59.9875 2.535 59.954C4.19567 59.9206 5.85259 59.6717 7.51697 59.6085C8.64638 59.5677 8.96593 59.0587 8.96593 57.985C8.95479 47.1257 8.98453 36.2663 8.98453 25.4069C8.98453 23.802 8.21543 22.9624 6.50275 22.9698C2.9585 22.9884 2.01114 21.989 2.04457 18.4596C2.05943 16.7321 2.02234 15.0008 2.10779 13.277C2.24897 10.4275 3.63101 9.05286 6.48052 9.24233C10.6601 9.52097 14.8173 10.2045 19.0005 10.3829C30.5175 10.8733 42.0456 11.2151 53.57 11.5569C56.3898 11.6386 56.4195 11.9061 56.5272 14.6404C56.6572 17.8578 57.1142 21.1271 57.9278 24.2404C59.1538 28.9289 61.2454 33.4093 60.978 38.6328H68.1185C67.877 36.0137 67.628 33.3239 67.3717 30.5152C67.1302 30.4447 66.6473 30.4521 66.4801 30.2255C66.0491 29.6385 65.4101 28.8843 65.5179 28.3233C65.6107 27.8441 66.6323 27.2162 67.2342 27.2273C69.5747 27.2719 71.9079 27.5506 74.2447 27.7289C75.3258 27.8106 76.4664 27.662 77.4732 27.9629C79.2341 28.4942 79.431 29.5382 78.2905 31.0019C78.0527 31.3103 77.8559 31.7115 77.8113 32.0905C77.737 32.7592 77.7779 33.4465 77.8039 34.1226C77.867 35.7796 77.9487 37.4366 78.0267 39.1009C82.927 38.5362 86.2001 41.2669 86.5084 46.208C86.605 47.7907 86.3115 49.3956 86.2892 50.9931C86.2743 52.0259 86.5752 53.081 86.4601 54.0953C86.3338 55.2209 86.1146 56.447 85.5313 57.3795C84.7994 58.546 83.7592 59.5974 82.6483 60.4184C82.1319 60.8011 80.8465 60.8494 80.4304 60.4705C80.0254 60.1064 80.0701 58.9287 80.3004 58.2339C81.2478 55.3881 82.4366 52.6203 83.3357 49.7597C83.6737 48.686 83.6181 47.4229 83.4657 46.2786C83.1054 43.5368 81.9648 42.6192 79.2304 42.5189C72.6955 42.2848 66.1605 42.0359 59.6256 41.7796C57.3742 41.6904 57.3074 41.1183 57.5229 38.8743C57.7532 36.4743 57.5266 33.9443 56.9991 31.5815C56.0071 27.1419 54.6251 22.7952 53.4808 18.389C53.2059 17.3302 53.2393 16.1897 53.1019 14.8039C52.5223 14.8039 51.8759 14.7965 51.2331 14.8039C37.8921 14.9859 24.5955 14.3209 11.3324 12.9017C10.1102 12.7717 8.91023 12.4374 7.69166 12.2702C6.27248 12.0733 5.43655 12.6788 5.34367 14.1686C5.26565 15.3983 5.22473 16.6318 5.10213 17.8578C4.9721 19.1581 5.56284 19.7116 6.80369 19.615C8.40121 19.4924 9.99134 19.2361 11.5888 19.2249C12.265 19.2212 13.3535 19.5481 13.5133 19.994C13.7065 20.5327 13.1195 21.3537 12.8706 22.0521C12.6291 22.7246 12.1721 23.397 12.1721 24.0732C12.1275 35.8576 12.1424 47.6421 12.1387 59.4265C12.1387 61.9602 11.9009 62.2314 9.3486 62.5361C7.88112 62.7107 6.40987 62.8964 4.93125 62.9707C3.87243 63.0265 3.38945 63.372 3.43031 64.5199C3.50462 66.6599 3.45263 68.8035 3.45263 71.3558C6.79626 71.0772 9.95039 71.0735 12.9931 70.4976C17.8079 69.5911 22.5225 68.1534 27.3336 67.2171C31.9404 66.3181 36.6141 65.8983 41.3026 66.8568C46.4369 67.9045 49.8957 70.6722 50.8244 76.2338C54.2795 76.2338 57.7235 76.2672 61.1637 76.1929C61.591 76.1818 62.0367 75.6357 62.4231 75.279C66.1234 71.8425 70.3141 69.4388 75.5301 69.9998C77.2614 70.1855 79.0744 71.0623 80.5196 72.0877C82.444 73.4549 82.9828 75.6059 82.1543 77.8833C80.475 82.5087 76.8899 84.8344 72.2794 85.8635C71.919 85.9452 71.5475 85.9749 71.1834 86.0306C65.8559 86.848 62.5494 84.8046 60.833 79.4585C57.534 79.4585 54.1607 79.4437 50.7873 79.4808C50.4901 79.4808 50.074 79.752 49.918 80.0195C46.775 85.4139 41.622 87.7322 35.8933 89.0511C31.4128 90.0801 26.8729 90.4257 22.3293 89.3074C17.1652 88.0368 13.387 85.269 12.1498 79.6852L12.135 79.7037ZM47.0648 76.2561C47.2431 76.1038 47.4214 75.9552 47.5997 75.8028C46.9013 74.64 46.4517 73.1428 45.4449 72.3961C43.9663 71.3001 42.1645 70.3527 40.3738 70.0184C35.0834 69.0301 29.8264 69.8698 24.6252 70.988C23.4773 71.2332 22.1844 71.2072 21.7311 72.7453C21.642 73.0462 20.7838 73.3174 20.312 73.2728C17.2507 72.9756 14.6687 75.8846 15.3708 79.5217C16.0358 82.9471 18.473 84.9161 21.564 85.7223C29.0054 87.6653 36.2313 87.004 42.8963 82.8839C44.1409 82.1149 45.1365 80.9372 46.2474 79.949C46.1545 79.7855 46.0653 79.6183 45.9724 79.4548C44.4529 79.4548 42.9334 79.4548 41.4139 79.4548C40.2437 79.4548 39.066 79.388 39.1069 77.7867C39.144 76.323 40.2251 76.2412 41.3471 76.2524C43.253 76.2672 45.1589 76.2561 47.0648 76.2561ZM64.4033 79.4585C64.2956 79.648 64.1878 79.8375 64.08 80.0232C64.8974 80.8369 65.5922 81.866 66.5581 82.4195C70.1024 84.4591 77.2465 81.8288 78.7846 78.0282C79.6688 75.8437 78.7177 73.7298 76.3549 73.4474C74.2336 73.1948 72.0417 73.544 69.7085 73.6332C70.0838 74.9001 70.2695 75.6208 70.5073 76.323C70.7562 77.0623 71.4695 77.9948 71.228 78.4555C70.9419 79.0053 69.8831 79.3434 69.1215 79.414C67.5612 79.5551 65.9785 79.4548 64.4033 79.4548V79.4585ZM70.5184 30.6676C70.7525 32.9041 70.8639 34.8545 71.1872 36.7715C71.6218 39.3647 71.9042 39.4836 74.7871 38.8557C74.6868 37.314 74.7054 35.7202 74.4416 34.1747C74.2707 33.179 73.6911 32.2502 73.2936 31.2917C73.4645 31.1505 73.6355 31.0131 73.8064 30.8719C72.8516 30.8125 71.8967 30.753 70.5221 30.6676H70.5184Z" fill="black"/>
<path d="M96.6396 7.2807C98.1219 7.1098 99.5931 6.70113 101.023 6.82001C107.692 7.37728 111.11 14.7927 107.042 20.1239C105.753 21.818 103.843 23.2595 101.919 24.1995C98.055 26.0793 93.8457 26.3245 89.6327 25.5258C87.0136 25.0279 86.2557 23.8837 86.5046 21.0044C85.6316 21.2199 84.8254 21.3908 84.0341 21.6211C80.958 22.5128 77.878 22.8546 74.7722 21.7698C73.8582 21.4503 72.8329 21.2868 72.075 20.7481C71.2205 20.1425 70.0391 19.2286 69.9871 18.3853C69.7828 15.0268 69.3444 11.4937 70.1468 8.31351C71.1908 4.17855 75.8161 2.80023 79.6093 4.80641C79.9845 5.00331 80.3598 5.19278 80.7796 5.40826C82.0948 2.06092 84.4352 0.12161 88.0389 0.00644056C91.6946 -0.112444 93.3925 1.38105 96.6396 7.2807ZM89.5659 22.2676C93.3999 22.6205 96.9516 22.9066 100.396 21.558C102.547 20.7147 104.218 19.3103 105.095 17.1147C106.221 14.3098 104.791 11.0553 102.004 10.1711C100.113 9.56923 98.4005 10.0559 96.7473 11.1407C96.1157 11.5568 95.0791 11.8689 94.4587 11.6274C93.9795 11.4417 93.8309 10.3308 93.5857 9.61752C93.1288 8.29121 92.9169 6.83487 92.2296 5.64603C90.7993 3.17546 88.039 2.49559 85.8768 3.84419C83.5734 5.28195 83.1425 7.32528 84.5951 10.0039C85.0966 10.9327 85.4829 11.88 84.3201 12.5673C83.2278 13.2138 82.4848 12.5822 81.8309 11.7129C81.0173 10.6355 80.2521 9.49492 79.2898 8.56242C78.2236 7.52589 76.9307 6.63426 75.3072 7.22125C73.6317 7.83054 72.6211 9.27572 72.5877 10.8955C72.4688 16.9289 74.044 19.9456 80.475 18.9797C82.3771 18.6936 84.2086 17.7983 86.0179 17.0441C87.2662 16.524 88.4663 15.9518 89.6105 17.0441C90.7214 18.1066 90.7993 19.4106 90.1157 20.7778C89.9263 21.1568 89.8111 21.5729 89.5547 22.2564L89.5659 22.2676Z" fill="black"/>
<path d="M51.6826 32.2094C51.6826 35.096 51.5637 37.9938 51.7346 40.8694C51.8163 42.2291 52.2399 43.626 53.8411 44.2836C54.2461 44.4508 54.6882 45.7028 54.495 45.9368C53.9674 46.5684 53.1277 47.278 52.3736 47.3263C46.6634 47.6792 40.9384 47.8055 35.2282 48.1733C32.8914 48.3219 30.5917 49.0353 28.2549 49.2284C26.8357 49.3473 25.3646 49.0353 23.9454 48.7529C23.5218 48.6675 22.9757 48.0767 22.8865 47.6346C21.8277 42.582 20.245 37.5443 19.9664 32.4397C19.3571 21.3017 26.4902 15.3389 37.5167 17.1593C38.9693 17.4008 40.4294 17.7129 41.83 18.1698C48.6733 20.3952 51.8201 24.9054 51.6863 32.2094H51.6826ZM48.6956 43.7375C48.6102 40.4013 48.5136 37.0428 48.4393 33.6806C48.4133 32.5735 48.4727 31.4626 48.4393 30.3518C48.3241 26.6144 46.5148 23.9246 43.2306 22.2342C40.0988 20.6218 36.7217 19.9122 33.2221 20.0757C27.746 20.332 24.276 23.2224 23.2803 28.2973C22.0469 34.6093 24.3131 40.4087 25.7472 46.0223C33.6827 45.231 41.3359 44.4693 48.6956 43.7375Z" fill="black"/>
<path d="M88.8713 79.3544C88.0726 79.3061 87.2033 79.4362 86.49 79.165C85.8175 78.9086 84.8627 78.2696 84.8181 77.7346C84.7253 76.6127 85.6169 76.0257 86.7909 76.0851C88.0801 76.152 89.3729 76.2932 90.6621 76.2932C92.0738 76.2932 93.3742 75.9216 94.0503 74.4987C94.7376 73.061 94.5258 71.5712 93.4633 70.5384C90.8664 68.0121 88.0801 65.6827 85.4089 63.2307C84.5916 62.4803 82.8342 61.9824 83.9525 60.3998C85.1228 58.7428 86.3376 59.8908 87.3853 60.749C89.9599 62.8518 92.7054 64.7985 94.9791 67.1911C96.2905 68.5694 97.2454 70.6164 97.5983 72.5037C98.1779 75.6096 96.48 77.8907 93.4298 78.7675C91.9661 79.1873 90.4094 79.269 88.8936 79.5031C88.8862 79.4548 88.8751 79.4064 88.8677 79.3544H88.8713Z" fill="black"/>
</svg>
