<svg width="136" height="90" viewBox="0 0 136 90" fill="none" xmlns="http://www.w3.org/2000/svg">
<path d="M11.2553 52.6024C15.8831 52.368 20.2904 52.1796 24.693 51.913C28.0432 51.7108 31.3842 51.334 34.739 51.2053C36.1867 51.1502 36.6692 50.5849 36.9587 49.2476C38.6913 41.2649 38.7234 33.2134 38.1582 24.8953C37.3539 24.7988 36.6325 24.6609 35.9064 24.6287C26.5542 24.2151 17.3078 24.8906 8.20843 27.2114C7.98784 27.2666 7.75802 27.2942 7.53743 27.3447C6.24605 27.6435 5.00983 27.7124 4.66975 26.0442C4.35725 24.5184 5.45103 24.0129 6.6413 23.7785C10.5292 23.0156 14.4034 21.9127 18.328 21.6691C25.2399 21.2417 32.1839 21.3612 39.1095 21.2417C41.1729 21.205 41.9082 22.2528 41.8669 24.2427C41.7888 28.0387 41.8439 31.8347 41.8439 35.8145H52.5701C52.5701 33.3742 52.662 30.8926 52.5517 28.4155C52.1657 19.7251 52.4644 11.0761 53.5628 2.44094C53.8293 0.340731 54.7392 -0.141806 56.7705 0.032828C60.6309 0.363714 64.5234 0.464843 68.4021 0.460247C70.1209 0.460247 70.971 0.974961 71.1319 2.70292C71.5041 6.72411 71.927 10.7407 72.3589 15.0193C76.2285 14.5045 79.9693 13.9668 83.7193 13.5348C85.0521 13.3786 86.4124 13.5027 87.7589 13.4383C88.5953 13.397 89.6248 13.5164 90.2222 13.0845C93.1772 10.9521 94.5099 13.2177 96.077 15.033C108.435 29.3208 118.187 45.3045 126.735 62.0786C127.332 63.255 127.686 64.4453 129.552 64.4821C130.894 64.5096 131.068 65.8516 130.586 67.1614C130.328 67.8599 130.172 68.8112 130.443 69.45C131.702 72.3912 133.136 75.2542 134.497 78.1541C134.754 78.7056 135.237 79.3444 135.122 79.8269C134.919 80.6771 134.34 81.44 133.922 82.2396C133.21 81.8352 132.153 81.6008 131.84 80.9896C130.066 77.5337 128.412 74.0134 126.84 70.461C126.238 69.1053 125.517 68.7652 124.055 69.0364C118.591 70.0428 113.09 70.8838 107.617 71.8351C106.845 71.9684 106.123 72.3728 105.259 72.6945C106.716 74.8775 108.012 76.8306 109.551 79.1376C113.099 78.917 117.033 78.6734 120.972 78.4207C122.268 78.338 123.582 78.0347 124.841 78.2001C125.599 78.3012 126.257 79.1146 126.964 79.6109C126.33 80.3279 125.815 81.4308 125.03 81.6836C123.683 82.111 122.171 82.042 120.723 82.1247C116.532 82.3683 112.341 82.5751 108.15 82.8095C106.528 82.9014 105.466 82.5108 105.654 80.5347C105.709 79.9694 105.305 79.2801 104.942 78.7608C101.629 74.0043 98.26 69.2846 94.9373 64.5327C89.3031 56.4765 85.4887 47.5012 81.6284 38.5259C79.5557 33.7051 77.0327 29.0773 74.6798 24.3806C74.3213 23.6591 73.7882 23.0248 72.9793 21.8208C73.3056 26.6094 73.5676 30.7547 73.9077 34.8862C73.9444 35.332 74.5327 35.7088 74.7073 36.1775C74.9279 36.775 75.1485 37.4505 75.0796 38.0571C74.9049 39.5875 74.3535 41.0995 74.3305 42.6252C74.1191 55.2081 73.9904 67.791 73.8341 80.3738C73.8295 80.9069 73.8066 81.4446 73.7238 81.9731C73.1999 85.3141 74.1696 86.5228 69.1236 86.054C65.2633 85.6956 61.288 86.3527 57.4737 85.8012C50.5113 84.7994 43.8614 87.4235 36.9863 87.0099C30.2078 86.6009 23.443 87.0375 16.715 87.8141C13.1671 88.2231 9.66981 89.0872 6.15874 89.8087C3.53003 90.351 2.71206 89.8271 2.8775 87.111C3.28192 80.4244 3.82875 73.7469 4.32508 66.9683C3.99879 67.1108 3.4703 67.5474 3.01074 67.4876C2.26624 67.3911 1.33796 67.1429 0.924353 66.6145C0.616446 66.2192 0.942734 65.2726 1.09439 64.5924C1.14954 64.3442 1.48038 64.1099 1.73773 63.9628C5.3591 61.9132 6.27363 58.4618 7.02732 54.6796C8.36925 47.9562 10.0972 41.3109 11.6873 34.6426C11.9998 33.3375 12.4134 31.9358 14.2103 32.4735C15.7452 32.9331 15.6304 34.1371 15.2995 35.4653C14.0908 40.2677 12.9603 45.0931 11.8114 49.9093C11.6184 50.709 11.4805 51.5224 11.2599 52.5978L11.2553 52.6024ZM124.166 65.4655C123.95 64.8589 123.894 64.6337 123.798 64.4361C115.88 48.7512 106.812 33.8108 95.6864 20.1434C93.4759 17.4273 91.3343 15.9292 87.8187 17.1148C86.9823 17.3952 86.0034 17.2435 85.0934 17.34C81.8995 17.6663 78.7101 18.0064 75.9298 18.3005C79.2892 25.2905 82.8416 31.9404 85.7276 38.8706C90.0567 49.2659 95.2636 59.1098 101.927 68.1862C102.272 68.6549 102.672 69.0869 102.782 69.2202C110.052 67.9472 117.001 66.7293 124.17 65.4701L124.166 65.4655ZM41.9588 39.6702C41.899 40.2263 41.8669 40.5986 41.8209 40.9708C41.3154 44.9644 41.1178 49.0315 40.2171 52.9378C39.3853 56.5316 37.4642 59.8773 36.614 63.471C35.1894 69.5281 34.1692 75.6817 33.1214 81.8215C32.8089 83.6597 33.8291 84.2387 35.5984 83.6689C36.4486 83.3931 37.3861 83.384 38.2869 83.3012C42.1334 82.9612 45.9846 82.644 50.0747 82.2948C47.7493 71.1136 49.1509 60.6815 53.264 50.5711C54.7484 46.9176 53.4846 43.4249 53.264 39.6656H41.9588V39.6702ZM6.51261 85.4106C13.6313 84.6478 20.5063 83.9584 27.3676 83.1082C28.1259 83.0163 29.2748 82.088 29.3805 81.4078C29.9504 77.7727 30.2445 74.1007 30.6168 70.631C23.1351 72.1062 15.7499 73.5493 8.37847 75.0612C7.94188 75.1532 7.33526 75.7782 7.2893 76.2101C6.95382 79.3674 6.7424 82.5383 6.51721 85.406L6.51261 85.4106ZM58.2458 82.1431H70.0657C70.3323 77.4004 70.5988 72.7405 70.8976 67.4463C69.9876 68.3149 69.5281 68.6687 69.165 69.1099C67.4462 71.1779 65.8285 73.3379 64.0086 75.314C63.3331 76.0493 62.2393 76.6192 61.2605 76.7754C60.5527 76.8903 59.4222 76.394 59.027 75.8011C58.7191 75.3462 59.0546 74.1881 59.4636 73.5815C59.9737 72.8232 60.8469 72.3131 61.5684 71.6973C59.5004 71.0814 58.379 71.8765 58.2917 73.6091C58.1492 76.3389 58.255 79.0778 58.255 82.1431H58.2458ZM69.4131 23.9118C68.857 17.6525 68.347 11.6001 67.722 5.5568C67.6714 5.06047 66.8258 4.64229 66.1916 4.03567C65.3552 6.77926 68.9674 9.03112 65.5482 10.9797C67.7174 12.8409 66.2651 14.1782 65.1668 15.4145C67.0969 17.8456 68.1401 20.2904 66.3708 23.1581C67.414 23.4155 68.2137 23.6131 69.4085 23.9118H69.4131ZM67.7725 45.0058C70.4426 47.731 70.5023 50.1299 68.1126 52.9378C67.8231 53.2733 67.4692 53.6456 67.3819 54.05C66.9453 56.1134 66.5868 58.1952 66.2146 60.1898C67.6208 59.6245 69.2615 58.9673 70.6448 58.4158V42.6666C69.3902 43.6868 68.5905 44.344 67.7725 45.0103V45.0058ZM28.1673 66.6375C28.3419 66.7891 28.5119 66.9454 28.6866 67.097C29.8309 66.4904 31.6186 66.1503 32.0001 65.2266C33.3604 61.9269 34.2427 58.4343 35.3273 54.937C28.6085 54.8497 27.556 55.1162 27.3722 56.3708C28.9118 56.7477 30.3778 57.1061 31.8484 57.4692C31.4118 58.9857 31.1039 60.5482 30.5111 62.0005C29.8631 63.5997 28.9577 65.0933 28.1673 66.6375ZM54.2108 59.5234C52.2163 66.8443 52.23 74.0226 53.572 81.2332C53.7834 81.2378 53.9948 81.2424 54.2108 81.247V59.5234ZM69.6934 27.3034C69.4729 27.2528 69.2523 27.2069 69.0271 27.1563C68.9582 27.717 68.9214 28.2822 68.8111 28.8337C68.6227 29.7437 68.5813 30.7685 68.1172 31.5176C67.63 32.3034 66.7201 32.8319 66.2973 33.1996C66.9269 34.5277 67.4462 35.6307 68.062 36.9266C68.4848 37.0277 69.2569 37.207 70.3139 37.4551C70.0979 33.9119 69.8957 30.6077 69.6934 27.2988V27.3034Z" fill="black"/>
<path d="M24.5734 43.4294C22.9511 42.6068 20.9796 42.1288 19.7893 40.8926C17.395 38.4064 19.748 34.6472 22.4962 33.2731C25.3225 31.8622 28.5762 31.899 31.6231 33.0433C35.4191 34.4679 35.9476 37.5884 32.9053 40.2263C30.5937 42.23 27.772 42.7355 24.578 43.4294H24.5734ZM22.9419 37.9928C24.8124 39.877 28.8428 39.3163 30.6167 36.9266C27.1286 35.4054 25.1662 35.6766 22.9419 37.9928Z" fill="black"/>
<path d="M39.6334 70.4427C39.4404 69.2202 38.8843 68.0208 39.2428 67.2211C39.5231 66.5915 40.9201 66.4537 42.0047 66.0263C41.7474 65.1439 40.9891 63.8157 41.127 62.5933C41.2373 61.619 42.4414 60.7688 43.4386 59.5096C42.1656 57.9701 42.9147 56.4489 44.7207 54.8818C45.2906 54.3901 45.0241 52.8735 45.0562 51.8257C45.093 50.4884 45.3779 49.2659 46.9588 49.2384C47.5287 49.2292 48.5949 49.9002 48.6132 50.2908C48.7097 52.7495 49.4267 55.3184 47.6022 57.5611C47.2116 58.039 47.3173 58.9076 47.1473 59.5832C46.7934 60.9894 46.4028 62.3865 46.0214 63.7836C46.003 63.8433 45.865 63.8709 45.8559 63.926C45.456 66.3985 44.7208 68.8801 44.7897 71.3388C44.8448 73.2827 44.3761 75.4611 46.2005 77.2672C47.1426 78.2047 45.3641 80.0797 43.9073 79.4317C42.0323 78.5953 39.0911 78.485 39.7575 75.0888C39.7989 74.882 39.445 74.5925 39.2703 74.3444C37.7216 72.1017 37.7584 71.8719 39.6334 70.4427Z" fill="black"/>
</svg>
