<svg width="109" height="90" viewBox="0 0 109 90" fill="none" xmlns="http://www.w3.org/2000/svg">
<path d="M17.7087 55.8431C18.1641 53.4409 18.48 51.6412 18.8473 49.8524C19.4093 47.1123 20.379 46.7707 22.7003 48.5521C23.7361 46.8332 24.9299 45.1766 27.2622 45.6872C29.5689 46.1941 30.5018 48.1077 31.1667 50.1315C31.523 51.2188 31.7286 52.3574 32.0409 53.6356C47.0966 53.0149 62.1891 52.3941 77.2045 51.7734C78.1962 49.4153 79.0263 47.0682 80.1429 44.8681C82.1961 40.8241 84.8811 40.5339 87.6285 44.1849C88.8149 45.7606 89.3622 47.8175 90.3246 49.9222C93.5532 50.4107 96.4916 48.5889 97.7073 45.0664C98.2363 43.5311 98.0453 41.5697 100.025 40.758C100.227 40.6772 100.249 39.9976 100.242 39.5973C100.157 34.231 100.054 28.8647 99.9516 23.4984C99.9516 23.3147 99.9369 23.1311 99.9222 22.9511C99.5696 18.6169 98.9599 18.0403 94.7285 18.3084C84.3816 18.9659 74.031 19.5462 63.6951 20.3616C45.1609 21.8235 26.7333 24.1889 8.39386 27.2339C8.09267 27.2853 7.7878 27.3441 7.48661 27.3294C6.26716 27.2706 5.56196 26.6058 5.46278 25.401C5.36729 24.2403 6.09454 23.8106 7.13401 23.6563C13.5214 22.6977 19.9015 21.6766 26.2999 20.7877C27.7397 20.5857 28.4376 20.1302 28.9188 18.6426C32.2098 8.5124 39.8314 3.06896 49.631 0.387646C53.1792 -0.582035 56.8816 0.244405 59.3976 3.12774C62.3838 6.54733 65.0798 10.2571 67.6105 14.033C68.6867 15.6381 69.6931 16.145 71.5554 15.9944C79.6985 15.3332 87.8563 14.8227 96.0067 14.2533C100.649 13.9301 102.328 14.9439 102.901 19.4727C103.54 24.5379 103.797 29.6691 103.889 34.7783C104.076 45.0848 103.985 55.3913 104.139 65.6979C104.176 68.0486 104.506 70.4544 105.145 72.7097C105.535 74.0724 106.82 75.1633 107.625 76.4268C108.102 77.1761 108.873 78.1458 108.693 78.7849C108.51 79.4387 107.36 80.1696 106.57 80.2467C101.413 80.7683 96.2381 81.0732 91.0775 81.5433C78.6296 82.6783 66.178 83.7839 53.7448 85.0548C42.4061 86.2118 31.0859 87.5745 19.7582 88.8416C16.2505 89.2347 12.7537 89.7562 9.23498 89.9729C6.30389 90.1529 5.41135 89.4807 4.75755 86.5607C3.87969 82.6416 3.3471 78.649 2.55005 74.7078C-0.336956 60.4087 -0.120246 45.9737 0.599668 31.5129C0.687821 29.7462 0.775973 27.9795 0.897183 26.2164C0.985336 24.9162 1.71628 24.1228 3.02021 24.2183C4.42331 24.3175 4.7098 25.3422 4.64368 26.5948C4.32413 32.8683 3.90909 39.1418 3.80992 45.4191C3.77686 47.4649 4.43066 49.5806 5.06977 51.564C5.65011 53.3675 7.26257 54.429 9.04032 54.7559C11.8796 55.2775 14.7739 55.4942 17.7013 55.8468L17.7087 55.8431ZM8.42325 86.0906C40.1032 82.8546 71.368 79.6591 102.49 76.4782C99.1545 67.7584 100.87 58.3995 100.19 48.9194C98.0563 52.3207 94.9048 53.2647 91.5881 53.6356C89.8434 53.8303 88.7856 54.2821 88.084 56.0598C87.0813 58.6016 85.0648 60.2801 82.1851 60.2103C79.3569 60.1406 78.1484 58.0727 77.4395 55.564C76.9216 55.564 76.4368 55.5456 75.9556 55.564C62.3654 56.137 48.7789 56.7577 35.1886 57.2536C32.8967 57.338 30.8177 57.2683 30.2264 60.1075C30.1676 60.3793 29.8958 60.6144 29.7085 60.8531C26.2007 65.3048 19.7766 64.6804 18.2413 59.9826C18.1237 59.6227 17.3267 59.2701 16.8492 59.2774C12.4122 59.3435 8.10002 58.8917 3.99357 56.2802C4.51147 66.6088 6.78508 76.3644 8.42325 86.0906ZM59.7319 16.8612C58.641 13.6326 57.899 10.6171 56.6134 7.85493C55.1956 4.79897 52.7237 4.34717 50.0204 6.39672C46.935 8.73277 44.3639 11.5647 42.6412 15.0651C42.105 16.1523 41.8332 17.3681 41.3593 18.7712C47.5631 18.1284 53.3481 17.526 59.7319 16.8649V16.8612ZM26.4982 49.7753C25.4918 51.9828 24.0924 51.8138 22.3955 50.3079C22.1237 52.7945 21.7857 54.8918 21.7086 56.9964C21.6609 58.2379 21.8004 59.7255 23.3688 60.0928C24.8968 60.4491 26.0611 59.6116 26.917 58.3995C28.5845 56.0451 28.4853 52.497 26.4982 49.7789V49.7753ZM37.5724 19.2487C38.1858 14.4297 40.4594 10.5252 43.6036 7.0395C38.2336 9.79428 34.3879 13.8163 32.4265 19.8841C34.2961 19.6527 35.8975 19.4544 37.5724 19.2487ZM84.3375 45.8304C82.7728 47.1931 81.6121 50.3079 81.1897 53.7238C81.0355 54.9579 81.2999 55.9349 82.479 56.0598C83.1291 56.1296 84.1061 55.4868 84.5322 54.8808C86.3356 52.3096 86.1777 48.295 84.3412 45.8304H84.3375Z" fill="black"/>
<path d="M53.9137 60.7209C58.6703 60.7209 63.4306 60.7025 68.1871 60.7282C70.626 60.7429 70.9529 61.2682 71.0815 63.6189C71.2504 66.7079 71.6067 69.7933 72.0218 72.8603C72.2752 74.7335 71.9079 75.7326 70.2881 75.7693C63.5004 75.9272 57.1166 78.1127 50.5639 79.4681C47.71 80.0594 44.7862 80.4635 41.8809 80.5883C40.1876 80.6618 38.4135 80.1549 36.7827 79.5966C36.2391 79.4093 35.7212 78.2523 35.7212 77.5361C35.7138 72.9631 35.8204 68.3865 35.9673 63.8173C36.0334 61.731 37.554 60.383 39.644 60.383C44.4006 60.3793 49.1572 60.383 53.9174 60.383C53.9174 60.4968 53.9174 60.607 53.9174 60.7209H53.9137ZM67.1513 64.4564H39.677V76.7721C44.4887 77.1651 49.0947 76.0999 53.708 74.9943C58.3618 73.8814 63.0449 72.8933 67.7758 71.8355C67.5811 69.5252 67.3754 67.1156 67.1513 64.4527V64.4564Z" fill="black"/>
</svg>
