<svg width="53" height="35" viewBox="0 0 53 35" fill="none" xmlns="http://www.w3.org/2000/svg">
<path d="M39.8251 0.00204469C30.5234 -0.104677 23.3411 3.97325 17.7204 11.1536C14.2922 15.5348 11.7309 20.4328 9.20138 25.3514C8.81194 26.1059 8.96547 26.7407 9.69005 27.1994C10.439 27.6731 11.4463 27.5233 11.9612 26.8474C12.184 26.5534 12.3431 26.2089 12.5135 25.8794C14.7753 21.4851 17.0651 17.1076 20.1582 13.2188C23.4292 9.10716 27.2543 5.71637 32.4425 4.24286C38.4152 2.54841 44.2999 2.93597 50.0779 5.15467C51.3885 5.65833 52.0869 5.41307 52.4651 4.30278C52.7909 3.3479 52.5025 2.7656 51.5027 2.32747C47.7768 0.694811 43.8524 0.0507247 39.8232 0.00204469L39.8251 0.00204469Z" fill="black"/>
<path d="M3.06209 30.448C3.34481 28.9838 3.47588 27.6151 3.88217 26.3345C4.97186 22.9081 6.19073 19.5211 7.33659 16.1135C7.71854 14.977 7.23361 14.0371 6.16639 13.7955C5.45491 13.6345 4.81833 13.8161 4.56182 14.552C2.90856 19.2852 0.781606 23.8817 0.126294 28.9145C-0.0609377 30.3487 -0.0253695 31.8335 0.0850976 33.2808C0.201182 34.7993 1.68593 35.3591 2.858 34.406C4.6442 32.955 6.81797 32.7322 8.97114 32.4308C13.4591 31.7998 17.947 31.1744 22.4313 30.5266C23.4161 30.3843 23.886 29.7084 23.7662 28.7404C23.6501 27.7968 23.021 27.2426 22.0118 27.3774C19.4898 27.7144 16.9753 28.1113 14.4589 28.497C11.2685 28.9838 8.07803 29.4762 4.89134 29.9836C4.3465 30.0697 3.81851 30.2532 3.06209 30.4498L3.06209 30.448Z" fill="black"/>
</svg>
