<svg width="30" height="20" viewBox="0 0 30 20" fill="none" xmlns="http://www.w3.org/2000/svg">
<path d="M17.1965 11.6719C16.0387 11.6719 14.9184 11.6323 13.8013 11.6792C9.5454 11.8566 5.29059 12.0652 1.03474 12.255C0.293093 12.2884 0.0187574 12.0694 0.00102467 11.4894C-0.0198374 10.8114 0.276404 10.5235 1.02326 10.4891C6.317 10.2471 11.6097 10.003 16.9034 9.75992C17.0036 9.75575 17.1037 9.74115 17.2925 9.72237C17.2925 8.96612 17.3009 8.22553 17.2852 7.48701C17.2821 7.36288 17.1371 7.24501 17.1267 7.11879C17.1027 6.80691 17.0182 6.44391 17.1392 6.18522C17.5032 5.4029 17.4625 4.63725 17.2456 3.84345C17.2018 3.68177 17.135 3.46272 17.2049 3.34485C17.6336 2.62719 17.4584 1.82818 17.5408 1.06776C17.5888 0.62653 17.6649 0.246845 18.127 0.0674313C18.5787 -0.10781 18.9177 0.0820342 19.2588 0.366801C22.6885 3.22803 26.1224 6.08508 29.5594 8.93692C30.0778 9.36772 30.1467 9.90075 29.6793 10.4077C26.598 13.7477 23.2924 16.852 19.7876 19.7435C19.3307 20.12 18.756 20.072 18.3387 19.6652C18.2365 19.5661 18.1072 19.466 17.9737 19.4326C17.3468 19.2751 17.1611 19.0696 17.1642 18.4302C17.1715 16.3169 17.1861 14.2046 17.1986 12.0913C17.1986 11.9212 17.1986 11.7523 17.1986 11.6719H17.1965ZM22.2358 7.13549C22.2441 7.10002 22.2535 7.06455 22.2618 7.02909C21.2657 6.43765 20.2685 5.84516 19.1576 5.18592C19.2713 5.63654 18.8916 6.05588 19.4382 6.23842C20.3676 6.54822 21.3032 6.8382 22.2358 7.13653V7.13549ZM18.9959 16.2042V18.0693C19.3839 17.7459 19.7052 17.4789 20.0651 17.1785C19.7115 16.8561 19.3902 16.563 18.9959 16.2032V16.2042ZM25.1241 9.74115C25.1158 9.76514 25.1074 9.78913 25.0991 9.81312C25.6217 10.1886 26.1453 10.5631 26.6982 10.9595C26.9068 10.7227 27.1102 10.4922 27.3428 10.2283C26.9026 10.1292 26.5521 10.0489 26.2006 9.97167C25.8418 9.89344 25.4829 9.8173 25.1241 9.74115ZM23.5574 12.133C23.8964 12.4981 24.1822 12.8047 24.4774 13.1218C24.6902 12.907 24.8633 12.7317 25.0751 12.5168C24.5723 12.3896 24.1175 12.2748 23.5574 12.133ZM20.5804 14.1055C20.0056 13.8009 19.5467 13.5579 19.0658 13.3033C19.0543 13.7268 19.6019 14.0199 20.5804 14.1055Z" fill="#E91742"/>
</svg>
