<svg width="23" height="20" viewBox="0 0 23 20" fill="none" xmlns="http://www.w3.org/2000/svg">
<path d="M11.361 13.237C10.962 13.9247 10.5306 14.5456 10.2224 15.2199C9.28174 17.2775 7.63635 18.557 5.53034 19.3602C4.42666 19.7814 3.29703 20.0644 2.09684 19.9874C1.98899 19.9803 1.87951 19.9826 1.77409 19.9661C0.164379 19.7099 -0.408142 18.7 0.297372 17.2649C1.03857 15.7567 2.2493 14.6352 3.66276 13.7267C4.33421 13.2952 5.07946 12.973 5.78984 12.5989C5.91797 12.5313 6.08016 12.481 6.1572 12.3749C6.74188 11.563 7.54309 10.9877 8.3597 10.4258C8.41403 10.3888 8.46512 10.348 8.45539 10.355C8.12534 9.49287 7.72149 8.68573 7.50822 7.83457C6.58375 4.15014 8.94277 0.703852 12.7988 0.0845414C14.0468 -0.11587 15.2892 0.0421014 16.4504 0.536449C19.8531 1.9857 22.058 4.45508 22.8601 7.97996C23.6207 11.3233 21.1936 14.5236 17.6895 14.9684C15.5608 15.2388 13.6592 14.6525 11.8824 13.5663C11.7356 13.4767 11.5905 13.3832 11.3594 13.237H11.361ZM16.8632 13.5695C19.9204 13.5876 22.1326 11.1425 21.4442 8.25975C20.6876 5.09168 18.5978 2.91781 15.4554 1.74913C14.4669 1.38132 13.424 1.3436 12.3868 1.59824C12.2506 1.63125 12.1233 1.70984 12.0024 1.78293C11.8021 1.90396 11.627 2.08394 11.4113 2.15939C10.34 2.53506 9.65882 3.2534 9.32391 4.29632C9.08306 5.0461 9.09441 5.79351 9.38959 6.52757C9.54043 6.90246 9.52502 7.23097 9.22984 7.54456C9.15361 7.62551 9.12523 7.80549 9.15766 7.91787C10.0205 10.9531 13.5683 13.5506 16.8632 13.5703V13.5695ZM8.60379 15.0682C7.9218 14.6823 7.26332 14.3059 6.59835 13.9404C6.53185 13.9043 6.41345 13.9161 6.3356 13.9467C4.52803 14.6588 3.08294 15.8314 1.86005 17.2806C1.61109 17.5761 1.6192 17.9157 1.81139 18.2363C2.00196 18.5554 2.33282 18.6041 2.66368 18.5405C4.12824 18.2591 5.53927 17.8355 6.78243 16.9985C7.53336 16.4931 8.15129 15.8675 8.60379 15.069V15.0682ZM9.15847 13.6606C9.41149 12.9659 9.77911 12.5313 10.2613 12.3568C9.97752 12.0574 9.71316 11.7776 9.43663 11.4852C8.77166 11.864 8.12534 12.2263 7.66635 12.8661C8.19265 13.1459 8.67272 13.4013 9.15847 13.6606Z" fill="white"/>
</svg>
