<svg width="26" height="20" viewBox="0 0 26 20" fill="none" xmlns="http://www.w3.org/2000/svg">
<path d="M21.9275 15.5395C22.5999 15.9003 22.6801 16.222 22.2432 16.8413C20.9744 18.6372 19.1876 19.6344 17.0569 19.8599C12.7727 20.3128 8.63069 19.6815 4.74628 17.7633C3.80324 17.2973 2.97444 16.5998 2.10055 15.9965C1.75981 15.762 1.65859 15.4403 1.81593 15.0364C2.78302 12.5621 3.92851 10.1869 5.76949 8.22466C7.71972 6.14616 10.1921 5.42159 12.94 5.77035C17.7625 6.38167 21.1087 9.73092 21.8664 14.5524C21.9145 14.861 21.9064 15.1797 21.9275 15.5405V15.5395ZM9.1408 7.78271L9.03356 7.69652C5.89577 9.20679 4.67513 12.2023 3.26207 15.1406C3.90245 15.5535 4.46968 15.9594 5.07399 16.3012C7.08835 17.4396 9.29613 17.9698 11.563 18.2875C13.4281 18.549 15.2961 18.7525 17.1722 18.3897C18.8378 18.068 20.2228 17.3043 21.1839 15.8251C20.6718 15.6798 20.5275 15.323 20.4693 14.845C20.2649 13.1563 19.6245 11.6411 18.5422 10.3212C18.4249 10.1789 18.2956 10.0476 18.2656 10.0145C18.3708 10.9365 18.5873 11.9337 18.5772 12.9278C18.5552 15.1597 17.3516 16.715 15.3512 17.2512C13.8249 17.6601 12.3137 17.5709 10.8535 16.9696C9.38833 16.3663 8.32703 15.3541 7.98028 13.7607C7.55837 11.8184 7.77884 9.96042 8.88223 8.25673C8.97944 8.10641 9.05461 7.94205 9.13979 7.78371L9.1408 7.78271ZM9.51761 14.0763C9.57173 14.0713 9.62585 14.0663 9.67996 14.0613C9.95757 12.7054 9.92549 12.543 9.12175 11.8706C9.25404 12.6062 9.38533 13.3407 9.51761 14.0763ZM13.6486 16.0135C13.9292 15.9975 14.1476 15.9855 14.3441 15.9754V14.2086C14.1266 14.7718 13.9001 15.3601 13.6486 16.0135Z" fill="white"/>
<path d="M16.6651 5.20013C15.9485 5.21917 15.5797 4.68201 15.8233 4.17892C16.3133 3.16573 16.8134 2.15854 17.3195 1.15337C17.5129 0.768535 17.9058 0.629233 18.2866 0.7986C18.6985 0.981997 18.8057 1.3057 18.6213 1.69855C18.1363 2.73179 17.6472 3.76302 17.1251 4.77722C17.0189 4.98467 16.7623 5.11395 16.6661 5.20013H16.6651Z" fill="white"/>
<path d="M22.8776 6.05105C22.7994 6.14927 22.6841 6.38377 22.4957 6.50904C21.8183 6.96002 21.1218 7.38093 20.4222 7.79683C20.0164 8.03836 19.6566 7.94916 19.4301 7.58738C19.1956 7.21157 19.2717 6.80168 19.6636 6.54913C20.3621 6.10016 21.0666 5.66021 21.7842 5.2413C22.3143 4.93163 22.8996 5.30143 22.8766 6.05005L22.8776 6.05105Z" fill="white"/>
<path d="M0 7.98521C0.0130282 7.27166 0.544181 6.99106 1.05529 7.25864C1.74278 7.61842 2.44229 7.95514 3.15082 8.27183C3.53967 8.44521 3.68298 8.72281 3.58877 9.10764C3.49056 9.5055 3.22298 9.77609 2.79004 9.6879C1.82997 9.49247 0.959081 9.08158 0.223488 8.42817C0.08118 8.3019 0.0380835 8.06238 0.00100315 7.98521H0Z" fill="white"/>
<path d="M12.476 1.5412C12.3878 2.14751 12.3117 2.75583 12.2084 3.36014C12.1393 3.76902 11.8747 3.97146 11.4598 3.90532C11.0439 3.83917 10.7984 3.5736 10.8204 3.14868C10.8645 2.27278 10.9327 1.39688 11.0048 0.522991C11.0339 0.168223 11.2484 0.0128864 11.6071 0.000860328C12.0421 -0.0141722 12.3277 0.167221 12.3918 0.590137C12.4389 0.898805 12.4009 1.2195 12.4009 1.53518C12.4259 1.53719 12.451 1.54019 12.477 1.5422L12.476 1.5412Z" fill="white"/>
<path d="M23.8266 10.2792C24.2084 10.2792 24.5913 10.2762 24.9731 10.2792C25.4301 10.2822 25.6325 10.5458 25.6425 10.9737C25.6525 11.3866 25.5032 11.7173 25.0392 11.7294C24.2255 11.7514 23.4107 11.7514 22.5969 11.7294C22.147 11.7173 21.9566 11.4077 21.9646 10.9897C21.9726 10.5698 22.174 10.2912 22.629 10.2812C23.0279 10.2722 23.4267 10.2792 23.8256 10.2792H23.8266Z" fill="white"/>
<path d="M7.33889 4.52774C7.16952 4.68408 6.98212 4.97872 6.73057 5.05087C6.52713 5.11 6.13528 4.9737 6.02103 4.79832C5.57106 4.10683 5.18823 3.37023 4.8024 2.63965C4.60697 2.26985 4.7573 1.95617 5.082 1.7397C5.39668 1.52925 5.76247 1.52724 5.96391 1.85495C6.4229 2.59956 6.82577 3.38025 7.24668 4.14892C7.28477 4.21807 7.28678 4.30726 7.33889 4.52674V4.52774Z" fill="white"/>
</svg>
