<svg width="20" height="20" viewBox="0 0 20 20" fill="none" xmlns="http://www.w3.org/2000/svg">
<path d="M7.56704 11.6112V9.91374C7.14783 9.91374 6.74842 9.94879 6.35679 9.90674C5.32822 9.7967 4.30601 9.61728 3.27532 9.53458C2.42066 9.46589 1.55821 9.48762 0.698597 9.48481C0.214357 9.48341 0.00722888 9.34044 0.000159674 8.95216C-0.00690953 8.55757 0.220719 8.37184 0.689407 8.3424C2.3337 8.23937 3.95679 8.40408 5.57847 8.65569C6.21258 8.75451 6.86153 8.75942 7.55714 8.81128C7.55714 8.54145 7.55856 8.33609 7.55714 8.13074C7.55219 7.39483 7.55856 6.65892 7.53452 5.92371C7.52604 5.66649 7.40939 5.41278 7.3995 5.15556C7.39172 4.93899 7.41505 4.69019 7.51967 4.50936C7.64692 4.28999 7.89576 4.33204 8.12409 4.41475C9.31525 4.84648 10.3339 5.55435 11.2897 6.35895C12.3041 7.21261 13.3065 8.08028 14.3195 8.93674C14.5161 9.10284 14.7423 9.23461 14.9423 9.39651C15.2993 9.68526 15.3114 10.0497 14.9635 10.3469C12.7664 12.2238 10.6655 14.2016 8.66701 16.2853C8.48321 16.4767 8.28032 16.5881 8.00674 16.4788C7.71478 16.3624 7.61157 16.1367 7.61087 15.841C7.60945 14.8478 7.6038 13.8554 7.60026 12.8623C7.60026 12.7487 7.60026 12.6359 7.60026 12.5441C7.21004 12.5441 6.85022 12.5665 6.49464 12.5406C4.76339 12.4123 3.03497 12.4369 1.30867 12.6198C0.839274 12.6696 0.643457 12.5378 0.612353 12.1923C0.578421 11.8187 0.823015 11.5454 1.23586 11.4942C3.14949 11.2552 5.06525 11.2545 6.98241 11.4451C7.17328 11.4641 7.35779 11.5496 7.56704 11.6105V11.6112ZM8.7377 14.4981C10.4237 12.9247 12.0404 11.415 13.6791 9.88501C12.027 8.60453 10.6464 6.9638 8.7377 5.93493V14.4981Z" fill="white"/>
<path d="M17.9653 18.8907C18.0932 18.0835 18.2608 17.2832 18.3415 16.4739C18.6636 13.2464 18.5138 10.0085 18.4851 6.77472C18.4687 4.96193 18.3613 3.14984 18.2943 1.33705C18.2915 1.2684 18.2772 1.20043 18.2614 1.08115C18.1288 1.08115 17.9961 1.08115 17.8634 1.08115C14.6497 1.07769 11.4367 1.07422 8.22299 1.07075C8.10878 1.07075 7.99457 1.07769 7.88104 1.07075C7.56781 1.05064 7.39478 0.871719 7.39136 0.564502C7.38794 0.255205 7.52677 0.0568663 7.84137 0.0159503C7.95353 0.00277397 8.06843 0 8.18196 0C11.6692 0.0138698 15.1558 0.0270462 18.6431 0.0443835C19.0985 0.0464639 19.2661 0.227465 19.2969 0.696959C19.6081 5.48691 19.6128 10.2817 19.4911 15.0765C19.4535 16.5675 19.2476 18.044 18.8414 19.4843C18.7197 19.9157 18.5466 20.0343 18.1253 19.992C15.151 19.691 12.1698 19.58 9.18184 19.6522C8.99923 19.6563 8.81663 19.6646 8.63471 19.6577C8.31532 19.6452 8.13887 19.4725 8.13409 19.1653C8.1293 18.8616 8.25719 18.6515 8.57384 18.6064C8.69763 18.589 8.82347 18.5849 8.94862 18.5821C11.8792 18.5211 14.805 18.6071 17.7232 18.89C17.7779 18.8956 17.834 18.89 17.9646 18.89L17.9653 18.8907Z" fill="white"/>
</svg>
