<svg width="18" height="20" viewBox="0 0 18 20" fill="none" xmlns="http://www.w3.org/2000/svg">
<path d="M3.90836 8.71462C3.03443 7.169 2.82773 5.47654 3.36033 3.7317C3.83546 2.17405 4.82861 1.05176 6.3998 0.497049C6.52502 0.453256 6.6245 0.340769 6.742 0.272075C6.87322 0.194794 7.00787 0.0780125 7.14766 0.0677083C8.62966 -0.0404855 10.1074 -0.0911511 11.525 0.493611C13.5516 1.32911 14.5251 3.13234 14.1812 5.40699C14.0474 6.29486 13.7987 7.13122 13.1837 7.86367C13.4101 8.03026 13.6168 8.19856 13.8381 8.34368C15.9213 9.70383 17.0096 11.6805 17.369 14.0934C17.5114 15.05 17.5851 16.0168 17.6906 16.9794C17.6966 17.0344 17.6949 17.0928 17.7146 17.1426C18.0165 17.9017 17.9882 17.9815 17.2464 18.3336C14.7995 19.4945 12.2266 20.02 9.51389 19.9994C6.31661 19.9754 3.35861 19.1631 0.609023 17.5522C-0.106248 17.1331 -0.143126 16.9623 0.247957 16.2332C0.305419 16.1268 0.318283 15.9877 0.322572 15.8631C0.40662 13.6323 1.38604 11.7492 2.64334 9.98977C2.97611 9.52436 3.45553 9.16371 3.90836 8.71462ZM4.38435 5.52291C4.41008 6.34209 4.5636 7.12864 4.94953 7.86625C5.68967 9.28049 7.04046 9.74333 8.43155 9.27621C9.4144 8.94561 10.3244 8.37373 11.2292 7.84478C12.5774 7.05651 12.9779 5.77278 12.9067 4.29843C12.8484 3.09026 12.2901 2.17663 11.1288 1.77906C10.3981 1.52918 9.61166 1.43644 8.84664 1.29304C8.7463 1.27415 8.62452 1.37032 8.51302 1.41154C8.28746 1.49483 8.05847 1.65283 7.83463 1.64596C6.82004 1.61591 6.001 1.98943 5.3552 2.75452C4.68281 3.55052 4.40922 4.49249 4.38435 5.52291ZM3.30887 17.5015C4.34576 17.8158 5.31146 18.1086 6.29688 18.4074C6.43754 17.8561 6.55589 17.3933 6.68968 16.8669C6.29345 17.1778 5.9564 17.4371 5.62449 17.7033C5.32775 17.942 5.02501 18.0322 4.70511 17.7548C4.40408 17.4938 4.3895 17.1795 4.65536 16.7648C4.85348 16.4548 5.05674 16.1474 5.25742 15.8391C5.23255 15.8228 5.20682 15.8065 5.18195 15.7893C4.58504 16.3346 3.98812 16.8798 3.30887 17.4998V17.5015ZM9.4307 18.6573C9.83636 18.7998 10.0388 18.6564 10.1014 18.2606C10.128 18.0949 10.1983 17.9351 10.2515 17.7737C10.4058 17.3049 10.5619 16.8369 10.7163 16.3681C10.6974 16.362 10.6794 16.356 10.6605 16.3509C10.2557 17.11 9.85094 17.869 9.4307 18.6573ZM16.2764 15.7696C16.2335 15.7515 16.1906 15.7343 16.1477 15.7163C16.0354 16.2908 15.923 16.8661 15.7909 17.5436C16.11 17.401 16.2987 17.3169 16.4522 17.2491C16.3896 16.7218 16.333 16.2461 16.2764 15.7696ZM12.7772 11.2297C12.8106 11.2606 12.845 11.2907 12.8784 11.3216C13.188 10.8854 13.4968 10.4483 13.8201 9.9932C13.652 9.86097 13.5345 9.76823 13.4101 9.66948C13.1889 10.2156 12.9822 10.7231 12.7772 11.2297ZM1.62533 15.9215C1.67078 15.937 1.71709 15.9525 1.76255 15.9679C1.95294 15.5901 2.14248 15.2123 2.33459 14.831C2.13905 14.7022 2.00612 14.6146 1.83116 14.4996C1.7574 15.0122 1.69136 15.4664 1.62533 15.9215ZM16.0971 14.2866C16.0517 14.0814 16.0139 13.9114 15.959 13.6623C15.8081 13.9054 15.7 14.0779 15.5705 14.2866H16.0971Z" fill="white"/>
</svg>
