<svg width="351" height="351" viewBox="0 0 351 351" fill="none" xmlns="http://www.w3.org/2000/svg">
<g clip-path="url(#clip0_19_1751)">
<path opacity="0.18" d="M55.5703 117.255C45.265 119.438 34.5595 121.811 26.2899 128.333C19.305 133.836 8.42402 143.994 5.12462 152.25C-8.84519 187.111 6.94982 229.533 37.5991 251.232C52.0182 261.439 69.9824 266.374 82.9413 278.385C91.1337 285.981 96.876 296.04 105.595 303.025C118.336 313.218 135.535 315.479 151.815 316.567C163.124 317.332 174.875 317.662 185.363 313.366C192.945 310.256 199.375 304.928 205.679 299.677L247.455 264.787C254.166 259.185 260.442 250.27 269.182 250.326C347.848 250.888 353.148 158.308 232.418 117.304C221.776 113.689 214.482 103.643 204.486 98.4906C183.833 87.8482 160.07 91.2951 139.242 98.659C112.797 108.031 83.0115 111.414 55.5633 117.255H55.5703Z" fill="#276577"/>
<path opacity="0.05" d="M330.137 261.263C333.78 261.326 338.469 262.232 339.031 265.826C339.333 267.701 338.266 269.519 337.1 271.028C329.842 280.519 317.809 285.314 305.939 286.598C294.068 287.883 282.106 286.086 270.256 284.626C253.127 282.513 235.935 281.109 218.673 280.414C206.402 279.915 193.492 279.607 182.92 273.359C180.962 272.2 179.031 270.754 178.09 268.676C176.216 264.542 179.178 259.508 183.236 257.501C187.294 255.493 192.074 255.689 196.602 255.935C241.095 258.329 285.56 261.263 330.13 261.263H330.137Z" fill="#000405"/>
<path d="M254.426 131.477V253.436C254.426 259.859 249.21 265.068 242.787 265.068H60.386C53.9627 265.068 48.7469 259.859 48.7469 253.429V131.47C48.7469 125.047 53.9487 119.838 60.372 119.831H242.787C249.21 119.831 254.426 125.033 254.426 131.463V131.477Z" fill="#276577"/>
<path d="M251.274 123.559H51.597L53.2186 122.316C53.2959 122.253 53.3731 122.19 53.4503 122.134L148.431 49.3224L151.428 47.0269L248.073 121.116L251.267 123.566L251.274 123.559Z" fill="#276577"/>
<path d="M254.426 131.478L251.997 133.233L234.307 146.044L148.431 208.248L65.8406 144.64L48.7469 131.478L48.9645 129.217C49.3787 127.097 50.3825 125.139 51.8567 123.559C52.2709 123.11 52.7202 122.696 53.2046 122.316C53.2818 122.253 53.359 122.19 53.4362 122.134C55.444 120.639 57.8729 119.831 60.379 119.838H242.78C248.775 119.838 253.78 124.394 254.363 130.354C254.398 130.726 254.419 131.106 254.419 131.478H254.426Z" fill="#276577"/>
<path d="M234.314 122.471V146.051L202.618 168.985L195.353 174.264L148.438 208.248L104.31 174.264L97.4727 169.006L65.8336 144.668V122.471C65.8336 118.652 68.9294 115.556 72.7483 115.556H227.406C231.218 115.556 234.314 118.652 234.314 122.471Z" fill="white"/>
<path d="M211.084 143.145H86.1073C84.6542 143.145 83.4748 141.965 83.4748 140.512C83.4748 139.059 84.6542 137.88 86.1073 137.88H211.084C212.538 137.88 213.717 139.059 213.717 140.512C213.717 141.965 212.538 143.145 211.084 143.145Z" fill="url(#paint0_linear_19_1751)"/>
<path d="M211.084 158.708H86.1073C84.6542 158.708 83.4748 157.529 83.4748 156.076C83.4748 154.622 84.6542 153.443 86.1073 153.443H211.084C212.538 153.443 213.717 154.622 213.717 156.076C213.717 157.529 212.538 158.708 211.084 158.708Z" fill="url(#paint1_linear_19_1751)"/>
<path d="M202.618 169.006L195.346 174.264H104.31L97.4727 169.006H202.618Z" fill="url(#paint2_linear_19_1751)"/>
<path opacity="0.05" d="M148.431 208.248L72.2077 265.082H226.234L148.431 208.248Z" fill="#000405"/>
<path d="M82.6816 79.8103C78.8416 71.5759 64.4296 72.9307 64.4296 72.9307C73.3239 67.6868 71.618 54.3558 71.5127 53.5696C75.4018 65.1877 88.8311 62.6254 90.0315 62.3727C81.1161 64.5699 82.6816 79.8103 82.6816 79.8103Z" fill="#276577"/>
<path d="M57.6833 96.7003C55.2474 91.4704 46.0723 92.3269 46.0723 92.3269C51.8778 88.8801 50.558 79.9998 50.558 79.9998V80.0489C53.0501 87.3918 61.5654 85.7632 62.3236 85.6017C56.6795 87.0057 57.6763 96.6933 57.6763 96.6933L57.6833 96.7003Z" fill="#276577"/>
<path opacity="0.22" d="M49.0979 137.887L144.429 211.239L148.431 208.248L48.7469 131.478L49.0979 137.887Z" fill="white"/>
<path opacity="0.22" d="M151.59 210.761L254.426 136.742V131.695L148.431 208.452L151.59 210.761Z" fill="white"/>
<path opacity="0.22" d="M254.37 130.565L254.089 131.351L251.997 133.443C253.464 130.909 249.315 125.019 249.315 125.019L247.659 123.777L242.681 120.035L148.431 49.5331L151.428 47.2375L248.073 121.32C251.611 123.124 253.984 126.613 254.37 130.572V130.565Z" fill="white"/>
<path d="M330.291 96.7567C330.291 96.7567 314.454 117.234 311.449 120.667C305.967 126.901 302.436 135.079 302.436 135.079L294.475 168.936L285.581 166.564L266.248 161.418C266.248 161.418 273.12 142.913 269.793 137.29C265.356 129.8 269.196 125.118 270.207 121.902C272.081 115.942 262.52 105.054 262.52 105.054L256.391 77.6132L265.644 76.3777L272.355 98.6241L283.854 108.887L292.046 109.323C292.046 109.323 298.224 110.593 302.716 108.515C307.013 106.522 322.19 89.4068 322.19 89.4068L328.382 95.0228L330.291 96.7567Z" fill="#276577"/>
<path d="M303.215 80.9828C304.345 80.0772 305.777 79.6209 307.223 79.7192C308.283 79.6771 309.315 80.0351 310.123 80.7231C310.747 81.418 311.14 82.2885 311.253 83.2152C311.484 84.3664 311.569 85.5388 311.513 86.7041C311.407 88.8522 310.853 91.1267 311.779 93.0712C311.997 93.5346 312.299 93.9558 312.657 94.3138C313.078 94.7841 313.661 95.0719 314.285 95.1211C314.931 95.1492 315.5 94.7069 315.626 94.0751C314.503 96.5812 311.562 97.6974 309.056 96.5742C309.056 96.5742 309.041 96.5742 309.034 96.5672C308.648 96.3917 308.283 96.1671 307.946 95.9003L308.761 97.55C308.087 97.3745 307.434 97.1288 306.816 96.8129C304.829 95.7318 303.713 93.5346 303.187 91.3162C302.716 89.2804 302.625 87.1815 302.183 85.1316C301.86 83.5732 301.944 82.113 303.215 80.9828Z" fill="#231F20"/>
<path d="M302.618 83.2292C303.025 83.2152 303.425 83.2783 303.805 83.4117C304.45 83.6785 304.893 84.2822 304.949 84.9772C304.984 85.6792 304.605 86.332 303.973 86.6479C303.573 86.8094 303.145 86.8866 302.709 86.8656C302.316 86.8656 301.916 86.8656 301.523 86.8305C301.27 86.8515 301.039 86.683 300.983 86.4373C300.723 85.9249 300.533 85.3914 300.407 84.8298C300.084 83.1099 301.242 83.2081 302.611 83.2222L302.618 83.2292Z" fill="#276577"/>
<path d="M294.994 99.663C294.994 99.663 294.917 101.018 294.826 102.773C294.749 104.254 294.65 106.051 294.566 107.539C294.433 110.06 293.352 112.432 291.541 114.187C290.481 115.268 287.96 117.283 286.037 116.567C285.103 116.223 285.068 115.044 285.265 114.335C285.7 113.043 285.939 111.702 285.981 110.34C286.009 109.238 285.911 108.143 285.686 107.062C284.485 104.051 294.994 99.656 294.994 99.656V99.663Z" fill="#FFB4A3"/>
<path d="M294.994 99.663C294.994 99.663 294.917 101.018 294.826 102.773C294.089 104.423 293.394 105.763 293.015 106.43C292.25 107.785 289.119 109.912 285.995 110.34C286.023 109.238 285.925 108.143 285.7 107.062C284.486 104.051 294.994 99.656 294.994 99.656V99.663Z" fill="#E2897A"/>
<path d="M285.84 81.7407C280.295 82.0777 276.076 86.8443 276.405 92.3901C276.405 92.6288 276.441 92.8604 276.476 93.0991C276.792 97.1918 277.838 101.186 279.572 104.907C282.85 110.523 291.155 105.904 292.467 103.594C293.78 101.284 298.827 90.8527 296.707 87.8973C295.247 85.9036 291.197 81.5301 285.833 81.7407H285.84Z" fill="#FFB4A3"/>
<path d="M282.892 76.0337C286.416 75.0017 290.172 75.114 293.633 76.3496C297.037 77.6412 299.972 80.3018 301.263 83.6995C302.38 86.8515 302.267 90.3123 300.961 93.3871C299.642 96.4408 297.543 99.0944 294.875 101.074C294.187 98.968 296.307 97.0937 297.129 95.0438C297.318 94.6647 297.36 94.2295 297.248 93.8153C296.946 93.0501 295.809 92.9659 295.156 93.4643C294.503 93.9627 294.222 94.7981 293.984 95.5773C294.615 92.2288 295.086 88.2976 292.713 85.8476C291.309 84.3945 289.189 83.8539 287.167 83.8329C283.411 83.8188 279.824 85.3632 277.248 88.094C276.504 88.8943 275.444 89.8771 274.503 89.3225C274.208 89.1189 273.977 88.8381 273.836 88.5152C271.042 82.9835 278.378 77.2551 282.892 76.0196V76.0337Z" fill="#231F20"/>
<path d="M287.413 82.2181C285.075 81.1862 282.618 80.3438 280.077 80.3438C277.536 80.3438 274.903 81.2072 273.218 83.1167C272.341 84.1837 271.702 85.4192 271.344 86.753C271.063 87.5884 270.951 88.4659 271.014 89.3434C271.112 89.9822 271.274 90.607 271.485 91.2177C271.927 92.7341 272.109 94.4961 271.155 95.7667C270.797 96.2792 270.221 96.6021 269.589 96.6372C268.95 96.6512 268.396 96.1809 268.304 95.5491C267.89 96.7144 268.564 98.0833 269.638 98.694C270.754 99.2626 272.06 99.3258 273.225 98.8695C273.71 98.7151 274.159 98.4694 274.552 98.1465C274.938 97.7744 275.254 97.3392 275.486 96.8618C276.462 95.0857 276.953 93.1202 277.683 91.2037C278.413 89.2872 279.473 87.462 281.2 86.381C282.569 85.6368 284.106 85.2507 285.665 85.2718C287.216 85.2227 288.775 85.349 290.319 85.2086C291.864 85.0682 290.747 84.1486 290.08 83.6712C289.238 83.1026 288.347 82.6182 287.406 82.2321L287.413 82.2181Z" fill="#231F20"/>
<path d="M350.277 65.4333C350.677 65.7422 346.949 68.6415 346.949 68.6415C346.949 68.6415 345.209 71.639 343.439 72.4744C341.67 73.3098 328.375 95.0086 328.375 95.0086L323.131 90.2561L334.447 75.0297C334.447 75.0297 338.189 67.8552 337.774 64.7313C337.774 64.7313 337.999 61.0458 339.129 62.7587C339.922 63.9802 339.417 65.9037 340.358 66.1072C340.463 66.1143 340.568 66.0932 340.66 66.0441C341.439 65.5737 342.155 64.9981 342.787 64.3382C344.661 62.5551 346.893 60.0771 346.893 60.0771C346.893 60.0771 348.122 59.5576 347.967 60.0771C347.813 60.5966 345.56 64.0995 345.433 64.2891C345.644 64.0995 349.098 61.0107 349.645 61.2494C350.193 61.4881 346.971 65.0402 346.781 65.2438C346.985 65.1034 350.663 62.5411 350.944 62.7657C351.463 63.201 348.136 66.0862 347.862 66.3108C348.073 66.1985 349.905 65.1244 350.284 65.4263L350.277 65.4333Z" fill="#FFB4A3"/>
<path d="M346.332 67.6588C346.051 67.7501 345.756 67.7712 345.468 67.729C344.528 67.6588 343.58 67.6448 342.632 67.6799C341.993 67.708 340.681 68.1502 340.646 67.1604C340.646 66.9007 340.709 66.6409 340.695 66.3812C340.695 66.2689 340.674 66.1566 340.646 66.0442C341.425 65.5739 342.141 64.9983 342.773 64.3384C343.06 64.4367 343.327 64.57 343.58 64.7455L345.426 65.9389C345.756 66.1566 346.079 66.3672 346.395 66.6058C346.535 66.6901 346.648 66.8164 346.711 66.9639C346.774 67.2587 346.605 67.5535 346.325 67.6588H346.332Z" fill="#FFB4A3"/>
<path d="M254.931 41.067C254.426 41.1231 256.062 45.5527 256.062 45.5527C256.062 45.5527 255.956 49.0206 256.995 50.6563C258.034 52.292 257.929 77.4095 257.929 77.4095L264.893 76.4759L263.313 57.564C263.313 57.564 263.917 49.491 265.918 47.062C265.918 47.062 267.666 43.8118 265.812 44.6682C264.493 45.286 263.91 47.1884 263.004 46.8655C262.906 46.8234 262.829 46.7461 262.787 46.6479C262.358 45.8335 262.05 44.9701 261.853 44.0785C261.193 41.5724 260.61 38.287 260.61 38.287C260.61 38.287 259.859 37.213 259.74 37.7325C259.621 38.2519 259.663 42.4148 259.663 42.6535C259.586 42.3867 258.259 37.929 257.676 37.8518C257.093 37.7746 257.95 42.485 258.006 42.7588C257.901 42.5341 256.132 38.4134 255.767 38.4625C255.1 38.5608 256.427 42.7798 256.525 43.0957C256.391 42.8922 255.409 41.0248 254.931 41.067Z" fill="#FFB4A3"/>
<path d="M257.079 45.0403C257.276 45.2649 257.522 45.4404 257.795 45.5527C258.631 45.995 259.445 46.4794 260.231 47.0129C260.758 47.3709 261.635 48.452 262.19 47.6166C262.337 47.399 262.408 47.1463 262.562 46.9286C262.632 46.8374 262.702 46.7461 262.78 46.6619C262.351 45.8476 262.043 44.9841 261.846 44.0926C261.551 44.0224 261.249 44.0013 260.947 44.0153L258.75 44.0575C258.357 44.0504 257.964 44.0645 257.571 44.1066C257.402 44.1066 257.241 44.1557 257.1 44.247C256.897 44.4646 256.89 44.8086 257.079 45.0403Z" fill="#FFB4A3"/>
<path d="M313.745 263.053L310.137 265.075L279.242 232.601L275.837 189.245L247.666 214.798C247.666 214.798 248.417 232.39 238.568 246.156C236.806 248.62 233.211 255.788 230.495 261.39C230.41 261.565 230.326 261.741 230.249 261.916L229.722 261.811L227.883 261.425L223.889 260.603L236.834 208.276L266.255 161.439L285.588 166.585L294.482 168.957C294.482 168.957 300.484 180.983 294.482 212.102L290.502 229.919C290.502 229.919 306.535 238.469 311.477 255.388L313.71 263.046H313.731L313.745 263.053Z" fill="#231F20"/>
<path d="M230.249 261.895C228.375 265.721 227.013 268.69 227.013 268.69L203.454 269.814C203.454 269.814 207.357 259.48 213.71 262.155C215.858 263.053 223.643 261.361 223.643 261.361L223.889 260.582L230.249 261.895Z" fill="url(#paint3_linear_19_1751)"/>
<path d="M313.745 263.053L317.409 266.886L308.101 276.588H295.928C295.928 276.588 298.518 272.306 303.706 271.625C308.894 270.944 310.13 265.075 310.13 265.075L313.731 263.06L313.745 263.053Z" fill="url(#paint4_linear_19_1751)"/>
<path d="M330.291 96.7566C330.291 96.7566 314.454 117.234 311.449 120.667C305.967 126.901 302.436 135.079 302.436 135.079L294.475 168.936L285.581 166.564C285.581 166.564 293.885 135.514 297.22 128.929C300.554 122.338 328.368 95.0227 328.368 95.0227L330.284 96.7566H330.291Z" fill="url(#paint5_linear_19_1751)"/>
<path d="M313.717 263.039C313.555 262.569 308.269 247.89 300.337 241.741C292.278 235.486 287.602 226.858 287.602 226.858C285.728 210.291 285.574 166.563 285.574 166.563L294.468 168.936C294.468 168.936 300.47 180.961 294.468 212.081L290.488 229.898C290.488 229.898 306.521 238.469 311.463 255.388L313.717 263.046V263.039Z" fill="#25233A"/>
<path d="M247.666 214.791C247.666 214.791 248.417 232.383 238.568 246.149C236.806 248.613 233.211 255.781 230.495 261.383L229.715 261.797L227.876 261.411L243.145 213.254C243.145 213.254 261.635 191.344 265.033 189.245C268.424 187.146 275.837 189.245 275.837 189.245L247.659 214.791H247.666Z" fill="#25233A"/>
</g>
<defs>
<linearGradient id="paint0_linear_19_1751" x1="155.437" y1="107.722" x2="121.27" y2="271.54" gradientUnits="userSpaceOnUse">
<stop stop-color="#231F20" stop-opacity="0"/>
<stop offset="1" stop-color="#231F20"/>
</linearGradient>
<linearGradient id="paint1_linear_19_1751" x1="158.547" y1="108.361" x2="124.38" y2="272.186" gradientUnits="userSpaceOnUse">
<stop stop-color="#231F20" stop-opacity="0"/>
<stop offset="1" stop-color="#231F20"/>
</linearGradient>
<linearGradient id="paint2_linear_19_1751" x1="162.52" y1="109.196" x2="128.354" y2="273.022" gradientUnits="userSpaceOnUse">
<stop stop-color="#231F20" stop-opacity="0"/>
<stop offset="1" stop-color="#231F20"/>
</linearGradient>
<linearGradient id="paint3_linear_19_1751" x1="214.882" y1="257.634" x2="218.49" y2="272.671" gradientUnits="userSpaceOnUse">
<stop stop-color="#67DDF9"/>
<stop offset="0.12" stop-color="#5CB3CE"/>
<stop offset="0.24" stop-color="#538EA9"/>
<stop offset="0.37" stop-color="#4C718B"/>
<stop offset="0.5" stop-color="#465A73"/>
<stop offset="0.63" stop-color="#424A63"/>
<stop offset="0.79" stop-color="#404059"/>
<stop offset="0.99" stop-color="#3F3D56"/>
</linearGradient>
<linearGradient id="paint4_linear_19_1751" x1="303.833" y1="267.764" x2="309.849" y2="276.181" gradientUnits="userSpaceOnUse">
<stop stop-color="#67DDF9"/>
<stop offset="0.12" stop-color="#5CB3CE"/>
<stop offset="0.24" stop-color="#538EA9"/>
<stop offset="0.37" stop-color="#4C718B"/>
<stop offset="0.5" stop-color="#465A73"/>
<stop offset="0.63" stop-color="#424A63"/>
<stop offset="0.79" stop-color="#404059"/>
<stop offset="0.99" stop-color="#3F3D56"/>
</linearGradient>
<linearGradient id="paint5_linear_19_1751" x1="289.049" y1="89.856" x2="355.991" y2="237.992" gradientUnits="userSpaceOnUse">
<stop stop-color="#231F20" stop-opacity="0"/>
<stop offset="1" stop-color="#231F20"/>
</linearGradient>
<clipPath id="clip0_19_1751">
<rect width="351" height="351" fill="white"/>
</clipPath>
</defs>
</svg>
