<svg width="352" height="351" viewBox="0 0 352 351" fill="none" xmlns="http://www.w3.org/2000/svg">
<g clip-path="url(#clip0_19_1654)">
<path opacity="0.05" d="M57.7421 280.891C57.7421 280.891 22.1408 283.271 17.0157 286.676C11.8976 290.081 51.9974 290.825 115.991 288.908C179.985 286.992 229.258 288.908 264.148 292.418C299.038 295.928 346.361 295.247 347.016 286.655C347.67 278.062 260.628 277.957 260.628 277.957L57.7421 280.891Z" fill="#000405"/>
<path opacity="0.18" d="M140.378 50.0315C130.303 59.34 122.834 71.3091 112.126 79.8735C94.0192 94.3769 69.4496 97.2621 48.1606 106.5C34.0806 112.608 20.7258 122.288 14.4954 136.286C9.46176 147.638 10.1024 161.011 15.3331 172.222C20.409 183.145 19.5923 195.886 13.1648 206.072C5.41376 218.322 0.739199 232.313 1.49248 246.676C2.66112 268.775 19.4867 290.579 41.5923 292.615C49.1814 293.317 56.8058 291.779 64.3174 290.403C109.683 282.127 157.696 280 200.851 296.202C212.678 300.646 224.062 306.437 236.361 309.357C250.723 312.769 265.697 312.123 280.46 311.456C303.494 310.417 330.373 307.202 342.137 287.42C358.442 259.993 332.471 225.756 336.16 194.096C338.202 176.602 349.268 161.214 351.599 143.77C354.133 124.809 345.115 104.766 329.233 94.0399C307.176 79.1505 276.672 82.7658 253.898 68.9785C235.882 58.0694 223.492 36.7567 202.252 30.9512C181.414 25.265 155.57 36.0196 140.406 50.0175L140.378 50.0315Z" fill="#276577"/>
<path opacity="0.11" d="M44.5139 240.491C42.2822 225.23 36.967 210.544 34.8198 195.268C32.6656 179.993 34.1651 163.201 43.9789 151.295C50.3782 143.524 59.5795 138.68 68.5766 134.138C76.5741 130.095 84.8109 126.065 93.7094 124.97C101.552 124.022 109.465 125.37 117.308 126.311C132.063 128.073 147.094 128.304 161.737 125.798C180.858 122.492 198.943 114.924 217.635 109.8C235.946 104.759 254.067 102.19 274.539 111.688C288.689 118.259 299.13 131.983 302.516 147.153C307.986 171.66 295.631 198.82 306.022 221.685C308.95 228.122 313.505 233.675 317.222 239.698C321.791 247.125 325.093 255.261 326.98 263.762C327.628 266.69 328.106 269.779 327.276 272.657C325.142 280.035 315.997 282.485 308.31 283.095C282.74 285.11 257.185 280.351 231.679 277.585C190.277 273.099 148.495 273.892 107.015 276.981C96.8634 277.739 86.7187 278.617 76.5811 279.628C68.4006 280.428 52.8704 285.3 45.1616 282.983C36.5658 280.386 42.2048 274.763 44.0282 266.697C45.9782 258.132 45.7811 249.119 44.5139 240.498V240.491Z" fill="#276577"/>
<path d="M309.619 204.556C309.619 204.556 308.296 215.535 299.791 216.616H262.423L257.108 155.661H296.461C299.636 155.661 306.148 159.073 307.451 163.91C307.627 164.801 307.74 165.707 307.796 166.62C308.669 175.998 309.619 204.563 309.619 204.563V204.556Z" fill="#276577"/>
<path d="M69.3088 161.334L65.7888 159.803C64.6906 159.326 64.1837 158.048 64.6624 156.953C65.0074 156.16 65.7888 155.647 66.6547 155.654H257.101C261.867 155.612 266.394 157.732 269.4 161.425C270.639 162.92 271.455 164.717 271.772 166.627C272.631 172.334 272.103 197.192 271.864 206.521C271.737 211.59 267.992 215.977 262.944 216.581L262.402 216.63H77.9539L69.3158 161.327L69.3088 161.334Z" fill="#276577"/>
<path d="M69.3088 161.334L65.7888 159.803C64.6906 159.326 64.1837 158.048 64.6624 156.953C65.0074 156.16 65.7888 155.647 66.6547 155.654H257.101C261.867 155.612 266.394 157.732 269.4 161.425C270.639 162.92 271.455 164.717 271.772 166.627C272.631 172.334 272.103 197.192 271.864 206.521C271.737 211.59 267.992 215.977 262.944 216.581L262.402 216.63H77.9539L69.3158 161.327L69.3088 161.334Z" fill="#276577"/>
<path opacity="0.61" d="M59.7626 216.658H263.092C264.556 216.658 265.746 215.479 265.746 214.012C265.746 212.552 264.556 211.365 263.092 211.365H59.7626C58.2982 211.365 57.1085 212.552 57.1085 214.012C57.1085 215.472 58.2982 216.658 59.7626 216.658Z" fill="url(#paint0_linear_19_1654)"/>
<path d="M59.7626 216.658H263.092C264.556 216.658 265.746 215.479 265.746 214.012C265.746 212.552 264.556 211.365 263.092 211.365H59.7626C58.2982 211.365 57.1085 212.552 57.1085 214.012C57.1085 215.472 58.2982 216.658 59.7626 216.658Z" fill="#276577"/>
<path d="M210.165 210.102H258.769C256.707 211.126 254.433 211.66 252.131 211.653H71.4067C68.4218 211.681 65.5002 210.789 63.0432 209.098C62.3462 208.62 61.6986 208.073 61.1142 207.469C60.9242 207.272 60.7411 207.069 60.5651 206.865C59.9034 206.093 59.3402 205.244 58.8896 204.338C58.791 204.142 58.6925 203.938 58.608 203.734C58.256 202.927 58.0026 202.078 57.8477 201.207C57.8125 201.011 57.7843 200.807 57.7562 200.603C57.6998 200.133 57.6717 199.656 57.6717 199.185V173.815C57.6717 173.548 57.6717 173.275 57.6998 173.008C57.728 172.741 57.735 172.608 57.7562 172.404C57.8618 171.541 58.0659 170.691 58.3686 169.877C58.4461 169.673 58.5235 169.477 58.608 169.273C58.9952 168.375 59.488 167.525 60.0864 166.746L60.5581 166.142C60.9101 165.735 61.2832 165.349 61.6845 164.991C64.3597 162.611 67.8234 161.32 71.4067 161.348H252.124C254.961 161.348 257.741 162.162 260.121 163.713H210.158C209.398 163.713 208.637 163.805 207.898 163.987C206.385 164.345 204.991 165.103 203.864 166.184C203.667 166.374 203.477 166.578 203.301 166.788C202.668 167.532 202.182 168.389 201.879 169.315C201.809 169.512 201.759 169.715 201.71 169.919C201.583 170.453 201.52 171 201.52 171.548V202.316C201.52 202.794 201.569 203.271 201.668 203.734C201.71 203.938 201.759 204.135 201.823 204.338C202.09 205.258 202.541 206.121 203.139 206.865C203.301 207.076 203.477 207.272 203.667 207.469C204.484 208.311 205.462 208.971 206.547 209.421C207.687 209.898 208.919 210.13 210.158 210.123L210.165 210.102Z" fill="#276577"/>
<path d="M265.866 173.991V199.663C265.866 199.81 265.866 199.951 265.837 200.098C265.809 200.238 265.837 200.386 265.802 200.526C265.774 200.653 265.76 200.786 265.753 200.919C265.753 201.046 265.718 201.123 265.704 201.221C265.704 201.27 265.69 201.327 265.676 201.376C265.654 201.516 265.626 201.656 265.591 201.79C265.556 201.923 265.549 201.972 265.521 202.057C265.492 202.141 265.478 202.232 265.45 202.323C265.422 202.415 265.401 202.513 265.373 202.604L265.274 202.892C265.26 202.976 265.239 203.053 265.197 203.124C265.169 203.201 265.119 203.327 265.077 203.425L264.95 203.734C264.929 203.791 264.901 203.847 264.873 203.903C264.845 203.98 264.81 204.057 264.767 204.135C264.739 204.198 264.704 204.268 264.669 204.331C264.634 204.394 264.57 204.535 264.514 204.626C264.458 204.717 264.352 204.935 264.26 205.096L264.113 205.335C263.979 205.553 263.845 205.763 263.697 205.967C263.62 206.072 263.542 206.177 263.472 206.276C263.317 206.479 263.162 206.676 263 206.865C262.838 207.055 262.641 207.272 262.444 207.469C262.057 207.862 261.642 208.234 261.205 208.578C261.198 208.592 261.184 208.599 261.17 208.606C261.029 208.719 260.888 208.824 260.74 208.929L260.269 209.252L259.797 209.554C259.642 209.645 259.494 209.736 259.325 209.821L258.783 210.109H210.186C208.947 210.109 207.722 209.87 206.575 209.392C205.491 208.95 204.512 208.29 203.695 207.455C203.512 207.265 203.336 207.062 203.167 206.851C202.569 206.107 202.118 205.251 201.851 204.338C201.788 204.142 201.738 203.945 201.696 203.741C201.597 203.278 201.548 202.801 201.548 202.323V171.674C201.548 171.126 201.612 170.586 201.738 170.052C201.78 169.849 201.837 169.645 201.907 169.449C202.21 168.529 202.696 167.673 203.329 166.936C203.505 166.725 203.695 166.521 203.892 166.332C205.019 165.265 206.413 164.507 207.926 164.149C208.666 163.966 209.426 163.882 210.186 163.882H260.149C260.367 164.022 260.586 164.17 260.797 164.324L261.036 164.507C261.367 164.752 261.684 165.012 261.987 165.293L262.247 165.539L262.437 165.728L262.691 165.995L262.944 166.276L262.993 166.339L263.028 166.388C263.183 166.571 263.331 166.76 263.472 166.943C263.549 167.034 263.62 167.139 263.69 167.23C263.69 167.244 263.704 167.258 263.718 167.265C263.845 167.448 263.972 167.631 264.092 167.82L264.296 168.15C264.422 168.361 264.535 168.578 264.648 168.789C264.697 168.901 264.753 169.006 264.81 169.112C264.866 169.217 264.915 169.336 264.957 169.449C265 169.561 265.049 169.645 265.084 169.751C265.119 169.856 265.162 169.947 265.197 170.045L265.302 170.34C265.443 170.747 265.563 171.169 265.647 171.59C265.661 171.646 265.676 171.702 265.683 171.758C265.69 171.857 265.711 171.962 265.739 172.053C265.739 172.151 265.788 172.39 265.816 172.552C265.844 172.713 265.866 172.952 265.873 173.155V173.478C265.873 173.605 265.887 173.801 265.887 173.963L265.866 173.991Z" fill="url(#paint1_linear_19_1654)"/>
<path d="M206.554 209.379C205.484 209.638 204.378 209.877 203.238 210.095H74.3846C70.583 210.123 66.7814 209.786 63.0432 209.091C62.3462 208.613 61.6986 208.066 61.1142 207.462C60.9242 207.265 60.7411 207.062 60.5651 206.858C59.9034 206.086 59.3402 205.237 58.8896 204.331C58.791 204.135 58.6925 203.931 58.608 203.727C58.256 202.92 58.0026 202.071 57.8477 201.2C57.8125 201.004 57.7843 200.8 57.7562 200.596C57.6998 200.126 57.6717 199.649 57.6717 199.178V173.808C57.6717 173.541 57.6717 173.268 57.6998 173.001C57.728 172.734 57.735 172.601 57.7562 172.397C57.8618 171.534 58.0659 170.684 58.3686 169.87C58.4461 169.666 58.5235 169.47 58.608 169.266C58.9952 168.368 59.488 167.518 60.0864 166.739L60.5581 166.135C60.9101 165.728 61.2832 165.342 61.6845 164.984C65.8592 164.085 70.1184 163.65 74.3917 163.685H206.842L207.905 163.959C206.392 164.317 204.998 165.075 203.871 166.156C203.674 166.346 203.484 166.549 203.308 166.76C202.675 167.504 202.189 168.361 201.886 169.287C201.816 169.484 201.766 169.687 201.717 169.891C201.59 170.425 201.527 170.972 201.527 171.52V202.288C201.527 202.766 201.576 203.243 201.675 203.706C201.717 203.91 201.766 204.106 201.83 204.31C202.097 205.23 202.548 206.093 203.146 206.837C203.308 207.048 203.484 207.244 203.674 207.441C204.491 208.283 205.469 208.95 206.554 209.393V209.379Z" fill="#276577"/>
<path d="M206.554 209.379C205.484 209.638 204.378 209.877 203.238 210.095H74.3846C70.583 210.123 66.7814 209.786 63.0432 209.091C62.3462 208.613 61.6986 208.066 61.1142 207.462C60.9242 207.265 60.7411 207.062 60.5651 206.858C59.9034 206.086 59.3402 205.237 58.8896 204.331C58.791 204.135 58.6925 203.931 58.608 203.727C58.256 202.92 58.0026 202.071 57.8477 201.2C57.8125 201.004 57.7843 200.8 57.7562 200.596C57.6998 200.126 57.6717 199.649 57.6717 199.178V173.808C57.6717 173.541 57.6717 173.268 57.6998 173.001C57.728 172.734 57.735 172.601 57.7562 172.397C57.8618 171.534 58.0659 170.684 58.3686 169.87C58.4461 169.666 58.5235 169.47 58.608 169.266C58.9952 168.368 59.488 167.518 60.0864 166.739L60.5581 166.135C60.9101 165.728 61.2832 165.342 61.6845 164.984C65.8592 164.085 70.1184 163.65 74.3917 163.685H206.842L207.905 163.959C206.392 164.317 204.998 165.075 203.871 166.156C203.674 166.346 203.484 166.549 203.308 166.76C202.675 167.504 202.189 168.361 201.886 169.287C201.816 169.484 201.766 169.687 201.717 169.891C201.59 170.425 201.527 170.972 201.527 171.52V202.288C201.527 202.766 201.576 203.243 201.675 203.706C201.717 203.91 201.766 204.106 201.83 204.31C202.097 205.23 202.548 206.093 203.146 206.837C203.308 207.048 203.484 207.244 203.674 207.441C204.491 208.283 205.469 208.95 206.554 209.393V209.379Z" fill="url(#paint2_linear_19_1654)"/>
<path d="M262.423 211.983C262.043 212.425 261.628 212.832 261.184 213.211C261.62 212.832 262.036 212.418 262.423 211.983Z" fill="url(#paint3_linear_19_1654)"/>
<path d="M265.866 173.991V199.944C265.866 200.126 265.852 200.309 265.816 200.491C265.732 201.27 265.563 202.036 265.316 202.78C265.26 202.962 265.197 203.145 265.126 203.32C263.93 206.29 261.67 208.705 258.783 210.102H201.999C197.62 210.102 194.001 207.153 193.466 203.327C193.431 203.145 193.417 202.962 193.41 202.78C193.396 202.625 193.382 202.464 193.389 202.309V171.688C193.389 167.378 197.247 163.896 202.02 163.896H260.128C263.62 166.149 265.873 169.849 265.873 173.991H265.866Z" fill="#276577"/>
<path d="M263.444 166.732H203.308C203.484 166.521 203.674 166.318 203.871 166.128H262.944C263.127 166.318 263.289 166.521 263.444 166.732Z" fill="white"/>
<path d="M265.169 169.849H201.724C201.766 169.645 201.823 169.442 201.893 169.245H264.957C265.021 169.463 265.098 169.666 265.169 169.849Z" fill="white"/>
<path d="M265.844 172.994H201.534V172.39H265.795C265.795 172.587 265.83 172.79 265.844 172.994Z" fill="white"/>
<path d="M265.873 175.521H201.534V176.125H265.873V175.521Z" fill="white"/>
<path d="M265.873 178.652H201.534V179.256H265.873V178.652Z" fill="white"/>
<path d="M265.873 181.783H201.534V182.387H265.873V181.783Z" fill="white"/>
<path d="M265.873 184.914H201.534V185.518H265.873V184.914Z" fill="white"/>
<path d="M265.873 188.045H201.534V188.648H265.873V188.045Z" fill="white"/>
<path d="M265.873 191.176H201.534V191.779H265.873V191.176Z" fill="white"/>
<path d="M265.873 194.307H201.534V194.91H265.873V194.307Z" fill="white"/>
<path d="M265.873 197.438H201.534V198.041H265.873V197.438Z" fill="white"/>
<path d="M265.88 200.583V201.186H201.534V200.583H265.88Z" fill="white"/>
<path d="M264.936 203.699C264.936 203.903 264.676 204.099 264.655 204.303H201.83C201.766 204.106 201.717 203.903 201.675 203.699H264.929H264.936Z" fill="white"/>
<path d="M205.617 166.732H60.0794L60.551 166.128H204.463C204.864 166.325 205.244 166.535 205.617 166.732Z" fill="white"/>
<path d="M204.308 169.849H58.3546C58.432 169.645 58.5094 169.449 58.5939 169.245H203.731C203.935 169.435 204.125 169.638 204.308 169.849Z" fill="white"/>
<path d="M205.92 172.994H57.6928C57.6928 172.79 57.7139 172.594 57.7491 172.39H205.772C205.836 172.587 205.885 172.79 205.927 172.994H205.92Z" fill="white"/>
<path d="M205.99 175.521H57.6576V176.125H205.99V175.521Z" fill="white"/>
<path d="M205.99 178.652H57.6576V179.256H205.99V178.652Z" fill="white"/>
<path d="M205.99 181.783H57.6576V182.387H205.99V181.783Z" fill="white"/>
<path d="M205.99 184.914H57.6576V185.518H205.99V184.914Z" fill="white"/>
<path d="M205.99 188.052H57.6576V188.648H205.99V188.052Z" fill="white"/>
<path d="M205.99 191.176H57.6576V191.772H205.99V191.176Z" fill="white"/>
<path d="M205.99 194.307H57.6576V194.91H205.99V194.307Z" fill="white"/>
<path d="M205.99 197.438H57.6576V198.041H205.99V197.438Z" fill="white"/>
<path d="M205.772 200.583C205.709 200.786 205.638 200.99 205.547 201.186H57.8266C57.7914 200.99 57.7632 200.786 57.735 200.583H205.772Z" fill="white"/>
<path d="M203.759 203.699C203.548 203.91 203.322 204.113 203.09 204.303H58.8755C58.777 204.106 58.6784 203.903 58.5939 203.699H203.752H203.759Z" fill="white"/>
<path d="M262.979 206.83C262.817 207.041 262.641 207.209 262.458 207.434H61.1002C60.9101 207.237 60.727 207.034 60.551 206.83H262.972H262.979Z" fill="white"/>
<path d="M304.811 234.005V267.076C304.811 276.062 297.51 283.348 288.499 283.348H73.9763C64.9792 283.362 57.6717 276.097 57.6576 267.125V233.998C57.6576 230.993 58.4883 228.045 60.0794 225.49C60.4243 224.921 60.8115 224.38 61.2269 223.861C64.3174 219.986 69.0131 217.732 73.9763 217.74H288.499C297.51 217.74 304.811 225.026 304.818 234.012L304.811 234.005Z" fill="#276577"/>
<path d="M221.274 283.355H73.9763C67.591 283.355 61.7901 279.656 59.129 273.871H211.904C211.904 273.871 214.108 281.909 221.274 283.355Z" fill="url(#paint4_linear_19_1654)"/>
<path d="M221.274 217.725C214.502 218.842 212.608 225.475 212.608 225.475H60.0794L61.2269 223.847C64.3174 219.972 69.0131 217.718 73.9763 217.725H221.274Z" fill="url(#paint5_linear_19_1654)"/>
<path d="M304.811 234.005V267.076C304.811 273.008 301.58 278.469 296.377 281.326H229.004C223.344 281.326 218.761 276.756 218.754 271.119V230.986C218.754 225.342 223.337 220.772 228.99 220.765H297.996C302.276 223.819 304.818 228.747 304.811 233.998V234.005Z" fill="url(#paint6_linear_19_1654)"/>
<path d="M304.811 234.005V267.076C304.811 267.687 304.776 268.297 304.712 268.901C304.684 269.168 304.649 269.428 304.607 269.687C304.431 270.817 304.128 271.934 303.706 272.994C303.607 273.26 303.494 273.52 303.375 273.78C302.847 274.959 302.178 276.068 301.382 277.086C301.171 277.353 300.953 277.613 300.721 277.873C299.482 279.27 298.017 280.449 296.377 281.347H238.684C235.734 281.347 232.932 280.084 230.989 277.873C230.764 277.62 230.56 277.36 230.363 277.086C229.638 276.089 229.11 274.966 228.793 273.78C228.723 273.527 228.666 273.26 228.617 272.994C228.497 272.376 228.441 271.751 228.441 271.126V230.986C228.441 230.27 228.518 229.554 228.666 228.859C228.716 228.592 228.779 228.332 228.863 228.073C229.215 226.872 229.786 225.749 230.553 224.766C230.764 224.492 230.982 224.233 231.222 223.98C233.151 221.916 235.854 220.751 238.684 220.758H297.996C299.263 221.663 300.397 222.752 301.361 223.98C301.558 224.233 301.756 224.492 301.939 224.766C302.657 225.798 303.241 226.907 303.692 228.073C303.797 228.332 303.896 228.599 303.973 228.859C304.339 229.933 304.586 231.042 304.705 232.165C304.74 232.425 304.762 232.692 304.776 232.952C304.79 233.211 304.811 233.668 304.811 233.998V234.005Z" fill="#276577"/>
<path d="M304.811 234.005V267.076C304.811 267.687 304.776 268.297 304.712 268.901C304.684 269.168 304.649 269.428 304.607 269.687C304.431 270.817 304.128 271.934 303.706 272.994C303.607 273.26 303.494 273.52 303.375 273.78C302.847 274.959 302.178 276.068 301.382 277.086C301.171 277.353 300.953 277.613 300.721 277.873C299.482 279.27 298.017 280.449 296.377 281.347H238.684C235.734 281.347 232.932 280.084 230.989 277.873C230.764 277.62 230.56 277.36 230.363 277.086C229.638 276.089 229.11 274.966 228.793 273.78C228.723 273.527 228.666 273.26 228.617 272.994C228.497 272.376 228.441 271.751 228.441 271.126V230.986C228.441 230.27 228.518 229.554 228.666 228.859C228.716 228.592 228.779 228.332 228.863 228.073C229.215 226.872 229.786 225.749 230.553 224.766C230.764 224.492 230.982 224.233 231.222 223.98C233.151 221.916 235.854 220.751 238.684 220.758H297.996C299.263 221.663 300.397 222.752 301.361 223.98C301.558 224.233 301.756 224.492 301.939 224.766C302.657 225.798 303.241 226.907 303.692 228.073C303.797 228.332 303.896 228.599 303.973 228.859C304.339 229.933 304.586 231.042 304.705 232.165C304.74 232.425 304.762 232.692 304.776 232.952C304.79 233.211 304.811 233.668 304.811 233.998V234.005Z" fill="url(#paint7_linear_19_1654)"/>
<path d="M301.939 224.78H230.553C230.764 224.507 230.982 224.247 231.222 223.994H301.361C301.558 224.247 301.763 224.507 301.946 224.78H301.939Z" fill="white"/>
<path d="M303.98 228.859H228.673C228.723 228.592 228.786 228.332 228.87 228.073H303.699C303.804 228.332 303.903 228.599 303.98 228.859Z" fill="white"/>
<path d="M304.783 232.945H228.441V232.158H304.712C304.748 232.418 304.769 232.685 304.783 232.945Z" fill="white"/>
<path d="M304.818 236.244H228.441V237.03H304.818V236.244Z" fill="white"/>
<path d="M304.818 240.323H228.441V241.109H304.818V240.323Z" fill="white"/>
<path d="M304.818 244.408H228.441V245.194H304.818V244.408Z" fill="white"/>
<path d="M304.818 248.494H228.441V249.273H304.818V248.494Z" fill="white"/>
<path d="M304.818 252.573H228.441V253.352H304.818V252.573Z" fill="white"/>
<path d="M304.818 256.658H228.441V257.437H304.818V256.658Z" fill="white"/>
<path d="M304.818 260.737H228.441V261.516H304.818V260.737Z" fill="white"/>
<path d="M304.818 264.823H228.441V265.609H304.818V264.823Z" fill="white"/>
<path d="M304.712 268.908C304.684 269.175 304.649 269.434 304.607 269.694H228.441V268.908H304.712Z" fill="white"/>
<path d="M303.727 272.987C303.628 273.253 303.516 273.513 303.396 273.773H228.807C228.737 273.52 228.68 273.253 228.631 272.987H303.727Z" fill="white"/>
<path d="M301.382 277.072C301.171 277.339 300.953 277.599 300.721 277.859H230.989C230.764 277.606 230.56 277.346 230.363 277.072H301.382Z" fill="white"/>
<path d="M104.664 283.355H80.3334C72.5331 281.397 68.7526 272.987 68.7526 272.987C68.7526 272.987 68.0486 231.849 68.7526 226.648C69.4566 221.446 81.2768 217.711 81.2768 217.711H104.664C96.8634 218.827 91.1962 226.409 91.1962 226.409C91.1962 226.409 90.7245 271.87 91.1962 274.931C91.6678 277.992 104.664 283.355 104.664 283.355Z" fill="url(#paint8_linear_19_1654)"/>
<path d="M104.664 283.355H96.8634C89.0701 281.397 85.2966 272.987 85.2966 272.987C85.2966 272.987 84.5856 231.849 85.2966 226.648C86.0077 221.446 97.8138 217.711 97.8138 217.711H104.664C96.8634 218.827 91.1962 226.409 91.1962 226.409C91.1962 226.409 90.7245 271.87 91.1962 274.931C91.6678 277.992 104.664 283.355 104.664 283.355Z" fill="#276577"/>
<path d="M104.664 283.355H96.8634C89.0701 281.397 85.2966 272.987 85.2966 272.987C85.2966 272.987 84.5856 231.849 85.2966 226.648C86.0077 221.446 97.8138 217.711 97.8138 217.711H104.664C96.8634 218.827 91.1962 226.409 91.1962 226.409C91.1962 226.409 90.7245 271.87 91.1962 274.931C91.6678 277.992 104.664 283.355 104.664 283.355Z" fill="url(#paint9_linear_19_1654)"/>
<path d="M211.165 155.662C209.025 158.224 206.265 160.8 205.167 161.376C198.936 164.647 191.72 167.153 188.06 173.155C183.434 180.723 186.426 190.614 184.3 199.235C183.913 200.807 183.308 202.408 182.09 203.489C180.872 204.57 178.915 204.942 177.619 203.959C176.479 203.103 176.197 201.551 175.986 200.147C174.12 186.894 174.05 173.443 175.775 160.168C168.664 163.334 163.849 170.024 160.054 176.785C156.253 183.545 153.071 190.797 147.777 196.476C146.27 198.083 144.299 199.656 142.116 199.347C139.498 196.041 140.87 191.197 142.356 187.238C145.341 179.256 148.333 171.267 152.191 163.699C153.43 161.242 154.81 158.771 156.9 156.967C157.471 156.476 158.09 156.034 158.738 155.655H211.165V155.662Z" fill="#231F20"/>
<path d="M183.484 94.2788C183.484 94.2788 179.562 110.172 173.698 114.609C167.651 119.186 161.371 110.39 161.371 110.39L157.879 116.687C157.879 116.687 164.342 127.09 170.861 127.329C177.373 127.568 183.096 121.755 183.096 121.755L183.491 94.2717L183.484 94.2788Z" fill="#276577"/>
<path d="M149.994 83.3626L150.881 82.9695L168.953 87.5465L174.388 124.051H173.705L149.994 83.3626Z" fill="#231F20"/>
<path d="M138.554 185.356L136.287 189.28L141.546 191.562L143.722 187.827L138.554 185.356Z" fill="#FFAA71"/>
<path d="M173.937 195.893L173.691 200.267L179.428 199.937L179.675 195.893H173.937Z" fill="#FFAA71"/>
<path d="M137.315 188.41C137.203 188.171 137.041 187.954 136.844 187.778C136.611 187.624 136.344 187.525 136.069 187.497L126.959 185.672C126.628 185.588 126.291 185.553 125.953 185.567C125.08 185.623 124.362 186.262 123.791 186.922C123.46 187.23 123.249 187.645 123.193 188.094C123.263 188.663 123.566 189.175 124.031 189.512C124.671 190.102 125.34 190.656 126.044 191.176C127.396 192.116 128.797 192.98 130.247 193.759C131.226 194.307 132.204 194.854 133.204 195.36C134.851 196.181 136.555 196.876 138.273 197.543C138.505 197.69 138.822 197.62 138.963 197.381C140.202 196.09 141.18 194.573 141.849 192.91C142.018 192.495 142.321 191.597 141.849 191.253C141.68 191.134 141.215 191.155 141.004 191.106C139.462 190.733 138.132 189.765 137.315 188.417V188.41Z" fill="#231F20"/>
<path d="M174.275 198.28C174.057 198.133 173.811 198.027 173.55 197.971C173.268 197.957 172.994 198.006 172.733 198.111L163.94 201.102C163.61 201.193 163.286 201.334 162.99 201.509C162.265 201.98 161.969 202.927 161.8 203.763C161.674 204.198 161.702 204.661 161.878 205.075C162.223 205.525 162.737 205.819 163.3 205.876C164.152 206.072 165.011 206.213 165.876 206.304C167.517 206.444 169.164 206.486 170.812 206.43C171.938 206.43 173.057 206.402 174.177 206.332C176.014 206.22 177.844 205.96 179.661 205.679C179.935 205.693 180.168 205.482 180.182 205.209C180.604 203.468 180.682 201.664 180.421 199.895C180.358 199.452 180.154 198.526 179.576 198.477C179.372 198.455 178.978 198.708 178.774 198.771C178.464 198.863 178.147 198.933 177.823 198.968C176.591 199.115 175.345 198.877 174.261 198.28H174.275Z" fill="#231F20"/>
<path d="M209.869 139.298C209.869 139.298 208.384 153.197 195.536 155.654C186.842 157.311 176.204 156.722 170.248 156.167C167.376 155.9 164.602 157.269 163.06 159.698L144.566 189.07L139.209 186.486H139.167L137.273 185.581L152.669 149.737C154.5 145.23 158.266 141.776 162.92 140.337L180.611 134.875L184.744 133.598C184.744 133.598 201.309 131.934 209.869 139.291V139.298Z" fill="#231F20"/>
<path opacity="0.24" d="M180.639 134.854L181.801 137.311C181.801 137.311 161.413 143.271 158.907 146.17C155.563 150.046 139.223 186.479 139.223 186.479H139.181L137.287 185.574L152.662 149.751C154.493 145.244 158.259 141.79 162.913 140.351L180.639 134.861V134.854Z" fill="white"/>
<path d="M187.869 136.89C187.869 136.89 171.494 152.825 170.959 161.334C170.431 169.842 172.719 196.532 172.719 196.532H180.668C180.668 196.532 180.273 164.135 183.512 163.903C186.75 163.678 201.428 154.236 203.787 151.541C206.145 148.845 209.905 139.284 209.905 139.284L187.869 136.883V136.89Z" fill="#231F20"/>
<path d="M209.869 139.298C209.869 139.298 196.761 145.981 183.103 138.161C181.914 137.48 180.773 136.722 179.682 135.886C179.682 135.886 185.427 125.651 180.851 110.776C178.893 104.415 178.851 92.2709 188.545 90.544H188.595C198.239 88.8381 197.697 91.2109 197.697 91.2109L202.062 95.4369C210.454 102.225 211.369 112.622 209.869 139.291V139.298Z" fill="#276577"/>
<path opacity="0.24" d="M188.602 90.5439C188.2 91.4214 187.574 92.1726 186.785 92.7342C186.785 92.7342 181.02 95.2825 182.174 103.713C183.329 112.144 185.434 128.361 185.434 128.361L183.103 138.175C181.914 137.494 180.773 136.736 179.682 135.9C179.682 135.9 185.427 125.665 180.851 110.79C178.893 104.43 178.851 92.2849 188.545 90.558H188.595L188.602 90.5439Z" fill="white"/>
<path d="M197.275 90.0036C195.135 92.5519 191.333 92.8888 188.778 90.7547L188.566 90.5722C188.566 90.5722 181.456 97.6624 188.644 98.5189C192.438 98.9892 197.106 94.4122 198.458 91.8288L197.275 89.9966V90.0036Z" fill="#231F20"/>
<path d="M199.408 83.3625C199.38 83.4538 198.042 87.5395 197.036 90.4528C196.289 92.7272 194.705 94.6367 192.607 95.7879C191.375 96.5321 190.003 97.0094 188.573 97.206C187.553 97.2972 186.644 96.5461 186.553 95.5282C186.518 95.1421 186.602 94.749 186.806 94.419C187.137 93.8364 187.496 93.1695 187.827 92.4534C188.517 90.9722 189.101 89.3155 189.003 88.0168V87.8764C188.918 87.1955 189.362 86.5917 190.115 86.0723C191.171 85.3422 192.84 84.7595 194.466 84.3243C196.092 83.9101 197.747 83.5942 199.408 83.3625Z" fill="#FFAA71"/>
<path d="M188.869 92.3973C188.545 92.4604 188.207 92.4885 187.876 92.4675C188.566 90.9862 189.151 89.3295 189.052 88.0308L190.15 86.0793L190.974 84.6331L194.501 84.3383L198.07 84.0435C195.719 89.5893 191.77 91.8848 188.869 92.4043V92.3973Z" fill="#FFAA71"/>
<path d="M195.494 64.7033C190.326 63.6223 185.258 66.9287 184.173 72.0814C184.124 72.32 184.082 72.5517 184.047 72.8114C183.315 76.6303 183.286 80.5545 183.955 84.3874C185.581 90.3193 194.318 88.1712 196.092 86.3671C197.866 84.5629 204.991 76.2653 203.829 73.0361C203.083 70.8388 200.478 65.8265 195.487 64.7033H195.494Z" fill="#FFAA71"/>
<path d="M188.447 58.9119L189.791 60.1474C187.912 59.5928 185.884 59.9789 184.335 61.1723C182.526 62.2043 181.203 63.9031 180.632 65.9038L183.624 65.3703C183.624 65.3703 182.533 68.5784 187.496 70.186C192.46 71.7866 197.704 73.4363 197.704 73.4363L196.641 70.6002C196.641 70.6002 199.422 72.6922 199.654 73.9979C199.647 75.9775 199.485 77.9501 199.183 79.9087C199.183 79.9087 201.309 77.0235 201.633 77.8659C201.956 78.7083 200.105 81.3408 199.26 81.8111C198.415 82.2815 198.021 84.226 197.916 84.3664C197.81 84.5068 201.71 82.7378 202.09 81.8673C202.47 80.9968 208.138 72.7202 206.582 70.2422L207.856 70.4809C207.251 69.7859 206.497 69.2313 205.645 68.8663C205.645 68.8663 200.351 55.9003 188.44 58.9259L188.447 58.9119Z" fill="#231F20"/>
<path d="M186.574 128.733C185.856 128.017 185.152 127.167 184.152 126.999C183.8 127.834 184.518 128.684 184.821 129.533C184.913 129.723 184.913 129.947 184.821 130.137C184.68 130.361 184.349 130.375 184.089 130.361C182.822 130.27 181.583 129.975 180.414 129.484C179.33 129.014 178.295 128.403 177.126 128.283C177 128.255 176.873 128.276 176.753 128.333C176.472 128.515 176.634 128.95 176.838 129.21C177.274 129.779 177.767 130.305 178.309 130.776C177.485 130.41 176.598 130.186 175.704 130.109C175.451 130.109 175.113 130.158 175.113 130.41C175.127 130.516 175.176 130.607 175.254 130.677C175.923 131.435 176.725 132.067 177.626 132.531C176.972 132.39 176.303 132.334 175.634 132.362C175.345 132.362 174.958 132.516 175 132.797C175.021 132.889 175.064 132.98 175.134 133.043C175.937 134.012 177.021 134.7 178.239 135.023L176.345 135.065C176.225 135.065 176.106 135.086 176 135.135C175.662 135.353 175.958 135.886 176.289 136.118C177.746 137.136 179.604 137.311 181.393 137.445C184.814 137.69 188.412 137.824 191.495 136.321C191.72 136.209 191.967 136.055 192.009 135.809C192.016 135.683 192.002 135.549 191.953 135.43C191.58 134.187 191.389 131.934 190.256 131.176C189.707 130.811 189.031 130.6 188.461 130.228C187.891 129.856 187.222 129.049 186.574 128.726V128.733Z" fill="#FFAA71"/>
<path d="M212.65 126.093C211.58 136.595 192.495 137.88 192.495 137.88L190.524 131.134L190.179 129.947C190.179 129.947 200.401 128.663 202.358 125.469C204.315 122.274 196.268 111.576 201.133 105.609C205.99 99.642 207.096 101.474 207.096 101.474C207.096 101.474 213.713 115.591 212.65 126.093Z" fill="#276577"/>
<path d="M161.385 110.396C161.385 110.726 161.35 111.056 161.308 111.379C161.146 112.846 160.688 115.542 159.463 116.518C157.745 117.894 157.506 115.886 157.541 115.1C157.576 114.665 157.647 114.236 157.752 113.815C158.154 112.102 160.259 110.93 161.068 110.544L161.378 110.396H161.385Z" fill="url(#paint10_linear_19_1654)"/>
<path d="M161.3 111.379C161.139 112.847 160.681 115.542 159.456 116.518C158.928 116.132 158.245 115.627 157.534 115.1C156.584 114.391 155.577 113.647 154.859 113.12C154.218 112.692 153.641 112.187 153.134 111.618C152.691 111.035 152.317 110.404 152.036 109.73L150.564 106.543C150.093 105.497 149.614 104.114 150.459 103.306C150.67 103.096 152.613 102.717 152.747 102.443C153.106 101.657 150.853 100 150.994 99.1366C151.142 98.6522 151.613 98.3363 152.12 98.3924C152.592 98.4135 153.944 99.649 154.366 99.9017C155.204 100.372 154.5 101.046 155.316 101.537C156.372 102.078 157.337 102.794 158.161 103.643C159.083 104.717 159.548 106.093 159.984 107.427C160.308 108.403 160.737 109.463 161.068 110.523C161.16 110.825 161.237 111.106 161.308 111.386L161.3 111.379Z" fill="#FFAA71"/>
<path d="M154.331 103.847L151.163 88.8873L149.994 83.3625L168.376 88.2695L173.705 124.05L156.626 118.863L154.331 103.847Z" fill="#276577"/>
<path d="M158.154 103.664L150.881 87.5464L156.626 118.863L173.705 124.05L171.875 111.779L158.154 103.664Z" fill="url(#paint11_linear_19_1654)"/>
<path d="M155.373 110.291C155.95 110.003 157.14 109.477 157.436 108.908C157.506 108.768 157.612 108.592 157.52 108.466C157.105 107.897 155.408 108.62 154.929 108.466C155.26 107.926 158.217 106.269 156.823 105.897C156.527 105.82 154.669 106.753 154.373 106.669C154.605 106.479 156.513 105.125 156.837 104.781C157.069 104.528 157.048 104.135 156.795 103.903C156.619 103.742 156.365 103.699 156.14 103.791C155.133 104.254 154.099 104.654 153.036 104.998C153.24 104.661 155.992 103.11 156.105 102.71C156.168 102.562 156.175 102.394 156.133 102.239C156.056 102.071 155.908 101.937 155.732 101.881C154.964 101.586 154.099 101.881 153.331 102.19L151.508 102.906C150.924 103.131 150.283 103.426 150.086 104.015C150.001 104.31 149.987 104.626 150.044 104.928C150.269 106.844 150.952 108.677 152.043 110.263C152.585 111.049 154.289 112.945 155.274 113.127C156.147 113.296 154.556 110.734 155.373 110.284V110.291Z" fill="#FFAA71"/>
<path opacity="0.24" d="M174.388 158.764C174.388 158.764 180.653 144.444 187.905 140.365L185.434 139.368C185.434 139.368 172.712 152.861 171.206 159.796C169.699 166.739 172.719 196.518 172.719 196.518H174.803C174.803 196.518 171.354 161.678 174.388 158.757V158.764Z" fill="white"/>
<path opacity="0.24" d="M202.886 127.764C198.852 129.421 191.981 130.86 190.502 131.162L190.221 131.218L190.157 129.975C190.157 129.975 200.38 128.691 202.337 125.497C204.294 122.302 196.247 111.604 201.112 105.637C201.112 105.637 200.492 110.916 202.09 114.812C203.688 118.715 207.427 125.869 202.893 127.757L202.886 127.764Z" fill="white"/>
</g>
<defs>
<linearGradient id="paint0_linear_19_1654" x1="196.895" y1="128.929" x2="157.62" y2="223.687" gradientUnits="userSpaceOnUse">
<stop offset="0.17" stop-color="#00272E"/>
<stop offset="1" stop-color="#68E1FD" stop-opacity="0"/>
</linearGradient>
<linearGradient id="paint1_linear_19_1654" x1="266.71" y1="189.617" x2="200.481" y2="184.139" gradientUnits="userSpaceOnUse">
<stop stop-color="#68E1FD"/>
<stop offset="1" stop-color="white"/>
</linearGradient>
<linearGradient id="paint2_linear_19_1654" x1="203.808" y1="186.886" x2="27.7658" y2="186.886" gradientUnits="userSpaceOnUse">
<stop stop-color="white" stop-opacity="0"/>
<stop offset="0.99" stop-color="white"/>
</linearGradient>
<linearGradient id="paint3_linear_19_1654" x1="261.184" y1="212.594" x2="262.423" y2="212.594" gradientUnits="userSpaceOnUse">
<stop stop-color="#68E1FD"/>
<stop offset="1" stop-color="#68E1FD"/>
</linearGradient>
<linearGradient id="paint4_linear_19_1654" x1="139.716" y1="261.691" x2="141.305" y2="317.206" gradientUnits="userSpaceOnUse">
<stop stop-color="#231F20" stop-opacity="0"/>
<stop offset="1" stop-color="#231F20"/>
</linearGradient>
<linearGradient id="paint5_linear_19_1654" x1="141.483" y1="211.562" x2="138.977" y2="242.956" gradientUnits="userSpaceOnUse">
<stop stop-color="white" stop-opacity="0"/>
<stop offset="0.99" stop-color="white"/>
</linearGradient>
<linearGradient id="paint6_linear_19_1654" x1="243.661" y1="250.305" x2="148.735" y2="246.69" gradientUnits="userSpaceOnUse">
<stop stop-color="#231F20" stop-opacity="0"/>
<stop offset="1" stop-color="#231F20"/>
</linearGradient>
<linearGradient id="paint7_linear_19_1654" x1="261.733" y1="300.652" x2="277.932" y2="129.44" gradientUnits="userSpaceOnUse">
<stop stop-color="white" stop-opacity="0"/>
<stop offset="0.99" stop-color="white"/>
</linearGradient>
<linearGradient id="paint8_linear_19_1654" x1="79.7914" y1="297.086" x2="95.9989" y2="197.914" gradientUnits="userSpaceOnUse">
<stop stop-color="white" stop-opacity="0"/>
<stop offset="0.99" stop-color="white"/>
</linearGradient>
<linearGradient id="paint9_linear_19_1654" x1="94.1741" y1="325.3" x2="97.1001" y2="30.0102" gradientUnits="userSpaceOnUse">
<stop stop-color="white" stop-opacity="0"/>
<stop offset="0.99" stop-color="white"/>
</linearGradient>
<linearGradient id="paint10_linear_19_1654" x1="157.534" y1="113.689" x2="161.385" y2="113.689" gradientUnits="userSpaceOnUse">
<stop stop-color="#231F20" stop-opacity="0"/>
<stop offset="1" stop-color="#231F20"/>
</linearGradient>
<linearGradient id="paint11_linear_19_1654" x1="156.499" y1="96.6232" x2="179.261" y2="151.825" gradientUnits="userSpaceOnUse">
<stop stop-color="white" stop-opacity="0"/>
<stop offset="0.99" stop-color="white"/>
</linearGradient>
<clipPath id="clip0_19_1654">
<rect width="352" height="351" fill="white"/>
</clipPath>
</defs>
</svg>
