<svg width="351" height="351" viewBox="0 0 351 351" fill="none" xmlns="http://www.w3.org/2000/svg">
<path opacity="0.18" d="M132.095 29.9613C116.504 39.8103 105.995 55.851 96.6584 71.7654C89.7648 83.5028 83.187 95.5632 74.5314 106.142C70.7967 110.712 66.325 116.511 61.1091 119.263C55.8933 122.022 49.5823 123.075 44.212 126.135C23.0186 138.189 7.87647 161.109 6.68307 185.623C6.44439 193.429 7.02003 201.242 8.39595 208.929C10.9512 225.138 15.2264 241.607 25.1878 254.657C37.6834 271.028 56.3425 277.479 73.0501 288.045C90.551 299.15 114.616 298.139 134.616 295.879C157.831 293.204 180.709 287.378 204.064 287.167C227.673 286.942 252.453 292.285 274.152 282.976C282.66 279.326 290.102 273.611 297.437 267.96C310.46 257.929 323.91 247.378 331.119 232.636C335.437 223.798 337.234 213.92 338.034 204.12C341.116 166.416 328.487 126.283 299.621 101.839C288.761 92.6148 275.942 85.7983 265.791 75.858C253.892 64.1627 246.142 48.6064 233.492 37.7535C210.972 18.4555 157.199 14.082 132.088 29.9542L132.095 29.9613Z" fill="#276577"/>
<path d="M266.788 141.643L266.577 141.509C265.082 140.695 263.552 140.049 262.007 139.277C260.21 138.357 258.434 137.41 256.707 136.357C253.415 134.335 248.115 130.895 243.053 132.847C237.985 134.791 236.511 140.842 235.633 145.497C235.198 147.841 235.479 150.242 235.058 152.503C234.552 155.198 232.404 158.147 230.86 160.344C230.516 160.892 230.088 161.383 229.589 161.797C228.529 162.625 227.034 162.808 226.079 163.819C223.791 166.107 226.079 169.624 227.813 171.4C229.835 173.31 231.611 175.458 233.113 177.803C236.918 183.861 240.807 190.235 241.706 197.36L249.498 178.68C250.544 175.879 251.913 173.212 253.583 170.734C257.03 166.304 261.642 162.913 266.907 160.955C271.906 159.312 277.22 162.155 282.218 160.47C286.5 159.024 288.978 154.679 291.049 150.649C293.59 145.714 296.146 140.555 296.23 134.988C296.23 134.686 291.618 133.759 291.183 133.654C290.53 133.514 289.161 132.945 288.501 133.127C287.841 133.31 287.904 133.724 287.764 134.489C287.188 137.81 285.51 140.8 283.875 143.693L281.474 147.94C281.383 148.129 281.249 148.305 281.081 148.431C280.898 148.529 280.688 148.585 280.477 148.585C276.518 148.859 272.629 147.413 269.807 144.619C268.922 143.51 267.911 142.513 266.802 141.643H266.788Z" fill="#276577"/>
<path d="M259.782 126.873C259.235 129.477 259.923 135.037 263.819 136.006C262.204 137.003 261.305 138.835 261.509 140.716C261.509 140.716 258.862 142.864 253.871 134.658C253.871 134.658 255.942 135.606 257.697 131.253C258.329 129.765 258.589 128.15 258.455 126.543C258.603 126.971 259.073 127.196 259.501 127.041C259.607 127.006 259.705 126.943 259.789 126.866L259.782 126.873Z" fill="#FAB8AC"/>
<path d="M259.487 128.178C259.487 128.178 257.234 135.9 260.112 137.15C262.99 138.399 265.159 134.124 265.159 134.124L259.487 128.178Z" fill="#DB9E94"/>
<path d="M261.214 135.002C265.04 137.599 269.589 135.233 272.811 130.6C273.155 130.095 273.485 129.589 273.822 128.993C274.735 127.399 275.451 125.707 275.963 123.945C278.455 115.444 266.072 112.411 266.072 112.411C255.542 111.443 254.573 130.481 261.214 135.002Z" fill="#FAB8AC"/>
<path d="M289.435 134.875C289.989 135.542 290.782 135.963 291.646 136.055C292.2 136.083 292.755 136.034 293.303 135.914C293.647 135.865 293.991 135.767 294.313 135.633C294.812 135.36 295.247 134.995 295.598 134.552C296.398 133.654 297.15 132.713 297.859 131.744C298.027 131.541 298.139 131.295 298.182 131.028C298.21 130.958 298.21 130.888 298.182 130.818C298.111 130.691 297.971 130.614 297.831 130.614C297.1 130.614 296.658 131.562 295.935 131.625C296.37 130.937 296.946 130.354 297.43 129.695C297.95 129.063 298.224 128.262 298.196 127.441C298.196 127.385 298.174 127.336 298.146 127.287C298.055 127.153 297.852 127.287 297.732 127.336C296.862 128.024 296.3 129.119 295.268 129.505C295.465 128.852 295.732 128.22 296.068 127.631C296.462 126.739 296.63 125.763 296.553 124.795C296.553 124.696 296.553 124.563 296.412 124.542C296.272 124.521 296.3 124.542 296.251 124.605C295.661 125.174 295.205 125.862 294.91 126.627C294.545 127.294 294.061 127.897 293.478 128.396C293.604 127.469 293.661 126.528 293.647 125.588C293.647 125.265 293.555 124.858 293.239 124.809C292.755 124.724 292.453 125.595 292.348 125.939C292.158 126.599 292.039 127.273 291.983 127.961C291.983 128.255 291.92 128.543 291.871 128.838C291.681 129.996 291.105 131.063 290.249 131.864C289.961 131.337 289.736 130.776 289.582 130.2C289.512 129.975 289.385 129.765 289.231 129.582C289.056 129.414 288.789 129.379 288.578 129.498C288.459 129.596 288.389 129.737 288.368 129.891C288.248 130.748 288.368 131.625 288.697 132.425C288.754 133.289 289.006 134.124 289.442 134.868L289.435 134.875Z" fill="#FAB8AC"/>
<path d="M269.357 108.817C267.806 108.803 266.262 108.943 264.745 109.252C263.594 109.372 262.478 109.688 261.432 110.179C260.554 110.691 259.796 111.379 259.192 112.201C256.714 115.332 255.872 119.452 256.911 123.306C256.679 121.488 258.034 119.895 259.291 118.561L261.481 116.251C261.685 116.02 261.916 115.816 262.169 115.648C263.257 115.191 264.521 115.5 265.265 116.413C266.072 117.227 266.584 118.301 267.413 119.094C269.189 120.842 271.934 120.969 274.257 121.881C274.622 121.987 274.945 122.211 275.163 122.52C275.338 122.941 275.36 123.419 275.212 123.854L274.335 128.003C276.742 125.777 278.638 123.047 279.873 120.007C280.884 117.613 278.792 114.447 277.192 112.629C275.191 110.362 272.369 108.993 269.35 108.824L269.357 108.817Z" fill="#C14834"/>
<path d="M114.11 122.836C113.766 125.735 110.326 130.305 110.326 130.305C108.649 128.571 109.315 127.174 109.315 127.174C110.544 126.62 110.467 122.906 109.456 122.288C108.192 121.523 107.567 122.401 107.266 123.208C105.546 122.948 104.001 121.987 103.018 120.554C102.45 119.719 102.562 116.378 99.0522 116.939C95.5422 117.508 92.0462 120.905 92.0462 120.913C91.8777 121.074 91.0353 119.298 91.0353 119.179C90.8388 118.154 90.9651 117.094 91.4074 116.153C91.976 115.142 93.3449 114.531 94.2645 113.921C95.7107 112.994 97.1638 112.102 98.652 111.253C100.112 110.298 101.755 109.645 103.475 109.344C106.704 108.979 109.842 111.021 111.983 113.268C114.124 115.514 115.009 119.024 118.631 119.586C118.989 119.586 119.34 119.698 119.642 119.902C119.944 120.26 120.084 120.737 120.014 121.2V123.994C119.944 124.5 120.063 125.005 120.344 125.426C120.779 125.918 121.558 125.883 122.169 126.121C123.243 126.711 123.896 127.862 123.847 129.091C123.784 130.284 123.84 131.485 124.008 132.671C124.212 133.457 124.633 134.152 124.879 134.924C125.328 136.743 125.188 138.659 124.472 140.393C123.601 143.117 122.092 145.595 120.063 147.61C118.013 149.624 115.296 150.818 112.425 150.972C111.337 150.853 110.235 151.021 109.224 151.457C108.677 151.892 108.185 152.397 107.771 152.959C106.086 154.58 103.868 155.514 101.53 155.584C99.7331 155.879 97.8939 155.521 96.3425 154.573C94.8683 153.563 94.1312 151.323 95.1701 149.849C95.4509 149.456 95.8651 149.021 95.7177 148.557C95.6054 148.333 95.4439 148.136 95.2403 147.982C94.089 146.767 94.1382 144.851 95.3526 143.699C95.4579 143.594 95.5773 143.503 95.6966 143.419C94.3979 141.958 94.5243 139.733 95.9704 138.42C95.3246 137.824 94.5945 137.325 93.8012 136.939C92.9939 136.532 92.5446 135.64 92.6921 134.749C92.9027 134.356 93.1413 133.977 93.4011 133.619C94.068 132.369 92.8184 129.337 92.2989 128.129C91.2881 125.784 89.9543 124.303 90.6633 121.516C91.5829 117.915 94.8402 115.318 98.3432 114.068C101.151 113.057 107.722 111.225 110.242 112.91C112.762 114.595 114.433 119.902 114.096 122.822L114.11 122.836Z" fill="#231F20"/>
<path d="M101.544 141.881C101.741 141.671 101.951 141.481 102.19 141.313C103.489 140.569 104.837 139.916 106.227 139.354C108.024 138.434 109.8 137.48 111.527 136.434C114.819 134.412 120.119 130.972 125.181 132.924C130.249 134.868 131.723 140.906 132.601 145.574C133.036 147.904 132.755 150.319 133.176 152.58C133.668 155.275 135.83 158.224 137.374 160.421C137.725 160.962 138.154 161.453 138.645 161.874C139.656 162.703 141.2 162.885 142.155 163.896C143.082 164.991 143.341 166.514 142.822 167.855C142.295 169.168 141.537 170.375 140.583 171.421C139.48 172.755 138.385 174.096 137.178 175.346C133.289 179.319 128.557 182.373 123.327 184.289C122.969 184.465 122.569 184.521 122.176 184.444C121.65 184.282 121.397 183.713 121.165 183.215C119.544 179.277 117.248 175.647 114.384 172.496C111.808 169.68 108.508 168.269 106.016 165.328C104.535 163.559 102.113 160.597 101.881 158.266C101.881 157.901 102.155 157.431 102.015 157.108C101.874 156.785 100.877 156.258 100.477 155.984C99.2137 155.079 98.0273 154.061 96.9322 152.959C96.7496 152.797 96.6163 152.58 96.5461 152.341C96.532 152.13 96.5812 151.92 96.6794 151.737C97.4236 149.849 98.1817 147.961 99.0803 146.142C99.698 144.619 100.526 143.187 101.53 141.895L101.544 141.881Z" fill="white"/>
<path d="M108.487 126.957C109.035 129.561 108.347 135.121 104.5 136.041C106.114 137.03 107.02 138.87 106.809 140.751C106.809 140.751 109.456 142.899 114.447 134.693C114.447 134.693 112.425 135.704 110.621 131.288C109.989 129.807 109.73 128.192 109.863 126.585C109.751 127.02 109.308 127.287 108.866 127.174C108.719 127.139 108.585 127.055 108.48 126.95L108.487 126.957Z" fill="#C14834"/>
<path d="M108.782 128.255C108.782 128.255 111.035 135.963 108.157 137.22C105.279 138.476 103.11 134.194 103.11 134.194L108.782 128.262V128.255Z" fill="#77433C"/>
<path d="M92.1234 115.591C92.1234 115.591 87.8412 118.357 90.1017 125.511C92.3621 132.664 98.7644 128.95 98.7644 128.95L96.3425 115.619L92.1234 115.591Z" fill="#231F20"/>
<path d="M107.055 135.072C103.229 137.676 98.6801 135.318 95.4579 130.684C95.1139 130.179 94.784 129.674 94.447 129.077C93.5415 127.483 92.8184 125.792 92.306 124.03C89.8139 115.528 102.197 112.496 102.197 112.496C112.727 111.527 113.654 130.565 107.055 135.072Z" fill="#C14834"/>
<path d="M93.7591 120.154C93.9767 120.309 94.2154 120.435 94.4681 120.54C97.0585 121.53 99.8525 121.874 102.604 121.551C103.271 121.53 103.931 121.376 104.542 121.109C105.167 120.842 105.63 120.302 105.805 119.649C105.897 119.207 105.805 118.729 105.897 118.287C107.469 119.298 109.175 120.576 109.631 122.436C109.484 122.12 109.4 121.776 109.386 121.425C109.386 121.074 109.603 120.765 109.933 120.639C110.446 120.498 110.944 121.074 111.014 121.601C111.309 122.941 110.593 124.184 110.446 125.49C110.305 126.88 110.235 128.277 110.235 129.681C110.2 130.172 110.277 130.67 110.46 131.134C110.677 131.548 110.979 131.913 111.337 132.215C111.639 131.204 111.955 130.305 112.208 129.351C112.573 128.529 112.846 127.666 113.022 126.788C113.485 125.588 113.829 124.345 114.033 123.075C114.215 122.078 114.068 121.053 113.619 120.147C113.05 119.319 112.552 118.449 112.137 117.536C111.779 116.328 111.288 115.163 110.684 114.054C110.067 112.938 109.105 112.06 107.939 111.541C107.252 111.288 106.521 111.148 105.791 111.12C103.271 110.902 100.737 111.267 98.3853 112.201C96.5811 112.931 94.9595 114.068 93.6608 115.521C92.7201 116.588 92.2849 117.417 92.8535 118.835C93.022 119.361 93.3449 119.831 93.7731 120.189L93.7591 120.154Z" fill="#231F20"/>
<path d="M95.1561 133.275C95.8932 133.612 96.7005 133.759 97.5078 133.71C97.5639 133.71 97.6271 133.696 97.6692 133.661C97.6833 133.619 97.6833 133.577 97.6692 133.541C97.6412 133.345 97.5639 133.155 97.4446 132.994C96.8198 132.046 95.6615 129.287 94.1031 129.877C93.4572 130.165 93.1694 130.923 93.4572 131.569C93.4713 131.597 93.4853 131.625 93.4994 131.653C93.8644 132.509 94.5664 132.692 95.1561 133.275Z" fill="#C14834"/>
<path d="M94.2224 165.321C94.0188 166.423 94.2083 167.553 94.7559 168.529C95.6474 169.484 96.897 170.024 98.2097 170.01C102.948 170.481 107.722 169.659 112.025 167.638C115.107 166.191 118.083 164.107 121.432 163.91C122.043 163.924 122.653 163.847 123.236 163.664C124.001 163.292 124.584 162.618 124.844 161.804C125.489 160.091 125.286 158.168 124.289 156.623C123.545 155.324 122.085 154.615 120.604 154.826C118.898 155.24 118.111 157.157 116.939 158.469C115.212 160.4 112.495 161.081 109.877 161.313C107.259 161.544 104.661 161.432 102.183 162.19L103.657 159.614C103.84 159.347 103.931 159.031 103.931 158.708C103.861 158.196 103.313 157.901 102.843 157.697C101.488 157.037 100.21 156.223 99.0451 155.268C97.6622 154.138 97.1497 153.422 96.3424 155.43C95.1561 158.596 94.44 161.923 94.2224 165.3V165.321Z" fill="#C14834"/>
<path d="M129.624 133.977C130.902 135.149 132.053 136.448 133.064 137.852L134.496 139.712C134.833 140.07 135.058 140.527 135.142 141.011C135.212 141.91 133.696 142.387 133.12 142.871L129.8 145.504C127.631 147.217 125.447 148.922 123.236 150.614C122.408 149.47 121.727 148.228 121.214 146.908C120.793 145.644 120.681 144.282 120.316 142.991C120.021 141.931 119.572 140.969 119.305 139.874C118.708 137.655 118.898 135.304 119.838 133.212C121.313 129.954 127.518 132.313 129.414 133.879L129.603 133.977H129.624Z" fill="white"/>
<path d="M226.037 42.6045H136.855C126.914 42.6045 118.856 50.663 118.856 60.6038V266.655C118.856 276.596 126.914 284.654 136.855 284.654H226.037C235.978 284.654 244.036 276.596 244.036 266.655V60.6038C244.036 50.663 235.978 42.6045 226.037 42.6045Z" fill="#276577"/>
<path d="M224.163 45.6582H138.729C129.118 45.6582 121.327 53.4496 121.327 63.0608V263.819C121.327 273.43 129.118 281.221 138.729 281.221H224.163C233.774 281.221 241.565 273.43 241.565 263.819V63.0608C241.565 53.4496 233.774 45.6582 224.163 45.6582Z" fill="#231F20"/>
<path d="M238.294 65.0264V259.431C238.203 268.606 230.684 275.97 221.509 275.886H141.46C138.533 275.893 135.661 275.142 133.113 273.703C127.911 270.832 124.675 265.37 124.654 259.431V65.0264C124.773 55.8583 132.292 48.5224 141.46 48.6136H155.037V51.0075C155.107 54.2156 157.094 57.0727 160.084 58.2451C161.067 58.6312 162.106 58.8277 163.166 58.8277H200.351C204.766 58.8277 208.361 55.2897 208.424 50.8741V48.6136H221.544C225.847 48.6066 229.996 50.2353 233.141 53.1766C236.427 56.2444 238.294 60.5336 238.301 65.0264H238.294Z" fill="white"/>
<path opacity="0.41" d="M235.753 198.413H127.483V264.514H235.753V198.413Z" fill="#276577"/>
<path d="M142.295 223.327C147.056 223.327 150.916 219.468 150.916 214.707C150.916 209.946 147.056 206.086 142.295 206.086C137.534 206.086 133.675 209.946 133.675 214.707C133.675 219.468 137.534 223.327 142.295 223.327Z" fill="#276577"/>
<path d="M160.772 207.132H220.168C221.425 207.132 222.436 208.15 222.436 209.4C222.436 210.656 221.418 211.667 220.168 211.667H160.772C159.515 211.667 158.505 210.649 158.505 209.4C158.505 208.143 159.522 207.132 160.772 207.132Z" fill="#276577"/>
<path d="M160.772 217.36H194.482C195.739 217.36 196.75 218.378 196.75 219.628C196.75 220.884 195.732 221.895 194.482 221.895H160.772C159.515 221.895 158.505 220.877 158.505 219.628C158.505 218.371 159.522 217.36 160.772 217.36Z" fill="#276577"/>
<path opacity="0.41" d="M235.753 123.37H127.483V194.054H235.753V123.37Z" fill="#276577"/>
<path d="M150.817 141.055C151.58 136.356 148.388 131.928 143.689 131.165C138.989 130.402 134.561 133.593 133.798 138.293C133.036 142.992 136.227 147.42 140.926 148.183C145.626 148.946 150.054 145.755 150.817 141.055Z" fill="#276577"/>
<path d="M160.772 132.088H220.168C221.425 132.088 222.436 133.106 222.436 134.356C222.436 135.612 221.418 136.623 220.168 136.623H160.772C159.515 136.623 158.505 135.605 158.505 134.356C158.505 133.099 159.522 132.088 160.772 132.088Z" fill="#276577"/>
<path d="M160.772 142.317H194.482C195.739 142.317 196.75 143.335 196.75 144.584C196.75 145.841 195.732 146.852 194.482 146.852H160.772C159.515 146.852 158.505 145.834 158.505 144.584C158.505 143.328 159.522 142.317 160.772 142.317Z" fill="#276577"/>
<path d="M238.294 65.0264V80.9127H124.654V65.0264C124.773 55.8583 132.292 48.5224 141.46 48.6136H155.037V51.0075C155.107 54.2156 157.094 57.0727 160.084 58.2451C161.067 58.6312 162.106 58.8277 163.166 58.8277H200.351C204.766 58.8277 208.361 55.2897 208.424 50.8741V48.6136H221.544C225.847 48.6066 229.996 50.2353 233.141 53.1766C236.427 56.2444 238.294 60.5336 238.301 65.0264H238.294Z" fill="#276577"/>
<path d="M238.294 65.0264V80.9127H124.654V65.0264C124.773 55.8583 132.292 48.5224 141.46 48.6136H155.037V51.0075C155.107 54.2156 157.094 57.0727 160.084 58.2451C161.067 58.6312 162.106 58.8277 163.166 58.8277H200.351C204.766 58.8277 208.361 55.2897 208.424 50.8741V48.6136H221.544C225.847 48.6066 229.996 50.2353 233.141 53.1766C236.427 56.2444 238.294 60.5336 238.301 65.0264H238.294Z" fill="url(#paint0_linear_19_1594)"/>
<path d="M184.928 68.438H132.067V77.8167H184.928V68.438Z" fill="#276577"/>
<path d="M205.37 70.9792H226.276C227.301 70.9792 228.136 71.8076 228.136 72.8395C228.136 73.8645 227.308 74.6999 226.276 74.6999H205.37C204.345 74.6999 203.51 73.8715 203.51 72.8395C203.51 71.8146 204.338 70.9792 205.37 70.9792Z" fill="#276577"/>
<path d="M195.682 78.3715C198.741 78.3715 201.221 75.8917 201.221 72.8327C201.221 69.7737 198.741 67.2939 195.682 67.2939C192.623 67.2939 190.144 69.7737 190.144 72.8327C190.144 75.8917 192.623 78.3715 195.682 78.3715Z" fill="#276577"/>
<path opacity="0.41" d="M235.753 87.75H127.483V119.01H235.753V87.75Z" fill="#276577"/>
<path d="M150.807 105.444C151.569 100.744 148.378 96.3164 143.679 95.5535C138.979 94.7907 134.551 97.982 133.788 102.681C133.025 107.381 136.217 111.809 140.916 112.572C145.616 113.335 150.044 110.143 150.807 105.444Z" fill="#276577"/>
<path d="M160.772 96.4761H220.168C221.425 96.4761 222.436 97.494 222.436 98.7435C222.436 100 221.418 101.011 220.168 101.011H160.772C159.515 101.011 158.505 99.9931 158.505 98.7435C158.505 97.487 159.522 96.4761 160.772 96.4761Z" fill="#276577"/>
<path d="M160.772 106.697H194.482C195.739 106.697 196.75 107.715 196.75 108.964C196.75 110.221 195.732 111.232 194.482 111.232H160.772C159.515 111.232 158.505 110.214 158.505 108.964C158.505 107.708 159.522 106.697 160.772 106.697Z" fill="#276577"/>
<path d="M190.095 149.33H153.612C151.549 149.33 149.877 151.002 149.877 153.064V190.677C149.877 192.74 151.549 194.412 153.612 194.412H190.095C192.157 194.412 193.829 192.74 193.829 190.677V153.064C193.829 151.002 192.157 149.33 190.095 149.33Z" fill="url(#paint1_linear_19_1594)"/>
<path d="M148.185 188.656V149.919C148.22 149.87 148.248 149.814 148.269 149.758C148.529 148.262 149.849 147.188 151.365 147.245H189.203C190.874 147.209 192.257 148.536 192.292 150.214C192.292 150.256 192.292 150.298 192.292 150.333V188.241C192.313 189.645 191.365 190.874 190.01 191.218L189.617 191.351H178.512V172.306H183.426C183.685 172.306 183.798 172.222 183.819 171.976C183.84 171.73 183.868 171.337 183.903 171.028C184.092 169.351 184.275 167.666 184.472 165.981C184.472 165.77 184.472 165.665 184.219 165.665H178.771C178.631 165.665 178.512 165.665 178.512 165.482C178.512 164.233 178.512 162.99 178.575 161.741C178.575 161.369 178.659 160.997 178.806 160.653C179.108 160.105 179.705 159.796 180.323 159.852C181.551 159.803 182.773 159.852 183.994 159.803C184.317 159.803 184.479 159.644 184.479 159.326V153.584C184.479 153.169 184.479 153.148 184.043 153.148H179.424C178.062 153.12 176.7 153.303 175.388 153.682C173.871 154.124 172.587 155.114 171.772 156.469C171.021 157.845 170.628 159.382 170.621 160.948C170.558 162.408 170.621 163.882 170.621 165.356C170.621 165.609 170.551 165.658 170.305 165.651H167.055C166.774 165.651 166.662 165.735 166.662 166.037V171.92C166.662 172.201 166.746 172.306 167.027 172.292H170.6V191.337H150.895L150.642 191.246C149.624 191.035 148.789 190.319 148.424 189.351C148.333 189.126 148.269 188.908 148.192 188.656H148.185Z" fill="#276577"/>
<path d="M170.621 191.351V172.306H167.048C166.767 172.306 166.683 172.215 166.683 171.934V166.051C166.683 165.749 166.795 165.665 167.076 165.665H170.326C170.572 165.665 170.642 165.665 170.642 165.37V160.962C170.642 159.396 171.042 157.859 171.793 156.483C172.601 155.128 173.892 154.138 175.409 153.696C176.721 153.317 178.083 153.134 179.445 153.162H184.064C184.479 153.162 184.5 153.162 184.5 153.598V159.333C184.5 159.651 184.338 159.81 184.015 159.81C182.794 159.81 181.572 159.81 180.344 159.86C179.726 159.796 179.129 160.112 178.827 160.66C178.68 161.004 178.603 161.376 178.596 161.748C178.596 162.998 178.596 164.24 178.533 165.49C178.533 165.7 178.652 165.672 178.792 165.672H184.303C184.528 165.672 184.584 165.77 184.556 165.988C184.366 167.666 184.184 169.351 183.987 171.035C183.987 171.351 183.917 171.674 183.903 171.983C183.896 172.299 183.77 172.327 183.51 172.313H178.596V191.358H170.614L170.621 191.351Z" fill="white"/>
<path d="M118.856 220.751C118.856 220.751 146.458 224.155 148.361 199.15C150.256 174.152 123.545 175.472 123.545 175.472C123.545 175.472 118.863 211.274 118.863 220.751H118.856Z" fill="url(#paint2_linear_19_1594)"/>
<path d="M121.207 217.002C134.234 217.002 144.795 206.442 144.795 193.415C144.795 180.388 134.234 169.828 121.207 169.828C108.18 169.828 97.6201 180.388 97.6201 193.415C97.6201 206.442 108.18 217.002 121.207 217.002Z" fill="#276577"/>
<path d="M162.33 261.713C173.965 261.713 183.397 252.281 183.397 240.646C183.397 229.011 173.965 219.579 162.33 219.579C150.695 219.579 141.263 229.011 141.263 240.646C141.263 252.281 150.695 261.713 162.33 261.713Z" fill="url(#paint3_linear_19_1594)"/>
<path d="M220.238 211.681C231.873 211.681 241.305 202.249 241.305 190.614C241.305 178.979 231.873 169.547 220.238 169.547C208.603 169.547 199.171 178.979 199.171 190.614C199.171 202.249 208.603 211.681 220.238 211.681Z" fill="url(#paint4_linear_19_1594)"/>
<path d="M267.001 234.41C268.865 222.926 261.066 212.104 249.582 210.24C238.097 208.376 227.276 216.175 225.411 227.66C223.547 239.144 231.346 249.966 242.831 251.83C254.315 253.694 265.137 245.895 267.001 234.41Z" fill="url(#paint5_linear_19_1594)"/>
<path d="M109.617 195.893C109.645 196.153 109.723 196.406 109.842 196.637C110.038 196.96 110.298 197.248 110.6 197.487C114.103 200.512 117.866 203.461 122.309 204.794C122.773 204.963 123.264 205.033 123.756 204.998C124.261 204.949 124.689 204.626 124.865 204.149C124.893 203.938 124.942 203.734 125.005 203.531C125.335 202.822 126.528 203.159 127.097 202.604C127.413 202.211 127.476 201.664 127.252 201.214C127.069 200.758 126.76 200.358 126.585 199.894C127.23 199.817 127.848 199.579 128.382 199.199C128.915 198.806 129.147 198.118 128.957 197.487C128.775 197.023 128.269 196.595 128.424 196.111C128.578 195.626 129.119 195.556 129.526 195.331C130.425 194.693 130.677 193.471 130.109 192.523C129.519 191.625 128.627 190.972 127.596 190.677C126.564 190.41 125.553 190.073 124.57 189.666C124.338 189.547 124.086 189.393 124.022 189.14C123.959 188.887 124.191 188.473 124.437 188.199C126.121 186.5 126.894 184.092 126.514 181.727C126.409 180.814 125.77 180.056 124.893 179.796C124.296 179.761 123.713 179.993 123.306 180.435C122.913 180.877 122.576 181.362 122.295 181.881C120.421 184.907 117.48 187.757 113.703 187.645C113.057 187.645 112.601 187.315 112.025 187.645C111.562 188.017 111.211 188.508 111.014 189.07C110.017 191.084 109.512 193.303 109.533 195.549C109.554 195.668 109.582 195.781 109.624 195.893H109.617Z" fill="white"/>
<path d="M253.057 254.608C266.084 254.608 276.644 244.048 276.644 231.021C276.644 217.994 266.084 207.434 253.057 207.434C240.03 207.434 229.47 217.994 229.47 231.021C229.47 244.048 240.03 254.608 253.057 254.608Z" fill="#276577"/>
<path d="M241.481 233.506C241.516 233.766 241.586 234.019 241.706 234.25C241.909 234.573 242.169 234.861 242.471 235.1C245.96 238.125 249.737 241.067 254.18 242.407C254.643 242.576 255.135 242.639 255.626 242.597C256.125 242.555 256.553 242.225 256.728 241.762C256.764 241.551 256.813 241.347 256.869 241.144C257.199 240.428 258.392 240.758 258.961 240.217C259.277 239.824 259.34 239.277 259.115 238.827C258.933 238.364 258.624 237.971 258.462 237.493C259.101 237.409 259.719 237.178 260.245 236.806C260.779 236.412 261.011 235.724 260.821 235.093C260.639 234.615 260.147 234.201 260.288 233.71C260.428 233.218 260.983 233.162 261.39 232.93C262.288 232.292 262.541 231.07 261.972 230.122C261.383 229.224 260.491 228.578 259.459 228.283C258.427 228.016 257.416 227.68 256.434 227.272C256.188 227.174 255.991 226.978 255.886 226.739C255.795 226.395 256.069 226.072 256.3 225.812C257.985 224.106 258.757 221.698 258.392 219.333C258.189 218.462 257.648 217.536 256.757 217.416C256.167 217.374 255.584 217.606 255.184 218.041C254.798 218.483 254.454 218.968 254.173 219.487C252.299 222.513 249.357 225.363 245.581 225.251C244.935 225.251 244.493 224.928 243.903 225.251C243.44 225.616 243.089 226.114 242.892 226.676C241.895 228.69 241.383 230.909 241.397 233.155L241.488 233.506H241.481Z" fill="white"/>
<path d="M159.333 258.006C170.968 258.006 180.4 248.574 180.4 236.939C180.4 225.304 170.968 215.872 159.333 215.872C147.698 215.872 138.266 225.304 138.266 236.939C138.266 248.574 147.698 258.006 159.333 258.006Z" fill="#276577"/>
<path d="M158.687 233.485C158.687 233.485 150.986 224.148 146.142 232.994C141.299 241.832 161.544 249.708 161.544 249.708C161.544 249.708 172.931 239.213 171.758 232.881C170.586 226.549 160.084 224.071 158.687 233.485Z" fill="white"/>
<path d="M220.954 207.441C232.589 207.441 242.022 198.009 242.022 186.374C242.022 174.739 232.589 165.307 220.954 165.307C209.319 165.307 199.887 174.739 199.887 186.374C199.887 198.009 209.319 207.441 220.954 207.441Z" fill="#276577"/>
<path d="M220.309 182.927C220.309 182.927 212.608 173.59 207.764 182.436C202.92 191.274 223.159 199.15 223.159 199.15C223.159 199.15 234.552 188.655 233.38 182.323C232.208 175.991 221.72 173.513 220.309 182.927Z" fill="white"/>
<defs>
<linearGradient id="paint0_linear_19_1594" x1="181.474" y1="-47.5112" x2="181.474" y2="634.517" gradientUnits="userSpaceOnUse">
<stop stop-color="#231F20"/>
<stop offset="0.08" stop-color="#231F20" stop-opacity="0.69"/>
<stop offset="0.21" stop-color="#231F20" stop-opacity="0.32"/>
<stop offset="1" stop-color="#231F20" stop-opacity="0"/>
</linearGradient>
<linearGradient id="paint1_linear_19_1594" x1="124.738" y1="84.3033" x2="245.23" y2="308.234" gradientUnits="userSpaceOnUse">
<stop stop-color="#231F20"/>
<stop offset="0.13" stop-color="#231F20" stop-opacity="0.69"/>
<stop offset="0.25" stop-color="#231F20" stop-opacity="0.32"/>
<stop offset="1" stop-color="#231F20" stop-opacity="0"/>
</linearGradient>
<linearGradient id="paint2_linear_19_1594" x1="98.6801" y1="164.296" x2="181.664" y2="259.775" gradientUnits="userSpaceOnUse">
<stop stop-color="#231F20"/>
<stop offset="0.13" stop-color="#231F20" stop-opacity="0.69"/>
<stop offset="0.25" stop-color="#231F20" stop-opacity="0.32"/>
<stop offset="1" stop-color="#231F20" stop-opacity="0"/>
</linearGradient>
<linearGradient id="paint3_linear_19_1594" x1="48.431" y1="164.963" x2="304.191" y2="334.903" gradientUnits="userSpaceOnUse">
<stop stop-color="#231F20"/>
<stop offset="0.13" stop-color="#231F20" stop-opacity="0.69"/>
<stop offset="0.25" stop-color="#231F20" stop-opacity="0.32"/>
<stop offset="1" stop-color="#231F20" stop-opacity="0"/>
</linearGradient>
<linearGradient id="paint4_linear_19_1594" x1="106.339" y1="114.931" x2="362.106" y2="284.871" gradientUnits="userSpaceOnUse">
<stop stop-color="#231F20"/>
<stop offset="0.13" stop-color="#231F20" stop-opacity="0.69"/>
<stop offset="0.25" stop-color="#231F20" stop-opacity="0.32"/>
<stop offset="1" stop-color="#231F20" stop-opacity="0"/>
</linearGradient>
<linearGradient id="paint5_linear_19_1594" x1="132.185" y1="155.344" x2="387.937" y2="325.278" gradientUnits="userSpaceOnUse">
<stop stop-color="#231F20"/>
<stop offset="0.13" stop-color="#231F20" stop-opacity="0.69"/>
<stop offset="0.25" stop-color="#231F20" stop-opacity="0.32"/>
<stop offset="1" stop-color="#231F20" stop-opacity="0"/>
</linearGradient>
</defs>
</svg>
