<svg width="181" height="50" viewBox="0 0 181 50" fill="none" xmlns="http://www.w3.org/2000/svg">
<rect width="181" height="50" rx="8" fill="#E91742"/>
<path d="M97.5349 30.823C96.9099 30.823 96.3448 30.7214 95.8396 30.5183C95.3396 30.31 94.9125 30.0209 94.5584 29.6511C94.2094 29.2813 93.9412 28.8464 93.7537 28.3464C93.5662 27.8464 93.4724 27.3074 93.4724 26.7292V26.4167C93.4724 25.7553 93.5688 25.1563 93.7615 24.6199C93.9542 24.0834 94.2224 23.6251 94.5662 23.2449C94.9099 22.8595 95.3162 22.5652 95.7849 22.3621C96.2537 22.1589 96.7615 22.0574 97.3084 22.0574C97.9125 22.0574 98.4412 22.1589 98.8943 22.3621C99.3474 22.5652 99.7224 22.8516 100.019 23.2214C100.321 23.586 100.545 24.0209 100.691 24.5261C100.842 25.0313 100.918 25.5886 100.918 26.198V27.0027H94.3865V25.6511H99.0584V25.5027C99.048 25.1641 98.9802 24.8464 98.8552 24.5496C98.7355 24.2527 98.5506 24.0131 98.3006 23.8308C98.0506 23.6485 97.7172 23.5574 97.3006 23.5574C96.9881 23.5574 96.7094 23.6251 96.4646 23.7605C96.225 23.8907 96.0245 24.0808 95.8631 24.3308C95.7016 24.5808 95.5766 24.8829 95.4881 25.2371C95.4047 25.586 95.3631 25.9792 95.3631 26.4167V26.7292C95.3631 27.099 95.4125 27.4428 95.5115 27.7605C95.6157 28.073 95.7667 28.3464 95.9646 28.5808C96.1625 28.8152 96.4021 29.0001 96.6834 29.1355C96.9646 29.2657 97.2849 29.3308 97.6443 29.3308C98.0974 29.3308 98.5011 29.2397 98.8552 29.0574C99.2094 28.8751 99.5167 28.6173 99.7771 28.2839L100.769 29.2449C100.587 29.5105 100.35 29.7657 100.058 30.0105C99.7667 30.2501 99.4099 30.4454 98.9881 30.5964C98.5714 30.7475 98.087 30.823 97.5349 30.823Z" fill="white"/>
<path d="M92.3552 22.2136V23.5886H87.5896V22.2136H92.3552ZM88.9646 20.1433H90.8474V28.3308C90.8474 28.5912 90.8839 28.7917 90.9568 28.9324C91.0349 29.0678 91.1417 29.1589 91.2771 29.2058C91.4125 29.2527 91.5714 29.2761 91.7537 29.2761C91.8839 29.2761 92.0089 29.2683 92.1287 29.2527C92.2485 29.2371 92.3448 29.2214 92.4177 29.2058L92.4256 30.6433C92.2693 30.6902 92.087 30.7319 91.8787 30.7683C91.6756 30.8048 91.4412 30.823 91.1756 30.823C90.7433 30.823 90.3605 30.7475 90.0271 30.5964C89.6938 30.4402 89.4334 30.1876 89.2459 29.8386C89.0584 29.4897 88.9646 29.0261 88.9646 28.448V20.1433Z" fill="white"/>
<path d="M86.4177 22.2136V30.6667H84.5271V22.2136H86.4177ZM84.4021 19.9949C84.4021 19.7084 84.4959 19.4714 84.6834 19.2839C84.8761 19.0912 85.1417 18.9949 85.4802 18.9949C85.8136 18.9949 86.0766 19.0912 86.2693 19.2839C86.462 19.4714 86.5584 19.7084 86.5584 19.9949C86.5584 20.2761 86.462 20.5105 86.2693 20.698C86.0766 20.8855 85.8136 20.9792 85.4802 20.9792C85.1417 20.9792 84.8761 20.8855 84.6834 20.698C84.4959 20.5105 84.4021 20.2761 84.4021 19.9949Z" fill="white"/>
<path d="M80.5818 28.6746V22.2136H82.4724V30.6667H80.6912L80.5818 28.6746ZM80.8474 26.9167L81.4802 26.9011C81.4802 27.4688 81.4177 27.9923 81.2927 28.4714C81.1677 28.9454 80.975 29.3595 80.7146 29.7136C80.4542 30.0626 80.1209 30.336 79.7146 30.5339C79.3084 30.7266 78.8214 30.823 78.2537 30.823C77.8422 30.823 77.4646 30.7631 77.1209 30.6433C76.7771 30.5235 76.4802 30.3386 76.2302 30.0886C75.9855 29.8386 75.7954 29.5131 75.6599 29.1121C75.5245 28.711 75.4568 28.2319 75.4568 27.6746V22.2136H77.3396V27.6902C77.3396 27.9975 77.3761 28.2553 77.449 28.4636C77.5219 28.6667 77.6209 28.8308 77.7459 28.9558C77.8709 29.0808 78.0167 29.1694 78.1834 29.2214C78.35 29.2735 78.5271 29.2996 78.7146 29.2996C79.2511 29.2996 79.673 29.1954 79.9802 28.9871C80.2927 28.7735 80.5141 28.4871 80.6443 28.1277C80.7797 27.7683 80.8474 27.3647 80.8474 26.9167Z" fill="white"/>
<path d="M72.0037 28.3777C72.0037 28.1902 71.9568 28.0209 71.8631 27.8699C71.7693 27.7136 71.5896 27.573 71.324 27.448C71.0636 27.323 70.6782 27.2084 70.1677 27.1042C69.7198 27.0053 69.3084 26.8881 68.9334 26.7527C68.5636 26.6121 68.2459 26.4428 67.9802 26.2449C67.7146 26.047 67.5089 25.8126 67.3631 25.5417C67.2172 25.2709 67.1443 24.9584 67.1443 24.6042C67.1443 24.2605 67.2198 23.935 67.3709 23.6277C67.5219 23.3204 67.7381 23.0496 68.0193 22.8152C68.3006 22.5808 68.6417 22.3959 69.0427 22.2605C69.449 22.1251 69.9021 22.0574 70.4021 22.0574C71.1105 22.0574 71.7172 22.1772 72.2224 22.4167C72.7329 22.6511 73.1235 22.9714 73.3943 23.3777C73.6651 23.7787 73.8006 24.2319 73.8006 24.7371H71.9177C71.9177 24.5131 71.8605 24.3048 71.7459 24.1121C71.6365 23.9141 71.4698 23.7553 71.2459 23.6355C71.0219 23.5105 70.7407 23.448 70.4021 23.448C70.0792 23.448 69.811 23.5001 69.5974 23.6042C69.3891 23.7032 69.2329 23.8334 69.1287 23.9949C69.0297 24.1563 68.9802 24.3334 68.9802 24.5261C68.9802 24.6667 69.0063 24.7944 69.0584 24.9089C69.1157 25.0183 69.2094 25.1199 69.3396 25.2136C69.4698 25.3022 69.6469 25.3855 69.8709 25.4636C70.1 25.5417 70.3865 25.6173 70.7302 25.6902C71.3761 25.8256 71.9308 26.0001 72.3943 26.2136C72.8631 26.422 73.2224 26.6928 73.4724 27.0261C73.7224 27.3542 73.8474 27.7709 73.8474 28.2761C73.8474 28.6511 73.7667 28.9949 73.6052 29.3074C73.449 29.6147 73.2198 29.8829 72.9177 30.1121C72.6157 30.336 72.2537 30.5105 71.8318 30.6355C71.4151 30.7605 70.9464 30.823 70.4256 30.823C69.6599 30.823 69.0115 30.6876 68.4802 30.4167C67.949 30.1407 67.5454 29.7891 67.2693 29.3621C66.9985 28.9298 66.8631 28.4819 66.8631 28.0183H68.6834C68.7042 28.3673 68.8006 28.6459 68.9724 28.8542C69.1495 29.0574 69.3683 29.2058 69.6287 29.2996C69.8943 29.3881 70.1677 29.4324 70.449 29.4324C70.7875 29.4324 71.0714 29.3881 71.3006 29.2996C71.5297 29.2058 71.7042 29.0808 71.824 28.9246C71.9438 28.7631 72.0037 28.5808 72.0037 28.3777Z" fill="white"/>
<path d="M59.4177 28.9714V24.9402C59.4177 24.6381 59.3631 24.3777 59.2537 24.1589C59.1443 23.9402 58.9776 23.7709 58.7537 23.6511C58.5349 23.5313 58.2589 23.4714 57.9256 23.4714C57.6183 23.4714 57.3526 23.5235 57.1287 23.6277C56.9047 23.7319 56.7302 23.8725 56.6052 24.0496C56.4802 24.2266 56.4177 24.4272 56.4177 24.6511H54.5427C54.5427 24.3178 54.6235 23.9949 54.7849 23.6824C54.9464 23.3699 55.1808 23.0912 55.4881 22.8464C55.7954 22.6016 56.1625 22.4089 56.5896 22.2683C57.0167 22.1277 57.4959 22.0574 58.0271 22.0574C58.6625 22.0574 59.225 22.1641 59.7146 22.3777C60.2094 22.5912 60.5974 22.9141 60.8787 23.3464C61.1651 23.7735 61.3084 24.31 61.3084 24.9558V28.7136C61.3084 29.099 61.3344 29.4454 61.3865 29.7527C61.4438 30.0548 61.5245 30.3178 61.6287 30.5417V30.6667H59.699C59.6105 30.4636 59.5401 30.2058 59.4881 29.8933C59.4412 29.5756 59.4177 29.2683 59.4177 28.9714ZM59.6912 25.5261L59.7068 26.6902H58.3552C58.0063 26.6902 57.699 26.724 57.4334 26.7917C57.1677 26.8542 56.9464 26.948 56.7693 27.073C56.5922 27.198 56.4594 27.349 56.3709 27.5261C56.2823 27.7032 56.2381 27.9037 56.2381 28.1277C56.2381 28.3516 56.2901 28.5574 56.3943 28.7449C56.4985 28.9272 56.6495 29.0704 56.8474 29.1746C57.0506 29.2787 57.2954 29.3308 57.5818 29.3308C57.9672 29.3308 58.3032 29.2527 58.5896 29.0964C58.8813 28.935 59.1105 28.7397 59.2771 28.5105C59.4438 28.2761 59.5323 28.0548 59.5427 27.8464L60.1521 28.6824C60.0896 28.8959 59.9829 29.1251 59.8318 29.3699C59.6808 29.6147 59.4829 29.849 59.2381 30.073C58.9985 30.2917 58.7094 30.4714 58.3709 30.6121C58.0375 30.7527 57.6521 30.823 57.2146 30.823C56.6625 30.823 56.1704 30.7136 55.7381 30.4949C55.3058 30.2709 54.9672 29.9714 54.7224 29.5964C54.4776 29.2162 54.3552 28.7865 54.3552 28.3074C54.3552 27.8595 54.4386 27.4636 54.6052 27.1199C54.7771 26.7709 55.0271 26.4792 55.3552 26.2449C55.6886 26.0105 56.0948 25.8334 56.574 25.7136C57.0532 25.5886 57.6 25.5261 58.2146 25.5261H59.6912Z" fill="white"/>
<path d="M52.5896 18.6667V30.6667H50.699V18.6667H52.5896Z" fill="white"/>
<path d="M41.7381 30.823C41.1131 30.823 40.548 30.7214 40.0427 30.5183C39.5427 30.31 39.1157 30.0209 38.7615 29.6511C38.4125 29.2813 38.1443 28.8464 37.9568 28.3464C37.7693 27.8464 37.6756 27.3074 37.6756 26.7292V26.4167C37.6756 25.7553 37.7719 25.1563 37.9646 24.6199C38.1573 24.0834 38.4256 23.6251 38.7693 23.2449C39.1131 22.8595 39.5193 22.5652 39.9881 22.3621C40.4568 22.1589 40.9646 22.0574 41.5115 22.0574C42.1157 22.0574 42.6443 22.1589 43.0974 22.3621C43.5506 22.5652 43.9256 22.8516 44.2224 23.2214C44.5245 23.586 44.7485 24.0209 44.8943 24.5261C45.0453 25.0313 45.1209 25.5886 45.1209 26.198V27.0027H38.5896V25.6511H43.2615V25.5027C43.2511 25.1641 43.1834 24.8464 43.0584 24.5496C42.9386 24.2527 42.7537 24.0131 42.5037 23.8308C42.2537 23.6485 41.9203 23.5574 41.5037 23.5574C41.1912 23.5574 40.9125 23.6251 40.6677 23.7605C40.4282 23.8907 40.2276 24.0808 40.0662 24.3308C39.9047 24.5808 39.7797 24.8829 39.6912 25.2371C39.6078 25.586 39.5662 25.9792 39.5662 26.4167V26.7292C39.5662 27.099 39.6157 27.4428 39.7146 27.7605C39.8188 28.073 39.9698 28.3464 40.1677 28.5808C40.3657 28.8152 40.6052 29.0001 40.8865 29.1355C41.1677 29.2657 41.4881 29.3308 41.8474 29.3308C42.3006 29.3308 42.7042 29.2397 43.0584 29.0574C43.4125 28.8751 43.7198 28.6173 43.9802 28.2839L44.9724 29.2449C44.7901 29.5105 44.5532 29.7657 44.2615 30.0105C43.9698 30.2501 43.6131 30.4454 43.1912 30.5964C42.7745 30.7475 42.2901 30.823 41.7381 30.823Z" fill="white"/>
<path d="M34.4021 23.823V30.6667H32.5193V22.2136H34.3162L34.4021 23.823ZM36.9881 22.1589L36.9724 23.9089C36.8579 23.8881 36.7329 23.8725 36.5974 23.8621C36.4672 23.8516 36.337 23.8464 36.2068 23.8464C35.8839 23.8464 35.6 23.8933 35.3552 23.9871C35.1105 24.0756 34.9047 24.2058 34.7381 24.3777C34.5766 24.5444 34.4516 24.7475 34.3631 24.9871C34.2745 25.2266 34.2224 25.4949 34.2068 25.7917L33.7771 25.823C33.7771 25.2917 33.8292 24.7996 33.9334 24.3464C34.0375 23.8933 34.1938 23.4949 34.4021 23.1511C34.6157 22.8074 34.8813 22.5391 35.199 22.3464C35.5219 22.1537 35.8943 22.0574 36.3162 22.0574C36.4308 22.0574 36.5532 22.0678 36.6834 22.0886C36.8188 22.1095 36.9204 22.1329 36.9881 22.1589Z" fill="white"/>
<path d="M30.449 22.2136V30.6667H28.5584V22.2136H30.449ZM28.4334 19.9949C28.4334 19.7084 28.5271 19.4714 28.7146 19.2839C28.9073 19.0912 29.173 18.9949 29.5115 18.9949C29.8448 18.9949 30.1079 19.0912 30.3006 19.2839C30.4933 19.4714 30.5896 19.7084 30.5896 19.9949C30.5896 20.2761 30.4933 20.5105 30.3006 20.698C30.1079 20.8855 29.8448 20.9792 29.5115 20.9792C29.173 20.9792 28.9073 20.8855 28.7146 20.698C28.5271 20.5105 28.4334 20.2761 28.4334 19.9949Z" fill="white"/>
<path d="M27.1052 29.1121V30.6667H21.3943V29.1121H27.1052ZM21.9412 19.2917V30.6667H19.9802V19.2917H21.9412Z" fill="white"/>
<path d="M148.197 26.6719C147.039 26.6719 145.918 26.6323 144.801 26.6792C140.545 26.8566 136.291 27.0652 132.035 27.255C131.293 27.2884 131.019 27.0694 131.001 26.4894C130.98 25.8114 131.276 25.5235 132.023 25.4891C137.317 25.2471 142.61 25.003 147.903 24.7599C148.004 24.7557 148.104 24.7411 148.293 24.7224C148.293 23.9661 148.301 23.2255 148.285 22.487C148.282 22.3629 148.137 22.245 148.127 22.1188C148.103 21.8069 148.018 21.4439 148.139 21.1852C148.503 20.4029 148.463 19.6373 148.246 18.8435C148.202 18.6818 148.135 18.4627 148.205 18.3448C148.634 17.6272 148.458 16.8282 148.541 16.0678C148.589 15.6265 148.665 15.2468 149.127 15.0674C149.579 14.8922 149.918 15.082 150.259 15.3668C153.688 18.228 157.122 21.0851 160.559 23.9369C161.078 24.3677 161.147 24.9007 160.679 25.4077C157.598 28.7477 154.292 31.852 150.788 34.7435C150.331 35.12 149.756 35.072 149.339 34.6652C149.237 34.5661 149.107 34.466 148.974 34.4326C148.347 34.2751 148.161 34.0696 148.164 33.4302C148.172 31.3169 148.186 29.2046 148.199 27.0913C148.199 26.9212 148.199 26.7523 148.199 26.6719H148.197ZM153.236 22.1355C153.244 22.1 153.254 22.0646 153.262 22.0291C152.266 21.4376 151.268 20.8452 150.158 20.1859C150.271 20.6365 149.892 21.0559 150.438 21.2384C151.368 21.5482 152.303 21.8382 153.236 22.1365V22.1355ZM149.996 31.2042V33.0693C150.384 32.7459 150.705 32.4789 151.065 32.1785C150.711 31.8561 150.39 31.563 149.996 31.2032V31.2042ZM156.124 24.7412C156.116 24.7651 156.107 24.7891 156.099 24.8131C156.622 25.1886 157.145 25.5631 157.698 25.9595C157.907 25.7227 158.11 25.4922 158.343 25.2283C157.903 25.1292 157.552 25.0489 157.201 24.9717C156.842 24.8934 156.483 24.8173 156.124 24.7412ZM154.557 27.133C154.896 27.4981 155.182 27.8047 155.477 28.1218C155.69 27.907 155.863 27.7317 156.075 27.5168C155.572 27.3896 155.118 27.2748 154.557 27.133ZM151.58 29.1055C151.006 28.8009 150.547 28.5579 150.066 28.3033C150.054 28.7268 150.602 29.0199 151.58 29.1055Z" fill="black"/>
</svg>
