<svg width="160" height="55" viewBox="0 0 160 55" fill="none" xmlns="http://www.w3.org/2000/svg">
<g clip-path="url(#clip0_94_353)">
<path d="M15.97 53.62C18.26 53.62 20.56 53.6 22.85 53.59C24.82 53.59 26.8 53.59 28.77 53.59C30.41 53.59 32.06 53.59 33.7 53.59C73.27 52.23 112.84 50.82 152.41 49.58C156.6 49.45 158.47 49.08 157.8 43.96C156.08 30.76 156.54 17.48 159.05 4.34999C159.74 0.729986 159.05 -0.220014 155.13 0.469986C142 2.78999 128.79 1.20999 115.64 0.569986C77.41 -1.30001 39.51 1.49999 1.87 8.15999C1.23 8.26999 0.62 8.56999 0 8.76999V10.71C3.3 11.25 7.62 7.72999 9.47 10.63C10.9 12.85 9.07 17.11 8.61 20.46C7.08 31.78 5.51 43.09 3.96 54.41H8.91C11.14 53.14 13.56 53.44 15.96 53.62H15.97ZM7.19 46.76C9.01 35.76 10.69 24.73 11.86 13.65C12.27 9.73999 13.65 8.44999 17.42 7.92999C44.89 4.11999 72.48 2.09999 100.23 2.67999C114.07 2.96999 127.91 3.52999 141.75 3.94999C143.4 3.99999 145.06 3.74999 146.69 3.91999C149.93 4.25999 154.22 1.41999 155.97 3.83999C157.39 5.80999 155.65 9.99999 155.26 13.2C154.06 23.03 153.9 32.9 155.17 42.71C155.65 46.4 154.44 47.01 151.14 47.11C127.57 47.83 104.01 48.7 80.45 49.52C57.54 50.25 34.63 50.87 11.73 51.83C7.26 52.02 6.51 50.83 7.18 46.77L7.19 46.76Z" fill="black"/>
<path d="M8.91003 54.41H15.84C15.86 54.25 15.89 54.1 15.91 53.94C13.58 54.1 11.18 53.42 8.91003 54.41Z" fill="black"/>
<path d="M15.92 53.94C15.94 53.83 15.95 53.73 15.97 53.62C13.57 53.44 11.15 53.14 8.92004 54.41C11.2 53.42 13.59 54.1 15.92 53.94Z" fill="black"/>
<path d="M16.32 53.92C16.38 54.02 16.38 54.12 16.29 54.2C16.15 54.34 16 54.41 15.85 54.41H22.78C22.78 54.25 22.81 54.09 22.82 53.92H16.32Z" fill="black"/>
<path d="M15.97 53.62C16.15 53.73 16.26 53.83 16.32 53.93H22.82C22.82 53.82 22.83 53.7 22.85 53.59C20.56 53.59 18.26 53.61 15.97 53.62Z" fill="black"/>
<path d="M16.32 53.92H16.18C16.09 53.92 16.01 53.92 15.92 53.93C15.9 54.09 15.87 54.24 15.85 54.4C16.01 54.4 16.15 54.33 16.29 54.19C16.37 54.11 16.38 54.01 16.32 53.91V53.92Z" fill="black"/>
<path d="M15.97 53.62C15.95 53.73 15.94 53.83 15.92 53.94C16.01 53.94 16.09 53.94 16.18 53.93H16.32C16.26 53.84 16.15 53.73 15.97 53.62Z" fill="black"/>
<path d="M23.32 53.92C23.43 54.1 23.25 54.27 22.77 54.41H28.71C28.71 54.25 28.73 54.09 28.74 53.92H23.32Z" fill="black"/>
<path d="M22.84 53.59C23.1 53.71 23.25 53.82 23.32 53.93H28.74C28.74 53.82 28.74 53.71 28.76 53.6C26.79 53.6 24.81 53.6 22.84 53.6V53.59Z" fill="black"/>
<path d="M23.32 53.92H22.81C22.8 54.08 22.78 54.24 22.77 54.41C23.25 54.27 23.43 54.11 23.32 53.92Z" fill="black"/>
<path d="M22.8401 53.59C22.8301 53.7 22.8201 53.82 22.8101 53.93H23.3201C23.2601 53.82 23.1001 53.71 22.8401 53.59Z" fill="black"/>
<path d="M125.09 35.97C130.9 35.95 135.62 32.39 135.68 27.98C135.74 23.81 130.68 17.44 127.45 17.61C121.71 17.91 115.75 23.2 115.86 27.88C115.97 32.48 119.97 35.98 125.09 35.97ZM122.36 22.23C122.57 22.16 122.78 22.1 122.99 22.05C129.9 20.12 130.97 20.67 132.77 26.3C132.77 26.3 132.76 26.3 132.75 26.3C135.04 31.84 130.1 32.23 126.96 33.9C126.47 33.9 125.97 33.9 125.48 33.9C121.55 33.87 118.65 32.2 118.09 28.28C117.67 25.35 119.03 22.94 122.36 22.21V22.23Z" fill="black"/>
<path d="M92.1455 23.0469H95.666C96.4225 23.0469 97.0674 23.1608 97.6006 23.3887C98.1338 23.6165 98.5417 23.9538 98.8242 24.4004C99.1113 24.8424 99.2549 25.3893 99.2549 26.041C99.2549 26.5378 99.1637 26.9753 98.9814 27.3535C98.7992 27.7318 98.5417 28.0508 98.209 28.3105C97.8763 28.5658 97.4798 28.764 97.0195 28.9053L96.5 29.1582H93.335L93.3213 27.7979H95.6934C96.1035 27.7979 96.4453 27.7249 96.7188 27.5791C96.9922 27.4333 97.1973 27.235 97.334 26.9844C97.4753 26.7292 97.5459 26.4421 97.5459 26.123C97.5459 25.7767 97.4775 25.4759 97.3408 25.2207C97.2087 24.9609 97.0036 24.7627 96.7256 24.626C96.4476 24.4847 96.0944 24.4141 95.666 24.4141H93.8613V33H92.1455V23.0469ZM97.8262 33L95.4883 28.5293L97.2861 28.5225L99.6582 32.9111V33H97.8262Z" fill="black"/>
<path d="M90.0127 23.0469V33H88.2969V23.0469H90.0127Z" fill="black"/>
<path d="M86.4648 27.75V28.2969C86.4648 29.0488 86.3669 29.7233 86.1709 30.3203C85.9749 30.9173 85.6947 31.4255 85.3301 31.8447C84.9701 32.264 84.5371 32.5853 84.0312 32.8086C83.5254 33.0273 82.9648 33.1367 82.3496 33.1367C81.7389 33.1367 81.1807 33.0273 80.6748 32.8086C80.1735 32.5853 79.7383 32.264 79.3691 31.8447C79 31.4255 78.7129 30.9173 78.5078 30.3203C78.3073 29.7233 78.207 29.0488 78.207 28.2969V27.75C78.207 26.998 78.3073 26.3258 78.5078 25.7334C78.7083 25.1364 78.9909 24.6283 79.3555 24.209C79.7246 23.7852 80.1598 23.4639 80.6611 23.2451C81.167 23.0218 81.7253 22.9102 82.3359 22.9102C82.9512 22.9102 83.5117 23.0218 84.0176 23.2451C84.5234 23.4639 84.9587 23.7852 85.3232 24.209C85.6878 24.6283 85.9681 25.1364 86.1641 25.7334C86.3646 26.3258 86.4648 26.998 86.4648 27.75ZM84.749 28.2969V27.7363C84.749 27.1803 84.6943 26.6904 84.585 26.2666C84.4801 25.8382 84.3229 25.4805 84.1133 25.1934C83.9082 24.9017 83.6553 24.6829 83.3545 24.5371C83.0537 24.3867 82.7142 24.3115 82.3359 24.3115C81.9577 24.3115 81.6204 24.3867 81.3242 24.5371C81.028 24.6829 80.7751 24.9017 80.5654 25.1934C80.3604 25.4805 80.2031 25.8382 80.0938 26.2666C79.9844 26.6904 79.9297 27.1803 79.9297 27.7363V28.2969C79.9297 28.8529 79.9844 29.3451 80.0938 29.7734C80.2031 30.2018 80.3626 30.5641 80.5723 30.8604C80.7865 31.152 81.0417 31.373 81.3379 31.5234C81.6341 31.6693 81.9714 31.7422 82.3496 31.7422C82.7324 31.7422 83.0719 31.6693 83.3682 31.5234C83.6644 31.373 83.915 31.152 84.1201 30.8604C84.3252 30.5641 84.4801 30.2018 84.585 29.7734C84.6943 29.3451 84.749 28.8529 84.749 28.2969Z" fill="black"/>
<path d="M72.998 31.1816L75.6162 23.0469H77.5098L73.9414 33H72.6631L72.998 31.1816ZM70.5781 23.0469L73.1758 31.1816L73.5312 33H72.2461L68.6914 23.0469H70.5781Z" fill="black"/>
<path d="M64.7539 24.373L61.7803 33H59.9824L63.7285 23.0469H64.877L64.7539 24.373ZM67.2422 33L64.2617 24.373L64.1318 23.0469H65.2871L69.0469 33H67.2422ZM67.0986 29.3086V30.6689H61.6846V29.3086H67.0986Z" fill="black"/>
<path d="M57.6377 30.4365C57.6377 30.2314 57.6058 30.0492 57.542 29.8896C57.4827 29.7301 57.3757 29.5843 57.2207 29.4521C57.0658 29.32 56.847 29.1924 56.5645 29.0693C56.2865 28.9417 55.931 28.8118 55.498 28.6797C55.0241 28.5339 54.5866 28.3721 54.1855 28.1943C53.7891 28.012 53.4427 27.8024 53.1465 27.5654C52.8503 27.3239 52.6201 27.0482 52.4561 26.7383C52.292 26.4238 52.21 26.0615 52.21 25.6514C52.21 25.2458 52.2943 24.8766 52.4629 24.5439C52.6361 24.2113 52.8799 23.9242 53.1943 23.6826C53.5133 23.4365 53.8893 23.2474 54.3223 23.1152C54.7552 22.9785 55.2337 22.9102 55.7578 22.9102C56.4961 22.9102 57.1318 23.0469 57.665 23.3203C58.2028 23.5938 58.6152 23.9606 58.9023 24.4209C59.194 24.8812 59.3398 25.3893 59.3398 25.9453H57.6377C57.6377 25.6172 57.5671 25.3278 57.4258 25.0771C57.2891 24.8219 57.0794 24.6214 56.7969 24.4756C56.5189 24.3298 56.1657 24.2568 55.7373 24.2568C55.3317 24.2568 54.9945 24.3184 54.7256 24.4414C54.4567 24.5645 54.2562 24.7308 54.124 24.9404C53.9919 25.1501 53.9258 25.387 53.9258 25.6514C53.9258 25.8382 53.9691 26.0091 54.0557 26.1641C54.1423 26.3145 54.2744 26.4557 54.4521 26.5879C54.6299 26.7155 54.8532 26.8363 55.1221 26.9502C55.391 27.0641 55.7077 27.1735 56.0723 27.2783C56.6237 27.4424 57.1045 27.6247 57.5146 27.8252C57.9248 28.0212 58.2666 28.2445 58.54 28.4951C58.8135 28.7458 59.0186 29.0306 59.1553 29.3496C59.292 29.6641 59.3604 30.0218 59.3604 30.4229C59.3604 30.8421 59.276 31.2204 59.1074 31.5576C58.9388 31.8903 58.6973 32.1751 58.3828 32.4121C58.0729 32.6445 57.6992 32.8245 57.2617 32.9521C56.8288 33.0752 56.3457 33.1367 55.8125 33.1367C55.334 33.1367 54.8623 33.0729 54.3975 32.9453C53.9372 32.8177 53.5179 32.624 53.1396 32.3643C52.7614 32.0999 52.4606 31.7718 52.2373 31.3799C52.014 30.9834 51.9023 30.5208 51.9023 29.9922H53.6182C53.6182 30.3158 53.6729 30.5915 53.7822 30.8193C53.8962 31.0472 54.0534 31.234 54.2539 31.3799C54.4544 31.5212 54.6868 31.626 54.9512 31.6943C55.2201 31.7627 55.5072 31.7969 55.8125 31.7969C56.2135 31.7969 56.5485 31.7399 56.8174 31.626C57.0908 31.512 57.2959 31.3525 57.4326 31.1475C57.5693 30.9424 57.6377 30.7054 57.6377 30.4365Z" fill="black"/>
<path d="M46.8711 23.0469V33H45.1553L40.6914 25.8701V33H38.9756V23.0469H40.6914L45.1689 30.1904V23.0469H46.8711Z" fill="black"/>
<path d="M37.5742 31.6396V33H32.29V31.6396H37.5742ZM32.7754 23.0469V33H31.0596V23.0469H32.7754ZM36.8838 27.2031V28.543H32.29V27.2031H36.8838ZM37.54 23.0469V24.4141H32.29V23.0469H37.54Z" fill="black"/>
<path d="M124.76 22.43C124.88 22.68 125 22.92 125.1 23.17C125.08 22.94 125.07 22.71 125.01 22.45C124.93 22.45 124.84 22.44 124.76 22.43Z" fill="black"/>
<path d="M129.384 26.5449V28.0283H122.562V26.5449H129.384ZM126.772 23.7559V31.002H125.18V23.7559H126.772Z" fill="black"/>
</g>
<defs>
<clipPath id="clip0_94_353">
<rect width="159.29" height="54.41" fill="white"/>
</clipPath>
</defs>
</svg>
