<svg width="296" height="3" viewBox="0 0 296 3" fill="none" xmlns="http://www.w3.org/2000/svg">
<path fill-rule="evenodd" clip-rule="evenodd" d="M1 2.89624H0V0.89624H1V2.89624ZM5 2.89624H3V0.89624H5V2.89624ZM9 2.89624H7V0.89624H9V2.89624ZM13 2.89624H11V0.89624H13V2.89624ZM17 2.89624H15V0.89624H17V2.89624ZM21 2.89624H19V0.89624H21V2.89624ZM25 2.89624H23V0.89624H25V2.89624ZM29 2.89624H27V0.89624H29V2.89624ZM33 2.89624H31V0.89624H33V2.89624ZM37 2.89624H35V0.89624H37V2.89624ZM41 2.89624H39V0.89624H41V2.89624ZM45 2.89624H43V0.89624H45V2.89624ZM49 2.89624H47V0.89624H49V2.89624ZM53 2.89624H51V0.89624H53V2.89624ZM57 2.89624H55V0.89624H57V2.89624ZM61 2.89624H59V0.89624H61V2.89624ZM65 2.89624H63V0.89624H65V2.89624ZM69 2.89624H67V0.89624H69V2.89624ZM73 2.89624H71V0.89624H73V2.89624ZM77 2.89624H75V0.89624H77V2.89624ZM81 2.89624H79V0.89624H81V2.89624ZM85 2.89624H83V0.89624H85V2.89624ZM89 2.89624H87V0.89624H89V2.89624ZM93 2.89624H91V0.89624H93V2.89624ZM97 2.89624H95V0.89624H97V2.89624ZM101 2.89624H99V0.89624H101V2.89624ZM105 2.89624H103V0.89624H105V2.89624ZM109 2.89624H107V0.89624H109V2.89624ZM113 2.89624H111V0.89624H113V2.89624ZM117 2.89624H115V0.89624H117V2.89624ZM121 2.89624H119V0.89624H121V2.89624ZM125 2.89624H123V0.89624H125V2.89624ZM129 2.89624H127V0.89624H129V2.89624ZM133 2.89624H131V0.89624H133V2.89624ZM137 2.89624H135V0.89624H137V2.89624ZM141 2.89624H139V0.89624H141V2.89624ZM145 2.89624H143V0.89624H145V2.89624ZM149 2.89624H147V0.89624H149V2.89624ZM153 2.89624H151V0.89624H153V2.89624ZM157 2.89624H155V0.89624H157V2.89624ZM161 2.89624H159V0.89624H161V2.89624ZM165 2.89624H163V0.89624H165V2.89624ZM169 2.89624H167V0.89624H169V2.89624ZM173 2.89624H171V0.89624H173V2.89624ZM177 2.89624H175V0.89624H177V2.89624ZM181 2.89624H179V0.89624H181V2.89624ZM185 2.89624H183V0.89624H185V2.89624ZM189 2.89624H187V0.89624H189V2.89624ZM193 2.89624H191V0.89624H193V2.89624ZM197 2.89624H195V0.89624H197V2.89624ZM201 2.89624H199V0.89624H201V2.89624ZM205 2.89624H203V0.89624H205V2.89624ZM209 2.89624H207V0.89624H209V2.89624ZM213 2.89624H211V0.89624H213V2.89624ZM217 2.89624H215V0.89624H217V2.89624ZM221 2.89624H219V0.89624H221V2.89624ZM225 2.89624H223V0.89624H225V2.89624ZM229 2.89624H227V0.89624H229V2.89624ZM233 2.89624H231V0.89624H233V2.89624ZM237 2.89624H235V0.89624H237V2.89624ZM241 2.89624H239V0.89624H241V2.89624ZM245 2.89624H243V0.89624H245V2.89624ZM249 2.89624H247V0.89624H249V2.89624ZM253 2.89624H251V0.89624H253V2.89624ZM257 2.89624H255V0.89624H257V2.89624ZM261 2.89624H259V0.89624H261V2.89624ZM265 2.89624H263V0.89624H265V2.89624ZM269 2.89624H267V0.89624H269V2.89624ZM273 2.89624H271V0.89624H273V2.89624ZM277 2.89624H275V0.89624H277V2.89624ZM281 2.89624H279V0.89624H281V2.89624ZM285 2.89624H283V0.89624H285V2.89624ZM289 2.89624H287V0.89624H289V2.89624ZM293 2.89624H291V0.89624H293V2.89624ZM296 2.89624H295V0.89624H296V2.89624Z" fill="black"/>
</svg>
