<svg width="2" height="241" viewBox="0 0 2 241" fill="none" xmlns="http://www.w3.org/2000/svg">
<path fill-rule="evenodd" clip-rule="evenodd" d="M-4.37114e-08 1.89624L0 0.89624L2 0.89624L2 1.89624L-4.37114e-08 1.89624ZM-2.18557e-07 5.89624L-1.31134e-07 3.89624L2 3.89624L2 5.89624L-2.18557e-07 5.89624ZM-3.93402e-07 9.89624L-3.0598e-07 7.89624L2 7.89624L2 9.89624L-3.93402e-07 9.89624ZM-5.68248e-07 13.8962L-4.80825e-07 11.8962L2 11.8962L2 13.8962L-5.68248e-07 13.8962ZM-7.43094e-07 17.8962L-6.55671e-07 15.8962L2 15.8962L2 17.8962L-7.43094e-07 17.8962ZM-9.17939e-07 21.8962L-8.30516e-07 19.8962L2 19.8962L2 21.8962L-9.17939e-07 21.8962ZM-1.09278e-06 25.8962L-1.00536e-06 23.8962L2 23.8962L2 25.8962L-1.09278e-06 25.8962ZM-1.26763e-06 29.8962L-1.18021e-06 27.8962L2 27.8962L2 29.8962L-1.26763e-06 29.8962ZM-1.44248e-06 33.8962L-1.35505e-06 31.8962L2 31.8962L2 33.8962L-1.44248e-06 33.8962ZM-1.61732e-06 37.8962L-1.5299e-06 35.8962L2 35.8962L2 37.8962L-1.61732e-06 37.8962ZM-1.79217e-06 41.8962L-1.70474e-06 39.8962L2 39.8962L2 41.8962L-1.79217e-06 41.8962ZM-1.96701e-06 45.8962L-1.87959e-06 43.8962L2 43.8962L2 45.8962L-1.96701e-06 45.8962ZM-2.14186e-06 49.8962L-2.05444e-06 47.8962L2 47.8962L2 49.8962L-2.14186e-06 49.8962ZM-2.3167e-06 53.8962L-2.22928e-06 51.8962L2 51.8962L2 53.8962L-2.3167e-06 53.8962ZM-2.49155e-06 57.8962L-2.40413e-06 55.8962L2 55.8962L2 57.8962L-2.49155e-06 57.8962ZM-2.66639e-06 61.8962L-2.57897e-06 59.8962L2 59.8962L2 61.8962L-2.66639e-06 61.8962ZM-2.84124e-06 65.8962L-2.75382e-06 63.8962L2 63.8962L2 65.8962L-2.84124e-06 65.8962ZM-3.01609e-06 69.8962L-2.92866e-06 67.8962L2 67.8962L2 69.8962L-3.01609e-06 69.8962ZM-3.19093e-06 73.8962L-3.10351e-06 71.8962L2 71.8962L2 73.8962L-3.19093e-06 73.8962ZM-3.36578e-06 77.8962L-3.27835e-06 75.8962L2 75.8962L2 77.8962L-3.36578e-06 77.8962ZM-3.54062e-06 81.8962L-3.4532e-06 79.8962L2 79.8962L2 81.8962L-3.54062e-06 81.8962ZM-3.71547e-06 85.8962L-3.62805e-06 83.8962L2 83.8962L2 85.8962L-3.71547e-06 85.8962ZM-3.89031e-06 89.8962L-3.80289e-06 87.8962L2 87.8962L2 89.8962L-3.89031e-06 89.8962ZM-4.06516e-06 93.8962L-3.97774e-06 91.8962L2 91.8962L2 93.8962L-4.06516e-06 93.8962ZM-4.24e-06 97.8962L-4.15258e-06 95.8962L2 95.8962L2 97.8962L-4.24e-06 97.8962ZM-4.41485e-06 101.896L-4.32743e-06 99.8962L2 99.8962L2 101.896L-4.41485e-06 101.896ZM-4.5897e-06 105.896L-4.50227e-06 103.896L2 103.896L2 105.896L-4.5897e-06 105.896ZM-4.76454e-06 109.896L-4.67712e-06 107.896L2 107.896L2 109.896L-4.76454e-06 109.896ZM-4.93939e-06 113.896L-4.85196e-06 111.896L2 111.896L2 113.896L-4.93939e-06 113.896ZM-5.11423e-06 117.896L-5.02681e-06 115.896L1.99999 115.896L1.99999 117.896L-5.11423e-06 117.896ZM-5.28908e-06 121.896L-5.20166e-06 119.896L1.99999 119.896L1.99999 121.896L-5.28908e-06 121.896ZM-5.46392e-06 125.896L-5.3765e-06 123.896L1.99999 123.896L1.99999 125.896L-5.46392e-06 125.896ZM-5.63877e-06 129.896L-5.55135e-06 127.896L1.99999 127.896L1.99999 129.896L-5.63877e-06 129.896ZM-5.81361e-06 133.896L-5.72619e-06 131.896L1.99999 131.896L1.99999 133.896L-5.81361e-06 133.896ZM-5.98846e-06 137.896L-5.90104e-06 135.896L1.99999 135.896L1.99999 137.896L-5.98846e-06 137.896ZM-6.16331e-06 141.896L-6.07588e-06 139.896L1.99999 139.896L1.99999 141.896L-6.16331e-06 141.896ZM-6.33815e-06 145.896L-6.25073e-06 143.896L1.99999 143.896L1.99999 145.896L-6.33815e-06 145.896ZM-6.513e-06 149.896L-6.42557e-06 147.896L1.99999 147.896L1.99999 149.896L-6.513e-06 149.896ZM-6.68784e-06 153.896L-6.60042e-06 151.896L1.99999 151.896L1.99999 153.896L-6.68784e-06 153.896ZM-6.86269e-06 157.896L-6.77527e-06 155.896L1.99999 155.896L1.99999 157.896L-6.86269e-06 157.896ZM-7.03753e-06 161.896L-6.95011e-06 159.896L1.99999 159.896L1.99999 161.896L-7.03753e-06 161.896ZM-7.21238e-06 165.896L-7.12496e-06 163.896L1.99999 163.896L1.99999 165.896L-7.21238e-06 165.896ZM-7.38722e-06 169.896L-7.2998e-06 167.896L1.99999 167.896L1.99999 169.896L-7.38722e-06 169.896ZM-7.56207e-06 173.896L-7.47465e-06 171.896L1.99999 171.896L1.99999 173.896L-7.56207e-06 173.896ZM-7.73692e-06 177.896L-7.64949e-06 175.896L1.99999 175.896L1.99999 177.896L-7.73692e-06 177.896ZM-7.91176e-06 181.896L-7.82434e-06 179.896L1.99999 179.896L1.99999 181.896L-7.91176e-06 181.896ZM-8.08661e-06 185.896L-7.99918e-06 183.896L1.99999 183.896L1.99999 185.896L-8.08661e-06 185.896ZM-8.26145e-06 189.896L-8.17403e-06 187.896L1.99999 187.896L1.99999 189.896L-8.26145e-06 189.896ZM-8.4363e-06 193.896L-8.34888e-06 191.896L1.99999 191.896L1.99999 193.896L-8.4363e-06 193.896ZM-8.61114e-06 197.896L-8.52372e-06 195.896L1.99999 195.896L1.99999 197.896L-8.61114e-06 197.896ZM-8.78599e-06 201.896L-8.69857e-06 199.896L1.99999 199.896L1.99999 201.896L-8.78599e-06 201.896ZM-8.96083e-06 205.896L-8.87341e-06 203.896L1.99999 203.896L1.99999 205.896L-8.96083e-06 205.896ZM-9.13568e-06 209.896L-9.04826e-06 207.896L1.99999 207.896L1.99999 209.896L-9.13568e-06 209.896ZM-9.31053e-06 213.896L-9.2231e-06 211.896L1.99999 211.896L1.99999 213.896L-9.31053e-06 213.896ZM-9.48537e-06 217.896L-9.39795e-06 215.896L1.99999 215.896L1.99999 217.896L-9.48537e-06 217.896ZM-9.66022e-06 221.896L-9.57279e-06 219.896L1.99999 219.896L1.99999 221.896L-9.66022e-06 221.896ZM-9.83506e-06 225.896L-9.74764e-06 223.896L1.99999 223.896L1.99999 225.896L-9.83506e-06 225.896ZM-1.00099e-05 229.896L-9.92249e-06 227.896L1.99999 227.896L1.99999 229.896L-1.00099e-05 229.896ZM-1.01848e-05 233.896L-1.00973e-05 231.896L1.99999 231.896L1.99999 233.896L-1.01848e-05 233.896ZM-1.03596e-05 237.896L-1.02722e-05 235.896L1.99999 235.896L1.99999 237.896L-1.03596e-05 237.896ZM-1.04907e-05 240.896L-1.0447e-05 239.896L1.99999 239.896L1.99999 240.896L-1.04907e-05 240.896Z" fill="black"/>
</svg>
