<svg width="399" height="562" viewBox="0 0 399 562" fill="none" xmlns="http://www.w3.org/2000/svg">
<mask id="mask0_144_90" style="mask-type:alpha" maskUnits="userSpaceOnUse" x="0" y="0" width="399" height="562">
<rect x="-6.10352e-05" width="399" height="562" fill="#D9D9D9"/>
</mask>
<g mask="url(#mask0_144_90)">
<path d="M-1205 516.775C-1203.88 515.626 -1202 514.631 -1201.72 513.311C-1197.86 494.465 -1186.62 479.924 -1174.02 466.308C-1142.71 432.475 -1104.54 407.559 -1064.69 385.215C-1038.14 370.331 -1011.02 356.372 -983.453 343.443C-945.318 325.557 -906.719 308.632 -867.912 292.273C-860.861 289.307 -851.81 291.056 -843.69 290.627C-843.432 291.913 -843.19 293.182 -842.932 294.468C-852.621 298.807 -862.171 303.488 -872.015 307.415C-910.511 322.728 -948.042 339.893 -984.091 360.488C-1020.81 381.477 -1054.34 406.359 -1083.68 436.608C-1096.39 449.709 -1106.46 465.176 -1111.2 482.942C-1115.09 497.552 -1110.23 511.099 -1099.34 521.422C-1075.74 543.783 -1047.46 558.908 -1016.5 567.842C-988.918 575.798 -960.645 581.852 -932.337 586.773C-907.115 591.146 -881.428 593.101 -855.896 595.553C-838.398 597.233 -820.813 598.519 -803.246 598.965C-748.665 600.406 -694.084 601.932 -639.486 602.258C-610.748 602.429 -581.975 600.474 -553.236 598.982C-527.738 597.662 -502.275 595.844 -476.812 593.855C-450.867 591.832 -424.938 589.602 -399.044 586.979C-367.892 583.841 -336.757 580.548 -305.691 576.656C-272.763 572.54 -239.939 567.687 -207.08 563.109C-178.41 559.113 -149.672 555.512 -121.088 550.917C-93.1601 546.424 -65.387 540.971 -37.5621 535.826C-3.6861 529.55 30.19 523.325 63.997 516.723C91.9943 511.253 119.992 505.714 147.799 499.37C190.812 489.544 233.946 480.044 276.476 468.4C306.629 460.152 336.97 460.101 367.571 460.186C368.726 460.186 369.933 459.981 371.001 460.289C373.346 460.975 375.604 461.918 378.432 464.748C370.484 467.217 362.64 470.081 354.572 472.104C316.662 481.604 278.769 491.259 240.704 500.141C190.916 511.768 141.007 522.914 91.0633 533.889C53.9289 542.051 16.7085 549.956 -20.5809 557.347C-47.2335 562.629 -74.093 566.898 -100.866 571.631C-129.294 576.656 -157.671 581.92 -186.151 586.636C-206.666 590.031 -227.319 592.552 -247.886 595.656C-265.367 598.296 -282.762 601.469 -300.261 603.972C-315.035 606.082 -329.93 607.454 -344.739 609.357C-360.91 611.449 -377.029 613.935 -393.217 615.942C-404.992 617.417 -416.818 618.325 -428.61 619.629C-448.505 621.824 -468.382 624.259 -488.277 626.316C-502.069 627.74 -515.912 628.803 -529.738 629.883C-559.391 632.215 -589.043 634.496 -618.712 636.708C-628.349 637.428 -637.986 638.028 -647.623 638.44C-664.139 639.126 -680.672 639.675 -697.205 640.172C-717.754 640.806 -738.304 641.304 -758.854 641.972C-760.009 642.007 -761.147 643.036 -762.285 643.602H-877.704C-878.273 643.07 -878.808 642.127 -879.428 642.075C-902.547 640.24 -925.7 638.611 -948.818 636.708C-967.954 635.13 -987.159 633.947 -1006.17 631.375C-1030.6 628.083 -1055.05 624.464 -1079.13 619.354C-1110.06 612.804 -1140.4 603.972 -1166.71 585.35C-1183.28 573.621 -1197.64 560.194 -1201.76 539.05C-1202.02 537.73 -1203.9 536.735 -1205.03 535.586C-1205.03 534.437 -1205.03 533.306 -1205.03 532.157V520.153C-1205 519.056 -1205 517.924 -1205 516.775Z" fill="#0177BE"/>
<ellipse cx="375.997" cy="204.492" rx="15.003" ry="34.4665" fill="#3AA025"/>
<path d="M-145.69 7.78766C-152.258 6.5873 -158.792 4.92394 -165.412 4.28947C-185.979 2.31745 -206.58 0.75698 -227.164 -0.992117C-253.662 -3.2385 -280.159 -5.60493 -306.657 -7.76558C-316.569 -8.57153 -326.5 -9.18886 -336.43 -9.51467C-358.41 -10.2349 -380.391 -10.8179 -402.371 -11.2466C-437.265 -11.9154 -472.158 -12.6699 -507.068 -12.9271C-545.564 -13.2186 -584.078 -13.4073 -622.574 -12.8414C-648.468 -12.4641 -674.345 -10.9208 -700.204 -9.49753C-726.547 -8.05709 -752.889 -6.37659 -779.197 -4.33598C-804.28 -2.38111 -829.364 -0.186161 -854.362 2.54037C-881.79 5.52412 -909.132 9.29669 -936.543 12.6234C-956.404 15.0413 -976.367 16.8247 -996.158 19.7227C-1013.04 22.2091 -1029.78 25.7416 -1046.53 29.0683C-1071.5 34.0413 -1095.53 32.4293 -1120.65 19.3797C-1107.23 16.8761 -1096.08 14.664 -1084.87 12.7434C-1062.2 8.86799 -1039.53 4.99254 -1016.83 1.39145C-1002.95 -0.80349 -988.987 -2.53544 -975.04 -4.42172C-954.145 -7.26829 -933.251 -10.252 -912.322 -12.8242C-899.702 -14.3676 -886.979 -15.1907 -874.325 -16.4425C-851.845 -18.6546 -829.382 -21.0038 -806.901 -23.1645C-798.712 -23.9533 -790.506 -24.5363 -782.3 -24.965C-759.302 -26.1825 -736.287 -27.3657 -713.272 -28.4118C-686.258 -29.6464 -659.226 -30.7439 -632.194 -31.8585C-617.678 -32.4587 -603.162 -33.1961 -588.646 -33.539C-557.753 -34.2249 -526.859 -35.1509 -495.983 -35.1509C-464.814 -35.1509 -433.644 -34.3793 -402.492 -33.4876C-374.305 -32.6816 -346.135 -31.5327 -317.966 -30.058C-292.192 -28.7033 -266.419 -27.0571 -240.698 -24.8964C-211.718 -22.4443 -182.789 -19.289 -153.844 -16.3739C-151.103 -16.0995 -148.413 -15.4136 -145.69 -14.8991C-135.846 -13.7502 -125.985 -12.6185 -116.141 -11.4695C-92.2294 -8.03995 -68.3006 -4.83327 -44.4409 -1.14645C-19.7881 2.66041 4.9681 6.10716 29.3623 11.2001C67.3586 19.1396 105.527 26.7705 142.782 37.4537C181.572 48.5828 219.964 61.6324 257.392 76.6712C295.423 91.9501 332.764 109.544 361.226 140.77C372.053 152.654 381.638 165.241 386.862 180.708C387.327 182.08 385.807 196.45 386.945 197.599L387.739 223.63C386.584 225.07 387.414 226.339 386.793 227.968C378.639 249.472 364.174 265.968 347.245 281.333C319.368 306.626 287.182 325.06 253.047 339.464C215.585 355.275 177.055 368.907 138.248 381.117C98.3382 393.669 57.7215 404.198 17.0531 414.092C-15.823 422.083 -49.199 428.051 -82.4544 434.464C-108.055 439.403 -133.742 443.947 -159.481 448.028C-177.824 450.944 -196.34 452.83 -214.804 455.076C-243.059 458.523 -271.298 462.124 -299.588 465.228C-314.794 466.891 -330.103 467.611 -345.36 468.812C-373.874 471.058 -402.389 473.425 -430.903 475.585C-441.385 476.391 -451.901 476.991 -462.417 477.334C-484.691 478.037 -506.965 478.535 -529.238 479.083C-552.943 479.666 -576.665 480.249 -600.369 480.798C-625.229 481.381 -650.089 482.462 -674.948 482.393C-714.169 482.273 -753.372 481.467 -792.592 480.712C-799.902 480.575 -807.194 479.238 -816.176 478.277C-807.401 471.538 -799.522 465.176 -791.299 459.243C-781.99 452.538 -772.732 445.61 -762.75 440.003C-757.182 436.882 -750.2 434.807 -743.838 434.739C-703.066 434.276 -662.294 434.721 -621.54 434.43C-590.37 434.207 -559.184 433.624 -528.014 432.698C-505.551 432.029 -483.122 430.675 -460.693 429.32C-436.058 427.811 -411.44 426.165 -386.838 424.141C-362.893 422.169 -338.947 420.06 -315.104 417.248C-284.917 413.715 -254.817 409.445 -224.682 405.433C-203.201 402.586 -181.721 399.757 -160.274 396.704C-154.792 395.933 -149.431 394.355 -144.017 393.138C-133.587 391.423 -123.175 389.708 -112.744 387.993C-98.2114 385.215 -83.6957 382.317 -69.1281 379.694C-18.4434 370.554 31.2758 357.607 80.4262 342.448C128.835 327.512 176.176 309.73 220.482 284.917C245.427 270.941 268.856 254.89 286.475 231.723C295.922 219.308 302.284 205.161 301.784 190.071C301.129 170.179 290.871 153.494 276.976 139.244C259.478 121.307 238.549 107.949 216.361 97.0259C180.244 79.2434 142.61 65.0105 103.407 55.3391C65.7208 46.0449 28.0003 36.7849 -9.87531 28.2967C-31.4594 23.4609 -53.3538 19.9284 -75.1792 16.3445C-88.7641 14.1153 -102.504 12.8806 -116.175 11.2173C-126.019 10.0683 -135.88 8.93658 -145.724 7.78766H-145.69Z" fill="#3AA025"/>
</g>
</svg>
