<svg width="1723" height="501" viewBox="0 0 1723 501" fill="none" xmlns="http://www.w3.org/2000/svg">
<mask id="mask0_145_144" style="mask-type:alpha" maskUnits="userSpaceOnUse" x="0" y="0" width="1723" height="501">
<rect width="1723" height="501" fill="#D9D9D9"/>
</mask>
<g mask="url(#mask0_145_144)">
<ellipse cx="2157.5" cy="545" rx="2157.5" ry="545" transform="matrix(-1 8.74228e-08 8.74228e-08 1 3019 23)" fill="#D8066D"/>
<g clip-path="url(#clip0_145_144)">
<path d="M-389.116 -33.946C-398.15 -35.5968 -407.136 -37.8845 -416.241 -38.7571C-444.527 -41.4692 -472.86 -43.6154 -501.17 -46.0209C-537.612 -49.1104 -574.054 -52.365 -610.496 -55.3365C-624.13 -56.445 -637.787 -57.294 -651.444 -57.7421C-681.674 -58.7326 -711.904 -59.5345 -742.134 -60.1241C-790.123 -61.0438 -838.112 -62.0815 -886.125 -62.4353C-939.069 -62.8362 -992.038 -63.0956 -1044.98 -62.3174C-1080.59 -61.7985 -1116.18 -59.676 -1151.75 -57.7185C-1187.98 -55.7375 -1224.21 -53.4263 -1260.39 -50.6198C-1294.89 -47.9312 -1329.38 -44.9125 -1363.76 -41.1626C-1401.49 -37.059 -1439.09 -31.8706 -1476.79 -27.2953C-1504.1 -23.97 -1531.56 -21.5173 -1558.78 -17.5316C-1581.99 -14.1119 -1605.01 -9.25366 -1628.06 -4.67838C-1662.39 2.16094 -1695.44 -0.0559412 -1729.99 -18.0033C-1711.54 -21.4465 -1696.2 -24.4888 -1680.79 -27.1302C-1649.61 -32.4602 -1618.43 -37.7901 -1587.21 -42.7428C-1568.12 -45.7615 -1548.91 -48.1435 -1529.73 -50.7377C-1501 -54.6526 -1472.26 -58.7562 -1443.48 -62.2938C-1426.12 -64.4163 -1408.62 -65.5484 -1391.22 -67.27C-1360.3 -70.3123 -1329.41 -73.5433 -1298.49 -76.5149C-1287.23 -77.5997 -1275.94 -78.4016 -1264.65 -78.9912C-1233.03 -80.6656 -1201.37 -82.2929 -1169.72 -83.7315C-1132.57 -85.4296 -1095.39 -86.9389 -1058.21 -88.4719C-1038.25 -89.2973 -1018.28 -90.3114 -998.321 -90.7831C-955.832 -91.7265 -913.344 -93 -870.88 -93C-828.012 -93 -785.144 -91.9387 -742.3 -90.7124C-703.534 -89.6039 -664.792 -88.0238 -626.05 -85.9956C-590.604 -84.1325 -555.157 -81.8684 -519.782 -78.8968C-479.926 -75.5243 -440.14 -71.1849 -400.331 -67.1757C-396.561 -66.7983 -392.863 -65.855 -389.116 -65.1474C-375.578 -63.5673 -362.016 -62.0108 -348.478 -60.4307C-315.592 -55.7139 -282.682 -51.3037 -249.868 -46.2332C-215.962 -40.9976 -181.915 -36.2572 -148.365 -29.2528C-96.1084 -18.3334 -43.6145 -7.83862 7.62281 6.85413C60.9703 22.1601 113.772 40.1074 165.247 60.7905C217.551 81.8037 268.907 106.001 308.052 148.947C322.942 165.291 336.125 182.601 343.309 203.874C343.949 205.761 341.859 225.524 343.423 227.104L344.515 262.904C342.926 264.885 344.068 266.631 343.214 268.871C331.999 298.445 312.106 321.133 288.823 342.264C250.484 377.05 206.218 402.403 159.272 422.213C107.75 443.958 54.7581 462.707 1.38697 479.499C-53.5016 496.762 -109.362 511.243 -165.294 524.85C-210.509 535.84 -256.412 544.048 -302.148 552.868C-337.357 559.66 -372.685 565.91 -408.084 571.523C-433.312 575.532 -458.776 578.126 -484.17 581.216C-523.03 585.956 -561.867 590.909 -600.775 595.177C-621.688 597.465 -642.742 598.456 -663.725 600.107C-702.942 603.196 -742.158 606.451 -781.374 609.422C-795.79 610.531 -810.253 611.356 -824.716 611.828C-855.349 612.795 -885.983 613.479 -916.616 614.233C-949.217 615.035 -981.842 615.837 -1014.44 616.592C-1048.63 617.394 -1082.82 618.879 -1117.01 618.785C-1170.95 618.62 -1224.87 617.511 -1278.81 616.474C-1288.86 616.285 -1298.89 614.446 -1311.25 613.125C-1299.18 603.856 -1288.34 595.107 -1277.03 586.947C-1264.23 577.725 -1251.5 568.198 -1237.77 560.486C-1230.11 556.193 -1220.51 553.34 -1211.76 553.245C-1155.68 552.609 -1099.61 553.222 -1043.56 552.821C-1000.69 552.514 -957.8 551.712 -914.933 550.439C-884.038 549.519 -853.192 547.656 -822.345 545.793C-788.464 543.718 -754.606 541.453 -720.772 538.671C-687.838 535.958 -654.905 533.058 -622.114 529.19C-580.598 524.332 -539.201 518.459 -497.756 512.94C-468.213 509.026 -438.67 505.134 -409.175 500.936C-401.635 499.875 -394.261 497.705 -386.816 496.031C-372.472 493.672 -358.151 491.314 -343.806 488.956C-323.819 485.135 -303.855 481.149 -283.82 477.541C-214.113 464.971 -145.733 447.165 -78.1363 426.317C-11.5586 405.775 53.5491 381.319 114.484 347.193C148.792 327.972 181.014 305.898 205.246 274.036C218.239 256.961 226.988 237.504 226.3 216.751C225.399 189.393 211.292 166.446 192.181 146.848C168.116 122.179 139.332 103.807 108.817 88.7845C59.1446 64.3281 7.38569 44.7534 -46.5308 31.4521C-98.3608 18.6697 -150.238 5.93436 -202.329 -5.73966C-232.014 -12.3903 -262.126 -17.2486 -292.143 -22.1776C-310.826 -25.2435 -329.723 -26.9416 -348.525 -29.2292C-362.063 -30.8093 -375.625 -32.3658 -389.164 -33.946H-389.116Z" fill="#3AA025"/>
<path d="M-1846 666.071C-1844.46 664.491 -1841.87 663.123 -1841.5 661.307C-1836.18 635.388 -1820.73 615.389 -1803.39 596.663C-1760.34 550.132 -1707.84 515.865 -1653.02 485.135C-1616.51 464.664 -1579.22 445.467 -1541.3 427.685C-1488.86 403.087 -1435.77 379.81 -1382.4 357.311C-1372.7 353.231 -1360.25 355.636 -1349.09 355.047C-1348.73 356.815 -1348.4 358.561 -1348.04 360.329C-1361.37 366.296 -1374.5 372.734 -1388.04 378.135C-1440.99 399.196 -1492.6 422.803 -1542.18 451.127C-1592.68 479.994 -1638.8 514.214 -1679.15 555.816C-1696.63 573.834 -1710.47 595.107 -1716.99 619.54C-1722.35 639.633 -1715.67 658.265 -1700.68 672.462C-1668.22 703.215 -1629.34 724.016 -1586.75 736.304C-1548.82 747.247 -1509.93 755.572 -1471 762.34C-1436.32 768.354 -1400.99 771.043 -1365.87 774.415C-1341.81 776.726 -1317.62 778.495 -1293.46 779.108C-1218.4 781.089 -1143.33 783.188 -1068.24 783.636C-1028.72 783.872 -989.145 781.184 -949.62 779.132C-914.553 777.316 -879.533 774.816 -844.514 772.08C-808.83 769.297 -773.171 766.232 -737.558 762.623C-694.714 758.307 -651.894 753.779 -609.168 748.426C-563.882 742.766 -518.739 736.091 -473.547 729.794C-434.118 724.299 -394.593 719.347 -355.282 713.026C-316.872 706.847 -278.675 699.348 -240.407 692.272C-193.817 683.641 -147.227 675.08 -100.731 666C-62.2264 658.477 -23.7215 650.859 14.5227 642.133C73.6792 628.62 133.002 615.554 191.494 599.541C232.963 588.197 274.692 588.126 316.778 588.244C318.366 588.244 320.026 587.961 321.496 588.386C324.72 589.329 327.826 590.626 331.715 594.517C320.785 597.913 309.997 601.852 298.9 604.635C246.762 617.7 194.648 630.978 142.296 643.194C73.8215 659.184 5.18093 674.514 -63.5069 689.608C-114.578 700.833 -165.768 711.706 -217.053 721.87C-253.708 729.134 -290.648 735.006 -327.47 741.516C-366.568 748.426 -405.595 755.666 -444.763 762.152C-472.978 766.821 -501.383 770.288 -529.669 774.557C-553.711 778.189 -577.634 782.552 -601.7 785.995C-622.019 788.896 -642.505 790.782 -662.872 793.4C-685.112 796.277 -707.28 799.697 -729.544 802.456C-745.738 804.485 -762.003 805.735 -778.221 807.527C-805.582 810.546 -832.92 813.895 -860.281 816.725C-879.249 818.682 -898.288 820.144 -917.304 821.63C-958.085 824.838 -998.866 827.974 -1039.67 831.016C-1052.92 832.007 -1066.18 832.832 -1079.43 833.398C-1102.15 834.342 -1124.88 835.096 -1147.62 835.78C-1175.88 836.653 -1204.15 837.337 -1232.41 838.257C-1234 838.304 -1235.56 839.719 -1237.13 840.497H-1395.87C-1396.65 839.766 -1397.38 838.469 -1398.24 838.398C-1430.03 835.875 -1461.87 833.634 -1493.67 831.016C-1519.99 828.847 -1546.4 827.219 -1572.55 823.682C-1606.15 819.154 -1639.77 814.178 -1672.89 807.15C-1715.43 798.141 -1757.16 785.995 -1793.34 760.383C-1816.13 744.251 -1835.88 725.785 -1841.54 696.706C-1841.9 694.89 -1844.48 693.522 -1846.05 691.942C-1846.05 690.362 -1846.05 688.806 -1846.05 687.226V670.717C-1846 669.207 -1846 667.651 -1846 666.071Z" fill="#0177BE"/>
</g>
<ellipse cx="328.366" cy="236.584" rx="20.6339" ry="47.4022" fill="#3AA025"/>
<path d="M1403 595.228C1405.32 592.848 1409.21 590.788 1409.78 588.053C1417.78 549.017 1441.06 518.897 1467.17 490.694C1532.01 420.614 1611.07 369.005 1693.62 322.723C1748.61 291.892 1804.78 262.979 1861.88 236.198C1940.86 199.151 2020.81 164.093 2101.19 130.208C2115.79 124.063 2134.54 127.686 2151.35 126.798C2151.89 129.462 2152.39 132.09 2152.93 134.754C2132.86 143.741 2113.08 153.438 2092.69 161.571C2012.95 193.29 1935.22 228.845 1860.55 271.504C1784.5 314.98 1715.05 366.518 1654.27 429.175C1627.96 456.311 1607.1 488.35 1597.28 525.148C1589.21 555.411 1599.28 583.471 1621.85 604.854C1670.73 651.171 1729.29 682.499 1793.42 701.005C1850.56 717.486 1909.12 730.024 1967.75 740.218C2019.99 749.276 2073.19 753.325 2126.07 758.404C2162.32 761.885 2198.74 764.549 2235.12 765.473C2348.17 768.456 2461.22 771.617 2574.31 772.292C2633.83 772.647 2693.43 768.598 2752.95 765.508C2805.76 762.773 2858.5 759.008 2911.24 754.888C2964.98 750.696 3018.69 746.079 3072.32 740.644C3136.84 734.144 3201.33 727.325 3265.67 719.262C3333.87 710.737 3401.86 700.685 3469.92 691.201C3529.3 682.925 3588.82 675.466 3648.03 665.947C3705.87 656.641 3763.4 645.346 3821.03 634.69C3891.19 621.69 3961.36 608.796 4031.38 595.121C4089.37 583.791 4147.36 572.318 4204.96 559.176C4294.05 538.823 4383.38 519.145 4471.47 495.028C4533.93 477.943 4596.77 477.836 4660.15 478.014C4662.54 478.014 4665.04 477.588 4667.26 478.227C4672.11 479.648 4676.79 481.601 4682.65 487.462C4666.19 492.577 4649.94 498.509 4633.23 502.7C4554.71 522.378 4476.22 542.375 4397.38 560.774C4294.26 584.856 4190.89 607.944 4087.44 630.676C4010.53 647.584 3933.44 663.958 3856.2 679.267C3801 690.207 3745.37 699.051 3689.91 708.855C3631.03 719.262 3572.26 730.166 3513.27 739.934C3470.78 746.967 3428 752.188 3385.4 758.617C3349.19 764.087 3313.16 770.658 3276.92 775.844C3246.32 780.213 3215.47 783.055 3184.8 786.997C3151.3 791.331 3117.92 796.481 3084.39 800.637C3060 803.691 3035.5 805.574 3011.08 808.273C2969.87 812.82 2928.7 817.864 2887.5 822.126C2858.93 825.074 2830.26 827.276 2801.62 829.514C2740.2 834.345 2678.79 839.069 2617.34 843.651C2597.37 845.142 2577.41 846.386 2557.45 847.238C2523.25 848.659 2489 849.796 2454.76 850.826C2412.2 852.14 2369.63 853.17 2327.07 854.555C2324.68 854.626 2322.32 856.757 2319.96 857.93H2080.9C2079.73 856.828 2078.62 854.875 2077.33 854.768C2029.45 850.968 1981.49 847.593 1933.61 843.651C1893.98 840.383 1854.2 837.932 1814.81 832.604C1764.22 825.784 1713.58 818.29 1663.7 807.705C1599.64 794.137 1536.8 775.844 1482.31 737.27C1447.99 712.975 1418.25 685.163 1409.71 641.368C1409.18 638.633 1405.29 636.572 1402.93 634.193C1402.93 631.813 1402.93 629.469 1402.93 627.089V602.225C1403 599.952 1403 597.608 1403 595.228Z" fill="#0177BE"/>
</g>
<defs>
<clipPath id="clip0_145_144">
<rect width="2193.88" height="933.544" fill="white" transform="translate(-1846 -93)"/>
</clipPath>
</defs>
</svg>
