<svg width="225" height="211" viewBox="0 0 225 211" fill="none" xmlns="http://www.w3.org/2000/svg">
<g clip-path="url(#clip0_144_91)">
<path d="M91.0569 105.207C90.3326 103.478 90.801 102.095 92.1744 100.861C93.433 99.7301 94.6107 98.4997 95.7658 97.2618C96.0706 96.9344 96.3077 96.419 96.3359 95.9768C96.9266 86.431 100.537 78.2416 107.304 71.452C108.689 70.0635 110.064 68.662 111.469 67.2942C115.239 63.6294 120.763 63.6369 124.52 67.2961C124.757 67.5256 124.988 67.7646 125.336 68.1126C125.63 67.8191 125.901 67.5482 126.17 67.2792C132.634 60.815 139.089 54.3376 145.57 47.8903C148.812 44.6638 153.816 44.2048 157.33 46.7446C162.071 50.1723 162.626 56.6008 158.498 60.815C155.406 63.9756 152.252 67.076 149.126 70.2028C148.874 70.4548 148.622 70.7069 148.345 70.9835C152.655 73.4725 154.266 77.0846 153.285 81.9064C158.363 84.0493 160.344 87.8778 159.339 93.3411C161.567 94.1313 163.332 95.4971 164.498 97.5891C166.445 101.079 165.977 105.434 163.183 108.284C159.227 112.32 155.3 116.397 151.161 120.238C145.523 125.47 138.788 128.646 131.216 129.98C130.384 130.127 129.748 130.439 129.174 131.05C128.083 132.213 126.87 133.265 125.814 134.459C124.591 135.84 123.212 136.312 121.478 135.624L91.0588 105.205L91.0569 105.207ZM123.086 128.706C124.036 127.756 124.947 126.925 125.763 126.006C126.723 124.927 127.876 124.428 129.306 124.225C135.283 123.376 140.827 121.234 145.361 117.26C150.081 113.127 154.412 108.552 158.882 104.138C159.827 103.205 159.915 101.995 159.415 100.799C158.546 98.7179 155.919 98.2702 154.192 99.9333C152.252 101.801 150.39 103.75 148.462 105.63C147.16 106.898 145.359 106.922 144.17 105.756C142.993 104.601 143.013 102.789 144.219 101.448C144.398 101.25 144.592 101.068 144.78 100.88C147.32 98.3398 149.876 95.8169 152.384 93.2452C152.877 92.741 153.319 92.0919 153.526 91.4297C153.94 90.1052 153.283 88.6811 152.125 88.0076C150.879 87.2814 149.404 87.4018 148.354 88.4102C146.817 89.8832 145.35 91.4259 143.819 92.9046C142.37 94.3006 140.453 94.231 139.258 92.7918C138.269 91.599 138.365 89.9529 139.555 88.7432C141.819 86.4461 144.118 84.181 146.388 81.8914C147.88 80.3882 147.997 78.4091 146.699 77.0997C145.389 75.779 143.437 75.8994 141.926 77.3988C140.536 78.7816 139.162 80.185 137.759 81.5546C136.626 82.6609 135.138 82.8433 133.936 82.0739C132.239 80.9865 132.066 78.8154 133.588 77.2897C140.308 70.5583 147.036 63.8345 153.761 57.1088C154.019 56.851 154.292 56.6008 154.521 56.3186C155.543 55.0525 155.507 53.2822 154.454 52.112C153.475 51.0246 151.735 50.7781 150.441 51.5908C150.053 51.8354 149.722 52.1778 149.395 52.5052C142.172 59.72 134.956 66.9443 127.733 74.1592C126.16 75.732 124.516 75.7357 122.949 74.1912C122.099 73.3521 121.263 72.498 120.413 71.6589C118.897 70.1651 117.077 70.1482 115.578 71.6288C114.017 73.1715 112.448 74.7066 110.931 76.2945C105.34 82.1604 102.492 89.174 102.317 97.2505C102.288 98.6521 101.861 99.7451 100.838 100.686C99.8445 101.596 98.9208 102.584 97.9406 103.564L123.081 128.704L123.086 128.706Z" fill="#888989"/>
<path d="M180.697 27.2911C181.578 29.7324 180.885 31.6958 178.922 33.3234C178.188 33.9331 177.576 34.6848 176.878 35.3358C175.135 36.9608 172.52 36.9453 170.978 35.3203C169.449 33.7083 169.495 31.2179 171.107 29.5283C171.797 28.8024 172.582 28.1566 173.218 27.3867C174.832 25.4311 176.78 24.8627 179.152 25.7462L180.699 27.2937L180.697 27.2911Z" fill="#0177BE"/>
<path d="M189.906 55.6595C187.85 57.6952 181.394 57.7701 179.619 56.0057C178.434 54.8251 178.051 53.3783 178.596 51.7482C179.144 50.1155 180.325 49.1467 181.994 49.0072C183.709 48.8677 185.453 48.8651 187.171 48.9917C188.904 49.1183 190.118 50.1362 190.661 51.805C191.17 53.368 190.769 54.7553 189.909 55.6569L189.906 55.6595Z" fill="#3AA025"/>
<path d="M172.512 78.0344C172.032 77.5539 171.541 77.0785 171.068 76.5902C169.456 74.9059 169.405 72.4361 170.937 70.8112C172.399 69.2611 174.938 69.1087 176.623 70.5864C177.847 71.6611 179.023 72.8211 180.079 74.0585C181.544 75.7765 181.327 78.2307 179.715 79.7188C178.095 81.2145 175.718 81.1577 174.055 79.5767C173.528 79.0755 173.027 78.5485 172.512 78.0344Z" fill="#0177BE"/>
<path d="M128.344 33.8659C127.83 33.3518 127.303 32.8506 126.807 32.3236C125.244 30.6676 125.223 28.2651 126.737 26.6685C128.259 25.0642 130.685 24.8756 132.392 26.3559C133.624 27.4229 134.79 28.588 135.856 29.8203C137.337 31.5331 137.148 34.0054 135.549 35.4857C133.896 37.0202 131.488 36.9479 129.785 35.3074C129.297 34.8347 128.822 34.3438 128.341 33.8633L128.344 33.8659Z" fill="#0177BE"/>
<path d="M150.205 17.0169C151.721 15.609 153.116 15.2369 154.682 15.7795C156.234 16.3194 157.257 17.4354 157.384 19.0656C157.524 20.8791 157.539 22.7185 157.384 24.532C157.214 26.5213 155.428 27.9964 153.452 28.0455C151.45 28.0946 149.605 26.7512 149.391 24.7284C149.187 22.7934 149.254 20.8094 149.396 18.8641C149.45 18.1123 150.032 17.3967 150.21 17.0169L150.205 17.0169Z" fill="#3AA025"/>
</g>
<path d="M14.8203 136.16V138H5.78516V136.16H14.8203ZM6.24219 120.938V138H3.98047V120.938H6.24219ZM13.625 128.273V130.113H5.78516V128.273H13.625ZM14.7031 120.938V122.789H5.78516V120.938H14.7031ZM19.4609 128.027V138H17.293V125.32H19.3438L19.4609 128.027ZM18.9453 131.18L18.043 131.145C18.0508 130.277 18.1797 129.477 18.4297 128.742C18.6797 128 19.0312 127.355 19.4844 126.809C19.9375 126.262 20.4766 125.84 21.1016 125.543C21.7344 125.238 22.4336 125.086 23.1992 125.086C23.8242 125.086 24.3867 125.172 24.8867 125.344C25.3867 125.508 25.8125 125.773 26.1641 126.141C26.5234 126.508 26.7969 126.984 26.9844 127.57C27.1719 128.148 27.2656 128.855 27.2656 129.691V138H25.0859V129.668C25.0859 129.004 24.9883 128.473 24.793 128.074C24.5977 127.668 24.3125 127.375 23.9375 127.195C23.5625 127.008 23.1016 126.914 22.5547 126.914C22.0156 126.914 21.5234 127.027 21.0781 127.254C20.6406 127.48 20.2617 127.793 19.9414 128.191C19.6289 128.59 19.3828 129.047 19.2031 129.562C19.0312 130.07 18.9453 130.609 18.9453 131.18ZM44.2695 135.07V125.32H46.4492V138H44.375L44.2695 135.07ZM44.6797 132.398L45.582 132.375C45.582 133.219 45.4922 134 45.3125 134.719C45.1406 135.43 44.8594 136.047 44.4688 136.57C44.0781 137.094 43.5664 137.504 42.9336 137.801C42.3008 138.09 41.5312 138.234 40.625 138.234C40.0078 138.234 39.4414 138.145 38.9258 137.965C38.418 137.785 37.9805 137.508 37.6133 137.133C37.2461 136.758 36.9609 136.27 36.7578 135.668C36.5625 135.066 36.4648 134.344 36.4648 133.5V125.32H38.6328V133.523C38.6328 134.094 38.6953 134.566 38.8203 134.941C38.9531 135.309 39.1289 135.602 39.3477 135.82C39.5742 136.031 39.8242 136.18 40.0977 136.266C40.3789 136.352 40.668 136.395 40.9648 136.395C41.8867 136.395 42.6172 136.219 43.1562 135.867C43.6953 135.508 44.082 135.027 44.3164 134.426C44.5586 133.816 44.6797 133.141 44.6797 132.398ZM51.9219 128.027V138H49.7539V125.32H51.8047L51.9219 128.027ZM51.4062 131.18L50.5039 131.145C50.5117 130.277 50.6406 129.477 50.8906 128.742C51.1406 128 51.4922 127.355 51.9453 126.809C52.3984 126.262 52.9375 125.84 53.5625 125.543C54.1953 125.238 54.8945 125.086 55.6602 125.086C56.2852 125.086 56.8477 125.172 57.3477 125.344C57.8477 125.508 58.2734 125.773 58.625 126.141C58.9844 126.508 59.2578 126.984 59.4453 127.57C59.6328 128.148 59.7266 128.855 59.7266 129.691V138H57.5469V129.668C57.5469 129.004 57.4492 128.473 57.2539 128.074C57.0586 127.668 56.7734 127.375 56.3984 127.195C56.0234 127.008 55.5625 126.914 55.0156 126.914C54.4766 126.914 53.9844 127.027 53.5391 127.254C53.1016 127.48 52.7227 127.793 52.4023 128.191C52.0898 128.59 51.8438 129.047 51.6641 129.562C51.4922 130.07 51.4062 130.609 51.4062 131.18Z" fill="#D8066D"/>
<path d="M28.5352 182.85H37.2949C37.1191 185.721 36.3281 188.27 34.9219 190.496C33.5352 192.723 31.5918 194.461 29.0918 195.711C26.6113 196.961 23.623 197.586 20.127 197.586C17.3926 197.586 14.9414 197.117 12.7734 196.18C10.6055 195.223 8.75 193.855 7.20703 192.078C5.68359 190.301 4.52148 188.152 3.7207 185.633C2.91992 183.113 2.51953 180.291 2.51953 177.166V174.207C2.51953 171.082 2.92969 168.26 3.75 165.74C4.58984 163.201 5.78125 161.043 7.32422 159.266C8.88672 157.488 10.752 156.121 12.9199 155.164C15.0879 154.207 17.5098 153.729 20.1855 153.729C23.7402 153.729 26.7383 154.373 29.1797 155.662C31.6406 156.951 33.5449 158.729 34.8926 160.994C36.2598 163.26 37.0801 165.838 37.3535 168.729H28.5645C28.4668 167.01 28.125 165.555 27.5391 164.363C26.9531 163.152 26.0645 162.244 24.873 161.639C23.7012 161.014 22.1387 160.701 20.1855 160.701C18.7207 160.701 17.4414 160.975 16.3477 161.521C15.2539 162.068 14.3359 162.898 13.5938 164.012C12.8516 165.125 12.2949 166.531 11.9238 168.23C11.5723 169.91 11.3965 171.883 11.3965 174.148V177.166C11.3965 179.373 11.5625 181.316 11.8945 182.996C12.2266 184.656 12.7344 186.062 13.418 187.215C14.1211 188.348 15.0195 189.207 16.1133 189.793C17.2266 190.359 18.5645 190.643 20.127 190.643C21.9629 190.643 23.4766 190.35 24.668 189.764C25.8594 189.178 26.7676 188.309 27.3926 187.156C28.0371 186.004 28.418 184.568 28.5352 182.85ZM70.4883 190.145V197H49.0137V190.145H70.4883ZM51.8555 154.344V197H43.0664V154.344H51.8555ZM84.873 154.344V197H76.1133V154.344H84.873ZM117.832 182.85H126.592C126.416 185.721 125.625 188.27 124.219 190.496C122.832 192.723 120.889 194.461 118.389 195.711C115.908 196.961 112.92 197.586 109.424 197.586C106.689 197.586 104.238 197.117 102.07 196.18C99.9023 195.223 98.0469 193.855 96.5039 192.078C94.9805 190.301 93.8184 188.152 93.0176 185.633C92.2168 183.113 91.8164 180.291 91.8164 177.166V174.207C91.8164 171.082 92.2266 168.26 93.0469 165.74C93.8867 163.201 95.0781 161.043 96.6211 159.266C98.1836 157.488 100.049 156.121 102.217 155.164C104.385 154.207 106.807 153.729 109.482 153.729C113.037 153.729 116.035 154.373 118.477 155.662C120.938 156.951 122.842 158.729 124.189 160.994C125.557 163.26 126.377 165.838 126.65 168.729H117.861C117.764 167.01 117.422 165.555 116.836 164.363C116.25 163.152 115.361 162.244 114.17 161.639C112.998 161.014 111.436 160.701 109.482 160.701C108.018 160.701 106.738 160.975 105.645 161.521C104.551 162.068 103.633 162.898 102.891 164.012C102.148 165.125 101.592 166.531 101.221 168.23C100.869 169.91 100.693 171.883 100.693 174.148V177.166C100.693 179.373 100.859 181.316 101.191 182.996C101.523 184.656 102.031 186.062 102.715 187.215C103.418 188.348 104.316 189.207 105.41 189.793C106.523 190.359 107.861 190.643 109.424 190.643C111.26 190.643 112.773 190.35 113.965 189.764C115.156 189.178 116.064 188.309 116.689 187.156C117.334 186.004 117.715 184.568 117.832 182.85Z" fill="#D8066D"/>
<defs>
<clipPath id="clip0_144_91">
<rect width="100.785" height="140.294" fill="white" transform="translate(153.406) rotate(45)"/>
</clipPath>
</defs>
</svg>
