<svg width="337" height="400" viewBox="0 0 337 400" fill="none" xmlns="http://www.w3.org/2000/svg">
<path d="M329.025 0C333.007 0.000242296 336.224 3.23775 336.224 7.21484V167.946C336.224 273.782 269.581 366.9 170.369 399.62C169.644 399.867 168.888 399.99 168.101 399.99C167.345 399.99 166.596 399.867 165.855 399.62C66.8518 366.923 0.301294 274.129 0.0234375 168.594C0.00803391 168.548 2.82815e-05 168.501 0 168.455V7.21484C0 3.2376 3.21777 0 7.19922 0H329.025Z" fill="#46484A"/>
<path d="M329.025 0C333.007 0.000242296 336.224 3.23775 336.224 7.21484V167.946C336.224 273.782 269.581 366.9 170.369 399.62C169.644 399.867 168.888 399.99 168.101 399.99C167.345 399.99 166.596 399.867 165.855 399.62C66.8518 366.923 0.301294 274.129 0.0234375 168.594C0.00803391 168.548 2.82815e-05 168.501 0 168.455V7.21484C0 3.2376 3.21777 0 7.19922 0H329.025ZM10 166.9L10.0186 166.956L10.0234 168.567C10.2893 269.564 73.7558 358.25 168.113 389.83C262.667 358.228 326.224 269.234 326.224 167.946V10H10V166.9Z" fill="#E0B25C"/>
</svg>
