<svg width="1946" height="1018" viewBox="0 0 1946 1018" fill="none" xmlns="http://www.w3.org/2000/svg">
<mask id="mask0_4269_61" style="mask-type:alpha" maskUnits="userSpaceOnUse" x="0" y="0" width="1946" height="1018">
<path d="M1946 0H0V1018L1946 916.809V0Z" fill="#46484A"/>
</mask>
<g mask="url(#mask0_4269_61)">
<path d="M2809 0H0V500L2809 412.287V0Z" fill="#46484A"/>
<path fill-rule="evenodd" clip-rule="evenodd" d="M1763.85 846.315C1763.85 871.442 1784.25 892 1809.54 892C1834.82 892 1855.14 871.442 1855.14 846.315C1855.14 821.11 1834.82 800.63 1809.54 800.63C1784.25 800.63 1763.85 821.11 1763.85 846.315ZM1794.26 731.158C1794.26 705.952 1773.78 685.315 1748.65 685.315C1723.29 685.315 1702.97 705.952 1702.97 731.158C1702.97 756.284 1723.29 776.842 1748.65 776.842C1773.78 776.842 1794.26 756.284 1794.26 731.158ZM1870.42 776.842C1895.55 776.842 1916.11 756.284 1916.11 731.158C1916.11 705.952 1895.55 685.315 1870.42 685.315C1845.22 685.315 1824.66 705.952 1824.66 731.158C1824.66 756.284 1845.22 776.842 1870.42 776.842ZM1885.63 846.315C1885.63 871.442 1906.11 892 1931.31 892C1956.44 892 1977 871.442 1977 846.315C1977 821.11 1956.44 800.63 1931.31 800.63C1906.11 800.63 1885.63 821.11 1885.63 846.315ZM1992.2 776.842C2017.48 776.842 2037.88 756.284 2037.88 731.158C2037.88 705.952 2017.48 685.315 1992.2 685.315C1966.91 685.315 1946.51 705.952 1946.51 731.158C1946.51 756.284 1966.91 776.842 1992.2 776.842ZM2007.48 846.315C2007.48 871.442 2027.88 892 2053.09 892C2078.29 892 2098.77 871.442 2098.77 846.315C2098.77 821.11 2078.29 800.63 2053.09 800.63C2027.88 800.63 2007.48 821.11 2007.48 846.315ZM1946.51 500.764C1946.51 525.969 1966.91 546.449 1992.2 546.449C2017.48 546.449 2037.88 525.969 2037.88 500.764C2037.88 475.479 2017.48 455 1992.2 455C1966.91 455 1946.51 475.479 1946.51 500.764ZM1931.31 570.315C1906.11 570.315 1885.63 590.637 1885.63 615.921C1885.63 641.127 1906.11 661.606 1931.31 661.606C1956.44 661.606 1977 641.127 1977 615.921C1977 590.637 1956.44 570.315 1931.31 570.315ZM1824.66 500.764C1824.66 525.969 1845.22 546.449 1870.42 546.449C1895.55 546.449 1916.11 525.969 1916.11 500.764C1916.11 475.479 1895.55 455 1870.42 455C1845.22 455 1824.66 475.479 1824.66 500.764ZM1809.54 570.315C1784.25 570.315 1763.85 590.637 1763.85 615.921C1763.85 641.127 1784.25 661.606 1809.54 661.606C1834.82 661.606 1855.14 641.127 1855.14 615.921C1855.14 590.637 1834.82 570.315 1809.54 570.315ZM1702.97 500.764C1702.97 525.969 1723.29 546.449 1748.65 546.449C1773.78 546.449 1794.26 525.969 1794.26 500.764C1794.26 475.479 1773.78 455 1748.65 455C1723.29 455 1702.97 475.479 1702.97 500.764ZM1642 615.921C1642 641.127 1662.48 661.606 1687.76 661.606C1712.97 661.606 1733.37 641.127 1733.37 615.921C1733.37 590.637 1712.97 570.315 1687.76 570.315C1662.48 570.315 1642 590.637 1642 615.921ZM1642 846.315C1642 871.442 1662.48 892 1687.76 892C1712.97 892 1733.37 871.442 1733.37 846.315C1733.37 821.11 1712.97 800.63 1687.76 800.63C1662.48 800.63 1642 821.11 1642 846.315ZM2053.09 570.315C2027.88 570.315 2007.48 590.637 2007.48 615.921C2007.48 641.127 2027.88 661.606 2053.09 661.606C2078.29 661.606 2098.77 641.127 2098.77 615.921C2098.77 590.637 2078.29 570.315 2053.09 570.315Z" fill="#E0B25C" fill-opacity="0.15"/>
<path fill-rule="evenodd" clip-rule="evenodd" d="M14.8528 398.315C14.8528 423.442 35.2535 444 60.5377 444C85.822 444 106.144 423.442 106.144 398.315C106.144 373.11 85.822 352.63 60.5377 352.63C35.2535 352.63 14.8528 373.11 14.8528 398.315ZM45.2569 283.158C45.2569 257.952 24.7774 237.315 -0.349274 237.315C-25.7123 237.315 -46.0342 257.952 -46.0342 283.158C-46.0342 308.284 -25.7123 328.842 -0.349274 328.842C24.7774 328.842 45.2569 308.284 45.2569 283.158ZM121.425 328.842C146.551 328.842 167.11 308.284 167.11 283.158C167.11 257.952 146.551 237.315 121.425 237.315C96.2192 237.315 75.661 257.952 75.661 283.158C75.661 308.284 96.2192 328.842 121.425 328.842ZM136.627 398.315C136.627 423.442 157.106 444 182.312 444C207.439 444 227.997 423.442 227.997 398.315C227.997 373.11 207.439 352.63 182.312 352.63C157.106 352.63 136.627 373.11 136.627 398.315ZM243.199 328.842C268.483 328.842 288.884 308.284 288.884 283.158C288.884 257.952 268.483 237.315 243.199 237.315C217.914 237.315 197.514 257.952 197.514 283.158C197.514 308.284 217.914 328.842 243.199 328.842ZM258.48 398.315C258.48 423.442 278.88 444 304.086 444C329.291 444 349.771 423.442 349.771 398.315C349.771 373.11 329.291 352.63 304.086 352.63C278.88 352.63 258.48 373.11 258.48 398.315ZM197.514 52.7637C197.514 77.9692 217.914 98.4486 243.199 98.4486C268.483 98.4486 288.884 77.9692 288.884 52.7637C288.884 27.4794 268.483 7 243.199 7C217.914 7 197.514 27.4794 197.514 52.7637ZM182.312 122.315C157.106 122.315 136.627 142.637 136.627 167.921C136.627 193.127 157.106 213.606 182.312 213.606C207.439 213.606 227.997 193.127 227.997 167.921C227.997 142.637 207.439 122.315 182.312 122.315ZM75.661 52.7637C75.661 77.9692 96.2192 98.4486 121.425 98.4486C146.551 98.4486 167.11 77.9692 167.11 52.7637C167.11 27.4794 146.551 7 121.425 7C96.2192 7 75.661 27.4794 75.661 52.7637ZM60.5377 122.315C35.2535 122.315 14.8528 142.637 14.8528 167.921C14.8528 193.127 35.2535 213.606 60.5377 213.606C85.822 213.606 106.144 193.127 106.144 167.921C106.144 142.637 85.822 122.315 60.5377 122.315ZM-46.0342 52.7637C-46.0342 77.9692 -25.7123 98.4486 -0.349274 98.4486C24.7774 98.4486 45.2569 77.9692 45.2569 52.7637C45.2569 27.4794 24.7774 7 -0.349274 7C-25.7123 7 -46.0342 27.4794 -46.0342 52.7637ZM-107 167.921C-107 193.127 -86.5205 213.606 -61.2363 213.606C-36.0308 213.606 -15.6301 193.127 -15.6301 167.921C-15.6301 142.637 -36.0308 122.315 -61.2363 122.315C-86.5205 122.315 -107 142.637 -107 167.921ZM-107 398.315C-107 423.442 -86.5205 444 -61.2363 444C-36.0308 444 -15.6301 423.442 -15.6301 398.315C-15.6301 373.11 -36.0308 352.63 -61.2363 352.63C-86.5205 352.63 -107 373.11 -107 398.315ZM304.086 122.315C278.88 122.315 258.48 142.637 258.48 167.921C258.48 193.127 278.88 213.606 304.086 213.606C329.291 213.606 349.771 193.127 349.771 167.921C349.771 142.637 329.291 122.315 304.086 122.315Z" fill="url(#paint0_linear_4269_61)"/>
</g>
<defs>
<linearGradient id="paint0_linear_4269_61" x1="177" y1="87" x2="-656" y2="1191.5" gradientUnits="userSpaceOnUse">
<stop stop-color="#46484A" stop-opacity="0.6"/>
<stop offset="1" stop-color="white" stop-opacity="0.6"/>
</linearGradient>
</defs>
</svg>
