<svg width="1943" height="717" viewBox="0 0 1943 717" fill="none" xmlns="http://www.w3.org/2000/svg">
<mask id="mask0_4275_112" style="mask-type:alpha" maskUnits="userSpaceOnUse" x="0" y="0" width="1943" height="717">
<path d="M0 717H1943V0L0 124.804V717Z" fill="#46484A"/>
</mask>
<g mask="url(#mask0_4275_112)">
<path d="M-93 717H1943V0L-93 124.804V717Z" fill="#46484A"/>
<path fill-rule="evenodd" clip-rule="evenodd" d="M1844.85 540.315C1844.85 565.442 1865.25 586 1890.54 586C1915.82 586 1936.14 565.442 1936.14 540.315C1936.14 515.11 1915.82 494.63 1890.54 494.63C1865.25 494.63 1844.85 515.11 1844.85 540.315ZM1875.26 425.158C1875.26 399.952 1854.78 379.315 1829.65 379.315C1804.29 379.315 1783.97 399.952 1783.97 425.158C1783.97 450.284 1804.29 470.842 1829.65 470.842C1854.78 470.842 1875.26 450.284 1875.26 425.158ZM1951.42 470.842C1976.55 470.842 1997.11 450.284 1997.11 425.158C1997.11 399.952 1976.55 379.315 1951.42 379.315C1926.22 379.315 1905.66 399.952 1905.66 425.158C1905.66 450.284 1926.22 470.842 1951.42 470.842ZM1966.63 540.315C1966.63 565.442 1987.11 586 2012.31 586C2037.44 586 2058 565.442 2058 540.315C2058 515.11 2037.44 494.63 2012.31 494.63C1987.11 494.63 1966.63 515.11 1966.63 540.315ZM2073.2 470.842C2098.48 470.842 2118.88 450.284 2118.88 425.158C2118.88 399.952 2098.48 379.315 2073.2 379.315C2047.91 379.315 2027.51 399.952 2027.51 425.158C2027.51 450.284 2047.91 470.842 2073.2 470.842ZM2088.48 540.315C2088.48 565.442 2108.88 586 2134.09 586C2159.29 586 2179.77 565.442 2179.77 540.315C2179.77 515.11 2159.29 494.63 2134.09 494.63C2108.88 494.63 2088.48 515.11 2088.48 540.315ZM2027.51 194.764C2027.51 219.969 2047.91 240.449 2073.2 240.449C2098.48 240.449 2118.88 219.969 2118.88 194.764C2118.88 169.479 2098.48 149 2073.2 149C2047.91 149 2027.51 169.479 2027.51 194.764ZM2012.31 264.315C1987.11 264.315 1966.63 284.637 1966.63 309.921C1966.63 335.127 1987.11 355.606 2012.31 355.606C2037.44 355.606 2058 335.127 2058 309.921C2058 284.637 2037.44 264.315 2012.31 264.315ZM1905.66 194.764C1905.66 219.969 1926.22 240.449 1951.42 240.449C1976.55 240.449 1997.11 219.969 1997.11 194.764C1997.11 169.479 1976.55 149 1951.42 149C1926.22 149 1905.66 169.479 1905.66 194.764ZM1890.54 264.315C1865.25 264.315 1844.85 284.637 1844.85 309.921C1844.85 335.127 1865.25 355.606 1890.54 355.606C1915.82 355.606 1936.14 335.127 1936.14 309.921C1936.14 284.637 1915.82 264.315 1890.54 264.315ZM1783.97 194.764C1783.97 219.969 1804.29 240.449 1829.65 240.449C1854.78 240.449 1875.26 219.969 1875.26 194.764C1875.26 169.479 1854.78 149 1829.65 149C1804.29 149 1783.97 169.479 1783.97 194.764ZM1723 309.921C1723 335.127 1743.48 355.606 1768.76 355.606C1793.97 355.606 1814.37 335.127 1814.37 309.921C1814.37 284.637 1793.97 264.315 1768.76 264.315C1743.48 264.315 1723 284.637 1723 309.921ZM1723 540.315C1723 565.442 1743.48 586 1768.76 586C1793.97 586 1814.37 565.442 1814.37 540.315C1814.37 515.11 1793.97 494.63 1768.76 494.63C1743.48 494.63 1723 515.11 1723 540.315ZM2134.09 264.315C2108.88 264.315 2088.48 284.637 2088.48 309.921C2088.48 335.127 2108.88 355.606 2134.09 355.606C2159.29 355.606 2179.77 335.127 2179.77 309.921C2179.77 284.637 2159.29 264.315 2134.09 264.315Z" fill="url(#paint0_linear_4275_112)" fill-opacity="0.24"/>
</g>
<defs>
<linearGradient id="paint0_linear_4275_112" x1="2096.5" y1="191.5" x2="1424.5" y2="1100" gradientUnits="userSpaceOnUse">
<stop stop-color="#46484A"/>
<stop offset="1" stop-color="white"/>
</linearGradient>
</defs>
</svg>
