<svg width="1943" height="795" viewBox="0 0 1943 795" fill="none" xmlns="http://www.w3.org/2000/svg">
<mask id="mask0_4272_56" style="mask-type:alpha" maskUnits="userSpaceOnUse" x="0" y="0" width="1943" height="795">
<path d="M1943 0H0V795H1943V0Z" fill="black"/>
</mask>
<g mask="url(#mask0_4272_56)">
<path d="M2806 0H0V795H2806V0Z" fill="url(#paint0_linear_4272_56)" fill-opacity="0.6"/>
<path fill-rule="evenodd" clip-rule="evenodd" d="M-30.1472 726.315C-30.1472 751.442 -9.74651 772 15.5377 772C40.822 772 61.1439 751.442 61.1439 726.315C61.1439 701.11 40.822 680.63 15.5377 680.63C-9.74651 680.63 -30.1472 701.11 -30.1472 726.315ZM0.256927 611.158C0.256927 585.952 -20.2226 565.315 -45.3493 565.315C-70.7123 565.315 -91.0342 585.952 -91.0342 611.158C-91.0342 636.284 -70.7123 656.842 -45.3493 656.842C-20.2226 656.842 0.256927 636.284 0.256927 611.158ZM76.4247 656.842C101.551 656.842 122.11 636.284 122.11 611.158C122.11 585.952 101.551 565.315 76.4247 565.315C51.2192 565.315 30.661 585.952 30.661 611.158C30.661 636.284 51.2192 656.842 76.4247 656.842ZM91.6267 726.315C91.6267 751.442 112.106 772 137.312 772C162.439 772 182.997 751.442 182.997 726.315C182.997 701.11 162.439 680.63 137.312 680.63C112.106 680.63 91.6267 701.11 91.6267 726.315ZM198.199 656.842C223.483 656.842 243.884 636.284 243.884 611.158C243.884 585.952 223.483 565.315 198.199 565.315C172.914 565.315 152.514 585.952 152.514 611.158C152.514 636.284 172.914 656.842 198.199 656.842ZM213.48 726.315C213.48 751.442 233.88 772 259.086 772C284.291 772 304.771 751.442 304.771 726.315C304.771 701.11 284.291 680.63 259.086 680.63C233.88 680.63 213.48 701.11 213.48 726.315ZM152.514 380.764C152.514 405.969 172.914 426.449 198.199 426.449C223.483 426.449 243.884 405.969 243.884 380.764C243.884 355.479 223.483 335 198.199 335C172.914 335 152.514 355.479 152.514 380.764ZM137.312 450.315C112.106 450.315 91.6267 470.637 91.6267 495.921C91.6267 521.127 112.106 541.606 137.312 541.606C162.439 541.606 182.997 521.127 182.997 495.921C182.997 470.637 162.439 450.315 137.312 450.315ZM30.661 380.764C30.661 405.969 51.2192 426.449 76.4247 426.449C101.551 426.449 122.11 405.969 122.11 380.764C122.11 355.479 101.551 335 76.4247 335C51.2192 335 30.661 355.479 30.661 380.764ZM15.5377 450.315C-9.74651 450.315 -30.1472 470.637 -30.1472 495.921C-30.1472 521.127 -9.74651 541.606 15.5377 541.606C40.822 541.606 61.1439 521.127 61.1439 495.921C61.1439 470.637 40.822 450.315 15.5377 450.315ZM-91.0342 380.764C-91.0342 405.969 -70.7123 426.449 -45.3493 426.449C-20.2226 426.449 0.256927 405.969 0.256927 380.764C0.256927 355.479 -20.2226 335 -45.3493 335C-70.7123 335 -91.0342 355.479 -91.0342 380.764ZM-152 495.921C-152 521.127 -131.521 541.606 -106.236 541.606C-81.0308 541.606 -60.6301 521.127 -60.6301 495.921C-60.6301 470.637 -81.0308 450.315 -106.236 450.315C-131.521 450.315 -152 470.637 -152 495.921ZM-152 726.315C-152 751.442 -131.521 772 -106.236 772C-81.0308 772 -60.6301 751.442 -60.6301 726.315C-60.6301 701.11 -81.0308 680.63 -106.236 680.63C-131.521 680.63 -152 701.11 -152 726.315ZM259.086 450.315C233.88 450.315 213.48 470.637 213.48 495.921C213.48 521.127 233.88 541.606 259.086 541.606C284.291 541.606 304.771 521.127 304.771 495.921C304.771 470.637 284.291 450.315 259.086 450.315Z" fill="white" fill-opacity="0.25"/>
</g>
<defs>
<linearGradient id="paint0_linear_4272_56" x1="1403" y1="0" x2="1403" y2="496.005" gradientUnits="userSpaceOnUse">
<stop stop-color="#E0B25C" stop-opacity="0"/>
<stop offset="1" stop-color="#E0B25C"/>
</linearGradient>
</defs>
</svg>
