<svg width="144" height="57" viewBox="0 0 144 57" fill="none" xmlns="http://www.w3.org/2000/svg">
<path fill-rule="evenodd" clip-rule="evenodd" d="M47.8204 1.02719V23.9119C47.8204 38.9807 38.342 52.2387 24.2312 56.8973C24.1281 56.9324 24.0205 56.95 23.9086 56.95C23.801 56.95 23.6946 56.9324 23.5892 56.8973C9.50812 52.242 0.0427979 39.03 0.00329048 24.0041C0.00109562 23.9975 0 23.9909 0 23.9843V1.02719C0 0.46092 0.457628 0 1.0239 0H46.7965C47.3628 0 47.8204 0.46092 47.8204 1.02719ZM45.7694 2.05439H24.1917V23.9843C24.1917 24.5539 23.7308 25.0115 23.1645 25.0115H2.07085C2.51531 38.6185 11.1641 50.4806 23.9086 54.8396C36.9987 50.3654 45.7694 37.9765 45.7694 23.9119V2.05439ZM7.96733 19.6977C7.96733 20.748 8.82003 21.6073 9.87686 21.6073C10.9337 21.6073 11.7831 20.748 11.7831 19.6977C11.7831 18.6442 10.9337 17.7882 9.87686 17.7882C8.82003 17.7882 7.96733 18.6442 7.96733 19.6977ZM9.23815 14.8844C9.23815 13.8309 8.38216 12.9683 7.33192 12.9683C6.2718 12.9683 5.42239 13.8309 5.42239 14.8844C5.42239 15.9347 6.2718 16.7939 7.33192 16.7939C8.38216 16.7939 9.23815 15.9347 9.23815 14.8844ZM12.4218 16.7939C13.472 16.7939 14.3313 15.9347 14.3313 14.8844C14.3313 13.8309 13.472 12.9683 12.4218 12.9683C11.3683 12.9683 10.509 13.8309 10.509 14.8844C10.509 15.9347 11.3683 16.7939 12.4218 16.7939ZM13.0572 19.6977C13.0572 20.748 13.9132 21.6073 14.9667 21.6073C16.017 21.6073 16.8763 20.748 16.8763 19.6977C16.8763 18.6442 16.017 17.7882 14.9667 17.7882C13.9132 17.7882 13.0572 18.6442 13.0572 19.6977ZM17.5117 16.7939C18.5685 16.7939 19.4212 15.9347 19.4212 14.8844C19.4212 13.8309 18.5685 12.9683 17.5117 12.9683C16.4548 12.9683 15.6021 13.8309 15.6021 14.8844C15.6021 15.9347 16.4548 16.7939 17.5117 16.7939ZM18.1504 19.6977C18.1504 20.748 19.0031 21.6073 20.0566 21.6073C21.1101 21.6073 21.9661 20.748 21.9661 19.6977C21.9661 18.6442 21.1101 17.7882 20.0566 17.7882C19.0031 17.7882 18.1504 18.6442 18.1504 19.6977ZM15.6021 5.25449C15.6021 6.30802 16.4548 7.16401 17.5117 7.16401C18.5685 7.16401 19.4212 6.30802 19.4212 5.25449C19.4212 4.19766 18.5685 3.34167 17.5117 3.34167C16.4548 3.34167 15.6021 4.19766 15.6021 5.25449ZM14.9667 8.16158C13.9132 8.16158 13.0572 9.01099 13.0572 10.0678C13.0572 11.1213 13.9132 11.9773 14.9667 11.9773C16.017 11.9773 16.8763 11.1213 16.8763 10.0678C16.8763 9.01099 16.017 8.16158 14.9667 8.16158ZM10.509 5.25449C10.509 6.30802 11.3683 7.16401 12.4218 7.16401C13.472 7.16401 14.3313 6.30802 14.3313 5.25449C14.3313 4.19766 13.472 3.34167 12.4218 3.34167C11.3683 3.34167 10.509 4.19766 10.509 5.25449ZM9.87686 8.16158C8.82003 8.16158 7.96733 9.01099 7.96733 10.0678C7.96733 11.1213 8.82003 11.9773 9.87686 11.9773C10.9337 11.9773 11.7831 11.1213 11.7831 10.0678C11.7831 9.01099 10.9337 8.16158 9.87686 8.16158ZM5.42239 5.25449C5.42239 6.30802 6.2718 7.16401 7.33192 7.16401C8.38216 7.16401 9.23815 6.30802 9.23815 5.25449C9.23815 4.19766 8.38216 3.34167 7.33192 3.34167C6.2718 3.34167 5.42239 4.19766 5.42239 5.25449ZM2.87416 10.0678C2.87416 11.1213 3.73016 11.9773 4.78698 11.9773C5.84051 11.9773 6.69322 11.1213 6.69322 10.0678C6.69322 9.01099 5.84051 8.16158 4.78698 8.16158C3.73016 8.16158 2.87416 9.01099 2.87416 10.0678ZM2.87416 19.6977C2.87416 20.748 3.73016 21.6073 4.78698 21.6073C5.84051 21.6073 6.69322 20.748 6.69322 19.6977C6.69322 18.6442 5.84051 17.7882 4.78698 17.7882C3.73016 17.7882 2.87416 18.6442 2.87416 19.6977ZM20.0566 8.16158C19.0031 8.16158 18.1504 9.01099 18.1504 10.0678C18.1504 11.1213 19.0031 11.9773 20.0566 11.9773C21.1101 11.9773 21.9661 11.1213 21.9661 10.0678C21.9661 9.01099 21.1101 8.16158 20.0566 8.16158Z" fill="white"/>
<path d="M28.7676 6.55493H34.4271L33.8476 8.39861H34.7958H35.744L35.1678 6.55493H40.824L40.5738 8.39861H42.2199L41.5022 5.66272H34.7958H28.0927L27.375 8.39861H29.0244L28.7676 6.55493Z" fill="white"/>
<path fill-rule="evenodd" clip-rule="evenodd" d="M27.6277 14.8679L27.6442 14.8547C27.6146 14.8317 27.5784 14.8185 27.5553 14.7889C27.3874 14.5255 27.5882 14.0876 28.0097 13.8012C28.4311 13.5115 28.915 13.5214 29.0895 13.7815C29.2827 14.047 29.478 14.2786 29.6756 14.4761C29.9093 14.2819 30.3439 13.9132 30.7521 13.5247C30.5019 13.2679 30.3011 13.0176 30.1924 12.8267C29.8863 12.2769 29.7513 11.4308 30.0805 10.8744C30.2221 10.6275 30.5151 10.3311 31.1044 10.3081V10.3015L31.19 10.3081C31.776 10.3311 32.0657 10.6275 32.2139 10.8744C32.5431 11.4308 32.4081 12.2769 32.102 12.8267C31.99 13.0308 31.7892 13.2777 31.5522 13.5247C32.0394 13.9856 32.5925 14.4498 32.902 14.7033C33.2005 14.4092 33.4694 14.0328 33.7086 13.574L33.9654 13.6926C32.7999 17.2417 29.7348 17.0408 27.6277 14.8679ZM31.1505 13.1263C31.3546 12.9123 31.5159 12.7082 31.6081 12.5534C31.8287 12.1518 31.9341 11.5197 31.7266 11.1608C31.6191 10.9764 31.4248 10.8799 31.1439 10.8711C30.8674 10.8799 30.6753 10.9764 30.5678 11.1608C30.3571 11.5197 30.4657 12.1518 30.6863 12.5534C30.7653 12.7016 30.9431 12.9024 31.1505 13.1263ZM32.4542 15.0687C32.1909 14.8547 31.6542 14.4037 31.1538 13.9263C30.7225 14.3411 30.2846 14.7066 30.1035 14.8547C30.9332 15.4902 31.7431 15.5198 32.4542 15.0687Z" fill="white"/>
<path fill-rule="evenodd" clip-rule="evenodd" d="M41.8446 13.574L42.0981 13.6926C40.9359 17.2417 37.8708 17.0408 35.7571 14.8679L35.7769 14.8547C35.7472 14.8317 35.7077 14.8185 35.6913 14.7889C35.5135 14.5255 35.7176 14.0876 36.139 13.8012C36.5637 13.5115 37.051 13.5214 37.2222 13.7815C37.4175 14.047 37.6118 14.2786 37.8049 14.4761C38.0453 14.2819 38.4765 13.9132 38.8848 13.5247C38.6379 13.2679 38.4337 13.0176 38.3185 12.8267C38.0189 12.2769 37.8839 11.4308 38.2099 10.8744C38.358 10.6275 38.651 10.3311 39.2338 10.3081V10.3015L39.3227 10.3081C39.9054 10.3311 40.2017 10.6275 40.3433 10.8744C40.6758 11.4308 40.5408 12.2769 40.2346 12.8267C40.1194 13.0308 39.9219 13.2777 39.6881 13.5247C40.1754 13.9856 40.7219 14.4498 41.0379 14.7033C41.3342 14.4092 41.6031 14.0328 41.8446 13.574ZM39.2864 13.1263C39.4873 12.9123 39.6519 12.7082 39.7375 12.5534C39.9647 12.1518 40.0667 11.5197 39.856 11.1608C39.7507 10.9764 39.5575 10.8799 39.2766 10.8711C39.0022 10.8799 38.8102 10.9764 38.7004 11.1608C38.4897 11.5197 38.5918 12.1518 38.8189 12.5534C38.9013 12.7016 39.0725 12.9024 39.2864 13.1263ZM40.5869 15.0687C40.3202 14.8547 39.7836 14.4037 39.2897 13.9263C38.8519 14.3411 38.4173 14.7066 38.2329 14.8547C39.0626 15.4902 39.8758 15.5198 40.5869 15.0687Z" fill="white"/>
<path fill-rule="evenodd" clip-rule="evenodd" d="M37.7824 19.3389L38.0326 19.464C36.8705 23.0098 33.8053 22.8057 31.695 20.6361L31.7114 20.6229C31.6818 20.5999 31.6456 20.5867 31.6258 20.5538C31.4514 20.297 31.6489 19.8558 32.0769 19.5694C32.4983 19.2863 32.9823 19.2896 33.16 19.5496C33.351 19.8152 33.5441 20.0468 33.7395 20.2443C33.9765 20.0501 34.4111 19.6813 34.8194 19.2961C34.5691 19.0361 34.365 18.7891 34.2564 18.5916C33.9502 18.0451 33.8152 17.199 34.1444 16.6393C34.2926 16.3923 34.5856 16.0993 35.1683 16.0763V16.0697L35.2572 16.0763C35.84 16.0993 36.133 16.3923 36.2811 16.6393C36.6104 17.199 36.4754 18.0451 36.1692 18.5916C36.054 18.7957 35.8531 19.0459 35.6227 19.2928C36.1099 19.7538 36.663 20.218 36.9692 20.4682C37.2655 20.1785 37.5366 19.8021 37.7824 19.3389ZM35.2177 18.8945C35.4218 18.6772 35.5865 18.4764 35.6754 18.3216C35.8959 17.9167 36.0046 17.2911 35.7939 16.929C35.6841 16.7446 35.491 16.648 35.2144 16.6393C34.9357 16.648 34.7414 16.7446 34.6317 16.929C34.4243 17.2911 34.5329 17.9167 34.7535 18.3216C34.8391 18.4698 35.007 18.6706 35.2177 18.8945ZM36.5182 20.8369C36.2581 20.6229 35.7182 20.1686 35.2177 19.6945C34.7897 20.1093 34.3519 20.4748 34.1675 20.6229C35.0004 21.2616 35.8103 21.2847 36.5182 20.8369Z" fill="white"/>
<path fill-rule="evenodd" clip-rule="evenodd" d="M63.7347 27.8889C64.775 28.7713 65.2952 30.1266 65.2952 31.9549C65.2952 33.7876 64.7618 35.1254 63.6951 35.9682C62.6306 36.8176 61.0021 37.2423 58.8094 37.2423H56.8406V41.3741H53.5352V26.5588H58.7666C61.0427 26.5588 62.6987 27.0022 63.7347 27.8889ZM61.9041 31.7639C61.9041 30.9079 61.6462 30.3 61.1305 29.94C60.6169 29.5801 59.8157 29.4012 58.7271 29.4034H56.8406V34.3846H59.0662C60.168 34.3824 60.9165 34.1596 61.3115 33.7163C61.7066 33.2685 61.9041 32.6177 61.9041 31.7639Z" fill="white"/>
<path d="M71.1883 35.3789H77.8189V32.5574H71.1883V29.5087H78.5597V26.5588H67.8828V41.3741H78.7935V38.4539H71.1883V35.3789Z" fill="white"/>
<path fill-rule="evenodd" clip-rule="evenodd" d="M90.9395 36.0768L94.6894 41.3741H90.6201L87.3377 36.6497H85.0463V41.3741H81.7441V26.5588H87.3575C89.6621 26.5588 91.3049 26.9484 92.286 27.7276C93.2671 28.5046 93.7577 29.7556 93.7577 31.4808C93.7577 33.8534 92.8183 35.3855 90.9395 36.0768ZM90.3897 31.4907C90.3875 30.6918 90.1746 30.143 89.751 29.8445C89.3274 29.5482 88.5866 29.4012 87.5287 29.4034H85.0463V33.7887H87.4661C88.5943 33.7887 89.3636 33.6054 89.774 33.2389C90.1845 32.8701 90.3897 32.2874 90.3897 31.4907Z" fill="white"/>
<path d="M110.264 35.0793L107.66 26.5588H104.203L101.576 35.0793L98.6523 26.5588H95.0703L100.239 41.3741H102.699L105.918 31.0759L109.161 41.3741H111.617L116.793 26.5588H113.211L110.264 35.0793Z" fill="white"/>
<path d="M121.858 35.3789H128.492V32.5574H121.858V29.5087H129.233V26.5588H118.553V41.3741H129.467V38.4539H121.858V35.3789Z" fill="white"/>
<path d="M136.096 38.4901L143.833 28.8503V26.5588H131.816V29.4231H139.319L131.562 39.109V41.3741H143.958V38.4901H136.096Z" fill="white"/>
<path d="M55.8465 20.6788C56.6059 20.6767 57.2666 20.3606 57.8284 19.7307L57.1206 19.0031C56.776 19.4333 56.3338 19.6473 55.7938 19.6451C55.3987 19.6451 55.0629 19.5068 54.7864 19.2302C54.5076 18.9537 54.3683 18.585 54.3683 18.124C54.3683 17.6675 54.5153 17.3043 54.8094 17.0343C55.1035 16.7599 55.458 16.6239 55.8728 16.626C56.3908 16.626 56.8221 16.8422 57.1667 17.2746L57.8548 16.5009C57.3083 15.8842 56.6312 15.5758 55.8234 15.5758C55.097 15.5758 54.4835 15.8194 53.9831 16.3067C53.4826 16.7983 53.2324 17.4096 53.2324 18.1405C53.2346 18.8714 53.4804 19.4772 53.9699 19.9578C54.4615 20.4385 55.0871 20.6788 55.8465 20.6788Z" fill="white"/>
<path fill-rule="evenodd" clip-rule="evenodd" d="M59.0573 19.9414C58.5569 19.4541 58.3066 18.8472 58.3066 18.1207C58.3066 17.3964 58.5569 16.7918 59.0573 16.3067C59.5555 15.8194 60.169 15.5758 60.8977 15.5758C61.6264 15.5758 62.2387 15.8194 62.7348 16.3067C63.2352 16.7918 63.4854 17.3964 63.4854 18.1207C63.4854 18.8472 63.2352 19.4541 62.7348 19.9414C62.2387 20.4264 61.6264 20.6701 60.8977 20.6723C60.169 20.6701 59.5555 20.4264 59.0573 19.9414ZM59.4359 18.124C59.4359 18.563 59.5775 18.9372 59.8606 19.2467C60.1437 19.5562 60.4894 19.7098 60.8977 19.7076C61.3125 19.7098 61.6604 19.5562 61.9413 19.2467C62.2245 18.9372 62.366 18.563 62.366 18.124C62.366 17.6851 62.2245 17.3097 61.9413 16.9981C61.6604 16.6886 61.3125 16.5339 60.8977 16.5339C60.4894 16.5339 60.1437 16.6886 59.8606 16.9981C59.5775 17.3097 59.4359 17.6851 59.4359 18.124Z" fill="white"/>
<path d="M68.8349 20.6196H69.9378V15.6877H68.4563L67.1789 18.3973L65.908 15.6877H64.4199V20.6196H65.5195V17.515L66.8463 20.2113H67.5048L68.8349 17.515V20.6196Z" fill="white"/>
<path d="M72.252 17.515L73.5788 20.2113H74.2339L75.5706 17.515V20.6196H76.6702V15.6877H75.1854L73.9113 18.3973L72.6372 15.6877H71.1523V20.6196H72.252V17.515Z" fill="white"/>
<path d="M82.0398 15.6877H80.9402V18.4105C80.9402 18.8077 80.8491 19.1194 80.6669 19.3455C80.4869 19.5737 80.2411 19.6879 79.9294 19.6879C79.62 19.6879 79.373 19.5737 79.1887 19.3455C79.0043 19.1194 78.9132 18.8077 78.9154 18.4105V15.6877H77.8125V18.45C77.8125 19.1589 78.0122 19.7054 78.4117 20.0895C78.8068 20.478 79.3127 20.6723 79.9294 20.6723C80.5462 20.6701 81.0521 20.4769 81.4472 20.0928C81.8423 19.7087 82.0398 19.1611 82.0398 18.45V15.6877Z" fill="white"/>
<path d="M84.2852 17.5281L86.6359 20.6196H87.7355V15.6877H86.6359V18.8615L84.2127 15.6877H83.1855V20.6196H84.2852V17.5281Z" fill="white"/>
<path d="M92.5858 19.6451H90.0541V18.6212H92.2566V17.6829H90.0541V16.6688H92.5068V15.6877H88.9512V20.6196H92.5858V19.6451Z" fill="white"/>
<path fill-rule="evenodd" clip-rule="evenodd" d="M97.1153 20.6196H95.4297V15.6877H97.1713C98.0514 15.6877 98.7264 15.9028 99.1961 16.333C99.668 16.7632 99.9039 17.3624 99.9039 18.1306C99.9017 18.8966 99.6712 19.5035 99.2125 19.9513C98.756 20.3968 98.0569 20.6196 97.1153 20.6196ZM96.5293 19.6451H97.2273C97.7321 19.6451 98.1195 19.5178 98.3894 19.2632C98.6594 19.0108 98.7944 18.642 98.7944 18.157C98.7944 17.6719 98.6594 17.2988 98.3894 17.0376C98.1195 16.7764 97.7036 16.6458 97.1417 16.6458H96.5293V19.6451Z" fill="white"/>
<path d="M104.49 19.6451H101.958V18.6212H104.168V17.6829H101.958V16.6688H104.414V15.6877H100.855V20.6196H104.49V19.6451Z" fill="white"/>
</svg>
