<svg width="2210" height="1018" viewBox="0 0 2210 1018" fill="none" xmlns="http://www.w3.org/2000/svg">
<mask id="mask0_4269_61" style="mask-type:alpha" maskUnits="userSpaceOnUse" x="0" y="0" width="2210" height="1018">
<path d="M2210 0H0V1018L2210 916.809V0Z" fill="#46484A"/>
</mask>
<g mask="url(#mask0_4269_61)">
<path d="M2809 0H0V500L2809 412.287V0Z" fill="#46484A"/>
<path fill-rule="evenodd" clip-rule="evenodd" d="M2032.85 846.315C2032.85 871.442 2053.25 892 2078.54 892C2103.82 892 2124.14 871.442 2124.14 846.315C2124.14 821.11 2103.82 800.63 2078.54 800.63C2053.25 800.63 2032.85 821.11 2032.85 846.315ZM2063.26 731.158C2063.26 705.952 2042.78 685.315 2017.65 685.315C1992.29 685.315 1971.97 705.952 1971.97 731.158C1971.97 756.284 1992.29 776.842 2017.65 776.842C2042.78 776.842 2063.26 756.284 2063.26 731.158ZM2139.42 776.842C2164.55 776.842 2185.11 756.284 2185.11 731.158C2185.11 705.952 2164.55 685.315 2139.42 685.315C2114.22 685.315 2093.66 705.952 2093.66 731.158C2093.66 756.284 2114.22 776.842 2139.42 776.842ZM2154.63 846.315C2154.63 871.442 2175.11 892 2200.31 892C2225.44 892 2246 871.442 2246 846.315C2246 821.11 2225.44 800.63 2200.31 800.63C2175.11 800.63 2154.63 821.11 2154.63 846.315ZM2261.2 776.842C2286.48 776.842 2306.88 756.284 2306.88 731.158C2306.88 705.952 2286.48 685.315 2261.2 685.315C2235.91 685.315 2215.51 705.952 2215.51 731.158C2215.51 756.284 2235.91 776.842 2261.2 776.842ZM2276.48 846.315C2276.48 871.442 2296.88 892 2322.09 892C2347.29 892 2367.77 871.442 2367.77 846.315C2367.77 821.11 2347.29 800.63 2322.09 800.63C2296.88 800.63 2276.48 821.11 2276.48 846.315ZM2215.51 500.764C2215.51 525.969 2235.91 546.449 2261.2 546.449C2286.48 546.449 2306.88 525.969 2306.88 500.764C2306.88 475.479 2286.48 455 2261.2 455C2235.91 455 2215.51 475.479 2215.51 500.764ZM2200.31 570.315C2175.11 570.315 2154.63 590.637 2154.63 615.921C2154.63 641.127 2175.11 661.606 2200.31 661.606C2225.44 661.606 2246 641.127 2246 615.921C2246 590.637 2225.44 570.315 2200.31 570.315ZM2093.66 500.764C2093.66 525.969 2114.22 546.449 2139.42 546.449C2164.55 546.449 2185.11 525.969 2185.11 500.764C2185.11 475.479 2164.55 455 2139.42 455C2114.22 455 2093.66 475.479 2093.66 500.764ZM2078.54 570.315C2053.25 570.315 2032.85 590.637 2032.85 615.921C2032.85 641.127 2053.25 661.606 2078.54 661.606C2103.82 661.606 2124.14 641.127 2124.14 615.921C2124.14 590.637 2103.82 570.315 2078.54 570.315ZM1971.97 500.764C1971.97 525.969 1992.29 546.449 2017.65 546.449C2042.78 546.449 2063.26 525.969 2063.26 500.764C2063.26 475.479 2042.78 455 2017.65 455C1992.29 455 1971.97 475.479 1971.97 500.764ZM1911 615.921C1911 641.127 1931.48 661.606 1956.76 661.606C1981.97 661.606 2002.37 641.127 2002.37 615.921C2002.37 590.637 1981.97 570.315 1956.76 570.315C1931.48 570.315 1911 590.637 1911 615.921ZM1911 846.315C1911 871.442 1931.48 892 1956.76 892C1981.97 892 2002.37 871.442 2002.37 846.315C2002.37 821.11 1981.97 800.63 1956.76 800.63C1931.48 800.63 1911 821.11 1911 846.315ZM2322.09 570.315C2296.88 570.315 2276.48 590.637 2276.48 615.921C2276.48 641.127 2296.88 661.606 2322.09 661.606C2347.29 661.606 2367.77 641.127 2367.77 615.921C2367.77 590.637 2347.29 570.315 2322.09 570.315Z" fill="#E0B25C" fill-opacity="0.15"/>
<path fill-rule="evenodd" clip-rule="evenodd" d="M14.8528 398.315C14.8528 423.442 35.2535 444 60.5377 444C85.822 444 106.144 423.442 106.144 398.315C106.144 373.11 85.822 352.63 60.5377 352.63C35.2535 352.63 14.8528 373.11 14.8528 398.315ZM45.2569 283.158C45.2569 257.952 24.7774 237.315 -0.349274 237.315C-25.7123 237.315 -46.0342 257.952 -46.0342 283.158C-46.0342 308.284 -25.7123 328.842 -0.349274 328.842C24.7774 328.842 45.2569 308.284 45.2569 283.158ZM121.425 328.842C146.551 328.842 167.11 308.284 167.11 283.158C167.11 257.952 146.551 237.315 121.425 237.315C96.2192 237.315 75.661 257.952 75.661 283.158C75.661 308.284 96.2192 328.842 121.425 328.842ZM136.627 398.315C136.627 423.442 157.106 444 182.312 444C207.439 444 227.997 423.442 227.997 398.315C227.997 373.11 207.439 352.63 182.312 352.63C157.106 352.63 136.627 373.11 136.627 398.315ZM243.199 328.842C268.483 328.842 288.884 308.284 288.884 283.158C288.884 257.952 268.483 237.315 243.199 237.315C217.914 237.315 197.514 257.952 197.514 283.158C197.514 308.284 217.914 328.842 243.199 328.842ZM258.48 398.315C258.48 423.442 278.88 444 304.086 444C329.291 444 349.771 423.442 349.771 398.315C349.771 373.11 329.291 352.63 304.086 352.63C278.88 352.63 258.48 373.11 258.48 398.315ZM197.514 52.7637C197.514 77.9692 217.914 98.4486 243.199 98.4486C268.483 98.4486 288.884 77.9692 288.884 52.7637C288.884 27.4794 268.483 7 243.199 7C217.914 7 197.514 27.4794 197.514 52.7637ZM182.312 122.315C157.106 122.315 136.627 142.637 136.627 167.921C136.627 193.127 157.106 213.606 182.312 213.606C207.439 213.606 227.997 193.127 227.997 167.921C227.997 142.637 207.439 122.315 182.312 122.315ZM75.661 52.7637C75.661 77.9692 96.2192 98.4486 121.425 98.4486C146.551 98.4486 167.11 77.9692 167.11 52.7637C167.11 27.4794 146.551 7 121.425 7C96.2192 7 75.661 27.4794 75.661 52.7637ZM60.5377 122.315C35.2535 122.315 14.8528 142.637 14.8528 167.921C14.8528 193.127 35.2535 213.606 60.5377 213.606C85.822 213.606 106.144 193.127 106.144 167.921C106.144 142.637 85.822 122.315 60.5377 122.315ZM-46.0342 52.7637C-46.0342 77.9692 -25.7123 98.4486 -0.349274 98.4486C24.7774 98.4486 45.2569 77.9692 45.2569 52.7637C45.2569 27.4794 24.7774 7 -0.349274 7C-25.7123 7 -46.0342 27.4794 -46.0342 52.7637ZM-107 167.921C-107 193.127 -86.5205 213.606 -61.2363 213.606C-36.0308 213.606 -15.6301 193.127 -15.6301 167.921C-15.6301 142.637 -36.0308 122.315 -61.2363 122.315C-86.5205 122.315 -107 142.637 -107 167.921ZM-107 398.315C-107 423.442 -86.5205 444 -61.2363 444C-36.0308 444 -15.6301 423.442 -15.6301 398.315C-15.6301 373.11 -36.0308 352.63 -61.2363 352.63C-86.5205 352.63 -107 373.11 -107 398.315ZM304.086 122.315C278.88 122.315 258.48 142.637 258.48 167.921C258.48 193.127 278.88 213.606 304.086 213.606C329.291 213.606 349.771 193.127 349.771 167.921C349.771 142.637 329.291 122.315 304.086 122.315Z" fill="url(#paint0_linear_4269_61)"/>
</g>
<defs>
<linearGradient id="paint0_linear_4269_61" x1="177" y1="87" x2="-656" y2="1191.5" gradientUnits="userSpaceOnUse">
<stop stop-color="#46484A" stop-opacity="0.6"/>
<stop offset="1" stop-color="white" stop-opacity="0.6"/>
</linearGradient>
</defs>
</svg>
