<svg width="463" height="352" viewBox="0 0 463 352" fill="none" xmlns="http://www.w3.org/2000/svg">
<mask id="mask0_67_15" style="mask-type:alpha" maskUnits="userSpaceOnUse" x="0" y="27" width="266" height="325">
<rect y="27" width="266" height="325" fill="#D9D9D9"/>
</mask>
<g mask="url(#mask0_67_15)">
<path d="M237.647 410.338C331.656 312.868 139.378 305.423 107.569 211.637C83.7786 141.489 89.3807 45.0935 15.7466 41.2177C-65.0245 36.9965 -60.3816 159.986 -203.851 231.975C-323.799 292.184 -264.823 483.863 -118.399 525.537C-40.5821 547.679 174.987 475.306 237.685 410.3L237.647 410.338Z" fill="url(#paint0_linear_67_15)"/>
<path d="M-87.3411 261.028C-182.233 313.025 -190.636 430.373 -132.12 539.663C-73.6043 648.99 30.3813 744.081 96.0726 676.236C140.506 630.341 81.1847 554.168 136.823 454.088C208.078 325.919 44.7321 188.616 -87.3411 260.99L-87.3411 261.028Z" fill="url(#paint1_linear_67_15)"/>
<path d="M23.1388 252.25C23.1388 263.991 32.6561 273.509 44.3964 273.509C56.1366 273.509 65.6539 263.991 65.6539 252.25C65.6539 240.509 56.1366 230.991 44.3964 230.991C32.6561 230.991 23.1388 240.509 23.1388 252.25Z" stroke="white" stroke-width="2.19" stroke-miterlimit="10"/>
<path d="M199.828 199.263L185.055 199.263L185.055 196.078L199.828 196.078C200.902 196.078 201.746 196.807 201.746 197.69C201.746 198.573 200.902 199.302 199.828 199.302L199.828 199.263Z" fill="#D53948" stroke="#DE047B" stroke-miterlimit="10"/>
<path d="M135.326 199.263C134.252 199.263 133.407 198.534 133.407 197.652C133.407 196.769 134.252 196.04 135.326 196.04L149.178 196.04L149.178 199.225L135.326 199.225L135.326 199.263Z" fill="#D53948" stroke="#DE047B" stroke-miterlimit="10"/>
<path d="M167.596 231.843C166.713 231.843 165.984 230.999 165.984 229.924L165.984 215.15L169.169 215.15L169.169 229.924C169.169 230.999 168.44 231.843 167.558 231.843L167.596 231.843Z" fill="#D53948" stroke="#DE047B" stroke-miterlimit="10"/>
<path d="M169.169 165.417L169.169 179.271L165.984 179.271L165.984 165.417C165.984 164.343 166.713 163.499 167.596 163.499C168.478 163.499 169.208 164.343 169.208 165.417L169.169 165.417Z" fill="#D53948" stroke="#DE047B" stroke-miterlimit="10"/>
<path d="M189.276 221.597L178.839 211.159L181.103 208.895L191.539 219.333C192.307 220.101 192.384 221.213 191.77 221.827C191.156 222.441 190.043 222.365 189.276 221.597Z" fill="#D53948" stroke="#DE047B" stroke-miterlimit="10"/>
<path d="M143.652 175.97C142.885 175.203 142.808 174.09 143.422 173.476C144.036 172.862 145.149 172.939 145.916 173.706L155.739 183.53L153.475 185.794L143.652 175.97Z" fill="#D53948" stroke="#DE047B" stroke-miterlimit="10"/>
<path d="M143.422 221.827C142.808 221.213 142.885 220.101 143.652 219.333L154.089 208.895L156.353 211.159L145.916 221.597C145.149 222.365 144.036 222.441 143.422 221.827Z" fill="#D53948" stroke="#DE047B" stroke-miterlimit="10"/>
<path d="M191.501 175.97L181.678 185.794L179.414 183.53L189.237 173.706C190.004 172.939 191.117 172.862 191.731 173.476C192.345 174.09 192.268 175.203 191.501 175.97Z" fill="#D53948" stroke="#DE047B" stroke-miterlimit="10"/>
</g>
<defs>
<linearGradient id="paint0_linear_67_15" x1="7.08521" y1="-1226.8" x2="-362.801" y2="-904.557" gradientUnits="userSpaceOnUse">
<stop stop-color="#DE047B"/>
<stop offset="1" stop-color="#ED9FD1"/>
</linearGradient>
<linearGradient id="paint1_linear_67_15" x1="-142.932" y1="381.868" x2="197.364" y2="576.656" gradientUnits="userSpaceOnUse">
<stop stop-color="#DE047B"/>
<stop offset="1" stop-color="#ED9FD1"/>
</linearGradient>
</defs>
</svg>
