<svg viewBox="0 0 681 308" fill="none" xmlns="http://www.w3.org/2000/svg">
<g clip-path="url(#clip0_1_3726)">
<path d="M39.2274 2.85283e-05C45.7653 2.85283e-05 51.3418 0.962228 56.0529 2.79041C60.7641 4.61859 64.1292 6.25432 66.3405 7.69762C71.6285 11.5464 74.8013 9.14092 75.9551 0.192468H81.0508C80.7624 4.71481 80.4739 10.0069 80.3778 16.165C80.1855 22.3231 80.1855 30.5017 80.1855 40.7973H75.0898C74.3206 35.0241 72.7823 29.4433 70.6671 23.9588C68.5519 18.4743 65.2829 13.9519 61.0525 10.2956C56.8221 6.6392 51.3418 4.81103 44.5154 4.81103C39.7082 4.81103 35.67 6.25432 32.4972 9.0447C29.3244 11.8351 27.6899 15.7801 27.6899 20.976C27.6899 25.6908 29.1321 29.732 31.9204 33.1959C34.7086 36.6598 38.3621 39.9313 42.7848 43.0103C47.2075 46.0894 51.8225 49.3609 56.6298 52.921C62.2063 56.6736 67.2058 60.4262 71.5324 64.2749C75.8589 68.1237 79.4163 72.2612 82.0123 76.8798C84.6082 81.4983 85.9542 86.8866 85.9542 93.1409C85.9542 100.261 83.9352 106.419 79.9932 111.519C76.0512 116.619 70.7632 120.467 64.3215 123.162C57.8797 125.856 50.7649 127.203 42.9771 127.203C38.7467 127.203 34.997 126.818 31.5358 126.048C28.0745 125.278 25.094 124.22 22.4019 122.969C20.3829 121.911 18.5561 120.852 16.9216 119.89C15.2872 118.928 13.6527 118.158 11.9221 117.581C10.3837 116.811 9.03768 117.1 7.88393 118.543C6.73018 119.986 5.86487 122.296 5.19185 125.567H0.0961304C0.384567 120.564 0.673005 114.502 0.76915 107.381C0.961442 100.261 0.961442 90.7354 0.961442 78.9004H6.05716C7.11477 87.464 8.84539 94.9691 11.0567 101.416C13.2681 107.863 16.6332 112.962 20.9597 116.619C25.2863 120.275 30.9589 122.103 37.7852 122.103C40.7658 122.103 43.554 121.526 46.3422 120.275C49.0343 119.024 51.3418 117.1 53.0724 114.406C54.8992 111.711 55.7645 108.151 55.7645 103.629C55.7645 96.7973 53.457 91.1203 48.7459 86.598C44.0347 82.0756 38.266 77.2646 31.2473 72.0688C25.9593 68.22 21.0559 64.3712 16.4409 60.6186C11.8259 56.866 8.07622 52.6323 5.19185 48.0138C2.30748 43.299 0.865296 37.8145 0.865296 31.4639C0.865296 24.4399 2.69206 18.6667 6.24946 14.0481C9.80685 9.42958 14.518 5.96566 20.3829 3.56017C26.2478 1.15467 32.4972 -0.0961914 39.1313 -0.0961914L39.2274 2.85283e-05Z" fill="#DE047B"/>
<path d="M146.622 0.673584V102.282C146.622 108.825 147.776 113.251 150.276 115.56C152.679 117.869 156.814 119.024 162.486 119.024V123.931C159.698 123.739 155.371 123.546 149.699 123.354C144.026 123.162 138.065 122.969 132.2 122.969C126.335 122.969 120.567 123.065 114.702 123.354C108.837 123.643 104.318 123.739 101.434 123.931V119.024C107.202 119.024 111.241 117.869 113.644 115.56C116.048 113.251 117.298 108.825 117.298 102.282V28.9622C117.298 21.842 116.144 16.5499 113.933 13.1822C111.721 9.81448 107.491 8.17874 101.434 8.17874V3.27152C106.433 3.75262 111.241 3.94506 115.952 3.94506C121.72 3.94506 127.201 3.6564 132.393 3.1753C137.584 2.6942 142.392 1.82822 146.718 0.769804L146.622 0.673584Z" fill="#DE047B"/>
<path d="M221.712 3.27151V8.17873C218.731 8.17873 216.424 8.85227 214.693 10.2956C212.963 11.7389 212.867 13.6633 214.501 16.165L276.323 107.478C278.534 110.557 280.553 113.155 282.668 115.175C284.687 117.196 287.091 118.543 289.879 119.12V124.028C287.668 123.835 284.495 123.643 280.265 123.45C276.034 123.258 271.9 123.065 267.67 123.065C262.189 123.065 256.613 123.162 250.94 123.45C245.268 123.739 241.037 123.835 238.249 124.028V119.12C241.326 119.12 243.729 118.351 245.46 116.907C247.191 115.464 247.191 113.54 245.46 111.23L183.638 19.9176C180.946 15.8763 178.735 12.9897 176.908 11.354C175.081 9.71825 172.774 8.65983 170.178 8.17873V3.27151C172.485 3.46395 176.043 3.65639 180.658 3.84883C185.369 4.04127 189.792 4.23371 194.214 4.23371C199.502 4.23371 204.79 4.13749 210.078 3.84883C215.366 3.65639 219.308 3.46395 221.712 3.27151ZM220.27 66.1031C220.75 67.9313 221.231 69.9519 221.904 71.9725L209.309 88.5224C204.79 94.2956 202.387 99.3952 202.002 103.918C201.617 108.44 202.964 112 206.04 114.694C209.117 117.388 213.443 118.928 218.924 119.409V124.124C216.135 123.931 212.77 123.835 208.732 123.739C204.79 123.739 200.944 123.546 197.195 123.546C193.445 123.546 190.368 123.45 187.869 123.45C184.311 123.45 181.138 123.45 178.446 123.546C175.754 123.546 173.158 123.835 170.851 124.124V119.409C174.312 118.447 177.581 116.619 180.85 113.924C184.119 111.23 187.869 107.189 192.099 101.897L220.366 66.1993L220.27 66.1031ZM283.822 3.27151V7.98629C280.745 8.94849 277.38 10.7767 273.823 13.6633C270.266 16.5499 266.612 20.4949 262.862 25.4983L236.518 59.5602C236.038 57.5396 235.557 55.6152 235.076 53.6908L249.113 34.7354C252.959 29.6358 255.459 25.1134 256.324 21.1684C257.286 17.3196 256.613 14.2406 254.498 11.9313C252.286 9.62203 248.44 8.27495 242.864 7.89007V3.17529C247.191 3.36773 251.421 3.46395 255.363 3.65639C259.305 3.84883 263.247 3.84883 267.189 3.84883C270.65 3.84883 273.727 3.84883 276.419 3.65639C279.111 3.46395 281.707 3.36773 284.014 3.17529L283.822 3.27151Z" fill="#DE047B"/>
<path d="M359.585 140C365.354 140 370.642 140.674 375.545 142.021C380.449 143.368 384.679 145.196 388.236 147.505C391.986 149.814 394.967 152.797 397.082 156.261C399.197 159.725 400.351 163.574 400.351 167.808C400.351 172.907 398.812 177.045 395.64 180.22C392.467 183.395 388.621 184.935 384.006 184.935C379.391 184.935 375.257 183.491 372.18 180.701C369.103 177.911 367.661 174.158 367.661 169.443C367.661 164.729 369.007 161.168 371.603 158.186C374.199 155.203 377.468 153.278 381.218 152.316C379.776 150.296 377.66 148.66 374.68 147.313C371.699 145.966 368.43 145.292 364.873 145.292C360.162 145.292 356.028 146.543 352.278 148.948C348.528 151.354 345.355 154.914 342.567 159.725C339.875 164.44 337.76 170.309 336.222 177.237C334.779 184.165 334.01 192.151 334.01 201.196C334.01 213.801 335.548 223.808 338.529 231.12C341.51 238.433 345.451 243.629 350.355 246.612C355.162 249.691 360.354 251.134 365.738 251.134C369.007 251.134 372.468 250.557 376.218 249.306C379.968 248.055 383.621 245.938 387.275 242.955C390.928 239.973 394.197 235.835 397.178 230.351L401.601 231.986C399.87 237.471 397.178 242.859 393.332 248.344C389.486 253.828 384.583 258.351 378.526 261.911C372.468 265.471 365.065 267.299 356.316 267.299C346.317 267.299 337.375 264.99 329.203 260.371C321.127 255.753 314.685 248.825 309.974 239.491C305.263 230.158 302.859 218.515 302.859 204.66C302.859 190.804 305.263 179.354 310.07 169.732C314.877 160.11 321.607 152.797 330.26 147.698C338.914 142.598 348.624 140 359.296 140H359.585Z" fill="#DE047B"/>
<path d="M460.153 140.77V242.378C460.153 248.921 461.307 253.347 463.807 255.656C466.211 257.966 470.345 259.12 476.017 259.12V264.028C473.229 263.835 468.903 263.643 463.23 263.45C457.557 263.258 451.596 263.065 445.731 263.065C439.867 263.065 434.098 263.162 428.233 263.45C422.368 263.739 417.849 263.835 414.965 264.028V259.12C420.734 259.12 424.772 257.966 427.175 255.656C429.579 253.347 430.829 248.921 430.829 242.378V169.058C430.829 161.938 429.675 156.646 427.464 153.278C425.252 149.911 421.022 148.275 414.965 148.275V143.368C419.964 143.849 424.772 144.041 429.483 144.041C435.252 144.041 440.732 143.753 445.924 143.271C451.116 142.79 455.923 141.924 460.249 140.866L460.153 140.77Z" fill="#DE047B"/>
<path d="M530.917 104.976V143.464H560.818V148.179H530.917V241.127C530.917 246.708 531.974 250.749 533.993 253.058C536.012 255.368 538.897 256.522 542.646 256.522C546.396 256.522 549.473 255.175 552.453 252.481C555.434 249.787 558.03 245.168 560.433 238.818L564.664 240.646C562.356 248.247 558.703 254.598 553.799 259.698C548.896 264.797 541.973 267.299 533.128 267.299C527.84 267.299 523.321 266.625 519.667 265.278C516.014 263.931 512.841 262.007 510.245 259.601C506.784 256.041 504.573 251.711 503.323 246.708C502.169 241.704 501.592 235.065 501.592 226.887V148.179H481.017V143.464H501.592V111.038C507.169 110.845 512.36 110.364 517.264 109.402C522.071 108.44 526.686 106.997 531.013 104.976H530.917Z" fill="#DE047B"/>
<path d="M681 143.271V148.179C678.019 148.852 675.327 150.488 672.731 153.086C670.136 155.78 667.732 160.399 665.424 167.134L630.908 262.007L623.697 272.976L575.624 161.361C572.644 155.491 569.856 151.739 567.26 150.392C564.664 149.045 562.452 148.275 560.722 148.275V143.368C565.241 143.849 569.952 144.137 574.855 144.426C579.759 144.715 584.662 144.811 589.662 144.811C595.43 144.811 601.007 144.619 606.391 144.33C611.775 144.041 616.775 143.753 621.486 143.368V148.275C617.928 148.275 614.756 148.467 611.871 148.948C609.083 149.43 607.256 150.68 606.391 152.797C605.526 154.914 606.102 158.474 608.122 163.67L637.254 234.873L635.427 235.835L656.002 180.22C658.598 172.907 659.752 166.942 659.271 162.515C658.79 157.993 657.06 154.529 654.175 152.22C651.195 149.911 647.157 148.564 642.061 148.275V143.368C644.561 143.56 647.061 143.656 649.56 143.849C652.06 144.041 654.464 144.137 656.771 144.234C659.079 144.234 661.386 144.33 663.501 144.33C666.77 144.33 670.039 144.33 673.212 144.137C676.385 143.945 679.077 143.753 681.288 143.464L681 143.271ZM630.812 261.911L621.967 285.485C620.524 289.333 619.082 292.701 617.448 295.395C615.813 298.089 613.986 300.302 611.967 302.034C609.66 304.055 606.775 305.498 603.41 306.46C600.045 307.423 596.392 307.904 592.354 307.904C588.796 307.904 585.335 307.326 581.97 306.076C578.605 304.825 575.817 302.997 573.605 300.495C571.394 297.993 570.24 294.722 570.24 290.68C570.24 286.351 571.682 282.79 574.663 280.192C577.643 277.595 581.681 276.247 586.777 276.247C591.296 276.247 594.95 277.402 597.834 279.615C600.718 281.828 602.161 285.292 602.161 289.814C602.161 292.797 601.295 295.395 599.565 297.801C597.834 300.11 595.43 301.938 592.354 303.189C593.123 303.381 593.892 303.478 594.565 303.574C595.238 303.574 595.815 303.67 596.296 303.67C600.814 303.67 604.853 302.227 608.41 299.244C611.967 296.261 614.852 291.643 617.063 285.196L625.428 262.103H630.812V261.911Z" fill="#DE047B"/>
<path d="M329.876 123.354C327.088 123.354 324.78 122.873 322.857 121.814C320.934 120.756 319.492 119.313 318.531 117.484C317.569 115.656 317.089 113.636 317.089 111.423C317.089 108.632 317.762 106.419 319.011 104.687C320.261 102.955 321.896 101.512 323.915 100.454C325.934 99.3951 328.049 98.5291 330.26 97.7594C332.472 96.9896 334.587 96.3161 336.606 95.6425C338.625 94.969 340.26 94.1992 341.51 93.3333C342.759 92.4673 343.432 91.3127 343.432 89.7731V82.7491C343.432 80.7285 343.144 78.9965 342.567 77.7456C341.99 76.3986 341.029 75.4364 339.875 74.7628C338.721 74.0893 337.183 73.8006 335.452 73.8006C334.106 73.8006 332.664 73.9931 331.222 74.3779C329.78 74.7628 328.53 75.5326 327.568 76.591C329.203 77.0721 330.549 77.8419 331.414 79.0927C332.376 80.3436 332.76 81.7869 332.76 83.5188C332.76 85.5395 332.087 87.079 330.837 88.1374C329.491 89.292 327.857 89.7731 325.934 89.7731C323.819 89.7731 322.28 89.0996 321.127 87.7525C320.069 86.4054 319.492 84.8659 319.492 83.0377C319.492 81.2096 319.973 79.7663 320.838 78.6116C321.703 77.457 322.953 76.3986 324.588 75.4364C326.222 74.3779 328.241 73.512 330.741 72.8384C333.241 72.1649 335.933 71.8762 338.817 71.8762C341.702 71.8762 344.105 72.1649 346.317 72.7422C348.528 73.3195 350.355 74.3779 351.893 75.9175C353.432 77.3608 354.393 79.1889 354.874 81.402C355.354 83.6151 355.547 86.213 355.547 89.3883V115.56C355.547 117.196 355.739 118.254 356.124 118.928C356.508 119.601 357.085 119.89 357.95 119.89C358.623 119.89 359.2 119.698 359.777 119.409C360.354 119.12 361.027 118.639 361.7 118.062L362.758 119.698C361.316 120.756 359.873 121.622 358.335 122.295C356.797 122.969 354.97 123.258 352.759 123.258C350.547 123.258 348.72 122.969 347.471 122.295C346.125 121.622 345.163 120.756 344.586 119.505C344.009 118.254 343.625 116.907 343.625 115.175C342.086 117.773 340.26 119.698 337.952 121.141C335.741 122.584 333.049 123.258 329.972 123.258L329.876 123.354ZM335.645 117.966C337.183 117.966 338.625 117.581 339.875 116.715C341.125 115.849 342.375 114.598 343.432 112.962V93.6219C342.759 94.5841 341.894 95.4501 340.74 96.2199C339.587 96.9896 338.337 97.7594 336.991 98.5291C335.645 99.2989 334.395 100.165 333.241 101.127C332.087 102.089 331.03 103.34 330.26 104.783C329.491 106.227 329.107 108.055 329.107 110.268C329.107 112.77 329.684 114.694 330.933 115.945C332.183 117.196 333.722 117.869 335.741 117.869L335.645 117.966Z" fill="#ED9FD1"/>
<path d="M399.774 71.8762C402.466 71.8762 404.581 72.2611 406.216 72.9346C407.85 73.6082 409.196 74.5704 410.158 75.6288C411.311 76.8797 412.08 78.4192 412.561 80.3436C413.042 82.268 413.234 84.8659 413.234 88.0412V113.732C413.234 116.426 413.715 118.254 414.676 119.216C415.638 120.179 417.368 120.66 419.676 120.66V122.68C418.522 122.68 416.792 122.584 414.388 122.488C411.984 122.392 409.677 122.295 407.465 122.295C405.062 122.295 402.85 122.295 400.543 122.488C398.332 122.488 396.697 122.68 395.543 122.68V120.66C397.562 120.66 399.005 120.179 399.87 119.216C400.735 118.254 401.12 116.426 401.12 113.732V84.7697C401.12 83.0377 400.928 81.4982 400.639 80.1511C400.351 78.8041 399.678 77.7456 398.716 76.8797C397.755 76.1099 396.409 75.725 394.582 75.725C392.467 75.725 390.64 76.3023 389.005 77.457C387.371 78.6116 386.121 80.1511 385.16 82.1718C384.198 84.1924 383.814 86.4054 383.814 88.9071V113.732C383.814 116.426 384.198 118.254 385.064 119.216C385.929 120.179 387.371 120.66 389.39 120.66V122.68C388.332 122.68 386.698 122.584 384.487 122.488C382.275 122.392 380.16 122.295 377.853 122.295C375.449 122.295 373.141 122.295 370.642 122.488C368.238 122.488 366.411 122.68 365.161 122.68V120.66C367.565 120.66 369.199 120.179 370.161 119.216C371.122 118.254 371.603 116.426 371.603 113.732V83.6151C371.603 80.7285 371.122 78.6116 370.257 77.2645C369.296 75.9175 367.661 75.2439 365.161 75.2439V73.2233C367.18 73.4157 369.199 73.512 371.122 73.512C373.526 73.512 375.737 73.4157 377.853 73.1271C379.968 72.9346 381.987 72.5498 383.717 72.1649V81.6907C385.352 78.0343 387.467 75.5326 390.352 74.0893C393.14 72.646 396.216 71.8762 399.485 71.8762H399.774Z" fill="#ED9FD1"/>
<path d="M446.501 71.8763C449.289 71.8763 451.789 72.4536 454.096 73.512C456.307 74.5704 457.942 76.3986 459.096 78.9965L457.942 79.9588C457.077 78.1306 455.827 76.7835 454.288 75.8213C452.75 74.8591 451.019 74.4742 449.097 74.4742C445.635 74.4742 442.943 76.3986 440.828 80.2474C438.713 84.0962 437.751 90.0618 437.751 97.9519C437.751 103.34 438.136 107.67 439.001 110.942C439.867 114.213 441.02 116.619 442.559 118.062C444.097 119.505 446.02 120.275 448.135 120.275C450.443 120.275 452.462 119.313 454.385 117.485C456.307 115.656 457.269 112.866 457.654 109.402L458.327 112.096C457.461 115.945 455.923 118.928 453.615 120.948C451.308 122.969 448.327 124.027 444.578 124.027C440.828 124.027 437.367 123.065 434.386 121.237C431.406 119.313 429.098 116.522 427.464 112.674C425.829 108.825 425.06 103.918 425.06 97.9519C425.06 91.9862 426.022 87.2715 427.944 83.4227C429.867 79.5739 432.463 76.6873 435.636 74.7629C438.905 72.8385 442.559 71.8763 446.501 71.8763ZM469.383 47.8213V112.289C469.383 115.175 469.864 117.292 470.825 118.639C471.787 119.986 473.518 120.66 475.921 120.66V122.68C473.902 122.488 471.979 122.392 469.96 122.392C467.557 122.392 465.345 122.488 463.23 122.68C461.115 122.873 459.192 123.258 457.269 123.739V59.2715C457.269 56.3849 456.788 54.268 455.923 52.9209C454.961 51.5739 453.327 50.9003 450.827 50.9003V48.8797C452.846 49.0721 454.865 49.1684 456.788 49.1684C459.192 49.1684 461.499 49.0721 463.615 48.8797C465.73 48.6873 467.653 48.3024 469.479 47.9175L469.383 47.8213Z" fill="#ED9FD1"/>
<path d="M161.333 149.911V165.691H173.543V167.615H161.333V205.718C161.333 208.027 161.717 209.663 162.582 210.625C163.448 211.588 164.601 212.069 166.14 212.069C167.678 212.069 168.928 211.491 170.178 210.433C171.428 209.375 172.485 207.45 173.447 204.852L175.177 205.622C174.216 208.797 172.774 211.299 170.755 213.416C168.736 215.436 165.948 216.495 162.294 216.495C160.083 216.495 158.256 216.206 156.814 215.725C155.275 215.148 154.025 214.378 152.968 213.416C151.526 211.973 150.66 210.241 150.18 208.124C149.699 206.007 149.507 203.409 149.507 200.041V167.808H141.046V165.883H149.507V152.605C151.814 152.605 153.929 152.316 155.948 151.931C157.967 151.546 159.794 150.969 161.621 150.103L161.333 149.911Z" fill="#ED9FD1"/>
<path d="M194.791 140.192V174.062C196.426 170.502 198.637 168 201.425 166.46C204.213 165.017 207.29 164.247 210.655 164.247C213.251 164.247 215.366 164.632 217.097 165.306C218.731 165.979 220.078 166.942 221.135 168C222.193 169.251 222.962 170.79 223.443 172.715C223.923 174.639 224.116 177.237 224.116 180.412V206.103C224.116 208.797 224.596 210.625 225.558 211.588C226.519 212.55 228.25 213.031 230.557 213.031V215.051C229.404 215.051 227.673 214.955 225.269 214.859C222.866 214.763 220.558 214.667 218.251 214.667C215.943 214.667 213.732 214.667 211.424 214.859C209.213 214.859 207.482 215.051 206.329 215.051V213.031C208.348 213.031 209.79 212.55 210.655 211.588C211.521 210.625 211.905 208.797 211.905 206.103V177.141C211.905 175.409 211.713 173.869 211.424 172.522C211.136 171.175 210.463 170.117 209.598 169.251C208.636 168.481 207.29 168.096 205.463 168.096C203.444 168.096 201.618 168.673 199.983 169.732C198.349 170.887 197.099 172.426 196.137 174.447C195.176 176.467 194.695 178.777 194.695 181.278V206.103C194.695 208.797 195.08 210.625 195.945 211.588C196.81 212.55 198.252 213.031 200.175 213.031V215.051C199.118 215.051 197.483 214.955 195.368 214.859C193.253 214.763 191.041 214.667 188.734 214.667C186.427 214.667 184.023 214.667 181.619 214.859C179.119 214.859 177.293 215.051 176.139 215.051V213.031C178.543 213.031 180.177 212.55 181.138 211.588C182.1 210.625 182.581 208.797 182.581 206.103V151.546C182.581 148.66 182.1 146.543 181.235 145.196C180.273 143.849 178.639 143.175 176.139 143.175V141.155C178.158 141.347 180.177 141.443 182.1 141.443C184.504 141.443 186.811 141.347 188.926 141.155C191.041 140.962 192.964 140.577 194.791 140.192Z" fill="#ED9FD1"/>
<path d="M258.536 164.247C264.112 164.247 268.535 165.979 271.708 169.347C274.881 172.715 276.515 178.103 276.515 185.512H244.306V183.684H265.458C265.554 180.605 265.458 177.718 264.881 175.024C264.401 172.426 263.535 170.213 262.478 168.673C261.324 167.038 259.882 166.268 258.151 166.268C255.748 166.268 253.632 167.711 251.806 170.502C249.979 173.292 248.921 178.007 248.441 184.454L248.825 185.031C248.729 185.897 248.633 186.763 248.537 187.725C248.441 188.687 248.537 189.649 248.537 190.612C248.537 195.038 249.21 198.598 250.46 201.484C251.709 204.371 253.344 206.488 255.459 207.835C257.478 209.182 259.593 209.856 261.805 209.856C263.247 209.856 264.785 209.663 266.324 209.182C267.862 208.701 269.304 207.931 270.842 206.68C272.285 205.429 273.631 203.794 274.881 201.484L276.707 202.254C276.034 204.467 274.881 206.68 273.246 208.893C271.612 211.106 269.496 212.935 266.997 214.282C264.497 215.725 261.42 216.399 258.055 216.399C253.729 216.399 249.883 215.436 246.614 213.512C243.345 211.588 240.749 208.701 238.826 204.948C236.903 201.196 236.038 196.481 236.038 190.996C236.038 185.223 236.999 180.316 238.922 176.371C240.845 172.426 243.537 169.443 246.998 167.326C250.46 165.21 254.402 164.247 258.728 164.247H258.536Z" fill="#ED9FD1"/>
</g>
<defs>
</defs>
</svg>
