<svg width="730" height="285" viewBox="0 0 730 285" fill="none" xmlns="http://www.w3.org/2000/svg">
<mask id="mask0_128_4551" style="mask-type:alpha" maskUnits="userSpaceOnUse" x="0" y="0" width="730" height="285">
<path d="M0 0H730V285H0V0Z" fill="#F8F8F8"/>
</mask>
<g mask="url(#mask0_128_4551)">
<path d="M243.334 377.353C145.864 283.344 138.42 475.622 44.6332 507.431C-25.5147 531.221 -121.91 525.619 -125.786 599.253C-130.007 680.024 -7.01836 675.382 64.9715 818.851C125.18 938.799 316.859 879.823 358.533 733.399C380.675 655.582 308.302 440.013 243.296 377.315L243.334 377.353Z" fill="url(#paint0_linear_128_4551)"/>
<g opacity="0.7">
<mask id="mask1_128_4551" style="mask-type:luminance" maskUnits="userSpaceOnUse" x="-98" y="239" width="701" height="627">
<path d="M596.222 510.539C561.456 308.285 395.411 214.89 212.405 244.896C29.3602 274.864 -152.456 394.544 -82.3468 555.894C-34.9164 665.06 100.467 611.417 221.499 776.604C376.416 988.106 644.612 791.991 596.261 510.539H596.222Z" fill="white"/>
</mask>
<g mask="url(#mask1_128_4551)">
<path d="M595.186 282.001C597.073 282.001 598.602 280.472 598.602 278.586C598.602 276.7 597.073 275.171 595.186 275.171C593.3 275.171 591.771 276.7 591.771 278.586C591.771 280.472 593.3 282.001 595.186 282.001Z" fill="#ED9FD1"/>
<path d="M578.187 282.001C580.073 282.001 581.602 280.472 581.602 278.586C581.602 276.7 580.073 275.171 578.187 275.171C576.301 275.171 574.771 276.7 574.771 278.586C574.771 280.472 576.301 282.001 578.187 282.001Z" fill="#ED9FD1"/>
<path d="M561.187 282.001C563.073 282.001 564.602 280.472 564.602 278.586C564.602 276.7 563.073 275.171 561.187 275.171C559.301 275.171 557.772 276.7 557.772 278.586C557.772 280.472 559.301 282.001 561.187 282.001Z" fill="#ED9FD1"/>
<path d="M544.187 282.001C546.073 282.001 547.603 280.472 547.603 278.586C547.603 276.7 546.073 275.171 544.187 275.171C542.301 275.171 540.772 276.7 540.772 278.586C540.772 280.472 542.301 282.001 544.187 282.001Z" fill="#ED9FD1"/>
<path d="M527.188 282.001C529.074 282.001 530.603 280.472 530.603 278.586C530.603 276.7 529.074 275.171 527.188 275.171C525.301 275.171 523.772 276.7 523.772 278.586C523.772 280.472 525.301 282.001 527.188 282.001Z" fill="#ED9FD1"/>
<path d="M510.188 282.001C512.074 282.001 513.603 280.472 513.603 278.586C513.603 276.7 512.074 275.171 510.188 275.171C508.302 275.171 506.772 276.7 506.772 278.586C506.772 280.472 508.302 282.001 510.188 282.001Z" fill="#ED9FD1"/>
<path d="M493.188 282.001C495.074 282.001 496.603 280.472 496.603 278.586C496.603 276.7 495.074 275.171 493.188 275.171C491.302 275.171 489.773 276.7 489.773 278.586C489.773 280.472 491.302 282.001 493.188 282.001Z" fill="#ED9FD1"/>
<path d="M476.188 282.001C478.074 282.001 479.604 280.472 479.604 278.586C479.604 276.7 478.074 275.171 476.188 275.171C474.302 275.171 472.773 276.7 472.773 278.586C472.773 280.472 474.302 282.001 476.188 282.001Z" fill="#ED9FD1"/>
<path d="M459.189 282.001C461.075 282.001 462.604 280.472 462.604 278.586C462.604 276.7 461.075 275.171 459.189 275.171C457.303 275.171 455.773 276.7 455.773 278.586C455.773 280.472 457.303 282.001 459.189 282.001Z" fill="#ED9FD1"/>
<path d="M442.189 282.001C444.075 282.001 445.604 280.472 445.604 278.586C445.604 276.7 444.075 275.171 442.189 275.171C440.303 275.171 438.774 276.7 438.774 278.586C438.774 280.472 440.303 282.001 442.189 282.001Z" fill="#ED9FD1"/>
<path d="M425.189 282.001C427.075 282.001 428.604 280.472 428.604 278.586C428.604 276.7 427.075 275.171 425.189 275.171C423.303 275.171 421.774 276.7 421.774 278.586C421.774 280.472 423.303 282.001 425.189 282.001Z" fill="#ED9FD1"/>
<path d="M408.189 282.001C410.076 282.001 411.605 280.472 411.605 278.586C411.605 276.7 410.076 275.171 408.189 275.171C406.303 275.171 404.774 276.7 404.774 278.586C404.774 280.472 406.303 282.001 408.189 282.001Z" fill="#ED9FD1"/>
<path d="M391.19 282.001C393.076 282.001 394.605 280.472 394.605 278.586C394.605 276.7 393.076 275.171 391.19 275.171C389.303 275.171 387.774 276.7 387.774 278.586C387.774 280.472 389.303 282.001 391.19 282.001Z" fill="#ED9FD1"/>
<path d="M374.228 282.001C376.114 282.001 377.644 280.472 377.644 278.586C377.644 276.7 376.114 275.171 374.228 275.171C372.342 275.171 370.813 276.7 370.813 278.586C370.813 280.472 372.342 282.001 374.228 282.001Z" fill="#ED9FD1"/>
<path d="M357.229 282.001C359.115 282.001 360.644 280.472 360.644 278.586C360.644 276.7 359.115 275.171 357.229 275.171C355.342 275.171 353.813 276.7 353.813 278.586C353.813 280.472 355.342 282.001 357.229 282.001Z" fill="#ED9FD1"/>
<path d="M340.229 282.001C342.115 282.001 343.644 280.472 343.644 278.586C343.644 276.7 342.115 275.171 340.229 275.171C338.343 275.171 336.813 276.7 336.813 278.586C336.813 280.472 338.343 282.001 340.229 282.001Z" fill="#ED9FD1"/>
<path d="M323.229 282.001C325.115 282.001 326.645 280.472 326.645 278.586C326.645 276.7 325.115 275.171 323.229 275.171C321.343 275.171 319.814 276.7 319.814 278.586C319.814 280.472 321.343 282.001 323.229 282.001Z" fill="#ED9FD1"/>
<path d="M306.23 282.001C308.116 282.001 309.645 280.472 309.645 278.586C309.645 276.7 308.116 275.171 306.23 275.171C304.343 275.171 302.814 276.7 302.814 278.586C302.814 280.472 304.343 282.001 306.23 282.001Z" fill="#ED9FD1"/>
<path d="M289.23 282.001C291.116 282.001 292.645 280.472 292.645 278.586C292.645 276.7 291.116 275.171 289.23 275.171C287.344 275.171 285.814 276.7 285.814 278.586C285.814 280.472 287.344 282.001 289.23 282.001Z" fill="#ED9FD1"/>
<path d="M272.23 282.001C274.116 282.001 275.645 280.472 275.645 278.586C275.645 276.7 274.116 275.171 272.23 275.171C270.344 275.171 268.815 276.7 268.815 278.586C268.815 280.472 270.344 282.001 272.23 282.001Z" fill="#ED9FD1"/>
<path d="M255.23 282.001C257.116 282.001 258.646 280.472 258.646 278.586C258.646 276.7 257.116 275.171 255.23 275.171C253.344 275.171 251.815 276.7 251.815 278.586C251.815 280.472 253.344 282.001 255.23 282.001Z" fill="#ED9FD1"/>
<path d="M238.23 282.001C240.117 282.001 241.646 280.472 241.646 278.586C241.646 276.7 240.117 275.171 238.23 275.171C236.344 275.171 234.815 276.7 234.815 278.586C234.815 280.472 236.344 282.001 238.23 282.001Z" fill="#ED9FD1"/>
<path d="M221.231 282.001C223.117 282.001 224.646 280.472 224.646 278.586C224.646 276.7 223.117 275.171 221.231 275.171C219.345 275.171 217.815 276.7 217.815 278.586C217.815 280.472 219.345 282.001 221.231 282.001Z" fill="#ED9FD1"/>
<path d="M204.231 282.001C206.117 282.001 207.647 280.472 207.647 278.586C207.647 276.7 206.117 275.171 204.231 275.171C202.345 275.171 200.816 276.7 200.816 278.586C200.816 280.472 202.345 282.001 204.231 282.001Z" fill="#ED9FD1"/>
<path d="M187.231 282.001C189.117 282.001 190.647 280.472 190.647 278.586C190.647 276.7 189.117 275.171 187.231 275.171C185.345 275.171 183.816 276.7 183.816 278.586C183.816 280.472 185.345 282.001 187.231 282.001Z" fill="#ED9FD1"/>
<path d="M170.232 282.001C172.118 282.001 173.647 280.472 173.647 278.586C173.647 276.7 172.118 275.171 170.232 275.171C168.345 275.171 166.816 276.7 166.816 278.586C166.816 280.472 168.345 282.001 170.232 282.001Z" fill="#ED9FD1"/>
<path d="M153.232 282.001C155.118 282.001 156.647 280.472 156.647 278.586C156.647 276.7 155.118 275.171 153.232 275.171C151.346 275.171 149.817 276.7 149.817 278.586C149.817 280.472 151.346 282.001 153.232 282.001Z" fill="#ED9FD1"/>
<path d="M136.271 282.001C138.157 282.001 139.686 280.472 139.686 278.586C139.686 276.7 138.157 275.171 136.271 275.171C134.384 275.171 132.855 276.7 132.855 278.586C132.855 280.472 134.384 282.001 136.271 282.001Z" fill="#ED9FD1"/>
<path d="M119.271 282.001C121.157 282.001 122.686 280.472 122.686 278.586C122.686 276.7 121.157 275.171 119.271 275.171C117.385 275.171 115.855 276.7 115.855 278.586C115.855 280.472 117.385 282.001 119.271 282.001Z" fill="#ED9FD1"/>
<path d="M102.271 282.001C104.157 282.001 105.686 280.472 105.686 278.586C105.686 276.7 104.157 275.171 102.271 275.171C100.385 275.171 98.8557 276.7 98.8557 278.586C98.8557 280.472 100.385 282.001 102.271 282.001Z" fill="#ED9FD1"/>
<path d="M85.2712 282.001C87.1575 282.001 88.6865 280.472 88.6865 278.586C88.6865 276.7 87.1575 275.171 85.2712 275.171C83.385 275.171 81.856 276.7 81.856 278.586C81.856 280.472 83.385 282.001 85.2712 282.001Z" fill="#ED9FD1"/>
<path d="M68.2718 282.001C70.158 282.001 71.687 280.472 71.687 278.586C71.687 276.7 70.158 275.171 68.2718 275.171C66.3855 275.171 64.8564 276.7 64.8564 278.586C64.8564 280.472 66.3855 282.001 68.2718 282.001Z" fill="#ED9FD1"/>
<path d="M51.272 282.001C53.1582 282.001 54.6873 280.472 54.6873 278.586C54.6873 276.7 53.1582 275.171 51.272 275.171C49.3858 275.171 47.8567 276.7 47.8567 278.586C47.8567 280.472 49.3858 282.001 51.272 282.001Z" fill="#ED9FD1"/>
<path d="M34.2722 282.001C36.1584 282.001 37.6875 280.472 37.6875 278.586C37.6875 276.7 36.1584 275.171 34.2722 275.171C32.386 275.171 30.8569 276.7 30.8569 278.586C30.8569 280.472 32.386 282.001 34.2722 282.001Z" fill="#ED9FD1"/>
<path d="M17.2725 282.001C19.1587 282.001 20.6878 280.472 20.6878 278.586C20.6878 276.7 19.1587 275.171 17.2725 275.171C15.3863 275.171 13.8572 276.7 13.8572 278.586C13.8572 280.472 15.3863 282.001 17.2725 282.001Z" fill="#ED9FD1"/>
<path d="M0.272715 282.001C2.15893 282.001 3.68801 280.472 3.68801 278.586C3.68801 276.7 2.15893 275.171 0.272715 275.171C-1.6135 275.171 -3.14258 276.7 -3.14258 278.586C-3.14258 280.472 -1.6135 282.001 0.272715 282.001Z" fill="#ED9FD1"/>
<path d="M604.358 269.607C606.244 269.607 607.773 268.078 607.773 266.192C607.773 264.306 606.244 262.777 604.358 262.777C602.472 262.777 600.943 264.306 600.943 266.192C600.943 268.078 602.472 269.607 604.358 269.607Z" fill="#ED9FD1"/>
<path d="M587.358 269.607C589.244 269.607 590.773 268.078 590.773 266.192C590.773 264.306 589.244 262.777 587.358 262.777C585.472 262.777 583.943 264.306 583.943 266.192C583.943 268.078 585.472 269.607 587.358 269.607Z" fill="#ED9FD1"/>
<path d="M570.358 269.607C572.245 269.607 573.774 268.078 573.774 266.192C573.774 264.306 572.245 262.777 570.358 262.777C568.472 262.777 566.943 264.306 566.943 266.192C566.943 268.078 568.472 269.607 570.358 269.607Z" fill="#ED9FD1"/>
<path d="M553.359 269.607C555.245 269.607 556.774 268.078 556.774 266.192C556.774 264.306 555.245 262.777 553.359 262.777C551.472 262.777 549.943 264.306 549.943 266.192C549.943 268.078 551.472 269.607 553.359 269.607Z" fill="#ED9FD1"/>
<path d="M536.397 269.607C538.283 269.607 539.813 268.078 539.813 266.192C539.813 264.306 538.283 262.777 536.397 262.777C534.511 262.777 532.982 264.306 532.982 266.192C532.982 268.078 534.511 269.607 536.397 269.607Z" fill="#ED9FD1"/>
<path d="M519.398 269.607C521.284 269.607 522.813 268.078 522.813 266.192C522.813 264.306 521.284 262.777 519.398 262.777C517.511 262.777 515.982 264.306 515.982 266.192C515.982 268.078 517.511 269.607 519.398 269.607Z" fill="#ED9FD1"/>
<path d="M502.398 269.607C504.284 269.607 505.813 268.078 505.813 266.192C505.813 264.306 504.284 262.777 502.398 262.777C500.512 262.777 498.983 264.306 498.983 266.192C498.983 268.078 500.512 269.607 502.398 269.607Z" fill="#ED9FD1"/>
<path d="M485.398 269.607C487.284 269.607 488.813 268.078 488.813 266.192C488.813 264.306 487.284 262.777 485.398 262.777C483.512 262.777 481.983 264.306 481.983 266.192C481.983 268.078 483.512 269.607 485.398 269.607Z" fill="#ED9FD1"/>
<path d="M468.398 269.607C470.285 269.607 471.814 268.078 471.814 266.192C471.814 264.306 470.285 262.777 468.398 262.777C466.512 262.777 464.983 264.306 464.983 266.192C464.983 268.078 466.512 269.607 468.398 269.607Z" fill="#ED9FD1"/>
<path d="M451.399 269.607C453.285 269.607 454.814 268.078 454.814 266.192C454.814 264.306 453.285 262.777 451.399 262.777C449.512 262.777 447.983 264.306 447.983 266.192C447.983 268.078 449.512 269.607 451.399 269.607Z" fill="#ED9FD1"/>
<path d="M434.399 269.607C436.285 269.607 437.814 268.078 437.814 266.192C437.814 264.306 436.285 262.777 434.399 262.777C432.513 262.777 430.984 264.306 430.984 266.192C430.984 268.078 432.513 269.607 434.399 269.607Z" fill="#ED9FD1"/>
<path d="M417.399 269.607C419.285 269.607 420.814 268.078 420.814 266.192C420.814 264.306 419.285 262.777 417.399 262.777C415.513 262.777 413.984 264.306 413.984 266.192C413.984 268.078 415.513 269.607 417.399 269.607Z" fill="#ED9FD1"/>
<path d="M400.4 269.607C402.286 269.607 403.815 268.078 403.815 266.192C403.815 264.306 402.286 262.777 400.4 262.777C398.513 262.777 396.984 264.306 396.984 266.192C396.984 268.078 398.513 269.607 400.4 269.607Z" fill="#ED9FD1"/>
<path d="M383.4 269.607C385.286 269.607 386.815 268.078 386.815 266.192C386.815 264.306 385.286 262.777 383.4 262.777C381.513 262.777 379.984 264.306 379.984 266.192C379.984 268.078 381.513 269.607 383.4 269.607Z" fill="#ED9FD1"/>
<path d="M366.4 269.607C368.286 269.607 369.815 268.078 369.815 266.192C369.815 264.306 368.286 262.777 366.4 262.777C364.514 262.777 362.985 264.306 362.985 266.192C362.985 268.078 364.514 269.607 366.4 269.607Z" fill="#ED9FD1"/>
<path d="M349.4 269.607C351.286 269.607 352.816 268.078 352.816 266.192C352.816 264.306 351.286 262.777 349.4 262.777C347.514 262.777 345.985 264.306 345.985 266.192C345.985 268.078 347.514 269.607 349.4 269.607Z" fill="#ED9FD1"/>
<path d="M332.401 269.607C334.287 269.607 335.816 268.078 335.816 266.192C335.816 264.306 334.287 262.777 332.401 262.777C330.514 262.777 328.985 264.306 328.985 266.192C328.985 268.078 330.514 269.607 332.401 269.607Z" fill="#ED9FD1"/>
<path d="M315.401 269.607C317.287 269.607 318.816 268.078 318.816 266.192C318.816 264.306 317.287 262.777 315.401 262.777C313.515 262.777 311.986 264.306 311.986 266.192C311.986 268.078 313.515 269.607 315.401 269.607Z" fill="#ED9FD1"/>
<path d="M298.401 269.607C300.287 269.607 301.816 268.078 301.816 266.192C301.816 264.306 300.287 262.777 298.401 262.777C296.515 262.777 294.986 264.306 294.986 266.192C294.986 268.078 296.515 269.607 298.401 269.607Z" fill="#ED9FD1"/>
<path d="M281.44 269.607C283.326 269.607 284.855 268.078 284.855 266.192C284.855 264.306 283.326 262.777 281.44 262.777C279.553 262.777 278.024 264.306 278.024 266.192C278.024 268.078 279.553 269.607 281.44 269.607Z" fill="#ED9FD1"/>
<path d="M264.44 269.607C266.326 269.607 267.855 268.078 267.855 266.192C267.855 264.306 266.326 262.777 264.44 262.777C262.554 262.777 261.025 264.306 261.025 266.192C261.025 268.078 262.554 269.607 264.44 269.607Z" fill="#ED9FD1"/>
<path d="M247.44 269.607C249.326 269.607 250.855 268.078 250.855 266.192C250.855 264.306 249.326 262.777 247.44 262.777C245.554 262.777 244.025 264.306 244.025 266.192C244.025 268.078 245.554 269.607 247.44 269.607Z" fill="#ED9FD1"/>
<path d="M230.441 269.607C232.327 269.607 233.856 268.078 233.856 266.192C233.856 264.306 232.327 262.777 230.441 262.777C228.554 262.777 227.025 264.306 227.025 266.192C227.025 268.078 228.554 269.607 230.441 269.607Z" fill="#ED9FD1"/>
<path d="M213.441 269.607C215.327 269.607 216.856 268.078 216.856 266.192C216.856 264.306 215.327 262.777 213.441 262.777C211.555 262.777 210.026 264.306 210.026 266.192C210.026 268.078 211.555 269.607 213.441 269.607Z" fill="#ED9FD1"/>
<path d="M196.441 269.607C198.327 269.607 199.856 268.078 199.856 266.192C199.856 264.306 198.327 262.777 196.441 262.777C194.555 262.777 193.026 264.306 193.026 266.192C193.026 268.078 194.555 269.607 196.441 269.607Z" fill="#ED9FD1"/>
<path d="M179.441 269.607C181.328 269.607 182.857 268.078 182.857 266.192C182.857 264.306 181.328 262.777 179.441 262.777C177.555 262.777 176.026 264.306 176.026 266.192C176.026 268.078 177.555 269.607 179.441 269.607Z" fill="#ED9FD1"/>
<path d="M162.442 269.607C164.328 269.607 165.857 268.078 165.857 266.192C165.857 264.306 164.328 262.777 162.442 262.777C160.555 262.777 159.026 264.306 159.026 266.192C159.026 268.078 160.555 269.607 162.442 269.607Z" fill="#ED9FD1"/>
<path d="M145.442 269.607C147.328 269.607 148.857 268.078 148.857 266.192C148.857 264.306 147.328 262.777 145.442 262.777C143.556 262.777 142.027 264.306 142.027 266.192C142.027 268.078 143.556 269.607 145.442 269.607Z" fill="#ED9FD1"/>
<path d="M128.442 269.607C130.328 269.607 131.857 268.078 131.857 266.192C131.857 264.306 130.328 262.777 128.442 262.777C126.556 262.777 125.027 264.306 125.027 266.192C125.027 268.078 126.556 269.607 128.442 269.607Z" fill="#ED9FD1"/>
<path d="M111.443 269.607C113.329 269.607 114.858 268.078 114.858 266.192C114.858 264.306 113.329 262.777 111.443 262.777C109.556 262.777 108.027 264.306 108.027 266.192C108.027 268.078 109.556 269.607 111.443 269.607Z" fill="#ED9FD1"/>
<path d="M94.4429 269.607C96.3291 269.607 97.8582 268.078 97.8582 266.192C97.8582 264.306 96.3291 262.777 94.4429 262.777C92.5567 262.777 91.0276 264.306 91.0276 266.192C91.0276 268.078 92.5567 269.607 94.4429 269.607Z" fill="#ED9FD1"/>
<path d="M77.4431 269.607C79.3293 269.607 80.8584 268.078 80.8584 266.192C80.8584 264.306 79.3293 262.777 77.4431 262.777C75.5569 262.777 74.0278 264.306 74.0278 266.192C74.0278 268.078 75.5569 269.607 77.4431 269.607Z" fill="#ED9FD1"/>
<path d="M60.4434 269.607C62.3296 269.607 63.8587 268.078 63.8587 266.192C63.8587 264.306 62.3296 262.777 60.4434 262.777C58.5572 262.777 57.0281 264.306 57.0281 266.192C57.0281 268.078 58.5572 269.607 60.4434 269.607Z" fill="#ED9FD1"/>
<path d="M43.4436 269.607C45.3298 269.607 46.8589 268.078 46.8589 266.192C46.8589 264.306 45.3298 262.777 43.4436 262.777C41.5574 262.777 40.0283 264.306 40.0283 266.192C40.0283 268.078 41.5574 269.607 43.4436 269.607Z" fill="#ED9FD1"/>
<path d="M26.4822 269.607C28.3684 269.607 29.8975 268.078 29.8975 266.192C29.8975 264.306 28.3684 262.777 26.4822 262.777C24.596 262.777 23.0669 264.306 23.0669 266.192C23.0669 268.078 24.596 269.607 26.4822 269.607Z" fill="#ED9FD1"/>
<path d="M9.48245 269.607C11.3687 269.607 12.8977 268.078 12.8977 266.192C12.8977 264.306 11.3687 262.777 9.48245 262.777C7.59623 262.777 6.06714 264.306 6.06714 266.192C6.06714 268.078 7.59623 269.607 9.48245 269.607Z" fill="#ED9FD1"/>
<path d="M595.801 257.52C597.687 257.52 599.216 255.992 599.216 254.105C599.216 252.219 597.687 250.69 595.801 250.69C593.914 250.69 592.385 252.219 592.385 254.105C592.385 255.992 593.914 257.52 595.801 257.52Z" fill="#ED9FD1"/>
<path d="M578.801 257.52C580.687 257.52 582.216 255.992 582.216 254.105C582.216 252.219 580.687 250.69 578.801 250.69C576.915 250.69 575.385 252.219 575.385 254.105C575.385 255.992 576.915 257.52 578.801 257.52Z" fill="#ED9FD1"/>
<path d="M561.801 257.52C563.687 257.52 565.216 255.992 565.216 254.105C565.216 252.219 563.687 250.69 561.801 250.69C559.915 250.69 558.386 252.219 558.386 254.105C558.386 255.992 559.915 257.52 561.801 257.52Z" fill="#ED9FD1"/>
<path d="M544.801 257.52C546.687 257.52 548.217 255.992 548.217 254.105C548.217 252.219 546.687 250.69 544.801 250.69C542.915 250.69 541.386 252.219 541.386 254.105C541.386 255.992 542.915 257.52 544.801 257.52Z" fill="#ED9FD1"/>
<path d="M527.802 257.52C529.688 257.52 531.217 255.992 531.217 254.105C531.217 252.219 529.688 250.69 527.802 250.69C525.915 250.69 524.386 252.219 524.386 254.105C524.386 255.992 525.915 257.52 527.802 257.52Z" fill="#ED9FD1"/>
<path d="M510.802 257.52C512.688 257.52 514.217 255.992 514.217 254.105C514.217 252.219 512.688 250.69 510.802 250.69C508.916 250.69 507.387 252.219 507.387 254.105C507.387 255.992 508.916 257.52 510.802 257.52Z" fill="#ED9FD1"/>
<path d="M493.802 257.52C495.688 257.52 497.217 255.992 497.217 254.105C497.217 252.219 495.688 250.69 493.802 250.69C491.916 250.69 490.387 252.219 490.387 254.105C490.387 255.992 491.916 257.52 493.802 257.52Z" fill="#ED9FD1"/>
<path d="M476.802 257.52C478.689 257.52 480.218 255.992 480.218 254.105C480.218 252.219 478.689 250.69 476.802 250.69C474.916 250.69 473.387 252.219 473.387 254.105C473.387 255.992 474.916 257.52 476.802 257.52Z" fill="#ED9FD1"/>
<path d="M459.841 257.52C461.727 257.52 463.256 255.992 463.256 254.105C463.256 252.219 461.727 250.69 459.841 250.69C457.955 250.69 456.426 252.219 456.426 254.105C456.426 255.992 457.955 257.52 459.841 257.52Z" fill="#ED9FD1"/>
<path d="M442.841 257.52C444.728 257.52 446.257 255.992 446.257 254.105C446.257 252.219 444.728 250.69 442.841 250.69C440.955 250.69 439.426 252.219 439.426 254.105C439.426 255.992 440.955 257.52 442.841 257.52Z" fill="#ED9FD1"/>
<path d="M425.842 257.52C427.728 257.52 429.257 255.992 429.257 254.105C429.257 252.219 427.728 250.69 425.842 250.69C423.955 250.69 422.426 252.219 422.426 254.105C422.426 255.992 423.955 257.52 425.842 257.52Z" fill="#ED9FD1"/>
<path d="M408.842 257.52C410.728 257.52 412.257 255.992 412.257 254.105C412.257 252.219 410.728 250.69 408.842 250.69C406.956 250.69 405.427 252.219 405.427 254.105C405.427 255.992 406.956 257.52 408.842 257.52Z" fill="#ED9FD1"/>
<path d="M391.842 257.52C393.728 257.52 395.257 255.992 395.257 254.105C395.257 252.219 393.728 250.69 391.842 250.69C389.956 250.69 388.427 252.219 388.427 254.105C388.427 255.992 389.956 257.52 391.842 257.52Z" fill="#ED9FD1"/>
<path d="M374.842 257.52C376.729 257.52 378.258 255.992 378.258 254.105C378.258 252.219 376.729 250.69 374.842 250.69C372.956 250.69 371.427 252.219 371.427 254.105C371.427 255.992 372.956 257.52 374.842 257.52Z" fill="#ED9FD1"/>
<path d="M357.843 257.52C359.729 257.52 361.258 255.992 361.258 254.105C361.258 252.219 359.729 250.69 357.843 250.69C355.956 250.69 354.427 252.219 354.427 254.105C354.427 255.992 355.956 257.52 357.843 257.52Z" fill="#ED9FD1"/>
<path d="M340.843 257.52C342.729 257.52 344.258 255.992 344.258 254.105C344.258 252.219 342.729 250.69 340.843 250.69C338.957 250.69 337.428 252.219 337.428 254.105C337.428 255.992 338.957 257.52 340.843 257.52Z" fill="#ED9FD1"/>
<path d="M323.843 257.52C325.729 257.52 327.258 255.992 327.258 254.105C327.258 252.219 325.729 250.69 323.843 250.69C321.957 250.69 320.428 252.219 320.428 254.105C320.428 255.992 321.957 257.52 323.843 257.52Z" fill="#ED9FD1"/>
<path d="M306.844 257.52C308.73 257.52 310.259 255.992 310.259 254.105C310.259 252.219 308.73 250.69 306.844 250.69C304.957 250.69 303.428 252.219 303.428 254.105C303.428 255.992 304.957 257.52 306.844 257.52Z" fill="#ED9FD1"/>
<path d="M289.844 257.52C291.73 257.52 293.259 255.992 293.259 254.105C293.259 252.219 291.73 250.69 289.844 250.69C287.958 250.69 286.428 252.219 286.428 254.105C286.428 255.992 287.958 257.52 289.844 257.52Z" fill="#ED9FD1"/>
<path d="M272.844 257.52C274.73 257.52 276.259 255.992 276.259 254.105C276.259 252.219 274.73 250.69 272.844 250.69C270.958 250.69 269.429 252.219 269.429 254.105C269.429 255.992 270.958 257.52 272.844 257.52Z" fill="#ED9FD1"/>
<path d="M255.844 257.52C257.73 257.52 259.26 255.992 259.26 254.105C259.26 252.219 257.73 250.69 255.844 250.69C253.958 250.69 252.429 252.219 252.429 254.105C252.429 255.992 253.958 257.52 255.844 257.52Z" fill="#ED9FD1"/>
<path d="M238.844 257.52C240.731 257.52 242.26 255.992 242.26 254.105C242.26 252.219 240.731 250.69 238.844 250.69C236.958 250.69 235.429 252.219 235.429 254.105C235.429 255.992 236.958 257.52 238.844 257.52Z" fill="#ED9FD1"/>
<path d="M221.845 257.52C223.731 257.52 225.26 255.992 225.26 254.105C225.26 252.219 223.731 250.69 221.845 250.69C219.959 250.69 218.429 252.219 218.429 254.105C218.429 255.992 219.959 257.52 221.845 257.52Z" fill="#ED9FD1"/>
<path d="M204.883 257.52C206.77 257.52 208.299 255.992 208.299 254.105C208.299 252.219 206.77 250.69 204.883 250.69C202.997 250.69 201.468 252.219 201.468 254.105C201.468 255.992 202.997 257.52 204.883 257.52Z" fill="#ED9FD1"/>
<path d="M187.884 257.52C189.77 257.52 191.299 255.992 191.299 254.105C191.299 252.219 189.77 250.69 187.884 250.69C185.998 250.69 184.469 252.219 184.469 254.105C184.469 255.992 185.998 257.52 187.884 257.52Z" fill="#ED9FD1"/>
<path d="M170.884 257.52C172.77 257.52 174.299 255.992 174.299 254.105C174.299 252.219 172.77 250.69 170.884 250.69C168.998 250.69 167.469 252.219 167.469 254.105C167.469 255.992 168.998 257.52 170.884 257.52Z" fill="#ED9FD1"/>
<path d="M153.884 257.52C155.771 257.52 157.3 255.992 157.3 254.105C157.3 252.219 155.771 250.69 153.884 250.69C151.998 250.69 150.469 252.219 150.469 254.105C150.469 255.992 151.998 257.52 153.884 257.52Z" fill="#ED9FD1"/>
<path d="M136.885 257.52C138.771 257.52 140.3 255.992 140.3 254.105C140.3 252.219 138.771 250.69 136.885 250.69C134.998 250.69 133.469 252.219 133.469 254.105C133.469 255.992 134.998 257.52 136.885 257.52Z" fill="#ED9FD1"/>
<path d="M119.885 257.52C121.771 257.52 123.3 255.992 123.3 254.105C123.3 252.219 121.771 250.69 119.885 250.69C117.999 250.69 116.469 252.219 116.469 254.105C116.469 255.992 117.999 257.52 119.885 257.52Z" fill="#ED9FD1"/>
<path d="M102.885 257.52C104.771 257.52 106.3 255.992 106.3 254.105C106.3 252.219 104.771 250.69 102.885 250.69C100.999 250.69 99.4697 252.219 99.4697 254.105C99.4697 255.992 100.999 257.52 102.885 257.52Z" fill="#ED9FD1"/>
<path d="M85.8853 257.52C87.7715 257.52 89.3006 255.992 89.3006 254.105C89.3006 252.219 87.7715 250.69 85.8853 250.69C83.999 250.69 82.47 252.219 82.47 254.105C82.47 255.992 83.999 257.52 85.8853 257.52Z" fill="#ED9FD1"/>
<path d="M68.8855 257.52C70.7717 257.52 72.3008 255.992 72.3008 254.105C72.3008 252.219 70.7717 250.69 68.8855 250.69C66.9993 250.69 65.4702 252.219 65.4702 254.105C65.4702 255.992 66.9993 257.52 68.8855 257.52Z" fill="#ED9FD1"/>
<path d="M51.886 257.52C53.7722 257.52 55.3013 255.992 55.3013 254.105C55.3013 252.219 53.7722 250.69 51.886 250.69C49.9998 250.69 48.4707 252.219 48.4707 254.105C48.4707 255.992 49.9998 257.52 51.886 257.52Z" fill="#ED9FD1"/>
<path d="M34.8862 257.52C36.7725 257.52 38.3015 255.992 38.3015 254.105C38.3015 252.219 36.7725 250.69 34.8862 250.69C33 250.69 31.4709 252.219 31.4709 254.105C31.4709 255.992 33 257.52 34.8862 257.52Z" fill="#ED9FD1"/>
<path d="M17.8865 257.52C19.7727 257.52 21.3018 255.992 21.3018 254.105C21.3018 252.219 19.7727 250.69 17.8865 250.69C16.0003 250.69 14.4712 252.219 14.4712 254.105C14.4712 255.992 16.0003 257.52 17.8865 257.52Z" fill="#ED9FD1"/>
<path d="M0.886728 257.52C2.77294 257.52 4.30202 255.992 4.30202 254.105C4.30202 252.219 2.77294 250.69 0.886728 250.69C-0.999487 250.69 -2.52856 252.219 -2.52856 254.105C-2.52856 255.992 -0.999487 257.52 0.886728 257.52Z" fill="#ED9FD1"/>
<path d="M604.358 245.127C606.244 245.127 607.773 243.598 607.773 241.712C607.773 239.826 606.244 238.297 604.358 238.297C602.472 238.297 600.943 239.826 600.943 241.712C600.943 243.598 602.472 245.127 604.358 245.127Z" fill="#ED9FD1"/>
<path d="M587.358 245.127C589.244 245.127 590.773 243.598 590.773 241.712C590.773 239.826 589.244 238.297 587.358 238.297C585.472 238.297 583.943 239.826 583.943 241.712C583.943 243.598 585.472 245.127 587.358 245.127Z" fill="#ED9FD1"/>
<path d="M570.358 245.127C572.245 245.127 573.774 243.598 573.774 241.712C573.774 239.826 572.245 238.297 570.358 238.297C568.472 238.297 566.943 239.826 566.943 241.712C566.943 243.598 568.472 245.127 570.358 245.127Z" fill="#ED9FD1"/>
<path d="M553.359 245.127C555.245 245.127 556.774 243.598 556.774 241.712C556.774 239.826 555.245 238.297 553.359 238.297C551.472 238.297 549.943 239.826 549.943 241.712C549.943 243.598 551.472 245.127 553.359 245.127Z" fill="#ED9FD1"/>
<path d="M536.397 245.127C538.283 245.127 539.813 243.598 539.813 241.712C539.813 239.826 538.283 238.297 536.397 238.297C534.511 238.297 532.982 239.826 532.982 241.712C532.982 243.598 534.511 245.127 536.397 245.127Z" fill="#ED9FD1"/>
<path d="M519.398 245.127C521.284 245.127 522.813 243.598 522.813 241.712C522.813 239.826 521.284 238.297 519.398 238.297C517.511 238.297 515.982 239.826 515.982 241.712C515.982 243.598 517.511 245.127 519.398 245.127Z" fill="#ED9FD1"/>
<path d="M502.398 245.127C504.284 245.127 505.813 243.598 505.813 241.712C505.813 239.826 504.284 238.297 502.398 238.297C500.512 238.297 498.983 239.826 498.983 241.712C498.983 243.598 500.512 245.127 502.398 245.127Z" fill="#ED9FD1"/>
<path d="M485.398 245.127C487.284 245.127 488.813 243.598 488.813 241.712C488.813 239.826 487.284 238.297 485.398 238.297C483.512 238.297 481.983 239.826 481.983 241.712C481.983 243.598 483.512 245.127 485.398 245.127Z" fill="#ED9FD1"/>
<path d="M468.398 245.127C470.285 245.127 471.814 243.598 471.814 241.712C471.814 239.826 470.285 238.297 468.398 238.297C466.512 238.297 464.983 239.826 464.983 241.712C464.983 243.598 466.512 245.127 468.398 245.127Z" fill="#ED9FD1"/>
<path d="M451.399 245.127C453.285 245.127 454.814 243.598 454.814 241.712C454.814 239.826 453.285 238.297 451.399 238.297C449.512 238.297 447.983 239.826 447.983 241.712C447.983 243.598 449.512 245.127 451.399 245.127Z" fill="#ED9FD1"/>
<path d="M434.399 245.127C436.285 245.127 437.814 243.598 437.814 241.712C437.814 239.826 436.285 238.297 434.399 238.297C432.513 238.297 430.984 239.826 430.984 241.712C430.984 243.598 432.513 245.127 434.399 245.127Z" fill="#ED9FD1"/>
<path d="M417.399 245.127C419.285 245.127 420.814 243.598 420.814 241.712C420.814 239.826 419.285 238.297 417.399 238.297C415.513 238.297 413.984 239.826 413.984 241.712C413.984 243.598 415.513 245.127 417.399 245.127Z" fill="#ED9FD1"/>
<path d="M400.4 245.127C402.286 245.127 403.815 243.598 403.815 241.712C403.815 239.826 402.286 238.297 400.4 238.297C398.513 238.297 396.984 239.826 396.984 241.712C396.984 243.598 398.513 245.127 400.4 245.127Z" fill="#ED9FD1"/>
<path d="M383.4 245.127C385.286 245.127 386.815 243.598 386.815 241.712C386.815 239.826 385.286 238.297 383.4 238.297C381.513 238.297 379.984 239.826 379.984 241.712C379.984 243.598 381.513 245.127 383.4 245.127Z" fill="#ED9FD1"/>
<path d="M366.4 245.127C368.286 245.127 369.815 243.598 369.815 241.712C369.815 239.826 368.286 238.297 366.4 238.297C364.514 238.297 362.985 239.826 362.985 241.712C362.985 243.598 364.514 245.127 366.4 245.127Z" fill="#ED9FD1"/>
<path d="M349.4 245.127C351.286 245.127 352.816 243.598 352.816 241.712C352.816 239.826 351.286 238.297 349.4 238.297C347.514 238.297 345.985 239.826 345.985 241.712C345.985 243.598 347.514 245.127 349.4 245.127Z" fill="#ED9FD1"/>
<path d="M332.401 245.127C334.287 245.127 335.816 243.598 335.816 241.712C335.816 239.826 334.287 238.297 332.401 238.297C330.514 238.297 328.985 239.826 328.985 241.712C328.985 243.598 330.514 245.127 332.401 245.127Z" fill="#ED9FD1"/>
<path d="M315.401 245.127C317.287 245.127 318.816 243.598 318.816 241.712C318.816 239.826 317.287 238.297 315.401 238.297C313.515 238.297 311.986 239.826 311.986 241.712C311.986 243.598 313.515 245.127 315.401 245.127Z" fill="#ED9FD1"/>
<path d="M298.401 245.127C300.287 245.127 301.816 243.598 301.816 241.712C301.816 239.826 300.287 238.297 298.401 238.297C296.515 238.297 294.986 239.826 294.986 241.712C294.986 243.598 296.515 245.127 298.401 245.127Z" fill="#ED9FD1"/>
<path d="M281.44 245.127C283.326 245.127 284.855 243.598 284.855 241.712C284.855 239.826 283.326 238.297 281.44 238.297C279.553 238.297 278.024 239.826 278.024 241.712C278.024 243.598 279.553 245.127 281.44 245.127Z" fill="#ED9FD1"/>
<path d="M264.44 245.127C266.326 245.127 267.855 243.598 267.855 241.712C267.855 239.826 266.326 238.297 264.44 238.297C262.554 238.297 261.025 239.826 261.025 241.712C261.025 243.598 262.554 245.127 264.44 245.127Z" fill="#ED9FD1"/>
<path d="M247.44 245.127C249.326 245.127 250.855 243.598 250.855 241.712C250.855 239.826 249.326 238.297 247.44 238.297C245.554 238.297 244.025 239.826 244.025 241.712C244.025 243.598 245.554 245.127 247.44 245.127Z" fill="#ED9FD1"/>
<path d="M230.441 245.127C232.327 245.127 233.856 243.598 233.856 241.712C233.856 239.826 232.327 238.297 230.441 238.297C228.554 238.297 227.025 239.826 227.025 241.712C227.025 243.598 228.554 245.127 230.441 245.127Z" fill="#ED9FD1"/>
<path d="M213.441 245.127C215.327 245.127 216.856 243.598 216.856 241.712C216.856 239.826 215.327 238.297 213.441 238.297C211.555 238.297 210.026 239.826 210.026 241.712C210.026 243.598 211.555 245.127 213.441 245.127Z" fill="#ED9FD1"/>
<path d="M196.441 245.127C198.327 245.127 199.856 243.598 199.856 241.712C199.856 239.826 198.327 238.297 196.441 238.297C194.555 238.297 193.026 239.826 193.026 241.712C193.026 243.598 194.555 245.127 196.441 245.127Z" fill="#ED9FD1"/>
<path d="M179.441 245.127C181.328 245.127 182.857 243.598 182.857 241.712C182.857 239.826 181.328 238.297 179.441 238.297C177.555 238.297 176.026 239.826 176.026 241.712C176.026 243.598 177.555 245.127 179.441 245.127Z" fill="#ED9FD1"/>
<path d="M162.442 245.127C164.328 245.127 165.857 243.598 165.857 241.712C165.857 239.826 164.328 238.297 162.442 238.297C160.555 238.297 159.026 239.826 159.026 241.712C159.026 243.598 160.555 245.127 162.442 245.127Z" fill="#ED9FD1"/>
<path d="M145.442 245.127C147.328 245.127 148.857 243.598 148.857 241.712C148.857 239.826 147.328 238.297 145.442 238.297C143.556 238.297 142.027 239.826 142.027 241.712C142.027 243.598 143.556 245.127 145.442 245.127Z" fill="#ED9FD1"/>
<path d="M128.442 245.127C130.328 245.127 131.857 243.598 131.857 241.712C131.857 239.826 130.328 238.297 128.442 238.297C126.556 238.297 125.027 239.826 125.027 241.712C125.027 243.598 126.556 245.127 128.442 245.127Z" fill="#ED9FD1"/>
<path d="M111.443 245.127C113.329 245.127 114.858 243.598 114.858 241.712C114.858 239.826 113.329 238.297 111.443 238.297C109.556 238.297 108.027 239.826 108.027 241.712C108.027 243.598 109.556 245.127 111.443 245.127Z" fill="#ED9FD1"/>
<path d="M94.4429 245.127C96.3291 245.127 97.8582 243.598 97.8582 241.712C97.8582 239.826 96.3291 238.297 94.4429 238.297C92.5567 238.297 91.0276 239.826 91.0276 241.712C91.0276 243.598 92.5567 245.127 94.4429 245.127Z" fill="#ED9FD1"/>
<path d="M77.4431 245.127C79.3293 245.127 80.8584 243.598 80.8584 241.712C80.8584 239.826 79.3293 238.297 77.4431 238.297C75.5569 238.297 74.0278 239.826 74.0278 241.712C74.0278 243.598 75.5569 245.127 77.4431 245.127Z" fill="#ED9FD1"/>
<path d="M60.4434 245.127C62.3296 245.127 63.8587 243.598 63.8587 241.712C63.8587 239.826 62.3296 238.297 60.4434 238.297C58.5572 238.297 57.0281 239.826 57.0281 241.712C57.0281 243.598 58.5572 245.127 60.4434 245.127Z" fill="#ED9FD1"/>
<path d="M43.4436 245.127C45.3298 245.127 46.8589 243.598 46.8589 241.712C46.8589 239.826 45.3298 238.297 43.4436 238.297C41.5574 238.297 40.0283 239.826 40.0283 241.712C40.0283 243.598 41.5574 245.127 43.4436 245.127Z" fill="#ED9FD1"/>
<path d="M26.4822 245.127C28.3684 245.127 29.8975 243.598 29.8975 241.712C29.8975 239.826 28.3684 238.297 26.4822 238.297C24.596 238.297 23.0669 239.826 23.0669 241.712C23.0669 243.598 24.596 245.127 26.4822 245.127Z" fill="#ED9FD1"/>
<path d="M9.48245 245.127C11.3687 245.127 12.8977 243.598 12.8977 241.712C12.8977 239.826 11.3687 238.297 9.48245 238.297C7.59623 238.297 6.06714 239.826 6.06714 241.712C6.06714 243.598 7.59623 245.127 9.48245 245.127Z" fill="#ED9FD1"/>
</g>
</g>
<path d="M419.126 425.317C453.893 408.204 467.17 372.212 458.536 339.481C449.902 306.751 425.611 278.932 398.673 300.534C380.445 315.116 392.341 337.678 365.632 369.027C331.48 409.125 370.736 449.107 419.126 425.317Z" fill="url(#paint1_linear_128_4551)"/>
<path d="M265.59 28.9258C269.661 28.9258 273.199 29.4617 276.204 30.5336C279.306 31.5081 281.535 32.4826 282.892 33.4571C286.188 35.6984 288.223 34.2367 288.999 29.0719H292.052C291.858 31.8005 291.713 35.1624 291.616 39.1578C291.519 43.0557 291.47 48.2691 291.47 54.7981H288.417C287.932 51.1926 287.012 47.6357 285.655 44.1276C284.298 40.6195 282.31 37.7448 279.693 35.5035C277.173 33.2622 273.877 32.1415 269.806 32.1415C266.995 32.1415 264.621 32.9698 262.682 34.6265C260.743 36.1856 259.774 38.4756 259.774 41.4965C259.774 44.42 260.646 47.0023 262.391 49.2436C264.136 51.3875 266.365 53.4826 269.079 55.529C271.89 57.478 274.798 59.5731 277.803 61.8144C281.002 64.2506 283.91 66.6868 286.527 69.123C289.144 71.4617 291.228 74.0441 292.779 76.8701C294.33 79.6961 295.105 83.058 295.105 86.9559C295.105 91.3411 293.845 95.1903 291.325 98.5035C288.805 101.719 285.461 104.204 281.293 105.958C277.222 107.712 272.666 108.589 267.625 108.589C264.717 108.589 262.1 108.297 259.774 107.712C257.545 107.128 255.606 106.397 253.958 105.52C252.698 104.935 251.486 104.399 250.323 103.912C249.257 103.327 248.239 102.84 247.27 102.45C246.301 102.158 245.428 102.499 244.653 103.473C243.974 104.448 243.441 105.812 243.053 107.566H240C240.194 104.448 240.339 100.647 240.436 96.1647C240.533 91.6821 240.582 85.7378 240.582 78.3318H243.635C244.217 83.594 245.283 88.2715 246.834 92.3643C248.385 96.3596 250.469 99.5267 253.086 101.865C255.8 104.107 259.192 105.227 263.263 105.227C264.911 105.227 266.511 104.886 268.062 104.204C269.612 103.522 270.873 102.401 271.842 100.842C272.908 99.2831 273.441 97.2854 273.441 94.8492C273.441 90.5615 272.036 87.0046 269.225 84.1787C266.511 81.3527 263.021 78.2831 258.756 74.9698C255.654 72.4362 252.698 69.9513 249.887 67.5151C247.173 64.9814 244.943 62.2529 243.199 59.3295C241.454 56.3086 240.582 52.8979 240.582 49.0975C240.582 44.7123 241.745 41.0093 244.071 37.9884C246.397 34.9675 249.451 32.7262 253.231 31.2645C257.108 29.7053 261.228 28.9258 265.59 28.9258Z" fill="#DE047B"/>
<path d="M333.478 7V30.9722H350.634V33.8956H333.478V92.949C333.478 95.8724 334.011 97.9675 335.077 99.2343C336.143 100.404 337.743 100.988 339.875 100.988C341.62 100.988 343.365 100.355 345.109 99.0882C346.854 97.7239 348.405 95.4339 349.762 92.2181L352.234 93.5336C350.683 97.9188 348.308 101.524 345.109 104.35C342.008 107.176 337.743 108.589 332.314 108.589C329.116 108.589 326.305 108.151 323.881 107.274C321.458 106.494 319.423 105.276 317.775 103.619C315.642 101.476 314.237 98.8446 313.558 95.7262C312.88 92.5104 312.54 88.3689 312.54 83.3016V33.8956H300.327V30.9722H312.54V11.6775C316.612 11.6775 320.343 11.3364 323.736 10.6543C327.226 9.87471 330.473 8.65661 333.478 7Z" fill="#DE047B"/>
<path d="M392.023 28.9258C400.553 28.9258 407.241 31.4594 412.087 36.5267C416.934 41.594 419.357 49.877 419.357 61.3759H371.522L371.231 58.5986H401.037C401.134 53.8237 400.843 49.4385 400.165 45.4432C399.486 41.3504 398.42 38.0859 396.966 35.6497C395.512 33.2135 393.573 31.9954 391.15 31.9954C387.758 31.9954 384.85 34.1392 382.426 38.4269C380.1 42.7146 378.695 49.8283 378.21 59.768L378.646 60.645C378.549 61.8144 378.452 63.0325 378.355 64.2993C378.355 65.5661 378.355 66.8817 378.355 68.2459C378.355 74.9698 379.276 80.4269 381.118 84.6172C383.056 88.8074 385.48 91.877 388.388 93.826C391.296 95.6775 394.252 96.6032 397.257 96.6032C399.292 96.6032 401.376 96.3109 403.509 95.7262C405.738 95.0441 407.968 93.8747 410.197 92.2181C412.427 90.464 414.511 88.0278 416.449 84.9095L419.066 85.7866C417.903 89.4896 416.061 93.0951 413.541 96.6032C411.021 100.111 407.822 102.986 403.945 105.227C400.068 107.469 395.415 108.589 389.987 108.589C383.396 108.589 377.58 107.176 372.539 104.35C367.499 101.524 363.525 97.2367 360.617 91.4872C357.806 85.7378 356.4 78.4292 356.4 69.5615C356.4 60.4988 357.903 52.9466 360.908 46.9049C364.009 40.8631 368.226 36.3805 373.557 33.4571C378.985 30.4362 385.14 28.9258 392.023 28.9258Z" fill="#DE047B"/>
<path d="M457.437 29.3643V118.529C457.437 123.109 458.601 126.13 460.927 127.592C463.253 129.151 466.452 129.93 470.523 129.93V133C468.003 132.903 464.513 132.756 460.055 132.561C455.693 132.464 451.04 132.415 446.097 132.415C442.51 132.415 438.972 132.464 435.483 132.561C432.09 132.756 429.521 132.903 427.777 133V129.93C430.975 129.93 433.205 129.248 434.465 127.884C435.822 126.52 436.5 123.889 436.5 119.991V46.9049C436.5 42.5197 435.822 39.3039 434.465 37.2575C433.108 35.1137 430.684 34.0418 427.195 34.0418V30.9722C430.297 31.2645 433.302 31.4107 436.21 31.4107C440.184 31.4107 443.964 31.2645 447.55 30.9722C451.137 30.5824 454.433 30.0464 457.437 29.3643ZM479.974 28.9258C484.917 28.9258 489.328 30.29 493.205 33.0186C497.082 35.6497 500.184 39.6937 502.51 45.1508C504.837 50.5104 506 57.2343 506 65.3225C506 72.4362 505.176 78.6729 503.528 84.0325C501.977 89.3921 499.699 93.9234 496.695 97.6265C493.787 101.232 490.249 103.961 486.081 105.812C482.01 107.664 477.405 108.589 472.268 108.589C468.488 108.589 465.047 107.907 461.945 106.543C458.843 105.276 456.468 103.425 454.82 100.988L456.274 99.0882C457.244 100.842 458.601 102.206 460.345 103.181C462.187 104.155 464.271 104.643 466.597 104.643C470.959 104.643 474.4 103.181 476.921 100.258C479.441 97.2367 481.234 93.0464 482.3 87.6868C483.464 82.2297 484.045 75.7494 484.045 68.2459C484.045 59.8654 483.512 53.2877 482.446 48.5128C481.379 43.7378 479.926 40.3272 478.084 38.2807C476.242 36.2343 474.013 35.2111 471.396 35.2111C467.906 35.2111 464.707 36.5754 461.799 39.304C458.988 42.0325 457.389 45.9304 457.001 50.9977L456.274 45.8817C458.019 40.3272 460.975 36.1369 465.144 33.3109C469.408 30.3875 474.352 28.9258 479.974 28.9258Z" fill="#DE047B"/>
<path d="M360.401 161.113C364.203 161.113 367.348 162.653 369.835 165.732C372.37 168.763 373.637 173.454 373.637 179.804C373.637 184.808 372.857 188.825 371.297 191.856C369.786 194.887 367.762 197.076 365.227 198.423C362.692 199.77 359.913 200.443 356.89 200.443C354.891 200.443 353.039 200.107 351.332 199.433C349.626 198.759 348.163 197.653 346.944 196.113L347.968 195.753C348.846 196.811 349.87 197.605 351.04 198.134C352.259 198.663 353.453 198.928 354.623 198.928C357.305 198.928 359.304 197.436 360.62 194.454C361.936 191.471 362.595 186.924 362.595 180.814C362.595 176.677 362.326 173.405 361.79 171C361.303 168.546 360.571 166.814 359.596 165.804C358.621 164.746 357.451 164.216 356.086 164.216C354.379 164.216 352.819 164.914 351.405 166.309C349.991 167.656 349.187 169.557 348.992 172.01L348.626 169.485C349.504 166.742 350.991 164.674 353.087 163.278C355.184 161.835 357.622 161.113 360.401 161.113ZM349.211 143V197.99C347.993 197.797 346.749 197.797 345.482 197.99C344.214 198.182 343.044 198.519 341.971 199C340.899 199.433 339.997 199.962 339.265 200.588L338.169 199.938C338.364 199.265 338.485 198.591 338.534 197.918C338.632 197.244 338.68 196.57 338.68 195.897V151.66C338.68 149.495 338.339 147.907 337.657 146.897C337.023 145.838 335.804 145.309 334 145.309V143.794C335.56 143.938 337.072 144.01 338.534 144.01C340.533 144.01 342.435 143.938 344.238 143.794C346.042 143.601 347.7 143.337 349.211 143Z" fill="#ED9FD1"/>
<path d="M413 162.124V163.567C412.074 163.808 411.196 164.385 410.367 165.299C409.538 166.165 408.734 167.656 407.954 169.773L397.642 198.351L394.936 203.402L378.994 167.68C378.165 165.804 377.336 164.674 376.507 164.289C375.727 163.856 375.045 163.639 374.46 163.639V162.124C376.068 162.268 377.726 162.388 379.433 162.485C381.188 162.533 382.87 162.557 384.479 162.557C386.478 162.557 388.306 162.509 389.964 162.412C391.621 162.316 393.181 162.22 394.644 162.124V163.639C393.669 163.639 392.743 163.711 391.865 163.856C391.036 163.952 390.451 164.289 390.11 164.866C389.817 165.395 389.963 166.333 390.549 167.68L399.763 189.619L399.105 190.052L404.517 175.113C405.443 172.515 405.833 170.399 405.687 168.763C405.541 167.079 405.004 165.828 404.078 165.01C403.152 164.144 401.884 163.663 400.275 163.567V162.124C401.055 162.172 401.86 162.22 402.688 162.268C403.517 162.268 404.346 162.292 405.175 162.34C406.004 162.34 406.735 162.34 407.369 162.34C408.344 162.34 409.368 162.316 410.44 162.268C411.513 162.22 412.366 162.172 413 162.124ZM397.642 198.351L394.863 206.072C394.376 207.275 393.864 208.285 393.328 209.103C392.84 209.969 392.279 210.667 391.646 211.196C390.963 211.773 390.085 212.206 389.013 212.495C387.94 212.832 386.697 213 385.283 213C384.113 213 382.894 212.808 381.626 212.423C380.408 212.038 379.384 211.412 378.555 210.546C377.726 209.68 377.312 208.574 377.312 207.227C377.312 205.735 377.848 204.533 378.921 203.619C379.993 202.753 381.407 202.32 383.162 202.32C384.771 202.32 386.088 202.704 387.111 203.474C388.135 204.244 388.647 205.375 388.647 206.866C388.647 207.828 388.33 208.742 387.696 209.608C387.111 210.474 386.209 211.124 384.991 211.557C385.234 211.605 385.527 211.629 385.868 211.629C386.209 211.629 386.478 211.629 386.673 211.629C388.135 211.629 389.427 211.172 390.549 210.258C391.67 209.344 392.596 207.9 393.328 205.928L395.887 198.495L397.642 198.351Z" fill="#ED9FD1"/>
<path d="M453.59 164.752C457.661 164.752 461.199 165.283 464.204 166.347C467.306 167.314 469.535 168.28 470.892 169.247C474.188 171.471 476.223 170.02 476.999 164.897H480.052C479.858 167.604 479.713 170.939 479.616 174.903C479.519 178.77 479.47 183.942 479.47 190.419H476.417C475.932 186.842 475.012 183.313 473.655 179.833C472.298 176.353 470.31 173.501 467.693 171.277C465.173 169.054 461.877 167.942 457.806 167.942C454.995 167.942 452.621 168.764 450.682 170.407C448.743 171.954 447.774 174.226 447.774 177.223C447.774 180.123 448.646 182.685 450.391 184.908C452.136 187.035 454.365 189.114 457.079 191.144C459.89 193.077 462.798 195.156 465.803 197.379C469.002 199.796 471.91 202.213 474.527 204.63C477.144 206.95 479.228 209.512 480.779 212.316C482.33 215.119 483.105 218.454 483.105 222.321C483.105 226.672 481.845 230.49 479.325 233.777C476.805 236.968 473.461 239.433 469.293 241.173C465.222 242.913 460.666 243.783 455.625 243.783C452.717 243.783 450.1 243.493 447.774 242.913C445.545 242.333 443.606 241.608 441.958 240.738C440.698 240.158 439.486 239.626 438.323 239.143C437.257 238.563 436.239 238.079 435.27 237.693C434.301 237.403 433.428 237.741 432.653 238.708C431.974 239.674 431.441 241.028 431.053 242.768H428C428.194 239.674 428.339 235.904 428.436 231.457C428.533 227.01 428.582 221.113 428.582 213.766H431.635C432.217 218.986 433.283 223.626 434.834 227.687C436.385 231.65 438.469 234.792 441.086 237.113C443.8 239.336 447.192 240.448 451.263 240.448C452.911 240.448 454.511 240.109 456.062 239.433C457.612 238.756 458.873 237.644 459.842 236.097C460.908 234.551 461.441 232.569 461.441 230.152C461.441 225.898 460.036 222.37 457.225 219.566C454.511 216.763 451.021 213.717 446.756 210.43C443.654 207.917 440.698 205.452 437.887 203.035C435.173 200.521 432.943 197.814 431.199 194.914C429.454 191.917 428.582 188.534 428.582 184.763C428.582 180.413 429.745 176.739 432.071 173.742C434.397 170.746 437.451 168.522 441.231 167.072C445.108 165.525 449.228 164.752 453.59 164.752Z" fill="#DE047B"/>
<path d="M521.478 143V166.782H538.634V169.682H521.478V228.267C521.478 231.167 522.011 233.246 523.077 234.502C524.143 235.662 525.743 236.242 527.875 236.242C529.62 236.242 531.365 235.614 533.109 234.357C534.854 233.004 536.405 230.732 537.762 227.542L540.234 228.847C538.683 233.197 536.308 236.774 533.109 239.578C530.008 242.381 525.743 243.783 520.314 243.783C517.116 243.783 514.305 243.348 511.881 242.478C509.458 241.705 507.423 240.496 505.775 238.853C503.642 236.726 502.237 234.116 501.558 231.022C500.88 227.832 500.54 223.723 500.54 218.696V169.682H488.327V166.782H500.54V147.64C504.612 147.64 508.343 147.302 511.736 146.625C515.226 145.852 518.473 144.643 521.478 143Z" fill="#DE047B"/>
<path d="M580.023 164.752C588.553 164.752 595.241 167.265 600.087 172.292C604.934 177.319 607.357 185.537 607.357 196.944H559.522L559.231 194.189H589.037C589.134 189.452 588.843 185.102 588.165 181.138C587.486 177.078 586.42 173.839 584.966 171.422C583.512 169.005 581.573 167.797 579.15 167.797C575.758 167.797 572.85 169.924 570.426 174.177C568.1 178.431 566.695 185.488 566.21 195.349L566.646 196.219C566.549 197.379 566.452 198.588 566.355 199.845C566.355 201.101 566.355 202.406 566.355 203.76C566.355 210.43 567.276 215.844 569.118 220.001C571.056 224.158 573.48 227.203 576.388 229.137C579.296 230.974 582.252 231.892 585.257 231.892C587.292 231.892 589.376 231.602 591.509 231.022C593.738 230.345 595.968 229.185 598.197 227.542C600.427 225.802 602.511 223.385 604.449 220.291L607.066 221.161C605.903 224.835 604.061 228.412 601.541 231.892C599.021 235.372 595.822 238.224 591.945 240.448C588.068 242.671 583.415 243.783 577.987 243.783C571.396 243.783 565.58 242.381 560.539 239.578C555.499 236.774 551.525 232.52 548.617 226.817C545.806 221.113 544.4 213.862 544.4 205.065C544.4 196.074 545.903 188.582 548.908 182.588C552.009 176.594 556.226 172.147 561.557 169.247C566.985 166.25 573.14 164.752 580.023 164.752Z" fill="#DE047B"/>
<path d="M645.437 165.187V253.644C645.437 258.188 646.601 261.184 648.927 262.635C651.253 264.181 654.452 264.955 658.523 264.955V268C656.003 267.903 652.513 267.758 648.055 267.565C643.693 267.468 639.04 267.42 634.097 267.42C630.51 267.42 626.972 267.468 623.483 267.565C620.09 267.758 617.521 267.903 615.777 268V264.955C618.975 264.955 621.205 264.278 622.465 262.925C623.822 261.571 624.5 258.961 624.5 255.094V182.588C624.5 178.238 623.822 175.048 622.465 173.017C621.108 170.891 618.684 169.827 615.195 169.827V166.782C618.297 167.072 621.302 167.217 624.21 167.217C628.184 167.217 631.964 167.072 635.55 166.782C639.137 166.395 642.433 165.864 645.437 165.187ZM667.974 164.752C672.917 164.752 677.328 166.105 681.205 168.812C685.082 171.422 688.184 175.434 690.51 180.848C692.837 186.165 694 192.836 694 200.86C694 207.917 693.176 214.104 691.528 219.421C689.977 224.738 687.699 229.234 684.695 232.907C681.787 236.484 678.249 239.191 674.081 241.028C670.01 242.865 665.405 243.783 660.268 243.783C656.488 243.783 653.047 243.106 649.945 241.753C646.843 240.496 644.468 238.659 642.82 236.242L644.274 234.357C645.244 236.097 646.601 237.451 648.345 238.418C650.187 239.384 652.271 239.868 654.597 239.868C658.959 239.868 662.4 238.418 664.921 235.517C667.441 232.52 669.234 228.363 670.3 223.046C671.464 217.633 672.045 211.204 672.045 203.76C672.045 195.446 671.512 188.92 670.446 184.183C669.379 179.446 667.926 176.063 666.084 174.032C664.242 172.002 662.013 170.987 659.396 170.987C655.906 170.987 652.707 172.341 649.799 175.048C646.988 177.754 645.389 181.621 645.001 186.648L644.274 181.573C646.019 176.063 648.975 171.906 653.144 169.102C657.408 166.202 662.352 164.752 667.974 164.752Z" fill="#DE047B"/>
</g>
<defs>
<linearGradient id="paint0_linear_128_4551" x1="-1393.81" y1="607.915" x2="-1071.56" y2="977.801" gradientUnits="userSpaceOnUse">
<stop stop-color="#DE047B"/>
<stop offset="1" stop-color="#ED9FD1"/>
</linearGradient>
<linearGradient id="paint1_linear_128_4551" x1="208.322" y1="200.393" x2="251.695" y2="56.8788" gradientUnits="userSpaceOnUse">
<stop stop-color="#DE047B"/>
<stop offset="1" stop-color="#ED9FD1"/>
</linearGradient>
</defs>
</svg>
