<svg viewBox="0 0 206 61" fill="none" xmlns="http://www.w3.org/2000/svg">
<g clip-path="url(#clip0_12_40200)">
<path d="M82.0854 4.53188C82.3714 2.94933 81.2989 1.43872 79.7258 1.15098C78.1527 0.863249 76.6512 1.94226 76.3652 3.52481C76.0791 5.10735 77.1517 6.61797 78.7248 6.9057C80.2978 7.19344 81.7994 6.11443 82.0854 4.53188Z" fill="#ED9FD1"/>
<path d="M160.953 4.53188C161.239 2.94933 160.167 1.43872 158.594 1.15098C157.02 0.863249 155.519 1.94226 155.233 3.52481C154.947 5.10735 156.019 6.61797 157.593 6.9057C159.166 7.19344 160.667 6.11443 160.953 4.53188Z" fill="#ED9FD1"/>
<path d="M81.9424 20.1415V52.7276C81.9424 54.526 81.0128 55.4611 79.2253 55.4611C77.4377 55.4611 76.5081 54.526 76.5081 52.7276V20.1415C76.5081 18.3432 77.4377 17.48 79.2253 17.48C81.0128 17.48 81.9424 18.3432 81.9424 20.1415Z" fill="#ED9FD1"/>
<path d="M148.512 52.8715C148.512 54.5979 147.582 55.4611 145.723 55.4611C144.293 55.4611 143.435 54.7418 143.149 53.3031L134.211 12.7323L121.555 42.513C120.983 43.9517 120.053 44.671 118.909 44.671C117.765 44.671 116.836 43.9517 116.264 42.513L103.536 12.6604L94.5269 53.3031C94.2409 54.7418 93.3829 55.4611 91.9528 55.4611C90.0937 55.4611 89.1642 54.5979 89.1642 52.8715C89.1642 52.6557 89.1642 52.4399 89.3072 52.2241L100.033 3.81252C100.39 2.08611 101.32 1.2229 102.75 1.2229C103.894 1.2229 104.823 1.94224 105.395 3.30899L118.909 34.9599L132.423 3.30899C132.995 1.94224 133.925 1.2229 135.069 1.2229C136.499 1.2229 137.429 2.08611 137.858 3.81252L148.512 52.2241C148.512 52.2241 148.583 52.6557 148.583 52.8715" fill="#DE047B"/>
<path d="M161.025 20.1415V52.7276C161.025 54.526 160.095 55.4611 158.308 55.4611C156.52 55.4611 155.59 54.526 155.59 52.7276V20.1415C155.59 18.3432 156.52 17.48 158.308 17.48C160.095 17.48 161.025 18.3432 161.025 20.1415Z" fill="#ED9FD1"/>
<path d="M206 36.4705C206 41.7217 204.141 46.1816 200.423 49.9222C196.705 53.6627 192.271 55.4611 187.052 55.4611C181.832 55.4611 177.399 53.5908 173.681 49.9222C169.963 46.1816 168.103 41.7217 168.103 36.4705C168.103 31.2193 169.963 26.7594 173.681 23.0908C177.399 19.3502 181.832 17.5519 187.052 17.5519C192.271 17.5519 196.705 19.4222 200.423 23.0908C204.141 26.8314 206 31.2913 206 36.4705ZM200.637 36.4705C200.637 32.7299 199.35 29.5649 196.705 26.9033C194.059 24.2417 190.913 22.875 187.195 22.875C183.477 22.875 180.259 24.2417 177.685 26.9033C175.039 29.5649 173.752 32.7299 173.752 36.4705C173.752 40.2111 175.039 43.3762 177.685 46.1097C180.33 48.7712 183.477 50.138 187.195 50.138C190.913 50.138 194.059 48.7712 196.705 46.1097C199.35 43.4481 200.637 40.2111 200.637 36.4705Z" fill="#ED9FD1"/>
<path d="M35.966 33.3055C37.396 33.3055 38.6116 32.0826 38.6116 30.6439C38.6116 29.2052 37.396 27.9824 35.966 27.9824C34.5359 27.9824 33.3204 29.2052 33.3204 30.6439C33.3204 32.0826 34.4644 33.3055 35.966 33.3055Z" fill="#DE047B"/>
<path d="M45.1184 32.8019C46.3339 32.8019 47.2634 31.7949 47.2634 30.6439C47.2634 29.493 46.2624 28.4859 45.1184 28.4859C43.9028 28.4859 42.9733 29.493 42.9733 30.6439C42.9733 31.8668 43.9743 32.8019 45.1184 32.8019Z" fill="#DE047B"/>
<path d="M53.6272 32.0826C54.4137 32.0826 55.0573 31.4352 55.0573 30.6439C55.0573 29.8526 54.4137 29.2052 53.6272 29.2052C52.8407 29.2052 52.1971 29.8526 52.1971 30.6439C52.1971 31.4352 52.8407 32.0826 53.6272 32.0826Z" fill="#DE047B"/>
<path d="M39.8271 25.033C40.9712 24.0979 41.1142 22.4434 40.1847 21.2925C39.2551 20.1415 37.6105 19.9977 36.4665 20.9328C35.3225 21.8679 35.1795 23.5224 36.109 24.6734C37.0385 25.8243 38.6831 25.9682 39.8271 25.033Z" fill="#ED9FD1"/>
<path d="M46.5484 18.7748C47.4779 17.9835 47.5494 16.6168 46.8344 15.7536C46.0479 14.8184 44.6893 14.7465 43.8313 15.4658C42.9017 16.2571 42.8302 17.6239 43.5453 18.4871C44.3318 19.4222 45.6904 19.4941 46.5484 18.7748Z" fill="#ED9FD1"/>
<path d="M52.5547 12.7323C53.1267 12.2288 53.1982 11.3656 52.7692 10.7182C52.2686 10.1427 51.4106 10.0708 50.7671 10.5024C50.1236 10.934 50.1236 11.8691 50.5526 12.5165C51.0531 13.092 51.9111 13.1639 52.5547 12.7323Z" fill="#ED9FD1"/>
<path d="M33.8924 19.3503C34.1784 17.9116 33.1774 16.5448 31.7473 16.2571C30.3172 15.9694 28.9587 16.9764 28.6727 18.4151C28.3867 19.8538 29.3877 21.2205 30.8178 21.5083C32.2478 21.796 33.6064 20.7889 33.8924 19.3503Z" fill="#ED9FD1"/>
<path d="M34.965 10.2146C35.1795 9.06371 34.3929 7.91276 33.2489 7.69696C32.1048 7.48116 30.9608 8.27243 30.7463 9.42338C30.5318 10.5743 31.3183 11.7253 32.4623 11.9411C33.6064 12.1569 34.7504 11.3656 34.965 10.2146Z" fill="#ED9FD1"/>
<path d="M35.68 1.6545C35.823 0.863228 35.3225 0.143889 34.5359 2.06288e-05C33.7494 -0.143847 33.0344 0.35969 32.8914 1.15096C32.7483 1.94224 33.2489 2.66158 34.0354 2.80545C34.8219 2.94931 35.537 2.44578 35.68 1.6545Z" fill="#ED9FD1"/>
<path d="M25.5981 18.8467C24.883 17.5519 23.2385 17.1203 22.0229 17.9115C20.7359 18.6309 20.3068 20.2854 21.0934 21.5082C21.8084 22.8031 23.453 23.2347 24.6685 22.4434C25.9556 21.724 26.3846 20.0696 25.5981 18.8467Z" fill="#ED9FD1"/>
<path d="M20.6643 11.1498C20.0923 10.1427 18.7338 9.78303 17.7327 10.3585C16.7317 10.934 16.3742 12.3007 16.9462 13.3078C17.5182 14.3149 18.8768 14.6745 19.8778 14.0991C20.8788 13.5236 21.2364 12.1569 20.6643 11.1498Z" fill="#ED9FD1"/>
<path d="M15.7306 4.10024C15.3731 3.45284 14.5151 3.1651 13.8001 3.5967C13.1565 3.95637 12.8705 4.81958 13.2995 5.53892C13.6571 6.18633 14.5151 6.47406 15.2301 6.04246C15.8737 5.68279 16.1597 4.81958 15.7306 4.10024Z" fill="#ED9FD1"/>
<path d="M18.9483 23.7382C17.5897 23.2347 16.0882 23.954 15.5876 25.3207C15.0871 26.6875 15.8021 28.1981 17.1607 28.7016C18.5193 29.2052 20.0208 28.4858 20.5213 27.1191C21.0219 25.7524 20.3068 24.2417 18.9483 23.7382Z" fill="#ED9FD1"/>
<path d="M10.2249 21.0766C9.08086 20.645 7.86531 21.2205 7.43629 22.3715C7.00728 23.5224 7.5793 24.7453 8.72335 25.1769C9.8674 25.6085 11.0829 25.033 11.512 23.8821C11.941 22.7311 11.369 21.5083 10.2249 21.0766Z" fill="#ED9FD1"/>
<path d="M2.00207 18.8467C1.28704 18.559 0.500508 18.9906 0.214496 19.7099C-0.0715156 20.4293 0.357502 21.2205 1.07253 21.5083C1.78756 21.796 2.57409 21.3644 2.86011 20.6451C3.14612 19.9257 2.7171 19.1345 2.00207 18.8467Z" fill="#ED9FD1"/>
<path d="M17.0177 31.8667C15.6591 32.3703 14.9441 33.8809 15.4446 35.2476C15.9452 36.6144 17.4467 37.3337 18.8053 36.8302C20.1638 36.3266 20.8789 34.816 20.3783 33.4493C19.8778 32.0825 18.3763 31.3632 17.0177 31.8667Z" fill="#ED9FD1"/>
<path d="M8.65185 35.3915C7.5078 35.8231 6.93577 37.046 7.36479 38.197C7.79381 39.3479 9.00936 39.9234 10.1534 39.4918C11.2975 39.0602 11.8695 37.8373 11.4405 36.6863C11.0114 35.5354 9.79589 34.9599 8.65185 35.3915Z" fill="#ED9FD1"/>
<path d="M0.929626 39.0602C0.214596 39.3479 -0.142918 40.1392 0.0715905 40.8585C0.357602 41.5779 1.14413 41.9375 1.85916 41.7217C2.57419 41.434 2.93171 40.6427 2.7172 39.9234C2.43119 39.2041 1.64466 38.8444 0.929626 39.0602Z" fill="#ED9FD1"/>
<path d="M20.7358 39.2759C20.0208 40.5707 20.4498 42.1533 21.7369 42.8726C23.0239 43.592 24.597 43.1604 25.312 41.8656C26.0271 40.5707 25.598 38.9882 24.3825 38.2689C23.0954 37.5495 21.5224 37.9811 20.8073 39.204" fill="#ED9FD1"/>
<path d="M16.5887 47.4764C16.0166 48.4835 16.3742 49.8503 17.3752 50.4257C18.3762 51.0012 19.7348 50.6415 20.3068 49.6345C20.8788 48.6274 20.5213 47.2606 19.5203 46.6852C18.5193 46.1097 17.1607 46.4694 16.5887 47.4764Z" fill="#ED9FD1"/>
<path d="M13.0135 55.2453C12.656 55.8927 12.8705 56.7559 13.5141 57.1875C14.1576 57.5472 15.0156 57.3314 15.4446 56.684C15.8022 56.0366 15.5876 55.1734 14.9441 54.7417C14.3006 54.3821 13.4426 54.5979 13.0135 55.2453Z" fill="#ED9FD1"/>
<path d="M28.3152 42.5849C28.6012 44.0236 29.9597 44.9588 31.3898 44.743C32.8199 44.5272 33.7494 43.0885 33.5349 41.6498C33.2489 40.2111 31.8903 39.276 30.4603 39.4918C29.0302 39.7795 28.1007 41.1463 28.3152 42.5849Z" fill="#ED9FD1"/>
<path d="M30.3887 51.5047C30.6032 52.6557 31.7473 53.447 32.8913 53.2312C34.0354 53.0154 34.8219 51.8644 34.6074 50.7135C34.3929 49.5625 33.2489 48.7713 32.1048 48.9871C30.9608 49.2029 30.1742 50.2819 30.3887 51.5047Z" fill="#ED9FD1"/>
<path d="M32.6053 59.8491C32.7483 60.6404 33.4634 61.1439 34.2499 61C35.0364 60.8562 35.537 60.1368 35.394 59.3455C35.251 58.5543 34.5359 58.0507 33.7494 58.1946C32.9629 58.3385 32.4623 59.0578 32.6053 59.8491Z" fill="#ED9FD1"/>
<path d="M36.252 40.2111C37.396 41.1463 39.0406 41.0024 39.9701 39.8515C40.8997 38.7005 40.7567 37.046 39.6126 36.1109C38.4686 35.1758 36.824 35.3196 35.8945 36.4706C34.9649 37.6215 35.1079 39.276 36.252 40.2111Z" fill="#ED9FD1"/>
<path d="M43.5453 45.75C44.4748 46.5413 45.8334 46.3974 46.5484 45.4623C47.335 44.5271 47.1919 43.1604 46.2624 42.441C45.3329 41.6498 43.9743 41.7936 43.2593 42.7288C42.4728 43.6639 42.6158 45.0307 43.5453 45.75Z" fill="#ED9FD1"/>
<path d="M50.5526 50.6415C51.1246 51.1451 52.0541 51.0731 52.5547 50.4977C53.0552 49.9222 52.9837 48.9871 52.4117 48.4835C51.8396 47.98 50.9101 48.0519 50.4096 48.6274C49.9091 49.2029 49.9806 50.138 50.5526 50.6415Z" fill="#ED9FD1"/>
<path d="M32.3193 30.6439C32.3193 29.1333 33.2489 27.7666 34.6074 27.1911C32.7483 24.0979 28.6727 23.0908 25.5265 24.9611C22.4519 26.8314 21.4509 30.9316 23.31 34.0967C25.169 37.2618 29.2447 38.197 32.3908 36.3267C33.3204 35.7512 34.0354 35.0319 34.6074 34.0967C33.2489 33.5213 32.3193 32.1545 32.3193 30.6439Z" fill="#DE047B"/>
</g>
<defs>
<clipPath id="clip0_12_40200">
<rect width="206" height="61" fill="white"/>
</clipPath>
</defs>
</svg>
