<svg width="66" height="105" viewBox="0 0 66 105" fill="none" xmlns="http://www.w3.org/2000/svg">
<g clip-path="url(#clip0_67_3588)">
<path d="M20.6959 34.5032H18.0859V54.2633H20.6959V34.5032Z" fill="#ED9FD1"/>
<path d="M28.1948 47.4658V82.5042H44.0567V79.6879H31.6604V47.4658H28.1948Z" fill="#ED9FD1"/>
<path d="M38.9547 53.3889C40.1589 54.1541 41.5417 54.5367 43.1002 54.5367C44.6587 54.5367 46.0905 54.157 47.2861 53.3976C48.4816 52.6381 49.4064 51.5363 50.0574 50.0922C50.7085 48.6481 51.0369 46.9595 51.0369 45.0235V43.775C51.0369 41.8476 50.7114 40.1589 50.0574 38.7062C49.4035 37.2535 48.473 36.1459 47.263 35.3807C46.0531 34.6155 44.6559 34.2329 43.0714 34.2329C41.4869 34.2329 40.1301 34.6184 38.9201 35.3922C37.7102 36.1661 36.7739 37.2822 36.1142 38.7378C35.4516 40.1935 35.1232 41.8735 35.1232 43.7721V45.1961C35.1405 47.0602 35.4833 48.6999 36.1487 50.1152C36.8142 51.5306 37.7505 52.6209 38.9547 53.3861V53.3889ZM37.7188 43.5707C37.7447 41.3441 38.2316 39.6066 39.1794 38.3524C40.1272 37.0981 41.4236 36.4739 43.0743 36.4739C44.725 36.4739 46.0876 37.101 47.0297 38.3524C47.9717 39.6066 48.4442 41.4046 48.4442 43.7462V45.2133C48.4182 47.5032 47.94 49.2609 47.0182 50.4863C46.0934 51.7118 44.7884 52.3246 43.1031 52.3246C41.4178 52.3246 40.1099 51.6744 39.1535 50.377C38.197 49.0796 37.7188 47.2932 37.7188 45.0235V43.5707Z" fill="#ED9FD1"/>
<path d="M53.2436 96.3957C53.2436 98.2483 48.9281 99.6867 46.056 100.708C43.1838 101.729 39.0469 102.238 33.6367 102.238C28.2264 102.238 24.1789 101.726 21.2923 100.699C18.4057 99.6723 14.0815 98.2339 14.0815 96.3785V79.0261H7.50458V96.482C7.57084 99.1343 9.95905 101.217 14.6721 102.73C19.3852 104.243 25.7057 105 33.6367 105L36.1747 104.965C43.4747 104.778 49.2566 103.915 53.5231 102.379C57.7867 100.843 59.9358 98.8668 59.9704 96.4475V79.0261H53.2436V96.3957Z" fill="#DE047B"/>
<path d="M66 0H59.9704H57.0896H50.6999L32.9827 21.5207L15.2627 0H8.91331H6.03247H0V4.0274H6.03247V60.5749H12.3156V36.9859L11.895 8.7711L30.2286 30.9448H35.6993L54.0676 8.6474L53.6873 36.9859V60.5749H59.9704V4.0274H66V0Z" fill="#DE047B"/>
</g>
<defs>
<clipPath id="clip0_67_3588">
<rect width="66" height="105" fill="white"/>
</clipPath>
</defs>
</svg>
