<svg viewBox="0 0 234 73" fill="none" xmlns="http://www.w3.org/2000/svg">
<g clip-path="url(#clip0_12_40165)">
<path d="M22.3708 59.1491C21.6561 59.1491 21.0128 59.0077 20.441 58.725C19.8693 58.4424 19.4404 58.0184 19.1545 57.5237C18.8687 57.029 18.7257 56.393 18.7257 55.757V52.1529C18.7257 51.4462 18.8687 50.8809 19.1545 50.3862C19.4404 49.8916 19.8693 49.4675 20.441 49.1849C21.0128 48.9022 21.6561 48.7609 22.3708 48.7609C23.0855 48.7609 23.7288 48.9022 24.3005 49.1849C24.8723 49.4675 25.3012 49.8209 25.587 50.3156C25.8729 50.8102 26.0159 51.3756 26.0159 52.0116C26.0159 52.0116 26.0159 52.0823 26.0159 52.1529C26.0159 52.1529 26.0159 52.1529 25.8729 52.1529H24.515C24.515 52.1529 24.372 52.1529 24.372 52.0823C24.372 51.5169 24.1576 51.0222 23.8002 50.7396C23.4429 50.3862 22.9426 50.2449 22.3708 50.2449C21.799 50.2449 21.2987 50.3862 20.9413 50.7396C20.584 51.0929 20.3696 51.5169 20.3696 52.0823V55.757C20.3696 56.3223 20.584 56.7463 20.9413 57.0997C21.2987 57.453 21.799 57.5944 22.3708 57.5944C22.9426 57.5944 23.4429 57.453 23.8002 57.0997C24.1576 56.7463 24.372 56.3223 24.372 55.757C24.372 55.6157 24.372 55.6157 24.515 55.6157H25.8729C25.8729 55.6157 25.9444 55.6863 26.0159 55.6863C26.0159 55.6863 26.0159 55.6863 26.0159 55.757C26.0159 56.393 25.8729 56.9583 25.587 57.5237C25.3012 58.0184 24.8723 58.3717 24.3005 58.6544C23.7288 58.9371 23.0855 59.0784 22.3708 59.0784V59.1491Z" fill="#DE047B"/>
<path d="M31.3048 59.1491C30.5901 59.1491 29.9468 59.0077 29.3751 58.725C28.8033 58.4424 28.3745 58.0184 28.0886 57.453C27.8027 56.8877 27.6597 56.3223 27.6597 55.6157V52.2943C27.6597 51.5876 27.8027 51.0222 28.16 50.4569C28.4459 49.8915 28.8748 49.4675 29.4465 49.1849C30.0183 48.9022 30.6616 48.7609 31.3763 48.7609C32.091 48.7609 32.7343 48.9022 33.306 49.1849C33.8778 49.4675 34.3066 49.8915 34.5925 50.4569C34.8784 51.0222 35.0928 51.5876 35.0928 52.2943V55.6157C35.0928 56.3223 34.9499 56.9583 34.5925 57.453C34.3066 58.0184 33.8063 58.4424 33.306 58.725C32.7343 59.0077 32.091 59.1491 31.3763 59.1491H31.3048ZM31.3048 57.7357C31.9481 57.7357 32.3769 57.5237 32.8057 57.1704C33.1631 56.817 33.3775 56.3223 33.3775 55.6863V52.2943C33.3775 51.6583 33.1631 51.1636 32.8057 50.8102C32.4484 50.4569 31.9481 50.2449 31.3048 50.2449C30.6616 50.2449 30.2327 50.4569 29.8754 50.8102C29.518 51.1636 29.3036 51.6583 29.3036 52.2943V55.6863C29.3036 56.3223 29.518 56.817 29.8754 57.1704C30.2327 57.5237 30.733 57.7357 31.3048 57.7357Z" fill="#DE047B"/>
<path d="M42.8833 49.0435C42.8833 49.0435 42.8833 48.9729 42.8833 48.9022C42.8833 48.9022 42.9548 48.9022 43.0262 48.9022H44.3842C44.3842 48.9022 44.4557 48.9022 44.5272 48.9022C44.5272 48.9022 44.5272 48.9022 44.5272 49.0435V58.7957C44.5272 58.7957 44.5272 58.8664 44.5272 58.9371C44.5272 58.9371 44.5272 58.9371 44.3842 58.9371H43.0977C43.0977 58.9371 42.9548 58.937 42.8833 58.7957L38.6664 51.9409V58.6544C38.6664 58.6544 38.6664 58.725 38.6664 58.7957C38.6664 58.7957 38.6664 58.7957 38.5235 58.7957H37.1655C37.1655 58.7957 37.0941 58.7957 37.0226 58.7957C37.0226 58.7957 37.0226 58.725 37.0226 58.6544V48.9022C37.0226 48.9022 37.0226 48.8315 37.0226 48.7609C37.0226 48.7609 37.0941 48.7609 37.1655 48.7609H38.452C38.452 48.7609 38.595 48.7609 38.6664 48.9022L42.8833 55.757C42.8833 55.757 42.8833 55.757 42.8833 55.6863V48.9729V49.0435Z" fill="#DE047B"/>
<path d="M53.4612 50.1742C53.4612 50.1742 53.4612 50.2449 53.4612 50.3156C53.4612 50.3156 53.4612 50.3156 53.3182 50.3156H48.3152C48.3152 50.3156 48.2437 50.3156 48.2437 50.3862V53.0716C48.2437 53.0716 48.2437 53.1423 48.3152 53.1423H51.6744C51.6744 53.1423 51.7459 53.1423 51.8173 53.1423C51.8173 53.1423 51.8173 53.1423 51.8173 53.2836V54.4143C51.8173 54.4143 51.8173 54.485 51.8173 54.5557C51.8173 54.5557 51.8173 54.5557 51.6744 54.5557H48.3152C48.3152 54.5557 48.2437 54.5557 48.2437 54.6263V58.7957C48.2437 58.7957 48.2437 58.8664 48.2437 58.9371C48.2437 58.9371 48.2437 58.9371 48.1008 58.9371H46.7428C46.7428 58.9371 46.6713 58.9371 46.5999 58.9371C46.5999 58.9371 46.5999 58.8664 46.5999 58.7957V49.0436C46.5999 49.0436 46.5999 48.9729 46.5999 48.9022C46.5999 48.9022 46.6713 48.9022 46.7428 48.9022H53.3182C53.3182 48.9022 53.3897 48.9022 53.4612 48.9022C53.4612 48.9022 53.4612 48.9022 53.4612 49.0436V50.1742Z" fill="#DE047B"/>
<path d="M61.752 50.1742C61.752 50.1742 61.752 50.2449 61.752 50.3156C61.752 50.3156 61.752 50.3156 61.609 50.3156H56.606C56.606 50.3156 56.5345 50.3156 56.5345 50.3862V53.0716C56.5345 53.0716 56.5345 53.1423 56.606 53.1423H59.9652C59.9652 53.1423 60.0366 53.1423 60.1081 53.1423C60.1081 53.1423 60.1081 53.1423 60.1081 53.2836V54.4143C60.1081 54.4143 60.1081 54.485 60.1081 54.5557C60.1081 54.5557 60.1081 54.5557 59.9652 54.5557H56.606C56.606 54.5557 56.5345 54.5557 56.5345 54.6263V57.453C56.5345 57.453 56.5345 57.5237 56.606 57.5237H61.609C61.609 57.5237 61.6805 57.5237 61.752 57.5237C61.752 57.5237 61.752 57.5237 61.752 57.665V58.7957C61.752 58.7957 61.752 58.8664 61.752 58.9371C61.752 58.9371 61.752 58.9371 61.609 58.9371H55.0336C55.0336 58.9371 54.9621 58.9371 54.8906 58.9371C54.8906 58.9371 54.8906 58.8664 54.8906 58.7957V49.0436C54.8906 49.0436 54.8906 48.9729 54.8906 48.9022C54.8906 48.9022 54.9621 48.9022 55.0336 48.9022H61.609C61.609 48.9022 61.6805 48.9022 61.752 48.9022C61.752 48.9022 61.752 48.9022 61.752 49.0436V50.1742Z" fill="#DE047B"/>
<path d="M69.1851 59.0078C69.1851 59.0078 69.0421 59.0078 68.9706 58.8664L67.0409 54.697C67.0409 54.697 67.0409 54.697 66.9694 54.697H65.1826C65.1826 54.697 65.1111 54.697 65.1111 54.7677V58.8664C65.1111 58.8664 65.1111 58.9371 65.1111 59.0078C65.1111 59.0078 65.1111 59.0078 64.9682 59.0078H63.6102C63.6102 59.0078 63.5388 59.0078 63.4673 59.0078C63.4673 59.0078 63.4673 58.9371 63.4673 58.8664V49.1142C63.4673 49.1142 63.4673 49.0436 63.4673 48.9729C63.4673 48.9729 63.5388 48.9729 63.6102 48.9729H67.6127C68.1844 48.9729 68.7562 49.1142 69.1851 49.3262C69.6139 49.5382 69.9713 49.8916 70.2571 50.3863C70.543 50.8103 70.6145 51.3756 70.6145 51.941C70.6145 52.577 70.4716 53.1423 70.1142 53.637C69.7568 54.1317 69.328 54.4143 68.6848 54.6263L70.7574 58.8664C70.7574 58.8664 70.7574 58.8664 70.7574 58.9371C70.7574 59.0078 70.7574 59.0784 70.6145 59.0784H69.1851V59.0078ZM65.1826 50.3156C65.1826 50.3156 65.1111 50.3156 65.1111 50.3863V53.2836C65.1111 53.2836 65.1111 53.3543 65.1826 53.3543H67.3983C67.8986 53.3543 68.2559 53.213 68.5418 52.9303C68.8277 52.6476 68.9706 52.2943 68.9706 51.7996C68.9706 51.3049 68.8277 50.9516 68.5418 50.6689C68.2559 50.3863 67.8986 50.2449 67.3983 50.2449H65.1826V50.3156Z" fill="#DE047B"/>
<path d="M79.3342 50.1742C79.3342 50.1742 79.3342 50.2449 79.3342 50.3156C79.3342 50.3156 79.3342 50.3156 79.1912 50.3156H74.1882C74.1882 50.3156 74.1167 50.3156 74.1167 50.3862V53.0716C74.1167 53.0716 74.1167 53.1423 74.1882 53.1423H77.5474C77.5474 53.1423 77.6188 53.1423 77.6903 53.1423C77.6903 53.1423 77.6903 53.1423 77.6903 53.2836V54.4143C77.6903 54.4143 77.6903 54.485 77.6903 54.5557C77.6903 54.5557 77.6903 54.5557 77.5474 54.5557H74.1882C74.1882 54.5557 74.1167 54.5557 74.1167 54.6263V57.453C74.1167 57.453 74.1167 57.5237 74.1882 57.5237H79.1912C79.1912 57.5237 79.2627 57.5237 79.3342 57.5237C79.3342 57.5237 79.3342 57.5237 79.3342 57.665V58.7957C79.3342 58.7957 79.3342 58.8664 79.3342 58.9371C79.3342 58.9371 79.3342 58.9371 79.1912 58.9371H72.6158C72.6158 58.9371 72.5443 58.9371 72.4728 58.9371C72.4728 58.9371 72.4728 58.8664 72.4728 58.7957V49.0436C72.4728 49.0436 72.4728 48.9729 72.4728 48.9022C72.4728 48.9022 72.5443 48.9022 72.6158 48.9022H79.1912C79.1912 48.9022 79.2627 48.9022 79.3342 48.9022C79.3342 48.9022 79.3342 48.9022 79.3342 49.0436V50.1742Z" fill="#DE047B"/>
<path d="M87.0532 49.0435C87.0532 49.0435 87.0532 48.9729 87.0532 48.9022C87.0532 48.9022 87.1246 48.9022 87.1961 48.9022H88.5541C88.5541 48.9022 88.6256 48.9022 88.697 48.9022C88.697 48.9022 88.697 48.9022 88.697 49.0435V58.7957C88.697 58.7957 88.697 58.8664 88.697 58.9371C88.697 58.9371 88.697 58.9371 88.5541 58.9371H87.2676C87.2676 58.9371 87.1246 58.937 87.0532 58.7957L82.8363 51.9409V58.6544C82.8363 58.6544 82.8363 58.725 82.8363 58.7957C82.8363 58.7957 82.8363 58.7957 82.6934 58.7957H81.3354C81.3354 58.7957 81.2639 58.7957 81.1924 58.7957C81.1924 58.7957 81.1924 58.725 81.1924 58.6544V48.9022C81.1924 48.9022 81.1924 48.8315 81.1924 48.7609C81.1924 48.7609 81.2639 48.7609 81.3354 48.7609H82.6219C82.6219 48.7609 82.7648 48.7609 82.8363 48.9022L87.0532 55.757C87.0532 55.757 87.0532 55.757 87.0532 55.6863V48.9729V49.0435Z" fill="#DE047B"/>
<path d="M94.2718 59.1491C93.5571 59.1491 92.9139 59.0077 92.3421 58.725C91.7703 58.4424 91.3415 58.0184 91.0556 57.5237C90.7697 57.029 90.6268 56.393 90.6268 55.757V52.1529C90.6268 51.4462 90.7697 50.8809 91.0556 50.3862C91.3415 49.8916 91.7703 49.4675 92.3421 49.1849C92.9139 48.9022 93.5571 48.7609 94.2718 48.7609C94.9866 48.7609 95.6298 48.9022 96.2016 49.1849C96.7734 49.4675 97.2022 49.8209 97.4881 50.3156C97.774 50.8102 97.9169 51.3756 97.9169 52.0116C97.9169 52.0116 97.9169 52.0823 97.9169 52.1529C97.9169 52.1529 97.9169 52.1529 97.774 52.1529H96.416C96.416 52.1529 96.2731 52.1529 96.2731 52.0823C96.2731 51.5169 96.0587 51.0222 95.7013 50.7396C95.3439 50.3862 94.8436 50.2449 94.2718 50.2449C93.7001 50.2449 93.1998 50.3862 92.8424 50.7396C92.485 51.0929 92.2706 51.5169 92.2706 52.0823V55.757C92.2706 56.3223 92.485 56.7463 92.8424 57.0997C93.1998 57.453 93.7001 57.5944 94.2718 57.5944C94.8436 57.5944 95.3439 57.453 95.7013 57.0997C96.0587 56.7463 96.2731 56.3223 96.2731 55.757C96.2731 55.6157 96.2731 55.6157 96.416 55.6157H97.774C97.774 55.6157 97.8455 55.6863 97.9169 55.6863C97.9169 55.6863 97.9169 55.6863 97.9169 55.757C97.9169 56.393 97.774 56.9583 97.4881 57.5237C97.2022 58.0184 96.7734 58.3717 96.2016 58.6544C95.6298 58.9371 94.9866 59.0784 94.2718 59.0784V59.1491Z" fill="#DE047B"/>
<path d="M106.708 50.1742C106.708 50.1742 106.708 50.2449 106.708 50.3156C106.708 50.3156 106.708 50.3156 106.565 50.3156H101.562C101.562 50.3156 101.491 50.3156 101.491 50.3862V53.0716C101.491 53.0716 101.491 53.1423 101.562 53.1423H104.921C104.921 53.1423 104.993 53.1423 105.064 53.1423C105.064 53.1423 105.064 53.1423 105.064 53.2836V54.4143C105.064 54.4143 105.064 54.485 105.064 54.5557C105.064 54.5557 105.064 54.5557 104.921 54.5557H101.562C101.562 54.5557 101.491 54.5557 101.491 54.6263V57.453C101.491 57.453 101.491 57.5237 101.562 57.5237H106.565C106.565 57.5237 106.637 57.5237 106.708 57.5237C106.708 57.5237 106.708 57.5237 106.708 57.665V58.7957C106.708 58.7957 106.708 58.8664 106.708 58.9371C106.708 58.9371 106.708 58.9371 106.565 58.9371H99.9896C99.9896 58.9371 99.9182 58.9371 99.8467 58.9371C99.8467 58.9371 99.8467 58.8664 99.8467 58.7957V49.0436C99.8467 49.0436 99.8467 48.9729 99.8467 48.9022C99.8467 48.9022 99.9181 48.9022 99.9896 48.9022H106.565C106.565 48.9022 106.637 48.9022 106.708 48.9022C106.708 48.9022 106.708 48.9022 106.708 49.0436V50.1742Z" fill="#DE047B"/>
<path d="M8.2193 45.4395C3.71655 45.4395 0 48.9729 0 53.3543C0 57.7357 3.64508 61.2691 8.2193 61.2691C12.7221 61.2691 16.4386 57.7357 16.4386 53.3543C16.4386 48.9729 12.7935 45.4395 8.2193 45.4395ZM12.865 57.8064C11.65 58.9371 10.0776 59.6438 8.2193 59.6438C6.4325 59.6438 4.78864 58.9371 3.57361 57.8064C2.35858 56.6757 1.64386 55.121 1.64386 53.3543C1.64386 51.5876 2.35858 50.0329 3.57361 48.9022C4.78864 47.7716 6.36103 47.0649 8.2193 47.0649C10.0061 47.0649 11.65 47.7716 12.865 48.9022C14.08 50.0329 14.7947 51.5876 14.7947 53.3543C14.7947 55.121 14.08 56.6757 12.865 57.8064Z" fill="#DE047B"/>
<path d="M7.07575 51.5169C8.00488 51.5169 8.79108 50.7396 8.79108 49.8209C8.79108 48.9022 8.00488 48.1249 7.07575 48.1249C6.14661 48.1249 5.36041 48.9022 5.36041 49.8209C5.36041 50.7396 6.14661 51.5169 7.07575 51.5169Z" fill="#DE047B"/>
<path d="M12.3647 53.3543C12.3647 54.3436 11.5785 55.121 10.6494 55.121C9.72022 55.121 8.93402 54.3436 8.93402 53.3543C8.93402 52.3649 9.72022 51.5876 10.6494 51.5876C11.5785 51.5876 12.3647 52.3649 12.3647 53.3543Z" fill="#DE047B"/>
<path d="M7.07575 58.4424C8.00488 58.4424 8.79108 57.6651 8.79108 56.7464C8.79108 55.8277 8.00488 55.0504 7.07575 55.0504C6.14661 55.0504 5.36041 55.8277 5.36041 56.7464C5.36041 57.6651 6.14661 58.4424 7.07575 58.4424Z" fill="#DE047B"/>
<path d="M13.8656 25.6525H6.64691V38.0194H1.7868V6.57214H13.9371C20.1552 6.57214 24.1576 10.6709 24.1576 16.1123C24.1576 21.5538 20.1552 25.6525 13.9371 25.6525H13.8656ZM13.5797 10.8122H6.57544V21.2711H13.5797C16.9389 21.2711 19.226 19.363 19.226 16.0416C19.226 12.7203 16.9389 10.7416 13.5797 10.7416V10.8122Z" fill="#DE047B"/>
<path d="M34.7355 38.0194C30.5186 38.0194 28.5889 35.122 28.5889 31.8006V6.57214H33.0916V31.5886C33.0916 33.2846 33.7349 34.2033 35.5217 34.2033H37.5229V38.0194H34.7355Z" fill="#DE047B"/>
<path d="M58.2498 35.8993C56.7489 37.454 54.3903 38.5847 51.2455 38.5847C48.1008 38.5847 45.8137 37.454 44.2413 35.8993C42.0256 33.638 41.4539 30.8112 41.4539 26.9245C41.4539 23.0378 42.0256 20.2817 44.2413 18.0203C45.7422 16.4656 48.0293 15.335 51.2455 15.335C54.4618 15.335 56.7489 16.4656 58.2498 18.0203C60.4655 20.2817 61.0372 23.1084 61.0372 26.9245C61.0372 30.7406 60.4655 33.638 58.2498 35.8993ZM54.6762 20.7057C53.8185 19.8577 52.6035 19.4337 51.1741 19.4337C49.7446 19.4337 48.6011 19.8577 47.7434 20.7057C46.314 22.1191 46.0995 24.4511 46.0995 26.9245C46.0995 29.3979 46.314 31.7299 47.7434 33.1433C48.6011 33.9913 49.7446 34.486 51.1741 34.486C52.6035 34.486 53.7471 33.9913 54.6762 33.1433C56.1057 31.7299 56.3201 29.3979 56.3201 26.9245C56.3201 24.4511 56.1057 22.1191 54.6762 20.7057Z" fill="#DE047B"/>
<path d="M79.3341 38.0194V24.3805C79.3341 20.9177 77.3329 19.363 74.7599 19.363C72.1869 19.363 70.0427 20.9177 70.0427 24.3805V38.0194H65.4685V15.6176H69.9713V17.879C71.5436 16.183 73.7593 15.335 76.0464 15.335C78.3335 15.335 80.3347 16.1123 81.6927 17.3843C83.408 19.0804 83.9798 21.2004 83.9798 23.6738V38.0194H79.4056H79.3341Z" fill="#DE047B"/>
<path d="M92.9854 28.3379C92.9854 32.2246 95.0581 34.698 98.8461 34.698C101.419 34.698 102.777 33.9913 104.421 32.3659L107.351 35.122C104.993 37.454 102.777 38.6554 98.7031 38.6554C92.9139 38.6554 88.3397 35.6873 88.3397 26.9952C88.3397 19.6457 92.1992 15.4056 98.1314 15.4056C104.064 15.4056 107.923 19.8577 107.923 26.2885V28.2672H92.9854V28.3379ZM102.706 22.0484C101.991 20.3524 100.347 19.151 98.1314 19.151C95.9157 19.151 94.2719 20.2817 93.5571 22.0484C93.1283 23.1084 92.9854 23.7445 92.9854 25.1578H103.349C103.349 23.7445 103.134 23.1084 102.706 22.0484Z" fill="#DE047B"/>
<path d="M138.728 20.9177L142.23 15.1936H160.098L147.519 36.3233L138.728 20.9884V20.9177Z" fill="#DE047B"/>
<path d="M138.442 51.5876L150.735 73H168.603L147.59 36.3233L138.513 51.6583L138.442 51.5876Z" fill="#ED9FD1"/>
<path d="M138.37 51.5876L129.651 36.4647L116.428 59.0784H133.796L138.299 51.5169L138.37 51.5876Z" fill="#ED9FD1"/>
<path d="M138.728 20.9884L126.863 0H108.566L129.722 36.4647L138.728 20.9884Z" fill="#DE047B"/>
<path d="M176.608 49.1142C176.608 49.1142 176.608 49.1849 176.608 49.2556C176.608 49.2556 176.536 49.2556 176.465 49.2556H170.89C170.89 49.2556 170.819 49.2556 170.819 49.3262V52.365C170.819 52.365 170.819 52.4356 170.89 52.4356H174.607C174.607 52.4356 174.678 52.4356 174.75 52.4356C174.75 52.4356 174.75 52.5063 174.75 52.577V53.7783C174.75 53.7783 174.75 53.849 174.75 53.9197C174.75 53.9197 174.678 53.9197 174.607 53.9197H170.89C170.89 53.9197 170.819 53.9197 170.819 53.9903V57.0997C170.819 57.0997 170.819 57.1704 170.89 57.1704H176.465C176.465 57.1704 176.536 57.1704 176.608 57.1704C176.608 57.1704 176.608 57.2411 176.608 57.3117V58.5131C176.608 58.5131 176.608 58.5838 176.608 58.6544C176.608 58.6544 176.536 58.6544 176.465 58.6544H169.103C169.103 58.6544 169.032 58.6544 168.96 58.6544C168.96 58.6544 168.96 58.5837 168.96 58.5131V47.5595C168.96 47.5595 168.96 47.4889 168.96 47.4182C168.96 47.4182 169.032 47.4182 169.103 47.4182H176.465C176.465 47.4182 176.536 47.4182 176.608 47.4182C176.608 47.4182 176.608 47.4889 176.608 47.5595V48.7609V49.1142Z" fill="#ED9FD1"/>
<path d="M178.752 59.0078C178.752 59.0078 178.681 59.0078 178.609 59.0078C178.609 59.0078 178.609 58.9371 178.609 58.8664V47.9129C178.609 47.9129 178.609 47.8422 178.609 47.7715C178.609 47.7715 178.681 47.7715 178.752 47.7715H180.253C180.253 47.7715 180.324 47.7715 180.396 47.7715C180.396 47.7715 180.396 47.8422 180.396 47.9129V58.8664C180.396 58.8664 180.396 58.9371 180.396 59.0078C180.396 59.0078 180.324 59.0078 180.253 59.0078H178.752Z" fill="#ED9FD1"/>
<path d="M189.258 53.0716C189.258 53.0716 189.258 53.0716 189.258 53.1423C190.402 53.637 190.902 54.5557 190.902 55.8277C190.902 56.8877 190.545 57.665 189.83 58.1597C189.115 58.6544 188.258 58.9371 187.114 58.9371H182.969C182.969 58.9371 182.897 58.9371 182.826 58.9371C182.826 58.9371 182.826 58.8664 182.826 58.7957V47.8422C182.826 47.8422 182.826 47.7715 182.826 47.7009C182.826 47.7009 182.897 47.7009 182.969 47.7009H186.971C188.186 47.7009 189.115 47.9835 189.759 48.4782C190.402 48.9729 190.759 49.7502 190.759 50.8103C190.759 51.9409 190.259 52.7183 189.258 53.1423V53.0716ZM184.827 49.2556C184.827 49.2556 184.756 49.2556 184.756 49.3262V52.2943C184.756 52.2943 184.756 52.365 184.827 52.365H187.043C187.615 52.365 188.043 52.2236 188.401 51.9409C188.758 51.6583 188.901 51.3049 188.901 50.8103C188.901 50.3156 188.758 49.8916 188.401 49.6089C188.043 49.3262 187.615 49.1849 187.043 49.1849H184.827V49.2556ZM187.186 57.3117C187.757 57.3117 188.186 57.1704 188.544 56.8877C188.901 56.605 189.044 56.181 189.044 55.6863C189.044 55.1917 188.901 54.7677 188.544 54.485C188.186 54.2023 187.757 54.061 187.186 54.061H184.899C184.899 54.061 184.827 54.061 184.827 54.1316V57.3117C184.827 57.3117 184.827 57.3824 184.899 57.3824H187.257L187.186 57.3117Z" fill="#ED9FD1"/>
<path d="M199.622 59.0077C199.622 59.0077 199.407 59.0077 199.407 58.8664L198.836 57.0997C198.836 57.0997 198.836 57.0997 198.764 57.0997H194.404C194.404 57.0997 194.404 57.0997 194.333 57.0997L193.761 58.8664C193.761 58.8664 193.69 59.0077 193.547 59.0077H191.903H191.76C191.76 59.0077 191.76 58.9371 191.76 58.7957L195.334 47.8422C195.334 47.8422 195.405 47.7009 195.548 47.7009H197.621C197.621 47.7009 197.835 47.7009 197.835 47.8422L201.409 58.7957C201.409 58.7957 201.409 58.7957 201.409 58.8664C201.409 58.9371 201.409 59.0077 201.194 59.0077H199.55H199.622ZM194.905 55.4743V55.545H198.264C198.264 55.545 198.335 55.545 198.264 55.4743L196.549 50.0329L194.905 55.4743Z" fill="#ED9FD1"/>
<path d="M209.556 59.0078C209.556 59.0078 209.342 59.0077 209.342 58.8664L207.198 54.2023C207.198 54.2023 207.198 54.2023 207.126 54.2023H205.125C205.125 54.2023 205.054 54.2023 205.054 54.273V58.8664C205.054 58.8664 205.054 58.9371 205.054 59.0078C205.054 59.0078 204.982 59.0078 204.911 59.0078H203.41C203.41 59.0078 203.338 59.0078 203.267 59.0078C203.267 59.0078 203.267 58.9371 203.267 58.8664V47.9129C203.267 47.9129 203.267 47.8422 203.267 47.7715C203.267 47.7715 203.338 47.7715 203.41 47.7715H207.913C208.556 47.7715 209.199 47.9129 209.699 48.1956C210.2 48.4782 210.629 48.8316 210.914 49.3969C211.2 49.8916 211.343 50.4569 211.343 51.0929C211.343 51.8703 211.129 52.5063 210.772 53.001C210.414 53.4956 209.842 53.849 209.199 54.061L211.486 58.7957V58.8664C211.486 58.9371 211.486 59.0078 211.272 59.0078H209.699H209.556ZM205.125 49.2556C205.125 49.2556 205.054 49.2556 205.054 49.3262V52.577C205.054 52.577 205.054 52.6476 205.125 52.6476H207.555C208.056 52.6476 208.484 52.5063 208.842 52.2236C209.199 51.941 209.342 51.5169 209.342 51.0223C209.342 50.5276 209.199 50.1036 208.842 49.8209C208.556 49.5382 208.127 49.3262 207.555 49.3262H205.125V49.2556Z" fill="#ED9FD1"/>
<path d="M173.677 34.5567C173.677 34.5567 173.677 34.6273 173.677 34.698C173.677 34.698 173.677 34.698 173.82 34.698H182.969C182.969 34.698 183.183 34.698 183.255 34.8393C183.326 34.8393 183.398 34.9807 183.398 35.122V37.5247C183.398 37.5247 183.398 37.7367 183.255 37.8074C183.255 37.8074 183.112 37.8781 182.969 37.8781H169.103C169.103 37.8781 168.889 37.878 168.817 37.8074C168.817 37.7367 168.746 37.5954 168.746 37.5247V35.2633C168.746 35.2633 168.746 34.91 168.96 34.7687C170.604 33.0726 172.462 30.9526 174.607 28.4085L176.107 26.6418C178.109 24.3805 179.038 22.6844 179.038 21.4831C179.038 20.6351 178.752 19.9284 178.109 19.363C177.465 18.7977 176.679 18.515 175.679 18.515C174.678 18.515 173.892 18.7977 173.249 19.363C172.677 19.9284 172.319 20.6351 172.319 21.5538V22.4018C172.319 22.4018 172.319 22.6138 172.177 22.6844C172.177 22.6844 172.034 22.7551 171.891 22.7551H168.889C168.889 22.7551 168.674 22.7551 168.603 22.6844C168.603 22.6138 168.531 22.4724 168.531 22.4018V21.0591C168.531 19.9284 168.889 18.939 169.532 18.091C170.175 17.243 170.961 16.607 172.034 16.1123C173.106 15.6176 174.321 15.4056 175.607 15.4056C177.037 15.4056 178.323 15.6883 179.395 16.183C180.467 16.7483 181.325 17.455 181.897 18.3737C182.469 19.2924 182.754 20.2817 182.754 21.4831C182.754 23.2498 181.825 25.2285 179.967 27.4899C178.966 28.7619 177.251 30.6699 174.892 33.214L173.677 34.5567Z" fill="#ED9FD1"/>
<path d="M193.261 38.2314C190.974 38.2314 189.187 37.5954 187.9 36.3233C186.614 35.0513 185.971 33.3553 185.971 31.2353V22.2604C185.971 20.1404 186.614 18.4444 187.9 17.243C189.258 15.971 191.045 15.335 193.261 15.335C195.477 15.335 197.335 15.971 198.621 17.243C199.979 18.4444 200.622 20.1404 200.622 22.2604V31.2353C200.622 33.3553 199.979 35.0513 198.621 36.3233C197.263 37.5954 195.477 38.2314 193.261 38.2314ZM193.261 35.0513C194.404 35.0513 195.262 34.698 195.905 34.062C196.549 33.426 196.906 32.5073 196.906 31.4473V22.1898C196.906 21.0591 196.549 20.211 195.905 19.575C195.262 18.939 194.333 18.5857 193.261 18.5857C192.189 18.5857 191.26 18.939 190.616 19.575C189.973 20.211 189.616 21.0591 189.616 22.1898V31.4473C189.616 32.5779 189.973 33.426 190.616 34.062C191.26 34.698 192.189 35.0513 193.261 35.0513Z" fill="#ED9FD1"/>
<path d="M208.413 34.5567C208.413 34.5567 208.413 34.6273 208.413 34.698C208.413 34.698 208.413 34.698 208.556 34.698H217.704C217.704 34.698 217.919 34.698 217.99 34.8393C218.062 34.8393 218.133 34.9807 218.133 35.122V37.5247C218.133 37.5247 218.133 37.7367 217.99 37.8074C217.99 37.8074 217.847 37.8781 217.704 37.8781H203.839C203.839 37.8781 203.624 37.878 203.553 37.8074C203.553 37.7367 203.481 37.5954 203.481 37.5247V35.2633C203.481 35.2633 203.481 34.91 203.696 34.7687C205.34 33.0726 207.198 30.9526 209.342 28.4085L210.843 26.6418C212.844 24.3805 213.773 22.6844 213.773 21.4831C213.773 20.6351 213.487 19.9284 212.844 19.363C212.201 18.7977 211.415 18.515 210.414 18.515C209.414 18.515 208.627 18.7977 207.984 19.363C207.412 19.9284 207.055 20.6351 207.055 21.5538V22.4018C207.055 22.4018 207.055 22.6138 206.912 22.6844C206.912 22.6844 206.769 22.7551 206.626 22.7551H203.624C203.624 22.7551 203.41 22.7551 203.338 22.6844C203.338 22.6138 203.267 22.4724 203.267 22.4018V21.0591C203.267 19.9284 203.624 18.939 204.268 18.091C204.911 17.243 205.697 16.607 206.769 16.1123C207.841 15.6176 209.056 15.4056 210.343 15.4056C211.772 15.4056 213.059 15.6883 214.131 16.183C215.203 16.7483 216.06 17.455 216.632 18.3737C217.204 19.2924 217.49 20.2817 217.49 21.4831C217.49 23.2498 216.561 25.2285 214.702 27.4899C213.702 28.7619 211.987 30.6699 209.628 33.214L208.413 34.5567Z" fill="#ED9FD1"/>
<path d="M233.357 27.2778C233.786 28.2672 234 29.4685 234 30.8112C234 32.0126 233.786 33.0726 233.428 33.9913C232.928 35.334 232.142 36.394 230.998 37.1007C229.855 37.8073 228.497 38.1607 226.853 38.1607C225.209 38.1607 223.851 37.7367 222.707 36.9593C221.564 36.182 220.706 35.0513 220.206 33.7086C219.92 33.0726 219.777 32.2246 219.777 31.1646C219.777 30.8819 219.92 30.8112 220.134 30.8112H223.136C223.136 30.8112 223.494 30.9525 223.494 31.1646C223.494 31.8712 223.637 32.3659 223.779 32.7899C223.994 33.4966 224.351 33.9913 224.852 34.4153C225.423 34.7686 226.067 34.9806 226.781 34.9806C228.211 34.9806 229.14 34.3446 229.712 33.0726C229.998 32.4366 230.141 31.6592 230.141 30.6699C230.141 29.6099 229.998 28.6912 229.64 27.9845C229.068 26.7831 228.139 26.2178 226.71 26.2178C226.352 26.2178 225.852 26.4298 225.209 26.8538C225.137 26.8538 225.066 26.8538 224.995 26.8538C224.852 26.8538 224.78 26.8538 224.637 26.6418L223.136 24.5924C223.136 24.5924 223.065 24.3804 223.065 24.3098C223.065 24.1684 223.065 24.0978 223.208 24.0271L228.497 18.8683C228.497 18.8683 228.497 18.7977 228.497 18.727C228.497 18.727 228.497 18.727 228.354 18.727H220.277C220.277 18.727 220.063 18.727 219.991 18.6563C219.991 18.5857 219.92 18.4443 219.92 18.3737V15.9709C219.92 15.9709 219.92 15.7589 219.991 15.6883C220.063 15.6176 220.206 15.5469 220.277 15.5469H233.142C233.142 15.5469 233.357 15.5469 233.428 15.6883C233.5 15.6883 233.571 15.8296 233.571 15.9709V18.727C233.571 18.727 233.571 19.0803 233.357 19.2217L228.783 23.8151C228.783 23.8151 228.783 23.9564 228.925 24.0271C230.927 24.3098 232.356 25.3698 233.142 27.2778H233.357Z" fill="#ED9FD1"/>
<path d="M110.353 11.3069C108.995 11.3069 107.923 12.3669 107.923 13.7096C107.923 15.0523 108.995 16.1123 110.353 16.1123C111.711 16.1123 112.783 15.0523 112.783 13.7096C112.783 12.3669 111.711 11.3069 110.353 11.3069ZM110.353 15.759C109.21 15.759 108.28 14.8403 108.28 13.7096C108.28 12.5789 109.21 11.6602 110.353 11.6602C111.497 11.6602 112.426 12.5789 112.426 13.7096C112.426 14.8403 111.497 15.759 110.353 15.759Z" fill="#DE047B"/>
<path d="M110.925 15.1229L110.353 13.9216H109.781V15.1229H109.352V12.2962H110.496C111.068 12.2962 111.354 12.6495 111.354 13.1442C111.354 13.5682 111.068 13.7802 110.782 13.9216L111.425 15.1936H110.925V15.1229ZM110.425 12.6495H109.781V13.5682H110.425C110.425 13.5682 110.925 13.4269 110.925 13.1442C110.925 12.8615 110.71 12.7202 110.425 12.7202V12.6495Z" fill="#DE047B"/>
</g>
<defs>
<clipPath id="clip0_12_40165">
<rect width="234" height="73" fill="white"/>
</clipPath>
</defs>
</svg>
