<?xml version="1.0" encoding="UTF-8"?><svg id="uuid-e47a911e-08c2-4846-a1ad-8bbb5957dedf" xmlns="http://www.w3.org/2000/svg" viewBox="0 0 1110.11 553.21"><g id="uuid-490aa1f6-2632-4735-830a-460087b98add"><rect x="397.24" y="200.22" width="300.26" height="61.15" style="fill:#b2b2b2; stroke-width:0px;"/><rect x="577.14" y="182.95" width="19.81" height="5.25" style="stroke-width:0px;"/><rect x="604.22" y="182.95" width="19.81" height="5.25" style="stroke-width:0px;"/><rect x="631.29" y="182.95" width="19.81" height="5.25" style="stroke-width:0px;"/><rect x="658.36" y="182.95" width="19.81" height="5.25" style="stroke-width:0px;"/><rect x="537.95" y="329.37" width="86.58" height="30.05" style="fill:#b2b2b2; stroke-width:0px;"/><rect x="469.9" y="329.49" width="60.36" height="5.75" style="stroke-width:0px;"/><rect x="469.9" y="342.77" width="60.36" height="5.75" style="stroke-width:0px;"/><g id="uuid-dd8deb2f-707d-42c6-9bbc-3b1fe7724073"><g id="uuid-cc19aeb1-7f33-4242-b5e7-019168fdbf07"><path d="m417.95,170.29c.11-.64-.31-1.25-.95-1.36s-1.25.31-1.36.95.31,1.25.95,1.36,1.25-.31,1.36-.95h0" style="stroke-width:0px;"/><path d="m450.11,170.29c.11-.64-.31-1.25-.95-1.36s-1.25.31-1.36.95.31,1.25.95,1.36h0c.64.11,1.25-.31,1.36-.95h0" style="stroke-width:0px;"/><path d="m417.9,176.62v13.2c0,.74-.37,1.11-1.1,1.11s-1.1-.37-1.1-1.11v-13.2c0-.73.37-1.09,1.1-1.09s1.1.36,1.1,1.09" style="stroke-width:0px;"/><path d="m445.02,189.87c0,.7-.38,1.06-1.14,1.06-.58,0-.93-.29-1.05-.86l-3.65-16.44-5.17,12.05c-.24.57-.6.86-1.09.86s-.85-.29-1.09-.86l-5.18-12.08-3.66,16.46c-.12.58-.47.86-1.04.86-.75,0-1.13-.35-1.13-1.06,0-.09.02-.18.05-.27l4.36-19.6c.15-.71.52-1.06,1.12-1.06.47,0,.83.28,1.08.84l5.5,12.83,5.5-12.83c.24-.56.6-.84,1.08-.84.6,0,.97.35,1.14,1.06l4.35,19.6c.02.09.03.18.03.27" style="fill:#b2b2b2; stroke-width:0px;"/><path d="m450.14,176.62v13.2c0,.74-.37,1.11-1.1,1.11s-1.1-.37-1.1-1.11v-13.2c0-.73.37-1.09,1.1-1.09s1.1.36,1.1,1.09" style="stroke-width:0px;"/><path d="m468.46,183.23c0,2.13-.75,3.95-2.26,5.45s-3.32,2.26-5.44,2.26-3.93-.75-5.44-2.26c-1.51-1.5-2.26-3.32-2.26-5.45s.75-3.93,2.26-5.43,3.32-2.26,5.44-2.25c2.12,0,3.93.75,5.44,2.25s2.26,3.31,2.26,5.43m-2.19,0c0-1.5-.54-2.8-1.62-3.88s-2.37-1.62-3.89-1.62-2.81.54-3.89,1.62c-1.08,1.08-1.61,2.37-1.62,3.88,0,1.51.54,2.81,1.62,3.89s2.37,1.62,3.89,1.62,2.81-.54,3.89-1.62c1.08-1.08,1.62-2.38,1.62-3.89" style="stroke-width:0px;"/></g></g><rect x="479.86" y="276.2" width="27.73" height="27.73" style="fill:#b2b2b2; stroke-width:0px;"/><rect x="534.02" y="276.2" width="27.73" height="27.73" style="fill:#b2b2b2; stroke-width:0px;"/><rect x="588.16" y="276.2" width="27.73" height="27.73" style="fill:#b2b2b2; stroke-width:0px;"/><rect x="398.24" y="136.81" width="299.27" height="222.6" rx="13.06" ry="13.06" style="fill:none; stroke:#000; stroke-miterlimit:10; stroke-width:3.31px;"/><rect x="1.79" y="200.22" width="299.13" height="91.8" style="fill:#b2b2b2; stroke-width:0px;"/><rect x="1.79" y="200.22" width="299.13" height="16.48" style="fill:#007db6; stroke-width:0px;"/><rect x="1.65" y="136.81" width="299.27" height="222.6" rx="13.06" ry="13.06" style="fill:none; stroke:#000; stroke-miterlimit:10; stroke-width:3.31px;"/><rect x="227.09" y="181.93" width="23.28" height="5.25" style="stroke-width:0px;"/><rect x="260.3" y="181.93" width="23.28" height="5.25" style="stroke-width:0px;"/><path d="m23.66,170.23c-5.36,0-9.7,4.24-9.7,9.46s4.34,9.46,9.7,9.46,9.7-4.24,9.7-9.46-4.34-9.46-9.7-9.46Zm5.46,14.78c-1.4,1.36-3.32,2.21-5.46,2.21s-4.06-.84-5.46-2.21c-1.4-1.37-2.26-3.24-2.26-5.32s.86-3.96,2.26-5.32,3.32-2.21,5.46-2.21,4.06.84,5.46,2.21c1.4,1.37,2.26,3.24,2.26,5.32s-.86,3.96-2.26,5.32Z" style="fill:#007db6; stroke-width:0px;"/><path d="m22.37,177.56c1.11,0,2.01-.9,2.01-2.01s-.9-2.01-2.01-2.01-2.01.9-2.01,2.01.9,2.01,2.01,2.01Z" style="fill:#007db6; stroke-width:0px;"/><path d="m28.63,179.7c0,1.18-.9,2.13-2.01,2.13s-2.01-.95-2.01-2.13.9-2.13,2.01-2.13,2.01.95,2.01,2.13Z" style="fill:#007db6; stroke-width:0px;"/><path d="m22.37,185.84c1.11,0,2.01-.9,2.01-2.01s-.9-2.01-2.01-2.01-2.01.9-2.01,2.01.9,2.01,2.01,2.01Z" style="fill:#007db6; stroke-width:0px;"/><path d="m41.44,181.59h-3.23v5.57h-2.15v-14.15h5.39c2.77,0,4.55,1.83,4.55,4.29s-1.77,4.29-4.55,4.29h0Zm-.12-6.66h-3.11v4.71h3.11c1.5,0,2.51-.85,2.51-2.35s-1.02-2.37-2.51-2.37h0Z" style="fill:#007db6; stroke-width:0px;"/><path d="m50.71,187.14c-1.89,0-2.73-1.29-2.73-2.78v-11.37h2.01v11.25c0,.78.27,1.17,1.08,1.17h.89v1.73h-1.25Z" style="fill:#007db6; stroke-width:0px;"/><path d="m61.14,186.18c-.68.68-1.71,1.21-3.12,1.21s-2.42-.52-3.1-1.21c-.99-1-1.23-2.29-1.23-4.02s.25-2.99,1.23-4c.68-.68,1.69-1.21,3.1-1.21s2.45.52,3.12,1.21c.99,1,1.23,2.29,1.23,4s-.25,3.01-1.23,4.02Zm-1.58-6.81c-.39-.38-.92-.58-1.54-.58s-1.13.2-1.52.58c-.64.62-.72,1.69-.72,2.79s.08,2.17.72,2.79c.39.38.9.6,1.52.6s1.15-.22,1.54-.6c.64-.62.72-1.69.72-2.79s-.08-2.17-.72-2.79Z" style="fill:#007db6; stroke-width:0px;"/><path d="m70.52,187.14v-6.13c0-1.57-.9-2.24-2.03-2.24s-2.09.69-2.09,2.24v6.13h-2.03v-10.06h1.99v1.01c.7-.75,1.67-1.13,2.69-1.13s1.89.34,2.49.91c.78.75,1.02,1.71,1.02,2.84v6.43h-2.04Z" style="fill:#007db6; stroke-width:0px;"/><path d="m76.59,182.78c0,1.75.93,2.85,2.61,2.85,1.15,0,1.76-.32,2.49-1.04l1.31,1.23c-1.05,1.04-2.04,1.59-3.84,1.59-2.57,0-4.61-1.35-4.61-5.22,0-3.3,1.72-5.2,4.35-5.2s4.35,2.01,4.35,4.9v.9h-6.66Zm4.32-2.81c-.32-.76-1.05-1.29-2.02-1.29s-1.72.52-2.04,1.29c-.2.46-.24.76-.26,1.39h4.61c-.02-.62-.08-.92-.28-1.39h-.01Z" style="fill:#007db6; stroke-width:0px;"/><path d="m84.31,175.12c-.59,0-1.07.48-1.07,1.08s.48,1.08,1.07,1.08,1.08-.48,1.08-1.08-.48-1.08-1.08-1.08Zm0,1.99c-.51,0-.92-.41-.92-.92s.41-.92.92-.92.92.41.92.92-.41.92-.92.92Z" style="fill:#007db6; stroke-width:0px;"/><path d="m84.56,176.84l-.27-.54h-.24v.54h-.19v-1.27h.49c.24,0,.4.16.4.37,0,.18-.11.3-.25.34l.29.56h-.23Zm-.22-1.1h-.29v.4h.29c.13,0,.22-.07.22-.2s-.09-.2-.22-.2Z" style="fill:#007db6; stroke-width:0px;"/><rect x="152.43" y="319.52" width="173.44" height="88.51" style="fill:#fff; stroke:#007db6; stroke-miterlimit:10; stroke-width:3.59px;"/><rect x="231.02" y="335.77" width="82.53" height="55.86" style="fill:#b2b2b2; stroke-width:0px;"/><rect x="166.15" y="345.4" width="57.54" height="5.75" style="stroke-width:0px;"/><rect x="166.15" y="358.68" width="57.54" height="5.75" style="stroke-width:0px;"/><rect x="166.15" y="371.96" width="57.54" height="5.75" style="stroke-width:0px;"/><rect x="144.76" y="400.52" width="15.66" height="15.66" style="fill:#007db6; stroke-width:0px;"/><rect x="316.73" y="400.52" width="15.66" height="15.66" style="fill:#007db6; stroke-width:0px;"/><rect x="145.34" y="311.68" width="15.66" height="15.66" style="fill:#007db6; stroke-width:0px;"/><rect x="317.3" y="311.68" width="15.66" height="15.66" style="fill:#007db6; stroke-width:0px;"/><rect x="33.46" y="256.83" width="47.34" height="11.74" style="fill:#007db6; stroke-width:0px;"/><rect x="33.46" y="243.28" width="64.94" height="5.25" style="fill:#fff; stroke-width:0px;"/><path d="m67.09,474.59v-22.99h8.05c2.79,0,4.9.53,6.35,1.6,1.44,1.07,2.16,2.63,2.16,4.7,0,1.13-.29,2.12-.87,2.98-.58.86-1.38,1.49-2.42,1.89,1.18.29,2.11.89,2.79,1.78.68.89,1.02,1.99,1.02,3.28,0,2.21-.71,3.88-2.12,5.02-1.41,1.14-3.42,1.72-6.03,1.74h-8.94.01Zm4.74-13.36h3.5c2.39-.04,3.58-1,3.58-2.86,0-1.04-.3-1.79-.91-2.25-.6-.46-1.56-.69-2.87-.69h-3.31v5.79h.01Zm0,3.35v6.2h4.06c1.12,0,1.99-.27,2.61-.8.63-.53.94-1.27.94-2.2,0-2.11-1.09-3.17-3.27-3.21h-4.34Z" style="fill:#007db6; stroke-width:0px;"/><path d="m97.34,474.59c-.21-.41-.36-.92-.46-1.53-1.1,1.23-2.54,1.85-4.31,1.85-1.67,0-3.06-.48-4.16-1.45s-1.65-2.19-1.65-3.66c0-1.81.67-3.2,2.01-4.17,1.34-.97,3.28-1.46,5.82-1.47h2.1v-.98c0-.79-.2-1.42-.61-1.89s-1.04-.71-1.92-.71c-.77,0-1.37.18-1.81.55-.44.37-.66.87-.66,1.51h-4.56c0-.99.3-1.9.92-2.75.61-.84,1.47-1.5,2.59-1.98,1.12-.48,2.37-.72,3.76-.72,2.1,0,3.78.53,5.01,1.59s1.85,2.54,1.85,4.46v7.4c.01,1.62.24,2.85.68,3.68v.27h-4.61,0Zm-3.77-3.17c.67,0,1.29-.15,1.86-.45s.99-.7,1.26-1.21v-2.94h-1.71c-2.28,0-3.5.79-3.65,2.37l-.02.27c0,.57.2,1.04.6,1.41s.95.55,1.64.55h.02Z" style="fill:#007db6; stroke-width:0px;"/><path d="m114.37,461.78c-.62-.08-1.17-.13-1.64-.13-1.73,0-2.86.58-3.39,1.75v11.18h-4.56v-17.08h4.31l.13,2.04c.92-1.57,2.18-2.35,3.8-2.35.51,0,.98.07,1.42.21l-.06,4.39h-.01Z" style="fill:#007db6; stroke-width:0px;"/><path d="m123.37,471.23c.84,0,1.53-.23,2.05-.7.53-.46.8-1.08.82-1.85h4.28c0,1.16-.33,2.22-.95,3.18s-1.47,1.71-2.55,2.24-2.27.8-3.58.8c-2.44,0-4.37-.78-5.78-2.33s-2.12-3.7-2.12-6.43v-.3c0-2.63.7-4.73,2.1-6.3,1.4-1.57,3.32-2.35,5.76-2.35,2.14,0,3.85.61,5.14,1.82,1.29,1.22,1.94,2.83,1.97,4.85h-4.28c-.02-.89-.29-1.61-.82-2.17s-1.22-.83-2.08-.83c-1.06,0-1.87.39-2.41,1.16s-.81,2.03-.81,3.77v.47c0,1.76.27,3.03.81,3.79.54.77,1.35,1.15,2.45,1.15v.03Z" style="fill:#007db6; stroke-width:0px;"/><path d="m140.98,474.9c-2.5,0-4.54-.77-6.12-2.3-1.57-1.54-2.36-3.58-2.36-6.14v-.44c0-1.72.33-3.25.99-4.6s1.6-2.39,2.82-3.13,2.6-1.1,4.16-1.1c2.34,0,4.18.74,5.52,2.21,1.34,1.47,2.01,3.56,2.01,6.27v1.86h-10.88c.15,1.12.59,2.01,1.33,2.68.74.67,1.68,1.01,2.82,1.01,1.76,0,3.13-.64,4.12-1.91l2.24,2.51c-.68.97-1.61,1.72-2.78,2.27-1.17.54-2.46.81-3.88.81h0Zm-.52-14.03c-.91,0-1.64.31-2.2.92-.56.61-.92,1.49-1.08,2.63h6.35v-.36c-.02-1.02-.29-1.8-.82-2.36-.53-.55-1.27-.83-2.24-.83h0Z" style="fill:#007db6; stroke-width:0px;"/><path d="m155.42,474.59h-4.58v-24.25h4.58v24.25Z" style="fill:#007db6; stroke-width:0px;"/><path d="m158.45,465.9c0-1.69.33-3.21.98-4.53.65-1.33,1.59-2.35,2.82-3.08,1.23-.73,2.65-1.09,4.27-1.09,2.31,0,4.19.71,5.64,2.12,1.46,1.41,2.27,3.33,2.44,5.75l.03,1.17c0,2.62-.73,4.72-2.19,6.31s-3.43,2.38-5.89,2.38-4.43-.79-5.9-2.37-2.2-3.73-2.2-6.44v-.21h0Zm4.56.32c0,1.62.31,2.87.92,3.72.61.86,1.48,1.29,2.62,1.29s1.97-.42,2.59-1.27.93-2.21.93-4.07c0-1.59-.31-2.82-.93-3.7s-1.49-1.31-2.62-1.31-1.98.43-2.59,1.3-.92,2.22-.92,4.04Z" style="fill:#007db6; stroke-width:0px;"/><path d="m181.64,457.5l.14,1.97c1.22-1.53,2.86-2.29,4.91-2.29,1.81,0,3.16.53,4.04,1.59.88,1.06,1.34,2.65,1.36,4.77v11.04h-4.56v-10.92c0-.97-.21-1.67-.63-2.11-.42-.44-1.12-.66-2.1-.66-1.28,0-2.25.55-2.89,1.64v12.05h-4.56v-17.08h4.29Z" style="fill:#007db6; stroke-width:0px;"/><path d="m203.42,474.9c-2.5,0-4.54-.77-6.12-2.3-1.57-1.54-2.36-3.58-2.36-6.14v-.44c0-1.72.33-3.25.99-4.6s1.6-2.39,2.82-3.13,2.6-1.1,4.16-1.1c2.34,0,4.18.74,5.52,2.21,1.34,1.47,2.01,3.56,2.01,6.27v1.86h-10.88c.15,1.12.59,2.01,1.33,2.68.74.67,1.68,1.01,2.82,1.01,1.76,0,3.13-.64,4.12-1.91l2.24,2.51c-.68.97-1.61,1.72-2.78,2.27-1.17.54-2.46.81-3.88.81h0Zm-.52-14.03c-.91,0-1.64.31-2.2.92-.56.61-.92,1.49-1.08,2.63h6.35v-.36c-.02-1.02-.29-1.8-.82-2.36-.53-.55-1.27-.83-2.24-.83h0Z" style="fill:#007db6; stroke-width:0px;"/><path d="m218.5,453.3v4.2h2.92v3.35h-2.92v8.52c0,.63.12,1.08.36,1.36.24.27.71.41,1.39.41.51,0,.95-.04,1.34-.11v3.46c-.9.27-1.82.41-2.76.41-3.2,0-4.83-1.62-4.89-4.85v-9.2h-2.49v-3.35h2.49v-4.2h4.56Z" style="fill:#007db6; stroke-width:0px;"/><path d="m233.86,474.59c-.21-.41-.36-.92-.46-1.53-1.1,1.23-2.54,1.85-4.31,1.85-1.67,0-3.06-.48-4.16-1.45s-1.65-2.19-1.65-3.66c0-1.81.67-3.2,2.01-4.17s3.28-1.46,5.82-1.47h2.1v-.98c0-.79-.2-1.42-.61-1.89s-1.04-.71-1.92-.71c-.77,0-1.37.18-1.81.55s-.66.87-.66,1.51h-4.56c0-.99.3-1.9.92-2.75.61-.84,1.47-1.5,2.59-1.98s2.37-.72,3.76-.72c2.1,0,3.78.53,5.01,1.59s1.85,2.54,1.85,4.46v7.4c0,1.62.24,2.85.68,3.68v.27h-4.61.01Zm-3.77-3.17c.67,0,1.29-.15,1.86-.45s.99-.7,1.26-1.21v-2.94h-1.71c-2.28,0-3.5.79-3.65,2.37l-.02.27c0,.57.2,1.04.6,1.41s.95.55,1.64.55h.02Z" style="fill:#007db6; stroke-width:0px;"/><path d="m508.15,474.59v-22.99h8.05c2.79,0,4.9.53,6.35,1.6,1.44,1.07,2.16,2.63,2.16,4.7,0,1.13-.29,2.12-.87,2.98-.58.86-1.38,1.49-2.42,1.89,1.18.29,2.11.89,2.79,1.78.68.89,1.02,1.99,1.02,3.28,0,2.21-.71,3.88-2.12,5.02-1.41,1.14-3.42,1.72-6.03,1.74h-8.94.01Zm4.74-13.36h3.5c2.39-.04,3.58-1,3.58-2.86,0-1.04-.3-1.79-.91-2.25-.6-.46-1.56-.69-2.87-.69h-3.31v5.79h0Zm0,3.35v6.2h4.06c1.12,0,1.99-.27,2.61-.8.63-.53.94-1.27.94-2.2,0-2.11-1.09-3.17-3.27-3.21h-4.34,0Z" style="fill:#dd077b; stroke-width:0px;"/><path d="m538.37,474.59c-.21-.41-.36-.92-.46-1.53-1.1,1.23-2.54,1.85-4.31,1.85-1.67,0-3.06-.48-4.16-1.45s-1.65-2.19-1.65-3.66c0-1.81.67-3.2,2.01-4.17s3.28-1.46,5.82-1.47h2.1v-.98c0-.79-.2-1.42-.61-1.89s-1.04-.71-1.92-.71c-.77,0-1.37.18-1.81.55s-.66.87-.66,1.51h-4.56c0-.99.3-1.9.92-2.75.61-.84,1.47-1.5,2.59-1.98,1.12-.48,2.37-.72,3.76-.72,2.1,0,3.78.53,5.01,1.59s1.85,2.54,1.85,4.46v7.4c.01,1.62.24,2.85.68,3.68v.27h-4.61,0Zm-3.77-3.17c.67,0,1.29-.15,1.86-.45s.99-.7,1.26-1.21v-2.94h-1.71c-2.28,0-3.5.79-3.65,2.37l-.02.27c0,.57.2,1.04.6,1.41s.95.55,1.64.55h.02Z" style="fill:#dd077b; stroke-width:0px;"/><path d="m555.05,469.86c0-.56-.28-1-.83-1.32s-1.44-.61-2.66-.86c-4.06-.85-6.09-2.58-6.09-5.18,0-1.52.63-2.78,1.89-3.8s2.9-1.52,4.93-1.52c2.17,0,3.9.51,5.2,1.53s1.95,2.35,1.95,3.98h-4.56c0-.65-.21-1.19-.63-1.62s-1.08-.64-1.97-.64c-.77,0-1.36.17-1.78.52s-.63.79-.63,1.33c0,.5.24.91.72,1.22s1.29.58,2.42.8,2.09.48,2.87.77c2.41.88,3.61,2.42,3.61,4.59,0,1.56-.67,2.82-2,3.78-1.34.96-3.06,1.44-5.18,1.44-1.43,0-2.7-.25-3.81-.77-1.11-.51-1.98-1.21-2.61-2.1s-.95-1.85-.95-2.88h4.33c.04.81.34,1.43.9,1.86s1.31.65,2.24.65c.87,0,1.53-.17,1.98-.5.45-.33.67-.77.67-1.3v.02Z" style="fill:#dd077b; stroke-width:0px;"/><path d="m570.29,474.9c-2.5,0-4.54-.77-6.12-2.3-1.57-1.54-2.36-3.58-2.36-6.14v-.44c0-1.72.33-3.25.99-4.6s1.6-2.39,2.82-3.13,2.6-1.1,4.16-1.1c2.34,0,4.18.74,5.52,2.21s2.01,3.56,2.01,6.27v1.86h-10.88c.15,1.12.59,2.01,1.33,2.68.74.67,1.68,1.01,2.82,1.01,1.76,0,3.13-.64,4.12-1.91l2.24,2.51c-.68.97-1.61,1.72-2.78,2.27s-2.46.81-3.88.81h.01Zm-.52-14.03c-.91,0-1.64.31-2.2.92-.56.61-.92,1.49-1.08,2.63h6.35v-.36c-.02-1.02-.29-1.8-.82-2.36-.53-.55-1.27-.83-2.24-.83h0Z" style="fill:#dd077b; stroke-width:0px;"/><path d="m969.4,533.73h-7.04v19.15h-4.74v-19.15h-6.95v-3.84h18.72v3.84h.01Z" style="stroke-width:0px;"/><path d="m976.25,537.66c1.21-1.45,2.73-2.18,4.56-2.18,3.71,0,5.58,2.15,5.64,6.46v10.94h-4.56v-10.81c0-.98-.21-1.7-.63-2.17s-1.12-.7-2.1-.7c-1.34,0-2.31.52-2.91,1.55v12.14h-4.56v-24.25h4.56v9.03h0Z" style="stroke-width:0px;"/><path d="m997.75,553.21c-2.5,0-4.54-.77-6.12-2.3-1.57-1.54-2.36-3.58-2.36-6.14v-.44c0-1.72.33-3.25.99-4.6s1.6-2.39,2.82-3.13,2.6-1.1,4.16-1.1c2.34,0,4.18.74,5.52,2.21,1.34,1.47,2.01,3.56,2.01,6.27v1.86h-10.88c.15,1.12.59,2.01,1.33,2.68s1.68,1.01,2.82,1.01c1.76,0,3.13-.64,4.12-1.91l2.24,2.51c-.68.97-1.61,1.72-2.78,2.27s-2.46.81-3.88.81h.01Zm-.52-14.03c-.91,0-1.64.31-2.2.92s-.92,1.49-1.08,2.63h6.35v-.36c-.02-1.02-.29-1.8-.82-2.36-.53-.55-1.27-.83-2.24-.83h0Z" style="stroke-width:0px;"/><path d="m1011.64,535.8l.14,1.91c1.21-1.48,2.85-2.23,4.91-2.23,2.2,0,3.71.87,4.53,2.61,1.2-1.74,2.91-2.61,5.13-2.61,1.85,0,3.23.54,4.14,1.62s1.36,2.7,1.36,4.87v10.91h-4.58v-10.89c0-.97-.19-1.68-.57-2.12s-1.05-.67-2-.67c-1.37,0-2.32.65-2.84,1.96l.02,11.73h-4.56v-10.88c0-.99-.2-1.71-.58-2.15-.39-.44-1.05-.66-1.99-.66-1.29,0-2.23.54-2.81,1.61v12.08h-4.56v-17.08h4.28-.02Z" style="stroke-width:0px;"/><path d="m1043.22,553.21c-2.5,0-4.54-.77-6.12-2.3-1.57-1.54-2.36-3.58-2.36-6.14v-.44c0-1.72.33-3.25.99-4.6s1.6-2.39,2.82-3.13,2.6-1.1,4.16-1.1c2.34,0,4.18.74,5.52,2.21,1.34,1.47,2.01,3.56,2.01,6.27v1.86h-10.88c.15,1.12.59,2.01,1.33,2.68s1.68,1.01,2.82,1.01c1.76,0,3.13-.64,4.12-1.91l2.24,2.51c-.68.97-1.61,1.72-2.78,2.27s-2.46.81-3.88.81h.01Zm-.52-14.03c-.91,0-1.64.31-2.2.92-.56.61-.92,1.49-1.08,2.63h6.35v-.36c-.02-1.02-.29-1.8-.82-2.36-.53-.55-1.27-.83-2.24-.83h-.01Z" style="stroke-width:0px;"/><path d="m1062.08,548.16c0-.56-.28-1-.83-1.32-.55-.32-1.44-.61-2.66-.86-4.06-.85-6.09-2.58-6.09-5.18,0-1.52.63-2.78,1.89-3.8,1.26-1.02,2.9-1.52,4.93-1.52,2.17,0,3.9.51,5.2,1.53,1.3,1.02,1.95,2.35,1.95,3.98h-4.56c0-.65-.21-1.19-.63-1.62s-1.08-.64-1.97-.64c-.77,0-1.36.17-1.78.52-.42.35-.63.79-.63,1.33,0,.5.24.91.72,1.22s1.29.58,2.42.8,2.09.48,2.87.77c2.41.88,3.62,2.42,3.62,4.59,0,1.56-.67,2.82-2,3.78s-3.06,1.44-5.18,1.44c-1.43,0-2.7-.25-3.81-.77-1.11-.51-1.98-1.21-2.61-2.1-.63-.89-.95-1.85-.95-2.88h4.33c.04.81.34,1.43.9,1.86s1.3.65,2.24.65c.87,0,1.53-.17,1.98-.5s.67-.77.67-1.3l-.02.02Z" style="stroke-width:0px;"/><path d="m913.3,491.11l5.9,16.67,5.87-16.67h6.22v22.99h-4.75v-6.28l.47-10.85-6.2,17.13h-3.25l-6.19-17.11.47,10.83v6.28h-4.74v-22.99h6.2Z" style="stroke-width:0px;"/><path d="m945.36,512.35c-1.13,1.37-2.68,2.05-4.67,2.05-1.83,0-3.23-.53-4.19-1.58s-1.46-2.59-1.48-4.63v-11.19h4.56v11.05c0,1.78.81,2.67,2.43,2.67s2.61-.54,3.19-1.61v-12.11h4.58v17.08h-4.29l-.13-1.74h0Z" style="stroke-width:0px;"/><path d="m957.42,497l.14,1.97c1.22-1.53,2.86-2.29,4.91-2.29,1.81,0,3.16.53,4.04,1.59s1.34,2.65,1.36,4.77v11.04h-4.56v-10.92c0-.97-.21-1.67-.63-2.11s-1.12-.66-2.1-.66c-1.28,0-2.25.55-2.89,1.64v12.05h-4.56v-17.08h4.29Z" style="stroke-width:0px;"/><path d="m971.3,492.58c0-.68.23-1.25.69-1.69s1.08-.66,1.87-.66,1.4.22,1.86.66c.46.44.69,1.01.69,1.69s-.23,1.26-.7,1.71c-.47.44-1.09.66-1.85.66s-1.39-.22-1.86-.66-.7-1.01-.7-1.71Zm4.85,21.5h-4.58v-17.08h4.58v17.08Z" style="stroke-width:0px;"/><path d="m987.01,510.73c.84,0,1.53-.23,2.05-.7.53-.46.8-1.08.82-1.85h4.28c-.01,1.16-.33,2.22-.95,3.18-.62.96-1.47,1.71-2.55,2.24-1.08.53-2.27.8-3.58.8-2.44,0-4.37-.78-5.78-2.33s-2.12-3.7-2.12-6.43v-.3c0-2.63.7-4.73,2.1-6.3s3.32-2.35,5.76-2.35c2.14,0,3.85.61,5.14,1.82,1.29,1.22,1.94,2.83,1.96,4.85h-4.28c-.02-.89-.29-1.61-.82-2.17-.53-.56-1.22-.83-2.08-.83-1.06,0-1.87.39-2.41,1.16s-.81,2.03-.81,3.77v.47c0,1.76.27,3.03.8,3.79.54.77,1.35,1.15,2.45,1.15l.02.03Z" style="stroke-width:0px;"/><path d="m996.73,492.58c0-.68.23-1.25.69-1.69s1.08-.66,1.87-.66,1.4.22,1.86.66.69,1.01.69,1.69-.23,1.26-.7,1.71c-.47.44-1.09.66-1.85.66s-1.39-.22-1.86-.66-.7-1.01-.7-1.71Zm4.85,21.5h-4.58v-17.08h4.58v17.08Z" style="stroke-width:0px;"/><path d="m1020.71,505.71c0,2.63-.6,4.74-1.79,6.32s-2.81,2.38-4.84,2.38c-1.73,0-3.12-.6-4.18-1.8v8.05h-4.56v-23.65h4.23l.16,1.67c1.1-1.33,2.55-1.99,4.33-1.99,2.1,0,3.74.78,4.91,2.34s1.75,3.7,1.75,6.44v.24h0Zm-4.56-.33c0-1.59-.28-2.81-.84-3.68s-1.38-1.29-2.46-1.29c-1.43,0-2.42.55-2.95,1.64v6.99c.56,1.13,1.55,1.69,2.98,1.69,2.18,0,3.27-1.78,3.27-5.35h0Z" style="stroke-width:0px;"/><path d="m1033.44,514.1c-.21-.41-.36-.92-.46-1.53-1.11,1.23-2.54,1.85-4.31,1.85-1.67,0-3.06-.48-4.16-1.45-1.1-.97-1.65-2.19-1.65-3.66,0-1.81.67-3.2,2.01-4.17s3.28-1.46,5.82-1.47h2.1v-.98c0-.79-.2-1.42-.61-1.89s-1.04-.71-1.92-.71c-.77,0-1.37.18-1.81.55-.44.37-.66.87-.66,1.51h-4.56c0-.99.31-1.9.92-2.75.61-.84,1.47-1.5,2.59-1.98s2.37-.72,3.76-.72c2.1,0,3.78.53,5.01,1.59s1.86,2.54,1.86,4.46v7.4c0,1.62.24,2.85.68,3.68v.27h-4.61,0Zm-3.77-3.17c.67,0,1.29-.15,1.86-.45s.99-.7,1.26-1.21v-2.94h-1.71c-2.28,0-3.5.79-3.65,2.37l-.02.27c0,.57.2,1.04.6,1.41s.95.55,1.64.55h.02Z" style="stroke-width:0px;"/><path d="m1045.69,514.1h-4.58v-24.25h4.58v24.25Z" style="stroke-width:0px;"/><path d="m1049.41,492.58c0-.68.23-1.25.69-1.69s1.08-.66,1.87-.66,1.4.22,1.86.66.69,1.01.69,1.69-.23,1.26-.7,1.71c-.47.44-1.09.66-1.85.66s-1.39-.22-1.86-.66-.7-1.01-.7-1.71Zm4.85,21.5h-4.58v-17.08h4.58v17.08Z" style="stroke-width:0px;"/><path d="m1069.86,492.58c0-.68.23-1.25.69-1.69s1.08-.66,1.87-.66,1.4.22,1.86.66.69,1.01.69,1.69-.23,1.26-.7,1.71c-.47.44-1.09.66-1.85.66s-1.39-.22-1.86-.66-.7-1.01-.7-1.71Zm4.85,21.5h-4.58v-17.08h4.58v17.08Z" style="stroke-width:0px;"/><path d="m1063.48,492.8v4.2h2.92v3.35h-2.92v8.52c0,.63.12,1.08.36,1.36.24.27.71.41,1.39.41.51,0,.95-.04,1.34-.11v3.46c-.89.27-1.82.41-2.76.41-3.2,0-4.83-1.62-4.89-4.85v-9.2h-2.49v-3.35h2.49v-4.2h4.56Z" style="stroke-width:0px;"/><path d="m1087.01,514.15c-2.5,0-4.54-.77-6.12-2.3-1.57-1.54-2.36-3.58-2.36-6.14v-.44c0-1.72.33-3.25.99-4.6s1.6-2.39,2.82-3.13,2.6-1.1,4.16-1.1c2.34,0,4.18.74,5.52,2.21,1.34,1.47,2.01,3.56,2.01,6.27v1.86h-10.88c.15,1.12.59,2.01,1.33,2.68s1.68,1.01,2.82,1.01c1.76,0,3.13-.64,4.12-1.91l2.24,2.51c-.68.97-1.61,1.72-2.78,2.27s-2.46.81-3.88.81h.01Zm-.52-14.03c-.91,0-1.64.31-2.2.92-.56.61-.92,1.49-1.08,2.63h6.35v-.36c-.02-1.02-.29-1.8-.82-2.36-.53-.55-1.27-.83-2.24-.83h-.01Z" style="stroke-width:0px;"/><path d="m1105.66,509.31c0-.56-.28-1-.83-1.32-.55-.32-1.44-.61-2.66-.86-4.06-.85-6.09-2.58-6.09-5.18,0-1.52.63-2.78,1.89-3.8,1.26-1.02,2.9-1.52,4.93-1.52,2.17,0,3.9.51,5.2,1.53,1.3,1.02,1.95,2.35,1.95,3.98h-4.56c0-.65-.21-1.19-.63-1.62s-1.08-.64-1.97-.64c-.77,0-1.36.17-1.78.52-.42.35-.63.79-.63,1.33,0,.5.24.91.72,1.22s1.29.58,2.42.8,2.09.48,2.87.77c2.41.88,3.62,2.42,3.62,4.59,0,1.56-.67,2.82-2,3.78s-3.06,1.44-5.18,1.44c-1.43,0-2.7-.25-3.81-.77-1.11-.51-1.98-1.21-2.61-2.1-.63-.89-.95-1.85-.95-2.88h4.33c.04.81.34,1.43.9,1.86s1.3.65,2.24.65c.87,0,1.53-.17,1.98-.5s.67-.77.67-1.3l-.02.02Z" style="stroke-width:0px;"/><rect x="1026.37" y="29.21" width="11.82" height="3.13" style="fill:#2ab872; stroke-width:0px;"/><rect x="1042.53" y="29.21" width="11.82" height="3.13" style="stroke-width:0px;"/><rect x="1058.7" y="29.21" width="11.82" height="3.13" style="stroke-width:0px;"/><rect x="1074.86" y="29.21" width="11.82" height="3.13" style="stroke-width:0px;"/><rect x="918.97" y="39.5" width="179.26" height="43.57" style="fill:#b2b2b2; stroke-width:0px;"/><path d="m918.97,109.27h179.26v15.27c0,5.52-4.48,10-10,10h-157.35c-6.58,0-11.91-5.34-11.91-11.91v-13.36h0Z" style="fill:#2ab872; stroke-width:0px;"/><rect x="1013.69" y="119.15" width="44.15" height="33.35" rx="8.87" ry="8.87" style="fill:#fff; stroke-width:0px;"/><rect x="965.52" y="124.91" width="36.04" height="3.44" style="stroke-width:0px;"/><path d="m921.54,73.92s41.92,7.87,69.71,4.93c27.79-2.95,83.92-23.98,106.99-5.42v17.75l-176.69-2.14v-15.11h-.01Z" style="fill:#fff; stroke-width:0px;"/><circle cx="960.1" cy="92.21" r="9.13" style="fill:#2ab872; stroke-width:0px;"/><circle cx="992.43" cy="92.21" r="9.13" style="fill:#2ab872; stroke-width:0px;"/><circle cx="1024.77" cy="92.21" r="9.13" style="fill:#2ab872; stroke-width:0px;"/><circle cx="1057.1" cy="92.21" r="9.13" style="fill:#2ab872; stroke-width:0px;"/><path d="m937.67,31.38c-.61.3-1.82.61-3.38.61-3.61,0-6.32-2.28-6.32-6.47s2.71-6.72,6.68-6.72c1.6,0,2.6.34,3.04.57l-.4,1.35c-.63-.3-1.52-.53-2.58-.53-3,0-4.99,1.92-4.99,5.28,0,3.13,1.8,5.14,4.92,5.14,1.01,0,2.03-.21,2.7-.53l.34,1.31h0Z" style="fill:#2ab872; stroke-width:0px;"/><path d="m941.5,20.04c.02.57-.4,1.02-1.06,1.02-.59,0-1.01-.46-1.01-1.02s.44-1.05,1.05-1.05,1.02.46,1.02,1.05Zm-1.86,11.77v-9.19h1.67v9.19s-1.67,0-1.67,0Z" style="stroke-width:0px;"/><path d="m946.09,19.97v2.64h2.39v1.27h-2.39v4.95c0,1.14.32,1.79,1.25,1.79.44,0,.76-.06.97-.11l.08,1.25c-.32.13-.83.23-1.48.23-.78,0-1.4-.25-1.8-.7-.47-.49-.65-1.31-.65-2.39v-5.01h-1.42v-1.27h1.42v-2.2l1.63-.44h0Z" style="stroke-width:0px;"/><path d="m951.15,22.62l2.01,5.43c.21.61.44,1.33.59,1.88h.04c.17-.55.36-1.25.59-1.92l1.82-5.39h1.77l-2.51,6.55c-1.19,3.15-2.01,4.77-3.15,5.75-.82.72-1.63,1.01-2.05,1.08l-.42-1.41c.42-.13.97-.4,1.46-.82.46-.36,1.02-1.01,1.41-1.86.08-.17.13-.3.13-.4s-.04-.23-.11-.44l-3.4-8.47h1.82v.02Z" style="stroke-width:0px;"/><rect x="919.56" y="1.65" width="178.67" height="132.9" rx="13.06" ry="13.06" style="fill:none; stroke:#000; stroke-miterlimit:10; stroke-width:3.31px;"/><rect x="969.79" y="352.52" width="11.82" height="3.13" style="fill:#c42323; stroke-width:0px;"/><rect x="985.95" y="352.52" width="11.82" height="3.13" style="stroke-width:0px;"/><rect x="1002.12" y="352.52" width="11.82" height="3.13" style="stroke-width:0px;"/><rect x="1018.28" y="352.52" width="11.82" height="3.13" style="stroke-width:0px;"/><rect x="919.56" y="362.83" width="178.67" height="42.12" style="fill:#b2b2b2; stroke-width:0px;"/><path d="m918.97,435.93h179.26v11.94c0,5.52-4.48,10-10,10h-157.35c-6.58,0-11.91-5.34-11.91-11.91v-10.03h0Z" style="fill:#c42323; stroke-width:0px;"/><rect x="1013.69" y="442.47" width="44.15" height="33.35" rx="8.87" ry="8.87" style="fill:#fff; stroke-width:0px;"/><rect x="965.52" y="448.21" width="36.04" height="3.44" style="stroke-width:0px;"/><path d="m937.67,354.71c-.61.3-1.82.61-3.38.61-3.61,0-6.32-2.28-6.32-6.47s2.71-6.72,6.68-6.72c1.6,0,2.6.34,3.04.57l-.4,1.35c-.63-.3-1.52-.53-2.58-.53-3,0-4.99,1.92-4.99,5.28,0,3.13,1.8,5.14,4.92,5.14,1.01,0,2.03-.21,2.7-.53l.34,1.31h0Z" style="fill:#c42323; stroke-width:0px;"/><path d="m941.5,343.36c.02.57-.4,1.02-1.06,1.02-.59,0-1.01-.46-1.01-1.02s.44-1.05,1.05-1.05,1.02.46,1.02,1.05Zm-1.86,11.77v-9.19h1.67v9.19h-1.67Z" style="stroke-width:0px;"/><path d="m946.09,343.3v2.64h2.39v1.27h-2.39v4.95c0,1.14.32,1.79,1.25,1.79.44,0,.76-.06.97-.11l.08,1.25c-.32.13-.83.23-1.48.23-.78,0-1.4-.25-1.8-.7-.47-.49-.65-1.31-.65-2.39v-5.01h-1.42v-1.27h1.42v-2.2l1.63-.44h0Z" style="stroke-width:0px;"/><path d="m951.15,345.93l2.01,5.43c.21.61.44,1.33.59,1.88h.04c.17-.55.36-1.25.59-1.92l1.82-5.39h1.77l-2.51,6.55c-1.19,3.15-2.01,4.77-3.15,5.75-.82.72-1.63,1.01-2.05,1.08l-.42-1.41c.42-.13.97-.4,1.46-.82.46-.36,1.02-1.01,1.41-1.86.08-.17.13-.3.13-.4s-.04-.23-.11-.44l-3.4-8.47h1.82v.02Z" style="stroke-width:0px;"/><rect x="919.56" y="324.98" width="178.67" height="132.9" rx="13.06" ry="13.06" style="fill:none; stroke:#000; stroke-miterlimit:10; stroke-width:3.31px;"/><rect x="1026.37" y="190.87" width="11.82" height="3.13" style="fill:#ff8c00; stroke-width:0px;"/><rect x="1042.53" y="190.87" width="11.82" height="3.13" style="stroke-width:0px;"/><rect x="1058.7" y="190.87" width="11.82" height="3.13" style="stroke-width:0px;"/><rect x="1074.86" y="190.87" width="11.82" height="3.13" style="stroke-width:0px;"/><rect x="930.51" y="201.17" width="156.18" height="43.57" style="fill:#b2b2b2; stroke-width:0px;"/><rect x="1013.69" y="272.73" width="44.15" height="23.49" style="fill:#b2b2b2; stroke-width:0px;"/><rect x="965.52" y="278.48" width="36.04" height="3.44" style="stroke-width:0px;"/><rect x="965.52" y="286.56" width="36.04" height="3.44" style="stroke-width:0px;"/><circle cx="960.1" cy="245.78" r="9.13" style="fill:#ff8c00; stroke-width:0px;"/><circle cx="992.43" cy="245.78" r="9.13" style="fill:#ff8c00; stroke-width:0px;"/><circle cx="1024.77" cy="245.78" r="9.13" style="fill:#ff8c00; stroke-width:0px;"/><circle cx="1057.1" cy="245.78" r="9.13" style="fill:#ff8c00; stroke-width:0px;"/><path d="m937.67,193.04c-.61.3-1.82.61-3.38.61-3.61,0-6.32-2.28-6.32-6.47s2.71-6.72,6.68-6.72c1.6,0,2.6.34,3.04.57l-.4,1.35c-.63-.3-1.52-.53-2.58-.53-3,0-4.99,1.92-4.99,5.28,0,3.13,1.8,5.14,4.92,5.14,1.01,0,2.03-.21,2.7-.53l.34,1.31h0Z" style="fill:#ff8c00; stroke-width:0px;"/><path d="m941.5,181.7c.02.57-.4,1.02-1.06,1.02-.59,0-1.01-.46-1.01-1.02s.44-1.05,1.05-1.05,1.02.46,1.02,1.05Zm-1.86,11.77v-9.19h1.67v9.19h-1.67Z" style="stroke-width:0px;"/><path d="m946.09,181.64v2.64h2.39v1.27h-2.39v4.95c0,1.14.32,1.79,1.25,1.79.44,0,.76-.06.97-.11l.08,1.25c-.32.13-.83.23-1.48.23-.78,0-1.4-.25-1.8-.7-.47-.49-.65-1.31-.65-2.39v-5.01h-1.42v-1.27h1.42v-2.2l1.63-.44h0Z" style="stroke-width:0px;"/><path d="m951.15,184.28l2.01,5.43c.21.61.44,1.33.59,1.88h.04c.17-.55.36-1.25.59-1.92l1.82-5.39h1.77l-2.51,6.55c-1.19,3.15-2.01,4.77-3.15,5.75-.82.72-1.63,1.01-2.05,1.08l-.42-1.41c.42-.13.97-.4,1.46-.82.46-.36,1.02-1.01,1.41-1.86.08-.17.13-.3.13-.4s-.04-.23-.11-.44l-3.4-8.47h1.82v.02Z" style="stroke-width:0px;"/><rect x="919.56" y="163.31" width="178.67" height="132.9" rx="13.06" ry="13.06" style="fill:none; stroke:#000; stroke-miterlimit:10; stroke-width:3.31px;"/><rect x="1054.36" y="345.93" width="32.33" height="11.91" style="fill:#c42323; stroke-width:0px;"/><rect x="957.65" y="400.23" width="18.61" height="18.61" transform="translate(-6.37 803.69) rotate(-45)" style="fill:#c42323; stroke-width:0px;"/><rect x="998.08" y="400.24" width="18.61" height="18.61" transform="translate(5.46 832.28) rotate(-45)" style="fill:#c42323; stroke-width:0px;"/><rect x="1038.49" y="400.24" width="18.61" height="18.61" transform="translate(17.3 860.85) rotate(-45)" style="fill:#c42323; stroke-width:0px;"/><rect x="730.21" y="228.45" width="142.81" height="4.1" style="fill:#dbdbdb; stroke-width:0px;"/><rect x="799.56" y="70.18" width="4.1" height="320.64" style="fill:#dbdbdb; stroke-width:0px;"/><path d="m786.5,418.92c.19.03.44.06.69.11,2.12.38,4.11.02,5.96-1.09.34-.2.67-.41,1.01-.61,2.01-1.15,3.35-2.83,4.03-5.04.27-.87.59-1.13,1.48-1.16,1.5-.04,2.99-.06,4.49-.07.88,0,1.23.26,1.52,1.1.76,2.18,2.13,3.82,4.17,4.93,1.3.71,2.57,1.44,4.09,1.62,1.09.13,2.16.09,3.22-.17.76-.19,1.26,0,1.66.65.8,1.31,1.59,2.63,2.37,3.95.4.68.35,1.2-.17,1.78-1.61,1.81-2.29,3.93-2.25,6.35.04,1.88.23,3.69,1.25,5.33.36.57.78,1.09,1.23,1.58.5.55.56,1.03.21,1.67-.75,1.36-1.5,2.72-2.27,4.08-.37.66-.83.85-1.58.69-2.33-.48-4.47-.06-6.51,1.16-1.62.96-3.1,2.02-4.04,3.7-.34.61-.6,1.24-.8,1.9-.23.75-.59,1.06-1.35,1.08-1.55.04-3.11.07-4.67.08-.78,0-1.18-.31-1.43-1.07-.74-2.24-2.18-3.87-4.24-5.01-1.57-.87-3.14-1.63-4.98-1.65-.77,0-1.53.08-2.28.26-.74.17-1.24,0-1.62-.62-.82-1.35-1.63-2.7-2.42-4.06-.36-.62-.3-1.15.18-1.68,1.66-1.84,2.38-4,2.26-6.45-.04-.9-.02-1.82-.22-2.71-.35-1.55-1.09-2.9-2.19-4.06-.57-.6-.64-1.1-.24-1.82.73-1.33,1.48-2.65,2.21-3.97.26-.47.63-.74,1.24-.78h-.01Z" style="fill:#4e4e4e; stroke-width:0px;"/><path d="m791.48,432.55c-.41-6.03,4.06-11.11,10.11-11.51,5.9-.39,11,4.11,11.39,10.06.39,5.91-4.11,11.06-10,11.46-5.98.4-11.1-4.06-11.5-10h0Z" style="fill:#ededed; stroke-width:0px;"/><path d="m771.54,449.96c.11,0,.27,0,.42.02,1.31.08,2.48-.28,3.52-1.08.19-.15.38-.3.57-.44,1.13-.83,1.82-1.94,2.07-3.33.1-.54.28-.73.81-.8.9-.13,1.8-.25,2.7-.36.53-.07.76.07.99.56.61,1.26,1.56,2.15,2.87,2.68.84.33,1.66.68,2.58.69.67,0,1.31-.1,1.93-.33.44-.17.76-.09,1.05.28.57.73,1.14,1.47,1.71,2.22.29.38.29.7.02,1.09-.84,1.21-1.1,2.53-.9,3.99.16,1.13.4,2.21,1.13,3.13.26.32.55.6.85.87.34.3.41.58.25.99-.35.88-.71,1.75-1.08,2.62-.18.42-.44.57-.91.53-1.44-.12-2.7.28-3.85,1.16-.91.7-1.73,1.44-2.17,2.52-.16.39-.27.79-.35,1.2-.09.47-.28.68-.74.75-.94.14-1.87.26-2.81.38-.47.06-.74-.1-.94-.54-.61-1.3-1.59-2.18-2.91-2.72-1.01-.41-2.01-.76-3.12-.64-.47.05-.92.16-1.36.32-.43.16-.75.09-1.02-.26-.59-.75-1.17-1.51-1.75-2.28-.26-.35-.26-.67-.01-1.03.87-1.23,1.15-2.58.91-4.06-.09-.54-.14-1.1-.32-1.62-.32-.91-.86-1.67-1.61-2.29-.39-.32-.46-.62-.27-1.08.35-.85.71-1.7,1.05-2.56.12-.3.33-.49.69-.56v-.02Z" style="fill:#4e4e4e; stroke-width:0px;"/><path d="m775.52,457.83c-.67-3.61,1.66-7,5.28-7.67,3.53-.66,6.93,1.7,7.59,5.26.66,3.54-1.69,6.97-5.22,7.63-3.58.67-6.99-1.66-7.65-5.22h0Z" style="fill:#ededed; stroke-width:0px;"/><path d="m778.22,428.8c-.06.91.35,1.61.93,2.25.47.51,1.03.86,1.72.94.31.04.47.18.53.48.07.41.16.82.25,1.23.06.28-.01.5-.28.62-1.19.55-1.91,2.73-1.34,3.82.15.3.1.54-.18.75-.31.24-.6.51-.89.78-.22.21-.45.25-.71.07-1.11-.74-3.22-.31-3.97.78-.18.26-.39.32-.68.21-.39-.15-.79-.28-1.19-.4-.27-.08-.38-.24-.4-.52-.12-1.68-1.12-2.81-2.75-3.11-.23-.04-.37-.16-.41-.38-.09-.45-.18-.89-.28-1.33-.06-.27.02-.47.27-.59,1.24-.58,1.94-2.8,1.32-3.91-.12-.22-.07-.41.12-.58.35-.31.7-.61,1.05-.92.19-.17.39-.19.59-.05,1.1.78,3.36.34,4.07-.81.13-.2.32-.24.54-.18.46.15.91.31,1.36.46.19.06.3.19.32.39h.01Z" style="fill:#4e4e4e; stroke-width:0px;"/><path d="m771.75,434.96c-.33-1.84.89-3.62,2.73-3.97,1.86-.35,3.65.9,3.99,2.78.33,1.84-.93,3.63-2.79,3.96-1.84.32-3.6-.92-3.94-2.77h.01Z" style="fill:#ededed; stroke-width:0px;"/><path d="m831.34,425.39c-.06.91.35,1.61.93,2.25.47.51,1.03.86,1.72.94.31.04.47.18.53.48.07.41.16.82.25,1.23.06.28-.01.5-.28.62-1.19.55-1.91,2.73-1.34,3.82.15.3.1.54-.18.75-.31.24-.6.51-.89.78-.22.21-.45.25-.71.07-1.11-.74-3.22-.31-3.97.78-.18.26-.39.32-.68.21-.39-.15-.79-.28-1.19-.4-.27-.08-.38-.24-.4-.52-.12-1.68-1.12-2.81-2.75-3.11-.23-.04-.37-.16-.41-.38-.09-.45-.18-.89-.28-1.33-.06-.27.02-.47.27-.59,1.24-.58,1.94-2.8,1.32-3.91-.12-.22-.07-.41.12-.58.35-.31.7-.61,1.05-.92.19-.17.39-.19.59-.05,1.1.78,3.36.34,4.07-.81.13-.2.32-.24.54-.18.46.15.91.31,1.36.46.19.06.3.19.32.39h.01Z" style="fill:#4e4e4e; stroke-width:0px;"/><path d="m824.87,431.53c-.33-1.84.89-3.62,2.73-3.97,1.86-.35,3.65.9,3.99,2.78.33,1.84-.93,3.63-2.79,3.96-1.84.32-3.6-.92-3.94-2.77h.01Z" style="fill:#ededed; stroke-width:0px;"/><path d="m776.12,499.74v5.85h-4.16v-17.24h6.88c1.32,0,2.48.24,3.5.73,1.01.49,1.8,1.18,2.36,2.07.56.9.83,1.91.83,3.05,0,1.68-.6,3.03-1.81,4.03-1.2,1.01-2.86,1.51-4.96,1.51h-2.65.01Zm0-3.21h2.72c.8,0,1.42-.2,1.84-.6.42-.4.63-.97.63-1.7,0-.81-.22-1.45-.65-1.93s-1.03-.73-1.78-.73h-2.77v4.97h.01Z" style="fill:#f69220; stroke-width:0px;"/><path d="m802.15,505.59h-4.13l-6.11-10.73v10.73h-4.16v-17.24h4.16l6.1,10.73v-10.73h4.14v17.24Z" style="fill:#f69220; stroke-width:0px;"/><path d="m808.92,499.74v5.85h-4.16v-17.24h6.88c1.32,0,2.48.24,3.5.73,1.01.49,1.8,1.18,2.36,2.07.56.9.83,1.91.83,3.05,0,1.68-.6,3.03-1.81,4.03-1.2,1.01-2.86,1.51-4.96,1.51h-2.65.01Zm0-3.21h2.72c.8,0,1.42-.2,1.84-.6.42-.4.63-.97.63-1.7,0-.81-.22-1.45-.65-1.93s-1.03-.73-1.78-.73h-2.77v4.97h.01Z" style="fill:#f69220; stroke-width:0px;"/><path d="m826.02,488.36l3.85,11.99,3.84-11.99h5.47v17.24h-4.17v-4.03l.4-8.24-4.17,12.27h-2.75l-4.18-12.28.4,8.25v4.03h-4.16v-17.24h5.47Z" style="fill:#f69220; stroke-width:0px;"/><rect x="799.56" y="66.8" width="73.46" height="4.1" style="fill:#dbdbdb; stroke-width:0px;"/><rect x="799.56" y="390.11" width="73.46" height="4.1" style="fill:#dbdbdb; stroke-width:0px;"/><rect x="309" y="240.45" width="70.92" height="4.1" style="fill:#dbdbdb; stroke-width:0px;"/><polyline points="379.52 236.2 388.23 242.5 379.52 248.81" style="fill:#b2b2b2; stroke-width:0px;"/><polyline points="868.66 224.2 877.36 230.5 868.66 236.81" style="fill:#b2b2b2; stroke-width:0px;"/><polyline points="868.66 62.53 877.36 68.84 868.66 75.16" style="fill:#b2b2b2; stroke-width:0px;"/><polyline points="868.66 385.84 877.36 392.17 868.66 398.48" style="fill:#b2b2b2; stroke-width:0px;"/><path d="m327.14,43.52c0-.61.21-1.12.62-1.52s.97-.6,1.68-.6,1.26.2,1.67.6.62.9.62,1.52-.21,1.13-.63,1.53c-.42.4-.98.6-1.67.6s-1.25-.2-1.67-.6c-.42-.4-.63-.91-.63-1.53Zm4.35,19.31h-4.11v-15.34h4.11v15.34Z" style="stroke-width:0px;"/><path d="m338.71,47.49l.13,1.72c1.09-1.33,2.56-2,4.41-2,1.97,0,3.33.78,4.07,2.34,1.08-1.56,2.61-2.34,4.61-2.34,1.66,0,2.9.48,3.71,1.45.81.97,1.22,2.43,1.22,4.37v9.8h-4.11v-9.78c0-.87-.17-1.5-.51-1.91s-.94-.6-1.8-.6c-1.23,0-2.08.59-2.55,1.76v10.53s-4.08,0-4.08,0v-9.77c0-.89-.17-1.53-.52-1.93s-.95-.6-1.79-.6c-1.16,0-2,.48-2.52,1.45v10.84h-4.1v-15.34h3.84Z" style="stroke-width:0px;"/><path d="m359.97,43.52c0-.61.21-1.12.62-1.52.41-.4.97-.6,1.68-.6s1.26.2,1.67.6c.42.4.62.9.62,1.52s-.21,1.13-.63,1.53c-.42.4-.98.6-1.67.6s-1.25-.2-1.67-.6c-.42-.4-.63-.91-.63-1.53Zm4.35,19.31h-4.11v-15.34h4.11v15.34Z" style="stroke-width:0px;"/><path d="m367.06,55.01c0-1.52.29-2.88.88-4.07.59-1.19,1.43-2.11,2.53-2.76,1.1-.65,2.38-.98,3.83-.98,2.07,0,3.76.63,5.07,1.9,1.31,1.27,2.04,2.99,2.19,5.16l.03,1.05c0,2.35-.66,4.24-1.97,5.66s-3.08,2.13-5.29,2.13-3.98-.71-5.29-2.13-1.98-3.35-1.98-5.78v-.18Zm4.1.29c0,1.46.27,2.57.82,3.34.55.77,1.33,1.16,2.35,1.16s1.77-.38,2.33-1.14c.56-.76.84-1.98.84-3.66,0-1.43-.28-2.54-.84-3.32s-1.34-1.18-2.35-1.18-1.78.39-2.33,1.17c-.55.78-.82,1.99-.82,3.63Z" style="stroke-width:0px;"/><path d="m395.47,66.03h-12.92v-3.2h12.92v3.2Z" style="stroke-width:0px;"/><path d="m405.38,58.59c0-.5-.25-.9-.74-1.18-.5-.29-1.29-.55-2.39-.77-3.65-.77-5.47-2.32-5.47-4.65,0-1.36.57-2.5,1.69-3.41s2.61-1.37,4.43-1.37c1.95,0,3.5.46,4.67,1.38,1.17.92,1.75,2.11,1.75,3.57h-4.1c0-.59-.19-1.07-.57-1.45-.38-.38-.97-.57-1.77-.57-.69,0-1.22.16-1.6.47-.38.31-.57.71-.57,1.19,0,.45.21.82.64,1.1.43.28,1.16.52,2.18.72,1.02.2,1.88.43,2.58.69,2.16.79,3.25,2.17,3.25,4.13,0,1.4-.6,2.53-1.8,3.4s-2.75,1.3-4.65,1.3c-1.29,0-2.43-.23-3.42-.69-1-.46-1.78-1.09-2.35-1.89-.57-.8-.85-1.66-.85-2.59h3.88c.04.73.31,1.29.81,1.67.5.39,1.17.58,2.01.58.78,0,1.38-.15,1.78-.45.4-.3.6-.69.6-1.17Z" style="stroke-width:0px;"/><path d="m415.84,47.49l.13,1.72c1.09-1.33,2.56-2,4.41-2,1.98,0,3.33.78,4.07,2.34,1.08-1.56,2.61-2.34,4.61-2.34,1.66,0,2.9.48,3.71,1.45.81.97,1.22,2.43,1.22,4.37v9.8h-4.11v-9.78c0-.87-.17-1.5-.51-1.91-.34-.4-.94-.6-1.8-.6-1.23,0-2.08.59-2.55,1.76v10.53s-4.08,0-4.08,0v-9.77c0-.89-.18-1.53-.53-1.93s-.94-.6-1.79-.6c-1.16,0-2,.48-2.52,1.45v10.84h-4.1v-15.34h3.84Z" style="stroke-width:0px;"/><path d="m446.02,62.83c-.19-.37-.33-.83-.41-1.38-.99,1.11-2.28,1.66-3.87,1.66-1.5,0-2.75-.43-3.74-1.3s-1.48-1.97-1.48-3.29c0-1.63.6-2.87,1.81-3.74,1.21-.87,2.95-1.31,5.22-1.32h1.89v-.88c0-.71-.18-1.28-.55-1.7-.36-.43-.94-.64-1.72-.64-.69,0-1.23.17-1.62.5-.39.33-.59.78-.59,1.36h-4.1c0-.89.27-1.71.82-2.47.55-.76,1.32-1.35,2.33-1.78,1-.43,2.13-.65,3.37-.65,1.89,0,3.39.48,4.5,1.42s1.67,2.28,1.67,4v6.65c0,1.46.21,2.56.61,3.3v.24h-4.14Zm-3.39-2.85c.6,0,1.16-.13,1.67-.4.51-.27.89-.63,1.13-1.08v-2.64h-1.53c-2.05,0-3.14.71-3.27,2.13v.24c-.01.51.17.93.52,1.26.36.33.85.5,1.47.5Z" style="stroke-width:0px;"/><path d="m461.32,51.33c-.56-.08-1.05-.11-1.47-.11-1.55,0-2.57.52-3.05,1.57v10.04h-4.1v-15.34h3.87l.11,1.83c.82-1.41,1.96-2.11,3.42-2.11.45,0,.88.06,1.28.18l-.06,3.94Z" style="stroke-width:0px;"/><path d="m468.9,43.72v3.77h2.62v3.01h-2.62v7.65c0,.57.11.97.33,1.22.22.25.63.37,1.25.37.45,0,.86-.03,1.21-.1v3.1c-.8.25-1.63.37-2.48.37-2.87,0-4.34-1.45-4.39-4.35v-8.26h-2.24v-3.01h2.24v-3.77h4.1Z" style="stroke-width:0px;"/><path d="m487.14,57.25l2.01-9.77h3.96l-3.91,15.34h-3.43l-2.91-9.65-2.91,9.65h-3.42l-3.91-15.34h3.96l2,9.75,2.81-9.75h2.96l2.79,9.77Z" style="stroke-width:0px;"/><path d="m502.2,63.11c-2.25,0-4.08-.69-5.49-2.07s-2.12-3.22-2.12-5.51v-.4c0-1.54.3-2.92.89-4.13.59-1.21,1.44-2.15,2.53-2.81s2.34-.99,3.74-.99c2.1,0,3.75.66,4.95,1.98s1.81,3.2,1.81,5.63v1.67h-9.77c.13,1,.53,1.81,1.2,2.41.67.6,1.51.91,2.53.91,1.58,0,2.81-.57,3.7-1.72l2.01,2.25c-.61.87-1.45,1.55-2.5,2.03-1.05.49-2.21.73-3.49.73Zm-.47-12.6c-.81,0-1.47.28-1.98.83-.5.55-.83,1.34-.97,2.36h5.7v-.33c-.02-.91-.27-1.62-.74-2.11-.47-.5-1.14-.75-2.01-.75Z" style="stroke-width:0px;"/><path d="m524.65,55.3c0,2.46-.52,4.37-1.57,5.75-1.05,1.38-2.51,2.06-4.39,2.06-1.66,0-2.99-.64-3.98-1.91l-.18,1.63h-3.69v-21.77h4.1v7.81c.94-1.11,2.19-1.66,3.73-1.66,1.87,0,3.34.69,4.4,2.06,1.06,1.38,1.59,3.31,1.59,5.81v.23Zm-4.1-.3c0-1.55-.25-2.68-.74-3.4-.49-.71-1.22-1.07-2.2-1.07-1.3,0-2.2.53-2.69,1.6v6.05c.5,1.08,1.41,1.62,2.72,1.62s2.19-.65,2.61-1.96c.2-.62.3-1.57.3-2.85Z" style="stroke-width:0px;"/><path d="m538.53,66.03h-12.91v-3.2h12.91v3.2Z" style="stroke-width:0px;"/><path d="m545.04,43.72v3.77h2.62v3.01h-2.62v7.65c0,.57.11.97.33,1.22.22.25.63.37,1.25.37.45,0,.86-.03,1.21-.1v3.1c-.8.25-1.63.37-2.48.37-2.87,0-4.34-1.45-4.39-4.35v-8.26h-2.24v-3.01h2.24v-3.77h4.1Z" style="stroke-width:0px;"/><path d="m553.94,49.16c1.09-1.3,2.45-1.96,4.1-1.96,3.33,0,5.01,1.93,5.06,5.8v9.82h-4.1v-9.71c0-.88-.19-1.53-.57-1.95-.38-.42-1.01-.63-1.89-.63-1.2,0-2.07.46-2.61,1.39v10.9h-4.1v-21.77h4.1v8.11Z" style="stroke-width:0px;"/><path d="m573.25,63.11c-2.25,0-4.08-.69-5.49-2.07s-2.12-3.22-2.12-5.51v-.4c0-1.54.3-2.92.89-4.13.59-1.21,1.44-2.15,2.53-2.81s2.34-.99,3.74-.99c2.1,0,3.75.66,4.95,1.98s1.81,3.2,1.81,5.63v1.67h-9.77c.13,1,.53,1.81,1.2,2.41.67.6,1.51.91,2.53.91,1.58,0,2.81-.57,3.7-1.72l2.01,2.25c-.61.87-1.45,1.55-2.5,2.03-1.05.49-2.21.73-3.49.73Zm-.47-12.6c-.81,0-1.47.28-1.98.83-.5.55-.83,1.34-.97,2.36h5.7v-.33c-.02-.91-.27-1.62-.74-2.11-.47-.5-1.14-.75-2.01-.75Z" style="stroke-width:0px;"/><path d="m585.72,47.49l.13,1.72c1.09-1.33,2.56-2,4.41-2,1.98,0,3.33.78,4.07,2.34,1.08-1.56,2.61-2.34,4.61-2.34,1.66,0,2.9.48,3.71,1.45.81.97,1.22,2.43,1.22,4.37v9.8h-4.11v-9.78c0-.87-.17-1.5-.51-1.91-.34-.4-.94-.6-1.8-.6-1.23,0-2.08.59-2.55,1.76v10.53s-4.08,0-4.08,0v-9.77c0-.89-.18-1.53-.53-1.93s-.94-.6-1.79-.6c-1.16,0-2,.48-2.52,1.45v10.84h-4.1v-15.34h3.84Z" style="stroke-width:0px;"/><path d="m614.08,63.11c-2.25,0-4.08-.69-5.49-2.07s-2.12-3.22-2.12-5.51v-.4c0-1.54.3-2.92.89-4.13.59-1.21,1.44-2.15,2.53-2.81s2.34-.99,3.74-.99c2.1,0,3.75.66,4.95,1.98s1.81,3.2,1.81,5.63v1.67h-9.77c.13,1,.53,1.81,1.2,2.41.67.6,1.51.91,2.53.91,1.58,0,2.81-.57,3.7-1.72l2.01,2.25c-.61.87-1.45,1.55-2.5,2.03-1.05.49-2.21.73-3.49.73Zm-.47-12.6c-.81,0-1.47.28-1.98.83-.5.55-.83,1.34-.97,2.36h5.7v-.33c-.02-.91-.27-1.62-.74-2.11-.47-.5-1.14-.75-2.01-.75Z" style="stroke-width:0px;"/><path d="m631.02,58.59c0-.5-.25-.9-.74-1.18-.5-.29-1.29-.55-2.39-.77-3.65-.77-5.47-2.32-5.47-4.65,0-1.36.57-2.5,1.69-3.41s2.61-1.37,4.43-1.37c1.95,0,3.5.46,4.67,1.38,1.17.92,1.75,2.11,1.75,3.57h-4.1c0-.59-.19-1.07-.57-1.45-.38-.38-.97-.57-1.77-.57-.69,0-1.22.16-1.6.47-.38.31-.57.71-.57,1.19,0,.45.21.82.64,1.1.43.28,1.16.52,2.18.72,1.02.2,1.88.43,2.58.69,2.16.79,3.25,2.17,3.25,4.13,0,1.4-.6,2.53-1.8,3.4s-2.75,1.3-4.65,1.3c-1.29,0-2.43-.23-3.42-.69-1-.46-1.78-1.09-2.35-1.89-.57-.8-.85-1.66-.85-2.59h3.88c.04.73.31,1.29.81,1.67.5.39,1.17.58,2.01.58.78,0,1.38-.15,1.78-.45.4-.3.6-.69.6-1.17Z" style="stroke-width:0px;"/><path d="m668.61,38.87c-8.71,0-15.74,7.09-15.74,15.86,0,7.01,4.51,12.95,10.76,15.05.78.16,1.07-.34,1.07-.76,0-.37-.03-1.63-.03-2.94-4.38.95-5.29-1.89-5.29-1.89-.7-1.84-1.75-2.31-1.75-2.31-1.43-.97.1-.97.1-.97,1.59.11,2.42,1.63,2.42,1.63,1.41,2.42,3.67,1.73,4.59,1.31.13-1.02.55-1.73.99-2.13-3.49-.37-7.17-1.73-7.17-7.83,0-1.73.63-3.15,1.62-4.25-.16-.39-.7-2.02.16-4.2,0,0,1.33-.42,4.33,1.63,1.28-.35,2.61-.52,3.94-.53,1.33,0,2.68.18,3.94.53,3-2.05,4.33-1.63,4.33-1.63.86,2.18.31,3.81.16,4.2,1.02,1.1,1.62,2.52,1.62,4.25,0,6.09-3.67,7.43-7.19,7.83.57.5,1.07,1.44,1.07,2.94,0,2.13-.03,3.83-.03,4.36,0,.42.29.92,1.07.76,6.26-2.1,10.76-8.04,10.76-15.05.03-8.77-7.04-15.86-15.72-15.86Z" style="fill:#24292f; fill-rule:evenodd; stroke-width:0px;"/></g></svg>