<?xml version="1.0" encoding="utf-8"?>
<!-- Generator: Adobe Illustrator 27.9.0, SVG Export Plug-In . SVG Version: 6.00 Build 0)  -->
<svg version="1.1" id="uuid-3f146e97-45bd-4630-aff7-ac4667fff366"
	 xmlns="http://www.w3.org/2000/svg" xmlns:xlink="http://www.w3.org/1999/xlink" x="0px" y="0px" viewBox="0 0 1112.8 561.6"
	 style="enable-background:new 0 0 1112.8 561.6;" xml:space="preserve">
<style type="text/css">
	.st0{fill:#B2B2B2;}
	.st1{fill:none;stroke:#000000;stroke-width:3.31;stroke-miterlimit:10;}
	.st2{fill:#007DB6;}
	.st3{fill:#FFFFFF;stroke:#007DB6;stroke-width:3.59;stroke-miterlimit:10;}
	.st4{fill:#FFFFFF;}
	.st5{fill:#DD077B;}
	.st6{fill:#2AB872;}
	.st7{fill:#C42323;}
	.st8{fill:#FF8C00;}
	.st9{fill:#DBDBDB;}
	.st10{fill:#4E4E4E;}
	.st11{fill:#EDEDED;}
	.st12{fill:#F69220;}
	.st13{font-family:'Roboto-Bold';}
	.st14{font-size:29.0326px;}
	.st15{fill-rule:evenodd;clip-rule:evenodd;fill:#24292F;}
</style>
<rect x="397.2" y="200.2" class="st0" width="300.3" height="61.2"/>
<rect x="577.1" y="182.9" width="19.8" height="5.2"/>
<rect x="604.2" y="182.9" width="19.8" height="5.2"/>
<rect x="631.3" y="182.9" width="19.8" height="5.2"/>
<rect x="658.4" y="182.9" width="19.8" height="5.2"/>
<rect x="537.9" y="329.4" class="st0" width="86.6" height="30"/>
<rect x="469.9" y="329.5" width="60.4" height="5.8"/>
<rect x="469.9" y="342.8" width="60.4" height="5.8"/>
<g id="uuid-7b7f02b5-065e-4adc-a67a-541220a7310a">
	<g id="uuid-3e239ea8-2aee-434d-81c8-f34748356688">
		<path d="M417.9,170.3c0.1-0.6-0.3-1.2-1-1.4s-1.2,0.3-1.4,0.9s0.3,1.2,1,1.4S417.8,170.9,417.9,170.3L417.9,170.3"/>
		<path d="M450.1,170.3c0.1-0.6-0.3-1.2-1-1.4s-1.2,0.3-1.4,0.9s0.3,1.2,1,1.4l0,0C449.4,171.3,450,170.9,450.1,170.3L450.1,170.3"
			/>
		<path d="M417.9,176.6v13.2c0,0.7-0.4,1.1-1.1,1.1s-1.1-0.4-1.1-1.1v-13.2c0-0.7,0.4-1.1,1.1-1.1S417.9,175.9,417.9,176.6"/>
		<path class="st0" d="M445,189.9c0,0.7-0.4,1.1-1.1,1.1c-0.6,0-0.9-0.3-1-0.9l-3.6-16.4l-5.2,12.1c-0.2,0.6-0.6,0.9-1.1,0.9
			s-0.9-0.3-1.1-0.9l-5.2-12.1L423,190c-0.1,0.6-0.5,0.9-1,0.9c-0.8,0-1.1-0.4-1.1-1.1c0-0.1,0-0.2,0-0.3l4.4-19.6
			c0.1-0.7,0.5-1.1,1.1-1.1c0.5,0,0.8,0.3,1.1,0.8l5.5,12.8l5.5-12.8c0.2-0.6,0.6-0.8,1.1-0.8c0.6,0,1,0.4,1.1,1.1l4.4,19.6
			C445,189.7,445,189.8,445,189.9"/>
		<path d="M450.1,176.6v13.2c0,0.7-0.4,1.1-1.1,1.1s-1.1-0.4-1.1-1.1v-13.2c0-0.7,0.4-1.1,1.1-1.1S450.1,175.9,450.1,176.6"/>
		<path d="M468.5,183.2c0,2.1-0.8,3.9-2.3,5.4s-3.3,2.3-5.4,2.3s-3.9-0.8-5.4-2.3c-1.5-1.5-2.3-3.3-2.3-5.4s0.8-3.9,2.3-5.4
			s3.3-2.3,5.4-2.2c2.1,0,3.9,0.8,5.4,2.2S468.5,181.1,468.5,183.2 M466.3,183.2c0-1.5-0.5-2.8-1.6-3.9s-2.4-1.6-3.9-1.6
			c-1.5,0-2.8,0.5-3.9,1.6c-1.1,1.1-1.6,2.4-1.6,3.9c0,1.5,0.5,2.8,1.6,3.9s2.4,1.6,3.9,1.6c1.5,0,2.8-0.5,3.9-1.6
			C465.7,186,466.3,184.7,466.3,183.2"/>
	</g>
</g>
<rect x="479.9" y="276.2" class="st0" width="27.7" height="27.7"/>
<rect x="534" y="276.2" class="st0" width="27.7" height="27.7"/>
<rect x="588.2" y="276.2" class="st0" width="27.7" height="27.7"/>
<path class="st1" d="M411.3,136.8h273.2c7.2,0,13.1,5.8,13.1,13.1v196.5c0,7.2-5.8,13.1-13.1,13.1H411.3c-7.2,0-13.1-5.8-13.1-13.1
	V149.9C398.2,142.7,404.1,136.8,411.3,136.8z"/>
<rect x="1.8" y="200.2" class="st0" width="299.1" height="91.8"/>
<rect x="1.8" y="200.2" class="st2" width="299.1" height="16.5"/>
<path class="st1" d="M14.7,136.8h273.1c7.2,0,13.1,5.8,13.1,13.1v196.5c0,7.2-5.8,13.1-13.1,13.1H14.7c-7.2,0-13.1-5.8-13.1-13.1
	V149.9C1.6,142.7,7.5,136.8,14.7,136.8z"/>
<rect x="227.1" y="181.9" width="23.3" height="5.2"/>
<rect x="260.3" y="181.9" width="23.3" height="5.2"/>
<path class="st2" d="M23.7,170.2c-5.4,0-9.7,4.2-9.7,9.5s4.3,9.5,9.7,9.5s9.7-4.2,9.7-9.5S29,170.2,23.7,170.2z M29.1,185
	c-1.4,1.4-3.3,2.2-5.5,2.2c-2.1,0-4.1-0.8-5.5-2.2c-1.4-1.4-2.3-3.2-2.3-5.3s0.9-4,2.3-5.3s3.3-2.2,5.5-2.2c2.1,0,4.1,0.8,5.5,2.2
	c1.4,1.4,2.3,3.2,2.3,5.3S30.5,183.6,29.1,185z"/>
<path class="st2" d="M22.4,177.6c1.1,0,2-0.9,2-2s-0.9-2-2-2s-2,0.9-2,2S21.2,177.6,22.4,177.6z"/>
<path class="st2" d="M28.6,179.7c0,1.2-0.9,2.1-2,2.1s-2-0.9-2-2.1s0.9-2.1,2-2.1S28.6,178.5,28.6,179.7z"/>
<path class="st2" d="M22.4,185.8c1.1,0,2-0.9,2-2s-0.9-2-2-2s-2,0.9-2,2S21.2,185.8,22.4,185.8z"/>
<path class="st2" d="M41.4,181.6h-3.2v5.6h-2.2V173h5.4c2.8,0,4.5,1.8,4.5,4.3S44.2,181.6,41.4,181.6L41.4,181.6z M41.3,174.9h-3.1
	v4.7h3.1c1.5,0,2.5-0.9,2.5-2.4S42.8,174.9,41.3,174.9L41.3,174.9z"/>
<path class="st2" d="M50.7,187.1c-1.9,0-2.7-1.3-2.7-2.8V173h2v11.2c0,0.8,0.3,1.2,1.1,1.2H52v1.7H50.7L50.7,187.1z"/>
<path class="st2" d="M61.1,186.2c-0.7,0.7-1.7,1.2-3.1,1.2s-2.4-0.5-3.1-1.2c-1-1-1.2-2.3-1.2-4s0.2-3,1.2-4
	c0.7-0.7,1.7-1.2,3.1-1.2s2.5,0.5,3.1,1.2c1,1,1.2,2.3,1.2,4C62.4,183.9,62.1,185.2,61.1,186.2z M59.6,179.4
	c-0.4-0.4-0.9-0.6-1.5-0.6s-1.1,0.2-1.5,0.6c-0.6,0.6-0.7,1.7-0.7,2.8s0.1,2.2,0.7,2.8c0.4,0.4,0.9,0.6,1.5,0.6s1.2-0.2,1.5-0.6
	c0.6-0.6,0.7-1.7,0.7-2.8S60.2,180,59.6,179.4z"/>
<path class="st2" d="M70.5,187.1V181c0-1.6-0.9-2.2-2-2.2s-2.1,0.7-2.1,2.2v6.1h-2v-10.1h2v1c0.7-0.8,1.7-1.1,2.7-1.1
	s1.9,0.3,2.5,0.9c0.8,0.8,1,1.7,1,2.8v6.4L70.5,187.1L70.5,187.1z"/>
<path class="st2" d="M76.6,182.8c0,1.8,0.9,2.9,2.6,2.9c1.2,0,1.8-0.3,2.5-1l1.3,1.2c-1.1,1-2,1.6-3.8,1.6c-2.6,0-4.6-1.4-4.6-5.2
	c0-3.3,1.7-5.2,4.3-5.2s4.3,2,4.3,4.9v0.9L76.6,182.8L76.6,182.8z M80.9,180c-0.3-0.8-1.1-1.3-2-1.3s-1.7,0.5-2,1.3
	c-0.2,0.5-0.2,0.8-0.3,1.4h4.6C81.2,180.7,81.1,180.4,80.9,180L80.9,180z"/>
<path class="st2" d="M84.3,175.1c-0.6,0-1.1,0.5-1.1,1.1c0,0.6,0.5,1.1,1.1,1.1s1.1-0.5,1.1-1.1S84.9,175.1,84.3,175.1z M84.3,177.1
	c-0.5,0-0.9-0.4-0.9-0.9s0.4-0.9,0.9-0.9c0.5,0,0.9,0.4,0.9,0.9S84.8,177.1,84.3,177.1z"/>
<path class="st2" d="M84.6,176.8l-0.3-0.5H84v0.5h-0.2v-1.3h0.5c0.2,0,0.4,0.2,0.4,0.4c0,0.2-0.1,0.3-0.2,0.3l0.3,0.6L84.6,176.8
	L84.6,176.8z M84.3,175.7H84v0.4h0.3c0.1,0,0.2-0.1,0.2-0.2S84.5,175.7,84.3,175.7z"/>
<rect x="152.4" y="319.5" class="st3" width="173.4" height="88.5"/>
<rect x="231" y="335.8" class="st0" width="82.5" height="55.9"/>
<rect x="166.1" y="345.4" width="57.5" height="5.8"/>
<rect x="166.1" y="358.7" width="57.5" height="5.8"/>
<rect x="166.1" y="372" width="57.5" height="5.8"/>
<rect x="144.8" y="400.5" class="st2" width="15.7" height="15.7"/>
<rect x="316.7" y="400.5" class="st2" width="15.7" height="15.7"/>
<rect x="145.3" y="311.7" class="st2" width="15.7" height="15.7"/>
<rect x="317.3" y="311.7" class="st2" width="15.7" height="15.7"/>
<rect x="33.5" y="256.8" class="st2" width="47.3" height="11.7"/>
<rect x="33.5" y="243.3" class="st4" width="64.9" height="5.2"/>
<path class="st2" d="M67.1,474.6v-23h8.1c2.8,0,4.9,0.5,6.3,1.6c1.4,1.1,2.2,2.6,2.2,4.7c0,1.1-0.3,2.1-0.9,3
	c-0.6,0.9-1.4,1.5-2.4,1.9c1.2,0.3,2.1,0.9,2.8,1.8c0.7,0.9,1,2,1,3.3c0,2.2-0.7,3.9-2.1,5c-1.4,1.1-3.4,1.7-6,1.7L67.1,474.6
	L67.1,474.6z M71.8,461.2h3.5c2.4,0,3.6-1,3.6-2.9c0-1-0.3-1.8-0.9-2.2c-0.6-0.5-1.6-0.7-2.9-0.7h-3.3L71.8,461.2L71.8,461.2z
	 M71.8,464.6v6.2h4.1c1.1,0,2-0.3,2.6-0.8c0.6-0.5,0.9-1.3,0.9-2.2c0-2.1-1.1-3.2-3.3-3.2L71.8,464.6L71.8,464.6z"/>
<path class="st2" d="M97.3,474.6c-0.2-0.4-0.4-0.9-0.5-1.5c-1.1,1.2-2.5,1.9-4.3,1.9c-1.7,0-3.1-0.5-4.2-1.5s-1.7-2.2-1.7-3.7
	c0-1.8,0.7-3.2,2-4.2c1.3-1,3.3-1.5,5.8-1.5h2.1v-1c0-0.8-0.2-1.4-0.6-1.9s-1-0.7-1.9-0.7c-0.8,0-1.4,0.2-1.8,0.5
	c-0.4,0.4-0.7,0.9-0.7,1.5h-4.6c0-1,0.3-1.9,0.9-2.8c0.6-0.8,1.5-1.5,2.6-2c1.1-0.5,2.4-0.7,3.8-0.7c2.1,0,3.8,0.5,5,1.6
	s1.8,2.5,1.8,4.5v7.4c0,1.6,0.2,2.9,0.7,3.7v0.3L97.3,474.6L97.3,474.6z M93.6,471.4c0.7,0,1.3-0.1,1.9-0.5s1-0.7,1.3-1.2v-2.9H95
	c-2.3,0-3.5,0.8-3.7,2.4l0,0.3c0,0.6,0.2,1,0.6,1.4S92.9,471.4,93.6,471.4L93.6,471.4z"/>
<path class="st2" d="M114.4,461.8c-0.6-0.1-1.2-0.1-1.6-0.1c-1.7,0-2.9,0.6-3.4,1.8v11.2h-4.6v-17.1h4.3l0.1,2
	c0.9-1.6,2.2-2.4,3.8-2.4c0.5,0,1,0.1,1.4,0.2L114.4,461.8L114.4,461.8z"/>
<path class="st2" d="M123.4,471.2c0.8,0,1.5-0.2,2.1-0.7c0.5-0.5,0.8-1.1,0.8-1.9h4.3c0,1.2-0.3,2.2-0.9,3.2s-1.5,1.7-2.6,2.2
	s-2.3,0.8-3.6,0.8c-2.4,0-4.4-0.8-5.8-2.3s-2.1-3.7-2.1-6.4v-0.3c0-2.6,0.7-4.7,2.1-6.3c1.4-1.6,3.3-2.4,5.8-2.4
	c2.1,0,3.8,0.6,5.1,1.8c1.3,1.2,1.9,2.8,2,4.9h-4.3c0-0.9-0.3-1.6-0.8-2.2s-1.2-0.8-2.1-0.8c-1.1,0-1.9,0.4-2.4,1.2s-0.8,2-0.8,3.8
	v0.5c0,1.8,0.3,3,0.8,3.8C121.5,470.8,122.3,471.2,123.4,471.2L123.4,471.2z"/>
<path class="st2" d="M141,474.9c-2.5,0-4.5-0.8-6.1-2.3c-1.6-1.5-2.4-3.6-2.4-6.1V466c0-1.7,0.3-3.2,1-4.6s1.6-2.4,2.8-3.1
	s2.6-1.1,4.2-1.1c2.3,0,4.2,0.7,5.5,2.2c1.3,1.5,2,3.6,2,6.3v1.9h-10.9c0.1,1.1,0.6,2,1.3,2.7c0.7,0.7,1.7,1,2.8,1
	c1.8,0,3.1-0.6,4.1-1.9l2.2,2.5c-0.7,1-1.6,1.7-2.8,2.3C143.7,474.6,142.4,474.9,141,474.9L141,474.9z M140.5,460.9
	c-0.9,0-1.6,0.3-2.2,0.9c-0.6,0.6-0.9,1.5-1.1,2.6h6.4v-0.4c0-1-0.3-1.8-0.8-2.4C142.2,461.2,141.4,460.9,140.5,460.9L140.5,460.9z"
	/>
<path class="st2" d="M155.4,474.6h-4.6v-24.2h4.6V474.6z"/>
<path class="st2" d="M158.4,465.9c0-1.7,0.3-3.2,1-4.5c0.6-1.3,1.6-2.4,2.8-3.1c1.2-0.7,2.6-1.1,4.3-1.1c2.3,0,4.2,0.7,5.6,2.1
	c1.5,1.4,2.3,3.3,2.4,5.8l0,1.2c0,2.6-0.7,4.7-2.2,6.3s-3.4,2.4-5.9,2.4s-4.4-0.8-5.9-2.4s-2.2-3.7-2.2-6.4L158.4,465.9L158.4,465.9
	z M163,466.2c0,1.6,0.3,2.9,0.9,3.7c0.6,0.9,1.5,1.3,2.6,1.3s2-0.4,2.6-1.3s0.9-2.2,0.9-4.1c0-1.6-0.3-2.8-0.9-3.7s-1.5-1.3-2.6-1.3
	s-2,0.4-2.6,1.3S163,464.4,163,466.2z"/>
<path class="st2" d="M181.6,457.5l0.1,2c1.2-1.5,2.9-2.3,4.9-2.3c1.8,0,3.2,0.5,4,1.6c0.9,1.1,1.3,2.6,1.4,4.8v11h-4.6v-10.9
	c0-1-0.2-1.7-0.6-2.1c-0.4-0.4-1.1-0.7-2.1-0.7c-1.3,0-2.2,0.5-2.9,1.6v12h-4.6v-17.1H181.6L181.6,457.5z"/>
<path class="st2" d="M203.4,474.9c-2.5,0-4.5-0.8-6.1-2.3c-1.6-1.5-2.4-3.6-2.4-6.1V466c0-1.7,0.3-3.2,1-4.6s1.6-2.4,2.8-3.1
	s2.6-1.1,4.2-1.1c2.3,0,4.2,0.7,5.5,2.2c1.3,1.5,2,3.6,2,6.3v1.9h-10.9c0.1,1.1,0.6,2,1.3,2.7c0.7,0.7,1.7,1,2.8,1
	c1.8,0,3.1-0.6,4.1-1.9l2.2,2.5c-0.7,1-1.6,1.7-2.8,2.3C206.1,474.6,204.8,474.9,203.4,474.9L203.4,474.9z M202.9,460.9
	c-0.9,0-1.6,0.3-2.2,0.9c-0.6,0.6-0.9,1.5-1.1,2.6h6.4v-0.4c0-1-0.3-1.8-0.8-2.4C204.6,461.2,203.9,460.9,202.9,460.9L202.9,460.9z"
	/>
<path class="st2" d="M218.5,453.3v4.2h2.9v3.4h-2.9v8.5c0,0.6,0.1,1.1,0.4,1.4c0.2,0.3,0.7,0.4,1.4,0.4c0.5,0,0.9,0,1.3-0.1v3.5
	c-0.9,0.3-1.8,0.4-2.8,0.4c-3.2,0-4.8-1.6-4.9-4.9v-9.2h-2.5v-3.4h2.5v-4.2L218.5,453.3L218.5,453.3z"/>
<path class="st2" d="M233.9,474.6c-0.2-0.4-0.4-0.9-0.5-1.5c-1.1,1.2-2.5,1.9-4.3,1.9c-1.7,0-3.1-0.5-4.2-1.5s-1.6-2.2-1.6-3.7
	c0-1.8,0.7-3.2,2-4.2s3.3-1.5,5.8-1.5h2.1v-1c0-0.8-0.2-1.4-0.6-1.9s-1-0.7-1.9-0.7c-0.8,0-1.4,0.2-1.8,0.5s-0.7,0.9-0.7,1.5h-4.6
	c0-1,0.3-1.9,0.9-2.8c0.6-0.8,1.5-1.5,2.6-2s2.4-0.7,3.8-0.7c2.1,0,3.8,0.5,5,1.6s1.9,2.5,1.9,4.5v7.4c0,1.6,0.2,2.9,0.7,3.7v0.3
	L233.9,474.6L233.9,474.6z M230.1,471.4c0.7,0,1.3-0.1,1.9-0.5s1-0.7,1.3-1.2v-2.9h-1.7c-2.3,0-3.5,0.8-3.6,2.4l0,0.3
	c0,0.6,0.2,1,0.6,1.4S229.4,471.4,230.1,471.4L230.1,471.4z"/>
<path class="st5" d="M508.1,474.6v-23h8c2.8,0,4.9,0.5,6.3,1.6c1.4,1.1,2.2,2.6,2.2,4.7c0,1.1-0.3,2.1-0.9,3
	c-0.6,0.9-1.4,1.5-2.4,1.9c1.2,0.3,2.1,0.9,2.8,1.8c0.7,0.9,1,2,1,3.3c0,2.2-0.7,3.9-2.1,5c-1.4,1.1-3.4,1.7-6,1.7L508.1,474.6
	L508.1,474.6z M512.9,461.2h3.5c2.4,0,3.6-1,3.6-2.9c0-1-0.3-1.8-0.9-2.2c-0.6-0.5-1.6-0.7-2.9-0.7h-3.3L512.9,461.2L512.9,461.2z
	 M512.9,464.6v6.2h4.1c1.1,0,2-0.3,2.6-0.8c0.6-0.5,0.9-1.3,0.9-2.2c0-2.1-1.1-3.2-3.3-3.2L512.9,464.6L512.9,464.6z"/>
<path class="st5" d="M538.4,474.6c-0.2-0.4-0.4-0.9-0.5-1.5c-1.1,1.2-2.5,1.9-4.3,1.9c-1.7,0-3.1-0.5-4.2-1.5s-1.7-2.2-1.7-3.7
	c0-1.8,0.7-3.2,2-4.2s3.3-1.5,5.8-1.5h2.1v-1c0-0.8-0.2-1.4-0.6-1.9s-1-0.7-1.9-0.7c-0.8,0-1.4,0.2-1.8,0.5s-0.7,0.9-0.7,1.5h-4.6
	c0-1,0.3-1.9,0.9-2.8c0.6-0.8,1.5-1.5,2.6-2c1.1-0.5,2.4-0.7,3.8-0.7c2.1,0,3.8,0.5,5,1.6s1.8,2.5,1.8,4.5v7.4
	c0,1.6,0.2,2.9,0.7,3.7v0.3L538.4,474.6L538.4,474.6z M534.6,471.4c0.7,0,1.3-0.1,1.9-0.5s1-0.7,1.3-1.2v-2.9H536
	c-2.3,0-3.5,0.8-3.7,2.4l0,0.3c0,0.6,0.2,1,0.6,1.4S533.9,471.4,534.6,471.4L534.6,471.4z"/>
<path class="st5" d="M555,469.9c0-0.6-0.3-1-0.8-1.3s-1.4-0.6-2.7-0.9c-4.1-0.9-6.1-2.6-6.1-5.2c0-1.5,0.6-2.8,1.9-3.8
	s2.9-1.5,4.9-1.5c2.2,0,3.9,0.5,5.2,1.5s2,2.4,2,4h-4.6c0-0.6-0.2-1.2-0.6-1.6s-1.1-0.6-2-0.6c-0.8,0-1.4,0.2-1.8,0.5
	s-0.6,0.8-0.6,1.3c0,0.5,0.2,0.9,0.7,1.2s1.3,0.6,2.4,0.8s2.1,0.5,2.9,0.8c2.4,0.9,3.6,2.4,3.6,4.6c0,1.6-0.7,2.8-2,3.8
	c-1.3,1-3.1,1.4-5.2,1.4c-1.4,0-2.7-0.2-3.8-0.8c-1.1-0.5-2-1.2-2.6-2.1s-1-1.9-1-2.9h4.3c0,0.8,0.3,1.4,0.9,1.9s1.3,0.6,2.2,0.6
	c0.9,0,1.5-0.2,2-0.5C554.8,470.8,555.1,470.4,555,469.9L555,469.9z"/>
<path class="st5" d="M570.3,474.9c-2.5,0-4.5-0.8-6.1-2.3c-1.6-1.5-2.4-3.6-2.4-6.1V466c0-1.7,0.3-3.2,1-4.6s1.6-2.4,2.8-3.1
	s2.6-1.1,4.2-1.1c2.3,0,4.2,0.7,5.5,2.2s2,3.6,2,6.3v1.9h-10.9c0.2,1.1,0.6,2,1.3,2.7c0.7,0.7,1.7,1,2.8,1c1.8,0,3.1-0.6,4.1-1.9
	l2.2,2.5c-0.7,1-1.6,1.7-2.8,2.3S571.7,474.9,570.3,474.9L570.3,474.9z M569.8,460.9c-0.9,0-1.6,0.3-2.2,0.9
	c-0.6,0.6-0.9,1.5-1.1,2.6h6.3v-0.4c0-1-0.3-1.8-0.8-2.4C571.5,461.2,570.7,460.9,569.8,460.9L569.8,460.9z"/>
<g>
	<g>
		<path d="M969.4,533.7h-7v19.2h-4.7v-19.2h-7v-3.8h18.7L969.4,533.7L969.4,533.7z"/>
		<path d="M976.2,537.7c1.2-1.5,2.7-2.2,4.6-2.2c3.7,0,5.6,2.2,5.6,6.5v10.9h-4.6v-10.8c0-1-0.2-1.7-0.6-2.2s-1.1-0.7-2.1-0.7
			c-1.3,0-2.3,0.5-2.9,1.5v12.1h-4.6v-24.2h4.6L976.2,537.7L976.2,537.7z"/>
		<path d="M997.7,553.2c-2.5,0-4.5-0.8-6.1-2.3c-1.6-1.5-2.4-3.6-2.4-6.1v-0.4c0-1.7,0.3-3.2,1-4.6s1.6-2.4,2.8-3.1s2.6-1.1,4.2-1.1
			c2.3,0,4.2,0.7,5.5,2.2c1.3,1.5,2,3.6,2,6.3v1.9h-10.9c0.2,1.1,0.6,2,1.3,2.7s1.7,1,2.8,1c1.8,0,3.1-0.6,4.1-1.9l2.2,2.5
			c-0.7,1-1.6,1.7-2.8,2.3S999.2,553.2,997.7,553.2L997.7,553.2z M997.2,539.2c-0.9,0-1.6,0.3-2.2,0.9s-0.9,1.5-1.1,2.6h6.3v-0.4
			c0-1-0.3-1.8-0.8-2.4C998.9,539.5,998.2,539.2,997.2,539.2L997.2,539.2z"/>
		<path d="M1011.6,535.8l0.1,1.9c1.2-1.5,2.8-2.2,4.9-2.2c2.2,0,3.7,0.9,4.5,2.6c1.2-1.7,2.9-2.6,5.1-2.6c1.8,0,3.2,0.5,4.1,1.6
			s1.4,2.7,1.4,4.9v10.9h-4.6V542c0-1-0.2-1.7-0.6-2.1s-1.1-0.7-2-0.7c-1.4,0-2.3,0.7-2.8,2l0,11.7h-4.6V542c0-1-0.2-1.7-0.6-2.2
			c-0.4-0.4-1.1-0.7-2-0.7c-1.3,0-2.2,0.5-2.8,1.6v12.1h-4.6v-17.1L1011.6,535.8L1011.6,535.8z"/>
		<path d="M1043.2,553.2c-2.5,0-4.5-0.8-6.1-2.3c-1.6-1.5-2.4-3.6-2.4-6.1v-0.4c0-1.7,0.3-3.2,1-4.6s1.6-2.4,2.8-3.1
			s2.6-1.1,4.2-1.1c2.3,0,4.2,0.7,5.5,2.2c1.3,1.5,2,3.6,2,6.3v1.9h-10.9c0.2,1.1,0.6,2,1.3,2.7s1.7,1,2.8,1c1.8,0,3.1-0.6,4.1-1.9
			l2.2,2.5c-0.7,1-1.6,1.7-2.8,2.3S1044.6,553.2,1043.2,553.2L1043.2,553.2z M1042.7,539.2c-0.9,0-1.6,0.3-2.2,0.9
			c-0.6,0.6-0.9,1.5-1.1,2.6h6.3v-0.4c0-1-0.3-1.8-0.8-2.4C1044.4,539.5,1043.7,539.2,1042.7,539.2L1042.7,539.2z"/>
		<path d="M1062.1,548.2c0-0.6-0.3-1-0.8-1.3c-0.6-0.3-1.4-0.6-2.7-0.9c-4.1-0.8-6.1-2.6-6.1-5.2c0-1.5,0.6-2.8,1.9-3.8
			c1.3-1,2.9-1.5,4.9-1.5c2.2,0,3.9,0.5,5.2,1.5c1.3,1,1.9,2.3,1.9,4h-4.6c0-0.7-0.2-1.2-0.6-1.6s-1.1-0.6-2-0.6
			c-0.8,0-1.4,0.2-1.8,0.5c-0.4,0.3-0.6,0.8-0.6,1.3c0,0.5,0.2,0.9,0.7,1.2s1.3,0.6,2.4,0.8s2.1,0.5,2.9,0.8
			c2.4,0.9,3.6,2.4,3.6,4.6c0,1.6-0.7,2.8-2,3.8s-3.1,1.4-5.2,1.4c-1.4,0-2.7-0.2-3.8-0.8c-1.1-0.5-2-1.2-2.6-2.1
			c-0.6-0.9-0.9-1.8-0.9-2.9h4.3c0,0.8,0.3,1.4,0.9,1.9s1.3,0.7,2.2,0.7c0.9,0,1.5-0.2,2-0.5S1062.1,548.7,1062.1,548.2
			L1062.1,548.2z"/>
	</g>
	<g>
		<path d="M913.3,491.1l5.9,16.7l5.9-16.7h6.2v23h-4.8v-6.3L927,497l-6.2,17.1h-3.2l-6.2-17.1l0.5,10.8v6.3h-4.7v-23L913.3,491.1
			L913.3,491.1z"/>
		<path d="M945.4,512.3c-1.1,1.4-2.7,2-4.7,2c-1.8,0-3.2-0.5-4.2-1.6s-1.5-2.6-1.5-4.6V497h4.6v11c0,1.8,0.8,2.7,2.4,2.7
			s2.6-0.5,3.2-1.6V497h4.6v17.1h-4.3L945.4,512.3L945.4,512.3z"/>
		<path d="M957.4,497l0.1,2c1.2-1.5,2.9-2.3,4.9-2.3c1.8,0,3.2,0.5,4,1.6s1.3,2.6,1.4,4.8v11h-4.6v-10.9c0-1-0.2-1.7-0.6-2.1
			s-1.1-0.7-2.1-0.7c-1.3,0-2.2,0.5-2.9,1.6v12h-4.6V497L957.4,497L957.4,497z"/>
		<path d="M971.3,492.6c0-0.7,0.2-1.2,0.7-1.7s1.1-0.7,1.9-0.7s1.4,0.2,1.9,0.7c0.5,0.4,0.7,1,0.7,1.7s-0.2,1.3-0.7,1.7
			c-0.5,0.4-1.1,0.7-1.8,0.7s-1.4-0.2-1.9-0.7S971.3,493.3,971.3,492.6z M976.1,514.1h-4.6V497h4.6V514.1z"/>
		<path d="M987,510.7c0.8,0,1.5-0.2,2-0.7c0.5-0.5,0.8-1.1,0.8-1.9h4.3c0,1.2-0.3,2.2-0.9,3.2c-0.6,1-1.5,1.7-2.6,2.2
			c-1.1,0.5-2.3,0.8-3.6,0.8c-2.4,0-4.4-0.8-5.8-2.3s-2.1-3.7-2.1-6.4v-0.3c0-2.6,0.7-4.7,2.1-6.3s3.3-2.4,5.8-2.4
			c2.1,0,3.9,0.6,5.1,1.8c1.3,1.2,1.9,2.8,2,4.9h-4.3c0-0.9-0.3-1.6-0.8-2.2c-0.5-0.6-1.2-0.8-2.1-0.8c-1.1,0-1.9,0.4-2.4,1.2
			s-0.8,2-0.8,3.8v0.5c0,1.8,0.3,3,0.8,3.8C985.1,510.3,985.9,510.7,987,510.7L987,510.7z"/>
		<path d="M996.7,492.6c0-0.7,0.2-1.2,0.7-1.7s1.1-0.7,1.9-0.7s1.4,0.2,1.9,0.7s0.7,1,0.7,1.7s-0.2,1.3-0.7,1.7
			c-0.5,0.4-1.1,0.7-1.8,0.7s-1.4-0.2-1.9-0.7S996.7,493.3,996.7,492.6z M1001.6,514.1H997V497h4.6V514.1z"/>
		<path d="M1020.7,505.7c0,2.6-0.6,4.7-1.8,6.3s-2.8,2.4-4.8,2.4c-1.7,0-3.1-0.6-4.2-1.8v8h-4.6V497h4.2l0.2,1.7
			c1.1-1.3,2.6-2,4.3-2c2.1,0,3.7,0.8,4.9,2.3s1.8,3.7,1.8,6.4L1020.7,505.7L1020.7,505.7z M1016.1,505.4c0-1.6-0.3-2.8-0.8-3.7
			s-1.4-1.3-2.5-1.3c-1.4,0-2.4,0.5-2.9,1.6v7c0.6,1.1,1.6,1.7,3,1.7C1015.1,510.7,1016.1,508.9,1016.1,505.4L1016.1,505.4z"/>
		<path d="M1033.4,514.1c-0.2-0.4-0.4-0.9-0.5-1.5c-1.1,1.2-2.5,1.8-4.3,1.8c-1.7,0-3.1-0.5-4.2-1.5c-1.1-1-1.7-2.2-1.7-3.7
			c0-1.8,0.7-3.2,2-4.2s3.3-1.5,5.8-1.5h2.1v-1c0-0.8-0.2-1.4-0.6-1.9s-1-0.7-1.9-0.7c-0.8,0-1.4,0.2-1.8,0.5
			c-0.4,0.4-0.7,0.9-0.7,1.5h-4.6c0-1,0.3-1.9,0.9-2.8c0.6-0.8,1.5-1.5,2.6-2s2.4-0.7,3.8-0.7c2.1,0,3.8,0.5,5,1.6s1.9,2.5,1.9,4.5
			v7.4c0,1.6,0.2,2.8,0.7,3.7v0.3L1033.4,514.1L1033.4,514.1z M1029.7,510.9c0.7,0,1.3-0.1,1.9-0.5s1-0.7,1.3-1.2v-2.9h-1.7
			c-2.3,0-3.5,0.8-3.7,2.4l0,0.3c0,0.6,0.2,1,0.6,1.4S1029,510.9,1029.7,510.9L1029.7,510.9z"/>
		<path d="M1045.7,514.1h-4.6v-24.2h4.6V514.1z"/>
		<path d="M1049.4,492.6c0-0.7,0.2-1.2,0.7-1.7s1.1-0.7,1.9-0.7s1.4,0.2,1.9,0.7s0.7,1,0.7,1.7s-0.2,1.3-0.7,1.7
			c-0.5,0.4-1.1,0.7-1.8,0.7s-1.4-0.2-1.9-0.7S1049.4,493.3,1049.4,492.6z M1054.3,514.1h-4.6V497h4.6V514.1z"/>
		<path d="M1069.9,492.6c0-0.7,0.2-1.2,0.7-1.7s1.1-0.7,1.9-0.7s1.4,0.2,1.9,0.7s0.7,1,0.7,1.7s-0.2,1.3-0.7,1.7
			c-0.5,0.4-1.1,0.7-1.8,0.7s-1.4-0.2-1.9-0.7S1069.9,493.3,1069.9,492.6z M1074.7,514.1h-4.6V497h4.6V514.1z"/>
		<path d="M1063.5,492.8v4.2h2.9v3.4h-2.9v8.5c0,0.6,0.1,1.1,0.4,1.4c0.2,0.3,0.7,0.4,1.4,0.4c0.5,0,0.9,0,1.3-0.1v3.5
			c-0.9,0.3-1.8,0.4-2.8,0.4c-3.2,0-4.8-1.6-4.9-4.9v-9.2h-2.5V497h2.5v-4.2L1063.5,492.8L1063.5,492.8z"/>
		<path d="M1087,514.1c-2.5,0-4.5-0.8-6.1-2.3c-1.6-1.5-2.4-3.6-2.4-6.1v-0.4c0-1.7,0.3-3.2,1-4.6s1.6-2.4,2.8-3.1s2.6-1.1,4.2-1.1
			c2.3,0,4.2,0.7,5.5,2.2c1.3,1.5,2,3.6,2,6.3v1.9h-10.9c0.2,1.1,0.6,2,1.3,2.7s1.7,1,2.8,1c1.8,0,3.1-0.6,4.1-1.9l2.2,2.5
			c-0.7,1-1.6,1.7-2.8,2.3S1088.4,514.1,1087,514.1L1087,514.1z M1086.5,500.1c-0.9,0-1.6,0.3-2.2,0.9c-0.6,0.6-0.9,1.5-1.1,2.6h6.3
			v-0.4c0-1-0.3-1.8-0.8-2.4C1088.2,500.4,1087.5,500.1,1086.5,500.1L1086.5,500.1z"/>
		<path d="M1105.7,509.3c0-0.6-0.3-1-0.8-1.3c-0.6-0.3-1.4-0.6-2.7-0.9c-4.1-0.8-6.1-2.6-6.1-5.2c0-1.5,0.6-2.8,1.9-3.8
			c1.3-1,2.9-1.5,4.9-1.5c2.2,0,3.9,0.5,5.2,1.5c1.3,1,1.9,2.3,1.9,4h-4.6c0-0.7-0.2-1.2-0.6-1.6s-1.1-0.6-2-0.6
			c-0.8,0-1.4,0.2-1.8,0.5c-0.4,0.3-0.6,0.8-0.6,1.3c0,0.5,0.2,0.9,0.7,1.2s1.3,0.6,2.4,0.8s2.1,0.5,2.9,0.8
			c2.4,0.9,3.6,2.4,3.6,4.6c0,1.6-0.7,2.8-2,3.8s-3.1,1.4-5.2,1.4c-1.4,0-2.7-0.2-3.8-0.8c-1.1-0.5-2-1.2-2.6-2.1
			c-0.6-0.9-0.9-1.8-0.9-2.9h4.3c0,0.8,0.3,1.4,0.9,1.9s1.3,0.7,2.2,0.7c0.9,0,1.5-0.2,2-0.5S1105.7,509.8,1105.7,509.3
			L1105.7,509.3z"/>
	</g>
</g>
<g>
	<rect x="1026.4" y="29.2" class="st6" width="11.8" height="3.1"/>
	<rect x="1042.5" y="29.2" width="11.8" height="3.1"/>
	<rect x="1058.7" y="29.2" width="11.8" height="3.1"/>
	<rect x="1074.9" y="29.2" width="11.8" height="3.1"/>
	<rect x="919" y="39.5" class="st0" width="179.3" height="43.6"/>
	<path class="st6" d="M919,109.3h179.3v15.3c0,5.5-4.5,10-10,10H930.9c-6.6,0-11.9-5.3-11.9-11.9L919,109.3L919,109.3L919,109.3z"/>
	<path class="st4" d="M1049,152.5h-26.4c-4.9,0-8.9-4-8.9-8.9V128c0-4.9,4-8.9,8.9-8.9h26.4c4.9,0,8.9,4,8.9,8.9v15.6
		C1057.8,148.5,1053.9,152.5,1049,152.5z"/>
	<rect x="965.5" y="124.9" width="36" height="3.4"/>
	<path class="st4" d="M921.5,73.9c0,0,41.9,7.9,69.7,4.9c27.8-2.9,83.9-24,107-5.4v17.8L921.5,89L921.5,73.9L921.5,73.9z"/>
	<circle class="st6" cx="960.1" cy="92.2" r="9.1"/>
	<circle class="st6" cx="992.4" cy="92.2" r="9.1"/>
	<circle class="st6" cx="1024.8" cy="92.2" r="9.1"/>
	<circle class="st6" cx="1057.1" cy="92.2" r="9.1"/>
	<path class="st6" d="M937.7,31.4c-0.6,0.3-1.8,0.6-3.4,0.6c-3.6,0-6.3-2.3-6.3-6.5s2.7-6.7,6.7-6.7c1.6,0,2.6,0.3,3,0.6l-0.4,1.4
		c-0.6-0.3-1.5-0.5-2.6-0.5c-3,0-5,1.9-5,5.3c0,3.1,1.8,5.1,4.9,5.1c1,0,2-0.2,2.7-0.5L937.7,31.4L937.7,31.4z"/>
	<path d="M941.5,20c0,0.6-0.4,1-1.1,1c-0.6,0-1-0.5-1-1s0.4-1,1-1S941.5,19.4,941.5,20z M939.6,31.8v-9.2h1.7v9.2
		C941.3,31.8,939.6,31.8,939.6,31.8z"/>
	<path d="M946.1,20v2.6h2.4v1.3h-2.4v4.9c0,1.1,0.3,1.8,1.2,1.8c0.4,0,0.8-0.1,1-0.1l0.1,1.2c-0.3,0.1-0.8,0.2-1.5,0.2
		c-0.8,0-1.4-0.2-1.8-0.7c-0.5-0.5-0.7-1.3-0.7-2.4v-5H943v-1.3h1.4v-2.2L946.1,20L946.1,20z"/>
	<path d="M951.1,22.6l2,5.4c0.2,0.6,0.4,1.3,0.6,1.9h0c0.2-0.5,0.4-1.2,0.6-1.9l1.8-5.4h1.8l-2.5,6.5c-1.2,3.2-2,4.8-3.2,5.8
		c-0.8,0.7-1.6,1-2,1.1l-0.4-1.4c0.4-0.1,1-0.4,1.5-0.8c0.5-0.4,1-1,1.4-1.9c0.1-0.2,0.1-0.3,0.1-0.4s0-0.2-0.1-0.4l-3.4-8.5
		L951.1,22.6L951.1,22.6z"/>
	<path class="st1" d="M932.6,1.6h152.5c7.2,0,13.1,5.8,13.1,13.1v106.8c0,7.2-5.8,13.1-13.1,13.1H932.6c-7.2,0-13.1-5.8-13.1-13.1
		V14.7C919.6,7.5,925.4,1.6,932.6,1.6z"/>
	<rect x="969.8" y="352.5" class="st7" width="11.8" height="3.1"/>
	<rect x="985.9" y="352.5" width="11.8" height="3.1"/>
	<rect x="1002.1" y="352.5" width="11.8" height="3.1"/>
	<rect x="1018.3" y="352.5" width="11.8" height="3.1"/>
	<rect x="919.6" y="362.8" class="st0" width="178.7" height="42.1"/>
	<path class="st7" d="M919,435.9h179.3v11.9c0,5.5-4.5,10-10,10H930.9c-6.6,0-11.9-5.3-11.9-11.9L919,435.9L919,435.9L919,435.9z"/>
	<path class="st4" d="M1049,475.8h-26.4c-4.9,0-8.9-4-8.9-8.9v-15.6c0-4.9,4-8.9,8.9-8.9h26.4c4.9,0,8.9,4,8.9,8.9v15.6
		C1057.8,471.8,1053.9,475.8,1049,475.8z"/>
	<rect x="965.5" y="448.2" width="36" height="3.4"/>
	<path class="st7" d="M937.7,354.7c-0.6,0.3-1.8,0.6-3.4,0.6c-3.6,0-6.3-2.3-6.3-6.5s2.7-6.7,6.7-6.7c1.6,0,2.6,0.3,3,0.6l-0.4,1.4
		c-0.6-0.3-1.5-0.5-2.6-0.5c-3,0-5,1.9-5,5.3c0,3.1,1.8,5.1,4.9,5.1c1,0,2-0.2,2.7-0.5L937.7,354.7L937.7,354.7z"/>
	<path d="M941.5,343.4c0,0.6-0.4,1-1.1,1c-0.6,0-1-0.5-1-1s0.4-1,1-1S941.5,342.8,941.5,343.4z M939.6,355.1v-9.2h1.7v9.2H939.6z"/>
	<path d="M946.1,343.3v2.6h2.4v1.3h-2.4v5c0,1.1,0.3,1.8,1.2,1.8c0.4,0,0.8-0.1,1-0.1l0.1,1.2c-0.3,0.1-0.8,0.2-1.5,0.2
		c-0.8,0-1.4-0.2-1.8-0.7c-0.5-0.5-0.7-1.3-0.7-2.4v-5H943v-1.3h1.4v-2.2L946.1,343.3L946.1,343.3z"/>
	<path d="M951.1,345.9l2,5.4c0.2,0.6,0.4,1.3,0.6,1.9h0c0.2-0.5,0.4-1.2,0.6-1.9l1.8-5.4h1.8l-2.5,6.5c-1.2,3.1-2,4.8-3.2,5.8
		c-0.8,0.7-1.6,1-2,1.1l-0.4-1.4c0.4-0.1,1-0.4,1.5-0.8c0.5-0.4,1-1,1.4-1.9c0.1-0.2,0.1-0.3,0.1-0.4s0-0.2-0.1-0.4l-3.4-8.5
		L951.1,345.9L951.1,345.9z"/>
	<path class="st1" d="M932.6,325h152.5c7.2,0,13.1,5.8,13.1,13.1v106.8c0,7.2-5.8,13.1-13.1,13.1H932.6c-7.2,0-13.1-5.8-13.1-13.1
		V338C919.6,330.8,925.4,325,932.6,325z"/>
	<rect x="1026.4" y="190.9" class="st8" width="11.8" height="3.1"/>
	<rect x="1042.5" y="190.9" width="11.8" height="3.1"/>
	<rect x="1058.7" y="190.9" width="11.8" height="3.1"/>
	<rect x="1074.9" y="190.9" width="11.8" height="3.1"/>
	<rect x="930.5" y="201.2" class="st0" width="156.2" height="43.6"/>
	<rect x="1013.7" y="272.7" class="st0" width="44.2" height="23.5"/>
	<rect x="965.5" y="278.5" width="36" height="3.4"/>
	<rect x="965.5" y="286.6" width="36" height="3.4"/>
	<circle class="st8" cx="960.1" cy="245.8" r="9.1"/>
	<circle class="st8" cx="992.4" cy="245.8" r="9.1"/>
	<circle class="st8" cx="1024.8" cy="245.8" r="9.1"/>
	<circle class="st8" cx="1057.1" cy="245.8" r="9.1"/>
	<path class="st8" d="M937.7,193c-0.6,0.3-1.8,0.6-3.4,0.6c-3.6,0-6.3-2.3-6.3-6.5s2.7-6.7,6.7-6.7c1.6,0,2.6,0.3,3,0.6l-0.4,1.4
		c-0.6-0.3-1.5-0.5-2.6-0.5c-3,0-5,1.9-5,5.3c0,3.1,1.8,5.1,4.9,5.1c1,0,2-0.2,2.7-0.5L937.7,193L937.7,193z"/>
	<path d="M941.5,181.7c0,0.6-0.4,1-1.1,1c-0.6,0-1-0.5-1-1s0.4-1.1,1-1.1S941.5,181.1,941.5,181.7z M939.6,193.5v-9.2h1.7v9.2H939.6
		z"/>
	<path d="M946.1,181.6v2.6h2.4v1.3h-2.4v4.9c0,1.1,0.3,1.8,1.2,1.8c0.4,0,0.8-0.1,1-0.1l0.1,1.2c-0.3,0.1-0.8,0.2-1.5,0.2
		c-0.8,0-1.4-0.2-1.8-0.7c-0.5-0.5-0.7-1.3-0.7-2.4v-5H943v-1.3h1.4v-2.2L946.1,181.6L946.1,181.6z"/>
	<path d="M951.1,184.3l2,5.4c0.2,0.6,0.4,1.3,0.6,1.9h0c0.2-0.6,0.4-1.2,0.6-1.9l1.8-5.4h1.8l-2.5,6.6c-1.2,3.1-2,4.8-3.2,5.8
		c-0.8,0.7-1.6,1-2,1.1l-0.4-1.4c0.4-0.1,1-0.4,1.5-0.8c0.5-0.4,1-1,1.4-1.9c0.1-0.2,0.1-0.3,0.1-0.4s0-0.2-0.1-0.4l-3.4-8.5
		L951.1,184.3L951.1,184.3z"/>
	<path class="st1" d="M932.6,163.3h152.5c7.2,0,13.1,5.8,13.1,13.1v106.8c0,7.2-5.8,13.1-13.1,13.1H932.6c-7.2,0-13.1-5.8-13.1-13.1
		V176.4C919.6,169.2,925.4,163.3,932.6,163.3z"/>
	<rect x="1054.4" y="345.9" class="st7" width="32.3" height="11.9"/>
	
		<rect x="957.6" y="400.2" transform="matrix(0.7071 -0.7071 0.7071 0.7071 -6.3675 803.6885)" class="st7" width="18.6" height="18.6"/>
	
		<rect x="998.1" y="400.2" transform="matrix(0.7071 -0.7071 0.7071 0.7071 5.4637 832.2739)" class="st7" width="18.6" height="18.6"/>
	
		<rect x="1038.5" y="400.2" transform="matrix(0.7071 -0.7071 0.7071 0.7071 17.3048 860.8494)" class="st7" width="18.6" height="18.6"/>
</g>
<rect x="730.2" y="228.4" class="st9" width="142.8" height="4.1"/>
<rect x="799.6" y="70.2" class="st9" width="4.1" height="320.6"/>
<path class="st10" d="M786.5,418.9c0.2,0,0.4,0.1,0.7,0.1c2.1,0.4,4.1,0,6-1.1c0.3-0.2,0.7-0.4,1-0.6c2-1.1,3.3-2.8,4-5
	c0.3-0.9,0.6-1.1,1.5-1.2c1.5,0,3-0.1,4.5-0.1c0.9,0,1.2,0.3,1.5,1.1c0.8,2.2,2.1,3.8,4.2,4.9c1.3,0.7,2.6,1.4,4.1,1.6
	c1.1,0.1,2.2,0.1,3.2-0.2c0.8-0.2,1.3,0,1.7,0.6c0.8,1.3,1.6,2.6,2.4,4c0.4,0.7,0.3,1.2-0.2,1.8c-1.6,1.8-2.3,3.9-2.2,6.4
	c0,1.9,0.2,3.7,1.2,5.3c0.4,0.6,0.8,1.1,1.2,1.6c0.5,0.5,0.6,1,0.2,1.7c-0.8,1.4-1.5,2.7-2.3,4.1c-0.4,0.7-0.8,0.9-1.6,0.7
	c-2.3-0.5-4.5-0.1-6.5,1.2c-1.6,1-3.1,2-4,3.7c-0.3,0.6-0.6,1.2-0.8,1.9c-0.2,0.8-0.6,1.1-1.3,1.1c-1.5,0-3.1,0.1-4.7,0.1
	c-0.8,0-1.2-0.3-1.4-1.1c-0.7-2.2-2.2-3.9-4.2-5c-1.6-0.9-3.1-1.6-5-1.6c-0.8,0-1.5,0.1-2.3,0.3c-0.7,0.2-1.2,0-1.6-0.6
	c-0.8-1.4-1.6-2.7-2.4-4.1c-0.4-0.6-0.3-1.1,0.2-1.7c1.7-1.8,2.4-4,2.3-6.5c0-0.9,0-1.8-0.2-2.7c-0.3-1.5-1.1-2.9-2.2-4.1
	c-0.6-0.6-0.6-1.1-0.2-1.8c0.7-1.3,1.5-2.6,2.2-4C785.5,419.2,785.9,418.9,786.5,418.9L786.5,418.9z"/>
<path class="st11" d="M791.5,432.5c-0.4-6,4.1-11.1,10.1-11.5c5.9-0.4,11,4.1,11.4,10.1c0.4,5.9-4.1,11.1-10,11.5
	C797,442.9,791.9,438.5,791.5,432.5L791.5,432.5z"/>
<path class="st10" d="M771.5,450c0.1,0,0.3,0,0.4,0c1.3,0.1,2.5-0.3,3.5-1.1c0.2-0.1,0.4-0.3,0.6-0.4c1.1-0.8,1.8-1.9,2.1-3.3
	c0.1-0.5,0.3-0.7,0.8-0.8c0.9-0.1,1.8-0.2,2.7-0.4c0.5-0.1,0.8,0.1,1,0.6c0.6,1.3,1.6,2.1,2.9,2.7c0.8,0.3,1.7,0.7,2.6,0.7
	c0.7,0,1.3-0.1,1.9-0.3c0.4-0.2,0.8-0.1,1,0.3c0.6,0.7,1.1,1.5,1.7,2.2c0.3,0.4,0.3,0.7,0,1.1c-0.8,1.2-1.1,2.5-0.9,4
	c0.2,1.1,0.4,2.2,1.1,3.1c0.3,0.3,0.5,0.6,0.8,0.9c0.3,0.3,0.4,0.6,0.2,1c-0.3,0.9-0.7,1.8-1.1,2.6c-0.2,0.4-0.4,0.6-0.9,0.5
	c-1.4-0.1-2.7,0.3-3.8,1.2c-0.9,0.7-1.7,1.4-2.2,2.5c-0.2,0.4-0.3,0.8-0.3,1.2c-0.1,0.5-0.3,0.7-0.7,0.8c-0.9,0.1-1.9,0.3-2.8,0.4
	c-0.5,0.1-0.7-0.1-0.9-0.5c-0.6-1.3-1.6-2.2-2.9-2.7c-1-0.4-2-0.8-3.1-0.6c-0.5,0-0.9,0.2-1.4,0.3c-0.4,0.2-0.8,0.1-1-0.3
	c-0.6-0.8-1.2-1.5-1.8-2.3c-0.3-0.4-0.3-0.7,0-1c0.9-1.2,1.2-2.6,0.9-4.1c-0.1-0.5-0.1-1.1-0.3-1.6c-0.3-0.9-0.9-1.7-1.6-2.3
	c-0.4-0.3-0.5-0.6-0.3-1.1c0.3-0.9,0.7-1.7,1-2.6C771,450.2,771.2,450.1,771.5,450L771.5,450z"/>
<path class="st11" d="M775.5,457.8c-0.7-3.6,1.7-7,5.3-7.7c3.5-0.7,6.9,1.7,7.6,5.3c0.7,3.5-1.7,7-5.2,7.6
	C779.6,463.7,776.2,461.4,775.5,457.8L775.5,457.8z"/>
<path class="st10" d="M778.2,428.8c-0.1,0.9,0.3,1.6,0.9,2.2c0.5,0.5,1,0.9,1.7,0.9c0.3,0,0.5,0.2,0.5,0.5c0.1,0.4,0.2,0.8,0.2,1.2
	c0.1,0.3,0,0.5-0.3,0.6c-1.2,0.5-1.9,2.7-1.3,3.8c0.2,0.3,0.1,0.5-0.2,0.8c-0.3,0.2-0.6,0.5-0.9,0.8c-0.2,0.2-0.5,0.2-0.7,0.1
	c-1.1-0.7-3.2-0.3-4,0.8c-0.2,0.3-0.4,0.3-0.7,0.2c-0.4-0.1-0.8-0.3-1.2-0.4c-0.3-0.1-0.4-0.2-0.4-0.5c-0.1-1.7-1.1-2.8-2.8-3.1
	c-0.2,0-0.4-0.2-0.4-0.4c-0.1-0.5-0.2-0.9-0.3-1.3c-0.1-0.3,0-0.5,0.3-0.6c1.2-0.6,1.9-2.8,1.3-3.9c-0.1-0.2-0.1-0.4,0.1-0.6
	c0.3-0.3,0.7-0.6,1-0.9c0.2-0.2,0.4-0.2,0.6,0c1.1,0.8,3.4,0.3,4.1-0.8c0.1-0.2,0.3-0.2,0.5-0.2c0.5,0.1,0.9,0.3,1.4,0.5
	C778.1,428.5,778.2,428.6,778.2,428.8L778.2,428.8z"/>
<path class="st11" d="M771.8,435c-0.3-1.8,0.9-3.6,2.7-4c1.9-0.4,3.7,0.9,4,2.8c0.3,1.8-0.9,3.6-2.8,4
	C773.8,438,772.1,436.8,771.8,435L771.8,435z"/>
<path class="st10" d="M831.3,425.4c-0.1,0.9,0.3,1.6,0.9,2.2c0.5,0.5,1,0.9,1.7,0.9c0.3,0,0.5,0.2,0.5,0.5c0.1,0.4,0.2,0.8,0.2,1.2
	c0.1,0.3,0,0.5-0.3,0.6c-1.2,0.5-1.9,2.7-1.3,3.8c0.2,0.3,0.1,0.5-0.2,0.8c-0.3,0.2-0.6,0.5-0.9,0.8c-0.2,0.2-0.5,0.2-0.7,0.1
	c-1.1-0.7-3.2-0.3-4,0.8c-0.2,0.3-0.4,0.3-0.7,0.2c-0.4-0.1-0.8-0.3-1.2-0.4c-0.3-0.1-0.4-0.2-0.4-0.5c-0.1-1.7-1.1-2.8-2.8-3.1
	c-0.2,0-0.4-0.2-0.4-0.4c-0.1-0.5-0.2-0.9-0.3-1.3c-0.1-0.3,0-0.5,0.3-0.6c1.2-0.6,1.9-2.8,1.3-3.9c-0.1-0.2-0.1-0.4,0.1-0.6
	c0.3-0.3,0.7-0.6,1-0.9c0.2-0.2,0.4-0.2,0.6,0c1.1,0.8,3.4,0.3,4.1-0.8c0.1-0.2,0.3-0.2,0.5-0.2c0.5,0.1,0.9,0.3,1.4,0.5
	C831.2,425.1,831.3,425.2,831.3,425.4L831.3,425.4z"/>
<path class="st11" d="M824.9,431.5c-0.3-1.8,0.9-3.6,2.7-4c1.9-0.4,3.7,0.9,4,2.8c0.3,1.8-0.9,3.6-2.8,4
	C827,434.6,825.2,433.4,824.9,431.5L824.9,431.5z"/>
<path class="st12" d="M776.1,499.7v5.9H772v-17.2h6.9c1.3,0,2.5,0.2,3.5,0.7c1,0.5,1.8,1.2,2.4,2.1c0.6,0.9,0.8,1.9,0.8,3
	c0,1.7-0.6,3-1.8,4c-1.2,1-2.9,1.5-5,1.5L776.1,499.7L776.1,499.7z M776.1,496.5h2.7c0.8,0,1.4-0.2,1.8-0.6c0.4-0.4,0.6-1,0.6-1.7
	c0-0.8-0.2-1.5-0.7-1.9s-1-0.7-1.8-0.7h-2.8L776.1,496.5L776.1,496.5z"/>
<path class="st12" d="M802.1,505.6H798l-6.1-10.7v10.7h-4.2v-17.2h4.2l6.1,10.7v-10.7h4.1V505.6z"/>
<path class="st12" d="M808.9,499.7v5.9h-4.2v-17.2h6.9c1.3,0,2.5,0.2,3.5,0.7c1,0.5,1.8,1.2,2.4,2.1c0.6,0.9,0.8,1.9,0.8,3
	c0,1.7-0.6,3-1.8,4c-1.2,1-2.9,1.5-5,1.5L808.9,499.7L808.9,499.7z M808.9,496.5h2.7c0.8,0,1.4-0.2,1.8-0.6c0.4-0.4,0.6-1,0.6-1.7
	c0-0.8-0.2-1.5-0.7-1.9s-1-0.7-1.8-0.7h-2.8L808.9,496.5L808.9,496.5z"/>
<path class="st12" d="M826,488.4l3.8,12l3.8-12h5.5v17.2H835v-4l0.4-8.2l-4.2,12.3h-2.8l-4.2-12.3l0.4,8.2v4h-4.2v-17.2H826
	L826,488.4z"/>
<rect x="799.6" y="66.8" class="st9" width="73.5" height="4.1"/>
<rect x="799.6" y="390.1" class="st9" width="73.5" height="4.1"/>
<rect x="309" y="240.4" class="st9" width="70.9" height="4.1"/>
<polyline class="st0" points="379.5,236.2 388.2,242.5 379.5,248.8 "/>
<polyline class="st0" points="868.7,224.2 877.4,230.5 868.7,236.8 "/>
<polyline class="st0" points="868.7,62.5 877.4,68.8 868.7,75.2 "/>
<polyline class="st0" points="868.7,385.8 877.4,392.2 868.7,398.5 "/>
<text transform="matrix(1 0 0 1 318.3591 62.821)" class="st13 st14"> imio_smartweb_themes</text>
<path class="st15" d="M668.6,38.9c-8.7,0-15.7,7.1-15.7,15.9c0,7,4.5,12.9,10.8,15c0.8,0.2,1.1-0.3,1.1-0.8c0-0.4,0-1.6,0-2.9
	c-4.4,0.9-5.3-1.9-5.3-1.9c-0.7-1.8-1.7-2.3-1.7-2.3c-1.4-1,0.1-1,0.1-1c1.6,0.1,2.4,1.6,2.4,1.6c1.4,2.4,3.7,1.7,4.6,1.3
	c0.1-1,0.5-1.7,1-2.1c-3.5-0.4-7.2-1.7-7.2-7.8c0-1.7,0.6-3.2,1.6-4.3c-0.2-0.4-0.7-2,0.2-4.2c0,0,1.3-0.4,4.3,1.6
	c1.3-0.3,2.6-0.5,3.9-0.5c1.3,0,2.7,0.2,3.9,0.5c3-2,4.3-1.6,4.3-1.6c0.9,2.2,0.3,3.8,0.2,4.2c1,1.1,1.6,2.5,1.6,4.3
	c0,6.1-3.7,7.4-7.2,7.8c0.6,0.5,1.1,1.4,1.1,2.9c0,2.1,0,3.8,0,4.4c0,0.4,0.3,0.9,1.1,0.8c6.3-2.1,10.8-8,10.8-15
	C684.3,46,677.3,38.9,668.6,38.9z"/>
</svg>
