<svg width="149" height="89" viewBox="0 0 149 89" fill="none" xmlns="http://www.w3.org/2000/svg">
<g clip-path="url(#clip0_1_280)">
<mask id="mask0_1_280" style="mask-type:luminance" maskUnits="userSpaceOnUse" x="0" y="0" width="149" height="89">
<path d="M148.801 0H0V88.8575H148.801V0Z" fill="white"/>
</mask>
<g mask="url(#mask0_1_280)">
<path d="M56.4144 32.6511C56.3385 32.6797 56.2626 32.6923 56.1835 32.6923C55.9209 32.6923 55.671 32.5308 55.5729 32.2711C55.2218 31.3399 54.4878 30.5956 53.5641 30.2282C51.7483 29.5092 49.6857 30.3992 48.9676 32.2172C48.8347 32.553 48.4551 32.7145 48.1229 32.5815C47.7876 32.4484 47.6262 32.0684 47.756 31.7358C48.7398 29.2495 51.5585 28.0301 54.0418 29.0151C55.3072 29.5156 56.3068 30.5354 56.7877 31.8087C56.9142 32.1476 56.7466 32.5213 56.4081 32.648M52.9757 22.6014V26.5795C52.9757 26.9659 52.6625 27.2795 52.2766 27.2795C51.8906 27.2795 51.5774 26.9659 51.5774 26.5795V22.6014C51.5774 22.215 51.8906 21.9015 52.2766 21.9015C52.6625 21.9015 52.9757 22.215 52.9757 22.6014ZM49.1194 19.3328H55.4274C55.8133 19.3328 56.1265 19.6464 56.1265 20.0328C56.1265 20.4192 55.8133 20.7328 55.4274 20.7328H49.1194C48.7335 20.7328 48.4203 20.4192 48.4203 20.0328C48.4203 19.6464 48.7335 19.3328 49.1194 19.3328ZM63.3582 13.0458C63.3899 10.6419 62.6148 9.78987 60.3181 9.56499C50.6505 8.60848 41.4448 5.90681 33.0679 0.316599C32.7262 0.0885564 32.2454 0.00304031 31.6823 0.00304031C31.1192 0.00304031 30.6383 0.0885564 30.2967 0.316599C21.9166 5.90364 12.7109 8.60531 3.04328 9.56183C0.743427 9.78987 -0.0284635 10.6419 7.88359e-06 13.0458C0.12022 22.4684 -0.126531 31.9068 0.240433 41.3168C1.2053 41.3041 2.12587 40.9937 2.7206 40.4331C4.47948 38.7703 7.93401 38.7703 9.6929 40.4331C10.952 41.624 13.5207 41.624 14.7798 40.4331C14.9126 40.3064 15.0898 40.2399 15.2701 40.2462C15.4536 40.2526 15.6244 40.3286 15.751 40.4616C16.0104 40.7372 15.9977 41.1742 15.7225 41.434C14.881 42.2289 13.6093 42.685 12.2363 42.685C10.8634 42.685 9.59167 42.2289 8.75018 41.434C7.49112 40.2431 4.92237 40.2431 3.66331 41.434C2.84398 42.2068 1.60073 42.6502 0.297375 42.6755C0.360646 43.9456 0.468204 45.203 0.616888 46.4509C1.44572 46.3717 2.20496 46.074 2.7206 45.5894C4.47948 43.9266 7.93401 43.9266 9.6929 45.5894C10.952 46.7803 13.5207 46.7803 14.7798 45.5894C14.9126 45.4627 15.0866 45.393 15.2701 45.4025C15.4536 45.4089 15.6244 45.4849 15.751 45.6179C15.8775 45.7509 15.9439 45.9283 15.9376 46.1088C15.9313 46.2925 15.8554 46.4636 15.7225 46.5903C14.881 47.3852 13.6093 47.8413 12.2363 47.8413C10.8634 47.8413 9.59167 47.3852 8.75018 46.5903C7.49112 45.3994 4.92237 45.3994 3.66331 46.5903C2.94521 47.2681 1.91075 47.6925 0.790879 47.8033C0.968034 49.0322 1.18948 50.2484 1.44888 51.4488C1.94555 51.3 2.38527 51.0593 2.7206 50.7457C4.47948 49.0829 7.93401 49.0829 9.6929 50.7457C10.952 51.9366 13.5207 51.9366 14.7798 50.7457C14.9126 50.619 15.0866 50.5525 15.2701 50.5588C15.4536 50.5652 15.6244 50.6412 15.751 50.7742C16.0104 51.0498 15.9977 51.4868 15.7225 51.7466C14.881 52.5415 13.6093 52.9976 12.2363 52.9976C10.8634 52.9976 9.59167 52.5415 8.75018 51.7466C7.49112 50.5557 4.92237 50.5557 3.66331 51.7466C3.14451 52.2375 2.49283 52.5859 1.76207 52.7886C5.54874 68.362 16.1622 81.4301 31.6791 88.8542C39.7175 85.0091 46.4336 79.6438 51.5743 73.2079V32.2964C51.5743 31.91 51.8875 31.5965 52.2734 31.5965C52.6593 31.5965 52.9725 31.91 52.9725 32.2964V71.3836C59.0654 63.0378 62.6148 53.0515 63.083 42.2923C63.5069 32.5593 63.2349 22.7946 63.3551 13.0458" fill="#3F9FA4"/>
<path d="M8.7501 46.5904C9.59159 47.3854 10.8633 47.8415 12.2363 47.8415C13.6092 47.8415 14.8809 47.3854 15.7224 46.5904C15.8553 46.4637 15.9312 46.2927 15.9375 46.109C15.9439 45.9253 15.8774 45.7511 15.7509 45.618C15.6243 45.485 15.4535 45.4058 15.27 45.4027C15.0834 45.3932 14.9126 45.4628 14.7765 45.5895C13.5175 46.7804 10.9519 46.7804 9.68965 45.5895C7.93076 43.9267 4.47624 43.9267 2.71734 45.5895C2.20486 46.0741 1.44246 46.3719 0.616791 46.451C0.67057 46.904 0.727513 47.3569 0.790782 47.8066C1.90749 47.6926 2.94195 47.2714 3.66006 46.5936C4.91912 45.4027 7.48787 45.4027 8.74694 46.5936" fill="white"/>
<path d="M8.75019 41.4309C9.59167 42.2259 10.8634 42.682 12.2363 42.682C13.6093 42.682 14.881 42.2259 15.7225 41.4309C15.9977 41.1712 16.0104 40.7341 15.751 40.4586C15.6244 40.3256 15.4536 40.2495 15.2701 40.2432C15.0866 40.2369 14.9127 40.3034 14.7766 40.4301C13.5176 41.621 10.9488 41.621 9.68974 40.4301C7.93085 38.7673 4.47632 38.7673 2.71743 40.4301C2.12269 40.9907 1.20212 41.3042 0.237259 41.3137C0.249913 41.64 0.25624 41.9662 0.272057 42.2924C0.278384 42.4191 0.287875 42.5458 0.294202 42.6757C1.59756 42.6503 2.8408 42.2069 3.66015 41.4341C4.91921 40.2432 7.48796 40.2432 8.74703 41.4341" fill="white"/>
<path d="M8.75012 51.7467C9.59161 52.5417 10.8633 52.9978 12.2363 52.9978C13.6092 52.9978 14.8809 52.5417 15.7224 51.7467C15.9977 51.487 16.0103 51.0499 15.7509 50.7743C15.6244 50.6413 15.4535 50.5653 15.2701 50.559C15.0866 50.5526 14.9126 50.6191 14.7766 50.7458C13.5175 51.9367 10.9519 51.9367 9.68968 50.7458C7.93078 49.083 4.47626 49.083 2.71737 50.7458C2.38204 51.0626 1.94231 51.3001 1.44565 51.449C1.54372 51.8987 1.65127 52.3453 1.75883 52.7887C2.4896 52.586 3.14127 52.2376 3.66008 51.7467C4.91915 50.5558 7.48789 50.5558 8.74696 51.7467" fill="white"/>
<path d="M54.0481 29.0185C51.5648 28.0334 48.7461 29.2528 47.7622 31.7391C47.6294 32.0748 47.7939 32.4517 48.126 32.5848C48.4614 32.7178 48.841 32.5531 48.9707 32.2174C49.6888 30.3994 51.7514 29.5094 53.5672 30.2284C54.491 30.5958 55.2249 31.3401 55.576 32.2712C55.6741 32.5309 55.924 32.6925 56.1866 32.6925C56.2625 32.6925 56.3416 32.6798 56.4175 32.6513C56.7529 32.5246 56.9237 32.1477 56.7971 31.812C56.3163 30.5388 55.3135 29.5189 54.0512 29.0153" fill="white"/>
<path d="M49.1194 20.7329H55.4274C55.8133 20.7329 56.1265 20.4193 56.1265 20.0329C56.1265 19.6465 55.8133 19.333 55.4274 19.333H49.1194C48.7334 19.333 48.4203 19.6465 48.4203 20.0329C48.4203 20.4193 48.7334 20.7329 49.1194 20.7329Z" fill="white"/>
<path d="M51.5742 22.6015V26.5796C51.5742 26.966 51.8874 27.2796 52.2734 27.2796C52.6593 27.2796 52.9725 26.966 52.9725 26.5796V22.6015C52.9725 22.2151 52.6593 21.9016 52.2734 21.9016C51.8874 21.9016 51.5742 22.2151 51.5742 22.6015Z" fill="white"/>
<path d="M52.2765 31.5966C51.8906 31.5966 51.5774 31.9101 51.5774 32.2965V73.208C52.0551 72.6094 52.5264 72.0013 52.9757 71.3837V32.2965C52.9757 31.9101 52.6625 31.5966 52.2765 31.5966Z" fill="white"/>
<path d="M25.0231 29.7691C24.6909 29.1705 24.906 28.4167 25.4976 28.081C26.0923 27.7484 26.8421 27.9606 27.1711 28.5592C27.5032 29.1578 27.2881 29.9148 26.6965 30.2474C26.1018 30.5799 25.3521 30.3677 25.0231 29.7691Z" fill="white"/>
<path d="M18.4779 60.482L25.2351 78.9281L35.7758 75.3079L34.1466 73.0719C33.9189 72.7615 33.9884 72.3212 34.2985 72.0932L43.0012 65.7365L36.8324 48.7441C36.7755 48.5889 36.7755 48.4147 36.8324 48.2595L37.6233 46.1438L29.9328 39.407L20.3538 48.3799L24.1437 56.7288C24.2955 57.0677 24.1595 57.4636 23.8336 57.6378L18.4715 60.482H18.4779ZM24.8143 80.5149C24.5296 80.5149 24.2607 80.3375 24.1563 80.0557L16.9531 60.3901C16.8329 60.0607 16.972 59.6933 17.2821 59.5318L22.5999 56.713L18.8733 48.5066C18.7499 48.2342 18.8132 47.9111 19.0315 47.7053L29.4393 37.9564C29.7019 37.7094 30.1068 37.7031 30.3789 37.9406L38.9108 45.4122C39.1291 45.6054 39.2082 45.9126 39.107 46.185L38.237 48.5129L44.4975 65.7586C44.6051 66.05 44.5039 66.3794 44.2539 66.5631L35.6904 72.8185L37.4651 75.2541C37.5948 75.4346 37.6328 75.6658 37.5663 75.878C37.4999 76.0903 37.3354 76.2581 37.1266 76.331L25.0389 80.4832C24.963 80.5086 24.8871 80.5212 24.8112 80.5212" fill="white"/>
<path d="M35.5512 38.5836C35.4848 38.5836 35.4215 38.5741 35.3551 38.5551C34.985 38.4474 34.7698 38.0578 34.8806 37.6872L35.6936 34.8874C36.2915 33.2562 38.237 32.5943 38.4585 32.5246C38.8254 32.4074 39.2209 32.6101 39.3379 32.9775C39.455 33.3449 39.2525 33.7377 38.8855 33.858C38.4679 33.9942 37.3196 34.5231 37.0222 35.3276L36.225 38.08C36.1365 38.3872 35.8581 38.5836 35.5544 38.5836" fill="white"/>
<path d="M29.8665 11.6555C29.4457 11.6555 29.0155 11.6714 28.5789 11.7062C24.4696 12.0102 20.7272 13.9106 18.0382 17.0557C15.3461 20.2008 14.0301 24.2137 14.3338 28.3565C14.6185 32.2617 16.3141 35.8407 19.1201 38.5107L21.4136 35.8312C19.3099 33.7788 18.0414 31.0581 17.8262 28.0936C17.5922 24.8947 18.6076 21.7971 20.686 19.3678C22.7644 16.9385 25.6622 15.4689 28.8352 15.2345C31.7582 15.016 34.1023 15.7064 36.3389 17.4674L38.6324 14.7879C35.9973 12.669 33.1691 11.6555 29.8665 11.6555ZM19.1834 40.2115C19.0157 40.2115 18.8512 40.1513 18.7247 40.0405C15.3239 37.0854 13.2677 32.9712 12.9387 28.4547C12.6065 23.9413 14.0427 19.5673 16.9753 16.1404C19.911 12.7102 23.995 10.6388 28.4745 10.3063C32.973 9.97053 36.6616 11.1994 40.0845 14.1735C40.3755 14.4269 40.4072 14.8671 40.1572 15.1585L36.9558 18.899C36.8356 19.0416 36.6616 19.1271 36.4749 19.1429C36.2915 19.1556 36.1048 19.0954 35.9656 18.9719C33.8366 17.1222 31.736 16.4222 28.9396 16.6313C26.1367 16.8403 23.5838 18.1357 21.7458 20.28C19.9078 22.4274 19.0126 25.1639 19.2182 27.9922C19.4238 30.8174 20.7113 33.3956 22.8404 35.2453C23.1314 35.4986 23.163 35.9389 22.9131 36.2303L19.7117 39.9708C19.5915 40.1133 19.4175 40.1989 19.2308 40.2147C19.2119 40.2147 19.196 40.2147 19.1802 40.2147" fill="white"/>
<path d="M31.0653 25.43C30.904 25.43 30.7426 25.3761 30.6098 25.2621C30.3156 25.0119 30.2807 24.5685 30.5338 24.2739L33.7354 20.5334C33.9853 20.2388 34.4282 20.204 34.7224 20.4574C35.0166 20.7076 35.0514 21.151 34.7983 21.4455L31.5968 25.1861C31.4576 25.3476 31.2614 25.43 31.0653 25.43Z" fill="white"/>
<path d="M75.7622 21.8953C75.1485 21.094 74.4241 21.0148 74.0476 21.0148C72.9436 21.0148 72.5987 21.6926 72.5987 22.2183C72.5987 22.4654 72.6778 22.6966 72.9277 22.912C73.1808 23.1432 73.5256 23.2667 74.1868 23.4979C75.0061 23.7766 75.778 24.0522 76.3127 24.5304C76.784 24.9485 77.2111 25.6421 77.2111 26.6905C77.2111 28.6954 75.7306 30.07 73.5573 30.07C71.6212 30.07 70.4855 28.9139 69.9351 28.1253L71.2732 26.8774C71.7762 27.8814 72.7379 28.2488 73.4782 28.2488C74.4083 28.2488 75.1011 27.6945 75.1011 26.8299C75.1011 26.4593 74.9745 26.1679 74.693 25.905C74.3007 25.5503 73.6712 25.3507 73.0701 25.148C72.5196 24.9643 71.8585 24.7173 71.3239 24.2549C70.9759 23.9603 70.4887 23.3902 70.4887 22.3419C70.4887 20.8311 71.5295 19.3203 73.8578 19.3203C74.519 19.3203 75.7622 19.4438 76.8346 20.5238L75.7654 21.8953H75.7622Z" fill="#3F9FA4"/>
<path d="M86.0783 26.1046L84.582 22.2373L83.0857 26.1046H86.0783ZM86.6762 27.8149H82.4403L81.5103 30.07H79.2895L83.8069 19.3203H85.414L89.8049 30.07H87.6L86.6699 27.8149H86.6762Z" fill="#3F9FA4"/>
<path d="M94.8191 19.3203H92.7723V30.07H94.8191V19.3203Z" fill="#3F9FA4"/>
<path d="M98.8367 30.07V19.3203H100.254L106.647 26.491V19.3203H108.691V30.07H107.277L100.883 22.8803V30.07H98.8367Z" fill="#3F9FA4"/>
<path d="M116.236 21.1256V30.07H114.189V21.1256H111.826V19.3203H118.596V21.1256H116.236Z" fill="#3F9FA4"/>
<path d="M75.7939 40.0342H80.6119V40.1609C80.6119 40.8703 80.5169 43.0779 79.0681 44.5127C77.983 45.599 76.6448 45.8999 75.3352 45.8999C74.0255 45.8999 72.6747 45.6307 71.5263 44.481C71.1657 44.1199 69.9667 42.7929 69.9667 40.4301C69.9667 38.3967 70.881 37.152 71.5105 36.5217C72.2982 35.7172 73.6206 34.9127 75.6515 34.9127C76.4392 34.9127 77.2712 35.0394 78.0779 35.4638C78.7549 35.8122 79.4951 36.4425 80.0456 37.3863L78.2677 38.3492C77.9071 37.6397 77.3693 37.2787 77.0403 37.1045C76.6006 36.8827 76.047 36.7719 75.5598 36.7719C74.7246 36.7719 73.7819 37.0728 73.1365 37.7031C72.5386 38.2858 72.0831 39.2962 72.0831 40.4776C72.0831 41.8807 72.681 42.7168 73.1239 43.1412C73.5952 43.5973 74.3355 44.0408 75.4522 44.0408C76.145 44.0408 76.9327 43.8507 77.5148 43.4105C77.9229 43.0969 78.3341 42.5585 78.5081 41.8015H75.8002V40.0373L75.7939 40.0342Z" fill="#3F9FA4"/>
<path d="M90.0612 36.7561H86.284V39.2107H89.903V41.0572H86.284V44.0534H90.0612V45.8999H84.2372V34.9127H90.0612V36.7561Z" fill="#3F9FA4"/>
<path d="M102.326 40.4142C102.326 38.2858 100.877 36.7719 98.8303 36.7719C96.7836 36.7719 95.3347 38.2858 95.3347 40.4142C95.3347 42.5426 96.7836 44.0408 98.8303 44.0408C100.877 44.0408 102.326 42.5426 102.326 40.4142ZM104.433 40.4142C104.433 43.6132 102.133 45.8999 98.8272 45.8999C95.5213 45.8999 93.2215 43.6132 93.2215 40.4142C93.2215 37.2153 95.5213 34.9127 98.8272 34.9127C102.133 34.9127 104.433 37.2153 104.433 40.4142Z" fill="#3F9FA4"/>
<path d="M110.156 39.9677H110.738C111.13 39.9677 112.753 39.9201 112.753 38.3048C112.753 36.6895 111.146 36.6579 110.769 36.6579H110.156V39.9677ZM111.149 34.9127C112.598 34.9127 113.338 35.3086 113.825 35.7362C114.629 36.4425 114.866 37.3832 114.866 38.2067C114.866 39.2772 114.458 40.2179 113.639 40.7911C113.37 40.9875 112.993 41.1712 112.49 41.2694L115.764 45.8968H113.215L110.412 41.4816H110.159V45.8968H108.112V34.9095H111.152L111.149 34.9127Z" fill="#3F9FA4"/>
<path d="M124.201 40.0342H129.019V40.1609C129.019 40.8703 128.925 43.0779 127.476 44.5127C126.391 45.599 125.052 45.8999 123.743 45.8999C122.433 45.8999 121.082 45.6307 119.934 44.481C119.573 44.1199 118.374 42.7929 118.374 40.4301C118.374 38.3967 119.289 37.152 119.918 36.5217C120.706 35.7172 122.028 34.9127 124.059 34.9127C124.847 34.9127 125.682 35.0394 126.485 35.4638C127.162 35.8122 127.903 36.4425 128.453 37.3863L126.675 38.3492C126.315 37.6397 125.777 37.2787 125.448 37.1045C125.008 36.8827 124.455 36.7719 123.967 36.7719C123.132 36.7719 122.189 37.0728 121.541 37.7031C120.943 38.2858 120.488 39.2962 120.488 40.4776C120.488 41.8807 121.085 42.7168 121.528 43.1412C122 43.5973 122.74 44.0408 123.857 44.0408C124.549 44.0408 125.337 43.8507 125.919 43.4105C126.327 43.0969 126.739 42.5585 126.913 41.8015H124.205V40.0373L124.201 40.0342Z" fill="#3F9FA4"/>
<path d="M138.469 36.7561H134.692V39.2107H138.311V41.054H134.692V44.0534H138.469V45.8999H132.645V34.9095H138.469V36.7561Z" fill="#3F9FA4"/>
<path d="M147.352 37.5447C146.738 36.7244 146.014 36.6452 145.634 36.6452C144.533 36.6452 144.185 37.3388 144.185 37.8741C144.185 38.1275 144.264 38.3619 144.517 38.5836C144.77 38.8211 145.115 38.9446 145.776 39.1822C146.596 39.4672 147.368 39.7491 147.902 40.24C148.374 40.6645 148.801 41.3739 148.801 42.4476C148.801 44.4968 147.32 45.8999 145.147 45.8999C143.211 45.8999 142.075 44.7185 141.525 43.9141L142.863 42.6377C143.366 43.6607 144.328 44.0408 145.068 44.0408C145.998 44.0408 146.691 43.4738 146.691 42.5901C146.691 42.2101 146.564 41.9124 146.283 41.6431C145.89 41.2821 145.261 41.0762 144.66 40.8703C144.109 40.6803 143.448 40.4301 142.91 39.955C142.566 39.6541 142.075 39.0713 142.075 38.0008C142.075 36.4552 143.116 34.9095 145.444 34.9095C146.105 34.9095 147.349 35.0362 148.421 36.1384L147.352 37.5415V37.5447Z" fill="#3F9FA4"/>
<path d="M74.5728 52.8331C74.0856 52.1838 73.5098 52.1204 73.2125 52.1204C72.3393 52.1204 72.0641 52.6715 72.0641 53.0959C72.0641 53.2955 72.1274 53.4823 72.3267 53.6597C72.526 53.8466 72.8012 53.9479 73.3263 54.1348C73.9749 54.3597 74.5886 54.5846 75.0125 54.9741C75.3858 55.313 75.7243 55.8736 75.7243 56.7256C75.7243 58.3504 74.5506 59.4653 72.8265 59.4653C71.2891 59.4653 70.3906 58.5278 69.9541 57.888L71.017 56.8745C71.4156 57.6885 72.178 57.9894 72.7664 57.9894C73.5035 57.9894 74.0539 57.5396 74.0539 56.8396C74.0539 56.5388 73.9527 56.3012 73.7281 56.089C73.4149 55.8008 72.9151 55.6393 72.4406 55.4777C72.004 55.3289 71.4789 55.1262 71.055 54.7524C70.7797 54.5149 70.3938 54.0525 70.3938 53.2005C70.3938 51.9747 71.2195 50.749 73.0669 50.749C73.5921 50.749 74.5791 50.8504 75.4269 51.7245L74.5791 52.8362L74.5728 52.8331Z" fill="#3F9FA4"/>
<path d="M79.6058 50.7427V56.0985C79.6058 56.751 79.8178 57.1469 80.0076 57.3622C80.2449 57.6568 80.6814 57.9514 81.3299 57.9514C81.9784 57.9514 82.415 57.6568 82.6554 57.3622C82.8421 57.1437 83.054 56.7478 83.054 56.0985V50.7427H84.6769V55.956C84.6769 56.7605 84.5504 57.5776 84.0537 58.2301C83.4526 59.0346 82.4055 59.4558 81.3299 59.4558C80.2544 59.4558 79.2072 59.0346 78.6062 58.2301C78.1063 57.5776 77.983 56.7605 77.983 55.956V50.7427H79.6058Z" fill="#3F9FA4"/>
<path d="M89.0362 54.7556H89.4981C89.8112 54.7556 91.0956 54.7176 91.0956 53.4348C91.0956 52.1521 89.8207 52.1299 89.5202 52.1299H89.033V54.7556H89.0362ZM89.8239 50.7427C90.9722 50.7427 91.5607 51.0562 91.9466 51.3951C92.5825 51.9557 92.7723 52.7032 92.7723 53.3557C92.7723 54.2045 92.4464 54.9488 91.7979 55.408C91.586 55.5664 91.2854 55.7089 90.8868 55.7881L93.4841 59.459H91.4594L89.2355 55.956H89.0362V59.459H87.4133V50.7427H89.8239Z" fill="#3F9FA4"/>
<path d="M106.559 50.7427H107.732L109.944 56.2854L112.253 50.7427H113.427L114.828 59.4621H113.177L112.427 54.0905L110.194 59.4621H109.643L107.508 54.0905L106.657 59.4621H105.009L106.559 50.7427Z" fill="#3F9FA4"/>
<path d="M122.506 52.2091H119.507V54.1538H122.379V55.6203H119.507V57.9957H122.506V59.4621H117.884V50.7427H122.506V52.2091Z" fill="#3F9FA4"/>
<path d="M127.185 50.7427V56.0985C127.185 56.751 127.397 57.1469 127.583 57.3622C127.82 57.6568 128.257 57.9514 128.909 57.9514C129.56 57.9514 129.994 57.6568 130.231 57.3622C130.418 57.1437 130.63 56.7478 130.63 56.0985V50.7427H132.253V55.956C132.253 56.7605 132.126 57.5776 131.629 58.2301C131.028 59.0346 129.981 59.4558 128.906 59.4558C127.83 59.4558 126.783 59.0346 126.182 58.2301C125.682 57.5776 125.559 56.7605 125.559 55.956V50.7427H127.181H127.185Z" fill="#3F9FA4"/>
<path d="M139.933 52.8331C139.446 52.1838 138.871 52.1204 138.573 52.1204C137.697 52.1204 137.425 52.6715 137.425 53.0959C137.425 53.2955 137.488 53.4823 137.687 53.6597C137.887 53.8466 138.162 53.9479 138.687 54.1348C139.336 54.3597 139.949 54.5846 140.373 54.9741C140.746 55.313 141.085 55.8736 141.085 56.7256C141.085 58.3504 139.911 59.4653 138.187 59.4653C136.65 59.4653 135.751 58.5278 135.315 57.888L136.378 56.8745C136.776 57.6885 137.539 57.9894 138.127 57.9894C138.864 57.9894 139.415 57.5396 139.415 56.8396C139.415 56.5388 139.313 56.3012 139.089 56.089C138.776 55.8008 138.276 55.6393 137.801 55.4777C137.365 55.3289 136.84 55.1262 136.416 54.7524C136.14 54.5149 135.754 54.0525 135.754 53.2005C135.754 51.9747 136.58 50.749 138.428 50.749C138.953 50.749 139.94 50.8504 140.788 51.7245L139.94 52.8362L139.933 52.8331Z" fill="#3F9FA4"/>
<path d="M148.801 52.2091H145.805V54.1538H148.677V55.6203H145.805V57.9957H148.801V59.4621H144.179V50.7427H148.801V52.2091Z" fill="#3F9FA4"/>
<path d="M23.1725 32.0178C22.9353 32.0178 22.7043 31.8975 22.5715 31.6758C20.1071 27.5583 21.4263 22.1866 25.5135 19.7003C27.5982 18.4334 30.1322 18.1104 32.4668 18.8103C32.8369 18.9212 33.0457 19.3108 32.935 19.6813C32.8243 20.0519 32.4352 20.2609 32.0651 20.1501C30.1101 19.5641 27.9874 19.8333 26.2411 20.8975C22.8087 22.9848 21.7015 27.4949 23.7736 30.9536C23.9729 31.2862 23.8653 31.7138 23.5332 31.9133C23.4193 31.9798 23.2959 32.0147 23.1757 32.0147" fill="white"/>
<path d="M36.7027 26.2312C36.7375 26.2312 36.7691 26.2312 36.8039 26.2375C37.0032 26.266 37.1804 26.3832 37.2911 26.5511L38.4078 28.2962L39.6985 26.776L36.7818 24.125C35.9625 24.5272 34.909 25.2367 34.7034 25.9271C34.6528 26.1013 34.6243 26.3452 34.8711 26.6968C34.8869 26.7221 34.9976 26.8741 35.1937 26.8963C35.4563 26.9311 35.8296 26.7506 36.244 26.3959C36.3705 26.285 36.5319 26.228 36.6995 26.228M25.4818 36.262C25.1623 36.262 24.8713 36.0402 24.7985 35.714C24.7131 35.3371 24.9535 34.9634 25.33 34.8779C26.8991 34.5263 27.9462 33.9182 28.4397 33.0694C28.9459 32.1984 28.6928 31.3495 28.6833 31.3115C28.3385 30.2251 28.3543 29.3193 28.7244 28.6161C29.0756 27.9542 29.6292 27.7072 29.8032 27.647C30.6225 27.3144 31.2457 27.4474 31.6222 27.6153C32.3656 27.9479 32.7009 28.6383 32.7958 28.8695L34.425 31.7961C35.1052 33.1359 37.734 32.7463 39.3221 32.3155L37.7498 29.8609C37.7498 29.8609 37.7403 29.845 37.734 29.8355L36.5129 27.9288C35.9814 28.2392 35.4626 28.3596 34.966 28.2804C34.1466 28.1537 33.748 27.5361 33.7037 27.4632C33.2925 26.8741 33.1691 26.1932 33.3652 25.5249C33.8746 23.8146 36.3705 22.7599 36.6521 22.6458C36.902 22.5445 37.1867 22.5952 37.3829 22.7757L41.1379 26.19C41.4163 26.4434 41.4448 26.8742 41.2012 27.1624L39.1955 29.5252L40.9924 32.3282C41.1063 32.5056 41.1347 32.7273 41.0651 32.93C40.9987 33.1327 40.8437 33.2911 40.6444 33.3639C40.0402 33.5856 34.7066 35.4448 33.1881 32.4517L31.5462 29.5062C31.5273 29.4713 31.5114 29.4364 31.4988 29.3984C31.4608 29.3003 31.2995 28.9994 31.0401 28.8885C30.8503 28.8062 30.6067 28.8252 30.3125 28.9455C30.2903 28.955 30.2682 28.9614 30.246 28.9677C30.1891 28.9899 29.509 29.3003 30.0119 30.8807C30.0278 30.9314 30.4675 32.3156 29.664 33.7345C28.9712 34.9539 27.6172 35.7932 25.6305 36.2366C25.5799 36.2493 25.5293 36.2525 25.4787 36.2525" fill="white"/>
<path d="M100.529 55.1008C100.529 54.1601 99.7667 53.3968 98.8272 53.3968C97.8876 53.3968 97.1252 54.1601 97.1252 55.1008C97.1252 56.0415 97.8876 56.8048 98.8272 56.8048C99.7667 56.8048 100.529 56.0415 100.529 55.1008Z" fill="#3F9FA4"/>
<path d="M123.698 23.4092C124.901 23.4092 125.884 24.3942 125.884 25.5978C125.884 26.8013 124.901 27.7863 123.698 27.7863C122.496 27.7863 121.513 26.8013 121.513 25.5978C121.513 24.3942 122.496 23.4092 123.698 23.4092Z" fill="#3F9FA4"/>
</g>
</g>
<defs>
<clipPath id="clip0_1_280">
<rect width="149" height="89" fill="white"/>
</clipPath>
</defs>
</svg>
