<svg width="528" height="599" viewBox="0 0 528 599" fill="none" xmlns="http://www.w3.org/2000/svg">
<path d="M60.7998 0H527.8V599H60.7998V0Z" fill="#093446" fill-opacity="0.9"/>
<path d="M109.168 281.384C109.022 281.439 108.876 281.463 108.724 281.463C108.22 281.463 107.74 281.153 107.552 280.654C106.877 278.866 105.467 277.437 103.693 276.731C100.205 275.351 96.2428 277.06 94.8634 280.551C94.6081 281.195 93.8789 281.506 93.2409 281.25C92.5967 280.995 92.2868 280.265 92.536 279.626C94.4258 274.852 99.8402 272.51 104.61 274.402C107.041 275.363 108.961 277.321 109.885 279.766C110.128 280.417 109.806 281.135 109.156 281.378M102.563 262.086V269.725C102.563 270.467 101.961 271.069 101.22 271.069C100.478 271.069 99.8767 270.467 99.8767 269.725V262.086C99.8767 261.344 100.478 260.741 101.22 260.741C101.961 260.741 102.563 261.344 102.563 262.086ZM95.1551 255.809H107.272C108.013 255.809 108.615 256.411 108.615 257.153C108.615 257.895 108.013 258.497 107.272 258.497H95.1551C94.4137 258.497 93.8121 257.895 93.8121 257.153C93.8121 256.411 94.4137 255.809 95.1551 255.809ZM122.507 243.736C122.567 239.12 121.078 237.484 116.667 237.052C98.0962 235.215 80.4128 230.027 64.3216 219.292C63.6653 218.854 62.7416 218.69 61.66 218.69C60.5783 218.69 59.6546 218.854 58.9983 219.292C42.901 230.021 25.2176 235.209 6.6471 237.046C2.2293 237.484 0.746565 239.12 0.801256 243.736C1.03217 261.83 0.558186 279.955 1.26309 298.024C3.1165 298 4.88484 297.404 6.02727 296.327C9.40591 293.134 16.0417 293.134 19.4204 296.327C21.839 298.614 26.7733 298.614 29.1918 296.327C29.447 296.084 29.7873 295.956 30.1337 295.969C30.4862 295.981 30.8143 296.127 31.0574 296.382C31.5557 296.911 31.5314 297.751 31.0027 298.249C29.3863 299.776 26.9434 300.652 24.3061 300.652C21.6688 300.652 19.2259 299.776 17.6095 298.249C15.191 295.963 10.2567 295.963 7.83811 298.249C6.26426 299.733 3.8761 300.585 1.37247 300.634C1.49401 303.072 1.70062 305.487 1.98622 307.883C3.57833 307.731 5.03676 307.16 6.02727 306.229C9.40591 303.036 16.0417 303.036 19.4204 306.229C21.839 308.516 26.7733 308.516 29.1918 306.229C29.447 305.986 29.7813 305.852 30.1337 305.87C30.4862 305.882 30.8143 306.028 31.0574 306.284C31.3005 306.539 31.4281 306.88 31.4159 307.226C31.4038 307.579 31.2579 307.908 31.0027 308.151C29.3863 309.678 26.9434 310.553 24.3061 310.553C21.6688 310.553 19.2259 309.678 17.6095 308.151C15.191 305.864 10.2567 305.864 7.83811 308.151C6.45872 309.453 4.47162 310.268 2.32045 310.48C2.66074 312.84 3.08612 315.176 3.58441 317.481C4.53846 317.195 5.38313 316.733 6.02727 316.131C9.40591 312.938 16.0417 312.938 19.4204 316.131C21.839 318.417 26.7733 318.417 29.1918 316.131C29.447 315.887 29.7813 315.76 30.1337 315.772C30.4862 315.784 30.8143 315.93 31.0574 316.185C31.5557 316.714 31.5314 317.554 31.0027 318.053C29.3863 319.579 26.9434 320.455 24.3061 320.455C21.6688 320.455 19.2259 319.579 17.6095 318.053C15.191 315.766 10.2567 315.766 7.83811 318.053C6.84155 318.995 5.58974 319.664 4.18601 320.054C11.4599 349.959 31.8474 375.053 61.6539 389.31C77.0949 381.926 89.9959 371.623 99.8706 359.264V280.703C99.8706 279.961 100.472 279.359 101.214 279.359C101.955 279.359 102.557 279.961 102.557 280.703V355.761C114.26 339.735 121.078 320.558 121.978 299.898C122.792 281.208 122.27 262.457 122.5 243.736" fill="#3F9FA4"/>
<path d="M17.6094 308.151C19.2258 309.678 21.6687 310.554 24.306 310.554C26.9433 310.554 29.3862 309.678 31.0026 308.151C31.2578 307.908 31.4036 307.579 31.4158 307.227C31.428 306.874 31.3003 306.539 31.0573 306.284C30.8142 306.029 30.4861 305.876 30.1336 305.87C29.7751 305.852 29.4469 305.986 29.1856 306.229C26.7671 308.516 21.8388 308.516 19.4142 306.229C16.0355 303.036 9.39972 303.036 6.02105 306.229C5.03662 307.16 3.57212 307.731 1.98608 307.884C2.08939 308.753 2.19877 309.623 2.32031 310.487C4.4654 310.268 6.4525 309.459 7.83192 308.157C10.2505 305.87 15.1848 305.87 17.6033 308.157" fill="white"/>
<path d="M17.6094 298.244C19.2258 299.77 21.6687 300.646 24.306 300.646C26.9433 300.646 29.3861 299.77 31.0026 298.244C31.5312 297.745 31.5555 296.906 31.0572 296.377C30.8142 296.121 30.486 295.975 30.1336 295.963C29.7811 295.951 29.4469 296.079 29.1856 296.322C26.7671 298.609 21.8327 298.609 19.4142 296.322C16.0355 293.129 9.39969 293.129 6.02101 296.322C4.87858 297.398 3.11025 298.001 1.25684 298.019C1.28114 298.645 1.2933 299.272 1.32368 299.898C1.33583 300.141 1.35406 300.385 1.36622 300.634C3.86984 300.585 6.25801 299.734 7.83189 298.25C10.2504 295.963 15.1848 295.963 17.6033 298.25" fill="white"/>
<path d="M17.6096 318.053C19.226 319.58 21.6689 320.455 24.3062 320.455C26.9435 320.455 29.3863 319.58 31.0028 318.053C31.5314 317.554 31.5557 316.715 31.0574 316.186C30.8144 315.93 30.4862 315.784 30.1338 315.772C29.7813 315.76 29.4471 315.888 29.1858 316.131C26.7673 318.418 21.839 318.418 19.4144 316.131C16.0357 312.938 9.39989 312.938 6.02122 316.131C5.37709 316.739 4.53242 317.195 3.57837 317.481C3.76675 318.345 3.97336 319.203 4.17997 320.054C5.5837 319.665 6.83551 318.996 7.83209 318.053C10.2506 315.766 15.185 315.766 17.6035 318.053" fill="white"/>
<path d="M104.623 274.408C99.8525 272.517 94.4381 274.858 92.5482 279.633C92.293 280.277 92.609 281.001 93.2471 281.257C93.8912 281.512 94.6204 281.196 94.8696 280.551C96.249 277.06 100.211 275.351 103.699 276.732C105.474 277.437 106.883 278.866 107.558 280.654C107.746 281.153 108.226 281.463 108.731 281.463C108.876 281.463 109.028 281.439 109.174 281.384C109.818 281.141 110.147 280.417 109.903 279.773C108.98 277.328 107.053 275.369 104.629 274.402" fill="white"/>
<path d="M95.155 258.498H107.272C108.013 258.498 108.615 257.896 108.615 257.154C108.615 256.412 108.013 255.81 107.272 255.81H95.155C94.4136 255.81 93.812 256.412 93.812 257.154C93.812 257.896 94.4136 258.498 95.155 258.498Z" fill="white"/>
<path d="M99.8706 262.086V269.725C99.8706 270.467 100.472 271.069 101.214 271.069C101.955 271.069 102.557 270.467 102.557 269.725V262.086C102.557 261.344 101.955 260.742 101.214 260.742C100.472 260.742 99.8706 261.344 99.8706 262.086Z" fill="white"/>
<path d="M101.22 279.359C100.478 279.359 99.8767 279.961 99.8767 280.703V359.265C100.794 358.115 101.7 356.948 102.563 355.762V280.703C102.563 279.961 101.961 279.359 101.22 279.359Z" fill="white"/>
<path d="M48.8682 275.85C48.2301 274.7 48.6434 273.253 49.7797 272.608C50.9222 271.97 52.3623 272.377 52.9943 273.527C53.6324 274.676 53.2192 276.13 52.0828 276.768C50.9404 277.407 49.5002 276.999 48.8682 275.85Z" fill="white"/>
<path d="M36.2954 334.827L49.2754 370.249L69.5232 363.297L66.3937 359.003C65.9561 358.407 66.0898 357.562 66.6854 357.124L83.4025 344.917L71.5528 312.287C71.4435 311.989 71.4435 311.654 71.5528 311.356L73.072 307.294L58.2994 294.357L39.899 311.588L47.1789 327.62C47.4706 328.271 47.2093 329.031 46.5834 329.365L36.2833 334.827H36.2954ZM48.4672 373.296C47.9203 373.296 47.4038 372.955 47.2032 372.414L33.3664 334.651C33.1355 334.018 33.4029 333.313 33.9984 333.002L44.2135 327.589L37.055 311.831C36.818 311.308 36.9396 310.687 37.3589 310.292L57.3514 291.572C57.8558 291.097 58.6336 291.085 59.1562 291.541L75.5453 305.889C75.9646 306.26 76.1165 306.85 75.922 307.373L74.2509 311.843L86.2768 344.96C86.4834 345.519 86.289 346.152 85.8089 346.505L69.3591 358.517L72.7682 363.194C73.0173 363.54 73.0903 363.984 72.9626 364.392C72.835 364.799 72.519 365.122 72.118 365.262L48.8986 373.235C48.7528 373.284 48.6069 373.308 48.4611 373.308" fill="white"/>
<path d="M69.092 292.776C68.9644 292.776 68.8429 292.757 68.7152 292.721C68.0043 292.514 67.591 291.766 67.8037 291.054L69.3655 285.678C70.514 282.546 74.2512 281.274 74.6765 281.141C75.3814 280.916 76.141 281.305 76.3659 282.01C76.5907 282.716 76.2018 283.47 75.4969 283.701C74.6948 283.963 72.4889 284.978 71.9177 286.523L70.3864 291.809C70.2162 292.399 69.6814 292.776 69.0981 292.776" fill="white"/>
<path d="M58.1722 241.067C57.364 241.067 56.5376 241.097 55.699 241.164C47.8053 241.748 40.6165 245.397 35.4512 251.437C30.2799 257.476 27.752 265.182 28.3354 273.137C28.8823 280.636 32.1394 287.509 37.5295 292.636L41.9351 287.491C37.8941 283.55 35.4573 278.325 35.0441 272.632C34.5944 266.49 36.5451 260.541 40.5375 255.876C44.5299 251.212 50.0962 248.389 56.1912 247.939C61.8061 247.52 66.3089 248.846 70.6052 252.227L75.0109 247.082C69.9489 243.013 64.5163 241.067 58.1722 241.067ZM37.651 295.902C37.329 295.902 37.013 295.787 36.7699 295.574C30.2374 289.899 26.2875 281.999 25.6555 273.326C25.0175 264.659 27.7763 256.26 33.4094 249.679C39.0487 243.092 46.8938 239.114 55.4985 238.476C64.1395 237.831 71.225 240.191 77.8001 245.902C78.3591 246.388 78.4199 247.234 77.9399 247.793L71.7902 254.976C71.5593 255.25 71.225 255.414 70.8665 255.445C70.5141 255.469 70.1555 255.353 69.8882 255.116C65.7985 251.564 61.7635 250.22 56.3917 250.622C51.0077 251.023 46.1038 253.511 42.5732 257.628C39.0426 261.752 37.3229 267.007 37.7179 272.438C38.1129 277.863 40.5861 282.814 44.6758 286.366C45.2348 286.852 45.2956 287.698 44.8155 288.257L38.6658 295.44C38.4349 295.714 38.1007 295.878 37.7422 295.908C37.7057 295.908 37.6753 295.908 37.6449 295.908" fill="white"/>
<path d="M60.4749 267.517C60.165 267.517 59.8551 267.414 59.5999 267.195C59.0347 266.715 58.9678 265.863 59.454 265.297L65.6038 258.115C66.0839 257.549 66.9346 257.482 67.4998 257.969C68.0649 258.449 68.1318 259.301 67.6456 259.866L61.4958 267.049C61.2284 267.359 60.8516 267.517 60.4749 267.517Z" fill="white"/>
<path d="M45.3137 280.168C44.8579 280.168 44.4143 279.937 44.1591 279.511C39.4253 271.604 41.9593 261.289 49.8105 256.515C53.8151 254.082 58.6826 253.461 63.1671 254.805C63.8781 255.018 64.2792 255.766 64.0665 256.478C63.8538 257.19 63.1064 257.591 62.3954 257.378C58.64 256.253 54.5625 256.77 51.2081 258.814C44.6149 262.822 42.488 271.482 46.4683 278.124C46.8511 278.763 46.6445 279.584 46.0064 279.967C45.7877 280.095 45.5507 280.162 45.3198 280.162" fill="white"/>
<path d="M71.304 269.056C71.3708 269.056 71.4316 269.056 71.4985 269.068C71.8813 269.123 72.2216 269.348 72.4343 269.67L74.5794 273.022L77.0587 270.102L71.4559 265.011C69.882 265.784 67.8585 267.146 67.4635 268.472C67.3663 268.807 67.3116 269.275 67.7856 269.95C67.816 269.999 68.0286 270.291 68.4054 270.333C68.9098 270.4 69.6268 270.053 70.4229 269.372C70.6659 269.159 70.9759 269.05 71.2979 269.05M49.7498 288.318C49.136 288.318 48.5769 287.892 48.4372 287.266C48.2731 286.542 48.7349 285.824 49.4581 285.66C52.4721 284.985 54.4836 283.817 55.4315 282.187C56.4038 280.515 55.9177 278.885 55.8994 278.812C55.2371 276.725 55.2675 274.986 55.9784 273.636C56.653 272.365 57.7164 271.89 58.0506 271.775C59.6245 271.136 60.8216 271.392 61.5447 271.714C62.9728 272.353 63.6169 273.678 63.7992 274.122L66.9287 279.742C68.2352 282.315 73.285 281.567 76.3356 280.74L73.3154 276.026C73.3154 276.026 73.2972 275.996 73.285 275.977L70.9394 272.316C69.9185 272.912 68.9219 273.143 67.9679 272.991C66.394 272.748 65.6283 271.562 65.5432 271.422C64.7533 270.291 64.5163 268.983 64.893 267.7C65.8714 264.415 70.6659 262.39 71.2068 262.171C71.6868 261.977 72.2337 262.074 72.6105 262.421L79.8236 268.977C80.3584 269.464 80.4131 270.291 79.9452 270.844L76.0925 275.381L79.5441 280.764C79.7628 281.105 79.8175 281.53 79.6838 281.92C79.5562 282.309 79.2585 282.613 78.8756 282.753C77.715 283.179 67.4696 286.749 64.5527 281.001L61.3989 275.345C61.3624 275.278 61.3321 275.211 61.3077 275.138C61.2348 274.95 60.9249 274.372 60.4266 274.159C60.062 274.001 59.5941 274.037 59.029 274.268C58.9864 274.287 58.9439 274.299 58.9014 274.311C58.792 274.353 57.4855 274.95 58.4517 277.984C58.4821 278.082 59.3267 280.74 57.7832 283.464C56.4524 285.806 53.8516 287.418 50.0354 288.269C49.9381 288.294 49.8409 288.3 49.7437 288.3" fill="white"/>
<path d="M191.526 258.262C189.866 256.061 187.906 255.843 186.888 255.843C183.901 255.843 182.968 257.705 182.968 259.149C182.968 259.827 183.182 260.463 183.858 261.054C184.543 261.689 185.476 262.028 187.264 262.663C189.481 263.429 191.569 264.186 193.015 265.499C194.29 266.648 195.446 268.553 195.446 271.432C195.446 276.939 191.441 280.714 185.561 280.714C180.324 280.714 177.251 277.539 175.762 275.373L179.382 271.946C180.743 274.703 183.345 275.712 185.347 275.712C187.863 275.712 189.737 274.19 189.737 271.815C189.737 270.797 189.395 269.997 188.633 269.275C187.572 268.301 185.869 267.752 184.243 267.196C182.754 266.691 180.965 266.013 179.519 264.743C178.578 263.934 177.26 262.368 177.26 259.488C177.26 255.339 180.075 251.189 186.374 251.189C188.163 251.189 191.526 251.528 194.427 254.495L191.535 258.262H191.526Z" fill="white"/>
<path d="M219.428 269.823L215.227 259.201L211.026 269.823H219.428ZM221.107 274.52H209.214L206.602 280.714H200.367L213.051 251.189H217.563L229.892 280.714H223.701L221.089 274.52H221.107Z" fill="white"/>
<path d="M243.014 251.189H238.093V280.714H243.014V251.189Z" fill="white"/>
<path d="M254.496 280.714V251.189H258.271L275.298 270.884V251.189H280.741V280.714H276.975L259.947 260.967V280.714H254.496Z" fill="white"/>
<path d="M300.695 256.148V280.714H295.24V256.148H288.942V251.189H306.985V256.148H300.695Z" fill="white"/>
<path d="M191.925 307.599H205.288V307.94C205.288 309.846 205.024 315.778 201.006 319.634C197.996 322.553 194.285 323.362 190.652 323.362C187.02 323.362 183.273 322.638 180.088 319.549C179.088 318.579 175.762 315.012 175.762 308.663C175.762 303.199 178.298 299.854 180.044 298.16C182.229 295.998 185.897 293.837 191.53 293.837C193.714 293.837 196.022 294.177 198.26 295.318C200.137 296.254 202.19 297.948 203.717 300.484L198.786 303.071C197.786 301.165 196.294 300.195 195.382 299.726C194.162 299.131 192.626 298.833 191.275 298.833C188.959 298.833 186.344 299.641 184.554 301.335C182.896 302.901 181.632 305.616 181.632 308.791C181.632 312.561 183.291 314.808 184.519 315.949C185.826 317.174 187.88 318.366 190.977 318.366C192.898 318.366 195.083 317.855 196.698 316.672C197.83 315.829 198.97 314.383 199.453 312.348H191.942V307.608L191.925 307.599Z" fill="white"/>
<path d="M229.892 298.79H220.317V305.386H229.491V310.348H220.317V318.4H229.892V323.362H215.129V293.837H229.892V298.79Z" fill="white"/>
<path d="M263.402 308.621C263.402 302.901 259.374 298.833 253.685 298.833C247.995 298.833 243.968 302.901 243.968 308.621C243.968 314.34 247.995 318.366 253.685 318.366C259.374 318.366 263.402 314.34 263.402 308.621ZM269.259 308.621C269.259 317.217 262.866 323.362 253.676 323.362C244.486 323.362 238.093 317.217 238.093 308.621C238.093 300.024 244.486 293.837 253.676 293.837C262.866 293.837 269.259 300.024 269.259 308.621Z" fill="white"/>
<path d="M284.357 307.429H285.854C286.863 307.429 291.038 307.301 291.038 302.961C291.038 298.62 286.904 298.535 285.936 298.535H284.357V307.429ZM286.912 293.845C290.639 293.845 292.543 294.909 293.796 296.058C295.863 297.956 296.473 300.484 296.473 302.697C296.473 305.574 295.423 308.101 293.316 309.642C292.624 310.17 291.656 310.663 290.362 310.927L298.784 323.362H292.226L285.016 311.497H284.365V323.362H279.101V293.837H286.92L286.912 293.845Z" fill="white"/>
<path d="M322.25 307.599H334.87V307.94C334.87 309.846 334.622 315.778 330.826 319.634C327.984 322.553 324.479 323.362 321.048 323.362C317.617 323.362 314.079 322.638 311.071 319.549C310.126 318.579 306.985 315.012 306.985 308.663C306.985 303.199 309.38 299.854 311.029 298.16C313.093 295.998 316.557 293.837 321.877 293.837C323.94 293.837 326.128 294.177 328.233 295.318C330.006 296.254 331.945 297.948 333.387 300.484L328.73 303.071C327.785 301.165 326.376 300.195 325.515 299.726C324.363 299.131 322.912 298.833 321.636 298.833C319.449 298.833 316.979 299.641 315.28 301.335C313.714 302.901 312.521 305.616 312.521 308.791C312.521 312.561 314.087 314.808 315.247 315.949C316.482 317.174 318.421 318.366 321.346 318.366C323.161 318.366 325.224 317.855 326.749 316.672C327.818 315.829 328.896 314.383 329.351 312.348H322.258V307.608L322.25 307.599Z" fill="white"/>
<path d="M361.115 298.797H350.477V305.391H360.67V310.344H350.477V318.401H361.115V323.362H344.712V293.837H361.115V298.797Z" fill="white"/>
<path d="M385.08 300.916C383.42 298.712 381.46 298.499 380.433 298.499C377.455 298.499 376.514 300.363 376.514 301.801C376.514 302.482 376.728 303.111 377.412 303.707C378.097 304.345 379.03 304.677 380.818 305.315C383.035 306.081 385.123 306.838 386.569 308.157C387.845 309.297 389 311.203 389 314.087C389 319.593 384.995 323.362 379.115 323.362C373.878 323.362 370.806 320.188 369.316 318.027L372.936 314.598C374.297 317.346 376.899 318.367 378.901 318.367C381.417 318.367 383.292 316.844 383.292 314.47C383.292 313.449 382.949 312.649 382.188 311.926C381.126 310.956 379.423 310.403 377.797 309.85C376.308 309.34 374.52 308.667 373.065 307.391C372.132 306.583 370.805 305.017 370.805 302.141C370.805 297.989 373.621 293.837 379.92 293.837C381.708 293.837 385.072 294.177 387.973 297.138L385.08 300.907V300.916Z" fill="white"/>
<path d="M188.892 341.975C187.507 340.264 185.87 340.097 185.025 340.097C182.543 340.097 181.761 341.549 181.761 342.667C181.761 343.193 181.941 343.685 182.507 344.153C183.074 344.645 183.856 344.912 185.349 345.404C187.192 345.997 188.937 346.589 190.142 347.616C191.203 348.509 192.165 349.986 192.165 352.23C192.165 356.511 188.829 359.448 183.928 359.448C179.557 359.448 177.003 356.978 175.762 355.293L178.784 352.622C179.917 354.767 182.084 355.56 183.757 355.56C185.852 355.56 187.417 354.375 187.417 352.531C187.417 351.738 187.129 351.112 186.491 350.553C185.601 349.794 184.18 349.368 182.831 348.943C181.59 348.55 180.097 348.016 178.892 347.032C178.11 346.406 177.012 345.188 177.012 342.943C177.012 339.714 179.36 336.484 184.611 336.484C186.104 336.484 188.91 336.751 191.32 339.054L188.91 341.983L188.892 341.975Z" fill="white"/>
<path d="M201.46 336.484V350.6C201.46 352.319 202.032 353.363 202.543 353.931C203.183 354.707 204.359 355.483 206.108 355.483C207.856 355.483 209.032 354.707 209.68 353.931C210.183 353.355 210.755 352.311 210.755 350.6V336.484H215.129V350.224C215.129 352.344 214.788 354.498 213.449 356.218C211.829 358.338 209.007 359.448 206.108 359.448C203.208 359.448 200.386 358.338 198.766 356.218C197.418 354.498 197.086 352.344 197.086 350.224V336.484H201.46Z" fill="white"/>
<path d="M227.716 347.057H228.964C229.81 347.057 233.28 346.957 233.28 343.577C233.28 340.197 229.836 340.139 229.024 340.139H227.707V347.057H227.716ZM229.844 336.484C232.947 336.484 234.537 337.31 235.58 338.203C237.298 339.68 237.81 341.649 237.81 343.368C237.81 345.605 236.93 347.566 235.178 348.776C234.605 349.193 233.793 349.568 232.716 349.777L239.734 359.448H234.263L228.254 350.219H227.716V359.448H223.331V336.484H229.844Z" fill="white"/>
<path d="M275.042 336.484H278.179L284.089 351.082L290.261 336.484H293.398L297.144 359.448H292.73L290.726 345.301L284.757 359.448H283.286L277.578 345.301L275.304 359.448H270.899L275.042 336.484Z" fill="white"/>
<path d="M316.827 340.346H309.377V345.468H316.513V349.33H309.377V355.586H316.827V359.448H305.345V336.484H316.827V340.346Z" fill="white"/>
<path d="M329.411 336.484V350.6C329.411 352.319 329.983 353.363 330.486 353.931C331.125 354.707 332.302 355.483 334.059 355.483C335.815 355.483 336.983 354.707 337.623 353.931C338.126 353.355 338.697 352.311 338.697 350.6V336.484H343.072V350.224C343.072 352.344 342.731 354.498 341.392 356.218C339.772 358.338 336.949 359.448 334.05 359.448C331.151 359.448 328.329 358.338 326.708 356.218C325.361 354.498 325.029 352.344 325.029 350.224V336.484H329.403H329.411Z" fill="white"/>
<path d="M364.403 341.975C363.018 340.264 361.381 340.097 360.536 340.097C358.045 340.097 357.271 341.549 357.271 342.667C357.271 343.193 357.451 343.685 358.018 344.153C358.584 344.645 359.367 344.912 360.86 345.404C362.703 345.997 364.448 346.589 365.653 347.616C366.714 348.509 367.676 349.986 367.676 352.23C367.676 356.511 364.34 359.448 359.439 359.448C355.068 359.448 352.514 356.978 351.273 355.293L354.295 352.622C355.428 354.767 357.595 355.56 359.268 355.56C361.363 355.56 362.928 354.375 362.928 352.531C362.928 351.738 362.64 351.112 362.002 350.553C361.111 349.794 359.69 349.368 358.342 348.943C357.101 348.55 355.608 348.016 354.403 347.032C353.62 346.406 352.523 345.188 352.523 342.943C352.523 339.714 354.87 336.484 360.122 336.484C361.615 336.484 364.421 336.751 366.831 339.054L364.421 341.983L364.403 341.975Z" fill="white"/>
<path d="M389 340.346H380.494V345.468H388.649V349.33H380.494V355.586H389V359.448H375.877V336.484H389V340.346Z" fill="white"/>
<path d="M260 348C260 345.24 257.76 343 255 343C252.24 343 250 345.24 250 348C250 350.76 252.24 353 255 353C257.76 353 260 350.76 260 348Z" fill="white"/>
<path d="M320.928 262.671C324.085 262.671 326.669 265.255 326.669 268.412C326.669 271.569 324.085 274.153 320.928 274.153C317.771 274.153 315.187 271.569 315.187 268.412C315.187 265.255 317.771 262.671 320.928 262.671Z" fill="white"/>
</svg>
