<svg width="1921" height="3516" viewBox="0 0 1921 3516" fill="none" xmlns="http://www.w3.org/2000/svg">
<mask id="mask0_166_14" style="mask-type:alpha" maskUnits="userSpaceOnUse" x="0" y="0" width="1921" height="3516">
<rect x="0.0566406" y="0.120117" width="1920" height="3515" fill="#D9D9D9"/>
</mask>
<g mask="url(#mask0_166_14)">
<path d="M735.953 -1853.12C1531.59 -1393.39 1985.98 -700.084 2282.72 514.131C3313.89 818.148 3953.74 788.487 4595.44 417.734C5216.74 59.958 5570.98 -470.218 5817.65 -1428.61C4864.37 -1693.7 4228.23 -1651.06 3606.93 -1293.29C3363.97 -1154.26 3169.23 -992.978 3006.02 -796.479L2533.09 -1239.53C2738.96 -1482.37 2983.77 -1682.58 3282.36 -1854.98C4131.79 -2344.37 5005.32 -2375.89 6301.71 -1960.64L6581.75 -1869.81L6518.7 -1582.48C6229.37 -253.328 5765.72 488.177 4918.15 979.424C4471.18 1237.1 4013.09 1365.01 3482.66 1365.01C3135.85 1365.01 2757.5 1309.39 2330.94 1200.02V4475.62H1681.82V1200.02C1257.11 1309.39 878.759 1365.01 530.088 1365.01C1.51825 1365.01 -456.574 1237.1 -905.395 979.424C-1752.96 490.031 -2218.48 -251.474 -2505.94 -1582.48L-2569 -1869.81L-2288.95 -1958.79C-988.855 -2374.03 -113.469 -2342.52 735.953 -1853.12ZM-577.127 417.734C40.4655 773.656 656.203 814.44 1622.47 545.644C1372.09 -425.727 1028.98 -937.365 411.392 -1293.29C-209.91 -1651.06 -846.048 -1693.7 -1799.33 -1428.61C-1552.66 -470.218 -1198.43 59.958 -577.127 417.734Z" fill="#FAB600" fill-opacity="0.1"/>
</g>
</svg>
