<?xml version="1.0" standalone="no"?>
<!DOCTYPE svg PUBLIC "-//W3C//DTD SVG 20010904//EN"
 "http://www.w3.org/TR/2001/REC-SVG-20010904/DTD/svg10.dtd">
<svg version="1.0" xmlns="http://www.w3.org/2000/svg"
 width="260.000000pt" height="260.000000pt" viewBox="0 0 260.000000 260.000000"
 preserveAspectRatio="xMidYMid meet">
<metadata>
Created by potrace 1.14, written by Peter Selinger 2001-2017
</metadata>
<g transform="translate(0.000000,260.000000) scale(0.100000,-0.100000)"
fill="#000000" stroke="none">
<path d="M1969 2580 c-3 -41 -4 -45 -16 -46 -7 -1 -17 -2 -22 -3 -5 0 -8 -9
-7 -18 0 -10 -5 -17 -12 -15 -8 1 -16 -6 -19 -17 -3 -10 -14 -22 -25 -24 -14
-4 -19 -11 -15 -21 6 -14 -4 -21 -25 -17 -5 0 -8 -9 -8 -20 0 -16 -5 -20 -20
-16 -23 6 -26 -3 -7 -22 8 -10 8 -12 0 -7 -6 3 -14 2 -18 -4 -4 -6 -10 -8 -15
-5 -4 3 -11 -6 -14 -19 -4 -18 -11 -23 -32 -20 -20 2 -24 0 -15 -9 13 -13 15
-28 4 -26 -23 4 -33 -3 -33 -21 0 -11 -5 -20 -11 -20 -5 0 -7 6 -3 13 4 6 -2
4 -13 -6 -11 -9 -24 -14 -28 -10 -5 5 -4 1 3 -9 9 -11 10 -18 2 -23 -5 -3 -10
-1 -10 5 0 7 -7 5 -16 -4 -8 -9 -21 -13 -27 -9 -7 3 -9 3 -5 -2 4 -4 2 -17 -4
-29 -7 -11 -12 -23 -11 -26 1 -5 -16 -9 -54 -12 -7 -1 -13 -8 -13 -15 0 -8 5
-11 12 -7 7 5 8 3 4 -5 -5 -7 -13 -10 -20 -8 -11 4 -28 -8 -37 -28 -2 -5 -10
-9 -16 -7 -8 2 -13 -7 -13 -19 0 -12 -3 -19 -6 -16 -11 11 -44 -13 -38 -27 3
-8 -1 -14 -8 -13 -40 1 -56 -5 -61 -24 -4 -15 -11 -20 -21 -16 -11 5 -16 0
-16 -13 0 -18 -10 -25 -32 -21 -5 0 -7 -2 -7 -7 3 -20 -3 -30 -18 -28 -12 0
-17 -6 -17 -17 2 -13 -3 -16 -18 -11 -15 4 -18 3 -13 -7 6 -9 4 -11 -8 -6 -16
6 -41 -15 -30 -26 3 -4 1 -7 -6 -7 -7 0 -9 -5 -5 -12 6 -10 4 -10 -7 0 -19 18
-29 15 -29 -9 0 -17 -5 -20 -37 -17 -40 3 -40 2 -28 75 2 13 -1 25 -6 29 -5 3
-6 10 -3 16 3 5 6 42 5 81 -1 40 -2 159 -3 265 -1 105 -6 192 -10 192 -4 0 -8
5 -8 11 0 5 4 8 9 5 5 -4 8 1 7 9 -3 22 -16 31 -16 11 0 -9 -4 -15 -8 -12 -5
3 -8 -12 -8 -32 1 -27 -5 -43 -22 -59 -14 -14 -18 -23 -10 -23 11 0 11 -2 0
-8 -7 -5 -10 -16 -6 -25 4 -13 1 -17 -15 -17 -12 0 -21 -5 -21 -11 0 -5 4 -8
9 -4 5 3 13 0 17 -6 4 -8 3 -9 -5 -5 -10 7 -13 2 -27 -44 -5 -13 -6 -13 -15 0
-9 12 -10 12 -5 -2 3 -10 1 -18 -4 -18 -6 0 -10 -14 -10 -30 0 -23 -4 -30 -16
-28 -10 2 -18 -5 -19 -15 -2 -10 1 -14 7 -11 7 4 8 2 4 -4 -4 -7 -13 -12 -21
-12 -8 0 -17 -4 -20 -10 -3 -6 1 -7 9 -4 9 3 16 1 16 -5 0 -6 -10 -11 -22 -12
-13 0 -18 -3 -11 -5 8 -4 7 -11 -4 -24 -9 -10 -21 -16 -26 -13 -6 4 -8 -3 -5
-15 4 -12 2 -23 -3 -23 -5 -1 -15 -2 -21 -3 -13 -1 -14 -5 -17 -47 -1 -16 -6
-20 -19 -17 -15 4 -18 0 -16 -19 2 -19 -1 -23 -17 -18 -15 5 -19 1 -19 -19 0
-14 -3 -25 -7 -25 -23 4 -33 -3 -33 -22 0 -11 -4 -18 -8 -15 -4 2 -14 0 -22
-5 -13 -8 -13 -10 0 -19 13 -8 12 -10 -3 -10 -12 0 -16 -4 -11 -12 6 -10 4
-10 -8 0 -11 9 -18 10 -23 2 -3 -5 -1 -10 5 -10 6 0 8 -5 4 -11 -3 -6 -15 -9
-25 -6 -10 3 -22 1 -25 -4 -3 -5 -1 -9 4 -9 5 0 9 -7 9 -15 0 -9 -6 -14 -14
-11 -7 3 -13 1 -13 -5 0 -6 -4 -7 -10 -4 -5 3 -10 2 -10 -2 0 -5 -7 -18 -16
-29 -8 -10 -13 -13 -9 -6 3 6 1 12 -6 12 -6 0 -9 -8 -6 -20 4 -16 0 -20 -18
-20 -19 0 -23 -5 -20 -20 2 -11 0 -18 -6 -15 -5 4 -9 0 -9 -7 0 -9 -3 -9 -10
2 -8 13 -10 12 -11 -5 -1 -11 -1 -23 0 -28 0 -4 -2 -6 -6 -6 -22 4 -33 -3 -34
-18 0 -10 -3 -13 -5 -6 -8 17 -42 -18 -36 -37 3 -8 2 -12 -3 -8 -12 11 -45
-11 -39 -26 4 -11 0 -13 -15 -9 -13 3 -21 1 -21 -6 0 -7 -5 -9 -12 -5 -10 6
-10 4 0 -8 11 -13 10 -16 -5 -14 -11 0 -17 -5 -15 -13 3 -12 0 -12 -12 -1 -14
11 -16 9 -16 -9 0 -14 -6 -21 -18 -21 -10 0 -27 -7 -38 -15 -18 -13 -18 -14 6
-9 20 5 22 3 10 -5 -8 -6 -25 -11 -37 -11 -12 0 -25 -4 -28 -10 -3 -6 1 -7 9
-4 9 3 16 1 16 -5 0 -6 -7 -11 -15 -11 -14 0 -15 -71 -15 -614 l1 -615 24 5
c13 2 27 0 30 -6 4 -6 12 -7 18 -3 18 11 51 10 59 -2 5 -6 8 -6 8 2 0 7 7 10
17 7 14 -5 15 -4 4 4 -8 6 -23 9 -33 7 -10 -2 -18 0 -18 4 0 5 18 8 40 8 25
-1 39 -5 36 -12 -2 -6 5 -11 15 -11 14 0 15 3 7 14 -9 10 5 13 78 12 184 -1
334 4 334 12 0 11 23 6 32 -7 5 -6 8 -5 8 3 0 10 5 10 22 1 18 -9 21 -9 11 1
-15 16 -74 21 -93 7 -13 -9 -13 -9 -2 3 13 15 25 17 200 20 76 1 101 4 95 13
-4 7 2 5 12 -3 10 -8 16 -10 12 -4 -11 18 20 26 113 30 123 5 153 9 168 17 7
5 12 3 12 -4 0 -7 3 -10 6 -6 3 3 3 11 -1 17 -5 8 -10 8 -20 0 -10 -8 -19 -8
-34 0 -12 6 -21 13 -21 16 0 2 8 0 18 -5 10 -5 23 -7 29 -3 6 4 39 7 72 7 54
0 65 4 63 26 -1 3 16 5 36 4 20 -1 43 3 50 8 8 6 12 6 12 -2 0 -7 5 -9 13 -4
6 4 28 8 47 8 26 0 34 4 32 16 -2 16 -2 16 129 21 20 1 25 6 21 16 -3 10 -1
13 6 8 7 -4 12 -2 12 3 0 6 4 11 10 11 5 0 7 -8 3 -17 -5 -16 -4 -17 8 -2 17
20 49 32 49 18 0 -6 6 -6 19 0 10 6 22 7 26 3 5 -4 5 -1 1 6 -4 7 -11 10 -15
8 -4 -3 -13 -1 -20 3 -12 8 4 10 82 13 23 1 26 5 21 22 -6 21 -6 21 11 1 11
-13 15 -15 12 -4 -5 15 26 22 97 22 17 -1 24 2 16 7 -10 6 -9 9 1 14 8 3 4 3
-8 0 -13 -3 -23 -1 -23 4 0 4 24 9 53 11 28 1 57 7 62 13 7 8 6 9 -2 4 -9 -5
-11 -2 -7 8 7 18 24 21 24 5 0 -8 4 -8 15 1 8 6 19 9 25 5 5 -3 10 -1 10 5 0
6 5 8 10 5 6 -3 10 -2 10 4 0 5 -6 12 -12 15 -7 3 -4 5 7 5 11 -1 22 0 25 1 3
1 12 3 20 5 39 8 46 11 58 27 7 9 19 15 26 12 9 -3 13 1 13 12 -1 11 6 20 17
22 10 2 16 0 12 -6 -3 -6 4 -5 18 1 13 7 23 19 21 27 -2 12 4 16 25 14 15 -1
34 3 41 8 11 8 10 9 -3 4 -10 -3 -20 0 -24 6 -4 6 -3 8 4 4 6 -3 16 0 23 7 7
7 23 12 35 9 12 -2 25 2 29 9 5 8 4 10 -3 5 -7 -4 -12 -1 -12 9 0 9 6 15 13
14 28 -3 39 2 33 17 -3 8 -2 13 3 9 5 -3 12 1 15 7 3 7 4 2 1 -12 l-5 -25 13
26 c6 14 18 24 25 22 9 -4 12 130 12 646 0 638 0 651 -19 651 -14 0 -19 -6
-16 -18 2 -10 -3 -19 -10 -19 -7 0 -11 9 -9 21 3 12 -5 3 -16 -19 -11 -22 -20
-32 -20 -22 0 9 -5 17 -11 17 -6 0 -9 -9 -6 -20 3 -10 2 -19 -2 -18 -24 3 -39
-5 -44 -21 -3 -14 -11 -17 -31 -14 -16 3 -26 1 -26 -6 0 -7 4 -10 9 -6 5 3 12
1 16 -5 3 -5 1 -11 -4 -11 -6 -1 -15 -3 -21 -4 -5 -1 -19 -3 -30 -4 -11 0 -20
-5 -20 -11 0 -5 6 -7 14 -4 8 3 16 2 19 -3 3 -5 -2 -9 -11 -10 -41 -5 -83 -16
-88 -24 -3 -5 2 -6 10 -3 9 3 16 1 16 -5 0 -6 -6 -12 -12 -12 -7 -1 -17 -2
-23 -4 -5 -1 -16 -3 -22 -3 -7 -1 -13 -9 -13 -17 0 -10 -10 -15 -27 -15 -16 0
-35 -5 -43 -10 -11 -7 -11 -10 -2 -10 7 0 10 -4 7 -10 -3 -5 -17 -10 -31 -10
-16 0 -24 -6 -24 -17 0 -13 -9 -19 -36 -21 -32 -2 -36 0 -31 18 3 11 2 20 -2
20 -4 0 -5 21 -2 48 8 62 3 104 -11 96 -7 -4 -8 -2 -4 5 14 22 17 63 5 55 -9
-5 -9 -3 -3 7 10 16 13 289 3 283 -4 -2 -5 -17 -4 -33 1 -19 -3 -32 -12 -35
-9 -4 -11 -2 -7 6 10 15 11 87 2 121 -5 20 -4 27 5 24 7 -2 12 -18 11 -35 0
-18 2 -29 5 -26 8 8 8 74 0 69 -4 -3 -12 2 -19 10 -11 13 -10 14 3 10 8 -4 18
-1 22 5 4 6 1 9 -7 8 -9 -2 -12 6 -11 25 1 15 -1 26 -5 23 -4 -2 -7 28 -7 67
0 52 4 76 15 85 13 11 13 11 -1 7 -12 -4 -15 0 -14 17 1 13 7 23 12 23 6 0 15
3 19 7 8 9 -31 2 -49 -8 -8 -5 -8 -2 2 9 12 15 11 17 -3 17 -9 0 -17 -9 -17
-20z m-1084 -410 c-3 -5 -12 -10 -18 -10 -7 0 -6 4 3 10 19 12 23 12 15 0z
m705 0 c0 -5 -5 -10 -11 -10 -5 0 -7 5 -4 10 3 6 8 10 11 10 2 0 4 -4 4 -10z
m440 -50 c0 -5 -5 -10 -11 -10 -5 0 -7 5 -4 10 3 6 8 10 11 10 2 0 4 -4 4 -10z
m-6 -35 c3 -8 1 -15 -4 -15 -6 0 -10 7 -10 15 0 8 2 15 4 15 2 0 6 -7 10 -15z
m6 -46 c0 -5 -4 -9 -8 -9 -5 0 -9 7 -9 15 0 8 4 12 9 9 4 -3 8 -9 8 -15z m-5
-29 c3 -6 -1 -7 -9 -4 -18 7 -21 14 -7 14 6 0 13 -4 16 -10z m-1 -28 c3 -5 -1
-9 -9 -9 -8 0 -12 4 -9 9 3 4 7 8 9 8 2 0 6 -4 9 -8z m-1284 -34 c0 -4 -4 -8
-9 -8 -6 0 -12 4 -15 8 -3 5 1 9 9 9 8 0 15 -4 15 -9z m1290 -2 c0 -3 -4 -8
-10 -11 -5 -3 -10 -1 -10 4 0 6 5 11 10 11 6 0 10 -2 10 -4z m0 -166 c0 -5 -5
-10 -11 -10 -5 0 -7 5 -4 10 3 6 8 10 11 10 2 0 4 -4 4 -10z m160 -55 c0 -8
-2 -15 -4 -15 -2 0 -6 7 -10 15 -3 8 -1 15 4 15 6 0 10 -7 10 -15z m70 -1209
c0 -2 -7 -6 -15 -10 -8 -3 -15 -1 -15 4 0 6 7 10 15 10 8 0 15 -2 15 -4z
m-613 -238 c-3 -8 -6 -5 -6 6 -1 11 2 17 5 13 3 -3 4 -12 1 -19z m-1057 -175
c0 -1 -8 -7 -18 -12 -13 -7 -19 -6 -19 2 0 7 9 13 19 13 10 0 18 -1 18 -3z
m-490 -45 c0 -5 -4 -7 -9 -3 -5 3 -13 1 -16 -5 -5 -8 -11 -8 -20 0 -8 7 -20 8
-26 4 -7 -4 -9 -3 -6 3 8 12 77 13 77 1z"/>
<path d="M1936 2561 c-3 -5 1 -11 9 -14 9 -4 12 -1 8 9 -6 16 -10 17 -17 5z"/>
<path d="M936 2375 c-3 -9 -6 -22 -5 -28 0 -7 5 -1 10 12 5 13 8 26 5 28 -2 2
-6 -3 -10 -12z"/>
<path d="M1523 2143 c0 -9 4 -10 14 -2 7 6 13 12 13 14 0 1 -6 2 -13 2 -8 0
-14 -6 -14 -14z"/>
<path d="M221 1474 c0 -11 3 -14 6 -6 3 7 2 16 -1 19 -3 4 -6 -2 -5 -13z"/>
<path d="M1913 345 c0 -8 4 -12 9 -9 5 3 6 10 3 15 -9 13 -12 11 -12 -6z"/>
<path d="M1350 200 c0 -5 5 -10 10 -10 6 0 10 5 10 10 0 6 -4 10 -10 10 -5 0
-10 -4 -10 -10z"/>
<path d="M936 133 c-3 -4 -6 -11 -6 -17 0 -6 5 -4 10 4 6 10 10 11 10 3 0 -7
5 -13 10 -13 6 0 10 4 10 9 0 11 -26 22 -34 14z"/>
<path d="M983 127 c0 -8 6 -14 14 -14 9 0 10 4 2 14 -14 16 -16 16 -16 0z"/>
<path d="M708 93 c7 -3 16 -2 19 1 4 3 -2 6 -13 5 -11 0 -14 -3 -6 -6z"/>
<path d="M230 45 c0 -19 6 -19 14 0 3 8 1 15 -4 15 -6 0 -10 -7 -10 -15z"/>
</g>
</svg>
