<svg width="559" height="1012" viewBox="0 0 559 1012" fill="none" xmlns="http://www.w3.org/2000/svg">
<path d="M674.906 526.817C409.024 583.828 150.301 838.357 54.1741 958.494L74.6339 1011.66C349.148 701.691 612.434 592.128 709.763 576.093C1284.15 454.956 1614.25 267.696 1703.11 177.774L1688.59 140.041C1370.55 417.876 1007.26 455.552 674.906 526.817Z" fill="#963626"/>
<path d="M714.967 497.057C450.905 561.757 195.393 825.593 100.645 949.423L121.381 1002.53C392.199 682.315 653.299 564.651 749.997 545.846C1320.46 408.119 1647.47 210.246 1735.2 117.104L1720.48 79.4163C1406.14 368.37 1045.04 416.183 714.967 497.057Z" fill="#D24533"/>
</svg>
