<svg width="562" height="659" viewBox="0 0 562 659" fill="none" xmlns="http://www.w3.org/2000/svg">
<mask id="mask0_104_24" style="mask-type:alpha" maskUnits="userSpaceOnUse" x="0" y="0" width="562" height="659">
<rect x="0.0541992" y="0.245117" width="561" height="658" fill="#D9D9D9"/>
</mask>
<g mask="url(#mask0_104_24)">
<path d="M-113.901 171.773C15.9594 404.295 327.707 554.025 467.348 599.824L510.959 559.803C143.016 416.279 -35.0384 206.446 -78.0727 119.47C-356.724 -383.623 -626.431 -627.528 -735.832 -677.986L-766.782 -649.584C-416.205 -452.053 -276.227 -118.879 -113.901 171.773Z" fill="#963626"/>
<path d="M-119.078 177.863C-5.20852 420.431 297.128 596.768 434.063 654.616L480.683 618.689C121.492 443.558 -42.3686 219.286 -79.3997 129.041C-323.443 -395.584 -576.895 -661.811 -683.142 -721.619L-716.227 -696.122C-378.3 -468.848 -261.415 -125.347 -119.078 177.863Z" fill="#D24533"/>
</g>
</svg>
