<svg width="382" height="207" viewBox="0 0 382 207" fill="none" xmlns="http://www.w3.org/2000/svg">
<mask id="mask0_105_10" style="mask-type:alpha" maskUnits="userSpaceOnUse" x="0" y="0" width="382" height="207">
<rect width="382" height="207" fill="#D9D9D9"/>
</mask>
<g mask="url(#mask0_105_10)">
<mask id="mask1_105_10" style="mask-type:alpha" maskUnits="userSpaceOnUse" x="-938" y="-791" width="1551" height="1114">
<path fill-rule="evenodd" clip-rule="evenodd" d="M220.307 -629.443L-786.888 -791L-938 151.075L69.1954 312.632L80.3372 243.171L577.423 322.905L612.937 101.496L115.852 21.7616L220.307 -629.443Z" fill="#D9D9D9"/>
</mask>
<g mask="url(#mask1_105_10)">
<path d="M565.806 -150.72C565.806 -150.72 312.003 121.316 -6.90595 155.503C-9.21557 155.751 -13.5798 155.539 -18.0075 155.932C-49.1103 158.71 -172.537 156.108 -147.868 -65.3401L-74.1931 -608.619L-56.4683 -610.013C-66.7753 -625.433 -117.107 -659.856 -117.107 -659.856C-152.194 -684.059 -194.403 -573.98 -194.403 -573.98C-219.014 -612.488 -256.785 -619.473 -256.785 -619.473C-284.931 -634.954 -367.34 -528.898 -367.34 -528.898C-414.897 -635.246 -466.258 -611.385 -466.258 -611.385C-467.527 -610.598 -468.794 -609.789 -470.041 -609.003C-682.366 -474.107 -663.536 -314.46 -663.536 -314.46C-606.056 -222.683 -484.492 -255.057 -484.492 -255.057L-499.977 -184.55L-454.917 -146.075C-299.572 -591.232 -235.5 -562.323 -235.5 -562.323C-225.666 -556.311 -234.696 -510.635 -234.696 -510.635C-236.974 -486 -335.312 -201.665 -335.312 -201.665L-313.634 -325.383C-240.008 -599.283 -159.228 -516.502 -142.979 -541.748C-156.649 -452.094 -202.981 -139.986 -201.109 -44.7908C-201.109 -44.7908 -224.492 136.579 -4.994 193.644C-4.994 193.644 223.474 234.727 598.672 -107.096L565.828 -150.721L565.806 -150.72ZM-461.41 -309.354C-554.7 -284.702 -625.106 -306.993 -625.106 -306.993C-600.511 -485.643 -439.676 -567.267 -439.676 -567.267C-366.827 -595.456 -461.409 -309.332 -461.409 -309.332L-461.41 -309.354Z" fill="#963626"/>
</g>
<mask id="mask2_105_10" style="mask-type:alpha" maskUnits="userSpaceOnUse" x="-903" y="-741" width="1552" height="1115">
<path fill-rule="evenodd" clip-rule="evenodd" d="M255.741 -578.661L-751.455 -740.218L-902.567 201.857L104.629 363.414L115.771 293.953L612.856 373.687L648.371 152.278L151.285 72.5435L255.741 -578.661Z" fill="#D9D9D9"/>
</mask>
<g mask="url(#mask2_105_10)">
<path d="M584.877 -104.257C584.877 -104.257 313.625 150.383 -6.84708 163.388C-9.16805 163.482 -13.5088 162.983 -17.9528 163.081C-49.1712 163.795 -172.155 153.03 -132.884 -66.3004L-23.4125 -603.512L-5.63422 -603.729C-14.8981 -619.798 -62.8409 -657.477 -62.8409 -657.477C-96.2494 -683.949 -145.651 -576.905 -145.651 -576.905C-167.66 -616.957 -204.885 -626.427 -204.885 -626.427C-231.945 -643.737 -321.193 -543.367 -321.193 -543.367C-361.607 -652.63 -414.435 -632.221 -414.435 -632.221C-415.753 -631.52 -417.071 -630.796 -418.367 -630.095C-639.154 -509.548 -630.932 -349.004 -630.932 -349.004C-579.652 -253.624 -456.212 -277.881 -456.212 -277.881L-476.33 -208.553L-433.915 -167.181C-249.448 -601.079 -187.429 -567.993 -187.429 -567.993C-178.015 -561.344 -190.049 -516.366 -190.049 -516.366C-193.952 -491.935 -345.168 -373.674 -345.168 -373.674L-294.661 -345.293C-203.068 -613.719 -114.358 -517.225 -96.4739 -541.34C-116.047 -452.787 -182.935 -144.43 -187.368 -49.3199C-187.368 -49.3199 -222.704 130.105 -7.46373 201.572C-7.46373 201.572 217.784 257.687 614.783 -58.554L584.899 -104.258L584.877 -104.257ZM-429.588 -330.531C-524.305 -312.108 -593.081 -339.01 -593.081 -339.01C-556.716 -515.64 -390.83 -586.441 -390.83 -586.441C-316.276 -609.746 -429.588 -330.509 -429.588 -330.509L-429.588 -330.531Z" fill="#D24533"/>
</g>
</g>
</svg>
