<svg width="171" height="444" viewBox="0 0 171 444" fill="none" xmlns="http://www.w3.org/2000/svg">
<mask id="mask0_104_13" style="mask-type:alpha" maskUnits="userSpaceOnUse" x="0" y="0" width="171" height="444">
<rect width="171" height="444" fill="#D9D9D9"/>
</mask>
<g mask="url(#mask0_104_13)">
<path d="M571.48 756.915C571.48 756.915 233.976 541.82 135.273 211.217C134.558 208.823 133.925 204.166 132.642 199.559C123.604 167.207 102.15 36.1497 341.212 18.8116L930.283 -9.80885L935.233 8.66532C949.521 -5.26048 976.06 -65.2468 976.06 -65.2468C994.778 -107.105 870.07 -130.161 870.07 -130.161C905.973 -163.743 905.954 -205.063 905.954 -205.063C916.808 -237.869 788.471 -304.233 788.471 -304.233C891.628 -375.391 856.318 -425.035 856.318 -425.035C855.236 -426.223 854.132 -427.405 853.057 -428.57C668.738 -626.688 503.572 -575.463 503.572 -575.463C417.774 -496.667 475.856 -374.439 475.856 -374.439L398.244 -376.99L366.387 -321.785C867.692 -244.78 849.681 -171.342 849.681 -171.342C845.251 -159.762 795.169 -160.356 795.169 -160.356C768.665 -157.933 448.64 -206.181 448.64 -206.181L411.599 -135.598C715.74 -111.441 816.175 -81.6842 846.064 -69.4492C748.557 -66.3243 409.355 -54.1205 309.035 -33.4706C309.035 -33.4706 112.616 -22.6331 95.306 220.72C95.306 220.72 96.6593 470.425 531.785 800.232L571.487 756.938L571.48 756.915ZM537.812 -360.675C493.443 -454.512 503.212 -533.352 503.212 -533.352C696.992 -542.374 814.868 -388.267 814.868 -388.267C858.97 -316.744 537.79 -360.669 537.79 -360.669L537.812 -360.675Z" fill="#963626"/>
<path d="M585.099 722.552C585.099 722.552 247.594 507.457 148.892 176.854C148.177 174.46 147.544 169.802 146.261 165.196C137.223 132.844 115.768 1.78644 354.83 -15.5517L943.901 -44.1721L948.852 -25.698C963.14 -39.6238 989.679 -99.6101 989.679 -99.6101C1008.4 -141.468 883.688 -164.524 883.688 -164.524C919.591 -198.107 919.573 -239.427 919.573 -239.427C930.427 -272.233 802.09 -338.596 802.09 -338.596C905.246 -409.754 869.937 -459.399 869.937 -459.399C868.855 -460.587 867.751 -461.768 866.675 -462.933C682.357 -661.052 517.191 -609.826 517.191 -609.826C431.393 -531.031 489.475 -408.803 489.475 -408.803L411.863 -411.353L380.006 -356.148C881.31 -279.144 863.299 -205.705 863.299 -205.705C858.87 -194.125 808.787 -194.719 808.787 -194.719C782.284 -192.297 462.259 -240.545 462.259 -240.545L425.217 -169.962C729.359 -145.804 829.793 -116.047 859.683 -103.812C762.175 -100.688 422.974 -88.4838 322.654 -67.8339C322.654 -67.8339 126.235 -56.9963 108.925 186.356C108.925 186.356 110.278 436.062 545.404 765.869L585.105 722.575L585.099 722.552ZM551.431 -395.038C507.062 -488.875 516.831 -567.715 516.831 -567.715C710.611 -576.737 828.487 -422.63 828.487 -422.63C872.588 -351.108 551.408 -395.032 551.408 -395.032L551.431 -395.038Z" fill="#D24533"/>
</g>
</svg>
