<svg width="128" height="440" viewBox="0 0 128 440" fill="none" xmlns="http://www.w3.org/2000/svg">
<mask id="mask0_111_16" style="mask-type:alpha" maskUnits="userSpaceOnUse" x="4" y="0" width="120" height="432">
<rect x="4" y="0.860596" width="120" height="431" fill="#D9D9D9"/>
</mask>
<g mask="url(#mask0_111_16)">
<path d="M739.595 534.334C739.595 534.334 345.583 539.128 86.0095 320.004C84.1292 318.417 81.0968 314.921 77.5557 311.819C52.6657 290.041 -35.6753 193.646 151.911 50.459L621.746 -290.75L635.786 -278.201C640.047 -297.377 629.564 -361.103 629.564 -361.103C622.413 -405.678 507.249 -357.427 507.249 -357.427C518.717 -404.451 496.422 -438.48 496.422 -438.48C487.674 -471.357 346.168 -456.826 346.168 -456.826C392.778 -571.068 336.921 -592.925 336.921 -592.925C335.39 -593.32 333.843 -593.698 332.329 -594.078C73.6629 -657.899 -34.7766 -526.641 -34.7766 -526.641C-62.9685 -415.467 50.7847 -346.096 50.7847 -346.096L-14.5259 -306.349L-11.002 -243.694C443.486 -450.566 468.248 -380.357 468.248 -380.357C470.842 -368.43 429.265 -341.914 429.265 -341.914C408.738 -325.627 119.091 -192.813 119.091 -192.813L126.636 -114.695C390.209 -258.79 488.99 -288.432 520.21 -294.47C441.569 -239.319 168.721 -46.3649 97.2141 24.7394C97.2141 24.7394 -58.7495 139.578 58.2089 349.382C58.2089 349.382 193.967 554.356 730.252 591.421L739.612 534.349L739.595 534.334ZM109.246 -368.165C22.0968 -421.542 -12.3666 -491.756 -12.3666 -491.756C142.401 -603.676 322.602 -540.286 322.602 -540.286C397.497 -505.146 109.23 -368.147 109.23 -368.147L109.246 -368.165Z" fill="#963626"/>
<path d="M731.463 541.473C731.463 541.473 337.451 546.267 77.8776 327.143C75.9973 325.556 72.9649 322.061 69.4239 318.958C44.5338 297.18 -43.8071 200.786 143.78 57.5984L613.614 -283.611L627.654 -271.061C631.915 -290.238 621.432 -353.963 621.432 -353.963C614.282 -398.539 499.117 -350.287 499.117 -350.287C510.585 -397.312 488.29 -431.34 488.29 -431.34C479.542 -464.218 338.036 -449.687 338.036 -449.687C384.646 -563.928 328.789 -585.785 328.789 -585.785C327.258 -586.181 325.711 -586.559 324.197 -586.939C65.5311 -650.759 -42.9084 -519.502 -42.9084 -519.502C-71.1004 -408.328 42.6529 -338.957 42.6529 -338.957L-22.6577 -299.209L-19.1338 -236.555C435.354 -443.427 460.116 -373.218 460.116 -373.218C462.71 -361.29 421.133 -334.774 421.133 -334.774C400.606 -318.488 110.959 -185.674 110.959 -185.674L118.504 -107.555C382.077 -251.65 480.858 -281.293 512.078 -287.33C433.438 -232.179 160.589 -39.2255 89.0822 31.8788C89.0822 31.8788 -66.8814 146.718 50.077 356.522C50.077 356.522 185.835 561.495 722.12 598.561L731.48 541.489L731.463 541.473ZM101.114 -361.025C13.965 -414.402 -20.4985 -484.617 -20.4985 -484.617C134.269 -596.537 314.47 -533.146 314.47 -533.146C389.365 -498.007 101.098 -361.008 101.098 -361.008L101.114 -361.025Z" fill="#D24533"/>
</g>
</svg>
