<svg width="230" height="58" viewBox="0 0 230 58" fill="none" xmlns="http://www.w3.org/2000/svg">
<path d="M48.4242 34.6273C45.8437 34.6273 43.8062 33.9284 42.3654 32.5521C40.9246 31.1705 40.1935 29.262 40.1935 26.8858C40.1935 24.5096 40.93 22.5742 42.3815 21.1979C43.8277 19.8271 45.8598 19.1282 48.4242 19.1282C50.9886 19.1282 53.0637 19.8271 54.4937 21.2087C55.9292 22.5903 56.6549 24.4988 56.6549 26.8804C56.6549 29.262 55.9238 31.1705 54.483 32.5468C53.0422 33.923 51.0047 34.6219 48.4242 34.6219V34.6273ZM48.4242 22.8108C48.0049 22.8108 47.6339 22.8645 47.3114 22.972C47.0049 23.0742 46.7092 23.2839 46.4189 23.601C46.1663 23.8913 45.9566 24.3107 45.8007 24.8375C45.6394 25.3805 45.5588 26.074 45.5588 26.9073C45.5588 27.6492 45.6287 28.2997 45.7684 28.8427C45.9028 29.3642 46.1018 29.7889 46.3598 30.1007C46.6017 30.391 46.9028 30.606 47.2415 30.735C47.5909 30.8748 47.9995 30.9447 48.4565 30.9447C48.8489 30.9447 49.2252 30.8802 49.5747 30.7512C49.9134 30.6275 50.1983 30.4286 50.4348 30.1383C50.7144 29.805 50.9241 29.4018 51.0638 28.9341C51.209 28.4556 51.2789 27.7728 51.2789 26.9073C51.2789 26.1063 51.2036 25.4289 51.0531 24.8967C50.9079 24.3752 50.709 23.9559 50.4563 23.6548C50.209 23.3484 49.9187 23.1333 49.5747 23.0097C49.2199 22.8806 48.8274 22.8108 48.4134 22.8108H48.4242Z" fill="#1D1D1B"/>
<path d="M48.4242 19.397C50.9617 19.397 52.9239 20.0636 54.3056 21.4022C55.6926 22.7409 56.3861 24.5687 56.3861 26.8804C56.3861 29.1921 55.6872 31.02 54.2948 32.3532C52.9024 33.6865 50.9456 34.3531 48.4242 34.3531C45.9028 34.3531 43.946 33.6865 42.5536 32.3532C41.1612 31.02 40.4623 29.1975 40.4623 26.8804C40.4623 24.5634 41.1612 22.7194 42.5643 21.3861C43.9675 20.0582 45.919 19.3916 48.4242 19.3916M48.4618 31.2081C48.8865 31.2081 49.2897 31.1383 49.6714 31.0038C50.0531 30.8641 50.3811 30.6329 50.6499 30.3103C50.9509 29.9501 51.1767 29.5201 51.3326 29.0147C51.4832 28.5094 51.5584 27.8105 51.5584 26.9127C51.5584 26.0848 51.4832 25.3913 51.3273 24.8322C51.1714 24.273 50.9563 23.8268 50.6821 23.4881C50.408 23.1441 50.0746 22.9022 49.6822 22.7624C49.2951 22.6226 48.8758 22.5473 48.4242 22.5473C47.9726 22.5473 47.5748 22.6065 47.2253 22.7247C46.8759 22.843 46.5426 23.0742 46.22 23.429C45.9351 23.7569 45.7093 24.2032 45.5426 24.773C45.376 25.3429 45.29 26.0579 45.29 26.9181C45.29 27.6868 45.3652 28.3535 45.5104 28.9179C45.6555 29.4824 45.8706 29.934 46.1555 30.2781C46.4297 30.606 46.763 30.8426 47.1447 30.9931C47.5264 31.1436 47.9672 31.2189 48.4565 31.2189M48.4242 18.8594C45.7899 18.8594 43.6933 19.5798 42.1987 20.999C40.6935 22.4291 39.9247 24.4074 39.9247 26.8804C39.9247 29.3534 40.6827 31.3103 42.1826 32.7457C43.6718 34.1703 45.7738 34.8961 48.4242 34.8961C51.0746 34.8961 53.1766 34.1703 54.6658 32.7457C56.1657 31.3103 56.9237 29.3373 56.9237 26.8804C56.9237 24.4236 56.1711 22.4506 54.6819 21.0152C53.1981 19.5851 51.0961 18.8594 48.4242 18.8594ZM48.4618 30.6705C48.0371 30.6705 47.6608 30.606 47.3436 30.4824C47.0426 30.3641 46.7845 30.1813 46.5695 29.9233C46.3383 29.6491 46.1555 29.2566 46.0319 28.7728C45.8975 28.2567 45.8276 27.6277 45.8276 26.9073C45.8276 26.1009 45.9028 25.4343 46.0587 24.9182C46.2039 24.429 46.3974 24.0419 46.6286 23.7785C46.8759 23.5043 47.1393 23.3215 47.3974 23.2301C47.6877 23.1333 48.0371 23.0796 48.4242 23.0796C48.8113 23.0796 49.1661 23.1387 49.494 23.2624C49.7897 23.3699 50.0424 23.5527 50.2574 23.8215C50.4886 24.101 50.6714 24.4827 50.8058 24.9719C50.9456 25.4827 51.0208 26.1332 51.0208 26.9073C51.0208 27.746 50.9509 28.4018 50.8165 28.8534C50.6875 29.2889 50.494 29.6598 50.2413 29.9555C50.0316 30.2136 49.7897 30.3856 49.494 30.4931C49.1715 30.6114 48.822 30.6705 48.4672 30.6705H48.4618Z" fill="white"/>
<path d="M59.4559 34.1864V19.5635H64.6653V21.3376C65.5308 20.6602 66.305 20.1979 66.977 19.9506C67.7619 19.6603 68.4984 19.5151 69.165 19.5151C69.3317 19.5151 69.5198 19.5151 69.7295 19.5259C69.9445 19.5366 70.1327 19.5474 70.2886 19.5635L70.5305 19.5904V24.402H69.8048L69.7617 24.3858C69.6381 24.3428 69.3854 24.2891 68.8747 24.2514C68.4446 24.2192 68.079 24.203 67.7941 24.203C67.1544 24.203 66.5738 24.2461 66.0792 24.3267C65.6383 24.3966 65.1652 24.5202 64.6653 24.6815V34.1864H59.4559Z" fill="#1D1D1B"/>
<path d="M69.1649 19.7837C69.3262 19.7837 69.5144 19.7837 69.7187 19.7945C69.923 19.8052 70.1058 19.816 70.2617 19.8321V24.1329H69.8477C69.6488 24.0684 69.3316 24.0146 68.8908 23.9824C68.4499 23.9501 68.0844 23.934 67.7941 23.934C67.1328 23.934 66.5468 23.977 66.0361 24.0577C65.5307 24.1437 64.9824 24.2834 64.3964 24.4824V33.9119H59.7246V19.8267H64.3964V21.8965C65.4232 21.0471 66.3103 20.4772 67.0683 20.1977C67.8263 19.9181 68.5252 19.7783 69.1596 19.7783M69.1649 19.2461C68.4661 19.2461 67.7027 19.3966 66.8855 19.6977C66.2941 19.9181 65.6544 20.2783 64.934 20.7998V19.2945H59.187V34.4549H64.934V24.8748C65.3533 24.7458 65.7512 24.649 66.1221 24.5899C66.6006 24.5092 67.1651 24.4716 67.7941 24.4716C68.0736 24.4716 68.4284 24.4877 68.8531 24.52C69.3639 24.5576 69.5897 24.6168 69.6757 24.6436L69.7617 24.6705H70.7993V19.3482L70.3208 19.2945C70.1541 19.2784 69.966 19.2622 69.7456 19.2515C69.5305 19.2407 69.337 19.2407 69.1703 19.2407L69.1649 19.2461Z" fill="white"/>
<path d="M77.8418 14.1338H72.6324V34.1864H77.8418V14.1338Z" fill="#1D1D1B"/>
<path d="M77.5785 14.4026V33.9176H72.9067V14.4026H77.5785ZM78.1161 13.865H72.3691V34.4552H78.1161V13.865Z" fill="white"/>
<path d="M85.7447 34.5625C84.3039 34.5625 83.0781 34.1217 82.0943 33.2508C81.1051 32.3745 80.6052 31.2401 80.6052 29.8746C80.6052 28.794 80.8632 27.8908 81.3686 27.1973C81.8685 26.5092 82.5889 25.9608 83.4975 25.5684C84.3791 25.1813 85.4866 24.9071 86.7822 24.7459C87.9865 24.5953 89.2391 24.4824 90.5132 24.4072C90.4702 23.8373 90.2014 23.4449 89.6961 23.2191C89.0778 22.9395 88.137 22.7997 86.9059 22.7997C86.1694 22.7997 85.3683 22.9288 84.5243 23.1814C83.6588 23.4449 83.0298 23.6438 82.6642 23.7836L82.6212 23.7997H81.8739V19.9236L82.0782 19.8698C82.5728 19.7408 83.39 19.5902 84.5028 19.4182C85.6264 19.2462 86.7607 19.1602 87.879 19.1602C90.567 19.1602 92.5507 19.5741 93.7711 20.3913C95.0237 21.2299 95.6581 22.5578 95.6581 24.3319V34.1808H90.4971V32.9443C90.3412 33.0572 90.1745 33.1755 89.9864 33.3045C89.6047 33.5733 89.2391 33.7884 88.895 33.9443C88.4166 34.1539 87.9166 34.3098 87.4112 34.4066C86.9005 34.5034 86.3414 34.5571 85.7393 34.5571L85.7447 34.5625ZM90.4971 27.6005C89.9541 27.6489 89.3681 27.7081 88.7552 27.7833C88.0456 27.8693 87.4973 27.9661 87.1317 28.079C86.7177 28.208 86.3952 28.3908 86.1855 28.622C85.9812 28.8424 85.8844 29.1327 85.8844 29.509C85.8844 29.7725 85.9059 29.9875 85.9543 30.1488C85.992 30.2778 86.0887 30.4068 86.25 30.5359C86.422 30.681 86.6263 30.7885 86.8683 30.8584C87.1209 30.9283 87.5295 30.9659 88.0886 30.9659C88.5187 30.9659 88.9649 30.8799 89.4111 30.7079C89.8197 30.552 90.1853 30.3477 90.5025 30.1058V27.6005H90.4971Z" fill="#1D1D1B"/>
<path d="M87.8789 19.4343C90.5293 19.4343 92.4432 19.8322 93.6206 20.6224C94.7979 21.4127 95.3893 22.6546 95.3893 24.3427V33.9228H90.7659V32.4282C90.5132 32.611 90.2068 32.8314 89.8358 33.0949C89.4649 33.3529 89.1154 33.5572 88.7875 33.7077C88.3305 33.9066 87.8574 34.0572 87.3628 34.1539C86.8682 34.2507 86.3306 34.2991 85.7447 34.2991C84.363 34.2991 83.2072 33.8851 82.2771 33.0572C81.347 32.2293 80.8793 31.1702 80.8793 29.8854C80.8793 28.8585 81.1159 28.0145 81.589 27.364C82.0621 26.7135 82.7394 26.1974 83.6104 25.8211C84.4705 25.4447 85.5457 25.1759 86.8199 25.02C88.0994 24.8641 89.4219 24.7459 90.7928 24.6706V24.5953C90.7928 23.8158 90.4648 23.2836 89.8089 22.9825C89.1531 22.6868 88.1854 22.5363 86.9059 22.5363C86.1371 22.5363 85.3199 22.6707 84.449 22.9341C83.5781 23.1976 82.9491 23.4019 82.5728 23.5416H82.1427V20.144C82.6319 20.0203 83.433 19.8698 84.5458 19.6978C85.6533 19.5257 86.7661 19.4397 87.8789 19.4397M88.0886 31.2347C88.5563 31.2347 89.0294 31.1434 89.5079 30.9606C89.9864 30.7778 90.4057 30.5359 90.7713 30.2348V27.3102C90.1423 27.3586 89.4595 27.4285 88.7284 27.5145C87.9918 27.6005 87.4381 27.7027 87.0564 27.821C86.5887 27.9607 86.2339 28.1704 85.9866 28.4392C85.7393 28.708 85.6156 29.0682 85.6156 29.509C85.6156 29.7993 85.6425 30.0359 85.6909 30.224C85.7447 30.4068 85.8737 30.5842 86.078 30.7509C86.2769 30.9176 86.5134 31.0412 86.7876 31.1218C87.0618 31.2025 87.4972 31.2401 88.0832 31.2401M87.8789 18.8967C86.75 18.8967 85.5995 18.9827 84.4652 19.1602C83.3254 19.3376 82.5244 19.4881 82.0137 19.6171L81.6105 19.7193V24.0739H82.6749L82.7663 24.0416C83.1265 23.9072 83.7501 23.7029 84.6103 23.4449C85.4275 23.1976 86.2016 23.0739 86.9166 23.0739C88.1101 23.0739 89.0133 23.2083 89.5939 23.4717C89.9272 23.6223 90.1261 23.8427 90.2121 24.1652C89.0348 24.2405 87.8736 24.348 86.7607 24.4878C85.4382 24.6545 84.3093 24.934 83.4007 25.3318C82.4438 25.7458 81.6911 26.321 81.1589 27.0522C80.6159 27.7941 80.3471 28.751 80.3471 29.8907C80.3471 31.3315 80.8793 32.5357 81.9277 33.4658C82.9545 34.3797 84.2447 34.8421 85.7554 34.8421C86.3736 34.8421 86.9489 34.7883 87.4757 34.6862C88.0026 34.584 88.5187 34.4227 89.0133 34.2077C89.3789 34.041 89.7606 33.8152 90.153 33.5411C90.1799 33.5196 90.2121 33.4981 90.239 33.4819V34.4657H95.9376V24.348C95.9376 22.4772 95.2602 21.074 93.9324 20.1816C92.6529 19.3214 90.6745 18.9075 87.8897 18.9075L87.8789 18.8967ZM88.0886 30.6971C87.422 30.6971 87.0994 30.6434 86.9435 30.6004C86.7392 30.5412 86.5726 30.4552 86.4274 30.3369C86.2661 30.2079 86.2231 30.1165 86.2124 30.0789C86.1855 29.9875 86.1532 29.8101 86.1532 29.5144C86.1532 29.2187 86.2285 28.9768 86.3844 28.8101C86.5618 28.6112 86.8414 28.4553 87.2123 28.3424C87.5618 28.2349 88.094 28.1381 88.7875 28.0575C89.2928 27.9984 89.7767 27.9446 90.2336 27.9016V29.9767C89.9595 30.1703 89.653 30.3369 89.3197 30.466C88.9058 30.6272 88.4918 30.7079 88.094 30.7079L88.0886 30.6971Z" fill="white"/>
<path d="M109.335 34.1862V26.9339C109.335 26.3802 109.302 25.8157 109.243 25.2619C109.19 24.7351 109.093 24.3534 108.964 24.1169C108.819 23.8588 108.614 23.676 108.335 23.5577C108.039 23.4287 107.604 23.3642 107.05 23.3642C106.657 23.3642 106.249 23.4287 105.84 23.5524C105.464 23.6653 105.05 23.8481 104.615 24.09V34.1862H99.4052V19.5633H104.615V20.859C105.303 20.3751 105.975 19.9827 106.625 19.7031C107.421 19.3537 108.313 19.1763 109.276 19.1763C110.91 19.1763 112.211 19.6494 113.146 20.5848C114.076 21.5202 114.549 22.918 114.549 24.7512V34.1862H109.34H109.335Z" fill="#1D1D1B"/>
<path d="M109.276 19.4451C110.845 19.4451 112.071 19.8859 112.953 20.773C113.835 21.66 114.281 22.9825 114.281 24.7512V33.9174H109.609V26.9339C109.609 26.364 109.577 25.7996 109.518 25.2351C109.458 24.6706 109.351 24.2566 109.206 23.9878C109.034 23.6814 108.781 23.4556 108.448 23.3105C108.114 23.1707 107.652 23.0954 107.055 23.0954C106.631 23.0954 106.206 23.1653 105.765 23.2943C105.33 23.4287 104.857 23.6438 104.346 23.9341V33.9174H99.674V19.8322H104.346V21.3858C105.174 20.7568 105.969 20.2784 106.733 19.945C107.496 19.6117 108.34 19.4451 109.276 19.4451ZM109.276 18.9075C108.276 18.9075 107.346 19.0903 106.518 19.4558C105.991 19.687 105.443 19.9881 104.883 20.3536V19.2999H99.1364V34.4604H104.883V24.2566C105.254 24.0577 105.604 23.9126 105.921 23.8158C106.303 23.6975 106.684 23.6384 107.05 23.6384C107.695 23.6384 108.05 23.7298 108.227 23.8104C108.453 23.9072 108.609 24.047 108.727 24.2566C108.803 24.391 108.905 24.6867 108.975 25.2996C109.034 25.8426 109.061 26.3963 109.061 26.9393V34.4604H114.808V24.7566C114.808 22.8535 114.308 21.3858 113.324 20.402C112.34 19.4128 110.974 18.9128 109.265 18.9128L109.276 18.9075Z" fill="white"/>
<path d="M132.097 34.1863L129.334 25.332L126.608 34.1863H121.216L116.576 19.5688H122.044L124.355 28.5737L127.232 19.5688H131.758L134.484 28.5415L136.753 19.5688H142.118L137.441 34.1863H132.097Z" fill="#1D1D1B"/>
<path d="M141.747 19.8377L137.242 33.9229H132.296L129.334 24.4288L126.409 33.9229H121.415L116.947 19.8377H121.834L124.329 29.5468L127.431 19.8377H131.559L134.511 29.5468L136.968 19.8377H141.752M142.483 19.3001H136.543L136.441 19.7033L134.462 27.5361L132.075 19.6764L131.957 19.2947H127.038L126.92 19.671L124.388 27.6007L122.356 19.7033L122.253 19.3001H116.216L116.437 19.9989L120.904 34.0842L121.022 34.4605H126.807L126.925 34.0788L129.339 26.2405L131.785 34.0788L131.903 34.4551H137.64L137.758 34.0788L142.263 19.9936L142.489 19.2947L142.483 19.3001Z" fill="white"/>
<path d="M152.504 34.5628C149.537 34.5628 147.225 33.9015 145.628 32.5952C144.016 31.278 143.198 29.3803 143.198 26.9557C143.198 24.5311 143.967 22.6387 145.494 21.2356C147.01 19.8378 149.107 19.1282 151.73 19.1282C154.155 19.1282 156.015 19.7357 157.251 20.9399C158.493 22.1441 159.122 23.8913 159.122 26.1332V27.9825H148.483C148.596 28.8696 148.983 29.5416 149.65 30.0308C150.397 30.5791 151.531 30.8587 153.02 30.8587C153.967 30.8587 154.897 30.692 155.789 30.3641C156.687 30.0308 157.402 29.6706 157.913 29.2943L157.983 29.2405H158.859V33.3155L158.687 33.3801C157.622 33.794 156.606 34.1004 155.665 34.2832C154.719 34.4714 153.66 34.5628 152.52 34.5628H152.504ZM153.929 24.7945C153.87 24.058 153.655 23.4935 153.295 23.1172C152.891 22.6979 152.241 22.4828 151.354 22.4828C150.521 22.4828 149.832 22.6925 149.306 23.1011C148.849 23.4613 148.564 24.0257 148.467 24.7891H153.934L153.929 24.7945Z" fill="#1D1D1B"/>
<path d="M151.73 19.3967C154.096 19.3967 155.875 19.9774 157.063 21.1332C158.251 22.2944 158.848 23.9556 158.848 26.1329V27.7135H148.182C148.252 28.8156 148.682 29.6596 149.483 30.2456C150.284 30.8316 151.456 31.1219 153.01 31.1219C153.994 31.1219 154.945 30.9499 155.87 30.6058C156.794 30.2617 157.526 29.8962 158.058 29.5037H158.574V33.1272C157.52 33.5357 156.531 33.8314 155.596 34.0196C154.666 34.2024 153.633 34.2938 152.504 34.2938C149.585 34.2938 147.354 33.6594 145.8 32.3853C144.247 31.1165 143.473 29.3048 143.473 26.9555C143.473 24.6061 144.209 22.789 145.677 21.4289C147.15 20.0687 149.166 19.3914 151.73 19.3914M148.171 25.0631H154.214C154.187 24.1169 153.945 23.4073 153.488 22.9288C153.031 22.4503 152.322 22.2138 151.354 22.2138C150.456 22.2138 149.72 22.4396 149.139 22.8912C148.564 23.3428 148.236 24.0631 148.171 25.0631ZM151.73 18.8591C149.042 18.8591 146.881 19.5903 145.311 21.0418C143.731 22.4987 142.93 24.4932 142.93 26.9608C142.93 29.4284 143.779 31.4337 145.456 32.8046C147.101 34.1486 149.472 34.8314 152.504 34.8314C153.66 34.8314 154.735 34.7346 155.703 34.5464C156.66 34.3583 157.692 34.0518 158.773 33.6271L159.117 33.4927V28.9607H157.886L157.746 29.0629C157.257 29.4231 156.563 29.7725 155.687 30.0951C154.827 30.4123 153.929 30.5735 153.015 30.5735C151.585 30.5735 150.504 30.3155 149.806 29.7994C149.279 29.4123 148.945 28.9016 148.8 28.235H159.391V26.1168C159.391 23.8051 158.735 21.9934 157.44 20.7354C156.149 19.4828 154.23 18.8484 151.73 18.8484V18.8591ZM148.784 24.5255C148.897 23.9825 149.128 23.5847 149.472 23.3159C149.951 22.9396 150.585 22.7514 151.354 22.7514C152.166 22.7514 152.752 22.9342 153.101 23.2997C153.375 23.5847 153.553 23.9933 153.628 24.5201H148.784V24.5255Z" fill="white"/>
<path d="M167.079 14.1338H161.869V34.1864H167.079V14.1338Z" fill="#1D1D1B"/>
<path d="M166.81 14.4026V33.9176H162.138V14.4026H166.81ZM167.348 13.865H161.601V34.4552H167.348V13.865Z" fill="white"/>
<path d="M169.815 34.1863V30.9123L177.105 23.402H170.127V19.5688H183.868V22.7891L176.691 30.2887H184.013V34.1863H169.815Z" fill="#1D1D1B"/>
<path d="M183.599 19.8377V22.687L176.062 30.5629H183.739V33.9229H170.084V31.0252L177.74 23.1385H170.396V19.8377H183.599ZM184.137 19.3H169.858V23.6761H176.471L169.702 30.6542L169.552 30.8102V34.4605H184.282V30.0253H177.326L183.992 23.0579L184.142 22.902V19.3H184.137Z" fill="white"/>
<path d="M205.147 34.466C204.319 34.466 203.577 34.38 202.942 34.2079C202.421 34.0681 201.916 33.8692 201.437 33.6219L201.281 34.1972H196.33V14.1338H201.539V20.7678C202.131 20.3485 202.738 19.9937 203.351 19.7141C204.13 19.3539 205.034 19.1765 206.044 19.1765C207.958 19.1765 209.458 19.8593 210.496 21.2087C211.523 22.5365 212.039 24.3751 212.039 26.6815C212.039 28.9878 211.377 30.8371 210.076 32.2779C208.765 33.7241 207.109 34.4606 205.152 34.4606L205.147 34.466ZM201.539 30.4877C201.792 30.5683 202.034 30.6221 202.265 30.6544C202.555 30.692 202.905 30.7135 203.313 30.7135C204.475 30.7135 205.308 30.4017 205.862 29.7566C206.421 29.1061 206.7 28.1061 206.7 26.7782C206.7 25.5848 206.491 24.6601 206.082 24.0311C205.695 23.429 204.996 23.1387 203.958 23.1387C203.544 23.1387 203.114 23.2032 202.674 23.3214C202.281 23.429 201.905 23.5849 201.539 23.7784V30.4877Z" fill="#1D1D1B"/>
<path d="M201.27 14.4026V21.3001C201.985 20.7463 202.717 20.3001 203.464 19.956C204.211 19.612 205.071 19.4399 206.044 19.4399C207.878 19.4399 209.291 20.0797 210.286 21.3646C211.275 22.6494 211.775 24.4182 211.775 26.6761C211.775 28.934 211.141 30.6974 209.877 32.0951C208.614 33.4929 207.039 34.1918 205.152 34.1918C204.34 34.1918 203.631 34.1058 203.018 33.9391C202.405 33.7725 201.824 33.5305 201.27 33.2134L201.077 33.9176H196.599V14.4026H201.27ZM203.313 30.9823C204.544 30.9823 205.464 30.6329 206.066 29.9286C206.668 29.2297 206.969 28.176 206.969 26.7729C206.969 25.5202 206.749 24.5579 206.308 23.8806C205.867 23.2032 205.087 22.8645 203.958 22.8645C203.518 22.8645 203.066 22.929 202.604 23.058C202.141 23.187 201.695 23.3752 201.276 23.6171V30.6812C201.609 30.7995 201.932 30.8802 202.233 30.9178C202.534 30.9608 202.894 30.9823 203.319 30.9823M201.808 13.865H196.061V34.4552H201.485L201.593 34.0628L201.609 33.9983C202.018 34.1864 202.437 34.3423 202.872 34.4606C203.528 34.638 204.292 34.7294 205.147 34.7294C207.184 34.7294 208.91 33.966 210.27 32.4607C211.619 30.9662 212.302 29.0254 212.302 26.6815C212.302 24.3375 211.764 22.4183 210.7 21.042C209.609 19.6281 208.039 18.9077 206.034 18.9077C204.985 18.9077 204.044 19.0959 203.233 19.4722C202.754 19.6926 202.276 19.956 201.803 20.2625V13.865H201.808ZM201.808 23.9451C202.109 23.7945 202.426 23.6709 202.743 23.5849C203.157 23.4666 203.566 23.4075 203.958 23.4075C204.899 23.4075 205.523 23.6601 205.856 24.1762C206.238 24.7622 206.431 25.6385 206.431 26.7782C206.431 28.0416 206.173 28.9878 205.657 29.5845C205.157 30.1651 204.389 30.4501 203.313 30.4501C202.921 30.4501 202.577 30.4286 202.303 30.3909C202.147 30.3694 201.98 30.3372 201.808 30.2888V23.9451Z" fill="white"/>
<path d="M223.108 34.5628C220.14 34.5628 217.829 33.9015 216.232 32.5952C214.619 31.278 213.802 29.3803 213.802 26.9557C213.802 24.5311 214.576 22.6387 216.098 21.2356C217.614 19.8378 219.71 19.1282 222.334 19.1282C224.758 19.1282 226.618 19.7357 227.855 20.9399C229.097 22.1441 229.72 23.8913 229.72 26.1332V27.9825H219.081C219.194 28.8696 219.581 29.5416 220.248 30.0308C220.995 30.5791 222.129 30.8587 223.619 30.8587C224.565 30.8587 225.5 30.692 226.387 30.3641C227.285 30.0308 228 29.6706 228.511 29.2943L228.581 29.2405H229.457V33.3155L229.285 33.3801C228.221 33.794 227.204 34.1004 226.264 34.2832C225.317 34.4714 224.258 34.5628 223.119 34.5628H223.108ZM224.533 24.7945C224.473 24.058 224.258 23.4935 223.898 23.1172C223.495 22.6979 222.844 22.4828 221.957 22.4828C221.124 22.4828 220.436 22.6925 219.909 23.1011C219.452 23.4613 219.167 24.0257 219.07 24.7891H224.538L224.533 24.7945Z" fill="#1D1D1B"/>
<path d="M222.334 19.3967C224.699 19.3967 226.479 19.9774 227.667 21.1332C228.86 22.2944 229.452 23.9556 229.452 26.1329V27.7135H218.786C218.855 28.8156 219.291 29.6596 220.087 30.2456C220.882 30.8316 222.06 31.1219 223.613 31.1219C224.597 31.1219 225.549 30.9499 226.473 30.6058C227.398 30.2617 228.124 29.8962 228.661 29.5037H229.177V33.1272C228.124 33.5357 227.135 33.8314 226.199 34.0196C225.269 34.2024 224.237 34.2938 223.108 34.2938C220.189 34.2938 217.952 33.6594 216.404 32.3853C214.85 31.1165 214.076 29.3048 214.076 26.9555C214.076 24.6061 214.813 22.789 216.286 21.4289C217.759 20.0687 219.775 19.3914 222.339 19.3914M218.775 25.0631H224.823C224.796 24.1169 224.554 23.4073 224.097 22.9288C223.64 22.4503 222.925 22.2138 221.963 22.2138C221.065 22.2138 220.328 22.4396 219.748 22.8912C219.173 23.3428 218.845 24.0631 218.78 25.0631M222.334 18.8591C219.64 18.8591 217.485 19.5903 215.915 21.0418C214.334 22.4987 213.533 24.4932 213.533 26.9608C213.533 29.4284 214.383 31.4337 216.06 32.8046C217.705 34.1486 220.076 34.8314 223.108 34.8314C224.269 34.8314 225.344 34.7346 226.307 34.5464C227.264 34.3583 228.296 34.0518 229.376 33.6271L229.72 33.4927V28.9607H228.489L228.35 29.0629C227.86 29.4231 227.167 29.7725 226.296 30.0951C225.436 30.4123 224.538 30.5735 223.624 30.5735C222.194 30.5735 221.113 30.3155 220.414 29.7994C219.888 29.4123 219.554 28.9016 219.409 28.235H230V26.1168C230 23.8051 229.344 21.9934 228.048 20.7354C226.758 19.4828 224.839 18.8484 222.339 18.8484L222.334 18.8591ZM219.388 24.5255C219.501 23.9825 219.732 23.5847 220.076 23.3159C220.56 22.9342 221.178 22.7514 221.957 22.7514C222.737 22.7514 223.355 22.9342 223.705 23.2997C223.979 23.5847 224.151 23.9933 224.231 24.5201H219.382L219.388 24.5255Z" fill="white"/>
<path d="M44.1341 57.6419C41.9783 57.6419 40.8601 57.357 40.8117 57.3409C33.4412 54.7926 30.6402 50.3466 29.5812 47.0619C28.4361 43.5029 29.022 40.5838 29.0489 40.4601C29.3876 34.697 33.3874 16.9722 35.0593 9.74141C33.468 12.3112 30.3123 18.5044 25.1782 32.9659C25.1459 33.0519 25.076 33.1164 24.99 33.1379C24.9685 33.1379 24.947 33.1433 24.9255 33.1433C24.861 33.1433 24.7911 33.1164 24.7427 33.0734L21.1784 29.7833C21.0924 29.708 21.0709 29.5844 21.1139 29.4769C23.8342 23.246 29.0274 11.1338 29.2425 9.89731C29.651 8.43503 29.8016 7.02651 29.5758 6.79534C29.565 6.79534 29.5328 6.79534 29.4898 6.79534C28.7264 6.79534 24.361 8.04258 13.5283 32.7079C13.4907 32.7885 13.4208 32.8476 13.3294 32.8638C13.3133 32.8638 13.2971 32.8638 13.281 32.8638C13.2111 32.8638 13.1412 32.8369 13.0928 32.7831L10.3511 30.0413C10.2812 29.9715 10.2543 29.8693 10.2865 29.7725L11.5338 25.6545C11.1628 25.6975 10.5661 25.7513 9.82958 25.7513C7.25983 25.7513 2.60955 25.09 0.297856 20.6601C0.281728 20.6225 0.270975 20.5849 0.265599 20.5473C0.265599 20.4397 0.179583 17.8108 1.90529 14.1981C3.48585 10.8811 6.96415 6.09108 14.539 2.0698L14.797 1.9354C14.8562 1.90852 15.1304 1.81175 15.5712 1.81175C16.8238 1.81175 19.1678 2.56977 21.0547 7.55874C22.1837 6.35988 26.1459 2.31172 28.1189 2.31172C28.3554 2.31172 28.5597 2.36548 28.7371 2.46762C29.0597 2.56439 31.0703 3.2364 32.4412 5.4352C33.1508 4.03743 35.2636 0.241943 37.1775 0.241943C37.5162 0.241943 37.8334 0.360216 38.1129 0.58601C38.242 0.688155 41.2633 3.13425 41.8762 4.22559C41.9245 4.30623 41.9192 4.40837 41.8762 4.49439C41.8278 4.57503 41.7418 4.62879 41.645 4.62879H40.6988L33.1562 39.487C32.0703 45.1588 32.5595 49.3037 34.6131 51.7874C36.4625 54.0239 39.1021 54.2658 40.1504 54.2658H40.2311C40.4246 54.2658 40.5752 54.2765 40.7042 54.2819C40.7902 54.2873 40.8708 54.2927 40.93 54.2927C61.574 53.7067 79.5138 37.4872 79.6966 37.3205C79.745 37.2775 79.8095 37.2506 79.8794 37.2506C79.8901 37.2506 79.9009 37.2506 79.917 37.2506C79.9977 37.2614 80.0676 37.3044 80.1106 37.3743L82.0298 40.3902C82.1051 40.5085 82.0782 40.659 81.9653 40.745C63.0739 55.427 50.1606 57.6151 44.1395 57.6151L44.1341 57.6419ZM3.32457 21.0687C4.01808 21.3106 6.35665 22.0257 9.60378 22.0257C10.9048 22.0257 12.2165 21.9128 13.5068 21.687C15.1304 17.7893 18.8667 7.70926 17.5281 5.69325C17.3937 5.48896 17.2055 5.39219 16.9475 5.39219C16.8184 5.39219 16.6733 5.41907 16.512 5.46746C16.4314 5.50509 5.87281 9.98333 3.31919 21.0687H3.32457Z" fill="#D24533"/>
<path d="M37.1829 0.537604C37.4463 0.537604 37.7044 0.623621 37.9463 0.822534C37.9463 0.822534 41.0536 3.32777 41.645 4.38685H40.4838L32.8928 39.4548C30.1833 53.6045 37.9947 54.5614 40.1505 54.5614C40.1773 54.5614 40.2042 54.5614 40.2257 54.5614C40.2365 54.5614 40.2526 54.5614 40.2634 54.5614C40.5268 54.5614 40.7795 54.5883 40.93 54.5883C40.9407 54.5883 40.9461 54.5883 40.9569 54.5883C61.9288 53.9916 79.8794 37.5463 79.8794 37.5463L81.7987 40.5622C62.7675 55.3517 49.8166 57.3785 44.1395 57.3785C41.9944 57.3785 40.887 57.0882 40.887 57.0882C26.8663 52.239 29.3177 40.5246 29.3177 40.5246C29.6833 34.3045 34.3067 14.1766 35.6561 8.39738C34.468 9.96181 31.1402 15.3916 24.9309 32.8906L21.3666 29.6005C21.3666 29.6005 29.2371 11.5531 29.5113 9.95643C29.5113 9.95643 30.3338 7.02111 29.7263 6.58027C29.7263 6.58027 29.6511 6.53727 29.4951 6.53727C28.4791 6.53727 24.0116 8.19309 13.2864 32.6111L10.5446 29.8693L11.9155 25.348C11.9155 25.348 11.0768 25.5039 9.83496 25.5039C7.20608 25.5039 2.76547 24.8158 0.545163 20.5526C0.545163 20.5526 0.136584 10.0371 14.6734 2.32783C14.7594 2.28482 14.8454 2.23643 14.9315 2.19342C14.9315 2.19342 15.1734 2.10203 15.582 2.10203C16.7055 2.10203 19.0818 2.80092 20.9634 8.08557C20.9634 8.08557 25.9577 2.60738 28.1296 2.60738C28.3232 2.60738 28.4952 2.65039 28.635 2.74716C28.635 2.74716 31.0649 3.39766 32.4681 6.03729C32.4681 6.03729 35.0809 0.548356 37.1829 0.548356M9.60379 22.2944C10.8457 22.2944 12.2219 22.1923 13.695 21.9235C13.695 21.9235 20.7537 5.12337 16.9475 5.12337C16.7969 5.12337 16.6249 5.15025 16.4314 5.20938C16.4314 5.20938 5.52338 9.70913 3.00201 21.2407C3.00201 21.2407 5.60402 22.2944 9.59842 22.2944M37.1829 0C35.2851 0 33.3229 3.22563 32.4197 4.92983C31.0596 3.02134 29.2586 2.37083 28.85 2.24181C28.6404 2.12354 28.3931 2.0644 28.1243 2.0644C26.1781 2.0644 22.6084 5.5642 21.1569 7.08562C19.243 2.30632 16.8668 1.56443 15.5766 1.56443C15.0981 1.56443 14.797 1.66657 14.7379 1.68808C14.7164 1.69883 14.6949 1.70421 14.6734 1.71496L14.5874 1.75797L14.41 1.84936C-0.250492 9.63387 -0.0139452 20.1333 0.00218288 20.5741C0.00218288 20.6548 0.023687 20.73 0.0613193 20.7999C2.43753 25.3588 7.2007 26.0362 9.82959 26.0362C10.3511 26.0362 10.8027 26.0093 11.1575 25.977L10.0285 29.708C9.96936 29.8962 10.0231 30.1058 10.1629 30.2456L12.9047 32.9874C13.0068 33.0895 13.1412 33.1433 13.2864 33.1433C13.3186 33.1433 13.3509 33.1433 13.3832 33.1325C13.5552 33.1003 13.7057 32.982 13.7756 32.8207C24.2374 9.01562 28.6135 7.2039 29.4038 7.08025C29.479 7.51033 29.3124 8.69843 29.0005 9.8059C29.0005 9.82203 28.9898 9.84353 28.9898 9.85966C28.7963 10.9833 24.0331 22.1493 20.8827 29.3801C20.7913 29.5897 20.8451 29.837 21.0118 29.9876L24.5761 33.2777C24.6782 33.3691 24.8072 33.4228 24.9416 33.4228C24.9846 33.4228 25.0277 33.4229 25.0707 33.4067C25.2481 33.3637 25.3879 33.2347 25.447 33.0627C29.7478 20.9451 32.6509 14.6497 34.4088 11.4295C32.5756 19.429 29.1188 35.0195 28.7909 40.4493C28.7156 40.8418 28.2318 43.7018 29.3392 47.1479C31.2907 53.2013 36.6023 56.1689 40.7149 57.5935C40.7257 57.5935 40.7418 57.6043 40.7526 57.6043C40.801 57.615 41.9514 57.9107 44.1395 57.9107C50.1929 57.9107 63.176 55.7119 82.132 40.9816C82.3524 40.8095 82.4061 40.5031 82.2556 40.2666L80.3364 37.2506C80.2504 37.1162 80.1106 37.0248 79.9547 37.0087C79.9332 37.0087 79.9063 37.0087 79.8848 37.0087C79.7504 37.0087 79.6214 37.0571 79.5192 37.1484C79.3418 37.3097 61.4718 53.4647 40.9461 54.0507C40.8816 54.0507 40.8117 54.0507 40.7311 54.04C40.5967 54.0292 40.4354 54.0238 40.2741 54.0238H40.2311H40.1612C39.1505 54.0238 36.6077 53.7927 34.8336 51.6423C32.8337 49.2177 32.3606 45.1534 33.4358 39.5569L40.93 4.92445H41.6611C41.8547 4.92445 42.0267 4.82231 42.1235 4.66103C42.2202 4.49437 42.2202 4.29546 42.1235 4.1288C41.4998 3.01058 38.6183 0.672005 38.2904 0.408579C37.957 0.134401 37.5861 0 37.1829 0ZM16.6195 5.71473C16.7432 5.6771 16.8561 5.66097 16.9528 5.66097C17.1195 5.66097 17.2216 5.70936 17.3077 5.84376C18.4313 7.53721 15.5013 16.1926 13.3186 21.445C12.0929 21.6493 10.8457 21.7568 9.60917 21.7568C6.69536 21.7568 4.52343 21.1709 3.64714 20.8913C6.19538 10.3758 16.055 5.95665 16.6195 5.71473Z" fill="white"/>
<path d="M44.1341 57.6419C41.9783 57.6419 40.8601 57.357 40.8117 57.3409C33.4412 54.7926 30.6402 50.3466 29.5812 47.0619C28.4361 43.5029 29.0221 40.5838 29.0489 40.4601C29.3876 34.697 33.3874 16.9722 35.0594 9.7414C33.468 12.3112 30.3123 18.5044 25.1782 32.9659L25.0438 33.3476L21.0386 29.6543L21.1139 29.4769C23.8342 23.246 29.0274 11.1338 29.2425 9.89731C29.6511 8.43503 29.8016 7.0265 29.5758 6.79533C29.565 6.79533 29.5328 6.79533 29.4898 6.79533C28.7264 6.79533 24.361 8.04257 13.5283 32.7079L13.3724 33.068L10.2382 29.9338L11.5338 25.6599C11.1629 25.7029 10.5661 25.7566 9.8296 25.7566C7.25985 25.7566 2.60957 25.0954 0.297874 20.6655L0.270994 20.6118V20.5526C0.265618 20.4451 0.184978 17.8162 1.90531 14.2035C3.48587 10.8865 6.96417 6.09645 14.539 2.07517L14.7971 1.94077C14.8562 1.91389 15.1304 1.81712 15.5712 1.81712C16.8238 1.81712 19.1678 2.57514 21.0548 7.56411C22.1837 6.36525 26.1459 2.31709 28.1189 2.31709C28.3554 2.31709 28.5597 2.37085 28.7371 2.473C29.0597 2.56976 31.0703 3.24177 32.4412 5.44057C33.1509 4.0428 35.2636 0.247314 37.1775 0.247314C37.5162 0.247314 37.8334 0.365587 38.1129 0.591381C38.242 0.693526 41.2633 3.13962 41.8762 4.23096L42.102 4.62879H40.6988L33.1562 39.487C32.0703 45.1588 32.5595 49.3037 34.6131 51.7874C36.4625 54.0239 39.1021 54.2658 40.1505 54.2658H40.2311C40.4246 54.2658 40.5752 54.2765 40.7042 54.2819C40.7902 54.2873 40.8709 54.2927 40.93 54.2927C61.574 53.7067 79.5138 37.4872 79.6966 37.3205L79.9332 37.1055L82.1535 40.5945L81.9599 40.745C63.0685 55.427 50.1553 57.6151 44.1341 57.6151V57.6419ZM3.32459 21.0687C4.01809 21.3106 6.35667 22.0257 9.6038 22.0257C10.9048 22.0257 12.2166 21.9128 13.5068 21.687C15.1304 17.7893 18.8667 7.70926 17.5281 5.69324C17.3937 5.48896 17.2055 5.39219 16.9475 5.39219C16.8184 5.39219 16.6733 5.41907 16.512 5.46745C16.4314 5.50508 5.87283 9.98333 3.31921 21.0687H3.32459Z" fill="#D24533"/>
<path d="M37.1829 0.537604C37.4463 0.537604 37.7044 0.623621 37.9463 0.822534C37.9463 0.822534 41.0536 3.32777 41.645 4.38685H40.4838L32.8928 39.4548C30.1833 53.6045 37.9947 54.5614 40.1505 54.5614C40.1773 54.5614 40.2042 54.5614 40.2257 54.5614C40.2365 54.5614 40.2526 54.5614 40.2634 54.5614C40.5268 54.5614 40.7794 54.5883 40.93 54.5883C40.9407 54.5883 40.9461 54.5883 40.9569 54.5883C61.9288 53.9916 79.8794 37.5463 79.8794 37.5463L81.7986 40.5622C62.7675 55.3517 49.8166 57.3785 44.1395 57.3785C41.9944 57.3785 40.887 57.0882 40.887 57.0882C26.8663 52.239 29.3177 40.5246 29.3177 40.5246C29.6833 34.3045 34.3067 14.1766 35.6561 8.39738C34.468 9.96181 31.1402 15.3916 24.9309 32.8906L21.3666 29.6005C21.3666 29.6005 29.2371 11.5531 29.5113 9.95643C29.5113 9.95643 30.3338 7.02111 29.7263 6.58027C29.7263 6.58027 29.651 6.53727 29.4951 6.53727C28.4791 6.53727 24.0116 8.19309 13.2864 32.6111L10.5446 29.8693L11.9155 25.348C11.9155 25.348 11.0768 25.5039 9.83496 25.5039C7.20608 25.5039 2.76547 24.8158 0.545162 20.5526C0.545162 20.5526 0.136583 10.0371 14.6734 2.32783C14.7594 2.28482 14.8454 2.23643 14.9314 2.19342C14.9314 2.19342 15.1734 2.10203 15.5819 2.10203C16.7055 2.10203 19.0818 2.80092 20.9634 8.08557C20.9634 8.08557 25.9577 2.60738 28.1296 2.60738C28.3232 2.60738 28.4952 2.65039 28.635 2.74716C28.635 2.74716 31.0649 3.39766 32.4681 6.03729C32.4681 6.03729 35.0809 0.548356 37.1829 0.548356M9.60379 22.2944C10.8457 22.2944 12.2219 22.1923 13.695 21.9235C13.695 21.9235 20.7537 5.12337 16.9475 5.12337C16.7969 5.12337 16.6249 5.15025 16.4314 5.20938C16.4314 5.20938 5.52338 9.70913 3.00201 21.2407C3.00201 21.2407 5.60402 22.2944 9.59842 22.2944M37.1829 0C35.2851 0 33.3229 3.22563 32.4197 4.92983C31.0596 3.01596 29.2586 2.37083 28.85 2.24181C28.6404 2.12354 28.3931 2.0644 28.1243 2.0644C26.1781 2.0644 22.6084 5.5642 21.1569 7.08562C19.243 2.30632 16.8668 1.56443 15.5766 1.56443C15.0981 1.56443 14.797 1.66657 14.7379 1.68808L14.7057 1.69883L14.6734 1.71496L14.5928 1.75797L14.4153 1.85473C-0.250493 9.63387 -0.0139459 20.1333 0.00218219 20.5741V20.6924L0.0613186 20.7999C2.43753 25.3588 7.2007 26.0362 9.82959 26.0362C10.3511 26.0362 10.8026 26.0093 11.1575 25.977L10.0285 29.708L9.93711 30.0144L10.1629 30.2402L12.9047 32.982L13.4584 33.5357L13.7756 32.8154C24.2374 9.01562 28.6135 7.2039 29.4037 7.08025C29.479 7.51033 29.3124 8.69843 29.0005 9.8059V9.83278L28.9898 9.85966C28.7963 10.9833 24.0331 22.1493 20.8827 29.3801L20.7322 29.7295L21.0118 29.9876L24.5761 33.2777L25.1728 33.8314L25.447 33.0627C29.7478 20.9451 32.6509 14.6497 34.4088 11.4295C32.5756 19.429 29.1188 35.0195 28.7909 40.4493C28.7156 40.8418 28.2318 43.7018 29.3392 47.1479C31.2907 53.2013 36.6023 56.1689 40.7149 57.5935H40.7364L40.7579 57.6043C40.8063 57.615 41.9568 57.9107 44.1449 57.9107C50.1983 57.9107 63.1814 55.7119 82.1373 40.9816L82.5244 40.6805L82.261 40.2666L80.3417 37.2506L79.9977 36.7076L79.5246 37.1431C79.3472 37.3044 61.4772 53.4594 40.9515 54.0453C40.887 54.0453 40.8171 54.0453 40.7364 54.0346C40.602 54.0238 40.4408 54.0185 40.2795 54.0185H40.2365H40.1666C39.1559 54.0185 36.613 53.7873 34.8389 51.6369C32.839 49.2123 32.3659 45.148 33.4412 39.5515L40.9354 4.91908H42.5804L42.1288 4.11805C41.5052 2.99983 38.6237 0.661253 38.2957 0.397827C37.957 0.134401 37.5861 0 37.1829 0ZM16.6195 5.71473C16.7432 5.6771 16.8561 5.66097 16.9528 5.66097C17.1195 5.66097 17.2216 5.70936 17.3077 5.84376C18.4312 7.53721 15.5013 16.1926 13.3186 21.445C12.0929 21.6493 10.8457 21.7568 9.60917 21.7568C6.69535 21.7568 4.52343 21.1709 3.64714 20.8913C6.19538 10.3543 16.055 5.95665 16.6195 5.71473Z" fill="white"/>
<circle cx="189.734" cy="31.2413" r="3.04793" fill="#BDD132"/>
</svg>
