<?xml version="1.0" encoding="UTF-8"?>
<svg id="Calque_2" data-name="Calque 2" xmlns="http://www.w3.org/2000/svg" viewBox="0 0 80.86 98.36">
  <defs>
    <style>
      .cls-1 {
        fill: #00818f;
      }

      .cls-2 {
        fill: #fff;
      }
    </style>
  </defs>
  <g id="Calque_1-2" data-name="Calque 1">
    <g>
      <polygon class="cls-1" points="0 98.36 0 21.69 11.64 21.69 18.54 14.79 34.19 14.79 38.55 12.35 42.11 15.31 58.04 15.31 67.41 24.67 67.41 11.64 74.17 0 80.86 11.89 80.86 98.36 0 98.36"/>
      <path class="cls-2" d="m54.96,55.7h8.6c.01-2.4.03-9.37,0-12.59-3.02-1.57-6.24-1.58-8.6-.03v12.62Zm9.43,1.67h-10.26c-.46,0-.83-.37-.83-.83v-13.89c0-.26.12-.51.33-.67,3.02-2.27,7.3-2.31,11.18-.09.26.15.41.42.42.71.05,3.55,0,13.84,0,13.94,0,.46-.37.83-.83.83m-9.43,20.14h8.6c.01-2.4.03-9.37,0-12.59-3.02-1.57-6.25-1.59-8.6-.03v12.62Zm9.43,1.67h-10.26c-.46,0-.83-.37-.83-.83v-13.89c0-.26.12-.51.33-.67,3.03-2.27,7.31-2.3,11.18-.09.26.15.41.42.42.71.05,3.55,0,13.84,0,13.94,0,.46-.37.83-.83.83M13.5,55.7h8.6c.01-2.4.04-9.37,0-12.59-3.02-1.57-6.24-1.58-8.6-.03v12.62Zm9.43,1.67h-10.26c-.46,0-.83-.37-.83-.83v-13.89c0-.26.12-.51.33-.67,3.02-2.27,7.31-2.31,11.18-.09.26.15.41.42.42.71.05,3.55,0,13.84,0,13.94,0,.46-.37.83-.83.83m-9.43,20.14h8.6c.01-2.4.04-9.37,0-12.59-3.02-1.57-6.25-1.58-8.6-.03v12.62Zm9.43,1.67h-10.26c-.46,0-.83-.37-.83-.83v-13.89c0-.26.12-.51.33-.67,3.02-2.27,7.31-2.31,11.18-.09.26.15.41.42.42.71.05,3.55,0,13.84,0,13.94,0,.46-.37.83-.83.83m11.28-31.88h8.6v-12.62c-2.44-1.63-5.66-1.69-8.6-.17-.03,3.24,0,10.37,0,12.8Zm9.43,1.67h-10.26c-.46,0-.83-.37-.83-.83,0-.11-.05-10.6,0-14.14,0-.29.16-.57.42-.71,3.77-2.15,8.06-2.04,11.18.3.21.16.33.4.33.67v13.89c0,.46-.37.83-.83.83m-11.19,14.44c-.29,0-.56-.15-.71-.4-.24-.39-.12-.91.27-1.15,4.18-2.57,8.9-2.57,12.98,0,.39.25.51.76.26,1.15,0,0,0,0,0,0-.25.39-.76.51-1.15.26-3.57-2.25-7.55-2.25-11.21,0-.13.08-.28.12-.44.12m2.44,23.33c-.46,0-.83-.37-.83-.83v-21.17c0-.46.37-.83.83-.83s.83.37.83.83v21.17c0,.46-.37.83-.83.83m7.21,0c-.46,0-.83-.37-.83-.83v-21.17c0-.46.37-.83.83-.83s.83.37.83.83v21.17c0,.46-.37.83-.83.83m-14.11,11.61c-.46,0-.83-.37-.83-.83V24.39c0-.46.37-.83.83-.83.46,0,.83.37.83.83v73.13c0,.46-.37.83-.83.83m21.02,0c-.46,0-.83-.37-.83-.83V24.39c0-.46.37-.83.83-.83.46,0,.83.37.83.83v73.13c0,.46-.37.83-.83.83m2.18-75.73c-.19,0-.38-.06-.53-.19l-12.1-10.09-12.22,9.76c-.36.29-.89.23-1.17-.13-.29-.36-.23-.88.13-1.17,0,0,0,0,0,0l12.75-10.18c.31-.24.75-.24,1.05.01l12.62,10.52c.35.3.4.82.11,1.17-.16.19-.39.3-.64.3m-11.72,52.05c-.01.53-.44.95-.97.95-.55,0-.98-.45-.97-1,.01-.57.45-.96,1.02-.94.55.03.93.44.92.99"/>
    </g>
  </g>
</svg>