<svg width="200" height="37" viewBox="0 0 200 37" fill="none" xmlns="http://www.w3.org/2000/svg">
<g clip-path="url(#clip0_34_914)">
<path d="M5.36513 0.0511986C5.99913 1.33792 6.57244 2.49917 7.14188 3.6617C8.40601 6.24411 9.66885 8.82652 10.9317 11.4089C12.0447 13.6853 13.1552 15.9643 14.2747 18.2382C14.3432 18.3764 14.4736 18.4827 14.5756 18.6043C14.7047 18.4814 14.8803 18.3816 14.9539 18.2318C17.1465 13.7558 19.3274 9.27463 21.5109 4.79479C22.1643 3.45429 22.815 2.11252 23.4736 0.77586C23.5756 0.569729 23.7163 0.381521 23.9281 0.0422363C24.0869 0.719526 24.2315 1.25854 24.3374 1.80524C24.6589 3.45685 24.9701 5.11103 25.2749 6.76648C25.537 8.19148 25.7733 9.62032 26.0393 11.0453C26.3053 12.469 26.6023 13.8876 26.8721 15.3101C27.1381 16.7133 27.3822 18.1191 27.6443 19.5223C27.9103 20.9473 28.1879 22.3685 28.4539 23.7935C28.7354 25.3017 29.0208 26.8099 29.2803 28.322C29.3797 28.8968 29.3345 28.9263 28.7444 29.0057C27.4028 29.1862 26.0599 29.3642 24.717 29.5344C24.1127 29.6113 24.0521 29.5869 23.9333 28.9877C23.7434 28.0262 23.5937 27.057 23.4361 26.0891C23.1288 24.1955 22.828 22.3019 22.5258 20.407C22.2908 18.9334 22.0584 17.4597 21.8221 15.9861C21.7924 15.803 21.7472 15.6225 21.578 15.4087C21.3456 15.8491 21.099 16.2844 20.882 16.7312C18.909 20.7911 16.9437 24.8549 14.9668 28.9135C14.8919 29.0671 14.7305 29.1785 14.6092 29.3104C14.4891 29.1811 14.3303 29.0722 14.2554 28.9212C12.8582 26.1211 11.4701 23.3146 10.0821 20.5107C9.32538 18.9833 8.57258 17.4533 7.80558 15.9323C7.74102 15.8056 7.57703 15.7287 7.45953 15.6276C7.37947 15.7646 7.25293 15.8952 7.2271 16.0411C7.09669 16.7978 6.9921 17.5583 6.87847 18.3163C6.56211 20.4237 6.24446 22.5311 5.92811 24.6398C5.70989 26.0942 5.49942 27.5499 5.26957 29.0031C5.17789 29.5856 5.13787 29.6113 4.56068 29.5383C3.19583 29.3642 1.83485 29.1644 0.470007 28.9993C0.0710112 28.9506 -0.0490749 28.7675 0.0167787 28.4039C0.138156 27.733 0.247912 27.0596 0.375746 26.39C0.64949 24.9458 0.941312 23.5041 1.2086 22.0586C1.47589 20.6132 1.71219 19.1613 1.97689 17.7158C2.2416 16.269 2.52309 14.8261 2.79813 13.3819C2.93371 12.67 3.07058 11.9582 3.20229 11.2463C3.63485 8.8995 4.06484 6.55267 4.49612 4.20584C4.71563 3.0113 4.93256 1.81676 5.15982 0.623502C5.18822 0.471144 5.2657 0.326468 5.36642 0.0537592L5.36513 0.0511986Z" fill="black"/>
<path d="M173.575 10.651C173.994 11.3104 174.398 11.8571 174.71 12.4511C175.523 13.9978 175.759 15.6135 175.315 17.3368C174.808 19.3047 173.501 20.5658 171.795 21.5235C171.643 21.6093 171.527 21.7578 171.392 21.8781C171.52 22.0011 171.631 22.1534 171.78 22.2405C173.11 23.0227 174.3 23.9548 175.056 25.3273C175.974 26.9943 176.134 28.7765 175.679 30.5958C174.985 33.3754 173.071 35.0462 170.487 36.0999C168.148 37.0551 165.729 37.1498 163.263 36.8477C161.607 36.6454 160.017 36.2267 158.551 35.415C157.475 34.8196 156.51 34.0834 155.647 33.2077C155.36 32.9171 155.329 32.7058 155.629 32.4062C156.46 31.574 157.266 30.7149 158.093 29.8776C158.463 29.5025 158.494 29.5332 158.936 29.8917C159.748 30.551 160.52 31.2834 161.414 31.8109C162.918 32.6994 164.615 32.6905 166.304 32.5227C167.406 32.4139 168.358 31.9555 169.187 31.2296C170.399 30.1669 170.671 28.6242 170.154 27.0084C169.604 25.2864 168.284 24.4721 166.588 24.0611C164.456 23.5451 162.505 24.0624 160.59 24.9227C160.512 24.9573 160.441 25.0124 160.361 25.0405C160.006 25.166 159.846 25.0623 159.925 24.6974C160.046 24.1366 160.218 23.5861 160.386 23.0368C160.541 22.5273 160.483 22.4466 160.033 22.1841C159.206 21.7002 158.35 21.2405 157.601 20.6503C156.441 19.7349 155.838 18.4699 155.697 17.0091C155.572 15.7096 155.541 14.4203 155.981 13.1502C156.533 11.5626 157.512 10.304 158.861 9.32715C160.769 7.94697 162.954 7.39003 165.282 7.38362C166.592 7.37978 167.909 7.43484 169.211 7.56799C170.804 7.73059 172.344 7.46941 173.883 7.17365C174.893 6.98032 175.879 6.67561 176.88 6.43363C177.496 6.28511 177.628 6.39906 177.5 7.02642C177.286 8.0686 177.026 9.10182 176.796 10.1427C176.721 10.4833 176.498 10.5844 176.187 10.5844C175.541 10.5857 174.896 10.5819 174.25 10.5895C174.049 10.5921 173.847 10.6228 173.571 10.6484L173.575 10.651ZM160.904 15.634C160.846 16.2883 161.055 16.954 161.42 17.5686C162.732 19.781 165.694 20.7028 168.135 19.1728C170.512 17.6825 171.057 14.7058 168.958 12.6906C167.628 11.4128 166.003 10.9877 164.147 11.5152C162.515 11.9787 160.824 13.6649 160.904 15.634Z" fill="black"/>
<path d="M79.258 18.4584C79.3071 14.9618 80.7443 12.1541 83.5024 9.96854C84.8014 8.93917 86.2347 8.19146 87.8242 7.78048C89.5428 7.3362 91.2783 7.23122 93.055 7.60763C96.145 8.26188 98.4873 9.93014 100.227 12.4985C100.406 12.7622 100.574 13.0362 100.724 13.3179C100.939 13.7237 100.884 13.9068 100.481 14.1552C98.4227 15.4266 96.3645 16.6966 94.3024 17.9603C91.9484 19.4032 89.5893 20.8359 87.2354 22.2788C86.5898 22.6744 86.5613 22.8857 87.0817 23.4657C87.8048 24.271 88.7526 24.6423 89.8075 24.7524C91.7457 24.9547 93.5638 24.5245 95.2811 23.6475C95.8906 23.3364 96.4794 22.9856 97.0669 22.6373C97.3936 22.444 97.6377 22.4824 97.8081 22.8242C98.3969 24.0073 98.9728 25.1954 99.5732 26.3733C99.7424 26.7036 99.7062 26.8713 99.3679 27.0877C96.473 28.9352 93.3081 29.8148 89.8824 29.5395C87.6692 29.3616 85.6368 28.6049 83.8303 27.249C82.2357 26.0519 80.9806 24.6167 80.1619 22.8063C79.537 21.4249 79.1999 19.9858 79.2568 18.4584H79.258ZM84.6464 18.8501C84.7019 18.8322 84.7678 18.8245 84.8194 18.7938C87.8151 17.0103 90.8095 15.2268 93.8001 13.4344C93.9666 13.3345 94.0854 13.1591 94.2249 13.0208C92.585 11.3603 88.8946 11.3026 86.6362 13.2295C84.8737 14.7326 83.9194 17.8284 84.6464 18.8501Z" fill="black"/>
<path d="M178.397 18.4686C178.465 15.0284 179.844 12.2296 182.55 10.0569C184.983 8.10312 187.756 7.20562 190.866 7.41303C193.319 7.57691 195.475 8.51923 197.326 10.1273C198.319 10.9902 199.128 12.0055 199.775 13.1489C200.116 13.7493 200.103 13.862 199.527 14.2154C195.188 16.8823 190.846 19.5466 186.506 22.2123C186.397 22.2788 186.292 22.3544 186.189 22.4299C185.829 22.6911 185.765 22.8703 186.035 23.2096C186.284 23.5233 186.575 23.8293 186.909 24.0444C187.601 24.4912 188.375 24.7153 189.212 24.7793C191.567 24.9573 193.656 24.1955 195.616 23.0125C196.915 22.2289 196.71 22.3851 197.299 23.5067C197.774 24.4119 198.215 25.3337 198.66 26.2542C198.931 26.8176 198.919 26.8214 198.414 27.1441C195.576 28.9493 192.467 29.7956 189.108 29.5472C186.913 29.3846 184.895 28.6497 183.095 27.331C181.453 26.1262 180.16 24.6666 179.318 22.814C178.689 21.4313 178.379 19.9883 178.4 18.4699L178.397 18.4686ZM193.317 13.0093C192.068 11.4832 188.224 11.222 185.869 13.1578C184.076 14.6302 183.034 17.9296 183.803 18.8476C185.696 17.9373 193.02 13.4446 193.317 13.0093Z" fill="black"/>
<path d="M124.382 27.8253C123.878 28.121 123.428 28.4078 122.958 28.6575C121.091 29.6497 119.133 29.788 117.081 29.3296C115.456 28.966 114.057 28.2619 112.974 26.9956C112.105 25.979 111.619 24.7986 111.449 23.4747C111.29 22.2495 111.344 21.0613 111.776 19.8886C112.38 18.2408 113.433 16.9694 114.955 16.0924C116.773 15.0438 118.72 14.9107 120.754 15.296C121.796 15.4945 122.79 15.7954 123.738 16.2588C124.015 16.3946 124.227 16.3958 124.354 16.0655C124.804 14.8838 124.039 12.8314 122.894 12.2899C122.457 12.0824 121.965 11.9416 121.483 11.8827C119.136 11.5921 116.857 11.9032 114.643 12.7252C114.142 12.9121 113.98 12.7943 114.111 12.2758C114.352 11.3271 114.642 10.3911 114.915 9.45138C114.962 9.2875 115.046 9.12874 115.062 8.96358C115.13 8.23508 115.524 7.88811 116.254 7.7908C118.431 7.50145 120.615 7.20954 122.808 7.44512C124.706 7.64869 126.513 8.18898 127.917 9.5999C128.762 10.4488 129.253 11.4679 129.364 12.6573C129.397 13.0171 129.4 13.382 129.4 13.7443C129.402 18.5237 129.401 23.3019 129.401 28.0813C129.401 28.9046 129.401 28.911 128.603 29.0352C127.499 29.2055 126.394 29.3681 125.288 29.5243C124.661 29.6126 124.576 29.5307 124.556 28.911C124.547 28.6139 124.532 28.3156 124.509 28.0199C124.505 27.9661 124.444 27.9175 124.382 27.8265V27.8253ZM120.367 19.2638C119.548 19.1869 118.704 19.4878 117.933 19.9807C116.317 21.0127 116.223 23.0842 117.593 24.2173C118.507 24.9727 119.558 25.2237 120.706 25.1865C121.794 25.1507 122.752 24.7973 123.554 24.033C124.538 23.0958 124.51 21.3443 123.576 20.4596C122.706 19.6351 121.681 19.2497 120.369 19.265L120.367 19.2638Z" fill="black"/>
<path d="M43.4737 27.8637C42.6473 28.2887 41.8984 28.7548 41.0901 29.0749C39.5754 29.6741 38.0001 29.7201 36.4015 29.3962C35.1852 29.1491 34.0515 28.7343 33.0637 27.9738C31.5607 26.8177 30.7356 25.2941 30.4993 23.4274C30.3469 22.2239 30.405 21.0588 30.8247 19.9052C31.416 18.2754 32.4503 17.0091 33.9378 16.1295C35.7417 15.0617 37.6928 14.9043 39.7304 15.2807C40.815 15.4817 41.8506 15.7941 42.8384 16.2781C43.1741 16.4419 43.3782 16.3472 43.4259 15.9567C43.6777 13.8954 43.0528 12.2758 40.815 11.9186C38.4146 11.5345 36.0607 11.875 33.7752 12.688C33.6034 12.7495 33.4084 12.7456 33.2238 12.7725C33.2083 12.5728 33.1386 12.359 33.1876 12.1759C33.4213 11.2912 33.6873 10.4155 33.9404 9.53588C34.0282 9.22989 34.1147 8.92133 34.1974 8.61405C34.3059 8.21203 34.5189 7.94956 34.9721 7.87275C37.3119 7.48097 39.6671 7.21338 42.034 7.46432C43.3304 7.60132 44.5958 7.95469 45.7398 8.65118C47.372 9.64471 48.3779 11.0287 48.4321 12.9556C48.4889 14.9811 48.4553 17.0091 48.4566 19.0359C48.4592 22.0869 48.4566 25.1379 48.4566 28.1889C48.4566 28.9123 48.454 28.9161 47.7426 29.0249C46.6386 29.1926 45.5332 29.3553 44.4279 29.5191C43.7203 29.6241 43.639 29.5524 43.6235 28.8572C43.617 28.5807 43.6003 28.3054 43.5757 28.0301C43.5706 27.9751 43.5112 27.9239 43.475 27.8675L43.4737 27.8637ZM39.5522 25.3056C40.2482 25.1148 40.9932 25.0226 41.6337 24.7167C43.7823 23.6886 43.8959 21.2944 42.1876 20.0652C40.6084 18.9283 38.1344 18.9526 36.6198 20.2675C35.4292 21.2995 35.3815 23.0189 36.5191 24.1021C37.3584 24.901 38.3939 25.1763 39.5535 25.3069L39.5522 25.3056Z" fill="black"/>
<path d="M138.685 10.2208C138.814 10.0851 138.952 9.95581 139.07 9.81114C140.142 8.48601 141.536 7.68453 143.217 7.46303C144.958 7.23385 146.697 7.27866 148.345 8.00332C150.57 8.98149 151.838 10.6997 152.181 13.067C152.318 14.0132 152.361 14.9785 152.366 15.9349C152.385 19.9462 152.374 23.9587 152.374 27.9699C152.374 28.9263 152.372 28.9186 151.437 28.9814C150.235 29.0608 149.036 29.1645 147.834 29.24C147.061 29.2887 147.027 29.2464 147.027 28.4833C147.024 24.4081 147.029 20.3315 147.021 16.2563C147.02 15.4266 147.011 14.6021 146.65 13.8121C146.107 12.6304 145.202 11.9698 143.913 11.9019C141.03 11.7495 138.918 13.6969 138.844 16.5149C138.743 20.3111 138.808 24.111 138.8 27.9098C138.797 29.0505 138.887 28.9199 137.764 28.9903C136.584 29.0646 135.405 29.1709 134.225 29.2439C133.569 29.2848 133.529 29.24 133.529 28.5794C133.527 21.9422 133.527 15.3063 133.529 8.66909C133.529 8.05198 133.559 8.02765 134.175 7.96492C135.416 7.83688 136.655 7.71397 137.896 7.59106C138.397 7.54113 138.468 7.59362 138.484 8.08527C138.499 8.57563 138.484 9.06727 138.491 9.55764C138.494 9.76377 138.522 9.97118 138.539 10.1773C138.588 10.1914 138.637 10.2068 138.686 10.2208H138.685Z" fill="black"/>
<path d="M64.4939 12.4357C64.8167 11.117 65.106 9.91735 65.403 8.71896C65.5605 8.08264 65.6599 8.01351 66.3352 8.00455C67.8383 7.98278 67.6562 8.22092 67.6704 6.67429C67.6756 6.07638 67.6756 5.47975 67.6717 4.88184C67.6691 4.51823 67.8344 4.29545 68.174 4.14694C69.5453 3.54391 70.9088 2.92295 72.2776 2.31096C72.7915 2.0805 72.9684 2.19573 72.9723 2.79236C72.9813 4.26473 72.9723 5.7371 72.9774 7.20947C72.98 7.97894 73.0058 8.00198 73.778 8.00455C74.8962 8.00839 76.0157 8.0007 77.1339 8.00839C77.6866 8.01223 77.7305 8.0532 77.7357 8.58709C77.7447 9.71762 77.7253 10.8494 77.7447 11.9799C77.7525 12.4101 77.5652 12.5318 77.1636 12.5266C76.0015 12.5113 74.8407 12.5177 73.6786 12.5241C73.0355 12.5279 72.9787 12.5817 72.9787 13.2244C72.9761 15.9553 72.9606 18.6875 72.9955 21.4185C73.0032 22.0023 73.104 22.622 73.3261 23.1584C73.7625 24.2198 74.7348 24.618 75.8001 24.7332C76.5439 24.8139 77.3031 24.7588 78.0559 24.7601C78.6692 24.7601 78.7493 24.86 78.5943 25.4208C78.2806 26.5487 77.9694 27.6767 77.6621 28.8072C77.52 29.3309 77.3212 29.5216 76.7659 29.5536C74.8368 29.6663 72.9464 29.5575 71.1748 28.6587C69.482 27.7996 68.3922 26.4578 67.9751 24.6385C67.7711 23.7525 67.6988 22.823 67.6872 21.9114C67.6523 19.0307 67.6756 16.1499 67.673 13.2692C67.673 12.5318 67.6652 12.5279 66.9098 12.5241C66.3507 12.5215 65.7903 12.5305 65.2312 12.5202C65.0053 12.5164 64.7793 12.4716 64.4952 12.4383L64.4939 12.4357Z" fill="black"/>
<path d="M108.673 14.4856C108.673 18.9667 108.673 23.4491 108.673 27.9302C108.673 28.1005 108.665 28.2721 108.673 28.4424C108.686 28.7829 108.537 28.9442 108.182 28.966C106.808 29.0505 105.436 29.1619 104.062 29.2426C103.446 29.2797 103.411 29.2349 103.411 28.6037C103.408 19.4903 103.408 10.3783 103.411 1.26498C103.411 0.651702 103.421 0.654263 104.059 0.567201C105.336 0.391797 106.613 0.215113 107.89 0.0358679C108.595 -0.0627169 108.67 -0.00766305 108.671 0.719559C108.674 5.30823 108.673 9.8969 108.673 14.4843V14.4856Z" fill="black"/>
<path d="M57.4256 11.0684C57.6916 10.7124 57.9486 10.3501 58.2275 10.0031C59.2786 8.69466 60.6525 7.92775 62.3078 7.65632C63.0051 7.54237 63.7088 7.44507 64.4139 7.39641C65.0866 7.35032 65.1692 7.48476 64.9639 8.13388C64.7444 8.82269 64.5133 9.50894 64.2873 10.1952C64.082 10.8213 63.8651 11.4448 63.6766 12.076C63.51 12.6342 63.2324 12.9684 62.5712 13.0093C61.2555 13.09 60.0404 13.4856 59.0849 14.451C58.4702 15.0707 58.0945 15.8184 57.8414 16.6493C57.5496 17.607 57.5431 18.5813 57.5431 19.562C57.5431 22.4415 57.5431 25.3209 57.5431 28.2004C57.5431 28.9327 57.538 28.9237 56.7981 28.9737C55.5327 29.0582 54.2685 29.1593 53.0018 29.24C52.3239 29.2835 52.2968 29.2553 52.2968 28.596C52.2942 21.9626 52.2942 15.3293 52.2968 8.69594C52.2968 8.0417 52.3071 8.04426 52.9837 7.98024C54.2027 7.86373 55.4216 7.73954 56.6418 7.62815C57.1777 7.5795 57.2294 7.62687 57.2371 8.17485C57.2474 8.89951 57.2371 9.62545 57.2423 10.3501C57.2436 10.5767 57.2668 10.8021 57.281 11.0287C57.3314 11.0415 57.3804 11.0543 57.4308 11.0671L57.4256 11.0684Z" fill="black"/>
</g>
<defs>
<clipPath id="clip0_34_914">
<rect width="200" height="37" fill="white"/>
</clipPath>
</defs>
</svg>
