<svg width="676" height="219" viewBox="0 0 676 219" fill="none" xmlns="http://www.w3.org/2000/svg">
<g clip-path="url(#clip0_2403_31)">
<path d="M111.85 9.00005C111.75 11.5 111.55 14.1 111.25 16.8C110.95 19.5 110.75 22.2 110.45 24.8C110.15 27.4 109.85 29.8001 109.45 32.1001H82.0498V137.2H46.4498V32.1001H35.0498C32.3498 32.1001 30.6498 32.5 29.7498 33.3C28.8498 34.1 28.4498 35.7001 28.4498 38.1001V47.3H24.8498C17.9498 47.3 12.6498 45.7 9.04977 42.4C5.44977 39.1 3.64978 33.4001 3.64978 25.1001C3.64978 20.7001 4.34978 17.1 5.74978 14.2C7.14978 11.3 9.04978 9.00004 11.4498 7.20004C13.8498 5.40004 16.7498 4.10004 20.0498 3.40004C23.3498 2.70004 26.9498 2.30005 30.8498 2.30005H112.15C112.05 4.30005 111.95 6.50005 111.85 9.00005Z" fill="white"/>
<path d="M229.85 124C221.25 134.1 207.55 139.2 188.65 139.2C180.25 139.2 172.75 138.2 166.15 136.3C159.55 134.4 153.85 131.1 149.25 126.6C144.55 122.1 141.05 116.1 138.55 108.6C136.05 101.1 134.85 91.9 134.85 81V35.5C134.85 32.8 134.45 31.1 133.65 30.2C132.85 29.3 131.25 28.9 128.85 28.9H118.85V21.5C118.85 14.6 121.05 9.30004 125.45 5.70004C129.85 2.10004 136.15 0.300049 144.45 0.300049C149.35 0.300049 153.55 0.900043 156.85 2.20004C160.15 3.50004 162.85 5.20005 164.85 7.50005C166.85 9.80005 168.25 12.5001 169.15 15.6001C170.05 18.7001 170.45 22.2001 170.45 26.1001V85C170.45 89.5 170.75 93.3 171.35 96.3C171.95 99.3 172.95 101.7 174.45 103.4C175.95 105.1 177.85 106.4 180.15 107.1C182.45 107.8 185.45 108.2 189.05 108.2C195.85 108.2 200.75 106.5 203.85 103.2C206.95 99.9001 208.45 93.8 208.45 85V2.30005H242.65V81C242.75 99.5 238.45 113.9 229.85 124Z" fill="white"/>
<path d="M375.55 98.2001C375.55 105.5 374.25 111.8 371.55 117C368.85 122.2 365.25 126.4 360.65 129.7C356.05 133 350.75 135.3 344.65 136.8C338.55 138.3 332.15 139 325.55 139C319.15 139 311.75 138.7 303.55 138.2C295.25 137.7 286.75 136.9 277.95 135.8V35.5C277.95 32.8 277.55 31.1 276.75 30.2C275.95 29.3 274.35 28.9 271.95 28.9H261.95V21.5C261.95 14.6 264.15 9.30004 268.55 5.70004C272.95 2.10004 279.25 0.300049 287.55 0.300049C291.95 0.300049 295.85 0.800049 299.15 1.80005C302.45 2.80005 305.45 4.40004 307.95 6.70004C310.85 4.40004 314.75 2.80005 319.65 1.80005C324.55 0.800049 329.05 0.300049 333.35 0.300049C338.85 0.300049 343.85 1.00005 348.45 2.50005C353.05 4.00005 357.05 6.20004 360.35 9.20004C363.65 12.2 366.25 16 368.05 20.7C369.85 25.4 370.75 30.9 370.75 37.3C370.75 43.4 369.15 49.1 365.95 54.3C362.75 59.5 358.75 63.2 353.95 65.5V67.5C361.15 69.8 366.55 73.6 370.15 78.9C373.75 84.3 375.55 90.7001 375.55 98.2001ZM335.95 40.7C335.95 31.5 332.05 26.9 324.15 26.9C322.65 26.9 320.85 27 318.55 27.2C316.25 27.4 314.35 27.6 312.75 27.9V55.3H325.15C328.25 55.3 330.75 54.3 332.85 52.2C334.85 50.2 335.95 46.3 335.95 40.7ZM338.95 96.2001C338.95 91.1001 337.75 87.4001 335.45 85.1001C333.15 82.8 329.95 81.6001 325.95 81.6001H312.75V111.8C314.75 111.9 316.95 112 319.35 112C321.85 112 323.85 112 325.35 112C330.05 112 333.45 110.8 335.65 108.3C337.85 105.9 338.95 101.8 338.95 96.2001Z" fill="white"/>
<path d="M398.65 137.3V2.30005H434.35V137.3H398.65Z" fill="white"/>
<path d="M563.05 130.1C563.05 138.4 561.15 144.2 557.25 147.5C553.35 150.8 548.15 152.5 541.45 152.5H538.25V143.3C538.25 140.9 537.85 139.3 536.95 138.5C536.05 137.7 534.35 137.3 531.65 137.3H458.75L456.85 112L511.95 32.1001H461.65C461.15 27.0001 460.75 22.1 460.45 17.4C460.15 12.7 460.05 7.60005 460.05 2.30005H552.15L553.95 27.5L498.85 107.4H537.35C545.85 107.4 552.35 109.1 556.55 112.5C560.95 115.9 563.05 121.8 563.05 130.1Z" fill="white"/>
<path d="M666.05 122.1C665.55 127.5 665.05 132.5 664.35 137.2H580.25V2.19995H663.55C663.55 6.49995 663.35 11.3999 662.85 16.8999C662.35 22.3999 661.85 27.5 661.15 32H615.85V53.6H649.05V83H615.85V107.4H666.75C666.75 111.9 666.55 116.7 666.05 122.1Z" fill="white"/>
<path d="M134.35 204.7C134.35 206.4 134.15 207.9 133.75 209.1C133.35 210.3 132.85 211.3 132.15 212.1C131.45 212.9 130.65 213.5 129.65 213.9C128.65 214.3 127.55 214.5 126.45 214.5C125.25 214.5 124.15 214.3 123.15 214C122.15 213.6 121.35 213.1 120.65 212.3C119.95 211.5 119.45 210.5 119.05 209.3C118.65 208.1 118.45 206.6 118.45 204.9C118.45 203.3 118.65 201.8 119.05 200.6C119.45 199.4 119.95 198.3 120.65 197.5C121.35 196.7 122.15 196.1 123.15 195.7C124.15 195.3 125.25 195.1 126.45 195.1C127.65 195.1 128.75 195.3 129.75 195.7C130.75 196.1 131.55 196.7 132.25 197.5C132.95 198.3 133.45 199.3 133.85 200.5C134.15 201.6 134.35 203 134.35 204.7ZM130.65 204.7C130.65 203.4 130.55 202.3 130.35 201.5C130.15 200.6 129.85 200 129.55 199.4C129.15 198.9 128.75 198.5 128.25 198.3C127.75 198.1 127.15 198 126.45 198C125.75 198 125.15 198.1 124.65 198.3C124.15 198.5 123.65 198.9 123.35 199.4C123.05 199.9 122.75 200.6 122.55 201.5C122.35 202.4 122.25 203.4 122.25 204.7C122.25 205.9 122.35 207 122.45 207.8C122.65 208.6 122.85 209.3 123.25 209.9C123.55 210.4 124.05 210.8 124.55 211.1C125.05 211.3 125.75 211.5 126.45 211.5C127.15 211.5 127.85 211.4 128.35 211.1C128.85 210.9 129.35 210.5 129.65 210C129.95 209.5 130.25 208.8 130.45 207.9C130.55 207 130.65 206 130.65 204.7Z" fill="white"/>
<path d="M152.75 214.1C152.55 214.1 152.25 214.2 151.95 214.2C151.65 214.2 151.35 214.3 151.05 214.3C150.75 214.3 150.45 214.3 150.15 214.4C149.85 214.4 149.65 214.4 149.35 214.4L142.55 202.4C142.45 202.3 142.45 202.1 142.35 202C142.25 201.8 142.15 201.6 142.05 201.4C141.95 201.2 141.85 201 141.85 200.8C141.75 200.6 141.75 200.4 141.65 200.3H141.35C141.35 200.7 141.45 201.1 141.45 201.5C141.45 201.9 141.45 202.2 141.45 202.5V214.3H138.35V195.6C138.65 195.6 138.95 195.5 139.25 195.5C139.55 195.5 139.95 195.4 140.25 195.4C140.55 195.4 140.85 195.4 141.25 195.4C141.55 195.4 141.85 195.4 142.05 195.4L148.55 206.8C148.65 207.1 148.85 207.4 149.05 207.8C149.25 208.2 149.35 208.6 149.45 208.9H149.75C149.75 208.6 149.65 208.2 149.65 207.8C149.65 207.4 149.65 207 149.65 206.7V195.6H152.75V214.1Z" fill="white"/>
<path d="M178.55 204.7C178.55 206.4 178.35 207.9 177.95 209.1C177.55 210.3 177.05 211.3 176.35 212.1C175.65 212.9 174.85 213.5 173.85 213.9C172.85 214.3 171.75 214.5 170.65 214.5C169.45 214.5 168.35 214.3 167.35 214C166.35 213.6 165.55 213.1 164.85 212.3C164.15 211.5 163.65 210.5 163.25 209.3C162.85 208.1 162.65 206.6 162.65 204.9C162.65 203.3 162.85 201.8 163.25 200.6C163.65 199.4 164.15 198.3 164.85 197.5C165.55 196.7 166.35 196.1 167.35 195.7C168.35 195.3 169.45 195.1 170.65 195.1C171.85 195.1 172.95 195.3 173.95 195.7C174.95 196.1 175.75 196.7 176.45 197.5C177.15 198.3 177.65 199.3 178.05 200.5C178.35 201.6 178.55 203 178.55 204.7ZM174.75 204.7C174.75 203.4 174.65 202.3 174.45 201.5C174.25 200.6 173.95 200 173.65 199.4C173.25 198.9 172.85 198.5 172.35 198.3C171.85 198.1 171.25 198 170.55 198C169.85 198 169.25 198.1 168.75 198.3C168.25 198.5 167.75 198.9 167.45 199.4C167.15 199.9 166.85 200.6 166.65 201.5C166.45 202.4 166.35 203.4 166.35 204.7C166.35 205.9 166.45 207 166.55 207.8C166.75 208.6 166.95 209.3 167.35 209.9C167.65 210.4 168.15 210.8 168.65 211.1C169.15 211.3 169.85 211.5 170.55 211.5C171.25 211.5 171.95 211.4 172.45 211.1C172.95 210.9 173.45 210.5 173.75 210C174.05 209.5 174.35 208.8 174.55 207.9C174.65 207 174.75 206 174.75 204.7Z" fill="white"/>
<path d="M193.45 208.8C193.45 209.7 193.25 210.5 192.95 211.2C192.65 211.9 192.15 212.5 191.55 213C190.95 213.5 190.25 213.8 189.45 214.1C188.65 214.3 187.75 214.5 186.75 214.5C185.95 214.5 185.15 214.4 184.25 214.3C183.35 214.2 182.45 214 181.75 213.6C181.85 213.1 181.95 212.5 182.05 212C182.15 211.5 182.35 211 182.45 210.6C183.15 210.9 183.95 211.2 184.75 211.3C185.55 211.4 186.45 211.5 187.15 211.5C188.05 211.5 188.75 211.3 189.15 210.9C189.55 210.5 189.85 209.9 189.85 209.1C189.85 208.5 189.65 208 189.25 207.6C188.85 207.2 188.35 206.8 187.75 206.5C187.15 206.2 186.45 205.8 185.75 205.5C185.05 205.2 184.35 204.8 183.75 204.4C183.15 204 182.65 203.4 182.25 202.8C181.85 202.2 181.65 201.4 181.65 200.4C181.65 199.5 181.85 198.7 182.15 198C182.45 197.3 182.95 196.8 183.55 196.3C184.15 195.8 184.85 195.5 185.75 195.3C186.55 195.1 187.55 194.9 188.45 194.9C189.05 194.9 189.75 194.9 190.45 195C191.15 195.1 191.85 195.2 192.45 195.3C192.45 195.7 192.35 196.2 192.25 196.8C192.15 197.4 192.05 197.9 191.95 198.4C191.35 198.3 190.65 198.1 189.85 198C189.05 197.9 188.35 197.9 187.75 197.9C186.75 197.9 186.05 198.1 185.65 198.5C185.25 198.9 185.05 199.5 185.05 200.2C185.05 200.7 185.25 201.2 185.65 201.5C186.05 201.9 186.55 202.2 187.15 202.5C187.75 202.8 188.45 203.2 189.15 203.5C189.85 203.8 190.55 204.2 191.15 204.7C191.75 205.2 192.25 205.7 192.65 206.4C193.25 207.1 193.45 207.9 193.45 208.8Z" fill="white"/>
<path d="M208.75 212.6C208.65 213.1 208.65 213.6 208.55 214.2H197.55V195.3H208.35C208.35 195.8 208.35 196.3 208.25 196.8C208.25 197.4 208.15 197.9 208.05 198.4H200.95V203H206.15V206H200.95V211.1H208.75C208.85 211.6 208.75 212.1 208.75 212.6Z" fill="white"/>
<path d="M215.35 212.5C215.35 213.6 215.05 214.7 214.45 215.7C213.85 216.8 213.05 217.8 212.05 218.9L209.35 218.2C209.95 217.5 210.45 216.9 210.85 216.4C211.25 215.9 211.55 215.4 211.75 214.9C211.95 214.4 212.15 214 212.25 213.5C212.35 213 212.35 212.5 212.35 211.9V210.9H215.25C215.25 211.1 215.35 211.3 215.35 211.7C215.35 212.1 215.35 212.3 215.35 212.5Z" fill="white"/>
<path d="M240.35 204.7C240.35 206.4 240.15 207.9 239.75 209.1C239.35 210.3 238.85 211.3 238.15 212.1C237.45 212.9 236.65 213.5 235.65 213.9C234.65 214.3 233.55 214.5 232.45 214.5C231.25 214.5 230.15 214.3 229.15 214C228.15 213.6 227.35 213.1 226.65 212.3C225.95 211.5 225.45 210.5 225.05 209.3C224.65 208.1 224.45 206.6 224.45 204.9C224.45 203.3 224.65 201.8 225.05 200.6C225.45 199.4 225.95 198.3 226.65 197.5C227.35 196.7 228.15 196.1 229.15 195.7C230.15 195.3 231.25 195.1 232.45 195.1C233.65 195.1 234.75 195.3 235.75 195.7C236.75 196.1 237.55 196.7 238.25 197.5C238.95 198.3 239.45 199.3 239.85 200.5C240.15 201.6 240.35 203 240.35 204.7ZM236.65 204.7C236.65 203.4 236.55 202.3 236.35 201.5C236.15 200.6 235.85 200 235.55 199.4C235.15 198.9 234.75 198.5 234.25 198.3C233.75 198.1 233.15 198 232.45 198C231.75 198 231.15 198.1 230.65 198.3C230.15 198.5 229.65 198.9 229.35 199.4C229.05 199.9 228.75 200.6 228.55 201.5C228.35 202.4 228.25 203.4 228.25 204.7C228.25 205.9 228.35 207 228.45 207.8C228.65 208.6 228.85 209.3 229.25 209.9C229.55 210.4 230.05 210.8 230.55 211.1C231.05 211.3 231.75 211.5 232.45 211.5C233.15 211.5 233.85 211.4 234.35 211.1C234.85 210.9 235.35 210.5 235.65 210C235.95 209.5 236.25 208.8 236.45 207.9C236.55 207 236.65 206 236.65 204.7Z" fill="white"/>
<path d="M258.75 214.1C258.55 214.1 258.25 214.2 257.95 214.2C257.65 214.2 257.35 214.3 257.05 214.3C256.75 214.3 256.45 214.3 256.15 214.4C255.85 214.4 255.65 214.4 255.35 214.4L248.55 202.4C248.45 202.3 248.45 202.1 248.35 202C248.25 201.8 248.15 201.6 248.05 201.4C247.95 201.2 247.85 201 247.85 200.8C247.75 200.6 247.75 200.4 247.65 200.3H247.35C247.35 200.7 247.45 201.1 247.45 201.5C247.45 201.9 247.45 202.2 247.45 202.5V214.3H244.35V195.6C244.65 195.6 244.95 195.5 245.25 195.5C245.55 195.5 245.95 195.4 246.25 195.4C246.55 195.4 246.85 195.4 247.25 195.4C247.55 195.4 247.85 195.4 248.05 195.4L254.55 206.8C254.65 207.1 254.85 207.4 255.05 207.8C255.25 208.2 255.35 208.6 255.45 208.9H255.75C255.75 208.6 255.65 208.2 255.65 207.8C255.65 207.4 255.65 207 255.65 206.7V195.6H258.75V214.1Z" fill="white"/>
<path d="M282.85 195.5C282.05 198.7 281.15 201.9 280.15 205C279.15 208.1 278.15 211.2 277.15 214.3H273.35C272.35 211.2 271.35 208.1 270.35 205C269.45 201.9 268.55 198.8 267.75 195.6C268.25 195.5 268.85 195.4 269.55 195.4C270.25 195.3 270.75 195.3 271.25 195.3L275.05 208.9C275.15 209.1 275.15 209.4 275.25 209.6C275.25 209.9 275.35 210.1 275.35 210.4H275.65C275.65 210.1 275.75 209.9 275.75 209.6C275.75 209.3 275.85 209.1 275.95 208.8L279.75 195.2C279.95 195.2 280.25 195.2 280.55 195.2C280.85 195.2 281.15 195.2 281.45 195.3C281.75 195.3 282.05 195.4 282.35 195.4C282.35 195.4 282.65 195.4 282.85 195.5Z" fill="white"/>
<path d="M286.05 214.2V195.3H289.55V214.2H286.05Z" fill="white"/>
<path d="M307.25 208.9C307.25 209.9 307.05 210.8 306.75 211.5C306.45 212.2 305.95 212.8 305.35 213.2C304.75 213.6 304.05 214 303.25 214.2C302.45 214.4 301.65 214.5 300.75 214.5C299.95 214.5 298.95 214.5 297.95 214.4C296.85 214.3 295.85 214.2 294.75 214.1V195.6C295.55 195.5 296.45 195.4 297.45 195.3C298.45 195.2 299.45 195.2 300.35 195.2C301.25 195.2 302.15 195.3 302.85 195.5C303.55 195.7 304.25 196 304.75 196.4C305.25 196.8 305.75 197.3 305.95 197.9C306.15 198.5 306.35 199.3 306.35 200.1C306.35 201.1 306.05 202 305.55 202.8C305.05 203.6 304.35 204.1 303.55 204.4V204.6C304.65 204.9 305.45 205.4 306.05 206.1C306.95 206.7 307.25 207.7 307.25 208.9ZM303.15 200.4C303.15 198.7 302.25 197.8 300.35 197.8C300.05 197.8 299.65 197.8 299.35 197.8C298.95 197.8 298.55 197.8 298.05 197.9V203.3H300.55C301.35 203.3 301.95 203.1 302.45 202.6C302.95 202.1 303.15 201.3 303.15 200.4ZM303.65 208.6C303.65 207.6 303.35 207 302.85 206.5C302.35 206.1 301.65 205.8 300.75 205.8H298.05V211.5C298.55 211.5 298.95 211.6 299.35 211.6C299.75 211.6 300.15 211.6 300.45 211.6C301.55 211.6 302.25 211.3 302.85 210.8C303.45 210.4 303.65 209.6 303.65 208.6Z" fill="white"/>
<path d="M323.05 214.2C322.45 214.3 321.75 214.3 321.25 214.3L319.85 211.3C319.35 210.3 318.85 209.3 318.35 208.5C317.85 207.7 317.45 207.1 316.95 206.6H314.75V214H311.35V195.3C312.55 195.2 313.55 195 314.45 195C315.35 194.9 316.25 194.9 317.15 194.9C318.05 194.9 318.85 195 319.55 195.2C320.25 195.4 320.95 195.7 321.55 196.2C322.15 196.7 322.55 197.2 322.95 197.9C323.25 198.6 323.45 199.5 323.45 200.5C323.45 201.1 323.35 201.7 323.15 202.3C322.95 202.9 322.75 203.3 322.35 203.8C321.95 204.3 321.65 204.6 321.25 204.9C320.85 205.2 320.35 205.4 319.85 205.6C320.95 206.6 321.95 207.9 322.85 209.7L324.85 213.9C324.25 214.1 323.65 214.2 323.05 214.2ZM319.95 200.9C319.95 199.9 319.65 199.1 319.15 198.7C318.65 198.2 317.95 198 316.95 198C316.55 198 316.15 198 315.75 198C315.35 198 314.95 198 314.65 198.1V204.1H316.55C317.55 204.1 318.35 203.8 318.95 203.3C319.55 202.8 319.95 202 319.95 200.9Z" fill="white"/>
<path d="M339.35 212.6C339.25 213.1 339.25 213.6 339.15 214.2H328.15V195.3H338.95C338.95 195.8 338.95 196.3 338.85 196.8C338.85 197.4 338.75 197.9 338.65 198.4H331.55V203H336.75V206H331.55V211.1H339.35C339.45 211.6 339.35 212.1 339.35 212.6Z" fill="white"/>
<path d="M345.95 212.5C345.95 213.6 345.65 214.7 345.05 215.7C344.45 216.8 343.65 217.8 342.65 218.9L339.95 218.2C340.55 217.5 341.05 216.9 341.45 216.4C341.85 215.9 342.15 215.4 342.35 214.9C342.55 214.4 342.75 214 342.85 213.5C342.95 213 342.95 212.5 342.95 211.9V210.9H345.85C345.85 211.1 345.95 211.3 345.95 211.7C345.95 212.1 345.95 212.3 345.95 212.5Z" fill="white"/>
<path d="M370.95 204.7C370.95 206.4 370.75 207.9 370.35 209.1C369.95 210.3 369.45 211.3 368.75 212.1C368.05 212.9 367.25 213.5 366.25 213.9C365.25 214.3 364.15 214.5 363.05 214.5C361.85 214.5 360.75 214.3 359.75 214C358.75 213.6 357.95 213.1 357.25 212.3C356.55 211.5 356.05 210.5 355.65 209.3C355.25 208.1 355.05 206.6 355.05 204.9C355.05 203.3 355.25 201.8 355.65 200.6C356.05 199.4 356.55 198.3 357.25 197.5C357.95 196.7 358.75 196.1 359.75 195.7C360.75 195.3 361.85 195.1 363.05 195.1C364.25 195.1 365.35 195.3 366.35 195.7C367.35 196.1 368.15 196.7 368.85 197.5C369.55 198.3 370.05 199.3 370.45 200.5C370.75 201.6 370.95 203 370.95 204.7ZM367.25 204.7C367.25 203.4 367.15 202.3 366.95 201.5C366.75 200.6 366.45 200 366.15 199.4C365.75 198.9 365.35 198.5 364.85 198.3C364.35 198.1 363.75 198 363.05 198C362.35 198 361.75 198.1 361.25 198.3C360.75 198.5 360.25 198.9 359.95 199.4C359.65 199.9 359.35 200.6 359.15 201.5C358.95 202.4 358.85 203.4 358.85 204.7C358.85 205.9 358.95 207 359.05 207.8C359.25 208.6 359.45 209.3 359.85 209.9C360.25 210.5 360.65 210.8 361.15 211.1C361.65 211.3 362.35 211.5 363.05 211.5C363.75 211.5 364.45 211.4 364.95 211.1C365.45 210.9 365.95 210.5 366.25 210C366.55 209.5 366.85 208.8 367.05 207.9C367.15 207 367.25 206 367.25 204.7Z" fill="white"/>
<path d="M389.35 214.1C389.15 214.1 388.85 214.2 388.55 214.2C388.25 214.2 387.95 214.3 387.65 214.3C387.35 214.3 387.05 214.3 386.75 214.4C386.45 214.4 386.25 214.4 385.95 214.4L379.15 202.4C379.05 202.3 379.05 202.1 378.95 202C378.85 201.9 378.75 201.6 378.65 201.4C378.55 201.2 378.45 201 378.45 200.8C378.35 200.6 378.35 200.4 378.25 200.3H377.95C377.95 200.7 378.05 201.1 378.05 201.5C378.05 201.9 378.05 202.2 378.05 202.5V214.3H374.95V195.6C375.25 195.6 375.55 195.5 375.85 195.5C376.15 195.5 376.55 195.4 376.85 195.4C377.15 195.4 377.45 195.4 377.85 195.4C378.15 195.4 378.45 195.4 378.65 195.4L385.15 206.8C385.25 207.1 385.45 207.4 385.65 207.8C385.85 208.2 385.95 208.6 386.05 208.9H386.35C386.35 208.6 386.25 208.2 386.25 207.8C386.25 207.4 386.25 207 386.25 206.7V195.6H389.35V214.1Z" fill="white"/>
<path d="M412.75 208.9C412.75 209.9 412.55 210.8 412.25 211.5C411.95 212.2 411.45 212.8 410.85 213.2C410.25 213.6 409.55 214 408.75 214.2C407.95 214.4 407.15 214.5 406.25 214.5C405.45 214.5 404.45 214.5 403.45 214.4C402.35 214.3 401.35 214.2 400.25 214.1V195.6C401.05 195.5 401.95 195.4 402.95 195.3C403.95 195.2 404.95 195.2 405.85 195.2C406.75 195.2 407.65 195.3 408.35 195.5C409.05 195.7 409.75 196 410.25 196.4C410.75 196.8 411.25 197.3 411.45 197.9C411.75 198.5 411.85 199.3 411.85 200.1C411.85 201.1 411.55 202 411.05 202.8C410.55 203.6 409.85 204.1 409.05 204.4V204.6C410.15 204.9 410.95 205.4 411.55 206.1C412.15 206.8 412.75 207.7 412.75 208.9ZM408.65 200.4C408.65 198.7 407.75 197.8 405.85 197.8C405.55 197.8 405.15 197.8 404.85 197.8C404.55 197.8 404.05 197.8 403.55 197.9V203.3H406.05C406.85 203.3 407.45 203.1 407.95 202.6C408.45 202.1 408.65 201.3 408.65 200.4ZM409.15 208.6C409.15 207.6 408.85 207 408.35 206.5C407.85 206.1 407.15 205.8 406.25 205.8H403.55V211.5C404.05 211.5 404.45 211.6 404.85 211.6C405.25 211.6 405.65 211.6 405.95 211.6C407.05 211.6 407.75 211.3 408.35 210.8C408.95 210.4 409.15 209.6 409.15 208.6Z" fill="white"/>
<path d="M428.05 212.6C427.95 213.1 427.95 213.6 427.85 214.2H416.85V195.3H427.65C427.65 195.8 427.65 196.3 427.55 196.8C427.55 197.4 427.45 197.9 427.35 198.4H420.25V203H425.45V206H420.25V211.1H428.05C428.15 211.6 428.05 212.1 428.05 212.6Z" fill="white"/>
<path d="M442.65 196.8C442.65 197.3 442.55 197.9 442.45 198.3H438.15V214.1H434.65V198.3H430.15V195.2H442.75C442.75 195.8 442.75 196.3 442.65 196.8Z" fill="white"/>
<path d="M458.35 213.2C457.65 213.6 456.85 213.9 455.85 214.1C454.85 214.3 454.05 214.4 453.15 214.4C450.45 214.4 448.35 213.6 446.95 211.9C445.55 210.3 444.85 207.8 444.85 204.6C444.85 202.9 445.05 201.5 445.45 200.2C445.85 199 446.45 198 447.15 197.2C447.85 196.4 448.75 195.8 449.75 195.4C450.75 195 451.85 194.8 452.95 194.8C453.35 194.8 453.85 194.8 454.25 194.9C454.75 194.9 455.15 195 455.65 195.1C456.05 195.2 456.55 195.3 456.95 195.4C457.35 195.5 457.65 195.6 457.95 195.8C457.95 196.2 457.85 196.8 457.75 197.3C457.65 197.9 457.55 198.4 457.45 198.9C456.85 198.6 456.15 198.3 455.35 198.2C454.65 198 453.85 198 453.15 198C452.45 198 451.85 198.1 451.35 198.3C450.75 198.5 450.35 198.9 449.95 199.4C449.55 199.9 449.25 200.6 449.05 201.4C448.85 202.2 448.75 203.3 448.75 204.6C448.75 207 449.15 208.7 449.85 209.7C450.65 210.7 451.75 211.2 453.35 211.2C454.15 211.2 454.95 211.1 455.75 210.8C456.55 210.6 457.25 210.2 457.85 209.9C457.95 210.4 458.05 210.9 458.15 211.4C458.25 212.1 458.35 212.7 458.35 213.2Z" fill="white"/>
<path d="M472.85 214.2V205.9H465.65V214.2H462.15V195.3H465.65V202.8H472.85V195.3H476.35V214.2H472.85Z" fill="white"/>
<path d="M494.85 214C494.35 214.1 493.75 214.2 493.15 214.2C492.55 214.2 491.95 214.3 491.35 214.3L489.85 209.1H483.95L482.45 214.3C481.95 214.3 481.35 214.3 480.85 214.2C480.25 214.2 479.75 214.1 479.25 214C480.15 210.9 481.05 207.9 482.05 204.7C483.05 201.6 484.05 198.4 485.25 195.2H489.05C490.05 198.3 491.15 201.5 492.05 204.6C493.05 207.9 494.05 211 494.85 214ZM487.25 200.3C487.15 200.1 487.15 199.9 487.05 199.6C487.05 199.4 486.95 199.1 486.95 198.8H486.85C486.85 199.1 486.85 199.4 486.75 199.6C486.75 199.8 486.65 200 486.65 200.3L484.85 206.3H489.15L487.25 200.3Z" fill="white"/>
<path d="M509.55 214.2C508.95 214.3 508.25 214.3 507.75 214.3L506.35 211.3C505.85 210.3 505.35 209.3 504.85 208.5C504.35 207.7 503.95 207.1 503.45 206.6H501.25V214H497.85V195.3C499.05 195.2 500.05 195 500.95 195C501.85 194.9 502.75 194.9 503.65 194.9C504.55 194.9 505.35 195 506.05 195.2C506.85 195.4 507.45 195.7 508.05 196.2C508.65 196.7 509.05 197.2 509.45 197.9C509.85 198.6 509.95 199.5 509.95 200.5C509.95 201.1 509.85 201.7 509.65 202.3C509.45 202.9 509.25 203.3 508.85 203.8C508.55 204.2 508.15 204.6 507.75 204.9C507.35 205.2 506.85 205.4 506.35 205.6C507.45 206.6 508.45 207.9 509.35 209.7L511.35 213.9C510.85 214.1 510.25 214.2 509.55 214.2ZM506.45 200.9C506.45 199.9 506.15 199.1 505.65 198.7C505.15 198.2 504.45 198 503.45 198C503.05 198 502.65 198 502.25 198C501.85 198 501.45 198 501.15 198.1V204.1H503.05C504.05 204.1 504.85 203.8 505.45 203.3C506.05 202.8 506.45 202 506.45 200.9Z" fill="white"/>
<path d="M529.55 204.3C529.55 205.9 529.35 207.4 528.95 208.6C528.55 209.9 527.95 210.9 527.25 211.8C526.55 212.7 525.65 213.3 524.55 213.7C523.45 214.1 522.35 214.4 521.15 214.4C520.65 214.4 520.15 214.4 519.55 214.4C518.95 214.4 518.45 214.4 517.85 214.3C517.25 214.3 516.75 214.2 516.15 214.2C515.55 214.1 515.15 214.1 514.65 214V195.5C515.05 195.4 515.55 195.4 516.05 195.3C516.65 195.3 517.15 195.2 517.75 195.2C518.35 195.2 518.95 195.1 519.55 195.1C520.15 195.1 520.65 195.1 521.05 195.1C522.25 195.1 523.25 195.3 524.35 195.6C525.45 195.9 526.25 196.5 527.05 197.2C527.85 197.9 528.45 198.9 528.85 200.1C529.35 201.3 529.55 202.7 529.55 204.3ZM525.85 204.7C525.85 203.5 525.75 202.4 525.45 201.6C525.15 200.8 524.85 200.1 524.45 199.6C524.05 199.1 523.55 198.7 522.95 198.5C522.35 198.3 521.75 198.2 521.15 198.2C520.75 198.2 520.25 198.2 519.75 198.2C519.25 198.2 518.75 198.3 518.35 198.3V211.2C518.75 211.2 519.15 211.3 519.75 211.3C520.25 211.3 520.75 211.3 521.15 211.3C522.75 211.3 523.95 210.8 524.75 209.7C525.45 208.7 525.85 207 525.85 204.7Z" fill="white"/>
<path d="M544.85 212.6C544.75 213.1 544.75 213.6 544.65 214.2H533.65V195.3H544.45C544.45 195.8 544.45 196.3 544.35 196.8C544.35 197.4 544.25 197.9 544.15 198.4H537.05V203H542.25V206H537.05V211.1H544.85C544.95 211.6 544.95 212.1 544.85 212.6Z" fill="white"/>
<path d="M557.35 212.6C557.35 213.2 557.15 213.7 556.85 214C556.55 214.3 556.05 214.5 555.55 214.5C555.05 214.5 554.55 214.3 554.25 214C553.95 213.7 553.75 213.2 553.75 212.6C553.75 212 553.95 211.5 554.25 211.2C554.65 210.9 555.05 210.7 555.55 210.7C556.05 210.7 556.45 210.9 556.85 211.2C557.15 211.6 557.35 212 557.35 212.6ZM557.05 202C556.95 204.2 556.85 206.4 556.75 208.6C556.35 208.7 555.95 208.7 555.55 208.8C555.15 208.9 554.75 208.9 554.35 208.9C554.25 206.7 554.15 204.5 554.05 202.2C553.95 199.9 553.95 197.7 553.95 195.4H557.35C557.25 197.5 557.15 199.8 557.05 202Z" fill="white"/>
<path d="M-0.0501709 208.7H74.2498" stroke="white" stroke-miterlimit="10"/>
<path d="M601.95 208.7H676.25" stroke="white" stroke-miterlimit="10"/>
</g>
<defs>
<clipPath id="clip0_2403_31">
<rect width="676" height="219" fill="white"/>
</clipPath>
</defs>
</svg>
