<svg xmlns="http://www.w3.org/2000/svg" width="63.135" height="49.692" viewBox="0 0 63.135 49.692">
  <g id="camera" transform="translate(0 -44.8)">
    <g id="Groupe_32" data-name="Groupe 32" transform="translate(0 44.8)">
      <g id="Groupe_31" data-name="Groupe 31" transform="translate(0 0)">
        <path id="Tracé_56" data-name="Tracé 56" d="M61.035,52.542a6.788,6.788,0,0,0-4.981-2.1H46.091v-.12a5.388,5.388,0,0,0-1.62-3.9,5.491,5.491,0,0,0-3.9-1.62h-18a5.533,5.533,0,0,0-5.581,5.521v.12h-9.9a6.788,6.788,0,0,0-4.981,2.1A7.135,7.135,0,0,0,0,57.523V87.41a6.788,6.788,0,0,0,2.1,4.981,7.135,7.135,0,0,0,4.981,2.1H56.054a6.788,6.788,0,0,0,4.981-2.1,7.135,7.135,0,0,0,2.1-4.981V57.523A6.788,6.788,0,0,0,61.035,52.542ZM60.015,87.41h-.06a3.893,3.893,0,0,1-3.9,3.9H7.082a3.893,3.893,0,0,1-3.9-3.9V57.523a3.893,3.893,0,0,1,3.9-3.9H18.665A1.614,1.614,0,0,0,20.285,52v-1.74a2.259,2.259,0,0,1,2.341-2.341H40.57a2.259,2.259,0,0,1,2.341,2.341V52a1.614,1.614,0,0,0,1.62,1.62H56.114a3.893,3.893,0,0,1,3.9,3.9Z" transform="translate(0 -44.8)" fill="#fff"/>
        <path id="Tracé_57" data-name="Tracé 57" d="M126.764,130.8a14.753,14.753,0,1,0,10.443,4.321A14.79,14.79,0,0,0,126.764,130.8Zm8.162,22.986a11.591,11.591,0,0,1-16.324,0,11.473,11.473,0,0,1-3.361-8.162,11.728,11.728,0,0,1,3.361-8.162,11.473,11.473,0,0,1,8.162-3.361,11.728,11.728,0,0,1,8.162,3.361,11.473,11.473,0,0,1,3.361,8.162A11.23,11.23,0,0,1,134.926,153.786Z" transform="translate(-95.196 -117.897)" fill="#fff"/>
        <circle id="Ellipse_4" data-name="Ellipse 4" cx="2.941" cy="2.941" r="2.941" transform="translate(49.992 12.843)" fill="#fff"/>
      </g>
    </g>
  </g>
</svg>
