<svg width="39" height="39" viewBox="0 0 39 39" fill="none" xmlns="http://www.w3.org/2000/svg">
<path d="M28.1667 0H4.33333C1.95 0 0 1.95 0 4.33333V34.6667C0 37.05 1.95 39 4.33333 39H34.6667C37.05 39 39 37.05 39 34.6667V10.8333L28.1667 0ZM34.6667 34.6667H4.33333V4.33333H26V13H34.6667V34.6667ZM8.66667 30.3333H30.3333V26H8.66667V30.3333ZM19.5 8.66667H8.66667V13H19.5V8.66667ZM8.66667 21.6667H30.3333V17.3333H8.66667V21.6667Z" fill="#0F1209"/>
<path d="M28.1667 0H4.33333C1.95 0 0 1.95 0 4.33333V34.6667C0 37.05 1.95 39 4.33333 39H34.6667C37.05 39 39 37.05 39 34.6667V10.8333L28.1667 0ZM34.6667 34.6667H4.33333V4.33333H26V13H34.6667V34.6667ZM8.66667 30.3333H30.3333V26H8.66667V30.3333ZM19.5 8.66667H8.66667V13H19.5V8.66667ZM8.66667 21.6667H30.3333V17.3333H8.66667V21.6667Z" fill="url(#paint0_linear_207_1095)"/>
<path d="M28.1667 0H4.33333C1.95 0 0 1.95 0 4.33333V34.6667C0 37.05 1.95 39 4.33333 39H34.6667C37.05 39 39 37.05 39 34.6667V10.8333L28.1667 0ZM34.6667 34.6667H4.33333V4.33333H26V13H34.6667V34.6667ZM8.66667 30.3333H30.3333V26H8.66667V30.3333ZM19.5 8.66667H8.66667V13H19.5V8.66667ZM8.66667 21.6667H30.3333V17.3333H8.66667V21.6667Z" fill="#5F3877"/>
<defs>
<linearGradient id="paint0_linear_207_1095" x1="19.5" y1="0" x2="19.5" y2="39" gradientUnits="userSpaceOnUse">
<stop stop-color="#B0D065"/>
<stop offset="1"/>
</linearGradient>
</defs>
</svg>
