<svg xmlns="http://www.w3.org/2000/svg" width="65" height="8" fill="none"><path fill="#F9B233" d="M9.857 4.242c1.807 0 2.638.603 3.689 1.368 1.177.857 3.576 1.828 6.162 1.828V3.25c-1.807 0-3.7-.604-4.752-1.371C13.779 1.022 12.444.05 9.854.05c-2.59 0-3.922.97-5.102 1.828-1.051.764-2.945 1.37-4.752 1.37v4.189c2.587 0 4.982-.971 6.162-1.828 1.052-.765 1.882-1.368 3.692-1.368"/><path fill="#F9B233" d="M32.502 4.248c1.807 0 2.637.612 3.691 1.388 1.177.87 3.573 1.855 6.163 1.855V3.244c-1.808 0-3.701-.612-4.753-1.39C36.426.987 35.091 0 32.501 0c-2.59 0-3.921.986-5.101 1.855-1.052.777-2.942 1.389-4.753 1.389V7.49c2.587 0 4.983-.985 6.163-1.855 1.051-.776 1.881-1.388 3.692-1.388Z"/><path fill="#F9B233" d="M55.146 4.242c1.807 0 2.637.603 3.692 1.368 1.177.857 3.572 1.828 6.162 1.828V3.25c-1.807 0-3.698-.604-4.752-1.371C59.07 1.022 57.736.05 55.146.05c-2.59 0-3.922.97-5.102 1.828-1.051.764-2.945 1.37-4.752 1.37v4.189c2.587 0 4.985-.971 6.162-1.828 1.051-.765 1.882-1.368 3.689-1.368"/></svg>