<svg viewBox="0 0 800 193" fill="none" xmlns="http://www.w3.org/2000/svg">
<mask id="mask0_241_100" style="mask-type:alpha" maskUnits="userSpaceOnUse" x="0" y="0" width="800" height="140">
<path d="M0 25.859H73.9778V41.8213H27.9641V72.9479H64.0632V88.9102H27.9641V137.595H0V25.859Z" fill="black"/>
<path d="M87.3878 25.859H163.654V41.8213H115.352V71.3516H153.739V87.314H115.352V121.633H163.654V137.595H87.3878V25.859Z" fill="black"/>
<path d="M179.741 25.859H221.179C235.584 25.859 246.092 27.9873 252.702 32.2439C259.312 36.3941 262.616 42.8323 262.616 51.5583V58.4221C262.616 70.0214 256.515 77.3641 244.313 80.4502V80.7694C251.092 82.0464 255.837 84.6536 258.549 88.591C261.43 92.5283 262.871 97.7959 262.871 104.394V124.027C262.871 127.22 263.04 129.827 263.379 131.849C263.718 133.764 264.565 135.68 265.921 137.595H237.449C236.432 135.786 235.754 134.084 235.415 132.487C235.076 130.891 234.906 128.018 234.906 123.868V103.436C234.906 98.328 233.551 94.7631 230.839 92.7412C228.297 90.7193 223.806 89.7083 217.365 89.7083H207.705V137.595H179.741V25.859ZM217.874 73.746C223.467 73.746 227.619 72.8415 230.331 71.0324C233.212 69.2233 234.652 66.1905 234.652 61.9339V53.3142C234.652 49.2704 233.466 46.344 231.093 44.5349C228.89 42.7259 225.331 41.8213 220.416 41.8213H207.705V73.746H217.874Z" fill="black"/>
<path d="M282.273 25.859H323.71C338.116 25.859 348.624 27.9873 355.234 32.2439C361.843 36.3941 365.148 42.8323 365.148 51.5583V58.4221C365.148 70.0214 359.047 77.3641 346.844 80.4502V80.7694C353.624 82.0464 358.369 84.6536 361.081 88.591C363.962 92.5283 365.402 97.7959 365.402 104.394V124.027C365.402 127.22 365.572 129.827 365.911 131.849C366.25 133.764 367.097 135.68 368.453 137.595H339.98C338.964 135.786 338.286 134.084 337.947 132.487C337.608 130.891 337.438 128.018 337.438 123.868V103.436C337.438 98.328 336.082 94.7631 333.371 92.7412C330.829 90.7193 326.337 89.7083 319.897 89.7083H310.237V137.595H282.273V25.859ZM320.406 73.746C325.998 73.746 330.151 72.8415 332.862 71.0324C335.743 69.2233 337.184 66.1905 337.184 61.9339V53.3142C337.184 49.2704 335.998 46.344 333.625 44.5349C331.422 42.7259 327.863 41.8213 322.948 41.8213H310.237V73.746H320.406Z" fill="black"/>
<path d="M384.804 25.859H412.769V137.595H384.804V25.859Z" fill="black"/>
<path d="M433.712 25.859H509.978V41.8213H461.676V71.3516H500.063V87.314H461.676V121.633H509.978V137.595H433.712V25.859ZM438.796 0H469.303L487.098 18.3567H465.998L438.796 0Z" fill="black"/>
<path d="M526.065 25.859H567.503C581.908 25.859 592.416 27.9873 599.026 32.2439C605.636 36.3941 608.94 42.8323 608.94 51.5583V58.4221C608.94 70.0214 602.839 77.3641 590.637 80.4502V80.7694C597.416 82.0464 602.161 84.6536 604.873 88.591C607.754 92.5283 609.195 97.7959 609.195 104.394V124.027C609.195 127.22 609.364 129.827 609.703 131.849C610.042 133.764 610.889 135.68 612.245 137.595H583.773C582.756 135.786 582.078 134.084 581.739 132.487C581.4 130.891 581.23 128.018 581.23 123.868V103.436C581.23 98.328 579.875 94.7631 577.163 92.7412C574.621 90.7193 570.13 89.7083 563.689 89.7083H554.029V137.595H526.065V25.859ZM564.198 73.746C569.791 73.746 573.943 72.8415 576.655 71.0324C579.536 69.2233 580.976 66.1905 580.976 61.9339V53.3142C580.976 49.2704 579.79 46.344 577.417 44.5349C575.214 42.7259 571.655 41.8213 566.74 41.8213H554.029V73.746H564.198Z" fill="black"/>
<path d="M628.597 25.859H704.862V41.8213H656.561V71.3516H694.948V87.314H656.561V121.633H704.862V137.595H628.597V25.859Z" fill="black"/>
<path d="M757.8 139.192C744.241 139.192 733.988 136.797 727.039 132.009C720.09 127.113 716.616 120.143 716.616 111.098V104.713H743.055V112.375C743.055 119.611 747.885 123.229 757.545 123.229C762.291 123.229 765.85 122.378 768.223 120.675C770.765 118.866 772.036 115.993 772.036 112.056C772.036 107.373 770.341 103.276 766.952 99.7646C763.562 96.1465 757.291 91.8366 748.139 86.8351C736.615 80.4502 728.564 74.7037 723.988 69.5958C719.413 64.3814 717.125 58.5286 717.125 52.0372C717.125 43.2047 720.684 36.3941 727.802 31.6054C734.92 26.7103 745.258 24.2627 758.817 24.2627C772.205 24.2627 782.289 26.7103 789.069 31.6054C796.017 36.3941 799.492 43.3111 799.492 52.3565V56.9855H773.053V51.2391C773.053 47.4081 771.866 44.6413 769.494 42.9387C767.121 41.1296 763.647 40.2251 759.071 40.2251C749.749 40.2251 745.089 43.79 745.089 50.9198C745.089 54.9636 746.783 58.7414 750.173 62.2531C753.732 65.7648 760.088 70.0214 769.239 75.023C780.934 81.4079 788.984 87.2076 793.39 92.4219C797.797 97.6363 800 103.755 800 110.779C800 119.93 796.356 126.954 789.069 131.849C781.95 136.744 771.527 139.192 757.8 139.192Z" fill="black"/>
</mask>
<g mask="url(#mask0_241_100)">
<path d="M800 -208.553H0V139.192H800V-208.553Z" fill="#F8F8F8"/>
<path d="M882.015 141.535H0L3.29317e-06 88.1079L882.015 140.883V141.535Z" fill="#CDD8E7"/>
</g>
<path d="M341 170.202H347.408C349.493 170.202 351.056 170.673 352.099 171.615C353.141 172.557 353.663 173.937 353.663 175.757V187.124C353.663 188.943 353.141 190.324 352.099 191.266C351.056 192.208 349.493 192.679 347.408 192.679H341V170.202ZM347.331 189.468C348.018 189.468 348.539 189.297 348.895 188.954C349.276 188.612 349.467 188.055 349.467 187.284V175.596C349.467 174.826 349.276 174.269 348.895 173.927C348.539 173.584 348.018 173.413 347.331 173.413H345.195V189.468H347.331Z" fill="white"/>
<path d="M362.215 170.202H373.657V173.413H366.411V179.353H372.17V182.564H366.411V189.468H373.657V192.679H362.215V170.202ZM368.318 165H372.895L368.814 168.693H365.648L368.318 165Z" fill="white"/>
<path d="M387.704 193C385.695 193 384.157 192.518 383.089 191.555C382.046 190.592 381.525 189.232 381.525 187.477V175.404C381.525 173.648 382.046 172.289 383.089 171.326C384.157 170.362 385.695 169.881 387.704 169.881C389.712 169.881 391.238 170.362 392.281 171.326C393.349 172.289 393.882 173.648 393.882 175.404V177.78H389.916V175.179C389.916 173.787 389.217 173.092 387.818 173.092C386.42 173.092 385.72 173.787 385.72 175.179V187.734C385.72 189.104 386.42 189.789 387.818 189.789C389.217 189.789 389.916 189.104 389.916 187.734V184.298H393.882V187.477C393.882 189.232 393.349 190.592 392.281 191.555C391.238 192.518 389.712 193 387.704 193Z" fill="white"/>
<path d="M408.252 193C406.193 193 404.616 192.508 403.523 191.523C402.43 190.538 401.883 189.147 401.883 187.349V175.532C401.883 173.734 402.43 172.343 403.523 171.358C404.616 170.373 406.193 169.881 408.252 169.881C410.312 169.881 411.888 170.373 412.982 171.358C414.075 172.343 414.622 173.734 414.622 175.532V187.349C414.622 189.147 414.075 190.538 412.982 191.523C411.888 192.508 410.312 193 408.252 193ZM408.252 189.789C409.702 189.789 410.426 189.05 410.426 187.573V175.307C410.426 173.83 409.702 173.092 408.252 173.092C406.803 173.092 406.078 173.83 406.078 175.307V187.573C406.078 189.05 406.803 189.789 408.252 189.789Z" fill="white"/>
<path d="M429.282 193C427.248 193 425.697 192.518 424.629 191.555C423.561 190.57 423.027 189.168 423.027 187.349V170.202H427.223V187.606C427.223 188.376 427.401 188.933 427.757 189.275C428.138 189.618 428.672 189.789 429.359 189.789C430.045 189.789 430.567 189.618 430.922 189.275C431.304 188.933 431.495 188.376 431.495 187.606V170.202H435.537V187.349C435.537 189.168 435.003 190.57 433.936 191.555C432.868 192.518 431.317 193 429.282 193Z" fill="white"/>
<path d="M443.14 170.202H447.374L450.12 187.638H450.196L452.942 170.202H456.795L452.752 192.679H447.183L443.14 170.202Z" fill="white"/>
<path d="M464.531 170.202H470.748C472.909 170.202 474.485 170.63 475.477 171.486C476.469 172.321 476.964 173.616 476.964 175.372V176.752C476.964 179.086 476.049 180.563 474.218 181.183V181.248C475.235 181.505 475.947 182.029 476.354 182.821C476.786 183.613 477.003 184.673 477.003 186V189.95C477.003 190.592 477.028 191.116 477.079 191.523C477.13 191.908 477.257 192.294 477.46 192.679H473.189C473.036 192.315 472.934 191.972 472.883 191.651C472.833 191.33 472.807 190.752 472.807 189.917V185.807C472.807 184.78 472.604 184.063 472.197 183.656C471.816 183.249 471.142 183.046 470.176 183.046H468.726V192.679H464.531V170.202ZM470.252 179.835C471.091 179.835 471.714 179.653 472.121 179.289C472.553 178.925 472.769 178.315 472.769 177.459V175.725C472.769 174.911 472.591 174.323 472.235 173.959C471.905 173.595 471.371 173.413 470.633 173.413H468.726V179.835H470.252Z" fill="white"/>
<path d="M485.634 170.202H497.077V173.413H489.83V179.353H495.589V182.564H489.83V189.468H497.077V192.679H485.634V170.202Z" fill="white"/>
<path d="M504.447 189.532L512.227 173.413H504.828V170.202H516.728V173.349L508.947 189.468H516.728V192.679H504.447V189.532Z" fill="white"/>
<path d="M536.654 170.202H541.918L545.999 183.656H546.075V170.202H549.813V192.679H545.503L540.468 176.271H540.392V192.679H536.654V170.202Z" fill="white"/>
<path d="M564.716 193C562.657 193 561.08 192.508 559.987 191.523C558.894 190.538 558.347 189.147 558.347 187.349V175.532C558.347 173.734 558.894 172.343 559.987 171.358C561.08 170.373 562.657 169.881 564.716 169.881C566.776 169.881 568.352 170.373 569.446 171.358C570.539 172.343 571.086 173.734 571.086 175.532V187.349C571.086 189.147 570.539 190.538 569.446 191.523C568.352 192.508 566.776 193 564.716 193ZM564.716 189.789C566.166 189.789 566.89 189.05 566.89 187.573V175.307C566.89 173.83 566.166 173.092 564.716 173.092C563.267 173.092 562.542 173.83 562.542 175.307V187.573C562.542 189.05 563.267 189.789 564.716 189.789Z" fill="white"/>
<path d="M582.775 173.413H578.389V170.202H591.357V173.413H586.97V192.679H582.775V173.413Z" fill="white"/>
<path d="M599.109 170.202H605.326C607.487 170.202 609.063 170.63 610.055 171.486C611.047 172.321 611.542 173.616 611.542 175.372V176.752C611.542 179.086 610.627 180.563 608.796 181.183V181.248C609.813 181.505 610.525 182.029 610.932 182.821C611.364 183.613 611.581 184.673 611.581 186V189.95C611.581 190.592 611.606 191.116 611.657 191.523C611.708 191.908 611.835 192.294 612.038 192.679H607.767C607.614 192.315 607.512 191.972 607.462 191.651C607.411 191.33 607.385 190.752 607.385 189.917V185.807C607.385 184.78 607.182 184.063 606.775 183.656C606.394 183.249 605.72 183.046 604.754 183.046H603.304V192.679H599.109V170.202ZM604.83 179.835C605.669 179.835 606.292 179.653 606.699 179.289C607.131 178.925 607.347 178.315 607.347 177.459V175.725C607.347 174.911 607.169 174.323 606.813 173.959C606.483 173.595 605.949 173.413 605.211 173.413H603.304V179.835H604.83Z" fill="white"/>
<path d="M620.213 170.202H631.655V173.413H624.408V179.353H630.167V182.564H624.408V189.468H631.655V192.679H620.213V170.202Z" fill="white"/>
<path d="M657.53 193C655.522 193 653.983 192.518 652.915 191.555C651.873 190.592 651.352 189.232 651.352 187.477V175.404C651.352 173.648 651.873 172.289 652.915 171.326C653.983 170.362 655.522 169.881 657.53 169.881C659.539 169.881 661.065 170.362 662.107 171.326C663.175 172.289 663.709 173.648 663.709 175.404V177.78H659.742V175.179C659.742 173.787 659.043 173.092 657.645 173.092C656.246 173.092 655.547 173.787 655.547 175.179V187.734C655.547 189.104 656.246 189.789 657.645 189.789C659.043 189.789 659.742 189.104 659.742 187.734V184.298H663.709V187.477C663.709 189.232 663.175 190.592 662.107 191.555C661.065 192.518 659.539 193 657.53 193Z" fill="white"/>
<path d="M678.079 193C676.019 193 674.443 192.508 673.349 191.523C672.256 190.538 671.709 189.147 671.709 187.349V175.532C671.709 173.734 672.256 172.343 673.349 171.358C674.443 170.373 676.019 169.881 678.079 169.881C680.138 169.881 681.715 170.373 682.808 171.358C683.902 172.343 684.448 173.734 684.448 175.532V187.349C684.448 189.147 683.902 190.538 682.808 191.523C681.715 192.508 680.138 193 678.079 193ZM678.079 189.789C679.528 189.789 680.253 189.05 680.253 187.573V175.307C680.253 173.83 679.528 173.092 678.079 173.092C676.629 173.092 675.905 173.83 675.905 175.307V187.573C675.905 189.05 676.629 189.789 678.079 189.789Z" fill="white"/>
<path d="M693.007 170.202H698.995L701.664 186.289H701.741L704.41 170.202H710.398V192.679H706.432V175.661H706.356L703.304 192.679H699.795L696.744 175.661H696.668V192.679H693.007V170.202Z" fill="white"/>
<path d="M719.25 170.202H725.238L727.908 186.289H727.984L730.654 170.202H736.642V192.679H732.676V175.661H732.599L729.548 192.679H726.039L722.988 175.661H722.912V192.679H719.25V170.202Z" fill="white"/>
<path d="M751.596 193C749.562 193 748.011 192.518 746.943 191.555C745.875 190.57 745.341 189.168 745.341 187.349V170.202H749.537V187.606C749.537 188.376 749.715 188.933 750.071 189.275C750.452 189.618 750.986 189.789 751.673 189.789C752.359 189.789 752.88 189.618 753.236 189.275C753.618 188.933 753.808 188.376 753.808 187.606V170.202H757.851V187.349C757.851 189.168 757.317 190.57 756.249 191.555C755.181 192.518 753.63 193 751.596 193Z" fill="white"/>
<path d="M766.56 170.202H771.824L775.905 183.656H775.981V170.202H779.719V192.679H775.409L770.374 176.271H770.298V192.679H766.56V170.202Z" fill="white"/>
<path d="M788.558 170.202H800V173.413H792.753V179.353H798.513V182.564H792.753V189.468H800V192.679H788.558V170.202Z" fill="white"/>
</svg>
