<svg width="454" height="364" viewBox="0 0 454 364" fill="none" xmlns="http://www.w3.org/2000/svg">
<mask id="mask0_150_9" style="mask-type:alpha" maskUnits="userSpaceOnUse" x="0" y="0" width="454" height="364">
<rect width="454" height="364" fill="#D9D9D9"/>
</mask>
<g mask="url(#mask0_150_9)">
<path d="M181.812 364.256L136.29 318.73L90.7672 364.256L136.29 409.782L181.812 364.256Z" fill="#575756"/>
<path d="M136.31 318.72L90.7875 273.195L45.265 318.721L90.7875 364.246L136.31 318.72Z" fill="#85BE57"/>
<path d="M90.7779 364.269L45.2554 318.743L-0.267033 364.269L45.2555 409.795L90.7779 364.269Z" fill="#A91538"/>
<path d="M90.7648 273.185L45.2423 227.66L-0.280148 273.185L45.2423 318.711L90.7648 273.185Z" fill="#F0AC0F"/>
<path d="M45.233 318.734L-0.289505 273.208L-45.812 318.734L-0.289513 364.26L45.233 318.734Z" fill="#A5D7D5"/>
<path d="M136.297 227.68L90.7742 182.154L45.2517 227.68L90.7741 273.206L136.297 227.68Z" fill="#A5D7D5"/>
<path d="M45.2493 136.61L-0.273163 91.0837L-45.7956 136.61L-0.27316 182.135L45.2493 136.61Z" fill="#85BE57"/>
<path d="M45.2363 45.526L-0.286217 0.000183105L-45.8087 45.526L-0.286219 91.0518L45.2363 45.526Z" fill="#F0AC0F"/>
<path d="M272.889 364.285L227.367 318.76L181.844 364.285L227.367 409.811L272.889 364.285Z" fill="#D20824"/>
<path d="M272.876 273.202L227.353 227.676L181.831 273.202L227.353 318.727L272.876 273.202Z" fill="#F5B3C4"/>
<path d="M363.953 273.189L318.43 227.663L272.908 273.189L318.43 318.714L363.953 273.189Z" fill="#03979D"/>
<path d="M455 364.259L409.478 318.733L363.955 364.259L409.478 409.785L455 364.259Z" fill="#A91538"/>
</g>
</svg>
