<svg width="365" height="410" viewBox="0 0 365 410" fill="none" xmlns="http://www.w3.org/2000/svg">
<mask id="mask0_152_6" style="mask-type:alpha" maskUnits="userSpaceOnUse" x="0" y="0" width="365" height="410">
<rect width="365" height="410" fill="#D9D9D9"/>
</mask>
<g mask="url(#mask0_152_6)">
<path d="M455.748 45.3523L410.226 -0.173462L364.703 45.3523L410.226 90.8781L455.748 45.3523Z" fill="#D20824"/>
<path d="M364.685 136.406L319.162 90.8805L273.64 136.406L319.162 181.932L364.685 136.406Z" fill="#85BE57"/>
<path d="M410.246 -0.182845L364.724 -45.7086L319.201 -0.182853L364.724 45.3429L410.246 -0.182845Z" fill="#C3DCA5"/>
<path d="M364.714 45.3227L319.192 -0.203125L273.669 45.3227L319.192 90.8484L364.714 45.3227Z" fill="#F0AC0F"/>
<path d="M319.153 181.955L273.63 136.429L228.108 181.955L273.63 227.48L319.153 181.955Z" fill="#575756"/>
<path d="M319.169 -0.212417L273.647 -45.7382L228.124 -0.212403L273.647 45.3134L319.169 -0.212417Z" fill="#03979D"/>
<path d="M273.638 45.3358L228.115 -0.189941L182.593 45.3358L228.115 90.8616L273.638 45.3358Z" fill="#D20824"/>
<path d="M137.058 -0.186065L91.5359 -45.7119L46.0134 -0.186072L91.5359 45.3397L137.058 -0.186065Z" fill="#F5B3C4"/>
<path d="M319.166 272.995L273.644 227.469L228.121 272.995L273.644 318.521L319.166 272.995Z" fill="#A5D7D5"/>
<path d="M410.256 364.066L364.734 318.54L319.211 364.066L364.734 409.591L410.256 364.066Z" fill="#F0AC0F"/>
</g>
</svg>
