<svg width="982" height="307" viewBox="0 0 982 307" fill="none" xmlns="http://www.w3.org/2000/svg">
<mask id="mask0_156_2" style="mask-type:alpha" maskUnits="userSpaceOnUse" x="0" y="0" width="982" height="307">
<rect width="982" height="307" fill="#AEAEAE"/>
</mask>
<g mask="url(#mask0_156_2)">
<g clip-path="url(#clip0_156_2)">
<path d="M487.123 -47H0V436.41H487.123V-47Z" fill="#A91538"/>
<mask id="mask1_156_2" style="mask-type:luminance" maskUnits="userSpaceOnUse" x="0" y="-47" width="488" height="484">
<path d="M487.123 -47H0V436.41H487.123V-47Z" fill="white"/>
</mask>
<g mask="url(#mask1_156_2)">
<path d="M55.249 -39.0593C33.7574 -24.8834 31.6307 16.0457 30.9541 28.6122C30.9111 29.4009 30.3204 29.3583 30.2345 28.6548C24.1124 -25.2457 47.3118 -39.9866 55.0235 -39.7841C55.829 -39.7628 55.8183 -39.4323 55.249 -39.0593Z" fill="#7F1621"/>
<path d="M5.33807 34.517C28.4623 45.9004 65.2376 27.2585 76.5366 21.5668C77.2455 21.2044 77.5032 21.7374 76.934 22.1637C32.9518 54.3633 8.49577 41.7969 4.81179 35.0713C4.42513 34.3678 4.72587 34.2186 5.33807 34.5064" fill="#7F1621"/>
</g>
<mask id="mask2_156_2" style="mask-type:luminance" maskUnits="userSpaceOnUse" x="0" y="-47" width="488" height="484">
<path d="M487.123 -47H0V436.41H487.123V-47Z" fill="white"/>
</mask>
<g mask="url(#mask2_156_2)">
<path d="M94.0114 46.0176C111.067 26.8002 102.453 -13.2762 99.8327 -25.5869C99.6716 -26.365 100.252 -26.4715 100.509 -25.8107C120.476 24.6791 101.916 44.8771 94.4195 46.6678C93.6355 46.8596 93.5603 46.5292 94.0114 46.0176Z" fill="#7F1621"/>
</g>
<mask id="mask3_156_2" style="mask-type:luminance" maskUnits="userSpaceOnUse" x="0" y="-47" width="488" height="484">
<path d="M487.123 -47H0V436.41H487.123V-47Z" fill="white"/>
</mask>
<g mask="url(#mask3_156_2)">
<path d="M55.249 57.028C33.7574 71.2039 31.6308 112.133 30.9541 124.699C30.9112 125.488 30.3204 125.446 30.2345 124.742C24.1124 70.8415 47.3118 56.1007 55.0127 56.3032C55.8183 56.3245 55.8075 56.6549 55.2383 57.028" fill="#7F1621"/>
<path d="M5.33807 130.604C28.4623 141.988 65.2376 123.346 76.5366 117.643C77.2455 117.281 77.5032 117.825 76.934 118.24C32.9625 150.451 8.49577 137.884 4.81179 131.158C4.42513 130.455 4.72587 130.306 5.33807 130.604Z" fill="#7F1621"/>
<path d="M94.0114 142.105C111.067 122.887 102.453 82.8111 99.8327 70.5004C99.6716 69.7223 100.252 69.6157 100.509 70.2766C120.476 120.766 101.916 140.964 94.4195 142.755C93.6355 142.947 93.5603 142.617 94.0114 142.116" fill="#7F1621"/>
<path d="M123.032 58.2217C97.7275 53.1695 67.0742 80.6154 57.6334 89.0251C57.0426 89.558 56.656 89.0997 57.0963 88.5561C91.1758 46.1455 118.081 52.0077 123.386 57.5502C123.945 58.1258 123.698 58.3496 123.032 58.2217Z" fill="#7F1621"/>
<path d="M55.249 153.115C33.7574 167.291 31.6308 208.22 30.9541 220.787C30.9112 221.575 30.3204 221.533 30.2345 220.829C24.1124 166.929 47.3118 152.188 55.0127 152.39C55.8183 152.412 55.8075 152.742 55.2383 153.115" fill="#7F1621"/>
<path d="M5.33807 226.681C28.4623 238.064 65.2376 219.422 76.5366 213.731C77.2455 213.368 77.5032 213.901 76.934 214.328C32.9625 246.538 8.49577 233.971 4.81179 227.246C4.42513 226.542 4.72587 226.393 5.33807 226.681Z" fill="#7F1621"/>
<path d="M94.0114 238.192C111.067 218.975 102.453 178.898 99.8327 166.588C99.6716 165.81 100.252 165.703 100.509 166.364C120.476 216.854 101.916 237.052 94.4195 238.842C93.6355 239.034 93.5603 238.704 94.0114 238.203" fill="#7F1621"/>
<path d="M123.032 154.309C97.7275 149.257 67.0742 176.703 57.6334 185.112C57.0426 185.645 56.656 185.187 57.0963 184.643C91.1758 142.233 118.081 148.095 123.386 153.637C123.945 154.213 123.698 154.437 123.032 154.309Z" fill="#7F1621"/>
<path d="M55.249 249.203C33.7574 263.378 31.6308 304.308 30.9541 316.874C30.9112 317.663 30.3204 317.62 30.2345 316.917C24.1124 263.016 47.3118 248.275 55.0127 248.478C55.8183 248.499 55.8075 248.829 55.2383 249.203" fill="#7F1621"/>
<path d="M94.0114 334.28C111.067 315.062 102.453 274.986 99.8327 262.675C99.6716 261.897 100.252 261.79 100.509 262.451C120.476 312.941 101.916 333.139 94.4195 334.93C93.6355 335.122 93.5603 334.791 94.0114 334.29" fill="#7F1621"/>
<path d="M123.032 250.396C97.7275 245.344 67.0742 272.79 57.6334 281.2C57.0426 281.733 56.656 281.274 57.0963 280.731C91.1758 238.32 118.081 244.182 123.386 249.725C123.945 250.3 123.698 250.524 123.032 250.396Z" fill="#7F1621"/>
</g>
<mask id="mask4_156_2" style="mask-type:luminance" maskUnits="userSpaceOnUse" x="0" y="-47" width="488" height="484">
<path d="M487.123 -47H0V436.41H487.123V-47Z" fill="white"/>
</mask>
<g mask="url(#mask4_156_2)">
<path d="M174.307 -39.0593C152.815 -24.8834 150.689 16.0457 150.012 28.6122C149.969 29.4009 149.378 29.3583 149.292 28.6548C143.17 -25.2457 166.37 -39.9866 174.071 -39.7841C174.876 -39.7628 174.865 -39.4323 174.296 -39.0593" fill="#7F1621"/>
<path d="M124.396 34.517C147.51 45.9004 184.296 27.2585 195.595 21.5668C196.303 21.2044 196.561 21.7374 195.992 22.1637C152.01 54.374 127.554 41.8075 123.87 35.0926C123.483 34.3891 123.773 34.2399 124.396 34.5277" fill="#7F1621"/>
</g>
<mask id="mask5_156_2" style="mask-type:luminance" maskUnits="userSpaceOnUse" x="0" y="-47" width="488" height="484">
<path d="M487.123 -47H0V436.41H487.123V-47Z" fill="white"/>
</mask>
<g mask="url(#mask5_156_2)">
<path d="M213.069 46.0176C230.125 26.8002 221.511 -13.2762 218.891 -25.5869C218.729 -26.365 219.309 -26.4715 219.567 -25.8107C239.534 24.6791 220.974 44.8771 213.477 46.6678C212.693 46.8596 212.618 46.5292 213.069 46.0176Z" fill="#7F1621"/>
</g>
<mask id="mask6_156_2" style="mask-type:luminance" maskUnits="userSpaceOnUse" x="0" y="-47" width="488" height="484">
<path d="M487.123 -47H0V436.41H487.123V-47Z" fill="white"/>
</mask>
<g mask="url(#mask6_156_2)">
<path d="M174.307 57.028C152.815 71.2039 150.689 112.133 150.012 124.699C149.969 125.488 149.378 125.446 149.292 124.742C143.17 70.8415 166.37 56.1007 174.071 56.3032C174.876 56.3245 174.865 56.6549 174.296 57.028" fill="#7F1621"/>
<path d="M124.396 130.604C147.51 141.988 184.296 123.346 195.595 117.643C196.303 117.281 196.561 117.825 195.992 118.24C152.01 150.451 127.554 137.884 123.87 131.158C123.483 130.455 123.773 130.306 124.396 130.604Z" fill="#7F1621"/>
<path d="M213.069 142.105C230.125 122.887 221.511 82.8111 218.891 70.5004C218.729 69.7223 219.309 69.6157 219.567 70.2766C239.534 120.766 220.974 140.964 213.477 142.755C212.693 142.947 212.618 142.617 213.069 142.116" fill="#7F1621"/>
<path d="M242.09 58.2217C216.796 53.1695 186.132 80.6154 176.691 89.0251C176.101 89.558 175.714 89.0997 176.154 88.5561C210.234 46.1455 237.139 52.0077 242.445 57.5502C243.003 58.1258 242.756 58.3496 242.09 58.2217Z" fill="#7F1621"/>
<path d="M174.307 153.115C152.815 167.291 150.689 208.22 150.012 220.787C149.969 221.575 149.378 221.533 149.292 220.829C143.17 166.929 166.37 152.188 174.071 152.39C174.876 152.412 174.865 152.742 174.296 153.115" fill="#7F1621"/>
<path d="M124.396 226.681C147.51 238.064 184.296 219.422 195.595 213.731C196.303 213.368 196.561 213.901 195.992 214.328C152.01 246.538 127.554 233.971 123.87 227.246C123.483 226.542 123.773 226.393 124.396 226.681Z" fill="#7F1621"/>
<path d="M213.069 238.192C230.125 218.975 221.511 178.898 218.891 166.588C218.729 165.81 219.309 165.703 219.567 166.364C239.534 216.854 220.974 237.052 213.477 238.842C212.693 239.034 212.618 238.704 213.069 238.203" fill="#7F1621"/>
<path d="M242.09 154.309C216.796 149.257 186.132 176.703 176.691 185.112C176.101 185.645 175.714 185.187 176.154 184.643C210.234 142.233 237.139 148.095 242.445 153.637C243.003 154.213 242.756 154.437 242.09 154.309Z" fill="#7F1621"/>
<path d="M174.307 249.203C152.815 263.378 150.689 304.308 150.012 316.874C149.969 317.663 149.378 317.62 149.292 316.917C143.17 263.016 166.37 248.275 174.071 248.478C174.876 248.499 174.865 248.829 174.296 249.203" fill="#7F1621"/>
<path d="M213.069 334.28C230.125 315.062 221.511 274.986 218.891 262.675C218.729 261.897 219.309 261.79 219.567 262.451C239.534 312.941 220.974 333.139 213.477 334.93C212.693 335.122 212.618 334.791 213.069 334.29" fill="#7F1621"/>
<path d="M242.09 250.396C216.796 245.344 186.132 272.79 176.691 281.2C176.101 281.733 175.714 281.274 176.154 280.731C210.234 238.32 237.139 244.182 242.445 249.725C243.003 250.3 242.756 250.524 242.09 250.396Z" fill="#7F1621"/>
</g>
<mask id="mask7_156_2" style="mask-type:luminance" maskUnits="userSpaceOnUse" x="0" y="-47" width="488" height="484">
<path d="M487.123 -47H0V436.41H487.123V-47Z" fill="white"/>
</mask>
<g mask="url(#mask7_156_2)">
<path d="M293.794 -39.0593C272.303 -24.8834 270.176 16.0457 269.5 28.6122C269.457 29.4009 268.866 29.3583 268.78 28.6548C262.658 -25.2457 285.857 -39.9866 293.558 -39.7841C294.364 -39.7628 294.353 -39.4323 293.784 -39.0593" fill="#7F1621"/>
<path d="M243.883 34.517C266.997 45.9004 303.783 27.2585 315.082 21.5668C315.791 21.2044 316.049 21.7374 315.479 22.1637C271.508 54.374 247.041 41.8075 243.357 35.0926C242.971 34.3891 243.261 34.2399 243.873 34.5277" fill="#7F1621"/>
</g>
<mask id="mask8_156_2" style="mask-type:luminance" maskUnits="userSpaceOnUse" x="0" y="-47" width="488" height="484">
<path d="M487.123 -47H0V436.41H487.123V-47Z" fill="white"/>
</mask>
<g mask="url(#mask8_156_2)">
<path d="M332.557 46.0176C349.624 26.8002 340.999 -13.2762 338.378 -25.5869C338.217 -26.365 338.797 -26.4715 339.055 -25.8107C359.022 24.6791 340.462 44.8771 332.965 46.6678C332.181 46.8596 332.106 46.5292 332.557 46.0176Z" fill="#7F1621"/>
</g>
<mask id="mask9_156_2" style="mask-type:luminance" maskUnits="userSpaceOnUse" x="0" y="-47" width="488" height="484">
<path d="M487.123 -47H0V436.41H487.123V-47Z" fill="white"/>
</mask>
<g mask="url(#mask9_156_2)">
<path d="M293.794 57.028C272.303 71.2039 270.176 112.133 269.5 124.699C269.457 125.488 268.866 125.446 268.78 124.742C262.658 70.8415 285.857 56.1007 293.558 56.3032C294.364 56.3245 294.353 56.6549 293.784 57.028" fill="#7F1621"/>
<path d="M243.883 130.604C266.997 141.988 303.783 123.346 315.082 117.643C315.791 117.281 316.049 117.825 315.479 118.24C271.508 150.451 247.041 137.884 243.357 131.158C242.971 130.455 243.261 130.306 243.873 130.604" fill="#7F1621"/>
<path d="M332.557 142.105C349.623 122.887 340.999 82.8111 338.378 70.5004C338.217 69.7223 338.797 69.6157 339.055 70.2766C359.021 120.766 340.462 140.964 332.965 142.755C332.181 142.947 332.106 142.617 332.557 142.116" fill="#7F1621"/>
<path d="M361.577 58.2217C336.284 53.1695 305.62 80.6154 296.179 89.0251C295.588 89.558 295.201 89.0997 295.642 88.5561C329.721 46.1455 356.626 52.0077 361.932 57.5502C362.49 58.1258 362.243 58.3496 361.577 58.2217Z" fill="#7F1621"/>
<path d="M293.794 153.115C272.303 167.291 270.176 208.22 269.5 220.787C269.457 221.575 268.866 221.533 268.78 220.829C262.658 166.929 285.857 152.188 293.558 152.39C294.364 152.412 294.353 152.742 293.784 153.115" fill="#7F1621"/>
<path d="M243.883 226.681C266.997 238.064 303.783 219.422 315.082 213.731C315.791 213.368 316.049 213.901 315.479 214.328C271.508 246.538 247.041 233.971 243.357 227.246C242.971 226.542 243.261 226.393 243.873 226.681" fill="#7F1621"/>
<path d="M332.557 238.192C349.623 218.975 340.999 178.898 338.378 166.588C338.217 165.81 338.797 165.703 339.055 166.364C359.021 216.854 340.462 237.052 332.965 238.842C332.181 239.034 332.106 238.704 332.557 238.203" fill="#7F1621"/>
<path d="M361.577 154.309C336.284 149.257 305.62 176.703 296.179 185.112C295.588 185.645 295.201 185.187 295.642 184.643C329.721 142.233 356.626 148.095 361.932 153.637C362.49 154.213 362.243 154.437 361.577 154.309Z" fill="#7F1621"/>
<path d="M293.794 249.203C272.303 263.378 270.176 304.308 269.5 316.874C269.457 317.663 268.866 317.62 268.78 316.917C262.658 263.016 285.857 248.275 293.558 248.478C294.364 248.499 294.353 248.829 293.784 249.203" fill="#7F1621"/>
<path d="M332.557 334.28C349.623 315.062 340.999 274.986 338.378 262.675C338.217 261.897 338.797 261.79 339.055 262.451C359.021 312.941 340.462 333.139 332.965 334.93C332.181 335.122 332.106 334.791 332.557 334.29" fill="#7F1621"/>
<path d="M361.577 250.396C336.284 245.344 305.62 272.79 296.179 281.2C295.588 281.733 295.201 281.274 295.642 280.731C329.721 238.32 356.626 244.182 361.932 249.725C362.49 250.3 362.243 250.524 361.577 250.396Z" fill="#7F1621"/>
</g>
<mask id="mask10_156_2" style="mask-type:luminance" maskUnits="userSpaceOnUse" x="0" y="-47" width="488" height="484">
<path d="M487.123 -47H0V436.41H487.123V-47Z" fill="white"/>
</mask>
<g mask="url(#mask10_156_2)">
<path d="M414.034 -39.0593C392.542 -24.8834 390.416 16.0457 389.739 28.6122C389.696 29.4009 389.105 29.3583 389.019 28.6548C382.897 -25.2457 406.097 -39.9866 413.798 -39.7841C414.603 -39.7628 414.592 -39.4323 414.023 -39.0593" fill="#7F1621"/>
<path d="M364.123 34.517C387.237 45.9004 424.023 27.2585 435.322 21.5668C436.031 21.2044 436.288 21.7374 435.719 22.1637C391.737 54.374 367.281 41.8075 363.597 35.0926C363.21 34.3891 363.5 34.2399 364.112 34.5277" fill="#7F1621"/>
</g>
<mask id="mask11_156_2" style="mask-type:luminance" maskUnits="userSpaceOnUse" x="0" y="-47" width="488" height="484">
<path d="M487.123 -47H0V436.41H487.123V-47Z" fill="white"/>
</mask>
<g mask="url(#mask11_156_2)">
<path d="M452.796 46.0176C469.852 26.8002 461.238 -13.2762 458.618 -25.5869C458.457 -26.365 459.037 -26.4715 459.294 -25.8107C479.261 24.6791 460.701 44.8771 453.204 46.6678C452.42 46.8596 452.345 46.5292 452.796 46.0176Z" fill="#7F1621"/>
</g>
<mask id="mask12_156_2" style="mask-type:luminance" maskUnits="userSpaceOnUse" x="0" y="-47" width="488" height="484">
<path d="M487.123 -47H0V436.41H487.123V-47Z" fill="white"/>
</mask>
<g mask="url(#mask12_156_2)">
<path d="M414.034 57.028C392.542 71.2039 390.416 112.133 389.739 124.699C389.696 125.488 389.105 125.446 389.019 124.742C382.897 70.8415 406.097 56.1007 413.798 56.3032C414.603 56.3245 414.592 56.6549 414.023 57.028" fill="#7F1621"/>
<path d="M364.123 130.604C387.236 141.988 424.023 123.346 435.321 117.643C436.03 117.281 436.288 117.825 435.719 118.24C391.737 150.451 367.281 137.884 363.597 131.158C363.21 130.455 363.5 130.306 364.112 130.604" fill="#7F1621"/>
<path d="M452.796 142.105C469.852 122.887 461.238 82.8111 458.618 70.5004C458.457 69.7223 459.037 69.6157 459.294 70.2766C479.261 120.766 460.701 140.964 453.204 142.755C452.42 142.947 452.345 142.617 452.796 142.116" fill="#7F1621"/>
<path d="M481.817 58.2217C456.523 53.1695 425.859 80.6154 416.418 89.0251C415.828 89.558 415.441 89.0997 415.881 88.5561C449.961 46.1455 476.866 52.0077 482.171 57.5502C482.73 58.1258 482.483 58.3496 481.817 58.2217Z" fill="#7F1621"/>
<path d="M414.034 153.115C392.542 167.291 390.416 208.22 389.739 220.787C389.696 221.575 389.105 221.533 389.019 220.829C382.897 166.929 406.097 152.188 413.798 152.39C414.603 152.412 414.592 152.742 414.023 153.115" fill="#7F1621"/>
<path d="M364.123 226.681C387.236 238.064 424.023 219.422 435.321 213.731C436.03 213.368 436.288 213.901 435.719 214.328C391.737 246.538 367.281 233.971 363.597 227.246C363.21 226.542 363.5 226.393 364.112 226.681" fill="#7F1621"/>
<path d="M452.796 238.192C469.852 218.975 461.238 178.898 458.618 166.588C458.457 165.81 459.037 165.703 459.294 166.364C479.261 216.854 460.701 237.052 453.204 238.842C452.42 239.034 452.345 238.704 452.796 238.203" fill="#7F1621"/>
<path d="M481.817 154.309C456.523 149.257 425.859 176.703 416.418 185.112C415.828 185.645 415.441 185.187 415.881 184.643C449.961 142.233 476.866 148.095 482.171 153.637C482.73 154.213 482.483 154.437 481.817 154.309Z" fill="#7F1621"/>
<path d="M414.034 249.203C392.542 263.378 390.416 304.308 389.739 316.874C389.696 317.663 389.105 317.62 389.019 316.917C382.897 263.016 406.097 248.275 413.798 248.478C414.603 248.499 414.592 248.829 414.023 249.203" fill="#7F1621"/>
<path d="M452.796 334.28C469.852 315.062 461.238 274.986 458.618 262.675C458.457 261.897 459.037 261.79 459.294 262.451C479.261 312.941 460.701 333.139 453.204 334.93C452.42 335.122 452.345 334.791 452.796 334.29" fill="#7F1621"/>
<path d="M481.817 250.396C456.523 245.344 425.859 272.79 416.418 281.2C415.828 281.733 415.441 281.274 415.881 280.731C449.961 238.32 476.866 244.182 482.171 249.725C482.73 250.3 482.483 250.524 481.817 250.396Z" fill="#7F1621"/>
</g>
</g>
<g clip-path="url(#clip1_156_2)">
<path d="M968.123 -47H481V436.41H968.123V-47Z" fill="#A91538"/>
<mask id="mask13_156_2" style="mask-type:luminance" maskUnits="userSpaceOnUse" x="481" y="-47" width="488" height="484">
<path d="M968.123 -47H481V436.41H968.123V-47Z" fill="white"/>
</mask>
<g mask="url(#mask13_156_2)">
<path d="M536.249 -39.0593C514.757 -24.8834 512.631 16.0457 511.954 28.6122C511.911 29.4009 511.32 29.3583 511.234 28.6548C505.112 -25.2457 528.312 -39.9866 536.023 -39.7841C536.829 -39.7628 536.818 -39.4323 536.249 -39.0593Z" fill="#7F1621"/>
<path d="M486.338 34.517C509.462 45.9004 546.238 27.2585 557.537 21.5668C558.245 21.2044 558.503 21.7374 557.934 22.1637C513.952 54.3633 489.496 41.7969 485.812 35.0713C485.425 34.3678 485.726 34.2186 486.338 34.5064" fill="#7F1621"/>
</g>
<mask id="mask14_156_2" style="mask-type:luminance" maskUnits="userSpaceOnUse" x="481" y="-47" width="488" height="484">
<path d="M968.123 -47H481V436.41H968.123V-47Z" fill="white"/>
</mask>
<g mask="url(#mask14_156_2)">
<path d="M575.011 46.0176C592.067 26.8002 583.453 -13.2762 580.833 -25.5869C580.672 -26.365 581.252 -26.4715 581.509 -25.8107C601.476 24.6791 582.916 44.8771 575.42 46.6678C574.635 46.8596 574.56 46.5292 575.011 46.0176Z" fill="#7F1621"/>
</g>
<mask id="mask15_156_2" style="mask-type:luminance" maskUnits="userSpaceOnUse" x="481" y="-47" width="488" height="484">
<path d="M968.123 -47H481V436.41H968.123V-47Z" fill="white"/>
</mask>
<g mask="url(#mask15_156_2)">
<path d="M536.249 57.028C514.757 71.2039 512.631 112.133 511.954 124.699C511.911 125.488 511.32 125.446 511.235 124.742C505.112 70.8415 528.312 56.1007 536.013 56.3032C536.818 56.3245 536.808 56.6549 536.238 57.028" fill="#7F1621"/>
<path d="M486.338 130.604C509.462 141.988 546.238 123.346 557.537 117.643C558.245 117.281 558.503 117.825 557.934 118.24C513.963 150.451 489.496 137.884 485.812 131.158C485.425 130.455 485.726 130.306 486.338 130.604Z" fill="#7F1621"/>
<path d="M575.011 142.105C592.067 122.887 583.453 82.8111 580.833 70.5004C580.672 69.7223 581.252 69.6157 581.509 70.2766C601.476 120.766 582.916 140.964 575.42 142.755C574.635 142.947 574.56 142.617 575.011 142.116" fill="#7F1621"/>
<path d="M604.032 58.2217C578.728 53.1695 548.074 80.6154 538.633 89.0251C538.043 89.558 537.656 89.0997 538.096 88.5561C572.176 46.1455 599.081 52.0077 604.386 57.5502C604.945 58.1258 604.698 58.3496 604.032 58.2217Z" fill="#7F1621"/>
<path d="M536.249 153.115C514.757 167.291 512.631 208.22 511.954 220.787C511.911 221.575 511.32 221.533 511.235 220.829C505.112 166.929 528.312 152.188 536.013 152.39C536.818 152.412 536.808 152.742 536.238 153.115" fill="#7F1621"/>
<path d="M486.338 226.681C509.462 238.064 546.238 219.422 557.537 213.731C558.245 213.368 558.503 213.901 557.934 214.328C513.963 246.538 489.496 233.971 485.812 227.246C485.425 226.542 485.726 226.393 486.338 226.681Z" fill="#7F1621"/>
<path d="M575.011 238.192C592.067 218.975 583.453 178.898 580.833 166.588C580.672 165.81 581.252 165.703 581.509 166.364C601.476 216.854 582.916 237.052 575.42 238.842C574.635 239.034 574.56 238.704 575.011 238.203" fill="#7F1621"/>
<path d="M604.032 154.309C578.728 149.257 548.074 176.703 538.633 185.112C538.043 185.645 537.656 185.187 538.096 184.643C572.176 142.233 599.081 148.095 604.386 153.637C604.945 154.213 604.698 154.437 604.032 154.309Z" fill="#7F1621"/>
<path d="M536.249 249.203C514.757 263.378 512.631 304.308 511.954 316.874C511.911 317.663 511.32 317.62 511.235 316.917C505.112 263.016 528.312 248.275 536.013 248.478C536.818 248.499 536.808 248.829 536.238 249.203" fill="#7F1621"/>
<path d="M575.011 334.28C592.067 315.062 583.453 274.986 580.833 262.675C580.672 261.897 581.252 261.79 581.509 262.451C601.476 312.941 582.916 333.139 575.42 334.93C574.635 335.122 574.56 334.791 575.011 334.29" fill="#7F1621"/>
<path d="M604.032 250.396C578.728 245.344 548.074 272.79 538.633 281.2C538.043 281.733 537.656 281.274 538.096 280.731C572.176 238.32 599.081 244.182 604.386 249.725C604.945 250.3 604.698 250.524 604.032 250.396Z" fill="#7F1621"/>
</g>
<mask id="mask16_156_2" style="mask-type:luminance" maskUnits="userSpaceOnUse" x="481" y="-47" width="488" height="484">
<path d="M968.123 -47H481V436.41H968.123V-47Z" fill="white"/>
</mask>
<g mask="url(#mask16_156_2)">
<path d="M655.307 -39.0593C633.815 -24.8834 631.689 16.0457 631.012 28.6122C630.969 29.4009 630.378 29.3583 630.292 28.6548C624.17 -25.2457 647.37 -39.9866 655.071 -39.7841C655.876 -39.7628 655.865 -39.4323 655.296 -39.0593" fill="#7F1621"/>
<path d="M605.396 34.517C628.51 45.9004 665.296 27.2585 676.595 21.5668C677.303 21.2044 677.561 21.7374 676.992 22.1637C633.01 54.374 608.554 41.8075 604.87 35.0926C604.483 34.3891 604.773 34.2399 605.396 34.5277" fill="#7F1621"/>
</g>
<mask id="mask17_156_2" style="mask-type:luminance" maskUnits="userSpaceOnUse" x="481" y="-47" width="488" height="484">
<path d="M968.123 -47H481V436.41H968.123V-47Z" fill="white"/>
</mask>
<g mask="url(#mask17_156_2)">
<path d="M694.069 46.0176C711.125 26.8002 702.511 -13.2762 699.891 -25.5869C699.729 -26.365 700.309 -26.4715 700.567 -25.8107C720.534 24.6791 701.974 44.8771 694.477 46.6678C693.693 46.8596 693.618 46.5292 694.069 46.0176Z" fill="#7F1621"/>
</g>
<mask id="mask18_156_2" style="mask-type:luminance" maskUnits="userSpaceOnUse" x="481" y="-47" width="488" height="484">
<path d="M968.123 -47H481V436.41H968.123V-47Z" fill="white"/>
</mask>
<g mask="url(#mask18_156_2)">
<path d="M655.307 57.028C633.815 71.2039 631.689 112.133 631.012 124.699C630.969 125.488 630.378 125.446 630.292 124.742C624.17 70.8415 647.37 56.1007 655.071 56.3032C655.876 56.3245 655.865 56.6549 655.296 57.028" fill="#7F1621"/>
<path d="M605.396 130.604C628.51 141.988 665.296 123.346 676.595 117.643C677.303 117.281 677.561 117.825 676.992 118.24C633.01 150.451 608.554 137.884 604.87 131.158C604.483 130.455 604.773 130.306 605.396 130.604Z" fill="#7F1621"/>
<path d="M694.069 142.105C711.125 122.887 702.511 82.8111 699.891 70.5004C699.729 69.7223 700.309 69.6157 700.567 70.2766C720.534 120.766 701.974 140.964 694.477 142.755C693.693 142.947 693.618 142.617 694.069 142.116" fill="#7F1621"/>
<path d="M723.09 58.2217C697.796 53.1695 667.132 80.6154 657.691 89.0251C657.101 89.558 656.714 89.0997 657.154 88.5561C691.234 46.1455 718.139 52.0077 723.445 57.5502C724.003 58.1258 723.756 58.3496 723.09 58.2217Z" fill="#7F1621"/>
<path d="M655.307 153.115C633.815 167.291 631.689 208.22 631.012 220.787C630.969 221.575 630.378 221.533 630.292 220.829C624.17 166.929 647.37 152.188 655.071 152.39C655.876 152.412 655.865 152.742 655.296 153.115" fill="#7F1621"/>
<path d="M605.396 226.681C628.51 238.064 665.296 219.422 676.595 213.731C677.303 213.368 677.561 213.901 676.992 214.328C633.01 246.538 608.554 233.971 604.87 227.246C604.483 226.542 604.773 226.393 605.396 226.681Z" fill="#7F1621"/>
<path d="M694.069 238.192C711.125 218.975 702.511 178.898 699.891 166.588C699.729 165.81 700.309 165.703 700.567 166.364C720.534 216.854 701.974 237.052 694.477 238.842C693.693 239.034 693.618 238.704 694.069 238.203" fill="#7F1621"/>
<path d="M723.09 154.309C697.796 149.257 667.132 176.703 657.691 185.112C657.101 185.645 656.714 185.187 657.154 184.643C691.234 142.233 718.139 148.095 723.445 153.637C724.003 154.213 723.756 154.437 723.09 154.309Z" fill="#7F1621"/>
<path d="M655.307 249.203C633.815 263.378 631.689 304.308 631.012 316.874C630.969 317.663 630.378 317.62 630.292 316.917C624.17 263.016 647.37 248.275 655.071 248.478C655.876 248.499 655.865 248.829 655.296 249.203" fill="#7F1621"/>
<path d="M694.069 334.28C711.125 315.062 702.511 274.986 699.891 262.675C699.729 261.897 700.309 261.79 700.567 262.451C720.534 312.941 701.974 333.139 694.477 334.93C693.693 335.122 693.618 334.791 694.069 334.29" fill="#7F1621"/>
<path d="M723.09 250.396C697.796 245.344 667.132 272.79 657.691 281.2C657.101 281.733 656.714 281.274 657.154 280.731C691.234 238.32 718.139 244.182 723.445 249.725C724.003 250.3 723.756 250.524 723.09 250.396Z" fill="#7F1621"/>
</g>
<mask id="mask19_156_2" style="mask-type:luminance" maskUnits="userSpaceOnUse" x="481" y="-47" width="488" height="484">
<path d="M968.123 -47H481V436.41H968.123V-47Z" fill="white"/>
</mask>
<g mask="url(#mask19_156_2)">
<path d="M774.794 -39.0593C753.303 -24.8834 751.176 16.0457 750.5 28.6122C750.457 29.4009 749.866 29.3583 749.78 28.6548C743.658 -25.2457 766.857 -39.9866 774.558 -39.7841C775.364 -39.7628 775.353 -39.4323 774.784 -39.0593" fill="#7F1621"/>
<path d="M724.883 34.517C747.997 45.9004 784.783 27.2585 796.082 21.5668C796.791 21.2044 797.049 21.7374 796.479 22.1637C752.508 54.374 728.041 41.8075 724.357 35.0926C723.971 34.3891 724.261 34.2399 724.873 34.5277" fill="#7F1621"/>
</g>
<mask id="mask20_156_2" style="mask-type:luminance" maskUnits="userSpaceOnUse" x="481" y="-47" width="488" height="484">
<path d="M968.123 -47H481V436.41H968.123V-47Z" fill="white"/>
</mask>
<g mask="url(#mask20_156_2)">
<path d="M813.557 46.0176C830.624 26.8002 821.999 -13.2762 819.378 -25.5869C819.217 -26.365 819.797 -26.4715 820.055 -25.8107C840.022 24.6791 821.462 44.8771 813.965 46.6678C813.181 46.8596 813.106 46.5292 813.557 46.0176Z" fill="#7F1621"/>
</g>
<mask id="mask21_156_2" style="mask-type:luminance" maskUnits="userSpaceOnUse" x="481" y="-47" width="488" height="484">
<path d="M968.123 -47H481V436.41H968.123V-47Z" fill="white"/>
</mask>
<g mask="url(#mask21_156_2)">
<path d="M774.794 57.028C753.303 71.2039 751.176 112.133 750.5 124.699C750.457 125.488 749.866 125.446 749.78 124.742C743.658 70.8415 766.857 56.1007 774.558 56.3032C775.364 56.3245 775.353 56.6549 774.784 57.028" fill="#7F1621"/>
<path d="M724.883 130.604C747.997 141.988 784.783 123.346 796.082 117.643C796.791 117.281 797.049 117.825 796.479 118.24C752.508 150.451 728.041 137.884 724.357 131.158C723.971 130.455 724.261 130.306 724.873 130.604" fill="#7F1621"/>
<path d="M813.557 142.105C830.623 122.887 821.999 82.8111 819.378 70.5004C819.217 69.7223 819.797 69.6157 820.055 70.2766C840.021 120.766 821.462 140.964 813.965 142.755C813.181 142.947 813.106 142.617 813.557 142.116" fill="#7F1621"/>
<path d="M842.577 58.2217C817.284 53.1695 786.62 80.6154 777.179 89.0251C776.588 89.558 776.201 89.0997 776.642 88.5561C810.721 46.1455 837.626 52.0077 842.932 57.5502C843.49 58.1258 843.243 58.3496 842.577 58.2217Z" fill="#7F1621"/>
<path d="M774.794 153.115C753.303 167.291 751.176 208.22 750.5 220.787C750.457 221.575 749.866 221.533 749.78 220.829C743.658 166.929 766.857 152.188 774.558 152.39C775.364 152.412 775.353 152.742 774.784 153.115" fill="#7F1621"/>
<path d="M724.883 226.681C747.997 238.064 784.783 219.422 796.082 213.731C796.791 213.368 797.049 213.901 796.479 214.328C752.508 246.538 728.041 233.971 724.357 227.246C723.971 226.542 724.261 226.393 724.873 226.681" fill="#7F1621"/>
<path d="M813.557 238.192C830.623 218.975 821.999 178.898 819.378 166.588C819.217 165.81 819.797 165.703 820.055 166.364C840.021 216.854 821.462 237.052 813.965 238.842C813.181 239.034 813.106 238.704 813.557 238.203" fill="#7F1621"/>
<path d="M842.577 154.309C817.284 149.257 786.62 176.703 777.179 185.112C776.588 185.645 776.201 185.187 776.642 184.643C810.721 142.233 837.626 148.095 842.932 153.637C843.49 154.213 843.243 154.437 842.577 154.309Z" fill="#7F1621"/>
<path d="M774.794 249.203C753.303 263.378 751.176 304.308 750.5 316.874C750.457 317.663 749.866 317.62 749.78 316.917C743.658 263.016 766.857 248.275 774.558 248.478C775.364 248.499 775.353 248.829 774.784 249.203" fill="#7F1621"/>
<path d="M813.557 334.28C830.623 315.062 821.999 274.986 819.378 262.675C819.217 261.897 819.797 261.79 820.055 262.451C840.021 312.941 821.462 333.139 813.965 334.93C813.181 335.122 813.106 334.791 813.557 334.29" fill="#7F1621"/>
<path d="M842.577 250.396C817.284 245.344 786.62 272.79 777.179 281.2C776.588 281.733 776.201 281.274 776.642 280.731C810.721 238.32 837.626 244.182 842.932 249.725C843.49 250.3 843.243 250.524 842.577 250.396Z" fill="#7F1621"/>
</g>
<mask id="mask22_156_2" style="mask-type:luminance" maskUnits="userSpaceOnUse" x="481" y="-47" width="488" height="484">
<path d="M968.123 -47H481V436.41H968.123V-47Z" fill="white"/>
</mask>
<g mask="url(#mask22_156_2)">
<path d="M895.034 -39.0593C873.542 -24.8834 871.416 16.0457 870.739 28.6122C870.696 29.4009 870.105 29.3583 870.019 28.6548C863.897 -25.2457 887.097 -39.9866 894.798 -39.7841C895.603 -39.7628 895.592 -39.4323 895.023 -39.0593" fill="#7F1621"/>
<path d="M845.123 34.517C868.237 45.9004 905.023 27.2585 916.322 21.5668C917.031 21.2044 917.288 21.7374 916.719 22.1637C872.737 54.374 848.281 41.8075 844.597 35.0926C844.21 34.3891 844.5 34.2399 845.112 34.5277" fill="#7F1621"/>
</g>
<mask id="mask23_156_2" style="mask-type:luminance" maskUnits="userSpaceOnUse" x="481" y="-47" width="488" height="484">
<path d="M968.123 -47H481V436.41H968.123V-47Z" fill="white"/>
</mask>
<g mask="url(#mask23_156_2)">
<path d="M933.796 46.0176C950.852 26.8002 942.238 -13.2762 939.618 -25.5869C939.457 -26.365 940.037 -26.4715 940.294 -25.8107C960.261 24.6791 941.701 44.8771 934.204 46.6678C933.42 46.8596 933.345 46.5292 933.796 46.0176Z" fill="#7F1621"/>
</g>
<mask id="mask24_156_2" style="mask-type:luminance" maskUnits="userSpaceOnUse" x="481" y="-47" width="488" height="484">
<path d="M968.123 -47H481V436.41H968.123V-47Z" fill="white"/>
</mask>
<g mask="url(#mask24_156_2)">
<path d="M895.034 57.028C873.542 71.2039 871.416 112.133 870.739 124.699C870.696 125.488 870.105 125.446 870.019 124.742C863.897 70.8415 887.097 56.1007 894.798 56.3032C895.603 56.3245 895.592 56.6549 895.023 57.028" fill="#7F1621"/>
<path d="M845.123 130.604C868.236 141.988 905.023 123.346 916.321 117.643C917.03 117.281 917.288 117.825 916.719 118.24C872.737 150.451 848.281 137.884 844.597 131.158C844.21 130.455 844.5 130.306 845.112 130.604" fill="#7F1621"/>
<path d="M933.796 142.105C950.852 122.887 942.238 82.8111 939.618 70.5004C939.457 69.7223 940.037 69.6157 940.294 70.2766C960.261 120.766 941.701 140.964 934.204 142.755C933.42 142.947 933.345 142.617 933.796 142.116" fill="#7F1621"/>
<path d="M962.817 58.2217C937.523 53.1695 906.859 80.6154 897.418 89.0251C896.828 89.558 896.441 89.0997 896.881 88.5561C930.961 46.1455 957.866 52.0077 963.171 57.5502C963.73 58.1258 963.483 58.3496 962.817 58.2217Z" fill="#7F1621"/>
<path d="M895.034 153.115C873.542 167.291 871.416 208.22 870.739 220.787C870.696 221.575 870.105 221.533 870.019 220.829C863.897 166.929 887.097 152.188 894.798 152.39C895.603 152.412 895.592 152.742 895.023 153.115" fill="#7F1621"/>
<path d="M845.123 226.681C868.236 238.064 905.023 219.422 916.321 213.731C917.03 213.368 917.288 213.901 916.719 214.328C872.737 246.538 848.281 233.971 844.597 227.246C844.21 226.542 844.5 226.393 845.112 226.681" fill="#7F1621"/>
<path d="M933.796 238.192C950.852 218.975 942.238 178.898 939.618 166.588C939.457 165.81 940.037 165.703 940.294 166.364C960.261 216.854 941.701 237.052 934.204 238.842C933.42 239.034 933.345 238.704 933.796 238.203" fill="#7F1621"/>
<path d="M962.817 154.309C937.523 149.257 906.859 176.703 897.418 185.112C896.828 185.645 896.441 185.187 896.881 184.643C930.961 142.233 957.866 148.095 963.171 153.637C963.73 154.213 963.483 154.437 962.817 154.309Z" fill="#7F1621"/>
<path d="M895.034 249.203C873.542 263.378 871.416 304.308 870.739 316.874C870.696 317.663 870.105 317.62 870.019 316.917C863.897 263.016 887.097 248.275 894.798 248.478C895.603 248.499 895.592 248.829 895.023 249.203" fill="#7F1621"/>
<path d="M933.796 334.28C950.852 315.062 942.238 274.986 939.618 262.675C939.457 261.897 940.037 261.79 940.294 262.451C960.261 312.941 941.701 333.139 934.204 334.93C933.42 335.122 933.345 334.791 933.796 334.29" fill="#7F1621"/>
<path d="M962.817 250.396C937.523 245.344 906.859 272.79 897.418 281.2C896.828 281.733 896.441 281.274 896.881 280.731C930.961 238.32 957.866 244.182 963.171 249.725C963.73 250.3 963.483 250.524 962.817 250.396Z" fill="#7F1621"/>
</g>
</g>
<g clip-path="url(#clip2_156_2)">
<path d="M416.906 150.88L417.661 146.657H419.62L422.19 132.339H420.252L421.007 128.116H430.595L429.84 132.339H427.392L426.474 137.397H434.063L434.981 132.339H432.533L433.288 128.116H442.876L442.142 132.339H440.183L437.593 146.657H439.551L438.796 150.88H429.208L429.963 146.657H432.411L433.349 141.466H425.76L424.822 146.657H427.25L426.515 150.88H416.906Z" fill="white"/>
<path d="M440.836 150.88L441.571 146.657H443.529L446.1 132.339H444.162L444.917 128.116H462.175L460.87 135.33H456.81L457.34 132.339H451.302L450.384 137.485H457.014L456.28 141.51H449.649L448.731 146.657H454.729L455.28 143.688H459.38L458.095 150.88H440.836Z" fill="white"/>
<mask id="mask25_156_2" style="mask-type:luminance" maskUnits="userSpaceOnUse" x="371" y="112" width="241" height="88">
<path d="M611.017 112.039H371.026V199.31H611.017V112.039Z" fill="white"/>
</mask>
<g mask="url(#mask25_156_2)">
<path d="M460.094 150.88L460.849 146.657H462.787L465.378 132.339H463.44L464.195 128.116H472.641C475.415 128.116 477.455 128.688 478.761 129.81C480.066 130.931 480.699 132.493 480.699 134.494C480.699 136.122 480.311 137.507 479.536 138.695C478.761 139.883 477.741 140.74 476.455 141.268L478.128 146.657H480.148L479.393 150.88H473.946L471.58 142.39H468.622L467.846 146.635H470.233L469.478 150.858H460.053L460.094 150.88ZM472.171 132.119H470.499L469.356 138.475H471.417C472.743 138.475 473.742 138.145 474.456 137.485C475.17 136.826 475.517 135.946 475.517 134.846C475.517 133.878 475.252 133.197 474.701 132.757C474.15 132.317 473.314 132.119 472.192 132.119" fill="white"/>
<path d="M492.184 151.363C490.573 151.363 489.206 151.077 488.064 150.506C486.941 149.934 486.105 149.098 485.554 147.976L485.024 150.88H481.25L482.657 142.94H486.635C486.574 143.182 486.554 143.424 486.554 143.666C486.554 144.303 486.758 144.875 487.166 145.403C487.574 145.931 488.125 146.327 488.798 146.635C489.492 146.943 490.246 147.075 491.103 147.075C492.144 147.075 492.919 146.855 493.449 146.415C493.98 145.975 494.245 145.359 494.245 144.589C494.245 143.93 494 143.424 493.531 143.094C493.041 142.764 492.205 142.412 491.001 142.038L489.043 141.444C487.329 140.916 486.105 140.125 485.35 139.025C484.595 137.925 484.208 136.562 484.208 134.912C484.208 133.395 484.534 132.097 485.187 130.997C485.84 129.898 486.737 129.084 487.88 128.49C489.022 127.918 490.348 127.61 491.858 127.61C493.368 127.61 494.551 127.874 495.571 128.424C496.611 128.974 497.346 129.7 497.774 130.645L498.243 128.094H501.997L500.569 135.968H496.591C496.652 135.616 496.673 135.286 496.673 135C496.673 134.186 496.346 133.461 495.673 132.845C495 132.229 494.102 131.921 492.939 131.921C492.021 131.921 491.266 132.163 490.675 132.603C490.083 133.065 489.798 133.68 489.798 134.472C489.798 135.088 490.042 135.594 490.512 135.968C491.001 136.342 491.776 136.716 492.837 137.046L494.592 137.573C496.489 138.145 497.856 138.937 498.651 139.949C499.447 140.96 499.855 142.302 499.855 143.952C499.855 145.425 499.549 146.723 498.917 147.822C498.305 148.922 497.407 149.802 496.244 150.396C495.081 151.012 493.714 151.319 492.123 151.319" fill="white"/>
<path d="M505.016 150.88L505.771 146.657H508.199L510.789 132.339H507.587L506.893 136.166H502.792L504.282 128.116H524.091L522.622 136.166H518.542L519.235 132.339H516.032L513.442 146.657H515.869L515.114 150.88H505.016Z" fill="white"/>
<path d="M519.378 150.88L520.133 146.657H521.887L531.455 128.094H537.82L540.737 146.657H542.512L541.758 150.88H532.475L533.189 146.855H535.617L535.209 143.798H528.252L526.722 146.855H529.15L528.416 150.88H519.378ZM529.986 140.257H534.719L533.72 132.757L529.986 140.257Z" fill="white"/>
<path d="M543.145 150.88L543.9 146.657H545.878L548.449 132.339H546.511L547.266 128.116H556.956L556.221 132.339H553.712L551.183 146.459H556.834L557.629 142.016H561.811L560.22 150.88H543.145Z" fill="white"/>
<path d="M385.49 182.155L386.224 177.91H388.183L390.773 163.592H388.815L389.57 159.369H399.158L398.403 163.592H395.955L395.058 168.65H402.647L403.565 163.592H401.117L401.851 159.369H411.46L410.705 163.592H408.746L406.176 177.91H408.114L407.359 182.155H397.771L398.526 177.91H400.974L401.912 172.741H394.323L393.385 177.91H395.833L395.078 182.155H385.49Z" fill="white"/>
<path d="M409.399 182.155L410.154 177.91H412.092L414.683 163.592H412.724L413.479 159.369H422.659L421.905 163.592H419.967L417.376 177.91H419.314L418.579 182.155H409.399Z" fill="white"/>
<path d="M431.697 182.616C430.085 182.616 428.718 182.331 427.576 181.759C426.454 181.187 425.618 180.351 425.067 179.229L424.536 182.133H420.762L422.17 174.193H426.148C426.087 174.435 426.066 174.677 426.066 174.919C426.066 175.556 426.27 176.128 426.678 176.656C427.086 177.184 427.637 177.58 428.31 177.888C429.004 178.196 429.759 178.328 430.616 178.328C431.656 178.328 432.431 178.108 432.962 177.668C433.492 177.228 433.757 176.612 433.757 175.842C433.757 175.183 433.513 174.677 433.043 174.347C432.554 174.017 431.717 173.665 430.514 173.291L428.576 172.697C426.862 172.169 425.638 171.378 424.883 170.278C424.128 169.178 423.741 167.815 423.741 166.165C423.741 164.648 424.067 163.35 424.72 162.25C425.373 161.151 426.27 160.337 427.413 159.743C428.555 159.171 429.881 158.863 431.391 158.863C432.901 158.863 434.084 159.127 435.104 159.677C436.124 160.227 436.858 160.953 437.307 161.898L437.776 159.347H441.53L440.102 167.221H436.124C436.185 166.869 436.205 166.539 436.205 166.253C436.205 165.439 435.879 164.714 435.206 164.098C434.533 163.482 433.635 163.174 432.472 163.174C431.554 163.174 430.799 163.416 430.208 163.856C429.616 164.318 429.33 164.934 429.33 165.725C429.33 166.341 429.575 166.847 430.044 167.221C430.534 167.595 431.309 167.969 432.37 168.299L434.125 168.826C436.042 169.398 437.389 170.19 438.184 171.202C438.98 172.213 439.388 173.555 439.388 175.205C439.388 176.678 439.082 177.976 438.449 179.075C437.837 180.175 436.94 181.055 435.777 181.649C434.614 182.265 433.247 182.572 431.656 182.572" fill="white"/>
<path d="M451.261 182.616C449.649 182.616 448.282 182.331 447.14 181.759C446.018 181.187 445.181 180.351 444.631 179.229L444.1 182.133H440.326L441.734 174.193H445.712C445.651 174.435 445.63 174.677 445.63 174.919C445.63 175.556 445.834 176.128 446.242 176.656C446.65 177.184 447.201 177.58 447.874 177.888C448.568 178.196 449.323 178.328 450.18 178.328C451.22 178.328 451.995 178.108 452.526 177.668C453.056 177.228 453.321 176.612 453.321 175.842C453.321 175.183 453.076 174.677 452.607 174.347C452.118 174.017 451.281 173.665 450.078 173.291L448.14 172.697C446.426 172.169 445.202 171.378 444.447 170.278C443.692 169.178 443.305 167.815 443.305 166.165C443.305 164.648 443.631 163.35 444.284 162.25C444.937 161.151 445.834 160.337 446.977 159.743C448.119 159.171 449.445 158.863 450.955 158.863C452.464 158.863 453.648 159.127 454.668 159.677C455.688 160.227 456.422 160.953 456.871 161.898L457.34 159.347H461.094L459.666 167.221H455.688C455.749 166.869 455.769 166.539 455.769 166.253C455.769 165.439 455.443 164.714 454.77 164.098C454.097 163.482 453.199 163.174 452.056 163.174C451.138 163.174 450.384 163.416 449.792 163.856C449.2 164.318 448.915 164.934 448.915 165.725C448.915 166.341 449.16 166.847 449.629 167.221C450.118 167.595 450.894 167.969 451.954 168.299L453.709 168.826C455.627 169.398 456.973 170.19 457.769 171.202C458.564 172.213 458.972 173.555 458.972 175.205C458.972 176.678 458.666 177.976 458.034 179.075C457.422 180.175 456.524 181.055 455.361 181.649C454.199 182.265 452.832 182.572 451.24 182.572" fill="white"/>
<path d="M459.748 182.155L460.502 177.91H462.44L465.031 163.592H463.093L463.828 159.369H481.107L479.801 166.583H475.742L476.272 163.592H470.233L469.315 168.738H475.925L475.211 172.763H468.561L467.643 177.91H473.661L474.212 174.941H478.292L477.006 182.155H459.748Z" fill="white"/>
<path d="M478.598 182.155L479.332 178.13L492.613 163.526H486.166L485.411 167.661H481.331L482.821 159.369H500.059L499.345 163.372L485.962 177.976H492.898L493.694 173.577H497.795L496.224 182.155H478.598Z" fill="white"/>
<path d="M503.874 182.155L504.629 177.91H506.567L509.157 163.592H507.219L507.954 159.369H517.563L516.808 163.592H514.36L513.442 168.65H521.031L521.949 163.592H519.501L520.255 159.369H529.844L529.089 163.592H527.151L524.56 177.91H526.498L525.763 182.155H516.155L516.91 177.91H519.358L520.296 172.741H512.707L511.769 177.91H514.217L513.462 182.155H503.874Z" fill="white"/>
<path d="M527.151 182.155L527.906 177.932H529.66L539.228 159.369H545.593L548.51 177.932H550.285L549.53 182.155H540.248L540.962 178.13H543.39L542.982 175.073H536.025L534.495 178.13H536.923L536.188 182.155H527.151ZM537.759 171.51H542.492L541.492 164.01L537.759 171.51Z" fill="white"/>
<path d="M560.546 182.616C557.874 182.616 555.875 181.979 554.549 180.725C553.223 179.449 552.57 177.668 552.57 175.337C552.57 174.831 552.59 174.325 552.651 173.819C552.713 173.313 552.774 172.807 552.855 172.345L554.447 163.592H552.509L553.263 159.369H562.709L561.954 163.592H559.73L557.976 173.313C557.935 173.489 557.915 173.687 557.894 173.863C557.894 174.061 557.874 174.259 557.874 174.479C557.874 175.469 558.139 176.238 558.69 176.766C559.241 177.294 559.996 177.536 560.975 177.536C562.158 177.536 563.076 177.184 563.749 176.502C564.402 175.82 564.83 174.897 565.034 173.731L566.85 163.592H564.626L565.381 159.369H574.745L573.99 163.592H572.052L570.155 174.017C569.625 177.03 568.543 179.229 566.932 180.571C565.32 181.935 563.198 182.616 560.567 182.616" fill="white"/>
<path d="M576.683 182.155L577.438 177.91H579.866L582.456 163.592H579.254L578.56 167.419H574.459L575.949 159.369H595.758L594.289 167.419H590.209L590.902 163.592H587.699L585.109 177.91H587.536L586.781 182.155H576.683Z" fill="white"/>
</g>
</g>
</g>
<defs>
<clipPath id="clip0_156_2">
<rect width="487.123" height="483.41" fill="white" transform="translate(0 -47)"/>
</clipPath>
<clipPath id="clip1_156_2">
<rect width="487.123" height="483.41" fill="white" transform="translate(481 -47)"/>
</clipPath>
<clipPath id="clip2_156_2">
<rect width="239.991" height="87.2709" fill="white" transform="translate(371.026 112.039)"/>
</clipPath>
</defs>
</svg>
