<svg width="99" height="81" viewBox="0 0 99 81" fill="none" xmlns="http://www.w3.org/2000/svg">
<path d="M12.9475 35.7115H3.21544V20.106H0V50.7169H3.21544V37.8552H12.9475V35.7115Z" fill="black"/>
<path d="M62.3366 19.7633C62.3366 19.7633 61.9508 19.8919 61.6078 19.8919C60.5788 19.8919 60.1501 19.0344 60.1501 17.834C60.1501 16.7193 60.536 15.7332 61.6935 15.7332C61.9079 15.7332 62.1223 15.7332 62.3366 15.819V19.7633ZM63.1512 20.0634V12.9465H62.3366V15.3045C62.0794 15.2188 61.8221 15.1759 61.522 15.1759C60.193 15.1759 59.3355 16.162 59.3355 17.834C59.3355 19.3774 60.1072 20.4063 61.5649 20.4063C62.2937 20.4063 62.8082 20.2349 63.1512 20.0634Z" fill="#878787"/>
<path d="M67.3098 17.3196L64.8661 17.7055C64.8661 16.3336 65.3806 15.7334 66.1094 15.7334C66.8382 15.7334 67.267 16.205 67.267 17.3196M68.0815 17.6626C68.0815 15.9477 67.3527 15.176 66.1523 15.176C64.9518 15.176 64.0944 16.0764 64.0944 17.7912C64.0944 19.5919 65.0376 20.4493 66.3666 20.4493C67.0526 20.4493 67.6099 20.2779 67.91 20.1064L67.6957 19.549C67.4384 19.6776 67.0097 19.8491 66.4524 19.8491C65.5521 19.8491 64.9947 19.2918 64.909 18.1342L68.0815 17.6626Z" fill="#878787"/>
<path d="M42.358 13.8467H41.5435L40.343 18.3912C40.2573 18.777 40.1287 19.2486 40.1287 19.2486C40.1287 19.2486 40.0429 18.8199 39.9572 18.3912L38.7567 13.8467H37.8564L39.7857 20.3204H40.5574L42.4438 13.8467H42.358Z" fill="#878787"/>
<path d="M44.5017 15.2615H43.6871V20.3205H44.5017V15.2615ZM44.5874 13.8467C44.5874 13.5895 44.373 13.3751 44.1158 13.3751C43.8586 13.3751 43.6442 13.5895 43.6442 13.8467C43.6442 14.104 43.8586 14.2754 44.1158 14.2754C44.373 14.2754 44.5874 14.0611 44.5874 13.8467Z" fill="#878787"/>
<path d="M47.2026 12.9465H46.3881V20.3206H47.2026V12.9465Z" fill="#878787"/>
<path d="M49.9036 12.9465H49.089V20.3206H49.9036V12.9465Z" fill="#878787"/>
<path d="M54.7053 17.3201L52.2615 17.706C52.2615 16.3341 52.776 15.7339 53.5049 15.7339C54.2337 15.7339 54.6624 16.2055 54.6624 17.3201M55.5199 17.6631C55.5199 15.9482 54.791 15.1765 53.5906 15.1765C52.3902 15.1765 51.5327 16.0768 51.5327 17.7917C51.5327 19.5924 52.4759 20.4498 53.805 20.4498C54.4909 20.4498 55.0483 20.2783 55.3484 20.1068L55.134 19.5495C54.8768 19.6781 54.448 19.8496 53.8907 19.8496C52.9904 19.8496 52.433 19.2923 52.3473 18.1347L55.5199 17.6631Z" fill="#878787"/>
<path d="M46.2594 28.1665C41.7578 28.0379 37.7707 28.2951 38.0708 32.1536V47.5449H41.2005V31.8107C41.1576 30.3101 43.9872 30.0958 45.5306 30.5674L46.2594 28.2094V28.1665Z" fill="black"/>
<path d="M59.5499 42.2286C59.5499 40.0421 58.6496 38.07 54.9197 36.6552C53.0761 35.9692 51.7471 35.0689 51.7471 33.2254C51.7471 31.5962 52.8618 30.2243 54.9197 30.2243C56.4202 30.2243 57.5349 30.8674 58.0922 31.2961L58.9068 29.4097C57.9207 28.7237 56.4202 28.1235 54.4481 28.1235C50.9754 28.1235 48.746 30.5244 48.746 33.354C48.746 35.3261 49.4748 37.2982 53.2047 38.6702C55.3055 39.4419 56.3344 40.3422 56.3344 42.3143C56.3344 44.1578 54.9197 45.6155 52.8189 45.6155C51.1469 45.6155 49.775 45.0582 49.1319 44.5008L48.2744 46.5587C49.3034 47.3304 51.104 47.8877 53.1619 47.8877C57.0633 47.8877 59.5499 45.1868 59.5499 42.3143" fill="black"/>
<path d="M71.1683 47.4167V45.4446C70.8682 45.5303 70.5681 45.5732 70.268 45.5732C68.5531 45.5732 67.8671 44.3299 67.8671 42.8293V30.4392H71.1683V28.5099H67.8671V23.1937L64.7374 24.1369V28.5099H62.5509V30.4392H64.7374V42.9151C64.7374 45.2302 66.0236 47.7168 69.4534 47.7168C70.2251 47.7168 70.7825 47.5453 71.1254 47.4167" fill="black"/>
<path d="M30.8682 36.1408C30.8682 31.8107 29.1961 30.1386 26.4952 30.1386C23.7942 30.1386 21.6935 32.368 21.7792 37.5127L21.8649 39.1847C22.2079 43.5149 24.2229 45.6156 27.6527 45.6156C29.7964 45.6156 31.3398 45.1011 32.3687 44.5438L33.1833 46.6017C32.0257 47.2876 30.0107 47.8878 27.4384 47.8878C22.4652 47.8878 18.9496 44.7582 18.9496 37.9843C18.9496 31.2104 22.1222 28.1665 26.6238 28.1665C31.1254 28.1665 34.0836 31.0818 33.8693 37.8986H23.88V36.1837H30.911L30.8682 36.1408Z" fill="black"/>
<path d="M37.8564 0.17088C6.68809 19.292 10.8038 88.7026 9.64629 79.3564C1.3719 13.3327 30.9539 -1.84413 37.8564 0.17088Z" fill="#C90A22"/>
<path d="M98.0923 47.4166V45.4444C97.7921 45.5302 97.492 45.573 97.1919 45.573C95.477 45.573 94.7911 44.3297 94.7911 42.8292V16.7198L91.6614 17.663V42.9149C91.6614 45.2301 92.9476 47.7167 96.3774 47.7167C97.1491 47.7167 97.7064 47.5452 98.0494 47.4166" fill="black"/>
<path d="M84.6732 45.4441V36.741C79.8715 37.3412 76.999 38.3701 76.999 42.2287C76.999 43.6006 77.4277 44.5438 78.1566 45.1869C78.9283 45.8299 80.0858 46.1301 81.5006 46.1301C82.701 46.1301 82.4867 47.9307 81.2434 47.9307C80.4717 47.9307 79.7428 47.8878 79.0997 47.7592C75.6271 47.2019 74.0408 45.2297 74.0408 42.3144C74.0408 37.2555 78.7568 35.7978 84.6732 35.1976V34.04C84.6732 31.1247 82.9154 30.2672 80.4717 30.2672C78.6282 30.2672 76.9561 30.9532 75.8843 31.4677L75.1555 29.6241C76.2702 29.0239 78.3709 28.2094 80.9861 28.2094C84.5017 28.2094 87.6314 29.7099 87.6314 34.383V46.6017C86.8597 47.0304 85.8736 47.3734 84.716 47.6306V45.5298L84.6732 45.4441Z" fill="black"/>
</svg>
