<svg width="268" height="219" viewBox="0 0 268 219" fill="none" xmlns="http://www.w3.org/2000/svg">
<path d="M35.5478 97.4954H8.97848V54.8909H0.200073V138.461H8.97848V103.348H35.5478V97.4954Z" fill="white"/>
<path d="M170.384 53.9554C170.384 53.9554 169.331 54.3066 168.394 54.3066C165.585 54.3066 164.415 51.9657 164.415 48.6884C164.415 45.6452 165.468 42.9532 168.628 42.9532C169.214 42.9532 169.799 42.9532 170.384 43.1873V53.9554ZM172.608 54.7748V35.3452H170.384V41.7827C169.682 41.5486 168.979 41.4316 168.16 41.4316C164.532 41.4316 162.191 44.1236 162.191 48.6884C162.191 52.902 164.298 55.7111 168.277 55.7111C170.267 55.7111 171.672 55.2429 172.608 54.7748Z" fill="white"/>
<path d="M183.961 47.2839L177.29 48.3373C177.29 44.5919 178.694 42.9532 180.684 42.9532C182.674 42.9532 183.844 44.2407 183.844 47.2839M186.068 48.2203C186.068 43.5385 184.078 41.4316 180.801 41.4316C177.524 41.4316 175.183 43.8896 175.183 48.5714C175.183 53.4873 177.758 55.8282 181.386 55.8282C183.259 55.8282 184.781 55.36 185.6 54.8919L185.015 53.3703C184.313 53.7214 183.142 54.1896 181.62 54.1896C179.163 54.1896 177.641 52.668 177.407 49.5078L186.068 48.2203Z" fill="white"/>
<path d="M115.841 37.8027H113.617L110.34 50.2095C110.106 51.263 109.755 52.5504 109.755 52.5504C109.755 52.5504 109.52 51.38 109.286 50.2095L106.009 37.8027H103.551L108.818 55.4766H110.925L116.075 37.8027H115.841Z" fill="white"/>
<path d="M121.693 41.6654H119.469V55.4767H121.693V41.6654ZM121.927 37.8029C121.927 37.1006 121.342 36.5154 120.64 36.5154C119.937 36.5154 119.352 37.1006 119.352 37.8029C119.352 38.5052 119.937 38.9733 120.64 38.9733C121.342 38.9733 121.927 38.3881 121.927 37.8029Z" fill="white"/>
<path d="M129.067 35.3452H126.843V55.477H129.067V35.3452Z" fill="white"/>
<path d="M136.441 35.3452H134.217V55.477H136.441V35.3452Z" fill="white"/>
<path d="M149.55 47.2854L142.878 48.3388C142.878 44.5933 144.283 42.9547 146.273 42.9547C148.262 42.9547 149.433 44.2422 149.433 47.2854M151.774 48.2217C151.774 43.5399 149.784 41.4331 146.507 41.4331C143.23 41.4331 140.889 43.8911 140.889 48.5729C140.889 53.4888 143.464 55.8297 147.092 55.8297C148.965 55.8297 150.486 55.3615 151.306 54.8933L150.72 53.3717C150.018 53.7229 148.848 54.1911 147.326 54.1911C144.868 54.1911 143.347 52.6695 143.112 49.5092L151.774 48.2217Z" fill="white"/>
<path d="M126.492 76.8971C114.202 76.5459 103.317 77.2482 104.136 87.7823V129.802H112.681V86.8459C112.564 82.7493 120.289 82.1641 124.502 83.4516L126.492 77.0141V76.8971Z" fill="white"/>
<path d="M162.776 115.288C162.776 109.318 160.318 103.934 150.135 100.072C145.102 98.1991 141.474 95.7411 141.474 90.7082C141.474 86.2604 144.517 82.515 150.135 82.515C154.232 82.515 157.275 84.2707 158.797 85.4411L161.02 80.2911C158.328 78.4184 154.232 76.7798 148.848 76.7798C139.367 76.7798 133.281 83.3343 133.281 91.0593C133.281 96.4434 135.27 101.827 145.453 105.573C151.189 107.68 153.998 110.138 153.998 115.522C153.998 120.555 150.135 124.534 144.4 124.534C139.835 124.534 136.09 123.013 134.334 121.491L131.993 127.109C134.802 129.216 139.718 130.738 145.336 130.738C155.988 130.738 162.776 123.364 162.776 115.522" fill="white"/>
<path d="M194.495 129.451V124.067C193.676 124.301 192.857 124.418 192.037 124.418C187.356 124.418 185.483 121.024 185.483 116.927V83.1012H194.495V77.8342H185.483V63.3206L176.939 65.8956V77.8342H170.969V83.1012H176.939V117.161C176.939 123.482 180.45 130.271 189.814 130.271C191.92 130.271 193.442 129.802 194.378 129.451" fill="white"/>
<path d="M84.4728 98.6672C84.4728 86.8456 79.908 82.2808 72.5341 82.2808C65.1603 82.2808 59.425 88.3672 59.6591 102.413L59.8932 106.977C60.8296 118.799 66.3307 124.534 75.6944 124.534C81.5466 124.534 85.7603 123.13 88.5694 121.608L90.7932 127.226C87.633 129.099 82.1319 130.738 75.1092 130.738C61.5319 130.738 51.9341 122.193 51.9341 103.7C51.9341 85.2069 60.5955 76.8967 72.8853 76.8967C85.1751 76.8967 93.2512 84.8558 92.666 103.466H65.3944V98.7842H84.5898L84.4728 98.6672Z" fill="white"/>
<path d="M103.551 0.466516C18.4591 52.6688 29.6955 242.165 26.5353 216.649C3.94552 36.3995 84.7069 -5.03462 103.551 0.466516Z" fill="#C90A22"/>
<path d="M268 129.451V124.067C267.181 124.301 266.361 124.418 265.542 124.418C260.86 124.418 258.988 121.024 258.988 116.927V45.6465L250.443 48.2215V117.161C250.443 123.482 253.955 130.27 263.318 130.27C265.425 130.27 266.947 129.802 267.883 129.451" fill="white"/>
<path d="M231.365 124.066V100.306C218.256 101.945 210.414 104.754 210.414 115.288C210.414 119.033 211.584 121.608 213.574 123.364C215.681 125.12 218.841 125.939 222.703 125.939C225.981 125.939 225.395 130.855 222.001 130.855C219.894 130.855 217.905 130.738 216.149 130.387C206.668 128.865 202.338 123.481 202.338 115.522C202.338 101.711 215.213 97.731 231.365 96.0923V92.9321C231.365 84.973 226.566 82.6321 219.894 82.6321C214.861 82.6321 210.297 84.5048 207.37 85.9094L205.381 80.8764C208.424 79.2378 214.159 77.0139 221.299 77.0139C230.897 77.0139 239.441 81.1105 239.441 93.8685V127.226C237.334 128.397 234.642 129.333 231.482 130.036V124.3L231.365 124.066Z" fill="white"/>
</svg>
