<svg width="437" height="460" viewBox="0 0 437 460" fill="none" xmlns="http://www.w3.org/2000/svg">
<path d="M-1071.48 285.438C-1082.17 288.615 -1084.03 271.825 -1073.34 266.833C-820.048 141.136 -591.392 133.876 -326.486 235.976C-87.1406 328.547 192.173 457.42 420.829 326.732C428.73 322.648 441.743 333.993 435.236 340.345C222.846 555.89 -67.6212 428.832 -267.928 355.32C-542.129 254.127 -787.981 206.481 -1071.48 285.438Z" fill="#005193"/>
<path d="M-260.955 167.455C-266.996 162.917 -263.278 151.119 -256.307 153.841C-192.637 177.438 -114.559 190.144 -35.5518 182.883C30.9072 176.53 98.2957 156.11 158.248 116.632C166.149 111.64 173.12 127.522 166.149 135.237C113.168 193.32 42.0612 233.253 -31.8338 239.152C-112.235 245.505 -195.89 214.194 -260.955 167.455Z" fill="#E70033"/>
</svg>
