<svg width="141" height="465" viewBox="0 0 141 465" fill="none" xmlns="http://www.w3.org/2000/svg">
<mask id="mask0_212_274" style="mask-type:alpha" maskUnits="userSpaceOnUse" x="0" y="0" width="141" height="465">
<rect x="7.62939e-06" width="141" height="465" fill="#D9D9D9"/>
</mask>
<g mask="url(#mask0_212_274)">
<path d="M275.841 232.132C253.233 251.405 218.661 245.045 189.595 230.705C160.386 216.356 136.707 193.657 121.917 159.124C107.139 124.405 101.121 77.6578 115.029 41.4954C128.949 5.14838 162.654 -20.6229 198.638 -29.187C234.633 -37.9357 272.907 -29.4771 293.364 -1.05852C313.962 27.3694 316.897 75.582 312.977 122.044C309.069 168.322 298.437 213.044 275.841 232.132Z" fill="#FFCAE3"/>
<path d="M497.153 908.612C445.312 913.683 377.211 898.238 327.803 837.029C278.709 775.652 248.647 669.141 195.258 561.337C141.869 453.533 65.1536 344.436 49.0122 265.38C32.5568 186.493 76.6508 136.847 130.203 125.173C184.07 113.331 247.056 138.829 301.967 140.233C356.539 141.007 403.06 118.486 455.592 146.344C508.124 174.202 566.981 252.271 611.279 334.089C656.229 416.37 686.257 500.97 710.563 586.204C734.844 670.639 753.04 754.278 736.544 798.864C720.361 843.281 669.8 848.477 626.56 863.553C583.972 879.091 548.68 903.71 497.153 908.612Z" fill="#7F275A"/>
<path d="M26.469 264.087C29.3636 267.418 30.638 272.254 29.6913 276.696C28.7446 281.12 25.5588 285.168 21.4809 286.923C17.403 288.696 12.433 288.177 8.44614 286.117C4.47746 284.039 1.49185 280.421 0.435965 276.248C-0.619922 272.075 0.253916 267.364 2.93004 264.105C5.60617 260.845 10.0664 259.018 14.563 259C19.0596 259 23.5562 260.773 26.469 264.087Z" fill="#DF006E"/>
<path d="M22.1839 405.05L21.3287 406.888L23.1084 407.716L22.6865 408.623L20.0002 407.373L21.2773 404.628L22.1839 405.05ZM33.8547 412.716L33.4328 413.623L28.0593 411.123L28.4811 410.216L33.8547 412.716ZM44.6001 417.716L44.1783 418.622L38.8056 416.123L39.2274 415.216L44.6001 417.716ZM55.3464 422.716L54.9246 423.622L49.5519 421.122L49.9737 420.216L55.3464 422.716ZM66.0927 427.716L65.6709 428.622L60.2973 426.122L60.7191 425.215L66.0927 427.716ZM76.8381 432.715L76.4163 433.622L71.0436 431.122L71.4654 430.215L76.8381 432.715ZM87.5844 437.715L87.1626 438.622L81.7899 436.122L82.2117 435.215L87.5844 437.715ZM98.3307 442.715L97.9089 443.622L92.5353 441.122L92.9571 440.215L98.3307 442.715ZM109.076 447.715L108.654 448.621L103.282 446.122L103.703 445.215L109.076 447.715ZM119.822 452.715L119.401 453.621L114.028 451.122L114.45 450.215L119.822 452.715ZM130.568 457.714L130.146 458.621L124.773 456.121L125.195 455.214L130.568 457.714ZM141.314 462.714L140.892 463.621L135.52 461.121L135.941 460.214L141.314 462.714ZM27.2935 394.068L24.7389 399.559L23.8323 399.137L26.3868 393.646L27.2935 394.068ZM32.4035 383.085L29.8485 388.577L28.9418 388.155L31.4968 382.664L32.4035 383.085ZM37.513 372.104L34.958 377.595L34.0514 377.173L36.6064 371.682L37.513 372.104ZM42.6226 361.122L40.068 366.612L39.1613 366.19L41.7159 360.7L42.6226 361.122ZM47.7325 350.139L45.1776 355.63L44.2709 355.209L46.8259 349.717L47.7325 350.139ZM52.8421 339.157L50.2871 344.649L49.3804 344.227L51.9354 338.735L52.8421 339.157ZM57.9517 328.175L55.3971 333.666L54.4904 333.244L57.045 327.754L57.9517 328.175ZM63.0616 317.193L60.5066 322.684L59.6 322.262L62.155 316.771L63.0616 317.193ZM68.1712 306.211L65.6162 311.702L64.7095 311.28L67.2645 305.789L68.1712 306.211ZM73.2807 295.229L70.7262 300.72L69.8195 300.298L72.3741 294.807L73.2807 295.229ZM78.3903 284.247L75.8357 289.738L74.9291 289.316L77.4836 283.825L78.3903 284.247ZM83.5003 273.265L80.9453 278.756L80.0386 278.334L82.5936 272.843L83.5003 273.265ZM88.6098 262.283L86.0548 267.774L85.1482 267.352L87.7031 261.861L88.6098 262.283ZM93.7194 251.301L91.1648 256.791L90.2581 256.37L92.8127 250.879L93.7194 251.301ZM98.8293 240.318L96.2744 245.81L95.3677 245.388L97.9227 239.896L98.8293 240.318ZM103.939 229.336L101.384 234.828L100.477 234.406L103.032 228.915L103.939 229.336ZM109.048 218.355L106.494 223.845L105.587 223.423L108.142 217.933L109.048 218.355ZM114.158 207.372L111.603 212.863L110.697 212.441L113.252 206.95L114.158 207.372ZM119.268 196.39L116.713 201.881L115.806 201.46L118.361 195.968L119.268 196.39ZM124.378 185.408L121.823 190.899L120.916 190.477L123.471 184.986L124.378 185.408ZM129.487 174.426L126.933 179.917L126.026 179.495L128.581 174.004L129.487 174.426ZM134.597 163.444L132.042 168.935L131.135 168.513L133.69 163.022L134.597 163.444ZM139.707 152.462L137.152 157.952L136.245 157.531L138.8 152.04L139.707 152.462Z" fill="#222222" fill-opacity="0.5"/>
</g>
</svg>
