<svg width="152" height="488" viewBox="0 0 152 488" fill="none" xmlns="http://www.w3.org/2000/svg">
<mask id="mask0_212_258" style="mask-type:alpha" maskUnits="userSpaceOnUse" x="0" y="0" width="152" height="488">
<rect width="152" height="488" fill="#D9D9D9"/>
</mask>
<g mask="url(#mask0_212_258)">
<path d="M504.058 152.125C539.034 186.589 570.942 234.334 562.338 274.567C553.435 314.605 504.212 346.832 468.457 394.965C432.702 443.099 410.416 507.139 370.1 526.888C330.084 546.83 271.548 522.586 231.33 487.705C199.715 460.336 179.136 426.673 156.064 395.5C149.566 386.722 142.872 378.141 135.677 369.954C102.739 332.991 59.9408 304.074 45.4523 265.461C30.9638 226.847 44.4862 178.345 69.3081 139.26C91.3633 103.944 121.87 76.4507 156.064 52.4965C160.189 49.6067 164.367 46.7685 168.591 43.9742C207.336 18.1234 249.303 -3.5264 287.722 2.63437C325.841 8.60191 360.113 42.1867 396.174 69.7196C432.129 96.7601 469.381 117.855 504.058 152.125Z" fill="#FFCAE3"/>
<path d="M152.11 334.764L154.23 340.439L153.293 340.789L151.173 335.114L152.11 334.764ZM147.87 323.416L149.99 329.091L149.053 329.441L146.933 323.766L147.87 323.416ZM143.631 312.068L145.75 317.742L144.813 318.092L142.694 312.418L143.631 312.068ZM139.391 300.72L141.511 306.393L140.574 306.743L138.454 301.07L139.391 300.72ZM135.151 289.371L137.271 295.045L136.334 295.395L134.214 289.721L135.151 289.371ZM130.912 278.022L133.032 283.697L132.095 284.047L129.975 278.372L130.912 278.022ZM126.672 266.674L128.792 272.348L127.855 272.698L125.735 267.024L126.672 266.674ZM122.432 255.325L124.552 261L123.615 261.35L121.495 255.675L122.432 255.325ZM118.193 243.977L120.313 249.651L119.376 250.001L117.256 244.327L118.193 243.977ZM113.953 232.629L116.073 238.302L115.136 238.652L113.016 232.979L113.953 232.629ZM109.713 221.28L111.833 226.954L110.896 227.304L108.776 221.63L109.713 221.28ZM105.474 209.931L107.593 215.605L106.657 215.955L104.537 210.281L105.474 209.931ZM101.234 198.582L103.354 204.257L102.417 204.607L100.297 198.932L101.234 198.582ZM96.9943 187.234L99.1143 192.909L98.1775 193.259L96.0576 187.584L96.9943 187.234ZM92.7548 175.886L94.8744 181.56L93.9376 181.909L91.818 176.236L92.7548 175.886ZM88.5149 164.537L90.6349 170.211L89.6981 170.561L87.5782 164.887L88.5149 164.537ZM84.2754 153.189L86.3953 158.863L85.4586 159.213L83.3386 153.539L84.2754 153.189ZM80.0359 141.84L82.1554 147.514L81.2187 147.864L79.0991 142.19L80.0359 141.84ZM75.796 130.491L77.9159 136.166L76.9792 136.516L74.8592 130.841L75.796 130.491ZM71.5564 119.143L73.6764 124.818L72.7396 125.168L70.6197 119.493L71.5564 119.143ZM67.3169 107.795L69.4365 113.469L68.4997 113.818L66.3802 108.145L67.3169 107.795ZM63.077 96.4458L65.197 102.12L64.2602 102.47L62.1403 96.7957L63.077 96.4458ZM58.8375 85.0976L60.9574 90.7721L60.0207 91.1221L57.9007 85.4475L58.8375 85.0976ZM54.598 73.7494L56.7176 79.423L55.7808 79.773L53.6612 74.0993L54.598 73.7494ZM50.3581 62.4002L52.478 68.0748L51.5413 68.4248L49.4213 62.7502L50.3581 62.4002ZM46.1186 51.052L48.2385 56.7266L47.3017 57.0766L45.1818 51.402L46.1186 51.052ZM44.7758 41.8544L45.1257 42.7912L43.2888 43.4774L43.9986 45.3775L43.0619 45.7274L42.0021 42.8906L44.7758 41.8544ZM55.8724 37.7089L56.2224 38.6456L50.6741 40.7184L50.3241 39.7816L55.8724 37.7089ZM66.9681 33.5637L67.3181 34.5004L61.7698 36.5732L61.4198 35.6364L66.9681 33.5637ZM78.0638 29.4184L78.4138 30.3552L72.8655 32.428L72.5155 31.4912L78.0638 29.4184ZM89.1595 25.2732L89.5095 26.21L83.9621 28.2824L83.6121 27.3457L89.1595 25.2732ZM100.256 21.1277L100.606 22.0645L95.0578 24.1372L94.7079 23.2005L100.256 21.1277ZM111.352 16.9825L111.702 17.9193L106.154 19.992L105.804 19.0553L111.352 16.9825ZM122.448 12.8373L122.798 13.774L117.25 15.8465L116.9 14.9097L122.448 12.8373ZM133.544 8.69174L133.894 9.6285L128.346 11.7013L127.996 10.7645L133.544 8.69174ZM144.64 4.54653L144.99 5.48329L139.442 7.55607L139.092 6.6193L144.64 4.54653ZM155.736 0.401325L156.086 1.33809L150.537 3.41086L150.187 2.4741L155.736 0.401325Z" fill="#222222" fill-opacity="0.5"/>
<path d="M24.7044 136.911C27.406 140.128 28.5954 144.797 27.7119 149.086C26.8283 153.357 23.8549 157.266 20.0488 158.96C16.2428 160.672 11.6041 160.171 7.88306 158.182C4.17896 156.176 1.39239 152.683 0.406894 148.653C-0.578601 144.624 0.236981 140.076 2.7347 136.929C5.23242 133.781 9.39528 132.017 13.5921 132C17.789 132 21.9858 133.712 24.7044 136.911Z" fill="#80275B"/>
<path d="M589.058 333.125C624.034 367.589 655.942 415.334 647.338 455.567C638.435 495.605 589.212 527.832 553.457 575.965C517.702 624.099 495.416 688.139 455.1 707.888C415.084 727.83 356.548 703.586 316.33 668.705C275.813 633.63 253.422 588.216 220.677 550.954C187.739 513.991 144.941 485.074 130.452 446.461C115.964 407.847 129.486 359.345 154.308 320.26C179.024 280.684 214.354 250.931 253.591 224.974C292.336 199.123 334.303 177.474 372.722 183.634C410.841 189.602 445.113 223.187 481.174 250.72C517.129 277.76 554.381 298.855 589.058 333.125Z" fill="#DF006E"/>
</g>
</svg>
