<svg width="145" height="502" viewBox="0 0 145 502" fill="none" xmlns="http://www.w3.org/2000/svg">
<mask id="mask0_212_251" style="mask-type:alpha" maskUnits="userSpaceOnUse" x="0" y="0" width="145" height="502">
<rect width="145" height="502" fill="#D9D9D9"/>
</mask>
<g mask="url(#mask0_212_251)">
<path d="M-55.7261 -44.9749C-25.212 -30.8372 -0.991099 8.15442 24.4375 47.2585C49.5084 86.0705 75.7871 124.995 92.5761 173.643C109.44 222.643 116.813 281.367 101.054 325.864C85.0115 370.421 45.8359 400.751 4.68121 424.516C-36.8311 447.988 -80.1135 464.483 -125.696 463.086C-171.353 461.336 -219.026 441.634 -256.281 405.396C-293.252 369.098 -319.448 316.556 -338.365 260.639C-357.281 204.721 -369.203 145.488 -353.861 101.814C-338.804 58.2001 -296.483 30.146 -259.699 9.51031C-222.841 -10.7736 -191.162 -23.3471 -157.277 -35.284C-123.108 -47.2808 -86.4492 -58.7008 -55.7261 -44.9749Z" fill="#DF006E"/>
<path d="M4.40196 347.383C26.7995 375.416 37.2035 413.419 29.4005 447.088C21.5975 480.756 -4.26803 510.09 -37.0695 526.418C-69.871 542.602 -109.609 545.781 -137.208 530.031C-164.808 514.425 -180.414 479.745 -185.182 446.365C-189.951 412.986 -183.882 380.618 -165.819 353.596C-147.757 326.43 -117.701 304.466 -85.188 302.588C-52.82 300.854 -18.14 319.205 4.40196 347.383Z" fill="#7F275A"/>
<path d="M3.15188 349.784L0.596897 355.275L-0.309769 354.853L2.24521 349.362L3.15188 349.784ZM8.26144 338.802L5.70687 344.292L4.8002 343.871L7.35477 338.38L8.26144 338.802ZM13.3714 327.819L10.8164 333.311L9.90975 332.889L12.4647 327.397L13.3714 327.819ZM18.481 316.837L15.926 322.329L15.0193 321.907L17.5743 316.416L18.481 316.837ZM23.5905 305.856L21.0359 311.346L20.1293 310.924L22.6839 305.434L23.5905 305.856ZM28.7005 294.873L26.1455 300.364L25.2388 299.942L27.7938 294.451L28.7005 294.873ZM33.81 283.891L31.2551 289.382L30.3484 288.961L32.9034 283.469L33.81 283.891ZM38.9196 272.909L36.365 278.4L35.4584 277.978L38.0129 272.487L38.9196 272.909ZM44.0296 261.927L41.4746 267.418L40.5679 266.996L43.1229 261.505L44.0296 261.927ZM49.1391 250.945L46.5841 256.436L45.6775 256.014L48.2325 250.523L49.1391 250.945ZM54.2487 239.963L51.6941 245.453L50.7874 245.031L53.342 239.541L54.2487 239.963ZM59.3586 228.98L56.8037 234.472L55.897 234.05L58.452 228.558L59.3586 228.98ZM64.4682 217.998L61.9132 223.49L61.0065 223.068L63.5615 217.576L64.4682 217.998ZM69.5778 207.017L67.0228 212.508L66.1161 212.086L68.6711 206.595L69.5778 207.017ZM74.6873 196.035L72.1327 201.525L71.2261 201.103L73.7806 195.613L74.6873 196.035ZM79.7973 185.052L77.2423 190.543L76.3356 190.122L78.8906 184.63L79.7973 185.052ZM84.9068 174.07L82.3519 179.562L81.4452 179.14L84.0002 173.648L84.9068 174.07ZM90.0164 163.088L87.4618 168.579L86.5552 168.157L89.1097 162.667L90.0164 163.088ZM95.1264 152.106L92.5714 157.597L91.6647 157.175L94.2197 151.684L95.1264 152.106ZM100.236 141.124L97.6809 146.615L96.7743 146.193L99.3292 140.702L100.236 141.124ZM105.345 130.142L102.791 135.632L101.884 135.211L104.439 129.72L105.345 130.142ZM110.455 119.159L107.9 124.651L106.994 124.229L109.549 118.737L110.455 119.159ZM115.565 108.177L113.01 113.669L112.103 113.247L114.658 107.756L115.565 108.177ZM120.675 97.1957L118.12 102.686L117.213 102.264L119.768 96.7738L120.675 97.1957ZM125.785 86.213L123.23 91.7043L122.323 91.2825L124.878 85.7911L125.785 86.213ZM130.894 75.2311L128.339 80.7225L127.432 80.3007L129.987 74.8093L130.894 75.2311ZM134.726 66.995L133.449 69.7398L132.542 69.3179L133.398 67.4798L131.618 66.6518L132.04 65.7451L134.726 66.995ZM8.46044 8.24685L8.0386 9.15352L2.66589 6.65374L3.08774 5.74707L8.46044 8.24685ZM19.2067 13.2468L18.7849 14.1535L13.4122 11.6537L13.834 10.747L19.2067 13.2468ZM29.953 18.2468L29.5312 19.1535L24.1576 16.6533L24.5795 15.7466L29.953 18.2468ZM40.6985 23.2464L40.2766 24.153L34.9039 21.6532L35.3257 20.7466L40.6985 23.2464ZM51.4448 28.2463L51.0229 29.153L45.6493 26.6528L46.0712 25.7461L51.4448 28.2463ZM62.1902 33.2459L61.7683 34.1526L56.3956 31.6528L56.8175 30.7461L62.1902 33.2459ZM72.9365 38.2459L72.5146 39.1525L67.1419 36.6528L67.5638 35.7461L72.9365 38.2459ZM83.6828 43.2458L83.2609 44.1525L77.8873 41.6523L78.3092 40.7457L83.6828 43.2458ZM94.4282 48.2454L94.0063 49.1521L88.6336 46.6523L89.0555 45.7456L94.4282 48.2454ZM105.174 53.2454L104.753 54.152L99.3799 51.6523L99.8018 50.7456L105.174 53.2454ZM115.921 58.2454L115.499 59.152L110.125 56.6518L110.547 55.7452L115.921 58.2454ZM126.666 63.2449L126.244 64.1516L120.872 61.6518L121.293 60.7451L126.666 63.2449Z" fill="#222222" fill-opacity="0.5"/>
<path d="M101.704 75.9113C104.406 79.1279 105.595 83.7971 104.712 88.0858C103.828 92.3572 100.855 96.2655 97.0488 97.9603C93.2428 99.6723 88.6041 99.1708 84.8831 97.1821C81.179 95.1761 78.3924 91.6828 77.4069 87.6535C76.4214 83.6241 77.237 79.076 79.7347 75.9286C82.2324 72.7812 86.3953 71.0173 90.5921 71C94.789 71 98.9858 72.712 101.704 75.9113Z" fill="#FFCAE3"/>
</g>
</svg>
