<svg width="70" height="70" viewBox="0 0 70 70" fill="none" xmlns="http://www.w3.org/2000/svg">
<circle cx="35" cy="35" r="35" fill="#DF006E"/>
<path d="M33.5215 51.5905C33.5215 52.5914 34.2562 53.4009 35.1647 53.4009C36.0732 53.4009 36.8079 52.5914 36.8079 51.5905V10.4892C36.8079 9.4882 36.0732 8.67871 35.1647 8.67871C34.2562 8.67871 33.5215 9.4882 33.5215 10.4892V51.5905Z" fill="white"/>
<path d="M41.4082 51.5953C41.4082 52.5938 42.1429 53.4013 43.0514 53.4013C43.9599 53.4013 44.6946 52.5938 44.6946 51.5953V44.1888C44.6946 43.1903 43.9599 42.3828 43.0514 42.3828C42.1429 42.3828 41.4082 43.1903 41.4082 44.1888V51.5953Z" fill="white"/>
<path d="M48.6377 51.7221C48.6377 52.6505 49.5193 53.4013 50.6095 53.4013C51.6997 53.4013 52.5814 52.6505 52.5814 51.7221V50.5434C52.5814 49.615 51.6997 48.8643 50.6095 48.8643C49.5193 48.8643 48.6377 49.615 48.6377 50.5434V51.7221Z" fill="white"/>
<path d="M25.6338 51.5953C25.6338 52.5938 26.3685 53.4013 27.277 53.4013C28.1855 53.4013 28.9202 52.5938 28.9202 51.5953V44.1888C28.9202 43.1903 28.1855 42.3828 27.277 42.3828C26.3685 42.3828 25.6338 43.1903 25.6338 44.1888V51.5953Z" fill="white"/>
<path d="M17.7461 51.7221C17.7461 52.6505 18.6277 53.4013 19.7179 53.4013C20.8081 53.4013 21.6898 52.6505 21.6898 51.7221V50.5434C21.6898 49.615 20.8081 48.8643 19.7179 48.8643C18.6277 48.8643 17.7461 49.615 17.7461 50.5434V51.7221Z" fill="white"/>
</svg>
