<svg width="600" height="99" viewBox="0 0 600 99" fill="none" xmlns="http://www.w3.org/2000/svg">
<path d="M49.1088 70.3104C49.1088 70.3104 48.5475 71.0587 47.4874 72.0253C41.875 77.3571 34.2358 80.1321 26.5031 80.1321C11.8173 80.1321 0 68.3148 0 53.629V26.5334C0 11.8476 11.8173 0.0302734 26.5031 0.0302734C34.1423 0.0302734 44.1511 3.46009 49.1088 9.85203C49.8571 10.8186 50.2624 11.8476 50.2624 12.8141C50.2624 15.4956 47.8616 17.6782 45.3048 17.6782C44.0576 17.6782 42.7168 17.117 41.6879 15.7763L40.9396 15.0279C37.1356 11.411 31.7726 9.60258 26.5343 9.60258C17.1803 9.60258 9.57231 17.2417 9.57231 26.5646V53.6602C9.57231 63.0142 17.2115 70.6222 26.5343 70.6222C31.6791 70.6222 38.2581 68.6266 41.6879 64.4173C42.748 63.1701 43.964 62.6089 45.3048 62.6089C47.8927 62.6089 50.4495 64.7915 50.4495 67.3794C50.4495 68.346 50.0753 69.375 49.1088 70.3415V70.3104Z" fill="#80275B"/>
<path d="M83.6246 52.1939H71.402V74.4254C71.402 77.5746 69.0323 79.196 66.6314 79.196C64.2305 79.196 61.8608 77.5746 61.8608 74.4254V5.76666C61.8608 3.17871 64.0435 0.996094 66.6314 0.996094H83.5934C97.718 0.996094 109.255 12.4392 109.255 26.5638C109.255 40.6884 97.718 52.2251 83.5934 52.2251L83.6246 52.1939ZM99.7447 26.6262C99.7447 17.6463 92.4798 10.506 83.6246 10.506H71.402V42.6528H83.6246C92.4798 42.6528 99.6512 35.5125 99.6512 26.5326L99.7447 26.6262Z" fill="#80275B"/>
<path d="M159.735 79.1982C157.927 79.1982 156.118 78.2316 155.339 75.9554L148.573 55.7507H125.406L118.64 75.9554C117.891 78.2316 116.052 79.1982 114.243 79.1982C111.78 79.1982 109.286 77.3897 109.286 74.6147C109.286 74.0535 109.379 73.461 109.566 72.8998L132.453 4.24106C133.419 1.55957 135.134 0.25 136.942 0.25C138.751 0.25 140.559 1.59075 141.526 4.24106L164.412 72.8998C164.599 73.461 164.693 74.0535 164.693 74.6147C164.693 77.3897 162.198 79.1982 159.735 79.1982ZM136.942 20.8289L128.555 46.2096H145.423L136.942 20.8289Z" fill="#80275B"/>
<path d="M194.719 80.133C187.486 80.133 177.633 76.8903 173.267 70.4048C172.613 69.4382 172.301 68.5028 172.301 67.6298C172.301 64.9483 174.764 62.7657 177.258 62.7657C179.753 62.7657 180.221 64.1064 181.655 65.5407C184.991 69.0641 189.949 70.5919 194.719 70.5919C205.414 70.5919 211.401 64.7612 211.401 58.0887C211.401 38.9129 172.768 46.3649 172.768 20.7036C172.768 7.35852 184.305 0 195.655 0C203.668 0 213.022 4.30286 217.98 10.8819C218.728 11.8485 219.04 12.8774 219.04 13.844C219.04 16.4319 216.764 18.4275 214.176 18.4275C211.9 18.4275 210.933 17.0867 209.499 15.6524C205.882 11.942 200.924 9.54113 195.655 9.54113C187.735 9.54113 182.31 14.2182 182.31 20.7036C182.31 37.2915 220.942 30.8995 220.942 58.0887C220.942 72.1197 208.345 80.133 194.719 80.133Z" fill="#80275B"/>
<path d="M274.822 80.1314C263.473 80.1314 254.306 70.9644 254.306 59.6148V41.9668C254.306 30.6173 263.473 21.4503 274.822 21.4503C278.844 21.4503 282.648 22.604 285.798 24.5995V5.76666C285.798 2.61746 288.199 0.996094 290.568 0.996094C292.938 0.996094 295.339 2.61746 295.339 5.76666V59.646C295.339 70.9956 286.172 80.1625 274.822 80.1625V80.1314ZM285.798 41.998C285.798 35.8867 280.934 31.0226 274.822 31.0226C268.711 31.0226 263.847 35.8867 263.847 41.998V59.646C263.847 65.7573 268.711 70.6214 274.822 70.6214C280.934 70.6214 285.798 65.7573 285.798 59.646V41.998Z" fill="#80275B"/>
<path d="M343.013 53.4412H316.292V59.646C316.292 65.352 321.811 70.6215 328.203 70.6215C331.82 70.6215 334.969 69.5613 337.463 67.0046C338.523 65.4767 339.833 64.822 341.267 64.822C343.762 64.822 346.225 67.0046 346.225 69.5925C346.225 70.5591 345.944 71.401 345.258 72.3676C345.258 72.3676 344.884 73.0223 344.011 73.8954C339.989 78.1982 334.002 80.1938 328.172 80.1938C317.196 80.1938 306.72 71.3074 306.72 59.6772V42.0292C306.72 30.6797 315.887 21.5127 327.236 21.5127C338.586 21.5127 347.753 30.6797 347.753 42.0292V48.7018C347.753 51.2898 345.57 53.4724 342.982 53.4724L343.013 53.4412ZM338.243 41.9981C338.243 35.8868 333.379 31.0226 327.267 31.0226C321.156 31.0226 316.292 35.8868 316.292 41.9981V43.9001H338.243V41.9981Z" fill="#80275B"/>
<path d="M422.616 79.196H386.853C384.265 79.196 382.082 77.0133 382.082 74.4254V5.76666C382.082 2.61746 384.483 0.996094 386.853 0.996094C389.222 0.996094 391.623 2.61746 391.623 5.76666V69.6548H422.616C425.765 69.6548 427.387 72.0245 427.387 74.4254C427.387 76.8263 425.765 79.196 422.616 79.196Z" fill="#80275B"/>
<path d="M440.731 16.2431C438.361 16.2431 435.96 14.6218 435.96 11.4726V5.73541C435.96 2.58621 438.361 0.964844 440.731 0.964844C443.101 0.964844 445.502 2.58621 445.502 5.73541V11.4726C445.502 14.6218 443.101 16.2431 440.731 16.2431ZM440.731 79.1959C438.361 79.1959 435.96 77.5745 435.96 74.4253V27.2185C435.96 24.0693 438.361 22.448 440.731 22.448C443.101 22.448 445.502 24.0693 445.502 27.2185V74.4253C445.502 77.5745 443.101 79.1959 440.731 79.1959Z" fill="#80275B"/>
<path d="M493.207 53.4404H466.517V59.6452C466.517 65.3512 472.036 70.6206 478.428 70.6206C482.045 70.6206 485.194 69.5605 487.688 67.0037C488.749 65.4759 490.089 64.8211 491.492 64.8211C493.956 64.8211 496.45 67.0037 496.45 69.5917C496.45 70.5583 496.169 71.4001 495.484 72.3667C495.484 72.3667 495.109 73.0215 494.236 73.8946C490.245 78.1974 484.227 80.1929 478.397 80.1929C467.421 80.1929 456.945 71.3066 456.945 59.6764V42.0284C456.945 30.6788 466.112 21.5119 477.461 21.5119C488.811 21.5119 497.978 30.6788 497.978 42.0284V48.701C497.978 51.2889 495.795 53.4715 493.207 53.4715V53.4404ZM488.437 41.9972C488.437 35.8859 483.573 31.0218 477.461 31.0218C471.35 31.0218 466.486 35.8859 466.486 41.9972V43.8992H488.406V41.9972H488.437ZM483.947 16.336C483.167 16.336 482.419 16.0553 481.546 15.3694L471.163 7.07546C470.009 6.20241 469.635 5.17347 469.635 4.20688C469.635 2.11781 471.444 0.21582 473.533 0.21582C474.187 0.21582 475.061 0.496442 475.902 1.18241L486.285 9.47633C487.345 10.3494 487.813 11.3783 487.813 12.3449C487.813 14.3404 485.911 16.336 483.916 16.336H483.947Z" fill="#80275B"/>
<path d="M528.006 98.28C522.175 98.28 514.38 95.6921 510.919 90.4538C510.264 89.4872 509.952 88.6453 509.952 87.6788C509.952 85.0908 512.416 82.9082 514.91 82.9082C516.344 82.9082 517.685 83.563 518.714 85.0908C518.714 85.0908 518.807 85.1843 518.995 85.3714C521.271 87.7411 524.701 88.7077 527.943 88.7077C534.055 88.7077 538.919 83.8436 538.919 77.7323V75.0508C535.77 77.0463 531.966 78.2 527.943 78.2C516.594 78.2 507.427 69.033 507.427 57.6834V41.9374C507.427 30.5879 516.594 21.4209 527.943 21.4209C539.293 21.4209 548.46 30.5879 548.46 41.9374V77.7011C548.46 89.0507 539.293 98.2177 527.943 98.2177L528.006 98.28ZM538.95 41.9998C538.95 35.8885 534.086 31.0244 527.974 31.0244C521.863 31.0244 516.999 35.8885 516.999 41.9998V57.7458C516.999 63.8571 521.863 68.7212 527.974 68.7212C534.086 68.7212 538.95 63.8571 538.95 57.7458V41.9998Z" fill="#80275B"/>
<path d="M595.229 53.4412H568.539V59.646C568.539 65.352 574.058 70.6215 580.45 70.6215C584.067 70.6215 587.216 69.5613 589.71 67.0046C590.771 65.4767 592.111 64.822 593.514 64.822C595.978 64.822 598.472 67.0046 598.472 69.5925C598.472 70.5591 598.191 71.401 597.505 72.3676C597.505 72.3676 597.131 73.0223 596.258 73.8954C592.267 78.1982 586.249 80.1938 580.419 80.1938C569.443 80.1938 558.967 71.3074 558.967 59.6772V42.0292C558.967 30.6797 568.134 21.5127 579.483 21.5127C590.833 21.5127 600 30.6797 600 42.0292V48.7018C600 51.2898 597.817 53.4724 595.229 53.4724V53.4412ZM590.459 41.9981C590.459 35.8868 585.595 31.0226 579.483 31.0226C573.372 31.0226 568.508 35.8868 568.508 41.9981V43.9001H590.428V41.9981H590.459Z" fill="#80275B"/>
</svg>
