<svg width="70" height="70" viewBox="0 0 70 70" fill="none" xmlns="http://www.w3.org/2000/svg">
<path d="M35 70C54.33 70 70 54.33 70 35C70 15.67 54.33 0 35 0C15.67 0 0 15.67 0 35C0 54.33 15.67 70 35 70Z" fill="white"/>
<path d="M59.1868 60.1279C58.9465 60.1279 58.7063 60.0278 58.5261 59.8476L53.2801 54.6016C52.9197 54.2412 52.9197 53.6405 53.2801 53.2801C53.6405 52.9197 54.2412 52.9197 54.6016 53.2801L59.8476 58.5261C60.208 58.8865 60.208 59.4872 59.8476 59.8476C59.6674 60.0278 59.4271 60.1279 59.1868 60.1279Z" fill="#75B843"/>
<path d="M10.8114 60.1279C10.5712 60.1279 10.3309 60.0278 10.1507 59.8476C9.79027 59.4872 9.79027 58.8865 10.1507 58.5261L15.3967 53.2801C15.7571 52.9197 16.3578 52.9197 16.7182 53.2801C17.0786 53.6405 17.0786 54.2412 16.7182 54.6016L11.4722 59.8476C11.292 60.0278 11.0517 60.1279 10.8114 60.1279Z" fill="#75B843"/>
<path d="M53.9613 16.9795C53.7211 16.9795 53.4808 16.8793 53.3006 16.6991C52.9402 16.3387 52.9402 15.738 53.3006 15.3776L58.5466 10.1316C58.907 9.77123 59.5077 9.77123 59.8681 10.1316C60.2285 10.492 60.2285 11.0927 59.8681 11.4531L54.6221 16.6991C54.4419 16.8793 54.2016 16.9795 53.9613 16.9795Z" fill="#75B843"/>
<path d="M16.0379 16.9795C15.7976 16.9795 15.5573 16.8793 15.3771 16.6991L10.1311 11.4531C9.77074 11.0927 9.77074 10.492 10.1311 10.1316C10.4916 9.77123 11.0922 9.77123 11.4527 10.1316L16.6987 15.3776C17.0591 15.738 17.0591 16.3387 16.6987 16.6991C16.5184 16.8793 16.2782 16.9795 16.0379 16.9795Z" fill="#75B843"/>
<path d="M52.0389 36.7014C52.0389 41.7672 47.3335 45.8719 41.5269 45.8719C39.2042 45.8719 36.9416 45.2112 35.0195 43.9097C33.0973 45.2112 30.8347 45.8919 28.512 45.8719C22.7054 45.8719 18 41.7672 18 36.7014C18 34.2987 19.0612 32.1162 20.7832 30.4743C19.6419 29.1728 19.0011 27.5109 19.0011 25.7689C19.0011 22.2449 21.6842 19.2415 25.3484 18.2604C26.4897 14.5361 30.3942 11.793 35.0195 11.793C39.6447 11.793 43.5492 14.5361 44.6905 18.2604C48.3747 19.2615 51.0378 22.2449 51.0378 25.7689C51.0378 27.4909 50.397 29.1728 49.2557 30.4743C50.9777 32.1162 52.0389 34.2987 52.0389 36.7014Z" fill="#75B843"/>
<path d="M40.4861 29.294C40.0856 28.9736 39.485 29.0337 39.1646 29.4341L35.9409 33.4187V27.1315C35.9409 26.6109 35.5204 26.1904 34.9998 26.1904C34.4792 26.1904 34.0588 26.6109 34.0588 27.1315V39.2454L30.8351 35.2608C30.5147 34.8603 29.914 34.8003 29.5136 35.1206C29.1131 35.441 29.053 36.0417 29.3734 36.4421L34.0588 42.2288V58.187C34.0588 58.7076 34.4792 59.1281 34.9998 59.1281C35.5204 59.1281 35.9409 58.7076 35.9409 58.187V36.4021L40.6263 30.6155C40.9466 30.215 40.8866 29.6143 40.4861 29.294Z" fill="#007C3C"/>
<path d="M41.5075 46.8332C40.9869 46.8332 40.5665 46.4127 40.5665 45.8921C40.5665 45.3715 40.9869 44.951 41.5075 44.951C46.7936 44.951 51.0785 41.2668 51.0785 36.7216C51.0785 34.6793 50.1975 32.697 48.5756 31.1953C48.2152 30.8549 48.1751 30.2742 48.5155 29.8938C49.5167 28.7725 50.0573 27.3109 50.0773 25.8091C50.0773 22.7857 47.7947 20.1226 44.4108 19.2016C44.0905 19.1215 43.8502 18.8812 43.7501 18.5609C42.6889 15.157 39.0848 12.7542 34.9801 12.7542C30.8754 12.7542 27.2512 15.1369 26.21 18.5609C26.1099 18.8612 25.8697 19.1015 25.5493 19.2016C22.1654 20.1226 19.8828 22.7657 19.8828 25.8091C19.8828 27.3109 20.4435 28.7525 21.4446 29.8938C21.785 30.2742 21.7449 30.8549 21.3845 31.1953C19.7827 32.717 18.8817 34.6793 18.8817 36.7216C18.8817 41.2668 23.1866 44.951 28.4526 44.951C28.9732 44.951 29.3937 45.3715 29.3937 45.8921C29.3937 46.4127 28.9732 46.8332 28.4526 46.8332C22.1254 46.8332 16.9795 42.288 16.9795 36.7216C16.9795 34.419 17.8605 32.2165 19.4623 30.4344C18.5213 29.0929 18.0007 27.471 17.9806 25.8091C17.9806 22.0448 20.6036 18.7811 24.5481 17.5197C26.0098 13.5952 30.2146 10.8721 34.96 10.8721C39.7055 10.8721 43.9103 13.5752 45.3719 17.5197C49.3164 18.7811 51.9394 22.0448 51.9394 25.7891C51.9394 27.451 51.3988 29.0729 50.4578 30.4144C52.0596 32.1964 52.9406 34.399 52.9406 36.7016C52.9406 42.288 47.7947 46.8131 41.4875 46.8131" fill="#007C3C"/>
</svg>
