<svg width="70" height="70" viewBox="0 0 70 70" fill="none" xmlns="http://www.w3.org/2000/svg">
<path d="M35 70C54.33 70 70 54.33 70 35C70 15.67 54.33 0 35 0C15.67 0 0 15.67 0 35C0 54.33 15.67 70 35 70Z" fill="#E75F0D"/>
<path d="M51.0181 48.1749H51.0781L51.5387 48.0347C51.5387 47.9546 51.5387 47.8145 51.5587 47.6543C51.3785 47.8145 51.1983 47.9947 51.0181 48.1749Z" fill="white"/>
<path d="M49.6766 39.8857H48.8356C48.3159 39.8857 47.8945 40.3071 47.8945 40.8268V41.4475C47.8945 41.9673 48.3159 42.3886 48.8356 42.3886H49.6766C50.1963 42.3886 50.6176 41.9673 50.6176 41.4475V40.8268C50.6176 40.3071 50.1963 39.8857 49.6766 39.8857Z" fill="white"/>
<path d="M45.0914 42.3891H45.9524C46.473 42.3891 46.8935 41.9886 46.8935 41.448V40.8073C46.8935 40.2867 46.493 39.8662 45.9524 39.8662H45.0914C45.0914 39.8662 45.0313 39.8662 44.9913 39.8662L44.5107 42.1688C44.6709 42.289 44.8712 42.3691 45.0914 42.3691V42.3891Z" fill="white"/>
<path d="M44.5107 42.1683L44.5308 42.1884L44.9913 39.8857H44.9713L44.5107 42.1683Z" fill="white"/>
<path d="M49.6766 44.291H48.8356C48.3159 44.291 47.8945 44.7123 47.8945 45.2321V45.8528C47.8945 46.3725 48.3159 46.7939 48.8356 46.7939H49.6766C50.1963 46.7939 50.6176 46.3725 50.6176 45.8528V45.2321C50.6176 44.7123 50.1963 44.291 49.6766 44.291Z" fill="white"/>
<path d="M45.0919 46.794H45.5124L44.4111 46.5137C44.5713 46.6939 44.8116 46.794 45.0719 46.794H45.0919Z" fill="white"/>
<path d="M45.9725 46.7944C46.4931 46.7944 46.9135 46.3939 46.9135 45.8533V45.2126C46.9135 44.692 46.5131 44.2715 45.9725 44.2715H45.1115C44.5909 44.2715 44.1704 44.6719 44.1704 45.2126V45.8533C44.1704 46.1136 44.2705 46.3338 44.4307 46.514L45.532 46.7944H45.9725Z" fill="white"/>
<path d="M49.6766 35.4805H48.8356C48.3159 35.4805 47.8945 35.9018 47.8945 36.4215V37.0423C47.8945 37.562 48.3159 37.9833 48.8356 37.9833H49.6766C50.1963 37.9833 50.6176 37.562 50.6176 37.0423V36.4215C50.6176 35.9018 50.1963 35.4805 49.6766 35.4805Z" fill="white"/>
<path d="M45.9723 37.9838C46.4929 37.9838 46.9133 37.5834 46.9133 37.0427V36.402C46.9133 35.8814 46.5129 35.4609 45.9723 35.4609H45.9122L45.3916 37.9638H45.9723V37.9838Z" fill="white"/>
<path d="M45.3721 37.9833H45.3921L45.9127 35.4805H45.8927L45.3721 37.9833Z" fill="white"/>
<path d="M53.5011 45.9725C53.5011 45.3718 53.5011 44.2705 53.5011 44.1304C53.5011 36.6819 52.0395 27.0709 47.6945 26.6904L47.5343 27.4913L47.1739 29.1933C50.0172 29.5137 50.6579 35.04 51.1985 38.8043C51.639 42.3884 51.599 45.0114 51.599 45.0114C51.599 45.4318 51.5589 46.8935 51.5189 47.6544C51.5189 47.8146 51.5189 47.9547 51.4989 48.0348L51.0383 48.175H50.9783C49.1362 49.977 47.4943 52.1796 47.4943 54.1818C47.4943 51.9393 45.452 49.4564 43.3495 47.5343L42.9691 49.4164L41.6276 56.024C41.5275 56.5045 41.3272 56.905 41.0469 57.2654C40.9668 57.3655 40.9068 57.4456 40.8066 57.5257H52.8604C52.8604 57.5257 55.964 57.3054 55.964 54.2019V44.1103C55.964 44.1103 54.8627 44.8312 53.4411 45.9524L53.5011 45.9725Z" fill="white"/>
<path d="M43.0897 20.042H38.4043V27.1501H43.5101C43.8305 27.1501 44.0908 27.4104 44.0908 27.7308V28.1312C44.0908 28.4516 43.8305 28.7119 43.5101 28.7119H38.4043V35.9802H41.8482C42.0485 35.9802 42.2086 36.0803 42.3088 36.2205C42.3688 36.3206 42.4289 36.4207 42.4289 36.5609V36.9613C42.4289 37.2016 42.2887 37.3818 42.1085 37.4819C42.0284 37.522 41.9483 37.542 41.8482 37.542H38.4043V44.8103H40.5267C40.8471 44.8103 41.1074 45.0706 41.1074 45.391V45.7914C41.1074 46.1118 40.8471 46.3721 40.5267 46.3721H38.4043V57.5849C38.7046 57.6049 39.005 57.5649 39.2853 57.4648C39.6457 57.3446 39.9461 57.1244 40.2064 56.824C40.4066 56.5838 40.5467 56.2834 40.6268 55.943L47.0141 24.8875C47.5347 22.4447 45.6125 20.1021 43.1097 20.1021L43.0897 20.042Z" fill="white"/>
<path d="M43.2293 18.3206L46.2127 11.9133C46.2928 11.7131 46.3329 11.5128 46.3329 11.3326C46.3529 10.6719 45.7722 10.0111 45.0114 10.0111C44.6309 10.0311 44.2305 10.2113 43.9902 10.5117L40.8066 14.276L39.9256 8.90986C39.8054 8.26913 39.2648 7.76855 38.604 7.76855H38.4238H38.3838V18.3206H43.2093H43.2293Z" fill="white"/>
<path d="M23.6267 36.7217H23.2462C22.7857 36.7217 22.4053 37.042 22.4053 37.4625V38.4236C22.4053 38.8441 22.7657 39.1645 23.2462 39.1645H23.6267C23.887 39.1645 24.1272 39.0644 24.2674 38.9042C24.2674 38.6439 24.3074 38.3636 24.3275 38.1033C24.3475 37.7829 24.3675 37.4825 24.4076 37.1822C24.2874 36.9219 23.9871 36.7417 23.6267 36.7417V36.7217Z" fill="white"/>
<path d="M21.0437 36.7217H20.6632C20.2027 36.7217 19.8223 37.042 19.8223 37.4625V38.4236C19.8223 38.8441 20.1827 39.1645 20.6632 39.1645H21.0437C21.5042 39.1645 21.8846 38.8441 21.8846 38.4236V37.4625C21.8846 37.042 21.5242 36.7217 21.0437 36.7217Z" fill="white"/>
<path d="M23.2267 40.2061C22.7662 40.2061 22.3857 40.5264 22.3857 40.9469V41.908C22.3857 42.3285 22.7462 42.6488 23.2267 42.6488H23.6071C23.7673 42.6488 23.9275 42.6088 24.0476 42.5487C24.0877 41.8279 24.1277 41.1271 24.1678 40.4263C24.0276 40.3062 23.8274 40.2461 23.6071 40.2461H23.2267V40.2061Z" fill="white"/>
<path d="M21.0437 40.2061H20.6632C20.2027 40.2061 19.8223 40.5264 19.8223 40.9469V41.908C19.8223 42.3285 20.1827 42.6488 20.6632 42.6488H21.0437C21.5042 42.6488 21.8846 42.3285 21.8846 41.908V40.9469C21.8846 40.5264 21.5242 40.2061 21.0437 40.2061Z" fill="white"/>
<path d="M23.2267 43.71C22.7662 43.71 22.3857 44.0303 22.3857 44.4508V45.4119C22.3857 45.8324 22.7462 46.1528 23.2267 46.1528H23.6071C23.7073 46.1528 23.8074 46.1528 23.9075 46.1127C23.9275 45.3518 23.9675 44.591 23.9876 43.8301C23.8674 43.77 23.7473 43.75 23.6071 43.75H23.2267V43.71Z" fill="white"/>
<path d="M21.0437 43.71H20.6632C20.2027 43.71 19.8223 44.0303 19.8223 44.4508V45.4119C19.8223 45.8324 20.1827 46.1528 20.6632 46.1528H21.0437C21.5042 46.1528 21.8846 45.8324 21.8846 45.4119V44.4508C21.8846 44.0303 21.5242 43.71 21.0437 43.71Z" fill="white"/>
<path d="M23.2267 47.1943C22.7662 47.1943 22.3857 47.5147 22.3857 47.9352V48.8963C22.3857 49.3168 22.7462 49.6371 23.2267 49.6371H23.6071C23.6071 49.6371 23.7273 49.6371 23.7873 49.6371C23.7873 48.8763 23.8274 48.0753 23.8474 47.2744C23.7673 47.2544 23.6872 47.2344 23.5871 47.2344H23.2067L23.2267 47.1943Z" fill="white"/>
<path d="M21.0437 47.1943H20.6632C20.2027 47.1943 19.8223 47.5147 19.8223 47.9352V48.8963C19.8223 49.3168 20.1827 49.6371 20.6632 49.6371H21.0437C21.5042 49.6371 21.8846 49.3168 21.8846 48.8963V47.9352C21.8846 47.5147 21.5242 47.1943 21.0437 47.1943Z" fill="white"/>
<path d="M23.2267 50.6768C22.7662 50.6768 22.3857 50.9971 22.3857 51.4176V52.3787C22.3857 52.7992 22.7462 53.1196 23.2267 53.1196H23.6071C23.6071 53.1196 23.6872 53.1196 23.7273 53.1196C23.7273 52.3787 23.7473 51.5778 23.7673 50.7168C23.7073 50.7168 23.6672 50.7168 23.6071 50.7168H23.2267V50.6768Z" fill="white"/>
<path d="M21.0437 50.6768H20.6632C20.2027 50.6768 19.8223 50.9971 19.8223 51.4176V52.3787C19.8223 52.7992 20.1827 53.1196 20.6632 53.1196H21.0437C21.5042 53.1196 21.8846 52.7992 21.8846 52.3787V51.4176C21.8846 50.9971 21.5242 50.6768 21.0437 50.6768Z" fill="white"/>
<path d="M23.7077 54.742H18.9623V35.1196C18.9623 34.8593 19.1625 34.659 19.4228 34.659H21.8856C22.6665 34.659 23.2872 34.0383 23.2872 33.2574V29.9737C23.2872 29.7134 23.4874 29.5132 23.7477 29.5132H25.7901C26.1305 28.492 26.5509 27.5509 27.0515 26.71H23.7477C21.9257 26.71 20.464 28.1716 20.464 29.9937V31.8759H19.4228C17.6007 31.8759 16.139 33.3375 16.139 35.1596V54.782H15.3581C14.5773 54.782 13.9565 55.4028 13.9565 56.1836C13.9565 56.9645 14.5773 57.5852 15.3581 57.5852H23.6676C23.6676 57.5852 23.6676 56.464 23.6877 54.782L23.7077 54.742Z" fill="white"/>
<path d="M36.0209 7.76855C35.5604 7.76855 35.22 8.12897 35.22 8.56947V20.9436C31.8762 22.7657 29.6536 24.5678 28.192 26.9505C27.7114 27.7314 27.311 28.5523 26.9706 29.4734C26.1296 31.756 25.6891 34.5592 25.4288 38.1633C25.0083 43.9099 24.8682 50.9179 24.8081 54.7222C24.7881 56.4442 24.7881 57.5254 24.7881 57.5254H36.982V55.5832H27.7114C27.1908 55.5832 26.7704 55.1827 26.7704 54.6421V54.0014C26.7704 53.4808 27.1708 53.0603 27.7114 53.0603H36.982V51.1581H27.7915C27.2709 51.1581 26.8504 50.7577 26.8504 50.2171V49.5763C26.8504 49.0557 27.2509 48.6353 27.7915 48.6353H36.982V46.7331H27.9317C27.4111 46.7331 26.9906 46.3326 26.9906 45.792V45.1513C26.9906 44.6307 27.3911 44.2102 27.9317 44.2102H36.982V42.308H28.1519C27.6313 42.308 27.2109 41.9076 27.2109 41.367V40.7262C27.2109 40.2056 27.6113 39.7851 28.1519 39.7851H36.982V37.883H28.4723C27.9517 37.883 27.5312 37.4825 27.5312 36.9419V36.3012C27.5312 35.7806 27.9317 35.3601 28.4723 35.3601H36.982V33.4579H29.2532C28.7326 33.4579 28.3121 33.0575 28.3121 32.5168V31.8761C28.3121 31.3555 28.7126 30.935 29.2532 30.935H36.982V29.0329H30.875C30.3544 29.0329 29.934 28.6324 29.934 28.0918V27.451C29.934 26.9305 30.3344 26.51 30.875 26.51H36.982V7.76855H36.0209Z" fill="white"/>
</svg>
