<svg width="70" height="70" viewBox="0 0 70 70" fill="none" xmlns="http://www.w3.org/2000/svg">
<path d="M35 70C54.33 70 70 54.33 70 35C70 15.67 54.33 0 35 0C15.67 0 0 15.67 0 35C0 54.33 15.67 70 35 70Z" fill="#DF006E"/>
<path d="M58.5273 35.98C58.4072 35.4594 58.0668 35.0189 57.6263 34.7586L50.398 30.5738C50.1177 30.4136 49.7773 30.3135 49.4369 30.3135C49.0965 30.3135 48.7762 30.3936 48.4758 30.5738L44.1909 33.0566C44.7516 33.4971 45.152 34.1178 45.3122 34.8186C45.3723 35.0789 45.3923 35.3192 45.3923 35.5394V36.7809L49.4169 34.4582L54.7029 37.5017V45.3106C54.7029 46.3718 55.5639 47.2528 56.6452 47.2528C57.7264 47.2528 58.5874 46.3918 58.5874 45.3106V36.4205C58.5874 36.2803 58.5874 36.1401 58.5273 35.98Z" fill="white"/>
<path d="M49.4368 28.3317C52.0598 28.3317 54.2023 26.1892 54.2023 23.5662C54.2023 20.9432 52.0598 18.8008 49.4368 18.8008C46.8138 18.8008 44.6714 20.9432 44.6714 23.5662C44.6714 26.1892 46.8138 28.3317 49.4368 28.3317Z" fill="white"/>
<path d="M33.5987 26.3697C34.4997 26.65 35.4809 26.65 36.3819 26.3697C38.4042 25.749 39.7658 23.9269 39.7658 21.8045C39.7658 19.1815 37.6233 17.0391 35.0003 17.0391C32.3773 17.0391 30.2349 19.1815 30.2349 21.8045C30.2349 23.9269 31.5964 25.749 33.6187 26.3697H33.5987Z" fill="white"/>
<path d="M44.0909 35.1196C43.9708 34.599 43.6304 34.1585 43.1899 33.8982L35.9617 29.7134C35.6813 29.5532 35.3409 29.4531 35.0006 29.4531C34.6602 29.4531 34.3398 29.5332 34.0395 29.7134L26.8112 33.8982C26.3507 34.1585 26.0303 34.599 25.9102 35.1196C25.8701 35.2798 25.8501 35.4199 25.8501 35.5601V51.0178C25.8501 52.079 26.7111 52.96 27.7923 52.96C28.8736 52.96 29.7345 52.099 29.7345 51.0178V36.6413L35.0206 33.5979L40.3066 36.6413V51.0178C40.3066 52.079 41.1676 52.96 42.2488 52.96C43.3301 52.96 44.1911 52.099 44.1911 51.0178V35.5601C44.1911 35.4199 44.1911 35.2798 44.131 35.1196H44.0909Z" fill="white"/>
<path d="M11.4736 35.98C11.5938 35.4594 11.9342 35.0189 12.3747 34.7586L19.6029 30.5738C19.8833 30.4136 20.2236 30.3135 20.564 30.3135C20.9044 30.3135 21.2248 30.3936 21.5251 30.5738L25.81 33.0566C25.2494 33.4971 24.8489 34.1178 24.6887 34.8186C24.6287 35.0789 24.6087 35.3192 24.6087 35.5394V36.7809L20.5841 34.4582L15.298 37.5017V45.3106C15.298 46.3718 14.437 47.2528 13.3558 47.2528C12.2746 47.2528 11.4136 46.3918 11.4136 45.3106V36.4205C11.4136 36.2803 11.4136 36.1401 11.4736 35.98Z" fill="white"/>
<path d="M20.5638 28.3317C17.9408 28.3317 15.7983 26.1892 15.7983 23.5662C15.7983 20.9432 17.9408 18.8008 20.5638 18.8008C23.1868 18.8008 25.3292 20.9432 25.3292 23.5662C25.3292 26.1892 23.1868 28.3317 20.5638 28.3317Z" fill="white"/>
</svg>
