<svg width="183" height="57" viewBox="0 0 183 57" fill="none" xmlns="http://www.w3.org/2000/svg">
<mask id="mask0_293_508" style="mask-type:luminance" maskUnits="userSpaceOnUse" x="0" y="0" width="183" height="57">
<path d="M182.07 0H0V56.69H182.07V0Z" fill="white"/>
</mask>
<g mask="url(#mask0_293_508)">
<path d="M182.07 0H22.67C10.15 0 0 10.15 0 22.67V56.69H159.4C171.92 56.69 182.07 46.54 182.07 34.02V0Z" fill="#E0006D"/>
<path d="M23.8999 30.5802C23.8999 31.0302 24.2599 31.3902 24.7099 31.3902C25.1599 31.3902 25.5199 31.0302 25.5199 30.5802V12.2202C25.5199 11.7702 25.1599 11.4102 24.7099 11.4102C24.2599 11.4102 23.8999 11.7702 23.8999 12.2202V30.5802Z" fill="white"/>
<path d="M27.2998 30.5802C27.2998 31.0302 27.6598 31.3902 28.1098 31.3902C28.5598 31.3902 28.9198 31.0302 28.9198 30.5802V27.2602C28.9198 26.8102 28.5598 26.4502 28.1098 26.4502C27.6598 26.4502 27.2998 26.8102 27.2998 27.2602V30.5802Z" fill="white"/>
<path d="M30.7002 30.5802C30.7002 31.0302 31.0602 31.3902 31.5102 31.3902C31.9602 31.3902 32.3202 31.0302 32.3202 30.5802V30.0102C32.3202 29.5602 31.9602 29.2002 31.5102 29.2002C31.0602 29.2002 30.7002 29.5602 30.7002 30.0102V30.5802Z" fill="white"/>
<path d="M20.5 30.5802C20.5 31.0302 20.86 31.3902 21.31 31.3902C21.76 31.3902 22.12 31.0302 22.12 30.5802V27.2602C22.12 26.8102 21.76 26.4502 21.31 26.4502C20.86 26.4502 20.5 26.8102 20.5 27.2602V30.5802Z" fill="white"/>
<path d="M17.1001 30.5802C17.1001 31.0302 17.4601 31.3902 17.9101 31.3902C18.3601 31.3902 18.7201 31.0302 18.7201 30.5802V30.0102C18.7201 29.5602 18.3601 29.2002 17.9101 29.2002C17.4601 29.2002 17.1001 29.5602 17.1001 30.0102V30.5802Z" fill="white"/>
<path d="M16.3101 45.3H11.9201C11.6001 45.3 11.3301 45.03 11.3301 44.72V36.29C11.3301 35.9 11.6201 35.71 11.9201 35.71C12.2201 35.71 12.5101 35.91 12.5101 36.29V44.13H16.3101C16.7001 44.13 16.9001 44.42 16.9001 44.72C16.9001 45.02 16.7001 45.3 16.3101 45.3Z" fill="white"/>
<path d="M18.5402 45.2997C18.2502 45.2997 17.9502 45.0997 17.9502 44.7097V38.9197C17.9502 38.5297 18.2402 38.3297 18.5402 38.3297C18.8402 38.3297 19.1202 38.5297 19.1202 38.9197V44.7097C19.1202 45.0997 18.8302 45.2997 18.5402 45.2997ZM18.5402 37.5797C18.2502 37.5797 17.9502 37.3797 17.9502 36.9997V36.2997C17.9502 35.9097 18.2402 35.7197 18.5402 35.7197C18.8402 35.7197 19.1202 35.9197 19.1202 36.2997V36.9997C19.1202 37.3897 18.8302 37.5797 18.5402 37.5797Z" fill="white"/>
<path d="M23.8398 37.5904C23.7498 37.5904 23.6498 37.5504 23.5498 37.4704L22.2798 36.4504C22.1398 36.3404 22.0898 36.2203 22.0898 36.1003C22.0898 35.8403 22.3098 35.6104 22.5698 35.6104C22.6498 35.6104 22.7598 35.6404 22.8598 35.7304L24.1398 36.7504C24.2698 36.8504 24.3298 36.9803 24.3298 37.1003C24.3298 37.3403 24.0998 37.5904 23.8498 37.5904" fill="white"/>
<path d="M30.59 40.7402C30.59 39.9902 29.99 39.3902 29.24 39.3902C28.49 39.3902 27.89 39.9902 27.89 40.7402V42.6702C27.89 43.4202 28.49 44.0202 29.24 44.0202C29.99 44.0202 30.59 43.4202 30.59 42.6702V40.7402ZM29.24 47.6402C28.53 47.6402 27.57 47.3202 27.14 46.6802C27.06 46.5602 27.02 46.4602 27.02 46.3402C27.02 46.0202 27.32 45.7502 27.63 45.7502C27.8 45.7502 27.97 45.8302 28.1 46.0202C28.1 46.0202 28.11 46.0302 28.13 46.0502C28.41 46.3402 28.83 46.4602 29.23 46.4602C29.98 46.4602 30.58 45.8602 30.58 45.1102V44.7802C30.19 45.0302 29.73 45.1702 29.23 45.1702C27.84 45.1702 26.71 44.0502 26.71 42.6502V40.7202C26.71 39.3302 27.83 38.2002 29.23 38.2002C30.63 38.2002 31.74 39.3202 31.74 40.7202V45.1102C31.74 46.5002 30.62 47.6302 29.23 47.6302" fill="white"/>
<path d="M36.9098 40.7405C36.9098 39.9905 36.3098 39.3905 35.5598 39.3905C34.8098 39.3905 34.2198 39.9905 34.2198 40.7405V40.9705H36.9098V40.7405ZM37.4898 42.1405H34.2098V42.9005C34.2098 43.6005 34.8898 44.2505 35.6698 44.2505C36.1098 44.2505 36.4998 44.1205 36.8098 43.8105C36.9398 43.6205 37.0998 43.5405 37.2798 43.5405C37.5898 43.5405 37.8898 43.8105 37.8898 44.1305C37.8898 44.2505 37.8498 44.3505 37.7698 44.4705C37.7698 44.4705 37.7198 44.5505 37.6198 44.6605C37.1298 45.1905 36.3898 45.4305 35.6798 45.4305C34.3398 45.4305 33.0498 44.3405 33.0498 42.9105V40.7505C33.0498 39.3605 34.1698 38.2305 35.5698 38.2305C36.9698 38.2305 38.0898 39.3505 38.0898 40.7505V41.5705C38.0898 41.8905 37.8198 42.1505 37.5098 42.1505" fill="white"/>
<path d="M24.3898 40.7405C24.3898 39.9905 23.7898 39.3905 23.0398 39.3905C22.2898 39.3905 21.6998 39.9905 21.6998 40.7405V40.9705H24.3898V40.7405ZM24.9698 42.1405H21.6898V42.9005C21.6898 43.6005 22.3698 44.2505 23.1498 44.2505C23.5898 44.2505 23.9798 44.1205 24.2898 43.8105C24.4198 43.6205 24.5798 43.5405 24.7598 43.5405C25.0698 43.5405 25.3698 43.8105 25.3698 44.1305C25.3698 44.2505 25.3298 44.3505 25.2498 44.4705C25.2498 44.4705 25.1998 44.5505 25.0998 44.6605C24.6098 45.1905 23.8698 45.4305 23.1598 45.4305C21.8098 45.4305 20.5298 44.3405 20.5298 42.9105V40.7505C20.5298 39.3605 21.6498 38.2305 23.0498 38.2305C24.4498 38.2305 25.5698 39.3505 25.5698 40.7505V41.5705C25.5698 41.8905 25.2998 42.1505 24.9898 42.1505" fill="white"/>
</g>
<path d="M63.4802 15.9299V18.0599H66.9202V20.0399H63.4802V22.3499H67.3602V24.4099H60.9102V13.8799H67.3602V15.9299H63.4802Z" fill="white"/>
<path d="M76.47 16.8895C77.05 17.5195 77.35 18.3995 77.35 19.5095V24.3995H74.8V19.8595C74.8 19.2995 74.65 18.8595 74.36 18.5495C74.07 18.2395 73.68 18.0895 73.19 18.0895C72.7 18.0895 72.31 18.2495 72.02 18.5495C71.73 18.8595 71.58 19.2995 71.58 19.8595V24.3995H69.02V16.0295H71.58V17.1395C71.84 16.7695 72.19 16.4795 72.63 16.2595C73.07 16.0395 73.57 15.9395 74.11 15.9395C75.09 15.9395 75.87 16.2595 76.46 16.8895H76.47Z" fill="white"/>
<path d="M80.5902 24.1499C80.0202 23.8999 79.5702 23.5599 79.2402 23.1199C78.9102 22.6899 78.7202 22.1999 78.6802 21.6599H81.2202C81.2502 21.9499 81.3902 22.1799 81.6202 22.3699C81.8602 22.5499 82.1602 22.6399 82.5102 22.6399C82.8302 22.6399 83.0802 22.5799 83.2502 22.4499C83.4202 22.3199 83.5102 22.1599 83.5102 21.9599C83.5102 21.7199 83.3902 21.5399 83.1302 21.4299C82.8702 21.3199 82.4702 21.1899 81.9202 21.0499C81.3202 20.9099 80.8202 20.7599 80.4202 20.6099C80.0202 20.4499 79.6702 20.2099 79.3802 19.8699C79.0902 19.5399 78.9402 19.0799 78.9402 18.5099C78.9402 18.0299 79.0702 17.5899 79.3402 17.1999C79.6002 16.8099 79.9902 16.4899 80.5102 16.2599C81.0302 16.0299 81.6402 15.9199 82.3502 15.9199C83.4002 15.9199 84.2302 16.1799 84.8302 16.6999C85.4302 17.2199 85.7802 17.9099 85.8702 18.7699H83.5002C83.4602 18.4799 83.3302 18.2499 83.1202 18.0799C82.9002 17.9099 82.6202 17.8299 82.2702 17.8299C81.9702 17.8299 81.7402 17.8899 81.5802 17.9999C81.4202 18.1199 81.3402 18.2699 81.3402 18.4699C81.3402 18.7099 81.4702 18.8899 81.7202 19.0099C81.9702 19.1299 82.3702 19.2499 82.9102 19.3699C83.5302 19.5299 84.0302 19.6899 84.4302 19.8399C84.8202 19.9999 85.1602 20.2399 85.4602 20.5899C85.7502 20.9299 85.9102 21.3999 85.9202 21.9799C85.9202 22.4699 85.7802 22.9099 85.5102 23.2899C85.2302 23.6799 84.8402 23.9799 84.3202 24.1999C83.8002 24.4199 83.2102 24.5299 82.5302 24.5299C81.8002 24.5299 81.1502 24.4099 80.5802 24.1499H80.5902Z" fill="white"/>
<path d="M95.35 20.8302H89.54C89.58 21.3502 89.75 21.7502 90.04 22.0202C90.33 22.3002 90.7 22.4302 91.13 22.4302C91.77 22.4302 92.21 22.1602 92.46 21.6202H95.19C95.05 22.1702 94.8 22.6602 94.43 23.1102C94.06 23.5602 93.61 23.9002 93.06 24.1502C92.51 24.4002 91.89 24.5302 91.21 24.5302C90.39 24.5302 89.66 24.3602 89.02 24.0002C88.38 23.6502 87.88 23.1502 87.52 22.5002C87.16 21.8502 86.98 21.0902 86.98 20.2202C86.98 19.3502 87.16 18.5902 87.51 17.9402C87.86 17.2902 88.36 16.7902 89 16.4402C89.64 16.0902 90.38 15.9102 91.2 15.9102C92.02 15.9102 92.73 16.0802 93.36 16.4202C93.99 16.7602 94.48 17.2502 94.84 17.8802C95.2 18.5102 95.37 19.2502 95.37 20.0902C95.37 20.3302 95.35 20.5802 95.33 20.8402L95.35 20.8302ZM92.77 19.4102C92.77 18.9702 92.62 18.6202 92.32 18.3602C92.02 18.1002 91.65 17.9702 91.2 17.9702C90.75 17.9702 90.41 18.0902 90.11 18.3502C89.81 18.6002 89.63 18.9602 89.56 19.4202H92.77V19.4102Z" fill="white"/>
<path d="M96.93 14.7599C96.64 14.4999 96.5 14.1699 96.5 13.7799C96.5 13.3899 96.64 13.0499 96.93 12.7799C97.22 12.5199 97.58 12.3799 98.03 12.3799C98.48 12.3799 98.83 12.5099 99.12 12.7799C99.41 13.0499 99.55 13.3799 99.55 13.7799C99.55 14.1799 99.41 14.4999 99.12 14.7599C98.83 15.0199 98.47 15.1599 98.03 15.1599C97.59 15.1599 97.21 15.0299 96.93 14.7599ZM99.31 16.0299V24.3999H96.74V16.0299H99.31Z" fill="white"/>
<path d="M105.9 16.2699C106.35 16.5099 106.69 16.8199 106.93 17.2099V16.0299H109.49V24.3799C109.49 25.1499 109.34 25.8499 109.03 26.4699C108.72 27.0899 108.26 27.5899 107.63 27.9599C107 28.3299 106.23 28.5199 105.3 28.5199C104.06 28.5199 103.05 28.2299 102.28 27.6399C101.51 27.0599 101.07 26.2599 100.96 25.2599H103.49C103.57 25.5799 103.76 25.8299 104.06 26.0199C104.36 26.2099 104.73 26.2999 105.17 26.2999C105.7 26.2999 106.12 26.1499 106.44 25.8399C106.75 25.5399 106.91 25.0499 106.91 24.3799V23.1999C106.66 23.5899 106.31 23.9099 105.87 24.1499C105.43 24.3999 104.91 24.5199 104.33 24.5199C103.64 24.5199 103.01 24.3399 102.45 23.9899C101.89 23.6399 101.45 23.1299 101.12 22.4799C100.79 21.8299 100.63 21.0699 100.63 20.2099C100.63 19.3499 100.79 18.5899 101.12 17.9499C101.45 17.2999 101.89 16.7999 102.45 16.4499C103.01 16.0999 103.63 15.9199 104.33 15.9199C104.92 15.9199 105.44 16.0399 105.88 16.2799L105.9 16.2699ZM106.4 18.6999C106.05 18.3299 105.61 18.1499 105.1 18.1499C104.59 18.1499 104.16 18.3299 103.8 18.6999C103.44 19.0699 103.27 19.5699 103.27 20.2099C103.27 20.8499 103.45 21.3599 103.8 21.7299C104.15 22.1099 104.59 22.2899 105.1 22.2899C105.61 22.2899 106.04 22.1099 106.4 21.7399C106.76 21.3699 106.93 20.8599 106.93 20.2199C106.93 19.5799 106.75 19.0799 106.4 18.7099V18.6999Z" fill="white"/>
<path d="M118.8 16.8895C119.38 17.5195 119.68 18.3995 119.68 19.5095V24.3995H117.13V19.8595C117.13 19.2995 116.98 18.8595 116.69 18.5495C116.4 18.2395 116.01 18.0895 115.52 18.0895C115.03 18.0895 114.64 18.2495 114.35 18.5495C114.06 18.8595 113.92 19.2995 113.92 19.8595V24.3995H111.35V16.0295H113.92V17.1395C114.18 16.7695 114.53 16.4795 114.97 16.2595C115.41 16.0395 115.9 15.9395 116.46 15.9395C117.44 15.9395 118.22 16.2595 118.81 16.8895H118.8Z" fill="white"/>
<path d="M129.31 20.8302H123.5C123.54 21.3502 123.71 21.7502 124 22.0202C124.29 22.3002 124.66 22.4302 125.09 22.4302C125.73 22.4302 126.17 22.1602 126.42 21.6202H129.15C129.01 22.1702 128.76 22.6602 128.39 23.1102C128.02 23.5602 127.57 23.9002 127.02 24.1502C126.47 24.4002 125.85 24.5302 125.18 24.5302C124.36 24.5302 123.63 24.3602 122.99 24.0002C122.35 23.6502 121.85 23.1502 121.49 22.5002C121.13 21.8502 120.95 21.0902 120.95 20.2202C120.95 19.3502 121.13 18.5902 121.48 17.9402C121.84 17.2902 122.33 16.7902 122.97 16.4402C123.61 16.0902 124.35 15.9102 125.18 15.9102C126.01 15.9102 126.71 16.0802 127.34 16.4202C127.97 16.7602 128.46 17.2502 128.82 17.8802C129.18 18.5102 129.35 19.2502 129.35 20.0902C129.35 20.3302 129.33 20.5802 129.31 20.8402V20.8302ZM126.73 19.4102C126.73 18.9702 126.58 18.6202 126.28 18.3602C125.98 18.1002 125.61 17.9702 125.16 17.9702C124.71 17.9702 124.37 18.0902 124.07 18.3502C123.77 18.6102 123.59 18.9602 123.52 19.4202H126.73V19.4102Z" fill="white"/>
<path d="M143.87 16.8895C144.48 17.5195 144.79 18.3995 144.79 19.5095V24.3995H142.24V19.8595C142.24 19.3195 142.1 18.8995 141.81 18.6095C141.53 18.3195 141.13 18.1695 140.63 18.1695C140.13 18.1695 139.74 18.3195 139.45 18.6095C139.16 18.8995 139.02 19.3195 139.02 19.8595V24.3995H136.47V19.8595C136.47 19.3195 136.33 18.8995 136.04 18.6095C135.75 18.3195 135.36 18.1695 134.86 18.1695C134.36 18.1695 133.97 18.3195 133.68 18.6095C133.39 18.8995 133.25 19.3195 133.25 19.8595V24.3995H130.68V16.0295H133.25V17.0795C133.51 16.7295 133.85 16.4495 134.27 16.2495C134.69 16.0495 135.17 15.9395 135.7 15.9395C136.33 15.9395 136.89 16.0695 137.39 16.3395C137.88 16.6095 138.27 16.9995 138.55 17.4995C138.84 17.0395 139.23 16.6695 139.73 16.3795C140.23 16.0895 140.77 15.9495 141.37 15.9495C142.41 15.9495 143.24 16.2595 143.85 16.8895H143.87Z" fill="white"/>
<path d="M154.44 20.8302H148.63C148.67 21.3502 148.84 21.7502 149.13 22.0202C149.42 22.3002 149.79 22.4302 150.22 22.4302C150.86 22.4302 151.3 22.1602 151.55 21.6202H154.28C154.14 22.1702 153.89 22.6602 153.52 23.1102C153.15 23.5602 152.7 23.9002 152.15 24.1502C151.6 24.4002 150.98 24.5302 150.31 24.5302C149.49 24.5302 148.76 24.3602 148.12 24.0002C147.48 23.6502 146.98 23.1502 146.62 22.5002C146.26 21.8502 146.08 21.0902 146.08 20.2202C146.08 19.3502 146.26 18.5902 146.61 17.9402C146.97 17.2902 147.46 16.7902 148.1 16.4402C148.74 16.0902 149.48 15.9102 150.31 15.9102C151.14 15.9102 151.84 16.0802 152.47 16.4202C153.1 16.7602 153.59 17.2502 153.95 17.8802C154.31 18.5102 154.48 19.2502 154.48 20.0902C154.48 20.3302 154.46 20.5802 154.44 20.8402V20.8302ZM151.86 19.4102C151.86 18.9702 151.71 18.6202 151.41 18.3602C151.11 18.1002 150.74 17.9702 150.29 17.9702C149.84 17.9702 149.5 18.0902 149.2 18.3502C148.9 18.6102 148.72 18.9602 148.65 19.4202H151.86V19.4102Z" fill="white"/>
<path d="M163.28 16.8895C163.86 17.5195 164.16 18.3995 164.16 19.5095V24.3995H161.61V19.8595C161.61 19.2995 161.46 18.8595 161.17 18.5495C160.88 18.2395 160.49 18.0895 160 18.0895C159.51 18.0895 159.12 18.2495 158.83 18.5495C158.54 18.8595 158.4 19.2995 158.4 19.8595V24.3995H155.83V16.0295H158.4V17.1395C158.66 16.7695 159.01 16.4795 159.45 16.2595C159.89 16.0395 160.38 15.9395 160.94 15.9395C161.92 15.9395 162.7 16.2595 163.29 16.8895H163.28Z" fill="white"/>
<path d="M170.61 22.2302V24.4002H169.31C168.38 24.4002 167.65 24.1702 167.14 23.7202C166.62 23.2602 166.36 22.5202 166.36 21.4902V18.1602H165.34V16.0302H166.36V13.9902H168.93V16.0302H170.61V18.1602H168.93V21.5202C168.93 21.7702 168.99 21.9502 169.11 22.0602C169.23 22.1702 169.43 22.2302 169.71 22.2302H170.63H170.61Z" fill="white"/>
<path d="M61.15 34.34C61.6 33.53 62.23 32.89 63.03 32.43C63.83 31.97 64.75 31.75 65.77 31.75C67.02 31.75 68.09 32.08 68.98 32.74C69.87 33.4 70.46 34.3 70.77 35.44H67.95C67.74 35 67.44 34.67 67.06 34.44C66.68 34.21 66.24 34.1 65.75 34.1C64.96 34.1 64.32 34.37 63.83 34.92C63.34 35.47 63.1 36.21 63.1 37.13C63.1 38.05 63.35 38.79 63.83 39.34C64.32 39.89 64.96 40.17 65.75 40.17C66.24 40.17 66.68 40.05 67.06 39.83C67.45 39.6 67.74 39.26 67.95 38.83H70.77C70.47 39.97 69.87 40.87 68.98 41.52C68.09 42.17 67.02 42.5 65.77 42.5C64.75 42.5 63.84 42.27 63.03 41.82C62.22 41.36 61.6 40.73 61.15 39.92C60.7 39.11 60.48 38.18 60.48 37.14C60.48 36.1 60.71 35.17 61.15 34.36V34.34Z" fill="white"/>
<path d="M73.9398 41.9894C73.2898 41.6394 72.7698 41.1394 72.3998 40.4894C72.0198 39.8394 71.8398 39.0794 71.8398 38.2094C71.8398 37.3394 72.0299 36.5894 72.4099 35.9394C72.7899 35.2794 73.3098 34.7794 73.9698 34.4294C74.6298 34.0794 75.3698 33.8994 76.1898 33.8994C77.0098 33.8994 77.7499 34.0794 78.4099 34.4294C79.0699 34.7794 79.5898 35.2794 79.9698 35.9394C80.3498 36.5894 80.5398 37.3494 80.5398 38.2094C80.5398 39.0694 80.3498 39.8294 79.9598 40.4794C79.5698 41.1294 79.0498 41.6394 78.3798 41.9894C77.7098 42.3394 76.9698 42.5194 76.1498 42.5194C75.3298 42.5194 74.5898 42.3494 73.9398 41.9894ZM77.3998 39.7594C77.7398 39.3994 77.9198 38.8794 77.9198 38.2194C77.9198 37.5594 77.7498 37.0294 77.4198 36.6694C77.0898 36.3094 76.6698 36.1294 76.1798 36.1294C75.6898 36.1294 75.2598 36.3094 74.9298 36.6594C74.5998 37.0094 74.4298 37.5294 74.4298 38.2094C74.4298 38.8894 74.5898 39.3894 74.9198 39.7494C75.2398 40.1094 75.6498 40.2894 76.1398 40.2894C76.6298 40.2894 77.0498 40.1094 77.3898 39.7494L77.3998 39.7594Z" fill="white"/>
<path d="M95.0599 34.8895C95.6699 35.5195 95.9799 36.3895 95.9799 37.5095V42.3995H93.4299V37.8595C93.4299 37.3195 93.2899 36.8995 92.9999 36.6095C92.7199 36.3195 92.3199 36.1695 91.8199 36.1695C91.3199 36.1695 90.9299 36.3195 90.6399 36.6095C90.3499 36.9095 90.2099 37.3195 90.2099 37.8595V42.3995H87.6599V37.8595C87.6599 37.3195 87.5199 36.8995 87.2299 36.6095C86.9499 36.3195 86.5499 36.1695 86.0499 36.1695C85.5499 36.1695 85.1599 36.3195 84.8699 36.6095C84.5899 36.9095 84.4399 37.3195 84.4399 37.8595V42.3995H81.8799V34.0295H84.4399V35.0795C84.6999 34.7295 85.0399 34.4495 85.4599 34.2495C85.8799 34.0495 86.3499 33.9395 86.8799 33.9395C87.5099 33.9395 88.0699 34.0695 88.5699 34.3495C89.0699 34.6195 89.4499 34.9995 89.7299 35.4995C90.0199 35.0395 90.4099 34.6695 90.9199 34.3795C91.4199 34.0895 91.9599 33.9495 92.5599 33.9495C93.5999 33.9495 94.4299 34.2695 95.0399 34.8995L95.0599 34.8895Z" fill="white"/>
<path d="M110.95 34.8895C111.56 35.5195 111.87 36.3895 111.87 37.5095V42.3995H109.32V37.8595C109.32 37.3195 109.18 36.8995 108.89 36.6095C108.61 36.3195 108.21 36.1695 107.71 36.1695C107.21 36.1695 106.82 36.3195 106.53 36.6095C106.24 36.9095 106.1 37.3195 106.1 37.8595V42.3995H103.55V37.8595C103.55 37.3195 103.41 36.8995 103.12 36.6095C102.83 36.3195 102.44 36.1695 101.94 36.1695C101.44 36.1695 101.05 36.3195 100.76 36.6095C100.47 36.9095 100.33 37.3195 100.33 37.8595V42.3995H97.7598V34.0295H100.33V35.0795C100.59 34.7295 100.93 34.4495 101.35 34.2495C101.77 34.0495 102.25 33.9395 102.78 33.9395C103.41 33.9395 103.97 34.0695 104.47 34.3495C104.96 34.6195 105.35 34.9995 105.63 35.4995C105.92 35.0395 106.31 34.6695 106.81 34.3795C107.31 34.0895 107.85 33.9495 108.45 33.9495C109.49 33.9495 110.32 34.2695 110.93 34.8995L110.95 34.8895Z" fill="white"/>
<path d="M121.93 34.0295V42.3995H119.36V41.2595C119.1 41.6295 118.75 41.9295 118.3 42.1495C117.85 42.3695 117.36 42.4895 116.82 42.4895C116.18 42.4895 115.61 42.3495 115.13 42.0595C114.64 41.7795 114.26 41.3595 113.99 40.8195C113.72 40.2795 113.59 39.6495 113.59 38.9095V34.0195H116.14V38.5595C116.14 39.1195 116.28 39.5595 116.57 39.8695C116.86 40.1795 117.25 40.3295 117.74 40.3295C118.23 40.3295 118.64 40.1695 118.93 39.8695C119.22 39.5595 119.36 39.1195 119.36 38.5595V34.0195H121.93V34.0295Z" fill="white"/>
<path d="M131.22 34.8895C131.8 35.5295 132.1 36.3995 132.1 37.5095V42.3995H129.55V37.8595C129.55 37.2995 129.4 36.8595 129.11 36.5595C128.82 36.2495 128.43 36.0895 127.94 36.0895C127.45 36.0895 127.06 36.2495 126.77 36.5595C126.48 36.8695 126.34 37.3095 126.34 37.8595V42.3995H123.77V34.0295H126.34V35.1395C126.6 34.7695 126.95 34.4795 127.39 34.2595C127.83 34.0495 128.32 33.9395 128.88 33.9395C129.86 33.9395 130.64 34.2595 131.23 34.8895H131.22Z" fill="white"/>
<path d="M133.86 35.9402C134.19 35.2902 134.63 34.7902 135.19 34.4402C135.75 34.0902 136.37 33.9102 137.07 33.9102C137.66 33.9102 138.18 34.0302 138.62 34.2702C139.07 34.5102 139.41 34.8202 139.65 35.2202V34.0302H142.21V42.4002H139.65V41.2202C139.4 41.6102 139.05 41.9202 138.61 42.1602C138.17 42.4002 137.65 42.5202 137.06 42.5202C136.38 42.5202 135.76 42.3402 135.2 41.9902C134.64 41.6302 134.2 41.1302 133.87 40.4702C133.54 39.8202 133.38 39.0602 133.38 38.2002C133.38 37.3402 133.54 36.5902 133.87 35.9402H133.86ZM139.11 36.7002C138.76 36.3302 138.32 36.1502 137.81 36.1502C137.3 36.1502 136.87 36.3302 136.51 36.7002C136.15 37.0602 135.98 37.5702 135.98 38.2102C135.98 38.8502 136.16 39.3602 136.51 39.7302C136.86 40.1102 137.3 40.2902 137.81 40.2902C138.32 40.2902 138.75 40.1102 139.11 39.7402C139.47 39.3702 139.64 38.8602 139.64 38.2302C139.64 37.6002 139.46 37.0802 139.11 36.7102V36.7002Z" fill="white"/>
<path d="M146.64 31.2998V42.3998H144.07V31.2998H146.64Z" fill="white"/>
<mask id="mask1_293_508" style="mask-type:luminance" maskUnits="userSpaceOnUse" x="0" y="0" width="183" height="57">
<path d="M182.07 0H0V56.69H182.07V0Z" fill="white"/>
</mask>
<g mask="url(#mask1_293_508)">
<path d="M49.4102 10.21V46.48" stroke="white" stroke-miterlimit="10" stroke-linecap="round"/>
</g>
</svg>
