<svg width="600" height="123" viewBox="0 0 600 123" fill="none" xmlns="http://www.w3.org/2000/svg">
<path d="M37.3422 58.414C35.9996 58.414 34.657 57.7086 34.0881 56.0247L29.0819 41.0741H11.924L6.91775 56.0247C6.34885 57.7086 5.00627 58.414 3.66368 58.414C1.82046 58.414 0 57.0714 0 55.0234C0 54.591 0.0682672 54.1814 0.204802 53.7491L17.1578 2.95825C17.8633 0.978497 19.1376 0 20.4802 0C21.8228 0 23.1654 0.978497 23.8708 2.95825L40.8011 53.7491C40.9376 54.1814 41.0059 54.591 41.0059 55.0234C41.0059 57.0714 39.1626 58.414 37.3422 58.414ZM20.4802 15.2464L14.2679 34.0198H26.7608L20.4802 15.2464Z" fill="#E75F0D"/>
<path d="M55.9552 59.1882C55.5228 59.1882 55.045 59.0516 54.5443 58.9151C54.5443 58.9151 53.9754 58.7103 53.1335 58.1414C49.0374 55.5245 47.3535 50.6547 47.3535 45.9443V4.09648C47.3535 1.77539 49.1057 0.569336 50.8807 0.569336C52.6556 0.569336 54.4078 1.77539 54.4078 4.09648V45.9443C54.4078 48.2654 55.045 50.9506 57.093 52.2932C58.7086 52.9303 59.3458 54.2046 59.3458 55.479C59.3458 57.3222 58.0032 59.2109 55.9552 59.2109V59.1882Z" fill="#E75F0D"/>
<path d="M69.222 11.8562C67.447 11.8562 65.6948 10.6501 65.6948 8.32905V4.09648C65.6948 1.77539 67.447 0.569336 69.222 0.569336C70.9969 0.569336 72.7491 1.77539 72.7491 4.09648V8.32905C72.7491 10.6501 70.9742 11.8562 69.222 11.8562ZM69.222 58.4145C67.447 58.4145 65.6948 57.2084 65.6948 54.8873V19.9572C65.6948 17.6362 67.447 16.4301 69.222 16.4301C70.9969 16.4301 72.7491 17.6362 72.7491 19.9572V54.8873C72.7491 57.2084 70.9742 58.4145 69.222 58.4145Z" fill="#E75F0D"/>
<path d="M125.657 58.4144C123.882 58.4144 122.13 57.2084 122.13 54.8873V29.4918C122.13 25.8282 119.103 22.7789 115.417 22.7789C111.73 22.7789 108.704 25.8054 108.704 29.4918V54.8873C108.704 57.3449 106.929 58.5509 105.177 58.5509C103.425 58.5509 101.65 57.3449 101.65 54.8873V29.4918C101.65 25.8282 98.6231 22.7789 94.9367 22.7789C91.2502 22.7789 88.2237 25.8054 88.2237 29.4918V54.8873C88.2237 57.2084 86.4715 58.4144 84.6966 58.4144C82.9216 58.4144 81.1694 57.2084 81.1694 54.8873V29.4918C81.1694 21.8687 87.3135 15.7246 94.9367 15.7246C99.0327 15.7246 102.628 17.4996 105.177 20.3213C107.725 17.4996 111.321 15.7246 115.417 15.7246C123.04 15.7246 129.184 21.8687 129.184 29.4918V54.8873C129.184 57.2084 127.409 58.4144 125.657 58.4144Z" fill="#E75F0D"/>
<path d="M163.75 39.3675H143.998V43.9642C143.998 48.1968 148.094 52.088 152.827 52.088C155.512 52.088 157.833 51.3143 159.676 49.4028C160.45 48.265 161.429 47.7872 162.498 47.7872C164.341 47.7872 166.162 49.4028 166.162 51.3143C166.162 52.0197 165.957 52.6569 165.456 53.3623C165.456 53.3623 165.183 53.863 164.546 54.5001C161.588 57.6859 157.128 59.165 152.827 59.165C144.703 59.165 136.943 52.6114 136.943 43.987V30.9252C136.943 22.5283 143.725 15.7471 152.121 15.7471C160.518 15.7471 167.3 22.5283 167.3 30.9252V35.8632C167.3 37.7746 165.684 39.3903 163.772 39.3903L163.75 39.3675ZM160.223 30.9024C160.223 26.3968 156.627 22.7786 152.099 22.7786C147.57 22.7786 143.975 26.374 143.975 30.9024V32.3133H160.2V30.9024H160.223Z" fill="#E75F0D"/>
<path d="M201.137 58.4144C199.362 58.4144 197.61 57.2083 197.61 54.8873V30.9027C197.61 26.3971 194.015 22.7789 189.486 22.7789C184.958 22.7789 181.362 26.3743 181.362 30.9027V54.8873C181.362 57.2083 179.587 58.4144 177.835 58.4144C176.083 58.4144 174.308 57.2083 174.308 54.8873V30.9027C174.308 22.5058 181.089 15.7246 189.486 15.7246C197.883 15.7246 204.664 22.5058 204.664 30.9027V54.8873C204.664 57.2083 202.889 58.4144 201.137 58.4144Z" fill="#E75F0D"/>
<path d="M238.594 56.2971C236.204 58.072 233.224 59.1188 230.265 59.1188C223.416 59.1188 218.136 54.3173 218.136 47.7637V23.4833H213.13C210.809 23.4833 209.603 21.7083 209.603 19.9562C209.603 18.204 210.809 16.429 213.13 16.429H218.136V10.285C218.136 7.96387 219.911 6.75781 221.664 6.75781C223.416 6.75781 225.191 7.96387 225.191 10.285V16.429H236.273C238.594 16.429 239.8 18.204 239.8 19.9562C239.8 21.7083 238.594 23.4833 236.273 23.4833H225.191V47.7637C225.191 49.9482 226.806 52.0645 230.265 52.0645C233.724 52.0645 234.862 49.4476 237.046 49.4476C239.368 49.4476 240.642 51.4274 240.642 53.3388C240.642 54.7497 239.663 55.5234 238.594 56.2971Z" fill="#E75F0D"/>
<path d="M259.825 59.1198C252.634 59.1198 245.58 54.819 245.58 46.3539C245.58 38.5259 252.065 34.6346 258.847 33.2238L266.97 31.4488V29.2643C266.97 25.3048 264.922 22.7789 259.984 22.7789C254.773 22.7789 254.204 27.0797 250.882 27.0797C248.971 27.0797 247.355 25.6006 247.355 23.5526C247.355 22.4148 247.924 21.4363 248.629 20.6626C251.451 17.4085 255.684 15.7246 259.984 15.7246C268.723 15.7246 274.025 21.368 274.025 29.2643V45.5574C274.025 53.7495 267.312 59.0971 259.848 59.0971L259.825 59.1198ZM266.948 38.4576L259.529 40.1415C254.864 41.12 252.612 43.6687 252.612 46.2856C252.612 49.6762 255.16 52.0655 259.734 52.0655C264.035 52.0655 266.925 49.2438 266.925 45.5802V38.4576H266.948Z" fill="#E75F0D"/>
<path d="M307.953 56.2971C305.564 58.072 302.583 59.1188 299.625 59.1188C292.775 59.1188 287.496 54.3173 287.496 47.7637V23.4833H282.49C280.168 23.4833 278.962 21.7083 278.962 19.9562C278.962 18.204 280.168 16.429 282.49 16.429H287.496V10.285C287.496 7.96387 289.271 6.75781 291.023 6.75781C292.775 6.75781 294.55 7.96387 294.55 10.285V16.429H305.632C307.953 16.429 309.159 18.204 309.159 19.9562C309.159 21.7083 307.953 23.4833 305.632 23.4833H294.55V47.7637C294.55 49.9482 296.166 52.0645 299.625 52.0645C303.084 52.0645 304.221 49.4476 306.406 49.4476C308.727 49.4476 310.001 51.4274 310.001 53.3388C310.001 54.7497 309.023 55.5234 307.953 56.2971Z" fill="#E75F0D"/>
<path d="M319.854 11.8562C318.102 11.8562 316.327 10.6501 316.327 8.32905V4.09648C316.327 1.77539 318.102 0.569336 319.854 0.569336C321.606 0.569336 323.381 1.77539 323.381 4.09648V8.32905C323.381 10.6501 321.606 11.8562 319.854 11.8562ZM319.854 58.4145C318.102 58.4145 316.327 57.2084 316.327 54.8873V19.9572C316.327 17.6362 318.102 16.4301 319.854 16.4301C321.606 16.4301 323.381 17.6362 323.381 19.9572V54.8873C323.381 57.2084 321.606 58.4145 319.854 58.4145Z" fill="#E75F0D"/>
<path d="M347.024 59.1201C338.627 59.1201 331.846 52.3389 331.846 43.942V30.8802C331.846 22.4834 338.627 15.7021 347.024 15.7021C355.421 15.7021 362.202 22.4834 362.202 30.8802V43.942C362.202 52.3389 355.421 59.1201 347.024 59.1201ZM355.125 30.903C355.125 26.3974 351.53 22.7792 347.001 22.7792C342.473 22.7792 338.878 26.3746 338.878 30.903V43.9648C338.878 48.4704 342.473 52.0886 347.001 52.0886C351.53 52.0886 355.125 48.4932 355.125 43.9648V30.903Z" fill="#E75F0D"/>
<path d="M396.746 58.4144C394.993 58.4144 393.218 57.2083 393.218 54.8873V30.9027C393.218 26.3971 389.623 22.7789 385.095 22.7789C380.566 22.7789 376.971 26.3743 376.971 30.9027V54.8873C376.971 57.2083 375.219 58.4144 373.444 58.4144C371.669 58.4144 369.917 57.2083 369.917 54.8873V30.9027C369.917 22.5058 376.698 15.7246 385.095 15.7246C393.491 15.7246 400.273 22.5058 400.273 30.9027V54.8873C400.273 57.2083 398.498 58.4144 396.746 58.4144Z" fill="#E75F0D"/>
<path d="M434.27 59.1882C433.837 59.1882 433.359 59.0516 432.859 58.9151C432.859 58.9151 432.29 58.7103 431.448 58.1414C427.352 55.5245 425.668 50.6547 425.668 45.9443V4.09648C425.668 1.77539 427.443 0.569336 429.195 0.569336C430.947 0.569336 432.722 1.77539 432.722 4.09648V45.9443C432.722 48.2654 433.359 50.9506 435.407 52.2932C437.023 52.9303 437.66 54.2046 437.66 55.479C437.66 57.3222 436.318 59.2109 434.27 59.2109V59.1882Z" fill="#E75F0D"/>
<path d="M458.482 59.1201C450.085 59.1201 443.304 52.3389 443.304 43.942V30.8802C443.304 22.4834 450.085 15.7021 458.482 15.7021C466.879 15.7021 473.66 22.4834 473.66 30.8802V43.942C473.66 52.3389 466.879 59.1201 458.482 59.1201ZM466.583 30.903C466.583 26.3974 462.987 22.7792 458.459 22.7792C453.931 22.7792 450.335 26.3746 450.335 30.903V43.9648C450.335 48.4704 453.931 52.0886 458.459 52.0886C462.987 52.0886 466.583 48.4932 466.583 43.9648V30.903Z" fill="#E75F0D"/>
<path d="M508.773 53.3383C508.773 53.3383 508.5 53.8389 507.862 54.4761C504.904 57.6619 500.444 59.141 496.143 59.141C487.678 59.141 481.397 53.7707 481.397 45.6013V29.3082C481.397 21.1162 487.678 15.7686 496.143 15.7686C500.444 15.7686 506.224 17.68 508.773 21.5485C509.273 22.2539 509.478 22.8911 509.478 23.5965C509.478 25.508 507.635 27.1237 505.814 27.1237C504.745 27.1237 503.766 26.623 502.993 25.508C502.993 25.508 502.924 25.4397 502.788 25.3032C501.104 23.551 498.555 22.8456 496.143 22.8456C490.932 22.8456 488.452 25.6673 488.452 29.331V45.6241C488.452 49.2878 490.932 52.1095 496.143 52.1095C498.828 52.1095 501.149 51.3358 502.993 49.4243C503.766 48.2865 504.745 47.8087 505.814 47.8087C507.658 47.8087 509.478 49.4243 509.478 51.3358C509.478 52.0412 509.273 52.6784 508.773 53.3838V53.3383Z" fill="#E75F0D"/>
<path d="M529.366 59.1198C522.175 59.1198 515.121 54.819 515.121 46.3539C515.121 38.5259 521.606 34.6346 528.388 33.2238L536.511 31.4488V29.2643C536.511 25.3048 534.463 22.7789 529.525 22.7789C524.314 22.7789 523.746 27.0797 520.423 27.0797C518.512 27.0797 516.896 25.6006 516.896 23.5526C516.896 22.4148 517.465 21.4363 518.17 20.6626C520.992 17.4085 525.225 15.7246 529.525 15.7246C538.264 15.7246 543.566 21.368 543.566 29.2643V45.5574C543.566 53.7495 536.853 59.0971 529.389 59.0971L529.366 59.1198ZM536.489 38.4576L529.07 40.1415C524.405 41.12 522.153 43.6687 522.153 46.2856C522.153 49.6762 524.701 52.0655 529.275 52.0655C533.576 52.0655 536.466 49.2438 536.466 45.5802V38.4576H536.489Z" fill="#E75F0D"/>
<path d="M560.61 59.1882C560.178 59.1882 559.7 59.0516 559.199 58.9151C559.199 58.9151 558.63 58.7103 557.788 58.1414C553.692 55.5245 552.008 50.6547 552.008 45.9443V4.09648C552.008 1.77539 553.76 0.569336 555.535 0.569336C557.31 0.569336 559.063 1.77539 559.063 4.09648V45.9443C559.063 48.2654 559.7 50.9506 561.748 52.2932C563.363 52.9303 564.001 54.2046 564.001 55.479C564.001 57.3222 562.658 59.2109 560.61 59.2109V59.1882Z" fill="#E75F0D"/>
<path d="M596.45 39.3675H576.698V43.9642C576.698 48.1968 580.794 52.088 585.528 52.088C588.213 52.088 590.534 51.3143 592.377 49.4028C593.151 48.265 594.152 47.7872 595.199 47.7872C597.042 47.7872 598.862 49.4028 598.862 51.3143C598.862 52.0197 598.658 52.6569 598.157 53.3623C598.157 53.3623 597.884 53.863 597.247 54.5001C594.289 57.6859 589.851 59.165 585.528 59.165C577.404 59.165 569.644 52.6114 569.644 43.987V30.9252C569.644 22.5283 576.425 15.7471 584.822 15.7471C593.219 15.7471 600 22.5283 600 30.9252V35.8632C600 37.7746 598.385 39.3903 596.473 39.3903L596.45 39.3675ZM592.923 30.9024C592.923 26.3968 589.328 22.7786 584.799 22.7786C580.271 22.7786 576.676 26.374 576.676 30.9024V32.3133H592.9V30.9024H592.923Z" fill="#E75F0D"/>
<path d="M31.4704 113.756C28.3074 113.756 26.2594 112.186 25.1671 109.842C23.2101 111.526 20.6842 112.573 17.9535 112.573C12.5604 112.573 8.48712 108.363 8.48712 103.107C8.48712 102.765 8.48712 102.379 8.53263 102.06L9.35184 94.1865C9.92073 88.5885 14.8587 84.1512 20.4339 84.1512C22.7322 84.1512 24.7802 84.9249 26.3959 86.1537C26.8283 85.4482 27.602 85.1069 28.3984 85.1069C29.8775 85.1069 30.9243 86.2447 30.7878 87.7238L29.0128 104.449C28.717 107.18 29.5817 109 31.4477 109C32.8358 109 34.1784 107.612 34.1784 105.519V92.4798C34.1784 84.5608 28.0116 78.1892 20.1836 78.1892C12.3556 78.1892 5.89297 84.5835 5.89297 92.4798V103.562C5.89297 111.435 12.2873 117.852 20.1836 117.852C22.8688 117.852 24.7802 117.124 26.0091 116.373C26.4869 116.146 26.9193 116.032 27.3061 116.032C28.6487 116.032 29.6955 117.238 29.6955 118.512C29.6955 119.218 29.3086 119.991 28.4894 120.469C26.4869 121.653 23.7562 122.608 20.1836 122.608C9.67042 122.608 1.11426 114.052 1.11426 103.539V92.457C1.11426 81.9439 9.67042 73.3877 20.1836 73.3877C30.6967 73.3877 38.9571 81.9894 38.9571 92.457V105.496C38.9571 109.137 36.4767 113.756 31.4477 113.756H31.4704ZM20.4339 88.9071C16.6109 88.9071 14.5629 91.3875 14.1761 94.5505C14.1761 94.5505 13.5161 100.422 13.2658 102.538V103.107C13.2658 105.792 15.2228 107.794 17.9535 107.794C22.4364 107.794 24.2113 104.313 24.5527 100.535L25.1671 93.6176C25.3946 90.9324 23.1646 88.9299 20.4339 88.9299V88.9071Z" fill="#E75F0D"/>
<path d="M50.7679 113.551C50.4948 113.551 50.1534 113.46 49.8121 113.369C49.8121 113.369 49.4253 113.233 48.8564 112.846C46.0802 111.071 44.9424 107.771 44.9424 104.585V76.2546C44.9424 74.6844 46.1257 73.8652 47.3317 73.8652C48.5378 73.8652 49.7211 74.6844 49.7211 76.2546V104.585C49.7211 106.156 50.1534 107.976 51.5416 108.886C52.6338 109.319 53.0662 110.183 53.0662 111.048C53.0662 112.3 52.156 113.574 50.7679 113.574V113.551Z" fill="#E75F0D"/>
<path d="M59.7565 81.5112C58.5505 81.5112 57.3672 80.692 57.3672 79.1218V76.2546C57.3672 74.6844 58.5732 73.8652 59.7565 73.8652C60.9398 73.8652 62.1459 74.6844 62.1459 76.2546V79.1218C62.1459 80.692 60.9626 81.5112 59.7565 81.5112ZM59.7565 113.028C58.5505 113.028 57.3672 112.209 57.3672 110.639V86.9953C57.3672 85.4252 58.5732 84.606 59.7565 84.606C60.9398 84.606 62.1459 85.4252 62.1459 86.9953V110.639C62.1459 112.209 60.9626 113.028 59.7565 113.028Z" fill="#E75F0D"/>
<path d="M86.0385 100.125H72.6581V103.243C72.6581 106.11 75.4343 108.727 78.6201 108.727C80.4406 108.727 82.0107 108.204 83.2623 106.907C83.7857 106.133 84.4683 105.814 85.1738 105.814C86.4253 105.814 87.6541 106.907 87.6541 108.204C87.6541 108.682 87.5176 109.114 87.1763 109.592C87.1763 109.592 86.9942 109.933 86.5619 110.366C84.5594 112.505 81.5328 113.529 78.6201 113.529C73.1132 113.529 67.8794 109.091 67.8794 103.266V94.4366C67.8794 88.7476 72.4761 84.1737 78.1422 84.1737C83.8084 84.1737 88.4051 88.7704 88.4051 94.4366V97.7817C88.4051 99.0787 87.3128 100.171 86.0157 100.171L86.0385 100.125ZM83.6491 94.391C83.6491 91.3418 81.2143 88.9069 78.165 88.9069C75.1157 88.9069 72.6809 91.3418 72.6809 94.391V95.3468H83.6719V94.391H83.6491ZM81.3963 81.5568C81.0095 81.5568 80.6226 81.4203 80.1903 81.0789L74.9792 76.9146C74.4103 76.4823 74.2055 75.9589 74.2055 75.481C74.2055 74.4343 75.1157 73.4785 76.1625 73.4785C76.5038 73.4785 76.9362 73.615 77.3685 73.9564L82.5796 78.1207C83.103 78.5531 83.3533 79.0764 83.3533 79.5543C83.3533 80.5556 82.3976 81.5568 81.3963 81.5568Z" fill="#E75F0D"/>
<path d="M103.47 122.584C100.557 122.584 96.643 121.287 94.9135 118.67C94.5722 118.192 94.4357 117.76 94.4357 117.282C94.4357 115.985 95.6645 114.893 96.916 114.893C97.6215 114.893 98.3041 115.234 98.8275 115.985C98.8275 115.985 98.873 116.031 98.964 116.122C100.102 117.328 101.831 117.805 103.447 117.805C106.496 117.805 108.954 115.371 108.954 112.299V110.956C107.384 111.957 105.472 112.526 103.447 112.526C97.758 112.526 93.1841 107.929 93.1841 102.263V94.3898C93.1841 88.7009 97.7807 84.127 103.447 84.127C109.113 84.127 113.71 88.7236 113.71 94.3898V112.299C113.71 117.988 109.113 122.561 103.447 122.561L103.47 122.584ZM108.977 94.3898C108.977 91.3405 106.542 88.9057 103.47 88.9057C100.398 88.9057 97.9628 91.3405 97.9628 94.3898V102.263C97.9628 105.313 100.398 107.747 103.47 107.747C106.542 107.747 108.977 105.313 108.977 102.263V94.3898Z" fill="#E75F0D"/>
<path d="M137.171 100.126H123.791V103.243C123.791 106.11 126.567 108.727 129.753 108.727C131.573 108.727 133.144 108.204 134.395 106.907C134.918 106.133 135.578 105.815 136.307 105.815C137.535 105.815 138.787 106.907 138.787 108.204C138.787 108.682 138.65 109.114 138.309 109.592C138.309 109.592 138.127 109.933 137.695 110.366C135.692 112.505 132.688 113.529 129.753 113.529C124.269 113.529 119.012 109.091 119.012 103.266V94.4367C119.012 88.7477 123.609 84.1738 129.275 84.1738C134.941 84.1738 139.538 88.7705 139.538 94.4367V97.7818C139.538 99.0788 138.446 100.171 137.149 100.171L137.171 100.126ZM134.782 94.3912C134.782 91.3419 132.347 88.907 129.275 88.907C126.203 88.907 123.768 91.3419 123.768 94.3912V95.3469H134.759V94.3912H134.782Z" fill="#E75F0D"/>
</svg>
