<svg width="600" height="121" viewBox="0 0 600 121" fill="none" xmlns="http://www.w3.org/2000/svg">
<path d="M24.1239 45.0128H3.79354C2.32513 45.0128 1.08398 43.7716 1.08398 42.3032V3.26815C1.08398 1.79974 2.32513 0.558594 3.79354 0.558594H24.1239C25.907 0.558594 26.8335 1.92211 26.8335 3.26815C26.8335 4.61418 25.907 5.9777 24.1239 5.9777H6.50309V19.0884H22.4982C24.2813 19.0884 25.2078 20.452 25.2078 21.798C25.2078 23.144 24.2813 24.5075 22.4982 24.5075H6.50309V39.5762H24.1239C25.907 39.5762 26.8335 40.9397 26.8335 42.2857C26.8335 43.6318 25.907 44.9953 24.1239 44.9953V45.0128Z" fill="#E0006D"/>
<path d="M52.8449 45.0141C51.4814 45.0141 50.1354 44.0876 50.1354 42.3045V23.8795C50.1354 20.4183 47.3734 17.6388 43.8947 17.6388C40.416 17.6388 37.654 20.4008 37.654 23.8795V42.3045C37.654 44.0876 36.2905 45.0141 34.9444 45.0141C33.5984 45.0141 32.2349 44.0876 32.2349 42.3045V23.8795C32.2349 17.4291 37.4442 12.2197 43.8947 12.2197C50.3452 12.2197 55.5545 17.4291 55.5545 23.8795V42.3045C55.5545 44.0876 54.191 45.0141 52.8449 45.0141Z" fill="#E0006D"/>
<path d="M70.6585 45.5373C67.5119 45.5373 63.334 44.1214 61.4985 41.3594C61.1139 40.8175 60.9565 40.2755 60.9565 39.7336C60.9565 38.2652 62.3725 37.0241 63.771 37.0241C64.5227 37.0241 65.3443 37.4087 65.9386 38.2128L66.0435 38.3701C67.1798 39.6113 68.9628 40.1007 70.6585 40.1007C74.5043 40.1007 76.4097 37.9331 76.4097 35.8703C76.4097 29.2101 61.1838 31.6924 61.1838 21.0115C61.1838 15.0505 66.3407 12.1836 71.0431 12.1836C74.3994 12.1836 78.3152 14.0191 80.2031 16.9559C80.5353 17.4454 80.6401 17.9873 80.6401 18.4768C80.6401 19.9976 79.2766 21.1863 77.8257 21.1863C77.0216 21.1863 76.2 20.8017 75.6581 19.8927C74.4169 18.4768 73.0009 17.6202 71.0431 17.6202C68.1238 17.6202 66.6029 19.1935 66.6029 21.029C66.6029 26.6054 81.8289 24.7175 81.8289 35.8878C81.8289 41.9537 76.3573 45.5373 70.6585 45.5373Z" fill="#E0006D"/>
<path d="M107.841 30.365H92.6672V33.8962C92.6672 37.1476 95.8137 40.1369 99.4498 40.1369C101.513 40.1369 103.296 39.5425 104.712 38.0741C105.306 37.2001 106.058 36.833 106.879 36.833C108.295 36.833 109.694 38.0741 109.694 39.5425C109.694 40.0844 109.536 40.5739 109.152 41.1158C109.152 41.1158 108.942 41.5004 108.452 41.9899C106.18 44.4372 102.754 45.5735 99.4498 45.5735C93.2091 45.5735 87.248 40.5389 87.248 33.9136V23.8795C87.248 17.4291 92.4574 12.2197 98.9079 12.2197C105.358 12.2197 110.568 17.4291 110.568 23.8795V27.6729C110.568 29.1413 109.327 30.3825 107.858 30.3825L107.841 30.365ZM105.131 23.8621C105.131 20.4008 102.369 17.6214 98.8904 17.6214C95.4117 17.6214 92.6497 20.3833 92.6497 23.8621V24.9459H105.114V23.8621H105.131Z" fill="#E0006D"/>
<path d="M119.22 9.22916C117.857 9.22916 116.511 8.30267 116.511 6.51961V3.26815C116.511 1.48509 117.857 0.558594 119.22 0.558594C120.584 0.558594 121.93 1.48509 121.93 3.26815V6.51961C121.93 8.30267 120.566 9.22916 119.22 9.22916ZM119.22 45.0128C117.857 45.0128 116.511 44.0863 116.511 42.3032V15.4699C116.511 13.6868 117.857 12.7603 119.22 12.7603C120.584 12.7603 121.93 13.6868 121.93 15.4699V42.3032C121.93 44.0863 120.566 45.0128 119.22 45.0128Z" fill="#E0006D"/>
<path d="M140.076 55.852C136.772 55.852 132.332 54.3836 130.374 51.4118C129.989 50.8699 129.832 50.3804 129.832 49.8385C129.832 48.3701 131.248 47.129 132.646 47.129C133.45 47.129 134.22 47.5136 134.814 48.3701L134.971 48.5274C136.265 49.8735 138.223 50.4154 140.058 50.4154C143.52 50.4154 146.299 47.6534 146.299 44.1747V42.6538C144.516 43.7901 142.348 44.4369 140.058 44.4369C133.608 44.4369 128.398 39.2276 128.398 32.7771V23.8268C128.398 17.3763 133.608 12.167 140.058 12.167C146.509 12.167 151.718 17.3763 151.718 23.8268V44.1572C151.718 50.6077 146.509 55.817 140.058 55.817L140.076 55.852ZM146.316 23.8618C146.316 20.4005 143.554 17.6211 140.076 17.6211C136.597 17.6211 133.835 20.3831 133.835 23.8618V32.812C133.835 36.2733 136.597 39.0528 140.076 39.0528C143.554 39.0528 146.316 36.2908 146.316 32.812V23.8618Z" fill="#E0006D"/>
<path d="M178.289 45.0141C176.943 45.0141 175.579 44.0876 175.579 42.3045V23.8795C175.579 20.4183 172.817 17.6388 169.339 17.6388C165.86 17.6388 163.098 20.4008 163.098 23.8795V42.3045C163.098 44.0876 161.752 45.0141 160.388 45.0141C159.025 45.0141 157.679 44.0876 157.679 42.3045V23.8795C157.679 17.4291 162.888 12.2197 169.339 12.2197C175.789 12.2197 180.998 17.4291 180.998 23.8795V42.3045C180.998 44.0876 179.635 45.0141 178.289 45.0141Z" fill="#E0006D"/>
<path d="M207.552 30.365H192.379V33.8962C192.379 37.1476 195.525 40.1369 199.161 40.1369C201.224 40.1369 203.007 39.5425 204.423 38.0741C205.017 37.2001 205.769 36.833 206.591 36.833C208.007 36.833 209.405 38.0741 209.405 39.5425C209.405 40.0844 209.248 40.5739 208.863 41.1158C208.863 41.1158 208.653 41.5004 208.164 41.9899C205.891 44.4372 202.465 45.5735 199.161 45.5735C192.92 45.5735 186.959 40.5389 186.959 33.9136V23.8795C186.959 17.4291 192.169 12.2197 198.619 12.2197C205.07 12.2197 210.279 17.4291 210.279 23.8795V27.6729C210.279 29.1413 209.038 30.3825 207.57 30.3825L207.552 30.365ZM204.843 23.8621C204.843 20.4008 202.081 17.6214 198.602 17.6214C195.123 17.6214 192.361 20.3833 192.361 23.8621V24.9459H204.825V23.8621H204.843Z" fill="#E0006D"/>
<path d="M249.821 45.0141C248.457 45.0141 247.111 44.0876 247.111 42.3045V22.7957C247.111 19.9813 244.786 17.6388 241.954 17.6388C239.122 17.6388 236.798 19.9638 236.798 22.7957V42.3045C236.798 44.1925 235.434 45.119 234.088 45.119C232.742 45.119 231.378 44.1925 231.378 42.3045V22.7957C231.378 19.9813 229.053 17.6388 226.222 17.6388C223.39 17.6388 221.065 19.9638 221.065 22.7957V42.3045C221.065 44.0876 219.719 45.0141 218.355 45.0141C216.992 45.0141 215.646 44.0876 215.646 42.3045V22.7957C215.646 16.9396 220.365 12.2197 226.222 12.2197C229.368 12.2197 232.13 13.5832 234.088 15.7509C236.046 13.5832 238.808 12.2197 241.954 12.2197C247.811 12.2197 252.53 16.9396 252.53 22.7957V42.3045C252.53 44.0876 251.167 45.0141 249.821 45.0141Z" fill="#E0006D"/>
<path d="M279.084 30.365H263.911V33.8962C263.911 37.1476 267.057 40.1369 270.693 40.1369C272.756 40.1369 274.539 39.5425 275.955 38.0741C276.55 37.2001 277.301 36.833 278.123 36.833C279.539 36.833 280.937 38.0741 280.937 39.5425C280.937 40.0844 280.78 40.5739 280.395 41.1158C280.395 41.1158 280.186 41.5004 279.696 41.9899C277.424 44.4372 273.997 45.5735 270.693 45.5735C264.453 45.5735 258.492 40.5389 258.492 33.9136V23.8795C258.492 17.4291 263.701 12.2197 270.152 12.2197C276.602 12.2197 281.811 17.4291 281.811 23.8795V27.6729C281.811 29.1413 280.57 30.3825 279.102 30.3825L279.084 30.365ZM276.375 23.8621C276.375 20.4008 273.613 17.6214 270.134 17.6214C266.655 17.6214 263.893 20.3833 263.893 23.8621V24.9459H276.357V23.8621H276.375Z" fill="#E0006D"/>
<path d="M307.805 45.0141C306.442 45.0141 305.096 44.0876 305.096 42.3045V23.8795C305.096 20.4183 302.334 17.6388 298.855 17.6388C295.376 17.6388 292.614 20.4008 292.614 23.8795V42.3045C292.614 44.0876 291.251 45.0141 289.905 45.0141C288.559 45.0141 287.195 44.0876 287.195 42.3045V23.8795C287.195 17.4291 292.405 12.2197 298.855 12.2197C305.306 12.2197 310.515 17.4291 310.515 23.8795V42.3045C310.515 44.0876 309.151 45.0141 307.805 45.0141Z" fill="#E0006D"/>
<path d="M336.578 43.3706C334.743 44.7341 332.453 45.5382 330.18 45.5382C324.919 45.5382 320.863 41.8497 320.863 36.8152V18.163H317.017C315.234 18.163 314.308 16.7995 314.308 15.4534C314.308 14.1074 315.234 12.7439 317.017 12.7439H320.863V8.02401C320.863 6.24095 322.227 5.31445 323.573 5.31445C324.919 5.31445 326.282 6.24095 326.282 8.02401V12.7439H334.795C336.578 12.7439 337.505 14.1074 337.505 15.4534C337.505 16.7995 336.578 18.163 334.795 18.163H326.282V36.8152C326.282 38.4934 327.523 40.1191 330.18 40.1191C332.837 40.1191 333.712 38.1088 335.39 38.1088C337.173 38.1088 338.152 39.6296 338.152 41.098C338.152 42.1819 337.4 42.7762 336.578 43.3706Z" fill="#E0006D"/>
<path d="M383.41 39.9615C383.41 39.9615 383.078 40.3986 382.484 40.9405C379.285 43.9822 374.949 45.538 370.562 45.538C362.206 45.538 355.493 38.8253 355.493 30.4694V15.0686C355.493 6.73018 362.206 0 370.562 0C374.897 0 380.596 1.95787 383.41 5.57644C383.847 6.11835 384.057 6.7127 384.057 7.25461C384.057 8.77546 382.711 10.0166 381.243 10.0166C380.543 10.0166 379.774 9.68447 379.18 8.93279L378.743 8.49576C376.575 6.433 373.534 5.40163 370.562 5.40163C365.248 5.40163 360.912 9.73691 360.912 15.0511V30.4519C360.912 35.7661 365.248 40.1014 370.562 40.1014C373.481 40.1014 377.222 38.9651 379.18 36.5702C379.774 35.871 380.473 35.5389 381.243 35.5389C382.711 35.5389 384.162 36.78 384.162 38.2484C384.162 38.7903 383.952 39.3847 383.41 39.9266V39.9615Z" fill="#E0006D"/>
<path d="M401.224 45.5373C394.773 45.5373 389.564 40.328 389.564 33.8775V23.8434C389.564 17.3929 394.773 12.1836 401.224 12.1836C407.674 12.1836 412.884 17.3929 412.884 23.8434V33.8775C412.884 40.328 407.674 45.5373 401.224 45.5373ZM407.464 23.8609C407.464 20.3997 404.702 17.6202 401.224 17.6202C397.745 17.6202 394.983 20.3822 394.983 23.8609V33.895C394.983 37.3562 397.745 40.1357 401.224 40.1357C404.702 40.1357 407.464 37.3737 407.464 33.895V23.8609Z" fill="#E0006D"/>
<path d="M452.985 45.0141C451.621 45.0141 450.275 44.0876 450.275 42.3045V22.7957C450.275 19.9813 447.95 17.6388 445.118 17.6388C442.287 17.6388 439.962 19.9638 439.962 22.7957V42.3045C439.962 44.1925 438.598 45.119 437.252 45.119C435.906 45.119 434.542 44.1925 434.542 42.3045V22.7957C434.542 19.9813 432.217 17.6388 429.386 17.6388C426.554 17.6388 424.229 19.9638 424.229 22.7957V42.3045C424.229 44.0876 422.865 45.0141 421.519 45.0141C420.173 45.0141 418.81 44.0876 418.81 42.3045V22.7957C418.81 16.9396 423.529 12.2197 429.386 12.2197C432.532 12.2197 435.294 13.5832 437.252 15.7509C439.21 13.5832 441.972 12.2197 445.118 12.2197C450.975 12.2197 455.694 16.9396 455.694 22.7957V42.3045C455.694 44.0876 454.348 45.0141 452.985 45.0141Z" fill="#E0006D"/>
<path d="M495.795 45.0141C494.432 45.0141 493.086 44.0876 493.086 42.3045V22.7957C493.086 19.9813 490.761 17.6388 487.929 17.6388C485.097 17.6388 482.772 19.9638 482.772 22.7957V42.3045C482.772 44.1925 481.409 45.119 480.063 45.119C478.717 45.119 477.353 44.1925 477.353 42.3045V22.7957C477.353 19.9813 475.028 17.6388 472.196 17.6388C469.364 17.6388 467.039 19.9638 467.039 22.7957V42.3045C467.039 44.0876 465.693 45.0141 464.33 45.0141C462.966 45.0141 461.62 44.0876 461.62 42.3045V22.7957C461.62 16.9396 466.34 12.2197 472.196 12.2197C475.343 12.2197 478.105 13.5832 480.063 15.7509C482.02 13.5832 484.782 12.2197 487.929 12.2197C493.785 12.2197 498.505 16.9396 498.505 22.7957V42.3045C498.505 44.0876 497.141 45.0141 495.795 45.0141Z" fill="#E0006D"/>
<path d="M516.109 45.5385C509.658 45.5385 504.449 40.3291 504.449 33.8787V15.4537C504.449 13.6706 505.812 12.7441 507.158 12.7441C508.504 12.7441 509.868 13.6706 509.868 15.4537V33.8787C509.868 37.3399 512.63 40.1194 516.109 40.1194C519.587 40.1194 522.349 37.3574 522.349 33.8787V15.4537C522.349 13.6706 523.713 12.7441 525.059 12.7441C526.405 12.7441 527.768 13.6706 527.768 15.4537V33.8787C527.768 40.3291 522.559 45.5385 516.109 45.5385Z" fill="#E0006D"/>
<path d="M554.323 45.0141C552.959 45.0141 551.613 44.0876 551.613 42.3045V23.8795C551.613 20.4183 548.851 17.6388 545.372 17.6388C541.894 17.6388 539.132 20.4008 539.132 23.8795V42.3045C539.132 44.0876 537.768 45.0141 536.422 45.0141C535.076 45.0141 533.712 44.0876 533.712 42.3045V23.8795C533.712 17.4291 538.922 12.2197 545.372 12.2197C551.823 12.2197 557.032 17.4291 557.032 23.8795V42.3045C557.032 44.0876 555.669 45.0141 554.323 45.0141Z" fill="#E0006D"/>
<path d="M573.394 45.5374C567.87 45.5374 562.451 42.2335 562.451 35.7306C562.451 29.7171 567.433 26.7279 572.642 25.6441L578.883 24.2805V22.6024C578.883 19.5607 577.31 17.6203 573.516 17.6203C569.513 17.6203 569.076 20.9242 566.524 20.9242C565.055 20.9242 563.814 19.7879 563.814 18.2146C563.814 17.3406 564.251 16.5889 564.793 15.9945C566.961 13.4948 570.212 12.2012 573.516 12.2012C580.229 12.2012 584.302 16.5365 584.302 22.6024V35.1188C584.302 41.4119 579.145 45.5199 573.411 45.5199L573.394 45.5374ZM578.865 29.6647L573.167 30.9583C569.583 31.71 567.852 33.6678 567.852 35.6781C567.852 38.2828 569.81 40.1183 573.324 40.1183C576.628 40.1183 578.848 37.9507 578.848 35.1362V29.6647H578.865Z" fill="#E0006D"/>
<path d="M597.395 45.6071C597.063 45.6071 596.696 45.5022 596.312 45.3973C596.312 45.3973 595.875 45.24 595.228 44.803C592.081 42.7927 590.788 39.0517 590.788 35.4332V3.26815C590.788 1.48509 592.151 0.558594 593.497 0.558594C594.843 0.558594 596.207 1.48509 596.207 3.26815V35.4157C596.207 37.1987 596.696 39.2615 598.269 40.2929C599.511 40.7824 600 41.7613 600 42.7402C600 44.1562 598.969 45.6071 597.395 45.6071Z" fill="#E0006D"/>
<path d="M11.6598 110.584C5.20933 110.584 0 105.375 0 98.924V88.89C0 82.4395 5.20933 77.2301 11.6598 77.2301C13.9323 77.2301 16.1 77.8769 17.9005 79.0132V68.2799C17.9005 66.4968 19.2641 65.5703 20.6101 65.5703C21.9561 65.5703 23.3196 66.4968 23.3196 68.2799V98.9066C23.3196 105.357 18.1103 110.566 11.6598 110.566V110.584ZM17.8831 88.89C17.8831 85.4287 15.1211 82.6492 11.6423 82.6492C8.16362 82.6492 5.40163 85.4112 5.40163 88.89V98.924C5.40163 102.385 8.16362 105.165 11.6423 105.165C15.1211 105.165 17.8831 102.403 17.8831 98.924V88.89Z" fill="#E0006D"/>
<path d="M50.3973 95.3932H35.2238V98.9069C35.2238 102.158 38.3704 105.148 42.0064 105.148C44.0692 105.148 45.8522 104.553 47.2682 103.085C47.8626 102.211 48.6142 101.844 49.4358 101.844C50.8518 101.844 52.2503 103.085 52.2503 104.553C52.2503 105.095 52.093 105.585 51.7084 106.127C51.7084 106.127 51.4986 106.511 51.0091 107.001C48.7366 109.448 45.3103 110.584 42.0064 110.584C35.7657 110.584 29.8047 105.55 29.8047 98.9244V88.8903C29.8047 82.4398 35.014 77.2305 41.4645 77.2305C47.915 77.2305 53.1243 82.4398 53.1243 88.8903V92.6837C53.1243 94.1521 51.8832 95.3932 50.4148 95.3932H50.3973ZM47.6877 88.8903C47.6877 85.4291 44.9257 82.6496 41.447 82.6496C37.9683 82.6496 35.2063 85.4116 35.2063 88.8903V89.9741H47.6703V88.8903H47.6877Z" fill="#E0006D"/>
<path d="M95.6562 110.041H75.3258C73.8574 110.041 72.6162 108.8 72.6162 107.332V68.314C72.6162 66.531 73.9797 65.6045 75.3258 65.6045C76.6718 65.6045 78.0353 66.531 78.0353 68.314V104.622H95.6562C97.4392 104.622 98.3657 105.986 98.3657 107.332C98.3657 108.678 97.4392 110.041 95.6562 110.041Z" fill="#E0006D"/>
<path d="M105.935 74.2585C104.589 74.2585 103.225 73.332 103.225 71.5489V68.2974C103.225 66.5144 104.589 65.5879 105.935 65.5879C107.281 65.5879 108.644 66.5144 108.644 68.2974V71.5489C108.644 73.332 107.281 74.2585 105.935 74.2585ZM105.935 110.042C104.589 110.042 103.225 109.116 103.225 107.332V80.4992C103.225 78.7161 104.589 77.7896 105.935 77.7896C107.281 77.7896 108.644 78.7161 108.644 80.4992V107.332C108.644 109.116 107.281 110.042 105.935 110.042Z" fill="#E0006D"/>
<path d="M135.757 95.3925H120.584V98.9062C120.584 102.158 123.73 105.147 127.366 105.147C129.429 105.147 131.212 104.553 132.628 103.084C133.222 102.21 133.974 101.843 134.796 101.843C136.212 101.843 137.61 103.084 137.61 104.553C137.61 105.094 137.453 105.584 137.068 106.126C137.068 106.126 136.858 106.51 136.369 107C134.096 109.447 130.67 110.583 127.366 110.583C121.126 110.583 115.165 105.549 115.165 98.9237V88.8896C115.165 82.4391 120.374 77.2298 126.824 77.2298C133.275 77.2298 138.484 82.4391 138.484 88.8896V92.683C138.484 94.1514 137.243 95.3925 135.775 95.3925H135.757ZM133.048 88.8896C133.048 85.4283 130.286 82.6489 126.807 82.6489C123.328 82.6489 120.566 85.4109 120.566 88.8896V89.9734H133.03V88.8896H133.048ZM130.495 74.3104C130.058 74.3104 129.621 74.1531 129.149 73.7685L123.241 69.0487C122.594 68.5592 122.367 67.9648 122.367 67.4229C122.367 66.2342 123.398 65.1504 124.587 65.1504C124.971 65.1504 125.461 65.3077 125.95 65.6923L131.859 70.4122C132.453 70.9016 132.733 71.496 132.733 72.0379C132.733 73.1742 131.649 74.3104 130.513 74.3104H130.495Z" fill="#E0006D"/>
<path d="M155.528 120.881C152.224 120.881 147.784 119.413 145.826 116.441C145.441 115.899 145.284 115.41 145.284 114.868C145.284 113.399 146.7 112.158 148.099 112.158C148.903 112.158 149.672 112.543 150.266 113.399C150.266 113.399 150.319 113.452 150.424 113.557C151.717 114.92 153.675 115.445 155.528 115.445C158.989 115.445 161.769 112.683 161.769 109.204V107.683C159.986 108.819 157.818 109.466 155.528 109.466C149.077 109.466 143.868 104.257 143.868 97.8064V88.8561C143.868 82.4056 149.077 77.1963 155.528 77.1963C161.978 77.1963 167.188 82.4056 167.188 88.8561V109.186C167.188 115.637 161.978 120.846 155.528 120.846V120.881ZM161.769 88.8911C161.769 85.4298 159.007 82.6504 155.528 82.6504C152.049 82.6504 149.287 85.4124 149.287 88.8911V97.8413C149.287 101.303 152.049 104.082 155.528 104.082C159.007 104.082 161.769 101.32 161.769 97.8413V88.8911Z" fill="#E0006D"/>
<path d="M193.742 95.3932H178.568V98.9069C178.568 102.158 181.715 105.148 185.351 105.148C187.413 105.148 189.196 104.553 190.612 103.085C191.207 102.211 191.958 101.844 192.78 101.844C194.196 101.844 195.595 103.085 195.595 104.553C195.595 105.095 195.437 105.585 195.053 106.127C195.053 106.127 194.843 106.511 194.353 107.001C192.081 109.448 188.655 110.584 185.351 110.584C179.11 110.584 173.149 105.55 173.149 98.9244V88.8903C173.149 82.4398 178.358 77.2305 184.809 77.2305C191.259 77.2305 196.469 82.4398 196.469 88.8903V92.6837C196.469 94.1521 195.227 95.3932 193.759 95.3932H193.742ZM191.032 88.8903C191.032 85.4291 188.27 82.6496 184.791 82.6496C181.313 82.6496 178.551 85.4116 178.551 88.8903V89.9741H191.014V88.8903H191.032Z" fill="#E0006D"/>
</svg>
