<svg width="173" height="67" viewBox="0 0 173 67" fill="none" xmlns="http://www.w3.org/2000/svg">
<path d="M89.1672 19.9473H87.2072V28.1073H83.9272V7.27734H89.1672C92.9372 7.27734 94.5172 9.26734 94.5172 13.6273C94.5172 17.9873 92.9372 19.9473 89.1672 19.9473ZM89.0572 10.2273H87.2172V16.9873H89.0572C90.8172 16.9873 91.2572 15.7273 91.2572 13.6273C91.2572 11.5273 90.8172 10.2373 89.0572 10.2373V10.2273Z" fill="#75B843"/>
<path d="M97.3677 28.1073V7.27734H100.648V25.1573H106.118V28.1173H97.3677V28.1073Z" fill="#75B843"/>
<path d="M117.637 28.1073L116.787 23.9773H111.957L111.137 28.1073H107.688L112.807 7.27734H115.997L121.057 28.1073H117.637ZM114.387 12.3073L112.607 21.0273H116.177L114.387 12.3073Z" fill="#75B843"/>
<path d="M131.187 28.1073L126.267 15.7273V28.1073H122.987V7.27734H125.917L130.807 19.6573V7.27734H134.087V28.1073H131.187Z" fill="#75B843"/>
<path d="M92.5374 58.6277C91.5974 59.5077 90.5174 59.9477 88.9374 59.9477C87.0074 59.9477 85.7474 59.1877 84.8974 58.1577C83.5274 56.5177 83.3774 54.2377 83.3774 49.2877C83.3774 44.3377 83.5274 42.0577 84.8974 40.4177C85.7474 39.3977 87.0074 38.6377 88.9374 38.6377C90.5174 38.6377 91.6574 39.1077 92.5974 39.9877C93.6474 40.9577 94.2074 42.5377 94.2674 44.3777H90.9874C90.9574 43.6177 90.8374 42.8577 90.4874 42.3577C90.1974 41.8877 89.7274 41.5977 88.9374 41.5977C88.1474 41.5977 87.6774 41.9177 87.3874 42.3877C86.7474 43.3777 86.6574 45.4877 86.6574 49.2977C86.6574 53.1077 86.7474 55.2077 87.3874 56.2077C87.6774 56.6777 88.1474 56.9977 88.9374 56.9977C89.7274 56.9977 90.1974 56.7077 90.4874 56.2377C90.8374 55.7077 90.9574 54.9477 90.9874 54.1877H94.2674C94.2074 56.0577 93.5974 57.6677 92.5374 58.6377V58.6277Z" fill="#75B843"/>
<path d="M105.057 59.707L104.207 55.577H99.3774L98.5574 59.707H95.1074L100.227 38.877H103.417L108.477 59.707H105.057ZM101.807 43.907L100.027 52.627H103.597L101.807 43.907Z" fill="#75B843"/>
<path d="M118.607 59.707L113.687 47.327V59.707H110.407V38.877H113.337L118.227 51.257V38.877H121.507V59.707H118.607Z" fill="#75B843"/>
<path d="M134.047 58.1577C133.197 59.1777 131.937 59.9477 130.007 59.9477C128.077 59.9477 126.817 59.1877 125.967 58.1577C124.597 56.4877 124.447 54.2377 124.447 49.2877C124.447 44.3377 124.597 42.0877 125.967 40.4177C126.817 39.3977 128.077 38.6377 130.007 38.6377C131.937 38.6377 133.197 39.3977 134.047 40.4177C135.447 42.0577 135.567 44.3377 135.567 49.2877C135.567 54.2377 135.447 56.5177 134.047 58.1577ZM131.597 42.3877C131.307 41.9177 130.807 41.5977 130.017 41.5977C129.227 41.5977 128.757 41.9177 128.467 42.3877C127.857 43.3777 127.737 45.4877 127.737 49.2977C127.737 53.1077 127.857 55.2077 128.467 56.2077C128.757 56.6777 129.227 56.9977 130.017 56.9977C130.807 56.9977 131.307 56.6777 131.597 56.2077C132.207 55.2077 132.297 53.1077 132.297 49.2977C132.297 45.4877 132.207 43.3877 131.597 42.3877Z" fill="#75B843"/>
<path d="M143.767 51.547H141.807V59.707H138.527V38.877H143.767C147.537 38.877 149.117 40.867 149.117 45.227C149.117 49.587 147.537 51.547 143.767 51.547ZM143.647 41.827H141.807V48.587H143.647C145.407 48.587 145.847 47.327 145.847 45.227C145.847 43.127 145.407 41.837 143.647 41.837V41.827Z" fill="#75B843"/>
<path d="M151.958 59.7075V38.8775H160.708V41.8375H155.238V47.7475H159.948V50.7075H155.238V56.7675H160.708V59.7275H151.958V59.7075ZM157.288 37.4675H155.128L157.238 33.3975H159.838L157.288 37.4675Z" fill="#75B843"/>
<path d="M163.547 59.707V38.877H172.297V41.837H166.827V47.747H171.537V50.707H166.827V56.767H172.297V59.727H163.547V59.707Z" fill="#75B843"/>
<path d="M65.6674 66.9179C65.3474 66.9179 65.0274 66.7979 64.7874 66.5479L57.8074 59.5679C57.3174 59.0779 57.3174 58.2879 57.8074 57.8079C58.2974 57.3179 59.0874 57.3179 59.5674 57.8079L66.5474 64.7879C67.0374 65.2779 67.0374 66.0679 66.5474 66.5479C66.3074 66.7879 65.9874 66.9179 65.6674 66.9179Z" fill="#75B843"/>
<path d="M1.2475 66.9179C0.9275 66.9179 0.6075 66.7979 0.3675 66.5479C-0.1225 66.0579 -0.1225 65.2679 0.3675 64.7879L7.3475 57.8079C7.8375 57.3179 8.6275 57.3179 9.1075 57.8079C9.5875 58.2979 9.5975 59.0879 9.1075 59.5679L2.1275 66.5479C1.8875 66.7879 1.5675 66.9179 1.2475 66.9179Z" fill="#75B843"/>
<path d="M58.6874 9.4775C58.3674 9.4775 58.0474 9.3575 57.8074 9.1075C57.3174 8.6175 57.3174 7.8275 57.8074 7.3475L64.7874 0.3675C65.2774 -0.1225 66.0674 -0.1225 66.5474 0.3675C67.0374 0.8575 67.0374 1.6475 66.5474 2.1275L59.5674 9.1075C59.3274 9.3475 59.0074 9.4775 58.6874 9.4775Z" fill="#75B843"/>
<path d="M8.2275 9.4775C7.9075 9.4775 7.5875 9.3575 7.3475 9.1075L0.3675 2.1275C-0.1225 1.6375 -0.1225 0.8475 0.3675 0.3675C0.8475 -0.1225 1.6375 -0.1225 2.1275 0.3675L9.1075 7.3475C9.5975 7.8375 9.5975 8.6275 9.1075 9.1075C8.8675 9.3475 8.5475 9.4775 8.2275 9.4775Z" fill="#75B843"/>
<path d="M56.1378 35.7367C56.1378 42.4767 49.8678 47.9467 42.1278 47.9467C39.0378 47.9667 36.0178 47.0567 33.4578 45.3267C30.8978 47.0567 27.8778 47.9667 24.7878 47.9467C17.0478 47.9467 10.7778 42.4767 10.7778 35.7367C10.7778 32.5367 12.1878 29.6267 14.4878 27.4567C12.9678 25.7267 12.1278 23.5067 12.1078 21.1967C12.1078 16.4967 15.6678 12.5167 20.5678 11.1967C22.0978 6.23668 27.2878 2.59668 33.4478 2.59668C39.6078 2.59668 44.8078 6.24668 46.3278 11.1967C51.2278 12.5167 54.7878 16.4967 54.7878 21.1967C54.7678 23.4967 53.9278 25.7167 52.4078 27.4567C54.7078 29.6367 56.1178 32.5467 56.1178 35.7367H56.1378Z" fill="#75B843"/>
<path d="M40.7577 25.847C40.2177 25.407 39.4277 25.497 38.9977 26.037L34.7077 31.327V22.957C34.7077 22.267 34.1477 21.707 33.4577 21.707C32.7677 21.707 32.2077 22.267 32.2077 22.957V39.097L27.9177 33.807C27.4777 33.267 26.6877 33.187 26.1577 33.617C25.6177 34.057 25.5377 34.847 25.9677 35.377L32.2077 43.077V64.317C32.2077 65.007 32.7677 65.567 33.4577 65.567C34.1477 65.567 34.7077 65.007 34.7077 64.317V35.307L40.9477 27.607C41.3877 27.067 41.2977 26.277 40.7577 25.847Z" fill="#007C3C"/>
<path d="M42.1276 49.2069C41.4376 49.2069 40.8776 48.6469 40.8776 47.9569C40.8776 47.2669 41.4376 46.7069 42.1276 46.7069C49.1576 46.7069 54.8776 41.7869 54.8776 35.7469C54.8776 33.0169 53.6976 30.3969 51.5576 28.3769C51.0676 27.9169 51.0276 27.1469 51.4776 26.6369C52.7976 25.1369 53.5276 23.1969 53.5476 21.1969C53.5476 17.1569 50.5176 13.6269 46.0176 12.4169C45.5976 12.3069 45.2676 11.9869 45.1476 11.5769C43.7476 7.02691 38.9376 3.85691 33.4576 3.85691C27.9776 3.85691 23.1776 7.02691 21.7776 11.5769C21.6476 11.9869 21.3176 12.3069 20.9076 12.4169C16.3976 13.6269 13.3776 17.1669 13.3776 21.2069C13.3876 23.1969 14.1276 25.1269 15.4476 26.6369C15.8876 27.1469 15.8576 27.9169 15.3676 28.3769C13.2276 30.3969 12.0476 33.0169 12.0476 35.7469C12.0476 41.7869 17.7676 46.7069 24.7976 46.7069C25.4876 46.7069 26.0476 47.2669 26.0476 47.9569C26.0476 48.6469 25.4876 49.2069 24.7976 49.2069C16.3876 49.2069 9.5376 43.1669 9.5376 35.7369C9.5376 32.6769 10.6976 29.7369 12.8376 27.3669C11.5776 25.5669 10.8876 23.4269 10.8676 21.2069C10.8676 16.2069 14.3476 11.8469 19.6076 10.1769C21.5676 4.93691 27.1576 1.33691 33.4676 1.33691C39.7776 1.33691 45.3676 4.93691 47.3276 10.1769C52.5776 11.8469 56.0676 16.2069 56.0676 21.1969C56.0476 23.4169 55.3576 25.5669 54.0976 27.3669C56.2376 29.7369 57.3976 32.6769 57.3976 35.7369C57.3976 43.1569 50.5476 49.2069 42.1376 49.2069H42.1276Z" fill="#007C3C"/>
</svg>
