<svg width="600" height="106" viewBox="0 0 600 106" fill="none" xmlns="http://www.w3.org/2000/svg">
<path d="M23.4222 56.1852H10.27V80.1044C10.27 83.4836 7.68594 85.2394 5.135 85.2394C2.58406 85.2394 0 83.4836 0 80.1044V6.16039C0 3.37755 2.35216 1.02539 5.135 1.02539H23.4222C38.6285 1.02539 51.0518 13.3494 51.0518 28.5556C51.0518 43.7618 38.6285 56.1852 23.4222 56.1852ZM40.7818 28.655C40.7818 18.9813 32.9634 11.2954 23.4222 11.2954H10.27V45.9152H23.4222C32.9634 45.9152 40.6825 38.1962 40.6825 28.5556L40.7818 28.655Z" fill="#75B843"/>
<path d="M73.8441 86.3989C73.2146 86.3989 72.5189 86.2001 71.7901 86.0014C71.7901 86.0014 70.9618 85.7032 69.7361 84.875C63.7728 81.0651 61.3213 73.9755 61.3213 67.1178V6.16039C61.3213 2.78123 63.9054 1.02539 66.4563 1.02539C69.0072 1.02539 71.5913 2.78123 71.5913 6.16039V67.0847C71.5913 70.4639 72.5189 74.3731 75.5005 76.3277C77.8527 77.2553 78.7803 79.1105 78.7803 80.9658C78.7803 83.6492 76.8257 86.3989 73.8441 86.3989Z" fill="#75B843"/>
<path d="M106.709 86.2699C96.2407 86.2699 85.9707 80.0085 85.9707 67.6845C85.9707 56.2881 95.4125 50.6231 105.285 48.5691L117.112 46.0181V42.8378C117.112 37.0733 114.13 33.396 106.941 33.396C99.3548 33.396 98.5266 39.6574 93.6898 39.6574C90.9069 39.6574 88.5548 37.504 88.5548 34.5224C88.5548 32.8659 89.383 31.4414 90.41 30.315C94.518 25.5775 100.68 23.126 106.941 23.126C119.663 23.126 127.382 31.342 127.382 42.8378V66.5581C127.382 78.4846 117.609 86.2699 106.743 86.2699H106.709ZM117.079 56.1888L106.279 58.6403C99.4874 60.0649 96.2076 63.7753 96.2076 67.5851C96.2076 72.5214 99.918 75.9999 106.577 75.9999C112.838 75.9999 117.046 71.8919 117.046 66.5581V56.1888H117.079Z" fill="#75B843"/>
<path d="M177.67 85.2399C175.086 85.2399 172.535 83.4841 172.535 80.1049V45.1869C172.535 38.6274 167.301 33.3598 160.708 33.3598C154.116 33.3598 148.881 38.5942 148.881 45.1869V80.1049C148.881 83.4841 146.297 85.2399 143.746 85.2399C141.195 85.2399 138.611 83.4841 138.611 80.1049V45.1869C138.611 32.9623 148.484 23.0898 160.708 23.0898C172.933 23.0898 182.805 32.9623 182.805 45.1869V80.1049C182.805 83.4841 180.221 85.2399 177.67 85.2399Z" fill="#75B843"/>
<path d="M271.658 75.6998C271.658 75.6998 271.028 76.5281 269.902 77.5551C263.839 83.3195 255.623 86.3011 247.308 86.3011C231.472 86.3011 218.75 73.5796 218.75 57.7439V28.5572C218.75 12.7547 231.472 0 247.308 0C255.524 0 266.324 3.71045 271.658 10.5682C272.486 11.5952 272.883 12.7215 272.883 13.7485C272.883 16.6308 270.332 18.9829 267.55 18.9829C266.224 18.9829 264.767 18.3535 263.64 16.9289L262.812 16.1007C258.704 12.1915 252.94 10.2369 247.308 10.2369C237.236 10.2369 229.02 18.4529 229.02 28.5241V57.7108C229.02 67.782 237.236 75.998 247.308 75.998C252.84 75.998 259.93 73.8446 263.64 69.3059C264.767 67.9808 266.092 67.3513 267.55 67.3513C270.332 67.3513 273.082 69.7035 273.082 72.4863C273.082 73.5133 272.685 74.6397 271.658 75.6667V75.6998Z" fill="#75B843"/>
<path d="M303.065 86.2699C292.596 86.2699 282.326 80.0085 282.326 67.6845C282.326 56.2881 291.768 50.6231 301.64 48.5691L313.467 46.0181V42.8378C313.467 37.0733 310.486 33.396 303.297 33.396C295.71 33.396 294.882 39.6574 290.045 39.6574C287.262 39.6574 284.91 37.504 284.91 34.5224C284.91 32.8659 285.738 31.4414 286.765 30.315C290.873 25.5775 297.035 23.126 303.297 23.126C316.018 23.126 323.737 31.342 323.737 42.8378V66.5581C323.737 78.4846 313.964 86.2699 303.098 86.2699H303.065ZM313.434 56.1888L302.634 58.6403C295.843 60.0649 292.563 63.7753 292.563 67.5851C292.563 72.5214 296.273 75.9999 302.932 75.9999C309.194 75.9999 313.401 71.8919 313.401 66.5581V56.1888H313.434Z" fill="#75B843"/>
<path d="M374.026 85.2399C371.475 85.2399 368.891 83.4841 368.891 80.1049V45.1869C368.891 38.6274 363.657 33.3598 357.064 33.3598C350.472 33.3598 345.237 38.5942 345.237 45.1869V80.1049C345.237 83.4841 342.686 85.2399 340.102 85.2399C337.518 85.2399 334.967 83.4841 334.967 80.1049V45.1869C334.967 32.9623 344.84 23.0898 357.064 23.0898C369.289 23.0898 379.161 32.9623 379.161 45.1869V80.1049C379.161 83.4841 376.577 85.2399 374.026 85.2399Z" fill="#75B843"/>
<path d="M412.556 86.2678C400.331 86.2678 390.458 76.3954 390.458 64.1708V45.1547C390.458 32.9301 400.331 23.0576 412.556 23.0576C424.78 23.0576 434.653 32.9301 434.653 45.1547V64.1708C434.653 76.3954 424.78 86.2678 412.556 86.2678ZM424.349 45.1878C424.349 38.6283 419.115 33.3607 412.522 33.3607C405.93 33.3607 400.695 38.5951 400.695 45.1878V64.2039C400.695 70.7634 405.93 76.0309 412.522 76.0309C419.115 76.0309 424.349 70.7966 424.349 64.2039V45.1878Z" fill="#75B843"/>
<path d="M468.014 86.2669C463.707 86.2669 459.599 85.0411 456.187 82.8878V100.645C456.187 104.024 453.603 105.78 451.052 105.78C448.501 105.78 445.917 104.024 445.917 100.645V45.1869C445.917 32.9623 455.789 23.0898 468.014 23.0898C480.239 23.0898 490.111 32.9623 490.111 45.1869V64.203C490.111 76.4276 480.239 86.3 468.014 86.3V86.2669ZM479.808 45.1869C479.808 38.6274 474.574 33.3598 467.981 33.3598C461.388 33.3598 456.154 38.5942 456.154 45.1869V64.203C456.154 70.7625 461.388 76.03 467.981 76.03C474.574 76.03 479.808 70.7957 479.808 64.203V45.1869Z" fill="#75B843"/>
<path d="M540.401 57.5105H511.645V64.2026C511.645 70.3646 517.608 76.0296 524.499 76.0296C528.408 76.0296 531.787 74.9032 534.47 72.1204C535.597 70.464 537.021 69.7682 538.578 69.7682C541.262 69.7682 543.912 72.1204 543.912 74.9032C543.912 75.9302 543.614 76.8579 542.885 77.8849C542.885 77.8849 542.488 78.6137 541.56 79.5413C537.253 84.1794 530.76 86.3328 524.499 86.3328C512.672 86.3328 501.375 76.7916 501.375 64.2357V45.2196C501.375 32.995 511.247 23.1226 523.472 23.1226C535.696 23.1226 545.569 32.995 545.569 45.2196V52.4086C545.569 55.1915 543.217 57.5436 540.434 57.5436L540.401 57.5105ZM535.266 45.1865C535.266 38.6269 530.031 33.3594 523.438 33.3594C516.846 33.3594 511.611 38.5938 511.611 45.1865V47.2405H535.232V45.1865H535.266ZM533.013 7.58504L521.815 16.5299C520.888 17.2587 519.96 17.5569 519.231 17.5569C516.978 17.5569 515.024 15.4035 515.024 13.2501C515.024 12.2231 515.421 11.0967 516.68 10.1691L527.878 1.22427C528.805 0.495427 529.634 0.197266 530.429 0.197266C532.582 0.197266 534.636 2.25127 534.636 4.50404C534.636 5.53104 534.139 6.65743 532.98 7.58504H533.013Z" fill="#75B843"/>
<path d="M594.832 57.5139H566.076V64.206C566.076 70.368 572.039 76.033 578.93 76.033C582.839 76.033 586.218 74.9067 588.902 72.1238C590.028 70.4674 591.452 69.7717 593.01 69.7717C595.693 69.7717 598.343 72.1238 598.343 74.9067C598.343 75.9337 598.045 76.8613 597.316 77.8883C597.316 77.8883 596.919 78.6171 595.991 79.5447C591.684 84.1828 585.191 86.3362 578.93 86.3362C567.103 86.3362 555.806 76.795 555.806 64.2391V45.223C555.806 32.9984 565.678 23.126 577.903 23.126C590.127 23.126 600 32.9984 600 45.223V52.412C600 55.1949 597.648 57.547 594.865 57.547L594.832 57.5139ZM589.697 45.1899C589.697 38.6304 584.462 33.3628 577.87 33.3628C571.277 33.3628 566.043 38.5972 566.043 45.1899V47.2439H589.664V45.1899H589.697Z" fill="#75B843"/>
</svg>
