<svg width="166" height="48" viewBox="0 0 166 48" fill="none" xmlns="http://www.w3.org/2000/svg">
<path d="M160.58 38.74H160.63L161.07 38.61C161.07 38.53 161.09 38.4 161.09 38.25C160.92 38.41 160.75 38.58 160.58 38.74Z" fill="#E75F0D"/>
<path d="M159.31 30.79H158.47C157.978 30.79 157.58 31.1885 157.58 31.68V32.3C157.58 32.7916 157.978 33.19 158.47 33.19H159.31C159.801 33.19 160.2 32.7916 160.2 32.3V31.68C160.2 31.1885 159.801 30.79 159.31 30.79Z" fill="#E75F0D"/>
<path d="M154.91 33.19H155.74C156.24 33.19 156.63 32.8 156.63 32.3V31.68C156.63 31.18 156.24 30.79 155.74 30.79H154.91C154.91 30.79 154.84 30.79 154.81 30.79L154.35 32.99C154.5 33.11 154.69 33.18 154.91 33.18V33.19Z" fill="#E75F0D"/>
<path d="M154.34 32.9898C154.34 32.9898 154.35 32.9898 154.36 32.9998L154.82 30.7998C154.82 30.7998 154.81 30.7998 154.8 30.7998L154.35 32.9898H154.34Z" fill="#E75F0D"/>
<path d="M159.31 35.0098H158.47C157.978 35.0098 157.58 35.4082 157.58 35.8998V36.5198C157.58 37.0113 157.978 37.4098 158.47 37.4098H159.31C159.801 37.4098 160.2 37.0113 160.2 36.5198V35.8998C160.2 35.4082 159.801 35.0098 159.31 35.0098Z" fill="#E75F0D"/>
<path d="M154.91 37.4202H155.32L154.27 37.1602C154.43 37.3202 154.66 37.4202 154.91 37.4202Z" fill="#E75F0D"/>
<path d="M155.74 37.4195C156.24 37.4195 156.63 37.0295 156.63 36.5295V35.9095C156.63 35.4095 156.24 35.0195 155.74 35.0195H154.91C154.41 35.0195 154.02 35.4095 154.02 35.9095V36.5295C154.02 36.7795 154.12 36.9995 154.27 37.1595L155.32 37.4195H155.74Z" fill="#E75F0D"/>
<path d="M159.31 26.5703H158.47C157.978 26.5703 157.58 26.9688 157.58 27.4603V28.0803C157.58 28.5718 157.978 28.9703 158.47 28.9703H159.31C159.801 28.9703 160.2 28.5718 160.2 28.0803V27.4603C160.2 26.9688 159.801 26.5703 159.31 26.5703Z" fill="#E75F0D"/>
<path d="M155.74 28.9703C156.24 28.9703 156.63 28.5803 156.63 28.0803V27.4603C156.63 26.9603 156.24 26.5703 155.74 26.5703H155.69L155.19 28.9703H155.74Z" fill="#E75F0D"/>
<path d="M155.17 28.9703H155.19L155.69 26.5703H155.67L155.17 28.9703Z" fill="#E75F0D"/>
<path d="M162.97 36.6299C162.97 36.0499 162.97 34.9999 162.97 34.8599C162.97 27.7099 161.56 18.4999 157.41 18.1299L157.25 18.9099L156.91 20.5399C156.91 20.5399 156.92 20.5399 156.93 20.5399C159.66 20.8399 160.27 26.1499 160.79 29.7699C161.22 33.1999 161.17 35.7199 161.17 35.7199C161.16 36.1299 161.13 37.5199 161.1 38.2499C161.1 38.4099 161.09 38.5299 161.08 38.6099L160.64 38.7499H160.59C158.82 40.4799 157.25 42.5799 157.25 44.5099C157.25 42.3499 155.28 39.9899 153.28 38.1399L152.91 39.9499L151.62 46.2999C151.52 46.7499 151.33 47.1499 151.07 47.4799C151 47.5699 150.93 47.6499 150.85 47.7299H162.42C162.42 47.7299 165.4 47.5299 165.4 44.5399V34.8699C165.4 34.8699 164.34 35.5599 162.98 36.6399L162.97 36.6299Z" fill="#E75F0D"/>
<path d="M152.97 11.7695H148.48V18.5795H153.37C153.68 18.5795 153.92 18.8195 153.92 19.1295V19.5095C153.92 19.8195 153.68 20.0595 153.37 20.0595H148.48V27.0295H151.78C151.97 27.0295 152.12 27.1195 152.22 27.2595C152.29 27.3495 152.33 27.4595 152.33 27.5795V27.9595C152.33 28.1795 152.2 28.3595 152.02 28.4495C151.95 28.4895 151.87 28.5095 151.78 28.5095H148.48V35.4895H150.52C150.83 35.4895 151.07 35.7295 151.07 36.0395V36.4195C151.07 36.7295 150.83 36.9695 150.52 36.9695H148.48V47.7195C148.76 47.7395 149.05 47.6995 149.32 47.6095C149.66 47.4895 149.96 47.2895 150.2 46.9895C150.38 46.7595 150.53 46.4795 150.6 46.1395L156.72 16.3595C157.22 14.0095 155.38 11.7695 152.97 11.7695Z" fill="#E75F0D"/>
<path d="M153.11 10.12L155.96 3.97C156.04 3.77 156.07 3.58 156.07 3.41C156.1 2.77 155.54 2.15 154.81 2.15C154.45 2.18 154.05 2.35 153.83 2.63L150.78 6.24L149.94 1.09C149.83 0.47 149.3 0 148.68 0H148.51C148.51 0 148.48 0 148.46 0V10.12H153.09H153.11Z" fill="#39B185"/>
<path d="M134.31 27.7698H133.94C133.49 27.7698 133.14 28.0798 133.14 28.4698V29.3898C133.14 29.7798 133.49 30.0898 133.94 30.0898H134.31C134.56 30.0898 134.78 29.9898 134.93 29.8298C134.95 29.5698 134.96 29.3198 134.98 29.0698C135 28.7698 135.02 28.4798 135.05 28.1898C134.93 27.9398 134.65 27.7598 134.31 27.7598V27.7698Z" fill="#39B185"/>
<path d="M131.83 27.7695H131.46C131.01 27.7695 130.66 28.0795 130.66 28.4695V29.3895C130.66 29.7795 131.01 30.0895 131.46 30.0895H131.83C132.28 30.0895 132.63 29.7795 132.63 29.3895V28.4695C132.63 28.0795 132.28 27.7695 131.83 27.7695Z" fill="#39B185"/>
<path d="M133.93 31.1104C133.48 31.1104 133.13 31.4204 133.13 31.8104V32.7304C133.13 33.1204 133.48 33.4304 133.93 33.4304H134.3C134.46 33.4304 134.6 33.3904 134.72 33.3304C134.75 32.6404 134.79 31.9604 134.83 31.2904C134.69 31.1804 134.51 31.1204 134.3 31.1204H133.93V31.1104Z" fill="#39B185"/>
<path d="M131.83 31.1104H131.46C131.01 31.1104 130.66 31.4204 130.66 31.8104V32.7304C130.66 33.1204 131.01 33.4304 131.46 33.4304H131.83C132.28 33.4304 132.63 33.1204 132.63 32.7304V31.8104C132.63 31.4204 132.28 31.1104 131.83 31.1104Z" fill="#39B185"/>
<path d="M133.93 34.4504C133.48 34.4504 133.13 34.7604 133.13 35.1504V36.0704C133.13 36.4604 133.48 36.7704 133.93 36.7704H134.3C134.4 36.7704 134.49 36.7504 134.58 36.7204C134.61 36.0004 134.63 35.2604 134.67 34.5204C134.56 34.4704 134.44 34.4404 134.3 34.4404H133.93V34.4504Z" fill="#39B185"/>
<path d="M131.83 34.4502H131.46C131.01 34.4502 130.66 34.7602 130.66 35.1502V36.0702C130.66 36.4602 131.01 36.7702 131.46 36.7702H131.83C132.28 36.7702 132.63 36.4602 132.63 36.0702V35.1502C132.63 34.7602 132.28 34.4502 131.83 34.4502Z" fill="#39B185"/>
<path d="M133.93 37.8C133.48 37.8 133.13 38.11 133.13 38.5V39.42C133.13 39.81 133.48 40.12 133.93 40.12H134.3C134.36 40.12 134.42 40.12 134.48 40.1C134.5 39.37 134.52 38.61 134.55 37.83C134.47 37.81 134.39 37.79 134.31 37.79H133.94L133.93 37.8Z" fill="#39B185"/>
<path d="M131.83 37.7998H131.46C131.01 37.7998 130.66 38.1098 130.66 38.4998V39.4198C130.66 39.8098 131.01 40.1198 131.46 40.1198H131.83C132.28 40.1198 132.63 39.8098 132.63 39.4198V38.4998C132.63 38.1098 132.28 37.7998 131.83 37.7998Z" fill="#39B185"/>
<path d="M133.93 41.1396C133.48 41.1396 133.13 41.4496 133.13 41.8396V42.7596C133.13 43.1496 133.48 43.4596 133.93 43.4596H134.3C134.3 43.4596 134.37 43.4596 134.41 43.4596C134.42 42.7496 134.44 41.9796 134.46 41.1596C134.41 41.1596 134.36 41.1497 134.31 41.1497H133.94L133.93 41.1396Z" fill="#39B185"/>
<path d="M131.83 41.1396H131.46C131.01 41.1396 130.66 41.4496 130.66 41.8396V42.7596C130.66 43.1496 131.01 43.4596 131.46 43.4596H131.83C132.28 43.4596 132.63 43.1496 132.63 42.7596V41.8396C132.63 41.4496 132.28 41.1396 131.83 41.1396Z" fill="#39B185"/>
<path d="M134.39 45.0404H129.84V26.2104C129.84 25.9604 130.04 25.7604 130.29 25.7604H132.64C133.38 25.7604 133.99 25.1604 133.99 24.4104V21.2604C133.99 21.0104 134.19 20.8104 134.44 20.8104H136.39C136.72 19.8304 137.12 18.9404 137.6 18.1104H134.44C132.7 18.1104 131.29 19.5204 131.29 21.2604V23.0604H130.28C128.54 23.0604 127.13 24.4704 127.13 26.2104V45.0404H126.39C125.65 45.0404 125.04 45.6404 125.04 46.3904C125.04 47.1404 125.64 47.7404 126.39 47.7404H134.35C134.35 47.7404 134.35 46.6704 134.38 45.0404H134.39Z" fill="#39B185"/>
<path d="M146.2 0C145.77 0 145.43 0.34 145.43 0.77V12.64C142.22 14.38 140.09 16.11 138.68 18.4C138.22 19.14 137.84 19.94 137.52 20.81C136.71 23 136.28 25.68 136.04 29.14C135.64 34.65 135.5 41.37 135.45 45.03C135.43 46.69 135.42 47.72 135.42 47.72H147.12V45.86H138.23C137.73 45.86 137.34 45.47 137.34 44.97V44.35C137.34 43.85 137.73 43.46 138.23 43.46H147.12V41.64H138.31C137.81 41.64 137.42 41.25 137.42 40.75V40.13C137.42 39.63 137.81 39.24 138.31 39.24H147.12V37.42H138.45C137.95 37.42 137.56 37.03 137.56 36.53V35.91C137.56 35.41 137.95 35.02 138.45 35.02H147.12V33.2H138.65C138.15 33.2 137.76 32.81 137.76 32.31V31.69C137.76 31.19 138.15 30.8 138.65 30.8H147.12V28.98H138.95C138.45 28.98 138.06 28.59 138.06 28.09V27.47C138.06 26.97 138.45 26.58 138.95 26.58H147.12V24.76H139.71C139.21 24.76 138.82 24.37 138.82 23.87V23.25C138.82 22.75 139.21 22.36 139.71 22.36H147.12V20.54H141.27C140.77 20.54 140.38 20.15 140.38 19.65V19.03C140.38 18.53 140.77 18.14 141.27 18.14H147.12V0H146.2Z" fill="#39B185"/>
<path d="M10.85 20.2596C10.45 20.4096 10.03 20.4596 9.56 20.4596C9.29 20.4596 8.96 20.4396 8.71 20.3896L7.67 17.5896H3.08L2.08 20.3896C1.77 20.4396 1.44 20.4596 1.15 20.4596C0.71 20.4596 0.33 20.4096 0 20.2596L4.35 8.70961C4.7 8.61961 5.08 8.59961 5.42 8.59961C5.78 8.59961 6.11 8.61961 6.46 8.70961L10.84 20.2596H10.85ZM7.03 15.8396L5.68 12.1996L5.35 11.1296L5.02 12.1996L3.71 15.8396H7.02H7.03Z" fill="white"/>
<path d="M19.6897 19.4396C19.6897 19.7296 19.6497 20.0596 19.5797 20.3896H12.4297V8.70961C12.7797 8.63961 13.0997 8.59961 13.4497 8.59961C13.7997 8.59961 14.1397 8.63961 14.4897 8.70961V18.5296H19.5797C19.6497 18.8396 19.6897 19.1296 19.6897 19.4396Z" fill="white"/>
<path d="M21.3896 20.3896V8.72961C21.7396 8.63961 22.0796 8.59961 22.4096 8.59961C22.7596 8.59961 23.0996 8.63961 23.4496 8.72961V20.3896C23.1196 20.4596 22.7996 20.4996 22.4496 20.4996C22.0896 20.4996 21.7596 20.4596 21.3996 20.3896H21.3896Z" fill="white"/>
<path d="M37.8896 8.77012V20.3901C37.5296 20.4601 37.2396 20.5001 36.9296 20.5001C36.5996 20.5001 36.3096 20.4601 35.9296 20.3901V14.0101L36.0196 12.3201L35.7096 13.1901L33.0596 19.3401C32.7096 19.3901 32.4196 19.4101 32.1496 19.4101C31.8996 19.4101 31.6196 19.3901 31.2596 19.3401L28.5096 13.1601L28.1796 12.3401L28.2496 14.0101V20.3901C27.9196 20.4601 27.5796 20.5001 27.2896 20.5001C26.9596 20.5001 26.6896 20.4601 26.3296 20.3901V8.77012C26.6196 8.70012 26.9696 8.62012 27.4396 8.62012C27.7696 8.62012 28.0896 8.64012 28.4396 8.71012L32.0396 16.5801L32.2596 17.1601L32.4396 16.5801L35.8196 8.71012C36.1496 8.66012 36.3796 8.64012 36.7996 8.64012C37.1596 8.64012 37.5096 8.68012 37.8896 8.77012Z" fill="white"/>
<path d="M48.5 19.4202C48.5 19.7502 48.46 20.0802 48.37 20.3802H40.73V8.7002H48.2C48.27 8.9902 48.31 9.3402 48.31 9.6502C48.31 9.9802 48.27 10.2702 48.2 10.5802H42.78V13.4702H47.6C47.67 13.7802 47.71 14.0902 47.71 14.4002C47.71 14.7102 47.67 15.0002 47.6 15.3302H42.78V18.5302H48.36C48.45 18.8202 48.49 19.1302 48.49 19.4202H48.5Z" fill="white"/>
<path d="M60.2899 8.72996V20.3C59.6899 20.45 58.9799 20.48 58.3799 20.46L52.9799 12.71L52.6499 12.09L52.6899 12.82V20.39C52.3299 20.46 52.0199 20.5 51.6699 20.5C51.3399 20.5 51.0499 20.46 50.6699 20.39V8.83996C51.1099 8.67996 51.9299 8.54996 52.5999 8.65996L57.9799 16.41L58.3099 16.99L58.2699 16.17V8.72996C58.6499 8.65996 58.9099 8.61996 59.2699 8.61996C59.6299 8.61996 59.9399 8.65996 60.2899 8.72996Z" fill="white"/>
<path d="M71.21 10.57H67.68V20.41C67.33 20.46 67.01 20.52 66.64 20.52C66.31 20.52 65.97 20.47 65.62 20.41V10.57H62.07C62 10.26 61.96 9.94996 61.96 9.63996C61.96 9.32996 62 9.01996 62.07 8.70996H71.2C71.27 9.01996 71.31 9.32996 71.31 9.63996C71.31 9.94996 71.27 10.24 71.2 10.57H71.21Z" fill="white"/>
<path d="M81.5099 20.2596C81.1099 20.4096 80.6899 20.4596 80.2199 20.4596C79.9499 20.4596 79.6199 20.4396 79.3699 20.3896L78.3299 17.5896H73.7499L72.7499 20.3896C72.4399 20.4396 72.1099 20.4596 71.8199 20.4596C71.3799 20.4596 70.9999 20.4096 70.6699 20.2596L75.0199 8.70961C75.3699 8.61961 75.7499 8.59961 76.0899 8.59961C76.4499 8.59961 76.7799 8.61961 77.1299 8.70961L81.5099 20.2596ZM77.6899 15.8396L76.3399 12.1996L76.0099 11.1296L75.6799 12.1996L74.3699 15.8396H77.6799H77.6899Z" fill="white"/>
<path d="M90.0298 10.57H86.4998V20.41C86.1498 20.46 85.8298 20.52 85.4598 20.52C85.1298 20.52 84.7898 20.47 84.4398 20.41V10.57H80.8898C80.8198 10.26 80.7798 9.94996 80.7798 9.63996C80.7798 9.32996 80.8198 9.01996 80.8898 8.70996H90.0198C90.0898 9.01996 90.1298 9.32996 90.1298 9.63996C90.1298 9.94996 90.0898 10.24 90.0198 10.57H90.0298Z" fill="white"/>
<path d="M91.8496 20.3896V8.72961C92.1996 8.63961 92.5396 8.59961 92.8696 8.59961C93.2196 8.59961 93.5596 8.63961 93.9096 8.72961V20.3896C93.5796 20.4596 93.2596 20.4996 92.9096 20.4996C92.5496 20.4996 92.2196 20.4596 91.8596 20.3896H91.8496Z" fill="white"/>
<path d="M96.0698 14.5301C96.0698 10.9801 98.5598 8.37012 102.04 8.37012C105.52 8.37012 108.01 10.9001 108.01 14.5301C108.01 18.1601 105.52 20.6801 102.04 20.6801C98.5598 20.6801 96.0698 18.1301 96.0698 14.5301ZM105.78 14.5301C105.78 11.9801 104.31 10.2901 102.03 10.2901C99.7498 10.2901 98.2798 11.9801 98.2798 14.5301C98.2798 17.0801 99.7498 18.7501 102.03 18.7501C104.31 18.7501 105.78 17.0201 105.78 14.5301Z" fill="white"/>
<path d="M119.78 8.72996V20.3C119.18 20.45 118.47 20.48 117.87 20.46L112.47 12.71L112.14 12.09L112.18 12.82V20.39C111.82 20.46 111.51 20.5 111.16 20.5C110.83 20.5 110.54 20.46 110.16 20.39V8.83996C110.6 8.67996 111.42 8.54996 112.09 8.65996L117.47 16.41L117.8 16.99L117.76 16.17V8.72996C118.14 8.65996 118.4 8.61996 118.76 8.61996C119.12 8.61996 119.43 8.65996 119.78 8.72996Z" fill="white"/>
<path d="M22.51 37.2404C22.51 37.5304 22.47 37.8604 22.4 38.1904H15.25V26.5104C15.6 26.4404 15.92 26.4004 16.27 26.4004C16.62 26.4004 16.96 26.4404 17.31 26.5104V36.3304H22.4C22.47 36.6404 22.51 36.9304 22.51 37.2404Z" fill="white"/>
<path d="M22.8896 32.3299C22.8896 28.7799 25.3796 26.1699 28.8596 26.1699C32.3396 26.1699 34.8296 28.6999 34.8296 32.3299C34.8296 35.9599 32.3396 38.4799 28.8596 38.4799C25.3796 38.4799 22.8896 35.9299 22.8896 32.3299ZM32.5996 32.3299C32.5996 29.7799 31.1296 28.0899 28.8496 28.0899C26.5696 28.0899 25.0996 29.7799 25.0996 32.3299C25.0996 34.8799 26.5696 36.5499 28.8496 36.5499C31.1296 36.5499 32.5996 34.8199 32.5996 32.3299Z" fill="white"/>
<path d="M36.2698 32.3499C36.2698 28.7499 38.8298 26.1699 42.2698 26.1699C43.8898 26.1699 45.0498 26.6399 45.8498 27.2599C45.7398 27.8799 45.2998 28.5699 44.7198 28.8799C43.9698 28.3699 43.2498 28.1199 42.2998 28.1199C40.0998 28.1199 38.4798 29.7199 38.4798 32.3599C38.4798 34.9999 40.0998 36.5599 42.2098 36.5599C43.5698 36.5599 44.2798 36.1999 44.8998 35.6899C45.5498 36.0699 45.8498 36.5299 45.9898 37.3099C45.2998 37.8899 44.1498 38.5099 42.1498 38.5099C38.5898 38.5099 36.2598 35.9799 36.2598 32.3599L36.2698 32.3499Z" fill="white"/>
<path d="M57.3595 38.0604C56.9595 38.2104 56.5395 38.2604 56.0695 38.2604C55.7995 38.2604 55.4695 38.2404 55.2195 38.1904L54.1795 35.3904H49.5995L48.5995 38.1904C48.2895 38.2404 47.9595 38.2604 47.6695 38.2604C47.2295 38.2604 46.8495 38.2104 46.5195 38.0604L50.8695 26.5104C51.2195 26.4204 51.5995 26.4004 51.9395 26.4004C52.2995 26.4004 52.6295 26.4204 52.9795 26.5104L57.3595 38.0604ZM53.5395 33.6404L52.1895 30.0004L51.8595 28.9304L51.5295 30.0004L50.2195 33.6404H53.5295H53.5395Z" fill="white"/>
<path d="M66.1999 37.2404C66.1999 37.5304 66.1599 37.8604 66.0899 38.1904H58.9399V26.5104C59.2899 26.4404 59.6099 26.4004 59.9599 26.4004C60.3099 26.4004 60.6499 26.4404 60.9999 26.5104V36.3304H66.0899C66.1599 36.6404 66.1999 36.9304 66.1999 37.2404Z" fill="white"/>
<path d="M75.6699 37.22C75.6699 37.55 75.6299 37.88 75.5399 38.18H67.8999V26.5H75.3699C75.4399 26.79 75.4799 27.14 75.4799 27.45C75.4799 27.78 75.4399 28.07 75.3699 28.38H69.9499V31.27H74.7699C74.8399 31.58 74.8799 31.89 74.8799 32.2C74.8799 32.51 74.8399 32.8 74.7699 33.13H69.9499V36.33H75.5299C75.6199 36.62 75.6599 36.93 75.6599 37.22H75.6699Z" fill="white"/>
<path d="M88.5195 34.4702C88.5195 36.5102 87.5695 37.1602 86.4895 37.1602C85.8495 37.1602 85.4795 36.8602 85.2495 36.4702C84.8895 36.7902 84.4095 37.0102 83.8595 37.0102C82.5195 37.0102 81.6495 36.1702 81.6495 34.6502C81.6495 33.2702 82.6795 32.2002 84.0895 32.2002C84.7895 32.2002 85.4495 32.4002 85.9195 32.8002V35.5002C85.9195 36.0102 86.0695 36.3302 86.6495 36.3302C87.0495 36.3302 87.5495 36.0302 87.5495 34.4802C87.5495 32.4702 86.0095 30.8102 83.8995 30.8102C81.7895 30.8102 80.2695 32.5202 80.2695 34.6502C80.2695 36.7802 81.5795 38.4702 83.8995 38.4702C84.4995 38.4702 85.0795 38.3202 85.5895 38.0602C85.7795 38.2202 85.9295 38.6002 85.9295 38.9002C85.3695 39.2002 84.6495 39.3902 83.8995 39.3902C81.0195 39.3902 79.2695 37.2902 79.2695 34.6502C79.2695 32.0102 81.3295 29.9102 83.8995 29.9102C86.4695 29.9102 88.5295 31.7702 88.5295 34.4902L88.5195 34.4702ZM85.0695 35.6402V33.3302C84.8395 33.1702 84.5395 33.0302 84.0895 33.0302C83.1895 33.0302 82.5595 33.6502 82.5595 34.6502C82.5595 35.6502 83.0995 36.1602 83.8595 36.1602C84.3595 36.1602 84.7795 35.9602 85.0595 35.6302L85.0695 35.6402Z" fill="#39B185"/>
<path d="M95.9998 37.6996C95.9998 37.8496 95.9898 38.0096 95.9398 38.1896H91.2598V30.1596C91.4298 30.1196 91.5798 30.0996 91.7498 30.0996C91.9198 30.0996 92.0998 30.1196 92.2698 30.1596V37.2696H95.9298C95.9798 37.4196 95.9898 37.5596 95.9898 37.6896L95.9998 37.6996Z" fill="white"/>
<path d="M97.3398 38.1901V30.1601C97.5298 30.1001 97.6898 30.0801 97.8498 30.0801C98.0098 30.0801 98.1698 30.0901 98.3498 30.1601V38.1901C98.1798 38.2301 98.0298 38.2501 97.8498 38.2501C97.6698 38.2501 97.5298 38.2201 97.3398 38.1901Z" fill="white"/>
<path d="M105.77 37.7004C105.77 37.8604 105.74 38.0404 105.69 38.1904H100.59V30.1604H105.57C105.62 30.3004 105.65 30.4904 105.65 30.6504C105.65 30.8104 105.63 30.9604 105.57 31.1004H101.59V33.5904H105.13C105.18 33.7504 105.21 33.9004 105.21 34.0504C105.21 34.2104 105.19 34.3504 105.13 34.5104H101.59V37.2604H105.69C105.74 37.4004 105.77 37.5504 105.77 37.7004ZM104.13 29.7704L101.8 28.8604C101.81 28.4204 101.95 28.1604 102.32 27.9404L104.33 29.3604C104.31 29.5604 104.24 29.6704 104.12 29.7704H104.13Z" fill="white"/>
<path d="M113.6 34.0404V37.7704C112.94 38.1204 111.96 38.3904 110.86 38.3904C108.59 38.3904 106.76 36.8204 106.76 34.1904C106.76 31.5604 108.67 29.9404 110.82 29.9404C112.12 29.9404 113.01 30.2804 113.53 30.6704C113.47 31.0504 113.32 31.3204 112.99 31.5204C112.39 31.1304 111.78 30.9104 110.81 30.9104C109.21 30.9104 107.81 32.1004 107.81 34.2004C107.81 36.1404 108.84 37.4504 110.87 37.4504C111.6 37.4504 112.15 37.3404 112.56 37.1804V35.0204H110.87C110.82 34.8504 110.81 34.7004 110.81 34.5504C110.81 34.4004 110.82 34.2404 110.87 34.0604H113.58L113.6 34.0404Z" fill="white"/>
<path d="M120.66 37.7002C120.66 37.8602 120.63 38.0402 120.58 38.1902H115.48V30.1602H120.46C120.51 30.3002 120.54 30.4902 120.54 30.6502C120.54 30.8102 120.52 30.9602 120.46 31.1002H116.48V33.5902H120.02C120.07 33.7502 120.1 33.9002 120.1 34.0502C120.1 34.2102 120.08 34.3502 120.02 34.5102H116.48V37.2602H120.58C120.63 37.4002 120.66 37.5502 120.66 37.7002Z" fill="white"/>
</svg>
