<svg width="262" height="138" viewBox="0 0 262 138" fill="none" xmlns="http://www.w3.org/2000/svg">
<g filter="url(#filter0_d_235_230)">
<circle cx="131.409" cy="39.5" r="35" fill="white"/>
</g>
<path d="M129.93 56.0905C129.93 57.0914 130.665 57.9009 131.573 57.9009C132.482 57.9009 133.217 57.0914 133.217 56.0905V14.9892C133.217 13.9882 132.482 13.1787 131.573 13.1787C130.665 13.1787 129.93 13.9882 129.93 14.9892V56.0905Z" fill="#DF006E"/>
<path d="M137.817 56.0953C137.817 57.0938 138.552 57.9013 139.46 57.9013C140.369 57.9013 141.103 57.0938 141.103 56.0953V48.6888C141.103 47.6903 140.369 46.8828 139.46 46.8828C138.552 46.8828 137.817 47.6903 137.817 48.6888V56.0953Z" fill="#DF006E"/>
<path d="M145.045 56.2221C145.045 57.1505 145.927 57.9013 147.017 57.9013C148.107 57.9013 148.989 57.1505 148.989 56.2221V55.0434C148.989 54.115 148.107 53.3643 147.017 53.3643C145.927 53.3643 145.045 54.115 145.045 55.0434V56.2221Z" fill="#DF006E"/>
<path d="M122.042 56.0953C122.042 57.0938 122.776 57.9013 123.685 57.9013C124.593 57.9013 125.328 57.0938 125.328 56.0953V48.6888C125.328 47.6903 124.593 46.8828 123.685 46.8828C122.776 46.8828 122.042 47.6903 122.042 48.6888V56.0953Z" fill="#222222"/>
<path d="M114.155 56.2221C114.155 57.1505 115.036 57.9013 116.127 57.9013C117.217 57.9013 118.098 57.1505 118.098 56.2221V55.0434C118.098 54.115 117.217 53.3643 116.127 53.3643C115.036 53.3643 114.155 54.115 114.155 55.0434V56.2221Z" fill="#222222"/>
<path d="M26.1082 94.844L15.2674 127.771C14.8665 129.042 13.9645 129.711 13.0959 129.711C12.2273 129.711 11.3754 129.042 10.9745 127.771L0.133634 94.844C0.0501147 94.5262 0 94.3088 0 94.0246C0 92.7202 1.16927 91.8506 2.35525 91.8506C3.20715 91.8506 4.07575 92.3021 4.42653 93.3891L13.0959 119.794L21.8153 93.3891C22.1828 92.3021 23.0347 91.8506 23.8866 91.8506C25.0558 91.8506 26.2418 92.7034 26.2418 94.0246C26.2418 94.2921 26.1917 94.5262 26.1082 94.844Z" fill="white"/>
<path d="M32.1068 128.942C30.9709 128.942 29.8518 128.172 29.8518 126.684V104.292C29.8518 102.804 30.9876 102.035 32.1068 102.035C33.226 102.035 34.3618 102.804 34.3618 104.292V126.684C34.3618 128.172 33.2427 128.942 32.1068 128.942ZM32.1068 99.108C30.9709 99.108 29.8518 98.3388 29.8518 96.8505V94.1414C29.8518 92.653 30.9876 91.8838 32.1068 91.8838C33.226 91.8838 34.3618 92.653 34.3618 94.1414V96.8505C34.3618 98.3388 33.2427 99.108 32.1068 99.108Z" fill="white"/>
<path d="M45.7534 129.443C45.4861 129.443 45.1687 129.36 44.8513 129.26C44.8513 129.26 44.4839 129.126 43.9493 128.758C41.3268 127.086 40.2411 123.958 40.2411 120.932V94.1082C40.2411 92.6198 41.3769 91.8506 42.4961 91.8506C43.6153 91.8506 44.7511 92.6198 44.7511 94.1082V120.932C44.7511 122.42 45.152 124.142 46.4716 124.995C47.5073 125.397 47.9249 126.216 47.9249 127.035C47.9249 128.206 47.073 129.427 45.7534 129.427" fill="white"/>
<path d="M57.4951 129.443C57.2278 129.443 56.9105 129.36 56.5931 129.26C56.5931 129.26 56.2256 129.126 55.6911 128.758C53.0686 127.086 51.9828 123.958 51.9828 120.932V94.1082C51.9828 92.6198 53.1187 91.8506 54.2378 91.8506C55.357 91.8506 56.4929 92.6198 56.4929 94.1082V120.932C56.4929 122.42 56.8938 124.142 58.2134 124.995C59.249 125.397 59.6666 126.216 59.6666 127.035C59.6666 128.206 58.798 129.427 57.4951 129.427" fill="white"/>
<path d="M78.1746 111.316C78.1746 108.423 75.8695 106.115 72.9797 106.115C70.0899 106.115 67.7848 108.423 67.7848 111.316V112.219H78.1746V111.316ZM80.4464 116.734H67.8015V119.677C67.8015 122.386 70.424 124.878 73.4474 124.878C75.1679 124.878 76.6546 124.376 77.8239 123.155C78.325 122.436 78.9597 122.119 79.6279 122.119C80.7971 122.119 81.9831 123.155 81.9831 124.376C81.9831 124.828 81.8495 125.229 81.5321 125.68C81.5321 125.68 81.3484 125.998 80.9475 126.4C79.0432 128.44 76.2036 129.393 73.4474 129.393C68.2525 129.393 63.2915 125.195 63.2915 119.677V111.316C63.2915 105.931 67.6345 101.6 72.9964 101.6C78.3584 101.6 82.7014 105.948 82.7014 111.316V114.476C82.7014 115.697 81.6657 116.734 80.4464 116.734Z" fill="white"/>
<path d="M112.969 111.316C112.969 108.423 110.664 106.115 107.775 106.115C104.885 106.115 102.58 108.423 102.58 111.316V119.677C102.58 122.57 104.885 124.878 107.775 124.878C110.664 124.878 112.969 122.57 112.969 119.677V111.316ZM107.775 129.41C102.396 129.41 98.0696 125.062 98.0696 119.677V111.316C98.0696 105.931 102.413 101.6 107.775 101.6C109.679 101.6 111.483 102.135 112.969 103.088V94.1414C112.969 92.653 114.105 91.8838 115.225 91.8838C116.344 91.8838 117.48 92.653 117.48 94.1414V119.694C117.48 125.079 113.137 129.427 107.775 129.427" fill="white"/>
<path d="M137.808 111.316C137.808 108.423 135.503 106.115 132.613 106.115C129.724 106.115 127.418 108.423 127.418 111.316V112.219H137.808V111.316ZM140.063 116.734H127.418V119.677C127.418 122.386 130.041 124.878 133.064 124.878C134.785 124.878 136.272 124.376 137.441 123.155C137.942 122.436 138.577 122.119 139.245 122.119C140.414 122.119 141.6 123.155 141.6 124.376C141.6 124.828 141.466 125.229 141.149 125.68C141.149 125.68 140.965 125.998 140.564 126.4C138.66 128.44 135.82 129.393 133.064 129.393C127.869 129.393 122.908 125.195 122.908 119.677V111.316C122.908 105.931 127.251 101.6 132.613 101.6C137.975 101.6 142.318 105.948 142.318 111.316V114.476C142.318 115.697 141.283 116.734 140.063 116.734Z" fill="white"/>
<path d="M177.779 128.942H160.841C159.622 128.942 158.586 127.905 158.586 126.684V94.1248C158.586 92.6364 159.722 91.8672 160.841 91.8672C161.961 91.8672 163.096 92.6364 163.096 94.1248V124.427H177.779C179.266 124.427 180.034 125.564 180.034 126.684C180.034 127.805 179.266 128.942 177.779 128.942Z" fill="white"/>
<path d="M186.365 128.942C185.229 128.942 184.11 128.172 184.11 126.684V104.292C184.11 102.804 185.246 102.035 186.365 102.035C187.484 102.035 188.62 102.804 188.62 104.292V126.684C188.62 128.172 187.484 128.942 186.365 128.942ZM186.365 99.108C185.229 99.108 184.11 98.3388 184.11 96.8505V94.1414C184.11 92.653 185.246 91.8838 186.365 91.8838C187.484 91.8838 188.62 92.653 188.62 94.1414V96.8505C188.62 98.3388 187.484 99.108 186.365 99.108Z" fill="white"/>
<path d="M206.828 99.1423C206.46 99.1423 206.109 99.0085 205.692 98.6908L200.764 94.7609C200.23 94.3596 200.046 93.8579 200.046 93.4064C200.046 92.403 200.898 91.5 201.9 91.5C202.217 91.5 202.618 91.6338 203.036 91.9515L207.963 95.8814C208.465 96.2827 208.682 96.7844 208.682 97.2359C208.682 98.1891 207.78 99.1423 206.828 99.1423ZM208.949 111.317C208.949 108.423 206.644 106.116 203.754 106.116C200.864 106.116 198.559 108.423 198.559 111.317V112.22H208.949V111.317ZM211.204 116.735H198.559V119.678C198.559 122.387 201.182 124.879 204.205 124.879C205.926 124.879 207.412 124.377 208.581 123.156C209.083 122.437 209.717 122.119 210.385 122.119C211.555 122.119 212.741 123.156 212.741 124.377C212.741 124.829 212.607 125.23 212.29 125.681C212.29 125.681 212.106 125.999 211.705 126.401C209.801 128.441 206.961 129.394 204.205 129.394C199.01 129.394 194.049 125.196 194.049 119.678V111.317C194.049 105.932 198.375 101.601 203.754 101.601C209.133 101.601 213.459 105.949 213.459 111.317V114.477C213.459 115.698 212.423 116.735 211.204 116.735Z" fill="white"/>
<path d="M232.885 111.316C232.885 108.423 230.58 106.115 227.69 106.115C224.8 106.115 222.495 108.423 222.495 111.316V118.774C222.495 121.667 224.8 123.975 227.69 123.975C230.58 123.975 232.885 121.667 232.885 118.774V111.316ZM227.69 137.988C224.934 137.988 221.226 136.768 219.606 134.276C219.288 133.824 219.155 133.423 219.155 132.972C219.155 131.751 220.324 130.714 221.51 130.714C222.195 130.714 222.829 131.032 223.314 131.751C223.314 131.751 223.364 131.801 223.447 131.885C224.533 133.022 226.153 133.473 227.69 133.473C230.58 133.473 232.885 131.166 232.885 128.272V127.002C231.399 127.955 229.594 128.49 227.69 128.49C222.312 128.49 217.985 124.142 217.985 118.774V111.316C217.985 105.931 222.328 101.6 227.69 101.6C233.052 101.6 237.395 105.948 237.395 111.316V128.272C237.395 133.657 233.052 138.005 227.69 138.005" fill="white"/>
<path d="M257.274 111.316C257.274 108.423 254.969 106.115 252.079 106.115C249.189 106.115 246.884 108.423 246.884 111.316V112.219H257.274V111.316ZM259.546 116.734H246.901V119.677C246.901 122.386 249.523 124.878 252.547 124.878C254.267 124.878 255.754 124.376 256.923 123.155C257.424 122.436 258.059 122.119 258.727 122.119C259.897 122.119 261.083 123.155 261.083 124.376C261.083 124.828 260.949 125.229 260.632 125.68C260.632 125.68 260.448 125.998 260.047 126.4C258.143 128.44 255.303 129.393 252.547 129.393C247.352 129.393 242.391 125.195 242.391 119.677V111.316C242.391 105.931 246.734 101.6 252.113 101.6C257.491 101.6 261.818 105.948 261.818 111.316V114.476C261.818 115.697 260.782 116.734 259.563 116.734" fill="white"/>
<defs>
<filter id="filter0_d_235_230" x="87.9087" y="0" width="87" height="87" filterUnits="userSpaceOnUse" color-interpolation-filters="sRGB">
<feFlood flood-opacity="0" result="BackgroundImageFix"/>
<feColorMatrix in="SourceAlpha" type="matrix" values="0 0 0 0 0 0 0 0 0 0 0 0 0 0 0 0 0 0 127 0" result="hardAlpha"/>
<feOffset dy="4"/>
<feGaussianBlur stdDeviation="4.25"/>
<feComposite in2="hardAlpha" operator="out"/>
<feColorMatrix type="matrix" values="0 0 0 0 0 0 0 0 0 0 0 0 0 0 0 0 0 0 0.2 0"/>
<feBlend mode="normal" in2="BackgroundImageFix" result="effect1_dropShadow_235_230"/>
<feBlend mode="normal" in="SourceGraphic" in2="effect1_dropShadow_235_230" result="shape"/>
</filter>
</defs>
</svg>
