<svg width="161" height="57" viewBox="0 0 161 57" fill="none" xmlns="http://www.w3.org/2000/svg">
<g clip-path="url(#clip0_288_297)">
<path d="M66.8703 28.7798C66.7003 28.0498 66.2303 27.4198 65.5903 27.0498L55.3203 21.1198C54.9103 20.8798 54.4403 20.7598 53.9603 20.7598C53.4803 20.7598 53.0103 20.8898 52.6003 21.1198L46.5103 24.6298C47.3003 25.2498 47.8803 26.1398 48.1103 27.1398C48.2003 27.4998 48.2403 27.8398 48.2403 28.1698V29.9198L53.9603 26.6198L61.4603 30.9498V42.0198C61.4603 43.5398 62.6903 44.7698 64.2103 44.7698C65.7303 44.7698 66.9603 43.5398 66.9603 42.0198V29.3998C66.9603 29.1998 66.9303 28.9998 66.8803 28.7798H66.8703Z" fill="#E0006D"/>
<path d="M53.9604 17.9101C57.6904 17.9101 60.7304 14.8701 60.7304 11.1401C60.7304 7.41012 57.6904 4.37012 53.9604 4.37012C50.2304 4.37012 47.1904 7.41012 47.1904 11.1401C47.1904 14.8701 50.2304 17.9101 53.9604 17.9101Z" fill="#E0006D"/>
<path d="M31.5005 15.1299C32.7805 15.5199 34.1705 15.5199 35.4505 15.1299C38.3205 14.2599 40.2505 11.6499 40.2505 8.64988C40.2505 4.91988 37.2104 1.87988 33.4804 1.87988C29.7504 1.87988 26.7104 4.91988 26.7104 8.64988C26.7104 11.6499 28.6405 14.2499 31.5105 15.1299H31.5005Z" fill="#E0006D"/>
<path d="M46.3902 27.5503C46.2202 26.8203 45.7502 26.1903 45.1102 25.8203L34.8402 19.8903C34.4302 19.6503 33.9602 19.5303 33.4802 19.5303C33.0002 19.5303 32.5302 19.6603 32.1202 19.8903L21.8502 25.8203C21.2102 26.1903 20.7402 26.8203 20.5702 27.5503C20.5202 27.7703 20.4902 27.9803 20.4902 28.1703V50.1203C20.4902 51.6403 21.7202 52.8703 23.2402 52.8703C24.7602 52.8703 25.9902 51.6403 25.9902 50.1203V29.7203L33.4902 25.3903L40.9902 29.7203V50.1203C40.9902 51.6403 42.2202 52.8703 43.7402 52.8703C45.2602 52.8703 46.4902 51.6403 46.4902 50.1203V28.1703C46.4902 27.9703 46.4602 27.7703 46.4102 27.5503H46.3902Z" fill="#E0006D"/>
<path d="M0.0802344 28.7798C0.250234 28.0498 0.720234 27.4198 1.36023 27.0498L11.6302 21.1198C12.0402 20.8798 12.5102 20.7598 12.9902 20.7598C13.4702 20.7598 13.9402 20.8898 14.3502 21.1198L20.4402 24.6298C19.6502 25.2498 19.0702 26.1398 18.8402 27.1398C18.7502 27.4998 18.7102 27.8398 18.7102 28.1698V29.9198L12.9902 26.6198L5.49023 30.9498V42.0198C5.49023 43.5398 4.26023 44.7698 2.74023 44.7698C1.22023 44.7698 -0.00976562 43.5398 -0.00976562 42.0198V29.3998C-0.00976562 29.1998 0.0202344 28.9998 0.0702344 28.7798H0.0802344Z" fill="#E0006D"/>
<path d="M12.9902 17.9101C9.26021 17.9101 6.22021 14.8701 6.22021 11.1401C6.22021 7.41012 9.26021 4.37012 12.9902 4.37012C16.7202 4.37012 19.7602 7.41012 19.7602 11.1401C19.7602 14.8701 16.7202 17.9101 12.9902 17.9101Z" fill="#E0006D"/>
<path d="M94.5002 23.11C94.5002 23.11 94.3302 23.41 93.9402 23.8C92.1202 25.75 89.3902 26.66 86.7402 26.66C81.5402 26.66 77.6802 23.36 77.6802 18.34V8.32C77.6802 3.29 81.5402 0 86.7402 0C89.3802 0 92.9402 1.17 94.5002 3.56C94.8002 3.99 94.9302 4.38 94.9302 4.82C94.9302 5.99 93.8002 6.99 92.6802 6.99C92.0302 6.99 91.4202 6.69 90.9502 5.99C90.9502 5.99 90.9102 5.95 90.8202 5.86C89.7802 4.78 88.2202 4.34 86.7402 4.34C83.5302 4.34 82.0102 6.07 82.0102 8.33V18.35C82.0102 20.6 83.5302 22.34 86.7402 22.34C88.3902 22.34 89.8202 21.86 90.9502 20.69C91.4302 20 92.0302 19.69 92.6802 19.69C93.8102 19.69 94.9302 20.69 94.9302 21.86C94.9302 22.29 94.8002 22.68 94.5002 23.12V23.11Z" fill="white"/>
<path d="M108.16 26.67C106.34 26.67 104.6 26.15 103.17 25.24V32.74C103.17 34.17 102.09 34.91 101 34.91C99.9101 34.91 98.8301 34.17 98.8301 32.74V9.32C98.8301 4.16 102.99 0 108.15 0C113.31 0 117.47 4.16 117.47 9.32V17.34C117.47 22.5 113.31 26.66 108.15 26.66L108.16 26.67ZM113.14 9.32C113.14 6.55 110.93 4.33 108.15 4.33C105.37 4.33 103.16 6.54 103.16 9.32V17.34C103.16 20.11 105.37 22.33 108.15 22.33C110.93 22.33 113.14 20.12 113.14 17.34V9.32Z" fill="white"/>
<path d="M130.57 26.67C126.15 26.67 121.81 24.03 121.81 18.82C121.81 14.01 125.8 11.62 129.96 10.76L134.95 9.68V8.34C134.95 5.91 133.69 4.35 130.66 4.35C127.45 4.35 127.1 6.99 125.07 6.99C123.9 6.99 122.9 6.08 122.9 4.82C122.9 4.13 123.25 3.52 123.68 3.04C125.41 1.05 128.02 0 130.66 0C136.04 0 139.29 3.47 139.29 8.32V18.34C139.29 23.37 135.17 26.66 130.57 26.66V26.67ZM134.95 13.96L130.4 15C127.54 15.61 126.15 17.17 126.15 18.77C126.15 20.85 127.71 22.33 130.53 22.33C133.17 22.33 134.95 20.6 134.95 18.34V13.96Z" fill="white"/>
<path d="M151.39 26.67C148.88 26.67 145.54 25.54 144.06 23.33C143.76 22.9 143.63 22.46 143.63 22.03C143.63 20.86 144.76 19.86 145.88 19.86C146.49 19.86 147.14 20.16 147.61 20.81L147.7 20.94C148.61 21.94 150.04 22.33 151.39 22.33C154.47 22.33 155.99 20.6 155.99 18.95C155.99 13.62 143.81 15.61 143.81 7.07C143.81 2.3 147.93 0 151.7 0C154.39 0 157.51 1.47 159.03 3.82C159.29 4.21 159.38 4.64 159.38 5.03C159.38 6.24 158.3 7.2 157.13 7.2C156.48 7.2 155.83 6.9 155.4 6.16C154.4 5.03 153.28 4.34 151.71 4.34C149.37 4.34 148.15 5.6 148.15 7.07C148.15 11.54 160.33 10.02 160.33 18.95C160.33 23.81 155.95 26.67 151.4 26.67H151.39Z" fill="white"/>
<path d="M82.5802 52.4503C79.8702 52.4503 77.6802 50.2603 77.6802 47.5503V43.3303C77.6802 40.6203 79.8702 38.4303 82.5802 38.4303C83.5402 38.4303 84.4502 38.7003 85.2002 39.1803V34.6703C85.2002 33.9203 85.7702 33.5303 86.3402 33.5303C86.9102 33.5303 87.4802 33.9203 87.4802 34.6703V47.5503C87.4802 50.2603 85.2902 52.4503 82.5802 52.4503ZM85.2002 43.3303C85.2002 41.8703 84.0402 40.7103 82.5802 40.7103C81.1202 40.7103 79.9602 41.8703 79.9602 43.3303V47.5503C79.9602 49.0103 81.1202 50.1703 82.5802 50.1703C84.0402 50.1703 85.2002 49.0103 85.2002 47.5503V43.3303Z" fill="white"/>
<path d="M98.8802 46.0602H92.5002V47.5402C92.5002 48.9102 93.8202 50.1602 95.3502 50.1602C96.2202 50.1602 96.9702 49.9102 97.5602 49.2902C97.8102 48.9202 98.1302 48.7702 98.4702 48.7702C99.0602 48.7702 99.6602 49.2902 99.6602 49.9102C99.6602 50.1402 99.5902 50.3402 99.4302 50.5702C99.4302 50.5702 99.3402 50.7302 99.1302 50.9302C98.1702 51.9602 96.7402 52.4302 95.3502 52.4302C92.7302 52.4302 90.2202 50.3102 90.2202 47.5302V43.3102C90.2202 40.6002 92.4102 38.4102 95.1202 38.4102C97.8302 38.4102 100.02 40.6002 100.02 43.3102V44.9102C100.02 45.5302 99.5002 46.0502 98.8802 46.0502V46.0602ZM97.7402 43.3302C97.7402 41.8702 96.5802 40.7102 95.1202 40.7102C93.6602 40.7102 92.5002 41.8702 92.5002 43.3302V43.7902H97.7402V43.3302Z" fill="white"/>
<path d="M117.91 52.2195H109.36C108.74 52.2195 108.22 51.6995 108.22 51.0795V34.6595C108.22 33.9095 108.79 33.5195 109.36 33.5195C109.93 33.5195 110.5 33.9095 110.5 34.6595V49.9395H117.91C118.66 49.9395 119.05 50.5095 119.05 51.0795C119.05 51.6495 118.66 52.2195 117.91 52.2195Z" fill="white"/>
<path d="M122.24 37.1695C121.67 37.1695 121.1 36.7795 121.1 36.0295V34.6595C121.1 33.9095 121.67 33.5195 122.24 33.5195C122.81 33.5195 123.38 33.9095 123.38 34.6595V36.0295C123.38 36.7795 122.81 37.1695 122.24 37.1695ZM122.24 52.2195C121.67 52.2195 121.1 51.8295 121.1 51.0795V39.7895C121.1 39.0395 121.67 38.6495 122.24 38.6495C122.81 38.6495 123.38 39.0395 123.38 39.7895V51.0795C123.38 51.8295 122.81 52.2195 122.24 52.2195Z" fill="white"/>
<path d="M134.78 46.0598H128.4V47.5398C128.4 48.9098 129.72 50.1598 131.25 50.1598C132.12 50.1598 132.87 49.9098 133.46 49.2898C133.71 48.9198 134.03 48.7698 134.37 48.7698C134.96 48.7698 135.56 49.2898 135.56 49.9098C135.56 50.1398 135.49 50.3398 135.33 50.5698C135.33 50.5698 135.24 50.7298 135.03 50.9298C134.07 51.9598 132.64 52.4298 131.25 52.4298C128.63 52.4298 126.12 50.3098 126.12 47.5298V43.3098C126.12 40.5998 128.31 38.4098 131.02 38.4098C133.73 38.4098 135.92 40.5998 135.92 43.3098V44.9098C135.92 45.5298 135.4 46.0498 134.78 46.0498V46.0598ZM133.64 43.3298C133.64 41.8698 132.48 40.7098 131.02 40.7098C129.56 40.7098 128.4 41.8698 128.4 43.3298V43.7898H133.64V43.3298ZM132.57 37.1898C132.39 37.1898 132.2 37.1198 132 36.9598L129.51 34.9798C129.24 34.7798 129.15 34.5198 129.15 34.2998C129.15 33.7998 129.58 33.3398 130.08 33.3398C130.24 33.3398 130.44 33.4098 130.65 33.5698L133.14 35.5498C133.39 35.7498 133.5 36.0098 133.5 36.2298C133.5 36.7098 133.04 37.1898 132.57 37.1898Z" fill="white"/>
<path d="M143.1 56.7797C141.71 56.7797 139.84 56.1597 139.02 54.9097C138.86 54.6797 138.79 54.4797 138.79 54.2497C138.79 53.6297 139.38 53.1097 139.98 53.1097C140.32 53.1097 140.64 53.2697 140.89 53.6297C140.89 53.6297 140.91 53.6497 140.96 53.6997C141.51 54.2697 142.33 54.4997 143.1 54.4997C144.56 54.4997 145.72 53.3397 145.72 51.8797V51.2397C144.97 51.7197 144.06 51.9897 143.1 51.9897C140.39 51.9897 138.2 49.7997 138.2 47.0897V43.3297C138.2 40.6197 140.39 38.4297 143.1 38.4297C145.81 38.4297 148 40.6197 148 43.3297V51.8797C148 54.5897 145.81 56.7797 143.1 56.7797ZM145.73 43.3297C145.73 41.8697 144.57 40.7097 143.11 40.7097C141.65 40.7097 140.49 41.8697 140.49 43.3297V47.0897C140.49 48.5497 141.65 49.7097 143.11 49.7097C144.57 49.7097 145.73 48.5497 145.73 47.0897V43.3297Z" fill="white"/>
<path d="M159.18 46.0602H152.8V47.5402C152.8 48.9102 154.12 50.1602 155.65 50.1602C156.52 50.1602 157.27 49.9102 157.86 49.2902C158.11 48.9202 158.43 48.7702 158.77 48.7702C159.36 48.7702 159.96 49.2902 159.96 49.9102C159.96 50.1402 159.89 50.3402 159.73 50.5702C159.73 50.5702 159.64 50.7302 159.43 50.9302C158.47 51.9602 157.04 52.4302 155.65 52.4302C153.03 52.4302 150.52 50.3102 150.52 47.5302V43.3102C150.52 40.6002 152.71 38.4102 155.42 38.4102C158.13 38.4102 160.32 40.6002 160.32 43.3102V44.9102C160.32 45.5302 159.8 46.0502 159.18 46.0502V46.0602ZM158.04 43.3302C158.04 41.8702 156.88 40.7102 155.42 40.7102C153.96 40.7102 152.8 41.8702 152.8 43.3302V43.7902H158.04V43.3302Z" fill="white"/>
</g>
<defs>
<clipPath id="clip0_288_297">
<rect width="160.32" height="56.78" fill="white"/>
</clipPath>
</defs>
</svg>
