<svg width="601" height="107" viewBox="0 0 601 107" fill="none" xmlns="http://www.w3.org/2000/svg">
<path d="M59.9313 7.67697L35.0462 83.2614C34.126 86.1788 32.0554 87.7143 30.0615 87.7143C28.0676 87.7143 26.1121 86.1788 25.1919 83.2614L0.306757 7.67697C0.115038 6.94761 0 6.44858 0 5.796C0 2.8018 2.68406 0.805664 5.40647 0.805664C7.362 0.805664 9.35589 1.84212 10.1611 4.33729L30.0615 64.9507L50.077 4.33729C50.9205 1.84212 52.8761 0.805664 54.8316 0.805664C57.5157 0.805664 60.2381 2.76341 60.2381 5.796C60.2381 6.41019 60.123 6.94761 59.9313 7.67697Z" fill="#DF006E"/>
<path d="M73.6986 85.9488C71.0912 85.9488 68.5222 84.183 68.5222 80.7666V29.3661C68.5222 25.9497 71.1295 24.1838 73.6986 24.1838C76.2676 24.1838 78.875 25.9497 78.875 29.3661V80.7666C78.875 84.183 76.3059 85.9488 73.6986 85.9488ZM73.6986 17.4661C71.0912 17.4661 68.5222 15.7003 68.5222 12.2838V6.06508C68.5222 2.64862 71.1295 0.882812 73.6986 0.882812C76.2676 0.882812 78.875 2.64862 78.875 6.06508V12.2838C78.875 15.7003 76.3059 17.4661 73.6986 17.4661Z" fill="#DF006E"/>
<path d="M105.025 87.1001C104.412 87.1001 103.683 86.9082 102.955 86.6778C102.955 86.6778 102.111 86.3707 100.884 85.5262C94.8644 81.6875 92.3721 74.5091 92.3721 67.561V5.98794C92.3721 2.57148 94.9794 0.805664 97.5485 0.805664C100.118 0.805664 102.725 2.57148 102.725 5.98794V67.561C102.725 70.9775 103.645 74.9313 106.674 76.8891C109.052 77.8104 110.01 79.6914 110.01 81.5723C110.01 84.2594 108.055 87.0617 105.025 87.0617" fill="#DF006E"/>
<path d="M131.98 87.1001C131.367 87.1001 130.638 86.9082 129.91 86.6778C129.91 86.6778 129.066 86.3707 127.839 85.5262C121.819 81.6875 119.327 74.5091 119.327 67.561V5.98794C119.327 2.57148 121.934 0.805664 124.503 0.805664C127.072 0.805664 129.68 2.57148 129.68 5.98794V67.561C129.68 70.9775 130.6 74.9313 133.629 76.8891C136.007 77.8104 136.965 79.6914 136.965 81.5723C136.965 84.2594 134.971 87.0617 131.98 87.0617" fill="#DF006E"/>
<path d="M179.45 45.4885C179.45 38.8475 174.158 33.5501 167.525 33.5501C160.891 33.5501 155.6 38.8475 155.6 45.4885V47.5614H179.45V45.4885ZM184.665 57.926H155.638V64.6821C155.638 70.9008 161.658 76.6205 168.599 76.6205C172.548 76.6205 175.961 75.4689 178.645 72.6666C179.795 71.016 181.252 70.2866 182.786 70.2866C185.47 70.2866 188.192 72.6666 188.192 75.4689C188.192 76.5054 187.885 77.4267 187.157 78.4631C187.157 78.4631 186.735 79.1925 185.815 80.1138C181.444 84.797 174.925 86.9851 168.599 86.9851C156.674 86.9851 145.286 77.3499 145.286 64.6821V45.4885C145.286 33.1278 155.255 23.1855 167.563 23.1855C179.872 23.1855 189.841 33.1662 189.841 45.4885V52.7437C189.841 55.546 187.464 57.926 184.665 57.926Z" fill="#DF006E"/>
<path d="M259.319 45.4887C259.319 38.8478 254.028 33.5503 247.394 33.5503C240.761 33.5503 235.469 38.8478 235.469 45.4887V64.6823C235.469 71.3233 240.761 76.6208 247.394 76.6208C254.028 76.6208 259.319 71.3233 259.319 64.6823V45.4887ZM247.394 87.0237C235.047 87.0237 225.116 77.043 225.116 64.6823V45.4887C225.116 33.1281 235.086 23.1858 247.394 23.1858C251.765 23.1858 255.906 24.4142 259.319 26.6022V6.06508C259.319 2.64862 261.926 0.882812 264.495 0.882812C267.064 0.882812 269.672 2.64862 269.672 6.06508V64.7207C269.672 77.0814 259.702 87.0621 247.394 87.0621" fill="#DF006E"/>
<path d="M316.336 45.4885C316.336 38.8475 311.044 33.5501 304.411 33.5501C297.777 33.5501 292.486 38.8475 292.486 45.4885V47.5614H316.336V45.4885ZM321.512 57.926H292.486V64.6821C292.486 70.9008 298.506 76.6205 305.446 76.6205C309.396 76.6205 312.808 75.4689 315.492 72.6666C316.643 71.016 318.1 70.2866 319.633 70.2866C322.317 70.2866 325.04 72.6666 325.04 75.4689C325.04 76.5054 324.733 77.4267 324.005 78.4631C324.005 78.4631 323.583 79.1925 322.663 80.1138C318.291 84.797 311.773 86.9851 305.446 86.9851C293.521 86.9851 282.133 77.3499 282.133 64.6821V45.4885C282.133 33.1278 292.103 23.1855 304.411 23.1855C316.719 23.1855 326.689 33.1662 326.689 45.4885V52.7437C326.689 55.546 324.311 57.926 321.512 57.926Z" fill="#DF006E"/>
<path d="M408.093 85.9492H369.212C366.413 85.9492 364.036 83.5692 364.036 80.7669V6.02699C364.036 2.61053 366.643 0.844727 369.212 0.844727C371.781 0.844727 374.388 2.61053 374.388 6.02699V75.5846H408.093C411.505 75.5846 413.269 78.1949 413.269 80.7669C413.269 83.3388 411.505 85.9492 408.093 85.9492Z" fill="#DF006E"/>
<path d="M427.801 85.9488C425.194 85.9488 422.624 84.183 422.624 80.7666V29.3661C422.624 25.9497 425.232 24.1838 427.801 24.1838C430.37 24.1838 432.977 25.9497 432.977 29.3661V80.7666C432.977 84.183 430.37 85.9488 427.801 85.9488ZM427.801 17.4661C425.194 17.4661 422.624 15.7003 422.624 12.2838V6.06508C422.624 2.64862 425.232 0.882812 427.801 0.882812C430.37 0.882812 432.977 2.64862 432.977 6.06508V12.2838C432.977 15.7003 430.37 17.4661 427.801 17.4661Z" fill="#DF006E"/>
<path d="M474.772 17.5429C473.928 17.5429 473.123 17.2358 472.164 16.5065L460.853 7.48551C459.626 6.56421 459.204 5.4126 459.204 4.37615C459.204 2.07291 461.16 0 463.46 0C464.189 0 465.109 0.307099 466.068 1.03646L477.379 10.0574C478.53 10.9787 479.028 12.1304 479.028 13.1668C479.028 15.3549 476.957 17.5429 474.772 17.5429ZM479.642 45.4888C479.642 38.8479 474.35 33.5504 467.717 33.5504C461.083 33.5504 455.792 38.8479 455.792 45.4888V47.5617H479.642V45.4888ZM484.818 57.9263H455.792V64.6824C455.792 70.9012 461.812 76.6208 468.752 76.6208C472.701 76.6208 476.114 75.4692 478.798 72.667C479.948 71.0163 481.405 70.287 482.939 70.287C485.623 70.287 488.346 72.667 488.346 75.4692C488.346 76.5057 488.039 77.427 487.31 78.4634C487.31 78.4634 486.888 79.1928 485.968 80.1141C481.597 84.7973 475.079 86.9854 468.752 86.9854C456.827 86.9854 445.439 77.3502 445.439 64.6824V45.4888C445.439 33.1282 455.37 23.1859 467.717 23.1859C480.063 23.1859 489.994 33.1665 489.994 45.4888V52.744C489.994 55.5463 487.617 57.9263 484.818 57.9263Z" fill="#DF006E"/>
<path d="M534.589 45.4885C534.589 38.8475 529.297 33.5501 522.664 33.5501C516.03 33.5501 510.739 38.8475 510.739 45.4885V62.6092C510.739 69.2502 516.03 74.5476 522.664 74.5476C529.297 74.5476 534.589 69.2502 534.589 62.6092V45.4885ZM522.664 106.716C516.337 106.716 507.825 103.914 504.105 98.1942C503.377 97.1577 503.07 96.2364 503.07 95.1999C503.07 92.3977 505.754 90.0177 508.476 90.0177C510.049 90.0177 511.506 90.747 512.618 92.3977C512.618 92.3977 512.733 92.5128 512.924 92.7048C515.417 95.3151 519.136 96.3516 522.664 96.3516C529.297 96.3516 534.589 91.0541 534.589 84.4131V81.4957C531.176 83.6838 527.035 84.9122 522.664 84.9122C510.317 84.9122 500.386 74.9315 500.386 62.6092V45.4885C500.386 33.1278 510.355 23.1855 522.664 23.1855C534.972 23.1855 544.941 33.1662 544.941 45.4885V84.4131C544.941 96.7738 534.972 106.754 522.664 106.754" fill="#DF006E"/>
<path d="M590.571 45.4885C590.571 38.8475 585.279 33.5501 578.646 33.5501C572.012 33.5501 566.721 38.8475 566.721 45.4885V47.5614H590.571V45.4885ZM595.785 57.926H566.759V64.6821C566.759 70.9008 572.779 76.6205 579.719 76.6205C583.669 76.6205 587.081 75.4689 589.765 72.6666C590.916 71.016 592.373 70.2866 593.907 70.2866C596.591 70.2866 599.313 72.6666 599.313 75.4689C599.313 76.5054 599.006 77.4267 598.278 78.4631C598.278 78.4631 597.856 79.1925 596.936 80.1138C592.565 84.797 586.046 86.9851 579.719 86.9851C567.794 86.9851 556.406 77.3499 556.406 64.6821V45.4885C556.406 33.1278 566.376 23.1855 578.722 23.1855C591.069 23.1855 601 33.1662 601 45.4885V52.7437C601 55.546 598.623 57.926 595.824 57.926" fill="#DF006E"/>
</svg>
