<svg width="22" height="27" viewBox="0 0 22 27" fill="none" xmlns="http://www.w3.org/2000/svg">
<path d="M10.83 13.8C14.64 13.8 17.23 10.71 17.23 6.9C17.23 3.09 14.64 0 10.83 0C7.01999 0 4.42999 3.09 4.42999 6.9C4.42999 10.71 7.01999 13.8 10.83 13.8Z" fill="white"/>
<path d="M16 13.3496C14.63 14.5796 12.84 15.2996 10.83 15.2996C8.82 15.2996 7.03 14.5796 5.66 13.3496C2.41 15.1196 0.17 18.4996 0 22.4196C2.75 25.2496 6.59 27.0096 10.83 27.0096C15.07 27.0096 18.91 25.2496 21.66 22.4196C21.49 18.4996 19.25 15.1196 16 13.3496Z" fill="white"/>
</svg>
