<svg width="35" height="35" viewBox="0 0 35 35" fill="none" xmlns="http://www.w3.org/2000/svg">
<g clip-path="url(#clip0_294_512)">
<path d="M1.09394 14.5637C0.129407 6.72503 6.72947 0.129861 14.5803 1.09392L14.5813 1.0949C19.7636 1.72349 24.0706 5.83895 24.9416 10.9787C25.5728 14.7431 24.4245 18.2796 22.1975 20.8752L21.5969 21.5734L20.8996 22.1711C18.301 24.396 14.7602 25.544 10.9904 24.9133C5.84338 24.043 1.72414 19.7404 1.09492 14.5656L1.09394 14.5637ZM13.0549 3.01384C7.50318 3.01402 3.01777 7.49284 3.01777 13.0412C3.01789 18.5895 7.50326 23.0684 13.0549 23.0686C18.6067 23.0686 23.0919 18.5896 23.092 13.0412C23.092 7.49273 18.6067 3.01384 13.0549 3.01384ZM23.092 23.0891L22.8117 22.7981L22.5148 22.4904L22.8244 22.7883L23.1154 23.0686H24.6897L32.9113 31.3205L32.9133 31.3215C33.3456 31.7533 33.3455 32.4638 32.9133 32.8957C32.4803 33.3282 31.7671 33.3282 31.3342 32.8957L23.092 24.6623V23.0891Z" stroke="#4DC542" stroke-width="2"/>
</g>
<defs>
<clipPath id="clip0_294_512">
<rect width="35" height="35" fill="white"/>
</clipPath>
</defs>
</svg>
