<svg width="35" height="35" viewBox="0 0 35 35" fill="none" xmlns="http://www.w3.org/2000/svg">
<path d="M1.09375 14.5635C0.129213 6.72486 6.72928 0.129692 14.5801 1.09375L14.5811 1.09473C19.7634 1.72332 24.0704 5.83878 24.9414 10.9785V10.9795C25.5726 14.7439 24.4243 18.2794 22.1973 20.875L21.5967 21.5732L20.8994 22.1709C18.3008 24.3958 14.76 25.5438 10.9902 24.9131C5.84319 24.0428 1.72395 19.7402 1.09473 14.5654L1.09375 14.5635ZM13.0547 3.01367C7.50299 3.01385 3.01758 7.49267 3.01758 13.041C3.0177 18.5893 7.50307 23.0682 13.0547 23.0684C18.6065 23.0684 23.0917 18.5894 23.0918 13.041C23.0918 7.49256 18.6065 3.01367 13.0547 3.01367ZM23.0918 23.0889L22.8115 22.7979L22.5146 22.4902L22.8242 22.7881L23.1152 23.0684H24.6895L32.9111 31.3203L32.9131 31.3213C33.3454 31.7531 33.3453 32.4636 32.9131 32.8955C32.4801 33.328 31.7669 33.328 31.334 32.8955L23.0918 24.6621V23.0889Z" stroke="#DF006E" stroke-width="2"/>
</svg>
