<svg width="72" height="1" viewBox="0 0 72 1" fill="none" xmlns="http://www.w3.org/2000/svg">
    <path
        d="M3.99042 0.5C3.99042 0.223858 3.76967 0 3.49736 0L0 0L0 1L3.49736 1H3.5C3.77109 0.998561 3.99042 0.775251 3.99042 0.5Z"
        fill="#8D8D8D" />
    <path d="M9.00958 0.5C9.00958 0.776142 9.23033 1 9.50264 1L12 1V0L9.50264 0C9.23033 0 9.00958 0.223858 9.00958 0.5Z"
        fill="#8D8D8D" />
    <path
        d="M15.9904 0.5C15.9904 0.223858 15.7697 0 15.4974 0L12 0V1L15.4974 1H15.5C15.7711 0.998561 15.9904 0.775251 15.9904 0.5Z"
        fill="#8D8D8D" />
    <path d="M21.0096 0.5C21.0096 0.776142 21.2303 1 21.5026 1L24 1V0L21.5026 0C21.2303 0 21.0096 0.223858 21.0096 0.5Z"
        fill="#8D8D8D" />
    <path
        d="M27.9904 0.5C27.9904 0.223858 27.7697 0 27.4974 0L24 0V1L27.4974 1H27.5C27.7711 0.998561 27.9904 0.775251 27.9904 0.5Z"
        fill="#8D8D8D" />
    <path d="M33.0096 0.5C33.0096 0.776142 33.2303 1 33.5026 1L36 1V0L33.5026 0C33.2303 0 33.0096 0.223858 33.0096 0.5Z"
        fill="#8D8D8D" />
    <path
        d="M39.9904 0.5C39.9904 0.223858 39.7697 0 39.4974 0L36 0V1L39.4974 1H39.5C39.7711 0.998561 39.9904 0.775251 39.9904 0.5Z"
        fill="#8D8D8D" />
    <path d="M45.0096 0.5C45.0096 0.776142 45.2303 1 45.5026 1L48 1V0L45.5026 0C45.2303 0 45.0096 0.223858 45.0096 0.5Z"
        fill="#8D8D8D" />
    <path
        d="M51.9904 0.5C51.9904 0.223858 51.7697 0 51.4974 0L48 0V1L51.4974 1H51.5C51.7711 0.998561 51.9904 0.775251 51.9904 0.5Z"
        fill="#8D8D8D" />
    <path d="M57.0096 0.5C57.0096 0.776142 57.2303 1 57.5026 1L60 1V0L57.5026 0C57.2303 0 57.0096 0.223858 57.0096 0.5Z"
        fill="#8D8D8D" />
    <path
        d="M63.9904 0.5C63.9904 0.223858 63.7697 0 63.4974 0L60 0V1L63.4974 1H63.5C63.7711 0.998561 63.9904 0.775251 63.9904 0.5Z"
        fill="#8D8D8D" />
    <path d="M69.0096 0.5C69.0096 0.776142 69.2303 1 69.5026 1L72 1V0L69.5026 0C69.2303 0 69.0096 0.223858 69.0096 0.5Z"
        fill="#8D8D8D" />
</svg>