<svg width="248" height="355" viewBox="0 0 248 355" fill="none" xmlns="http://www.w3.org/2000/svg">
<path d="M6.58984 0C6.8658 0.000218407 7.08984 0.223992 7.08984 0.5C7.08984 0.776008 6.8658 0.999782 6.58984 1L0.5 1C0.223932 0.999918 0 0.776092 0 0.5C0 0.223909 0.223932 8.24477e-05 0.5 0L6.58984 0ZM18.7676 0C19.0437 0 19.2676 0.223858 19.2676 0.5C19.2676 0.776142 19.0437 1 18.7676 1L12.6787 1C12.4026 0.999988 12.1787 0.776135 12.1787 0.5C12.1787 0.223865 12.4026 1.23691e-05 12.6787 0L18.7676 0ZM30.9463 0C31.2224 0 31.4463 0.223858 31.4463 0.5C31.4463 0.776142 31.2224 1 30.9463 1L24.8574 1C24.5813 1 24.3574 0.776142 24.3574 0.5C24.3574 0.223858 24.5813 0 24.8574 0L30.9463 0ZM43.125 0C43.4011 0 43.625 0.223858 43.625 0.5C43.625 0.776142 43.4011 1 43.125 1L37.0361 1C36.76 1 36.5361 0.776142 36.5361 0.5C36.5361 0.223858 36.76 0 37.0361 0L43.125 0ZM55.3037 0C55.5798 0 55.8037 0.223858 55.8037 0.5C55.8037 0.776142 55.5798 1 55.3037 1L49.2148 1C48.9387 1 48.7148 0.776142 48.7148 0.5C48.7148 0.223858 48.9387 0 49.2148 0L55.3037 0ZM67.4824 0C67.7585 8.24477e-05 67.9824 0.223909 67.9824 0.5C67.9824 0.776092 67.7585 0.999918 67.4824 1L61.3926 1C61.1166 0.999777 60.8926 0.776005 60.8926 0.5C60.8926 0.223995 61.1166 0.000222526 61.3926 0L67.4824 0ZM79.6611 0C79.9371 0.000164859 80.1611 0.223959 80.1611 0.5C80.1611 0.776041 79.9371 0.999835 79.6611 1L73.5713 1C73.2953 0.99986 73.0713 0.776056 73.0713 0.5C73.0713 0.223944 73.2953 0.000140139 73.5713 0L79.6611 0ZM91.8398 0C92.1158 0.000247234 92.3398 0.22401 92.3398 0.5C92.3398 0.77599 92.1158 0.999753 91.8398 1L85.75 1C85.4739 0.999942 85.25 0.776107 85.25 0.5C85.25 0.223893 85.4739 5.77172e-05 85.75 0L91.8398 0ZM104.018 0C104.294 0 104.518 0.223858 104.518 0.5C104.518 0.776142 104.294 1 104.018 1L97.9287 1C97.6526 1 97.4287 0.776142 97.4287 0.5C97.4287 0.223858 97.6526 0 97.9287 0L104.018 0ZM116.196 0C116.472 0 116.696 0.223858 116.696 0.5C116.696 0.776142 116.472 1 116.196 1L110.107 1C109.831 1 109.607 0.776142 109.607 0.5C109.607 0.223858 109.831 0 110.107 0L116.196 0ZM128.375 0C128.651 0 128.875 0.223858 128.875 0.5C128.875 0.776142 128.651 1 128.375 1L122.286 1C122.01 1 121.786 0.776142 121.786 0.5C121.786 0.223858 122.01 0 122.286 0L128.375 0ZM140.554 0C140.83 5.7714e-05 141.054 0.223893 141.054 0.5C141.054 0.776107 140.83 0.999942 140.554 1L134.464 1C134.188 0.999745 133.964 0.775985 133.964 0.5C133.964 0.224015 134.188 0.00025547 134.464 0L140.554 0ZM152.732 0C153.008 0.000131899 153.232 0.223939 153.232 0.5C153.232 0.776061 153.008 0.999868 152.732 1L146.643 1C146.367 0.999827 146.143 0.776036 146.143 0.5C146.143 0.223964 146.367 0.000173089 146.643 0L152.732 0ZM164.911 0C165.187 0.000214277 165.411 0.22399 165.411 0.5C165.411 0.77601 165.187 0.999786 164.911 1L158.821 1C158.545 0.999909 158.321 0.776086 158.321 0.5C158.321 0.223914 158.545 9.06905e-05 158.821 0L164.911 0ZM177.089 0C177.365 0 177.589 0.223858 177.589 0.5C177.589 0.776142 177.365 1 177.089 1L171 1C170.724 0.999984 170.5 0.776132 170.5 0.5C170.5 0.223868 170.724 1.64915e-05 171 0L177.089 0ZM189.268 0C189.544 0 189.768 0.223858 189.768 0.5C189.768 0.776142 189.544 1 189.268 1L183.179 1C182.903 1 182.679 0.776142 182.679 0.5C182.679 0.223858 182.903 0 183.179 0L189.268 0ZM201.446 0C201.722 0 201.946 0.223858 201.946 0.5C201.946 0.776142 201.722 1 201.446 1L195.357 1C195.081 1 194.857 0.776142 194.857 0.5C194.857 0.223858 195.081 0 195.357 0L201.446 0ZM213.625 0C213.901 0 214.125 0.223858 214.125 0.5C214.125 0.776142 213.901 1 213.625 1L207.536 1C207.26 1 207.036 0.776142 207.036 0.5C207.036 0.223858 207.26 0 207.536 0L213.625 0ZM225.804 0C226.08 1.64934e-05 226.304 0.223868 226.304 0.5C226.304 0.776132 226.08 0.999984 225.804 1L219.715 1C219.439 1 219.215 0.776142 219.215 0.5C219.215 0.223858 219.439 0 219.715 0L225.804 0ZM237.982 0C238.259 8.24431e-05 238.482 0.223909 238.482 0.5C238.482 0.776092 238.259 0.999918 237.982 1L231.893 1C231.617 0.999786 231.393 0.77601 231.393 0.5C231.393 0.22399 231.617 0.000214277 231.893 0L237.982 0ZM247.116 0C247.392 0 247.616 0.223858 247.616 0.5C247.616 0.776142 247.392 1 247.116 1L244.071 1C243.795 0.999852 243.571 0.776051 243.571 0.5C243.571 0.223949 243.795 0.000148372 244.071 0L247.116 0Z" fill="#909090"/>
<path d="M247.616 3.4502C247.616 3.72625 247.392 3.9502 247.116 3.9502C246.84 3.9502 246.616 3.72625 246.616 3.4502L246.616 0.5C246.616 0.223858 246.84 3.39263e-08 247.116 2.18557e-08C247.392 9.78513e-09 247.616 0.223858 247.616 0.5L247.616 3.4502ZM247.616 15.25C247.616 15.5261 247.392 15.75 247.116 15.75C246.84 15.75 246.616 15.5261 246.616 15.25L246.616 9.34961C246.616 9.07365 246.84 8.84961 247.116 8.84961C247.392 8.84961 247.616 9.07365 247.616 9.34961L247.616 15.25ZM247.616 27.0498C247.616 27.3259 247.392 27.5498 247.116 27.5498C246.84 27.5498 246.616 27.3259 246.616 27.0498L246.616 21.1504C246.616 20.8742 246.84 20.6504 247.116 20.6504C247.392 20.6504 247.616 20.8742 247.616 21.1504L247.616 27.0498ZM247.616 38.8496C247.616 39.1258 247.392 39.3496 247.116 39.3496C246.84 39.3496 246.616 39.1258 246.616 38.8496L246.616 32.9502C246.616 32.6741 246.84 32.4502 247.116 32.4502C247.392 32.4502 247.616 32.6741 247.616 32.9502L247.616 38.8496ZM247.616 50.6504C247.616 50.9264 247.392 51.1504 247.116 51.1504C246.84 51.1504 246.616 50.9264 246.616 50.6504L246.616 44.75C246.616 44.4739 246.84 44.25 247.116 44.25C247.392 44.25 247.616 44.4739 247.616 44.75L247.616 50.6504ZM247.616 62.4502C247.616 62.7263 247.392 62.9502 247.116 62.9502C246.84 62.9502 246.616 62.7263 246.616 62.4502L246.616 56.5498C246.616 56.2738 246.84 56.0498 247.116 56.0498C247.392 56.0498 247.616 56.2738 247.616 56.5498L247.616 62.4502ZM247.616 74.25C247.616 74.5261 247.392 74.75 247.116 74.75C246.84 74.75 246.616 74.5261 246.616 74.25L246.616 68.3496C246.616 68.0736 246.84 67.8496 247.116 67.8496C247.392 67.8496 247.616 68.0736 247.616 68.3496L247.616 74.25ZM247.616 86.0498C247.616 86.3259 247.392 86.5498 247.116 86.5498C246.84 86.5498 246.616 86.3259 246.616 86.0498L246.616 80.1504C246.616 79.8742 246.84 79.6504 247.116 79.6504C247.392 79.6504 247.616 79.8742 247.616 80.1504L247.616 86.0498ZM247.616 97.8496C247.616 98.1257 247.392 98.3496 247.116 98.3496C246.84 98.3496 246.616 98.1257 246.616 97.8496L246.616 91.9502C246.616 91.6741 246.84 91.4502 247.116 91.4502C247.392 91.4502 247.616 91.6741 247.616 91.9502L247.616 97.8496ZM247.616 109.65C247.616 109.926 247.392 110.15 247.116 110.15C246.84 110.15 246.616 109.926 246.616 109.65L246.616 103.75C246.616 103.474 246.84 103.25 247.116 103.25C247.392 103.25 247.616 103.474 247.616 103.75L247.616 109.65ZM247.616 121.45C247.616 121.726 247.392 121.95 247.116 121.95C246.84 121.95 246.616 121.726 246.616 121.45L246.616 115.55C246.616 115.274 246.84 115.05 247.116 115.05C247.392 115.05 247.616 115.274 247.616 115.55L247.616 121.45ZM247.616 133.25C247.616 133.526 247.392 133.75 247.116 133.75C246.84 133.75 246.616 133.526 246.616 133.25L246.616 127.35C246.616 127.074 246.84 126.85 247.116 126.85C247.392 126.85 247.616 127.074 247.616 127.35L247.616 133.25ZM247.616 145.05C247.616 145.326 247.392 145.55 247.116 145.55C246.84 145.55 246.616 145.326 246.616 145.05L246.616 139.15C246.616 138.874 246.84 138.65 247.116 138.65C247.392 138.65 247.616 138.874 247.616 139.15L247.616 145.05ZM247.616 156.85C247.616 157.126 247.392 157.35 247.116 157.35C246.84 157.35 246.616 157.126 246.616 156.85L246.616 150.95C246.616 150.674 246.84 150.45 247.116 150.45C247.392 150.45 247.616 150.674 247.616 150.95L247.616 156.85ZM247.616 168.65C247.616 168.926 247.392 169.15 247.116 169.15C246.84 169.15 246.616 168.926 246.616 168.65L246.616 162.75C246.616 162.474 246.84 162.25 247.116 162.25C247.392 162.25 247.616 162.474 247.616 162.75L247.616 168.65ZM247.616 180.45C247.616 180.726 247.392 180.95 247.116 180.95C246.84 180.95 246.616 180.726 246.616 180.45L246.616 174.55C246.616 174.274 246.84 174.05 247.116 174.05C247.392 174.05 247.616 174.274 247.616 174.55L247.616 180.45ZM247.616 192.25C247.616 192.526 247.392 192.75 247.116 192.75C246.84 192.75 246.616 192.526 246.616 192.25L246.616 186.35C246.616 186.074 246.84 185.85 247.116 185.85C247.392 185.85 247.616 186.074 247.616 186.35L247.616 192.25ZM247.616 204.05C247.616 204.326 247.392 204.55 247.116 204.55C246.84 204.55 246.616 204.326 246.616 204.05L246.616 198.15C246.616 197.874 246.84 197.65 247.116 197.65C247.392 197.65 247.616 197.874 247.616 198.15L247.616 204.05ZM247.616 215.85C247.616 216.126 247.392 216.35 247.116 216.35C246.84 216.35 246.616 216.126 246.616 215.85L246.616 209.95C246.616 209.674 246.84 209.45 247.116 209.45C247.392 209.45 247.616 209.674 247.616 209.95L247.616 215.85ZM247.616 227.65C247.616 227.926 247.392 228.15 247.116 228.15C246.84 228.15 246.616 227.926 246.616 227.65L246.616 221.75C246.616 221.474 246.84 221.25 247.116 221.25C247.392 221.25 247.616 221.474 247.616 221.75L247.616 227.65ZM247.616 239.45C247.616 239.726 247.392 239.95 247.116 239.95C246.84 239.95 246.616 239.726 246.616 239.45L246.616 233.55C246.616 233.274 246.84 233.05 247.116 233.05C247.392 233.05 247.616 233.274 247.616 233.55L247.616 239.45ZM247.616 251.25C247.616 251.526 247.392 251.75 247.116 251.75C246.84 251.75 246.616 251.526 246.616 251.25L246.616 245.35C246.616 245.074 246.84 244.85 247.116 244.85C247.392 244.85 247.616 245.074 247.616 245.35L247.616 251.25ZM247.616 263.05C247.616 263.326 247.392 263.55 247.116 263.55C246.84 263.55 246.616 263.326 246.616 263.05L246.616 257.15C246.616 256.874 246.84 256.65 247.116 256.65C247.392 256.65 247.616 256.874 247.616 257.15L247.616 263.05ZM247.616 274.85C247.616 275.126 247.392 275.35 247.116 275.35C246.84 275.35 246.616 275.126 246.616 274.85L246.616 268.95C246.616 268.674 246.84 268.45 247.116 268.45C247.392 268.45 247.616 268.674 247.616 268.95L247.616 274.85ZM247.616 286.649C247.616 286.926 247.392 287.149 247.116 287.149C246.84 287.149 246.616 286.926 246.616 286.649L246.616 280.75C246.616 280.474 246.84 280.25 247.116 280.25C247.392 280.25 247.616 280.474 247.616 280.75L247.616 286.649ZM247.616 298.45C247.616 298.726 247.392 298.95 247.116 298.95C246.84 298.95 246.616 298.726 246.616 298.45L246.616 292.55C246.616 292.274 246.84 292.05 247.116 292.05C247.392 292.05 247.616 292.274 247.616 292.55L247.616 298.45ZM247.616 310.25C247.616 310.526 247.392 310.75 247.116 310.75C246.84 310.75 246.616 310.526 246.616 310.25L246.616 304.35C246.616 304.074 246.84 303.85 247.116 303.85C247.392 303.85 247.616 304.074 247.616 304.35L247.616 310.25ZM247.616 322.05C247.616 322.326 247.392 322.55 247.116 322.55C246.84 322.55 246.616 322.326 246.616 322.05L246.616 316.149C246.616 315.873 246.84 315.649 247.116 315.649C247.392 315.649 247.616 315.873 247.616 316.149L247.616 322.05ZM247.616 333.85C247.616 334.126 247.392 334.35 247.116 334.35C246.84 334.35 246.616 334.126 246.616 333.85L246.616 327.95C246.616 327.674 246.84 327.45 247.116 327.45C247.392 327.45 247.616 327.674 247.616 327.95L247.616 333.85ZM247.616 345.649C247.616 345.926 247.392 346.149 247.116 346.149C246.84 346.149 246.616 345.926 246.616 345.649L246.616 339.75C246.616 339.474 246.84 339.25 247.116 339.25C247.392 339.25 247.616 339.474 247.616 339.75L247.616 345.649ZM247.616 354.5C247.616 354.776 247.392 355 247.116 355C246.84 355 246.616 354.776 246.616 354.5L246.616 351.55C246.616 351.274 246.84 351.05 247.116 351.05C247.392 351.05 247.616 351.274 247.616 351.55L247.616 354.5Z" fill="#909090"/>
</svg>
