<svg width="233" height="339" viewBox="0 0 233 339" fill="none" xmlns="http://www.w3.org/2000/svg">
<path d="M65.2642 65.6366C64.8091 49.1183 58.3738 32.6648 45.698 20.0979C33.0222 7.46629 16.5761 1.0533 0 0.599854C0.45503 17.0534 6.89045 33.5069 19.5013 46.1386C32.1771 58.7702 48.6232 65.1184 65.1993 65.6366" fill="#F7F7F7"/>
<path d="M65.264 90.1871C48.6879 90.7054 32.2418 97.1183 19.566 109.685C6.95515 122.252 0.519727 138.641 0.0646973 155.224C16.6408 154.706 33.087 148.357 45.6978 135.791C58.3737 123.159 64.809 106.77 65.264 90.1871Z" fill="#F7F7F7"/>
<path d="M89.9663 65.6359C106.542 65.1176 122.988 58.7046 135.664 46.073C148.34 33.4413 154.71 17.0526 155.23 0.534302C138.589 1.05252 122.143 7.46551 109.532 20.0324C96.8566 32.664 90.4863 49.0528 89.9663 65.5711" fill="#F7F7F7"/>
<path d="M89.9663 90.1871C90.4863 106.705 96.8566 123.159 109.532 135.726C122.143 148.293 138.654 154.706 155.23 155.224C154.775 138.641 148.34 122.252 135.664 109.685C122.988 97.0536 106.542 90.7054 89.9663 90.1871Z" fill="#F7F7F7"/>
<path d="M164.916 270.853C164.591 258.48 159.716 246.172 150.225 236.715C140.734 227.257 128.384 222.399 115.968 222.075C116.358 234.448 121.168 246.755 130.659 256.213C140.149 265.67 152.5 270.464 164.916 270.853Z" fill="#F7F7F7"/>
<path d="M164.916 289.314C152.5 289.703 140.149 294.496 130.659 303.954C121.168 313.412 116.358 325.654 115.968 338.092C128.449 337.703 140.734 332.91 150.225 323.517C159.716 314.059 164.526 301.752 164.916 289.314Z" fill="#F7F7F7"/>
<path d="M183.377 270.853C195.793 270.464 208.144 265.67 217.634 256.213C227.125 246.755 231.935 234.448 232.325 222.075C219.909 222.399 207.559 227.257 198.068 236.715C188.577 246.172 183.767 258.48 183.377 270.853Z" fill="#F7F7F7"/>
<path d="M183.377 289.314C183.767 301.687 188.577 313.995 198.068 323.452C207.559 332.91 219.909 337.703 232.325 338.092C232 325.654 227.19 313.412 217.699 303.954C208.209 294.496 195.858 289.703 183.442 289.314" fill="#F7F7F7"/>
</svg>
