<svg width="233" height="338" viewBox="0 0 233 338" fill="none" xmlns="http://www.w3.org/2000/svg">
<path d="M167.061 65.1023C167.516 48.584 173.951 32.1305 186.627 19.5636C199.303 6.93199 215.749 0.518995 232.325 0.0655518C231.87 16.5191 225.435 32.9726 212.824 45.6042C200.148 58.2359 183.702 64.5841 167.126 65.1023" fill="#0D5EA9"/>
<path d="M167.061 89.6528C183.637 90.1711 200.083 96.584 212.759 109.151C225.37 121.718 231.805 138.107 232.26 154.69C215.684 154.171 199.238 147.823 186.627 135.256C173.952 122.625 167.516 106.236 167.061 89.6528Z" fill="#0D5EA9"/>
<path d="M142.359 65.1015C125.783 64.5833 109.337 58.1703 96.6608 45.5387C83.9849 32.907 77.6146 16.5183 77.0946 0C93.7357 0.518221 110.182 6.93121 122.793 19.4981C135.468 32.1297 141.839 48.5185 142.359 65.0368" fill="#0D5EA9"/>
<path d="M142.359 89.6528C141.839 106.171 135.468 122.625 122.793 135.192C110.182 147.758 93.6707 154.171 77.0946 154.69C77.5496 138.107 83.9849 121.718 96.6608 109.151C109.337 96.5193 125.783 90.1711 142.359 89.6528Z" fill="#0D5EA9"/>
<path d="M67.4091 270.318C67.7341 257.946 72.6095 245.638 82.1001 236.181C91.5907 226.723 103.941 221.865 116.357 221.541C115.967 233.913 111.157 246.221 101.666 255.679C92.1758 265.136 79.8249 269.93 67.4091 270.318Z" fill="#0D5EA9"/>
<path d="M67.4091 288.78C79.8249 289.169 92.1758 293.962 101.666 303.42C111.157 312.877 115.967 325.12 116.357 337.557C103.876 337.169 91.5907 332.375 82.1001 322.982C72.6095 313.525 67.7991 301.217 67.4091 288.78Z" fill="#0D5EA9"/>
<path d="M48.9482 270.318C36.5324 269.93 24.1817 265.136 14.691 255.679C5.20042 246.221 0.390037 233.913 1.1416e-05 221.541C12.4158 221.865 24.7666 226.723 34.2572 236.181C43.7478 245.638 48.5582 257.946 48.9482 270.318Z" fill="#0D5EA9"/>
<path d="M48.9482 288.78C48.5582 301.152 43.7478 313.46 34.2572 322.918C24.7666 332.375 12.4158 337.169 1.1416e-05 337.557C0.325033 325.12 5.13535 312.877 14.626 303.42C24.1166 293.962 36.4674 289.169 48.8832 288.78" fill="#0D5EA9"/>
</svg>
