<svg width="242" height="62" viewBox="0 0 242 62" fill="none" xmlns="http://www.w3.org/2000/svg">
<g clip-path="url(#clip0_6_758)">
<path d="M18.3512 36.6107C16.7733 34.4384 15.0624 33.1503 11.4441 33.1503C8.15538 33.1503 6.21 34.6279 6.21 37.3053C6.21 40.3553 8.61796 41.555 13.0663 42.5212C19.5108 43.9041 22.8439 46.31 22.8439 52.0374C22.8439 56.7923 19.6439 61.181 11.9511 61.181C6.48248 61.181 2.63608 59.5202 -0.00634003 55.9651L4.21393 53.054C6.11495 55.3147 8.01597 56.5144 11.6723 56.5144C16.0763 56.5144 17.464 54.5758 17.464 52.2647C17.464 49.7262 16.0256 48.1539 10.4683 46.9541C4.30264 45.6596 0.830109 42.7043 0.830109 37.299C0.830109 32.4935 3.97947 28.4774 11.4885 28.4774C16.5832 28.4774 20.1572 30.1887 22.4257 33.6933L18.3449 36.6044L18.3512 36.6107Z" fill="#0056A4"/>
<path d="M34.8521 47.1372H39.8581V45.1986C39.8581 42.2875 38.7428 41.5045 35.2703 41.5045C32.7673 41.5045 31.5189 41.7824 30.4037 43.582L26.8361 41.0877C28.5026 38.3661 31.0057 37.2548 35.5935 37.2548C41.5246 37.2548 44.7247 39.105 44.7247 45.2428V60.7579H39.8581V58.6361C38.7428 60.4358 37.3107 61.1746 34.4845 61.1746C29.3898 61.1746 26.2341 58.5856 26.2341 53.9696C26.2341 49.0253 29.8967 47.1372 34.8521 47.1372ZM39.8581 50.926H35.2259C32.3047 50.926 31.1007 51.9426 31.1007 53.9759C31.1007 56.0093 32.6786 56.9754 35.0422 56.9754C38.0521 56.9754 39.8644 56.0535 39.8644 52.031V50.926H39.8581Z" fill="#0056A4"/>
<path d="M50.4658 28.9005H55.89V33.9333H50.4658V28.9005ZM50.7002 37.6716H55.6619V60.7642H50.7002V37.6716Z" fill="#0056A4"/>
<path d="M61.6374 37.6715H66.5041V39.749C67.5243 38.3661 69.1908 37.2548 72.2515 37.2548C77.023 37.2548 80.6857 39.6543 80.6857 46.3036V60.7579H75.7747V46.8593C75.7747 42.7927 73.918 41.6434 71.3707 41.6434C68.31 41.6434 66.5991 43.721 66.5991 46.8151V60.7642H61.6374V37.6715Z" fill="#0056A4"/>
<path d="M84.1582 37.6716H87.1238V32.5946H92.0348V37.6716H96.9458V41.9213H92.0348V52.4984C92.0348 55.1758 92.453 56.3314 95.0447 56.3314H96.9458V60.7642H94.6772C89.1135 60.7642 87.1238 58.8698 87.1238 53.4203V41.9213H84.1582V37.6716Z" fill="#0056A4"/>
<path d="M118.497 57.2533C116.875 60.0696 114.277 61.181 110.202 61.181C103.574 61.181 100.051 56.887 100.051 50.7429V47.6045C100.051 40.8163 103.39 37.2611 109.461 37.2611C115.531 37.2611 118.82 41.0499 118.82 47.8823V50.4208H104.962V50.5156C104.962 54.1149 106.349 56.9375 110.012 56.9375C112.743 56.9375 113.859 56.104 114.784 54.6769L118.491 57.2659L118.497 57.2533ZM105.012 46.632H113.865C113.681 43.26 112.287 41.5551 109.461 41.5551C106.635 41.5551 105.241 43.4937 105.012 46.632Z" fill="#0056A4"/>
<path d="M122.343 45.2491H134.345V49.5936H122.343V45.2491Z" fill="#0056A4"/>
<path d="M149.915 61.181C142.779 61.181 137.957 56.887 137.957 46.8657V42.7991C137.957 32.7777 142.779 28.4838 149.915 28.4838C157.05 28.4838 161.916 32.7777 161.916 42.7991V46.8657C161.916 56.887 157.094 61.181 149.915 61.181ZM143.337 46.8657C143.337 53.7487 145.656 56.5208 149.921 56.5208C154.185 56.5208 156.549 53.7487 156.549 46.8657V42.7991C156.549 35.9161 154.185 33.144 149.921 33.144C145.656 33.144 143.337 35.9161 143.337 42.7991V46.8657Z" fill="#0056A4"/>
<path d="M180.597 28.9005H185.508V60.7642H180.597V59.1477C179.349 60.4422 177.587 61.181 175.033 61.181C168.868 61.181 165.813 56.7923 165.813 50.7429V47.6045C165.813 40.9552 169.432 37.2611 175.033 37.2611C177.441 37.2611 179.298 37.9557 180.597 39.2944V28.9005ZM180.597 50.5092V47.554C180.597 43.7652 178.88 41.5487 175.686 41.5487C172.492 41.5487 170.724 43.8094 170.724 47.8318V50.5092C170.724 54.1086 172.112 56.9312 175.686 56.9312C179.26 56.9312 180.597 54.1149 180.597 50.5092Z" fill="#0056A4"/>
<path d="M208.308 57.2533C206.685 60.0696 204.087 61.181 200.013 61.181C193.385 61.181 189.861 56.887 189.861 50.7429V47.6045C189.861 40.8163 193.201 37.2611 199.271 37.2611C205.342 37.2611 208.631 41.0499 208.631 47.8823V50.4208H194.772V50.5156C194.772 54.1149 196.16 56.9375 199.823 56.9375C202.554 56.9375 203.669 56.104 204.594 54.6769L208.301 57.2659L208.308 57.2533ZM194.823 46.632H203.675C203.492 43.26 202.098 41.5551 199.271 41.5551C196.445 41.5551 195.051 43.4937 194.823 46.632Z" fill="#0056A4"/>
<path d="M218.63 16.2081C218.586 14.5978 217.958 12.9939 216.723 11.7689C215.487 10.5375 213.884 9.91237 212.268 9.86816C212.312 11.4721 212.94 13.076 214.169 14.3074C215.405 15.5387 217.008 16.1576 218.624 16.2081" fill="#0056A4"/>
<path d="M218.63 18.6013C217.014 18.6518 215.411 19.277 214.175 20.502C212.946 21.7271 212.319 23.3247 212.274 24.9412C213.89 24.8907 215.493 24.2719 216.723 23.0468C217.958 21.8155 218.586 20.2179 218.63 18.6013Z" fill="#0056A4"/>
<path d="M221.038 16.208C222.654 16.1575 224.257 15.5324 225.493 14.301C226.728 13.0697 227.349 11.4721 227.4 9.86182C225.778 9.91233 224.175 10.5375 222.945 11.7625C221.71 12.9939 221.089 14.5915 221.038 16.2017" fill="#0056A4"/>
<path d="M221.038 18.6013C221.089 20.2116 221.71 21.8155 222.945 23.0405C224.175 24.2656 225.784 24.8907 227.4 24.9412C227.356 23.3247 226.728 21.7271 225.493 20.502C224.257 19.2707 222.654 18.6518 221.038 18.6013Z" fill="#0056A4"/>
<path d="M228.344 36.2129C228.313 35.0068 227.837 33.8071 226.912 32.8851C225.987 31.9632 224.783 31.4896 223.573 31.458C223.611 32.6641 224.08 33.8639 225.005 34.7858C225.93 35.7078 227.134 36.175 228.344 36.2129Z" fill="#0056A4"/>
<path d="M228.344 38.0126C227.134 38.0505 225.93 38.5177 225.005 39.4397C224.08 40.3616 223.611 41.5551 223.573 42.7675C224.789 42.7296 225.987 42.2623 226.912 41.3467C227.837 40.4248 228.306 39.225 228.344 38.0126Z" fill="#0056A4"/>
<path d="M230.144 36.2129C231.354 36.175 232.558 35.7078 233.483 34.7858C234.409 33.8639 234.878 32.6641 234.916 31.458C233.705 31.4896 232.501 31.9632 231.576 32.8851C230.651 33.8071 230.182 35.0068 230.144 36.2129Z" fill="#0056A4"/>
<path d="M230.144 38.0126C230.182 39.2187 230.651 40.4185 231.576 41.3404C232.501 42.2623 233.705 42.7296 234.916 42.7675C234.884 41.5551 234.415 40.3616 233.49 39.4397C232.565 38.5177 231.361 38.0505 230.15 38.0126" fill="#0056A4"/>
<path d="M237.07 3.6293C237.045 2.71999 236.69 1.82331 235.999 1.1287C235.308 0.434088 234.402 0.086782 233.496 0.0615234C233.521 0.964518 233.876 1.86751 234.567 2.55581C235.264 3.25042 236.164 3.59772 237.076 3.6293" fill="#0056A4"/>
<path d="M237.07 4.98044C236.164 5.00569 235.258 5.35931 234.561 6.04761C233.87 6.73591 233.515 7.6389 233.49 8.5419C234.396 8.51664 235.302 8.16933 235.993 7.47472C236.684 6.78011 237.038 5.88343 237.064 4.97412" fill="#0056A4"/>
<path d="M238.426 3.6293C239.332 3.60404 240.232 3.25042 240.929 2.56212C241.62 1.87383 241.975 0.970832 242 0.0615234C241.094 0.086782 240.188 0.440402 239.497 1.13501C238.8 1.82331 238.451 2.71999 238.426 3.6293Z" fill="#0056A4"/>
<path d="M238.426 4.98071C238.451 5.89002 238.806 6.7867 239.497 7.48131C240.188 8.17592 241.094 8.52323 242 8.54849C241.975 7.63918 241.62 6.7425 240.929 6.04789C240.232 5.35959 239.332 5.00597 238.426 4.98071Z" fill="#0056A4"/>
</g>
<defs>
<clipPath id="clip0_6_758">
<rect width="242" height="61.1195" fill="white" transform="translate(0 0.0615234)"/>
</clipPath>
</defs>
</svg>
