<svg fill="none" xmlns="http://www.w3.org/2000/svg">
<g clip-path="url(#clip0_12_574)">
<path d="M0.110046 2.45739C0.110046 0.984789 1.00298 0 2.48941 0C3.01435 0 3.67278 0.192556 4.07866 0.566666L3.62948 1.3644C3.27592 1.10032 2.99631 0.984789 2.52188 0.984789C1.78047 0.984789 1.26275 1.52578 1.26275 2.45739C1.26275 3.38899 1.75522 3.92999 2.52188 3.92999C2.95121 3.92999 3.3625 3.75027 3.67999 3.39633L4.25544 4.21424C3.75576 4.70938 3.13521 4.91477 2.35772 4.91477C0.965102 4.91477 0.110046 3.92448 0.110046 2.45739Z" fill="#265E70"/>
<path d="M4.49896 2.45739C4.49896 0.984789 5.38468 0 6.91621 0C8.44773 0 9.33345 0.984789 9.33345 2.45739C9.33345 3.92999 8.44773 4.91477 6.91621 4.91477C5.38468 4.91477 4.49896 3.92999 4.49896 2.45739ZM8.17534 2.45739C8.17534 1.56246 7.75864 0.984789 6.91621 0.984789C6.07378 0.984789 5.65708 1.56429 5.65708 2.45739C5.65708 3.35048 6.07558 3.92999 6.91621 3.92999C7.75683 3.92999 8.17534 3.35048 8.17534 2.45739Z" fill="#265E70"/>
<path d="M10.2174 0.0770264H11.0598L12.3568 2.32902L13.6737 0.0770264H14.5269L14.8444 4.83776H13.7368L13.6412 2.08512L12.3766 4.13722L11.1031 2.09795L11.0093 4.83776H9.90167L10.2174 0.0770264Z" fill="#265E70"/>
<path d="M15.9935 0.0770264H16.8359L18.1329 2.32902L19.4498 0.0770264H20.303L20.6205 4.83776H19.5129L19.4173 2.08512L18.1528 4.13722L16.881 2.09795L16.7854 4.83776H15.6778L15.9935 0.0770264Z" fill="#265E70"/>
<path d="M21.3854 2.72697V0.0770264H22.493V2.72697C22.493 3.5192 22.7961 3.92999 23.4112 3.92999C24.0264 3.92999 24.3294 3.5192 24.3294 2.72697V0.0770264H25.437V2.72697C25.437 4.12255 24.71 4.91478 23.413 4.91478C22.116 4.91478 21.3872 4.12438 21.3872 2.72697" fill="#265E70"/>
<path d="M26.4183 0.0770264H27.185L29.3876 1.61564V0.0770264H30.4952V4.83776H29.3876V2.89569L27.5259 1.60831V4.83776H26.4183V0.0770264Z" fill="#265E70"/>
<path d="M31.5162 0.0770264H34.8769V1.06182H32.6238V1.94941H34.7181V2.90119H32.6238V3.85297H34.9598V4.83776H31.5162V0.0770264Z" fill="#265E70"/>
<path d="M37.1787 0.0770264H38.9249C40.4185 0.0770264 41.3241 1.04898 41.3241 2.45739C41.3241 3.8658 40.4185 4.83776 38.9249 4.83776H37.1787V0.0770264ZM38.9249 3.87314C39.7529 3.87314 40.166 3.37799 40.166 2.45739C40.166 1.53679 39.7547 1.04164 38.9249 1.04164H38.2863V3.87314H38.9249Z" fill="#265E70"/>
<path d="M42.0493 0.0770264H45.4099V1.06182H43.1569V1.94941H45.2512V2.90119H43.1569V3.85297H45.4911V4.83776H42.0493V0.0770264Z" fill="#265E70"/>
<path d="M0 6.82568H2.92415L4.77496 12.2319C5.24218 13.5762 5.55245 14.5408 5.78515 15.3459C6.09543 14.4913 6.39127 13.6073 6.85848 12.1678L8.58483 6.82568H11.509L6.85848 18.5239H4.68116L0 6.82568Z" fill="#265E70"/>
<path d="M11.9726 11.7092C11.9726 8.46876 13.8396 6.63489 17.0416 6.63489C20.2435 6.63489 22.0799 8.46876 22.0799 11.7092V18.522H19.3596V15.4393H14.6947V18.522H11.9726V11.7092ZM19.3578 13.0204V11.7092C19.3578 10.0331 18.5497 9.05376 17.0416 9.05376C15.5335 9.05376 14.6929 10.0331 14.6929 11.7092V13.0204H19.3578Z" fill="#265E70"/>
<path d="M23.9614 13.3378V6.82568H26.6817V13.3378C26.6817 15.2817 27.4285 16.294 28.9366 16.294C30.4447 16.294 31.1915 15.2817 31.1915 13.3378V6.82568H33.9118V13.3378C33.9118 16.7671 32.1241 18.7128 28.9366 18.7128C25.7491 18.7128 23.9614 16.7689 23.9614 13.3378Z" fill="#265E70"/>
<path d="M42.309 6.82568L40.2093 10.6658L38.1582 6.82568H34.9851L38.5929 12.595L34.7524 18.5221H37.9399L40.2417 14.4766L42.511 18.5221H45.6986L41.858 12.6097L45.4965 6.82568H42.309Z" fill="#265E70"/>
<path d="M35.6634 30.1378L36.9081 28.0802C38.0247 29.0686 39.4769 29.2282 40.4347 29.2282C41.5676 29.2282 42.2062 28.7496 42.2062 28.1114C42.2062 27.3466 41.0409 26.9634 40.1479 26.7085C38.2177 26.1656 36.0152 25.4156 36.0152 22.96C36.0152 20.8071 37.6423 19.4207 40.4347 19.4207C42.0619 19.4207 43.339 19.7232 44.6162 20.5687L43.6277 22.5786C42.4461 21.9881 41.362 21.7974 40.4365 21.7974C39.5111 21.7974 38.8401 22.1641 38.8401 22.7381C38.8401 23.4882 39.8611 23.8073 40.8027 24.0787C42.8935 24.6839 45.0311 25.5293 45.0311 27.8895C45.0311 30.1066 43.4347 31.6049 40.4347 31.6049C38.9501 31.6049 37.0362 31.3335 35.6634 30.1378Z" fill="#265E70"/>
<path d="M19.9802 22.8593H18.3332V23.7047H19.9802V22.8593Z" fill="#265E70"/>
<path d="M20.4383 24.5133L20.9019 23.7357C21.3186 24.1099 21.858 24.1704 22.2134 24.1704C22.6355 24.1704 22.8718 23.9888 22.8718 23.7468C22.8718 23.457 22.4389 23.3121 22.1069 23.2149C21.389 23.0095 20.57 22.7271 20.57 21.7973C20.57 20.9831 21.1743 20.4586 22.2134 20.4586C22.8195 20.4586 23.2939 20.5742 23.7684 20.8932L23.4004 21.6543C22.962 21.4306 22.5579 21.359 22.2134 21.359C21.8688 21.359 21.6199 21.4984 21.6199 21.7148C21.6199 21.9991 21.9987 22.1201 22.3487 22.221C23.1262 22.4502 23.9217 22.7693 23.9217 23.6624C23.9217 24.5005 23.3282 25.069 22.2116 25.069C21.6596 25.069 20.947 24.9663 20.4365 24.5133" fill="#265E70"/>
<path d="M24.5567 23.0169V20.5302H25.5958V23.0169C25.5958 23.7596 25.8808 24.1447 26.4562 24.1447C27.0317 24.1447 27.3167 23.7596 27.3167 23.0169V20.5302H28.3557V23.0169C28.3557 24.3263 27.6739 25.069 26.4562 25.069C25.2386 25.069 24.5567 24.3263 24.5567 23.0169Z" fill="#265E70"/>
<path d="M32.1476 23.5835C32.3496 23.9522 32.5102 24.0659 32.9197 24.1557V25.0176C32.1314 25.0176 31.7201 24.8122 31.3358 24.1135L31.0923 23.6734H30.3148V24.9956H29.2758V20.5302H31.1572C32.1909 20.5302 32.8854 21.0785 32.8854 22.1109C32.8854 22.7033 32.5354 23.1618 32.043 23.391L32.1494 23.5835H32.1476ZM30.313 21.4361V22.7931H31.1013C31.4874 22.7931 31.7958 22.5768 31.7958 22.1109C31.7958 21.6451 31.4874 21.4361 31.1139 21.4361H30.313Z" fill="#265E70"/>
<path d="M35.1078 22.8593H33.4608V23.7047H35.1078V22.8593Z" fill="#265E70"/>
<path d="M46.532 26.2152V19.6848H49.3082V26.2152C49.3082 28.1646 50.0695 29.1788 51.6064 29.1788C53.1433 29.1788 53.9064 28.1646 53.9064 26.2152V19.6848H56.6826V26.2152C56.6826 29.6537 54.8588 31.6031 51.6082 31.6031C48.3575 31.6031 46.5338 29.6537 46.5338 26.2152" fill="#265E70"/>
<path d="M66.6077 27.7062C67.1471 28.6726 67.5746 28.9734 68.6696 29.2118V31.4784C66.5608 31.4784 65.4659 30.9393 64.4358 29.1017L63.7864 27.9446H61.7083V31.4161H58.9339V19.6885H63.9614C66.7214 19.6885 68.5758 21.1299 68.5758 23.8404C68.5758 25.3937 67.6414 26.5985 66.3245 27.2L66.6096 27.7062H66.6077ZM61.7083 22.0633V25.6284H63.8171C64.8471 25.6284 65.6733 25.0581 65.6733 23.8367C65.6733 22.6153 64.8489 22.0615 63.8496 22.0615H61.7083V22.0633Z" fill="#265E70"/>
<path d="M70.6124 19.6866V31.4143H79.2387V28.9899H73.3868V26.6444H78.6362V24.2988H73.3868V22.111H79.0331V19.6866H70.6124Z" fill="#265E70"/>
<path d="M51.5974 16.7652C52.5282 16.7652 52.9575 17.0825 53.4987 17.4823C54.1048 17.9316 55.3387 18.4395 56.6718 18.4395V16.2462C55.741 16.2462 54.7668 15.929 54.2239 15.5292C53.6177 15.0799 52.9287 14.5719 51.5974 14.5719C50.2661 14.5719 49.577 15.0799 48.9709 15.5292C48.4297 15.929 47.4538 16.2462 46.5229 16.2462V18.4395C47.856 18.4395 49.0899 17.9316 49.696 17.4823C50.2372 17.0825 50.6665 16.7652 51.5974 16.7652Z" fill="#36A9E1"/>
<path d="M63.2615 16.7689C64.1923 16.7689 64.6216 17.0898 65.1628 17.4951C65.7689 17.9499 67.0028 18.4653 68.3359 18.4653V16.2408C67.4051 16.2408 66.431 15.9198 65.888 15.5127C65.2819 15.0579 64.5928 14.5426 63.2615 14.5426C61.9302 14.5426 61.2411 15.0579 60.635 15.5127C60.0938 15.9198 59.1197 16.2408 58.1871 16.2408V18.4653C59.5202 18.4653 60.754 17.9499 61.3602 17.4951C61.9031 17.0898 62.3307 16.7689 63.2615 16.7689Z" fill="#95C11F"/>
<path d="M74.9256 16.7652C75.8564 16.7652 76.2839 17.0825 76.8269 17.4823C77.433 17.9316 78.6669 18.4395 80 18.4395V16.2462C79.0692 16.2462 78.0951 15.929 77.5521 15.5292C76.946 15.0799 76.2569 14.5719 74.9256 14.5719C73.5943 14.5719 72.9052 15.0799 72.2991 15.5292C71.7579 15.929 70.782 16.2462 69.8512 16.2462V18.4395C71.1843 18.4395 72.4181 17.9316 73.0243 17.4823C73.5654 17.0825 73.993 16.7652 74.9256 16.7652Z" fill="#F9B233"/>
</g>
<defs>
<clipPath id="clip0_12_574">
<rect width="80" height="31.6049" fill="white"/>
</clipPath>
</defs>
</svg>
