<svg width="420" height="420" viewBox="0 0 420 420" fill="none" xmlns="http://www.w3.org/2000/svg">
<g clip-path="url(#clip0_11_412)">
<path d="M420 210.005C420 325.986 325.976 420.01 209.995 420.01C94.0142 420.01 0 325.986 0 210.005C0 94.0239 94.0239 0 209.995 0C325.966 0 420 94.0239 420 210.005Z" fill="#265E70"/>
<path d="M65.1018 132.054H83.5715L95.2611 165.652C98.2128 174.001 100.171 179.992 101.651 185.008C103.619 179.699 105.48 174.205 108.431 165.263L119.332 132.054H137.802L108.431 204.754H94.6767L65.1115 132.054H65.1018Z" fill="white"/>
<path d="M140.753 162.408C140.753 142.273 152.54 130.876 172.783 130.876C193.026 130.876 204.608 142.273 204.608 162.408V204.744H187.415V185.583H157.947V204.744H140.753V162.408ZM187.415 170.562V162.408C187.415 151.995 182.31 145.907 172.783 145.907C163.256 145.907 157.947 151.995 157.947 162.408V170.562H187.415Z" fill="white"/>
<path d="M216.493 172.53V132.054H233.686V172.53C233.686 184.609 238.401 190.902 247.928 190.902C257.455 190.902 262.18 184.619 262.18 172.53V132.054H279.364V172.53C279.364 193.844 268.064 205.933 247.928 205.933C227.793 205.933 216.493 193.854 216.493 172.53Z" fill="white"/>
<path d="M332.415 132.054L319.147 155.921L306.182 132.054H286.144L308.929 167.912L284.663 204.754H304.808L319.342 179.602L333.682 204.754H353.827L329.561 168.01L352.551 132.054H332.415Z" fill="white"/>
<path d="M75.9342 226.818H69.4951V230.072H75.9342V226.818Z" fill="white"/>
<path d="M77.7363 233.18L79.5482 230.179C81.175 231.621 83.2889 231.855 84.6819 231.855C86.338 231.855 87.2634 231.153 87.2634 230.228C87.2634 229.117 85.5684 228.552 84.2631 228.182C81.4478 227.393 78.2429 226.302 78.2429 222.727C78.2429 219.59 80.61 217.564 84.6819 217.564C87.0491 217.564 88.9097 218.003 90.7703 219.24L89.3286 222.172C87.6043 221.315 86.0262 221.032 84.6819 221.032C83.3376 221.032 82.3635 221.568 82.3635 222.406C82.3635 223.497 83.8539 223.964 85.2177 224.354C88.257 225.24 91.3743 226.468 91.3743 229.906C91.3743 233.141 89.0461 235.323 84.6819 235.323C82.5193 235.323 79.7333 234.923 77.7363 233.18Z" fill="white"/>
<path d="M93.8584 227.422V217.847H97.9206V227.422C97.9206 230.277 99.0311 231.767 101.291 231.767C103.551 231.767 104.662 230.277 104.662 227.422V217.847H108.724V227.422C108.724 232.469 106.055 235.323 101.291 235.323C96.5275 235.323 93.8584 232.469 93.8584 227.422Z" fill="white"/>
<path d="M123.57 229.604C124.359 231.017 124.982 231.465 126.59 231.816V235.138C123.501 235.138 121.894 234.349 120.384 231.65L119.43 229.955H116.39V235.05H112.328V217.856H119.693C123.735 217.856 126.453 219.97 126.453 223.945C126.453 226.224 125.08 227.987 123.151 228.874L123.57 229.614V229.604ZM116.39 221.334V226.565H119.478C120.988 226.565 122.196 225.727 122.196 223.935C122.196 222.143 120.988 221.334 119.527 221.334H116.39Z" fill="white"/>
<path d="M135.152 226.818H128.713V230.072H135.152V226.818Z" fill="white"/>
<path d="M66.7773 110.311C66.7773 104.389 70.4304 100.424 76.509 100.424C78.6618 100.424 81.3505 101.203 83.0065 102.703L81.1751 105.908C79.7236 104.847 78.5839 104.379 76.6454 104.379C73.6158 104.379 71.4922 106.551 71.4922 110.302C71.4922 114.052 73.5086 116.224 76.6454 116.224C78.4086 116.224 80.0841 115.504 81.3797 114.081L83.7371 117.364C81.6914 119.361 79.1586 120.189 75.9732 120.189C70.2745 120.189 66.7871 116.205 66.7871 110.302" fill="white"/>
<path d="M84.7209 110.311C84.7209 104.389 88.3447 100.424 94.6085 100.424C100.872 100.424 104.496 104.389 104.496 110.311C104.496 116.234 100.872 120.199 94.6085 120.199C88.3447 120.199 84.7209 116.234 84.7209 110.311ZM99.7617 110.311C99.7617 106.717 98.0569 104.389 94.6182 104.389C91.1795 104.389 89.465 106.717 89.465 110.311C89.465 113.906 91.1795 116.234 94.6182 116.234C98.0569 116.234 99.7617 113.906 99.7617 110.311Z" fill="white"/>
<path d="M108.11 100.736H111.559L116.858 109.795L122.245 100.736H125.732L127.028 119.887H122.498L122.118 108.811L116.936 117.072L111.734 108.86L111.344 119.887H106.814L108.11 100.736Z" fill="white"/>
<path d="M131.733 100.736H135.181L140.481 109.795L145.868 100.736H149.365L150.66 119.887H146.131L145.741 108.811L140.559 117.072L135.357 108.86L134.967 119.887H130.437L131.733 100.736Z" fill="white"/>
<path d="M153.787 111.402V100.736H158.317V111.402C158.317 114.588 159.564 116.244 162.068 116.244C164.571 116.244 165.818 114.588 165.818 111.402V100.736H170.348V111.402C170.348 117.023 167.367 120.199 162.068 120.199C156.768 120.199 153.787 117.014 153.787 111.402Z" fill="white"/>
<path d="M174.371 100.736H177.508L186.509 106.921V100.736H191.039V119.887H186.509V112.075L178.901 106.902V119.887H174.371V100.736Z" fill="white"/>
<path d="M195.227 100.736H208.972V104.7H199.747V108.266H208.32V112.104H199.747V115.932H209.304V119.887H195.227V100.736Z" fill="white"/>
<path d="M218.383 100.736H225.523C231.631 100.736 235.333 104.642 235.333 110.311C235.333 115.981 231.631 119.887 225.523 119.887H218.383V100.736ZM225.523 116.01C228.913 116.01 230.598 114.023 230.598 110.321C230.598 106.619 228.913 104.622 225.523 104.622H222.912V116.01H225.523Z" fill="white"/>
<path d="M238.304 100.736H252.039V104.7H242.824V108.266H251.396V112.104H242.824V115.932H252.38V119.887H238.304V100.736Z" fill="white"/>
<path d="M72.7097 310.244L80.5905 297.434C87.6628 303.59 96.8586 304.584 102.918 304.584C110.097 304.584 114.13 301.603 114.13 297.629C114.13 292.865 106.756 290.478 101.096 288.891C88.8707 285.51 74.9308 280.844 74.9308 265.55C74.9308 252.136 85.2371 243.505 102.918 243.505C113.224 243.505 121.31 245.395 129.395 250.656L123.131 263.173C115.66 259.501 108.782 258.312 102.918 258.312C97.0535 258.312 92.8159 260.592 92.8159 264.167C92.8159 268.833 99.2842 270.82 105.246 272.515C118.485 276.285 132.025 281.555 132.025 296.255C132.025 310.059 121.923 319.401 102.928 319.401C93.5271 319.401 81.4088 317.715 72.7195 310.263" fill="white"/>
<path d="M141.523 285.822V245.152H159.096V285.822C159.096 297.96 163.918 304.282 173.65 304.282C183.382 304.282 188.213 297.97 188.213 285.822V245.152H205.787V285.822C205.787 307.243 194.243 319.381 173.66 319.381C153.076 319.381 141.533 307.243 141.533 285.822" fill="white"/>
<path d="M268.648 295.106C272.067 301.126 274.775 303.006 281.702 304.487V318.602C268.346 318.602 261.42 315.241 254.893 303.795L250.773 296.596H237.622V318.212H220.048V245.161H251.873C269.35 245.161 281.088 254.143 281.088 271.025C281.088 280.698 275.165 288.199 266.836 291.949L268.638 295.106H268.648ZM237.622 259.968V282.179H250.977C257.504 282.179 262.725 278.623 262.725 271.025C262.725 263.427 257.504 259.968 251.182 259.968H237.622Z" fill="white"/>
<path d="M293.995 245.161V318.202H348.615V303.103H311.559V288.491H344.797V273.879H311.559V260.261H347.31V245.161H293.995Z" fill="white"/>
<path d="M173.601 226.965C179.495 226.965 182.203 228.932 185.632 231.426C189.47 234.222 197.292 237.388 205.729 237.388V223.73C199.835 223.73 193.659 221.763 190.23 219.259C186.392 216.463 182.037 213.297 173.592 213.297C165.146 213.297 160.801 216.463 156.953 219.259C153.524 221.753 147.348 223.73 141.455 223.73V237.388C149.891 237.388 157.703 234.222 161.551 231.426C164.98 228.932 167.688 226.965 173.592 226.965" fill="#36A9E1"/>
<path d="M247.451 226.984C253.344 226.984 256.052 228.981 259.491 231.514C263.329 234.349 271.142 237.563 279.588 237.563V223.711C273.694 223.711 267.518 221.714 264.089 219.181C260.251 216.347 255.897 213.132 247.451 213.132C239.005 213.132 234.66 216.347 230.813 219.181C227.384 221.714 221.217 223.711 215.314 223.711V237.563C223.75 237.563 231.563 234.349 235.41 231.514C238.839 228.981 241.548 226.984 247.451 226.984Z" fill="#95C11F"/>
<path d="M321.3 226.965C327.194 226.965 329.902 228.932 333.341 231.426C337.179 234.222 344.991 237.388 353.437 237.388V223.73C347.544 223.73 341.377 221.763 337.939 219.259C334.1 216.463 329.746 213.297 321.3 213.297C312.855 213.297 308.51 216.463 304.662 219.259C301.233 221.753 295.057 223.73 289.163 223.73V237.388C297.599 237.388 305.422 234.222 309.26 231.426C312.689 228.932 315.397 226.965 321.291 226.965" fill="#F9B233"/>
</g>
<g clip-path="url(#clip1_11_412)">
<path d="M420 210.005C420 325.986 325.976 420.01 209.995 420.01C94.0142 420.01 0 325.986 0 210.005C0 94.0239 94.0239 0 209.995 0C325.966 0 420 94.0239 420 210.005Z" fill="#265E70"/>
<path d="M65.1018 132.054H83.5715L95.2611 165.652C98.2128 174.001 100.171 179.992 101.651 185.008C103.619 179.699 105.48 174.205 108.431 165.263L119.332 132.054H137.802L108.431 204.754H94.6767L65.1115 132.054H65.1018Z" fill="white"/>
<path d="M140.753 162.408C140.753 142.273 152.54 130.876 172.783 130.876C193.026 130.876 204.608 142.273 204.608 162.408V204.744H187.415V185.583H157.947V204.744H140.753V162.408ZM187.415 170.562V162.408C187.415 151.995 182.31 145.907 172.783 145.907C163.256 145.907 157.947 151.995 157.947 162.408V170.562H187.415Z" fill="white"/>
<path d="M216.493 172.53V132.054H233.686V172.53C233.686 184.609 238.401 190.902 247.928 190.902C257.455 190.902 262.18 184.619 262.18 172.53V132.054H279.364V172.53C279.364 193.844 268.064 205.933 247.928 205.933C227.793 205.933 216.493 193.854 216.493 172.53Z" fill="white"/>
<path d="M332.415 132.054L319.147 155.921L306.182 132.054H286.144L308.929 167.912L284.663 204.754H304.808L319.342 179.602L333.682 204.754H353.827L329.561 168.01L352.551 132.054H332.415Z" fill="white"/>
<path d="M75.9342 226.818H69.4951V230.072H75.9342V226.818Z" fill="white"/>
<path d="M77.7363 233.18L79.5482 230.179C81.175 231.621 83.2889 231.855 84.6819 231.855C86.338 231.855 87.2634 231.153 87.2634 230.228C87.2634 229.117 85.5684 228.552 84.2631 228.182C81.4478 227.393 78.2429 226.302 78.2429 222.727C78.2429 219.59 80.61 217.564 84.6819 217.564C87.0491 217.564 88.9097 218.003 90.7703 219.24L89.3286 222.172C87.6043 221.315 86.0262 221.032 84.6819 221.032C83.3376 221.032 82.3635 221.568 82.3635 222.406C82.3635 223.497 83.8539 223.964 85.2177 224.354C88.257 225.24 91.3743 226.468 91.3743 229.906C91.3743 233.141 89.0461 235.323 84.6819 235.323C82.5193 235.323 79.7333 234.923 77.7363 233.18Z" fill="white"/>
<path d="M93.8584 227.422V217.847H97.9206V227.422C97.9206 230.277 99.0311 231.767 101.291 231.767C103.551 231.767 104.662 230.277 104.662 227.422V217.847H108.724V227.422C108.724 232.469 106.055 235.323 101.291 235.323C96.5275 235.323 93.8584 232.469 93.8584 227.422Z" fill="white"/>
<path d="M123.57 229.604C124.359 231.017 124.982 231.465 126.59 231.816V235.138C123.501 235.138 121.894 234.349 120.384 231.65L119.43 229.955H116.39V235.05H112.328V217.856H119.693C123.735 217.856 126.453 219.97 126.453 223.945C126.453 226.224 125.08 227.987 123.151 228.874L123.57 229.614V229.604ZM116.39 221.334V226.565H119.478C120.988 226.565 122.196 225.727 122.196 223.935C122.196 222.143 120.988 221.334 119.527 221.334H116.39Z" fill="white"/>
<path d="M135.152 226.818H128.713V230.072H135.152V226.818Z" fill="white"/>
<path d="M66.7773 110.311C66.7773 104.389 70.4304 100.424 76.509 100.424C78.6618 100.424 81.3505 101.203 83.0065 102.703L81.1751 105.908C79.7236 104.847 78.5839 104.379 76.6454 104.379C73.6158 104.379 71.4922 106.551 71.4922 110.302C71.4922 114.052 73.5086 116.224 76.6454 116.224C78.4086 116.224 80.0841 115.504 81.3797 114.081L83.7371 117.364C81.6914 119.361 79.1586 120.189 75.9732 120.189C70.2745 120.189 66.7871 116.205 66.7871 110.302" fill="white"/>
<path d="M84.7209 110.311C84.7209 104.389 88.3447 100.424 94.6085 100.424C100.872 100.424 104.496 104.389 104.496 110.311C104.496 116.234 100.872 120.199 94.6085 120.199C88.3447 120.199 84.7209 116.234 84.7209 110.311ZM99.7617 110.311C99.7617 106.717 98.0569 104.389 94.6182 104.389C91.1795 104.389 89.465 106.717 89.465 110.311C89.465 113.906 91.1795 116.234 94.6182 116.234C98.0569 116.234 99.7617 113.906 99.7617 110.311Z" fill="white"/>
<path d="M108.11 100.736H111.559L116.858 109.795L122.245 100.736H125.732L127.028 119.887H122.498L122.118 108.811L116.936 117.072L111.734 108.86L111.344 119.887H106.814L108.11 100.736Z" fill="white"/>
<path d="M131.733 100.736H135.181L140.481 109.795L145.868 100.736H149.365L150.66 119.887H146.131L145.741 108.811L140.559 117.072L135.357 108.86L134.967 119.887H130.437L131.733 100.736Z" fill="white"/>
<path d="M153.787 111.402V100.736H158.317V111.402C158.317 114.588 159.564 116.244 162.068 116.244C164.571 116.244 165.818 114.588 165.818 111.402V100.736H170.348V111.402C170.348 117.023 167.367 120.199 162.068 120.199C156.768 120.199 153.787 117.014 153.787 111.402Z" fill="white"/>
<path d="M174.371 100.736H177.508L186.509 106.921V100.736H191.039V119.887H186.509V112.075L178.901 106.902V119.887H174.371V100.736Z" fill="white"/>
<path d="M195.227 100.736H208.972V104.7H199.747V108.266H208.32V112.104H199.747V115.932H209.304V119.887H195.227V100.736Z" fill="white"/>
<path d="M218.383 100.736H225.523C231.631 100.736 235.333 104.642 235.333 110.311C235.333 115.981 231.631 119.887 225.523 119.887H218.383V100.736ZM225.523 116.01C228.913 116.01 230.598 114.023 230.598 110.321C230.598 106.619 228.913 104.622 225.523 104.622H222.912V116.01H225.523Z" fill="white"/>
<path d="M238.304 100.736H252.039V104.7H242.824V108.266H251.396V112.104H242.824V115.932H252.38V119.887H238.304V100.736Z" fill="white"/>
<path d="M72.7097 310.244L80.5905 297.434C87.6628 303.59 96.8586 304.584 102.918 304.584C110.097 304.584 114.13 301.603 114.13 297.629C114.13 292.865 106.756 290.478 101.096 288.891C88.8707 285.51 74.9308 280.844 74.9308 265.55C74.9308 252.136 85.2371 243.505 102.918 243.505C113.224 243.505 121.31 245.395 129.395 250.656L123.131 263.173C115.66 259.501 108.782 258.312 102.918 258.312C97.0535 258.312 92.8159 260.592 92.8159 264.167C92.8159 268.833 99.2842 270.82 105.246 272.515C118.485 276.285 132.025 281.555 132.025 296.255C132.025 310.059 121.923 319.401 102.928 319.401C93.5271 319.401 81.4088 317.715 72.7195 310.263" fill="white"/>
<path d="M141.523 285.822V245.152H159.096V285.822C159.096 297.96 163.918 304.282 173.65 304.282C183.382 304.282 188.213 297.97 188.213 285.822V245.152H205.787V285.822C205.787 307.243 194.243 319.381 173.66 319.381C153.076 319.381 141.533 307.243 141.533 285.822" fill="white"/>
<path d="M268.648 295.106C272.067 301.126 274.775 303.006 281.702 304.487V318.602C268.346 318.602 261.42 315.241 254.893 303.795L250.773 296.596H237.622V318.212H220.048V245.161H251.873C269.35 245.161 281.088 254.143 281.088 271.025C281.088 280.698 275.165 288.199 266.836 291.949L268.638 295.106H268.648ZM237.622 259.968V282.179H250.977C257.504 282.179 262.725 278.623 262.725 271.025C262.725 263.427 257.504 259.968 251.182 259.968H237.622Z" fill="white"/>
<path d="M293.995 245.161V318.202H348.615V303.103H311.559V288.491H344.797V273.879H311.559V260.261H347.31V245.161H293.995Z" fill="white"/>
<path d="M173.601 226.965C179.495 226.965 182.203 228.932 185.632 231.426C189.47 234.222 197.292 237.388 205.729 237.388V223.73C199.835 223.73 193.659 221.763 190.23 219.259C186.392 216.463 182.037 213.297 173.592 213.297C165.146 213.297 160.801 216.463 156.953 219.259C153.524 221.753 147.348 223.73 141.455 223.73V237.388C149.891 237.388 157.703 234.222 161.551 231.426C164.98 228.932 167.688 226.965 173.592 226.965" fill="#36A9E1"/>
<path d="M247.451 226.984C253.344 226.984 256.052 228.981 259.491 231.514C263.329 234.349 271.142 237.563 279.588 237.563V223.711C273.694 223.711 267.518 221.714 264.089 219.181C260.251 216.347 255.897 213.132 247.451 213.132C239.005 213.132 234.66 216.347 230.813 219.181C227.384 221.714 221.217 223.711 215.314 223.711V237.563C223.75 237.563 231.563 234.349 235.41 231.514C238.839 228.981 241.548 226.984 247.451 226.984Z" fill="#95C11F"/>
<path d="M321.3 226.965C327.194 226.965 329.902 228.932 333.341 231.426C337.179 234.222 344.991 237.388 353.437 237.388V223.73C347.544 223.73 341.377 221.763 337.939 219.259C334.1 216.463 329.746 213.297 321.3 213.297C312.855 213.297 308.51 216.463 304.662 219.259C301.233 221.753 295.057 223.73 289.163 223.73V237.388C297.599 237.388 305.422 234.222 309.26 231.426C312.689 228.932 315.397 226.965 321.291 226.965" fill="#F9B233"/>
</g>
<defs>
<clipPath id="clip0_11_412">
<rect width="420" height="420" fill="white"/>
</clipPath>
<clipPath id="clip1_11_412">
<rect width="420" height="420" fill="white"/>
</clipPath>
</defs>
</svg>
