<svg width="1728" height="111" viewBox="0 0 1728 111" fill="none" xmlns="http://www.w3.org/2000/svg">
<rect y="78" width="1728" height="33" fill="white"/>
<path d="M1 64.8135V111C1 111 979.522 65.9278 1728 101.33V2C1592.31 2 531.241 40.5191 1 64.8135Z" fill="url(#paint0_linear_4101_570)"/>
<path d="M1 64.8135V111C1 111 979.522 65.9278 1728 101.33V2C1592.31 2 531.241 40.5191 1 64.8135Z" fill="url(#paint1_linear_4101_570)"/>
<path d="M1 64.8135V111C1 111 979.522 65.9278 1728 101.33V2C1592.31 2 531.241 40.5191 1 64.8135Z" fill="url(#paint2_linear_4101_570)"/>
<defs>
<linearGradient id="paint0_linear_4101_570" x1="1" y1="57.4976" x2="1728" y2="57.4976" gradientUnits="userSpaceOnUse">
<stop stop-color="#38AF85"/>
<stop offset="1" stop-color="#2F8B6E"/>
</linearGradient>
<linearGradient id="paint1_linear_4101_570" x1="1" y1="57.4976" x2="1728" y2="57.4976" gradientUnits="userSpaceOnUse">
<stop stop-color="#38AF85"/>
<stop offset="1" stop-color="#2F8B6E"/>
</linearGradient>
<linearGradient id="paint2_linear_4101_570" x1="1" y1="57.4976" x2="1728" y2="57.4976" gradientUnits="userSpaceOnUse">
<stop stop-color="#38AF85"/>
<stop offset="1" stop-color="#2F8B6E"/>
</linearGradient>
</defs>
</svg>
