<svg width="50" height="62" viewBox="0 0 50 62" fill="none" xmlns="http://www.w3.org/2000/svg">
<path d="M0.0664378 20.1486C-1.4925 46.4224 24.9006 61.9924 24.9006 61.9924C24.9006 61.9924 53.3697 42.1719 49.3804 6.98403C49.3769 6.95196 49.3474 6.92306 49.3152 6.91925C46.1487 6.57402 43.0982 6.41236 40.162 6.41268C21.7939 6.41331 8.03198 12.7479 0.0654863 20.1492" fill="url(#paint0_linear_4101_537)"/>
<path d="M0.0668743 20.1486C0.0563754 20.3255 0.0525575 20.4999 0.0449219 20.6755C9.91809 12.7222 26.9551 6.41496 49.546 8.63308C49.4976 8.08554 49.4426 7.53418 49.3796 6.9787C49.3758 6.94662 49.3471 6.92249 49.315 6.91899C46.1497 6.57408 43.0958 6.4121 40.1609 6.4121C21.7905 6.41178 8.03083 12.7466 0.0675152 20.1486" fill="url(#paint1_linear_4101_537)"/>
<path d="M0.407964 16.5501C0.393647 16.9915 0.267024 17.5168 0.269569 17.9507C9.46921 9.32053 26.2711 2.00175 49.1375 3.82414C49.0389 2.66776 48.9145 1.49708 48.7487 0.307034C48.744 0.274956 48.7153 0.251129 48.6835 0.248589C46.6633 0.0802612 44.6917 -8.96454e-05 42.7716 -8.96454e-05C22.9808 -0.000406265 8.54817 8.50811 0.409877 16.5501" fill="url(#paint2_linear_4101_537)"/>
<path d="M27.3054 23.7532C27.2987 25.6706 25.7353 27.2281 23.813 27.2281C22.5458 27.2281 21.445 26.5449 20.8326 25.5346C20.5921 26.3832 20.1864 27.1642 19.6484 27.8394C20.4467 28.6493 21.473 29.234 22.6292 29.4719V44.1895C22.6292 44.9632 23.2575 45.5905 24.0322 45.5905H24.4869C24.7688 45.5905 24.9972 45.3624 24.9972 45.081V45.0683C24.9972 44.7872 25.2253 44.5592 25.5072 44.5592H27.5281C27.8096 44.5592 28.0381 44.3312 28.0381 44.0498V43.2326C28.0381 42.9512 27.8096 42.7232 27.5281 42.7232H26.6392C26.3576 42.7232 26.1292 42.4951 26.1292 42.214V41.4118C26.1292 41.1304 26.3576 40.9024 26.6392 40.9024H27.5281C27.8096 40.9024 28.0381 40.6743 28.0381 40.3932V39.5761C28.0381 39.2947 27.8096 39.0666 27.5281 39.0666H25.5072C25.2253 39.0666 24.9972 38.8386 24.9972 38.5572V29.4719C25.0392 29.463 25.0793 29.4497 25.1209 29.4402V29.4192C26.2049 29.1718 27.1717 28.6268 27.9372 27.8804C28.0091 27.809 28.0826 27.7388 28.1507 27.6635C28.1628 27.6508 28.1739 27.6371 28.1857 27.6241C28.2951 27.5012 28.4004 27.3748 28.4994 27.2433C28.5 27.2443 28.501 27.2449 28.5016 27.2459C29.2327 26.2924 29.675 25.1122 29.7007 23.8288C29.7001 23.7989 29.6918 23.771 29.6918 23.7411C29.6918 21.5894 31.6535 19.8861 33.886 20.3215C35.2464 20.587 36.3428 21.6809 36.61 23.0389C37.0481 25.2682 35.3419 27.2281 33.1854 27.2281C31.9173 27.2281 30.8158 26.5436 30.2037 25.5321C30.1636 25.6696 30.1194 25.8052 30.0711 25.9389C29.5178 27.4653 30.3749 29.1321 31.9666 29.4646L32.0016 29.4719V40.8195C32.0016 41.5985 32.6341 42.2296 33.4142 42.2296H33.8593C34.1412 42.2296 34.3693 42.0016 34.3693 41.7205V41.7078C34.3693 41.4264 34.5977 41.1984 34.8796 41.1984H36.9005C37.182 41.1984 37.4105 40.9703 37.4105 40.6892V39.8717C37.4105 39.5907 37.182 39.3626 36.9005 39.3626H36.0116C35.7297 39.3626 35.5016 39.1346 35.5016 38.8532V38.0509C35.5016 37.7699 35.7297 37.5418 36.0116 37.5418H36.9005C37.182 37.5418 37.4105 37.3138 37.4105 37.0324V36.2152C37.4105 35.9338 37.182 35.7058 36.9005 35.7058H34.8796C34.5977 35.7058 34.3693 35.4777 34.3693 35.1967V29.4719C37.0357 28.9237 39.0467 26.5627 39.0467 23.7411C39.0467 20.5165 36.4204 17.8925 33.1905 17.8897V17.9071C31.3853 17.9071 29.7723 18.7237 28.6979 20.0055C28.6842 20.022 28.6699 20.0385 28.6562 20.0554C27.8306 21.0628 27.3343 22.35 27.3343 23.7532H27.3054Z" fill="white"/>
<path d="M13.236 29.5304V40.9504C13.236 41.6891 13.836 42.2885 14.5764 42.2885H15.0937C15.3756 42.2885 15.604 42.0604 15.604 41.779V41.7663C15.604 41.4852 15.8324 41.2572 16.114 41.2572H18.1349C18.4168 41.2572 18.6449 41.0292 18.6449 40.7478V39.9306C18.6449 39.6492 18.4168 39.4212 18.1349 39.4212H17.246C16.9644 39.4212 16.736 39.1931 16.736 38.912V38.1098C16.736 37.8284 16.9644 37.6004 17.246 37.6004H18.1349C18.4168 37.6004 18.6449 37.3723 18.6449 37.0912V36.2737C18.6449 35.9927 18.4168 35.7646 18.1349 35.7646H16.114C15.8324 35.7646 15.604 35.5366 15.604 35.2552V29.5304C15.6695 29.5171 15.7325 29.4968 15.7974 29.4812L15.7968 29.4469C16.9434 29.1728 17.9583 28.5691 18.7352 27.7436C18.7378 27.7408 18.7406 27.7382 18.7432 27.7354C18.7976 27.6772 18.8475 27.6147 18.8997 27.5543C18.9808 27.4578 19.0629 27.3619 19.1377 27.2602L19.1383 27.2612C19.8783 26.2849 20.3171 25.0748 20.3196 23.7635C20.3196 23.7558 20.3174 23.7488 20.3174 23.7412C20.3174 23.7269 20.3215 23.7139 20.3215 23.6999C20.3215 23.6904 20.3228 23.6809 20.3225 23.6714H20.3247C20.3629 21.7813 21.9085 20.2533 23.811 20.2533C25.1021 20.2533 26.2191 20.9641 26.8236 22.0068C26.8516 21.9055 26.8818 21.8054 26.9142 21.706C27.486 19.9618 26.4405 18.2 24.6197 17.9457C24.3554 17.9085 24.0856 17.8894 23.811 17.8894C23.3296 17.8894 22.8623 17.9485 22.4146 18.0584L22.3469 18.0759C22.1859 18.1168 21.925 18.2045 21.7685 18.2601C21.7545 18.2652 21.7405 18.2699 21.7268 18.2753C21.5346 18.349 21.3479 18.4332 21.1662 18.5259C21.1497 18.5342 21.1325 18.5412 21.116 18.55C20.9209 18.6517 20.7323 18.7638 20.5509 18.8861C20.5306 18.9 20.5118 18.9162 20.4917 18.9302C20.3444 19.0322 20.2022 19.1408 20.0651 19.2554C19.9916 19.3174 19.9223 19.3841 19.8516 19.4495C19.7734 19.5216 19.6957 19.594 19.6216 19.6702C19.5437 19.7509 19.4686 19.8344 19.3951 19.9195C19.3359 19.9875 19.2783 20.0571 19.2223 20.1279C18.4219 21.141 17.9357 22.421 17.9262 23.8194H17.9115C17.8994 25.9628 15.9425 27.6547 13.7151 27.2177C12.3566 26.9509 11.2622 25.858 10.9956 24.5019C10.5575 22.273 12.2631 20.3118 14.4198 20.3118C15.7026 20.3118 16.8139 21.0134 17.4216 22.0449C17.461 21.9014 17.5053 21.76 17.5539 21.6206C18.1066 20.0336 17.3144 18.4456 15.6708 18.0838C14.8204 17.8964 13.9 17.8958 12.9522 18.1286C10.812 18.6545 9.18626 20.3172 8.70744 22.4648C7.9531 25.8491 10.1582 28.8978 13.236 29.5304Z" fill="white"/>
<defs>
<linearGradient id="paint0_linear_4101_537" x1="24.8822" y1="6.41236" x2="24.8822" y2="61.9924" gradientUnits="userSpaceOnUse">
<stop stop-color="#39B68A"/>
<stop offset="0.99202" stop-color="#2B7C65"/>
<stop offset="0.99374" stop-color="#2B7C65"/>
<stop offset="1" stop-color="#2B7C65"/>
</linearGradient>
<linearGradient id="paint1_linear_4101_537" x1="0.0446037" y1="13.5425" x2="49.5457" y2="13.5425" gradientUnits="userSpaceOnUse">
<stop stop-color="#39B68A"/>
<stop offset="0.99202" stop-color="#6ECDAA"/>
<stop offset="0.99374" stop-color="#6ECDAA"/>
<stop offset="1" stop-color="#6ECDAA"/>
</linearGradient>
<linearGradient id="paint2_linear_4101_537" x1="0.267978" y1="8.9753" x2="49.1359" y2="8.9753" gradientUnits="userSpaceOnUse">
<stop stop-color="#F2EF1D"/>
<stop offset="0.99202" stop-color="#F68712"/>
<stop offset="0.99374" stop-color="#F68712"/>
<stop offset="1" stop-color="#F68712"/>
</linearGradient>
</defs>
</svg>
