<svg width="712" height="671" viewBox="0 0 712 671" fill="none" xmlns="http://www.w3.org/2000/svg">
<path d="M9.69388 334.052L1 312.331L43.0204 284.818L73.449 274.682L92.2857 255.857L143 226.896H151.694L156.041 215.312L174.878 197.935L182.122 215.312L190.816 206.623L212.551 215.312H227.041L261.816 224L287.898 232.688L293.694 242.825L313.98 247.169L331.367 255.857H341.51L347.306 263.097H360.347L366.143 270.338L383.531 255.857L399.469 247.169L428.449 215.312L421.204 206.623L434.245 193.591L377.735 132.773L413.959 99.4675L438.592 121.188H448.735L470.469 105.26L513.939 83.539L542.918 54.5779H558.857L571.898 41.5455L603.776 27.0649L626.959 1L645.796 27.0649L653.041 50.2338L667.531 61.8182L682.02 54.5779L696.51 74.8506L682.02 99.4675L696.51 115.396L711 132.773L705.204 138.565V153.045L711 168.974L692.163 193.591H682.02L674.776 177.662L667.531 173.318L653.041 182.006L645.796 177.662L632.755 182.006L626.959 189.247L619.714 182.006V173.318H613.918L608.122 189.247L632.755 215.312L619.714 224V232.688L608.122 247.169V263.097L626.959 277.578V290.61L632.755 310.883L619.714 316.675L603.776 323.916V345.636L589.286 355.773L582.041 381.838V426.727L571.898 448.448V455.688V462.929L567.551 490.442L574.796 497.682L567.551 507.818L564.653 522.299L547.265 529.539L540.02 535.331L555.959 559.948L515.388 570.084L470.469 596.149L434.245 639.591L421.204 649.727L413.959 670L386.429 649.727L357.449 633.799L287.898 591.805H280.653V600.493H264.714L256.02 586.013L224.143 567.188L203.857 570.084L198.061 559.948L182.122 555.604V535.331V504.922L190.816 497.682L198.061 490.442L185.02 475.961H174.878L164.735 470.169L150.245 475.961H131.408V470.169L121.265 460.032L114.02 442.656L83.5918 418.039L9.69388 334.052Z" fill="#F5F7F7" stroke="#E3E7E7"/>
</svg>
