<svg xmlns="http://www.w3.org/2000/svg" viewBox="0 0 337.54 344.85">    <path d="M186.52,0c32.62,0,61.66,5.49,87.09,16.48l1.2.52c25.21,10.96,46.01,26.5,62.4,46.6l.33.4-.39.34-70.92,62.46-.41.36-.35-.41c-10.29-11.85-21.51-20.73-33.64-26.64h-.02c-11.81-6.23-25.03-9.34-39.67-9.34-12.15,0-23.2,1.87-33.16,5.6-9.63,3.73-17.86,9.17-24.69,16.31-6.83,7.14-12.12,15.69-15.85,25.65-3.73,9.95-5.6,21.31-5.6,34.1s1.87,23.36,5.6,33.63l.35.93c3.71,9.56,8.88,17.8,15.5,24.72,6.84,7.15,14.92,12.74,24.25,16.78h0c9.63,3.72,20.36,5.59,32.19,5.59,12.46,0,24.62-2.03,36.46-6.08,1.12-.41,2.26-.86,3.39-1.32v-83.71h97.35v139.84l-.24.16c-20.09,13.5-43,23.85-68.72,31.07-25.72,7.21-50.66,10.82-74.82,10.82-26.67,0-51.31-4.08-73.92-12.24h0c-22.29-8.48-41.76-20.41-58.41-35.8h0c-16.33-15.4-29.06-33.62-38.17-54.66C4.55,221.09,0,197.85,0,172.43s4.55-48.67,13.66-69.72c9.11-21.04,21.99-39.27,38.64-54.66,16.65-15.39,36.28-27.17,58.88-35.33l2.16-.78C135.68,3.98,160.07,0,186.52,0Z"/>
</svg>