<?xml version="1.0" encoding="UTF-8"?>
<svg id="Calque_2" data-name="Calque 2" xmlns="http://www.w3.org/2000/svg" viewBox="0 0 254 313">
  <g id="G">
    <path d="M0,306.65c1.76,2.17,3.58,4.28,5.44,6.35,26.03-25.7,58.83-42.1,94.86-47.71,7.5,6.2,15.74,11.52,25,15.66.49.2,1.03.3,1.62.3s1.18-.1,1.76-.3c9.12-4.14,17.36-9.45,24.86-15.66,36.03,5.61,68.83,22.01,95.01,47.71,1.86-2.07,3.68-4.18,5.44-6.35-25.88-25.26-57.65-41.8-92.66-48.6,18.83-19.35,30-45.79,30-73.85v-59.82h-7.79c-.15-31.32-25.44-56.72-56.62-56.72-7.21,0-13.09-5.91-13.09-13.15v-16.4h-8.38v16.4c0,1.48.15,2.9.44,4.28-5.15-5.32-8.38-12.7-8.38-20.68,0-16.4,13.24-29.69,29.41-29.69s29.56,13.29,29.56,29.69h8.38c0-20.98-17.06-38.11-37.95-38.11s-37.8,17.13-37.8,38.11c0,14.18,7.79,26.59,19.27,33.09-19.27,7.39-32.95,26.14-32.95,48.15v16.84h8.38v-16.84c0-23.93,19.41-43.28,43.09-43.28,26.62,0,48.24,21.71,48.24,48.3,0,11.82-9.71,21.57-21.47,21.57h-87.07c-2.21,0-4.12,1.77-4.12,4.14v13.74l-30.3-70.02c-2.35-5.32-7.65-8.12-13.24-6.94-5.74,1.18-9.41,5.91-9.41,11.67v62.63h8.38v-62.63c0-2.66,2.06-3.25,2.65-3.4.74-.15,2.94-.44,3.97,2.07l37.95,87.89c.29,27.77,11.47,53.77,30.15,72.97-35.15,6.8-66.92,23.34-92.66,48.6ZM70.89,154.36h82.8c14.56,0,26.77-10.63,29.27-24.52v54.36c0,37.81-21.91,72.23-56.04,88.18-34.12-15.95-56.04-50.37-56.04-88.18v-29.84Z" style="fill: #2c2e35;"/>
  </g>
</svg>