<?xml version="1.0" encoding="UTF-8"?>
<svg id="Calque_2" data-name="Calque 2" xmlns="http://www.w3.org/2000/svg" viewBox="0 0 297.87 345.2">
  <g id="S">
    <path d="M159.11,0c22.29,0,44.27,2.35,65.93,7.06,21.67,4.71,41.15,11.94,58.44,21.68l.42.23-.18.44-33.38,80.39-.22.53-.52-.26c-16.27-8.13-32.06-14.23-47.38-18.3h0c-15-4.06-29.68-6.09-44.05-6.09-10.63,0-19.03.94-25.23,2.8-6.21,1.86-10.65,4.33-13.37,7.35-2.43,3.04-3.64,6.37-3.64,10,0,5.37,3.11,9.76,9.57,13.15,6.53,3.11,15.1,5.76,25.73,7.95h0c10.97,2.19,22.87,4.54,35.72,7.05h0c13.19,2.51,26.22,5.97,39.09,10.36,12.89,4.4,24.68,10.22,35.38,17.45l1.03.69c10.56,7.16,19.05,16.4,25.47,27.7,6.64,11.7,9.94,26.21,9.94,43.52,0,20.17-5.83,38.77-17.49,55.78-11.35,16.71-28.36,30.24-50.99,40.62h0c-22.66,10.07-51.1,15.09-85.31,15.09-27.62,0-54.3-3.14-80.05-9.42-25.73-6.28-46.95-14.44-63.62-24.51l-.4-.24.19-.43,35.73-80.86.24-.55.52.3c15.63,9.06,32.98,16.41,52.06,22.04l1.82.49c18.75,4.99,36.9,7.48,54.46,7.48,10.64,0,18.9-.63,24.81-1.87,6.22-1.56,10.65-3.56,13.37-5.98,2.72-2.72,4.06-5.88,4.06-9.48,0-5.7-3.13-10.25-9.58-13.63-6.52-3.41-15.24-6.22-26.18-8.41h0s0,0,0,0c-10.65-2.51-22.39-5.01-35.24-7.52h-.01c-12.87-2.83-25.89-6.44-39.07-10.83h0c-12.89-4.4-24.84-10.22-35.85-17.46h0c-10.73-7.26-19.4-16.73-26.02-28.39h0c-6.64-12.01-9.94-26.84-9.94-44.46,0-20.48,5.67-39.07,17.02-55.78h0c11.66-17.02,28.83-30.56,51.47-40.62h0C96.77,5.02,125.21,0,159.11,0Z"/>
  </g>
</svg>