<?xml version="1.0" encoding="UTF-8"?>
<svg id="Calque_2" data-name="Calque 2" xmlns="http://www.w3.org/2000/svg" viewBox="0 0 55.39 55.21">
  <g id="Calque_2-2" data-name="Calque 2">
    <g>
      <path d="M54.39,27.06h-1.85c.65-1.39.79-2.94.39-4.44-.21-.78-.56-1.5-1.02-2.14.32-.66.15-1.48-.45-1.93l-.51-.39s-.03-.02-.04-.03c-.61-.46-1.44-.4-1.98.08-1.04-.39-2.14-.5-3.2-.36.15-2.6-.32-4.56-1.42-5.9,1.01-.74,1.9-1.62,2.68-2.66,2.65-3.87,1.7-5.71.43-6.58-.58-.39-1.62-.82-2.96-.17-.38-1.71-1.43-2.33-2.42-2.5-.77-.13-1.51.03-2.13.47-.37.26-.69.63-.98,1.09-1.06-1.04-2.18-.98-2.85-.79-1.09.3-1.84,1.12-2.1,2.31-.22,1.03-.11,2.36.37,4.1.39,1.19.94,2.31,1.64,3.33-.23.14-.46.3-.67.48-1.04.9-1.85,2.27-2.43,4.13-.68-.83-1.59-1.48-2.66-1.83-1.49-.49-3.07-.36-4.46.34-1.39.71-2.43,1.91-2.91,3.4-.17.53.11,1.09.64,1.26.53.17,1.09-.12,1.26-.64.66-2.02,2.83-3.12,4.85-2.46,1.8.59,2.91,2.43,2.6,4.3,0,0,0,0,0,.01-.04.2-.09.4-.17.6-.15.39-.03.83.28,1.11.32.27.77.32,1.14.12.6-.33,1.28-.41,1.94-.22.66.19,1.2.62,1.53,1.21.14.24.21.51.26.78-.55.26-1.12.5-1.7.7-1.78.65-3.32,1.77-4.53,3.21h-1.25l2.55-2.08c.43-.35.49-.98.14-1.41-.35-.43-.98-.49-1.41-.14l-2.75,2.24.9-5.12c.09-.54-.27-1.06-.81-1.16-.55-.09-1.06.27-1.16.81l-1.2,6.85h-.5l-7.56-13.69c-.83-1.5-2.72-2.04-4.22-1.22-.73.4-1.25,1.06-1.48,1.86s-.13,1.64.27,2.36l1.49,2.69c-.71.3-1.22.66-1.58,1.04-.84-1.47-2.03-2.74-3.48-3.65-.47-.3-1.08-.16-1.38.31-.3.47-.16,1.08.31,1.38.74.47,1.4,1.05,1.95,1.72-.44-.04-.92-.05-1.49.02-1.94.3-3.57,1.71-4.16,3.63-.32,1.16-.4,2.37-.25,3.56H1c-.55,0-1,.45-1,1v4.67c0,.55.45,1,1,1h2.37c.98,3.27,4.49,14.9,5.33,17.39.57,1.9,1.65,4.09,4.93,4.09h28.16c3.28,0,4.36-2.19,4.92-4.06.86-2.55,4.42-14.36,5.34-17.42h2.36c.55,0,1-.45,1-1v-4.67c0-.55-.45-1-1-1ZM46.29,4.37c.98.67-.18,2.67-.93,3.76-.74.99-1.65,1.83-2.67,2.51-.03-.02-.06-.04-.1-.05.83-1.33,1.45-2.79,1.81-4.39.08-.48.13-.91.16-1.32,1.05-.94,1.54-.64,1.72-.51ZM41.07,2.15c.14-.1.28-.15.45-.15.06,0,.12,0,.18.02,1.17.2.96,2.5.75,3.79-.34,1.49-.96,2.87-1.82,4.12-.08-.02-.16-.04-.25-.05-.08-.01-.16-.02-.24-.03-.4-1.46-.54-2.96-.38-4.43.38-2.3.98-3.04,1.31-3.27ZM36.26,6.65c-.47-1.69-.44-2.62-.33-3.1.13-.58.4-.73.67-.8.22-.06.78-.19,1.46,1.04-.11.42-.2.86-.29,1.35-.17,1.58-.07,3.14.28,4.68-.04,0-.07.01-.11.02-.74-.98-1.32-2.05-1.69-3.19ZM38.66,21.39c-.91-1.63-2.67-2.48-4.43-2.31,0-.26,0-.52-.03-.78.48-2.85,1.29-4.78,2.42-5.75.85-.73,1.94-.96,3.44-.71,2.21.37,4.16,1.46,3.62,6.65-.61.31-1.18.71-1.68,1.22l-.21.21c-.85.83-1.79,1.57-2.8,2.21-.09-.26-.19-.51-.32-.75ZM36.15,25.73c2.62-.92,5.05-2.43,7.04-4.39l.22-.22c1.45-1.46,3.7-1.76,5.48-.73,1.05.6,1.8,1.58,2.11,2.75s.15,2.39-.45,3.43l-.16.28c-.04.07-.07.14-.11.21h-16.49c.71-.56,1.5-1.02,2.36-1.33ZM14.64,13.9c.53-.3,1.21-.1,1.5.43l7.03,12.73h-2.52l-6.44-11.66c-.29-.53-.1-1.21.43-1.5ZM6.04,24.06c.35-1.15,1.35-2.02,2.51-2.2,1.72-.2,2.25.29,2.72.83.03.04.05.08.07.1.08.12.18.22.29.31.03.03.07.03.11.06.02,0,.02.03.04.03.03.02.07.03.1.04.05.02.11.05.16.06.07.02.15.03.22.03.01,0,.02,0,.03,0,.05,0,.09,0,.14-.02.07-.01.14-.03.21-.06.03-.01.07-.02.1-.04.1-.05.18-.13.26-.21,0,0,.02-.01.03-.02.01-.02.02-.03.03-.05.02-.03.05-.06.07-.1.03-.04.04-.09.06-.14,0-.02.02-.04.03-.07.02-.05.05-.11.06-.16,0-.03.02-.06.03-.09.21-.56.47-1.12,1.61-1.53l3.45,6.25H5.89c-.16-1.01-.11-2.04.15-3ZM44.79,50.54c-.6,2-1.36,2.67-3.01,2.67H13.62c-1.65,0-2.41-.67-3.02-2.7-.8-2.36-3.98-12.91-5.14-16.78h44.49c-1.66,5.53-4.44,14.68-5.15,16.81ZM53.39,31.73H2v-2.67h3.05s.02,0,.02,0c0,0,.02,0,.03,0h48.29v2.67Z" style="fill: #81b19a;"/>
      <path d="M27.7,49.35c.55,0,1-.45,1-1v-9.75c0-.55-.45-1-1-1s-1,.45-1,1v9.75c0,.55.45,1,1,1Z" style="fill: #81b19a;"/>
      <path d="M36.76,49.33c.05,0,.11.01.16.01.48,0,.91-.35.99-.84l1.55-9.75c.09-.55-.28-1.06-.83-1.14-.55-.09-1.06.29-1.14.83l-1.55,9.75c-.09.55.28,1.06.83,1.14Z" style="fill: #81b19a;"/>
      <path d="M18.48,49.35c.05,0,.11,0,.16-.01.55-.09.92-.6.83-1.14l-1.55-9.75c-.09-.54-.59-.92-1.14-.83-.55.09-.92.6-.83,1.14l1.55,9.75c.08.49.5.84.99.84Z" style="fill: #81b19a;"/>
      <path d="M42.23,17.34c.48,0,.9-.35.99-.83.09-.54-.28-1.06-.82-1.15l-2.18-.37c-.54-.1-1.06.28-1.15.82-.09.54.28,1.06.82,1.15l2.18.37c.06,0,.11.01.17.01Z" style="fill: #81b19a;"/>
      <path d="M37.96,16.75l-1.61-.27c-.55-.09-1.06.28-1.15.82-.09.54.28,1.06.82,1.15l1.61.27c.06,0,.11.01.17.01.48,0,.9-.35.99-.83.09-.54-.28-1.06-.82-1.15Z" style="fill: #81b19a;"/>
    </g>
  </g>
</svg>