<?xml version="1.0" encoding="UTF-8"?>
<svg id="Calque_2" data-name="Calque 2" xmlns="http://www.w3.org/2000/svg" xmlns:xlink="http://www.w3.org/1999/xlink" viewBox="0 0 1382.43 328.63">
  <defs>
    <clipPath id="clippath">
      <rect width="1382.43" height="328.63" style="fill: none;"/>
    </clipPath>
  </defs>
  <g id="Calque_2-2" data-name="Calque 2">
    <g style="clip-path: url(#clippath);">
      <g id="Group_642" data-name="Group 642">
        <path id="Path_787" data-name="Path 787" d="M1359.72,234.53v-38.06c5.92-.63,11.51-3.06,16-6.97v-37.73c-5.17-4.44-11.76-6.88-18.58-6.87-14.27-.03-25.87,11.51-25.9,25.78-.03,13.33,10.07,24.49,23.34,25.78v37.95l-55.28-1.19v-23c10.45-1.42,17.77-11.04,16.35-21.49-1.42-10.45-11.04-17.77-21.49-16.35-10.45,1.42-17.77,11.04-16.35,21.49,1.16,8.51,7.84,15.2,16.35,16.35v22.89l-43.39,16.54-19.72-26.92h-27.63l-11.24,11.24-20.55-20.55h-42.49v-26.94l-5.27-23.11-4.44,23.67v25.4l-12.92,2.14h-55.33v-83.36l-8.33,8.33-8.06-68.03-8.05,68.03-8.33-8.33v94.42h-19.5v13.74h-34.3l-15.83,15.84-16.52-16.53h-25.83v-9.99h-26.93v8.05l-14.16,14.17-12.81-12.82-44.32-.24c25.47,57.51,84.05,90.59,145.85,89.96,71.41,1.08,134.83-45.41,152.44-113.24v107.08h269.24v-95.13l-16,7.99Z" style="fill: #41435e;"/>
        <path id="Path_788" data-name="Path 788" d="M246.68,243.56h-22.59l-24.42,28.97c-6.76.52-13.54.65-20.31.38v-37.97c16.49-1.42,28.71-15.94,27.29-32.42-1.42-16.49-15.94-28.71-32.42-27.29s-28.71,15.94-27.29,32.42c1.25,14.52,12.77,26.04,27.29,27.29v37.82c-24.09-.85-52.89-3.52-52.89-3.52v-18.31c10.45-1.42,17.77-11.05,16.35-21.5s-11.05-17.77-21.5-16.35-17.77,11.05-16.35,21.5c1.16,8.51,7.85,15.2,16.35,16.35v17.84l-42.79-3.89v-33.87c13.22-1.28,23.31-12.37,23.34-25.65,0-10.56-7.31-20.23-16.44-24.32l-23.39,46.03c3.48,2.07,7.34,3.43,11.35,4.01v33.33l-28.81-2.98-30.61,60.22h326.96l-56.35-110.86-32.76,32.76Z" style="fill: #41435e;"/>
        <path id="Path_789" data-name="Path 789" d="M501.05,220.9h-21.33v-48.46l-9.89-19.55-9.89,19.55v22.36h-8.56v-22.36l-9.89-18.55-9.88,18.55v-49.57h-8.34v-14.16l-8.33-27.49-8.33,27.49v14.16h-8.33v59.94h-62.51v138.87h250.72c-10.71-16.94-36.54-57.78-56.62-89.54h-17.6l-11.24-11.24Z" style="fill: #41435e;"/>
        <path id="Path_790" data-name="Path 790" d="M1357.15,144.91c6.81-.02,13.41,2.42,18.57,6.86v-25.11h-72.95l72.95-18.74V13.22h-110.16v148.94L1106.5,5.29v116.28c-17.79-67.91-81.66-113.81-152.89-112.76-14.05-.24-28.07,1.3-41.73,4.57,21.5,40.22,6.32,90.26-33.9,111.76-11.99,6.41-25.37,9.76-38.97,9.75-13.99,0-27.75-3.58-39.97-10.39-5.58,20.91-7.07,42.7-4.38,64.17l29.4-6.4c23.96-5.24,48.77-5.34,72.77-.29l121.57,25.5v-76.24l8.34,8.33,8.05-68.04,8.05,68.04,8.34-8.33v83.36h55.33l12.92-2.15v-25.39l4.44-23.67,5.27,23.12v22.8l203.47-46.68c3.53-10.57,13.42-17.69,24.56-17.7" style="fill: #a4d7de;"/>
        <path id="Path_791" data-name="Path 791" d="M696.68,12.33h-110.17v73.84l110.17-18.29V12.33Z" style="fill: #a4d7de;"/>
        <path id="Path_792" data-name="Path 792" d="M586.51,97.14v2.99c.18,3.65.18,7.22,0,10.73v82.82l110.17,16.47v-113.01h-110.17Z" style="fill: #a4d7de;"/>
        <path id="Path_793" data-name="Path 793" d="M172.31,0l-68.24,134.28,133.85-5.19L172.31,0Z" style="fill: #a4d7de;"/>
        <path id="Path_794" data-name="Path 794" d="M103.41,135.56l-16.17,31.8,69.35,15.65c12.17-11.16,31.08-10.35,42.25,1.82,2.41,2.63,4.34,5.68,5.68,8.99l74.86,16.89-35.01-68.9-140.96-6.24Z" style="fill: #a4d7de;"/>
        <path id="Path_795" data-name="Path 795" d="M335.78,182.8h62.51v-34.18l-62.51-2.77v36.95Z" style="fill: #a4d7de;"/>
        <path id="Path_796" data-name="Path 796" d="M586.27,97.14h-65.81l42.62-7.07,22.04-3.67c-11.11-73.15-88.24-73.18-140.07-73.18h-109.28v112.07l62.52-2.43h8.34v-14.16l8.33-27.5,8.33,27.5v14.16h49.13l-40.8,14.18v35.4l9.88-18.56,9.89,18.56v22.35h8.56v-22.35l9.88-19.56,9.89,19.55v33.79l27.92-9.26c48.92-11.98,76.73-43.49,78.87-86.11v-10.73l-.24-2.99Z" style="fill: #a4d7de;"/>
        <path id="Path_797" data-name="Path 797" d="M586.51,100.13v10.73c.18-3.5.18-7.08,0-10.73" style="fill: #a4d7de;"/>
        <path id="Path_798" data-name="Path 798" d="M1359.72,234.53l16.01-7.99v-37.04c-4.5,3.91-10.08,6.34-16.01,6.97v38.06Z" style="fill: #81b19b;"/>
        <path id="Path_799" data-name="Path 799" d="M824.05,182.26l-29.4,6.4c.98,8,2.51,15.93,4.57,23.72h-87.94l19.13,25.05,77.3.43v-1.07c.16.36.32.71.49,1.06l44.31.25,12.81,12.81,14.16-14.16v-8.05h26.94v9.99h25.83l16.52,16.52,15.83-15.83h34.29v-13.74h19.5v-18.17l-121.57-25.5c-24.01-5.06-48.81-4.96-72.78.28" style="fill: #81b19b;"/>
        <path id="Path_800" data-name="Path 800" d="M1331.24,170.82c0-2.79.46-5.57,1.35-8.21l-203.46,46.69v4.13h42.49l20.55,20.55,11.25-11.25h27.63l19.72,26.91,43.39-16.53v-22.89c-10.45-1.42-17.77-11.04-16.35-21.48,1.42-10.45,11.04-17.77,21.48-16.35s17.77,11.04,16.35,21.48c-1.15,8.51-7.84,15.2-16.35,16.35v23l55.29,1.2v-37.95c-13.22-1.27-23.31-12.37-23.34-25.65" style="fill: #81b19b;"/>
        <path id="Path_801" data-name="Path 801" d="M586.51,225.23h0l7.5,7.49,18.4-18.39h37.21l6.94,6.94h26.11l14.01-8.89h0v-2.23l-110.17-16.47v31.55Z" style="fill: #81b19b;"/>
        <path id="Path_802" data-name="Path 802" d="M80.29,181.06c9.13,4.09,16.44,13.77,16.44,24.31-.03,13.28-10.12,24.37-23.34,25.65v33.87l42.78,3.89v-17.84c-10.45-1.42-17.76-11.04-16.34-21.49,1.42-10.45,11.04-17.76,21.49-16.34,10.45,1.42,17.76,11.04,16.34,21.49-1.16,8.5-7.84,15.19-16.34,16.34v18.31s28.81,2.67,52.89,3.52v-37.83c-16.46-1.39-28.68-15.87-27.28-32.33.64-7.52,4.09-14.52,9.68-19.6l-69.35-15.64-6.96,13.7Z" style="fill: #81b19b;"/>
        <path id="Path_803" data-name="Path 803" d="M206.75,205.11c0,15.55-11.9,28.5-27.39,29.84v37.97c6.77.27,13.56.14,20.31-.38l24.42-28.97h22.58l32.77-32.76-.06-.11-74.86-16.89c1.47,3.59,2.22,7.43,2.22,11.3" style="fill: #81b19b;"/>
        <path id="Path_804" data-name="Path 804" d="M39.44,261.45l28.81,2.98v-33.33c-4.01-.58-7.87-1.94-11.35-4.01l-17.47,34.36Z" style="fill: #81b19b;"/>
        <path id="Path_805" data-name="Path 805" d="M479.72,220.9h21.33l11.25,11.24h17.58c-9.38-14.82-17.49-27.68-22.25-35.17l-27.92,9.26v14.67Z" style="fill: #81b19b;"/>
        <path id="Path_806" data-name="Path 806" d="M103.41,135.56l140.96,6.25-6.46-12.71-133.85,5.18-.65,1.28Z" style="fill: #fff;"/>
        <path id="Path_807" data-name="Path 807" d="M1375.73,107.93l-72.95,18.74h72.95v-18.74Z" style="fill: #fff;"/>
        <path id="Path_808" data-name="Path 808" d="M431.63,122.87h40.8l-40.8,14.18v-14.18Z" style="fill: #fff;"/>
        <path id="Path_809" data-name="Path 809" d="M335.78,145.85l62.51,2.77v-25.75l-62.51,2.42v20.56Z" style="fill: #fff;"/>
        <path id="Path_810" data-name="Path 810" d="M696.68,67.88l-110.17,18.29v10.96h110.17v-29.25Z" style="fill: #fff;"/>
        <path id="Path_811" data-name="Path 811" d="M563.08,90.06l-42.62,7.08h65.81c-.22-3.75-.6-7.32-1.12-10.74l-22.07,3.67Z" style="fill: #fff;"/>
        <path id="Path_812" data-name="Path 812" d="M921.62,52.26c0-13.57-3.34-26.92-9.75-38.88-56.94,13.77-98.33,57.2-112.84,111.12,12.22,6.81,25.98,10.38,39.97,10.38,45.63,0,82.62-36.99,82.62-82.62h0" style="fill: #ebebd6;"/>
      </g>
    </g>
  </g>
</svg>