<svg xmlns="http://www.w3.org/2000/svg" data-name="Calque 3" viewBox="0 0 1892.45 453.8"><path d="M1774.31 17.64h-34.57v205.8l-209.16-205.8-10.79-10.62v161.82C1492.63 76.96 1407.62 9.91 1306.93 9.91c-122.58 0-221.95 99.37-221.95 221.95 0 21.24 2.99 41.77 8.56 61.22h-141.4V16.87H799.67V443.8h306.13V325.77c35.37 75.63 112.13 128.03 201.14 128.03 100.69 0 185.7-67.05 212.86-158.93v148.79h372.65V17.64h-118.13ZM0 443.8h451.85L226.12 0 0 443.8z" class="cls-1"/><path d="M799.68 138.96c0-60.13-35.76-116.63-147.41-120.9H451.85v425.73h347.83L691.04 271.87c88.59-26.98 108.64-75.35 108.64-132.92Z" class="cls-1"/></svg>