<svg width="1728" height="3391" viewBox="0 0 1728 3391" fill="none" xmlns="http://www.w3.org/2000/svg">
<path d="M1053.63 588.453C391.098 707.127 391.098 707.127 509.084 1081.41C536.311 1172.7 -670.775 1437.43 -806.913 1483.07C-1650.96 1793.45 -743.381 2122.09 73.4439 2094.71C2641.9 2030.8 3440.58 2295.54 4620.43 2405.09C4910.86 2432.47 4901.78 2496.38 4892.71 2542.02C4892.71 2596.79 4693.04 2615.05 4420.77 2624.18C3703.78 2660.7 -2921.58 2678.96 -4763.97 2697.21C-4770.02 2697.21 -4776.08 2697.21 -4782.13 2697.21C-4788.18 2697.21 -4794.23 2697.21 -4800.28 2697.21C-4806.33 2697.21 -4815.4 2697.21 -4827.5 2697.21C-4833.56 2697.21 -4839.61 2697.21 -4845.66 2697.21C-4851.71 2697.21 -4857.76 2697.21 -4863.81 2697.21C-4869.86 2697.21 -4875.91 2697.21 -4881.96 2697.21C-4894.06 2697.21 -4903.14 2697.21 -4909.19 2697.21C-4915.24 2697.21 -4921.29 2697.21 -4927.34 2697.21C-4933.39 2697.21 -4939.44 2697.21 -4945.49 2697.21C-4957.59 2697.21 -4966.67 2697.21 -4972.72 2697.21C-4978.77 2697.21 -4984.82 2697.21 -4990.87 2697.21C-4996.92 2697.21 -5002.97 2697.21 -5009.02 2697.21C-5015.07 2697.21 -5021.12 2697.21 -5027.17 2697.21C-5039.27 2697.21 -5048.35 2697.21 -5054.4 2697.21C-5060.45 2697.21 -5066.5 2697.21 -5072.55 2697.21C-5078.6 2697.21 -5084.65 2697.21 -5090.7 2697.21C-5096.75 2697.21 -5105.83 2697.21 -5117.93 2697.21C-5123.98 2697.21 -5130.03 2697.21 -5136.08 2697.21C-5142.13 2697.21 -5148.18 2697.21 -5154.23 2697.21C-5160.28 2697.21 -5166.34 2697.21 -5172.39 2697.21C-5178.44 2697.21 -5184.49 2697.21 -5190.54 2697.21C-5202.64 2697.21 -5211.71 2697.21 -5217.76 2697.21C-5223.81 2697.21 -5229.87 2697.21 -5235.92 2697.21C-5241.97 2697.21 -5248.02 2697.21 -5254.07 2697.21C-5260.12 2697.21 -5266.17 2697.21 -5272.22 2697.21C-5278.27 2697.21 -5284.32 2697.21 -5290.37 2697.21C-5302.47 2697.21 -5311.55 2697.21 -5317.6 2697.21C-5323.65 2697.21 -5329.7 2697.21 -5335.75 2697.21C-5341.8 2697.21 -5347.85 2697.21 -5353.9 2697.21C-5359.95 2697.21 -5366 2697.21 -5372.05 2697.21C-5378.1 2697.21 -5384.15 2697.21 -5390.21 2697.21C-5396.26 2697.21 -5405.33 2697.21 -5417.43 2697.21C-5423.48 2697.21 -5429.53 2700.25 -5435.58 2706.34C-5441.64 2706.34 -5447.69 2706.34 -5453.74 2706.34C-5459.79 2706.34 -5465.84 2706.34 -5471.89 2706.34C-5477.94 2706.34 -5483.99 2706.34 -5490.04 2706.34C-5496.09 2706.34 -5502.14 2706.34 -5508.19 2706.34C-5514.24 2706.34 -5520.29 2706.34 -5526.34 2706.34C-5532.39 2706.34 -5538.44 2706.34 -5544.49 2706.34C-5550.54 2706.34 -5556.6 2706.34 -5562.65 2706.34C-5568.7 2706.34 -5574.75 2706.34 -5580.8 2706.34C-5586.85 2706.34 -5592.9 2706.34 -5598.95 2706.34C-5605 2706.34 -5611.05 2706.34 -5617.1 2706.34C-5623.15 2706.34 -5629.2 2706.34 -5635.25 2706.34C-5641.3 2706.34 -5647.35 2706.34 -5653.4 2706.34C-5653.4 2706.34 -5656.43 2706.34 -5662.48 2706.34C-5668.53 2712.42 -5674.58 2715.46 -5680.63 2715.46C-5680.63 2715.46 -5683.66 2715.46 -5689.71 2715.46C-5689.71 2715.46 -5692.73 2715.46 -5698.78 2715.46C-5704.83 2721.55 -5707.86 2724.6 -5707.86 2724.6C-5713.91 2724.6 -5716.94 2724.6 -5716.94 2724.6C-5722.99 2730.69 -5726.01 2733.73 -5726.01 2733.73C-5732.06 2733.73 -5735.09 2733.73 -5735.09 2733.73C-5735.09 2739.81 -5738.11 2742.86 -5744.16 2742.86C-5750.21 2748.94 -5753.24 2751.98 -5753.24 2751.98C-5753.24 2751.98 -5756.26 2755.03 -5762.31 2761.11C-5762.31 2761.11 -5765.34 2764.16 -5771.39 2770.24C-5771.39 2770.24 -5774.42 2773.28 -5780.47 2779.37C-5780.47 2779.37 -5783.49 2782.42 -5789.54 2788.5C-5789.54 2788.5 -5789.54 2791.54 -5789.54 2797.63C-5795.59 2797.63 -5798.62 2800.67 -5798.62 2806.75C-5804.67 2806.75 -5807.69 2806.75 -5807.69 2806.75C-5807.69 2812.84 -5810.72 2815.89 -5816.77 2815.89C-5816.77 2815.89 -5819.79 2818.93 -5825.85 2825.02C-5825.85 2825.02 -5828.87 2825.02 -5834.92 2825.02C-5834.92 2831.1 -5837.95 2834.15 -5844 2834.15C-5844 2834.15 -5847.02 2834.15 -5853.07 2834.15C-5853.07 2834.15 -5856.1 2837.19 -5862.15 2843.27C-5862.15 2843.27 -5865.17 2843.27 -5871.22 2843.27C-5877.28 2843.27 -5880.3 2843.27 -5880.3 2843.27C-5886.35 2849.36 -5892.4 2852.4 -5898.45 2852.4C-5904.5 2852.4 -5907.53 2852.4 -5907.53 2852.4C-5913.58 2852.4 -5919.63 2852.4 -5925.68 2852.4C-5931.73 2852.4 -5937.78 2852.4 -5943.83 2852.4C-5949.88 2852.4 -5952.91 2852.4 -5952.91 2852.4C-5958.96 2852.4 -5965.01 2852.4 -5971.06 2852.4C-5977.11 2858.48 -5983.16 2861.53 -5989.21 2861.53C-5995.26 2861.53 -6001.31 2861.53 -6007.36 2861.53C-6013.41 2861.53 -6016.44 2858.48 -6016.44 2852.4C-6022.49 2852.4 -6028.54 2852.4 -6034.59 2852.4C-6040.64 2852.4 -6046.69 2852.4 -6052.74 2852.4C-6058.79 2852.4 -6064.84 2852.4 -6070.89 2852.4C-6076.94 2852.4 -6079.97 2852.4 -6079.97 2852.4C-6086.02 2852.4 -6092.07 2852.4 -6098.12 2852.4C-6104.17 2852.4 -6107.2 2852.4 -6107.2 2852.4C-6113.25 2852.4 -6116.27 2852.4 -6116.27 2852.4C-6122.32 2852.4 -6125.35 2852.4 -6125.35 2852.4C-6125.35 2852.4 -6128.37 2852.4 -6134.42 2852.4C-6134.42 2858.48 -6134.42 2861.53 -6134.42 2861.53C-6134.42 2861.53 -6137.45 2861.53 -6143.5 2861.53C-6143.5 2861.53 -6143.5 2864.57 -6143.5 2870.66C-6143.5 2876.74 -6143.5 2879.79 -6143.5 2879.79C-6143.5 2885.87 -6143.5 2888.91 -6143.5 2888.91C-6143.5 2888.91 -6143.5 2891.96 -6143.5 2898.04C-6137.45 2898.04 -6134.42 2898.04 -6134.42 2898.04C-6134.42 2898.04 -6134.42 2901.09 -6134.42 2907.18C-6134.42 2907.18 -6137.45 2907.18 -6143.5 2907.18C-6143.5 2913.26 -6143.5 2916.3 -6143.5 2916.3C-6143.5 2916.3 -6146.52 2916.3 -6152.57 2916.3C-6152.57 2916.3 -6155.6 2916.3 -6161.65 2916.3C-6161.65 2922.39 -6164.68 2925.44 -6170.73 2925.44C-6170.73 2925.44 -6173.75 2925.44 -6179.8 2925.44C-6179.8 2925.44 -6182.83 2925.44 -6188.88 2925.44C-6194.93 2925.44 -6200.98 2925.44 -6207.03 2925.44C-6213.08 2925.44 -6222.16 2925.44 -6234.26 2925.44C-6240.31 2925.44 -6249.38 2922.39 -6261.48 2916.3C-6267.54 2916.3 -6276.61 2916.3 -6288.71 2916.3C-6294.76 2916.3 -6300.81 2916.3 -6306.86 2916.3C-6318.97 2916.3 -6328.04 2913.26 -6334.09 2907.18C-6340.14 2907.18 -6346.19 2907.18 -6352.24 2907.18C-6364.34 2907.18 -6373.42 2904.13 -6379.47 2898.04C-6391.57 2898.04 -6400.65 2898.04 -6406.7 2898.04C-6418.8 2898.04 -6430.9 2895 -6443 2888.91C-6449.05 2888.91 -6455.1 2888.91 -6461.15 2888.91C-6467.2 2888.91 -6473.25 2885.87 -6479.3 2879.79C-6485.36 2879.79 -6491.41 2879.79 -6497.46 2879.79C-6503.51 2879.79 -6509.56 2879.79 -6515.61 2879.79C-6521.66 2873.7 -6527.71 2870.66 -6533.76 2870.66C-6539.81 2870.66 -6545.86 2870.66 -6551.91 2870.66C-6564.01 2864.57 -6573.09 2861.53 -6579.14 2861.53C-6585.19 2861.53 -6591.24 2861.53 -6597.29 2861.53C-6609.39 2855.45 -6618.47 2852.4 -6624.52 2852.4C-6636.62 2852.4 -6645.7 2849.36 -6651.75 2843.27C-6663.85 2843.27 -6672.92 2843.27 -6678.97 2843.27C-6691.07 2837.19 -6700.15 2834.15 -6706.2 2834.15C-6718.3 2834.15 -6730.4 2831.1 -6742.5 2825.02C-6748.55 2825.02 -6757.63 2825.02 -6769.73 2825.02C-6781.83 2818.93 -6793.93 2815.89 -6806.03 2815.89C-6818.14 2809.8 -6830.24 2806.75 -6842.34 2806.75C-6848.39 2806.75 -6857.46 2803.72 -6869.57 2797.63C-6881.67 2797.63 -6893.77 2797.63 -6905.87 2797.63C-6917.97 2797.63 -6930.07 2794.59 -6942.17 2788.5C-6954.27 2788.5 -6966.37 2788.5 -6978.48 2788.5C-6990.58 2788.5 -6999.65 2788.5 -7005.7 2788.5C-7017.8 2782.42 -7029.9 2779.37 -7042.01 2779.37C-7054.11 2779.37 -7063.18 2779.37 -7069.23 2779.37C-7081.33 2779.37 -7093.44 2779.37 -7105.54 2779.37C-7111.59 2779.37 -7120.66 2779.37 -7132.76 2779.37C-7144.87 2779.37 -7153.94 2779.37 -7159.99 2779.37C-7172.09 2779.37 -7184.19 2779.37 -7196.3 2779.37C-7202.35 2779.37 -7211.42 2779.37 -7223.52 2779.37C-7235.62 2779.37 -7244.7 2779.37 -7250.75 2779.37C-7262.85 2779.37 -7271.93 2779.37 -7277.98 2779.37C-7290.08 2779.37 -7302.18 2779.37 -7314.28 2779.37C-7320.33 2779.37 -7329.41 2779.37 -7341.51 2779.37C-7347.56 2779.37 -7356.64 2779.37 -7368.74 2779.37C-7374.79 2779.37 -7383.86 2779.37 -7395.96 2779.37C-7402.01 2779.37 -7411.09 2776.33 -7423.19 2770.24C-7429.24 2770.24 -7438.32 2770.24 -7450.42 2770.24C-7456.47 2770.24 -7465.55 2770.24 -7477.65 2770.24C-7483.7 2770.24 -7492.77 2770.24 -7504.87 2770.24C-7510.92 2770.24 -7516.97 2770.24 -7523.02 2770.24C-7535.13 2770.24 -7544.2 2770.24 -7550.25 2770.24C-7562.35 2770.24 -7571.43 2770.24 -7577.48 2770.24C-7583.53 2770.24 -7592.61 2770.24 -7604.71 2770.24C-7610.76 2770.24 -7616.81 2770.24 -7622.86 2770.24C-7634.96 2764.16 -7644.04 2761.11 -7650.09 2761.11C-7662.19 2761.11 -7671.26 2761.11 -7677.31 2761.11C-7683.36 2761.11 -7692.44 2761.11 -7704.54 2761.11C-7710.59 2761.11 -7716.64 2761.11 -7722.69 2761.11C-7728.74 2761.11 -7737.82 2761.11 -7749.92 2761.11C-7755.97 2761.11 -7762.02 2761.11 -7768.07 2761.11C-7774.12 2761.11 -7780.17 2758.07 -7786.22 2751.98C-7792.27 2751.98 -7798.32 2751.98 -7804.38 2751.98C-7810.43 2751.98 -7816.48 2751.98 -7822.53 2751.98C-7834.63 2751.98 -7846.73 2751.98 -7858.83 2751.98C-7870.93 2751.98 -7883.03 2751.98 -7895.13 2751.98C-7907.23 2745.9 -7919.34 2742.86 -7931.44 2742.86C-7937.49 2742.86 -7946.56 2742.86 -7958.67 2742.86C-7970.77 2742.86 -7979.84 2742.86 -7985.89 2742.86C-7997.99 2742.86 -8010.09 2739.81 -8022.2 2733.73C-8028.25 2733.73 -8037.32 2733.73 -8049.42 2733.73C-8055.47 2733.73 -8064.55 2733.73 -8076.65 2733.73C-8082.7 2733.73 -8091.78 2733.73 -8103.88 2733.73C-8109.93 2733.73 -8119 2733.73 -8131.11 2733.73C-8137.16 2733.73 -8146.23 2733.73 -8158.33 2733.73C-8164.38 2733.73 -8170.43 2733.73 -8176.49 2733.73C-8188.59 2733.73 -8197.66 2733.73 -8203.71 2733.73C-8209.76 2733.73 -8218.84 2733.73 -8230.94 2733.73C-8236.99 2733.73 -8243.04 2733.73 -8249.09 2733.73C-8255.14 2733.73 -8264.22 2733.73 -8276.32 2733.73C-8282.37 2733.73 -8288.42 2733.73 -8294.47 2733.73C-8300.52 2733.73 -8306.57 2733.73 -8312.62 2733.73C-8324.72 2733.73 -8333.8 2733.73 -8339.85 2733.73C-8345.9 2733.73 -8351.95 2733.73 -8358 2733.73C-8364.05 2733.73 -8370.1 2733.73 -8376.15 2733.73C-10354.7 2761.11 -9537.86 2806.75 -9537.86 2806.75C-10263.9 2834.14 -11325.8 2815.89 -12079.1 2879.79C-12714.4 2934.56 -11697.9 2898.04 -10009.8 2898.04C-9074.99 2888.92 -8757.34 2998.47 -8430.61 2998.47C-8424.56 2998.47 -8421.53 2998.47 -8421.53 2998.47C-8415.48 2998.47 -8412.46 2998.47 -8412.46 2998.47C-8412.46 2998.47 -8409.43 3001.5 -8403.38 3007.59C-8391.28 3007.59 -8379.18 3007.59 -8367.08 3007.59C-8361.03 3007.59 -8354.98 3007.59 -8348.93 3007.59C-8336.82 3007.59 -8327.75 3007.59 -8321.7 3007.59C-8309.6 3007.59 -8297.5 3007.59 -8285.4 3007.59C-8279.34 3007.59 -8273.29 3007.59 -8267.24 3007.59C-8261.19 3007.59 -8255.14 3007.59 -8249.09 3007.59C-8243.04 3007.59 -8236.99 3007.59 -8230.94 3007.59C-8224.89 3007.59 -8215.81 3007.59 -8203.71 3007.59C-8197.66 3007.59 -8191.61 3007.59 -8185.56 3007.59C-8173.46 3007.59 -8164.38 3007.59 -8158.33 3007.59C-8146.23 3007.59 -8137.16 3007.59 -8131.11 3007.59C-8119 3007.59 -8106.9 3007.59 -8094.8 3007.59C-8082.7 3013.68 -8073.63 3016.72 -8067.57 3016.72C-8061.52 3016.72 -8055.47 3016.72 -8049.42 3016.72C-8043.37 3016.72 -8037.32 3016.72 -8031.27 3016.72C-8019.17 3016.72 -8010.09 3016.72 -8004.04 3016.72C-7997.99 3016.72 -7991.94 3019.77 -7985.89 3025.85C-7979.84 3025.85 -7973.79 3025.85 -7967.74 3025.85C-7961.69 3025.85 -7952.61 3025.85 -7940.51 3025.85C-7934.46 3025.85 -7928.41 3025.85 -7922.36 3025.85C-7916.31 3031.94 -7907.23 3034.98 -7895.13 3034.98C-7889.08 3034.98 -7880.01 3034.98 -7867.91 3034.98C-7861.86 3034.98 -7852.78 3034.98 -7840.68 3034.98C-7828.58 3034.98 -7819.5 3038.02 -7813.45 3044.11C-7801.35 3044.11 -7789.25 3044.11 -7777.15 3044.11C-7771.1 3044.11 -7765.05 3044.11 -7759 3044.11C-7752.95 3044.11 -7746.9 3044.11 -7740.85 3044.11C-7734.79 3044.11 -7728.74 3044.11 -7722.69 3044.11C-7716.64 3044.11 -7707.57 3044.11 -7695.47 3044.11C-7689.42 3044.11 -7683.36 3047.15 -7677.31 3053.23C-7671.26 3053.23 -7665.21 3053.23 -7659.16 3053.23C-7653.11 3053.23 -7647.06 3053.23 -7641.01 3053.23C-7628.91 3053.23 -7619.83 3053.23 -7613.78 3053.23C-7607.73 3053.23 -7601.68 3053.23 -7595.63 3053.23C-7589.58 3053.23 -7580.51 3053.23 -7568.4 3053.23C-7562.35 3053.23 -7556.3 3053.23 -7550.25 3053.23C-7544.2 3053.23 -7535.13 3053.23 -7523.02 3053.23C-7516.97 3059.32 -7510.92 3062.37 -7504.87 3062.37C-7492.77 3062.37 -7483.7 3062.37 -7477.65 3062.37C-7471.6 3062.37 -7462.52 3062.37 -7450.42 3062.37C-7444.37 3062.37 -7435.29 3062.37 -7423.19 3062.37C-7417.14 3062.37 -7408.06 3062.37 -7395.96 3062.37C-7389.91 3062.37 -7380.84 3062.37 -7368.74 3062.37C-7356.64 3062.37 -7347.56 3062.37 -7341.51 3062.37C-7329.41 3062.37 -7317.31 3065.41 -7305.21 3071.49C-7299.15 3071.49 -7290.08 3071.49 -7277.98 3071.49C-7265.88 3071.49 -7253.78 3071.49 -7241.67 3071.49C-7229.57 3071.49 -7217.47 3071.49 -7205.37 3071.49C-7199.32 3071.49 -7193.27 3071.49 -7187.22 3071.49C-7181.17 3071.49 -7175.12 3071.49 -7169.07 3071.49C-7163.02 3071.49 -7156.97 3071.49 -7150.92 3071.49C-7144.87 3071.49 -7138.82 3071.49 -7132.76 3071.49C-7126.71 3071.49 -7120.66 3071.49 -7114.61 3071.49C-7108.56 3071.49 -7102.51 3071.49 -7096.46 3071.49C-7090.41 3071.49 -7084.36 3071.49 -7078.31 3071.49C-7072.26 3071.49 -7063.18 3074.53 -7051.08 3080.62C-7045.03 3080.62 -7038.98 3080.62 -7032.93 3080.62C-7026.88 3080.62 -7017.8 3080.62 -7005.7 3080.62C-6999.65 3080.62 -6993.6 3080.62 -6987.55 3080.62C-6975.45 3086.7 -6966.37 3089.75 -6960.32 3089.75C-6948.22 3089.75 -6939.15 3089.75 -6933.1 3089.75C-6920.99 3095.84 -6911.92 3098.88 -6905.87 3098.88C-6893.77 3098.88 -6881.67 3101.93 -6869.57 3108.01C-6863.52 3108.01 -6854.44 3108.01 -6842.34 3108.01C-6836.29 3114.1 -6827.21 3117.14 -6815.11 3117.14C-6809.06 3123.22 -6799.98 3126.27 -6787.88 3126.27C-6775.78 3126.27 -6766.71 3129.31 -6760.66 3135.4C-6748.55 3135.4 -6736.45 3135.4 -6724.35 3135.4C-6718.3 3141.48 -6709.23 3144.52 -6697.12 3144.52C-6691.07 3150.61 -6682 3153.65 -6669.9 3153.65C-6657.8 3159.74 -6648.72 3162.78 -6642.67 3162.78C-6630.57 3162.78 -6618.47 3165.82 -6606.37 3171.91C-6600.32 3171.91 -6591.24 3174.95 -6579.14 3181.04C-6567.04 3181.04 -6554.94 3184.08 -6542.84 3190.16C-6536.78 3190.16 -6527.71 3193.22 -6515.61 3199.3C-6503.51 3199.3 -6491.41 3199.3 -6479.3 3199.3C-6473.25 3205.39 -6467.2 3208.43 -6461.15 3208.43C-6455.1 3208.43 -6449.05 3208.43 -6443 3208.43C-6436.95 3214.51 -6430.9 3217.55 -6424.85 3217.55C-6418.8 3217.55 -6412.75 3217.55 -6406.7 3217.55C-6400.65 3217.55 -6394.6 3220.6 -6388.55 3226.68C-6382.5 3226.68 -6376.45 3226.68 -6370.4 3226.68C-6364.34 3226.68 -6358.29 3229.73 -6352.24 3235.81C-6346.19 3235.81 -6337.12 3235.81 -6325.02 3235.81C-6318.97 3235.81 -6312.91 3235.81 -6306.86 3235.81C-6300.81 3241.9 -6294.76 3244.94 -6288.71 3244.94C-6282.66 3244.94 -6276.61 3244.94 -6270.56 3244.94C-6264.51 3251.03 -6258.46 3254.07 -6252.41 3254.07C-6240.31 3254.07 -6231.23 3254.07 -6225.18 3254.07C-6219.13 3254.07 -6213.08 3257.11 -6207.03 3263.2C-6200.98 3263.2 -6194.93 3263.2 -6188.88 3263.2C-6182.83 3263.2 -6176.78 3263.2 -6170.73 3263.2C-6164.68 3269.28 -6158.63 3272.33 -6152.57 3272.33C-6140.47 3272.33 -6131.4 3272.33 -6125.35 3272.33C-6119.3 3272.33 -6113.25 3275.37 -6107.2 3281.45C-6101.15 3281.45 -6095.09 3281.45 -6089.04 3281.45C-6082.99 3281.45 -6073.92 3281.45 -6061.82 3281.45C-6055.77 3281.45 -6049.72 3284.5 -6043.66 3290.59C-6037.61 3290.59 -6028.54 3290.59 -6016.44 3290.59C-6010.39 3290.59 -6004.34 3290.59 -5998.29 3290.59C-5992.23 3290.59 -5983.16 3293.63 -5971.06 3299.72C-5965.01 3299.72 -5958.96 3299.72 -5952.91 3299.72C-5940.81 3299.72 -5931.73 3299.72 -5925.68 3299.72C-5919.63 3299.72 -5910.55 3302.75 -5898.45 3308.84C-5892.4 3308.84 -5886.35 3308.84 -5880.3 3308.84C-5874.25 3308.84 -5868.2 3308.84 -5862.15 3308.84C-5850.05 3308.84 -5840.97 3308.84 -5834.92 3308.84C-5828.87 3308.84 -5819.8 3311.89 -5807.69 3317.97C-5801.64 3317.97 -5795.59 3317.97 -5789.54 3317.97C-5783.49 3317.97 -5774.42 3317.97 -5762.31 3317.97C-5756.26 3317.97 -5750.21 3317.97 -5744.16 3317.97C-5732.06 3317.97 -5722.99 3321.01 -5716.94 3327.1C-5710.88 3327.1 -5701.81 3327.1 -5689.71 3327.1C-5683.66 3327.1 -5677.61 3327.1 -5671.56 3327.1C-5659.46 3327.1 -5650.38 3327.1 -5644.33 3327.1C-5638.28 3327.1 -5632.23 3330.15 -5626.18 3336.23C-5614.08 3336.23 -5605 3336.23 -5598.95 3336.23C-5592.9 3336.23 -5586.85 3336.23 -5580.8 3336.23C-5568.7 3336.23 -5559.62 3336.23 -5553.57 3336.23C-5547.52 3336.23 -5541.47 3339.27 -5535.42 3345.36C-5529.37 3345.36 -5523.32 3345.36 -5517.27 3345.36C-5511.22 3345.36 -5505.17 3345.36 -5499.11 3345.36C-5480.96 3345.36 -5465.84 3345.36 -5453.74 3345.36C-5441.64 3351.44 -5429.53 3354.48 -5417.43 3354.48C-5411.38 3354.48 -5402.31 3354.48 -5390.21 3354.48C-5378.1 3354.48 -5369.03 3357.53 -5362.98 3363.61C-5350.88 3363.61 -5338.78 3363.61 -5326.67 3363.61C-5320.62 3363.61 -5314.57 3363.61 -5308.52 3363.61C-5296.42 3363.61 -5287.35 3363.61 -5281.3 3363.61C-5275.25 3369.7 -5266.17 3372.74 -5254.07 3372.74C-5248.02 3372.74 -5241.97 3372.74 -5235.92 3372.74C-5223.82 3372.74 -5211.71 3372.74 -5199.61 3372.74C-5193.56 3372.74 -5184.49 3375.79 -5172.39 3381.88C-5160.28 3381.88 -5151.21 3381.88 -5145.16 3381.88C-5139.11 3381.88 -5133.06 3381.88 -5127.01 3381.88C-5120.96 3381.88 -5114.91 3381.88 -5108.85 3381.88C-5096.75 3381.88 -5084.65 3384.91 -5072.55 3391C-5066.5 3391 -5060.45 3391 -5054.4 3391C-5042.3 3391 -5033.22 3391 -5027.17 3391C-5021.12 3391 -5012.05 3391 -4999.94 3391C-4993.89 3391 -4987.84 3391 -4981.79 3391C-4975.74 3391 -4969.69 3391 -4963.64 3391C-4963.64 3391 -4960.62 3391 -4954.57 3391C-4954.57 3391 -4951.54 3391 -4945.49 3391C-4945.49 3391 -4942.46 3391 -4936.41 3391C-4936.41 3384.91 -4933.39 3381.88 -4927.34 3381.88C-4927.34 3381.88 -4924.31 3381.88 -4918.26 3381.88C-4918.26 3381.88 -4915.24 3381.88 -4909.19 3381.88C-4909.19 3381.88 -4909.19 3378.83 -4909.19 3372.74C-4903.14 3372.74 -4900.11 3372.74 -4900.11 3372.74C-4894.06 3372.74 -4891.03 3372.74 -4891.03 3372.74C-4891.03 3366.66 -4891.03 3363.61 -4891.03 3363.61C-4891.03 3363.61 -4888.01 3363.61 -4881.96 3363.61C-4881.96 3357.53 -4881.96 3354.48 -4881.96 3354.48C-4881.96 3348.4 -4878.93 3345.36 -4872.88 3345.36C-4872.88 3339.27 -4869.86 3336.23 -4863.81 3336.23C-4863.81 3336.23 -4863.81 3333.18 -4863.81 3327.1C-4863.81 3327.1 -4863.81 3324.06 -4863.81 3317.97C-4857.76 3311.89 -4854.73 3308.84 -4854.73 3308.84C-4854.73 3302.75 -4854.73 3299.72 -4854.73 3299.72C-4854.73 3293.63 -4854.73 3290.59 -4854.73 3290.59C-4854.73 3290.59 -4854.73 3287.54 -4854.73 3281.45C-4854.73 3281.45 -4854.73 3278.42 -4854.73 3272.33C-4854.73 3272.33 -4854.73 3269.28 -4854.73 3263.2C-4854.73 3263.2 -4854.73 3260.15 -4854.73 3254.07C-4854.73 3254.07 -4854.73 3251.03 -4854.73 3244.94C-4860.78 3244.94 -4863.81 3244.94 -4863.81 3244.94C-4863.81 3238.86 -4863.81 3235.81 -4863.81 3235.81C-4863.81 3235.81 -4863.81 3232.77 -4863.81 3226.68C-4863.81 3226.68 -4866.83 3226.68 -4872.88 3226.68C-4872.88 3220.6 -4872.88 3217.55 -4872.88 3217.55C-4872.88 3217.55 -4875.91 3214.51 -4881.96 3208.43C-4881.96 3208.43 -4881.96 3205.39 -4881.96 3199.3C-4888.01 3199.3 -4891.03 3199.3 -4891.03 3199.3C-4891.03 3193.22 -4891.03 3190.16 -4891.03 3190.16C-4891.03 3190.16 -4894.06 3190.16 -4900.11 3190.16C-4900.11 3184.08 -4900.11 3181.04 -4900.11 3181.04C-4906.16 3181.04 -4909.19 3177.99 -4909.19 3171.91C-4909.19 3171.91 -4912.21 3171.91 -4918.26 3171.91C-4918.26 3165.82 -4918.26 3162.78 -4918.26 3162.78C-4924.31 3156.7 -4927.34 3153.65 -4927.34 3153.65C-4933.39 3153.65 -4936.41 3150.61 -4936.41 3144.52C-4942.46 3144.52 -4945.49 3141.48 -4945.49 3135.4C-4951.54 3135.4 -4954.57 3135.4 -4954.57 3135.4C-4960.62 3129.31 -4963.64 3126.27 -4963.64 3126.27C-4969.69 3120.18 -4972.72 3117.14 -4972.72 3117.14C-4978.77 3111.05 -4981.79 3108.01 -4981.79 3108.01C-4987.84 3108.01 -4990.87 3104.97 -4990.87 3098.88C-4996.92 3098.88 -4999.94 3095.84 -4999.94 3089.75C-5005.99 3089.75 -5009.02 3086.7 -5009.02 3080.62C-5015.07 3080.62 -5018.1 3080.62 -5018.1 3080.62C-5018.1 3074.53 -5021.12 3071.49 -5027.17 3071.49C-5027.17 3071.49 -5027.17 3068.45 -5027.17 3062.37C-5027.17 3062.37 -5030.2 3062.37 -5036.25 3062.37C-5036.25 3056.28 -5036.25 3053.23 -5036.25 3053.23C-5036.25 3047.15 -5036.25 3044.11 -5036.25 3044.11C-5030.2 3044.11 -5027.17 3044.11 -5027.17 3044.11C-5021.12 3044.11 -5018.1 3044.11 -5018.1 3044.11C-5018.1 3044.11 -5015.07 3041.06 -5009.02 3034.98C-5002.97 3034.98 -4999.94 3034.98 -4999.94 3034.98C-4999.94 3034.98 -4996.92 3034.98 -4990.87 3034.98C-4984.82 3034.98 -4981.79 3034.98 -4981.79 3034.98C-4981.79 3034.98 -4978.77 3034.98 -4972.72 3034.98C-4972.72 3028.89 -4972.72 3025.85 -4972.72 3025.85C-4966.67 3025.85 -4963.64 3025.85 -4963.64 3025.85C-4963.64 3025.85 -4960.62 3025.85 -4954.57 3025.85C-4948.51 3025.85 -4945.49 3025.85 -4945.49 3025.85C-4939.44 3025.85 -4936.41 3025.85 -4936.41 3025.85C-4936.41 3025.85 -4933.39 3025.85 -4927.34 3025.85C-4927.34 3025.85 -4924.31 3025.85 -4918.26 3025.85C-4918.26 3025.85 -4915.24 3025.85 -4909.19 3025.85C-4909.19 3025.85 -4906.16 3025.85 -4900.11 3025.85C-4900.11 3025.85 -4897.09 3025.85 -4891.03 3025.85C-4884.98 3025.85 -4881.96 3025.85 -4881.96 3025.85C-4875.91 3025.85 -4872.88 3025.85 -4872.88 3025.85C-4866.83 3025.85 -4863.81 3025.85 -4863.81 3025.85C-4857.76 3019.77 -4851.71 3016.72 -4845.66 3016.72C-4845.66 3016.72 -4842.63 3016.72 -4836.58 3016.72C-4836.58 3016.72 -4833.56 3016.72 -4827.5 3016.72C-4821.45 3016.72 -4818.43 3016.72 -4818.43 3016.72C-4812.38 3016.72 -4806.33 3016.72 -4800.28 3016.72C-4800.28 3016.72 -4797.25 3016.72 -4791.2 3016.72C-4785.15 3016.72 -4782.13 3016.72 -4782.13 3016.72C-4776.08 3016.72 -4773.05 3016.72 -4773.05 3016.72C-4767 3016.72 -4760.95 3016.72 -4754.9 3016.72C-4754.9 3016.72 -4751.87 3016.72 -4745.82 3016.72C-4739.77 3016.72 -4736.75 3016.72 -4736.75 3016.72C-4730.7 3016.72 -4724.64 3016.72 -4718.59 3016.72C-4712.54 3016.72 -4709.52 3016.72 -4709.52 3016.72C-4703.47 3016.72 -4697.42 3016.72 -4691.37 3016.72C-4685.32 3016.72 -4682.29 3016.72 -4682.29 3016.72C-4676.24 3016.72 -4670.19 3016.72 -4664.14 3016.72C-4658.09 3016.72 -4652.04 3016.72 -4645.99 3016.72C-4645.99 3016.72 -4642.96 3016.72 -4636.91 3016.72C-4630.86 3016.72 -4624.81 3016.72 -4618.76 3016.72C-4612.71 3016.72 -4606.66 3016.72 -4600.61 3016.72C-4594.56 3016.72 -4588.51 3016.72 -4582.46 3016.72C-4576.41 3016.72 -4570.36 3016.72 -4564.31 3016.72C-4558.26 3016.72 -4552.2 3016.72 -4546.15 3016.72C-4540.1 3016.72 -4534.05 3016.72 -4528 3016.72C-4521.95 3016.72 -4515.9 3016.72 -4509.85 3016.72C-4503.8 3016.72 -4497.75 3016.72 -4491.7 3016.72C-4485.65 3016.72 -4479.6 3016.72 -4473.55 3016.72C-4467.5 3016.72 -4461.45 3016.72 -4455.4 3016.72C-4449.34 3016.72 -4443.29 3016.72 -4437.24 3016.72C-4425.14 3016.72 -4416.07 3016.72 -4410.02 3016.72C-4403.97 3016.72 -4397.92 3016.72 -4391.86 3016.72C-4385.81 3016.72 -4379.76 3016.72 -4373.71 3016.72C-4361.61 3016.72 -4352.54 3016.72 -4346.49 3016.72C-4340.43 3016.72 -4334.38 3016.72 -4328.33 3016.72C-4322.28 3016.72 -4313.21 3016.72 -4301.11 3016.72C-4295.06 3016.72 -4289.01 3016.72 -4282.96 3016.72C-2340.73 3016.72 4230.17 3016.72 4883.63 3007.59C5164.98 2998.46 5455.41 2989.34 5754.91 2971.08C5909.2 2952.82 6054.42 2943.69 6245.01 2898.04C6290.39 2888.92 6344.84 2879.78 6408.37 2852.4C6435.6 2834.14 6471.9 2825.02 6508.21 2797.63C6544.51 2770.24 6589.89 2724.59 6617.12 2669.82C6644.34 2615.05 6626.19 2551.15 6608.04 2505.5C6517.28 2295.54 6235.93 2167.74 6090.72 2149.49C5827.52 2131.23 5872.9 2085.58 5718.61 2049.06C5564.32 2012.55 5273.89 1948.65 4556.9 1903C3132 1811.71 1652.64 1620.01 1552.8 1610.88C1452.97 1610.88 1452.97 1565.23 1516.5 1483.07C1688.94 1291.37 1670.79 1364.4 1752.47 1337.02C2324.25 1108.8 1271.45 980.994 1443.9 871.448C1770.63 643.227 2197.19 387.619 1888.61 341.975C1362.21 268.944 1017.33 177.66 1552.8 415.009C1670.79 460.653 1271.45 551.937 1053.63 588.453Z" fill="#D9EBF4"/>
</svg>
