<svg width="507" height="67" viewBox="0 0 507 67" fill="none" xmlns="http://www.w3.org/2000/svg">
<path fill-rule="evenodd" clip-rule="evenodd" d="M110.666 46.6576L110.832 66.97H170.595V46.9428C148.477 47.3848 133.893 23.3248 133.893 23.3248C133.893 23.3248 122.615 9.72793 107.575 3.76149C102.047 1.48857 93.9003 0 87.8329 0C81.7655 0 74.2132 1.51559 69.0313 3.54051C41.6355 14.4088 26.6731 67.476 0 66.9429L5.0059 66.9701H65.1741L65.1609 46.6577C66.7711 35.7901 77.133 27.2896 88.0628 27.5107C99.6563 27.4002 109.154 36.7835 110.666 46.6576Z" fill="#26383F"/>
<path fill-rule="evenodd" clip-rule="evenodd" d="M276.261 46.6576L276.427 66.97H336.297V46.9428C314.18 47.3848 299.596 23.3248 299.596 23.3248C299.596 23.3248 288.21 9.72793 273.17 3.76149C267.641 1.48857 259.495 0 253.428 0C247.36 0 239.808 1.51559 234.626 3.54051C219.586 9.50707 208.2 23.3249 208.2 23.3249C208.2 23.3249 192.712 47.385 170.595 46.9429V66.9701H230.769L230.756 46.6577C232.366 35.7901 242.728 27.2896 253.657 27.5107C265.251 27.4002 274.748 36.7836 276.26 46.6577L276.261 46.6576Z" fill="#26383F"/>
<path fill-rule="evenodd" clip-rule="evenodd" d="M441.963 46.6576L442.129 66.97H501.999L506.999 66.9428C480.927 67.4638 466.089 14.5587 438.872 3.76149C433.343 1.48857 425.197 0 419.13 0C413.062 0 405.51 1.51559 400.328 3.54051C385.288 9.50707 373.902 23.3249 373.902 23.3249C373.902 23.3249 358.415 47.385 336.297 46.9429V66.9701H396.471L396.458 46.6577C398.068 35.7901 408.43 27.2896 419.36 27.5107C430.953 27.4002 440.451 36.7835 441.963 46.6576Z" fill="#26383F"/>
</svg>
