<svg width="150" height="25" viewBox="0 0 150 25" fill="none" xmlns="http://www.w3.org/2000/svg">
<path d="M105.738 2.59101C100.48 3.53291 100.48 3.53291 101.416 6.50353C101.632 7.22807 92.0525 9.32923 90.9721 9.6915C84.2736 12.1549 91.4762 14.7633 97.9586 14.5459C118.342 14.0388 124.681 16.1399 134.044 17.0094C136.349 17.2268 136.277 17.7339 136.205 18.0962C136.205 18.5309 134.62 18.6758 132.459 18.7483C126.769 19.0381 74.1899 19.183 59.5685 19.328C59.5205 19.328 59.4724 19.328 59.4244 19.328C59.3764 19.328 59.3284 19.328 59.2804 19.328C59.2324 19.328 59.1603 19.328 59.0643 19.328C59.0163 19.328 58.9683 19.328 58.9202 19.328C58.8722 19.328 58.8242 19.328 58.7762 19.328C58.7282 19.328 58.6801 19.328 58.6321 19.328C58.5361 19.328 58.4641 19.328 58.4161 19.328C58.368 19.328 58.32 19.328 58.272 19.328C58.224 19.328 58.176 19.328 58.1279 19.328C58.0319 19.328 57.9599 19.328 57.9119 19.328C57.8638 19.328 57.8158 19.328 57.7678 19.328C57.7198 19.328 57.6718 19.328 57.6238 19.328C57.5757 19.328 57.5277 19.328 57.4797 19.328C57.3837 19.328 57.3116 19.328 57.2636 19.328C57.2156 19.328 57.1676 19.328 57.1196 19.328C57.0716 19.328 57.0235 19.328 56.9755 19.328C56.9275 19.328 56.8555 19.328 56.7594 19.328C56.7114 19.328 56.6634 19.328 56.6154 19.328C56.5674 19.328 56.5194 19.328 56.4713 19.328C56.4233 19.328 56.3753 19.328 56.3273 19.328C56.2793 19.328 56.2312 19.328 56.1832 19.328C56.0872 19.328 56.0152 19.328 55.9672 19.328C55.9191 19.328 55.8711 19.328 55.8231 19.328C55.7751 19.328 55.7271 19.328 55.679 19.328C55.631 19.328 55.583 19.328 55.535 19.328C55.487 19.328 55.439 19.328 55.3909 19.328C55.2949 19.328 55.2229 19.328 55.1749 19.328C55.1268 19.328 55.0788 19.328 55.0308 19.328C54.9828 19.328 54.9348 19.328 54.8868 19.328C54.8387 19.328 54.7907 19.328 54.7427 19.328C54.6947 19.328 54.6467 19.328 54.5986 19.328C54.5506 19.328 54.4786 19.328 54.3826 19.328C54.3345 19.328 54.2865 19.3521 54.2385 19.4004C54.1905 19.4004 54.1425 19.4004 54.0945 19.4004C54.0464 19.4004 53.9984 19.4004 53.9504 19.4004C53.9024 19.4004 53.8544 19.4004 53.8064 19.4004C53.7583 19.4004 53.7103 19.4004 53.6623 19.4004C53.6143 19.4004 53.5663 19.4004 53.5182 19.4004C53.4702 19.4004 53.4222 19.4004 53.3742 19.4004C53.3262 19.4004 53.2782 19.4004 53.2301 19.4004C53.1821 19.4004 53.1341 19.4004 53.0861 19.4004C53.0381 19.4004 52.99 19.4004 52.942 19.4004C52.894 19.4004 52.846 19.4004 52.798 19.4004C52.75 19.4004 52.7019 19.4004 52.6539 19.4004C52.6059 19.4004 52.5579 19.4004 52.5099 19.4004C52.5099 19.4004 52.4859 19.4004 52.4378 19.4004C52.3898 19.4487 52.3418 19.4728 52.2938 19.4728C52.2938 19.4728 52.2698 19.4728 52.2218 19.4728C52.2218 19.4728 52.1978 19.4728 52.1497 19.4728C52.1017 19.5211 52.0777 19.5453 52.0777 19.5453C52.0297 19.5453 52.0057 19.5453 52.0057 19.5453C51.9577 19.5936 51.9337 19.6177 51.9337 19.6177C51.8856 19.6177 51.8616 19.6177 51.8616 19.6177C51.8616 19.666 51.8376 19.6902 51.7896 19.6902C51.7416 19.7385 51.7176 19.7626 51.7176 19.7626C51.7176 19.7626 51.6936 19.7868 51.6456 19.8351C51.6456 19.8351 51.6215 19.8593 51.5735 19.9076C51.5735 19.9076 51.5495 19.9317 51.5015 19.98C51.5015 19.98 51.4775 20.0042 51.4295 20.0525C51.4295 20.0525 51.4295 20.0766 51.4295 20.1249C51.3815 20.1249 51.3574 20.1491 51.3574 20.1974C51.3094 20.1974 51.2854 20.1974 51.2854 20.1974C51.2854 20.2457 51.2614 20.2698 51.2134 20.2698C51.2134 20.2698 51.1894 20.294 51.1414 20.3423C51.1414 20.3423 51.1174 20.3423 51.0693 20.3423C51.0693 20.3906 51.0453 20.4148 50.9973 20.4148C50.9973 20.4148 50.9733 20.4148 50.9253 20.4148C50.9253 20.4148 50.9013 20.4389 50.8533 20.4872C50.8533 20.4872 50.8293 20.4872 50.7812 20.4872C50.7332 20.4872 50.7092 20.4872 50.7092 20.4872C50.6612 20.5355 50.6132 20.5596 50.5652 20.5596C50.5171 20.5596 50.4931 20.5596 50.4931 20.5596C50.4451 20.5596 50.3971 20.5596 50.3491 20.5596C50.3011 20.5596 50.253 20.5596 50.205 20.5596C50.157 20.5596 50.133 20.5596 50.133 20.5596C50.085 20.5596 50.037 20.5596 49.9889 20.5596C49.9409 20.6079 49.8929 20.6321 49.8449 20.6321C49.7969 20.6321 49.7489 20.6321 49.7008 20.6321C49.6528 20.6321 49.6288 20.6079 49.6288 20.5596C49.5808 20.5596 49.5328 20.5596 49.4848 20.5596C49.4367 20.5596 49.3887 20.5596 49.3407 20.5596C49.2927 20.5596 49.2447 20.5596 49.1967 20.5596C49.1486 20.5596 49.1246 20.5596 49.1246 20.5596C49.0766 20.5596 49.0286 20.5596 48.9806 20.5596C48.9326 20.5596 48.9086 20.5596 48.9086 20.5596C48.8605 20.5596 48.8365 20.5596 48.8365 20.5596C48.7885 20.5596 48.7645 20.5596 48.7645 20.5596C48.7645 20.5596 48.7405 20.5596 48.6925 20.5596C48.6925 20.6079 48.6925 20.6321 48.6925 20.6321C48.6925 20.6321 48.6685 20.6321 48.6204 20.6321C48.6204 20.6321 48.6204 20.6563 48.6204 20.7046C48.6204 20.7529 48.6204 20.777 48.6204 20.777C48.6204 20.8253 48.6204 20.8494 48.6204 20.8494C48.6204 20.8494 48.6204 20.8736 48.6204 20.9219C48.6685 20.9219 48.6925 20.9219 48.6925 20.9219C48.6925 20.9219 48.6925 20.9461 48.6925 20.9944C48.6925 20.9944 48.6685 20.9944 48.6204 20.9944C48.6204 21.0427 48.6204 21.0668 48.6204 21.0668C48.6204 21.0668 48.5964 21.0668 48.5484 21.0668C48.5484 21.0668 48.5244 21.0668 48.4764 21.0668C48.4764 21.1151 48.4524 21.1393 48.4044 21.1393C48.4044 21.1393 48.3804 21.1393 48.3323 21.1393C48.3323 21.1393 48.3083 21.1393 48.2603 21.1393C48.2123 21.1393 48.1643 21.1393 48.1163 21.1393C48.0682 21.1393 47.9962 21.1393 47.9002 21.1393C47.8522 21.1393 47.7801 21.1151 47.6841 21.0668C47.6361 21.0668 47.5641 21.0668 47.468 21.0668C47.42 21.0668 47.372 21.0668 47.324 21.0668C47.2279 21.0668 47.1559 21.0427 47.1079 20.9944C47.0599 20.9944 47.0119 20.9944 46.9638 20.9944C46.8678 20.9944 46.7958 20.9702 46.7477 20.9219C46.6517 20.9219 46.5797 20.9219 46.5317 20.9219C46.4356 20.9219 46.3396 20.8977 46.2436 20.8494C46.1955 20.8494 46.1475 20.8494 46.0995 20.8494C46.0515 20.8494 46.0035 20.8253 45.9555 20.777C45.9074 20.777 45.8594 20.777 45.8114 20.777C45.7634 20.777 45.7154 20.777 45.6674 20.777C45.6193 20.7287 45.5713 20.7046 45.5233 20.7046C45.4753 20.7046 45.4273 20.7046 45.3792 20.7046C45.2832 20.6563 45.2112 20.6321 45.1632 20.6321C45.1152 20.6321 45.0671 20.6321 45.0191 20.6321C44.9231 20.5838 44.8511 20.5596 44.803 20.5596C44.707 20.5596 44.635 20.5355 44.587 20.4872C44.4909 20.4872 44.4189 20.4872 44.3709 20.4872C44.2748 20.4389 44.2028 20.4148 44.1548 20.4148C44.0588 20.4148 43.9627 20.3906 43.8667 20.3423C43.8187 20.3423 43.7466 20.3423 43.6506 20.3423C43.5546 20.294 43.4585 20.2698 43.3625 20.2698C43.2665 20.2215 43.1704 20.1974 43.0744 20.1974C43.0264 20.1974 42.9543 20.1732 42.8583 20.1249C42.7623 20.1249 42.6662 20.1249 42.5702 20.1249C42.4742 20.1249 42.3781 20.1008 42.2821 20.0525C42.1861 20.0525 42.09 20.0525 41.994 20.0525C41.898 20.0525 41.8259 20.0525 41.7779 20.0525C41.6819 20.0042 41.5858 19.98 41.4898 19.98C41.3938 19.98 41.3218 19.98 41.2737 19.98C41.1777 19.98 41.0817 19.98 40.9856 19.98C40.9376 19.98 40.8656 19.98 40.7695 19.98C40.6735 19.98 40.6015 19.98 40.5535 19.98C40.4574 19.98 40.3614 19.98 40.2654 19.98C40.2173 19.98 40.1453 19.98 40.0493 19.98C39.9532 19.98 39.8812 19.98 39.8332 19.98C39.7372 19.98 39.6651 19.98 39.6171 19.98C39.5211 19.98 39.425 19.98 39.329 19.98C39.281 19.98 39.209 19.98 39.1129 19.98C39.0649 19.98 38.9929 19.98 38.8969 19.98C38.8488 19.98 38.7768 19.98 38.6808 19.98C38.6328 19.98 38.5607 19.9559 38.4647 19.9076C38.4167 19.9076 38.3447 19.9076 38.2486 19.9076C38.2006 19.9076 38.1286 19.9076 38.0325 19.9076C37.9845 19.9076 37.9125 19.9076 37.8165 19.9076C37.7684 19.9076 37.7204 19.9076 37.6724 19.9076C37.5764 19.9076 37.5043 19.9076 37.4563 19.9076C37.3603 19.9076 37.2883 19.9076 37.2402 19.9076C37.1922 19.9076 37.1202 19.9076 37.0242 19.9076C36.9761 19.9076 36.9281 19.9076 36.8801 19.9076C36.7841 19.8593 36.712 19.8351 36.664 19.8351C36.568 19.8351 36.496 19.8351 36.448 19.8351C36.3999 19.8351 36.3279 19.8351 36.2319 19.8351C36.1839 19.8351 36.1358 19.8351 36.0878 19.8351C36.0398 19.8351 35.9678 19.8351 35.8717 19.8351C35.8237 19.8351 35.7757 19.8351 35.7277 19.8351C35.6797 19.8351 35.6317 19.8109 35.5836 19.7626C35.5356 19.7626 35.4876 19.7626 35.4396 19.7626C35.3916 19.7626 35.3435 19.7626 35.2955 19.7626C35.1995 19.7626 35.1035 19.7626 35.0074 19.7626C34.9114 19.7626 34.8154 19.7626 34.7193 19.7626C34.6233 19.7143 34.5272 19.6902 34.4312 19.6902C34.3832 19.6902 34.3112 19.6902 34.2151 19.6902C34.1191 19.6902 34.0471 19.6902 33.9991 19.6902C33.903 19.6902 33.807 19.666 33.7109 19.6177C33.6629 19.6177 33.5909 19.6177 33.4949 19.6177C33.4468 19.6177 33.3748 19.6177 33.2788 19.6177C33.2308 19.6177 33.1587 19.6177 33.0627 19.6177C33.0147 19.6177 32.9427 19.6177 32.8466 19.6177C32.7986 19.6177 32.7266 19.6177 32.6305 19.6177C32.5825 19.6177 32.5345 19.6177 32.4865 19.6177C32.3905 19.6177 32.3184 19.6177 32.2704 19.6177C32.2224 19.6177 32.1504 19.6177 32.0543 19.6177C32.0063 19.6177 31.9583 19.6177 31.9103 19.6177C31.8623 19.6177 31.7902 19.6177 31.6942 19.6177C31.6462 19.6177 31.5982 19.6177 31.5501 19.6177C31.5021 19.6177 31.4541 19.6177 31.4061 19.6177C31.3101 19.6177 31.238 19.6177 31.19 19.6177C31.142 19.6177 31.094 19.6177 31.046 19.6177C30.9979 19.6177 30.9499 19.6177 30.9019 19.6177C15.2001 19.8351 21.6825 20.1974 21.6825 20.1974C15.9204 20.4147 7.49327 20.2698 1.51507 20.777C-3.52679 21.2117 4.54018 20.9219 17.9371 20.9219C25.3559 20.8495 27.8768 21.7189 30.4697 21.7189C30.5178 21.7189 30.5418 21.7189 30.5418 21.7189C30.5898 21.7189 30.6138 21.7189 30.6138 21.7189C30.6138 21.7189 30.6378 21.7431 30.6858 21.7914C30.7819 21.7914 30.8779 21.7914 30.9739 21.7914C31.022 21.7914 31.07 21.7914 31.118 21.7914C31.214 21.7914 31.286 21.7914 31.3341 21.7914C31.4301 21.7914 31.5261 21.7914 31.6222 21.7914C31.6702 21.7914 31.7182 21.7914 31.7662 21.7914C31.8142 21.7914 31.8623 21.7914 31.9103 21.7914C31.9583 21.7914 32.0063 21.7914 32.0543 21.7914C32.1023 21.7914 32.1744 21.7914 32.2704 21.7914C32.3184 21.7914 32.3664 21.7914 32.4145 21.7914C32.5105 21.7914 32.5825 21.7914 32.6305 21.7914C32.7266 21.7914 32.7986 21.7914 32.8466 21.7914C32.9427 21.7914 33.0387 21.7914 33.1347 21.7914C33.2308 21.8397 33.3028 21.8638 33.3508 21.8638C33.3988 21.8638 33.4468 21.8638 33.4949 21.8638C33.5429 21.8638 33.5909 21.8638 33.6389 21.8638C33.735 21.8638 33.807 21.8638 33.855 21.8638C33.903 21.8638 33.951 21.888 33.9991 21.9363C34.0471 21.9363 34.0951 21.9363 34.1431 21.9363C34.1911 21.9363 34.2631 21.9363 34.3592 21.9363C34.4072 21.9363 34.4552 21.9363 34.5032 21.9363C34.5513 21.9846 34.6233 22.0087 34.7193 22.0087C34.7673 22.0087 34.8394 22.0087 34.9354 22.0087C34.9834 22.0087 35.0554 22.0087 35.1515 22.0087C35.2475 22.0087 35.3195 22.0329 35.3676 22.0812C35.4636 22.0812 35.5596 22.0812 35.6557 22.0812C35.7037 22.0812 35.7517 22.0812 35.7997 22.0812C35.8477 22.0812 35.8958 22.0812 35.9438 22.0812C35.9918 22.0812 36.0398 22.0812 36.0878 22.0812C36.1358 22.0812 36.2079 22.0812 36.3039 22.0812C36.3519 22.0812 36.3999 22.1053 36.448 22.1536C36.496 22.1536 36.544 22.1536 36.592 22.1536C36.64 22.1536 36.688 22.1536 36.7361 22.1536C36.8321 22.1536 36.9041 22.1536 36.9521 22.1536C37.0002 22.1536 37.0482 22.1536 37.0962 22.1536C37.1442 22.1536 37.2162 22.1536 37.3123 22.1536C37.3603 22.1536 37.4083 22.1536 37.4563 22.1536C37.5043 22.1536 37.5764 22.1536 37.6724 22.1536C37.7204 22.2019 37.7684 22.2261 37.8165 22.2261C37.9125 22.2261 37.9845 22.2261 38.0325 22.2261C38.0806 22.2261 38.1526 22.2261 38.2486 22.2261C38.2966 22.2261 38.3687 22.2261 38.4647 22.2261C38.5127 22.2261 38.5847 22.2261 38.6808 22.2261C38.7288 22.2261 38.8008 22.2261 38.8969 22.2261C38.9929 22.2261 39.0649 22.2261 39.1129 22.2261C39.209 22.2261 39.305 22.2503 39.401 22.2986C39.4491 22.2986 39.5211 22.2986 39.6171 22.2986C39.7132 22.2986 39.8092 22.2986 39.9052 22.2986C40.0013 22.2986 40.0973 22.2986 40.1933 22.2986C40.2414 22.2986 40.2894 22.2986 40.3374 22.2986C40.3854 22.2986 40.4334 22.2986 40.4814 22.2986C40.5295 22.2986 40.5775 22.2986 40.6255 22.2986C40.6735 22.2986 40.7215 22.2986 40.7695 22.2986C40.8176 22.2986 40.8656 22.2986 40.9136 22.2986C40.9616 22.2986 41.0096 22.2986 41.0577 22.2986C41.1057 22.2986 41.1537 22.2986 41.2017 22.2986C41.2497 22.2986 41.3217 22.3227 41.4178 22.371C41.4658 22.371 41.5138 22.371 41.5618 22.371C41.6099 22.371 41.6819 22.371 41.7779 22.371C41.8259 22.371 41.874 22.371 41.922 22.371C42.018 22.4193 42.09 22.4435 42.1381 22.4435C42.2341 22.4435 42.3061 22.4435 42.3541 22.4435C42.4502 22.4918 42.5222 22.5159 42.5702 22.5159C42.6662 22.5159 42.7623 22.5401 42.8583 22.5884C42.9063 22.5884 42.9784 22.5884 43.0744 22.5884C43.1224 22.6367 43.1944 22.6608 43.2905 22.6608C43.3385 22.7091 43.4105 22.7333 43.5066 22.7333C43.6026 22.7333 43.6746 22.7575 43.7226 22.8058C43.8187 22.8058 43.9147 22.8058 44.0107 22.8058C44.0588 22.8541 44.1308 22.8782 44.2268 22.8782C44.2748 22.9265 44.3469 22.9506 44.4429 22.9506C44.5389 22.9989 44.611 23.0231 44.659 23.0231C44.755 23.0231 44.8511 23.0472 44.9471 23.0955C44.9951 23.0955 45.0671 23.1197 45.1632 23.168C45.2592 23.168 45.3552 23.1921 45.4513 23.2404C45.4993 23.2404 45.5713 23.2646 45.6674 23.3129C45.7634 23.3129 45.8594 23.3129 45.9555 23.3129C46.0035 23.3613 46.0515 23.3854 46.0995 23.3854C46.1475 23.3854 46.1955 23.3854 46.2436 23.3854C46.2916 23.4337 46.3396 23.4578 46.3876 23.4578C46.4356 23.4578 46.4837 23.4578 46.5317 23.4578C46.5797 23.4578 46.6277 23.482 46.6757 23.5303C46.7237 23.5303 46.7718 23.5303 46.8198 23.5303C46.8678 23.5303 46.9158 23.5544 46.9638 23.6027C47.0119 23.6027 47.0839 23.6027 47.1799 23.6027C47.2279 23.6027 47.2759 23.6027 47.324 23.6027C47.372 23.651 47.42 23.6752 47.468 23.6752C47.516 23.6752 47.5641 23.6752 47.6121 23.6752C47.6601 23.7235 47.7081 23.7476 47.7561 23.7476C47.8522 23.7476 47.9242 23.7476 47.9722 23.7476C48.0202 23.7476 48.0682 23.7718 48.1163 23.8201C48.1643 23.8201 48.2123 23.8201 48.2603 23.8201C48.3083 23.8201 48.3563 23.8201 48.4044 23.8201C48.4524 23.8684 48.5004 23.8926 48.5484 23.8926C48.6445 23.8926 48.7165 23.8926 48.7645 23.8926C48.8125 23.8926 48.8605 23.9167 48.9086 23.965C48.9566 23.965 49.0046 23.965 49.0526 23.965C49.1006 23.965 49.1726 23.965 49.2687 23.965C49.3167 23.965 49.3647 23.9892 49.4127 24.0375C49.4608 24.0375 49.5328 24.0375 49.6288 24.0375C49.6768 24.0375 49.7249 24.0375 49.7729 24.0375C49.8209 24.0375 49.8929 24.0616 49.9889 24.1099C50.037 24.1099 50.085 24.1099 50.133 24.1099C50.229 24.1099 50.3011 24.1099 50.3491 24.1099C50.3971 24.1099 50.4691 24.134 50.5652 24.1824C50.6132 24.1824 50.6612 24.1824 50.7092 24.1824C50.7572 24.1824 50.8053 24.1824 50.8533 24.1824C50.9493 24.1824 51.0213 24.1824 51.0693 24.1824C51.1174 24.1824 51.1894 24.2065 51.2854 24.2548C51.3334 24.2548 51.3815 24.2548 51.4295 24.2548C51.4775 24.2548 51.5495 24.2548 51.6456 24.2548C51.6936 24.2548 51.7416 24.2548 51.7896 24.2548C51.8856 24.2548 51.9577 24.2789 52.0057 24.3272C52.0537 24.3272 52.1257 24.3272 52.2218 24.3272C52.2698 24.3272 52.3178 24.3272 52.3658 24.3272C52.4619 24.3272 52.5339 24.3272 52.5819 24.3272C52.6299 24.3272 52.6779 24.3515 52.726 24.3998C52.822 24.3998 52.894 24.3998 52.942 24.3998C52.99 24.3998 53.0381 24.3998 53.0861 24.3998C53.1821 24.3998 53.2541 24.3998 53.3022 24.3998C53.3502 24.3998 53.3982 24.4239 53.4462 24.4722C53.4942 24.4722 53.5423 24.4722 53.5903 24.4722C53.6383 24.4722 53.6863 24.4722 53.7343 24.4722C53.8784 24.4722 53.9984 24.4722 54.0945 24.4722C54.1905 24.5205 54.2865 24.5446 54.3826 24.5446C54.4306 24.5446 54.5026 24.5446 54.5986 24.5446C54.6947 24.5446 54.7667 24.5688 54.8147 24.6171C54.9108 24.6171 55.0068 24.6171 55.1028 24.6171C55.1508 24.6171 55.1989 24.6171 55.2469 24.6171C55.3429 24.6171 55.4149 24.6171 55.463 24.6171C55.511 24.6654 55.583 24.6895 55.679 24.6895C55.7271 24.6895 55.7751 24.6895 55.8231 24.6895C55.9191 24.6895 56.0152 24.6895 56.1112 24.6895C56.1592 24.6895 56.2312 24.7137 56.3273 24.762C56.4233 24.762 56.4953 24.762 56.5434 24.762C56.5914 24.762 56.6394 24.762 56.6874 24.762C56.7354 24.762 56.7835 24.762 56.8315 24.762C56.9275 24.762 57.0235 24.7861 57.1196 24.8344C57.1676 24.8344 57.2156 24.8344 57.2636 24.8344C57.3597 24.8344 57.4317 24.8344 57.4797 24.8344C57.5277 24.8344 57.5998 24.8344 57.6958 24.8344C57.7438 24.8344 57.7918 24.8344 57.8398 24.8344C57.8879 24.8344 57.9359 24.8344 57.9839 24.8344C57.9839 24.8344 58.0079 24.8344 58.0559 24.8344C58.0559 24.8344 58.0799 24.8344 58.1279 24.8344C58.1279 24.8344 58.152 24.8344 58.2 24.8344C58.2 24.7861 58.224 24.762 58.272 24.762C58.272 24.762 58.296 24.762 58.344 24.762C58.344 24.762 58.368 24.762 58.4161 24.762C58.4161 24.762 58.4161 24.7378 58.4161 24.6895C58.4641 24.6895 58.4881 24.6895 58.4881 24.6895C58.5361 24.6895 58.5601 24.6895 58.5601 24.6895C58.5601 24.6412 58.5601 24.6171 58.5601 24.6171C58.5601 24.6171 58.5841 24.6171 58.6321 24.6171C58.6321 24.5688 58.6321 24.5446 58.6321 24.5446C58.6321 24.4963 58.6561 24.4722 58.7042 24.4722C58.7042 24.4239 58.7282 24.3998 58.7762 24.3998C58.7762 24.3998 58.7762 24.3755 58.7762 24.3272C58.7762 24.3272 58.7762 24.3031 58.7762 24.2548C58.8242 24.2065 58.8482 24.1824 58.8482 24.1824C58.8482 24.134 58.8482 24.1099 58.8482 24.1099C58.8482 24.0616 58.8482 24.0375 58.8482 24.0375C58.8482 24.0375 58.8482 24.0133 58.8482 23.965C58.8482 23.965 58.8482 23.9409 58.8482 23.8926C58.8482 23.8926 58.8482 23.8684 58.8482 23.8201C58.8482 23.8201 58.8482 23.7959 58.8482 23.7476C58.8482 23.7476 58.8482 23.7235 58.8482 23.6752C58.8002 23.6752 58.7762 23.6752 58.7762 23.6752C58.7762 23.6269 58.7762 23.6027 58.7762 23.6027C58.7762 23.6027 58.7762 23.5786 58.7762 23.5303C58.7762 23.5303 58.7522 23.5303 58.7042 23.5303C58.7042 23.482 58.7042 23.4578 58.7042 23.4578C58.7042 23.4578 58.6801 23.4337 58.6321 23.3854C58.6321 23.3854 58.6321 23.3613 58.6321 23.3129C58.5841 23.3129 58.5601 23.3129 58.5601 23.3129C58.5601 23.2646 58.5601 23.2404 58.5601 23.2404C58.5601 23.2404 58.5361 23.2404 58.4881 23.2404C58.4881 23.1921 58.4881 23.168 58.4881 23.168C58.4401 23.168 58.4161 23.1438 58.4161 23.0955C58.4161 23.0955 58.392 23.0955 58.344 23.0955C58.344 23.0472 58.344 23.0231 58.344 23.0231C58.296 22.9748 58.272 22.9506 58.272 22.9506C58.224 22.9506 58.2 22.9265 58.2 22.8782C58.152 22.8782 58.1279 22.8541 58.1279 22.8058C58.0799 22.8058 58.0559 22.8058 58.0559 22.8058C58.0079 22.7575 57.9839 22.7333 57.9839 22.7333C57.9359 22.685 57.9119 22.6608 57.9119 22.6608C57.8638 22.6125 57.8398 22.5884 57.8398 22.5884C57.7918 22.5884 57.7678 22.5642 57.7678 22.5159C57.7198 22.5159 57.6958 22.4918 57.6958 22.4435C57.6478 22.4435 57.6238 22.4193 57.6238 22.371C57.5757 22.371 57.5517 22.371 57.5517 22.371C57.5517 22.3227 57.5277 22.2986 57.4797 22.2986C57.4797 22.2986 57.4797 22.2744 57.4797 22.2261C57.4797 22.2261 57.4557 22.2261 57.4077 22.2261C57.4077 22.1778 57.4077 22.1536 57.4077 22.1536C57.4077 22.1053 57.4077 22.0812 57.4077 22.0812C57.4557 22.0812 57.4797 22.0812 57.4797 22.0812C57.5277 22.0812 57.5517 22.0812 57.5517 22.0812C57.5517 22.0812 57.5757 22.057 57.6238 22.0087C57.6718 22.0087 57.6958 22.0087 57.6958 22.0087C57.6958 22.0087 57.7198 22.0087 57.7678 22.0087C57.8158 22.0087 57.8398 22.0087 57.8398 22.0087C57.8398 22.0087 57.8638 22.0087 57.9119 22.0087C57.9119 21.9604 57.9119 21.9363 57.9119 21.9363C57.9599 21.9363 57.9839 21.9363 57.9839 21.9363C57.9839 21.9363 58.0079 21.9363 58.0559 21.9363C58.1039 21.9363 58.1279 21.9363 58.1279 21.9363C58.176 21.9363 58.2 21.9363 58.2 21.9363C58.2 21.9363 58.224 21.9363 58.272 21.9363C58.272 21.9363 58.296 21.9363 58.344 21.9363C58.344 21.9363 58.368 21.9363 58.4161 21.9363C58.4161 21.9363 58.4401 21.9363 58.4881 21.9363C58.4881 21.9363 58.5121 21.9363 58.5601 21.9363C58.6081 21.9363 58.6321 21.9363 58.6321 21.9363C58.6801 21.9363 58.7042 21.9363 58.7042 21.9363C58.7522 21.9363 58.7762 21.9363 58.7762 21.9363C58.8242 21.888 58.8722 21.8638 58.9202 21.8638C58.9202 21.8638 58.9442 21.8638 58.9923 21.8638C58.9923 21.8638 59.0163 21.8638 59.0643 21.8638C59.1123 21.8638 59.1363 21.8638 59.1363 21.8638C59.1843 21.8638 59.2324 21.8638 59.2804 21.8638C59.2804 21.8638 59.3044 21.8638 59.3524 21.8638C59.4004 21.8638 59.4244 21.8638 59.4244 21.8638C59.4724 21.8638 59.4965 21.8638 59.4965 21.8638C59.5445 21.8638 59.5925 21.8638 59.6405 21.8638C59.6405 21.8638 59.6645 21.8638 59.7125 21.8638C59.7605 21.8638 59.7846 21.8638 59.7846 21.8638C59.8326 21.8638 59.8806 21.8638 59.9286 21.8638C59.9766 21.8638 60.0006 21.8638 60.0006 21.8638C60.0487 21.8638 60.0967 21.8638 60.1447 21.8638C60.1927 21.8638 60.2167 21.8638 60.2167 21.8638C60.2647 21.8638 60.3128 21.8638 60.3608 21.8638C60.4088 21.8638 60.4568 21.8638 60.5048 21.8638C60.5048 21.8638 60.5288 21.8638 60.5769 21.8638C60.6249 21.8638 60.6729 21.8638 60.7209 21.8638C60.7689 21.8638 60.8169 21.8638 60.865 21.8638C60.913 21.8638 60.961 21.8638 61.009 21.8638C61.057 21.8638 61.105 21.8638 61.1531 21.8638C61.2011 21.8638 61.2491 21.8638 61.2971 21.8638C61.3451 21.8638 61.3932 21.8638 61.4412 21.8638C61.4892 21.8638 61.5372 21.8638 61.5852 21.8638C61.6332 21.8638 61.6813 21.8638 61.7293 21.8638C61.7773 21.8638 61.8253 21.8638 61.8733 21.8638C61.9213 21.8638 61.9694 21.8638 62.0174 21.8638C62.0654 21.8638 62.1134 21.8638 62.1614 21.8638C62.2575 21.8638 62.3295 21.8638 62.3775 21.8638C62.4255 21.8638 62.4735 21.8638 62.5216 21.8638C62.5696 21.8638 62.6176 21.8638 62.6656 21.8638C62.7617 21.8638 62.8337 21.8638 62.8817 21.8638C62.9297 21.8638 62.9777 21.8638 63.0258 21.8638C63.0738 21.8638 63.1458 21.8638 63.2418 21.8638C63.2899 21.8638 63.3379 21.8638 63.3859 21.8638C78.7996 21.8638 130.947 21.8638 136.133 21.7914C138.366 21.7189 140.67 21.6465 143.047 21.5016C144.272 21.3567 145.424 21.2842 146.937 20.9219C147.297 20.8495 147.729 20.777 148.233 20.5596C148.449 20.4147 148.737 20.3423 149.025 20.1249C149.314 19.9076 149.674 19.5453 149.89 19.1105C150.106 18.6758 149.962 18.1686 149.818 17.8064C149.098 16.1399 146.865 15.1256 145.712 14.9807C143.623 14.8358 143.984 14.4735 142.759 14.1837C141.535 13.8939 139.23 13.3867 133.54 13.0244C122.232 12.2999 110.491 10.7783 109.699 10.7059C108.907 10.7059 108.907 10.3436 109.411 9.6915C110.779 8.16996 110.635 8.74963 111.284 8.53226C115.821 6.72091 107.466 5.70655 108.835 4.8371C111.428 3.02575 114.813 0.99702 112.364 0.634749C108.186 0.0551149 105.449 -0.669396 109.699 1.21441C110.635 1.57668 107.466 2.30119 105.738 2.59101Z" fill="#009EE0"/>
</svg>
