<svg width="243" height="71" viewBox="0 0 243 71" fill="none" xmlns="http://www.w3.org/2000/svg">
<path d="M49.535 24.3888L50.5003 21.8439L50.6758 21.3905L52.6649 16.1617L49.8641 6.49402C48.3649 3.99299 45.1253 3.32751 45.1253 3.32751C45.1253 3.32751 43.1874 9.79216 44.8182 14.8308C42.1782 12.8709 39.2457 12.2712 39.2457 12.2712C39.2457 12.2712 35.5088 24.7617 39.0848 33.8371L45.2423 54.445L48.7818 45.1575L52.6284 35.0657L49.535 24.3888Z" fill="#041E42"/>
<path d="M109.391 25.9169C109.391 25.9169 107.153 33.3907 109.303 38.8169L113.34 51.1173L117.275 39.3581L114.43 29.2881C112.843 26.6189 109.399 25.9169 109.399 25.9169" fill="#041E42"/>
<path d="M29.5484 4.97301C29.5484 4.97301 28.2394 9.36078 29.4972 12.5419L31.6619 19.7817L32.9051 16.5201L33.0074 16.2423L34.2506 12.9807L32.5029 6.94751C31.5668 5.38254 29.5484 4.9657 29.5484 4.9657" fill="#041E42"/>
<path d="M2.90047 30.7214C2.90047 30.7214 2.35931 32.5424 2.87853 33.8587L3.77802 36.857L4.29724 35.5114L4.34112 35.3944L4.85302 34.0415L4.12904 31.5405C3.74146 30.8969 2.90047 30.7214 2.90047 30.7214Z" fill="#041E42"/>
<path d="M21.2778 29.5005C20.3564 27.9428 18.3526 27.5333 18.3526 27.5333C18.3526 27.5333 18.1405 28.2354 17.9723 29.2738L17.7895 28.6668C17.2776 27.8039 16.1587 27.5699 16.1587 27.5699C16.1587 27.5699 15.4348 29.9978 16.1295 31.7602L17.3288 35.7604L17.987 34.0272C18.0674 34.3709 18.1625 34.7146 18.3014 35.0364L20.4368 42.2104L21.6727 38.9854L21.7824 38.7002L23.011 35.4679L21.2778 29.5005Z" fill="#041E42"/>
<path d="M126.416 19.7523C126.416 19.7523 125.144 23.9792 126.365 27.0506L128.449 34.0345L129.648 30.8899L129.758 30.612L130.957 27.4748L129.275 21.661C128.376 20.1472 126.431 19.7523 126.431 19.7523" fill="#041E42"/>
<path d="M168.129 27.3358C168.129 27.3358 167.354 29.91 168.099 31.7821L169.372 36.0236L170.096 34.1149L170.893 32.038L169.869 28.4913C169.321 27.5771 168.136 27.3358 168.136 27.3358" fill="#041E42"/>
<path d="M68.5121 21.2589C67.0495 18.7944 63.8611 18.1509 63.8611 18.1509C63.8611 18.1509 61.7915 25.0543 63.7807 30.071L65.4188 35.5557C65.7917 31.7968 67.854 28.4841 69.9089 26.0489L68.5194 21.2589" fill="#041E42"/>
<path d="M139.294 69.056L128.631 33.8808L119.088 33.8369L107.438 68.9098L117.084 68.961L119.059 62.2111L127.527 62.2477L129.341 69.0122L139.294 69.056ZM125.706 55.2785L121.099 55.2638L122.554 49.5232C123.183 47.1611 123.447 45.2451 123.556 43.9361C123.6 45.2451 123.849 47.3074 124.2 48.8723L125.706 55.2785Z" fill="#041E42"/>
<path d="M171.559 69.2097L170.747 55.0372C170.608 52.8214 170.506 51.0005 170.528 47.9802H170.476C170.052 50.9493 169.782 52.7117 169.204 54.5765L164.78 69.1731L156.977 69.1439L153.247 54.9056C152.742 52.9384 152.34 50.9785 152.099 47.8486H152.048C152.033 50.9712 152.026 52.8799 151.858 55.0957L151.075 69.1146L141.839 69.0707L145.488 33.9613L156.721 34.0125L160.143 47.9363C160.648 49.8962 160.999 51.761 161.299 54.5838H161.35C161.672 51.9219 162.088 50.2107 162.761 47.4391L166.469 34.0564L177.343 34.1076L180.459 69.2462L171.537 69.2097" fill="#041E42"/>
<path d="M214.8 69.4071L204.138 34.2245L194.594 34.1807L182.938 69.2608L192.583 69.3047L194.565 62.5549L203.026 62.5914L204.847 69.3632L214.793 69.4071M201.22 55.6295L196.605 55.6076L198.075 49.8669C198.697 47.5048 198.967 45.5962 199.07 44.2798C199.121 45.5962 199.362 47.6511 199.721 49.2234L201.227 55.6295H201.22Z" fill="#041E42"/>
<path d="M231.386 54.6131L231.313 69.4804L221.923 69.4365L221.989 54.7667L211.049 34.2539L222.033 34.3124L225.126 41.7789C225.887 43.6437 226.187 44.5067 226.896 46.6786C227.576 45.0186 228.198 43.4097 228.819 41.9471L231.978 34.3563L242.904 34.4075L231.379 54.6131" fill="#041E42"/>
<path d="M101.157 40.5575C96.601 24.7761 99.9868 13.7848 100.345 12.7098C98.0782 11.5251 96.4913 11.4008 96.4913 11.4008C96.4913 11.4008 92.3375 23.1673 96.9666 40.3454L106.02 68.1492L108.28 61.1507L101.157 40.5575Z" fill="#041E42"/>
<path d="M78.7499 23.7378L76.3586 15.9568C73.7405 7.92723 78.1868 4.14644 78.1868 4.14644C78.1868 4.14644 84.5929 4.53402 86.955 14.8306L91.3647 33.0911C87.7375 28.7545 82.4576 25.6026 78.7499 23.7378ZM103.007 68.8952L94.8749 39.2998C94.3557 37.5885 93.5147 35.9943 92.469 34.5244L95.2552 34.2099L89.4926 10.9621C87.0135 1.81361 77.5433 0 77.5433 0C77.5433 0 70.9324 5.69678 72.8191 14.4357L75.4152 22.2094C74.757 21.9315 74.3694 21.7926 74.3694 21.7926C74.3694 21.7926 74.0331 22.0339 73.4992 22.4873L71.532 16.8271C67.4222 10.7354 58.8806 8.90716 58.8806 8.90716C58.8806 8.90716 58.5223 10.1211 58.1055 12.1249C61.2939 13.2803 65.8791 14.7648 68.8336 19.021L70.9909 24.8421C70.6325 25.2077 70.2669 25.6172 69.9012 26.0487C67.8463 28.4839 65.7841 31.7967 65.4111 35.5555C65.2868 36.8353 65.5354 38.8902 65.8645 40.2504L67.8609 46.1227L71.4882 46.1374L70.8519 43.9362C70.0109 40.5941 69.0091 37.8664 69.5429 35.5409C69.8647 34.1076 70.1718 33.1349 70.7861 32.0234C72.5997 28.7033 75.13 27.2261 75.13 27.2261C75.13 27.2261 87.5839 31.1824 90.8089 41.8373L98.3632 68.8733L103.014 68.8952H103.007Z" fill="#041E42"/>
<path d="M2.3518 59.03L1.26949 65.6848C1.07935 66.8549 1.39381 67.0962 1.88378 67.0962C2.71745 67.0962 2.87102 66.577 3.00997 65.8311L4.11422 59.0373H5.32086L4.26779 65.4873C4.07766 66.672 3.82902 68.237 1.73752 68.2297C-0.178474 68.2151 -0.134596 66.928 0.135983 65.2899L1.15979 59.0227H2.35912" fill="#041E42"/>
<path d="M7.10481 62.7522H7.12675C7.46314 62.2549 7.87998 61.9624 8.48696 61.9624C9.68628 61.9697 9.54733 63.0374 9.40107 63.9661L8.72097 68.1418H7.59478L8.28219 63.9369C8.35532 63.5127 8.36264 62.9716 7.76297 62.9716C7.01705 62.9643 6.9293 63.8199 6.84886 64.3391L6.22726 68.1345H5.09375L6.081 62.0575H7.20719L7.0975 62.7522" fill="#041E42"/>
<path d="M15.2662 65.1363C15.3466 64.6463 15.7123 63.0082 14.864 63.0009C14.1034 63.0009 13.884 64.639 13.8036 65.1289C13.7304 65.6116 13.4087 67.2497 14.1692 67.2497C14.8786 67.257 15.0907 66.1455 15.2588 65.1363M14.2131 62.8693H14.235C14.5349 62.35 14.8713 61.9917 15.4929 61.999C16.9043 62.0063 16.5679 64.2148 16.407 65.2021C16.2461 66.2186 15.8731 68.2735 14.4398 68.2662C13.8475 68.2662 13.6354 67.9737 13.4891 67.4764H13.4599L12.9406 70.6575H11.8145L13.2039 62.0868H14.3374L14.2131 62.8693Z" fill="#041E42"/>
<path d="M19.7421 65.1435C19.8226 64.6682 20.137 63.0301 19.3765 63.0228C18.5355 63.0228 18.3673 64.6462 18.2795 65.1435C18.1991 65.6408 17.8408 67.2716 18.6744 67.2716C19.435 67.2789 19.6617 65.6262 19.7348 65.1435M19.3326 67.4105H19.3034C18.9889 67.9371 18.6964 68.2881 18.0382 68.2808C16.6268 68.2808 16.9705 66.0503 17.1314 65.0631C17.2996 64.0612 17.6653 62.0063 19.1059 62.0136C19.6324 62.0209 19.925 62.3353 20.0566 62.7887H20.0858L20.1955 62.116H21.3217L20.3345 68.193H19.201L19.3326 67.4105Z" fill="#041E42"/>
<path d="M24.4584 63.3736C24.2756 63.1762 23.9465 63.0445 23.6686 63.0445C23.2445 63.0372 22.8569 63.2785 22.7911 63.6881C22.6448 64.7192 24.5169 64.7704 24.2317 66.5035C24.0562 67.5712 23.2737 68.3025 22.1914 68.3025C21.7892 68.3025 21.5479 68.2148 21.248 68.01L21.4309 66.8984C21.6868 67.1325 21.9208 67.2933 22.3011 67.2933C22.7984 67.2933 23.1128 66.9935 23.186 66.5255C23.3615 65.4505 21.4674 65.37 21.738 63.6881C21.8989 62.7227 22.6741 62.028 23.6394 62.0353C24.0197 62.0353 24.3268 62.1012 24.6193 62.2986L24.4438 63.3736" fill="#041E42"/>
<path d="M27.7861 63.3884C27.6033 63.1909 27.2742 63.0593 27.0036 63.0593C26.5721 63.0593 26.1919 63.3006 26.1187 63.7028C25.9725 64.734 27.8519 64.7851 27.5667 66.5183C27.3912 67.5933 26.6087 68.3173 25.5264 68.3173C25.1315 68.31 24.8902 68.2295 24.583 68.0248L24.7658 66.9132C25.0145 67.1472 25.2558 67.3081 25.6434 67.3081C26.1334 67.3081 26.4551 67.0083 26.5283 66.5329C26.7038 65.4653 24.8097 65.3848 25.0803 63.7028C25.2412 62.7375 26.0163 62.0428 26.9817 62.0501C27.3692 62.0501 27.6691 62.1232 27.9616 62.3134L27.7861 63.3884Z" fill="#041E42"/>
<path d="M30.5065 61.4071L29.9654 61.0488L31.2451 59.2571L31.9691 59.7836L30.5065 61.4071ZM30.9453 64.6175C31.0258 64.1494 31.194 63.0817 30.5139 63.0744C29.7972 63.0671 29.6802 64.1421 29.5997 64.6102H30.9526L30.9453 64.6175ZM29.4681 65.4219C29.3877 65.9265 29.1317 67.3233 29.8703 67.3233C30.47 67.3306 30.6894 66.6651 30.7625 66.1971H31.8082C31.6327 67.3233 30.9673 68.3398 29.6875 68.3324C27.9909 68.3324 28.1298 66.5188 28.3346 65.2318C28.5394 63.9886 29.0001 62.0579 30.6747 62.0653C32.3275 62.0726 32.2031 64.0032 32.0057 65.2537L31.9764 65.4365L29.4681 65.4219Z" fill="#041E42"/>
<path d="M37.8858 65.2387C37.9589 64.7487 38.3246 63.1106 37.4836 63.1106C36.723 63.1106 36.511 64.7414 36.4232 65.2314C36.3428 65.714 36.0356 67.3521 36.7815 67.3594C37.4909 67.3594 37.7103 66.2479 37.8785 65.2387M36.8327 62.9717H36.8547C37.1545 62.4525 37.4909 62.1014 38.1198 62.1014C39.5312 62.1088 39.1948 64.3173 39.0339 65.3045C38.8657 66.3283 38.4928 68.3759 37.0668 68.3686C36.4744 68.3686 36.255 68.0761 36.1088 67.5788H36.0868L35.5749 70.76H34.4414L35.8382 62.1892H36.9717L36.8474 62.9717H36.8327Z" fill="#041E42"/>
<path d="M40.5476 68.288L39.4141 68.2807L41.0448 58.2913L42.1784 58.2986L40.5476 68.288Z" fill="#041E42"/>
<path d="M44.5105 64.6755C44.591 64.2148 44.7665 63.1398 44.0791 63.1398C43.3697 63.1325 43.2381 64.2002 43.165 64.6755H44.5105ZM43.0333 65.48C42.9456 65.9919 42.6969 67.3886 43.4355 67.3886C44.0352 67.3886 44.2546 66.7305 44.335 66.2624H45.3808C45.2053 67.3813 44.5398 68.4051 43.2673 68.3978C41.5634 68.3905 41.7024 66.5842 41.9145 65.2971C42.1119 64.0539 42.5726 62.1233 44.2546 62.1306C45.9 62.1379 45.7757 64.0613 45.5709 65.3118L45.5417 65.4946L43.0406 65.48H43.0333Z" fill="#041E42"/>
<path d="M47.0413 60.3974C47.1071 59.9879 47.4947 59.6442 47.9261 59.6442C48.321 59.6515 48.6135 59.9952 48.5477 60.4047C48.4819 60.8142 48.0797 61.1653 47.6775 61.1579C47.2533 61.1579 46.9754 60.8142 47.0413 60.3974ZM47.0632 68.3173H45.9297L46.9169 62.2403H48.0504L47.0559 68.3173H47.0632Z" fill="#041E42"/>
<path d="M50.12 62.9497H50.1419C50.4783 62.4597 50.9024 62.1599 51.5021 62.1599C52.7087 62.1599 52.5698 63.2349 52.4162 64.1637L51.7361 68.3393H50.6026L51.29 64.1344C51.3558 63.7103 51.3778 63.1691 50.7708 63.1691C50.0249 63.1691 49.9444 64.0174 49.864 64.5366L49.2497 68.332H48.1162L49.1108 62.2477H50.2443L50.1273 62.9497" fill="#041E42"/>
<path d="M58.1785 65.3194C58.259 64.844 58.5734 63.2059 57.8129 63.1986C56.9719 63.1986 56.8037 64.8221 56.716 65.3121C56.6355 65.824 56.2772 67.4474 57.1182 67.4474C57.8787 67.4547 58.0981 65.802 58.1785 65.3194ZM57.7763 67.5864H57.7544C57.4399 68.1129 57.1255 68.4639 56.4893 68.4566C55.0852 68.4566 55.4216 66.2189 55.5825 65.2389C55.7433 64.2297 56.1163 62.1821 57.5496 62.1894C58.1274 62.1894 58.3541 62.5039 58.5076 62.9646H58.5369L59.2828 58.3721H60.4163L58.7928 68.3762H57.6593L57.7836 67.5864H57.7763Z" fill="#041E42"/>
<path d="M61.7696 59.3008L62.8007 59.3081L62.2156 62.0285H61.4697L61.7696 59.3008Z" fill="#041E42"/>
<path d="M65.77 65.3558C65.8504 64.8731 66.1649 63.235 65.4043 63.235C64.5633 63.2277 64.3951 64.8585 64.3147 65.3485C64.2343 65.8531 63.8759 67.4839 64.7169 67.4839C65.4775 67.4912 65.6968 65.8384 65.77 65.3558ZM65.3678 67.6228H65.3385C65.0241 68.1493 64.7242 68.5004 64.0734 68.493C62.662 68.493 63.0057 66.2553 63.1666 65.268C63.3274 64.2735 63.7004 62.2185 65.1337 62.2258C65.6676 62.2258 65.9601 62.5476 66.0917 63.001H66.121L66.2307 62.3282H67.3642L66.3769 68.4053H65.2434L65.3751 67.6228H65.3678Z" fill="#041E42"/>
<path d="M69.2437 62.3425L69.3096 66.9424H69.3388L69.4339 66.5767L70.2749 64.1269L70.9403 62.3498L72.0373 62.3571L69.4412 68.4269L68.6953 68.4196L68.0371 62.3352L69.2437 62.3425Z" fill="#041E42"/>
<path d="M74.6475 64.8149C74.7206 64.3542 74.9034 63.2792 74.216 63.2792C73.5066 63.2719 73.375 64.3469 73.3019 64.8149H74.6548M73.1629 65.6193C73.0825 66.1239 72.8338 67.528 73.5651 67.528C74.1648 67.528 74.3842 66.8698 74.4646 66.4018H75.5104C75.3276 67.5207 74.6621 68.5445 73.3823 68.5372C71.6857 68.5299 71.8247 66.7236 72.0367 65.4365C72.2415 64.1933 72.6949 62.2554 74.3696 62.27C76.0296 62.27 75.9053 64.2006 75.7005 65.4511L75.6713 65.6339L73.1629 65.6193Z" fill="#041E42"/>
<path d="M78.0848 63.0741H78.1141C78.4504 62.5841 78.8673 62.2916 79.4743 62.2916C80.6736 62.2916 80.5419 63.3666 80.3884 64.2881L79.7083 68.4711H78.5821L79.2622 64.2588C79.328 63.842 79.3426 63.3008 78.743 63.3008C77.997 63.2935 77.9239 64.1491 77.8362 64.661L77.2146 68.4564H76.0811L77.0756 62.3794H78.2091L78.0921 63.0741" fill="#041E42"/>
<path d="M81.8508 60.5512C81.9166 60.149 82.3115 59.8053 82.7284 59.8053C83.1233 59.8053 83.4231 60.1563 83.35 60.5585C83.2842 60.9754 82.8819 61.3191 82.4797 61.3191C82.0556 61.3191 81.7704 60.9681 81.8435 60.5512M81.8728 68.4784H80.7393L81.7338 62.3941H82.8673L81.8728 68.4784Z" fill="#041E42"/>
<path d="M84.9217 63.1546H84.9437C85.2947 62.6281 85.7481 62.3209 86.3697 62.3283L86.1869 63.4398L85.9967 63.4252C85.1557 63.4252 84.812 63.8932 84.6877 64.6611L84.0661 68.4931H82.918L83.9052 62.4087H85.0314L84.9144 63.1546" fill="#041E42"/>
<path d="M88.7177 67.8714C88.7762 67.4911 89.1564 67.162 89.5587 67.1693C89.9536 67.1693 90.2315 67.4984 90.1656 67.8787C90.0925 68.2882 89.7195 68.61 89.3246 68.61C88.9297 68.61 88.6519 68.2809 88.7177 67.8714Z" fill="#041E42"/>
<path d="M91.1892 67.8788C91.255 67.4985 91.628 67.1768 92.0302 67.1768C92.4324 67.1768 92.6957 67.5132 92.6372 67.8934C92.564 68.3029 92.1911 68.6247 91.7962 68.6174C91.394 68.6174 91.1234 68.2956 91.1965 67.8788" fill="#041E42"/>
<path d="M93.6612 67.9007C93.7197 67.5132 94.1 67.1841 94.4949 67.1841C94.8971 67.1914 95.1677 67.5205 95.1019 67.9007C95.0361 68.3103 94.6558 68.632 94.2609 68.632C93.866 68.632 93.5954 68.303 93.6612 67.9007Z" fill="#041E42"/>
</svg>
