<svg width="115" height="117" viewBox="0 0 115 117" fill="none" xmlns="http://www.w3.org/2000/svg">
<g clip-path="url(#clip0_44_251)">
<path d="M47.2838 -0.000394555C47.6527 0.827828 48.9438 1.26899 49.4342 1.85999C49.648 2.11802 50.5618 4.23228 50.5199 4.46951L49.9247 5.05218C49.9414 5.3893 51.6056 9.67192 51.8697 10.1297C52.1589 10.625 52.6159 10.8706 52.8674 11.3367C53.5087 12.527 53.0141 14.7162 54.9214 13.58L54.1249 8.48993L54.519 8.39421C54.8585 9.41804 55.416 10.3628 55.8897 11.3284C56.0616 11.6738 56.4388 11.9194 56.5814 12.2398C56.8706 12.8974 57.0215 14.6787 57.4449 15.1781C57.7593 15.5486 58.6312 15.4986 58.7234 15.6068C58.7989 15.6984 58.7486 16.3019 58.8366 16.589C60.2535 21.1006 61.6452 25.6287 62.974 30.1652C65.6777 29.3328 68.0084 26.1656 67.3545 23.3147C67.1197 22.2867 65.1831 21.4169 65.1789 19.6772C65.1789 18.4952 66.4071 17.6462 67.497 17.5671C69.0438 17.4547 70.0247 19.1403 71.3284 19.5648C72.4937 19.9435 74.4765 19.9852 75.8472 20.2723C79.4103 21.0173 83.728 21.292 83.5016 25.9575C85.7443 26.4237 89.3325 26.9522 88.8798 30.0112C88.7876 30.6272 87.7773 32.5458 87.1695 32.7206C86.0461 33.0494 81.7159 31.6094 80.1607 31.5511C78.945 31.5054 78.9911 32.7956 79.6074 33.116C80.4876 33.578 85.8491 34.0691 86.109 34.3563C85.8616 35.0513 85.0945 36.3748 84.3484 36.5205L78.2618 35.9545C78.5636 38.4683 78.3372 41.2734 79.0624 43.6499C79.972 44.3491 80.2152 44.6695 81.3889 44.3532C84.8514 43.4251 88.3265 40.4369 90.9422 38.0562C91.6632 37.3986 94.4047 34.8807 94.7736 34.2689C95.3227 33.3533 94.5849 33.3116 94.3125 32.7123C93.8639 31.7259 94.5137 31.5844 94.5807 30.8644C94.6814 29.7532 93.8472 28.3298 95.1634 27.2602C96.6641 26.5319 96.3958 29.233 96.815 29.5243C96.9575 29.6242 97.3725 29.5451 97.6911 29.749C98.0097 29.953 98.1438 30.4524 98.3786 30.6647C99.6445 31.8217 99.2295 29.4411 99.8751 28.9499C100.148 28.7418 100.584 28.7918 100.902 28.5712C101.74 28.001 103.937 25.2292 105.341 26.3487C106.473 27.2519 104.075 28.8084 103.761 29.8239C103.556 30.4857 103.899 30.7812 103.786 31.214C103.648 31.7509 101.833 32.9745 103.317 33.5738C103.803 33.6071 104.7 32.8122 105.325 32.8413C105.563 32.8538 105.832 33.1202 106.138 33.1493C107.597 33.2825 109.349 33.1493 109.906 35.018C110.405 36.6911 107.869 35.7672 107.366 36.1376C107.089 36.3457 107.198 36.9658 106.993 37.1156C106.867 37.2072 106.477 37.1448 106.251 37.2655C105.358 37.7399 104.071 39.1383 104.448 40.2163C104.574 40.5742 105.362 40.7573 105.534 41.1569C105.706 41.5564 105.329 41.8311 105.601 42.2556C106.058 42.9631 107.073 43.0172 107.84 42.9507L107.823 43.5333C106.372 44.3199 105.27 43.6956 103.845 43.4626C103.522 43.4085 103.149 43.6332 102.755 43.5208C102.256 43.3793 101.975 42.4845 101.082 42.3597C100.709 42.3097 99.2673 42.4762 98.9277 42.5969C98.3995 42.7883 98.3576 43.4626 97.9762 43.6499C97.6408 43.8122 97.2132 43.6873 96.8569 43.937C96.4797 44.1992 96.333 45.1065 95.9766 45.4603C95.4736 45.9597 94.3334 46.0055 93.9603 47.0543C92.5561 47.1084 91.3949 48.0116 90.1877 48.7066C90.02 48.8023 89.8523 48.6483 89.9319 49.0479C93.9058 51.5201 99.1289 54.1462 103.908 54.3502C106.54 54.4625 105.35 53.9298 106.222 52.8352C107.093 51.7406 107.944 52.9268 108.787 53.0974C109.588 53.2597 110.43 53.0558 111.235 53.164C111.855 54.1129 110.208 54.7164 110.078 55.2824C110.019 55.5322 110.279 55.915 110.254 55.94C110.12 56.0815 108.037 56.377 108.456 57.8129C109.026 58.741 109.814 57.0845 110.472 57.2261C111.13 57.3676 111.168 58.2291 111.29 58.304C111.478 58.4205 112.178 58.279 112.744 58.562C113.423 58.8991 115.502 61.8916 114.878 62.3286C113.381 62.3619 111.91 59.7773 110.963 62.1246C109.743 61.388 108.624 61.6377 108.447 63.1277C109.898 62.8655 109.395 63.6729 109.856 64.2264C110.162 64.5927 111.005 64.8715 111.545 65.5457C112.057 66.1784 113.486 69.5703 111.994 69.3081C111.751 69.2665 109.567 66.8443 108.657 66.607C108.297 66.5113 107.123 68.3342 106.536 65.5333L105.115 66.5321C105.274 67.5726 105.316 67.9097 104.469 68.6256C104.423 69.1791 106.083 69.8492 105.128 70.5192C104.323 70.0115 102.021 69.3955 101.594 68.638C101.124 67.8098 101.686 66.5404 100.73 65.5998C100.143 65.0255 98.7852 64.9215 98.1019 65.3501C97.2384 65.8912 97.6282 67.7724 96.4713 67.7058C94.5514 67.5976 91.6506 63.2525 90.1583 65.6581C89.8146 66.2158 90.129 66.761 89.0475 66.7111C86.9809 66.6195 83.2082 63.0652 82.0387 63.3732C81.6572 63.4731 81.456 63.9268 80.8062 63.7062C80.3409 63.548 79.5696 61.5669 79.2217 61.3797C78.9786 61.2465 78.5258 61.3963 78.1989 61.2964C77.2934 61.0217 77.1509 59.2945 76.4551 58.6286C75.7592 57.9627 74.0783 57.4175 73.1519 57.9627C72.1248 58.9533 71.0266 59.8564 69.8696 60.6971C69.0019 61.3255 63.7411 64.6717 63.6111 65.0713C63.4686 65.5083 63.5315 66.016 63.3219 66.5821C62.9656 67.5351 62.3159 68.3759 61.9595 69.3248C69.0816 70.0323 76.497 69.7784 80.8356 76.4541C82.3027 78.635 79.4271 80.2248 78.4211 82.1726C77.0503 84.8279 77.5701 86.7757 79.884 88.5861C82.1979 90.3966 84.9604 91.4038 87.6474 90.1385C88.381 89.7931 89.5798 88.403 89.8649 88.3323C90.2883 88.2282 90.6823 88.6319 91.0344 88.6236C91.2985 88.6153 92.1704 88.0909 92.7321 87.991C93.5537 87.8453 98.0139 87.966 96.8821 89.5143C96.7479 89.6974 93.428 90.5006 92.8495 91.5078C92.5267 92.0697 92.6902 93.1684 91.789 93.4514C91.4117 93.5721 90.5272 93.3183 90.5524 93.9592L90.8584 94.5127C91.6548 94.4045 92.2207 94.1007 93.0046 94.4961C93.1178 94.5543 93.1136 94.854 93.2855 94.8915C94.4718 95.1537 95.7712 94.4628 96.9617 95.4034C97.842 96.0984 99.9673 100.439 97.7624 100.006C97.2426 99.9066 97.2971 99.3406 96.9743 98.9826C96.2198 98.1461 94.9371 98.0004 93.8723 98.0753C93.7549 100.135 90.9506 98.4457 90.9212 100.572C90.9212 100.689 91.4201 100.789 91.6297 101.093C91.9021 101.488 92.359 102.882 92.359 103.382C92.359 104.089 91.68 106.874 90.7536 105.558C89.9571 104.431 90.7703 102.986 88.5151 103.186C88.0791 102.936 88.2133 102.071 88.0833 101.917C87.966 101.784 85.8994 101.455 85.6017 100.885C85.5347 101.792 85.0149 104.622 83.6357 104.252C82.5962 103.973 83.0657 102.678 82.7932 102.275C82.4872 101.817 80.7685 101.834 82.0596 99.9815C77.8635 97.8589 73.5333 95.7863 69.0019 94.392C67.7988 94.0216 60.7649 92.4026 60.4547 92.0905C59.5618 91.1957 61.641 89.4019 62.2446 88.4821C63.6866 86.2763 64.7765 83.4836 64.7849 80.8408C62.2027 79.7795 59.3354 79.2218 56.5269 79.3134C58.1198 81.4485 58.0653 83.6293 57.4323 86.1056C56.3215 90.4382 55.4831 86.938 52.9051 86.705C53.0979 88.6278 52.2553 90.1885 50.4906 91.0001C49.451 91.4787 47.8371 91.5369 47.0155 91.9448C46.8059 92.0489 46.6257 92.1113 46.6634 92.3985C47.9796 93.4306 49.8366 102.104 50.2852 102.4C51.4799 103.186 52.8296 100.98 53.2069 100.947C53.4333 100.93 53.9782 101.459 54.4267 101.484C54.825 101.505 55.24 101.276 55.7933 101.305C56.7868 101.355 59.4318 102.316 60.2283 102.916C60.7187 103.286 60.5595 103.89 60.2535 103.89H57.0341C56.8664 103.89 55.764 104.485 55.6592 104.734C55.3448 105.488 55.7556 106.94 55.2735 107.436C54.607 108.118 52.6033 106.079 52.9093 109.084C53.5716 109.396 54.2758 108.555 54.6154 108.551C55.1477 108.547 55.2861 109.267 55.4621 109.3C55.764 109.358 56.1831 109.1 56.5814 109.134C57.7802 109.225 59.7546 110.603 60.2493 111.689C61.117 113.599 58.3629 111.839 57.8515 111.672C57.2982 111.493 55.7681 111.098 55.3238 111.385C55.1268 111.51 55.0974 111.955 54.7914 112.055C54.4184 112.176 53.8315 111.968 53.5045 112.176L53.3243 112.409C53.7602 113.083 53.0853 113.691 53.1818 114.086C53.4458 115.131 55.8226 115.726 55.6256 116.496C55.2903 117.828 52.859 116.23 52.2344 115.647C51.0187 114.515 50.587 112.38 48.6797 112.484L48.4491 113.658L47.267 113.683C47.4598 114.565 47.179 115.855 46.0597 115.181C45.913 115.093 44.4123 112.534 44.3369 112.292C44.1357 111.656 44.4165 111.285 44.4501 110.69C43.9303 110.69 43.4734 110.457 43.0542 110.174C40.7025 108.588 37.0807 102.404 36.3472 99.6527C35.9992 98.3375 36.0789 97.2929 35.7771 96.0235C34.9932 95.0704 33.2452 95.4991 32.7338 94.2547C31.9541 92.3693 34.0584 92.1321 35.1986 91.2123C38.3844 88.6361 39.0174 84.8487 40.5474 81.54C41.5744 79.3175 44.5046 78.4186 44.4501 75.7258C43.8716 75.9547 43.3853 76.3667 42.7985 76.5832C38.6317 78.1314 32.6248 75.9339 28.2485 75.7258C27.9215 75.7092 27.5861 75.6842 27.2592 75.7341C26.0687 75.9256 24.0775 78.739 22.9164 79.2093C22.514 79.3716 22.1157 79.4091 21.7133 79.2218C20.6695 76.5249 20.0617 73.7073 18.8712 71.0561C15.1488 62.7614 8.32865 57.3218 -0.0131836 53.9465V53.5469C1.99053 53.2264 4.27511 53.293 6.33332 53.3388C8.21547 53.3804 10.2653 53.4304 12.16 53.5469C19.9527 54.0422 27.4017 56.581 34.9974 58.1375C34.7794 54.7289 32.3607 51.7157 29.8623 49.5515C26.207 46.3884 21.7259 44.3824 16.7795 44.5447C16.0752 44.5696 12.8685 45.3271 12.6631 44.6446C12.5876 44.1243 13.0571 43.8538 13.3715 43.5583C14.2182 42.7675 20.3049 38.693 20.3007 38.256L15.4004 34.7725C14.2518 35.7172 13.3757 36.9825 12.6924 38.2893C12.2481 39.1425 11.2252 42.4263 10.9486 42.7509C10.7348 43.0048 10.4497 42.9673 10.1605 42.959C9.30955 40.133 7.71664 38.2352 5.61651 36.25C5.04641 35.7089 3.34032 34.7142 3.23133 34.0108C3.01754 32.6208 7.08786 30.9851 7.93881 29.9738C8.39153 29.4369 8.27835 28.6544 8.84006 28.2716C9.46465 27.847 10.3659 28.051 11.0534 27.872C13.6733 27.1978 15.8112 25.3124 18.6197 25.1834C20.3635 25.1043 22.5978 25.8493 24.1237 26.6567C24.6015 26.9106 27.3346 28.6128 27.54 28.8584C27.7957 29.1622 27.7706 29.3869 27.7454 29.7532H23.6206C23.2769 29.7532 21.6127 30.1694 21.1516 30.2984C19.5 30.7521 17.7981 31.5303 16.6831 32.8497C18.6239 35.2386 21.8391 35.5216 24.7315 35.659C29.2336 33.4448 31.56 29.0623 37.2023 30.2526C42.8446 31.4429 47.8287 37.536 49.4761 42.8383C49.9708 44.4323 50.5828 47.2208 50.2726 48.8273C50.0462 49.9926 48.9731 49.2893 48.1725 49.3226C46.567 49.3933 44.8148 51.3036 44.0896 52.6313C44.4123 53.6801 49.0863 55.6154 49.6396 55.2949C51.1152 52.8103 53.5758 50.7251 53.7099 47.637C51.1235 38.8012 48.2773 30.0445 45.7034 21.2088C45.5986 20.855 45.125 19.9435 45.1208 19.8603C45.0998 19.4982 45.6406 19.2069 45.7537 18.953C46.1646 18.054 45.0285 16.5807 44.9447 15.869C44.9028 15.5069 45.1208 14.9576 45.0579 14.4623C44.9196 13.3677 44.6387 12.2856 44.6471 11.1744L47.0784 15.7483L48.0593 15.4736C47.8539 14.891 47.3508 13.7839 47.3047 13.2262C47.2586 12.6685 47.5143 12.0525 47.4431 11.2951C47.2838 9.63446 46.4203 7.69084 46.2568 5.98029L45.3513 5.98861C45.0956 4.919 44.7309 3.84106 44.8944 2.73399C44.9321 2.48844 45.4771 0.673837 45.5483 0.586437C45.8502 0.236835 46.5963 0.478227 46.8562 -0.0128803H47.2586L47.2838 -0.000394555ZM51.1613 18.0291C50.1133 19.1361 52.5446 24.4634 52.8213 25.9742C53.0225 26.2572 53.0644 26.0782 53.2656 26.0283C53.7644 25.9076 55.7388 25.4914 55.7053 24.9129C54.7998 23.1982 54.5609 19.9269 53.6093 18.3953C53.1063 17.5837 51.8697 17.2841 51.1613 18.0332V18.0291ZM46.4244 81.5525C43.6955 82.1102 43.9219 86.3137 46.7724 86.5093C50.8972 86.7965 50.3858 80.7451 46.4244 81.5525Z" fill="#D0395C"/>
</g>
<defs>
<clipPath id="clip0_44_251">
<rect width="115" height="117" fill="white"/>
</clipPath>
</defs>
</svg>
