<svg width="449" height="156" viewBox="0 0 449 156" fill="none" xmlns="http://www.w3.org/2000/svg">
<g clip-path="url(#clip0_105_2)">
<path fill-rule="evenodd" clip-rule="evenodd" d="M60.7966 100.082C58.0568 101.034 55.578 102.012 53.0209 102.725C52.3425 102.91 51.4553 102.329 50.6465 102.091C51.064 101.457 51.4032 100.373 51.9511 100.241C57.6915 98.7875 63.432 97.466 69.2246 96.2239C69.903 96.0653 70.7641 96.7789 71.5469 97.0696C71.5469 97.3868 71.5469 97.6775 71.5469 97.9946C70.451 98.3382 69.329 98.9989 68.2592 98.9461C65.3889 98.761 64.4496 100.241 63.5885 102.778C61.4228 109.148 59.1006 115.517 56.2564 121.596C54.5865 125.163 52.0816 128.414 49.4201 131.348C47.9067 132.986 45.454 134.07 43.2361 134.651C40.4963 135.365 38.0697 133.436 37.313 130.713C35.9301 125.692 39.5309 115.993 43.8623 113.112C44.2276 112.874 44.7495 112.874 46.0541 112.583C45.2713 114.169 44.7756 115.094 44.332 116.045C43.0534 118.794 41.5661 121.49 40.6007 124.371C40.1049 125.851 40.1832 127.753 40.6007 129.313C41.4096 132.167 44.045 133.198 46.1846 131.242C48.3764 129.26 50.4899 126.802 51.6641 124.106C54.9518 116.706 57.7698 109.068 60.7444 101.536C60.8488 101.272 60.7444 100.955 60.7444 100.082H60.7966Z" fill="white"/>
<path fill-rule="evenodd" clip-rule="evenodd" d="M79.4268 97.7302C78.618 101.985 76.8175 105.236 73.843 107.747C73.4777 108.064 73.0863 108.143 72.46 107.667C72.1208 107.324 72.0165 105.923 73.0602 105.104C75.826 102.963 75.3563 100.585 76.1913 97.7302C76.1913 96.2238 77.1568 95.2988 77.8874 95.1138C78.2005 95.0345 79.7139 95.8274 79.4007 97.7567L79.4268 97.7302Z" fill="white"/>
<path fill-rule="evenodd" clip-rule="evenodd" d="M76.6872 126.723C77.6527 126.036 78.8008 125.533 79.5314 124.661C81.6971 122.098 83.628 119.323 85.8198 116.812C86.8635 115.596 88.2986 114.75 89.551 113.72C89.2379 115.305 89.1075 116.997 88.5334 118.503C87.5158 121.12 86.2372 123.631 85.0631 126.194C85.2979 126.406 85.5327 126.591 85.7676 126.802C86.9157 125.613 88.142 124.503 89.2118 123.261C90.2555 122.045 91.1166 120.723 92.082 119.428C92.3952 119.64 92.7344 119.825 93.0475 120.036C92.1603 121.675 91.6385 123.789 90.3077 124.82C84.6195 129.207 81.6449 135.259 78.9312 141.681C77.9919 143.901 75.7218 145.804 73.6344 147.205C72.5907 147.892 70.1118 147.654 69.1725 146.809C68.2071 145.963 67.5808 143.452 68.1288 142.369C69.4334 139.831 71.4165 137.611 73.3735 135.471C74.4694 134.255 75.9827 133.383 77.3657 132.431C81.4362 129.603 81.5405 129.471 83.08 123.631C81.2013 125.533 79.714 127.436 77.8353 128.758C76.7394 129.524 75.0434 129.392 73.6083 129.656C73.5039 128.282 72.8516 126.617 73.3735 125.586C75.0695 122.23 77.1308 119.085 79.2183 115.966C79.5575 115.464 80.7838 115.623 81.5927 115.464C81.4362 116.204 81.4622 117.103 81.0709 117.684C79.8967 119.428 78.4877 121.014 77.3396 122.758C76.6872 123.736 76.3219 124.899 75.8262 125.983C76.1132 126.247 76.4002 126.485 76.6872 126.749V126.723ZM79.4531 134.731L78.2267 133.673C75.9306 136.158 73.5039 138.51 71.4687 141.179C70.8685 141.946 71.3904 143.584 71.4165 144.826C72.5907 144.404 74.2867 144.324 74.8086 143.479C76.5829 140.704 77.9397 137.664 79.4531 134.731Z" fill="white"/>
<path fill-rule="evenodd" clip-rule="evenodd" d="M119.453 115.226C118.879 118.556 117.027 119.798 114.835 119.878C112.695 119.957 111.808 120.988 110.791 122.6C109.616 124.423 108.207 126.194 106.538 127.542C104.711 128.996 102.806 128.071 102.232 125.877C101.502 123.023 105.05 114.063 108.547 112.345C107.268 116.389 105.963 120.433 104.581 124.793C108.207 124.08 110.791 120.195 110.817 116.336C110.817 113.878 111.182 111.685 114.939 111.288C114.6 113.455 114.287 115.332 113.87 117.869C115.67 117.023 117.262 116.257 119.48 115.226H119.453Z" fill="white"/>
<path fill-rule="evenodd" clip-rule="evenodd" d="M128.116 109.676C127.62 111.05 127.359 111.87 127.046 112.663C125.402 116.838 123.811 121.041 122.089 125.19C121.776 125.93 121.019 126.485 120.471 127.119C120.132 126.564 119.349 125.824 119.479 125.507C121.593 120.433 123.837 115.385 126.107 110.363C126.237 110.073 126.968 110.046 128.09 109.676H128.116Z" fill="white"/>
<path fill-rule="evenodd" clip-rule="evenodd" d="M131.43 102.302C130.647 103.492 129.551 104.126 128.977 103.73C128.403 103.333 128.56 102.065 129.343 100.902C130.125 99.7124 131.221 99.0781 131.795 99.4746C132.369 99.871 132.213 101.14 131.43 102.302Z" fill="white"/>
<path fill-rule="evenodd" clip-rule="evenodd" d="M129.473 117.684C129.369 118.688 128.925 119.851 129.264 120.644C129.812 121.86 130.778 123.049 131.874 123.736C132.395 124.053 134.378 123.287 134.431 122.864C134.561 121.675 134.378 120.142 133.7 119.243C131.978 116.97 129.499 114.962 131.352 111.764C133.413 108.196 136.831 106.716 140.849 106.743C143.328 106.743 144.294 108.46 143.328 110.839C142.389 113.165 138.997 114.935 135.083 114.38C136.909 113.403 138.084 112.98 138.971 112.24C139.727 111.605 140.197 110.575 140.771 109.729C139.727 109.597 138.579 109.068 137.692 109.385C133.23 110.892 132.474 114.116 135.657 117.79C137.457 119.851 138.736 121.913 136.596 124.476C134.926 126.458 131.195 127.198 129.186 125.481C128.012 124.476 127.151 122.6 126.942 121.014C126.785 119.851 127.96 118.53 128.508 117.288C128.821 117.42 129.134 117.552 129.421 117.684H129.473Z" fill="white"/>
<path fill-rule="evenodd" clip-rule="evenodd" d="M148.808 124.503C147.999 128.758 146.199 132.008 143.224 134.519C142.859 134.836 142.467 134.916 141.841 134.44C141.502 134.096 141.398 132.696 142.441 131.876C145.207 129.736 144.737 127.357 145.572 124.503C145.572 122.996 146.538 122.071 147.268 121.886C147.582 121.807 149.095 122.6 148.782 124.529L148.808 124.503Z" fill="white"/>
<path fill-rule="evenodd" clip-rule="evenodd" d="M173.179 112.266C171.561 114.883 170.021 117.578 168.299 120.115C167.751 120.935 166.682 121.384 165.873 121.992C165.768 120.961 165.299 119.772 165.638 118.926C167.021 115.411 168.56 111.923 170.282 108.566C170.674 107.773 171.926 107.403 172.787 106.848C172.683 107.773 172.605 108.698 172.422 109.597C172.318 110.072 172.031 110.495 171.613 111.394C174.509 109.068 177.04 107.033 179.571 104.998C179.937 105.315 180.302 105.659 180.641 105.976C180.198 107.033 179.858 108.117 179.31 109.121C178.319 110.971 177.066 112.689 176.231 114.618C174.927 117.578 174.822 120.565 177.145 123.155C174.04 125.48 171.717 121.014 173.126 115.781C173.387 114.777 173.779 113.825 174.118 112.848C173.805 112.636 173.466 112.451 173.153 112.24L173.179 112.266Z" fill="white"/>
<path fill-rule="evenodd" clip-rule="evenodd" d="M195.514 119.613C192.435 121.437 191.235 120.776 189.565 116.415C188.652 117.499 187.973 118.768 186.93 119.428C185.886 120.089 184.268 120.644 183.277 120.248C182.311 119.851 181.267 118.213 181.293 117.103C181.372 111.235 183.851 106.452 188.756 103.333C189.93 102.593 192.357 102.382 193.322 103.122C194.262 103.835 194.183 106.055 194.392 107.641C194.444 108.09 193.975 108.592 193.818 109.095C192.487 112.9 190.087 116.865 195.514 119.613ZM192.305 106.161C192.096 105.791 191.913 105.421 191.705 105.077C190.452 105.659 188.73 105.87 188.052 106.848C186.486 109.121 185.26 111.685 184.216 114.275C183.877 115.12 184.529 116.363 184.738 117.42C185.729 116.865 187.164 116.548 187.634 115.702C189.356 112.636 190.765 109.385 192.279 106.187L192.305 106.161Z" fill="white"/>
<path fill-rule="evenodd" clip-rule="evenodd" d="M214.745 97.6775C212.944 98.3118 211.196 99.0782 209.369 99.5539C206.917 100.188 205.377 101.642 204.621 104.047C203.655 107.139 202.611 110.231 201.829 113.376C201.646 114.063 202.194 115.464 202.742 115.702C203.368 115.966 204.594 115.49 205.168 114.909C206.264 113.799 207.047 112.425 207.96 111.156C208.534 110.363 209.082 109.57 209.865 108.408C210.544 112.61 205.534 118.873 202.168 118.715C200.028 118.609 198.776 117.182 198.984 115.2C199.298 112.213 200.054 109.253 200.733 106.293C200.994 105.183 201.568 104.179 202.037 102.963C201.072 102.54 200.289 102.197 199.272 101.774C199.585 101.272 199.767 100.717 200.002 100.69C203.942 100.135 205.586 97.096 207.23 94.0303C207.673 93.211 208.274 92.4446 208.952 91.7838C209.239 91.4931 210.126 91.3081 210.257 91.4931C210.57 91.8896 210.883 92.656 210.726 93.0524C210.204 94.2946 209.448 95.4046 208.665 96.7789H214.614C214.666 97.096 214.692 97.4132 214.745 97.7303V97.6775Z" fill="white"/>
<path fill-rule="evenodd" clip-rule="evenodd" d="M226.251 115.464C228.469 109.755 229.304 103.492 234.236 99.6596C234.679 99.9239 235.123 100.162 235.567 100.426C234.575 102.117 233.61 103.835 232.148 106.32C236.271 103.677 238.176 99.3424 242.429 98.4967C242.638 98.7081 242.873 98.946 243.081 99.1574C241.829 100.77 240.576 102.408 239.324 104.02C239.507 104.337 239.715 104.655 239.898 104.972C241.855 104.1 243.812 103.227 245.769 102.382C244.569 105.368 242.481 107.139 239.585 107.403C238.463 107.509 237.237 106.61 236.062 106.161C235.906 105.817 235.775 105.447 235.619 105.104C233.688 108.143 231.444 111.024 229.904 114.248C228.809 116.548 227.634 117.684 225.077 117.658C222.572 117.605 221.242 116.363 220.459 114.169C220.407 114.01 220.172 113.905 219.833 113.64C218.893 114.698 218.058 115.86 216.962 116.759C215.084 118.318 212.892 117.816 212.031 115.781C210.517 112.134 214.927 103.465 219.78 102.091C218.032 106.557 214.04 109.808 214.797 115.253C218.137 113.508 219.154 110.733 220.354 108.143C220.929 106.901 221.085 105.447 221.79 104.311C222.311 103.492 223.407 103.069 224.242 102.461C224.321 103.412 224.66 104.443 224.425 105.315C224.034 106.822 223.173 108.223 222.755 109.729C221.946 112.689 222.938 114.275 226.199 115.411L226.251 115.464Z" fill="white"/>
<path fill-rule="evenodd" clip-rule="evenodd" d="M249.422 109.333C251.196 111.975 253.336 112.187 256.311 109.835C258.32 108.249 260.042 106.32 262.364 104.1C262.312 105.21 262.468 105.791 262.26 106.108C259.911 109.729 256.858 112.53 252.736 113.852C248.796 115.094 246.03 112.689 246.656 108.566C247.439 103.492 250.492 100.003 254.797 97.651C255.684 97.1753 257.38 97.281 258.163 97.8625C258.711 98.2589 258.815 100.294 258.294 100.955C256.415 103.386 254.249 105.606 252.057 107.8C251.379 108.487 250.335 108.83 249.448 109.333H249.422ZM249.657 105.87C249.97 106.135 250.257 106.425 250.544 106.69C253.284 105.289 255.397 103.36 256.284 100.452C255.867 100.109 255.476 99.7389 255.058 99.3953C253.258 101.562 251.431 103.703 249.631 105.87H249.657Z" fill="white"/>
<path fill-rule="evenodd" clip-rule="evenodd" d="M268.496 109.782C270.27 107.535 272.044 105.289 274.001 102.858C274.367 106.373 270.401 112.002 267.504 112.425C265.599 112.715 264.451 111.87 264.451 109.835C264.451 109.015 264.608 108.143 264.817 107.35C267.217 97.8361 271.262 89.0881 276.872 81.1066C277.941 79.6002 279.377 78.2259 280.916 77.248C282.977 75.953 284.856 77.248 284.386 79.6266C283.917 81.9524 283.16 84.4367 281.829 86.3131C278.072 91.5989 274.054 96.6996 269.957 101.748C267.896 104.285 267.191 105.87 267.635 109.148C267.922 109.359 268.209 109.57 268.496 109.782ZM270.844 97.6246C276.011 92.841 279.768 87.1588 281.412 80.1552C275.593 84.5159 273.453 91.2024 270.844 97.6246Z" fill="white"/>
<path fill-rule="evenodd" clip-rule="evenodd" d="M281.542 108.566C283.395 106.32 285.247 104.073 287.283 101.562C287.413 105.236 283.708 110.469 280.864 111.156C278.829 111.632 277.42 110.416 277.681 108.117C277.915 106.135 278.255 104.073 279.063 102.303C282.142 95.4046 285.3 88.5331 288.744 81.8202C289.866 79.653 291.901 77.9351 293.728 76.2437C294.328 75.6887 295.946 75.4244 296.467 75.8473C297.172 76.4287 297.772 77.9087 297.537 78.7544C296.911 81.0537 296.18 83.5116 294.824 85.4145C291.118 90.621 287.152 95.6424 283.082 100.558C281.203 102.805 280.29 105.104 280.603 107.905C280.916 108.117 281.203 108.355 281.49 108.566H281.542ZM283.812 97.4396C289.083 91.6517 293.023 86.0224 294.902 79.1244C291.223 80.2873 285.091 90.6474 283.812 97.4396Z" fill="white"/>
<path fill-rule="evenodd" clip-rule="evenodd" d="M292.423 105.289C294.667 107.932 296.572 107.985 299.625 105.58C301.582 104.02 303.304 102.144 305.522 100.03C304.661 105.183 297.381 110.68 293.18 109.94C290.727 109.518 289.657 107.905 289.657 105.474C289.657 101.087 294.223 94.5853 298.424 93.2638C299.285 92.9996 300.694 93.0788 301.242 93.6339C301.79 94.1624 302.025 95.8539 301.582 96.4353C299.729 98.8932 297.668 101.219 295.528 103.439C294.771 104.232 293.623 104.602 292.423 105.315V105.289ZM299.807 96.7789C299.416 96.4089 299.025 96.0389 298.633 95.6424C295.763 96.8053 294.38 99.3425 293.154 102.012C293.441 102.302 293.754 102.567 294.041 102.858C295.972 100.822 297.876 98.7875 299.807 96.7789Z" fill="white"/>
<path fill-rule="evenodd" clip-rule="evenodd" d="M320.134 93.8189C319.325 95.1668 318.725 96.1446 318.151 97.1225C318.255 97.2282 318.359 97.3339 318.438 97.4396C320.342 95.8275 322.143 94.0832 324.178 92.656C324.935 92.1274 326.187 92.286 327.205 92.1274C326.892 93.026 326.735 94.0303 326.239 94.8496C325.535 96.0125 324.569 96.9903 323.813 98.1532C321.282 102.091 321.282 103.492 324.022 107.826C322.847 107.826 321.804 108.143 321.177 107.773C319.09 106.558 318.96 103.492 320.029 98.0211C317.707 101.457 315.385 104.866 313.063 108.302C312.645 108.117 312.201 107.905 311.784 107.72C312.567 104.972 313.323 102.197 314.106 99.4482C313.871 99.3161 313.663 99.1575 313.428 99.0254C311.236 102.725 309.044 106.452 306.591 110.575C305.078 105.765 309.618 94.506 313.976 92.6824C313.245 94.4267 312.515 96.171 311.758 97.9154C314.263 96.2239 316.611 94.6117 318.986 93.0789C319.116 92.9996 319.612 93.4753 320.081 93.8189H320.134Z" fill="white"/>
<path fill-rule="evenodd" clip-rule="evenodd" d="M344.087 96.1182C343.252 101.589 335.842 107.06 331.484 106.188C329.292 105.738 328.379 104.285 328.249 102.144C327.988 97.5718 332.867 90.7003 337.251 89.4845C339.677 88.7974 341.347 90.2774 340.121 92.471C338.529 95.2724 336.05 97.5982 333.806 100.003C333.154 100.717 332.084 101.034 331.04 101.642C332.032 104.02 333.885 104.205 335.45 103.36C337.512 102.25 339.312 100.611 341.165 99.1046C342.052 98.391 342.808 97.466 344.087 96.1446V96.1182ZM331.458 98.0475C331.693 98.2589 331.954 98.4968 332.189 98.7082C335.894 97.1225 337.72 94.8232 337.146 91.1231C334.954 93.7924 333.206 95.9332 331.484 98.0475H331.458Z" fill="white"/>
<path fill-rule="evenodd" clip-rule="evenodd" d="M351.262 94.3738C354.211 91.9688 356.716 89.9338 359.221 87.9252C359.586 88.2423 359.951 88.5595 360.317 88.8502C359.899 89.8809 359.586 90.9909 359.064 91.9688C358.047 93.9245 356.403 95.6952 355.959 97.7567C355.463 100.056 356.037 102.593 356.142 105.025C356.168 105.685 356.246 106.346 356.272 107.007C355.516 106.848 354.498 106.98 354.08 106.505C351.889 104.152 352.254 101.272 352.88 98.4438C353.089 97.466 353.506 96.541 353.82 95.5895C353.533 95.431 353.246 95.2724 352.958 95.1138C351.341 97.7303 349.775 100.4 348.053 102.937C347.479 103.782 346.461 104.311 345.679 104.998C345.574 103.888 345.026 102.593 345.392 101.668C346.696 98.2324 348.21 94.8495 349.853 91.5723C350.271 90.7531 351.471 90.3302 352.332 89.7223C352.228 90.7266 352.176 91.7309 352.019 92.7088C351.967 93.1052 351.68 93.4752 351.236 94.3738H351.262Z" fill="white"/>
<path fill-rule="evenodd" clip-rule="evenodd" d="M374.616 94.0038C373.05 97.4131 371.484 100.902 367.831 102.725C365.248 104.02 362.691 102.514 362.952 99.5539C363.317 95.5103 364.413 91.546 365.3 87.1852C365.039 87.0531 364.204 86.6302 363.265 86.1545C365.353 84.5423 367.518 83.2473 369.162 81.4766C370.858 79.6794 372.032 77.4065 373.441 75.3451C373.885 75.6094 374.328 75.8737 374.772 76.1115C374.146 77.803 373.52 79.468 372.867 81.2123C374.668 81.0537 376.416 80.8951 378.19 80.7366C378.295 81.1066 378.425 81.4501 378.529 81.8202C377.564 82.2694 376.625 82.7187 375.659 83.1944C373.65 84.1723 370.649 84.648 369.814 86.2866C367.857 90.0395 366.709 94.2681 365.744 98.4439C365.3 100.4 367.022 101.113 368.536 99.7653C369.841 98.6024 370.728 96.9903 371.824 95.5896C372.45 94.7967 373.102 94.0567 373.754 93.2903C374.041 93.5281 374.328 93.766 374.616 94.0038Z" fill="white"/>
<path fill-rule="evenodd" clip-rule="evenodd" d="M161.019 153.706C231.627 123.895 305.756 113.35 381.687 112.742C381.791 113.165 381.895 113.588 382 114.01C381.034 114.248 380.043 114.645 379.051 114.671C367.466 115.015 355.881 115.015 344.322 115.702C285.874 119.058 228.704 129.022 173.883 150.535C170.491 151.856 167.177 153.442 163.785 154.843C163.002 155.16 162.089 155.186 161.228 155.345C161.15 154.79 161.071 154.261 160.993 153.706H161.019Z" fill="white"/>
</g>
<path fill-rule="evenodd" clip-rule="evenodd" d="M118.613 42.7087C121.629 41.8246 123.97 41.0966 126.336 40.4206C130.99 39.0686 132.784 39.8226 135.748 43.8527C136.138 44.3727 137.88 44.6067 138.4 44.2167C145.446 38.6266 152.232 32.8025 155.482 23.9104C156.964 19.8543 159.538 16.3963 163.776 14.7583C164.842 14.3423 166.22 14.7843 167.468 14.8363C167.39 15.8763 167.65 17.1503 167.156 17.9303C163.958 23.0004 160.604 27.9664 157.276 32.9585C153.194 39.0946 149.086 45.2307 144.978 51.3408C147.578 53.2908 151.062 52.9008 152.934 50.6388C156.158 46.7387 159.148 42.6306 162.684 39.0426C164.816 36.8846 167.806 35.6106 170.406 33.9205C170.718 34.2585 171.056 34.5965 171.368 34.9345C169.236 37.7686 167.104 40.6026 164.998 43.4627C163.776 45.1267 162.45 46.7387 161.436 48.5327C160.994 49.2867 161.254 50.4568 161.202 51.4188C162.268 51.4188 163.49 51.7828 164.4 51.4188C167.936 49.9888 169.6 47.0247 170.536 43.4887C171.004 41.6946 171.446 39.8226 172.408 38.3146C172.928 37.5086 174.566 37.4046 175.71 36.9886C175.944 37.8986 176.542 38.8866 176.334 39.6666C175.268 43.7487 173.942 47.7787 172.85 51.8608C172.564 52.9528 172.798 54.2008 172.798 55.3708C174.046 55.1628 175.398 55.1628 176.542 54.6948C183.068 52.0428 184.706 45.2567 188.58 40.3426C189.282 39.4586 190.296 38.3666 191.258 38.2366C193.988 37.8986 195.444 40.0826 194.274 42.6047C192.922 45.5427 191.336 48.4027 189.672 51.6788C193.91 52.1468 197.083 50.0408 200.255 48.5067C205.169 46.1407 209.199 42.6826 211.929 37.7426C212.527 36.6246 214.217 35.7406 215.569 35.5066C216.765 35.2726 218.793 35.6886 219.287 36.5206C219.807 37.3786 219.157 39.1986 218.585 40.3946C217.259 43.1767 215.439 45.7507 214.269 48.6107C213.697 50.0408 214.165 51.8868 214.165 53.5248C215.621 52.9528 217.337 52.6928 218.533 51.7568C221.393 49.5467 223.915 46.8687 226.775 44.6587C228.491 43.3327 230.623 42.5787 232.573 41.5646C233.093 43.5927 234.289 45.6987 234.055 47.6227C233.483 52.4068 232.391 57.1129 231.169 61.7929C230.935 62.7289 229.271 63.3009 228.283 64.0549C227.659 63.2229 226.775 62.4689 226.489 61.5329C225.891 59.5049 225.631 57.3729 225.111 54.5908C223.187 55.9168 221.835 56.9308 220.405 57.8409C218.143 59.2709 215.959 60.8829 213.541 61.9489C208.575 64.0809 205.091 61.1689 205.741 55.7348C205.897 54.4348 206.027 53.1088 206.261 51.0548C204.493 52.1468 203.349 52.9268 202.127 53.6028C197.187 56.3328 192.324 59.2709 187.176 61.5589C185.434 62.3389 182.652 62.1309 180.884 61.2729C178.31 60.0249 176.256 60.2849 174.306 61.8969C172.174 63.6389 170.38 63.3529 168.534 61.6369C166.298 59.5569 164.088 58.6469 161.15 60.5709C158.68 62.2089 156.08 63.1189 153.298 60.5709C152.544 59.8949 150.438 60.4149 149.034 60.7529C146.278 61.4029 143.6 62.8069 140.844 63.0149C137.204 63.3009 136.138 61.7149 137.048 58.2049C137.568 56.2288 138.478 54.3568 139.18 52.4068C139.544 51.3928 139.804 50.3528 140.116 49.3127C139.856 49.1047 139.596 48.8707 139.31 48.6627C137.464 50.3268 135.488 51.8348 133.85 53.6548C130.964 56.8268 128.234 60.1549 125.504 63.4829C123.398 66.031 120.667 67.435 117.469 67.591C116.065 67.643 114.505 67.019 113.257 66.265C112.555 65.849 111.775 64.289 112.035 63.7689C112.451 62.9369 113.725 62.0529 114.661 62.0269C118.795 61.8449 121.551 59.4529 123.788 56.4628C125.92 53.5768 127.61 50.3788 129.69 46.9987C128.676 46.6867 127.948 46.2187 127.428 46.3487C122.852 47.5967 117.625 47.3887 115.493 53.3688C114.193 56.9829 111.775 60.2849 109.435 63.4049C108.291 64.913 106.367 66.187 104.521 66.785C100.621 68.033 97.9172 65.771 96.8771 60.9609C96.6171 59.7649 96.1751 58.5949 95.7851 57.2689C93.2111 59.7389 91.1571 61.9229 88.869 63.8209C88.011 64.549 86.633 64.783 85.463 64.991C82.889 65.407 81.4849 64.5229 81.8489 61.6109C82.0309 60.1029 81.8749 58.5429 81.8749 57.0349C81.6149 56.8788 81.3549 56.6968 81.0949 56.5408C80.2109 57.3469 79.2229 58.0749 78.4429 58.9849C75.5049 62.3129 72.4368 64.757 67.4187 63.3009C65.3387 62.7029 65.0527 61.9489 65.7027 60.3889C67.3927 56.2028 69.2648 52.0688 70.9808 47.8827C71.5528 46.5047 73.1648 44.9447 70.8768 43.6707C68.6668 42.4226 65.3907 43.0987 64.3507 45.0487C60.8147 51.6268 55.6666 56.8008 50.0765 61.5589C46.6445 64.497 38.5583 65.043 34.7883 62.4949C33.3583 61.5329 32.5003 59.6869 30.9142 57.6329C30.1602 57.9969 28.6522 58.7249 27.1442 59.4529C20.7741 62.5209 14.638 66.239 7.09791 65.693C2.93786 65.381 0.207819 62.8589 0.0258169 58.6469C-0.364188 50.4308 3.71787 44.0087 8.65794 38.1066C20.2541 24.2744 34.2943 13.5363 50.2845 5.29414C52.2345 4.28012 54.4706 3.76012 56.1606 3.16211C57.6686 6.54216 58.9946 9.5582 60.3466 12.6002C57.5646 13.3802 54.6786 14.4203 51.7145 14.9923C44.4604 16.3443 38.0383 19.3343 32.5003 24.1964C31.3302 25.2104 30.0302 26.0944 28.9122 27.1864C24.5702 31.5025 19.6821 35.4806 16.146 40.3946C13.312 44.3207 12.064 49.4167 10.348 54.0708C10.14 54.6428 11.492 56.5408 12.22 56.6188C18.1741 57.0869 24.3361 57.6589 29.6662 54.2268C34.2683 51.2628 38.4283 47.6747 42.8484 44.4247C45.9424 42.1626 48.8285 39.2766 52.3125 38.0546C56.0826 36.7286 61.2047 35.4806 64.3247 37.0146C68.2248 38.9386 71.5788 37.4826 75.0889 38.1066C77.3249 38.4966 78.4949 40.4206 77.5589 42.6047C76.3629 45.4387 74.8808 48.1427 73.8668 51.0548C73.4248 52.3028 73.8668 53.8628 73.8668 55.2928C74.9848 54.6168 76.2329 54.0708 77.2209 53.2388C81.0689 49.9888 83.929 45.3347 90.2211 44.0867C89.779 46.9987 89.311 49.4687 89.103 51.9388C88.999 53.0308 89.467 54.1748 89.649 55.2928C90.5591 54.6948 91.6771 54.2788 92.3531 53.4988C93.6531 51.9648 94.4851 49.9627 95.9411 48.6367C97.8912 46.8687 100.985 48.0127 101.739 50.5608C102.259 52.3288 102.493 54.2008 102.987 55.9948C103.195 56.7228 103.715 57.3469 104.079 58.0229C104.807 57.5289 105.899 57.1909 106.185 56.5148C107.745 52.7188 109.565 48.9747 110.475 44.9967C112.451 36.4686 113.907 27.7844 115.727 19.2303C115.935 18.3203 117.287 17.6443 118.119 16.8643C118.769 17.6183 119.835 18.3203 119.965 19.1783C121.109 25.8084 120.797 32.3865 119.107 38.9126C118.847 39.9526 118.795 41.0706 118.561 42.6827L118.613 42.7087ZM61.2047 44.8147C60.9707 44.3727 60.7366 43.9307 60.4766 43.5147C57.2526 43.8267 53.8206 43.5147 50.8825 44.5547C45.0064 46.6867 42.5624 52.1988 40.2224 57.4509C39.3384 59.4269 40.6904 60.7009 42.5624 59.8429C45.6824 58.4389 48.8545 56.8788 51.4545 54.6948C54.9906 51.7308 57.9806 48.1427 61.2047 44.8147Z" fill="white"/>
<path fill-rule="evenodd" clip-rule="evenodd" d="M203.166 30.0985C201.528 31.4245 199.838 33.1926 199.552 32.9846C197.992 31.8666 196.666 30.3325 195.548 28.7465C195.418 28.5645 197.394 26.3285 197.706 26.4845C199.448 27.3165 201.008 28.5905 203.166 30.0985Z" fill="white"/>
<path fill-rule="evenodd" clip-rule="evenodd" d="M251.189 47.8048C248.459 52.1468 244.429 51.7828 240.399 51.7568C241.803 48.3508 247.159 46.2968 251.189 47.8048Z" fill="white"/>
<path fill-rule="evenodd" clip-rule="evenodd" d="M291.854 52.8488C297.808 50.6908 300.772 46.9727 302.566 42.5007C303.632 39.8226 305.686 39.0946 307.844 38.3406C309.534 37.7426 310.886 38.3926 310.314 40.5246C309.586 43.2027 308.624 45.8287 307.766 48.4548C306.232 53.1868 307.324 55.3188 311.952 56.7229C305.452 61.4549 301.474 60.5969 299.81 53.7328C297.886 55.0848 296.118 56.4369 294.22 57.6329C288.162 61.4289 286.706 60.8569 284.834 53.6288C281.948 54.5908 279.114 55.5789 276.228 56.4889C274.772 56.9309 273.29 57.2949 271.782 57.5289C269.597 57.8409 268.141 57.2689 268.375 54.5648C268.557 52.3548 267.257 52.0168 265.645 53.0828C264.033 54.1748 262.551 55.4489 261.147 56.7749C259.379 58.4909 257.377 59.6089 255.063 58.3349C252.749 57.0869 252.385 54.0448 253.789 51.3668C255.713 47.7267 257.377 43.9047 259.587 40.4466C261.329 37.7166 263.513 35.1166 265.983 33.0625C267.257 32.0225 269.701 31.8145 271.47 32.1005C273.446 32.4125 272.458 33.9466 271.626 34.8566C269.363 37.4046 266.867 39.7706 264.735 42.3967C262.967 44.5807 261.563 47.0507 259.977 49.3908C260.315 49.6768 260.627 49.9368 260.965 50.2228C263.721 47.4927 266.529 44.8147 269.181 41.9807C270.872 40.1866 272.146 38.0026 273.888 36.3126C274.59 35.6366 276.098 35.7926 277.242 35.5846C277.19 36.5986 277.242 37.6386 277.034 38.6266C276.306 41.7207 275.032 44.7627 274.798 47.8827C274.538 51.5488 277.216 52.9528 280.362 51.1588C283.664 49.2868 286.836 47.5447 287.408 42.8647C287.694 40.4726 289.436 37.6126 292.634 37.0146C293.648 36.8326 295.104 36.7546 295.728 37.3266C296.352 37.8986 296.612 39.4846 296.3 40.3686C295.312 43.1507 293.882 45.8027 292.79 48.5588C292.348 49.6768 292.244 50.9248 291.854 52.8488Z" fill="white"/>
<path fill-rule="evenodd" clip-rule="evenodd" d="M328.15 46.1147C325.576 50.8987 321.364 48.7407 317.75 49.3387C319.024 45.4647 320.558 45.3087 328.15 46.1147Z" fill="white"/>
<path fill-rule="evenodd" clip-rule="evenodd" d="M362.575 6.28213C365.097 2.43408 368.581 0.56205 373.209 0.692051C375.627 0.770052 376.901 2.20007 377.291 4.1501C377.863 7.01014 377.525 9.76618 375.861 12.4702C373.131 16.8383 370.999 21.5703 368.399 26.0424C367.437 27.7064 366.111 29.3184 364.603 30.4885C363.719 31.1905 351.707 36.5205 351.005 35.5585C349.549 33.6085 357.271 29.7604 358.155 29.0584C360.963 25.9644 363.043 21.0503 364.655 17.5143C365.643 15.3563 366.735 13.2762 367.645 11.0922C367.853 10.5462 367.749 9.48017 367.385 9.22017C366.969 8.93417 365.877 9.01217 365.461 9.37617C362.965 11.4562 359.767 13.2502 358.259 15.9283C352.695 25.9124 347.703 36.2345 342.477 46.4267C340.527 50.1967 338.681 54.0188 336.549 57.6848C336.029 58.5948 334.521 58.9328 333.48 59.5309C332.908 58.4648 331.582 57.1388 331.842 56.3588C333.324 51.7828 334.989 47.2327 336.913 42.8126C339.409 37.1706 342.165 31.6325 344.895 26.1204C348.197 19.4123 351.629 12.7302 354.957 6.02212C355.685 4.5921 356.205 3.05808 356.985 1.65406C358.077 -0.347963 359.897 -0.425964 361.405 0.848054C362.003 1.34206 361.639 2.98008 361.665 4.0981C361.691 4.80011 361.665 5.50212 361.665 6.23013C361.977 6.25613 362.263 6.28213 362.549 6.33413L362.575 6.28213Z" fill="white"/>
<path fill-rule="evenodd" clip-rule="evenodd" d="M428.434 42.2407C426.588 43.6967 424.924 45.4648 422.896 46.5828C418.501 48.9748 414.029 51.4188 409.349 53.1089C406.281 54.2009 402.745 54.0709 399.391 54.2009C399.079 54.2009 398.195 52.1728 398.403 51.2888C399.209 48.0128 400.379 44.8407 400.847 40.9927C399.937 41.5647 398.871 42.0067 398.117 42.7347C395.725 45.0228 393.281 47.2588 391.175 49.7808C387.899 53.7329 383.973 53.4729 379.657 52.2769C379.527 51.9388 379.449 51.6528 379.345 51.3668C379.007 50.5088 378.643 49.6248 378.305 48.7668C377.473 49.2868 376.641 49.8068 375.783 50.3008C374.145 51.2368 372.559 52.4069 370.765 53.0049C369.153 53.5509 367.853 52.7449 368.087 50.7428C368.321 48.5848 368.789 46.4528 368.893 44.3207C368.945 43.3327 368.347 42.2927 368.035 41.2787C366.995 41.9027 365.487 42.2667 364.993 43.1767C363.017 46.9208 361.587 50.9508 359.455 54.5909C358.415 56.3589 356.361 57.6589 354.515 58.7769C352.487 59.999 351.473 58.6469 351.187 56.6969C350.199 49.9108 352.695 43.9827 356.413 38.6267C357.895 36.4946 360.365 35.1426 363.511 36.3646C364.707 36.8326 366.423 36.2606 367.801 35.8446C370.245 35.0906 372.637 34.1026 375.055 33.2186C375.237 33.5046 375.419 33.8166 375.627 34.1026C375.003 36.6766 374.275 39.2247 373.807 41.7987C373.625 42.7607 374.041 43.8267 374.171 44.8668C375.315 44.5547 376.797 44.6067 377.499 43.8787C378.981 42.3707 380.047 40.4467 381.243 38.6787C381.529 38.2627 381.529 37.4826 381.867 37.3006C382.933 36.7286 384.103 36.3386 385.221 35.8706C385.403 36.9886 385.923 38.1587 385.715 39.1987C385.325 41.0967 384.415 42.8907 383.921 44.7627C383.739 45.4388 383.973 46.7128 384.415 46.9728C385.065 47.3108 386.313 47.2848 386.911 46.8688C391.591 43.5407 396.193 40.1087 401.601 36.1306C399.495 35.1426 398.325 34.7006 397.285 34.0246C396.791 33.7126 396.193 32.9586 396.271 32.4646C396.323 32.0226 397.129 31.3986 397.701 31.3206C399.963 31.0086 402.225 30.7746 404.487 30.6706C406.515 30.5666 407.711 30.2806 407.399 27.6285C407.191 25.8865 408.127 23.9625 408.803 22.2464C408.959 21.8824 410.285 21.7004 410.935 21.8824C411.351 22.0124 411.793 22.9744 411.767 23.5725C411.689 25.4705 411.377 27.3425 411.091 29.9425C414.029 30.0985 417.721 30.5406 421.362 30.4366C429.63 30.2286 437.898 29.6825 446.166 29.4485C447.102 29.4485 448.064 30.5406 449 31.1386C448.194 31.8926 447.44 33.1926 446.53 33.2966C443.67 33.6866 440.732 33.6346 437.846 33.7906C429.5 34.2326 421.128 34.6226 412.781 35.1166C410.389 35.2726 408.621 36.2606 407.815 38.9127C407.061 41.4607 405.631 43.8007 404.695 46.2968C404.331 47.2328 404.539 48.3768 404.487 49.4428C405.475 49.4428 406.567 49.7028 407.399 49.3388C412.131 47.3368 416.811 45.1528 421.518 43.1247C423.52 42.2667 425.626 41.6687 427.68 40.9407C427.94 41.3827 428.174 41.8247 428.434 42.2667V42.2407ZM355.711 52.4849C358.701 50.7948 360.235 46.6348 359.117 43.6187C356.049 45.1268 354.515 48.9488 355.711 52.4849Z" fill="white"/>
<defs>
<clipPath id="clip0_105_2">
<rect width="345" height="80" fill="white" transform="translate(37 75.3451)"/>
</clipPath>
</defs>
</svg>
