<svg viewBox="0 0 795 341" fill="none" xmlns="http://www.w3.org/2000/svg">
<path fill-rule="evenodd" clip-rule="evenodd" d="M233.786 293.375H241.386L243.186 330.575H236.986L236.686 321.475H225.786L221.486 330.575H215.286L233.786 293.375ZM236.686 316.675L236.286 298.375H236.186L227.886 316.675H236.686Z" fill="white"/><path d="M261.786 327.275H261.586C259.686 329.775 256.686 331.275 253.586 331.275C249.386 331.275 246.986 329.375 248.586 322.175L252.686 302.575H258.286L254.086 322.675C253.486 325.775 254.586 326.775 256.986 326.775C259.386 326.775 261.886 325.275 262.586 322.175L266.686 302.575H272.386L266.386 330.575H261.086L261.786 327.275Z" fill="white"/><path d="M281.286 316.075L276.886 302.575H283.086L285.486 311.775L292.086 302.575H298.086L287.886 316.075L292.486 330.575H286.386L283.686 320.175L276.586 330.575H270.586L281.286 316.075Z" fill="white"/><path d="M316.386 302.575H321.986L321.086 306.975H321.186C323.086 303.775 325.586 301.775 328.786 301.775C329.386 301.775 329.786 301.975 330.086 302.075L328.886 307.775C328.486 307.675 327.486 307.475 326.586 307.475C323.986 307.475 320.786 308.575 319.586 313.775L316.086 330.575H310.386L316.386 302.575Z" fill="white"/><path d="M338.786 302.575L339.086 323.575H339.186L348.186 302.575H354.086L340.186 331.575C336.386 339.275 334.386 340.275 328.586 340.175C327.886 340.175 327.086 340.075 326.386 339.975L327.386 335.475C327.986 335.575 328.486 335.675 329.086 335.675C331.086 335.675 332.386 335.275 333.386 333.475L334.586 331.175L332.686 302.575H338.786Z" fill="white"/><path d="M355.986 302.575H359.886L361.586 294.575H367.186L365.486 302.575H370.086L369.186 306.675H364.586L361.086 323.475C360.586 325.575 361.086 326.375 362.986 326.375C363.786 326.375 364.486 326.342 365.086 326.275L364.186 330.375C362.852 330.708 361.319 330.875 359.586 330.875C355.786 330.875 354.086 329.875 355.286 324.075L358.986 306.675H355.086L355.986 302.575Z" fill="white"/><path d="M376.286 293.375H381.886L379.286 305.575L379.486 305.675C381.486 303.275 384.286 301.775 387.086 301.775C391.386 301.775 393.686 303.775 392.486 309.475L387.986 330.575H382.386L386.386 311.375C387.186 307.675 386.386 306.275 383.586 306.275C381.286 306.275 378.786 308.075 377.986 311.775L373.986 330.575H368.386L376.286 293.375Z" fill="white"/><path d="M400.886 302.575H406.186L405.586 305.875H405.686C407.586 303.375 410.586 301.775 413.286 301.775C417.286 301.775 418.486 303.775 418.886 306.075C421.086 303.375 423.486 301.775 426.886 301.775C430.786 301.775 433.286 303.875 432.086 309.275L427.586 330.575H421.986L425.986 311.375C426.786 307.675 425.986 306.275 423.686 306.275C421.486 306.275 418.886 308.075 418.086 311.775L414.086 330.575H408.486L412.486 311.375C413.286 307.675 412.486 306.275 410.186 306.275C407.986 306.275 405.386 308.075 404.586 311.775L400.586 330.575H394.986L400.886 302.575Z" fill="white"/><path fill-rule="evenodd" clip-rule="evenodd" d="M442.186 317.275L441.886 318.875C441.086 322.675 440.586 327.475 444.786 327.475C448.786 327.475 450.186 322.875 450.586 321.175H455.886C454.586 327.375 449.986 331.275 443.886 331.275C439.286 331.275 433.986 329.975 436.686 316.975C438.186 309.675 441.486 301.775 450.286 301.775C458.086 301.775 459.186 306.475 457.486 314.275L456.886 317.275H442.186ZM451.986 313.475L452.286 311.975C453.086 308.375 452.486 305.675 449.386 305.675C445.786 305.675 443.886 309.175 443.086 312.875L442.986 313.475H451.986Z" fill="white"/><path d="M476.286 310.775L476.486 309.975C476.886 307.775 476.586 305.675 473.686 305.675C471.486 305.675 469.386 306.675 468.886 309.275C468.386 311.475 469.186 312.375 471.986 313.475L475.286 314.675C479.186 316.075 480.586 318.375 479.686 322.775C478.386 328.775 473.486 331.275 467.786 331.275C460.686 331.275 459.286 327.975 460.486 322.575L460.686 321.575H465.686L465.486 322.475C464.786 325.675 465.586 327.475 468.786 327.475C471.886 327.475 473.686 325.875 474.286 323.375C474.686 321.275 473.886 319.875 471.986 319.175L467.786 317.575C463.886 316.175 462.586 313.975 463.586 309.575C464.586 304.275 468.986 301.775 474.686 301.775C481.886 301.775 482.586 305.975 481.886 309.475L481.586 310.775H476.286Z" fill="white"/><path fill-rule="evenodd" clip-rule="evenodd" d="M512.386 327.175H512.286C511.186 328.975 509.186 331.275 505.186 331.275C498.686 331.275 497.186 325.875 499.286 316.175C501.886 303.775 506.686 301.775 510.986 301.775C513.986 301.775 515.986 303.375 516.486 305.875H516.586L519.186 293.375H524.886L516.886 330.575H511.586L512.386 327.175ZM511.786 306.375C508.486 306.375 506.786 308.975 505.186 316.475C503.886 322.875 503.786 326.875 507.686 326.875C511.586 326.875 513.286 322.875 514.586 316.875C515.986 310.175 516.086 306.375 511.786 306.375Z" fill="white"/><path fill-rule="evenodd" clip-rule="evenodd" d="M531.286 317.275L530.986 318.875C530.186 322.675 529.686 327.475 533.886 327.475C537.886 327.475 539.286 322.875 539.686 321.175H544.986C543.686 327.375 539.086 331.275 532.986 331.275C528.386 331.275 522.986 329.975 525.786 316.975C527.286 309.675 530.486 301.775 539.286 301.775C547.186 301.775 548.286 306.475 546.586 314.275L545.986 317.275H531.286ZM541.086 313.475L541.386 311.975C542.186 308.375 541.586 305.675 538.386 305.675C534.886 305.675 532.986 309.175 532.186 312.875L532.086 313.475H541.086Z" fill="white"/><path d="M571.086 293.375H576.686L568.786 330.575H563.186L571.086 293.375Z" fill="white"/><path d="M584.286 293.375H590.186L588.686 300.275C587.786 304.375 585.886 307.375 581.086 308.275L581.686 305.275C583.386 304.875 584.686 303.375 585.186 301.075L585.386 300.275H582.786L584.286 293.375Z" fill="white"/><path fill-rule="evenodd" clip-rule="evenodd" d="M592.986 311.975C595.786 298.675 600.886 292.675 609.386 292.675C617.986 292.675 620.386 298.675 617.586 311.975C614.786 325.275 609.686 331.275 601.186 331.275C592.586 331.275 590.186 325.275 592.986 311.975ZM611.686 311.775C614.386 299.275 611.986 297.175 608.386 297.175C604.886 297.175 601.686 299.275 598.986 311.775C596.186 324.675 598.586 326.775 602.086 326.775C605.686 326.775 608.886 324.675 611.686 311.775Z" fill="white"/><path d="M634.786 327.275H634.686C632.786 329.775 629.786 331.275 626.686 331.275C622.486 331.275 620.086 329.375 621.586 322.175L625.786 302.575H631.386L627.086 322.675C626.486 325.775 627.686 326.775 629.986 326.775C632.386 326.775 634.986 325.275 635.586 322.175L639.786 302.575H645.386L639.486 330.575H634.186L634.786 327.275Z" fill="white"/><path d="M652.086 302.575H657.786L656.786 306.975H656.886C658.886 303.775 661.386 301.775 664.486 301.775C665.186 301.775 665.486 301.975 665.786 302.075L664.586 307.775C664.286 307.675 663.286 307.475 662.286 307.475C659.786 307.475 656.486 308.575 655.386 313.775L651.786 330.575H646.186L652.086 302.575Z" fill="white"/><path d="M667.286 302.575H671.186L672.886 294.575H678.486L676.786 302.575H681.386L680.486 306.675H675.886L672.386 323.475C671.886 325.575 672.386 326.375 674.286 326.375C675.153 326.375 675.853 326.342 676.386 326.275L675.486 330.375C674.219 330.708 672.686 330.875 670.886 330.875C667.086 330.875 665.386 329.875 666.586 324.075L670.286 306.675H666.486L667.286 302.575Z" fill="white"/><path d="M687.586 293.375H693.186L690.586 305.575L690.786 305.675C692.786 303.275 695.586 301.775 698.386 301.775C702.686 301.775 704.986 303.775 703.786 309.475L699.286 330.575H693.686L697.786 311.375C698.586 307.675 697.786 306.275 694.986 306.275C692.686 306.275 690.086 308.075 689.286 311.775L685.286 330.575H679.686L687.586 293.375Z" fill="white"/><path fill-rule="evenodd" clip-rule="evenodd" d="M713.686 317.275L713.386 318.875C712.586 322.675 711.986 327.475 716.286 327.475C720.286 327.475 721.686 322.875 721.986 321.175H727.386C726.086 327.375 721.486 331.275 715.386 331.275C710.786 331.275 705.386 329.975 708.086 316.975C709.686 309.675 712.886 301.775 721.686 301.775C729.486 301.775 730.586 306.475 728.986 314.275L728.286 317.275H713.686ZM723.586 313.475L723.886 311.975C724.686 308.375 724.086 305.675 720.886 305.675C717.286 305.675 715.486 309.175 714.686 312.875L714.586 313.475H723.586Z" fill="white"/><path d="M91.1858 126.375C94.5858 115.475 106.386 72.575 113.586 54.375C116.986 45.675 117.486 35.975 115.986 26.875C115.986 25.275 111.786 24.875 111.486 22.175C107.486 22.475 107.186 31.6751 102.886 32.0751C102.386 37.975 94.0858 46.5751 93.4858 52.5751C93.0191 52.375 92.5524 52.2084 92.0858 52.0751C80.9858 77.4751 72.9858 111.775 66.7858 133.275C75.7858 129.775 88.8858 122.375 91.1858 126.375Z" fill="white"/><path d="M49.9857 184.075C48.9857 186.375 50.1858 190.475 49.0858 192.875C47.9858 195.475 44.8858 205.075 42.6858 205.675V209.375C40.1858 219.375 10.8858 286.575 1.98575 297.375C-0.614249 298.475 0.0857495 301.675 0.0857495 304.175C1.08575 304.475 5.38575 306.275 5.68575 306.275C6.68575 306.875 8.18575 305.875 8.68575 304.975C8.68575 305.375 8.18575 306.875 8.18575 307.275C9.98575 307.975 19.2857 308.975 21.2857 308.175C44.7858 266.475 63.2858 225.075 78.2858 179.975C72.3857 180.075 56.8857 179.475 49.9857 184.075Z" fill="white"/><path d="M153.886 114.275C167.386 87.075 183.186 59.175 205.986 36.375C204.686 30.975 212.986 19.775 214.586 13.475C217.486 13.275 219.986 5.375 220.186 2.375C217.286 -1.425 213.586 0.475001 209.886 0.475001C207.986 0.475001 196.686 11.375 194.886 13.375C178.386 31.275 164.486 51.975 151.086 72.275L148.686 71.675C144.186 88.775 134.186 103.875 125.786 119.775C134.686 118.775 149.886 122.275 153.886 114.275Z" fill="white"/><path d="M130.486 172.275L131.686 167.275C125.586 167.575 115.686 168.675 108.786 170.975C100.686 199.575 89.2858 242.775 94.6858 290.075L96.0858 291.875C96.0858 301.775 100.486 319.175 106.386 327.975C110.486 333.975 118.186 332.675 123.286 331.475C123.286 327.275 127.286 318.375 124.286 317.175V315.375C103.886 278.475 123.286 201.775 127.986 182.975V180.475C130.186 179.575 130.486 175.175 130.486 172.275Z" fill="white"/><path d="M624.786 113.775C624.486 117.875 630.786 120.075 633.586 121.075C641.786 117.575 653.686 108.775 653.686 99.0751C652.786 93.0751 637.086 88.375 634.086 89.875C632.586 91.975 625.386 110.375 624.786 113.775Z" fill="white"/><path fill-rule="evenodd" clip-rule="evenodd" d="M378.986 149.275C385.986 140.875 405.786 116.175 412.486 115.475C416.486 114.875 431.086 117.175 431.086 122.875C431.086 131.875 421.286 145.475 421.186 152.575C426.986 148.675 444.286 124.175 449.586 124.175C453.286 124.775 468.186 128.275 468.186 133.375C467.886 152.775 455.786 165.775 458.286 190.275C478.486 185.875 508.886 142.375 514.586 137.075C522.186 139.875 530.986 143.575 540.886 146.175C548.486 148.175 556.886 149.475 565.786 149.275C575.386 148.975 587.486 146.075 596.086 142.075C599.586 140.475 602.486 138.475 603.086 136.475C611.686 136.675 620.586 144.375 622.886 144.575C623.886 146.175 623.586 148.175 622.986 148.875C611.486 163.575 597.286 184.375 603.686 203.275C606.186 210.675 655.386 164.675 659.386 156.875C659.686 153.475 664.886 149.375 667.386 147.475C670.986 144.775 678.586 140.875 683.486 140.875C686.286 144.575 702.086 151.275 702.686 153.175V154.475C697.486 155.075 691.286 174.375 690.486 180.675L689.686 180.375V182.875C680.586 220.975 751.886 236.275 771.986 203.275C773.586 200.575 774.586 197.975 776.386 195.375C778.186 192.975 780.186 192.175 781.986 189.275C784.386 185.475 782.286 183.275 786.086 180.875C789.386 178.775 788.586 175.775 792.386 175.475C792.486 178.875 794.686 178.675 793.786 182.375C782.486 263.375 650.986 262.475 666.986 177.375C664.986 177.675 663.086 178.475 661.386 180.675C661.386 180.675 617.286 230.875 599.986 229.275C572.486 226.775 583.086 180.075 585.686 166.775C575.886 167.975 566.786 169.975 555.386 167.975C555.386 184.675 553.186 228.175 527.586 228.075C506.586 227.975 495.386 207.575 495.386 189.075C494.686 190.675 467.186 213.375 464.486 215.075C461.686 216.775 455.486 219.275 450.686 218.375C437.386 215.875 435.686 197.775 436.586 187.875L438.986 161.875C430.386 162.075 402.886 229.975 385.286 222.475C381.486 220.875 381.386 209.375 383.386 198.775C386.586 181.775 395.486 160.775 396.786 157.675C393.186 159.175 387.486 168.075 385.286 171.675C373.386 190.375 351.386 235.475 333.886 239.175C324.886 241.075 324.186 220.875 326.886 213.575C332.086 199.475 340.886 172.675 346.886 158.775C347.186 158.175 347.186 157.575 346.886 156.875C341.286 155.875 333.086 166.375 329.786 170.175C315.686 188.275 304.186 206.175 291.986 222.075C283.986 232.375 269.486 248.375 254.986 247.775C237.986 247.075 234.086 224.975 233.986 212.575C214.186 230.075 198.586 250.775 173.586 249.075C135.186 246.475 159.886 194.275 173.586 178.175C181.386 168.975 191.886 157.275 198.186 151.875C169.186 148.075 50.4857 153.175 30.6857 188.075C28.6857 186.675 27.2857 186.475 25.7857 187.475C26.0857 185.975 26.6857 184.575 25.7857 183.075C17.1857 179.975 11.9857 168.675 8.18572 160.875C8.11905 160.675 8.05238 160.508 7.98572 160.375C13.9857 163.075 36.3857 153.975 42.1857 152.075C113.486 128.475 178.286 123.275 252.486 131.575C254.386 131.675 254.486 132.275 254.886 134.175C257.586 129.775 272.886 133.675 276.286 135.175C278.586 136.175 278.786 137.375 277.886 139.475C272.786 151.175 265.986 162.075 261.086 173.875C258.786 179.475 246.286 218.675 258.886 219.275C280.286 219.475 311.286 154.675 333.086 135.275C344.886 124.775 358.586 120.575 370.986 129.175C378.286 134.175 369.086 155.075 367.286 161.275C370.386 160.875 376.786 151.975 378.986 149.275ZM222.386 156.075C220.486 158.175 200.586 174.275 187.986 191.375C174.586 209.375 175.886 218.975 177.886 222.475C185.086 234.775 219.386 197.575 224.986 191.175C229.886 185.575 251.286 154.575 251.286 147.675C247.186 146.475 244.186 146.775 240.486 147.675C235.986 148.775 226.286 157.975 222.386 156.075ZM527.586 201.475C536.886 202.275 538.086 166.975 537.086 162.975C536.486 162.275 535.186 162.175 534.486 161.775C534.086 160.475 535.586 158.475 534.886 157.475C533.586 155.275 531.686 153.875 529.186 153.475C521.486 152.375 510.886 199.975 527.586 201.475Z" fill="white"/></svg>
