<svg viewBox="0 0 3710 3224" fill="none" xmlns="http://www.w3.org/2000/svg">
<path d="M590.105 3056.33C672.333 2792.72 957.712 1755.2 1131.84 1315.04C1214.07 1104.63 1226.16 870.042 1189.88 649.962C1189.88 611.266 1088.31 601.593 1081.05 536.294C984.314 543.55 977.059 766.048 873.065 775.722C860.973 918.411 660.24 1126.4 645.73 1271.51C634.443 1266.67 623.157 1262.64 611.871 1259.41C343.422 1873.7 149.945 2703.24 0 3223.21C217.662 3138.56 534.48 2959.59 590.105 3056.33Z" fill="#E5F7FB"/>
<path d="M2106.48 2763.7C2432.97 2105.88 2815.09 1431.13 3366.5 879.716C3335.06 749.119 3535.79 478.251 3574.49 325.888C3644.62 321.051 3705.08 129.992 3709.92 57.4385C3639.78 -34.4631 3550.3 11.4877 3460.82 11.4877C3414.87 11.4877 3141.58 275.1 3098.05 323.47C2699 756.375 2362.84 1257 2038.76 1747.94L1980.72 1733.43C1871.89 2146.99 1630.04 2512.18 1426.89 2896.72C1642.13 2872.53 2009.74 2957.18 2106.48 2763.7Z" fill="#E5F7FB"/>
</svg>
