<svg width="319" height="420" viewBox="0 0 319 420" fill="none" xmlns="http://www.w3.org/2000/svg">
<path d="M114.992 159.636C119.279 145.867 134.16 91.6759 143.239 68.6859C147.527 57.6961 148.158 45.4432 146.266 33.9482C146.266 31.9271 140.969 31.4218 140.591 28.0112C135.547 28.3901 135.169 40.0115 129.746 40.5168C129.115 47.9696 118.649 58.833 117.892 66.4121C117.304 66.1595 116.715 65.949 116.127 65.7805C102.129 97.8656 92.0403 141.193 84.2217 168.352C95.5712 163.93 112.091 154.583 114.992 159.636Z" fill="#EC1063"/>
<path d="M63.0351 232.522C61.774 235.427 63.2873 240.606 61.9002 243.638C60.513 246.922 56.6037 259.049 53.8294 259.807V264.481C50.6767 277.112 13.7276 361.999 2.50415 375.641C-0.774606 377.031 0.108135 381.073 0.108135 384.231C1.3692 384.61 6.79176 386.884 7.17008 386.884C8.43114 387.642 10.3227 386.378 10.9533 385.242C10.9533 385.747 10.3227 387.642 10.3227 388.147C12.5926 389.031 24.3205 390.294 26.8426 389.284C56.4776 336.609 79.8072 284.313 98.7232 227.343C91.2829 227.469 71.7364 226.711 63.0351 232.522Z" fill="#8DC63F"/>
<path d="M194.06 144.351C211.084 109.992 231.009 74.7493 259.761 45.9485C258.122 39.1273 268.589 24.9796 270.606 17.0215C274.263 16.7688 277.416 6.78964 277.668 3.00007C274.011 -1.80005 269.345 0.600017 264.679 0.600017C262.283 0.600017 248.033 14.3688 245.764 16.8952C224.956 39.5063 207.427 65.6543 190.529 91.297L187.502 90.5391C181.828 112.14 169.217 131.214 158.624 151.299C169.848 150.035 189.016 154.457 194.06 144.351Z" fill="#682F74"/>
<path d="M164.55 217.616L166.063 211.3C158.371 211.679 145.886 213.068 137.185 215.974C126.971 252.101 112.594 306.671 119.404 366.42L121.17 368.693C121.17 381.199 126.718 403.178 134.159 414.294C139.329 421.874 149.039 420.231 155.471 418.716C155.471 413.41 160.515 402.168 156.732 400.652V398.378C131.006 351.767 155.471 254.88 161.398 231.132V227.974C164.172 226.837 164.55 221.279 164.55 217.616Z" fill="#006673"/>
<path d="M269.592 181.868C260.199 184.217 252.823 189.019 249.365 191.776C249.554 191.799 249.741 191.823 249.925 191.847C246.324 194.939 246.498 194.06 249.365 191.776C211.853 187.113 63.5404 193.711 38.6968 237.574C36.1747 235.806 34.4092 235.553 32.5176 236.817C32.896 234.922 33.6526 233.153 32.5176 231.259C21.6725 227.343 15.115 213.069 10.323 203.216C10.2389 202.963 10.1548 202.753 10.0707 202.584C17.6371 205.995 45.8849 194.5 53.1991 192.1C143.113 162.288 224.83 155.72 318.4 166.204C320.796 166.331 286.267 170.879 286.772 173.279L269.592 181.868Z" fill="#00B8DD"/>
</svg>
