<svg xmlns="http://www.w3.org/2000/svg" viewBox="0 0 55.5 48.48"><path d="M55.24,15.56l-8-5.67V1.59A1.77,1.77,0,0,0,45.67,0H10.46A1.77,1.77,0,0,0,8.93,1.59V9.82L.57,15.56a1.4,1.4,0,0,0-.57,1v30.3a1.85,1.85,0,0,0,1.6,1.6H54.54c.7,0,1-.83,1-1.6V16.58C55.49,16.2,55.56,15.82,55.24,15.56Zm-8-2.62,5.49,3.77L47.2,20.86ZM11.48,2.54H44.65V22.83L28.07,35.34,11.48,22.84V2.55ZM8.93,12.88v8L3.44,16.71ZM2.55,19.33,20.41,32.85,2.55,44.91Zm3.06,26.6,17-11.42L27.11,38a1.53,1.53,0,0,0,.89.32c.26,0,.38-.13.64-.32l4.72-3.63L50.52,45.93Zm47.33-1.47L35.47,32.72,52.94,19.33Z" style="fill:#fff"/><path d="M17.86,10.84H23.6a1.28,1.28,0,0,0,.07-2.55H17.86a1.28,1.28,0,0,0,0,2.55Z" style="fill:#fff"/><path d="M17.86,16.58H38.27a1.28,1.28,0,0,0,0-2.55H17.86a1.28,1.28,0,0,0-1.24,1.31A1.27,1.27,0,0,0,17.86,16.58Z" style="fill:#fff"/><path d="M39.55,21.05a1.28,1.28,0,0,0-1.28-1.28H17.86a1.28,1.28,0,0,0-1.24,1.32,1.26,1.26,0,0,0,1.24,1.23H38.27A1.27,1.27,0,0,0,39.55,21.05Z" style="fill:#fff"/></svg>