<svg xmlns="http://www.w3.org/2000/svg" width="52.657" height="52.145"><path data-name="Tracé 743" d="M52.224 6.39 46.007.461A1.261 1.261 0 0 0 45.069 0h-24.9a1.321 1.321 0 0 0-1.319 1.319v4.05l-8.776 1.5a1.3 1.3 0 0 0-1.055 1.5l.445 2.6c-2.853.96-5.781 1.95-8.609 2.965a1.306 1.306 0 0 0-.78 1.659L5.7 31.229a.771.771 0 1 0 1.45-.522l-5.541-15.4c2.664-.957 5.423-1.89 8.119-2.8l2.65 15.452 3.05 17.8a1.307 1.307 0 0 0 1.5 1.058l8.26-1.418 6.455-1.106-9.708 3.489-7.655 2.752-5.946-16.538a.771.771 0 1 0-1.452.522l6.03 16.772a1.3 1.3 0 0 0 1.221.855 1.276 1.276 0 0 0 .439-.078l7.885-2.835 17.9-6.436 3.421-.586h7.556a1.322 1.322 0 0 0 1.319-1.322V7.259a1.11 1.11 0 0 0-.433-.869Zm-2.044.183h-3.955c-.185 0-.617 0-.727-.1a.434.434 0 0 1-.055-.266l-.009-4.157Zm.934 34.095H20.392V25.634a.771.771 0 0 0-1.543 0v15.254a1.322 1.322 0 0 0 1.319 1.319H34.65l-9.724 1.667-8.02 1.376L13.9 27.701 10.58 8.352l8.269-1.418v15.121a.771.771 0 0 0 1.543 0V1.543h23.5l.008 4.664a1.837 1.837 0 0 0 .511 1.359 2.359 2.359 0 0 0 1.714.553h4.99Z" fill="#fff"/></svg>