<svg width="295" height="206" viewBox="0 0 295 206" fill="none" xmlns="http://www.w3.org/2000/svg">
<mask id="path-1-inside-1_244_5" fill="white">
<path fill-rule="evenodd" clip-rule="evenodd" d="M262.606 6.33144C275.204 9.72332 285.137 19.6567 288.529 32.2551C294.828 55.2715 294.586 103.242 294.586 103.242C294.586 103.242 294.586 150.971 288.529 173.987C285.137 186.586 275.204 196.519 262.606 199.911C239.589 205.968 147.524 205.968 147.524 205.968C147.524 205.968 55.7007 205.968 32.442 199.669C19.8436 196.277 9.91024 186.344 6.51836 173.745C0.461426 150.971 0.461426 103 0.461426 103C0.461426 103 0.461426 55.2715 6.51836 32.2551C9.91024 19.6567 20.0859 9.48105 32.442 6.08916C55.4584 0.0322266 147.524 0.0322266 147.524 0.0322266C147.524 0.0322266 239.589 0.0322266 262.606 6.33144ZM194.768 103L118.208 147.095V58.9058L194.768 103Z"/>
</mask>
<path fill-rule="evenodd" clip-rule="evenodd" d="M262.606 6.33144C275.204 9.72332 285.137 19.6567 288.529 32.2551C294.828 55.2715 294.586 103.242 294.586 103.242C294.586 103.242 294.586 150.971 288.529 173.987C285.137 186.586 275.204 196.519 262.606 199.911C239.589 205.968 147.524 205.968 147.524 205.968C147.524 205.968 55.7007 205.968 32.442 199.669C19.8436 196.277 9.91024 186.344 6.51836 173.745C0.461426 150.971 0.461426 103 0.461426 103C0.461426 103 0.461426 55.2715 6.51836 32.2551C9.91024 19.6567 20.0859 9.48105 32.442 6.08916C55.4584 0.0322266 147.524 0.0322266 147.524 0.0322266C147.524 0.0322266 239.589 0.0322266 262.606 6.33144ZM194.768 103L118.208 147.095V58.9058L194.768 103Z" fill="white"/>
<path d="M288.529 32.2551L286.598 32.7751L286.6 32.7831L288.529 32.2551ZM262.606 6.33144L262.078 8.26051L262.086 8.26267L262.606 6.33144ZM294.586 103.242L292.586 103.232V103.242H294.586ZM288.529 173.987L290.461 174.507L290.463 174.496L288.529 173.987ZM262.606 199.911L263.115 201.845L263.126 201.842L262.606 199.911ZM32.442 199.669L32.9649 197.738L32.962 197.738L32.442 199.669ZM6.51836 173.745L4.58554 174.259L4.58713 174.265L6.51836 173.745ZM6.51836 32.2551L4.5871 31.7352L4.58421 31.7461L6.51836 32.2551ZM32.442 6.08916L31.9331 4.15501L31.9228 4.15771L31.9126 4.16051L32.442 6.08916ZM118.208 147.095H116.208V150.555L119.206 148.828L118.208 147.095ZM194.768 103L195.766 104.733L198.775 103L195.766 101.267L194.768 103ZM118.208 58.9058L119.206 57.1727L116.208 55.4459V58.9058H118.208ZM290.46 31.7352C286.883 18.4484 276.412 7.97741 263.126 4.40021L262.086 8.26267C273.996 11.4692 283.391 20.865 286.598 32.7751L290.46 31.7352ZM294.586 103.242C296.586 103.253 296.586 103.252 296.586 103.252C296.586 103.251 296.586 103.251 296.586 103.25C296.586 103.248 296.586 103.246 296.586 103.243C296.586 103.237 296.586 103.227 296.586 103.216C296.586 103.192 296.587 103.156 296.587 103.11C296.587 103.017 296.587 102.879 296.587 102.699C296.588 102.339 296.587 101.81 296.584 101.128C296.579 99.7644 296.563 97.793 296.525 95.3561C296.449 90.4833 296.282 83.7448 295.918 76.2823C295.191 61.4193 293.672 43.4711 290.458 31.7272L286.6 32.7831C289.685 44.0555 291.195 61.601 291.922 76.4775C292.284 83.8848 292.45 90.5775 292.526 95.4185C292.564 97.8385 292.579 99.7946 292.584 101.145C292.587 101.82 292.588 102.343 292.587 102.697C292.587 102.874 292.587 103.008 292.587 103.098C292.587 103.143 292.586 103.177 292.586 103.2C292.586 103.211 292.586 103.219 292.586 103.225C292.586 103.227 292.586 103.229 292.586 103.231C292.586 103.231 292.586 103.232 292.586 103.232C292.586 103.232 292.586 103.232 294.586 103.242ZM290.463 174.496C293.551 162.765 295.07 144.889 295.826 130.086C296.206 122.655 296.396 115.948 296.491 111.099C296.539 108.674 296.562 106.712 296.574 105.356C296.58 104.677 296.583 104.15 296.585 103.792C296.585 103.613 296.586 103.476 296.586 103.384C296.586 103.338 296.586 103.303 296.586 103.279C296.586 103.267 296.586 103.258 296.586 103.252C296.586 103.249 296.586 103.247 296.586 103.245C296.586 103.244 296.586 103.244 296.586 103.243C296.586 103.243 296.586 103.242 294.586 103.242C292.586 103.242 292.586 103.242 292.586 103.243C292.586 103.243 292.586 103.243 292.586 103.244C292.586 103.245 292.586 103.247 292.586 103.25C292.586 103.256 292.586 103.264 292.586 103.275C292.586 103.297 292.586 103.331 292.586 103.376C292.586 103.466 292.585 103.6 292.585 103.776C292.583 104.128 292.58 104.649 292.574 105.321C292.563 106.664 292.539 108.611 292.492 111.02C292.398 115.84 292.209 122.503 291.832 129.882C291.074 144.697 289.565 162.193 286.595 173.478L290.463 174.496ZM263.126 201.842C276.412 198.265 286.883 187.794 290.46 174.507L286.598 173.467C283.391 185.378 273.996 194.773 262.086 197.98L263.126 201.842ZM147.524 205.968C147.524 207.968 147.524 207.968 147.525 207.968C147.526 207.968 147.527 207.968 147.528 207.968C147.531 207.968 147.535 207.968 147.541 207.968C147.552 207.968 147.569 207.968 147.592 207.968C147.636 207.968 147.703 207.968 147.791 207.968C147.966 207.968 148.227 207.967 148.568 207.967C149.249 207.965 150.251 207.962 151.534 207.956C154.1 207.944 157.79 207.921 162.29 207.873C171.289 207.779 183.529 207.589 196.492 207.21C209.452 206.831 223.149 206.262 235.057 205.408C246.91 204.557 257.156 203.413 263.115 201.845L262.097 197.977C256.547 199.437 246.654 200.565 234.771 201.418C222.943 202.267 209.309 202.834 196.375 203.212C183.445 203.59 171.23 203.779 162.248 203.873C157.757 203.921 154.074 203.944 151.515 203.956C150.236 203.962 149.237 203.965 148.559 203.967C148.22 203.967 147.961 203.968 147.787 203.968C147.699 203.968 147.634 203.968 147.59 203.968C147.568 203.968 147.551 203.968 147.54 203.968C147.535 203.968 147.53 203.968 147.528 203.968C147.526 203.968 147.525 203.968 147.525 203.968C147.524 203.968 147.524 203.968 147.524 205.968ZM31.9192 201.599C37.9421 203.23 48.2217 204.42 60.0871 205.305C72.0078 206.194 85.6989 206.786 98.6441 207.18C111.592 207.574 123.811 207.771 132.791 207.869C137.282 207.919 140.963 207.943 143.523 207.956C144.803 207.962 145.803 207.965 146.482 207.966C146.822 207.967 147.082 207.968 147.257 207.968C147.345 207.968 147.411 207.968 147.456 207.968C147.478 207.968 147.495 207.968 147.507 207.968C147.512 207.968 147.516 207.968 147.519 207.968C147.521 207.968 147.522 207.968 147.523 207.968C147.523 207.968 147.524 207.968 147.524 205.968C147.524 203.968 147.524 203.968 147.523 203.968C147.522 203.968 147.521 203.968 147.52 203.968C147.517 203.968 147.513 203.968 147.508 203.968C147.497 203.968 147.48 203.968 147.458 203.968C147.414 203.968 147.349 203.968 147.262 203.968C147.088 203.968 146.83 203.967 146.491 203.966C145.815 203.965 144.819 203.962 143.542 203.956C140.99 203.943 137.316 203.919 132.835 203.87C123.872 203.771 111.681 203.575 98.7658 203.182C85.8478 202.788 72.2221 202.199 60.3845 201.316C48.4916 200.429 38.5713 199.257 32.9649 197.738L31.9192 201.599ZM4.58713 174.265C8.16433 187.552 18.6354 198.023 31.9221 201.6L32.962 197.738C21.0519 194.531 11.6562 185.135 8.44959 173.225L4.58713 174.265ZM0.461426 103C-1.53857 103 -1.53857 103 -1.53857 103.001C-1.53857 103.001 -1.53857 103.002 -1.53857 103.003C-1.53857 103.004 -1.53857 103.007 -1.53857 103.01C-1.53857 103.016 -1.53856 103.025 -1.53855 103.037C-1.53853 103.061 -1.53848 103.096 -1.53839 103.142C-1.5382 103.235 -1.53782 103.373 -1.53708 103.553C-1.53559 103.913 -1.53261 104.442 -1.52667 105.123C-1.51478 106.486 -1.49103 108.456 -1.44355 110.89C-1.34862 115.759 -1.15875 122.488 -0.778859 129.934C-0.0221584 144.766 1.49678 162.645 4.58555 174.259L8.45117 173.231C5.483 162.071 3.97348 144.578 3.21594 129.73C2.83872 122.337 2.65003 115.651 2.55569 110.812C2.50852 108.394 2.48495 106.438 2.47318 105.088C2.46729 104.414 2.46435 103.89 2.46289 103.536C2.46215 103.359 2.46179 103.224 2.46161 103.134C2.46152 103.089 2.46147 103.055 2.46145 103.033C2.46144 103.022 2.46143 103.013 2.46143 103.008C2.46143 103.005 2.46143 103.003 2.46143 103.002C2.46143 103.001 2.46143 103.001 2.46143 103C2.46143 103 2.46143 103 0.461426 103ZM4.58421 31.7461C1.49702 43.4775 -0.0220436 61.3535 -0.778849 76.1566C-1.15874 83.5874 -1.34862 90.2945 -1.44355 95.1437C-1.49103 97.5688 -1.51478 99.5304 -1.52667 100.887C-1.53261 101.565 -1.53559 102.092 -1.53708 102.45C-1.53782 102.629 -1.5382 102.766 -1.53839 102.858C-1.53848 102.905 -1.53853 102.94 -1.53855 102.963C-1.53856 102.975 -1.53857 102.984 -1.53857 102.99C-1.53857 102.993 -1.53857 102.996 -1.53857 102.997C-1.53857 102.998 -1.53857 102.999 -1.53857 102.999C-1.53857 103 -1.53857 103 0.461426 103C2.46143 103 2.46143 103 2.46143 103C2.46143 103 2.46143 102.999 2.46143 102.998C2.46143 102.997 2.46143 102.995 2.46143 102.992C2.46143 102.987 2.46144 102.979 2.46145 102.967C2.46147 102.945 2.46152 102.911 2.46161 102.867C2.46179 102.777 2.46215 102.643 2.46289 102.467C2.46435 102.115 2.46729 101.594 2.47318 100.922C2.48495 99.5782 2.50852 97.6312 2.55568 95.222C2.65003 90.4029 2.83871 83.7393 3.21593 76.3609C3.97336 61.5456 5.48277 44.0491 8.45251 32.7641L4.58421 31.7461ZM31.9126 4.16051C18.8698 7.74088 8.16271 18.4545 4.58713 31.7352L8.44959 32.7751C11.6578 20.8589 21.302 11.2212 32.9715 8.01781L31.9126 4.16051ZM147.524 0.0322266C147.524 -1.96777 147.523 -1.96777 147.523 -1.96777C147.522 -1.96777 147.521 -1.96777 147.519 -1.96777C147.516 -1.96777 147.512 -1.96777 147.507 -1.96777C147.495 -1.96777 147.478 -1.96776 147.456 -1.96775C147.411 -1.96773 147.345 -1.96768 147.257 -1.96759C147.081 -1.9674 146.821 -1.96703 146.48 -1.96629C145.798 -1.96481 144.797 -1.96185 143.514 -1.95592C140.948 -1.94408 137.258 -1.92039 132.758 -1.87302C123.759 -1.7783 111.518 -1.58883 98.5556 -1.2098C85.5959 -0.830862 71.8984 -0.26201 59.9904 0.592627C48.1377 1.4433 37.8916 2.58698 31.9331 4.15501L32.951 8.02331C38.5007 6.56287 48.3939 5.4352 60.2768 4.58236C72.1044 3.73349 85.7389 3.16667 98.6725 2.78849C111.603 2.4104 123.817 2.22131 132.8 2.12676C137.291 2.07948 140.973 2.05585 143.532 2.04404C144.812 2.03813 145.81 2.03518 146.489 2.0337C146.828 2.03296 147.087 2.03259 147.261 2.03241C147.348 2.03232 147.414 2.03227 147.458 2.03225C147.48 2.03224 147.497 2.03223 147.508 2.03223C147.513 2.03223 147.517 2.03223 147.52 2.03223C147.521 2.03223 147.522 2.03223 147.523 2.03223C147.524 2.03223 147.524 2.03223 147.524 0.0322266ZM263.134 4.40238C257.168 2.76971 246.915 1.57994 235.063 0.695255C223.153 -0.193686 209.455 -0.785335 196.494 -1.17945C183.531 -1.57366 171.29 -1.77071 162.291 -1.86923C157.791 -1.91849 154.1 -1.94313 151.534 -1.95545C150.251 -1.96161 149.249 -1.96469 148.568 -1.96623C148.227 -1.967 147.966 -1.96739 147.791 -1.96758C147.703 -1.96768 147.636 -1.96772 147.592 -1.96775C147.569 -1.96776 147.552 -1.96777 147.541 -1.96777C147.535 -1.96777 147.531 -1.96777 147.528 -1.96777C147.527 -1.96777 147.526 -1.96777 147.525 -1.96777C147.524 -1.96777 147.524 -1.96777 147.524 0.0322266C147.524 2.03223 147.524 2.03223 147.525 2.03223C147.525 2.03223 147.526 2.03223 147.528 2.03223C147.53 2.03223 147.535 2.03223 147.54 2.03223C147.551 2.03223 147.568 2.03224 147.59 2.03225C147.634 2.03227 147.699 2.03232 147.786 2.03242C147.961 2.03261 148.22 2.03299 148.559 2.03376C149.237 2.03529 150.236 2.03836 151.515 2.04451C154.074 2.05679 157.756 2.08137 162.247 2.13053C171.229 2.22887 183.443 2.42552 196.373 2.8187C209.306 3.21199 222.939 3.80145 234.765 4.68416C246.648 5.57113 256.535 6.74356 262.078 8.2605L263.134 4.40238ZM119.206 148.828L195.766 104.733L193.77 101.267L117.21 145.362L119.206 148.828ZM116.208 58.9058V147.095H120.208V58.9058H116.208ZM195.766 101.267L119.206 57.1727L117.21 60.6389L193.77 104.733L195.766 101.267Z" fill="white" mask="url(#path-1-inside-1_244_5)"/>
</svg>
