<svg width="382" height="140" viewBox="0 0 382 140" fill="none" xmlns="http://www.w3.org/2000/svg">
<path opacity="0.99" fill-rule="evenodd" clip-rule="evenodd" d="M64.2131 75.5624C59.6391 71.0958 60.894 80.9794 55.6471 77.3257C50.4003 73.672 60.1028 71.4178 54.3263 68.6766C48.5497 65.9354 52.9342 74.8732 46.7855 73.1194C40.6368 71.3655 49.0774 66.0953 42.7243 65.3765C36.3711 64.6578 43.4308 71.68 37.0465 72.016C30.6623 72.3521 36.92 64.6254 30.6788 66.007C24.4375 67.3886 33.4032 71.7445 27.4752 74.134C21.5471 76.5235 24.9439 67.1766 19.4908 70.5089C14.0377 73.8411 23.9259 75.0724 19.0965 79.2565C14.2672 83.4405 14.4665 73.4777 10.3926 78.3994C6.31864 83.3212 16.0741 81.277 12.8667 86.8022C9.65937 92.3275 6.58368 82.8536 4.33037 88.8315C2.07705 94.8095 10.6447 89.7058 9.40685 95.9734C8.16905 102.241 2.1926 94.2663 2.00406 100.653C1.81553 107.039 8.24523 99.4344 9.11113 105.765C9.97703 112.096 1.74366 106.489 3.64037 112.592C5.53706 118.695 9.1334 109.416 12.0092 115.124C14.8849 120.832 5.29533 118.201 9.0717 123.359C12.8481 128.517 13.2411 118.567 17.8151 123.034C22.3891 127.5 12.4401 128.138 17.6869 131.791C22.9337 135.445 20.0919 125.898 25.8684 128.639C31.645 131.38 22.4403 135.199 28.589 136.953C34.7377 138.707 28.9388 130.6 35.2919 131.318C41.6451 132.037 34.1911 138.649 40.5754 138.313C46.9597 137.977 38.8291 132.188 45.0703 130.806C51.3116 129.425 46.4071 138.092 52.3351 135.702C58.2631 133.313 48.7155 130.484 54.1686 127.152C59.6216 123.819 57.8066 133.591 62.6359 129.407C67.4653 125.223 57.5073 125.65 61.5812 120.729C65.6551 115.807 67.1073 125.663 70.3147 120.138C73.5221 114.612 64.2466 118.225 66.5 112.247C68.7533 106.269 73.3352 115.116 74.573 108.849C75.8108 102.581 68.204 109.019 68.3925 102.633C68.5811 96.2463 75.7938 103.142 74.9279 96.8107C74.062 90.4799 68.9585 99.0321 67.0618 92.9295C65.1651 86.8269 74.2255 91.003 71.3497 85.2951C68.4739 79.5871 66.4419 89.3395 62.6655 84.1819C58.8891 79.0243 68.7871 80.029 64.2131 75.5624ZM57.6186 86.0536C65.3083 95.1085 65.4297 108.403 57.9537 117.576L44.1832 103.815C44.7378 102.426 44.7377 100.869 44.1832 99.4803L57.6186 86.0536ZM54.346 82.8225L40.9303 96.2295C39.5406 95.6754 37.9827 95.6753 36.5931 96.2295L23.207 82.852C32.2485 75.491 45.2982 75.4748 54.346 82.8225ZM41.0683 99.3424L41.0584 103.943H36.465V99.3523L41.0683 99.3424ZM19.9245 86.0733L33.3402 99.4803C32.7858 100.869 32.7857 102.426 33.3402 103.815L19.5795 117.567C12.1247 108.399 12.2485 95.1202 19.9245 86.0733ZM40.9303 107.066L54.7304 120.857C45.542 128.641 31.9878 128.637 22.8028 120.847L36.5931 107.066C37.9826 107.62 39.5407 107.62 40.9303 107.066Z" fill="white" stroke="white" stroke-width="2.5" stroke-linejoin="round"/>
<path fill-rule="evenodd" clip-rule="evenodd" d="M185.961 71.325C185.117 71.322 184.272 71.4745 183.518 71.7953C181.886 72.6208 179.447 74.6978 177.316 74.6978C173.609 74.6978 171.199 75.5543 168.26 76.1491C166.748 76.4551 162.039 77.6066 161.102 78.5544C159.632 80.0419 156.924 83.1549 155.857 85.3135C155.05 86.9467 153.818 88.9139 151.568 90.6213C147.789 93.4892 145.214 92.7105 142.033 95.9292C140.416 97.5656 139.054 99.1588 136.31 100.27C135.013 100.795 131.942 102.284 130.587 103.656C128.255 106.015 126.136 106.11 123.111 106.075L113 123.235C113 128.81 123.381 121.054 123.881 126.325H249.953L257 123.235C253.329 123.281 243.96 106.298 241.348 103.656C239.993 102.284 236.923 100.795 235.625 100.27C232.881 99.1588 231.519 97.5656 229.902 95.9292C226.721 92.7105 224.146 93.4892 220.367 90.6213C218.118 88.9139 216.872 86.9467 216.065 85.3135C214.998 83.1549 212.289 80.0419 210.819 78.5544C209.883 77.6066 205.187 76.4551 203.675 76.1491C200.737 75.5543 198.313 74.6978 194.606 74.6978C192.474 74.6978 190.036 72.6208 188.404 71.7953C187.649 71.4866 186.805 71.328 185.961 71.325Z" fill="white"/>
<path d="M287.295 74.6201L288.12 69.9619L290.248 75.5977C290.256 77.4592 289.515 82.718 291.954 76.8821L293.487 73.2782L295.174 71.6296L295.078 75.7511L293.679 78.8373C293.43 82.5923 295.488 82.6461 297.244 78.8948L301.385 75.0993L302.248 80.7734C300.632 82.2611 299.037 83.6422 297.302 85.6041C295.956 87.1477 295.281 87.9937 295.596 90.4731C295.872 94.5293 296.108 98.1925 296.075 105.272C296.057 109.11 296.01 114.176 297.034 118.671C297.474 120.603 298.157 122.416 298.874 124L282.618 124.192C283.454 122.861 284.338 122.674 284.727 119.745C285.567 113.408 284.864 106.79 284.688 102.837C284.513 98.8847 284.81 99.5701 284.918 96.0131L284.631 88.192C284.727 85.4197 283.092 84.5456 282.196 83.4188L278.324 78.6073L279.915 72.3964L282.158 76.1728L284.439 78.5881C286.37 81.4742 287.255 78.597 287.238 77.0162L287.295 74.6201Z" fill="white" stroke="white" stroke-width="1.376"/>
<path fill-rule="evenodd" clip-rule="evenodd" d="M282.728 74.3437C281.873 74.3437 281.161 72.9167 281.018 74.1154C280.876 75.3141 281.951 76.7573 281.619 77.8419C281.286 78.9264 280.051 76.529 279.149 77.1569C278.246 77.7848 279.403 80.9082 278.548 81.6502C277.693 82.3923 277.171 80.7369 276.268 81.4219C275.366 82.1069 275.889 83.3056 274.939 84.3902C273.989 85.4747 273.609 85.8173 272.469 85.7602C271.329 85.7031 271.661 83.8764 270.379 84.1619C269.096 84.4473 268.194 86.9018 267.339 86.9018C266.484 86.9018 267.434 84.3902 266.959 84.1619C266.484 83.9335 265.962 85.8743 265.439 85.9885C264.917 86.1026 265.247 84.018 264.869 84.6185C264.027 85.9544 263.443 86.3735 262.589 86.4452C261.929 86.5006 262.916 83.9344 262.209 84.3902C261.174 85.0576 260.41 86.4712 259.169 86.6735C258.364 86.8049 259.549 84.8469 258.979 84.8469C258.409 84.8469 257.459 86.9018 256.889 86.6735C256.32 86.4452 257.127 84.6185 256.699 83.9335C256.272 83.2485 255.56 84.5044 255.18 83.9335C254.8 83.3627 255.417 82.3352 255.18 81.6502C254.942 80.9653 254.189 82.2462 254.23 81.1936C254.286 79.7351 255.537 78.8512 256.32 77.5403C256.714 76.8789 254.087 78.2824 254.04 77.5403C253.992 76.7982 256.675 74.4035 256.13 74.572C254.649 75.0294 253.391 76.5049 251.76 77.5403C250.605 78.2731 251.285 75.942 250.81 75.7137C250.335 75.4854 250.62 76.3416 249.86 76.627C249.1 76.9124 248.217 77.6855 247.77 76.8553C247.028 75.4783 248.167 74.4128 248.53 72.9737C248.781 71.9773 249.2 70.8318 249.67 69.5488C249.952 68.7768 247.798 70.1656 248.15 69.3205C248.543 68.377 249.179 67.9644 251.38 66.3522C252.166 65.7763 248.388 64.4532 249.1 64.5256C250.912 64.7099 252.509 65.4717 254.23 66.5805C255.304 67.2731 253.897 64.4114 254.42 64.2973C254.942 64.1831 255.702 65.9526 256.32 66.1239C256.937 66.2951 256.415 65.6101 256.889 64.9822C257.364 64.3543 258.409 64.126 258.219 63.6123C258.029 63.0985 256.225 63.6693 256.13 62.9273C256.035 62.1852 258.219 60.7582 257.839 60.644C257.459 60.5298 255.655 62.5848 254.61 62.4706C253.565 62.3565 254.372 60.1302 253.66 60.1873C252.947 60.2444 252.567 62.699 251.76 62.699C250.952 62.699 251.57 60.644 250.43 60.1873C249.29 59.7307 247.627 61.2719 247.2 60.8723C246.772 60.4727 248.91 59.3882 248.72 58.589C248.53 57.7899 246.63 58.1324 246.44 57.6757C246.25 57.2191 247.722 57.2761 247.96 56.7624C248.197 56.2487 246.82 55.792 247.39 55.6208C247.96 55.4495 249.622 56.477 250.24 56.0774C250.857 55.6778 249.29 54.7074 249.86 54.0225C250.43 53.3375 252.757 53.5087 252.52 53.3375C252.282 53.1662 249.717 53.737 248.91 53.3375C248.102 52.9379 250.002 52.1387 249.29 51.7392C248.577 51.3396 246.488 52.4812 246.06 51.7392C245.633 50.9971 247.485 49.7984 247.58 48.7709C247.675 47.7434 246.203 48.3142 246.44 47.6293C246.678 46.9443 248.007 47.0584 248.53 46.031C249.052 45.0035 247.96 43.976 248.53 43.5193C249.1 43.0627 250.335 44.661 250.81 44.2043C251.285 43.7477 249.717 41.9781 250.43 41.6927C251.142 41.4073 253.042 43.4052 253.66 43.0627C254.277 42.7202 252.33 41.0077 252.9 40.3227C253.47 39.6377 255.132 40.6081 255.94 40.3227C256.747 40.0373 256.415 39.5807 256.13 39.1811C255.845 38.7815 254.99 39.1811 254.8 38.7244C254.61 38.2678 255.797 37.3544 255.37 37.3544C254.942 37.3544 253.802 38.8386 253.09 38.7244C252.377 38.6103 253.185 37.069 252.52 36.8978C251.855 36.7266 251.285 38.1536 250.43 38.0394C249.575 37.9253 249.907 36.7836 249.1 36.4411C248.292 36.0986 247.675 37.012 247.2 36.6695C246.725 36.327 246.725 35.4707 247.2 35.0712C247.675 34.6716 248.53 35.5278 249.1 35.0712C249.67 34.6145 248.957 33.4729 249.48 33.2445C250.002 33.0162 250.097 34.1578 251.19 34.1578C252.282 34.1578 253.707 33.8724 253.85 33.2445C253.992 32.6166 251.57 32.3312 251.76 31.6462C251.95 30.9612 254.23 31.1325 254.61 30.5046C254.99 29.8767 252.43 29.2757 253.28 29.1346C255.631 28.7444 259.126 28.7001 254.23 27.0796C253.475 26.8299 252.852 26.9084 252.14 26.1663C251.427 25.4243 250.905 24.8534 251.38 24.1114C251.855 23.3693 253.707 23.883 254.04 23.1981C254.372 22.5131 253.816 23.2961 254.006 22.6682C254.196 22.0403 255.811 22.4398 256.096 21.9832C256.381 21.5265 255.146 21.4124 255.146 20.8415C255.146 20.2707 255.327 19.9216 256.096 19.6999C258.869 18.9007 254.861 18.3299 254.956 17.6449C255.054 16.9408 256.476 17.7591 256.856 16.96C257.236 16.1608 256.096 15.1333 256.476 14.4483C256.856 13.7633 257.664 14.6767 258.376 14.22C259.089 13.7633 258.604 10.8632 259.326 12.6217C260.131 14.5833 261.893 18.0063 262.335 12.6724C262.622 9.20377 264.248 11.8635 264.836 12.3934C265.911 13.3623 264.076 14.4483 264.646 14.905C265.216 15.3616 266.356 13.7633 267.116 14.22C267.876 14.6767 267.353 16.3891 267.686 16.7316C268.018 17.0741 267.923 15.3616 268.446 15.59C268.968 15.8183 269.444 16.9743 269.776 17.6449C270.759 19.6339 271.641 17.2789 271.296 16.5033C271.003 15.8472 269.923 15.2652 269.966 14.4483C270.066 12.518 271.132 13.0908 271.676 14.22C272 14.8939 272.114 16.2646 272.625 15.8183C273.57 14.9942 272.691 13.9571 273.419 14.0649C274.052 14.1588 274.131 14.6928 273.989 13.1516C273.914 12.3487 274.025 11.1167 273.295 10.4314C272.354 9.54919 270.869 8.66567 272.849 7.90004C274.342 7.3225 273.704 6.07341 274.369 6.75839C275.034 7.44337 274.844 10.2404 275.509 10.64C276.173 11.0396 276.411 8.47086 277.028 8.35669C277.646 8.24252 278.067 11.3074 277.978 10.1833C277.857 8.64609 278.648 5.36664 280.828 6.07341C281.811 6.392 281.221 9.10951 281.398 9.955C281.583 10.8386 282.471 8.52247 282.728 9.27001C284.206 13.5684 284.293 10.9203 284.248 9.37986C284.231 8.79177 282.608 5.26441 283.298 5.04161C284.99 4.49539 286.307 7.22325 286.528 7.09657C286.647 7.02818 286.678 5.55962 286.887 4.08724C287.054 2.91659 287.333 1.74353 287.858 1.26987C288.233 0.931223 288.095 4.40939 288.428 4.6948C288.76 4.98022 288.706 3.43701 289.188 2.41152C290.09 0.490091 291.325 0.725033 292.038 1.95486C292.514 2.7766 291.422 5.70008 292.038 4.92313C292.667 4.12914 293.209 3.30928 293.748 2.6268C294.4 1.80014 295.04 1.12328 295.837 1.04154C296.833 0.939508 297.378 2.28291 296.2 3.54462C295.545 4.24601 296.08 5.41117 296.407 5.60812C297.167 6.06477 297.785 5.55534 298.877 4.81328C299.97 4.07121 300.034 4.11882 300.777 4.58495C302.142 5.44119 299.799 7.32691 299.637 8.23821C299.375 9.71723 301.453 12.5625 302.107 8.00989C302.302 6.65297 303.423 7.33831 304.387 7.44338C305.65 7.58111 306.736 8.48043 305.003 9.40573C303.163 10.3884 303.319 12.7568 305.527 11.7816C306.186 11.4906 306.157 9.51811 307.617 9.27001C308.143 9.18067 306.82 11.8597 307.617 11.325C308.27 10.8869 308.907 10.3257 309.633 9.89988C310.215 9.55893 310.855 9.30474 311.607 9.27001C313.081 9.20191 313.602 9.955 313.507 10.8683C313.412 11.7816 311.132 12.5808 311.227 12.9233C311.322 13.2658 312.984 12.01 313.887 12.2383C314.789 12.4666 314.077 14.0078 314.836 13.8366C315.596 13.6653 314.742 12.56 314.981 12.85C315.591 13.5893 314.009 14.9513 314.031 16.0466C314.087 18.7499 316.722 16.7869 318.021 15.3617C318.962 14.3296 319.731 16.3891 319.541 16.96C319.351 17.5308 317.451 17.1883 317.261 17.6449C317.071 18.1016 318.116 18.5012 318.781 18.7866C319.446 19.072 319.032 18.3001 319.792 18.0147C320.552 17.7293 322.011 17.017 321.821 17.6449C321.717 17.9873 321.196 18.837 320.81 19.7553C320.488 20.5213 320.26 21.3349 320.448 21.9414C320.835 23.1939 320.979 23.2499 320.301 24.4948C319.896 25.2379 318.116 24.0381 317.261 24.0381C316.406 24.0381 316.596 23.924 316.881 24.4948C317.166 25.0656 319.261 26.4388 318.401 26.3214C314.808 25.8312 313.015 25.7799 316.311 27.9197C316.978 28.3525 318.204 28.7461 317.261 29.2897C315.877 30.0877 313.96 31.4626 315.931 32.258C316.342 32.4235 317.356 30.6597 318.021 30.888C318.686 31.1163 318.084 33.6948 318.591 33.1713C319.396 32.3412 319.719 30.8667 320.871 30.203C321.849 29.6399 321.678 29.518 322.011 29.7464C322.343 29.9747 321.393 30.7168 322.201 31.1163C322.637 31.3323 323.919 30.786 325.081 30.3554C326.068 29.9893 326.968 29.7069 327.186 30.0479C327.661 30.79 325.464 33.0708 326.046 32.7879C327.556 32.0541 328.527 31.9436 329.656 32.1029C330.1 32.1655 327.898 32.7879 327.756 33.4729C327.613 34.1578 329.133 34.3862 329.086 34.8428C329.038 35.2995 327.558 34.3337 327.566 35.2995C327.577 36.5657 327.171 37.4609 326.806 38.4961C326.575 39.1513 327.898 38.8957 328.516 38.4961C329.133 38.0965 328.706 37.1261 329.276 36.8978C329.846 36.6695 330.273 37.012 330.796 37.5828C331.318 38.1536 330.606 38.9528 331.366 39.1811C332.126 39.4094 333.313 38.2678 333.836 38.4961C334.358 38.7244 332.791 39.4094 333.456 40.0944C334.121 40.7794 336.02 40.6652 336.495 41.236C336.97 41.8069 335.308 41.5215 335.355 42.3777C335.403 43.2339 336.78 43.6906 336.685 44.661C336.59 45.6314 335.64 46.2593 334.975 46.2593C334.311 46.2593 334.453 44.4326 334.026 44.661C333.598 44.8893 333.788 47.0014 333.266 47.1726C332.743 47.3438 332.363 45.2318 331.936 45.346C331.508 45.4601 331.128 46.773 331.556 47.6293C331.983 48.4855 332.648 48.6567 333.646 48.7709C334.643 48.8851 334.88 47.6863 335.545 48.0859C336.21 48.4855 335.925 48.9992 336.305 50.3692C336.685 51.7392 337.54 53.1091 337.065 53.5658C336.59 54.0225 335.165 51.7962 334.405 52.1958C333.646 52.5954 334.405 54.6504 334.026 55.1641C333.646 55.6778 333.456 54.1937 332.886 54.2508C332.316 54.3079 331.651 54.7645 331.746 55.3924C331.841 56.0203 333.076 56.0774 333.266 56.7624C333.456 57.4474 333.123 57.847 332.506 58.1324C331.888 58.4178 330.938 57.5616 330.796 57.904C330.653 58.2465 331.888 58.9886 331.936 59.5023C331.983 60.0161 330.558 59.274 330.986 59.959C331.413 60.644 332.933 61.1006 333.646 62.2423C334.358 63.3839 334.073 63.8977 333.836 64.5256C333.598 65.1535 333.313 65.0393 332.696 64.7539C332.078 64.4685 331.318 63.0985 331.366 63.3839C331.413 63.6693 332.648 64.8681 332.886 65.8956C333.123 66.923 332.791 67.3226 332.316 67.4939C331.841 67.6651 331.223 66.0668 330.986 66.5805C330.748 67.0943 331.986 69.2146 331.366 69.5488C329.864 70.3576 329.387 68.1782 328.516 67.9505C328.009 67.818 329.85 70.4096 329.276 71.1471C328.491 72.1553 326.759 70.4471 326.236 70.9188C325.664 71.4345 325.696 73.6318 324.336 74.1154C323.645 74.3612 323.909 72.1746 323.576 72.2888C323.244 72.4029 323.529 74.1154 323.006 74.572C322.484 75.0287 321.534 73.5446 321.486 74.1154C321.439 74.6862 323.196 76.1133 322.816 76.8553C322.436 77.5974 320.394 76.2274 319.966 77.0837C319.539 77.9399 321.391 79.424 321.106 80.2803C320.821 81.1365 319.776 79.8807 318.826 80.5086C317.876 81.1365 318.114 82.849 317.306 82.7919C316.499 82.7348 316.261 80.109 315.596 80.2803C314.931 80.4515 315.454 83.0202 314.647 83.4769C313.839 83.9335 313.412 82.1069 312.367 82.1069C311.322 82.1069 311.654 82.2372 310.467 82.1801C309.279 82.1231 308.757 80.4106 307.617 80.5818C306.477 80.7531 306.524 80.8059 305.907 80.92C305.289 81.0342 305.812 79.0934 305.147 79.0934C304.482 79.0934 304.055 80.9771 303.247 80.92C302.44 80.8629 302.392 77.5683 301.917 77.5683C301.442 77.5683 301.727 81.2054 301.347 80.92C300.967 80.6346 301.11 76.7692 300.397 76.4267C299.685 76.0842 298.792 80.2291 298.497 79.5501C297.834 78.0219 298.856 76.609 299.257 74.9835C299.499 74.0023 297.262 75.7255 296.597 75.2118C295.932 74.698 297.785 72.9285 296.597 72.9285C295.41 72.9285 293.558 75.2118 291.848 75.2118C290.138 75.2118 290.803 73.0427 289.758 72.9285C288.713 72.8143 288.38 74.9835 287.668 74.7551C286.955 74.5268 287.43 72.5289 286.908 72.0152C286.385 71.5014 286.195 72.9856 285.578 72.7002C284.961 72.4148 285.151 71.2731 284.438 70.8736C283.726 70.474 283.583 74.3437 282.728 74.3437Z" fill="white" stroke="white" stroke-width="1.44624"/>
<path d="M299.771 63.7201C299.053 64.5004 299.889 65.8518 299.509 66.2893C299.129 66.7267 298.709 65.0836 298.25 65.4699C297.791 65.8561 298.253 67.4046 297.673 67.8342C297.093 68.2638 296.256 66.9123 295.929 67.1882C295.601 67.4641 296.739 68.914 296.362 68.9377C295.985 68.9614 295.05 67.1056 294.42 67.283C293.791 67.4604 294.32 69.9449 293.844 69.6473C292.771 68.9777 292.909 67.4089 292.532 66.0539C292.304 65.2361 291.453 67.7248 290.788 67.7564C290.122 67.7881 290.689 65.4907 289.869 66.1804M317.673 67.6284C317.089 67.8078 316.523 69.5303 315.335 69.379C314.731 69.3021 315.524 67.7026 315.234 67.6625C314.945 67.6223 314.707 69.0657 314.177 69.2184C313.648 69.371 313.307 67.8473 313.117 68.2732C312.927 68.699 313.911 70.4916 313.416 70.9217C312.921 71.3518 311.699 69.4931 311.137 69.9936C310.574 70.4941 311.617 72.368 311.165 72.9238C310.713 73.4796 310.237 72.0968 309.329 72.2169C308.421 72.3369 308.146 73.7619 307.533 73.4041C306.92 73.0464 307.44 70.9106 306.877 70.7858C306.313 70.6611 306.03 72.8631 305.279 72.9051C304.528 72.9472 304.686 71.3597 303.872 70.9542C303.059 70.5487 302.934 71.7884 302.026 71.2832M270.492 81.3374C269.924 81.0955 268.656 82.1473 267.739 81.226C267.273 80.7577 268.673 79.9603 268.451 79.7331C268.229 79.506 267.362 80.545 266.852 80.3174C266.342 80.0897 266.765 78.5964 266.41 78.8226C266.054 79.0487 266.041 81.1965 265.43 81.2221C264.82 81.2478 264.667 78.8863 263.968 78.9252C263.268 78.964 263.266 81.2185 262.633 81.3775C262 81.5365 262.246 80.0695 261.436 79.5612C260.626 79.0529 259.737 80.052 259.394 79.3444C259.051 78.6367 260.473 77.2118 260.063 76.7308C259.653 76.2499 258.396 77.8886 257.753 77.4206C257.11 76.9526 257.977 75.7402 257.49 74.8589C257.002 73.9776 256.324 74.9236 255.804 73.8956M282.445 67.3588C281.843 67.3961 281.006 68.9502 279.866 68.5196C279.286 68.3007 280.326 66.9211 280.049 66.813C279.772 66.7049 279.301 68.0631 278.757 68.087C278.213 68.1109 278.13 66.5364 277.873 66.9086C277.617 67.2808 278.287 69.2719 277.731 69.5759C277.175 69.8799 276.283 67.7676 275.649 68.1245C275.015 68.4815 275.729 70.5662 275.195 71.0037C274.66 71.4412 274.421 69.9726 273.511 69.8745C272.602 69.7765 272.097 71.1079 271.555 70.6116C271.013 70.1152 271.875 68.1453 271.343 67.8891C270.811 67.6329 270.171 69.7241 269.428 69.5869C268.684 69.4497 269.1 67.931 268.37 67.3403C267.639 66.7496 267.313 67.9352 266.506 67.2241C265.698 66.5129 266.003 65.0204 265.139 64.4957C264.275 63.971 263.526 65.3946 263.05 65.1254C262.573 64.8561 263.698 63.7947 263.233 63.4188C262.768 63.0429 261.732 64.1181 261.19 63.6218C260.648 63.1254 261.397 61.7018 261.065 61.4333C260.733 61.1649 260.016 62.9621 259.862 62.5478C259.708 62.1335 260.813 60.4182 260.449 59.776C260.085 59.1338 258.346 60.6203 258.406 59.979C258.54 58.5359 259.808 58.1258 260.724 57.2161C261.278 56.667 259.039 56.6072 258.775 55.8722C258.512 55.1371 260.499 54.9472 259.669 54.2759M312.31 34.8117C311.709 34.849 310.871 36.4031 309.731 35.9725C309.151 35.7536 310.192 34.374 309.914 34.2659C309.637 34.1578 309.166 35.516 308.622 35.5399C308.078 35.5638 307.995 33.9893 307.739 34.3615C307.482 34.7337 308.152 36.7248 307.596 37.0288C307.04 37.3328 306.148 35.2205 305.514 35.5774C304.88 35.9344 305.594 38.0191 305.06 38.4566C304.526 38.8941 304.287 37.4255 303.377 37.3274C302.467 37.2294 301.963 38.5608 301.421 38.0645C300.878 37.5681 301.74 35.5982 301.208 35.342C300.676 35.0858 300.036 37.177 299.293 37.0398C298.55 36.9026 298.966 35.3839 298.235 34.7932C297.505 34.2025 297.179 35.3881 296.371 34.677C295.563 33.9658 295.868 32.4733 295.004 31.9486C294.14 31.4239 293.391 32.8475 292.915 32.5783C292.439 32.309 293.563 31.2476 293.099 30.8717C292.634 30.4958 291.598 31.571 291.055 31.0747C290.513 30.5783 291.262 29.1548 290.93 28.8863C290.598 28.6178 289.881 30.415 289.727 30.0007C289.573 29.5864 290.678 27.8711 290.314 27.2289C289.95 26.5867 288.211 28.0732 288.271 27.4319C288.406 25.9888 289.673 25.5787 290.59 24.669C291.143 24.1199 288.905 24.0601 288.641 23.3251C288.377 22.59 290.365 22.4001 289.534 21.7288M292.058 32.6551C291.629 33.1633 291.862 34.9938 290.772 35.5817C290.217 35.8807 290.233 34.019 289.966 34.1594C289.699 34.2997 290.097 35.6911 289.704 36.1432C289.31 36.5953 288.378 35.4846 288.392 35.9677C288.406 36.4508 290.007 37.4045 289.759 38.0756C289.512 38.7467 287.678 37.8793 287.401 38.6522C287.124 39.4251 288.81 40.4135 288.653 41.1671C288.495 41.9207 287.505 41.0136 286.77 41.6666C286.036 42.3196 286.395 43.7174 285.715 43.7791C285.036 43.8408 284.591 41.6803 284.052 41.9134C283.513 42.1464 284.19 44.2206 283.558 44.7113C282.927 45.202 282.399 43.7346 281.526 43.8762C280.654 44.0177 281.065 45.1643 280.068 45.2775C279.071 45.3906 278.474 44.0314 277.538 44.3288C276.603 44.6262 276.83 46.2881 276.325 46.467C275.82 46.646 276.074 44.9546 275.519 45.0447C274.964 45.1347 274.783 46.7656 274.104 46.8273C273.424 46.889 273.197 45.2271 272.8 45.2915C272.404 45.3558 272.861 47.2715 272.517 47.0846C272.173 46.8978 272.051 44.7335 271.424 44.544C270.797 44.3545 270.319 46.8538 270.009 46.3267C269.312 45.1404 270.033 43.8222 270.215 42.4104C270.325 41.5583 268.619 43.3003 268.016 42.9614C267.412 42.6224 268.793 40.8939 267.801 41.0547M267.27 51.3616C266.54 50.7709 266.214 51.9565 265.406 51.2454C264.598 50.5342 264.903 49.0417 264.039 48.517C263.175 47.9923 262.426 49.4159 261.95 49.1467C261.474 48.8774 262.599 47.816 262.134 47.4401C261.669 47.0642 260.633 48.1394 260.091 47.6431C259.548 47.1467 260.297 45.7231 259.965 45.4546C259.633 45.1861 258.916 46.9834 258.762 46.5691C258.608 46.1547 259.713 44.4395 259.349 43.7973C258.985 43.1551 257.246 44.6416 257.306 44.0003C257.441 42.5572 258.708 42.1471 259.625 41.2374C260.178 40.6883 257.94 40.6285 257.676 39.8935C257.412 39.1584 259.4 38.9684 258.57 38.2972M276.079 60.2892C276.505 61.5085 274.988 59.7204 274.597 59.9403C274.207 60.1601 274.809 60.4422 274.518 61.1685C274.227 61.8948 274.115 62.9925 273.432 62.8454C272.3 62.6015 272.41 61.1456 271.882 60.0491C271.516 59.2898 271.171 58.3203 270.785 57.2346C270.552 56.5812 270.023 58.9741 269.793 58.2271C269.536 57.3932 269.058 58.4402 269.499 55.8847C269.657 54.9717 267.648 55.4292 267.885 54.7645C268.971 51.7124 270.331 52.7883 271.89 52.1539C272.863 51.7577 270.588 51.1512 270.83 50.6991C271.072 50.247 272.416 50.7036 272.859 50.3456C273.302 49.9875 272.65 49.9796 272.602 49.2669C272.554 48.5542 273.039 47.65 272.666 47.4948M299.591 55.3467C298.831 55.8757 299.351 57.4149 298.631 58.0402C297.91 58.6654 297.47 57.2706 296.71 57.8478C295.949 58.425 296.256 59.291 295.589 60.3489C294.9 61.4419 295.132 62.6148 293.508 61.5032C292.673 60.9315 292.828 59.916 291.747 60.1565C290.666 60.397 289.906 62.4652 289.186 62.4652C288.465 62.4652 289.266 60.3489 288.865 60.1565C288.465 59.9641 288.025 61.5994 287.585 61.6956C287.144 61.7918 287.423 60.0353 287.104 60.5413C286.395 61.6669 285.902 62.02 285.183 62.0804C284.627 62.1271 285.459 59.9649 284.863 60.3489C283.991 60.9113 283.347 62.1023 282.302 62.2728C281.623 62.3835 282.622 60.7337 282.142 60.7337C281.661 60.7337 280.861 62.4652 280.381 62.2728C279.9 62.0804 280.581 60.5413 280.221 59.9641C279.86 59.3869 279.26 60.4451 278.94 59.9641C278.62 59.4831 279.14 58.6173 278.94 58.0402C278.74 57.463 277.48 58.0545 278.139 57.6554C279.564 56.7941 280.43 55.9993 279.9 54.5771C279.667 53.951 278.019 55.2024 277.979 54.5771C277.939 53.9518 280.114 52.4287 279.74 52.076M318.89 56.5932C319.374 56.2299 320.382 58.1044 320.636 57.5561C320.889 57.0079 319.442 54.5338 319.903 54.4003C321.447 53.9537 322.412 54.4772 322.382 58.519C322.372 59.8413 323.213 57.4956 323.643 57.5213C324.074 57.5471 323.605 58.0824 324.104 58.622C324.602 59.1615 325.052 60.1263 325.638 59.6795C326.609 58.9383 326.048 57.6412 326.191 56.3859C326.29 55.5168 326.304 54.4623 326.319 53.2815C326.329 52.571 327.573 54.5445 327.55 53.7486C327.525 52.86 328.297 53.6112 327.083 51.4471C326.65 50.6739 328.653 50.1827 328.225 49.6753C326.257 47.3455 325.337 48.9602 323.695 49.0826C322.669 49.159 324.584 47.5618 324.217 47.2537C323.851 46.9456 322.751 47.9798 322.228 47.8502C321.705 47.7205 322.306 47.4166 322.126 46.7352C321.945 46.0537 321.212 45.4375 321.508 45.1243M305.757 50.1246C306.265 50.9866 305.258 52.1247 305.696 53.0541C306.133 53.9835 307.017 52.9364 307.508 53.8421C307.999 54.7478 307.42 55.3815 307.659 56.677C307.905 58.0156 307.288 58.9655 309.15 58.7693C310.107 58.6684 310.319 57.6677 311.218 58.4279C312.116 59.1881 312.09 61.449 312.744 61.8101C313.399 62.1712 313.406 59.8465 313.837 59.8722C314.267 59.898 314.1 61.605 314.466 61.913C314.833 62.2211 315.189 60.4849 315.304 61.1046C315.558 62.4831 315.883 63.0511 316.515 63.4664C317.005 63.7875 316.999 61.4057 317.407 62.0531C318.005 63.0013 318.177 64.4067 319.068 65.0856C319.646 65.5264 319.311 63.5262 319.747 63.7669C320.184 64.0077 320.31 65.9826 320.814 66.0485C321.317 66.1143 321.233 64.3744 321.76 64.0304C322.288 63.6863 322.466 64.949 322.924 64.6723C323.382 64.3956 323.21 63.348 323.592 62.9237C323.974 62.4994 325.078 63.4489 324.453 62.9752M314.479 47.5167C315.163 47.5528 314.043 46.0189 314.522 45.9664C315 45.9139 315.928 47.5508 316.392 47.3067C316.856 47.0626 316.062 45.6043 316.377 44.9901C316.692 44.3759 317.37 45.3641 317.652 44.8501C317.934 44.3361 317.351 43.5308 317.506 42.9342C317.662 42.3375 318.962 42.7888 318.274 42.4635C316.791 41.7614 315.868 41.0647 316.288 39.5904C316.473 38.9415 318.208 40.0075 318.201 39.3805C318.193 38.7534 315.913 37.4742 316.258 37.0822C317.411 35.7712 318.466 35.6473 320.114 39.1705C320.653 40.3232 320.411 37.7856 320.795 37.5503M291.063 42.3545C291.861 42.7983 291.459 44.3879 292.224 44.9319C292.989 45.4758 293.321 44.0386 294.122 44.5303C294.923 45.022 294.684 45.9179 295.428 46.8986C296.196 47.9118 296.054 49.1051 297.587 47.8207C298.376 47.16 298.145 46.1657 299.239 46.2871C300.334 46.4085 301.247 48.385 301.965 48.3063C302.682 48.2275 301.725 46.2075 302.109 45.9721C302.493 45.7368 303.055 47.3172 303.501 47.3649C303.946 47.4126 303.536 45.6938 303.892 46.1629C304.683 47.2063 305.201 47.5041 305.921 47.4857C306.479 47.4714 305.487 45.409 306.109 45.7263M275.433 39.0943C275.982 39.5872 275.775 37.562 276.195 37.8423C276.615 38.1225 276.615 40.1033 277.112 40.2154C277.61 40.3275 277.637 38.5849 278.185 38.2905C278.733 37.9962 278.831 39.2715 279.305 39.0379C279.779 38.8043 279.674 37.7438 280.082 37.356C280.49 36.9682 281.353 38.2207 280.937 37.4867C280.04 35.9028 279.604 34.7022 280.642 33.7681C281.099 33.3569 282.033 35.4124 282.321 34.8891C282.609 34.3659 281.323 31.7656 281.792 31.6751C283.36 31.3721 284.289 31.9831 284 36.0102C283.906 37.3277 284.894 35.0664 285.322 35.1318M259.478 19.6053C259.929 20.5116 258.852 21.5535 259.229 22.5205C259.606 23.4875 260.555 22.5251 260.986 23.4734C261.418 24.4217 260.8 25.0001 260.955 26.3138C261.116 27.6712 260.439 28.5613 262.308 28.5374C263.269 28.5251 263.544 27.5469 264.392 28.3877C265.239 29.2285 265.068 31.4803 265.698 31.9007C266.328 32.3211 266.483 30.0039 266.911 30.0692C267.338 30.1346 267.062 31.8211 267.408 32.1621C267.754 32.5031 268.22 30.8049 268.295 31.4333C268.46 32.8311 268.748 33.4275 269.352 33.8998C269.819 34.2651 269.966 31.8898 270.332 32.5729" stroke="#313131" stroke-width="0.8"/>
<path d="M377.896 74.6643C377.896 77.3499 376.83 79.9254 374.931 81.8244C373.032 83.7234 370.456 84.7902 367.77 84.7902C365.085 84.7902 362.509 83.7234 360.61 81.8244C358.711 79.9254 357.645 77.3499 357.645 74.6643C357.645 71.9787 358.711 69.4031 360.61 67.5041C362.509 65.6051 365.085 64.5383 367.77 64.5383C370.456 64.5383 373.032 65.6051 374.931 67.5041C376.83 69.4031 377.896 71.9787 377.896 74.6643Z" stroke="white"/>
<path fill-rule="evenodd" clip-rule="evenodd" d="M372.03 79.3458C370.508 80.6551 369.465 82.5251 366.929 83.2245C365.707 83.0388 365.386 81.5379 365.65 80.6125C360.919 82.0333 361.404 88.5111 361.273 93.2197C361.208 89.704 361.371 85.2585 362.692 81.9455C359.246 82.4736 355.696 89.7482 353.168 93.8299C352.848 94.6159 353.064 93.5094 348.758 94.3737C347.191 99.6596 352.051 114.496 354.533 110.224L361.107 94.818C361.202 94.0871 361.248 93.2999 361.273 92.4836C361.282 92.9912 361.295 93.4946 361.306 94.0023L361.027 99.6991C361.023 99.739 361.018 99.7786 361.014 99.8185C360.909 100.833 360.793 101.842 360.689 102.849C360.794 101.837 360.913 100.824 361.014 99.8185C359.946 101.84 358.751 103.738 358.321 106.397C357.306 111.355 355.468 118.561 354.296 123.965H357.751C357.509 118.87 357.752 113.646 358.162 108.374C357.763 113.633 357.529 118.864 357.771 123.965H366.943C365.165 120.789 363.46 117.287 362.241 114.455C363.467 117.291 365.183 120.788 366.963 123.965H379.079C378.253 117.43 378.375 110.747 378.356 104.063C377.744 104.481 377.272 104.806 376.714 105.128C377.272 104.806 377.744 104.481 378.356 104.063C380.195 100.754 377.461 99.9895 375.107 99.0094C375.53 97.3158 375.103 95.536 375.491 93.8564C373.973 91.6139 373.733 89.4988 374.046 87.3439C373.075 90.6127 372.393 94.313 373.044 97.6631C372.095 93.1275 373.036 88.3521 374.788 84.2468C375.054 83.3825 375.346 82.501 375.637 81.594L372.03 79.3458ZM374.788 84.2468C374.466 85.2975 374.193 86.3257 374.046 87.3439C374.697 85.1513 375.475 83.1475 376.082 81.5808C375.617 82.4263 375.183 83.3225 374.788 84.2468ZM353.613 94.0554C354.046 94.2935 354.42 94.5666 354.754 94.8711C354.422 94.5664 354.044 94.2939 353.613 94.0554ZM355.072 95.1894C356.182 96.3718 356.735 97.9277 357.141 99.5797C356.718 97.9408 356.179 96.3773 355.072 95.1894ZM361.492 100.177C364.919 103.79 367.252 107.624 371.904 106.974C372.207 106.932 372.521 106.87 372.845 106.789C372.52 106.872 372.208 106.931 371.904 106.974C367.224 107.642 364.896 103.8 361.492 100.177ZM361.684 101.006C362.99 103.753 364.302 107.183 366.054 109.355C364.302 107.179 362.985 103.751 361.684 101.006ZM350.148 99.5518C350.331 100.03 352.652 104.873 352.952 104.632C352.2 103.963 350.132 99.6351 350.148 99.5518ZM360.609 103.632C360.592 103.82 360.578 104.008 360.563 104.196C360.578 104.007 360.592 103.82 360.609 103.632ZM360.457 105.986C360.434 106.759 360.445 107.528 360.503 108.294C360.562 109.065 360.674 109.832 360.848 110.595C360.674 109.83 360.562 109.063 360.503 108.294C360.444 107.527 360.434 106.755 360.457 105.986ZM376.714 105.128C376.482 105.235 373.751 106.5 373.528 106.59C373.752 106.5 376.481 105.235 376.714 105.128ZM373.528 106.59C373.303 106.663 373.081 106.726 372.865 106.782C373.08 106.727 373.304 106.663 373.528 106.59ZM374.251 109.136C370.555 112.659 368.028 111.81 366.054 109.362C368.025 111.802 370.559 112.649 374.251 109.136Z" fill="white"/>
<path d="M361.014 99.8185C361.018 99.7786 361.023 99.739 361.027 99.6991L361.306 94.0023C361.295 93.4946 361.282 92.9912 361.273 92.4836C361.248 93.2999 361.202 94.0871 361.107 94.818L354.533 110.224C352.051 114.496 347.191 99.6596 348.758 94.3737C353.064 93.5094 352.848 94.6159 353.168 93.8299C355.696 89.7482 359.246 82.4736 362.692 81.9455C361.371 85.2585 361.208 89.704 361.273 93.2197C361.404 88.5111 360.919 82.0333 365.65 80.6125C365.386 81.5379 365.707 83.0388 366.929 83.2245C369.465 82.5251 370.508 80.6551 372.03 79.3458L375.637 81.594C375.346 82.501 375.054 83.3825 374.788 84.2468M361.014 99.8185C360.909 100.833 360.793 101.842 360.689 102.849C360.794 101.837 360.913 100.824 361.014 99.8185ZM361.014 99.8185C359.946 101.84 358.751 103.738 358.321 106.397C357.306 111.355 355.468 118.561 354.296 123.965H357.751C357.509 118.87 357.752 113.646 358.162 108.374C357.763 113.633 357.529 118.864 357.771 123.965H366.943C365.165 120.789 363.46 117.287 362.241 114.455C363.467 117.291 365.183 120.788 366.963 123.965H379.079C378.253 117.43 378.375 110.747 378.356 104.063M378.356 104.063C377.744 104.481 377.272 104.806 376.714 105.128M378.356 104.063C377.744 104.481 377.272 104.806 376.714 105.128M378.356 104.063C380.195 100.754 377.461 99.9895 375.107 99.0094C375.53 97.3158 375.103 95.536 375.491 93.8564C373.973 91.6139 373.733 89.4988 374.046 87.3439M376.714 105.128C376.482 105.235 373.751 106.5 373.528 106.59M376.714 105.128C376.481 105.235 373.752 106.5 373.528 106.59M374.046 87.3439C373.075 90.6127 372.393 94.313 373.044 97.6631C372.095 93.1275 373.036 88.3521 374.788 84.2468M374.046 87.3439C374.193 86.3257 374.466 85.2975 374.788 84.2468M374.046 87.3439C374.697 85.1513 375.475 83.1475 376.082 81.5808C375.617 82.4263 375.183 83.3225 374.788 84.2468M371.904 106.974C367.252 107.624 364.919 103.79 361.492 100.177C364.896 103.8 367.224 107.642 371.904 106.974ZM371.904 106.974C372.207 106.932 372.521 106.87 372.845 106.789C372.52 106.872 372.208 106.931 371.904 106.974ZM360.503 108.294C360.445 107.528 360.434 106.759 360.457 105.986C360.434 106.755 360.444 107.527 360.503 108.294ZM360.503 108.294C360.562 109.065 360.674 109.832 360.848 110.595C360.674 109.83 360.562 109.063 360.503 108.294ZM373.528 106.59C373.303 106.663 373.081 106.726 372.865 106.782C373.08 106.727 373.304 106.663 373.528 106.59ZM353.613 94.0554C354.046 94.2935 354.42 94.5666 354.754 94.8711C354.422 94.5664 354.044 94.2939 353.613 94.0554ZM355.072 95.1894C356.182 96.3718 356.735 97.9277 357.141 99.5797C356.718 97.9408 356.179 96.3773 355.072 95.1894ZM361.684 101.006C362.99 103.753 364.302 107.183 366.054 109.355C364.302 107.179 362.985 103.751 361.684 101.006ZM350.148 99.5518C350.331 100.03 352.652 104.873 352.952 104.632C352.2 103.963 350.132 99.6351 350.148 99.5518ZM360.609 103.632C360.592 103.82 360.578 104.008 360.563 104.196C360.578 104.007 360.592 103.82 360.609 103.632ZM374.251 109.136C370.555 112.659 368.028 111.81 366.054 109.362C368.025 111.802 370.559 112.649 374.251 109.136Z" stroke="white"/>
<path fill-rule="evenodd" clip-rule="evenodd" d="M366.828 82.8301C368.907 82.6271 372.549 82.4033 372.988 79.8643C372.516 79.5821 372.163 79.4488 371.946 79.0306C371.572 78.309 371.388 77.058 371.784 76.1375C372.587 74.3622 373.198 72.5572 372.71 70.7224C371.588 66.5055 365.179 67.1906 363.708 70.0182C363.372 70.6645 363.137 71.1876 363.112 71.677C363.076 72.3677 363.512 72.9913 363.645 73.7989C363.485 74.9015 362.267 75.2234 362.146 75.9857C362.089 76.5427 362.677 76.7025 363.24 76.7446C363.046 77.2295 363.044 77.7184 363.164 78.3166C362.903 79.2985 363.026 79.0199 363.422 79.6494C364.125 80.2451 365.759 80.2049 366.47 80.1907C365.715 80.2249 364.497 80.9187 364.3 81.0794C364.084 81.2567 365.114 81.2467 366.828 82.8301Z" fill="#313131" stroke="white"/>
<path fill-rule="evenodd" clip-rule="evenodd" d="M350.15 99.4901C353.115 97.8409 352.504 96.1195 352.661 94.398L351.818 90.9198C351.168 91.3355 350.518 91.4248 349.868 91.5767C350.518 91.4353 351.168 91.3298 351.818 90.9198V90.1277L354.102 87.1059C354.525 86.6483 353.785 85.8298 353.6 86.0291C354.025 85.5189 353.323 84.7111 353.064 85.0199C353.61 84.3226 352.744 83.9625 352.34 84.3292C352.62 83.9688 351.974 83.4904 351.568 83.8753C350.341 84.9932 348.41 87.9986 347.917 87.0184C346.95 85.0962 346.584 85.1894 346.104 85.5576C345.509 86.0145 345.689 88.2792 347.415 89.3278C347.518 89.8843 348.11 91.3728 348.892 91.8952C349.142 94.4608 348.875 97.1297 350.15 99.4901Z" fill="#313131"/>
<path d="M351.818 90.9198L352.661 94.398C352.504 96.1195 353.115 97.8409 350.15 99.4901C348.875 97.1297 349.142 94.4608 348.892 91.8952C348.11 91.3729 347.518 89.8843 347.415 89.3278C345.689 88.2792 345.509 86.0145 346.104 85.5576C346.584 85.1894 346.95 85.0962 347.917 87.0184C348.41 87.9986 350.341 84.9932 351.568 83.8753C351.974 83.4904 352.62 83.9688 352.34 84.3292M351.818 90.9198C351.168 91.3355 350.518 91.4248 349.868 91.5767C350.518 91.4353 351.168 91.3298 351.818 90.9198ZM351.818 90.9198V90.1277L354.102 87.1059C354.525 86.6483 353.785 85.8298 353.6 86.0291M353.6 86.0291L351.514 88.3659M353.6 86.0291C354.025 85.5189 353.323 84.7111 353.064 85.0199M353.064 85.0199L350.843 87.6414M353.064 85.0199C353.61 84.3226 352.744 83.9625 352.34 84.3292M352.34 84.3292L350.162 86.9968" stroke="white"/>
<path d="M363.465 108.307C366.287 114.041 369.573 114.663 373.163 111.944" stroke="white"/>
<path fill-rule="evenodd" clip-rule="evenodd" d="M376.034 81.7375C375.73 80.591 374.107 85.6988 373.569 89.3345C373.663 92.6533 374.032 93.2775 372.161 99.8816C370.895 100.56 369.761 101.493 368.089 101.494C367.323 101.377 365.884 100.689 364.445 99.7879C363.439 99.1575 361.974 98.4353 361.325 98.618C359.325 102.481 360.645 112.373 361.584 113.068C367.147 111.375 372.848 107.317 377.843 101.386C378.907 98.1187 381.813 95.5162 380.783 86.0852C380.548 84.9422 376.507 82.86 376.034 81.7375Z" fill="white" stroke="white"/>
<path fill-rule="evenodd" clip-rule="evenodd" d="M373.386 72.2096L372.54 70.652C371.779 70.6744 370.967 70.8882 370.224 70.6355C369.404 70.3564 368.271 70.3125 366.996 70.3183C365.933 70.3232 364.87 69.9379 363.768 69.649L362.612 70.6988L363.435 70.9155L364.22 70.101L364.78 70.1778L364.44 71.0381L365.423 71.4209L365.934 70.3871L366.337 70.4813L366.299 71.3469L367.124 71.7297L367.397 70.5302L367.765 70.5892L367.846 71.4974L368.658 71.9086L368.98 70.7317L369.218 70.8033L369.483 71.6763L370.3 72.1458L370.372 70.8617L370.786 70.9538L371.224 72.1413L372.009 72.5858L371.992 71.1747L372.244 71.1684L372.821 72.5833L373.386 72.2096Z" fill="white" stroke="white" stroke-linejoin="bevel"/>
<path d="M369.34 78.0616C368.708 79.11 367.154 80.1445 366.325 80.1907M363.056 78.2688C363.964 78.5912 364.471 78.4118 365.006 78.2688M363.24 76.7446C363.951 76.7368 364.27 76.7226 364.5 76.42M369.192 76.1141C369.375 76.6987 369.777 76.4353 369.889 76.2307C370.902 74.3795 370.945 73.0956 369.109 74.1729M364.055 73.395C364.723 73.1258 366.076 73.086 366.294 73.9755" stroke="white"/>
<path fill-rule="evenodd" clip-rule="evenodd" d="M357.964 104.698L358.898 97.2992L347.453 77.0433L345.858 77.9386L345.417 77.5851L345.85 85.6613L357.964 104.698Z" fill="white" stroke="white"/>
<path fill-rule="evenodd" clip-rule="evenodd" d="M352.908 79.7715L346.282 86.8149L345.85 77.7292L347.266 77.1013C347.849 78.4409 348.065 80.1482 347.563 82.5729C348.876 81.0885 350.184 79.5845 351.763 79.0271L352.908 79.7715Z" fill="white" stroke="white"/>
<path fill-rule="evenodd" clip-rule="evenodd" d="M357.82 105.13L365.896 100.515L353.205 79.6039L345.85 85.8053L357.82 105.13Z" fill="white" stroke="white"/>
<path d="M365.484 74.2021C365.484 74.2476 365.428 74.2912 365.329 74.3234C365.23 74.3556 365.096 74.3737 364.955 74.3737C364.815 74.3737 364.681 74.3556 364.582 74.3234C364.482 74.2912 364.427 74.2476 364.427 74.2021C364.427 74.1565 364.482 74.1129 364.582 74.0807C364.681 74.0485 364.815 74.0304 364.955 74.0304C365.096 74.0304 365.23 74.0485 365.329 74.0807C365.428 74.1129 365.484 74.1565 365.484 74.2021Z" fill="white" stroke="white"/>
<path fill-rule="evenodd" clip-rule="evenodd" d="M361.747 112.936C363.164 112.536 364.683 109.293 364.983 107.428C365.282 105.563 365.365 102.694 364.963 100.946" fill="white"/>
<path d="M361.747 112.936C363.164 112.536 364.683 109.293 364.983 107.428C365.282 105.563 365.365 102.694 364.963 100.946" stroke="white" stroke-linejoin="bevel"/>
<path fill-rule="evenodd" clip-rule="evenodd" d="M363.846 100.752C363.336 99.6756 362.561 98.8253 361.446 98.4787C360.202 98.0822 358.569 97.7755 357.909 98.8209C358.871 99.1525 360.128 99.0618 361.09 99.8354C360.269 99.0618 358.952 99.1525 357.909 98.8209C357.3 98.9776 356.954 98.9932 356.951 99.9579C358.1 100.202 359.49 100.171 360.308 101.075C359.419 100.167 358.06 100.207 356.951 99.9579C356.366 100.472 356.362 100.952 356.951 101.562C357.968 101.602 359.314 101.439 359.882 102.039C359.063 101.441 357.893 101.55 356.951 101.562C356.39 102.797 357.764 102.833 359.041 103.237C360.484 103.694 361.377 104.134 362.189 103.849C363.396 103.756 364.477 105.179 365.165 105.061C365.319 103.792 365.252 102.595 364.999 101.461C364.455 101.421 364.111 101.281 363.846 100.752Z" fill="#313131"/>
<path d="M357.909 98.8209C358.569 97.7755 360.202 98.0822 361.446 98.4787C362.561 98.8253 363.336 99.6756 363.846 100.752C364.111 101.281 364.455 101.421 364.999 101.461C365.252 102.595 365.319 103.792 365.165 105.061C364.477 105.179 363.396 103.756 362.189 103.849C361.377 104.134 360.484 103.694 359.041 103.237C357.764 102.833 356.39 102.797 356.951 101.562M357.909 98.8209C358.871 99.1525 360.128 99.0618 361.09 99.8354C360.269 99.0618 358.952 99.1525 357.909 98.8209ZM357.909 98.8209C357.3 98.9776 356.954 98.9932 356.951 99.9579M356.951 99.9579C358.1 100.202 359.49 100.171 360.308 101.075C359.419 100.167 358.06 100.207 356.951 99.9579ZM356.951 99.9579C356.366 100.472 356.362 100.952 356.951 101.562M356.951 101.562C357.968 101.602 359.314 101.439 359.882 102.039C359.063 101.441 357.893 101.55 356.951 101.562Z" stroke="white"/>
<path fill-rule="evenodd" clip-rule="evenodd" d="M372.165 99.9155C373.956 99.1934 374.943 99.9441 375.938 100.68L372.165 99.9155Z" fill="white"/>
<path d="M372.165 99.9155C373.956 99.1934 374.943 99.9441 375.938 100.68" stroke="white"/>
<path fill-rule="evenodd" clip-rule="evenodd" d="M367.628 101.395C369.176 104.411 368.714 106.996 366.455 109.196L367.628 101.395Z" fill="white"/>
<path d="M367.628 101.395C369.176 104.411 368.714 106.996 366.455 109.196" stroke="white"/>
<path fill-rule="evenodd" clip-rule="evenodd" d="M366.979 82.5871C366.529 83.6479 365.718 84.8365 364.83 85.6956C364.275 86.1837 363.719 86.3136 363.229 86.2083C361.671 85.7303 361.591 84.3965 362.169 83.1293C362.819 81.8268 364.042 80.7382 365.733 80.3972C365.469 81.3227 365.997 82.409 366.967 82.5947C367.105 84.3335 367.491 85.1115 367.91 85.8858C368.615 87.1872 369.76 86.6622 371.203 85.4763C372.694 84.2509 374.442 82.4244 375.961 81.5297C374.345 80.6793 372.857 79.8485 372.114 79.1324C370.592 80.4417 369.262 81.9164 366.978 82.6158" fill="white"/>
<path d="M366.979 82.5871C366.529 83.6479 365.718 84.8365 364.83 85.6956C364.275 86.1837 363.719 86.3136 363.229 86.2083C361.671 85.7303 361.591 84.3965 362.169 83.1293C362.819 81.8268 364.042 80.7382 365.733 80.3972C365.469 81.3227 365.997 82.409 366.967 82.5947C367.105 84.3335 367.491 85.1115 367.91 85.8858C368.615 87.1872 369.76 86.6622 371.203 85.4763C372.694 84.2509 374.442 82.4244 375.961 81.5297C374.345 80.6793 372.857 79.8485 372.114 79.1324C370.592 80.4417 369.262 81.9164 366.978 82.6158" stroke="white" stroke-linejoin="bevel"/>
</svg>
