<svg width="742" height="1033" viewBox="0 0 742 1033" fill="none" xmlns="http://www.w3.org/2000/svg">
<path d="M323.135 616.922L330.042 577.888L347.872 625.115C347.94 640.714 341.736 684.782 362.169 635.877L375.02 605.678L389.156 591.863L388.353 626.4L376.626 652.262C374.537 683.729 391.782 684.179 406.504 652.744L441.202 620.938L448.43 668.486C434.888 680.953 421.526 692.526 406.986 708.967C395.707 721.902 390.048 728.991 392.69 749.768C395.008 783.758 396.986 814.455 396.706 873.779C396.554 905.946 396.157 948.397 404.737 986.063C408.426 1002.25 414.152 1017.45 420.159 1030.72L283.939 1032.33C290.946 1021.17 298.353 1019.6 301.609 995.059C308.654 941.954 302.757 886.501 301.288 853.378C299.819 820.256 302.306 825.999 303.216 796.192L300.806 730.652C301.611 707.421 287.909 700.096 280.405 690.654L247.957 650.335L261.29 598.289L280.084 629.934L299.2 650.174C315.377 674.359 322.799 650.248 322.653 637.002L323.135 616.922Z" fill="#EEF7E9"/>
<path fill-rule="evenodd" clip-rule="evenodd" d="M284.866 614.607C277.701 614.607 271.731 602.649 270.537 612.694C269.343 622.739 278.355 634.833 275.568 643.921C272.782 653.009 262.434 632.919 254.871 638.181C247.309 643.443 257.004 669.616 249.84 675.835C242.675 682.053 238.297 668.181 230.735 673.921C223.172 679.661 227.551 689.706 219.59 698.795C211.63 707.883 208.446 710.753 198.893 710.275C189.341 709.797 192.127 694.49 181.38 696.881C170.634 699.273 163.071 719.842 155.907 719.842C148.742 719.842 156.703 698.795 152.723 696.881C148.742 694.968 144.364 711.232 139.986 712.188C135.608 713.145 138.38 695.676 135.21 700.708C128.157 711.902 123.256 715.415 116.105 716.015C110.575 716.479 118.841 694.976 112.921 698.795C104.249 704.388 97.8424 716.233 87.4473 717.928C80.6968 719.029 90.6314 702.622 85.8552 702.622C81.0789 702.622 73.1185 719.842 68.3423 717.928C63.566 716.015 70.3324 700.708 66.7501 694.968C63.168 689.228 57.1976 699.751 54.0135 694.968C50.8293 690.185 56.0036 681.575 54.0135 675.835C52.0234 670.094 45.7131 680.828 46.0531 672.008C46.5241 659.786 57.0066 652.379 63.566 641.394C66.8756 635.852 44.859 647.612 44.461 641.394C44.063 635.176 66.5464 615.108 61.9739 616.52C49.5642 620.353 39.0295 632.717 25.356 641.394C15.679 647.535 21.3758 628.001 17.3956 626.087C13.4153 624.174 15.8035 631.349 9.43515 633.741C3.06678 636.132 -4.32924 642.61 -8.0778 635.654C-14.2959 624.115 -4.74855 615.186 -1.70947 603.127C0.394669 594.777 3.90849 585.178 7.84303 574.427C10.2106 567.957 -7.84522 579.595 -4.89359 572.513C-1.59831 564.607 3.72943 561.15 22.1718 547.64C28.7601 542.813 -2.89507 531.726 3.06678 532.333C18.2501 533.877 31.6322 540.262 46.0531 549.553C55.06 555.356 43.2669 531.376 47.6452 530.42C52.0234 529.463 58.3917 544.291 63.566 545.726C68.7403 547.161 64.3621 541.421 68.3423 536.16C72.3225 530.898 81.0789 528.985 79.4868 524.68C77.8947 520.374 62.7699 525.158 61.9739 518.939C61.1779 512.721 79.4869 500.763 76.3027 499.806C73.1185 498.849 57.9937 516.069 49.2372 515.113C40.4807 514.156 47.2471 495.501 41.2768 495.979C35.3065 496.457 32.1223 517.026 25.356 517.026C18.5896 517.026 23.7639 499.806 14.2114 495.979C4.65888 492.153 -9.27187 505.068 -12.854 501.719C-16.4363 498.371 1.47469 489.282 -0.117387 482.586C-1.70946 475.889 -17.6303 478.759 -19.2224 474.932C-20.8144 471.106 -8.47582 471.584 -6.48571 467.279C-4.49562 462.974 -16.0382 459.147 -11.262 457.712C-6.4857 456.277 7.44498 464.887 12.6193 461.539C17.7936 458.19 4.65889 450.059 9.43515 444.319C14.2114 438.579 33.7144 440.014 31.7243 438.579C29.7342 437.144 8.24106 441.927 1.4747 438.579C-5.29166 435.23 10.6292 428.533 4.65886 425.185C-1.31144 421.837 -18.8244 431.403 -22.4066 425.185C-25.9888 418.967 -10.4659 408.922 -9.66988 400.312C-8.87383 391.701 -21.2125 396.485 -19.2224 390.745C-17.2323 385.005 -6.0877 385.961 -1.70947 377.351C2.66876 368.741 -6.48573 360.131 -1.70947 356.304C3.06676 352.478 13.4153 365.871 17.3956 362.044C21.3758 358.218 8.24109 343.389 14.2114 340.998C20.1817 338.606 36.1026 355.348 41.2768 352.478C46.4511 349.608 30.1322 335.257 34.9085 329.517C39.6847 323.777 53.6155 331.909 60.3818 329.517C67.1482 327.126 64.362 323.299 61.9739 319.951C59.5858 316.602 52.4214 319.95 50.8293 316.124C49.2372 312.297 59.1877 304.644 55.6056 304.644C52.0234 304.644 42.4709 317.08 36.5005 316.124C30.5302 315.167 37.2966 302.252 31.7243 300.817C26.152 299.382 21.3758 311.34 14.2114 310.384C7.04701 309.427 9.83314 299.86 3.06678 296.99C-3.69955 294.12 -8.87384 301.774 -12.854 298.904C-16.8343 296.034 -16.8343 288.859 -12.854 285.51C-8.87384 282.162 -1.70945 289.337 3.06678 285.51C7.84304 281.683 1.87274 272.117 6.25094 270.203C10.6292 268.29 11.4252 277.857 20.5797 277.857C29.7342 277.857 41.6748 275.465 42.8689 270.203C44.0629 264.942 23.7639 262.55 25.356 256.81C26.9481 251.07 46.0531 252.505 49.2372 247.243C52.4214 241.981 30.971 236.945 38.0926 235.763C57.7972 232.493 87.0846 232.122 46.0531 218.543C39.7292 216.45 34.5104 217.108 28.5401 210.889C22.5698 204.671 18.1916 199.888 22.1718 193.669C26.152 187.451 41.6748 191.756 44.461 186.016C47.2471 180.276 42.5907 186.837 44.1828 181.575C45.7749 176.314 59.3076 179.662 61.6958 175.835C64.0839 172.009 53.7353 171.052 53.7353 166.269C53.7353 161.485 55.2497 158.56 61.6958 156.702C84.9273 150.005 51.3471 145.222 52.1432 139.482C52.9616 133.581 64.8799 140.438 68.0641 133.742C71.2482 127.045 61.6957 118.435 64.8799 112.695C68.064 106.955 74.8304 114.608 80.8008 110.781C86.7711 106.955 82.7115 82.6519 88.7612 97.3878C95.5095 113.826 110.271 142.509 113.973 97.8129C116.38 68.7461 130.005 91.0341 134.932 95.4745C143.94 103.594 128.563 112.695 133.34 116.521C138.116 120.348 147.668 106.955 154.037 110.781C160.405 114.608 156.027 128.958 158.813 131.828C161.599 134.698 160.803 120.348 165.181 122.261C169.559 124.175 173.547 133.861 176.326 139.482C184.566 156.149 191.958 136.414 189.062 129.915C186.613 124.417 177.561 119.54 177.918 112.695C178.761 96.5184 187.689 101.319 192.247 110.781C194.967 116.428 195.919 127.915 200.207 124.175C208.125 117.269 200.754 108.578 206.854 109.482C212.164 110.269 212.824 114.743 211.63 101.828C211.008 95.0997 211.936 84.7761 205.814 79.0333C197.935 71.6407 185.488 64.2369 202.077 57.8211C214.591 52.9814 209.242 42.5142 214.814 48.2543C220.386 53.9943 218.794 77.4329 224.367 80.7813C229.939 84.1297 231.929 62.6044 237.103 61.6478C242.277 60.691 245.809 86.3741 245.064 76.9546C244.044 64.0729 250.673 36.5916 268.945 42.5142C277.181 45.184 272.237 67.9562 273.721 75.0412C275.272 82.4454 282.712 63.0369 284.866 69.3012C297.252 105.321 297.981 83.1303 297.602 70.2217C297.458 65.2936 283.86 35.735 289.642 33.868C303.817 29.2907 314.86 52.1497 316.707 51.0882C317.705 50.5151 317.965 38.2088 319.719 25.8706C321.113 16.0607 323.45 6.23061 327.852 2.26149C330.999 -0.57634 329.842 28.5701 332.628 30.9618C335.414 33.3535 334.96 20.4217 338.997 11.8283C346.559 -4.27294 356.907 -2.30417 362.878 8.00155C366.867 14.8876 357.72 39.3858 362.878 32.8751C368.149 26.2216 372.692 19.3514 377.206 13.6323C382.674 6.70499 388.039 1.03304 394.719 0.348136C403.059 -0.506909 407.628 10.7505 397.756 21.3235C392.268 27.201 396.749 36.9648 399.496 38.6152C405.864 42.4418 411.038 38.173 420.193 31.9546C429.347 25.7362 429.888 26.1352 436.114 30.0413C447.55 37.2164 427.913 53.0183 426.561 60.6549C424.367 73.0488 441.778 96.8915 447.258 58.7416C448.892 47.3709 458.289 53.1139 466.363 53.9944C476.947 55.1485 486.043 62.6846 471.525 70.4385C456.107 78.6732 457.412 98.5199 475.916 90.3481C481.438 87.9094 481.196 71.3802 493.429 69.3012C497.834 68.5525 486.749 91.0026 493.429 86.5214C498.901 82.8503 504.237 78.1478 510.327 74.5794C515.203 71.7223 520.563 69.5922 526.862 69.3012C539.214 68.7305 543.579 75.0413 542.783 82.6947C541.987 90.3481 522.882 97.0448 523.678 99.9148C524.474 102.785 538.405 92.2614 545.967 94.1748C553.53 96.0882 547.56 109.003 553.928 107.568C560.296 106.133 553.137 96.8705 555.141 99.3012C560.249 105.496 546.993 116.91 547.181 126.088C547.645 148.741 569.732 132.291 580.614 120.348C588.495 111.7 594.943 128.958 593.351 133.742C591.759 138.525 575.838 135.655 574.246 139.482C572.654 143.308 581.41 146.657 586.983 149.048C592.555 151.44 589.089 144.972 595.457 142.58C601.826 140.189 614.048 134.22 612.456 139.482C611.588 142.35 607.219 149.471 603.985 157.166C601.286 163.585 599.377 170.403 600.947 175.485C604.19 185.981 605.402 186.45 599.72 196.882C596.328 203.109 581.411 193.055 574.246 193.055C567.082 193.055 568.674 192.099 571.062 196.882C573.45 201.666 591.006 213.172 583.799 212.189C553.691 208.081 538.66 207.651 566.286 225.582C571.873 229.209 582.151 232.507 574.246 237.063C562.643 243.749 546.585 255.271 563.102 261.936C566.54 263.324 575.042 248.543 580.614 250.456C586.187 252.369 581.139 273.977 585.391 269.59C592.132 262.634 594.84 250.278 604.496 244.716C612.688 239.997 611.262 238.976 614.048 240.889C616.834 242.803 608.874 249.021 615.64 252.369C619.297 254.179 630.041 249.601 639.771 245.993C648.044 242.925 655.584 240.559 657.413 243.416C661.394 249.635 642.984 268.747 647.861 266.377C660.511 260.228 668.651 259.302 678.11 260.637C681.83 261.161 663.384 266.377 662.19 272.117C660.995 277.857 673.732 279.77 673.334 283.597C672.936 287.424 660.528 279.33 660.597 287.424C660.689 298.034 657.287 305.536 654.229 314.211C652.294 319.701 663.384 317.559 668.558 314.211C673.732 310.862 670.15 302.73 674.926 300.817C679.703 298.904 683.285 301.774 687.663 306.557C692.041 311.34 686.071 318.037 692.439 319.951C698.807 321.864 708.758 312.297 713.136 314.211C717.515 316.124 704.38 321.864 709.952 327.604C715.524 333.344 731.445 332.387 735.425 337.171C739.406 341.954 725.475 339.563 725.873 346.738C726.271 353.913 737.814 357.739 737.018 365.871C736.222 374.003 728.261 379.265 722.689 379.265C717.117 379.265 718.311 363.958 714.728 365.871C711.146 367.784 712.738 385.483 708.36 386.918C703.982 388.353 700.798 370.654 697.215 371.611C693.633 372.568 690.449 383.57 694.031 390.745C697.613 397.92 703.186 399.355 711.544 400.312C719.903 401.268 721.893 391.223 727.465 394.571C733.037 397.92 730.649 402.225 733.833 413.705C737.018 425.185 744.182 436.665 740.202 440.492C736.222 444.319 724.281 425.663 717.912 429.012C711.544 432.36 717.912 449.58 714.728 453.885C711.544 458.19 709.952 445.754 705.176 446.232C700.4 446.71 694.827 450.537 695.623 455.799C696.419 461.061 706.768 461.539 708.36 467.279C709.952 473.019 707.166 476.367 701.992 478.759C696.817 481.151 688.857 473.976 687.663 476.846C686.469 479.716 696.817 485.934 697.215 490.239C697.613 494.544 685.673 488.326 689.255 494.066C692.837 499.806 705.574 503.633 711.544 513.199C717.514 522.766 715.126 527.071 713.136 532.333C711.146 537.595 708.758 536.638 703.584 534.246C698.409 531.855 692.041 520.374 692.439 522.766C692.837 525.158 703.186 535.203 705.176 543.813C707.166 552.423 704.38 555.771 700.4 557.207C696.419 558.642 691.245 545.248 689.255 549.553C687.265 553.858 697.639 571.626 692.439 574.427C679.856 581.204 675.856 562.941 668.558 561.033C664.309 559.922 679.736 581.64 674.926 587.82C668.351 596.269 653.836 581.954 649.453 585.907C644.66 590.229 644.927 608.641 633.532 612.694C627.739 614.754 629.95 596.43 627.164 597.387C624.378 598.344 626.766 612.694 622.387 616.52C618.009 620.347 610.049 607.91 609.651 612.694C609.253 617.477 623.979 629.436 620.795 635.654C617.611 641.872 600.496 630.392 596.914 637.568C593.332 644.743 608.855 657.179 606.467 664.355C604.079 671.53 595.322 661.006 587.362 666.268C579.401 671.529 581.391 685.88 574.625 685.401C567.859 684.923 565.869 662.919 560.296 664.355C554.724 665.789 559.102 687.315 552.336 691.141C545.569 694.968 541.987 679.661 533.231 679.661C524.474 679.661 527.26 680.753 517.31 680.275C507.359 679.797 502.981 665.447 493.429 666.882C483.876 668.317 484.274 668.759 479.1 669.715C473.926 670.672 478.304 654.409 472.732 654.409C467.159 654.409 463.577 670.194 456.811 669.715C450.044 669.237 449.646 641.629 445.666 641.629C441.686 641.629 444.074 672.107 440.89 669.715C437.706 667.324 438.9 634.932 432.929 632.062C426.959 629.192 419.477 663.925 417.009 658.235C411.453 645.43 420.016 633.59 423.377 619.968C425.406 611.746 406.66 626.186 401.088 621.881C395.516 617.576 411.038 602.748 401.088 602.748C391.137 602.748 375.614 621.881 361.286 621.881C346.957 621.881 352.529 603.705 343.773 602.748C335.016 601.791 332.23 619.968 326.26 618.055C320.289 616.141 324.27 599.4 319.891 595.094C315.513 590.789 313.921 603.226 308.747 600.834C303.573 598.443 305.165 588.876 299.194 585.528C293.224 582.179 292.03 614.607 284.866 614.607Z" fill="#EEF7E9"/>
</svg>
