<svg width="94" height="94" viewBox="0 0 94 94" fill="none" xmlns="http://www.w3.org/2000/svg">
<g clip-path="url(#clip0_170_43)">
<path d="M47 86C68.5391 86 86 68.5391 86 47C86 25.4609 68.5391 8 47 8C25.4609 8 8 25.4609 8 47C8 68.5391 25.4609 86 47 86Z" fill="white"/>
<path d="M51.932 46.2C52.0562 46.2931 52.157 46.4139 52.2265 46.5528C52.2959 46.6916 52.332 46.8448 52.332 47C52.332 47.1552 52.2959 47.3084 52.2265 47.4472C52.157 47.5861 52.0562 47.7069 51.932 47.8L46.599 51.8C46.4505 51.9114 46.2738 51.9793 46.0888 51.996C45.9039 52.0126 45.7179 51.9775 45.5518 51.8944C45.3857 51.8114 45.246 51.6837 45.1484 51.5257C45.0507 51.3678 44.999 51.1857 44.999 51V43C44.999 42.8143 45.0507 42.6322 45.1484 42.4743C45.246 42.3163 45.3857 42.1886 45.5518 42.1056C45.7179 42.0225 45.9039 41.9874 46.0888 42.004C46.2738 42.0207 46.4505 42.0886 46.599 42.2L51.932 46.2Z" fill="#E30613"/>
<path d="M47 93.5C72.6812 93.5 93.5 72.6812 93.5 47C93.5 21.3188 72.6812 0.5 47 0.5C21.3188 0.5 0.5 21.3188 0.5 47C0.5 72.6812 21.3188 93.5 47 93.5Z" stroke="white"/>
</g>
<defs>
<clipPath id="clip0_170_43">
<rect width="94" height="94" fill="white"/>
</clipPath>
</defs>
</svg>
