<svg width="900" height="630" viewBox="0 0 900 630" fill="none" xmlns="http://www.w3.org/2000/svg">
<mask id="mask0_170_52" style="mask-type:luminance" maskUnits="userSpaceOnUse" x="0" y="0" width="900" height="630">
<path d="M900 0H0V630H900V0Z" fill="white"/>
</mask>
<g mask="url(#mask0_170_52)">
<path opacity="0.05" d="M3.36937 630H182.769C182.769 629.22 182.769 628.43 182.749 627.65H3.37938C3.37938 628.44 3.35938 629.22 3.35938 630H3.36937Z" fill="white"/>
<path d="M255.54 2.71H254.29ZM3.38 627.65H182.76ZM182.77 627.65H226.71C227.29 510.33 257.89 395.16 315.56 293.33C389.58 162.99 506.99 60.05 644.46 2.71H645.72C688.18 49.64 728.85 98.68 761.14 153.49C582.25 204.2 444.88 358.66 412.76 543.59C407.93 571.38 406.07 599.47 404.93 627.64H495.09C493.94 592.72 490.66 558.8 483.49 524.57C481.26 513.88 475.06 497.97 474.12 488.32C473.27 479.64 488.31 446.57 492.84 436.91C509.23 402.3 529.83 369.89 554.16 340.46C557.06 336.98 588.42 301.47 590.49 303.05C594.3 313.6 600.51 322.95 605.39 333C649.54 424.23 672.54 525.79 673.29 627.63H717.24C718.28 503.72 684.56 380.61 624.51 273.43C670.48 235.58 725.84 209.6 783.09 193.98C785.71 194.23 787.16 197.86 788.48 200C801.86 221.78 815.3 252.93 825.34 276.82C871.81 387.44 895.82 507.07 896.61 627.62H900V0H0V627.65H3.38" fill="white"/>
<path d="M414.841 97.12C367.321 57.23 311.981 27.79 255.541 2.70996H254.281C212.901 47.67 174.721 95.37 142.101 147.28C52.3509 290.12 4.00086 457.87 3.38086 627.65H182.761C180.981 426.93 269.411 231.49 414.841 97.12Z" fill="#FEF4F4"/>
</g>
</svg>
