<svg width="787" height="989" viewBox="0 0 787 989" fill="none" xmlns="http://www.w3.org/2000/svg">
<path d="M276.009 115.117C251.023 115.117 230.81 135.394 230.81 160.363C230.81 187.098 276.009 238.715 276.009 238.715C276.009 238.715 321.208 189.078 321.208 160.363C321.208 135.351 300.952 115.117 276.009 115.117ZM276.009 177.239C265.688 177.239 257.302 168.844 257.302 158.512C257.302 148.18 265.688 139.785 276.009 139.785C286.33 139.785 294.716 148.18 294.716 158.512C294.716 168.844 286.33 177.239 276.009 177.239Z" fill="#116E8D"/>
<path d="M485.317 0C460.33 0 440.118 20.2768 440.118 45.2461C440.118 71.9805 485.317 123.598 485.317 123.598C485.317 123.598 530.515 73.9608 530.515 45.2461C530.515 20.2338 510.26 0 485.317 0ZM485.317 62.1219C474.995 62.1219 466.609 53.7271 466.609 43.3949C466.609 33.0628 474.995 24.668 485.317 24.668C495.638 24.668 504.024 33.0628 504.024 43.3949C504.024 53.7271 495.638 62.1219 485.317 62.1219Z" fill="#116E8D"/>
<path d="M741.801 109.305C716.815 109.305 696.603 129.582 696.603 154.551C696.603 181.286 741.801 232.903 741.801 232.903C741.801 232.903 787 183.266 787 154.551C787 129.539 766.744 109.305 741.801 109.305ZM741.801 171.427C731.48 171.427 723.094 163.032 723.094 152.7C723.094 142.368 731.48 133.973 741.801 133.973C752.123 133.973 760.509 142.368 760.509 152.7C760.509 163.032 752.123 171.427 741.801 171.427Z" fill="#116E8D"/>
<path d="M45.1987 497.75C20.2126 497.75 0 518.027 0 542.996C0 569.731 45.1987 621.348 45.1987 621.348C45.1987 621.348 90.3975 571.711 90.3975 542.996C90.3975 517.984 70.1419 497.75 45.1987 497.75ZM45.1987 559.872C34.8774 559.872 26.4914 551.477 26.4914 541.145C26.4914 530.813 34.8774 522.418 45.1987 522.418C55.52 522.418 63.9061 530.813 63.9061 541.145C63.9061 551.477 55.52 559.872 45.1987 559.872Z" fill="#116E8D"/>
<path d="M402.918 431.496C377.932 431.496 357.719 451.772 357.719 476.742C357.719 503.476 402.918 555.094 402.918 555.094C402.918 555.094 448.117 505.456 448.117 476.742C448.117 451.729 427.861 431.496 402.918 431.496ZM402.918 493.618C392.597 493.618 384.211 485.223 384.211 474.891C384.211 464.558 392.597 456.164 402.918 456.164C413.24 456.164 421.626 464.558 421.626 474.891C421.626 485.223 413.24 493.618 402.918 493.618Z" fill="#B8CF38"/>
<path d="M345.807 672.105C421.067 695.998 459.643 717.868 475.598 747.573C476.759 741.373 477.447 734.701 477.447 727.468V686.828C477.447 636.976 453.708 615.494 404.639 615.494C383.953 615.494 359.44 619.325 331.056 626.988C320.348 630.82 308.822 632.369 296.566 632.369C273.558 632.369 262.075 620.875 262.075 597.843V379.189C262.075 356.157 273.558 344.663 296.566 344.663H542.557C561.738 344.663 570.898 360.764 570.898 392.234C570.898 423.703 561.695 439.804 542.557 439.804H470.05C470.394 442.689 470.609 445.659 470.609 448.673V453.753C470.609 482.209 494.95 496.416 544.664 496.416C594.379 496.416 618.72 482.209 618.72 453.753V435.456C618.72 384.657 596.4 341.003 552.792 304.453C509.185 267.904 452.332 249.607 384.383 249.607C316.434 249.607 261.602 267.904 217.995 305.444C174.387 343.027 152.067 392.793 152.067 456.766C152.067 558.322 217.006 630.432 345.85 672.062L345.807 672.105Z" fill="#B8CF38"/>
<path d="M585.778 643.864C588.1 655.918 589.347 668.661 589.347 682.179V732.806C589.347 780.377 573.263 819.51 540.321 849.43C508.153 879.35 467.513 893.944 417.712 893.944C367.912 893.944 327.272 879.35 294.33 850.98C261.387 821.835 245.303 786.533 245.303 744.344V741.933C239.67 741.459 233.649 741.201 227.155 741.201C177.441 741.201 153.1 755.408 153.1 783.864V792.991C153.1 844.781 175.419 890.5 220.059 930.107C264.699 969.713 322.541 989 394.575 989C545.739 989 635.019 905.74 635.019 778.784C635.019 722.646 618.677 679.122 585.821 643.907L585.778 643.864Z" fill="#116E8D"/>
</svg>
