<svg width="113" height="108" viewBox="0 0 113 108" fill="none" xmlns="http://www.w3.org/2000/svg">
<g clip-path="url(#clip0_196_142)">
<path d="M112.764 77.9633L106.964 61.521V61.4738C106.933 61.3951 106.901 61.3007 106.87 61.222C106.87 61.1906 106.854 61.1748 106.838 61.1591C106.791 61.0804 106.76 60.986 106.713 60.9073C106.665 60.7972 106.603 60.7028 106.54 60.6241L106.508 60.5612C106.445 60.4825 106.383 60.4038 106.32 60.3252C106.32 60.3252 106.304 60.2937 106.288 60.2937C106.225 60.2308 106.162 60.1678 106.1 60.1049L106.052 60.0577C106.052 60.0577 105.911 59.9318 105.832 59.8689L105.754 59.8059C105.754 59.8059 105.612 59.7115 105.549 59.6643L105.471 59.6171C105.471 59.6171 105.329 59.5385 105.251 59.4913L105.156 59.4441C105.078 59.3969 104.984 59.3654 104.889 59.3339L104.811 59.3024C104.716 59.271 104.638 59.2395 104.543 59.208H104.512C104.402 59.1608 104.308 59.1451 104.198 59.1294H104.166H104.135C104.025 59.1136 103.93 59.0979 103.82 59.0979H103.742C103.648 59.0979 103.553 59.0979 103.459 59.0979H103.38C103.302 59.0979 103.207 59.0979 103.129 59.1136H103.019C102.924 59.1451 102.846 59.1608 102.752 59.1766C102.72 59.1766 102.689 59.1923 102.642 59.208C102.563 59.2238 102.5 59.2395 102.421 59.271L102.343 59.3024C102.249 59.3339 102.17 59.3654 102.076 59.3969L101.997 59.4283C101.903 59.4755 101.824 59.507 101.746 59.5542L101.698 59.5857C101.698 59.5857 101.557 59.6801 101.478 59.7273L101.415 59.7745C101.415 59.7745 101.274 59.8689 101.211 59.9318L86.5616 72.0472C84.974 73.2902 84.6911 75.5717 85.9328 77.1608C87.1746 78.75 89.4537 79.0332 91.0413 77.7902C91.1042 77.743 91.1513 77.6958 91.1985 77.6486L96.5428 73.2115C89.0136 90 72.3363 100.794 53.9458 100.762C28.2146 100.762 7.27765 79.8042 7.27765 54.0472C7.27765 28.2902 28.2146 7.28497 53.9458 7.28497C70.2929 7.28497 85.6656 16.0332 94.0593 30.0996C95.081 31.8304 97.2973 32.4126 99.042 31.4056C100.771 30.3829 101.353 28.1643 100.347 26.4178C100.347 26.4021 100.331 26.3864 100.315 26.3706C90.5855 10.007 72.9651 0 53.9458 0C24.1593 0 0 24.1678 0 54C0 68.3182 5.69008 82.0699 15.7971 92.1871C35.6652 112.075 67.4322 113.365 88.8564 95.1766C95.4268 89.5909 100.551 82.5262 103.836 74.549L105.895 80.3864C106.524 82.2902 108.599 83.3287 110.501 82.6836C112.403 82.0542 113.44 79.9773 112.796 78.0734C112.796 78.0262 112.764 77.9948 112.749 77.9476L112.764 77.9633Z" fill="white"/>
<path d="M86.7344 52.2063C80.0698 39.194 66.882 30.3986 51.7923 30.3986C36.7026 30.3986 23.4991 39.2098 16.8502 52.2063C16.2843 53.3392 16.2843 54.6608 16.8502 55.7937C23.5148 68.8059 36.7026 77.6014 51.7923 77.6014C66.882 77.6014 80.0855 68.7902 86.7344 55.7937C87.3003 54.6608 87.3003 53.3392 86.7344 52.2063ZM51.7923 71.701C42.0312 71.701 34.109 63.771 34.109 54C34.109 44.229 42.0312 36.2989 51.7923 36.2989C61.5535 36.2989 69.4756 44.229 69.4756 54C69.4756 63.771 61.5692 71.701 51.808 71.701C51.808 71.701 51.808 71.701 51.7923 71.701ZM51.7923 42.1993C50.7392 42.1993 49.7018 42.3724 48.6801 42.6713C50.5977 45.2832 50.0476 48.965 47.4226 50.9003C45.3477 52.4266 42.5341 52.4266 40.4593 50.9003C38.7617 57.1783 42.4555 63.6451 48.7272 65.3444C54.9989 67.0437 61.4592 63.3461 63.1568 57.0682C64.8544 50.7902 61.1605 44.3234 54.8888 42.6241C53.8829 42.3566 52.8297 42.215 51.7766 42.215L51.7923 42.1993Z" fill="white"/>
</g>
<defs>
<clipPath id="clip0_196_142">
<rect width="113" height="108" fill="white"/>
</clipPath>
</defs>
</svg>
