<svg width="1012" height="1273" viewBox="0 0 1012 1273" fill="none" xmlns="http://www.w3.org/2000/svg">
<path d="M354.942 147.889C322.836 147.889 296.804 173.923 296.804 206.032C296.804 240.346 354.942 306.661 354.942 306.661C354.942 306.661 413.081 242.913 413.081 206.032C413.081 173.923 387.049 147.889 354.942 147.889ZM354.942 227.691C341.673 227.691 330.899 216.915 330.899 203.645C330.899 190.375 341.673 179.6 354.942 179.6C368.211 179.6 378.986 190.375 378.986 203.645C378.986 216.915 368.211 227.691 354.942 227.691Z" fill="#5899AF" fill-opacity="0.56"/>
<path d="M624.085 0C591.978 0 565.946 26.0342 565.946 58.143C565.946 92.4574 624.085 158.772 624.085 158.772C624.085 158.772 682.223 95.0247 682.223 58.143C682.223 26.0342 656.191 0 624.085 0ZM624.085 79.8019C610.815 79.8019 600.041 69.0267 600.041 55.7565C600.041 42.4863 610.815 31.7111 624.085 31.7111C637.354 31.7111 648.128 42.4863 648.128 55.7565C648.128 69.0267 637.354 79.8019 624.085 79.8019Z" fill="#5899AF" fill-opacity="0.56"/>
<path d="M953.861 140.439C921.755 140.439 895.723 166.474 895.723 198.582C895.723 232.897 953.861 299.212 953.861 299.212C953.861 299.212 1012 235.464 1012 198.582C1012 166.474 985.968 140.439 953.861 140.439ZM953.861 220.241C940.592 220.241 929.818 209.466 929.818 196.196C929.818 182.926 940.592 172.151 953.861 172.151C967.131 172.151 977.905 182.926 977.905 196.196C977.905 209.466 967.131 220.241 953.861 220.241Z" fill="#5899AF" fill-opacity="0.56"/>
<path d="M58.1385 639.392C26.0322 639.392 0 665.426 0 697.535C0 731.849 58.1385 798.164 58.1385 798.164C58.1385 798.164 116.277 734.416 116.277 697.535C116.277 665.426 90.2449 639.392 58.1385 639.392ZM58.1385 719.23C44.8694 719.23 34.0949 708.454 34.0949 695.184C34.0949 681.914 44.8694 671.139 58.1385 671.139C71.4077 671.139 82.1822 681.914 82.1822 695.184C82.1822 708.454 71.4077 719.23 58.1385 719.23Z" fill="#5899AF" fill-opacity="0.56"/>
<path d="M483.944 865.455C580.697 896.154 630.339 924.213 650.839 962.396C652.358 954.405 653.19 945.835 653.19 936.579V884.33C653.19 820.257 622.638 792.668 559.582 792.668C532.971 792.668 501.444 797.585 464.999 807.457C451.187 812.374 436.435 814.363 420.635 814.363C391.06 814.363 376.308 799.574 376.308 770.033V489.153C376.308 459.575 391.096 444.823 420.635 444.823H736.963C761.585 444.823 773.408 465.505 773.408 505.93C773.408 546.356 761.585 567.038 736.963 567.038H643.717C644.151 570.763 644.404 574.523 644.404 578.465V584.973C644.404 621.493 675.715 639.753 739.638 639.753C803.562 639.753 834.873 621.493 834.873 584.973V561.47C834.873 496.24 806.165 440.122 750.087 393.152C694.01 346.182 620.939 322.715 533.514 322.715C446.089 322.715 375.658 346.218 319.58 394.49C263.466 442.761 234.794 506.69 234.794 588.878C234.794 719.338 318.278 811.977 483.98 865.491L483.944 865.455Z" fill="#5899AF" fill-opacity="0.56"/>
<path d="M792.497 829.188C795.498 844.664 797.053 861.044 797.053 878.436V943.485C797.053 1004.59 776.372 1054.85 733.997 1093.29C692.599 1131.73 640.39 1150.46 576.322 1150.46C512.254 1150.46 460.045 1131.73 417.67 1095.28C375.295 1057.82 354.614 1012.51 354.614 958.31V955.201C347.383 954.586 339.646 954.261 331.294 954.261C267.37 954.261 236.059 972.521 236.059 1009.04V1020.79C236.059 1087.32 264.767 1146.05 322.146 1196.92C379.562 1247.8 453.898 1272.6 546.529 1272.6C740.903 1272.6 855.698 1165.61 855.698 1002.53C855.698 930.432 834.655 874.495 792.461 829.261L792.497 829.188Z" fill="#5899AF" fill-opacity="0.56"/>
</svg>
