<svg width="858" height="677" viewBox="0 0 858 677" fill="none" xmlns="http://www.w3.org/2000/svg">
<path d="M300.666 125.274C273.469 125.274 251.417 147.327 251.417 174.526C251.417 203.593 300.666 259.768 300.666 259.768C300.666 259.768 349.914 205.768 349.914 174.526C349.914 147.327 327.863 125.274 300.666 125.274ZM300.666 192.873C289.426 192.873 280.299 183.746 280.299 172.505C280.299 161.264 289.426 152.136 300.666 152.136C311.906 152.136 321.033 161.264 321.033 172.505C321.033 183.746 311.906 192.873 300.666 192.873Z" fill="#5899AF" fill-opacity="0.56"/>
<path d="M528.652 0C501.456 0 479.404 22.0531 479.404 49.252C479.404 78.3192 528.652 134.493 528.652 134.493C528.652 134.493 577.901 80.4939 577.901 49.252C577.901 22.0531 555.849 0 528.652 0ZM528.652 67.599C517.412 67.599 508.285 58.4714 508.285 47.2305C508.285 35.9895 517.412 26.8619 528.652 26.8619C539.892 26.8619 549.019 35.9895 549.019 47.2305C549.019 58.4714 539.892 67.599 528.652 67.599Z" fill="#5899AF" fill-opacity="0.56"/>
<path d="M808.001 118.964C780.804 118.964 758.753 141.017 758.753 168.216C758.753 197.283 808.001 253.458 808.001 253.458C808.001 253.458 857.249 199.458 857.249 168.216C857.249 141.017 835.198 118.964 808.001 118.964ZM808.001 186.563C796.761 186.563 787.634 177.436 787.634 166.195C787.634 154.954 796.761 145.826 808.001 145.826C819.241 145.826 828.368 154.954 828.368 166.195C828.368 177.436 819.241 186.563 808.001 186.563Z" fill="#5899AF" fill-opacity="0.56"/>
<path d="M49.2483 541.618C22.0515 541.618 0 563.672 0 590.87C0 619.938 49.2483 676.112 49.2483 676.112C49.2483 676.112 98.4965 622.112 98.4965 590.87C98.4965 563.672 76.445 541.618 49.2483 541.618ZM49.2483 609.248C38.0081 609.248 28.8813 600.12 28.8813 588.879C28.8813 577.638 38.0081 568.511 49.2483 568.511C60.4884 568.511 69.6152 577.638 69.6152 588.879C69.6152 600.12 60.4884 609.248 49.2483 609.248Z" fill="#5899AF" fill-opacity="0.56"/>
</svg>
