<svg width="476" height="523" viewBox="0 0 476 523" fill="none" xmlns="http://www.w3.org/2000/svg">
<g clip-path="url(#clip0_266_32)">
<path d="M111.104 2.36601C111.104 2.36601 146.215 -5.01585 149.65 6.30356C153.086 17.6313 147.199 25.5064 158.981 22.0621C170.762 18.6178 181.327 7.0476 192.124 28.4659L202.93 27.2369L218.889 28.4659L230.187 23.7843C230.187 23.7843 234.365 25.9997 238.784 24.7707C243.203 23.5418 246.396 19.6043 248.114 16.1516C249.832 12.6989 252.533 11.7208 255.968 11.9633C259.404 12.2057 261.121 14.9143 262.597 25.9997C264.807 29.5192 271.194 31.6594 274.629 32.1526C281.991 37.8123 296.483 48.6468 296.483 48.6468V62.6832C296.483 62.6832 333.07 84.0597 347.803 102.569C345.352 112.659 345.352 111.188 345.352 111.188L364.504 136.301V147.871L370.891 151.073L391.519 146.885C391.519 146.885 396.189 138.023 399.866 147.378L407.72 143.19L414.841 146.885L422.453 142.697L434.485 134.328L457.565 133.71L464.685 137.037L473.032 145.288C473.032 145.288 472.54 156.733 463.335 170.402C454.129 184.07 467.137 182.34 467.137 182.34L467.629 192.062C467.629 192.062 477.326 197.847 475.858 207.077C474.749 209.911 471.189 209.535 471.189 209.535L469.346 212.979L468.854 226.271L449.577 241.411L437.178 244.245L424.529 235.509C424.529 235.509 422.32 247.815 397.156 252.371L398.999 264.067L393.721 275.511L398.39 302.715C398.39 302.715 426.747 334.842 446.025 341.982C439.396 350.601 434.852 356.879 434.852 356.879C434.852 356.879 429.574 361.067 426.747 363.157C423.921 365.247 418.768 368.207 415.083 369.804C410.663 372.755 392.862 386.54 392.862 386.54L391.511 394.792L381.197 403.779C381.197 403.779 381.814 417.439 373.951 428.892C365.113 438.121 364.379 438.489 364.379 438.489L348.42 447.969L348.053 454.616L339.457 461.387L338.106 479.604L328.534 487.972L328.409 511.112C328.409 511.112 324.974 535.114 314.043 514.925C312.934 513.202 303.12 506.673 303.12 506.673C303.12 506.673 299.193 505.938 298.209 508.521C297.225 511.104 292.931 508.028 292.931 508.028L285.935 506.673L272.678 515.042L254.384 508.395L240.877 495.228L242.102 475.164L232.155 471.595C232.155 471.595 221.841 472.213 228.103 450.912L215.829 451.038L204.164 436.759L191.516 433.314C191.516 433.314 159.965 429.377 157.88 415.223C143.514 414.856 135.901 422.363 126.571 420.515C117.241 418.668 111.104 414.973 111.104 414.973L99.0722 400.451L96.4957 403.16L108.161 419.529C108.161 419.529 108.894 437.377 100.915 453.011C89.6169 461.747 83.1132 467.415 83.1132 467.415L39.6555 430.363L0 404.138L11.7816 359.454L10.189 337.3L14.4831 329.918C14.4831 329.918 16.2007 323.514 17.3097 321.792C18.4187 320.07 22.4626 322.904 22.4626 322.904C22.4626 322.904 35.5949 315.639 62.3599 322.043C76.6012 316.258 90.4757 308.5 90.4757 308.5C90.4757 308.5 98.822 300.625 106.31 294.84C113.797 289.055 116.132 288.561 115.64 277.359C115.148 266.157 113.555 249.044 113.555 249.044L87.8992 209.409C87.8992 209.409 86.5485 203.005 86.0565 196.117C85.5646 189.22 83.847 184.179 95.6286 178.268C107.41 172.358 107.043 165.344 108.644 161.038C110.245 156.733 115.89 145.28 118.466 143.808C111.838 139.996 94.528 128.426 94.1611 128.426C93.7942 128.426 93.1772 130.641 95.3868 124.238C97.5963 117.834 106.193 92.729 106.193 92.729C106.193 92.729 123.261 62.0813 129.397 53.83C135.534 45.5787 122.894 34.995 116.874 29.8285C110.854 24.6621 100.423 24.6621 111.104 2.38273V2.36601Z" fill="#116E8D"/>
<path d="M179.242 154.517C166.276 154.517 155.762 165.059 155.762 178.059C155.762 191.961 179.242 218.805 179.242 218.805C179.242 218.805 202.722 192.99 202.722 178.059C202.722 165.059 192.208 154.517 179.242 154.517ZM179.242 186.837C173.872 186.837 169.528 182.473 169.528 177.097C169.528 171.722 173.881 167.358 179.242 167.358C184.603 167.358 188.956 171.722 188.956 177.097C188.956 182.473 184.603 186.837 179.242 186.837Z" fill="white"/>
<path d="M287.945 94.6348C274.979 94.6348 264.465 105.177 264.465 118.176C264.465 132.079 287.945 158.923 287.945 158.923C287.945 158.923 311.424 133.107 311.424 118.176C311.424 105.177 300.91 94.6348 287.945 94.6348ZM287.953 126.954C282.583 126.954 278.239 122.591 278.239 117.215C278.239 111.84 282.592 107.476 287.953 107.476C293.314 107.476 297.667 111.84 297.667 117.215C297.667 122.591 293.314 126.954 287.953 126.954Z" fill="white"/>
<path d="M421.153 151.5C408.187 151.5 397.673 162.041 397.673 175.041C397.673 188.944 421.153 215.788 421.153 215.788C421.153 215.788 444.632 189.972 444.632 175.041C444.632 162.041 434.118 151.5 421.153 151.5ZM421.153 183.819C415.783 183.819 411.439 179.455 411.439 174.08C411.439 168.704 415.791 164.34 421.153 164.34C426.514 164.34 430.866 168.704 430.866 174.08C430.866 179.455 426.514 183.819 421.153 183.819Z" fill="white"/>
<path d="M59.3582 353.552C46.3926 353.552 35.8784 364.094 35.8784 377.093C35.8784 390.996 59.3582 417.84 59.3582 417.84C59.3582 417.84 82.8381 392.024 82.8381 377.093C82.8381 364.094 72.3238 353.552 59.3582 353.552ZM59.3582 385.871C53.9886 385.871 49.6445 381.508 49.6445 376.132C49.6445 370.757 53.9969 366.393 59.3582 366.393C64.7196 366.393 69.072 370.757 69.072 376.132C69.072 381.508 64.7196 385.871 59.3582 385.871Z" fill="white"/>
<path d="M255.727 319.083C242.761 319.083 232.247 329.625 232.247 342.625C232.247 356.528 255.727 383.372 255.727 383.372C255.727 383.372 279.206 357.556 279.206 342.625C279.206 329.625 268.692 319.083 255.727 319.083ZM255.727 351.403C250.357 351.403 246.013 347.039 246.013 341.664C246.013 336.288 250.365 331.924 255.727 331.924C261.088 331.924 265.44 336.288 265.44 341.664C265.44 347.039 261.088 351.403 255.727 351.403Z" fill="white"/>
</g>
<defs>
<clipPath id="clip0_266_32">
<rect width="476" height="523" fill="white"/>
</clipPath>
</defs>
</svg>
