<svg width="379" height="140" viewBox="0 0 379 140" fill="none" xmlns="http://www.w3.org/2000/svg">
<path d="M38 137.178V121.511C38.7737 120.286 41.3268 117.603 45.35 116.675L58.5026 115.514V98.8803C61.2749 97.9132 69.102 96.3659 78.2314 97.9132L83.6472 95.2053L89.8366 88.2422L90.6103 83.987C91.5774 83.0843 94.0919 81.9754 96.4129 84.7606H98.3471L108.405 91.5303L110.339 90.7567H120.397L124.265 88.2422H129.488L132.389 86.6948V83.4067C133.614 82.1172 138.23 79.693 146.896 80.312C148.959 79.4738 154.091 78.3004 158.114 80.312C159.984 78.5712 165.967 75.2444 174.942 75.8633C175.973 75.2186 178.771 74.0452 181.711 74.5094C181.949 74.5469 182.158 74.5813 182.34 74.6128C184.046 72.6776 187.987 69.3332 191.963 69.4804H196.024L198.926 68.7068L214.012 65.0318V45.8832L236.643 36.9858L239.157 37.9529V46.4634L253.47 50.1384V44.7227L257.725 43.949L281.516 52.0726V59.2292L286.932 56.7147V49.3647H288.673L306.467 45.3029L309.175 45.8832V52.0726L334.9 47.8174V39.3069L340.509 37.9529L345.732 41.8213C348.44 42.1437 354.513 43.2913 357.143 45.3029L359.078 48.7845V65.612L361.205 97.1396L367.008 110.486C368.749 110.163 372.965 109.944 375.905 111.646V131.182L379 132.922V139.112H38V137.178Z" fill="#E3ECF5"/>
<path d="M349.987 0.816162L349.213 42.4015L350.567 42.595L350.954 20.1582H351.341C352.695 20.1582 353.469 21.5121 354.049 22.8661C354.513 23.9492 358.884 25.2516 361.012 25.7674C362.25 27.16 364.751 27.7661 365.848 27.895C366.776 26.6571 366.105 25.574 365.654 25.1871C365.19 24.5682 365.59 23.7687 365.848 23.4463C366.312 23.1369 366.299 21.5121 366.234 20.7385C366.234 18.7269 364.429 15.6451 363.526 14.3556C363.062 11.5703 355.209 5.45825 351.341 2.75037V0.816162H349.987Z" fill="#E3ECF5"/>
<path d="M1.33399 106.598L1.3248 106.625C1.3248 106.625 1.32874 106.615 1.33399 106.598ZM1.33399 106.598L1.33837 106.587C1.49642 106.119 1.37121 106.489 1.33399 106.598ZM22.7042 134.195C22.4231 134.183 21.48 134.803 21.48 134.803L20.3794 134.735C19.7958 134.769 19.3466 134.453 19.3466 134.453C19.3466 134.453 19.5156 134.138 19.6281 133.823C19.6299 133.816 19.6325 133.809 19.6351 133.802C19.7275 133.497 19.4596 133.26 19.4596 133.26C19.2573 133.148 18.7188 132.484 18.7188 132.484C18.3257 132.146 18.3484 131.831 18.3257 131.471C18.3029 131.111 17.5963 128.68 17.5963 128.68C17.5512 128.286 17.3826 128.016 17.3826 128.016C17.3717 127.971 17.1134 127.915 17.1471 127.555C17.1808 127.194 16.9339 126.565 16.9339 126.565L15.6091 123.74C15.3845 123.009 15.205 122.041 15.1603 121.658C15.1157 121.276 13.0492 118.136 13.0492 118.136C12.7804 117.81 12.7686 117.518 12.7686 117.518C12.9034 117.247 12.9932 114.57 12.9932 114.57C13.0265 114.029 13.0041 110.8 13.0041 110.8L14.3517 111.576C14.9804 112.161 15.6428 112.003 15.6428 112.003C16.2492 112.094 16.1257 111.643 16.3056 110.968C16.4856 110.293 16.0587 109.157 16.0587 109.157L14.5316 106.107C14.3858 105.916 14.3745 105.804 14.3745 105.804C14.3745 105.804 14.3075 103.103 14.2514 102.833C14.195 102.563 13.3863 101.989 13.3863 101.989L13.5212 101.573L14.6328 101.617C15.4191 101.617 15.4637 100.908 15.4637 100.908L13.431 100.57L12.2183 99.2541C11.8475 98.9049 10.893 99.0172 10.893 99.0172C9.31037 99.0282 8.70401 100.739 8.70401 100.739C8.11998 102.314 9.09672 102.855 9.09672 102.855L8.88351 103.238C8.76049 103.451 8.91678 103.609 8.91678 103.609L9.29899 103.801C9.55686 103.834 9.50082 104.059 9.50082 104.059C9.41107 104.205 9.28761 104.335 9.05207 104.335C8.81653 104.335 7.03072 105.651 7.03072 105.651C6.94097 105.646 6.67172 105.038 6.67172 105.038C6.62706 104.768 6.8626 104.486 6.96417 104.093C7.06574 103.699 6.36876 103.407 6.36876 103.407C5.1556 102.945 2.83173 104.768 2.83173 104.768C1.81908 105.371 1.41542 106.378 1.34056 106.586C1.33268 106.608 1.32524 106.632 1.31604 106.659C1.09145 107.323 0.78805 110.372 0.78805 110.372C0.462759 112.521 1.04679 114.344 1.04679 114.344C0.496471 115.166 0.496471 117.855 0.496471 117.855C0.533249 117.935 0.630878 117.95 0.732449 117.941C0.710121 118.096 0.709682 118.192 0.709682 118.192C0.99951 119.477 0 120.5 0 120.5L0.370384 120.692C1.16806 120.253 1.19039 118.734 1.19039 118.734C1.17945 118.148 1.41499 117.485 1.41499 117.485C1.29153 117.923 1.56165 118.812 1.56165 118.812C1.67373 119.454 2.10015 119.847 2.10015 119.847C1.89745 120.86 2.45872 122.042 2.45872 122.042L2.80721 121.85C2.425 121.58 2.48148 120.219 2.48148 120.219C2.80108 120.843 3.93018 120.641 3.93018 120.641C3.6942 120.81 3.52565 121.602 3.52565 121.602L3.86276 121.569L3.91311 121.35C3.98053 120.979 4.36798 120.573 4.36798 120.573C4.7051 120.607 5.42923 120.455 5.42923 120.455C5.37888 120.64 5.56407 121.248 5.61485 121.468C5.66564 121.687 5.32853 125.603 5.32853 125.603C5.10963 126.363 3.93062 128.704 3.93062 128.704C3.33564 129.694 2.85274 133.239 2.85274 133.239C2.77394 133.914 2.26871 134.803 2.26871 134.803C1.98764 135.669 2.46003 136.58 2.46003 136.58C2.25776 136.963 2.10103 138.021 2.10103 138.021C2.24638 138.741 2.94249 138.786 2.94249 138.786C3.63948 138.932 3.93106 138.662 3.93106 138.662C4.18936 138.392 4.27911 138.2 4.68364 138.674C5.08817 139.147 6.27769 138.966 6.27769 138.966C7.47991 139.033 8.25482 138.73 8.25482 138.73C8.41112 138.628 8.96188 138.516 8.6471 137.942C8.33231 137.368 7.41205 137.571 7.26626 137.537C7.12047 137.503 6.7943 137.21 6.7943 137.21C6.33417 136.862 5.67177 136.096 5.67177 136.096C6.08769 135.803 5.75058 135.151 5.67177 134.836C5.59297 134.521 5.73963 133.587 5.80705 133.035C5.87447 132.483 6.32366 130.548 6.60386 130.019C6.88405 129.49 7.97419 128.354 7.97419 128.354C8.37828 127.758 8.33319 127.307 8.83842 125.709C9.34364 124.111 10.0739 123.841 10.0739 123.841C10.411 123.808 11.073 124.82 11.073 124.82C11.4885 125.8 12.2183 126.295 12.2183 126.295C12.3868 126.452 12.667 126.554 12.8583 127.128C13.0497 127.702 14.1494 129.119 14.1494 129.119C14.4077 129.401 14.9467 130.335 14.9467 130.335C15.2159 130.751 16.3608 133.497 16.6082 133.97C16.8555 134.442 16.6532 134.892 16.6532 134.892C16.6423 135.849 17.1024 136.164 17.1024 136.164C17.1024 136.4 17.2933 137.289 17.2933 137.289C17.5402 138.223 18.1921 137.92 18.1921 137.92C18.5848 137.875 18.8213 137.639 18.8213 137.639C19.1128 137.065 20.0677 137.166 20.0677 137.166C20.3483 136.986 21.628 136.761 21.628 136.761C21.628 136.761 22.4248 135.995 22.7396 135.624C23.0544 135.253 22.9756 134.758 22.9756 134.758C23.0404 134.387 22.9848 134.206 22.7042 134.195ZM0.96361 117.148C0.989441 116.281 1.2241 114.986 1.2241 114.986C1.36989 115.662 2.08921 115.988 2.08921 115.988C1.49511 116.283 1.15712 116.731 0.96361 117.148ZM11.9136 105.275C12.0143 105.208 12.5646 104.464 12.5646 104.464C12.5646 104.464 13.0589 105.207 13.0921 105.511C13.1254 105.815 12.8903 106.581 12.8111 106.277C12.7318 105.972 11.8124 105.342 11.9136 105.275Z" fill="#B6C8DA"/>
</svg>
