<svg width="918" height="312" viewBox="0 0 918 312" fill="none" xmlns="http://www.w3.org/2000/svg">
<path d="M37.0313 179.1C38.5482 178.297 42.9206 176.958 46.8468 176.244C50.773 175.531 55.0561 174.906 56.4838 174.906C57.8223 174.817 58.8931 175.084 58.8931 175.531C58.8931 175.888 57.2869 182.223 55.413 189.54C53.4499 196.946 49.613 210.153 46.8468 218.987C44.0806 227.82 39.3513 241.473 36.4066 249.325C33.462 257.178 28.465 269.76 25.3419 277.255C21.5941 286.089 19.0064 291.086 17.8464 291.711C16.8648 292.246 14.2771 292.603 12.0463 292.603C9.81552 292.603 7.85241 292.246 7.58472 291.711C7.31702 291.175 6.6924 290.997 6.24624 291.264C5.80008 291.532 4.10467 291.354 2.67696 290.818C0.803088 290.194 0 289.391 0 287.963C0 286.803 1.16002 283.68 2.58773 281.003C4.01544 278.326 7.40625 270.473 10.0832 263.603C12.7602 256.732 18.0249 242.098 21.6834 231.033C25.3419 219.968 28.8219 208.546 29.4465 205.602C30.0712 202.657 31.5881 197.214 32.7481 193.555C33.9974 189.897 34.8005 185.435 34.622 183.829C34.3543 181.152 34.7112 180.438 37.0313 179.1Z" fill="#A82367"/>
<path d="M155.442 6.43607C158.298 3.40218 161.51 0.725225 162.581 0.546761C163.741 0.368297 165.436 0.100602 166.418 0.0113697C167.399 -0.0778623 168.649 0.368297 169.273 0.992921C169.987 1.79601 170.076 3.22372 169.63 5.27605C169.273 6.97146 168.381 9.38072 167.756 10.63C167.042 11.8792 165.347 16.0731 164.008 19.9993C162.67 23.9255 161.51 28.2087 161.51 29.6364C161.51 31.1533 158.922 35.8826 154.282 42.9319C150.267 48.9997 144.556 58.726 141.611 64.6153C138.667 70.5046 134.473 79.7847 132.242 85.1386C130.1 90.5818 127.245 97.8096 126.085 101.2C124.925 104.591 123.229 108.16 122.426 109.053C121.623 109.945 118.946 111.194 116.448 111.908C114.039 112.533 109.488 113.336 106.454 113.604C103.331 113.871 100.832 113.871 100.832 113.514C100.832 113.068 102.795 107.804 105.115 101.647C107.525 95.4895 110.291 87.9048 111.362 84.6925C112.343 81.4801 113.503 77.4647 113.771 75.7693C114.128 74.0739 114.485 71.9323 114.752 71.1292C114.931 70.2369 115.466 69.7015 116.002 69.9692C116.537 70.2369 118.768 66.6676 120.999 62.206C123.319 57.6552 128.137 48.4643 131.885 41.8611C135.543 35.258 141.165 25.7994 144.467 20.8916C147.679 15.9839 152.676 9.46995 155.442 6.43607Z" fill="#EDA741"/>
<path d="M70.1375 27.5841C70.9406 25.8887 71.9221 24.0148 72.3683 23.3902C72.9632 22.6763 73.6176 22.6168 74.3314 23.2117C74.956 23.6579 76.2053 24.6394 77.1868 25.3533C78.7038 26.4241 78.9715 27.7626 79.2392 35.7934C79.5069 43.7351 79.2392 46.5013 76.9191 55.6921C75.4022 61.5815 71.9221 77.1078 69.2452 90.2249C66.479 103.431 64.2482 114.318 64.2482 114.585C64.2482 114.853 63.2666 115.031 62.0174 115.031C60.7682 115.031 56.2173 116.816 51.7557 119.047C45.0633 122.438 43.7249 122.795 43.7249 121.545C43.7249 120.653 45.5095 110.302 47.7403 98.5235C49.9711 86.7449 53.005 72.2893 54.5219 66.4C55.9496 60.5107 57.9127 54.086 58.8051 52.1229C59.7866 50.1598 61.9282 45.1628 63.7128 40.9689C65.5867 36.775 67.3713 32.7595 67.9067 32.0457C68.3529 31.3318 69.4237 29.2795 70.1375 27.5841Z" fill="#77B956"/>
<path d="M99.6719 169.374C100.118 169.374 103.241 168.66 106.632 167.678C110.023 166.786 113.949 165.983 115.287 165.983C117.697 165.894 117.786 165.983 117.34 170.177C117.072 172.497 116.537 176.423 116.001 178.832C115.555 181.241 114.306 189.897 113.146 198.017C111.629 209.885 111.183 217.291 111.183 236.387C111.094 255.215 111.45 261.639 112.61 268.064C113.503 272.436 115.198 279.129 116.447 282.787C117.697 286.446 120.017 291.711 121.534 294.388C124.032 298.938 124.211 299.741 123.14 310.449L119.392 311.431C117.251 311.966 114.574 312.145 113.324 311.877C112.075 311.609 109.934 310.271 108.506 308.932C107.167 307.505 104.847 304.203 103.509 301.526C102.17 298.849 100.207 294.12 99.1365 291.086C98.1549 287.963 96.9949 283.769 96.7272 281.717C96.3703 279.575 95.8349 277.523 95.478 276.987C95.121 276.452 94.5856 274.846 94.2287 273.418C93.8718 271.99 92.9795 266.101 92.2656 260.479C91.641 254.858 91.0164 243.436 91.0164 235.048C91.0164 226.66 91.641 214.436 92.3548 207.833C92.9795 201.229 94.4964 190.611 95.478 184.186C96.5487 177.761 97.798 171.872 98.2441 171.069C98.6903 170.177 99.3149 169.463 99.6719 169.374Z" fill="#4CA7B6"/>
<path fill-rule="evenodd" clip-rule="evenodd" d="M320.788 10.4515C319.45 11.79 317.576 14.6454 316.595 16.8762C315.613 19.107 313.739 25.5317 312.311 31.1533C310.884 36.7749 308.921 45.6089 307.939 50.7843C306.958 55.9598 305.53 63.9907 304.816 68.6307C304.102 73.2708 302.674 83.7109 301.693 91.831C300.711 99.9511 299.284 113.782 298.57 122.616C297.856 131.45 296.964 144.121 296.607 150.724C296.339 157.684 296.428 167.589 297.053 174.192C297.856 183.026 298.48 186.417 300.176 189.808C301.336 192.128 303.299 194.894 304.459 195.875C305.53 196.946 307.314 198.106 308.296 198.374C309.278 198.731 311.151 198.552 312.579 198.017C313.918 197.571 315.702 196.054 316.505 194.715C317.398 193.288 319.004 188.202 320.075 183.294C321.145 178.386 323.644 170.355 325.696 165.447C327.659 160.54 331.139 153.669 333.281 150.278C335.423 146.887 339.17 142.069 341.49 139.659C343.81 137.339 347.38 134.395 349.343 133.235C351.306 132.075 354.964 130.915 357.374 130.558C361.121 130.022 362.014 130.201 362.995 131.628C363.62 132.61 364.066 134.305 364.066 135.555C364.066 136.804 363.084 139.927 361.835 142.515C360.586 145.013 357.463 149.386 354.964 152.152C352.377 154.918 345.238 160.45 339.081 164.466C332.924 168.57 327.035 173.032 325.875 174.46C324.715 175.888 323.555 177.851 323.287 178.832C323.019 179.814 323.465 181.955 324.269 183.561C325.072 185.078 326.41 186.506 327.302 186.506C328.105 186.595 329.622 186.506 330.604 186.417C331.586 186.328 335.155 184.632 338.635 182.58C342.115 180.617 347.647 176.869 351.127 174.371C354.607 171.872 359.426 168.57 361.835 167.054C364.334 165.447 370.937 161.967 376.558 159.29C382.18 156.613 387.802 154.204 389.051 153.847C389.753 153.679 390.234 153.563 390.581 153.729C391.335 154.09 391.45 155.784 391.817 161.164C392.174 165.983 393.066 170.623 394.137 173.032C395.119 175.263 397.26 178.654 398.956 180.528C400.651 182.491 404.042 184.989 406.451 186.149C409.039 187.309 412.608 188.202 414.928 188.202C417.159 188.202 421.531 187.309 424.744 186.238C427.956 185.168 433.488 182.312 437.058 179.992C440.538 177.672 446.516 173.121 450.175 169.909L456.867 164.109C457.67 169.998 458.295 173.121 458.83 174.817C459.366 176.512 460.526 179.011 461.418 180.438C462.4 181.777 464.63 183.294 466.504 183.918C469.449 184.811 470.341 184.632 474.714 182.58C477.391 181.331 481.763 178.118 484.351 175.531C486.849 172.943 490.597 168.481 492.56 165.715C494.523 162.86 497.468 158.22 499.074 155.453L501.929 150.278C502.286 157.863 502.822 163.484 503.357 167.678C503.892 171.872 505.142 177.226 506.212 179.635C507.283 182.045 509.514 185.168 511.12 186.595C512.994 188.202 514.957 189.094 516.92 189.094C518.616 189.094 521.382 188.112 523.791 186.506C526.022 185.078 529.234 182.134 531.019 179.992C532.804 177.851 536.641 172.497 539.585 168.124C542.53 163.752 545.653 158.844 546.635 157.238C547.527 155.632 548.598 154.561 549.044 154.829C549.401 155.007 549.668 157.863 549.668 161.253C549.668 164.555 550.115 169.82 550.561 173.032C551.007 176.244 552.078 180.974 552.97 183.651C553.862 186.328 555.915 189.986 557.521 191.949C559.573 194.359 561.269 195.519 563.767 195.875C565.73 196.143 568.318 195.875 570.192 195.162C571.887 194.448 574.386 192.663 575.724 191.235C577.063 189.808 579.026 186.238 580.096 183.294C581.167 180.349 585.361 170.891 589.466 162.324C593.927 153.133 597.318 147.066 597.764 147.601C598.121 148.136 599.192 152.509 599.995 157.417C600.798 162.324 602.404 168.124 603.475 170.355C604.814 173.032 606.241 174.638 607.937 175.263C609.811 175.977 611.06 175.798 612.845 174.817C614.629 173.746 617.306 169.284 622.749 158.309C628.996 145.727 631.137 142.336 635.242 138.232L640.239 133.324C641.131 160.004 641.845 167.41 642.827 171.247C643.63 174.46 645.147 178.386 646.128 179.992C647.02 181.509 648.627 183.205 649.608 183.74C650.59 184.275 652.374 184.632 653.624 184.632C654.873 184.632 657.371 183.918 659.245 182.937C661.03 182.045 664.778 179.1 667.455 176.423C670.132 173.746 673.969 169.463 675.932 166.875C678.876 163.038 679.59 162.503 680.036 163.841C680.393 164.734 681.107 167.41 681.642 169.909C682.267 172.318 683.606 176.155 684.676 178.297C685.747 180.438 687.889 183.205 689.316 184.454C690.744 185.703 693.421 187.309 695.117 188.023C697.08 188.826 699.757 189.094 702.255 188.826C704.486 188.558 708.68 187.22 711.535 185.881C714.658 184.365 718.495 181.42 720.904 178.832C723.135 176.334 726.437 171.515 728.311 168.124C730.095 164.644 732.326 161.253 733.219 160.361C734.111 159.558 736.877 158.666 739.286 158.309C741.785 157.952 745.979 157.06 748.656 156.346C749.479 156.099 750.302 155.86 751.061 155.64L751.066 155.639C752.771 155.145 754.147 154.746 754.456 154.561C754.991 154.383 755.616 158.666 755.973 165.626C756.33 171.961 757.043 178.654 757.668 180.617C758.203 182.58 760.077 185.525 761.684 187.042C763.914 189.272 765.521 189.986 767.841 189.986C769.536 189.986 772.034 189.451 773.462 188.737C774.801 188.112 776.853 186.417 778.102 184.9C779.351 183.472 781.582 179.724 783.188 176.601C783.848 175.204 784.998 172.827 786.365 170L786.367 169.997C788.143 166.326 790.286 161.895 792.201 157.863C795.592 150.724 799.429 143.496 800.678 141.801L802.998 138.678C803.801 153.936 804.515 162.503 804.961 167.678C805.496 172.854 806.656 179.011 807.549 181.509C808.441 183.918 810.404 187.042 811.921 188.38C813.795 190.075 815.669 190.878 817.81 190.878C819.506 190.878 822.004 190.343 823.432 189.629C824.771 189.005 827.804 186.238 830.214 183.651C832.623 180.974 836.638 175.888 839.137 172.229L843.688 165.715C844.045 175.888 844.58 184.008 845.115 190.432C845.651 196.857 847.078 205.869 848.238 210.51C849.488 215.15 851.362 220.414 852.432 222.02C853.503 223.716 855.645 225.857 857.072 226.75C858.589 227.642 861.534 228.356 863.765 228.356C866.977 228.356 868.227 227.91 870.011 226.036C871.707 224.34 872.242 222.824 872.153 220.057C872.153 218.005 871.082 214.079 869.743 211.402C868.494 208.725 867.066 204.085 866.531 201.14C866.085 198.195 865.371 187.934 865.014 178.386C864.746 168.57 864.925 152.42 865.46 141.355C866.085 130.558 867.334 113.871 868.227 104.323C869.208 94.7757 870.457 84.6925 870.903 82.0155C871.439 78.8032 872.51 76.4831 873.759 75.3231C874.919 74.3416 879.202 72.5569 883.396 71.4861C887.59 70.3261 896.156 67.7384 902.492 65.6861C911.147 62.9199 914.449 61.4029 915.698 59.7075C916.59 58.4583 917.393 56.5844 917.304 55.4244C917.304 54.3536 916.769 52.3905 916.233 51.1413C915.609 49.892 914.092 48.6428 912.842 48.3751C911.415 48.0181 903.919 49.7136 892.765 52.9259C882.95 55.6921 874.83 57.9229 874.74 57.7444C874.74 57.566 875.097 52.6582 875.633 46.7689C876.347 38.738 876.347 35.4364 875.544 33.3841C875.008 31.8672 873.402 30.1718 872.063 29.4579C869.833 28.4763 869.208 28.4763 866.62 29.9041C864.39 31.1533 862.783 33.2949 860.642 37.8457C859.036 41.2365 856.983 47.3043 856.18 51.2305C855.377 55.1567 854.128 60.0645 853.414 62.1168C852.611 64.5261 851.094 66.7569 849.309 68.0061C847.703 69.1661 843.777 71.2184 840.565 72.4677C837.352 73.8062 831.374 77.0185 827.18 79.6063C822.004 82.8186 819.327 85.0494 818.703 86.7448C818.108 88.351 818.108 89.9572 818.703 91.5633C819.417 93.4372 820.309 94.1511 822.272 94.3295C824.057 94.508 828.429 93.0803 834.764 90.1356C840.118 87.7264 845.651 85.4956 847.078 85.2279C848.952 84.7817 849.488 85.0494 849.488 86.2094C849.488 87.0268 849.113 90.5401 848.707 94.3482L848.595 95.4003C848.149 99.5942 847.078 111.016 846.365 120.831L844.937 138.678C838.601 150.456 834.497 157.506 831.82 161.878C829.143 166.25 825.841 171.426 824.414 173.211C822.986 175.084 821.38 176.601 820.934 176.601C820.487 176.601 819.595 175.709 818.97 174.549C818.257 173.3 817.721 165.001 817.364 151.17C816.829 130.825 816.74 129.576 814.687 125.293C813.17 122.348 811.564 120.385 809.78 119.582C807.638 118.601 806.389 118.601 803.712 119.404C801.57 120.028 799.072 121.902 796.752 124.579C794.789 126.988 790.952 133.502 788.185 139.124C786.768 142.004 785.164 145.375 783.708 148.434L783.699 148.454L783.698 148.456C782.316 151.361 781.069 153.982 780.244 155.632C778.638 159.023 776.496 162.681 775.425 163.663L773.641 165.447C772.57 162.681 772.302 156.703 772.391 150.278C772.391 143.586 773.105 134.662 773.997 129.308C774.89 124.133 776.139 117.53 776.853 114.585C777.478 111.641 778.102 107.536 778.102 105.394C778.102 102.717 777.478 100.933 775.871 98.9696C774.176 96.9172 772.927 96.2926 770.518 96.2926C768.108 96.2926 767.037 96.828 765.788 98.7019C764.896 100.13 763.647 102.36 763.111 103.877C762.576 105.394 761.505 108.964 760.791 111.908C760.077 114.853 758.828 121.456 758.114 126.631C757.311 131.807 756.419 136.269 755.973 136.625C755.616 136.893 752.85 138.053 749.726 139.035C746.693 140.105 742.409 140.909 740.179 140.909H736.163C735.539 135.019 735.092 130.379 734.825 126.81C734.557 123.33 733.397 117.708 732.148 114.407C730.898 111.016 728.935 106.822 727.686 105.037C726.437 103.163 724.117 100.843 722.511 99.7727C720.369 98.4342 718.763 98.0773 716.086 98.4342C714.123 98.7019 711.714 99.6834 710.821 100.487C709.929 101.379 707.52 104.145 705.557 106.554C703.594 109.053 700.024 112.533 697.615 114.407C695.295 116.191 692.172 119.404 690.744 121.545C689.316 123.598 686.996 128.148 685.658 131.539C684.141 135.376 679.947 142.158 674.95 148.939C670.399 155.096 664.331 162.413 661.298 165.269C658.264 168.035 655.587 170.177 655.23 169.998C654.784 169.82 654.248 166.697 653.802 163.127C653.445 159.469 652.731 150.546 652.285 143.139C651.839 135.733 651.036 128.238 650.501 126.364C650.054 124.579 648.627 121.902 647.377 120.385C645.771 118.511 644.344 117.708 642.47 117.708C641.042 117.708 638.722 118.244 637.383 118.958C635.956 119.582 632.743 122.527 630.066 125.382C627.479 128.327 623.285 133.859 620.965 137.785C618.555 141.712 615.879 146.619 614.986 148.672C614.183 150.813 613.202 152.509 612.845 152.509C612.398 152.509 611.952 151.616 611.685 150.546C611.584 149.89 611.255 148.153 610.844 145.977L610.841 145.966L610.841 145.962L610.836 145.938C610.521 144.271 610.157 142.35 609.811 140.462C609.008 136.09 607.848 131.361 607.134 130.022C606.42 128.595 604.903 126.988 603.654 126.453C601.691 125.471 601.066 125.561 598.924 127.167C597.586 128.148 594.998 131.004 593.124 133.413C591.251 135.822 585.45 146.352 580.186 156.792C572.512 171.961 570.459 175.441 569.835 174.192C569.299 173.3 568.764 166.964 568.586 160.093C568.318 151.17 568.764 142.693 570.103 130.647C571.173 121.367 571.976 111.819 571.976 109.499C571.976 106.287 571.441 104.68 569.924 102.985C568.853 101.736 566.712 100.487 565.284 100.13C563.232 99.6834 562.072 100.04 560.287 101.736C559.038 102.896 557.164 106.197 556.093 109.053C555.022 111.819 553.238 118.69 552.167 124.222C550.382 133.056 549.847 134.484 547.438 136.536C546.01 137.785 541.816 143.407 538.157 149.029C534.499 154.65 529.77 161.521 527.628 164.377C525.219 167.589 523.167 169.463 522.007 169.463C520.668 169.463 520.043 168.66 519.597 166.161C519.33 164.287 519.508 156.97 520.133 149.832C520.3 147.922 520.48 145.89 520.659 143.869L520.661 143.842L520.664 143.809C521.152 138.297 521.633 132.871 521.828 130.201C522.274 123.687 522.274 123.419 519.686 121.01C517.634 119.047 516.296 118.511 513.083 118.601C510.853 118.601 508.443 119.136 507.64 119.761C506.837 120.385 503.089 126.007 499.252 132.432C495.415 138.856 489.883 147.69 486.849 152.063C483.904 156.435 480.068 161.61 478.283 163.484C476.587 165.358 474.535 166.875 473.821 166.875C472.75 166.786 472.572 165.983 473.197 161.7C473.554 158.844 474.624 153.223 475.606 149.207C476.587 145.102 478.194 140.105 479.086 138.053C480.067 135.912 481.049 133.324 481.317 132.253C481.584 131.093 481.317 128.862 480.692 127.345C479.978 125.739 478.907 123.865 478.194 123.33C477.48 122.705 475.517 121.902 473.821 121.634C471.234 121.099 470.252 121.456 467.754 123.598C465.79 125.382 464.184 128.148 462.667 132.432C461.061 137.339 459.276 140.105 454.904 144.924C451.781 148.404 447.052 153.133 444.375 155.543C441.698 157.952 436.879 161.432 433.667 163.395C430.455 165.269 425.279 167.678 422.067 168.66C418.854 169.641 415.196 170.177 413.857 169.909C412.43 169.641 410.824 168.57 410.11 167.5C409.396 166.34 408.503 163.395 408.057 160.807L407.343 156.167C414.482 156.346 417.694 155.721 419.836 154.74C421.799 153.847 425.993 150.456 429.205 147.244C432.864 143.496 436.165 139.213 437.95 135.555C439.467 132.342 441.162 127.613 441.698 125.115C442.322 121.991 442.322 119.047 441.698 116.638C441.252 114.496 440.092 111.819 439.199 110.57C438.307 109.32 436.165 107.625 434.47 106.733C432.328 105.573 430.365 105.305 427.867 105.662C425.904 105.93 422.156 107.447 419.479 109.053C416.891 110.659 412.073 114.764 408.771 118.244C405.47 121.724 401.454 127.345 399.58 130.915C397.706 134.484 395.654 137.339 395.119 137.339C394.494 137.339 390.479 138.856 386.285 140.73L378.611 144.032C377.897 130.112 377.272 126.988 375.845 124.133C374.506 121.545 372.721 119.85 370.134 118.511C367.457 117.173 364.601 116.638 360.943 116.638C357.998 116.638 353.804 117.351 351.573 118.154C349.343 118.958 345.952 120.742 343.989 122.17C342.026 123.508 338.189 126.988 335.512 129.844C332.746 132.788 328.105 138.41 325.25 142.426C322.305 146.53 319.628 149.475 319.182 149.118C318.825 148.761 319.361 138.232 320.342 125.739C321.324 113.247 324.536 83.8894 327.481 60.5998C330.515 37.3103 332.746 16.8762 332.478 15.27C332.121 13.7531 330.961 11.433 329.712 10.1838C328.462 8.93455 326.499 7.953 325.339 7.953C324.179 7.953 322.127 9.02379 320.788 10.3623V10.4515ZM241.372 99.2373C238.784 101.557 237.624 103.699 235.929 109.32C234.769 113.247 232.984 121.456 231.913 127.613L230.04 138.767C218.796 151.081 213.086 156.435 210.141 158.666C207.196 160.897 201.396 164.287 197.202 166.25C192.384 168.481 188.19 169.82 185.781 169.909C182.568 169.998 181.497 169.552 179.713 167.5C178.107 165.626 177.571 164.109 177.571 160.629V156.167C183.639 156.435 186.762 155.721 189.171 154.561C191.402 153.58 195.15 150.724 197.559 148.404C199.968 146.084 203.27 142.069 204.876 139.659C206.393 137.161 208.535 132.699 209.605 129.576C210.676 126.542 211.479 122.438 211.479 120.474C211.479 118.511 210.944 115.567 210.23 113.961C209.605 112.444 207.732 109.945 206.215 108.428C203.805 106.197 202.556 105.751 199.165 105.751C196.488 105.751 193.365 106.554 190.599 107.982C188.101 109.231 183.282 113.068 179.802 116.459C176.322 119.85 171.771 125.561 169.719 128.952L165.971 135.198C151.783 132.878 143.306 131.807 137.863 131.272C132.42 130.736 120.82 130.29 111.986 130.29C103.152 130.29 91.1055 130.736 85.2161 131.182C79.3268 131.718 69.8683 132.699 64.2466 133.413C58.625 134.216 49.6126 135.644 44.1694 136.625C38.8155 137.607 29.9816 139.481 24.5384 140.73C19.1845 141.979 14.366 143.407 13.8306 143.853C13.3844 144.299 10.0828 152.776 6.6028 162.681C3.12276 172.586 0.356567 180.795 0.535031 180.885C0.713495 181.063 4.6397 179.368 9.19053 177.137C13.6521 174.995 22.843 171.426 29.4462 169.195C36.0493 167.054 49.7018 163.217 59.785 160.718C69.8683 158.22 83.0746 155.453 89.2316 154.472C95.3886 153.49 106.186 152.241 113.324 151.706C121.623 151.17 130.189 151.081 137.417 151.616C143.574 152.063 151.248 152.866 154.639 153.401L160.617 154.383C160.617 161.61 161.242 165.983 161.956 168.66C162.669 171.337 164.276 175.263 165.525 177.404C166.774 179.457 169.094 182.134 170.7 183.294C172.217 184.454 175.34 186.149 177.571 187.042C180.427 188.112 183.014 188.469 186.494 188.112C189.171 187.845 194.168 186.328 197.648 184.811C201.128 183.205 206.482 180.081 209.695 177.761C212.907 175.441 218.439 170.801 221.919 167.321L228.433 161.075C228.88 187.666 229.058 189.272 230.753 191.592C232.092 193.288 233.52 194.18 235.661 194.359C237.357 194.448 239.587 194.002 240.747 193.199C241.818 192.485 243.335 190.522 244.138 188.915C244.941 187.398 246.012 182.045 246.458 177.137C246.904 172.229 248.154 165.001 249.135 161.075C250.206 157.149 252.615 150.546 254.489 146.352C256.452 142.158 260.468 134.93 263.591 130.29C266.714 125.65 270.462 120.742 272.068 119.314C273.585 117.976 275.637 116.905 276.619 116.905C277.6 116.905 278.76 117.708 279.296 118.69C279.831 119.671 280.099 122.616 280.009 125.293C279.831 128.505 280.188 130.558 281.08 131.539C281.883 132.432 283.311 132.967 284.65 132.788C285.988 132.61 287.416 131.361 288.576 129.398C290.003 126.988 290.45 124.668 290.45 119.136C290.45 113.693 290.003 111.105 288.665 108.517C287.683 106.554 285.631 104.234 284.203 103.342C282.776 102.45 280.277 101.736 278.849 101.736C277.422 101.736 274.566 102.717 272.603 103.877C270.64 105.037 266 109.41 262.342 113.514C258.683 117.619 254.757 122.17 253.597 123.598L251.634 126.275C252.704 113.871 252.972 107.893 252.972 105.037C252.972 100.487 252.704 99.5942 250.741 98.0773C249.492 97.0957 247.618 96.2926 246.548 96.3819C245.477 96.3819 243.067 97.7203 241.372 99.2373ZM716.622 124.312C716.532 128.416 716.889 129.666 718.496 131.093C719.656 132.075 720.816 132.878 721.173 132.878C721.619 132.878 721.886 131.361 721.886 129.487C721.886 127.702 721.173 124.847 720.28 123.152C719.477 121.456 718.317 119.85 717.782 119.672C717.068 119.493 716.711 121.01 716.622 124.312ZM193.99 125.65C192.116 127.078 189.439 129.755 188.101 131.629C186.762 133.592 185.156 136.179 184.532 137.518C183.907 138.856 183.639 140.195 184.085 140.463C184.442 140.73 186.227 140.016 188.012 138.856C189.796 137.786 192.473 135.287 193.812 133.324C195.239 131.361 196.667 128.416 197.113 126.81C197.47 125.204 197.738 123.687 197.649 123.419C197.559 123.241 195.953 124.222 193.99 125.65ZM417.338 134.306C418.676 131.896 421.621 128.327 423.852 126.453C426.082 124.579 428.135 123.062 428.402 123.062C428.67 123.062 428.759 123.955 428.492 125.025C428.313 126.186 427.421 128.506 426.529 130.201C425.636 131.896 423.762 134.484 422.424 135.912C420.996 137.25 418.765 138.946 417.338 139.66C415.464 140.641 414.928 140.641 414.928 139.749C414.928 139.213 415.999 136.715 417.338 134.306ZM701.274 139.749C700.738 141.176 699.935 143.407 699.489 144.924C699.043 146.352 698.24 150.457 697.883 153.847C697.437 157.417 697.437 161.343 697.883 162.949C698.329 164.555 699.489 166.251 700.471 166.786C701.72 167.411 703.326 167.321 705.646 166.608C707.431 166.072 709.751 165.091 710.732 164.466C711.714 163.841 713.766 161.7 715.194 159.558L717.871 155.811C713.766 152.866 711.179 150.724 709.662 149.118C707.877 147.423 706.182 144.478 705.468 141.801C704.754 139.303 703.772 137.339 703.237 137.339C702.702 137.339 701.809 138.41 701.274 139.749Z" fill="white"/>
</svg>
