<svg width="130" height="45" viewBox="0 0 130 45" fill="none" xmlns="http://www.w3.org/2000/svg">
<path d="M5.24798 25.3816C5.46296 25.2678 6.0826 25.0781 6.63901 24.9769C7.19543 24.8758 7.80242 24.7872 8.00475 24.7872C8.19444 24.7746 8.34619 24.8125 8.34619 24.8758C8.34619 24.9263 8.11857 25.8242 7.853 26.8611C7.5748 27.9107 7.03103 29.7823 6.63901 31.0342C6.247 32.2862 5.57677 34.221 5.15946 35.3338C4.74215 36.4466 4.03399 38.2297 3.59139 39.2919C3.06027 40.5438 2.69354 41.252 2.52915 41.3405C2.39004 41.4164 2.02332 41.467 1.70718 41.467C1.39103 41.467 1.11283 41.4164 1.07489 41.3405C1.03695 41.2646 0.948431 41.2393 0.885202 41.2773C0.821973 41.3152 0.581704 41.2899 0.379372 41.2141C0.113812 41.1255 0 41.0117 0 40.8094C0 40.645 0.164395 40.2024 0.366726 39.823C0.569058 39.4437 1.0496 38.3308 1.42897 37.3571C1.80834 36.3834 2.55444 34.3095 3.07292 32.7414C3.59139 31.1733 4.08457 29.5547 4.17309 29.1374C4.26161 28.7201 4.47659 27.9487 4.64099 27.4302C4.81803 26.9117 4.93184 26.2794 4.90655 26.0518C4.86861 25.6724 4.91919 25.5713 5.24798 25.3816Z" fill="#A82367"/>
<path d="M22.0297 0.912104C22.4344 0.482149 22.8896 0.102777 23.0414 0.0774857C23.2058 0.0521942 23.446 0.014257 23.5851 0.00161128C23.7243 -0.0110345 23.9013 0.0521942 23.9898 0.140714C24.091 0.254526 24.1036 0.456858 24.0404 0.74771C23.9898 0.987979 23.8634 1.32941 23.7748 1.50645C23.6737 1.68349 23.4334 2.27784 23.2437 2.83426C23.054 3.39067 22.8896 3.99766 22.8896 4.2C22.8896 4.41497 22.5229 5.0852 21.8653 6.08421C21.2963 6.94412 20.4869 8.32251 20.0696 9.15713C19.6523 9.99174 19.058 11.3069 18.7418 12.0656C18.4383 12.837 18.0337 13.8613 17.8693 14.3419C17.7049 14.8224 17.4646 15.3282 17.3508 15.4547C17.237 15.5812 16.8576 15.7582 16.5035 15.8594C16.1621 15.9479 15.5172 16.0617 15.0872 16.0996C14.6446 16.1376 14.2905 16.1376 14.2905 16.087C14.2905 16.0238 14.5687 15.2777 14.8975 14.4051C15.239 13.5326 15.631 12.4577 15.7827 12.0024C15.9218 11.5472 16.0862 10.9781 16.1242 10.7378C16.1747 10.4976 16.2253 10.1941 16.2633 10.0803C16.2886 9.95381 16.3644 9.87793 16.4403 9.91587C16.5162 9.95381 16.8323 9.44798 17.1485 8.81569C17.4773 8.17076 18.1601 6.86825 18.6912 5.93246C19.2097 4.99668 20.0064 3.65623 20.4743 2.96071C20.9295 2.2652 21.6377 1.34206 22.0297 0.912104Z" fill="#EDA741"/>
<path d="M9.94041 3.90912C10.0542 3.66885 10.1933 3.40329 10.2565 3.31477C10.3409 3.2136 10.4336 3.20517 10.5348 3.28948C10.6233 3.3527 10.8003 3.49181 10.9394 3.59297C11.1544 3.74472 11.1923 3.93441 11.2303 5.07252C11.2682 6.198 11.2303 6.59001 10.9015 7.89252C10.6865 8.72714 10.1933 10.9275 9.81395 12.7864C9.42193 14.658 9.10579 16.2008 9.10579 16.2387C9.10579 16.2767 8.96668 16.3019 8.78964 16.3019C8.6126 16.3019 7.96767 16.5549 7.33538 16.871C6.38695 17.3515 6.19727 17.4021 6.19727 17.2251C6.19727 17.0986 6.45018 15.6317 6.76632 13.9625C7.08247 12.2932 7.51242 10.2446 7.7274 9.41001C7.92973 8.5754 8.20794 7.6649 8.3344 7.3867C8.4735 7.10849 8.777 6.40033 9.02991 5.80598C9.29547 5.21163 9.54839 4.64257 9.62426 4.5414C9.68749 4.44024 9.83924 4.14939 9.94041 3.90912Z" fill="#77B956"/>
<path d="M14.1258 24.0032C14.189 24.0032 14.6316 23.9021 15.1122 23.763C15.5927 23.6365 16.1491 23.5227 16.3388 23.5227C16.6802 23.51 16.6929 23.5227 16.6297 24.117C16.5917 24.4458 16.5159 25.0022 16.44 25.3437C16.3767 25.6851 16.1997 26.9117 16.0353 28.0625C15.8203 29.7444 15.7571 30.794 15.7571 33.5002C15.7445 36.1684 15.795 37.0789 15.9594 37.9894C16.0859 38.6091 16.3262 39.5575 16.5032 40.076C16.6802 40.5944 17.009 41.3405 17.224 41.7199C17.5781 42.3648 17.6034 42.4786 17.4516 43.9961L16.9205 44.1352C16.617 44.2111 16.2376 44.2364 16.0606 44.1985C15.8836 44.1605 15.5801 43.9708 15.3777 43.7812C15.188 43.5788 14.8593 43.1109 14.6696 42.7316C14.4799 42.3522 14.2017 41.682 14.0499 41.252C13.9108 40.8094 13.7464 40.2151 13.7085 39.9242C13.6579 39.6207 13.582 39.3299 13.5315 39.254C13.4809 39.1781 13.405 38.9505 13.3544 38.7482C13.3038 38.5458 13.1774 37.7112 13.0762 36.9145C12.9877 36.1178 12.8992 34.4992 12.8992 33.3105C12.8992 32.1218 12.9877 30.3893 13.0889 29.4535C13.1774 28.5178 13.3924 27.0129 13.5315 26.1024C13.6832 25.1919 13.8602 24.3573 13.9235 24.2435C13.9867 24.117 14.0752 24.0159 14.1258 24.0032Z" fill="#4CA7B6"/>
<path d="M46.1071 1.12708C46.2715 1.12708 46.5502 1.26644 46.7272 1.44348C46.9042 1.62056 47.0683 1.94927 47.1188 2.16418C47.1567 2.39253 46.8407 5.28795 46.4108 8.58801C45.9935 11.8886 45.5382 16.0491 45.3991 17.8195C45.26 19.5898 45.1845 21.0824 45.235 21.1329C45.2988 21.1826 45.6775 20.7649 46.0944 20.1837C46.4991 19.6147 47.1575 18.8188 47.5495 18.4015C47.9289 17.9968 48.4725 17.5033 48.7507 17.3136C49.0289 17.1113 49.5098 16.8581 49.8259 16.7443C50.1421 16.6305 50.7359 16.5294 51.153 16.5294C51.6715 16.5294 52.0764 16.6054 52.4557 16.795C52.8225 16.9847 53.0756 17.2252 53.2653 17.5919C53.4676 17.9965 53.5558 18.4398 53.6569 20.4122L54.7448 19.9435C55.339 19.678 55.9083 19.463 55.9968 19.463C56.073 19.4621 56.3633 19.0581 56.6286 18.5529C56.8942 18.047 57.4634 17.2501 57.9313 16.757C58.3992 16.2638 59.0822 15.6818 59.4489 15.4542C59.8282 15.2267 60.3592 15.0117 60.6374 14.9738C60.9914 14.9232 61.2695 14.9618 61.5729 15.1261C61.8132 15.2526 62.1174 15.493 62.2438 15.67C62.3702 15.8472 62.5341 16.2262 62.5973 16.5294C62.6859 16.8708 62.6858 17.2881 62.5973 17.7306C62.5215 18.0846 62.2811 18.7548 62.0661 19.2101C61.8132 19.7286 61.3453 20.3362 60.8268 20.8673C60.3719 21.3222 59.778 21.8021 59.4997 21.9288C59.1962 22.0679 58.7407 22.1572 57.7292 22.132L57.8298 22.7892C57.893 23.1557 58.0196 23.5729 58.1208 23.7374C58.2219 23.8892 58.4497 24.0413 58.652 24.0792C58.8417 24.1171 59.36 24.0415 59.8151 23.9025C60.2704 23.7634 61.0044 23.4219 61.4597 23.1564C61.9149 22.8782 62.5979 22.3845 62.9772 22.0431C63.3566 21.7016 64.0269 21.0313 64.4694 20.5382C65.089 19.8554 65.3414 19.4632 65.569 18.7677C65.784 18.1608 66.0116 17.7687 66.2897 17.5157C66.6438 17.2123 66.7834 17.1616 67.1501 17.2374C67.39 17.2753 67.6677 17.3892 67.7692 17.4777C67.8704 17.5535 68.0226 17.8194 68.1237 18.047C68.2122 18.2618 68.2504 18.5778 68.2126 18.7423C68.1746 18.8941 68.0353 19.2611 67.8962 19.5646C67.7697 19.8554 67.5421 20.5639 67.403 21.1456C67.2639 21.7147 67.1118 22.5116 67.0612 22.9161C66.9728 23.5227 66.9984 23.6369 67.1501 23.6495C67.2512 23.6495 67.5417 23.4344 67.7819 23.1691C68.0348 22.9035 68.5795 22.1696 68.9968 21.5499C69.4267 20.9302 70.2109 19.6781 70.7546 18.7677C71.2983 17.8573 71.8293 17.0603 71.9431 16.9718C72.0572 16.8834 72.3987 16.8077 72.7145 16.8077C73.1695 16.7951 73.3593 16.8714 73.6501 17.1495C74.0165 17.4907 74.017 17.5288 73.9538 18.4513C73.9159 18.9697 73.8021 20.2219 73.7136 21.2335C73.625 22.2452 73.5994 23.2824 73.6374 23.548C73.7006 23.902 73.7895 24.0157 73.9792 24.0157C74.1436 24.0153 74.434 23.7498 74.7751 23.295C75.0785 22.8904 75.7488 21.9169 76.2673 21.1202C76.7856 20.3237 77.3802 19.527 77.5827 19.3497C77.9241 19.0589 77.9997 18.8564 78.2526 17.6046C78.4044 16.8206 78.6575 15.8462 78.8093 15.4542C78.961 15.0497 79.227 14.5825 79.404 14.4181C79.6569 14.1778 79.8211 14.1273 80.112 14.1906C80.3143 14.2412 80.6175 14.4179 80.7692 14.5948C80.9842 14.8351 81.0602 15.0626 81.0602 15.5177C81.0602 15.8465 80.9464 17.1997 80.7946 18.5148C80.6049 20.2217 80.5419 21.4232 80.5798 22.6876C80.605 23.6602 80.6807 24.5575 80.7565 24.6857C80.845 24.8627 81.1358 24.3696 82.2233 22.2198C82.9692 20.7407 83.7915 19.2493 84.0573 18.9073C84.3229 18.5659 84.6899 18.1607 84.8796 18.0216C85.1829 17.7941 85.2714 17.7819 85.5495 17.921C85.7265 17.9969 85.9415 18.2246 86.0427 18.4269C86.1438 18.6169 86.3088 19.287 86.4225 19.9064C86.5363 20.5259 86.6629 21.1707 86.6882 21.3351C86.7261 21.4867 86.789 21.6134 86.8522 21.6134C86.9029 21.6131 87.0422 21.3727 87.1559 21.0695C87.2824 20.7786 87.6612 20.0829 88.0026 19.5265C88.3314 18.9701 88.9259 18.186 89.2927 17.7687C89.672 17.364 90.1274 16.947 90.3298 16.8585C90.5194 16.7574 90.8481 16.6818 91.0505 16.6818C91.316 16.6818 91.5182 16.7952 91.7458 17.0607C91.9228 17.2756 92.1249 17.6554 92.1882 17.9083C92.264 18.1742 92.3779 19.236 92.4411 20.2853C92.5043 21.3349 92.6063 22.5998 92.6569 23.1183C92.7201 23.624 92.7959 24.0666 92.8591 24.0919C92.9106 24.1161 93.2893 23.8132 93.7184 23.422C94.1484 23.0173 95.0091 21.9801 95.654 21.1075C96.3619 20.1467 96.9555 19.1856 97.1706 18.6417C97.3603 18.1612 97.6899 17.5156 97.8923 17.2247C98.0947 16.9212 98.5373 16.4658 98.8659 16.213C99.2073 15.9474 99.7128 15.4546 99.9909 15.1007C100.269 14.7593 100.611 14.3668 100.737 14.2404C100.863 14.1266 101.205 13.9883 101.483 13.9503C101.862 13.8997 102.091 13.9501 102.394 14.1398C102.622 14.2916 102.951 14.6205 103.128 14.8859C103.305 15.1389 103.582 15.7328 103.759 16.213C103.936 16.6808 104.101 17.4776 104.139 17.9708C104.177 18.4766 104.24 19.1344 104.329 19.9689H104.897C105.213 19.9689 105.821 19.855 106.251 19.7032C106.692 19.5645 107.083 19.4009 107.135 19.3624C107.199 19.3118 107.325 18.6789 107.439 17.9454C107.54 17.2121 107.718 16.2768 107.819 15.8595C107.92 15.4422 108.071 14.9358 108.147 14.7208C108.223 14.5059 108.401 14.1897 108.527 13.9874C108.704 13.7222 108.856 13.6466 109.197 13.6466C109.538 13.6466 109.716 13.7348 109.956 14.0255C110.183 14.3037 110.272 14.5573 110.272 14.9366C110.272 15.2402 110.184 15.8213 110.095 16.2384C109.994 16.6557 109.817 17.5919 109.69 18.3253C109.564 19.0841 109.463 20.3486 109.463 21.297C109.45 22.2071 109.488 23.0542 109.639 23.4464L109.892 23.1935C110.044 23.0544 110.348 22.5363 110.576 22.0558C110.816 21.5752 111.309 20.5126 111.701 19.7159C112.093 18.9196 112.636 17.9971 112.915 17.6554C113.243 17.2762 113.598 17.0106 113.901 16.922C114.28 16.8082 114.458 16.8073 114.761 16.9464C115.014 17.0602 115.242 17.3388 115.457 17.756C115.748 18.363 115.761 18.5407 115.837 21.424C115.887 23.3837 115.963 24.5594 116.064 24.7365C116.153 24.9008 116.279 25.0275 116.342 25.0275C116.406 25.0264 116.634 24.8119 116.836 24.547C117.038 24.2939 117.505 23.56 117.884 22.9406C118.264 22.3209 118.846 21.3224 119.744 19.6534L119.946 17.1241C120.047 15.7331 120.199 14.114 120.262 13.5197L120.278 13.3702C120.335 12.8308 120.388 12.3327 120.388 12.2169C120.388 12.053 120.313 12.0152 120.048 12.0782C119.845 12.1162 119.061 12.4322 118.302 12.7736C117.405 13.1907 116.785 13.3934 116.532 13.3683C116.254 13.343 116.127 13.2413 116.026 12.9757C115.942 12.7482 115.942 12.5206 116.026 12.2931C116.115 12.0528 116.494 11.7365 117.227 11.2814C117.821 10.9147 118.668 10.4594 119.124 10.2697C119.579 10.0927 120.135 9.80225 120.363 9.63782C120.616 9.46078 120.831 9.14429 120.945 8.80286C121.046 8.51192 121.223 7.81621 121.337 7.25989C121.45 6.70347 121.742 5.84387 121.969 5.3634C122.273 4.71848 122.501 4.41544 122.817 4.2384C123.184 4.03621 123.272 4.03596 123.588 4.17493C123.777 4.27609 124.005 4.51659 124.081 4.73157C124.194 5.02244 124.195 5.49025 124.093 6.62805C124.018 7.46262 123.967 8.15843 123.967 8.18372C123.988 8.20666 125.136 7.89083 126.522 7.50012C128.102 7.04512 129.164 6.80525 129.367 6.85559C129.544 6.8935 129.759 7.07031 129.847 7.24719C129.923 7.42423 130 7.70287 130 7.85461C130.012 8.01901 129.899 8.28501 129.772 8.46204C129.595 8.70226 129.127 8.91675 127.9 9.30872C127.002 9.59956 125.788 9.96659 125.194 10.131C124.6 10.2827 123.992 10.5358 123.828 10.6749C123.651 10.8394 123.499 11.1683 123.424 11.6232C123.36 12.0027 123.184 13.4314 123.045 14.7843C122.918 16.1374 122.741 18.5022 122.652 20.0323C122.576 21.6004 122.551 23.8894 122.589 25.2804C122.639 26.6335 122.741 28.0877 122.804 28.505C122.88 28.9223 123.082 29.5797 123.259 29.9591C123.449 30.3383 123.6 30.8947 123.6 31.1857C123.613 31.5776 123.538 31.7931 123.298 32.0333C123.045 32.2989 122.867 32.3624 122.412 32.3624C122.096 32.3624 121.679 32.2613 121.464 32.1349C121.261 32.0084 120.958 31.7043 120.806 31.464C120.655 31.2364 120.389 30.4907 120.212 29.8331C120.047 29.1756 119.845 27.8979 119.769 26.9874C119.693 26.077 119.618 24.926 119.567 23.4845L118.922 24.4083C118.567 24.9268 117.998 25.6472 117.657 26.0265C117.315 26.3932 116.886 26.7856 116.696 26.8741C116.494 26.9753 116.139 27.0509 115.899 27.0509C115.596 27.0508 115.331 26.9366 115.065 26.6964C114.85 26.5067 114.571 26.0642 114.445 25.7228C114.319 25.3685 114.155 24.4961 114.079 23.7628C114.016 23.0294 113.914 21.8155 113.8 19.6534L113.471 20.0958C113.294 20.3363 112.751 21.3607 112.27 22.3722C111.79 23.3838 111.208 24.5722 110.993 25.0275C110.765 25.4699 110.449 26.0007 110.272 26.2032C110.095 26.4181 109.805 26.6585 109.615 26.7472C109.413 26.8483 109.058 26.9239 108.818 26.924C108.489 26.924 108.261 26.8231 107.945 26.507C107.718 26.292 107.453 25.8749 107.377 25.5968C107.288 25.3186 107.186 24.3696 107.135 23.4718C107.085 22.4856 106.996 21.8791 106.921 21.9044C106.856 21.9425 106.478 22.0438 106.099 22.1573C105.72 22.2585 105.125 22.3841 104.771 22.4347C104.43 22.4853 104.037 22.6119 103.911 22.7257C103.784 22.8523 103.468 23.3332 103.216 23.8263C102.95 24.3068 102.482 24.9898 102.166 25.3439C101.824 25.7105 101.281 26.128 100.839 26.3429C100.434 26.5326 99.8393 26.722 99.5231 26.7599C99.1691 26.7978 98.7896 26.7604 98.5114 26.6466C98.2711 26.5454 97.8915 26.3178 97.6891 26.1407C97.4868 25.9637 97.1837 25.5712 97.0319 25.2677C96.8802 24.9642 96.6908 24.4206 96.6022 24.0792C96.5264 23.7251 96.4253 23.3453 96.3747 23.2189C96.3115 23.0294 96.2098 23.1059 95.7927 23.6495C95.5144 24.0162 94.9708 24.6228 94.5915 25.0021C94.2124 25.3812 93.6815 25.7981 93.4284 25.9249C93.163 26.064 92.8087 26.1651 92.6315 26.1652C92.4545 26.1652 92.2013 26.1151 92.0622 26.0392C91.9231 25.9633 91.6955 25.7229 91.569 25.5079C91.4299 25.2803 91.2151 24.7239 91.1013 24.2687C90.9622 23.7249 90.8605 22.6754 90.7341 18.8947L90.0261 19.59C89.4445 20.1716 89.1406 20.652 88.2556 22.4347C87.4843 23.9899 87.1051 24.6227 86.8522 24.7745C86.5994 24.9136 86.4223 24.939 86.1569 24.838C85.9167 24.7495 85.7138 24.5219 85.5241 24.1427C85.3724 23.8266 85.1448 23.0042 85.0309 22.3087C84.9172 21.6135 84.7652 20.9944 84.7145 20.9181C84.6513 20.8422 84.171 21.7016 83.5388 23.004C82.9572 24.2177 82.3636 25.558 82.2116 25.9757C82.0599 26.393 81.7812 26.8994 81.5915 27.1017C81.4018 27.304 81.0475 27.5562 80.8073 27.6573C80.5418 27.7585 80.1753 27.7968 79.8972 27.7589C79.5431 27.7083 79.3023 27.5437 79.0114 27.2023C78.7838 26.924 78.4933 26.4057 78.3669 26.0265C78.2404 25.6471 78.0883 24.9768 78.0251 24.5216C77.9619 24.0664 77.8991 23.3205 77.8991 22.8527C77.8991 22.3721 77.8608 21.9668 77.8102 21.9415C77.7468 21.9043 77.5956 22.0562 77.4694 22.2833C77.3303 22.5109 76.8877 23.2067 76.4704 23.8263C76.0531 24.4459 75.5085 25.2044 75.2556 25.5079C75.0027 25.8113 74.5482 26.2284 74.2321 26.4308C73.8907 26.6584 73.4978 26.798 73.2575 26.798C72.9794 26.7978 72.7016 26.671 72.4362 26.4435C72.2086 26.2411 71.8926 25.7986 71.7409 25.4572C71.5892 25.1157 71.4115 24.3571 71.3356 23.7628C71.2598 23.1685 71.1841 22.3718 71.1335 21.297L70.7292 22.0304C70.5016 22.4224 70.0836 23.0798 69.8054 23.4845C69.5272 23.8765 68.9964 24.5094 68.6423 24.8761C68.2755 25.2428 67.6554 25.6981 67.2761 25.8751C66.6569 26.1658 66.5302 26.191 66.113 26.0646C65.8475 25.976 65.5314 25.7611 65.3923 25.5714C65.2658 25.3691 65.1019 25.0148 65.0261 24.7745C64.9502 24.5343 64.8615 24.0916 64.7477 23.257L63.7985 24.0792C63.2801 24.5344 62.4332 25.1792 61.9401 25.5079C61.4343 25.8367 60.6503 26.2419 60.195 26.3937C59.7398 26.5454 59.1195 26.671 58.8034 26.671C58.4746 26.6709 57.9688 26.5453 57.6022 26.381C57.2609 26.2166 56.7811 25.8622 56.5407 25.5841C56.3004 25.3185 55.9962 24.8377 55.8571 24.5216C55.7054 24.1802 55.5796 23.5227 55.529 22.84C55.4531 21.7271 55.4526 21.727 55.1364 21.8029C54.959 21.8536 54.1623 22.1951 53.3659 22.5743C52.5696 22.9535 51.6343 23.4462 51.28 23.674C50.9386 23.8889 50.2555 24.357 49.7624 24.7111C49.2692 25.0651 48.4851 25.5969 47.9919 25.8751C47.4987 26.166 46.9923 26.4054 46.8532 26.4181C46.7141 26.4307 46.4991 26.4434 46.3854 26.4308C46.259 26.4305 46.0695 26.2286 45.9557 26.0138C45.842 25.7862 45.7792 25.483 45.8171 25.3439C45.855 25.2048 46.0189 24.9261 46.1833 24.7238C46.3479 24.5213 47.1829 23.8893 48.0554 23.3077C48.9279 22.7387 49.9396 21.9546 50.3063 21.5626C50.6604 21.1706 51.103 20.5504 51.28 20.1964C51.4569 19.8298 51.5954 19.387 51.5954 19.2101C51.5953 19.0332 51.5324 18.7935 51.444 18.6544C51.3049 18.4521 51.1783 18.4262 50.6472 18.5021C50.3057 18.5527 49.7876 18.7176 49.5095 18.882C49.2313 19.0464 48.725 19.4633 48.3962 19.7921C48.0674 20.1336 47.5366 20.8165 47.2331 21.297C46.9296 21.7775 46.4361 22.7509 46.1579 23.4464C45.8671 24.1419 45.5128 25.2802 45.361 25.9757C45.2093 26.6712 44.9816 27.3925 44.8552 27.5948C44.7413 27.7844 44.489 27.9993 44.2995 28.0626C44.0972 28.1385 43.8312 28.164 43.6921 28.1134C43.553 28.0755 43.2999 27.9106 43.1481 27.7589C42.9838 27.6197 42.706 27.2281 42.5417 26.8995C42.3014 26.419 42.2131 25.9376 42.0993 24.6857C42.0108 23.75 41.9979 22.3467 42.0358 21.3605C42.0864 20.4247 42.213 18.629 42.3141 17.3771C42.4153 16.1251 42.6174 14.1646 42.7565 13.0138C42.8956 11.8631 43.0978 10.3832 43.1989 9.72571C43.3001 9.06818 43.5022 7.93069 43.6413 7.19739C43.7804 6.46398 44.0591 5.21185 44.2614 4.41516C44.4637 3.61865 44.7287 2.70806 44.8679 2.39172C45.0069 2.0757 45.2729 1.67134 45.4626 1.48157V1.46887C45.6521 1.27935 45.9426 1.12733 46.1071 1.12708ZM34.9411 13.6593C35.0928 13.6467 35.3588 13.7604 35.5358 13.8995C35.8138 14.1144 35.8522 14.2411 35.8522 14.8859C35.8522 15.2906 35.8135 16.1382 35.6618 17.8956L35.9401 17.5157C36.1045 17.3134 36.661 16.6687 37.1794 16.087C37.6978 15.5054 38.3552 14.8853 38.6335 14.7208C38.9117 14.5564 39.3169 14.4181 39.5192 14.4181C39.7216 14.4181 40.0757 14.5192 40.278 14.6456C40.4803 14.7722 40.7708 15.1009 40.9098 15.379C41.0995 15.7457 41.1628 16.1126 41.1628 16.8839C41.1628 17.6678 41.0995 17.9966 40.8972 18.338C40.7329 18.6159 40.531 18.793 40.3415 18.8185C40.152 18.8437 39.9495 18.768 39.8356 18.6417C39.7092 18.5026 39.658 18.2112 39.6833 17.756C39.6959 17.3768 39.6585 16.9597 39.5827 16.8204C39.5068 16.6813 39.3419 16.5675 39.2028 16.5675C39.0637 16.5676 38.7732 16.7197 38.5583 16.9093C38.3307 17.1116 37.7996 17.8066 37.3571 18.464C36.9146 19.1215 36.3453 20.146 36.0671 20.7404C35.8015 21.3347 35.46 22.2709 35.3083 22.8273C35.1692 23.3837 34.9916 24.4081 34.9284 25.1036C34.8652 25.7989 34.7141 26.5574 34.6003 26.7726C34.4865 27.0001 34.2716 27.2788 34.1198 27.38C33.9554 27.4938 33.6384 27.5567 33.3981 27.5441C33.0949 27.5187 32.8924 27.3925 32.7028 27.1525C32.4626 26.8237 32.4379 26.5956 32.3747 22.8273L31.4509 23.712C30.9577 24.2052 30.1737 24.8627 29.7184 25.1915C29.2632 25.5203 28.5046 25.9629 28.0114 26.1906C27.5182 26.4055 26.8097 26.6214 26.4304 26.6593C25.9374 26.7098 25.5703 26.6587 25.1657 26.507C24.8496 26.3805 24.407 26.14 24.1921 25.9757C23.9645 25.8112 23.6356 25.4324 23.4587 25.1417C23.2817 24.8383 23.054 24.2818 22.9528 23.9025C22.8517 23.5231 22.7634 22.9032 22.7634 21.879L21.9167 21.7394C21.4361 21.6635 20.3478 21.5497 19.4753 21.4865C18.451 21.4106 17.2371 21.4233 16.0612 21.4991C15.0496 21.575 13.5197 21.7526 12.6472 21.8917C11.7746 22.0308 9.90229 22.4224 8.47333 22.7765C7.04455 23.1305 5.1103 23.6742 4.1745 23.9777C3.23871 24.2938 1.93569 24.8001 1.3034 25.1036C0.65932 25.4194 0.103285 25.6596 0.0768409 25.6349C0.0515495 25.6222 0.444008 24.4585 0.937193 23.0548C1.43037 21.6512 1.89838 20.4501 1.96161 20.3868C2.03781 20.3235 2.72066 20.1205 3.47918 19.9435C4.25049 19.7665 5.50183 19.5015 6.26043 19.3624C7.03183 19.2233 8.30946 19.0212 9.10614 18.9073C9.90281 18.8062 11.2432 18.6668 12.0778 18.5909C12.9124 18.5277 14.6198 18.464 15.8718 18.464C17.1236 18.464 18.7674 18.5278 19.5388 18.6036C20.3101 18.6795 21.5115 18.8315 23.5222 19.1603L24.0534 18.2745C24.3443 17.794 24.989 16.9845 25.4821 16.504C25.9753 16.0235 26.6583 15.4799 27.0124 15.3029C27.4043 15.1006 27.8469 14.9865 28.2263 14.9865C28.7068 14.9865 28.8839 15.0502 29.2253 15.3663C29.4403 15.5813 29.7061 15.9355 29.7946 16.1505C29.8957 16.3782 29.9714 16.7953 29.9714 17.0734C29.9714 17.3516 29.8575 17.9335 29.7057 18.3634C29.554 18.806 29.2508 19.4381 29.0358 19.7921C28.8082 20.1335 28.3402 20.7026 27.9987 21.0314C27.6573 21.3602 27.1264 21.7653 26.8102 21.9044C26.4688 22.0688 26.0256 22.1699 25.1657 22.132V22.7638C25.1657 23.2568 25.242 23.472 25.4694 23.7374C25.7223 24.0283 25.8745 24.0919 26.3298 24.0792C26.6712 24.0665 27.2653 23.8767 27.9479 23.5607C28.5423 23.2825 29.3646 22.8016 29.7819 22.4855C30.1993 22.1693 31.0091 21.411 32.6022 19.6661L32.8679 18.0851C33.0196 17.2125 33.2718 16.0487 33.4362 15.4923C33.6764 14.6958 33.8411 14.3923 34.2077 14.0636C34.4478 13.8487 34.7892 13.6595 34.9411 13.6593ZM99.6618 19.463C99.5859 19.463 99.4594 19.6152 99.3835 19.8048C99.3076 20.0071 99.1938 20.3232 99.1306 20.5382C99.0673 20.7405 98.9536 21.3223 98.903 21.8029C98.8398 22.3087 98.8398 22.8653 98.903 23.0929C98.9663 23.3204 99.1302 23.561 99.2692 23.6368C99.4462 23.7253 99.674 23.7125 100.003 23.6115C100.255 23.5356 100.584 23.3963 100.723 23.3077C100.862 23.2192 101.154 22.9159 101.356 22.6124L101.735 22.0812C101.154 21.664 100.787 21.3605 100.572 21.1329C100.319 20.8927 100.078 20.4752 99.9772 20.0958C99.8763 19.7425 99.7378 19.4641 99.6618 19.463ZM28.0104 17.4904C27.9963 17.4664 27.7691 17.6052 27.4919 17.8068C27.2263 18.0091 26.8476 18.3889 26.6579 18.6544C26.4683 18.9324 26.2407 19.2986 26.152 19.4884C26.0635 19.6781 26.0253 19.8684 26.0886 19.9064C26.1398 19.9437 26.3928 19.8429 26.6452 19.6788C26.898 19.5271 27.2767 19.1728 27.4665 18.8947C27.6688 18.6164 27.871 18.1984 27.9343 17.9708C27.9848 17.7433 28.0231 17.5283 28.0104 17.4904ZM60.7126 17.4396C60.6746 17.4396 60.3832 17.6555 60.0671 17.921C59.751 18.1867 59.3338 18.6921 59.1442 19.0333C58.9545 19.3748 58.8034 19.7289 58.8034 19.8048C58.8034 19.9313 58.8787 19.9312 59.1442 19.7921C59.3465 19.691 59.6626 19.4505 59.8649 19.2609C60.0546 19.0585 60.3205 18.6916 60.447 18.4513C60.5734 18.2111 60.7 17.8822 60.7253 17.7179C60.7631 17.5665 60.7504 17.4399 60.7126 17.4396ZM101.722 16.9591C101.621 16.9344 101.571 17.1499 101.558 17.6173C101.546 18.1988 101.596 18.3759 101.824 18.5782C101.988 18.717 102.152 18.8307 102.203 18.8312C102.266 18.8312 102.304 18.6162 102.304 18.3507C102.304 18.0978 102.203 17.6925 102.077 17.4523C101.963 17.2121 101.798 16.9844 101.722 16.9591Z" fill="#3070B6"/>
</svg>
