<svg width="672" height="400" viewBox="0 0 672 400" fill="none" xmlns="http://www.w3.org/2000/svg">
<mask id="mask0_167_215" style="mask-type:alpha" maskUnits="userSpaceOnUse" x="0" y="0" width="672" height="400">
<rect width="672" height="400" transform="matrix(-1 0 0 1 672 0)" fill="#D9D9D9"/>
</mask>
<g mask="url(#mask0_167_215)">
<mask id="mask1_167_215" style="mask-type:alpha" maskUnits="userSpaceOnUse" x="-40" y="0" width="712" height="401">
<rect width="711.368" height="400.077" transform="matrix(-1 0 0 1 671.447 0)" fill="url(#paint0_linear_167_215)"/>
</mask>
<g mask="url(#mask1_167_215)">
<path d="M601.374 72.2876L631.877 86.9756L662.38 72.2876L669.913 39.2842L648.805 12.8175L614.949 12.8175L593.841 39.2842L601.374 72.2876Z" stroke="black"/>
<path d="M504.108 72.2876L534.611 86.9756L565.114 72.2876L572.647 39.2842L551.539 12.8175L517.683 12.8175L496.575 39.2842L504.108 72.2876Z" stroke="black"/>
<path d="M406.842 72.2876L437.345 86.9756L467.848 72.2876L475.382 39.2842L454.273 12.8175L420.417 12.8175L399.309 39.2842L406.842 72.2876Z" stroke="black"/>
<path d="M309.576 72.2876L340.079 86.9756L370.582 72.2876L378.116 39.2842L357.007 12.8175L323.151 12.8175L302.043 39.2842L309.576 72.2876Z" stroke="black"/>
<path d="M115.045 72.2876L145.547 86.9756L176.05 72.2876L183.584 39.2842L162.475 12.8175L128.62 12.8175L107.511 39.2842L115.045 72.2876Z" stroke="black"/>
<path d="M17.7786 72.2876L48.2815 86.9756L78.7843 72.2876L86.3179 39.2842L65.2093 12.8175L31.3537 12.8175L10.2451 39.2842L17.7786 72.2876Z" stroke="black"/>
<path d="M212.311 72.2876L242.813 86.9756L273.316 72.2876L280.85 39.2842L259.741 12.8175L225.886 12.8175L204.777 39.2842L212.311 72.2876Z" stroke="black"/>
<path d="M552.741 169.544L583.244 184.232L613.747 169.544L621.28 136.54L600.172 110.074L566.316 110.074L545.208 136.54L552.741 169.544Z" stroke="black"/>
<path d="M455.475 169.544L485.978 184.232L516.481 169.544L524.014 136.54L502.906 110.074L469.05 110.074L447.942 136.54L455.475 169.544Z" stroke="black"/>
<path d="M358.209 169.544L388.712 184.232L419.215 169.544L426.749 136.54L405.64 110.074L371.784 110.074L350.676 136.54L358.209 169.544Z" stroke="black"/>
<path d="M260.943 169.544L291.446 184.232L321.949 169.544L329.483 136.54L308.374 110.074L274.518 110.074L253.41 136.54L260.943 169.544Z" stroke="black"/>
<path d="M66.4117 169.544L96.9145 184.232L127.417 169.544L134.951 136.54L113.842 110.074L79.9867 110.074L58.8781 136.54L66.4117 169.544Z" stroke="black"/>
<path d="M-30.8543 169.544L-0.351505 184.232L30.1513 169.544L37.6849 136.54L16.5763 110.074L-17.2793 110.074L-38.3879 136.54L-30.8543 169.544Z" stroke="black"/>
<path d="M163.678 169.544L194.18 184.232L224.683 169.544L232.217 136.54L211.108 110.074L177.253 110.074L156.144 136.54L163.678 169.544Z" stroke="black"/>
<path d="M601.374 266.8L631.877 281.488L662.38 266.8L669.913 233.797L648.805 207.33L614.949 207.33L593.841 233.797L601.374 266.8Z" stroke="black"/>
<path d="M504.108 266.8L534.611 281.488L565.114 266.8L572.647 233.797L551.539 207.33L517.683 207.33L496.575 233.797L504.108 266.8Z" stroke="black"/>
<path d="M406.842 266.8L437.345 281.488L467.848 266.8L475.382 233.797L454.273 207.33L420.417 207.33L399.309 233.797L406.842 266.8Z" stroke="black"/>
<path d="M309.576 266.8L340.079 281.488L370.582 266.8L378.116 233.797L357.007 207.33L323.151 207.33L302.043 233.797L309.576 266.8Z" stroke="black"/>
<path d="M115.045 266.8L145.547 281.488L176.05 266.8L183.584 233.797L162.475 207.33L128.62 207.33L107.511 233.797L115.045 266.8Z" stroke="black"/>
<path d="M17.7786 266.8L48.2815 281.488L78.7843 266.8L86.3179 233.797L65.2093 207.33L31.3537 207.33L10.2451 233.797L17.7786 266.8Z" stroke="black"/>
<path d="M212.311 266.8L242.813 281.488L273.316 266.8L280.85 233.797L259.741 207.33L225.886 207.33L204.777 233.797L212.311 266.8Z" stroke="black"/>
<path d="M552.741 364.056L583.244 378.744L613.747 364.056L621.28 331.053L600.172 304.586L566.316 304.586L545.208 331.053L552.741 364.056Z" stroke="black"/>
<path d="M455.475 364.056L485.978 378.744L516.481 364.056L524.014 331.053L502.906 304.586L469.05 304.586L447.942 331.053L455.475 364.056Z" stroke="black"/>
<path d="M358.209 364.056L388.712 378.744L419.215 364.056L426.749 331.053L405.64 304.586L371.784 304.586L350.676 331.053L358.209 364.056Z" stroke="black"/>
<path d="M260.943 364.056L291.446 378.744L321.949 364.056L329.483 331.053L308.374 304.586L274.518 304.586L253.41 331.053L260.943 364.056Z" stroke="black"/>
<path d="M66.4117 364.056L96.9145 378.744L127.417 364.056L134.951 331.053L113.842 304.586L79.9867 304.586L58.8781 331.053L66.4117 364.056Z" stroke="black"/>
<path d="M-30.8543 364.056L-0.351505 378.744L30.1513 364.056L37.6849 331.053L16.5763 304.586L-17.2793 304.586L-38.3879 331.053L-30.8543 364.056Z" stroke="black"/>
<path d="M163.678 364.056L194.18 378.744L224.683 364.056L232.217 331.053L211.108 304.586L177.253 304.586L156.144 331.053L163.678 364.056Z" stroke="black"/>
</g>
</g>
<defs>
<linearGradient id="paint0_linear_167_215" x1="0" y1="0" x2="711.334" y2="400.137" gradientUnits="userSpaceOnUse">
<stop stop-color="white" stop-opacity="0"/>
<stop offset="1" stop-color="white"/>
</linearGradient>
</defs>
</svg>
