<svg width="672" height="400" viewBox="0 0 672 400" fill="none" xmlns="http://www.w3.org/2000/svg">
<mask id="mask0_165_214" style="mask-type:alpha" maskUnits="userSpaceOnUse" x="0" y="0" width="672" height="400">
<rect x="0.0665283" width="671.933" height="400" fill="#D9D9D9"/>
</mask>
<g mask="url(#mask0_165_214)">
<mask id="mask1_165_214" style="mask-type:alpha" maskUnits="userSpaceOnUse" x="0" y="0" width="712" height="401">
<rect x="0.619751" width="711.297" height="400.077" fill="url(#paint0_linear_165_214)"/>
</mask>
<g mask="url(#mask1_165_214)">
<path d="M70.6853 72.2876L40.1855 86.9755L9.68576 72.2876L2.15294 39.2841L23.2594 12.8174L57.1116 12.8174L78.2181 39.2842L70.6853 72.2876Z" stroke="#C1C1C1"/>
<path d="M167.942 72.2876L137.442 86.9755L106.942 72.2876L99.4092 39.2841L120.516 12.8174L154.368 12.8174L175.474 39.2842L167.942 72.2876Z" stroke="#C1C1C1"/>
<path d="M265.198 72.2876L234.698 86.9755L204.198 72.2876L196.665 39.2841L217.772 12.8174L251.624 12.8174L272.731 39.2842L265.198 72.2876Z" stroke="#C1C1C1"/>
<path d="M362.454 72.2876L331.954 86.9755L301.455 72.2876L293.922 39.2841L315.028 12.8174L348.88 12.8174L369.987 39.2842L362.454 72.2876Z" stroke="#C1C1C1"/>
<path d="M556.967 72.2876L526.467 86.9755L495.967 72.2876L488.434 39.2841L509.541 12.8174L543.393 12.8174L564.5 39.2842L556.967 72.2876Z" stroke="#C1C1C1"/>
<path d="M654.223 72.2876L623.723 86.9755L593.223 72.2876L585.691 39.2841L606.797 12.8174L640.649 12.8174L661.756 39.2842L654.223 72.2876Z" stroke="#C1C1C1"/>
<path d="M459.71 72.2876L429.211 86.9755L398.711 72.2876L391.178 39.2841L412.284 12.8174L446.137 12.8174L467.243 39.2842L459.71 72.2876Z" stroke="#C1C1C1"/>
<path d="M119.313 169.544L88.8136 184.232L58.3138 169.544L50.781 136.54L71.8875 110.074L105.74 110.074L126.846 136.54L119.313 169.544Z" stroke="#C1C1C1"/>
<path d="M216.57 169.544L186.07 184.232L155.57 169.544L148.037 136.54L169.144 110.074L202.996 110.074L224.103 136.54L216.57 169.544Z" stroke="#C1C1C1"/>
<path d="M313.826 169.544L283.326 184.232L252.826 169.544L245.294 136.54L266.4 110.074L300.252 110.074L321.359 136.54L313.826 169.544Z" stroke="#C1C1C1"/>
<path d="M411.082 169.544L380.583 184.232L350.083 169.544L342.55 136.54L363.657 110.074L397.509 110.074L418.615 136.54L411.082 169.544Z" stroke="#C1C1C1"/>
<path d="M605.595 169.544L575.095 184.232L544.595 169.544L537.062 136.54L558.169 110.074L592.021 110.074L613.128 136.54L605.595 169.544Z" stroke="#C1C1C1"/>
<path d="M702.851 169.544L672.351 184.232L641.852 169.544L634.319 136.54L655.425 110.074L689.277 110.074L710.384 136.54L702.851 169.544Z" stroke="#C1C1C1"/>
<path d="M508.339 169.544L477.839 184.232L447.339 169.544L439.806 136.54L460.913 110.074L494.765 110.074L515.871 136.54L508.339 169.544Z" stroke="#C1C1C1"/>
<path d="M70.6853 266.8L40.1855 281.488L9.68576 266.8L2.15294 233.797L23.2594 207.33L57.1116 207.33L78.2181 233.797L70.6853 266.8Z" stroke="#C1C1C1"/>
<path d="M167.942 266.8L137.442 281.488L106.942 266.8L99.4092 233.797L120.516 207.33L154.368 207.33L175.474 233.797L167.942 266.8Z" stroke="#C1C1C1"/>
<path d="M265.198 266.8L234.698 281.488L204.198 266.8L196.665 233.797L217.772 207.33L251.624 207.33L272.731 233.797L265.198 266.8Z" stroke="#C1C1C1"/>
<path d="M362.454 266.8L331.954 281.488L301.455 266.8L293.922 233.797L315.028 207.33L348.88 207.33L369.987 233.797L362.454 266.8Z" stroke="#C1C1C1"/>
<path d="M556.967 266.8L526.467 281.488L495.967 266.8L488.434 233.797L509.541 207.33L543.393 207.33L564.5 233.797L556.967 266.8Z" stroke="#C1C1C1"/>
<path d="M654.223 266.8L623.723 281.488L593.223 266.8L585.691 233.797L606.797 207.33L640.649 207.33L661.756 233.797L654.223 266.8Z" stroke="#C1C1C1"/>
<path d="M459.71 266.8L429.211 281.488L398.711 266.8L391.178 233.797L412.284 207.33L446.137 207.33L467.243 233.797L459.71 266.8Z" stroke="#C1C1C1"/>
<path d="M119.313 364.056L88.8136 378.744L58.3138 364.056L50.781 331.053L71.8875 304.586L105.74 304.586L126.846 331.053L119.313 364.056Z" stroke="#C1C1C1"/>
<path d="M216.57 364.056L186.07 378.744L155.57 364.056L148.037 331.053L169.144 304.586L202.996 304.586L224.103 331.053L216.57 364.056Z" stroke="#C1C1C1"/>
<path d="M313.826 364.056L283.326 378.744L252.826 364.056L245.294 331.053L266.4 304.586L300.252 304.586L321.359 331.053L313.826 364.056Z" stroke="#C1C1C1"/>
<path d="M411.082 364.056L380.583 378.744L350.083 364.056L342.55 331.053L363.657 304.586L397.509 304.586L418.615 331.053L411.082 364.056Z" stroke="#C1C1C1"/>
<path d="M605.595 364.056L575.095 378.744L544.595 364.056L537.062 331.053L558.169 304.586L592.021 304.586L613.128 331.053L605.595 364.056Z" stroke="#C1C1C1"/>
<path d="M702.851 364.056L672.351 378.744L641.852 364.056L634.319 331.053L655.425 304.586L689.277 304.586L710.384 331.053L702.851 364.056Z" stroke="#C1C1C1"/>
<path d="M508.339 364.056L477.839 378.744L447.339 364.056L439.806 331.053L460.913 304.586L494.765 304.586L515.871 331.053L508.339 364.056Z" stroke="#C1C1C1"/>
</g>
</g>
<defs>
<linearGradient id="paint0_linear_165_214" x1="0.619751" y1="0" x2="711.917" y2="400.077" gradientUnits="userSpaceOnUse">
<stop stop-color="white" stop-opacity="0"/>
<stop offset="1" stop-color="white"/>
</linearGradient>
</defs>
</svg>
