<svg width="113" height="13" viewBox="0 0 113 13" fill="none" xmlns="http://www.w3.org/2000/svg">
<path d="M17.1053 7.36046C20.2412 7.36046 21.6822 8.40751 23.5068 9.73446C25.549 11.2221 29.7113 12.9067 34.2001 12.9067V5.63956C31.0642 5.63956 27.7779 4.59252 25.9533 3.26038C23.9111 1.77274 21.5941 0.0881348 17.1001 0.0881348C12.6061 0.0881348 10.2942 1.77274 8.2468 3.26038C6.42224 4.58733 3.13596 5.63956 0 5.63956V12.9067C4.48883 12.9067 8.64593 11.2221 10.6934 9.73446C12.5179 8.40751 13.9589 7.36046 17.1001 7.36046" fill="#36A9E1"/>
<path d="M56.4006 7.37081C59.5366 7.37081 60.9776 8.43342 62.8073 9.7811C64.8496 11.2895 69.0067 13 73.5007 13V5.62919C70.3647 5.62919 67.0784 4.56659 65.2539 3.2189C63.2116 1.71053 60.8946 0 56.4006 0C51.9066 0 49.5948 1.71053 47.5473 3.2189C45.7228 4.56659 42.4417 5.62919 39.3005 5.62919V13C43.7894 13 47.9465 11.2895 49.9939 9.7811C51.8185 8.43342 53.2595 7.37081 56.4006 7.37081Z" fill="#95C11F"/>
<path d="M95.696 7.36046C98.832 7.36046 100.273 8.40751 102.103 9.73446C104.145 11.2221 108.302 12.9067 112.796 12.9067V5.63956C109.66 5.63956 106.379 4.59252 104.549 3.26038C102.507 1.77274 100.19 0.0881348 95.696 0.0881348C91.202 0.0881348 88.8902 1.77274 86.8428 3.26038C85.0182 4.58733 81.7319 5.63956 78.5959 5.63956V12.9067C83.0848 12.9067 87.2471 11.2221 89.2893 9.73446C91.1139 8.40751 92.5549 7.36046 95.6908 7.36046" fill="#F9B233"/>
</svg>
