<svg width="1064" height="310" viewBox="0 0 1064 310" fill="none" xmlns="http://www.w3.org/2000/svg">
<g clip-path="url(#clip0_167_253)">
<mask id="mask0_167_253" style="mask-type:alpha" maskUnits="userSpaceOnUse" x="-12" y="-10" width="1089" height="307">
<rect x="-12" y="-10" width="1089" height="307" fill="#D9D9D9"/>
</mask>
<g mask="url(#mask0_167_253)">
<path d="M1064 297.923H1042.7V276.213C1054.66 275.136 1064 266.762 1064 256.464C1064 249.747 1060.01 243.842 1053.94 240.224C1054.01 239.764 1054.11 239.316 1054.11 238.832C1054.11 232.382 1047.87 227.142 1040.15 227.142C1032.43 227.142 1026.18 232.37 1026.18 238.832C1026.18 239.304 1026.28 239.764 1026.35 240.224C1023.09 242.172 1020.47 244.798 1018.72 247.848L1007.96 240.078L985.815 254.854V264.426L976.244 253.329L964.447 265.975V256.56L954.876 243.007L943.079 258.436V264.438L919.543 243.007H835.271L811.734 264.438V297.947V240.091H804.65V232.987H797.566V225.884H790.482V218.78H783.398V211.677H776.314V204.573H769.75V197.47H762.146V204.573H755.582V211.677H748.498V218.78H741.414V225.884H734.33V232.987H727.246V240.091H720.162V265.794L712.846 259.174L704.736 265.951V258.739L695.165 247.484L685.002 258.521L675.619 247.484L663.822 260.3V273.587L649.856 266.58L632.637 274.567V249.046L618.672 235.02L601.453 250.994V258.291L587.617 240.078H529.282L513.928 260.276V127.778L508.348 84.1406L499.977 127.778L479.506 0L459.034 127.778L450.663 84.1406L445.083 127.778V249.518L427.127 235.008L404.978 251.538V272.921L395.407 263.991L383.61 274.168V266.58L374.039 255.677L362.242 268.093V297.923V264.789L352.729 242.983H318.682L312.003 258.291L300.09 247.472L283.146 261.679V297.923H267.46V277.024C274.356 275.1 279.387 269.412 279.387 262.623C279.387 254.249 271.797 247.472 262.429 247.472C253.061 247.472 245.471 254.261 245.471 262.623C245.471 269.412 250.502 275.1 257.398 277.024V297.923H242.145C241.842 295.66 240.483 294.038 240.483 294.038C241.105 294.898 241.206 296.422 241.018 297.923H238.141C238.314 296.64 238.647 295.587 238.647 295.587C237.938 296.168 237.534 297.015 237.302 297.923H235.857C235.741 295.2 235.987 292.477 235.987 292.477C235.322 294.353 235.004 296.253 234.859 297.923H210.195V272.522C222.151 271.445 231.49 263.071 231.49 252.773C231.49 246.057 227.5 240.151 221.428 236.533C221.5 236.073 221.602 235.625 221.602 235.141C221.602 228.691 215.356 223.451 207.636 223.451C199.916 223.451 193.67 228.679 193.67 235.141C193.67 235.613 193.771 236.073 193.844 236.533C187.772 240.151 183.781 246.057 183.781 252.773C183.781 263.071 193.121 271.445 205.077 272.522V297.923H183.723C183.42 295.66 182.061 294.038 182.061 294.038C182.683 294.898 182.784 296.422 182.596 297.923H179.719C179.892 296.64 180.225 295.587 180.225 295.587C179.516 296.168 179.112 297.015 178.88 297.923H177.435C177.319 295.2 177.565 292.477 177.565 292.477C176.9 294.353 176.582 296.253 176.437 297.923H164.018C164.539 296.447 165.233 293.421 165.666 287.141C165.955 283.05 166.129 277.605 166.086 270.356C166.086 270.053 166.086 269.811 166.086 269.618C165.204 267.573 155.749 261.183 150.298 258.606C146.366 256.754 139.152 254.866 132.949 254.866C126.747 254.866 119.533 256.742 115.601 258.606C110.15 261.183 100.681 267.573 99.8132 269.618C99.8132 269.811 99.8132 270.053 99.8132 270.356C99.7699 277.617 99.9434 283.062 100.233 287.141C100.666 293.409 101.36 296.434 101.881 297.923H90.7919C92.1942 294.184 89.4907 290.928 89.4907 290.928C90.6039 292.453 90.0546 296.096 89.1582 297.923H87.2643C86.5848 295.793 87.6402 292.477 87.6402 292.477C86.1222 293.748 85.9342 296.144 86.0354 297.923H85.2114C84.4596 294.704 84.9656 289.367 84.9656 289.367C83.8379 292.586 83.6933 295.854 83.7512 297.923H72.1275V285.809C78.6767 284.672 83.7367 277.581 83.7367 268.916C83.7367 259.465 77.7225 251.793 70.3059 251.793C62.8893 251.793 56.875 259.453 56.875 268.916C56.875 277.581 61.9351 284.66 68.4843 285.809V297.923H60.5761C59.8966 295.66 56.875 294.038 56.875 294.038C58.2629 294.898 58.4653 296.422 58.0605 297.923H51.6415C52.0318 296.64 52.7547 295.587 52.7547 295.587C51.1789 296.168 50.2825 297.015 49.762 297.923H46.5236C46.2489 295.2 46.7983 292.477 46.7983 292.477C45.3237 294.353 44.6152 296.253 44.2972 297.923H30.2158V273.769C37.5601 272.171 42.8659 267.875 42.8659 262.781C42.8659 261.062 42.2298 259.441 41.16 257.976C45.2369 255.205 47.7814 251.478 47.7814 247.339C47.7814 242.184 43.8346 237.634 37.8203 234.839C37.8203 234.633 37.8926 234.451 37.8926 234.246C37.8926 227.796 31.647 222.556 23.9268 222.556C16.2066 222.556 9.96108 227.784 9.96108 234.246C9.96108 234.451 10.0189 234.645 10.0334 234.839C3.94684 237.646 0 242.184 0 247.351C0 251.502 2.55894 255.254 6.69373 258.037C5.63835 259.489 5.03114 261.098 5.03114 262.793C5.03114 267.863 10.2791 272.135 17.5801 273.756V297.935H0V310.012H1064V297.935V297.923ZM1025.92 297.923V272.389C1029.24 274.483 1033.23 275.814 1037.6 276.201V297.911H1025.92V297.923ZM149.517 282.433C149.691 281.078 151.498 276.83 152.553 275.124C153.305 273.89 154.693 272.643 155.893 272.643C157.093 272.643 158.467 273.89 159.233 275.124C160.274 276.83 162.095 281.078 162.269 282.433C162.269 282.566 162.269 282.724 162.269 282.929C162.269 287.746 162.24 291.364 162.182 294.075C162.153 295.66 162.11 296.906 162.066 297.935H149.72C149.676 296.906 149.633 295.672 149.604 294.075C149.546 291.364 149.517 287.746 149.517 282.929C149.517 282.736 149.517 282.566 149.517 282.433ZM120.906 278.512C121.239 276.746 124.824 271.227 126.892 269.013C128.381 267.415 131.113 265.794 133.455 265.794C135.797 265.794 138.544 267.415 140.019 269.013C142.086 271.227 145.672 276.758 146.004 278.512C146.004 278.682 146.004 278.887 146.004 279.154C146.019 285.422 145.961 290.117 145.845 293.639C145.787 295.321 145.73 296.737 145.672 297.923H121.239C121.167 296.737 121.109 295.321 121.065 293.639C120.964 290.117 120.892 285.41 120.906 279.154C120.906 278.9 120.906 278.682 120.906 278.512ZM103.731 294.063C103.673 291.352 103.644 287.734 103.644 282.917C103.644 282.724 103.644 282.554 103.644 282.421C103.818 281.066 105.625 276.818 106.68 275.112C107.432 273.878 108.82 272.631 110.02 272.631C111.22 272.631 112.594 273.878 113.36 275.112C114.401 276.818 116.222 281.066 116.396 282.421C116.396 282.554 116.396 282.711 116.396 282.917C116.396 287.734 116.367 291.352 116.309 294.063C116.28 295.648 116.237 296.894 116.193 297.923H103.847C103.803 296.894 103.76 295.648 103.731 294.063Z" fill="#424242"/>
<path d="M102.199 259.235C106.131 256.512 110.613 253.934 113.013 252.809C117.668 250.619 125.779 248.404 133.441 248.404C141.103 248.404 149.214 250.619 153.869 252.809C156.269 253.947 160.751 256.512 164.683 259.235C166.881 260.76 168.5 262.03 169.685 263.119C169.772 258.848 169.714 255.399 169.714 254.37C169.714 251.175 156.761 243.309 152.322 241.216C147.884 239.122 140.207 237.15 133.426 237.15C126.646 237.15 118.969 239.122 114.531 241.216C110.092 243.309 97.1386 251.175 97.1386 254.37C97.1386 255.399 97.0953 258.848 97.1675 263.119C98.353 262.03 99.9723 260.76 102.17 259.235H102.199Z" fill="#424242"/>
</g>
</g>
<defs>
<clipPath id="clip0_167_253">
<rect width="1064" height="310" fill="white"/>
</clipPath>
</defs>
</svg>
