<svg width="52" height="55" viewBox="0 0 52 55" fill="none" xmlns="http://www.w3.org/2000/svg">
<path d="M23.3141 29.4654C26.5937 32.56 31.55 34.3354 36.9009 34.3354C42.2518 34.3354 47.2081 32.56 50.4877 29.4654C51.0055 28.9722 51.3014 28.3064 51.3261 27.5913C51.3507 26.8762 51.0918 26.1981 50.5986 25.6803C50.1055 25.1625 49.4397 24.8543 48.7246 24.8419C47.9972 24.8049 47.3314 25.0762 46.8012 25.5693C41.8942 30.2051 31.8952 30.2051 26.9759 25.5693C20.1209 19.0965 6.65739 19.0965 -0.197631 25.5693C-2.19496 27.4557 -5.1663 28.6147 -8.38422 28.9229C-8.17462 30.686 -7.95269 32.449 -7.70611 34.1998C-3.3539 33.7559 0.677742 32.1161 3.47646 29.4777C8.38348 24.8419 18.3948 24.8419 23.3018 29.4777" fill="#3F9FA4"/>
<path d="M23.3145 9.38107C26.5941 12.4757 31.5504 14.2511 36.9013 14.2511C42.2522 14.2511 47.2085 12.4757 50.4881 9.38107C51.5607 8.37008 51.61 6.66865 50.599 5.59601C50.1059 5.07818 49.4401 4.78228 48.725 4.75763C48.0099 4.73297 47.3318 4.99188 46.8016 5.48505C41.8946 10.1208 31.8833 10.1208 26.9763 5.48505C20.1212 -0.987775 6.65776 -0.987775 -0.197268 5.48505C-2.51516 7.66732 -6.10295 8.88791 -9.86336 8.9249C-9.81404 10.1948 -9.78938 11.4647 -9.72774 12.7346C-9.70308 13.2278 -9.66609 13.721 -9.64143 14.2265C-4.5618 14.1278 0.28357 12.4017 3.47683 9.39341C8.38385 4.75764 18.3952 4.75764 23.3022 9.39341" fill="#3F9FA4"/>
<path d="M23.3143 49.5373C26.5938 52.632 31.5502 54.4074 36.901 54.4074C42.2519 54.4074 47.2082 52.632 50.4878 49.5373C51.5604 48.5263 51.6098 46.8249 50.5988 45.7523C50.1056 45.2344 49.4398 44.9385 48.7247 44.9139C48.0096 44.8892 47.3315 45.1481 46.8014 45.6413C41.8944 50.2771 31.8954 50.2771 26.976 45.6413C20.121 39.1685 6.65752 39.1685 -0.197488 45.6413C-1.50438 46.8742 -3.21814 47.7989 -5.15382 48.3784C-4.77162 50.1291 -4.35243 51.8675 -3.93323 53.5936C-1.08519 52.8046 1.45463 51.4484 3.47659 49.5373C8.38361 44.9016 18.3949 44.9016 23.3019 49.5373" fill="#3F9FA4"/>
</svg>
