<svg width="210" height="77" viewBox="0 0 210 77" fill="none" xmlns="http://www.w3.org/2000/svg">
<path d="M175.927 67.9988C177.145 67.9988 178.139 68.3836 178.909 69.1531C179.678 69.8906 180.063 70.8686 180.063 72.0871C180.063 73.3055 179.678 74.2995 178.909 75.0691C178.139 75.8386 177.145 76.2234 175.927 76.2234C174.74 76.2234 173.763 75.8386 172.993 75.0691C172.223 74.2995 171.839 73.3055 171.839 72.0871C171.839 70.8686 172.223 69.8906 172.993 69.1531C173.763 68.3836 174.74 67.9988 175.927 67.9988Z" fill="white"/>
<path d="M161.977 60.5919C162.009 59.5338 161.817 58.636 161.4 57.8985C161.015 57.1289 160.454 56.5357 159.716 56.1189C158.979 55.702 158.129 55.4936 157.167 55.4936C156.045 55.4936 155.083 55.7982 154.281 56.4075C153.512 56.9846 152.903 57.8023 152.454 58.8604C152.037 59.8865 151.828 61.0889 151.828 62.4677C151.828 63.9748 152.085 65.2734 152.598 66.3636C153.111 67.4538 153.832 68.3035 154.762 68.9128C155.724 69.4899 156.83 69.7785 158.081 69.7785C160.39 69.7785 162.426 68.8967 164.189 67.1332L168.662 71.5581C167.348 73.001 165.728 74.1233 163.805 74.9249C161.913 75.7266 159.748 76.1274 157.311 76.1274C154.49 76.1274 152.037 75.5823 149.953 74.4921C147.9 73.4019 146.313 71.8627 145.191 69.8747C144.101 67.8867 143.556 65.578 143.556 62.9487C143.556 60.2552 144.117 57.9145 145.239 55.9265C146.361 53.9064 147.949 52.3512 150.001 51.261C152.053 50.1388 154.426 49.5776 157.119 49.5776C160.165 49.5776 162.682 50.2189 164.67 51.5015C166.69 52.7521 168.165 54.5477 169.095 56.8884C170.057 59.2292 170.442 61.9707 170.25 65.1131H150.626V60.5919H161.977Z" fill="white"/>
<path d="M122.213 49.8662H145.011V55.0126L132.506 69.3937H145.492V75.8388H121.781V70.6924L134.286 56.3113H122.213V49.8662Z" fill="white"/>
<path d="M105.1 63.8625C105.1 65.3375 105.469 66.5079 106.206 67.3736C106.976 68.2394 108.002 68.6723 109.284 68.6723C110.823 68.6402 112.01 68.063 112.843 66.9408C113.709 65.8185 114.142 64.4076 114.142 62.7082H116.162C116.162 65.6261 115.745 68.0951 114.912 70.1152C114.078 72.1032 112.892 73.6103 111.352 74.6363C109.813 75.6624 107.97 76.1755 105.821 76.1755C103.961 76.1755 102.326 75.7746 100.915 74.973C99.5366 74.1393 98.4624 72.985 97.6928 71.51C96.9233 70.035 96.5385 68.2875 96.5385 66.2674V49.8662H105.1V63.8625ZM114.142 49.8662H122.703V75.8388H114.142V49.8662Z" fill="white"/>
<path d="M88.9613 60.5919C88.9934 59.5338 88.801 58.636 88.3842 57.8985C87.9994 57.1289 87.4383 56.5357 86.7008 56.1189C85.9633 55.702 85.1136 55.4936 84.1516 55.4936C83.0294 55.4936 82.0674 55.7982 81.2658 56.4075C80.4963 56.9846 79.887 57.8023 79.4381 58.8604C79.0213 59.8865 78.8129 61.0889 78.8129 62.4677C78.8129 63.9748 79.0694 65.2734 79.5824 66.3636C80.0954 67.4538 80.8169 68.3035 81.7468 68.9128C82.7087 69.4899 83.815 69.7785 85.0655 69.7785C87.3741 69.7785 89.4103 68.8967 91.1738 67.1332L95.6468 71.5581C94.3322 73.001 92.7129 74.1233 90.789 74.9249C88.8972 75.7266 86.7328 76.1274 84.2959 76.1274C81.4742 76.1274 79.0213 75.5823 76.9371 74.4921C74.8849 73.4019 73.2977 71.8627 72.1755 69.8747C71.0853 67.8867 70.5402 65.578 70.5402 62.9487C70.5402 60.2552 71.1013 57.9145 72.2236 55.9265C73.3458 53.9064 74.933 52.3512 76.9852 51.261C79.0373 50.1388 81.4101 49.5776 84.1035 49.5776C87.1497 49.5776 89.6668 50.2189 91.6548 51.5015C93.6749 52.7521 95.1498 54.5477 96.0797 56.8884C97.0417 59.2292 97.4264 61.9707 97.234 65.1131H77.6104V60.5919H88.9613Z" fill="white"/>
<path d="M32.5446 58.3791H45.2903V63.766H32.5446V58.3791Z" fill="white"/>
<path d="M182.315 32.0342C182.347 30.9761 182.155 30.0783 181.738 29.3408C181.353 28.5712 180.792 27.978 180.054 27.5612C179.317 27.1444 178.467 26.9359 177.505 26.9359C176.383 26.9359 175.421 27.2405 174.619 27.8498C173.85 28.4269 173.241 29.2446 172.792 30.3027C172.375 31.3288 172.167 32.5313 172.167 33.91C172.167 35.4171 172.423 36.7157 172.936 37.8059C173.449 38.8961 174.171 39.7459 175.1 40.3551C176.062 40.9323 177.169 41.2208 178.419 41.2208C180.728 41.2208 182.764 40.3391 184.527 38.5755L189 43.0004C187.686 44.4434 186.067 45.5656 184.143 46.3673C182.251 47.1689 180.086 47.5697 177.65 47.5697C174.828 47.5697 172.375 47.0246 170.291 45.9344C168.239 44.8442 166.651 43.3051 165.529 41.317C164.439 39.329 163.894 37.0203 163.894 34.391C163.894 31.6976 164.455 29.3568 165.577 27.3688C166.699 25.3487 168.287 23.7936 170.339 22.7034C172.391 21.5811 174.764 21.02 177.457 21.02C180.503 21.02 183.02 21.6613 185.008 22.9439C187.028 24.1944 188.503 25.99 189.433 28.3308C190.395 30.6715 190.78 33.413 190.588 36.5554H170.964V32.0342H182.315Z" fill="white"/>
<path d="M138.205 33.2846C138.205 31.7776 137.82 30.6072 137.05 29.7735C136.281 28.9077 135.239 28.4749 133.924 28.4749C132.417 28.5069 131.215 29.0841 130.317 30.2064C129.419 31.2966 128.97 32.7074 128.97 34.4389H126.95C126.95 31.489 127.367 29.02 128.201 27.0319C129.066 25.0119 130.285 23.4888 131.856 22.4627C133.427 21.4366 135.287 20.9236 137.435 20.9236C139.327 20.9236 140.962 21.3404 142.341 22.1741C143.752 22.9757 144.842 24.1301 145.612 25.6371C146.381 27.1121 146.766 28.8596 146.766 30.8797V47.2809H138.205V33.2846ZM155.953 33.2846C155.953 31.7776 155.568 30.6072 154.798 29.7735C154.029 28.9077 152.987 28.4749 151.672 28.4749C150.165 28.5069 148.962 29.0841 148.065 30.2064C147.199 31.2966 146.766 32.7074 146.766 34.4389H144.698C144.698 31.489 145.115 29.02 145.948 27.0319C146.814 25.0119 148.033 23.4888 149.604 22.4627C151.175 21.4366 153.035 20.9236 155.183 20.9236C157.075 20.9236 158.71 21.3404 160.089 22.1741C161.5 22.9757 162.59 24.1301 163.36 25.6371C164.129 27.1121 164.514 28.8596 164.514 30.8797V47.2809H155.953V33.2846ZM120.457 21.3084H128.97V47.2809H120.457V21.3084Z" fill="white"/>
<path d="M94.1544 33.2846C94.1544 31.7776 93.7697 30.6072 93.0001 29.7735C92.2306 28.9077 91.1885 28.4749 89.8738 28.4749C88.3668 28.5069 87.1643 29.0841 86.2665 30.2064C85.3687 31.2966 84.9198 32.7074 84.9198 34.4389H82.8997C82.8997 31.489 83.3166 29.02 84.1502 27.0319C85.016 25.0119 86.2345 23.4888 87.8056 22.4627C89.3768 21.4366 91.2366 20.9236 93.3849 20.9236C95.2767 20.9236 96.912 21.3404 98.2908 22.1741C99.7016 22.9757 100.792 24.1301 101.561 25.6371C102.331 27.1121 102.716 28.8596 102.716 30.8797V47.2809H94.1544V33.2846ZM111.902 33.2846C111.902 31.7776 111.517 30.6072 110.748 29.7735C109.978 28.9077 108.936 28.4749 107.622 28.4749C106.115 28.5069 104.912 29.0841 104.014 30.2064C103.149 31.2966 102.716 32.7074 102.716 34.4389H100.648C100.648 31.489 101.064 29.02 101.898 27.0319C102.764 25.0119 103.982 23.4888 105.553 22.4627C107.125 21.4366 108.984 20.9236 111.133 20.9236C113.025 20.9236 114.66 21.3404 116.039 22.1741C117.449 22.9757 118.54 24.1301 119.309 25.6371C120.079 27.1121 120.464 28.8596 120.464 30.8797V47.2809H111.902V33.2846ZM76.4066 21.3084H84.9198V47.2809H76.4066V21.3084Z" fill="white"/>
<path d="M62.8879 21.02C65.7417 21.02 68.2267 21.5651 70.343 22.6553C72.4913 23.7455 74.1587 25.2846 75.3451 27.2726C76.5315 29.2606 77.1247 31.5853 77.1247 34.2467C77.1247 36.9081 76.5315 39.2488 75.3451 41.2689C74.1587 43.257 72.4913 44.8121 70.343 45.9344C68.2267 47.0246 65.7417 47.5697 62.8879 47.5697C60.0342 47.5697 57.5331 47.0246 55.3848 45.9344C53.2685 44.8121 51.6172 43.257 50.4308 41.2689C49.2764 39.2488 48.6993 36.9081 48.6993 34.2467C48.6993 31.5853 49.2764 29.2606 50.4308 27.2726C51.6172 25.2846 53.2685 23.7455 55.3848 22.6553C57.5331 21.5651 60.0342 21.02 62.8879 21.02ZM62.8879 27.8017C61.7657 27.8017 60.7877 28.0742 59.954 28.6193C59.1203 29.1644 58.463 29.934 57.982 30.928C57.5331 31.922 57.3087 33.0764 57.3087 34.391C57.3087 35.7057 57.5331 36.86 57.982 37.854C58.463 38.816 59.1203 39.5695 59.954 40.1146C60.7877 40.6597 61.7657 40.9323 62.8879 40.9323C64.0102 40.9323 64.9882 40.6597 65.8218 40.1146C66.6876 39.5695 67.3449 38.816 67.7938 37.854C68.2748 36.86 68.5153 35.7057 68.5153 34.391C68.5153 33.0764 68.2748 31.922 67.7938 30.928C67.3449 29.934 66.6876 29.1644 65.8218 28.6193C64.9882 28.0742 64.0102 27.8017 62.8879 27.8017Z" fill="white"/>
<path d="M46.5296 23.6172C45.3432 22.8797 44.0767 22.2544 42.7299 21.7414C41.4153 21.1963 40.1327 20.7794 38.8822 20.4909C37.6637 20.1702 36.5895 20.0099 35.6597 20.0099C34.6015 20.0099 33.7518 20.2183 33.1105 20.6352C32.4692 21.0199 32.1486 21.6292 32.1486 22.4629C32.1486 23.2965 32.4532 23.9859 33.0624 24.531C33.7037 25.0441 34.5534 25.477 35.6116 25.8297C36.6697 26.1824 37.8401 26.5351 39.1227 26.8878C40.4052 27.2405 41.6718 27.6574 42.9223 28.1383C44.1729 28.6193 45.3272 29.2446 46.3853 30.0141C47.4435 30.7516 48.2932 31.7136 48.9345 32.9C49.5758 34.0864 49.8964 35.5614 49.8964 37.3249C49.8964 39.6015 49.2872 41.5254 48.0687 43.0966C46.8503 44.6357 45.215 45.8061 43.1628 46.6077C41.1107 47.3773 38.8341 47.7621 36.333 47.7621C34.4412 47.7621 32.5494 47.5536 30.6576 47.1368C28.7978 46.6879 27.0182 46.0626 25.3188 45.261C23.6514 44.4273 22.1444 43.4493 20.7977 42.3271L24.2126 35.5453C25.3669 36.5714 26.6655 37.4692 28.1084 38.2388C29.5513 39.0083 31.0103 39.6176 32.4853 40.0665C33.9602 40.4833 35.2749 40.6917 36.4292 40.6917C37.7439 40.6917 38.7699 40.4513 39.5074 39.9703C40.277 39.4572 40.6618 38.7198 40.6618 37.7578C40.6618 36.9241 40.3411 36.2508 39.6998 35.7377C39.0585 35.1926 38.2088 34.7437 37.1507 34.391C36.0925 34.0383 34.9222 33.7016 33.6396 33.3809C32.3891 33.0282 31.1225 32.6274 29.8399 32.1785C28.5894 31.6975 27.4351 31.1043 26.3769 30.3989C25.3188 29.6614 24.4691 28.7155 23.8278 27.5612C23.2186 26.4068 22.9139 24.9639 22.9139 23.2324C22.9139 21.1482 23.459 19.3365 24.5492 17.7974C25.6715 16.2262 27.2427 15.0238 29.2628 14.1901C31.3149 13.3244 33.6877 12.8915 36.3811 12.8915C38.8501 12.8915 41.271 13.2442 43.6438 13.9496C46.0166 14.655 48.0847 15.5689 49.8483 16.6912L46.5296 23.6172Z" fill="white"/>
<path d="M147.014 15.5471V16.4688H143.303V15.5471H147.014ZM143.497 7.92029V16.4688H142.417V7.92029H143.497ZM146.515 11.5957V12.5175H143.303V11.5957H146.515ZM146.955 7.92029V8.84795H143.303V7.92029H146.955Z" fill="white"/>
<path d="M135.681 16.4688H134.225L134.237 15.5471H135.681C136.194 15.5471 136.611 15.4492 136.932 15.2535C137.253 15.0539 137.489 14.7603 137.642 14.3728C137.795 13.9814 137.871 13.498 137.871 12.9226V11.4607C137.871 11.0066 137.828 10.6152 137.742 10.2864C137.656 9.95761 137.527 9.68754 137.354 9.47617C137.182 9.26481 136.965 9.10824 136.703 9.00647C136.44 8.90079 136.133 8.84795 135.781 8.84795H134.196V7.92029H135.781C136.262 7.92029 136.697 7.99661 137.084 8.14927C137.472 8.29801 137.804 8.52307 138.082 8.82446C138.36 9.12194 138.572 9.49183 138.716 9.93413C138.865 10.3764 138.94 10.8892 138.94 11.4724V12.9226C138.94 13.5058 138.865 14.0186 138.716 14.4609C138.572 14.9032 138.358 15.2731 138.076 15.5705C137.795 15.868 137.452 16.0931 137.049 16.2457C136.65 16.3945 136.194 16.4688 135.681 16.4688ZM134.824 7.92029V16.4688H133.744V7.92029H134.824Z" fill="white"/>
<path d="M125.997 15.5471V16.4688H122.286V15.5471H125.997ZM122.48 7.92029V16.4688H121.4V7.92029H122.48ZM125.498 11.5957V12.5175H122.286V11.5957H125.498ZM125.938 7.92029V8.84795H122.286V7.92029H125.938Z" fill="white"/>
<path d="M117.729 7.92029V16.4688H116.643L113.22 9.87542V16.4688H112.14V7.92029H113.22L116.661 14.5313V7.92029H117.729Z" fill="white"/>
<path d="M107.606 7.92029H108.686V13.9383C108.686 14.5803 108.563 15.095 108.317 15.4825C108.07 15.87 107.745 16.1518 107.342 16.3279C106.943 16.5002 106.512 16.5863 106.05 16.5863C105.557 16.5863 105.113 16.5002 104.717 16.3279C104.322 16.1518 104.007 15.87 103.772 15.4825C103.541 15.095 103.426 14.5803 103.426 13.9383V7.92029H104.5V13.9383C104.5 14.3845 104.563 14.7329 104.688 14.9834C104.817 15.2339 104.997 15.4101 105.228 15.5118C105.463 15.6136 105.737 15.6645 106.05 15.6645C106.367 15.6645 106.641 15.6136 106.872 15.5118C107.107 15.4101 107.287 15.2339 107.412 14.9834C107.542 14.7329 107.606 14.3845 107.606 13.9383V7.92029Z" fill="white"/>
<path d="M93.0325 7.92029H94.0776L96.3146 14.8895L98.5456 7.92029H99.5907L96.7197 16.4688H95.8977L93.0325 7.92029ZM92.692 7.92029H93.6079L93.7665 13.134V16.4688H92.692V7.92029ZM99.0095 7.92029H99.9254V16.4688H98.8509V13.134L99.0095 7.92029Z" fill="white"/>
<path d="M82.1403 7.92029H83.1854L85.4223 14.8895L87.6534 7.92029H88.6984L85.8274 16.4688H85.0054L82.1403 7.92029ZM81.7997 7.92029H82.7157L82.8742 13.134V16.4688H81.7997V7.92029ZM88.1172 7.92029H89.0331V16.4688H87.9587V13.134L88.1172 7.92029Z" fill="white"/>
<path d="M78.3228 11.4547V12.9401C78.3228 13.5429 78.2563 14.0733 78.1232 14.5313C77.994 14.9853 77.8042 15.365 77.5537 15.6703C77.3032 15.9756 77.0018 16.2046 76.6495 16.3572C76.2972 16.5099 75.8999 16.5862 75.4576 16.5862C75.031 16.5862 74.6415 16.5099 74.2893 16.3572C73.937 16.2046 73.6337 15.9756 73.3792 15.6703C73.1248 15.365 72.9272 14.9853 72.7862 14.5313C72.6492 14.0733 72.5807 13.5429 72.5807 12.9401V11.4547C72.5807 10.8519 72.6492 10.3235 72.7862 9.86948C72.9232 9.41152 73.1189 9.02989 73.3734 8.72458C73.6278 8.41928 73.9311 8.1903 74.2834 8.03765C74.6357 7.88108 75.0251 7.8028 75.4518 7.8028C75.8941 7.8028 76.2914 7.88108 76.6436 8.03765C76.9998 8.1903 77.3012 8.41928 77.5478 8.72458C77.7983 9.02989 77.9901 9.41152 78.1232 9.86948C78.2563 10.3235 78.3228 10.8519 78.3228 11.4547ZM77.2542 12.9401V11.443C77.2542 10.9733 77.2151 10.5701 77.1368 10.2335C77.0585 9.89296 76.9431 9.61506 76.7904 9.39978C76.6378 9.1845 76.4499 9.02597 76.2268 8.92421C76.0037 8.81852 75.7453 8.76568 75.4518 8.76568C75.1739 8.76568 74.9234 8.81852 74.7003 8.92421C74.4811 9.02597 74.2932 9.1845 74.1366 9.39978C73.9801 9.61506 73.8587 9.89296 73.7726 10.2335C73.6904 10.5701 73.6493 10.9733 73.6493 11.443V12.9401C73.6493 13.4138 73.6904 13.8208 73.7726 14.1614C73.8587 14.498 73.9801 14.7759 74.1366 14.9951C74.2971 15.2104 74.4889 15.3708 74.712 15.4765C74.9351 15.5783 75.1837 15.6292 75.4576 15.6292C75.7512 15.6292 76.0095 15.5783 76.2327 15.4765C76.4597 15.3708 76.6476 15.2104 76.7963 14.9951C76.9489 14.7759 77.0625 14.498 77.1368 14.1614C77.2151 13.8208 77.2542 13.4138 77.2542 12.9401Z" fill="white"/>
<path d="M68.4168 13.7503H69.4971C69.4697 14.3374 69.3503 14.8443 69.139 15.271C68.9315 15.6937 68.6282 16.0186 68.2289 16.2456C67.8336 16.4726 67.3384 16.5861 66.7435 16.5861C66.3169 16.5861 65.9313 16.502 65.5869 16.3337C65.2424 16.1654 64.9469 15.9246 64.7003 15.6115C64.4576 15.2945 64.2717 14.9148 64.1425 14.4725C64.0134 14.0302 63.9488 13.5331 63.9488 12.9812V11.4018C63.9488 10.8538 64.0134 10.3587 64.1425 9.91639C64.2756 9.47409 64.4655 9.09637 64.7121 8.78323C64.9626 8.46619 65.2659 8.22351 65.6221 8.0552C65.9822 7.88689 66.3893 7.80273 66.8433 7.80273C67.3991 7.80273 67.8688 7.91429 68.2524 8.1374C68.6399 8.35659 68.9374 8.67951 69.1448 9.10615C69.3562 9.52888 69.4736 10.0475 69.4971 10.662H68.4168C68.3894 10.2119 68.3189 9.84593 68.2054 9.56411C68.0919 9.27838 67.9236 9.06897 67.7005 8.93589C67.4813 8.79889 67.1956 8.73039 66.8433 8.73039C66.5302 8.73039 66.2581 8.79302 66.0272 8.91827C65.8002 9.04353 65.6123 9.22358 65.4636 9.45843C65.3187 9.68937 65.2091 9.96923 65.1348 10.298C65.0643 10.6229 65.0291 10.9869 65.0291 11.3901V12.9812C65.0291 13.3569 65.0585 13.7073 65.1172 14.0321C65.1798 14.357 65.2776 14.6427 65.4107 14.8893C65.5477 15.132 65.7258 15.3219 65.945 15.4589C66.1642 15.5959 66.4304 15.6643 66.7435 15.6643C67.1388 15.6643 67.452 15.5998 67.6829 15.4706C67.9138 15.3414 68.0841 15.1359 68.1937 14.8541C68.3072 14.5723 68.3816 14.2044 68.4168 13.7503Z" fill="white"/>
<path d="M165.026 29.6227C172.785 25.2236 180.953 24.8288 189.1 28.4589C194.897 31.0417 200.341 30.7786 205.861 27.6486L209.854 34.4393C202.095 38.8384 193.928 39.2333 185.78 35.6031C179.984 33.0203 174.54 33.2835 169.02 36.4134C161.261 40.8126 153.093 41.2075 144.946 37.5773C139.149 34.9945 133.705 35.2576 128.185 38.3876C120.426 42.7867 112.258 43.1816 104.111 39.5514C98.3142 36.9686 92.8704 37.2318 87.35 40.3617C79.591 44.7609 71.4231 45.1557 63.276 41.5256C57.4793 38.9428 52.0356 39.2059 46.5152 42.3359C38.7562 46.735 30.5883 47.1299 22.4411 43.4997C16.6445 40.9169 11.2008 41.1801 5.68034 44.31L1.68688 37.5193C9.44582 33.1202 17.6138 32.7253 25.7609 36.3555C31.5576 38.9383 37.0012 38.6751 42.5217 35.5452C50.2807 31.1461 58.4486 30.7512 66.5957 34.3813C72.3924 36.9642 77.8361 36.701 83.3565 33.571C91.1155 29.1719 99.2835 28.777 107.431 32.4072C113.227 34.99 118.671 34.7268 124.191 31.5969C131.95 27.1978 140.118 26.8029 148.265 30.433C154.062 33.0159 159.506 32.7527 165.026 29.6227Z" fill="#B7097C"/>
<path d="M138.205 33.2845C138.205 31.7775 137.82 30.6071 137.05 29.7734C136.281 28.9077 135.239 28.4748 133.924 28.4748C132.417 28.5069 131.215 29.084 130.317 30.2063C129.419 31.2965 128.97 32.7074 128.97 34.4389H126.95C126.95 31.4889 127.367 29.0199 128.201 27.0319C129.066 25.0118 130.285 23.4887 131.856 22.4626C133.427 21.4366 135.287 20.9235 137.435 20.9235C139.327 20.9235 140.962 21.3404 142.341 22.1741C143.752 22.9757 144.842 24.13 145.612 25.6371C146.381 27.112 146.766 28.8596 146.766 30.8797V47.2809H138.205V33.2845ZM155.953 33.2845C155.953 31.7775 155.568 30.6071 154.798 29.7734C154.029 28.9077 152.987 28.4748 151.672 28.4748C150.165 28.5069 148.962 29.084 148.065 30.2063C147.199 31.2965 146.766 32.7074 146.766 34.4389H144.698C144.698 31.4889 145.115 29.0199 145.948 27.0319C146.814 25.0118 148.033 23.4887 149.604 22.4626C151.175 21.4366 153.035 20.9235 155.183 20.9235C157.075 20.9235 158.71 21.3404 160.089 22.1741C161.5 22.9757 162.59 24.13 163.36 25.6371C164.129 27.112 164.514 28.8596 164.514 30.8797V47.2809H155.953V33.2845ZM120.457 21.3083H128.97V47.2809H120.457V21.3083Z" fill="white"/>
<path d="M62.8879 21.0199C65.7417 21.0199 68.2267 21.565 70.343 22.6552C72.4913 23.7454 74.1587 25.2845 75.3451 27.2726C76.5315 29.2606 77.1247 31.5853 77.1247 34.2467C77.1247 36.9081 76.5315 39.2488 75.3451 41.2689C74.1587 43.2569 72.4913 44.812 70.343 45.9343C68.2267 47.0245 65.7417 47.5696 62.8879 47.5696C60.0342 47.5696 57.5331 47.0245 55.3848 45.9343C53.2685 44.812 51.6172 43.2569 50.4308 41.2689C49.2764 39.2488 48.6993 36.9081 48.6993 34.2467C48.6993 31.5853 49.2764 29.2606 50.4308 27.2726C51.6172 25.2845 53.2685 23.7454 55.3848 22.6552C57.5331 21.565 60.0342 21.0199 62.8879 21.0199ZM62.8879 27.8016C61.7657 27.8016 60.7877 28.0742 59.954 28.6193C59.1203 29.1644 58.463 29.9339 57.982 30.9279C57.5331 31.922 57.3087 33.0763 57.3087 34.391C57.3087 35.7056 57.5331 36.86 57.982 37.854C58.463 38.8159 59.1203 39.5694 59.954 40.1145C60.7877 40.6596 61.7657 40.9322 62.8879 40.9322C64.0102 40.9322 64.9882 40.6596 65.8218 40.1145C66.6876 39.5694 67.3449 38.8159 67.7938 37.854C68.2748 36.86 68.5153 35.7056 68.5153 34.391C68.5153 33.0763 68.2748 31.922 67.7938 30.9279C67.3449 29.9339 66.6876 29.1644 65.8218 28.6193C64.9882 28.0742 64.0102 27.8016 62.8879 27.8016Z" fill="white"/>
<path d="M49.8837 46.1014C52.1514 48.3431 55.2338 49.8492 58.6854 50.203V68.4315H72.9706V75.8387H49.8837V46.1014Z" fill="white"/>
</svg>
