<svg width="651" height="236" viewBox="0 0 651 236" fill="none" xmlns="http://www.w3.org/2000/svg">
<path d="M456.106 48.1215V50.9747H444.621V48.1215H456.106ZM445.221 24.5149V50.9747H441.877V24.5149H445.221ZM454.561 35.8911V38.7443H444.621V35.8911H454.561ZM455.924 24.5149V27.3862H444.621V24.5149H455.924Z" fill="white"/>
<path d="M421.028 50.9747H416.522L416.558 48.1215H421.028C422.616 48.1215 423.906 47.8186 424.899 47.2129C425.893 46.595 426.626 45.6864 427.098 44.4869C427.571 43.2754 427.807 41.7792 427.807 39.9982V35.4732C427.807 34.0678 427.674 32.8563 427.407 31.8386C427.141 30.8209 426.741 29.9849 426.208 29.3307C425.675 28.6765 425.002 28.1919 424.19 27.8769C423.379 27.5498 422.428 27.3862 421.337 27.3862H416.431V24.5149H421.337C422.828 24.5149 424.172 24.7511 425.372 25.2236C426.571 25.684 427.601 26.3806 428.461 27.3135C429.321 28.2343 429.976 29.3792 430.424 30.7482C430.884 32.1172 431.114 33.7043 431.114 35.5095V39.9982C431.114 41.8034 430.884 43.3905 430.424 44.7595C429.976 46.1286 429.315 47.2735 428.443 48.1942C427.571 49.115 426.511 49.8116 425.263 50.2841C424.027 50.7445 422.616 50.9747 421.028 50.9747ZM418.375 24.5149V50.9747H415.031V24.5149H418.375Z" fill="white"/>
<path d="M391.054 48.1215V50.9747H379.569V48.1215H391.054ZM380.169 24.5149V50.9747H376.825V24.5149H380.169ZM389.509 35.8911V38.7443H379.569V35.8911H389.509ZM390.872 24.5149V27.3862H379.569V24.5149H390.872Z" fill="white"/>
<path d="M365.463 24.5149V50.9747H362.101L351.506 30.5665V50.9747H348.163V24.5149H351.506L362.156 44.9776V24.5149H365.463Z" fill="white"/>
<path d="M334.13 24.5149H337.473V43.1421C337.473 45.129 337.092 46.7222 336.329 47.9216C335.565 49.121 334.56 49.9933 333.312 50.5385C332.076 51.0716 330.743 51.3381 329.314 51.3381C327.787 51.3381 326.412 51.0716 325.189 50.5385C323.965 49.9933 322.99 49.121 322.263 47.9216C321.548 46.7222 321.191 45.129 321.191 43.1421V24.5149H324.516V43.1421C324.516 44.5233 324.71 45.6015 325.098 46.3769C325.498 47.1523 326.055 47.6975 326.77 48.0125C327.497 48.3275 328.345 48.485 329.314 48.485C330.295 48.485 331.143 48.3275 331.858 48.0125C332.585 47.6975 333.142 47.1523 333.53 46.3769C333.93 45.6015 334.13 44.5233 334.13 43.1421V24.5149Z" fill="white"/>
<path d="M289.021 24.5149H292.256L299.18 46.0862L306.085 24.5149H309.32L300.434 50.9747H297.89L289.021 24.5149ZM287.967 24.5149H290.802L291.293 40.6525V50.9747H287.967V24.5149ZM307.521 24.5149H310.356V50.9747H307.03V40.6525L307.521 24.5149Z" fill="white"/>
<path d="M255.307 24.5149H258.542L265.466 46.0862L272.371 24.5149H275.606L266.719 50.9747H264.175L255.307 24.5149ZM254.253 24.5149H257.088L257.579 40.6525V50.9747H254.253V24.5149ZM273.807 24.5149H276.642V50.9747H273.316V40.6525L273.807 24.5149Z" fill="white"/>
<path d="M243.491 35.4549V40.0527C243.491 41.9184 243.285 43.5601 242.873 44.9775C242.473 46.3829 241.886 47.5581 241.11 48.5031C240.335 49.4481 239.402 50.1568 238.312 50.6293C237.221 51.1018 235.991 51.3381 234.622 51.3381C233.302 51.3381 232.096 51.1018 231.006 50.6293C229.916 50.1568 228.977 49.4481 228.189 48.5031C227.402 47.5581 226.79 46.3829 226.354 44.9775C225.93 43.5601 225.718 41.9184 225.718 40.0527V35.4549C225.718 33.5892 225.93 31.9536 226.354 30.5482C226.778 29.1307 227.384 27.9495 228.171 27.0045C228.959 26.0595 229.898 25.3508 230.988 24.8783C232.078 24.3937 233.284 24.1514 234.604 24.1514C235.973 24.1514 237.203 24.3937 238.293 24.8783C239.396 25.3508 240.329 26.0595 241.092 27.0045C241.867 27.9495 242.461 29.1307 242.873 30.5482C243.285 31.9536 243.491 33.5892 243.491 35.4549ZM240.183 40.0527V35.4186C240.183 33.9647 240.062 32.7169 239.82 31.675C239.578 30.6209 239.22 29.7607 238.748 29.0944C238.275 28.4281 237.694 27.9374 237.003 27.6224C236.313 27.2953 235.513 27.1317 234.604 27.1317C233.744 27.1317 232.969 27.2953 232.278 27.6224C231.6 27.9374 231.018 28.4281 230.534 29.0944C230.049 29.7607 229.673 30.6209 229.407 31.675C229.152 32.7169 229.025 33.9647 229.025 35.4186V40.0527C229.025 41.5186 229.152 42.7786 229.407 43.8326C229.673 44.8746 230.049 45.7347 230.534 46.4132C231.03 47.0795 231.624 47.5763 232.315 47.9034C233.005 48.2184 233.774 48.3759 234.622 48.3759C235.531 48.3759 236.331 48.2184 237.021 47.9034C237.724 47.5763 238.305 47.0795 238.766 46.4132C239.238 45.7347 239.59 44.8746 239.82 43.8326C240.062 42.7786 240.183 41.5186 240.183 40.0527Z" fill="white"/>
<path d="M212.83 42.5605H216.173C216.089 44.3778 215.719 45.9468 215.065 47.2673C214.423 48.5758 213.484 49.5813 212.248 50.284C211.024 50.9867 209.492 51.3381 207.65 51.3381C206.33 51.3381 205.136 51.0776 204.07 50.5566C203.004 50.0357 202.089 49.2906 201.326 48.3214C200.575 47.34 200 46.1648 199.6 44.7958C199.2 43.4268 199 41.8881 199 40.1799V35.2914C199 33.5952 199.2 32.0626 199.6 30.6936C200.012 29.3246 200.599 28.1555 201.362 27.1862C202.138 26.2049 203.077 25.4538 204.179 24.9328C205.294 24.4118 206.554 24.1514 207.959 24.1514C209.68 24.1514 211.133 24.4967 212.321 25.1872C213.52 25.8657 214.441 26.8652 215.083 28.1858C215.737 29.4942 216.101 31.0995 216.173 33.0016H212.83C212.745 31.6083 212.527 30.4755 212.175 29.6032C211.824 28.7188 211.303 28.0707 210.612 27.6587C209.934 27.2347 209.05 27.0227 207.959 27.0227C206.99 27.0227 206.148 27.2165 205.433 27.6042C204.731 27.9919 204.149 28.5492 203.689 29.2761C203.24 29.9909 202.901 30.8572 202.671 31.8749C202.453 32.8804 202.344 34.0072 202.344 35.255V40.1799C202.344 41.343 202.435 42.4273 202.616 43.4328C202.81 44.4384 203.113 45.3228 203.525 46.0861C203.949 46.8372 204.5 47.4248 205.179 47.8489C205.857 48.2729 206.681 48.4849 207.65 48.4849C208.874 48.4849 209.843 48.285 210.558 47.8852C211.273 47.4854 211.8 46.8494 212.139 45.9771C212.49 45.1047 212.72 43.9659 212.83 42.5605Z" fill="white"/>
<path d="M544.765 210.472C548.536 210.472 551.613 211.663 553.995 214.045C556.377 216.328 557.568 219.355 557.568 223.126C557.568 226.898 556.377 229.974 553.995 232.356C551.613 234.738 548.536 235.929 544.765 235.929C541.093 235.929 538.065 234.738 535.684 232.356C533.302 229.974 532.111 226.898 532.111 223.126C532.111 219.355 533.302 216.328 535.684 214.045C538.065 211.663 541.093 210.472 544.765 210.472Z" fill="white"/>
<path d="M501.586 187.546C501.685 184.271 501.09 181.492 499.8 179.21C498.609 176.828 496.872 174.991 494.589 173.701C492.306 172.411 489.676 171.766 486.699 171.766C483.225 171.766 480.248 172.709 477.767 174.594C475.385 176.381 473.499 178.912 472.109 182.187C470.819 185.363 470.174 189.085 470.174 193.352C470.174 198.017 470.968 202.037 472.556 205.411C474.144 208.786 476.377 211.416 479.255 213.301C482.233 215.088 485.657 215.981 489.527 215.981C496.673 215.981 502.976 213.252 508.434 207.793L522.279 221.489C518.21 225.956 513.198 229.429 507.243 231.91C501.388 234.392 494.688 235.632 487.145 235.632C478.412 235.632 470.819 233.945 464.368 230.571C458.016 227.196 453.103 222.432 449.63 216.279C446.255 210.125 444.568 202.98 444.568 194.841C444.568 186.504 446.305 179.259 449.779 173.106C453.252 166.853 458.165 162.04 464.517 158.665C470.869 155.191 478.213 153.455 486.55 153.455C495.979 153.455 503.77 155.44 509.923 159.409C516.176 163.28 520.741 168.838 523.619 176.083C526.597 183.328 527.788 191.814 527.192 201.54H466.452V187.546H501.586Z" fill="white"/>
<path d="M378.509 154.348H449.074V170.277L410.367 214.79H450.563V234.739H377.169V218.81L415.875 174.297H378.509V154.348Z" fill="white"/>
<path d="M325.538 197.67C325.538 202.235 326.679 205.858 328.962 208.537C331.344 211.217 334.52 212.557 338.49 212.557C343.254 212.458 346.926 210.671 349.507 207.197C352.186 203.724 353.526 199.357 353.526 194.097H359.779C359.779 203.128 358.488 210.77 355.908 217.023C353.328 223.176 349.655 227.841 344.891 231.017C340.128 234.193 334.421 235.781 327.771 235.781C322.015 235.781 316.953 234.54 312.586 232.059C308.319 229.479 304.994 225.906 302.612 221.34C300.23 216.775 299.039 211.366 299.039 205.113V154.348H325.538V197.67ZM353.526 154.348H380.025V234.739H353.526V154.348Z" fill="white"/>
<path d="M275.586 187.546C275.685 184.271 275.09 181.492 273.799 179.21C272.608 176.828 270.872 174.991 268.589 173.701C266.306 172.411 263.676 171.766 260.699 171.766C257.225 171.766 254.247 172.709 251.766 174.594C249.384 176.381 247.499 178.912 246.109 182.187C244.819 185.363 244.174 189.085 244.174 193.352C244.174 198.017 244.968 202.037 246.556 205.411C248.144 208.786 250.377 211.416 253.255 213.301C256.232 215.088 259.657 215.981 263.527 215.981C270.673 215.981 276.975 213.252 282.434 207.793L296.279 221.489C292.21 225.956 287.198 229.429 281.243 231.91C275.387 234.392 268.688 235.632 261.145 235.632C252.411 235.632 244.819 233.945 238.368 230.571C232.016 227.196 227.103 222.432 223.63 216.279C220.255 210.125 218.568 202.98 218.568 194.841C218.568 186.504 220.305 179.259 223.778 173.106C227.252 166.853 232.165 162.04 238.517 158.665C244.869 155.191 252.213 153.455 260.55 153.455C269.978 153.455 277.769 155.44 283.923 159.409C290.175 163.28 294.741 168.838 297.619 176.083C300.596 183.328 301.787 191.814 301.192 201.54H240.452V187.546H275.586Z" fill="white"/>
<path d="M100.963 180.697H140.414V197.371H100.963V180.697Z" fill="white"/>
<path d="M564.537 99.1533C564.636 95.8781 564.041 93.0992 562.75 90.8165C561.559 88.4345 559.823 86.5984 557.54 85.3082C555.257 84.018 552.627 83.3729 549.65 83.3729C546.176 83.3729 543.199 84.3157 540.717 86.2014C538.335 87.9879 536.45 90.5187 535.06 93.7939C533.77 96.9699 533.125 100.692 533.125 104.959C533.125 109.624 533.919 113.644 535.507 117.018C537.095 120.392 539.328 123.023 542.206 124.908C545.184 126.695 548.608 127.588 552.478 127.588C559.624 127.588 565.926 124.859 571.385 119.4L585.23 133.096C581.161 137.562 576.149 141.036 570.194 143.517C564.338 145.999 557.639 147.239 550.096 147.239C541.362 147.239 533.77 145.552 527.319 142.178C520.967 138.803 516.054 134.039 512.581 127.886C509.206 121.732 507.519 114.586 507.519 106.448C507.519 98.1112 509.256 90.8661 512.729 84.7127C516.203 78.4601 521.116 73.6465 527.468 70.2721C533.82 66.7984 541.164 65.0615 549.501 65.0615C558.929 65.0615 566.72 67.0465 572.874 71.0164C579.126 74.8871 583.692 80.445 586.57 87.6902C589.547 94.9353 590.738 103.421 590.143 113.147H529.403V99.1533H564.537Z" fill="white"/>
<path d="M428.005 103.024C428.005 98.359 426.815 94.7364 424.433 92.156C422.051 89.4763 418.825 88.1364 414.756 88.1364C410.091 88.2357 406.369 90.0222 403.591 93.4958C400.812 96.8703 399.422 101.237 399.422 106.597H393.169C393.169 97.4658 394.46 89.8237 397.04 83.6702C399.72 77.4176 403.491 72.7033 408.354 69.5274C413.218 66.3514 418.974 64.7634 425.624 64.7634C431.479 64.7634 436.541 66.0537 440.808 68.6341C445.175 71.1153 448.55 74.6883 450.932 79.3529C453.314 83.9184 454.505 89.3274 454.505 95.5801V146.346H428.005V103.024ZM482.939 103.024C482.939 98.359 481.748 94.7364 479.366 92.156C476.984 89.4763 473.759 88.1364 469.69 88.1364C465.025 88.2357 461.303 90.0222 458.524 93.4958C455.845 96.8703 454.505 101.237 454.505 106.597H448.103C448.103 97.4658 449.393 89.8237 451.974 83.6702C454.654 77.4176 458.425 72.7033 463.288 69.5274C468.151 66.3514 473.908 64.7634 480.557 64.7634C486.413 64.7634 491.475 66.0537 495.742 68.6341C500.109 71.1153 503.484 74.6883 505.865 79.3529C508.247 83.9184 509.438 89.3274 509.438 95.5801V146.346H482.939V103.024ZM373.072 65.9544H399.422V146.346H373.072V65.9544Z" fill="white"/>
<path d="M291.66 103.024C291.66 98.359 290.469 94.7364 288.087 92.156C285.705 89.4763 282.479 88.1364 278.41 88.1364C273.745 88.2357 270.024 90.0222 267.245 93.4958C264.466 96.8703 263.076 101.237 263.076 106.597H256.824C256.824 97.4658 258.114 89.8237 260.694 83.6702C263.374 77.4176 267.145 72.7033 272.008 69.5274C276.872 66.3514 282.628 64.7634 289.278 64.7634C295.133 64.7634 300.195 66.0537 304.463 68.6341C308.829 71.1153 312.204 74.6883 314.586 79.3529C316.968 83.9184 318.159 89.3274 318.159 95.5801V146.346H291.66V103.024ZM346.593 103.024C346.593 98.359 345.402 94.7364 343.02 92.156C340.638 89.4763 337.413 88.1364 333.344 88.1364C328.679 88.2357 324.957 90.0222 322.178 93.4958C319.499 96.8703 318.159 101.237 318.159 106.597H311.757C311.757 97.4658 313.048 89.8237 315.628 83.6702C318.308 77.4176 322.079 72.7033 326.942 69.5274C331.805 66.3514 337.562 64.7634 344.211 64.7634C350.067 64.7634 355.129 66.0537 359.396 68.6341C363.763 71.1153 367.138 74.6883 369.52 79.3529C371.902 83.9184 373.092 89.3274 373.092 95.5801V146.346H346.593V103.024ZM236.726 65.9544H263.076V146.346H236.726V65.9544Z" fill="white"/>
<path d="M194.882 65.0615C203.715 65.0615 211.407 66.7487 217.957 70.1232C224.607 73.4976 229.768 78.2616 233.44 84.415C237.112 90.5684 238.948 97.7639 238.948 106.001C238.948 114.239 237.112 121.484 233.44 127.737C229.768 133.89 224.607 138.704 217.957 142.178C211.407 145.552 203.715 147.239 194.882 147.239C186.049 147.239 178.308 145.552 171.658 142.178C165.108 138.704 159.997 133.89 156.324 127.737C152.751 121.484 150.965 114.239 150.965 106.001C150.965 97.7639 152.751 90.5684 156.324 84.415C159.997 78.2616 165.108 73.4976 171.658 70.1232C178.308 66.7487 186.049 65.0615 194.882 65.0615ZM194.882 86.0526C191.408 86.0526 188.381 86.8962 185.801 88.5834C183.221 90.2706 181.186 92.6526 179.697 95.7293C178.308 98.806 177.613 102.379 177.613 106.448C177.613 110.517 178.308 114.09 179.697 117.167C181.186 120.144 183.221 122.477 185.801 124.164C188.381 125.851 191.408 126.695 194.882 126.695C198.356 126.695 201.383 125.851 203.963 124.164C206.643 122.477 208.678 120.144 210.067 117.167C211.556 114.09 212.3 110.517 212.3 106.448C212.3 102.379 211.556 98.806 210.067 95.7293C208.678 92.6526 206.643 90.2706 203.963 88.5834C201.383 86.8962 198.356 86.0526 194.882 86.0526Z" fill="white"/>
<path d="M144.249 73.1004C140.577 70.8177 136.657 68.8824 132.488 67.2944C128.419 65.6072 124.449 64.317 120.579 63.4237C116.807 62.4312 113.482 61.935 110.604 61.935C107.329 61.935 104.699 62.5801 102.714 63.8703C100.729 65.0613 99.7366 66.947 99.7366 69.5275C99.7366 72.108 100.679 74.2418 102.565 75.929C104.55 77.517 107.18 78.8569 110.455 79.9486C113.731 81.0403 117.353 82.132 121.323 83.2238C125.293 84.3155 129.213 85.6057 133.084 87.0945C136.955 88.5832 140.527 90.5185 143.803 92.9005C147.078 95.1832 149.708 98.1607 151.693 101.833C153.678 105.505 154.67 110.07 154.67 115.529C154.67 122.576 152.785 128.531 149.013 133.394C145.242 138.158 140.18 141.78 133.828 144.262C127.476 146.644 120.43 147.834 112.688 147.834C106.833 147.834 100.977 147.189 95.1215 145.899C89.3651 144.51 83.8569 142.574 78.5967 140.093C73.4359 137.513 68.7712 134.486 64.6028 131.012L75.1727 110.021C78.7456 113.197 82.7652 115.976 87.2313 118.358C91.6975 120.74 96.2133 122.625 100.779 124.015C105.344 125.305 109.413 125.95 112.986 125.95C117.055 125.95 120.231 125.206 122.514 123.717C124.896 122.129 126.087 119.846 126.087 116.869C126.087 114.289 125.094 112.204 123.109 110.616C121.124 108.929 118.494 107.54 115.219 106.448C111.944 105.356 108.321 104.314 104.352 103.322C100.481 102.23 96.5606 100.989 92.5907 99.5998C88.72 98.111 85.1471 96.2749 81.8719 94.0915C78.5967 91.8088 75.9667 88.8809 73.9817 85.308C72.096 81.7351 71.1531 77.2689 71.1531 71.9095C71.1531 65.4583 72.8404 59.8508 76.2148 55.0869C79.6885 50.2237 84.5516 46.5019 90.8042 43.9214C97.1561 41.2417 104.5 39.9019 112.837 39.9019C120.479 39.9019 127.973 40.9936 135.317 43.1771C142.661 45.3605 149.063 48.1891 154.521 51.6628L144.249 73.1004Z" fill="white"/>
<path d="M511.024 91.6891C535.04 78.0729 560.322 76.8506 585.539 88.0867C603.481 96.0812 620.331 95.2666 637.418 85.5787L649.779 106.598C625.763 120.214 600.481 121.436 575.264 110.2C557.322 102.205 540.472 103.02 523.385 112.708C499.369 126.324 474.088 127.547 448.87 116.31C430.928 108.316 414.079 109.13 396.992 118.818C372.976 132.435 347.694 133.657 322.477 122.421C304.535 114.426 287.685 115.241 270.598 124.929C246.582 138.545 221.301 139.767 196.083 128.531C178.141 120.537 161.292 121.351 144.205 131.039C120.189 144.656 94.9072 145.878 69.6899 134.642C51.7479 126.647 34.8984 127.462 17.8113 137.15L5.45055 116.131C29.4663 102.515 54.7481 101.292 79.9654 112.529C97.9074 120.523 114.757 119.708 131.844 110.02C155.86 96.4042 181.142 95.182 206.359 106.418C224.301 114.413 241.15 113.598 258.237 103.91C282.253 90.2938 307.535 89.0715 332.752 100.308C350.694 108.302 367.544 107.488 384.631 97.7996C408.647 84.1833 433.929 82.9611 459.146 94.1972C477.088 102.192 493.937 101.377 511.024 91.6891Z" fill="#B7097C"/>
<path d="M428.005 103.024C428.005 98.359 426.814 94.7364 424.432 92.156C422.051 89.4763 418.825 88.1364 414.756 88.1364C410.091 88.2357 406.369 90.0222 403.59 93.4958C400.811 96.8703 399.422 101.237 399.422 106.597H393.169C393.169 97.4658 394.46 89.8237 397.04 83.6702C399.72 77.4176 403.491 72.7033 408.354 69.5274C413.217 66.3514 418.974 64.7634 425.623 64.7634C431.479 64.7634 436.541 66.0537 440.808 68.6341C445.175 71.1153 448.55 74.6883 450.932 79.3529C453.314 83.9184 454.505 89.3274 454.505 95.5801V146.346H428.005V103.024ZM482.939 103.024C482.939 98.359 481.748 94.7364 479.366 92.156C476.984 89.4763 473.759 88.1364 469.689 88.1364C465.025 88.2357 461.303 90.0222 458.524 93.4958C455.844 96.8703 454.505 101.237 454.505 106.597H448.103C448.103 97.4658 449.393 89.8237 451.974 83.6702C454.653 77.4176 458.425 72.7033 463.288 69.5274C468.151 66.3514 473.908 64.7634 480.557 64.7634C486.413 64.7634 491.474 66.0537 495.742 68.6341C500.109 71.1153 503.483 74.6883 505.865 79.3529C508.247 83.9184 509.438 89.3274 509.438 95.5801V146.346H482.939V103.024ZM373.072 65.9544H399.422V146.346H373.072V65.9544Z" fill="white"/>
<path d="M194.882 65.0615C203.715 65.0615 211.407 66.7487 217.957 70.1232C224.607 73.4976 229.768 78.2616 233.44 84.415C237.112 90.5684 238.948 97.7639 238.948 106.001C238.948 114.239 237.112 121.484 233.44 127.737C229.768 133.89 224.607 138.704 217.957 142.178C211.407 145.552 203.715 147.239 194.882 147.239C186.049 147.239 178.308 145.552 171.658 142.178C165.108 138.704 159.997 133.89 156.324 127.737C152.751 121.484 150.965 114.239 150.965 106.001C150.965 97.7639 152.751 90.5684 156.324 84.415C159.997 78.2616 165.108 73.4976 171.658 70.1232C178.308 66.7487 186.049 65.0615 194.882 65.0615ZM194.882 86.0526C191.408 86.0526 188.381 86.8962 185.801 88.5834C183.221 90.2706 181.186 92.6526 179.697 95.7293C178.308 98.806 177.613 102.379 177.613 106.448C177.613 110.517 178.308 114.09 179.697 117.167C181.186 120.144 183.221 122.477 185.801 124.164C188.381 125.851 191.408 126.695 194.882 126.695C198.356 126.695 201.383 125.851 203.963 124.164C206.643 122.477 208.678 120.144 210.067 117.167C211.556 114.09 212.3 110.517 212.3 106.448C212.3 102.379 211.556 98.806 210.067 95.7293C208.678 92.6526 206.643 90.2706 203.963 88.5834C201.383 86.8962 198.356 86.0526 194.882 86.0526Z" fill="white"/>
<path d="M154.631 142.695C161.65 149.633 171.191 154.296 181.874 155.391V211.813H226.089V234.74H154.631V142.695Z" fill="white"/>
</svg>
