<svg width="325" height="118" viewBox="0 0 325 118" fill="none" xmlns="http://www.w3.org/2000/svg">
<path d="M272.268 105.236C274.154 105.236 275.692 105.832 276.883 107.023C278.074 108.164 278.669 109.678 278.669 111.563C278.669 113.449 278.074 114.988 276.883 116.178C275.692 117.369 274.154 117.965 272.268 117.965C270.432 117.965 268.918 117.369 267.727 116.178C266.536 114.988 265.941 113.449 265.941 111.563C265.941 109.678 266.536 108.164 267.727 107.023C268.918 105.832 270.432 105.236 272.268 105.236Z" fill="black"/>
<path d="M250.679 93.7733C250.728 92.1357 250.43 90.7462 249.785 89.6048C249.19 88.4138 248.321 87.4958 247.18 86.8507C246.039 86.2055 244.724 85.883 243.235 85.883C241.498 85.883 240.009 86.3544 238.769 87.2973C237.578 88.1905 236.635 89.4559 235.94 91.0935C235.295 92.6815 234.973 94.5424 234.973 96.6763C234.973 99.0086 235.37 101.018 236.164 102.706C236.958 104.393 238.074 105.708 239.513 106.651C241.002 107.544 242.714 107.991 244.649 107.991C248.222 107.991 251.373 106.626 254.103 103.897L261.025 110.745C258.991 112.978 256.485 114.715 253.507 115.955C250.579 117.196 247.23 117.816 243.458 117.816C239.091 117.816 235.295 116.973 232.07 115.285C228.894 113.598 226.437 111.216 224.7 108.14C223.013 105.063 222.17 101.49 222.17 97.4206C222.17 93.2522 223.038 89.6296 224.775 86.5529C226.512 83.4266 228.968 81.0198 232.144 79.3326C235.32 77.5957 238.992 76.7273 243.161 76.7273C247.875 76.7273 251.77 77.7198 254.847 79.7048C257.973 81.6401 260.256 84.4191 261.695 88.0416C263.184 91.6642 263.779 95.9071 263.482 100.77H233.112V93.7733H250.679Z" fill="black"/>
<path d="M189.14 77.1741H224.422V85.1388L205.069 107.395H225.167V117.37H188.47V109.405L207.823 87.1486H189.14V77.1741Z" fill="black"/>
<path d="M162.655 98.8351C162.655 101.118 163.225 102.929 164.367 104.269C165.558 105.609 167.146 106.279 169.131 106.279C171.513 106.229 173.349 105.336 174.639 103.599C175.979 101.862 176.649 99.6787 176.649 97.0486H179.775C179.775 101.564 179.13 105.386 177.84 108.512C176.549 111.589 174.713 113.921 172.331 115.509C169.949 117.097 167.096 117.891 163.771 117.891C160.893 117.891 158.362 117.271 156.179 116.03C154.045 114.74 152.382 112.953 151.191 110.671C150.001 108.388 149.405 105.683 149.405 102.557V77.1741H162.655V98.8351ZM176.649 77.1741H189.898V117.37H176.649V77.1741Z" fill="black"/>
<path d="M137.679 93.7733C137.728 92.1357 137.43 90.7462 136.785 89.6048C136.19 88.4138 135.321 87.4958 134.18 86.8507C133.039 86.2055 131.724 85.883 130.235 85.883C128.498 85.883 127.009 86.3544 125.769 87.2973C124.578 88.1905 123.635 89.4559 122.94 91.0935C122.295 92.6815 121.973 94.5424 121.973 96.6763C121.973 99.0086 122.37 101.018 123.164 102.706C123.957 104.393 125.074 105.708 126.513 106.651C128.002 107.544 129.714 107.991 131.649 107.991C135.222 107.991 138.373 106.626 141.103 103.897L148.025 110.745C145.991 112.978 143.485 114.715 140.507 115.955C137.579 117.196 134.23 117.816 130.458 117.816C126.091 117.816 122.295 116.973 119.07 115.285C115.894 113.598 113.437 111.216 111.7 108.14C110.013 105.063 109.17 101.49 109.17 97.4206C109.17 93.2522 110.038 89.6296 111.775 86.5529C113.512 83.4266 115.968 81.0198 119.144 79.3326C122.32 77.5957 125.992 76.7273 130.16 76.7273C134.875 76.7273 138.77 77.7198 141.847 79.7048C144.973 81.6401 147.256 84.4191 148.695 88.0416C150.184 91.6642 150.779 95.9071 150.482 100.77H120.112V93.7733H137.679Z" fill="black"/>
<path d="M50.3668 90.3486H70.0924V98.6855H50.3668V90.3486Z" fill="black"/>
<path d="M282.154 49.5767C282.204 47.9391 281.906 46.5496 281.261 45.4083C280.666 44.2173 279.797 43.2992 278.656 42.6541C277.514 42.009 276.199 41.6865 274.711 41.6865C272.974 41.6865 271.485 42.1579 270.244 43.1007C269.054 43.994 268.111 45.2594 267.416 46.897C266.771 48.485 266.448 50.3459 266.448 52.4798C266.448 54.8121 266.845 56.8219 267.639 58.5091C268.433 60.1963 269.55 61.5114 270.989 62.4542C272.478 63.3475 274.19 63.7941 276.125 63.7941C279.698 63.7941 282.849 62.4294 285.578 59.7001L292.501 66.5483C290.466 68.7814 287.96 70.5182 284.983 71.7588C282.055 72.9994 278.705 73.6197 274.934 73.6197C270.567 73.6197 266.771 72.7761 263.545 71.0889C260.369 69.4017 257.913 67.0197 256.176 63.943C254.489 60.8663 253.645 57.2933 253.645 53.2241C253.645 49.0557 254.514 45.4331 256.251 42.3564C257.987 39.23 260.444 36.8233 263.62 35.136C266.796 33.3992 270.468 32.5308 274.636 32.5308C279.35 32.5308 283.246 33.5232 286.323 35.5082C289.449 37.4436 291.732 40.2225 293.171 43.8451C294.659 47.4677 295.255 51.7106 294.957 56.5738H264.587V49.5767H282.154Z" fill="black"/>
<path d="M213.888 51.512C213.888 49.1797 213.293 47.3684 212.102 46.0782C210.911 44.7383 209.298 44.0684 207.263 44.0684C204.931 44.118 203.07 45.0112 201.681 46.7481C200.291 48.4353 199.597 50.6188 199.597 53.2985H196.47C196.47 48.7331 197.115 44.912 198.406 41.8353C199.745 38.7089 201.631 36.3518 204.063 34.7638C206.494 33.1758 209.372 32.3818 212.697 32.3818C215.625 32.3818 218.156 33.027 220.29 34.3172C222.473 35.5578 224.16 37.3443 225.351 39.6766C226.542 41.9593 227.138 44.6639 227.138 47.7902V73.1731H213.888V51.512ZM241.355 51.512C241.355 49.1797 240.76 47.3684 239.569 46.0782C238.378 44.7383 236.765 44.0684 234.73 44.0684C232.398 44.118 230.537 45.0112 229.148 46.7481C227.808 48.4353 227.138 50.6188 227.138 53.2985H223.937C223.937 48.7331 224.582 44.912 225.872 41.8353C227.212 38.7089 229.098 36.3518 231.53 34.7638C233.961 33.1758 236.839 32.3818 240.164 32.3818C243.092 32.3818 245.623 33.027 247.757 34.3172C249.94 35.5578 251.627 37.3443 252.818 39.6766C254.009 41.9593 254.605 44.6639 254.605 47.7902V73.1731H241.355V51.512ZM186.421 32.9773H199.597V73.1731H186.421V32.9773Z" fill="black"/>
<path d="M145.715 51.512C145.715 49.1797 145.12 47.3684 143.929 46.0782C142.738 44.7383 141.125 44.0684 139.09 44.0684C136.758 44.118 134.897 45.0112 133.508 46.7481C132.118 48.4353 131.424 50.6188 131.424 53.2985H128.297C128.297 48.7331 128.942 44.912 130.233 41.8353C131.572 38.7089 133.458 36.3518 135.89 34.7638C138.321 33.1758 141.2 32.3818 144.524 32.3818C147.452 32.3818 149.983 33.027 152.117 34.3172C154.3 35.5578 155.987 37.3443 157.178 39.6766C158.369 41.9593 158.965 44.6639 158.965 47.7902V73.1731H145.715V51.512ZM173.182 51.512C173.182 49.1797 172.587 47.3684 171.396 46.0782C170.205 44.7383 168.592 44.0684 166.557 44.0684C164.225 44.118 162.364 45.0112 160.975 46.7481C159.635 48.4353 158.965 50.6188 158.965 53.2985H155.764C155.764 48.7331 156.409 44.912 157.699 41.8353C159.039 38.7089 160.925 36.3518 163.357 34.7638C165.788 33.1758 168.666 32.3818 171.991 32.3818C174.919 32.3818 177.45 33.027 179.584 34.3172C181.767 35.5578 183.454 37.3443 184.645 39.6766C185.836 41.9593 186.432 44.6639 186.432 47.7902V73.1731H173.182V51.512ZM118.248 32.9773H131.424V73.1731H118.248V32.9773Z" fill="black"/>
<path d="M97.3267 32.5308C101.743 32.5308 105.589 33.3744 108.864 35.0616C112.189 36.7488 114.769 39.1308 116.606 42.2075C118.442 45.2842 119.36 48.882 119.36 53.0008C119.36 57.1196 118.442 60.7422 116.606 63.8685C114.769 66.9453 112.189 69.352 108.864 71.0889C105.589 72.7761 101.743 73.6197 97.3267 73.6197C92.9101 73.6197 89.0394 72.7761 85.7146 71.0889C82.4395 69.352 79.8838 66.9453 78.0477 63.8685C76.2613 60.7422 75.368 57.1196 75.368 53.0008C75.368 48.882 76.2613 45.2842 78.0477 42.2075C79.8838 39.1308 82.4395 36.7488 85.7146 35.0616C89.0394 33.3744 92.9101 32.5308 97.3267 32.5308ZM97.3267 43.0263C95.5898 43.0263 94.0763 43.4481 92.7861 44.2917C91.4958 45.1353 90.4785 46.3263 89.7342 47.8647C89.0394 49.403 88.6921 51.1895 88.6921 53.2241C88.6921 55.2587 89.0394 57.0452 89.7342 58.5835C90.4785 60.0723 91.4958 61.2385 92.7861 62.0821C94.0763 62.9257 95.5898 63.3475 97.3267 63.3475C99.0635 63.3475 100.577 62.9257 101.867 62.0821C103.207 61.2385 104.224 60.0723 104.919 58.5835C105.663 57.0452 106.036 55.2587 106.036 53.2241C106.036 51.1895 105.663 49.403 104.919 47.8647C104.224 46.3263 103.207 45.1353 101.867 44.2917C100.577 43.4481 99.0635 43.0263 97.3267 43.0263Z" fill="black"/>
<path d="M72.0103 36.5503C70.1742 35.4089 68.214 34.4412 66.1298 33.6473C64.0952 32.8036 62.1103 32.1585 60.1749 31.7119C58.2892 31.2157 56.6268 30.9675 55.1877 30.9675C53.5501 30.9675 52.2351 31.2901 51.2426 31.9352C50.2501 32.5307 49.7539 33.4736 49.7539 34.7638C49.7539 36.054 50.2253 37.121 51.1682 37.9646C52.1607 38.7586 53.4757 39.4285 55.1133 39.9744C56.7509 40.5202 58.5622 41.0661 60.5471 41.612C62.5321 42.1578 64.4922 42.8029 66.4276 43.5473C68.3629 44.2917 70.1494 45.2593 71.787 46.4503C73.4246 47.5917 74.7396 49.0804 75.7321 50.9165C76.7245 52.7526 77.2208 55.0353 77.2208 57.7647C77.2208 61.288 76.2779 64.2655 74.3922 66.6971C72.5065 69.079 69.9757 70.8903 66.7997 72.1309C63.6238 73.3219 60.1005 73.9174 56.2298 73.9174C53.302 73.9174 50.3742 73.5949 47.4464 72.9497C44.5682 72.255 41.8141 71.2873 39.184 70.0467C36.6035 68.7565 34.2712 67.2429 32.187 65.5061L37.472 55.0105C39.2584 56.5985 41.2682 57.988 43.5013 59.179C45.7344 60.37 47.9923 61.3128 50.275 62.0076C52.5577 62.6527 54.5922 62.9752 56.3787 62.9752C58.4133 62.9752 60.0013 62.6031 61.1426 61.8587C62.3336 61.0647 62.9291 59.9233 62.9291 58.4346C62.9291 57.1444 62.4328 56.1023 61.4404 55.3083C60.4479 54.4647 59.1328 53.7699 57.4952 53.2241C55.8577 52.6782 54.0464 52.1571 52.0614 51.6609C50.1261 51.115 48.1659 50.4947 46.181 49.8C44.2456 49.0556 42.4592 48.1376 40.8216 47.0458C39.184 45.9045 37.869 44.4405 36.8765 42.6541C35.9336 40.8676 35.4622 38.6345 35.4622 35.9548C35.4622 32.7292 36.3058 29.9254 37.993 27.5435C39.7299 25.1119 42.1614 23.2509 45.2877 21.9607C48.4637 20.6209 52.1359 19.9509 56.3043 19.9509C60.1253 19.9509 63.8719 20.4968 67.5441 21.5885C71.2163 22.6803 74.417 24.0946 77.1463 25.8314L72.0103 36.5503Z" fill="black"/>
<path d="M227.522 24.0609V25.4875H221.779V24.0609H227.522ZM222.079 12.2576V25.4875H220.407V12.2576H222.079ZM226.749 17.9457V19.3723H221.779V17.9457H226.749ZM227.431 12.2576V13.6932H221.779V12.2576H227.431Z" fill="black"/>
<path d="M209.983 25.4875H207.729L207.748 24.0609H209.983C210.776 24.0609 211.421 23.9095 211.918 23.6066C212.415 23.2977 212.781 22.8433 213.018 22.2436C213.254 21.6379 213.372 20.8897 213.372 19.9993V17.7367C213.372 17.034 213.305 16.4283 213.172 15.9194C213.039 15.4106 212.839 14.9926 212.572 14.6655C212.306 14.3384 211.97 14.0961 211.564 13.9386C211.158 13.775 210.682 13.6932 210.137 13.6932H207.684V12.2576H210.137C210.882 12.2576 211.555 12.3757 212.154 12.6119C212.754 12.8421 213.269 13.1904 213.699 13.6569C214.129 14.1173 214.456 14.6897 214.68 15.3742C214.911 16.0588 215.026 16.8523 215.026 17.7549V19.9993C215.026 20.9018 214.911 21.6954 214.68 22.3799C214.456 23.0644 214.126 23.6369 213.69 24.0973C213.254 24.5576 212.724 24.906 212.1 25.1422C211.482 25.3724 210.776 25.4875 209.983 25.4875ZM208.656 12.2576V25.4875H206.984V12.2576H208.656Z" fill="black"/>
<path d="M194.995 24.0609V25.4875H189.253V24.0609H194.995ZM189.552 12.2576V25.4875H187.88V12.2576H189.552ZM194.223 17.9457V19.3723H189.253V17.9457H194.223ZM194.904 12.2576V13.6932H189.253V12.2576H194.904Z" fill="black"/>
<path d="M182.2 12.2576V25.4875H180.519L175.222 15.2834V25.4875H173.55V12.2576H175.222L180.546 22.489V12.2576H182.2Z" fill="black"/>
<path d="M166.533 12.2576H168.205V21.5712C168.205 22.5647 168.014 23.3613 167.633 23.961C167.251 24.5607 166.748 24.9968 166.124 25.2694C165.506 25.536 164.84 25.6692 164.125 25.6692C163.362 25.6692 162.675 25.536 162.063 25.2694C161.451 24.9968 160.963 24.5607 160.6 23.961C160.242 23.3613 160.064 22.5647 160.064 21.5712V12.2576H161.727V21.5712C161.727 22.2618 161.823 22.8009 162.017 23.1886C162.217 23.5763 162.496 23.8489 162.853 24.0064C163.217 24.1639 163.641 24.2426 164.125 24.2426C164.616 24.2426 165.04 24.1639 165.397 24.0064C165.761 23.8489 166.04 23.5763 166.233 23.1886C166.433 22.8009 166.533 22.2618 166.533 21.5712V12.2576Z" fill="black"/>
<path d="M143.979 12.2576H145.596L149.058 23.0432L152.511 12.2576H154.128L149.685 25.4875H148.413L143.979 12.2576ZM143.452 12.2576H144.869L145.115 20.3264V25.4875H143.452V12.2576ZM153.229 12.2576H154.646V25.4875H152.984V20.3264L153.229 12.2576Z" fill="black"/>
<path d="M127.122 12.2576H128.739L132.201 23.0432L135.654 12.2576H137.271L132.828 25.4875H131.556L127.122 12.2576ZM126.595 12.2576H128.012L128.258 20.3264V25.4875H126.595V12.2576ZM136.372 12.2576H137.789V25.4875H136.126V20.3264L136.372 12.2576Z" fill="black"/>
<path d="M121.214 17.7275V20.0264C121.214 20.9592 121.111 21.7801 120.905 22.4888C120.705 23.1915 120.411 23.7791 120.024 24.2516C119.636 24.7241 119.17 25.0785 118.624 25.3147C118.079 25.5509 117.464 25.6691 116.78 25.6691C116.12 25.6691 115.517 25.5509 114.972 25.3147C114.426 25.0785 113.957 24.7241 113.563 24.2516C113.17 23.7791 112.864 23.1915 112.646 22.4888C112.434 21.7801 112.328 20.9592 112.328 20.0264V17.7275C112.328 16.7946 112.434 15.9768 112.646 15.2741C112.858 14.5654 113.16 13.9748 113.554 13.5023C113.948 13.0298 114.417 12.6754 114.963 12.4391C115.508 12.1968 116.11 12.0757 116.771 12.0757C117.455 12.0757 118.07 12.1968 118.615 12.4391C119.167 12.6754 119.633 13.0298 120.015 13.5023C120.402 13.9748 120.699 14.5654 120.905 15.2741C121.111 15.9768 121.214 16.7946 121.214 17.7275ZM119.56 20.0264V17.7093C119.56 16.9824 119.5 16.3584 119.379 15.8375C119.257 15.3105 119.079 14.8804 118.842 14.5472C118.606 14.214 118.315 13.9687 117.97 13.8112C117.625 13.6476 117.225 13.5659 116.771 13.5659C116.341 13.5659 115.953 13.6476 115.608 13.8112C115.268 13.9687 114.978 14.214 114.735 14.5472C114.493 14.8804 114.305 15.3105 114.172 15.8375C114.045 16.3584 113.981 16.9824 113.981 17.7093V20.0264C113.981 20.7593 114.045 21.3893 114.172 21.9164C114.305 22.4373 114.493 22.8674 114.735 23.2066C114.984 23.5398 115.281 23.7882 115.626 23.9517C115.971 24.1092 116.356 24.188 116.78 24.188C117.234 24.188 117.634 24.1092 117.979 23.9517C118.331 23.7882 118.621 23.5398 118.852 23.2066C119.088 22.8674 119.263 22.4373 119.379 21.9164C119.5 21.3893 119.56 20.7593 119.56 20.0264Z" fill="black"/>
<path d="M105.883 21.2803H107.555C107.513 22.1889 107.328 22.9734 107.001 23.6337C106.68 24.2879 106.21 24.7907 105.593 25.1421C104.981 25.4934 104.214 25.6691 103.294 25.6691C102.633 25.6691 102.037 25.5388 101.504 25.2784C100.971 25.0179 100.513 24.6453 100.132 24.1607C99.756 23.67 99.4683 23.0825 99.2684 22.3979C99.0685 21.7134 98.9685 20.9441 98.9685 20.09V17.6457C98.9685 16.7976 99.0685 16.0313 99.2684 15.3468C99.4743 14.6623 99.7681 14.0777 100.15 13.5931C100.537 13.1025 101.007 12.7269 101.558 12.4664C102.115 12.2059 102.745 12.0757 103.448 12.0757C104.308 12.0757 105.035 12.2483 105.629 12.5936C106.229 12.9328 106.689 13.4326 107.01 14.0929C107.337 14.7471 107.519 15.5498 107.555 16.5008H105.883C105.841 15.8042 105.732 15.2378 105.556 14.8016C105.38 14.3594 105.12 14.0353 104.775 13.8294C104.436 13.6174 103.993 13.5113 103.448 13.5113C102.964 13.5113 102.542 13.6083 102.185 13.8021C101.834 13.996 101.543 14.2746 101.313 14.6381C101.089 14.9955 100.919 15.4286 100.804 15.9374C100.695 16.4402 100.64 17.0036 100.64 17.6275V20.09C100.64 20.6715 100.686 21.2137 100.777 21.7165C100.874 22.2192 101.025 22.6614 101.231 23.0431C101.443 23.4187 101.719 23.7124 102.058 23.9245C102.397 24.1365 102.809 24.2425 103.294 24.2425C103.905 24.2425 104.39 24.1425 104.747 23.9426C105.105 23.7427 105.368 23.4247 105.538 22.9886C105.714 22.5524 105.829 21.983 105.883 21.2803Z" fill="black"/>
<path d="M255.398 45.8451C267.405 39.037 280.046 38.4259 292.655 44.0439C301.626 48.0412 310.051 47.6339 318.594 42.7899L324.775 53.2994C312.767 60.1076 300.126 60.7187 287.517 55.1006C278.546 51.1033 270.121 51.5106 261.578 56.3546C249.57 63.1628 236.929 63.7739 224.321 58.1558C215.35 54.1586 206.925 54.5659 198.381 59.4098C186.373 66.218 173.732 66.8291 161.124 61.211C152.153 57.2138 143.728 57.6211 135.184 62.4651C123.176 69.2733 110.536 69.8844 97.927 64.2663C88.956 60.269 80.5312 60.6763 71.9876 65.5203C59.9797 72.3285 47.3389 72.9396 34.7302 67.3215C25.7592 63.3243 17.3344 63.7316 8.79088 68.5755L2.61053 58.0661C14.6184 51.2579 27.2593 50.6468 39.868 56.2649C48.839 60.2621 57.2637 59.8549 65.8073 55.0109C77.8152 48.2027 90.4561 47.5916 103.065 53.2096C112.036 57.2069 120.46 56.7996 129.004 51.9556C141.012 45.1475 153.653 44.5363 166.261 50.1544C175.233 54.1517 183.657 53.7444 192.201 48.9004C204.209 42.0922 216.85 41.4811 229.458 47.0992C238.429 51.0964 246.854 50.6891 255.398 45.8451Z" fill="#B7097C"/>
<path d="M213.888 51.512C213.888 49.1797 213.293 47.3684 212.102 46.0782C210.911 44.7383 209.298 44.0684 207.263 44.0684C204.931 44.118 203.07 45.0112 201.681 46.7481C200.291 48.4353 199.596 50.6188 199.596 53.2985H196.47C196.47 48.7331 197.115 44.912 198.405 41.8353C199.745 38.7089 201.631 36.3518 204.063 34.7638C206.494 33.1758 209.372 32.3818 212.697 32.3818C215.625 32.3818 218.156 33.027 220.29 34.3172C222.473 35.5578 224.16 37.3443 225.351 39.6766C226.542 41.9593 227.138 44.6639 227.138 47.7902V73.1731H213.888V51.512ZM241.355 51.512C241.355 49.1797 240.76 47.3684 239.569 46.0782C238.378 44.7383 236.765 44.0684 234.73 44.0684C232.398 44.118 230.537 45.0112 229.148 46.7481C227.808 48.4353 227.138 50.6188 227.138 53.2985H223.937C223.937 48.7331 224.582 44.912 225.872 41.8353C227.212 38.7089 229.098 36.3518 231.529 34.7638C233.961 33.1758 236.839 32.3818 240.164 32.3818C243.092 32.3818 245.623 33.027 247.756 34.3172C249.94 35.5578 251.627 37.3443 252.818 39.6766C254.009 41.9593 254.605 44.6639 254.605 47.7902V73.1731H241.355V51.512ZM186.421 32.9773H199.596V73.1731H186.421V32.9773Z" fill="black"/>
<path d="M97.3264 32.5308C101.743 32.5308 105.589 33.3744 108.864 35.0616C112.189 36.7488 114.769 39.1308 116.605 42.2075C118.441 45.2842 119.359 48.882 119.359 53.0008C119.359 57.1196 118.441 60.7422 116.605 63.8685C114.769 66.9453 112.189 69.352 108.864 71.0889C105.589 72.7761 101.743 73.6197 97.3264 73.6197C92.9099 73.6197 89.0392 72.7761 85.7144 71.0889C82.4392 69.352 79.8836 66.9453 78.0475 63.8685C76.261 60.7422 75.3678 57.1196 75.3678 53.0008C75.3678 48.882 76.261 45.2842 78.0475 42.2075C79.8836 39.1308 82.4392 36.7488 85.7144 35.0616C89.0392 33.3744 92.9099 32.5308 97.3264 32.5308ZM97.3264 43.0263C95.5896 43.0263 94.076 43.4481 92.7858 44.2917C91.4956 45.1353 90.4783 46.3263 89.7339 47.8647C89.0392 49.403 88.6918 51.1895 88.6918 53.2241C88.6918 55.2587 89.0392 57.0452 89.7339 58.5835C90.4783 60.0723 91.4956 61.2385 92.7858 62.0821C94.076 62.9257 95.5896 63.3475 97.3264 63.3475C99.0632 63.3475 100.577 62.9257 101.867 62.0821C103.207 61.2385 104.224 60.0723 104.919 58.5835C105.663 57.0452 106.035 55.2587 106.035 53.2241C106.035 51.1895 105.663 49.403 104.919 47.8647C104.224 46.3263 103.207 45.1353 101.867 44.2917C100.577 43.4481 99.0632 43.0263 97.3264 43.0263Z" fill="black"/>
<path d="M77.2009 71.3474C80.7105 74.8168 85.4811 77.1476 90.823 77.6951V105.907H112.93V117.37H77.2009V71.3474Z" fill="black"/>
</svg>
