<svg width="331" height="544" viewBox="0 0 331 544" fill="none" xmlns="http://www.w3.org/2000/svg">
<path d="M184.137 50.832V74.5625H118.482V50.832H184.137ZM128.766 0.03125V128H97.916V0.03125H128.766ZM204.879 0.03125V128H174.117V0.03125H204.879ZM280.289 26.9258L249.088 128H215.953L262.975 0.03125H283.98L280.289 26.9258ZM306.129 128L274.84 26.9258L270.797 0.03125H292.066L339.352 128H306.129ZM304.898 80.2754V104.094H239.244V80.2754H304.898ZM177.457 235.854L204.088 138.031H238.629L195.475 266H173.15L177.457 235.854ZM153.287 138.031L179.918 235.854L184.4 266H161.812L118.922 138.031H153.287ZM336.1 242.27V266H267.896V242.27H336.1ZM278.883 138.031V266H248.033V138.031H278.883ZM327.311 188.832V211.771H267.896V188.832H327.311ZM336.363 138.031V161.85H267.896V138.031H336.363ZM84.9082 380.27V404H20.2207V380.27H84.9082ZM31.207 276.031V404H0.357422V276.031H31.207ZM153.902 302.926L122.701 404H89.5664L136.588 276.031H157.594L153.902 302.926ZM179.742 404L148.453 302.926L144.41 276.031H165.68L212.965 404H179.742ZM178.512 356.275V380.094H112.857V356.275H178.512ZM329.244 276.031V404H298.482L253.219 324.371V404H222.369V276.031H253.219L298.482 355.66V276.031H329.244ZM230.016 473.621V526.18C227.848 528.582 224.508 531.16 219.996 533.914C215.543 536.609 209.918 538.924 203.121 540.857C196.324 542.791 188.326 543.758 179.127 543.758C170.631 543.758 162.926 542.41 156.012 539.715C149.098 536.961 143.15 532.947 138.17 527.674C133.248 522.342 129.439 515.838 126.744 508.162C124.107 500.428 122.789 491.58 122.789 481.619V474.5C122.789 464.539 124.137 455.691 126.832 447.957C129.527 440.223 133.307 433.719 138.17 428.445C143.092 423.113 148.863 419.07 155.484 416.316C162.164 413.562 169.488 412.186 177.457 412.186C189.234 412.186 198.814 414.061 206.197 417.811C213.58 421.502 219.176 426.629 222.984 433.191C226.793 439.695 229.107 447.225 229.928 455.779H200.309C199.723 451.561 198.609 447.986 196.969 445.057C195.387 442.068 193.102 439.812 190.113 438.289C187.125 436.707 183.258 435.916 178.512 435.916C174.82 435.916 171.451 436.707 168.404 438.289C165.416 439.871 162.867 442.273 160.758 445.496C158.648 448.66 157.008 452.645 155.836 457.449C154.723 462.254 154.166 467.879 154.166 474.324V481.619C154.166 488.006 154.693 493.602 155.748 498.406C156.861 503.211 158.502 507.225 160.67 510.447C162.896 513.611 165.709 516.014 169.107 517.654C172.564 519.236 176.637 520.027 181.324 520.027C184.605 520.027 187.418 519.764 189.762 519.236C192.105 518.65 194.039 517.947 195.562 517.127C197.145 516.248 198.346 515.428 199.166 514.666V494.803H177.721V473.621H230.016ZM336.1 518.27V542H267.896V518.27H336.1ZM278.883 414.031V542H248.033V414.031H278.883ZM327.311 464.832V487.771H267.896V464.832H327.311ZM336.363 414.031V437.85H267.896V414.031H336.363Z" fill="#E7ECEF"/>
</svg>
