<svg width="333" height="544" viewBox="0 0 333 544" fill="none" xmlns="http://www.w3.org/2000/svg">
<path d="M89.9766 50.832V74.5625H24.3223V50.832H89.9766ZM34.6055 0.03125V128H3.75586V0.03125H34.6055ZM110.719 0.03125V128H79.957V0.03125H110.719ZM186.129 26.9258L154.928 128H121.793L168.814 0.03125H189.82L186.129 26.9258ZM211.969 128L180.68 26.9258L176.637 0.03125H197.906L245.191 128H211.969ZM210.738 80.2754V104.094H145.084V80.2754H210.738ZM52.1836 235.854L78.8145 138.031H113.355L70.2012 266H47.877L52.1836 235.854ZM28.0137 138.031L54.6445 235.854L59.127 266H36.5391L-6.35156 138.031H28.0137ZM210.826 242.27V266H142.623V242.27H210.826ZM153.609 138.031V266H122.76V138.031H153.609ZM202.037 188.832V211.771H142.623V188.832H202.037ZM211.09 138.031V161.85H142.623V138.031H211.09ZM88.3066 380.27V404H23.6191V380.27H88.3066ZM34.6055 276.031V404H3.75586V276.031H34.6055ZM157.301 302.926L126.1 404H92.9648L139.986 276.031H160.992L157.301 302.926ZM183.141 404L151.852 302.926L147.809 276.031H169.078L216.363 404H183.141ZM181.91 356.275V380.094H116.256V356.275H181.91ZM332.643 276.031V404H301.881L256.617 324.371V404H225.768V276.031H256.617L301.881 355.66V276.031H332.643ZM108.434 473.621V526.18C106.266 528.582 102.926 531.16 98.4141 533.914C93.9609 536.609 88.3359 538.924 81.5391 540.857C74.7422 542.791 66.7441 543.758 57.5449 543.758C49.0488 543.758 41.3438 542.41 34.4297 539.715C27.5156 536.961 21.5684 532.947 16.5879 527.674C11.666 522.342 7.85742 515.838 5.16211 508.162C2.52539 500.428 1.20703 491.58 1.20703 481.619V474.5C1.20703 464.539 2.55469 455.691 5.25 447.957C7.94531 440.223 11.7246 433.719 16.5879 428.445C21.5098 423.113 27.2812 419.07 33.9023 416.316C40.582 413.562 47.9062 412.186 55.875 412.186C67.6523 412.186 77.2324 414.061 84.6152 417.811C91.998 421.502 97.5938 426.629 101.402 433.191C105.211 439.695 107.525 447.225 108.346 455.779H78.7266C78.1406 451.561 77.0273 447.986 75.3867 445.057C73.8047 442.068 71.5195 439.812 68.5312 438.289C65.543 436.707 61.6758 435.916 56.9297 435.916C53.2383 435.916 49.8691 436.707 46.8223 438.289C43.834 439.871 41.2852 442.273 39.1758 445.496C37.0664 448.66 35.4258 452.645 34.2539 457.449C33.1406 462.254 32.584 467.879 32.584 474.324V481.619C32.584 488.006 33.1113 493.602 34.166 498.406C35.2793 503.211 36.9199 507.225 39.0879 510.447C41.3145 513.611 44.127 516.014 47.5254 517.654C50.9824 519.236 55.0547 520.027 59.7422 520.027C63.0234 520.027 65.8359 519.764 68.1797 519.236C70.5234 518.65 72.457 517.947 73.9805 517.127C75.5625 516.248 76.7637 515.428 77.584 514.666V494.803H56.1387V473.621H108.434ZM214.518 518.27V542H146.314V518.27H214.518ZM157.301 414.031V542H126.451V414.031H157.301ZM205.729 464.832V487.771H146.314V464.832H205.729ZM214.781 414.031V437.85H146.314V414.031H214.781Z" fill="white"/>
</svg>
