<svg width="1635" height="733" viewBox="0 0 1635 733" fill="none" xmlns="http://www.w3.org/2000/svg">
<path d="M0 30C0 13.4315 13.4315 0 30 0H1605C1621.57 0 1635 13.4315 1635 30V703C1635 719.569 1621.57 733 1605 733H30C13.4315 733 0 719.569 0 703V30Z" fill="white"/>
<path d="M82.7671 548V558.171C83.947 555.357 83.947 550.814 82.7671 548Z" fill="#365E78" fill-opacity="0.08"/>
<path d="M83.4452 548C83.4452 551.662 83.6201 555.269 82.7671 558.849C85.1024 556.808 84.5803 550.706 83.4452 548Z" fill="#365E78" fill-opacity="0.08"/>
<path d="M84.1226 548V558.849C85.3512 555.92 85.3512 550.929 84.1226 548ZM259.746 548V558.849C260.973 555.92 260.973 550.929 259.746 548Z" fill="white"/>
<path d="M260.424 548V558.171C261.604 555.357 261.604 550.814 260.424 548Z" fill="#365E78" fill-opacity="0.08"/>
<path d="M261.103 548V558.171C262.283 555.357 262.283 550.814 261.103 548Z" fill="#365E78" fill-opacity="0.08"/>
<path d="M252.656 567.235C255.193 571.798 254.023 578.437 254.013 583.529C254.008 585.993 254.063 588.24 252.44 590.257C247.745 596.095 240.252 599.286 235.69 605.253H239.762V633.767C239.762 639.34 240.379 645.294 239.083 650.739C237.673 647.005 237.005 643.034 235.886 639.198C234.998 636.163 233.748 633.583 233.654 630.372C225.779 632.246 216.616 631.051 208.544 631.051H159.682H129.143C123.362 631.051 117.147 631.716 111.498 630.372C109.215 636.421 107.275 643.604 106.747 650.06C104.513 645.871 105.39 640.454 105.39 635.803V605.253H109.462C106.556 601.302 102.308 598.268 98.6035 595.07C95.8719 592.714 93.3033 589.944 89.7811 588.96V567.914H92.4957C91.4003 566.258 90.2141 564.71 88.966 563.162C87.7764 561.682 86.3661 559.394 84.3859 558.919C81.2519 558.165 77.8213 564.14 77.0626 566.557C75.6177 571.166 76.8868 578.003 76.8868 582.85C76.8868 585.002 77.2445 587.609 76.1892 589.578C73.839 593.957 68.4255 595.878 64.6542 598.634C62.2131 600.413 60.3265 602.796 57.8848 604.574C59.24 605.206 61.0608 605.484 61.9383 606.828C63.3594 609.001 62.6353 612.959 62.6353 615.437V636.482V732.885H72.1363V716.591C72.1363 713.292 71.78 709.64 73.3267 706.605C78.4111 696.612 90.8825 697.223 94.6985 707.963C95.6412 710.61 95.2103 713.822 95.2103 716.591V732.885H249.941C249.941 724.602 247.791 712.667 251.896 705.166C256.778 696.245 269.066 698.255 271.997 707.881C272.812 710.549 272.337 713.835 272.337 716.591V732.885H282.516V605.253C283.772 605.274 284.057 605.138 285.231 604.574C282.727 597.27 273.49 594.527 269.351 588.254C267.179 584.961 268.265 579.164 268.265 575.382C268.265 572.497 267.83 569.605 269.622 567.235C267.905 563.651 264.559 560.915 262.157 557.731C258.093 559.666 255.568 563.895 252.656 567.235Z" fill="#365E78" fill-opacity="0.08"/>
<path d="M81.6367 559.304C81.5994 559.337 81.5615 560.056 81.8632 559.751C81.9012 559.717 81.9385 558.998 81.6367 559.304ZM262.683 559.304C262.649 559.337 262.608 560.056 262.913 559.751C262.947 559.717 262.988 558.998 262.683 559.304Z" fill="#365E78" fill-opacity="0.08"/>
<path d="M74.6293 568.343C77.4162 572.018 75.995 579.45 75.9855 583.939C75.9821 585.708 76.157 587.688 75.2884 589.302C73.3484 592.916 69.0121 594.401 67.1704 598.178C70.1248 596.225 74.8999 593.405 76.2547 589.98C79.462 581.877 73.7675 572.025 78.6978 564.274C76.593 565.278 75.6342 566.241 74.6293 568.343Z" fill="#365E78" fill-opacity="0.08"/>
<path d="M89.7739 564.728C89.7366 564.762 89.6987 565.481 90.0004 565.176C90.0384 565.142 90.0757 564.423 89.7739 564.728Z" fill="#365E78" fill-opacity="0.08"/>
<path d="M253.87 565.407C253.833 565.44 253.795 566.159 254.097 565.854C254.135 565.82 254.172 565.101 253.87 565.407Z" fill="#365E78" fill-opacity="0.08"/>
<path d="M267.883 567.664V588.685C270.413 582.657 265.869 573.679 269.918 568.342C269.07 567.875 268.867 567.834 267.883 567.664Z" fill="#365E78" fill-opacity="0.08"/>
<path d="M89.5479 568.343V589.363C90.4483 587.214 90.2259 584.901 90.2259 582.582C90.2259 578.229 91.241 572.377 89.5479 568.343Z" fill="#365E78" fill-opacity="0.08"/>
<path d="M90.2256 568.343V589.363C91.1261 587.214 90.9037 584.901 90.9037 582.582C90.9037 578.229 91.9188 572.377 90.2256 568.343Z" fill="#365E78" fill-opacity="0.08"/>
<path d="M252.966 568.343V590.041C253.867 587.892 253.644 585.579 253.644 583.26C253.644 578.724 254.729 572.54 252.966 568.343Z" fill="#365E78" fill-opacity="0.08"/>
<path d="M95.4251 592.977C95.1233 593.282 95.8394 593.242 95.8767 593.208C96.1784 592.903 95.4624 592.943 95.4251 592.977Z" fill="white"/>
<path d="M275.797 595.69C275.492 595.995 276.211 595.954 276.245 595.92C276.55 595.615 275.831 595.656 275.797 595.69Z" fill="#365E78" fill-opacity="0.08"/>
<path d="M245.282 596.368C244.98 596.673 245.696 596.632 245.733 596.598C246.035 596.293 245.319 596.334 245.282 596.368Z" fill="#365E78" fill-opacity="0.08"/>
<path d="M237.822 602.47C237.52 602.775 238.236 602.735 238.274 602.701C238.575 602.396 237.859 602.436 237.822 602.47Z" fill="white"/>
<path d="M58.1302 604.505C57.8284 604.81 58.5445 604.769 58.5818 604.735C58.8835 604.43 58.1675 604.471 58.1302 604.505Z" fill="#365E78" fill-opacity="0.08"/>
<path d="M283.479 604.959C284.68 605.488 285.541 605.576 286.87 605.637C285.568 604.864 285.019 604.844 283.479 604.959Z" fill="#365E78" fill-opacity="0.08"/>
<path d="M285.969 604.505C285.664 604.81 286.382 604.769 286.416 604.735C286.721 604.43 286.003 604.471 285.969 604.505Z" fill="#365E78" fill-opacity="0.08"/>
<path d="M57 604.959C58.1758 606.315 59.275 606.261 61.0685 606.315C59.7523 605.671 58.4253 605.339 57 604.959ZM109.212 604.959C107.992 605.339 107.095 605.515 105.822 605.637C106.898 606.254 110.015 606.905 109.212 604.959ZM234.658 604.959C235.833 606.315 236.933 606.261 238.726 606.315C237.41 605.671 236.084 605.339 234.658 604.959ZM286.87 604.959C285.649 605.339 284.754 605.515 283.48 605.637C284.558 606.254 287.67 606.905 286.87 604.959Z" fill="#365E78" fill-opacity="0.08"/>
<path d="M105.144 605.637V649.713C106.487 646.512 105.822 642.308 105.822 638.863V617.165C105.822 613.537 106.558 609.007 105.144 605.637ZM238.726 605.637V650.391C240.211 646.851 239.404 641.996 239.404 638.185V616.487C239.404 613.042 240.07 608.838 238.726 605.637Z" fill="#365E78" fill-opacity="0.08"/>
<path d="M75.9863 614.452C77.946 615.273 79.9694 615.13 82.0891 615.13C80.1294 614.31 78.106 614.452 75.9863 614.452ZM84.1233 614.452C86.083 615.273 88.1064 615.13 90.2261 615.13C88.2664 614.31 86.243 614.452 84.1233 614.452ZM252.966 614.452C254.926 615.273 256.949 615.13 259.069 615.13C257.109 614.31 255.086 614.452 252.966 614.452ZM261.103 614.452C262.873 615.198 264.602 615.124 266.528 615.13C264.758 614.385 263.029 614.459 261.103 614.452Z" fill="#365E78" fill-opacity="0.08"/>
<path d="M75.9863 615.13V623.945H82.0891V615.13H75.9863Z" fill="white"/>
<path d="M82.0894 615.13V623.945C83.1682 621.375 83.1682 617.7 82.0894 615.13Z" fill="#365E78" fill-opacity="0.08"/>
<path d="M83.4458 615.13V623.267C84.4711 620.826 84.4711 617.571 83.4458 615.13Z" fill="#365E78" fill-opacity="0.08"/>
<path d="M84.1226 615.13C84.7708 617.856 84.8006 620.48 84.8006 623.267C86.4565 623.342 87.9354 623.559 89.5472 623.945V615.13H84.1226Z" fill="white"/>
<path d="M89.5479 615.13V623.945C90.6267 621.375 90.6267 617.7 89.5479 615.13Z" fill="#365E78" fill-opacity="0.08"/>
<path d="M90.2256 615.13V623.945C91.3044 621.375 91.3044 617.7 90.2256 615.13Z" fill="#365E78" fill-opacity="0.08"/>
<path d="M251.609 615.13V623.945C252.688 621.375 252.688 617.7 251.609 615.13Z" fill="#365E78" fill-opacity="0.08"/>
<path d="M252.288 615.13V623.945C253.367 621.375 253.367 617.7 252.288 615.13Z" fill="#365E78" fill-opacity="0.08"/>
<path d="M252.966 615.13V623.945H259.069V615.13H252.966Z" fill="white"/>
<path d="M260.424 615.13V623.945C261.502 621.375 261.502 617.7 260.424 615.13Z" fill="#365E78" fill-opacity="0.08"/>
<path d="M261.103 615.13V623.945H266.528V615.13H261.103Z" fill="white"/>
<path d="M266.528 615.13V623.945C267.606 621.375 267.606 617.7 266.528 615.13Z" fill="#365E78" fill-opacity="0.08"/>
<path d="M75.3086 615.808V624.623H82.0894C80.1298 623.803 78.1064 623.945 75.9867 623.945C75.9867 621.247 76.361 618.317 75.3086 615.808Z" fill="#365E78" fill-opacity="0.08"/>
<path d="M84.1226 615.808V623.945H88.8691C87.4777 623.355 86.3284 623.301 84.8006 623.267C84.8006 620.758 85.099 618.134 84.1226 615.808Z" fill="white"/>
<path d="M75.3086 625.302V634.795H82.0894C80.1298 633.974 78.1064 634.117 75.9867 634.117C75.9867 631.228 76.4349 627.987 75.3086 625.302Z" fill="#365E78" fill-opacity="0.08"/>
<path d="M75.9863 625.302C77.946 626.122 79.9694 625.98 82.0891 625.98C80.1294 625.159 78.106 625.302 75.9863 625.302ZM84.1233 625.302C86.083 626.122 88.1064 625.98 90.2261 625.98C88.2664 625.159 86.243 625.302 84.1233 625.302ZM252.966 625.302C254.926 626.122 256.949 625.98 259.069 625.98C257.109 625.159 255.086 625.302 252.966 625.302ZM261.103 625.302C262.873 626.048 264.602 625.973 266.528 625.98C264.758 625.234 263.029 625.308 261.103 625.302Z" fill="#365E78" fill-opacity="0.08"/>
<path d="M75.9863 625.979V634.116H82.0891V625.979H75.9863Z" fill="white"/>
<path d="M82.0894 625.979V634.116C83.1146 631.675 83.1146 628.421 82.0894 625.979Z" fill="#365E78" fill-opacity="0.08"/>
<path d="M83.4458 625.979V633.438C84.4161 631.126 84.4161 628.292 83.4458 625.979Z" fill="#365E78" fill-opacity="0.08"/>
<path d="M84.1226 625.979V634.116H89.5472V625.979H84.1226Z" fill="white"/>
<path d="M89.5479 625.979V634.116C90.5731 631.675 90.5731 628.421 89.5479 625.979Z" fill="#365E78" fill-opacity="0.08"/>
<path d="M90.2256 625.979V634.116C91.2508 631.675 91.2508 628.421 90.2256 625.979Z" fill="#365E78" fill-opacity="0.08"/>
<path d="M251.609 625.979V634.116C252.634 631.675 252.634 628.421 251.609 625.979Z" fill="#365E78" fill-opacity="0.08"/>
<path d="M252.288 625.979V634.116C253.313 631.675 253.313 628.421 252.288 625.979Z" fill="#365E78" fill-opacity="0.08"/>
<path d="M252.966 625.979V634.116H259.069V625.979H252.966Z" fill="white"/>
<path d="M260.424 625.979V634.116C261.448 631.675 261.448 628.421 260.424 625.979Z" fill="#365E78" fill-opacity="0.08"/>
<path d="M261.103 625.979V634.116H266.528V625.979H261.103Z" fill="white"/>
<path d="M266.528 625.979V634.116C267.552 631.675 267.552 628.421 266.528 625.979Z" fill="#365E78" fill-opacity="0.08"/>
<path d="M111.925 630.726C115.294 632.144 119.824 631.404 123.452 631.404H147.863H232.624C229.254 629.987 224.724 630.726 221.096 630.726H196.685H111.925Z" fill="#365E78" fill-opacity="0.08"/>
<path d="M233.302 632.76V635.473C233.783 634.279 233.783 633.954 233.302 632.76Z" fill="#365E78" fill-opacity="0.08"/>
<path d="M84.1226 634.117C86.0822 634.937 88.1056 634.795 90.2253 634.795C88.2656 633.974 86.2422 634.117 84.1226 634.117ZM252.287 634.117C254.432 635.019 256.753 634.795 259.068 634.795C256.923 633.893 254.603 634.117 252.287 634.117ZM260.424 634.117C262.384 634.937 264.404 634.795 266.527 634.795C264.567 633.974 262.546 634.117 260.424 634.117Z" fill="#365E78" fill-opacity="0.08"/>
<path d="M75.9863 640.897C77.946 641.718 79.9694 641.575 82.0891 641.575C80.1294 640.755 78.106 640.897 75.9863 640.897ZM84.1233 640.897C86.083 641.718 88.1064 641.575 90.2261 641.575C88.2664 640.755 86.243 640.897 84.1233 640.897ZM252.288 640.897C254.433 641.799 256.754 641.575 259.069 641.575C256.924 640.674 254.604 640.897 252.288 640.897ZM261.103 640.897C262.873 641.643 264.602 641.569 266.528 641.575C264.758 640.83 263.029 640.904 261.103 640.897Z" fill="#365E78" fill-opacity="0.08"/>
<path d="M75.9863 641.575V649.712H82.0891V641.575H75.9863Z" fill="white"/>
<path d="M82.0894 641.575V649.712C83.1146 647.271 83.1146 644.017 82.0894 641.575Z" fill="#365E78" fill-opacity="0.08"/>
<path d="M82.7671 641.575V649.712H84.1233V641.575H82.7671Z" fill="#365E78" fill-opacity="0.08"/>
<path d="M84.1226 641.575V649.712H89.5472V641.575H84.1226Z" fill="white"/>
<path d="M89.5479 641.575V649.712C90.5731 647.271 90.5731 644.017 89.5479 641.575Z" fill="#365E78" fill-opacity="0.08"/>
<path d="M90.2256 641.575V649.712C91.2508 647.271 91.2508 644.017 90.2256 641.575Z" fill="#365E78" fill-opacity="0.08"/>
<path d="M251.609 641.575V649.712C252.634 647.271 252.634 644.017 251.609 641.575Z" fill="#365E78" fill-opacity="0.08"/>
<path d="M252.288 641.575V649.712C253.313 647.271 253.313 644.017 252.288 641.575Z" fill="#365E78" fill-opacity="0.08"/>
<path d="M252.966 641.575V649.712H259.069V641.575H252.966Z" fill="white"/>
<path d="M260.424 641.575V649.712C261.448 647.271 261.448 644.017 260.424 641.575Z" fill="#365E78" fill-opacity="0.08"/>
<path d="M261.103 641.575V649.712H266.528V641.575H261.103Z" fill="white"/>
<path d="M266.528 641.575V649.712C267.552 647.271 267.552 644.017 266.528 641.575Z" fill="#365E78" fill-opacity="0.08"/>
<path d="M259.068 642.253V649.712C260.038 647.4 260.038 644.566 259.068 642.253Z" fill="#365E78" fill-opacity="0.08"/>
<path d="M75.9863 649.712C77.946 650.533 79.9694 650.39 82.0891 650.39C80.1294 649.57 78.106 649.712 75.9863 649.712ZM84.1233 649.712C86.083 650.533 88.1064 650.39 90.2261 650.39C88.2664 649.57 86.243 649.712 84.1233 649.712Z" fill="#365E78" fill-opacity="0.08"/>
<path d="M252.966 649.712C254.926 650.533 256.949 650.39 259.069 650.39C257.109 649.57 255.086 649.712 252.966 649.712ZM261.103 649.712C262.873 650.458 264.602 650.384 266.528 650.39C264.758 649.645 263.029 649.719 261.103 649.712Z" fill="#365E78" fill-opacity="0.08"/>
<path d="M75.9863 651.747C77.946 652.567 79.9694 652.425 82.0891 652.425C80.1294 651.604 78.106 651.747 75.9863 651.747ZM84.1233 651.747C86.083 652.567 88.1064 652.425 90.2261 652.425C88.2664 651.604 86.243 651.747 84.1233 651.747ZM252.288 651.747C254.433 652.648 256.754 652.425 259.069 652.425C256.924 651.523 254.604 651.747 252.288 651.747ZM261.103 651.747C262.873 652.492 264.602 652.418 266.528 652.425C264.758 651.679 263.029 651.753 261.103 651.747Z" fill="#365E78" fill-opacity="0.08"/>
<path d="M75.9863 652.425V660.562H82.0891V652.425H75.9863Z" fill="white"/>
<path d="M82.0894 652.425V660.562C83.1146 658.121 83.1146 654.866 82.0894 652.425Z" fill="#365E78" fill-opacity="0.08"/>
<path d="M82.7671 652.425V660.562H84.1233V652.425H82.7671Z" fill="#365E78" fill-opacity="0.08"/>
<path d="M84.1226 652.425V660.562H89.5472V652.425H84.1226Z" fill="white"/>
<path d="M89.5479 652.425V660.562C90.5731 658.121 90.5731 654.866 89.5479 652.425Z" fill="#365E78" fill-opacity="0.08"/>
<path d="M90.2256 652.425V660.562C91.2508 658.121 91.2508 654.866 90.2256 652.425Z" fill="#365E78" fill-opacity="0.08"/>
<path d="M251.609 652.425V660.562C252.634 658.121 252.634 654.866 251.609 652.425Z" fill="#365E78" fill-opacity="0.08"/>
<path d="M252.288 652.425V660.562C253.313 658.121 253.313 654.866 252.288 652.425Z" fill="#365E78" fill-opacity="0.08"/>
<path d="M252.966 652.425V660.562H259.069V652.425H252.966Z" fill="white"/>
<path d="M260.424 652.425V660.562C261.448 658.121 261.448 654.866 260.424 652.425Z" fill="#365E78" fill-opacity="0.08"/>
<path d="M261.103 652.425V660.562H266.528V652.425H261.103Z" fill="white"/>
<path d="M266.528 652.425V660.562C267.552 658.121 267.552 654.866 266.528 652.425Z" fill="#365E78" fill-opacity="0.08"/>
<path d="M259.068 653.103V660.561C260.038 658.249 260.038 655.415 259.068 653.103Z" fill="#365E78" fill-opacity="0.08"/>
<path d="M75.9863 660.562C77.946 661.382 79.9694 661.24 82.0891 661.24C80.1294 660.42 78.106 660.562 75.9863 660.562ZM84.1233 660.562C86.083 661.382 88.1064 661.24 90.2261 661.24C88.2664 660.42 86.243 660.562 84.1233 660.562ZM252.966 660.562C254.926 661.382 256.949 661.24 259.069 661.24C257.109 660.42 255.086 660.562 252.966 660.562ZM261.103 660.562C262.873 661.308 264.602 661.233 266.528 661.24C264.758 660.494 263.029 660.569 261.103 660.562Z" fill="#365E78" fill-opacity="0.08"/>
<path d="M118.705 667.343C120.477 668.089 122.207 668.014 124.13 668.021C122.358 667.275 120.628 667.35 118.705 667.343ZM125.486 667.343C127.067 668.007 128.508 668.007 130.232 668.021C128.652 667.356 127.21 667.356 125.486 667.343Z" fill="#365E78" fill-opacity="0.08"/>
<path d="M130.232 667.343V674.124C131.145 671.947 131.145 669.519 130.232 667.343Z" fill="#365E78" fill-opacity="0.08"/>
<path d="M167.528 667.343C169.3 668.089 171.031 668.014 172.953 668.021C171.181 667.275 169.451 667.35 167.528 667.343ZM174.987 667.343C176.379 667.933 177.528 667.987 179.056 668.021C177.664 667.431 176.515 667.377 174.987 667.343ZM217.028 667.343C218.609 668.007 220.051 668.007 221.775 668.021C220.194 667.356 218.753 667.356 217.028 667.343ZM223.809 667.343C225.39 668.007 226.831 668.007 228.556 668.021C226.975 667.356 225.534 667.356 223.809 667.343Z" fill="#365E78" fill-opacity="0.08"/>
<path d="M75.9863 668.021C77.946 668.841 79.9694 668.699 82.0891 668.699C80.1294 667.878 78.106 668.021 75.9863 668.021ZM84.1233 668.021C86.083 668.841 88.1064 668.699 90.2261 668.699C88.2664 667.878 86.243 668.021 84.1233 668.021Z" fill="#365E78" fill-opacity="0.08"/>
<path d="M118.705 668.021V674.802H123.452V668.021H118.705Z" fill="white"/>
<path d="M123.452 668.021V674.802C124.365 672.625 124.365 670.197 123.452 668.021Z" fill="#365E78" fill-opacity="0.08"/>
<path d="M124.13 668.021V674.802H125.486V668.021H124.13Z" fill="#365E78" fill-opacity="0.08"/>
<path d="M125.486 668.021V674.802C126.399 672.625 126.399 670.197 125.486 668.021Z" fill="#365E78" fill-opacity="0.08"/>
<path d="M126.165 668.021V674.802H130.233V668.021H126.165Z" fill="white"/>
<path d="M166.849 668.021V674.802C167.762 672.625 167.762 670.197 166.849 668.021Z" fill="#365E78" fill-opacity="0.08"/>
<path d="M167.528 668.021V674.802C168.441 672.625 168.441 670.197 167.528 668.021Z" fill="#365E78" fill-opacity="0.08"/>
<path d="M168.206 668.021V674.802H172.952V668.021H168.206Z" fill="white"/>
<path d="M174.309 668.021V674.802C175.221 672.625 175.221 670.197 174.309 668.021Z" fill="#365E78" fill-opacity="0.08"/>
<path d="M174.986 668.021V674.802H179.055V668.021H174.986Z" fill="white"/>
<path d="M179.055 668.021V674.802C179.967 672.625 179.967 670.197 179.055 668.021Z" fill="#365E78" fill-opacity="0.08"/>
<path d="M217.027 668.021V674.802H221.774V668.021H217.027Z" fill="white"/>
<path d="M221.774 668.021V674.802C222.687 672.625 222.687 670.197 221.774 668.021Z" fill="#365E78" fill-opacity="0.08"/>
<path d="M223.13 668.021V674.802C224.043 672.625 224.043 670.197 223.13 668.021Z" fill="#365E78" fill-opacity="0.08"/>
<path d="M223.808 668.021V674.802H228.555C227.981 672.36 227.981 670.462 228.555 668.021H223.808Z" fill="white"/>
<path d="M228.555 668.021V674.802C229.467 672.625 229.467 670.197 228.555 668.021Z" fill="#365E78" fill-opacity="0.08"/>
<path d="M252.966 668.021C254.926 668.841 256.949 668.699 259.069 668.699C257.109 667.878 255.086 668.021 252.966 668.021ZM261.103 668.021C262.873 668.767 264.602 668.692 266.528 668.699C264.758 667.953 263.029 668.027 261.103 668.021Z" fill="#365E78" fill-opacity="0.08"/>
<path d="M75.9863 668.699V676.836H82.0891V668.699H75.9863Z" fill="white"/>
<path d="M82.0894 668.699V676.836C83.1146 674.395 83.1146 671.14 82.0894 668.699Z" fill="#365E78" fill-opacity="0.08"/>
<path d="M83.4458 668.699V676.158C84.4161 673.846 84.4161 671.011 83.4458 668.699Z" fill="#365E78" fill-opacity="0.08"/>
<path d="M84.1226 668.699V676.836H89.5472V668.699H84.1226Z" fill="white"/>
<path d="M89.5479 668.699V676.836C90.5731 674.395 90.5731 671.14 89.5479 668.699Z" fill="#365E78" fill-opacity="0.08"/>
<path d="M90.2256 668.699V676.836C91.2508 674.395 91.2508 671.14 90.2256 668.699Z" fill="#365E78" fill-opacity="0.08"/>
<path d="M227.876 668.699V674.124C228.664 672.245 228.664 670.577 227.876 668.699Z" fill="white"/>
<path d="M251.609 668.699V676.836C252.634 674.395 252.634 671.14 251.609 668.699Z" fill="#365E78" fill-opacity="0.08"/>
<path d="M252.288 668.699V676.836C253.313 674.395 253.313 671.14 252.288 668.699Z" fill="#365E78" fill-opacity="0.08"/>
<path d="M252.966 668.699V676.836H259.069V668.699H252.966Z" fill="white"/>
<path d="M260.424 668.699V676.836C261.448 674.395 261.448 671.14 260.424 668.699Z" fill="#365E78" fill-opacity="0.08"/>
<path d="M261.103 668.699V676.836H266.528V668.699H261.103Z" fill="white"/>
<path d="M266.528 668.699V676.836C267.552 674.395 267.552 671.14 266.528 668.699Z" fill="#365E78" fill-opacity="0.08"/>
<path d="M75.3086 669.377V677.514H82.0894C80.1298 676.693 78.1064 676.836 75.9867 676.836C75.9867 674.327 76.285 671.703 75.3086 669.377Z" fill="#365E78" fill-opacity="0.08"/>
<path d="M84.1226 676.836C85.8944 677.582 87.6249 677.507 89.5472 677.514C87.7754 676.768 86.0456 676.842 84.1226 676.836Z" fill="#365E78" fill-opacity="0.08"/>
<path d="M118.705 676.836V683.617H123.452V676.836H118.705Z" fill="white"/>
<path d="M123.452 676.836V683.617C124.365 681.44 124.365 679.012 123.452 676.836Z" fill="#365E78" fill-opacity="0.08"/>
<path d="M124.13 676.836V683.617H125.486V676.836H124.13Z" fill="#365E78" fill-opacity="0.08"/>
<path d="M125.486 676.836V683.617C126.399 681.44 126.399 679.012 125.486 676.836Z" fill="#365E78" fill-opacity="0.08"/>
<path d="M126.165 676.836V683.617H130.233V676.836H126.165Z" fill="white"/>
<path d="M130.232 676.836V683.617C131.145 681.44 131.145 679.012 130.232 676.836Z" fill="#365E78" fill-opacity="0.08"/>
<path d="M166.849 676.836V683.617C167.762 681.44 167.762 679.012 166.849 676.836Z" fill="#365E78" fill-opacity="0.08"/>
<path d="M167.528 676.836V683.617C168.441 681.44 168.441 679.012 167.528 676.836Z" fill="#365E78" fill-opacity="0.08"/>
<path d="M168.206 676.836V683.617H172.952V676.836H168.206Z" fill="white"/>
<path d="M174.309 676.836V683.617C175.221 681.44 175.221 679.012 174.309 676.836Z" fill="#365E78" fill-opacity="0.08"/>
<path d="M174.986 676.836V683.617H179.055V676.836H174.986Z" fill="white"/>
<path d="M179.055 676.836V683.617C179.967 681.44 179.967 679.012 179.055 676.836Z" fill="#365E78" fill-opacity="0.08"/>
<path d="M217.027 676.836V683.617H221.774V676.836H217.027Z" fill="white"/>
<path d="M221.774 676.836V683.617C222.687 681.44 222.687 679.012 221.774 676.836Z" fill="#365E78" fill-opacity="0.08"/>
<path d="M223.13 676.836V683.617C224.043 681.44 224.043 679.012 223.13 676.836Z" fill="#365E78" fill-opacity="0.08"/>
<path d="M223.808 676.836V683.617H228.555C227.981 681.175 227.981 679.277 228.555 676.836H223.808Z" fill="white"/>
<path d="M228.555 676.836V683.617C229.467 681.44 229.467 679.012 228.555 676.836Z" fill="#365E78" fill-opacity="0.08"/>
<path d="M252.288 676.836C254.248 677.656 256.271 677.514 258.391 677.514C256.431 676.693 254.408 676.836 252.288 676.836ZM260.425 676.836C262.385 677.656 264.405 677.514 266.528 677.514C264.568 676.693 262.547 676.836 260.425 676.836Z" fill="#365E78" fill-opacity="0.08"/>
<path d="M227.876 677.514V682.939C228.664 681.06 228.664 679.392 227.876 677.514Z" fill="white"/>
<path d="M75.9863 678.87C77.946 679.691 79.9694 679.548 82.0891 679.548C80.1294 678.728 78.106 678.87 75.9863 678.87ZM84.1233 678.87C86.083 679.691 88.1064 679.548 90.2261 679.548C88.2664 678.728 86.243 678.87 84.1233 678.87ZM252.966 678.87C254.926 679.691 256.949 679.548 259.069 679.548C257.109 678.728 255.086 678.87 252.966 678.87ZM261.103 678.87C262.873 679.616 264.602 679.541 266.528 679.548C264.758 678.802 263.029 678.877 261.103 678.87Z" fill="#365E78" fill-opacity="0.08"/>
<path d="M75.9863 679.548V687.685H82.0891V679.548H75.9863Z" fill="white"/>
<path d="M82.0894 679.548V687.685C83.1146 685.244 83.1146 681.989 82.0894 679.548Z" fill="#365E78" fill-opacity="0.08"/>
<path d="M83.4458 679.548V687.007C84.4161 684.695 84.4161 681.861 83.4458 679.548Z" fill="#365E78" fill-opacity="0.08"/>
<path d="M84.1226 679.548V687.685H89.5472V679.548H84.1226Z" fill="white"/>
<path d="M89.5479 679.548V687.685C90.5731 685.244 90.5731 681.989 89.5479 679.548Z" fill="#365E78" fill-opacity="0.08"/>
<path d="M90.2256 679.548V687.685C91.2508 685.244 91.2508 681.989 90.2256 679.548Z" fill="#365E78" fill-opacity="0.08"/>
<path d="M251.609 679.548V687.685C252.634 685.244 252.634 681.989 251.609 679.548Z" fill="#365E78" fill-opacity="0.08"/>
<path d="M252.288 679.548V687.685C253.313 685.244 253.313 681.989 252.288 679.548Z" fill="#365E78" fill-opacity="0.08"/>
<path d="M252.966 679.548V687.685H259.069V679.548H252.966Z" fill="white"/>
<path d="M260.424 679.548V687.685C261.448 685.244 261.448 681.989 260.424 679.548Z" fill="#365E78" fill-opacity="0.08"/>
<path d="M261.103 679.548V687.685H266.528V679.548H261.103Z" fill="white"/>
<path d="M266.528 679.548V687.685C267.552 685.244 267.552 681.989 266.528 679.548Z" fill="#365E78" fill-opacity="0.08"/>
<path d="M75.3086 680.226V688.363H82.0894C80.1298 687.543 78.1064 687.685 75.9867 687.685C75.9867 685.176 76.285 682.552 75.3086 680.226Z" fill="#365E78" fill-opacity="0.08"/>
<path d="M118.705 683.616C120.477 684.362 122.207 684.288 124.13 684.295C122.358 683.549 120.628 683.623 118.705 683.616ZM167.527 683.616C169.299 684.362 171.029 684.288 172.952 684.295C171.18 683.549 169.45 683.623 167.527 683.616Z" fill="#365E78" fill-opacity="0.08"/>
<path d="M84.1226 687.685C86.0822 688.506 88.1056 688.363 90.2253 688.363C88.2656 687.543 86.2422 687.685 84.1226 687.685ZM252.287 687.685C254.432 688.587 256.753 688.363 259.068 688.363C256.923 687.461 254.603 687.685 252.287 687.685ZM260.424 687.685C262.384 688.506 264.404 688.363 266.527 688.363C264.567 687.543 262.546 687.685 260.424 687.685Z" fill="#365E78" fill-opacity="0.08"/>
<path d="M118.705 689.72C120.477 690.466 122.207 690.391 124.13 690.398C122.358 689.652 120.628 689.727 118.705 689.72Z" fill="#365E78" fill-opacity="0.08"/>
<path d="M124.13 689.72V697.179H125.486V689.72H124.13Z" fill="#365E78" fill-opacity="0.08"/>
<path d="M125.486 689.72C127.068 690.384 128.508 690.384 130.233 690.398C128.652 689.733 127.211 689.733 125.486 689.72Z" fill="#365E78" fill-opacity="0.08"/>
<path d="M130.232 689.72V697.179C131.203 694.866 131.203 692.032 130.232 689.72Z" fill="#365E78" fill-opacity="0.08"/>
<path d="M167.528 689.72C169.3 690.466 171.031 690.391 172.953 690.398C171.181 689.652 169.451 689.727 167.528 689.72ZM174.987 689.72C176.379 690.31 177.528 690.364 179.056 690.398C177.664 689.808 176.515 689.754 174.987 689.72ZM217.028 689.72C218.609 690.384 220.051 690.384 221.775 690.398V697.179C223.732 692.513 221.821 689.774 217.028 689.72ZM223.809 689.72C225.39 690.384 226.831 690.384 228.556 690.398C226.975 689.733 225.534 689.733 223.809 689.72Z" fill="#365E78" fill-opacity="0.08"/>
<path d="M118.705 690.397V697.178H123.452V690.397H118.705Z" fill="white"/>
<path d="M123.452 690.397V697.178C124.365 695.002 124.365 692.574 123.452 690.397Z" fill="#365E78" fill-opacity="0.08"/>
<path d="M125.486 690.397V697.178C126.399 695.002 126.399 692.574 125.486 690.397Z" fill="#365E78" fill-opacity="0.08"/>
<path d="M126.165 690.397V697.178H130.233V690.397H126.165Z" fill="white"/>
<path d="M166.849 690.397V697.178C167.762 695.002 167.762 692.574 166.849 690.397Z" fill="#365E78" fill-opacity="0.08"/>
<path d="M167.528 690.397V697.178C168.441 695.002 168.441 692.574 167.528 690.397Z" fill="#365E78" fill-opacity="0.08"/>
<path d="M168.206 690.397V697.178H172.952V690.397H168.206Z" fill="white"/>
<path d="M174.309 690.397V697.178C175.221 695.002 175.221 692.574 174.309 690.397Z" fill="#365E78" fill-opacity="0.08"/>
<path d="M174.986 690.397V697.178H179.055V690.397H174.986Z" fill="white"/>
<path d="M179.055 690.397V697.178C179.967 695.002 179.967 692.574 179.055 690.397Z" fill="#365E78" fill-opacity="0.08"/>
<path d="M217.027 690.397V697.178H221.774V690.397H217.027Z" fill="white"/>
<path d="M223.13 690.397V697.178C224.043 695.002 224.043 692.574 223.13 690.397Z" fill="#365E78" fill-opacity="0.08"/>
<path d="M223.808 690.397V697.178H227.877C227.883 694.832 228.011 692.683 228.555 690.397H223.808Z" fill="white"/>
<path d="M228.555 690.397V697.178C229.467 695.002 229.467 692.574 228.555 690.397Z" fill="#365E78" fill-opacity="0.08"/>
<path d="M227.876 691.076V697.178C228.728 695.151 228.728 693.103 227.876 691.076Z" fill="white"/>
<path d="M118.705 698.535C120.477 699.281 122.207 699.206 124.13 699.213C122.358 698.467 120.628 698.541 118.705 698.535Z" fill="#365E78" fill-opacity="0.08"/>
<path d="M130.232 698.535V705.994C131.203 703.681 131.203 700.847 130.232 698.535Z" fill="#365E78" fill-opacity="0.08"/>
<path d="M167.528 698.535C169.3 699.281 171.031 699.206 172.953 699.213C171.181 698.467 169.451 698.541 167.528 698.535Z" fill="#365E78" fill-opacity="0.08"/>
<path d="M118.705 699.213V705.994H123.452V699.213H118.705Z" fill="white"/>
<path d="M123.452 699.213V705.994C124.365 703.817 124.365 701.39 123.452 699.213Z" fill="#365E78" fill-opacity="0.08"/>
<path d="M124.13 699.213V705.994H125.486V699.213H124.13Z" fill="#365E78" fill-opacity="0.08"/>
<path d="M125.486 699.213V705.994C126.399 703.817 126.399 701.39 125.486 699.213Z" fill="#365E78" fill-opacity="0.08"/>
<path d="M126.165 699.213V705.994H130.233V699.213H126.165Z" fill="white"/>
<path d="M166.849 699.213V705.994C167.762 703.817 167.762 701.39 166.849 699.213Z" fill="#365E78" fill-opacity="0.08"/>
<path d="M167.528 699.213V705.994C168.441 703.817 168.441 701.39 167.528 699.213Z" fill="#365E78" fill-opacity="0.08"/>
<path d="M168.206 699.213V705.994H172.952V699.213H168.206Z" fill="white"/>
<path d="M174.309 699.213V705.994C175.221 703.817 175.221 701.39 174.309 699.213Z" fill="#365E78" fill-opacity="0.08"/>
<path d="M174.986 699.213V705.994H179.055V699.213H174.986Z" fill="white"/>
<path d="M179.055 699.213V705.994C179.967 703.817 179.967 701.39 179.055 699.213Z" fill="#365E78" fill-opacity="0.08"/>
<path d="M217.027 699.213V705.994H221.774V699.213H217.027Z" fill="white"/>
<path d="M221.774 699.213V705.994C222.687 703.817 222.687 701.39 221.774 699.213Z" fill="#365E78" fill-opacity="0.08"/>
<path d="M223.13 699.213V705.994C224.043 703.817 224.043 701.39 223.13 699.213Z" fill="#365E78" fill-opacity="0.08"/>
<path d="M223.808 699.213V705.994H228.555C227.981 703.553 227.981 701.654 228.555 699.213H223.808Z" fill="white"/>
<path d="M228.555 699.213V705.994C229.467 703.817 229.467 701.39 228.555 699.213Z" fill="#365E78" fill-opacity="0.08"/>
<path d="M79.1507 700.114C78.8489 700.42 79.565 700.379 79.6023 700.345C79.904 700.04 79.188 700.08 79.1507 700.114Z" fill="#365E78" fill-opacity="0.08"/>
<path d="M87.2874 700.114C86.9856 700.42 87.7017 700.379 87.739 700.345C88.0407 700.04 87.3247 700.08 87.2874 700.114Z" fill="#365E78" fill-opacity="0.08"/>
<path d="M227.876 699.891V705.315C228.664 703.437 228.664 701.769 227.876 699.891Z" fill="white"/>
<path d="M256.809 700.114C256.507 700.42 257.223 700.379 257.26 700.345C257.562 700.04 256.846 700.08 256.809 700.114Z" fill="#365E78" fill-opacity="0.08"/>
<path d="M88.6438 700.793C88.3421 701.098 89.0581 701.057 89.0954 701.023C89.3972 700.718 88.6811 700.759 88.6438 700.793Z" fill="#365E78" fill-opacity="0.08"/>
<path d="M255.452 700.793C255.151 701.098 255.867 701.057 255.904 701.023C256.206 700.718 255.49 700.759 255.452 700.793Z" fill="#365E78" fill-opacity="0.08"/>
<path d="M265.626 700.793C265.32 701.098 266.039 701.057 266.073 701.023C266.378 700.718 265.659 700.759 265.626 700.793Z" fill="#365E78" fill-opacity="0.08"/>
<path d="M92.4863 704.413C92.449 704.447 92.4111 705.166 92.7128 704.861C92.7501 704.827 92.7881 704.108 92.4863 704.413ZM251.836 704.413C251.798 704.447 251.76 705.166 252.062 704.861C252.1 704.827 252.138 704.108 251.836 704.413Z" fill="#365E78" fill-opacity="0.08"/>
<path d="M251.158 705.77C251.12 705.804 251.082 706.522 251.384 706.217C251.421 706.183 251.459 705.464 251.158 705.77Z" fill="#365E78" fill-opacity="0.08"/>
<path d="M167.528 711.418C169.3 712.164 171.031 712.09 172.953 712.096C171.181 711.35 169.451 711.425 167.528 711.418Z" fill="#365E78" fill-opacity="0.08"/>
<path d="M118.705 712.096C120.477 712.842 122.207 712.767 124.13 712.774C122.358 712.028 120.628 712.103 118.705 712.096Z" fill="#365E78" fill-opacity="0.08"/>
<path d="M124.13 712.096V718.877H125.486V712.096H124.13Z" fill="#365E78" fill-opacity="0.08"/>
<path d="M125.486 712.096C127.068 712.761 128.508 712.761 130.233 712.774C128.652 712.11 127.211 712.11 125.486 712.096Z" fill="#365E78" fill-opacity="0.08"/>
<path d="M166.849 712.096V718.877C167.762 716.7 167.762 714.273 166.849 712.096Z" fill="#365E78" fill-opacity="0.08"/>
<path d="M167.528 712.096C169.3 712.842 171.031 712.767 172.953 712.774C171.181 712.028 169.451 712.103 167.528 712.096ZM174.987 712.096C176.379 712.686 177.528 712.74 179.056 712.774C177.664 712.184 176.515 712.13 174.987 712.096ZM217.028 712.096C218.609 712.761 220.051 712.761 221.775 712.774C220.194 712.11 218.753 712.11 217.028 712.096ZM223.809 712.096C225.39 712.761 226.831 712.761 228.556 712.774C226.975 712.11 225.534 712.11 223.809 712.096Z" fill="#365E78" fill-opacity="0.08"/>
<path d="M228.555 712.096V718.877C229.467 716.7 229.467 714.273 228.555 712.096Z" fill="#365E78" fill-opacity="0.08"/>
<path d="M118.705 712.774V718.877H123.452V712.774H118.705Z" fill="white"/>
<path d="M123.452 712.774V718.877C124.304 716.849 124.304 714.802 123.452 712.774Z" fill="#365E78" fill-opacity="0.08"/>
<path d="M125.486 712.774V718.877C126.338 716.849 126.338 714.802 125.486 712.774Z" fill="#365E78" fill-opacity="0.08"/>
<path d="M126.165 712.774V718.877H130.233V712.774H126.165Z" fill="white"/>
<path d="M167.528 712.774V718.877C168.38 716.849 168.38 714.802 167.528 712.774Z" fill="#365E78" fill-opacity="0.08"/>
<path d="M168.206 712.774V718.877H172.952V712.774H168.206Z" fill="white"/>
<path d="M174.309 712.774V718.877C175.16 716.849 175.16 714.802 174.309 712.774Z" fill="#365E78" fill-opacity="0.08"/>
<path d="M174.986 712.774V718.877H179.055V712.774H174.986Z" fill="white"/>
<path d="M179.055 712.774V718.877C179.906 716.849 179.906 714.802 179.055 712.774Z" fill="#365E78" fill-opacity="0.08"/>
<path d="M217.027 712.774V718.877H221.774V712.774H217.027Z" fill="white"/>
<path d="M221.774 712.774V718.877C222.626 716.849 222.626 714.802 221.774 712.774Z" fill="#365E78" fill-opacity="0.08"/>
<path d="M223.13 712.774V718.877C223.982 716.849 223.982 714.802 223.13 712.774Z" fill="#365E78" fill-opacity="0.08"/>
<path d="M223.808 712.774V718.877H227.877C227.894 716.761 228.064 714.836 228.555 712.774H223.808Z" fill="white"/>
<path d="M227.876 713.452V718.877C228.664 716.999 228.664 715.331 227.876 713.452Z" fill="white"/>
<path d="M216.35 718.877C218.121 719.623 219.852 719.548 221.774 719.555C220.002 718.809 218.273 718.884 216.35 718.877Z" fill="#365E78" fill-opacity="0.08"/>
<path d="M118.705 720.233C120.477 720.979 122.207 720.904 124.13 720.911C122.358 720.165 120.628 720.24 118.705 720.233ZM125.486 720.233C127.067 720.897 128.507 720.897 130.232 720.911C128.652 720.246 127.21 720.246 125.486 720.233Z" fill="#365E78" fill-opacity="0.08"/>
<path d="M130.232 720.233V727.692C131.203 725.38 131.203 722.545 130.232 720.233Z" fill="#365E78" fill-opacity="0.08"/>
<path d="M167.528 720.233C169.3 720.979 171.031 720.904 172.953 720.911C171.181 720.165 169.451 720.24 167.528 720.233Z" fill="#365E78" fill-opacity="0.08"/>
<path d="M118.705 720.911V727.692H123.452V720.911H118.705Z" fill="white"/>
<path d="M123.452 720.911V727.692C124.365 725.515 124.365 723.088 123.452 720.911Z" fill="#365E78" fill-opacity="0.08"/>
<path d="M124.13 720.911V727.692H125.486V720.911H124.13Z" fill="#365E78" fill-opacity="0.08"/>
<path d="M125.486 720.911V727.692C126.399 725.515 126.399 723.088 125.486 720.911Z" fill="#365E78" fill-opacity="0.08"/>
<path d="M126.165 720.911V727.692H130.233V720.911H126.165Z" fill="white"/>
<path d="M166.849 720.911V727.692C167.762 725.515 167.762 723.088 166.849 720.911Z" fill="#365E78" fill-opacity="0.08"/>
<path d="M167.528 720.911V727.692C168.441 725.515 168.441 723.088 167.528 720.911Z" fill="#365E78" fill-opacity="0.08"/>
<path d="M168.206 720.911V727.692H172.952V720.911H168.206Z" fill="white"/>
<path d="M174.309 720.911V727.692C175.221 725.515 175.221 723.088 174.309 720.911Z" fill="#365E78" fill-opacity="0.08"/>
<path d="M174.986 720.911V727.692H179.055V720.911H174.986Z" fill="white"/>
<path d="M179.055 720.911V727.692C179.967 725.515 179.967 723.088 179.055 720.911Z" fill="#365E78" fill-opacity="0.08"/>
<path d="M217.027 720.911V727.692H221.774V720.911H217.027Z" fill="white"/>
<path d="M221.774 720.911V727.692C222.687 725.515 222.687 723.088 221.774 720.911Z" fill="#365E78" fill-opacity="0.08"/>
<path d="M223.13 720.911V727.692C224.043 725.515 224.043 723.088 223.13 720.911Z" fill="#365E78" fill-opacity="0.08"/>
<path d="M223.808 720.911V727.692H228.555C227.981 725.251 227.981 723.352 228.555 720.911H223.808Z" fill="white"/>
<path d="M228.555 720.911V727.692C229.467 725.515 229.467 723.088 228.555 720.911Z" fill="#365E78" fill-opacity="0.08"/>
<path d="M227.876 721.589V727.014C228.664 725.136 228.664 723.468 227.876 721.589Z" fill="white"/>
<path d="M248.077 710.933V732.885H271.962V710.933C271.962 694.927 248.077 695.842 248.077 710.933Z" fill="white"/>
<path d="M71.1538 710.933V732.885H95.0384V710.933C95.0384 694.927 71.1538 695.842 71.1538 710.933Z" fill="white"/>
</svg>
