<svg width="1728" height="899" viewBox="0 0 1728 899" fill="none" xmlns="http://www.w3.org/2000/svg">
<rect y="189" width="1728" height="710" fill="url(#paint0_linear_112_18)"/>
<path d="M2900 189C2074.36 189 1248.75 189 423 189C441.113 228.051 474.786 253.93 504.823 284.153C549.513 329.114 593.601 374.449 638.722 418.887C726.273 505.218 813.131 592.596 898.949 680.647C948.578 731.593 998.676 797.202 1057.39 837.225C1137.18 891.612 1260.56 891.687 1345.37 851.29C1401.93 824.358 1443.13 776.853 1486.7 733.014L1680.1 538.508C1712.01 506.415 1761.99 432.128 1806.55 420.383C1841.18 411.181 1874.97 472.226 1896.1 492.35C1971.49 564.093 2048.2 673.316 2148.73 709.898C2378.88 793.611 2538.78 554.443 2678.97 413.501C2756.5 335.474 2840.02 281.914 2900 189Z" fill="#EFF2F5" fill-opacity="0.08"/>
<path d="M1583.94 59.3753V189H1611.04V61.1857H1613.57V189L1616.82 188.127V61.1857H1620.07V189H1622.97V61.1857H1625.86V188.127L1629.11 189V60.3125L1632.36 61.1857V189H1660.91V59.3753H1668.5V51.4095H1660.91V8.68409H1668.5V0.356262H1577.79V7.03477L1583.94 8.68409V51.4095H1577.79V59.3753H1583.94Z" fill="#45677C"/>
<path d="M1597.67 15.5636H1595.5V48.5129H1597.67V15.5636Z" fill="white"/>
<path d="M1605.62 48.5129H1603.09V15.5636H1605.62V48.5129Z" fill="white"/>
<path d="M1612.85 48.5129H1610.32V15.5636H1612.85V48.5129Z" fill="white"/>
<path d="M1620.07 48.5129H1618.27V15.5636H1620.07V48.5129Z" fill="white"/>
<path d="M1627.66 15.5636H1625.13V48.5129H1627.66V15.5636Z" fill="white"/>
<path d="M1634.89 15.5636H1632.36V48.5129H1634.89V15.5636Z" fill="white"/>
<path d="M1642.48 15.5636H1640.31V48.5129H1642.48V15.5636Z" fill="white"/>
<path d="M1649.71 15.5636H1647.54V48.5129H1649.71V15.5636Z" fill="white"/>
<defs>
<linearGradient id="paint0_linear_112_18" x1="864" y1="189" x2="864" y2="1589" gradientUnits="userSpaceOnUse">
<stop stop-color="#375F79"/>
<stop offset="1"/>
</linearGradient>
</defs>
</svg>
