<svg width="1728" height="753" viewBox="0 0 1728 753" fill="none" xmlns="http://www.w3.org/2000/svg">
<path d="M-1 0H1728V753H-1V0Z" fill="url(#paint0_linear_112_277)"/>
<path d="M-88 753C582.648 753 1253.27 753 1924 753C1909.29 721.296 1881.94 700.285 1857.54 675.748C1821.24 639.246 1785.43 602.44 1748.77 566.363C1677.66 496.273 1607.11 425.334 1537.4 353.848C1497.09 312.487 1456.39 259.221 1408.7 226.727C1343.89 182.572 1243.67 182.512 1174.79 215.309C1128.84 237.174 1095.38 275.742 1059.99 311.333L902.895 469.246C876.969 495.302 836.378 555.613 800.18 565.148C772.048 572.619 744.605 523.058 727.44 506.72C666.204 448.475 603.892 359.8 522.24 330.1C335.293 262.137 205.408 456.309 91.5392 570.735C28.563 634.083 -39.283 677.566 -88 753Z" fill="#EFF2F5" fill-opacity="0.08"/>
<defs>
<linearGradient id="paint0_linear_112_277" x1="863.5" y1="0" x2="863.5" y2="1484.79" gradientUnits="userSpaceOnUse">
<stop stop-color="#375F79"/>
<stop offset="1"/>
</linearGradient>
</defs>
</svg>
