<svg width="230" height="185" viewBox="0 0 230 185" fill="none" xmlns="http://www.w3.org/2000/svg">
<path d="M25.7671 0V10.1712C26.947 7.3572 26.947 2.81404 25.7671 0Z" fill="#365E78" fill-opacity="0.08"/>
<path d="M26.4452 0C26.4452 3.66165 26.6201 7.26905 25.7671 10.8493C28.1024 8.8083 27.5803 2.70555 26.4452 0Z" fill="#365E78" fill-opacity="0.08"/>
<path d="M27.1226 0V10.8493C28.3512 7.92001 28.3512 2.92932 27.1226 0ZM202.746 0V10.8493C203.973 7.92001 203.973 2.92932 202.746 0Z" fill="white"/>
<path d="M203.424 0V10.1712C204.604 7.3572 204.604 2.81404 203.424 0Z" fill="#365E78" fill-opacity="0.08"/>
<path d="M204.103 0V10.1712C205.283 7.3572 205.283 2.81404 204.103 0Z" fill="#365E78" fill-opacity="0.08"/>
<path d="M195.656 19.2354C198.193 23.7976 197.023 30.4371 197.013 35.5288C197.008 37.9932 197.063 40.2403 195.44 42.2566C190.745 48.0951 183.252 51.2859 178.69 57.2533H182.762V85.7667C182.762 91.3404 183.379 97.2943 182.083 102.739C180.673 99.0051 180.005 95.0336 178.886 91.1979C177.998 88.1632 176.748 85.5834 176.654 82.3723C168.779 84.246 159.616 83.0512 151.544 83.0512H102.682H72.1425C66.3618 83.0512 60.1475 83.7165 54.4977 82.3723C52.2155 88.4212 50.2745 95.6039 49.7472 102.06C47.5131 97.8714 48.3899 92.4538 48.3899 87.8034V57.2533H52.4618C49.5558 53.3022 45.3075 50.2675 41.6035 47.07C38.8719 44.7142 36.3033 41.9443 32.7811 40.9599V19.9143H35.4957C34.4003 18.2578 33.2141 16.71 31.966 15.1621C30.7764 13.6821 29.3661 11.3942 27.3859 10.919C24.2519 10.1654 20.8213 16.1397 20.0626 18.5565C18.6177 23.1662 19.8868 30.0026 19.8868 34.8499C19.8868 37.002 20.2445 39.609 19.1892 41.5777C16.839 45.9566 11.4255 47.8778 7.65424 50.6341C5.21315 52.4128 3.32653 54.7957 0.884766 56.5744C2.24002 57.2058 4.06084 57.4841 4.93833 58.8283C6.35941 61.0008 5.63528 64.9587 5.63528 67.4367V88.4823V184.885H15.1363V168.591C15.1363 165.292 14.78 161.64 16.3267 158.605C21.4111 148.612 33.8825 149.223 37.6985 159.963C38.6412 162.61 38.2103 165.822 38.2103 168.591V184.885H192.941C192.941 176.602 190.791 164.667 194.896 157.166C199.778 148.245 212.066 150.255 214.997 159.881C215.812 162.549 215.337 165.835 215.337 168.591V184.885H225.516V57.2533C226.772 57.2737 227.057 57.1379 228.231 56.5744C225.727 49.2696 216.49 46.5268 212.351 40.2539C210.179 36.9612 211.265 31.1635 211.265 27.3821C211.265 24.4968 210.83 21.6048 212.622 19.2354C210.905 15.6509 207.559 12.915 205.157 9.73096C201.093 11.6658 198.568 15.8953 195.656 19.2354Z" fill="#365E78" fill-opacity="0.08"/>
<path d="M24.6367 11.3036C24.5994 11.3375 24.5615 12.0562 24.8632 11.751C24.9012 11.7171 24.9385 10.9984 24.6367 11.3036ZM205.683 11.3036C205.649 11.3375 205.608 12.0562 205.913 11.751C205.947 11.7171 205.988 10.9984 205.683 11.3036Z" fill="#365E78" fill-opacity="0.08"/>
<path d="M17.6293 20.3427C20.4162 24.0179 18.995 31.4497 18.9855 35.9386C18.9821 37.7084 19.157 39.6884 18.2884 41.3022C16.3484 44.9164 12.0121 46.4014 10.1704 50.1783C13.1248 48.2254 17.8999 45.4046 19.2547 41.9803C22.462 33.8772 16.7675 24.0247 21.6978 16.2742C19.593 17.2777 18.6342 18.2406 17.6293 20.3427Z" fill="#365E78" fill-opacity="0.08"/>
<path d="M32.7739 16.7284C32.7366 16.7623 32.6987 17.481 33.0004 17.1758C33.0384 17.1419 33.0757 16.4232 32.7739 16.7284Z" fill="#365E78" fill-opacity="0.08"/>
<path d="M196.87 17.4066C196.833 17.4405 196.795 18.1592 197.097 17.8541C197.135 17.8202 197.172 17.1015 196.87 17.4066Z" fill="#365E78" fill-opacity="0.08"/>
<path d="M210.883 19.6643V40.6849C213.413 34.6567 208.869 25.6789 212.918 20.3424C212.07 19.8745 211.867 19.8338 210.883 19.6643Z" fill="#365E78" fill-opacity="0.08"/>
<path d="M32.5479 20.3425V41.3631C33.4483 39.2136 33.2259 36.9013 33.2259 34.5823C33.2259 30.229 34.241 24.3771 32.5479 20.3425Z" fill="#365E78" fill-opacity="0.08"/>
<path d="M33.2256 20.3425V41.3631C34.1261 39.2136 33.9037 36.9013 33.9037 34.5823C33.9037 30.229 34.9188 24.3771 33.2256 20.3425Z" fill="#365E78" fill-opacity="0.08"/>
<path d="M195.966 20.3425V42.0412C196.867 39.8917 196.644 37.5794 196.644 35.2604C196.644 30.724 197.729 24.5399 195.966 20.3425Z" fill="#365E78" fill-opacity="0.08"/>
<path d="M38.4251 44.9772C38.1233 45.2823 38.8394 45.2417 38.8767 45.2078C39.1784 44.9027 38.4624 44.9433 38.4251 44.9772Z" fill="white"/>
<path d="M218.797 47.6896C218.492 47.9947 219.211 47.9541 219.245 47.9202C219.55 47.6151 218.831 47.6557 218.797 47.6896Z" fill="#365E78" fill-opacity="0.08"/>
<path d="M188.282 48.3678C187.98 48.673 188.696 48.6323 188.733 48.5984C189.035 48.2933 188.319 48.3339 188.282 48.3678Z" fill="#365E78" fill-opacity="0.08"/>
<path d="M180.822 54.4704C180.52 54.7755 181.236 54.7349 181.274 54.701C181.575 54.3958 180.859 54.4365 180.822 54.4704Z" fill="white"/>
<path d="M1.13016 56.5048C0.82841 56.8099 1.54448 56.7693 1.58177 56.7354C1.88352 56.4303 1.16745 56.4709 1.13016 56.5048Z" fill="#365E78" fill-opacity="0.08"/>
<path d="M226.479 56.9591C227.68 57.488 228.541 57.5761 229.87 57.6371C228.568 56.8641 228.019 56.8438 226.479 56.9591Z" fill="#365E78" fill-opacity="0.08"/>
<path d="M228.969 56.5048C228.664 56.8099 229.382 56.7693 229.416 56.7354C229.721 56.4303 229.003 56.4709 228.969 56.5048Z" fill="#365E78" fill-opacity="0.08"/>
<path d="M0 56.959C1.1758 58.3151 2.27497 58.2609 4.0685 58.3151C2.75234 57.671 1.42533 57.3387 0 56.959ZM52.2124 56.959C50.9918 57.3387 50.0954 57.515 48.822 57.6371C49.8981 58.2541 53.0152 58.9051 52.2124 56.959ZM177.658 56.959C178.833 58.3151 179.933 58.2609 181.726 58.3151C180.41 57.671 179.084 57.3387 177.658 56.959ZM229.87 56.959C228.649 57.3387 227.754 57.515 226.48 57.6371C227.558 58.2541 230.67 58.9051 229.87 56.959Z" fill="#365E78" fill-opacity="0.08"/>
<path d="M48.144 57.6372V101.713C49.4873 98.512 48.8221 94.3079 48.8221 90.8633V69.1646C48.8221 65.5369 49.5578 61.0073 48.144 57.6372ZM181.726 57.6372V102.391C183.211 98.8511 182.404 93.996 182.404 90.1852V68.4865C182.404 65.0419 183.07 60.8378 181.726 57.6372Z" fill="#365E78" fill-opacity="0.08"/>
<path d="M18.9863 66.4523C20.946 67.2728 22.9694 67.1304 25.0891 67.1304C23.1294 66.3099 21.106 66.4523 18.9863 66.4523ZM27.1233 66.4523C29.083 67.2728 31.1064 67.1304 33.2261 67.1304C31.2664 66.3099 29.243 66.4523 27.1233 66.4523ZM195.966 66.4523C197.926 67.2728 199.949 67.1304 202.069 67.1304C200.109 66.3099 198.086 66.4523 195.966 66.4523ZM204.103 66.4523C205.873 67.1982 207.602 67.1236 209.528 67.1304C207.758 66.3845 206.029 66.4591 204.103 66.4523Z" fill="#365E78" fill-opacity="0.08"/>
<path d="M18.9863 67.1301V75.9452H25.0891V67.1301H18.9863Z" fill="white"/>
<path d="M25.0894 67.1301V75.9452C26.1682 73.3753 26.1682 69.7001 25.0894 67.1301Z" fill="#365E78" fill-opacity="0.08"/>
<path d="M26.4458 67.1301V75.2671C27.4711 72.826 27.4711 69.5712 26.4458 67.1301Z" fill="#365E78" fill-opacity="0.08"/>
<path d="M27.1226 67.1301C27.7708 69.856 27.8006 72.4802 27.8006 75.2671C29.4565 75.3417 30.9354 75.5587 32.5472 75.9452V67.1301H27.1226Z" fill="white"/>
<path d="M32.5479 67.1301V75.9452C33.6267 73.3753 33.6267 69.7001 32.5479 67.1301Z" fill="#365E78" fill-opacity="0.08"/>
<path d="M33.2256 67.1301V75.9452C34.3044 73.3753 34.3044 69.7001 33.2256 67.1301Z" fill="#365E78" fill-opacity="0.08"/>
<path d="M194.609 67.1301V75.9452C195.688 73.3753 195.688 69.7001 194.609 67.1301Z" fill="#365E78" fill-opacity="0.08"/>
<path d="M195.288 67.1301V75.9452C196.367 73.3753 196.367 69.7001 195.288 67.1301Z" fill="#365E78" fill-opacity="0.08"/>
<path d="M195.966 67.1301V75.9452H202.069V67.1301H195.966Z" fill="white"/>
<path d="M203.424 67.1301V75.9452C204.502 73.3753 204.502 69.7001 203.424 67.1301Z" fill="#365E78" fill-opacity="0.08"/>
<path d="M204.103 67.1301V75.9452H209.528V67.1301H204.103Z" fill="white"/>
<path d="M209.528 67.1301V75.9452C210.606 73.3753 210.606 69.7001 209.528 67.1301Z" fill="#365E78" fill-opacity="0.08"/>
<path d="M18.3086 67.8083V76.6234H25.0894C23.1298 75.8029 21.1064 75.9453 18.9867 75.9453C18.9867 73.2466 19.361 70.3173 18.3086 67.8083Z" fill="#365E78" fill-opacity="0.08"/>
<path d="M27.1226 67.8083V75.9453H31.8691C30.4777 75.3554 29.3284 75.3012 27.8006 75.2673C27.8006 72.7584 28.099 70.1342 27.1226 67.8083Z" fill="white"/>
<path d="M18.3086 77.3015V86.7947H25.0894C23.1298 85.9742 21.1064 86.1166 18.9867 86.1166C18.9867 83.228 19.4349 79.9867 18.3086 77.3015Z" fill="#365E78" fill-opacity="0.08"/>
<path d="M18.9863 77.3017C20.946 78.1222 22.9694 77.9798 25.0891 77.9798C23.1294 77.1593 21.106 77.3017 18.9863 77.3017ZM27.1233 77.3017C29.083 78.1222 31.1064 77.9798 33.2261 77.9798C31.2664 77.1593 29.243 77.3017 27.1233 77.3017ZM195.966 77.3017C197.926 78.1222 199.949 77.9798 202.069 77.9798C200.109 77.1593 198.086 77.3017 195.966 77.3017ZM204.103 77.3017C205.873 78.0476 207.602 77.973 209.528 77.9798C207.758 77.2339 206.029 77.3085 204.103 77.3017Z" fill="#365E78" fill-opacity="0.08"/>
<path d="M18.9863 77.9795V86.1165H25.0891V77.9795H18.9863Z" fill="white"/>
<path d="M25.0894 77.9795V86.1165C26.1146 83.6754 26.1146 80.4206 25.0894 77.9795Z" fill="#365E78" fill-opacity="0.08"/>
<path d="M26.4458 77.9795V85.4384C27.4161 83.1261 27.4161 80.2918 26.4458 77.9795Z" fill="#365E78" fill-opacity="0.08"/>
<path d="M27.1226 77.9795V86.1165H32.5472V77.9795H27.1226Z" fill="white"/>
<path d="M32.5479 77.9795V86.1165C33.5731 83.6754 33.5731 80.4206 32.5479 77.9795Z" fill="#365E78" fill-opacity="0.08"/>
<path d="M33.2256 77.9795V86.1165C34.2508 83.6754 34.2508 80.4206 33.2256 77.9795Z" fill="#365E78" fill-opacity="0.08"/>
<path d="M194.609 77.9795V86.1165C195.634 83.6754 195.634 80.4206 194.609 77.9795Z" fill="#365E78" fill-opacity="0.08"/>
<path d="M195.288 77.9795V86.1165C196.313 83.6754 196.313 80.4206 195.288 77.9795Z" fill="#365E78" fill-opacity="0.08"/>
<path d="M195.966 77.9795V86.1165H202.069V77.9795H195.966Z" fill="white"/>
<path d="M203.424 77.9795V86.1165C204.448 83.6754 204.448 80.4206 203.424 77.9795Z" fill="#365E78" fill-opacity="0.08"/>
<path d="M204.103 77.9795V86.1165H209.528V77.9795H204.103Z" fill="white"/>
<path d="M209.528 77.9795V86.1165C210.552 83.6754 210.552 80.4206 209.528 77.9795Z" fill="#365E78" fill-opacity="0.08"/>
<path d="M54.9248 82.7263C58.2942 84.1435 62.8245 83.4044 66.4522 83.4044H90.8632H175.624C172.254 81.9872 167.724 82.7263 164.096 82.7263H139.685H54.9248Z" fill="#365E78" fill-opacity="0.08"/>
<path d="M176.302 84.7605V87.4728C176.783 86.2794 176.783 85.9539 176.302 84.7605Z" fill="#365E78" fill-opacity="0.08"/>
<path d="M27.1226 86.1167C29.0822 86.9371 31.1056 86.7947 33.2253 86.7947C31.2656 85.9743 29.2422 86.1167 27.1226 86.1167ZM195.287 86.1167C197.432 87.0185 199.753 86.7947 202.068 86.7947C199.923 85.8929 197.603 86.1167 195.287 86.1167ZM203.424 86.1167C205.384 86.9371 207.404 86.7947 209.527 86.7947C207.567 85.9743 205.546 86.1167 203.424 86.1167Z" fill="#365E78" fill-opacity="0.08"/>
<path d="M18.9863 92.8974C20.946 93.7179 22.9694 93.5755 25.0891 93.5755C23.1294 92.755 21.106 92.8974 18.9863 92.8974ZM27.1233 92.8974C29.083 93.7179 31.1064 93.5755 33.2261 93.5755C31.2664 92.755 29.243 92.8974 27.1233 92.8974ZM195.288 92.8974C197.433 93.7993 199.754 93.5755 202.069 93.5755C199.924 92.6736 197.604 92.8974 195.288 92.8974ZM204.103 92.8974C205.873 93.6433 207.602 93.5687 209.528 93.5755C207.758 92.8296 206.029 92.9042 204.103 92.8974Z" fill="#365E78" fill-opacity="0.08"/>
<path d="M18.9863 93.5754V101.712H25.0891V93.5754H18.9863Z" fill="white"/>
<path d="M25.0894 93.5754V101.712C26.1146 99.2713 26.1146 96.0165 25.0894 93.5754Z" fill="#365E78" fill-opacity="0.08"/>
<path d="M25.7671 93.5754V101.712H27.1233V93.5754H25.7671Z" fill="#365E78" fill-opacity="0.08"/>
<path d="M27.1226 93.5754V101.712H32.5472V93.5754H27.1226Z" fill="white"/>
<path d="M32.5479 93.5754V101.712C33.5731 99.2713 33.5731 96.0165 32.5479 93.5754Z" fill="#365E78" fill-opacity="0.08"/>
<path d="M33.2256 93.5754V101.712C34.2508 99.2713 34.2508 96.0165 33.2256 93.5754Z" fill="#365E78" fill-opacity="0.08"/>
<path d="M194.609 93.5754V101.712C195.634 99.2713 195.634 96.0165 194.609 93.5754Z" fill="#365E78" fill-opacity="0.08"/>
<path d="M195.288 93.5754V101.712C196.313 99.2713 196.313 96.0165 195.288 93.5754Z" fill="#365E78" fill-opacity="0.08"/>
<path d="M195.966 93.5754V101.712H202.069V93.5754H195.966Z" fill="white"/>
<path d="M203.424 93.5754V101.712C204.448 99.2713 204.448 96.0165 203.424 93.5754Z" fill="#365E78" fill-opacity="0.08"/>
<path d="M204.103 93.5754V101.712H209.528V93.5754H204.103Z" fill="white"/>
<path d="M209.528 93.5754V101.712C210.552 99.2713 210.552 96.0165 209.528 93.5754Z" fill="#365E78" fill-opacity="0.08"/>
<path d="M202.068 94.2534V101.712C203.038 99.4001 203.038 96.5657 202.068 94.2534Z" fill="#365E78" fill-opacity="0.08"/>
<path d="M18.9863 101.712C20.946 102.533 22.9694 102.39 25.0891 102.39C23.1294 101.57 21.106 101.712 18.9863 101.712ZM27.1233 101.712C29.083 102.533 31.1064 102.39 33.2261 102.39C31.2664 101.57 29.243 101.712 27.1233 101.712Z" fill="#365E78" fill-opacity="0.08"/>
<path d="M195.966 101.712C197.926 102.533 199.949 102.39 202.069 102.39C200.109 101.57 198.086 101.712 195.966 101.712ZM204.103 101.712C205.873 102.458 207.602 102.384 209.528 102.39C207.758 101.645 206.029 101.719 204.103 101.712Z" fill="#365E78" fill-opacity="0.08"/>
<path d="M18.9863 103.747C20.946 104.567 22.9694 104.425 25.0891 104.425C23.1294 103.604 21.106 103.747 18.9863 103.747ZM27.1233 103.747C29.083 104.567 31.1064 104.425 33.2261 104.425C31.2664 103.604 29.243 103.747 27.1233 103.747ZM195.288 103.747C197.433 104.648 199.754 104.425 202.069 104.425C199.924 103.523 197.604 103.747 195.288 103.747ZM204.103 103.747C205.873 104.492 207.602 104.418 209.528 104.425C207.758 103.679 206.029 103.753 204.103 103.747Z" fill="#365E78" fill-opacity="0.08"/>
<path d="M18.9863 104.425V112.562H25.0891V104.425H18.9863Z" fill="white"/>
<path d="M25.0894 104.425V112.562C26.1146 110.121 26.1146 106.866 25.0894 104.425Z" fill="#365E78" fill-opacity="0.08"/>
<path d="M25.7671 104.425V112.562H27.1233V104.425H25.7671Z" fill="#365E78" fill-opacity="0.08"/>
<path d="M27.1226 104.425V112.562H32.5472V104.425H27.1226Z" fill="white"/>
<path d="M32.5479 104.425V112.562C33.5731 110.121 33.5731 106.866 32.5479 104.425Z" fill="#365E78" fill-opacity="0.08"/>
<path d="M33.2256 104.425V112.562C34.2508 110.121 34.2508 106.866 33.2256 104.425Z" fill="#365E78" fill-opacity="0.08"/>
<path d="M194.609 104.425V112.562C195.634 110.121 195.634 106.866 194.609 104.425Z" fill="#365E78" fill-opacity="0.08"/>
<path d="M195.288 104.425V112.562C196.313 110.121 196.313 106.866 195.288 104.425Z" fill="#365E78" fill-opacity="0.08"/>
<path d="M195.966 104.425V112.562H202.069V104.425H195.966Z" fill="white"/>
<path d="M203.424 104.425V112.562C204.448 110.121 204.448 106.866 203.424 104.425Z" fill="#365E78" fill-opacity="0.08"/>
<path d="M204.103 104.425V112.562H209.528V104.425H204.103Z" fill="white"/>
<path d="M209.528 104.425V112.562C210.552 110.121 210.552 106.866 209.528 104.425Z" fill="#365E78" fill-opacity="0.08"/>
<path d="M202.068 105.103V112.561C203.038 110.249 203.038 107.415 202.068 105.103Z" fill="#365E78" fill-opacity="0.08"/>
<path d="M18.9863 112.562C20.946 113.382 22.9694 113.24 25.0891 113.24C23.1294 112.42 21.106 112.562 18.9863 112.562ZM27.1233 112.562C29.083 113.382 31.1064 113.24 33.2261 113.24C31.2664 112.42 29.243 112.562 27.1233 112.562ZM195.966 112.562C197.926 113.382 199.949 113.24 202.069 113.24C200.109 112.42 198.086 112.562 195.966 112.562ZM204.103 112.562C205.873 113.308 207.602 113.233 209.528 113.24C207.758 112.494 206.029 112.569 204.103 112.562Z" fill="#365E78" fill-opacity="0.08"/>
<path d="M61.7051 119.343C63.4769 120.089 65.2067 120.014 67.1297 120.021C65.3579 119.275 63.6281 119.35 61.7051 119.343ZM68.4859 119.343C70.0672 120.007 71.5081 120.007 73.2325 120.021C71.6519 119.356 70.2103 119.356 68.4859 119.343Z" fill="#365E78" fill-opacity="0.08"/>
<path d="M73.2324 119.343V126.124C74.1451 123.947 74.1451 121.519 73.2324 119.343Z" fill="#365E78" fill-opacity="0.08"/>
<path d="M110.528 119.343C112.3 120.089 114.031 120.014 115.953 120.021C114.181 119.275 112.451 119.35 110.528 119.343ZM117.987 119.343C119.379 119.933 120.528 119.987 122.056 120.021C120.664 119.431 119.515 119.377 117.987 119.343ZM160.028 119.343C161.609 120.007 163.051 120.007 164.775 120.021C163.194 119.356 161.753 119.356 160.028 119.343ZM166.809 119.343C168.39 120.007 169.831 120.007 171.556 120.021C169.975 119.356 168.534 119.356 166.809 119.343Z" fill="#365E78" fill-opacity="0.08"/>
<path d="M18.9863 120.021C20.946 120.841 22.9694 120.699 25.0891 120.699C23.1294 119.878 21.106 120.021 18.9863 120.021ZM27.1233 120.021C29.083 120.841 31.1064 120.699 33.2261 120.699C31.2664 119.878 29.243 120.021 27.1233 120.021Z" fill="#365E78" fill-opacity="0.08"/>
<path d="M61.7051 120.021V126.802H66.4517V120.021H61.7051Z" fill="white"/>
<path d="M66.4521 120.021V126.802C67.3648 124.625 67.3648 122.197 66.4521 120.021Z" fill="#365E78" fill-opacity="0.08"/>
<path d="M67.1299 120.021V126.802H68.486V120.021H67.1299Z" fill="#365E78" fill-opacity="0.08"/>
<path d="M68.4863 120.021V126.802C69.399 124.625 69.399 122.197 68.4863 120.021Z" fill="#365E78" fill-opacity="0.08"/>
<path d="M69.1646 120.021V126.802H73.233V120.021H69.1646Z" fill="white"/>
<path d="M109.849 120.021V126.802C110.762 124.625 110.762 122.197 109.849 120.021Z" fill="#365E78" fill-opacity="0.08"/>
<path d="M110.528 120.021V126.802C111.441 124.625 111.441 122.197 110.528 120.021Z" fill="#365E78" fill-opacity="0.08"/>
<path d="M111.206 120.021V126.802H115.952V120.021H111.206Z" fill="white"/>
<path d="M117.309 120.021V126.802C118.221 124.625 118.221 122.197 117.309 120.021Z" fill="#365E78" fill-opacity="0.08"/>
<path d="M117.986 120.021V126.802H122.055V120.021H117.986Z" fill="white"/>
<path d="M122.055 120.021V126.802C122.967 124.625 122.967 122.197 122.055 120.021Z" fill="#365E78" fill-opacity="0.08"/>
<path d="M160.027 120.021V126.802H164.774V120.021H160.027Z" fill="white"/>
<path d="M164.774 120.021V126.802C165.687 124.625 165.687 122.197 164.774 120.021Z" fill="#365E78" fill-opacity="0.08"/>
<path d="M166.13 120.021V126.802C167.043 124.625 167.043 122.197 166.13 120.021Z" fill="#365E78" fill-opacity="0.08"/>
<path d="M166.808 120.021V126.802H171.555C170.981 124.36 170.981 122.462 171.555 120.021H166.808Z" fill="white"/>
<path d="M171.555 120.021V126.802C172.467 124.625 172.467 122.197 171.555 120.021Z" fill="#365E78" fill-opacity="0.08"/>
<path d="M195.966 120.021C197.926 120.841 199.949 120.699 202.069 120.699C200.109 119.878 198.086 120.021 195.966 120.021ZM204.103 120.021C205.873 120.767 207.602 120.692 209.528 120.699C207.758 119.953 206.029 120.027 204.103 120.021Z" fill="#365E78" fill-opacity="0.08"/>
<path d="M18.9863 120.699V128.836H25.0891V120.699H18.9863Z" fill="white"/>
<path d="M25.0894 120.699V128.836C26.1146 126.395 26.1146 123.14 25.0894 120.699Z" fill="#365E78" fill-opacity="0.08"/>
<path d="M26.4458 120.699V128.158C27.4161 125.846 27.4161 123.011 26.4458 120.699Z" fill="#365E78" fill-opacity="0.08"/>
<path d="M27.1226 120.699V128.836H32.5472V120.699H27.1226Z" fill="white"/>
<path d="M32.5479 120.699V128.836C33.5731 126.395 33.5731 123.14 32.5479 120.699Z" fill="#365E78" fill-opacity="0.08"/>
<path d="M33.2256 120.699V128.836C34.2508 126.395 34.2508 123.14 33.2256 120.699Z" fill="#365E78" fill-opacity="0.08"/>
<path d="M170.876 120.699V126.124C171.664 124.245 171.664 122.577 170.876 120.699Z" fill="white"/>
<path d="M194.609 120.699V128.836C195.634 126.395 195.634 123.14 194.609 120.699Z" fill="#365E78" fill-opacity="0.08"/>
<path d="M195.288 120.699V128.836C196.313 126.395 196.313 123.14 195.288 120.699Z" fill="#365E78" fill-opacity="0.08"/>
<path d="M195.966 120.699V128.836H202.069V120.699H195.966Z" fill="white"/>
<path d="M203.424 120.699V128.836C204.448 126.395 204.448 123.14 203.424 120.699Z" fill="#365E78" fill-opacity="0.08"/>
<path d="M204.103 120.699V128.836H209.528V120.699H204.103Z" fill="white"/>
<path d="M209.528 120.699V128.836C210.552 126.395 210.552 123.14 209.528 120.699Z" fill="#365E78" fill-opacity="0.08"/>
<path d="M18.3086 121.377V129.514H25.0894C23.1298 128.693 21.1064 128.836 18.9867 128.836C18.9867 126.327 19.285 123.703 18.3086 121.377Z" fill="#365E78" fill-opacity="0.08"/>
<path d="M27.1226 128.836C28.8944 129.582 30.6249 129.507 32.5472 129.514C30.7754 128.768 29.0456 128.842 27.1226 128.836Z" fill="#365E78" fill-opacity="0.08"/>
<path d="M61.7051 128.836V135.617H66.4517V128.836H61.7051Z" fill="white"/>
<path d="M66.4521 128.836V135.617C67.3648 133.44 67.3648 131.012 66.4521 128.836Z" fill="#365E78" fill-opacity="0.08"/>
<path d="M67.1299 128.836V135.617H68.486V128.836H67.1299Z" fill="#365E78" fill-opacity="0.08"/>
<path d="M68.4863 128.836V135.617C69.399 133.44 69.399 131.012 68.4863 128.836Z" fill="#365E78" fill-opacity="0.08"/>
<path d="M69.1646 128.836V135.617H73.233V128.836H69.1646Z" fill="white"/>
<path d="M73.2324 128.836V135.617C74.1451 133.44 74.1451 131.012 73.2324 128.836Z" fill="#365E78" fill-opacity="0.08"/>
<path d="M109.849 128.836V135.617C110.762 133.44 110.762 131.012 109.849 128.836Z" fill="#365E78" fill-opacity="0.08"/>
<path d="M110.528 128.836V135.617C111.441 133.44 111.441 131.012 110.528 128.836Z" fill="#365E78" fill-opacity="0.08"/>
<path d="M111.206 128.836V135.617H115.952V128.836H111.206Z" fill="white"/>
<path d="M117.309 128.836V135.617C118.221 133.44 118.221 131.012 117.309 128.836Z" fill="#365E78" fill-opacity="0.08"/>
<path d="M117.986 128.836V135.617H122.055V128.836H117.986Z" fill="white"/>
<path d="M122.055 128.836V135.617C122.967 133.44 122.967 131.012 122.055 128.836Z" fill="#365E78" fill-opacity="0.08"/>
<path d="M160.027 128.836V135.617H164.774V128.836H160.027Z" fill="white"/>
<path d="M164.774 128.836V135.617C165.687 133.44 165.687 131.012 164.774 128.836Z" fill="#365E78" fill-opacity="0.08"/>
<path d="M166.13 128.836V135.617C167.043 133.44 167.043 131.012 166.13 128.836Z" fill="#365E78" fill-opacity="0.08"/>
<path d="M166.808 128.836V135.617H171.555C170.981 133.175 170.981 131.277 171.555 128.836H166.808Z" fill="white"/>
<path d="M171.555 128.836V135.617C172.467 133.44 172.467 131.012 171.555 128.836Z" fill="#365E78" fill-opacity="0.08"/>
<path d="M195.288 128.836C197.248 129.656 199.271 129.514 201.391 129.514C199.431 128.693 197.408 128.836 195.288 128.836ZM203.425 128.836C205.385 129.656 207.405 129.514 209.528 129.514C207.568 128.693 205.547 128.836 203.425 128.836Z" fill="#365E78" fill-opacity="0.08"/>
<path d="M170.876 129.514V134.939C171.664 133.06 171.664 131.392 170.876 129.514Z" fill="white"/>
<path d="M18.9863 130.87C20.946 131.691 22.9694 131.548 25.0891 131.548C23.1294 130.728 21.106 130.87 18.9863 130.87ZM27.1233 130.87C29.083 131.691 31.1064 131.548 33.2261 131.548C31.2664 130.728 29.243 130.87 27.1233 130.87ZM195.966 130.87C197.926 131.691 199.949 131.548 202.069 131.548C200.109 130.728 198.086 130.87 195.966 130.87ZM204.103 130.87C205.873 131.616 207.602 131.541 209.528 131.548C207.758 130.802 206.029 130.877 204.103 130.87Z" fill="#365E78" fill-opacity="0.08"/>
<path d="M18.9863 131.548V139.685H25.0891V131.548H18.9863Z" fill="white"/>
<path d="M25.0894 131.548V139.685C26.1146 137.244 26.1146 133.989 25.0894 131.548Z" fill="#365E78" fill-opacity="0.08"/>
<path d="M26.4458 131.548V139.007C27.4161 136.695 27.4161 133.861 26.4458 131.548Z" fill="#365E78" fill-opacity="0.08"/>
<path d="M27.1226 131.548V139.685H32.5472V131.548H27.1226Z" fill="white"/>
<path d="M32.5479 131.548V139.685C33.5731 137.244 33.5731 133.989 32.5479 131.548Z" fill="#365E78" fill-opacity="0.08"/>
<path d="M33.2256 131.548V139.685C34.2508 137.244 34.2508 133.989 33.2256 131.548Z" fill="#365E78" fill-opacity="0.08"/>
<path d="M194.609 131.548V139.685C195.634 137.244 195.634 133.989 194.609 131.548Z" fill="#365E78" fill-opacity="0.08"/>
<path d="M195.288 131.548V139.685C196.313 137.244 196.313 133.989 195.288 131.548Z" fill="#365E78" fill-opacity="0.08"/>
<path d="M195.966 131.548V139.685H202.069V131.548H195.966Z" fill="white"/>
<path d="M203.424 131.548V139.685C204.448 137.244 204.448 133.989 203.424 131.548Z" fill="#365E78" fill-opacity="0.08"/>
<path d="M204.103 131.548V139.685H209.528V131.548H204.103Z" fill="white"/>
<path d="M209.528 131.548V139.685C210.552 137.244 210.552 133.989 209.528 131.548Z" fill="#365E78" fill-opacity="0.08"/>
<path d="M18.3086 132.226V140.363H25.0894C23.1298 139.543 21.1064 139.685 18.9867 139.685C18.9867 137.176 19.285 134.552 18.3086 132.226Z" fill="#365E78" fill-opacity="0.08"/>
<path d="M61.7051 135.616C63.4769 136.362 65.2067 136.288 67.1297 136.295C65.3579 135.549 63.6281 135.623 61.7051 135.616ZM110.527 135.616C112.299 136.362 114.029 136.288 115.952 136.295C114.18 135.549 112.45 135.623 110.527 135.616Z" fill="#365E78" fill-opacity="0.08"/>
<path d="M27.1226 139.685C29.0822 140.506 31.1056 140.363 33.2253 140.363C31.2656 139.543 29.2422 139.685 27.1226 139.685ZM195.287 139.685C197.432 140.587 199.753 140.363 202.068 140.363C199.923 139.461 197.603 139.685 195.287 139.685ZM203.424 139.685C205.384 140.506 207.404 140.363 209.527 140.363C207.567 139.543 205.546 139.685 203.424 139.685Z" fill="#365E78" fill-opacity="0.08"/>
<path d="M61.7051 141.72C63.4769 142.466 65.2067 142.391 67.1297 142.398C65.3579 141.652 63.6281 141.727 61.7051 141.72Z" fill="#365E78" fill-opacity="0.08"/>
<path d="M67.1299 141.72V149.179H68.486V141.72H67.1299Z" fill="#365E78" fill-opacity="0.08"/>
<path d="M68.4863 141.72C70.0676 142.384 71.5079 142.384 73.2329 142.398C71.6523 141.733 70.2107 141.733 68.4863 141.72Z" fill="#365E78" fill-opacity="0.08"/>
<path d="M73.2324 141.72V149.179C74.2028 146.866 74.2028 144.032 73.2324 141.72Z" fill="#365E78" fill-opacity="0.08"/>
<path d="M110.528 141.72C112.3 142.466 114.031 142.391 115.953 142.398C114.181 141.652 112.451 141.727 110.528 141.72ZM117.987 141.72C119.379 142.31 120.528 142.364 122.056 142.398C120.664 141.808 119.515 141.754 117.987 141.72ZM160.028 141.72C161.609 142.384 163.051 142.384 164.775 142.398V149.179C166.732 144.513 164.821 141.774 160.028 141.72ZM166.809 141.72C168.39 142.384 169.831 142.384 171.556 142.398C169.975 141.733 168.534 141.733 166.809 141.72Z" fill="#365E78" fill-opacity="0.08"/>
<path d="M61.7051 142.397V149.178H66.4517V142.397H61.7051Z" fill="white"/>
<path d="M66.4521 142.397V149.178C67.3648 147.002 67.3648 144.574 66.4521 142.397Z" fill="#365E78" fill-opacity="0.08"/>
<path d="M68.4863 142.397V149.178C69.399 147.002 69.399 144.574 68.4863 142.397Z" fill="#365E78" fill-opacity="0.08"/>
<path d="M69.1646 142.397V149.178H73.233V142.397H69.1646Z" fill="white"/>
<path d="M109.849 142.397V149.178C110.762 147.002 110.762 144.574 109.849 142.397Z" fill="#365E78" fill-opacity="0.08"/>
<path d="M110.528 142.397V149.178C111.441 147.002 111.441 144.574 110.528 142.397Z" fill="#365E78" fill-opacity="0.08"/>
<path d="M111.206 142.397V149.178H115.952V142.397H111.206Z" fill="white"/>
<path d="M117.309 142.397V149.178C118.221 147.002 118.221 144.574 117.309 142.397Z" fill="#365E78" fill-opacity="0.08"/>
<path d="M117.986 142.397V149.178H122.055V142.397H117.986Z" fill="white"/>
<path d="M122.055 142.397V149.178C122.967 147.002 122.967 144.574 122.055 142.397Z" fill="#365E78" fill-opacity="0.08"/>
<path d="M160.027 142.397V149.178H164.774V142.397H160.027Z" fill="white"/>
<path d="M166.13 142.397V149.178C167.043 147.002 167.043 144.574 166.13 142.397Z" fill="#365E78" fill-opacity="0.08"/>
<path d="M166.808 142.397V149.178H170.877C170.883 146.832 171.011 144.683 171.555 142.397H166.808Z" fill="white"/>
<path d="M171.555 142.397V149.178C172.467 147.002 172.467 144.574 171.555 142.397Z" fill="#365E78" fill-opacity="0.08"/>
<path d="M170.876 143.076V149.178C171.728 147.151 171.728 145.103 170.876 143.076Z" fill="white"/>
<path d="M61.7051 150.535C63.4769 151.281 65.2067 151.206 67.1297 151.213C65.3579 150.467 63.6281 150.541 61.7051 150.535Z" fill="#365E78" fill-opacity="0.08"/>
<path d="M73.2324 150.535V157.994C74.2028 155.681 74.2028 152.847 73.2324 150.535Z" fill="#365E78" fill-opacity="0.08"/>
<path d="M110.528 150.535C112.3 151.281 114.031 151.206 115.953 151.213C114.181 150.467 112.451 150.541 110.528 150.535Z" fill="#365E78" fill-opacity="0.08"/>
<path d="M61.7051 151.213V157.994H66.4517V151.213H61.7051Z" fill="white"/>
<path d="M66.4521 151.213V157.994C67.3648 155.817 67.3648 153.39 66.4521 151.213Z" fill="#365E78" fill-opacity="0.08"/>
<path d="M67.1299 151.213V157.994H68.486V151.213H67.1299Z" fill="#365E78" fill-opacity="0.08"/>
<path d="M68.4863 151.213V157.994C69.399 155.817 69.399 153.39 68.4863 151.213Z" fill="#365E78" fill-opacity="0.08"/>
<path d="M69.1646 151.213V157.994H73.233V151.213H69.1646Z" fill="white"/>
<path d="M109.849 151.213V157.994C110.762 155.817 110.762 153.39 109.849 151.213Z" fill="#365E78" fill-opacity="0.08"/>
<path d="M110.528 151.213V157.994C111.441 155.817 111.441 153.39 110.528 151.213Z" fill="#365E78" fill-opacity="0.08"/>
<path d="M111.206 151.213V157.994H115.952V151.213H111.206Z" fill="white"/>
<path d="M117.309 151.213V157.994C118.221 155.817 118.221 153.39 117.309 151.213Z" fill="#365E78" fill-opacity="0.08"/>
<path d="M117.986 151.213V157.994H122.055V151.213H117.986Z" fill="white"/>
<path d="M122.055 151.213V157.994C122.967 155.817 122.967 153.39 122.055 151.213Z" fill="#365E78" fill-opacity="0.08"/>
<path d="M160.027 151.213V157.994H164.774V151.213H160.027Z" fill="white"/>
<path d="M164.774 151.213V157.994C165.687 155.817 165.687 153.39 164.774 151.213Z" fill="#365E78" fill-opacity="0.08"/>
<path d="M166.13 151.213V157.994C167.043 155.817 167.043 153.39 166.13 151.213Z" fill="#365E78" fill-opacity="0.08"/>
<path d="M166.808 151.213V157.994H171.555C170.981 155.553 170.981 153.654 171.555 151.213H166.808Z" fill="white"/>
<path d="M171.555 151.213V157.994C172.467 155.817 172.467 153.39 171.555 151.213Z" fill="#365E78" fill-opacity="0.08"/>
<path d="M22.1507 152.114C21.8489 152.42 22.565 152.379 22.6023 152.345C22.904 152.04 22.188 152.08 22.1507 152.114Z" fill="#365E78" fill-opacity="0.08"/>
<path d="M30.2874 152.114C29.9856 152.42 30.7017 152.379 30.739 152.345C31.0407 152.04 30.3247 152.08 30.2874 152.114Z" fill="#365E78" fill-opacity="0.08"/>
<path d="M170.876 151.891V157.315C171.664 155.437 171.664 153.769 170.876 151.891Z" fill="white"/>
<path d="M199.809 152.114C199.507 152.42 200.223 152.379 200.26 152.345C200.562 152.04 199.846 152.08 199.809 152.114Z" fill="#365E78" fill-opacity="0.08"/>
<path d="M31.6438 152.793C31.3421 153.098 32.0581 153.057 32.0954 153.023C32.3972 152.718 31.6811 152.759 31.6438 152.793Z" fill="#365E78" fill-opacity="0.08"/>
<path d="M198.452 152.793C198.151 153.098 198.867 153.057 198.904 153.023C199.206 152.718 198.49 152.759 198.452 152.793Z" fill="#365E78" fill-opacity="0.08"/>
<path d="M208.626 152.793C208.32 153.098 209.039 153.057 209.073 153.023C209.378 152.718 208.659 152.759 208.626 152.793Z" fill="#365E78" fill-opacity="0.08"/>
<path d="M35.4863 156.413C35.449 156.447 35.4111 157.166 35.7128 156.861C35.7501 156.827 35.7881 156.108 35.4863 156.413ZM194.836 156.413C194.798 156.447 194.76 157.166 195.062 156.861C195.1 156.827 195.138 156.108 194.836 156.413Z" fill="#365E78" fill-opacity="0.08"/>
<path d="M194.158 157.77C194.12 157.804 194.082 158.522 194.384 158.217C194.421 158.183 194.459 157.464 194.158 157.77Z" fill="#365E78" fill-opacity="0.08"/>
<path d="M110.528 163.418C112.3 164.164 114.031 164.09 115.953 164.096C114.181 163.35 112.451 163.425 110.528 163.418Z" fill="#365E78" fill-opacity="0.08"/>
<path d="M61.7051 164.096C63.4769 164.842 65.2067 164.767 67.1297 164.774C65.3579 164.028 63.6281 164.103 61.7051 164.096Z" fill="#365E78" fill-opacity="0.08"/>
<path d="M67.1299 164.096V170.877H68.486V164.096H67.1299Z" fill="#365E78" fill-opacity="0.08"/>
<path d="M68.4863 164.096C70.0676 164.761 71.5079 164.761 73.2329 164.774C71.6523 164.11 70.2107 164.11 68.4863 164.096Z" fill="#365E78" fill-opacity="0.08"/>
<path d="M109.849 164.096V170.877C110.762 168.7 110.762 166.273 109.849 164.096Z" fill="#365E78" fill-opacity="0.08"/>
<path d="M110.528 164.096C112.3 164.842 114.031 164.767 115.953 164.774C114.181 164.028 112.451 164.103 110.528 164.096ZM117.987 164.096C119.379 164.686 120.528 164.74 122.056 164.774C120.664 164.184 119.515 164.13 117.987 164.096ZM160.028 164.096C161.609 164.761 163.051 164.761 164.775 164.774C163.194 164.11 161.753 164.11 160.028 164.096ZM166.809 164.096C168.39 164.761 169.831 164.761 171.556 164.774C169.975 164.11 168.534 164.11 166.809 164.096Z" fill="#365E78" fill-opacity="0.08"/>
<path d="M171.555 164.096V170.877C172.467 168.7 172.467 166.273 171.555 164.096Z" fill="#365E78" fill-opacity="0.08"/>
<path d="M61.7051 164.774V170.877H66.4517V164.774H61.7051Z" fill="white"/>
<path d="M66.4521 164.774V170.877C67.3038 168.849 67.3038 166.802 66.4521 164.774Z" fill="#365E78" fill-opacity="0.08"/>
<path d="M68.4863 164.774V170.877C69.338 168.849 69.338 166.802 68.4863 164.774Z" fill="#365E78" fill-opacity="0.08"/>
<path d="M69.1646 164.774V170.877H73.233V164.774H69.1646Z" fill="white"/>
<path d="M110.528 164.774V170.877C111.38 168.849 111.38 166.802 110.528 164.774Z" fill="#365E78" fill-opacity="0.08"/>
<path d="M111.206 164.774V170.877H115.952V164.774H111.206Z" fill="white"/>
<path d="M117.309 164.774V170.877C118.16 168.849 118.16 166.802 117.309 164.774Z" fill="#365E78" fill-opacity="0.08"/>
<path d="M117.986 164.774V170.877H122.055V164.774H117.986Z" fill="white"/>
<path d="M122.055 164.774V170.877C122.906 168.849 122.906 166.802 122.055 164.774Z" fill="#365E78" fill-opacity="0.08"/>
<path d="M160.027 164.774V170.877H164.774V164.774H160.027Z" fill="white"/>
<path d="M164.774 164.774V170.877C165.626 168.849 165.626 166.802 164.774 164.774Z" fill="#365E78" fill-opacity="0.08"/>
<path d="M166.13 164.774V170.877C166.982 168.849 166.982 166.802 166.13 164.774Z" fill="#365E78" fill-opacity="0.08"/>
<path d="M166.808 164.774V170.877H170.877C170.894 168.761 171.064 166.836 171.555 164.774H166.808Z" fill="white"/>
<path d="M170.876 165.452V170.877C171.664 168.999 171.664 167.331 170.876 165.452Z" fill="white"/>
<path d="M159.35 170.877C161.121 171.623 162.852 171.548 164.774 171.555C163.002 170.809 161.273 170.884 159.35 170.877Z" fill="#365E78" fill-opacity="0.08"/>
<path d="M61.7051 172.233C63.4769 172.979 65.2067 172.904 67.1297 172.911C65.3579 172.165 63.6281 172.24 61.7051 172.233ZM68.4859 172.233C70.0672 172.897 71.5074 172.897 73.2325 172.911C71.6519 172.246 70.2103 172.246 68.4859 172.233Z" fill="#365E78" fill-opacity="0.08"/>
<path d="M73.2324 172.233V179.692C74.2028 177.38 74.2028 174.545 73.2324 172.233Z" fill="#365E78" fill-opacity="0.08"/>
<path d="M110.528 172.233C112.3 172.979 114.031 172.904 115.953 172.911C114.181 172.165 112.451 172.24 110.528 172.233Z" fill="#365E78" fill-opacity="0.08"/>
<path d="M61.7051 172.911V179.692H66.4517V172.911H61.7051Z" fill="white"/>
<path d="M66.4521 172.911V179.692C67.3648 177.515 67.3648 175.088 66.4521 172.911Z" fill="#365E78" fill-opacity="0.08"/>
<path d="M67.1299 172.911V179.692H68.486V172.911H67.1299Z" fill="#365E78" fill-opacity="0.08"/>
<path d="M68.4863 172.911V179.692C69.399 177.515 69.399 175.088 68.4863 172.911Z" fill="#365E78" fill-opacity="0.08"/>
<path d="M69.1646 172.911V179.692H73.233V172.911H69.1646Z" fill="white"/>
<path d="M109.849 172.911V179.692C110.762 177.515 110.762 175.088 109.849 172.911Z" fill="#365E78" fill-opacity="0.08"/>
<path d="M110.528 172.911V179.692C111.441 177.515 111.441 175.088 110.528 172.911Z" fill="#365E78" fill-opacity="0.08"/>
<path d="M111.206 172.911V179.692H115.952V172.911H111.206Z" fill="white"/>
<path d="M117.309 172.911V179.692C118.221 177.515 118.221 175.088 117.309 172.911Z" fill="#365E78" fill-opacity="0.08"/>
<path d="M117.986 172.911V179.692H122.055V172.911H117.986Z" fill="white"/>
<path d="M122.055 172.911V179.692C122.967 177.515 122.967 175.088 122.055 172.911Z" fill="#365E78" fill-opacity="0.08"/>
<path d="M160.027 172.911V179.692H164.774V172.911H160.027Z" fill="white"/>
<path d="M164.774 172.911V179.692C165.687 177.515 165.687 175.088 164.774 172.911Z" fill="#365E78" fill-opacity="0.08"/>
<path d="M166.13 172.911V179.692C167.043 177.515 167.043 175.088 166.13 172.911Z" fill="#365E78" fill-opacity="0.08"/>
<path d="M166.808 172.911V179.692H171.555C170.981 177.251 170.981 175.352 171.555 172.911H166.808Z" fill="white"/>
<path d="M171.555 172.911V179.692C172.467 177.515 172.467 175.088 171.555 172.911Z" fill="#365E78" fill-opacity="0.08"/>
<path d="M170.876 173.589V179.014C171.664 177.136 171.664 175.468 170.876 173.589Z" fill="white"/>
<path d="M191.077 162.933V184.885H214.962V162.933C214.962 146.927 191.077 147.842 191.077 162.933Z" fill="white"/>
<path d="M14.1538 162.933V184.885H38.0384V162.933C38.0384 146.927 14.1538 147.842 14.1538 162.933Z" fill="white"/>
</svg>
