<svg width="500" height="154" viewBox="0 0 500 154" fill="none" xmlns="http://www.w3.org/2000/svg">
<path d="M343.896 11.4685V19.2428C344.797 17.0919 344.797 13.6194 343.896 11.4685Z" fill="#45677C"/>
<path d="M344.414 11.4685C344.414 14.2673 344.548 17.0246 343.896 19.7611C345.68 18.2011 345.281 13.5365 344.414 11.4685Z" fill="#45677C"/>
<path d="M344.932 11.4685V19.7611C345.871 17.5221 345.871 13.7075 344.932 11.4685ZM479.169 11.4685V19.7611C480.107 17.5221 480.107 13.7075 479.169 11.4685Z" fill="white"/>
<path d="M479.687 11.4685V19.2428C480.589 17.0919 480.589 13.6194 479.687 11.4685Z" fill="#45677C"/>
<path d="M480.206 11.4685V19.2428C481.108 17.0919 481.108 13.6194 480.206 11.4685Z" fill="#45677C"/>
<path d="M473.749 26.1709C475.688 29.658 474.794 34.7329 474.786 38.6247C474.783 40.5084 474.824 42.2259 473.584 43.7671C469.995 48.2297 464.268 50.6685 460.781 55.2297H463.893V77.0238C463.893 81.2841 464.365 85.8349 463.375 89.9965C462.297 87.1425 461.786 84.1069 460.931 81.1751C460.252 78.8556 459.296 76.8837 459.225 74.4293C453.206 75.8615 446.202 74.9482 440.032 74.9482H402.684H379.342C374.924 74.9482 370.174 75.4567 365.855 74.4293C364.111 79.0528 362.627 84.5428 362.224 89.4776C360.517 86.2759 361.187 82.1351 361.187 78.5806V55.2297H364.299C362.078 52.2097 358.831 49.8902 356 47.4461C353.912 45.6455 351.948 43.5284 349.256 42.776V26.6899H351.331C350.494 25.4237 349.587 24.2406 348.633 23.0575C347.724 21.9263 346.646 20.1776 345.132 19.8143C342.737 19.2384 340.115 23.8047 339.535 25.652C338.431 29.1754 339.401 34.4008 339.401 38.1058C339.401 39.7507 339.674 41.7434 338.867 43.2482C337.071 46.5951 332.933 48.0636 330.051 50.1704C328.185 51.5299 326.743 53.3513 324.876 54.7108C325.912 55.1934 327.304 55.4061 327.975 56.4336C329.061 58.0941 328.508 61.1193 328.508 63.0134V79.0995V152.784H335.77V140.33C335.77 137.809 335.497 135.017 336.679 132.697C340.566 125.059 350.098 125.526 353.015 133.735C353.735 135.759 353.406 138.213 353.406 140.33V152.784H471.674C471.674 146.454 470.031 137.331 473.168 131.597C476.9 124.779 486.292 126.315 488.532 133.673C489.155 135.712 488.792 138.224 488.792 140.33V152.784H496.573V55.2297C497.532 55.2453 497.75 55.1415 498.647 54.7108C496.733 49.1274 489.674 47.031 486.509 42.2363C484.85 39.7196 485.679 35.2881 485.679 32.3978C485.679 30.1925 485.347 27.9819 486.717 26.1709C485.405 23.4311 482.847 21.3399 481.011 18.9062C477.904 20.3851 475.975 23.6179 473.749 26.1709Z" fill="#45677C"/>
<path d="M343.032 20.1083C343.003 20.1342 342.974 20.6836 343.205 20.4504C343.234 20.4244 343.262 19.8751 343.032 20.1083ZM481.413 20.1083C481.388 20.1342 481.356 20.6836 481.59 20.4504C481.616 20.4244 481.647 19.8751 481.413 20.1083Z" fill="#45677C"/>
<path d="M337.675 27.0175C339.805 29.8266 338.719 35.507 338.712 38.9381C338.709 40.2908 338.843 41.8043 338.179 43.0378C336.696 45.8003 333.382 46.9353 331.974 49.8222C334.232 48.3295 337.882 46.1734 338.918 43.5561C341.369 37.3625 337.017 29.8318 340.785 23.9077C339.176 24.6748 338.443 25.4108 337.675 27.0175Z" fill="#45677C"/>
<path d="M349.251 24.2546C349.222 24.2806 349.193 24.8304 349.424 24.597C349.453 24.571 349.482 24.0212 349.251 24.2546Z" fill="#45677C"/>
<path d="M474.677 24.7729C474.648 24.7989 474.619 25.3487 474.85 25.1153C474.879 25.0893 474.908 24.5395 474.677 24.7729Z" fill="#45677C"/>
<path d="M485.388 26.4985V42.5655C487.321 37.9579 483.849 31.0958 486.943 27.0168C486.295 26.6592 486.14 26.6281 485.388 26.4985Z" fill="#45677C"/>
<path d="M349.079 27.0171V43.0841C349.767 41.4411 349.597 39.6737 349.597 37.9012C349.597 34.5737 350.373 30.1009 349.079 27.0171Z" fill="#45677C"/>
<path d="M349.597 27.0171V43.0841C350.285 41.4411 350.115 39.6737 350.115 37.9012C350.115 34.5737 350.891 30.1009 349.597 27.0171Z" fill="#45677C"/>
<path d="M473.986 27.0171V43.6024C474.675 41.9594 474.505 40.192 474.505 38.4195C474.505 34.9521 475.333 30.2253 473.986 27.0171Z" fill="#45677C"/>
<path d="M353.571 45.8465C353.34 46.08 353.888 46.0489 353.916 46.023C354.147 45.7895 353.599 45.8206 353.571 45.8465Z" fill="white"/>
<path d="M491.437 47.9198C491.204 48.1532 491.754 48.1221 491.78 48.0962C492.013 47.8627 491.463 47.8938 491.437 47.9198Z" fill="#45677C"/>
<path d="M468.112 48.4381C467.881 48.6715 468.429 48.6405 468.458 48.6145C468.689 48.3811 468.141 48.4121 468.112 48.4381Z" fill="#45677C"/>
<path d="M462.412 53.1026C462.181 53.3361 462.729 53.305 462.757 53.2791C462.988 53.0456 462.44 53.0767 462.412 53.1026Z" fill="white"/>
<path d="M325.064 54.6576C324.834 54.891 325.381 54.8599 325.41 54.834C325.641 54.6005 325.093 54.6316 325.064 54.6576Z" fill="#45677C"/>
<path d="M497.309 55.0048C498.226 55.409 498.885 55.4764 499.901 55.5231C498.905 54.9322 498.486 54.9167 497.309 55.0048Z" fill="#45677C"/>
<path d="M499.212 54.6576C498.978 54.891 499.528 54.8599 499.554 54.834C499.788 54.6005 499.238 54.6316 499.212 54.6576Z" fill="#45677C"/>
<path d="M324.201 55.0049C325.099 56.0415 325.94 56 327.31 56.0415C326.304 55.5491 325.29 55.2951 324.201 55.0049ZM364.109 55.0049C363.176 55.2951 362.491 55.4299 361.518 55.5232C362.34 55.9948 364.723 56.4924 364.109 55.0049ZM459.993 55.0049C460.891 56.0415 461.731 56 463.102 56.0415C462.096 55.5491 461.082 55.2951 459.993 55.0049ZM499.901 55.0049C498.968 55.2951 498.284 55.4299 497.309 55.5232C498.133 55.9948 500.512 56.4924 499.901 55.0049Z" fill="#45677C"/>
<path d="M361 55.5232V89.212C362.026 86.7657 361.518 83.5523 361.518 80.9194V64.3341C361.518 61.5613 362.08 58.0991 361 55.5232ZM463.103 55.5232V89.7303C464.237 87.0248 463.621 83.3139 463.621 80.4011V63.8158C463.621 61.1829 464.129 57.9695 463.103 55.5232Z" fill="#45677C"/>
<path d="M338.713 62.2609C340.211 62.888 341.757 62.7792 343.377 62.7792C341.88 62.152 340.333 62.2609 338.713 62.2609ZM344.932 62.2609C346.43 62.888 347.977 62.7792 349.597 62.7792C348.099 62.152 346.553 62.2609 344.932 62.2609ZM473.986 62.2609C475.484 62.888 477.031 62.7792 478.651 62.7792C477.153 62.152 475.607 62.2609 473.986 62.2609ZM480.206 62.2609C481.559 62.831 482.88 62.774 484.352 62.7792C483 62.2091 481.678 62.2661 480.206 62.2609Z" fill="#45677C"/>
<path d="M338.713 62.7791V69.5168H343.377V62.7791H338.713Z" fill="white"/>
<path d="M343.377 62.7791V69.5168C344.202 67.5525 344.202 64.7434 343.377 62.7791Z" fill="#45677C"/>
<path d="M344.414 62.7791V68.9985C345.198 67.1327 345.198 64.6449 344.414 62.7791Z" fill="#45677C"/>
<path d="M344.932 62.7791C345.427 64.8626 345.45 66.8684 345.45 68.9985C346.716 69.0555 347.846 69.2214 349.078 69.5168V62.7791H344.932Z" fill="white"/>
<path d="M349.079 62.7791V69.5168C349.903 67.5525 349.903 64.7434 349.079 62.7791Z" fill="#45677C"/>
<path d="M349.597 62.7791V69.5168C350.421 67.5525 350.421 64.7434 349.597 62.7791Z" fill="#45677C"/>
<path d="M472.949 62.7791V69.5168C473.773 67.5525 473.773 64.7434 472.949 62.7791Z" fill="#45677C"/>
<path d="M473.468 62.7791V69.5168C474.292 67.5525 474.292 64.7434 473.468 62.7791Z" fill="#45677C"/>
<path d="M473.986 62.7791V69.5168H478.651V62.7791H473.986Z" fill="white"/>
<path d="M479.687 62.7791V69.5168C480.511 67.5525 480.511 64.7434 479.687 62.7791Z" fill="#45677C"/>
<path d="M480.206 62.7791V69.5168H484.352V62.7791H480.206Z" fill="white"/>
<path d="M484.352 62.7791V69.5168C485.176 67.5525 485.176 64.7434 484.352 62.7791Z" fill="#45677C"/>
<path d="M338.195 63.2974V70.0351H343.378C341.88 69.408 340.333 69.5168 338.713 69.5168C338.713 67.454 338.999 65.215 338.195 63.2974Z" fill="#45677C"/>
<path d="M344.932 63.2974V69.5168H348.56C347.496 69.0659 346.618 69.0245 345.45 68.9985C345.45 67.0809 345.678 65.0751 344.932 63.2974Z" fill="white"/>
<path d="M338.195 70.5537V77.8098H343.378C341.88 77.1826 340.333 77.2915 338.713 77.2915C338.713 75.0836 339.056 72.6061 338.195 70.5537Z" fill="#45677C"/>
<path d="M338.713 70.5536C340.211 71.1807 341.757 71.0719 343.377 71.0719C341.88 70.4448 340.333 70.5536 338.713 70.5536ZM344.932 70.5536C346.43 71.1807 347.977 71.0719 349.597 71.0719C348.099 70.4448 346.553 70.5536 344.932 70.5536ZM473.986 70.5536C475.484 71.1807 477.031 71.0719 478.651 71.0719C477.153 70.4448 475.607 70.5536 473.986 70.5536ZM480.206 70.5536C481.559 71.1237 482.88 71.0667 484.352 71.0719C483 70.5018 481.678 70.5588 480.206 70.5536Z" fill="#45677C"/>
<path d="M338.713 71.0718V77.2913H343.377V71.0718H338.713Z" fill="white"/>
<path d="M343.377 71.0718V77.2913C344.161 75.4254 344.161 72.9376 343.377 71.0718Z" fill="#45677C"/>
<path d="M344.414 71.0718V76.773C345.156 75.0056 345.156 72.8391 344.414 71.0718Z" fill="#45677C"/>
<path d="M344.932 71.0718V77.2913H349.078V71.0718H344.932Z" fill="white"/>
<path d="M349.079 71.0718V77.2913C349.862 75.4254 349.862 72.9376 349.079 71.0718Z" fill="#45677C"/>
<path d="M349.597 71.0718V77.2913C350.38 75.4254 350.38 72.9376 349.597 71.0718Z" fill="#45677C"/>
<path d="M472.949 71.0718V77.2913C473.732 75.4254 473.732 72.9376 472.949 71.0718Z" fill="#45677C"/>
<path d="M473.468 71.0718V77.2913C474.251 75.4254 474.251 72.9376 473.468 71.0718Z" fill="#45677C"/>
<path d="M473.986 71.0718V77.2913H478.651V71.0718H473.986Z" fill="white"/>
<path d="M479.687 71.0718V77.2913C480.47 75.4254 480.47 72.9376 479.687 71.0718Z" fill="#45677C"/>
<path d="M480.206 71.0718V77.2913H484.352V71.0718H480.206Z" fill="white"/>
<path d="M484.352 71.0718V77.2913C485.135 75.4254 485.135 72.9376 484.352 71.0718Z" fill="#45677C"/>
<path d="M366.182 74.6997C368.758 75.783 372.22 75.218 374.993 75.218H393.651H458.438C455.862 74.1348 452.4 74.6997 449.627 74.6997H430.968H366.182Z" fill="#45677C"/>
<path d="M458.956 76.2546V78.3278C459.324 77.4156 459.324 77.1668 458.956 76.2546Z" fill="#45677C"/>
<path d="M344.932 77.2913C346.429 77.9184 347.976 77.8096 349.596 77.8096C348.098 77.1824 346.552 77.2913 344.932 77.2913ZM473.467 77.2913C475.107 77.9806 476.881 77.8096 478.65 77.8096C477.011 77.1202 475.237 77.2913 473.467 77.2913ZM479.687 77.2913C481.185 77.9184 482.729 77.8096 484.351 77.8096C482.854 77.1824 481.309 77.2913 479.687 77.2913Z" fill="#45677C"/>
<path d="M338.713 82.4739C340.211 83.101 341.757 82.9922 343.377 82.9922C341.88 82.3651 340.333 82.4739 338.713 82.4739ZM344.932 82.4739C346.43 83.101 347.977 82.9922 349.597 82.9922C348.099 82.3651 346.553 82.4739 344.932 82.4739ZM473.468 82.4739C475.108 83.1632 476.882 82.9922 478.651 82.9922C477.012 82.3029 475.238 82.4739 473.468 82.4739ZM480.206 82.4739C481.559 83.044 482.88 82.987 484.352 82.9922C483 82.4221 481.678 82.4791 480.206 82.4739Z" fill="#45677C"/>
<path d="M338.713 82.9924V89.2119H343.377V82.9924H338.713Z" fill="white"/>
<path d="M343.377 82.9924V89.2119C344.161 87.3461 344.161 84.8583 343.377 82.9924Z" fill="#45677C"/>
<path d="M343.896 82.9924V89.2119H344.932V82.9924H343.896Z" fill="#45677C"/>
<path d="M344.932 82.9924V89.2119H349.078V82.9924H344.932Z" fill="white"/>
<path d="M349.079 82.9924V89.2119C349.862 87.3461 349.862 84.8583 349.079 82.9924Z" fill="#45677C"/>
<path d="M349.597 82.9924V89.2119C350.38 87.3461 350.38 84.8583 349.597 82.9924Z" fill="#45677C"/>
<path d="M472.949 82.9924V89.2119C473.732 87.3461 473.732 84.8583 472.949 82.9924Z" fill="#45677C"/>
<path d="M473.468 82.9924V89.2119C474.251 87.3461 474.251 84.8583 473.468 82.9924Z" fill="#45677C"/>
<path d="M473.986 82.9924V89.2119H478.651V82.9924H473.986Z" fill="white"/>
<path d="M479.687 82.9924V89.2119C480.47 87.3461 480.47 84.8583 479.687 82.9924Z" fill="#45677C"/>
<path d="M480.206 82.9924V89.2119H484.352V82.9924H480.206Z" fill="white"/>
<path d="M484.352 82.9924V89.2119C485.135 87.3461 485.135 84.8583 484.352 82.9924Z" fill="#45677C"/>
<path d="M478.651 83.5107V89.2119C479.392 87.4446 479.392 85.2781 478.651 83.5107Z" fill="#45677C"/>
<path d="M338.713 89.2118C340.211 89.8389 341.757 89.7301 343.377 89.7301C341.88 89.103 340.333 89.2118 338.713 89.2118ZM344.932 89.2118C346.43 89.8389 347.977 89.7301 349.597 89.7301C348.099 89.103 346.553 89.2118 344.932 89.2118Z" fill="#45677C"/>
<path d="M473.986 89.2118C475.484 89.8389 477.031 89.7301 478.651 89.7301C477.153 89.103 475.607 89.2118 473.986 89.2118ZM480.206 89.2118C481.559 89.7819 482.88 89.7249 484.352 89.7301C482.999 89.16 481.678 89.217 480.206 89.2118Z" fill="#45677C"/>
<path d="M338.713 90.7669C340.211 91.394 341.757 91.2851 343.377 91.2851C341.88 90.658 340.333 90.7669 338.713 90.7669ZM344.932 90.7669C346.43 91.394 347.977 91.2851 349.597 91.2851C348.099 90.658 346.553 90.7669 344.932 90.7669ZM473.468 90.7669C475.108 91.4562 476.882 91.2851 478.651 91.2851C477.012 90.5958 475.238 90.7669 473.468 90.7669ZM480.206 90.7669C481.559 91.337 482.88 91.28 484.352 91.2851C483 90.715 481.678 90.772 480.206 90.7669Z" fill="#45677C"/>
<path d="M338.713 91.2852V97.5046H343.377V91.2852H338.713Z" fill="white"/>
<path d="M343.377 91.2852V97.5046C344.161 95.6388 344.161 93.151 343.377 91.2852Z" fill="#45677C"/>
<path d="M343.896 91.2852V97.5046H344.932V91.2852H343.896Z" fill="#45677C"/>
<path d="M344.932 91.2852V97.5046H349.078V91.2852H344.932Z" fill="white"/>
<path d="M349.079 91.2852V97.5046C349.862 95.6388 349.862 93.151 349.079 91.2852Z" fill="#45677C"/>
<path d="M349.597 91.2852V97.5046C350.38 95.6388 350.38 93.151 349.597 91.2852Z" fill="#45677C"/>
<path d="M472.949 91.2852V97.5046C473.732 95.6388 473.732 93.151 472.949 91.2852Z" fill="#45677C"/>
<path d="M473.468 91.2852V97.5046C474.251 95.6388 474.251 93.151 473.468 91.2852Z" fill="#45677C"/>
<path d="M473.986 91.2852V97.5046H478.651V91.2852H473.986Z" fill="white"/>
<path d="M479.687 91.2852V97.5046C480.47 95.6388 480.47 93.151 479.687 91.2852Z" fill="#45677C"/>
<path d="M480.206 91.2852V97.5046H484.352V91.2852H480.206Z" fill="white"/>
<path d="M484.352 91.2852V97.5046C485.135 95.6388 485.135 93.151 484.352 91.2852Z" fill="#45677C"/>
<path d="M478.651 91.803V97.5042C479.392 95.7368 479.392 93.5703 478.651 91.803Z" fill="#45677C"/>
<path d="M338.713 97.5048C340.211 98.1319 341.757 98.0231 343.377 98.0231C341.88 97.3959 340.333 97.5048 338.713 97.5048ZM344.932 97.5048C346.43 98.1319 347.977 98.0231 349.597 98.0231C348.099 97.3959 346.553 97.5048 344.932 97.5048ZM473.986 97.5048C475.484 98.1319 477.031 98.0231 478.651 98.0231C477.153 97.3959 475.607 97.5048 473.986 97.5048ZM480.206 97.5048C481.559 98.0749 482.88 98.0179 484.352 98.0231C483 97.453 481.678 97.51 480.206 97.5048Z" fill="#45677C"/>
<path d="M371.365 102.688C372.72 103.258 374.042 103.201 375.512 103.206C374.157 102.636 372.835 102.693 371.365 102.688ZM376.548 102.688C377.757 103.195 378.858 103.195 380.176 103.206C378.968 102.698 377.866 102.698 376.548 102.688Z" fill="#45677C"/>
<path d="M380.175 102.688V107.87C380.873 106.207 380.873 104.351 380.175 102.688Z" fill="#45677C"/>
<path d="M408.682 102.688C410.036 103.258 411.359 103.201 412.828 103.206C411.474 102.636 410.152 102.693 408.682 102.688ZM414.383 102.688C415.447 103.138 416.325 103.18 417.493 103.206C416.43 102.755 415.551 102.713 414.383 102.688ZM446.517 102.688C447.725 103.195 448.827 103.195 450.145 103.206C448.937 102.698 447.835 102.698 446.517 102.688ZM451.7 102.688C452.909 103.195 454.01 103.195 455.328 103.206C454.12 102.698 453.018 102.698 451.7 102.688Z" fill="#45677C"/>
<path d="M338.713 103.205C340.211 103.833 341.757 103.724 343.377 103.724C341.88 103.097 340.333 103.205 338.713 103.205ZM344.932 103.205C346.43 103.833 347.977 103.724 349.597 103.724C348.099 103.097 346.553 103.205 344.932 103.205Z" fill="#45677C"/>
<path d="M371.365 103.206V108.388H374.993V103.206H371.365Z" fill="white"/>
<path d="M374.993 103.206V108.388C375.691 106.725 375.691 104.869 374.993 103.206Z" fill="#45677C"/>
<path d="M375.511 103.206V108.388H376.548V103.206H375.511Z" fill="#45677C"/>
<path d="M376.548 103.206V108.388C377.245 106.725 377.245 104.869 376.548 103.206Z" fill="#45677C"/>
<path d="M377.067 103.206V108.388H380.177V103.206H377.067Z" fill="white"/>
<path d="M408.163 103.206V108.388C408.86 106.725 408.86 104.869 408.163 103.206Z" fill="#45677C"/>
<path d="M408.682 103.206V108.388C409.38 106.725 409.38 104.869 408.682 103.206Z" fill="#45677C"/>
<path d="M409.201 103.206V108.388H412.829V103.206H409.201Z" fill="white"/>
<path d="M413.865 103.206V108.388C414.562 106.725 414.562 104.869 413.865 103.206Z" fill="#45677C"/>
<path d="M414.383 103.206V108.388H417.493V103.206H414.383Z" fill="white"/>
<path d="M417.493 103.206V108.388C418.19 106.725 418.19 104.869 417.493 103.206Z" fill="#45677C"/>
<path d="M446.517 103.206V108.388H450.145V103.206H446.517Z" fill="white"/>
<path d="M450.145 103.206V108.388C450.842 106.725 450.842 104.869 450.145 103.206Z" fill="#45677C"/>
<path d="M451.181 103.206V108.388C451.879 106.725 451.879 104.869 451.181 103.206Z" fill="#45677C"/>
<path d="M451.7 103.206V108.388H455.328C454.89 106.523 454.89 105.071 455.328 103.206H451.7Z" fill="white"/>
<path d="M455.328 103.206V108.388C456.025 106.725 456.025 104.869 455.328 103.206Z" fill="#45677C"/>
<path d="M473.986 103.205C475.484 103.833 477.031 103.724 478.651 103.724C477.153 103.097 475.607 103.205 473.986 103.205ZM480.206 103.205C481.559 103.776 482.88 103.719 484.352 103.724C482.999 103.154 481.678 103.211 480.206 103.205Z" fill="#45677C"/>
<path d="M338.713 103.724V109.943H343.377V103.724H338.713Z" fill="white"/>
<path d="M343.377 103.724V109.943C344.161 108.078 344.161 105.59 343.377 103.724Z" fill="#45677C"/>
<path d="M344.414 103.724V109.425C345.156 107.658 345.156 105.491 344.414 103.724Z" fill="#45677C"/>
<path d="M344.932 103.724V109.943H349.078V103.724H344.932Z" fill="white"/>
<path d="M349.079 103.724V109.943C349.862 108.078 349.862 105.59 349.079 103.724Z" fill="#45677C"/>
<path d="M349.597 103.724V109.943C350.38 108.078 350.38 105.59 349.597 103.724Z" fill="#45677C"/>
<path d="M454.81 103.724V107.87C455.411 106.435 455.411 105.16 454.81 103.724Z" fill="white"/>
<path d="M472.949 103.724V109.943C473.732 108.078 473.732 105.59 472.949 103.724Z" fill="#45677C"/>
<path d="M473.468 103.724V109.943C474.251 108.078 474.251 105.59 473.468 103.724Z" fill="#45677C"/>
<path d="M473.986 103.724V109.943H478.651V103.724H473.986Z" fill="white"/>
<path d="M479.687 103.724V109.943C480.47 108.078 480.47 105.59 479.687 103.724Z" fill="#45677C"/>
<path d="M480.206 103.724V109.943H484.352V103.724H480.206Z" fill="white"/>
<path d="M484.352 103.724V109.943C485.135 108.078 485.135 105.59 484.352 103.724Z" fill="#45677C"/>
<path d="M338.195 104.242V110.461H343.378C341.88 109.834 340.333 109.943 338.713 109.943C338.713 108.025 338.941 106.02 338.195 104.242Z" fill="#45677C"/>
<path d="M344.932 109.943C346.286 110.513 347.609 110.456 349.078 110.462C347.724 109.892 346.402 109.949 344.932 109.943Z" fill="#45677C"/>
<path d="M371.365 109.943V115.126H374.993V109.943H371.365Z" fill="white"/>
<path d="M374.993 109.943V115.126C375.691 113.463 375.691 111.607 374.993 109.943Z" fill="#45677C"/>
<path d="M375.511 109.943V115.126H376.548V109.943H375.511Z" fill="#45677C"/>
<path d="M376.548 109.943V115.126C377.245 113.463 377.245 111.607 376.548 109.943Z" fill="#45677C"/>
<path d="M377.067 109.943V115.126H380.177V109.943H377.067Z" fill="white"/>
<path d="M380.175 109.943V115.126C380.873 113.463 380.873 111.607 380.175 109.943Z" fill="#45677C"/>
<path d="M408.163 109.943V115.126C408.86 113.463 408.86 111.607 408.163 109.943Z" fill="#45677C"/>
<path d="M408.682 109.943V115.126C409.38 113.463 409.38 111.607 408.682 109.943Z" fill="#45677C"/>
<path d="M409.201 109.943V115.126H412.829V109.943H409.201Z" fill="white"/>
<path d="M413.865 109.943V115.126C414.562 113.463 414.562 111.607 413.865 109.943Z" fill="#45677C"/>
<path d="M414.383 109.943V115.126H417.493V109.943H414.383Z" fill="white"/>
<path d="M417.493 109.943V115.126C418.19 113.463 418.19 111.607 417.493 109.943Z" fill="#45677C"/>
<path d="M446.517 109.943V115.126H450.145V109.943H446.517Z" fill="white"/>
<path d="M450.145 109.943V115.126C450.842 113.463 450.842 111.607 450.145 109.943Z" fill="#45677C"/>
<path d="M451.181 109.943V115.126C451.879 113.463 451.879 111.607 451.181 109.943Z" fill="#45677C"/>
<path d="M451.7 109.943V115.126H455.328C454.89 113.26 454.89 111.809 455.328 109.943H451.7Z" fill="white"/>
<path d="M455.328 109.943V115.126C456.025 113.463 456.025 111.607 455.328 109.943Z" fill="#45677C"/>
<path d="M473.468 109.944C474.966 110.571 476.512 110.462 478.132 110.462C476.635 109.835 475.088 109.944 473.468 109.944ZM479.687 109.944C481.185 110.571 482.73 110.462 484.352 110.462C482.854 109.835 481.309 109.944 479.687 109.944Z" fill="#45677C"/>
<path d="M454.81 110.461V114.608C455.411 113.172 455.411 111.897 454.81 110.461Z" fill="white"/>
<path d="M338.713 111.498C340.211 112.126 341.757 112.017 343.377 112.017C341.88 111.39 340.333 111.498 338.713 111.498ZM344.932 111.498C346.43 112.126 347.977 112.017 349.597 112.017C348.099 111.39 346.553 111.498 344.932 111.498ZM473.986 111.498C475.484 112.126 477.031 112.017 478.651 112.017C477.153 111.39 475.607 111.498 473.986 111.498ZM480.206 111.498C481.559 112.069 482.88 112.012 484.352 112.017C483 111.447 481.678 111.504 480.206 111.498Z" fill="#45677C"/>
<path d="M338.713 112.017V118.236H343.377V112.017H338.713Z" fill="white"/>
<path d="M343.377 112.017V118.236C344.161 116.37 344.161 113.882 343.377 112.017Z" fill="#45677C"/>
<path d="M344.414 112.017V117.718C345.156 115.95 345.156 113.784 344.414 112.017Z" fill="#45677C"/>
<path d="M344.932 112.017V118.236H349.078V112.017H344.932Z" fill="white"/>
<path d="M349.079 112.017V118.236C349.862 116.37 349.862 113.882 349.079 112.017Z" fill="#45677C"/>
<path d="M349.597 112.017V118.236C350.38 116.37 350.38 113.882 349.597 112.017Z" fill="#45677C"/>
<path d="M472.949 112.017V118.236C473.732 116.37 473.732 113.882 472.949 112.017Z" fill="#45677C"/>
<path d="M473.468 112.017V118.236C474.251 116.37 474.251 113.882 473.468 112.017Z" fill="#45677C"/>
<path d="M473.986 112.017V118.236H478.651V112.017H473.986Z" fill="white"/>
<path d="M479.687 112.017V118.236C480.47 116.37 480.47 113.882 479.687 112.017Z" fill="#45677C"/>
<path d="M480.206 112.017V118.236H484.352V112.017H480.206Z" fill="white"/>
<path d="M484.352 112.017V118.236C485.135 116.37 485.135 113.882 484.352 112.017Z" fill="#45677C"/>
<path d="M338.195 112.535V118.755H343.378C341.88 118.127 340.333 118.236 338.713 118.236C338.713 116.319 338.941 114.313 338.195 112.535Z" fill="#45677C"/>
<path d="M371.365 115.126C372.72 115.696 374.042 115.639 375.512 115.645C374.157 115.074 372.835 115.131 371.365 115.126ZM408.682 115.126C410.036 115.696 411.359 115.639 412.828 115.645C411.474 115.074 410.152 115.131 408.682 115.126Z" fill="#45677C"/>
<path d="M344.932 118.236C346.429 118.863 347.976 118.754 349.596 118.754C348.098 118.127 346.552 118.236 344.932 118.236ZM473.467 118.236C475.107 118.925 476.881 118.754 478.65 118.754C477.011 118.065 475.237 118.236 473.467 118.236ZM479.687 118.236C481.185 118.863 482.729 118.754 484.351 118.754C482.854 118.127 481.309 118.236 479.687 118.236Z" fill="#45677C"/>
<path d="M371.365 119.791C372.72 120.361 374.042 120.304 375.512 120.31C374.157 119.739 372.835 119.796 371.365 119.791Z" fill="#45677C"/>
<path d="M375.511 119.791V125.492H376.548V119.791H375.511Z" fill="#45677C"/>
<path d="M376.548 119.791C377.757 120.299 378.857 120.299 380.176 120.31C378.968 119.802 377.866 119.802 376.548 119.791Z" fill="#45677C"/>
<path d="M380.175 119.791V125.492C380.917 123.725 380.917 121.559 380.175 119.791Z" fill="#45677C"/>
<path d="M408.682 119.791C410.036 120.361 411.359 120.304 412.828 120.31C411.474 119.739 410.152 119.796 408.682 119.791ZM414.383 119.791C415.447 120.242 416.325 120.284 417.493 120.31C416.43 119.859 415.551 119.817 414.383 119.791ZM446.517 119.791C447.725 120.299 448.827 120.299 450.145 120.31V125.492C451.641 121.927 450.181 119.833 446.517 119.791ZM451.7 119.791C452.909 120.299 454.01 120.299 455.328 120.31C454.12 119.802 453.018 119.802 451.7 119.791Z" fill="#45677C"/>
<path d="M371.365 120.309V125.492H374.993V120.309H371.365Z" fill="white"/>
<path d="M374.993 120.309V125.492C375.691 123.829 375.691 121.973 374.993 120.309Z" fill="#45677C"/>
<path d="M376.548 120.309V125.492C377.245 123.829 377.245 121.973 376.548 120.309Z" fill="#45677C"/>
<path d="M377.067 120.309V125.492H380.177V120.309H377.067Z" fill="white"/>
<path d="M408.163 120.309V125.492C408.86 123.829 408.86 121.973 408.163 120.309Z" fill="#45677C"/>
<path d="M408.682 120.309V125.492C409.38 123.829 409.38 121.973 408.682 120.309Z" fill="#45677C"/>
<path d="M409.201 120.309V125.492H412.829V120.309H409.201Z" fill="white"/>
<path d="M413.865 120.309V125.492C414.562 123.829 414.562 121.973 413.865 120.309Z" fill="#45677C"/>
<path d="M414.383 120.309V125.492H417.493V120.309H414.383Z" fill="white"/>
<path d="M417.493 120.309V125.492C418.19 123.829 418.19 121.973 417.493 120.309Z" fill="#45677C"/>
<path d="M446.517 120.309V125.492H450.145V120.309H446.517Z" fill="white"/>
<path d="M451.181 120.309V125.492C451.879 123.829 451.879 121.973 451.181 120.309Z" fill="#45677C"/>
<path d="M451.7 120.309V125.492H454.81C454.815 123.699 454.913 122.056 455.328 120.309H451.7Z" fill="white"/>
<path d="M455.328 120.309V125.492C456.025 123.829 456.025 121.973 455.328 120.309Z" fill="#45677C"/>
<path d="M454.81 120.828V125.492C455.461 123.943 455.461 122.377 454.81 120.828Z" fill="white"/>
<path d="M371.365 126.529C372.72 127.099 374.042 127.042 375.512 127.047C374.157 126.477 372.835 126.534 371.365 126.529Z" fill="#45677C"/>
<path d="M380.175 126.529V132.23C380.917 130.463 380.917 128.296 380.175 126.529Z" fill="#45677C"/>
<path d="M408.682 126.529C410.036 127.099 411.359 127.042 412.828 127.047C411.474 126.477 410.152 126.534 408.682 126.529Z" fill="#45677C"/>
<path d="M371.365 127.047V132.23H374.993V127.047H371.365Z" fill="white"/>
<path d="M374.993 127.047V132.23C375.691 130.566 375.691 128.711 374.993 127.047Z" fill="#45677C"/>
<path d="M375.511 127.047V132.23H376.548V127.047H375.511Z" fill="#45677C"/>
<path d="M376.548 127.047V132.23C377.245 130.566 377.245 128.711 376.548 127.047Z" fill="#45677C"/>
<path d="M377.067 127.047V132.23H380.177V127.047H377.067Z" fill="white"/>
<path d="M408.163 127.047V132.23C408.86 130.566 408.86 128.711 408.163 127.047Z" fill="#45677C"/>
<path d="M408.682 127.047V132.23C409.38 130.566 409.38 128.711 408.682 127.047Z" fill="#45677C"/>
<path d="M409.201 127.047V132.23H412.829V127.047H409.201Z" fill="white"/>
<path d="M413.865 127.047V132.23C414.562 130.566 414.562 128.711 413.865 127.047Z" fill="#45677C"/>
<path d="M414.383 127.047V132.23H417.493V127.047H414.383Z" fill="white"/>
<path d="M417.493 127.047V132.23C418.19 130.566 418.19 128.711 417.493 127.047Z" fill="#45677C"/>
<path d="M446.517 127.047V132.23H450.145V127.047H446.517Z" fill="white"/>
<path d="M450.145 127.047V132.23C450.842 130.566 450.842 128.711 450.145 127.047Z" fill="#45677C"/>
<path d="M451.181 127.047V132.23C451.879 130.566 451.879 128.711 451.181 127.047Z" fill="#45677C"/>
<path d="M451.7 127.047V132.23H455.328C454.89 130.364 454.89 128.913 455.328 127.047H451.7Z" fill="white"/>
<path d="M455.328 127.047V132.23C456.025 130.566 456.025 128.711 455.328 127.047Z" fill="#45677C"/>
<path d="M341.131 127.736C340.9 127.97 341.448 127.939 341.476 127.913C341.707 127.679 341.159 127.71 341.131 127.736Z" fill="#45677C"/>
<path d="M347.351 127.736C347.12 127.97 347.668 127.939 347.696 127.913C347.927 127.679 347.379 127.71 347.351 127.736Z" fill="#45677C"/>
<path d="M454.81 127.565V131.712C455.411 130.276 455.411 129.001 454.81 127.565Z" fill="white"/>
<path d="M476.924 127.736C476.693 127.97 477.241 127.939 477.269 127.913C477.5 127.679 476.952 127.71 476.924 127.736Z" fill="#45677C"/>
<path d="M348.387 128.255C348.156 128.488 348.704 128.457 348.733 128.431C348.964 128.198 348.416 128.229 348.387 128.255Z" fill="#45677C"/>
<path d="M475.887 128.255C475.656 128.488 476.204 128.457 476.232 128.431C476.463 128.198 475.915 128.229 475.887 128.255Z" fill="#45677C"/>
<path d="M483.662 128.255C483.429 128.488 483.979 128.457 484.005 128.431C484.238 128.198 483.688 128.229 483.662 128.255Z" fill="#45677C"/>
<path d="M351.324 131.022C351.296 131.048 351.267 131.597 351.497 131.364C351.526 131.338 351.555 130.789 351.324 131.022ZM473.122 131.022C473.094 131.048 473.065 131.597 473.295 131.364C473.324 131.338 473.353 130.789 473.122 131.022Z" fill="#45677C"/>
<path d="M472.604 132.059C472.575 132.085 472.546 132.635 472.777 132.401C472.806 132.375 472.835 131.826 472.604 132.059Z" fill="#45677C"/>
<path d="M408.682 136.376C410.036 136.946 411.359 136.889 412.828 136.895C411.474 136.324 410.152 136.381 408.682 136.376Z" fill="#45677C"/>
<path d="M371.365 136.894C372.72 137.464 374.042 137.407 375.512 137.413C374.157 136.842 372.835 136.899 371.365 136.894Z" fill="#45677C"/>
<path d="M375.511 136.894V142.077H376.548V136.894H375.511Z" fill="#45677C"/>
<path d="M376.548 136.894C377.757 137.402 378.857 137.402 380.176 137.413C378.968 136.905 377.866 136.905 376.548 136.894Z" fill="#45677C"/>
<path d="M408.163 136.894V142.077C408.86 140.413 408.86 138.558 408.163 136.894Z" fill="#45677C"/>
<path d="M408.682 136.894C410.036 137.464 411.359 137.407 412.828 137.413C411.474 136.842 410.152 136.899 408.682 136.894ZM414.383 136.894C415.447 137.345 416.325 137.387 417.493 137.413C416.43 136.962 415.551 136.92 414.383 136.894ZM446.517 136.894C447.725 137.402 448.827 137.402 450.145 137.413C448.937 136.905 447.835 136.905 446.517 136.894ZM451.7 136.894C452.909 137.402 454.01 137.402 455.328 137.413C454.12 136.905 453.018 136.905 451.7 136.894Z" fill="#45677C"/>
<path d="M455.328 136.894V142.077C456.025 140.413 456.025 138.558 455.328 136.894Z" fill="#45677C"/>
<path d="M371.365 137.413V142.077H374.993V137.413H371.365Z" fill="white"/>
<path d="M374.993 137.413V142.077C375.644 140.528 375.644 138.962 374.993 137.413Z" fill="#45677C"/>
<path d="M376.548 137.413V142.077C377.199 140.528 377.199 138.962 376.548 137.413Z" fill="#45677C"/>
<path d="M377.067 137.413V142.077H380.177V137.413H377.067Z" fill="white"/>
<path d="M408.682 137.413V142.077C409.333 140.528 409.333 138.962 408.682 137.413Z" fill="#45677C"/>
<path d="M409.201 137.413V142.077H412.829V137.413H409.201Z" fill="white"/>
<path d="M413.865 137.413V142.077C414.516 140.528 414.516 138.962 413.865 137.413Z" fill="#45677C"/>
<path d="M414.383 137.413V142.077H417.493V137.413H414.383Z" fill="white"/>
<path d="M417.493 137.413V142.077C418.144 140.528 418.144 138.962 417.493 137.413Z" fill="#45677C"/>
<path d="M446.517 137.413V142.077H450.145V137.413H446.517Z" fill="white"/>
<path d="M450.145 137.413V142.077C450.796 140.528 450.796 138.962 450.145 137.413Z" fill="#45677C"/>
<path d="M451.181 137.413V142.077C451.832 140.528 451.832 138.962 451.181 137.413Z" fill="#45677C"/>
<path d="M451.7 137.413V142.077H454.81C454.823 140.46 454.953 138.988 455.328 137.413H451.7Z" fill="white"/>
<path d="M454.81 137.931V142.077C455.411 140.642 455.411 139.367 454.81 137.931Z" fill="white"/>
<path d="M445.999 142.077C447.353 142.648 448.676 142.59 450.145 142.596C448.791 142.026 447.469 142.083 445.999 142.077Z" fill="#45677C"/>
<path d="M371.365 143.114C372.72 143.684 374.042 143.627 375.512 143.632C374.157 143.062 372.835 143.119 371.365 143.114ZM376.548 143.114C377.757 143.621 378.858 143.621 380.176 143.632C378.968 143.124 377.866 143.124 376.548 143.114Z" fill="#45677C"/>
<path d="M380.175 143.114V148.815C380.917 147.047 380.917 144.881 380.175 143.114Z" fill="#45677C"/>
<path d="M408.682 143.114C410.036 143.684 411.359 143.627 412.828 143.632C411.474 143.062 410.152 143.119 408.682 143.114Z" fill="#45677C"/>
<path d="M371.365 143.632V148.815H374.993V143.632H371.365Z" fill="white"/>
<path d="M374.993 143.632V148.815C375.691 147.151 375.691 145.296 374.993 143.632Z" fill="#45677C"/>
<path d="M375.511 143.632V148.815H376.548V143.632H375.511Z" fill="#45677C"/>
<path d="M376.548 143.632V148.815C377.245 147.151 377.245 145.296 376.548 143.632Z" fill="#45677C"/>
<path d="M377.067 143.632V148.815H380.177V143.632H377.067Z" fill="white"/>
<path d="M408.163 143.632V148.815C408.86 147.151 408.86 145.296 408.163 143.632Z" fill="#45677C"/>
<path d="M408.682 143.632V148.815C409.38 147.151 409.38 145.296 408.682 143.632Z" fill="#45677C"/>
<path d="M409.201 143.632V148.815H412.829V143.632H409.201Z" fill="white"/>
<path d="M413.865 143.632V148.815C414.562 147.151 414.562 145.296 413.865 143.632Z" fill="#45677C"/>
<path d="M414.383 143.632V148.815H417.493V143.632H414.383Z" fill="white"/>
<path d="M417.493 143.632V148.815C418.19 147.151 418.19 145.296 417.493 143.632Z" fill="#45677C"/>
<path d="M446.517 143.632V148.815H450.145V143.632H446.517Z" fill="white"/>
<path d="M450.145 143.632V148.815C450.842 147.151 450.842 145.296 450.145 143.632Z" fill="#45677C"/>
<path d="M451.181 143.632V148.815C451.879 147.151 451.879 145.296 451.181 143.632Z" fill="#45677C"/>
<path d="M451.7 143.632V148.815H455.328C454.89 146.949 454.89 145.498 455.328 143.632H451.7Z" fill="white"/>
<path d="M455.328 143.632V148.815C456.025 147.151 456.025 145.296 455.328 143.632Z" fill="#45677C"/>
<path d="M454.81 144.151V148.297C455.411 146.861 455.411 145.586 454.81 144.151Z" fill="white"/>
<path d="M470.249 136.006V152.784H488.505V136.006C488.505 123.772 470.249 124.471 470.249 136.006Z" fill="white"/>
<path d="M335.019 136.006V152.784H353.275V136.006C353.275 123.772 335.019 124.471 335.019 136.006Z" fill="white"/>
<path d="M48.2188 153.024C158.41 153.024 268.596 153.024 378.801 153.024C376.383 147.819 371.889 144.37 367.881 140.342C361.916 134.35 356.032 128.308 350.01 122.385C338.326 110.879 326.734 99.2338 315.28 87.4987C308.657 80.7088 301.971 71.9647 294.134 66.6305C283.486 59.3821 267.019 59.3721 255.701 64.7561C248.152 68.3455 242.654 74.6767 236.839 80.5194L211.028 106.442C206.768 110.72 200.099 120.62 194.151 122.186C189.529 123.412 185.02 115.276 182.2 112.594C172.138 103.033 161.9 88.4757 148.484 83.6002C117.768 72.4433 96.4271 104.319 77.718 123.103C67.3707 133.502 56.2232 140.64 48.2188 153.024Z" fill="#45677C"/>
<path d="M4.97983 47.8394V152.91H26.9497V49.3069H29.0002V152.91L31.6366 152.202V49.3069H34.273V152.91H36.6164V49.3069H38.9599V152.202L41.5962 152.91V48.5991L44.2326 49.3069V152.91H67.3742V47.8394H73.5257V41.3826H67.3742V6.75034H73.5257V0H0V5.41344L4.97983 6.75034V41.3826H0V47.8394H4.97983Z" fill="#45677C"/>
<path d="M16.1111 12.3264H14.3535V39.0343H16.1111V12.3264Z" fill="white"/>
<path d="M22.5556 39.0343H20.5051V12.3264H22.5556V39.0343Z" fill="white"/>
<path d="M28.4142 39.0343H26.3637V12.3264H28.4142V39.0343Z" fill="white"/>
<path d="M34.2728 39.0343H32.8082V12.3264H34.2728V39.0343Z" fill="white"/>
<path d="M40.4244 12.3264H38.3739V39.0343H40.4244V12.3264Z" fill="white"/>
<path d="M46.283 12.3264H44.2325V39.0343H46.283V12.3264Z" fill="white"/>
<path d="M52.4346 12.3264H50.677V39.0343H52.4346V12.3264Z" fill="white"/>
<path d="M58.2932 12.3264H56.5356V39.0343H58.2932V12.3264Z" fill="white"/>
</svg>
