<svg width="50" height="82" viewBox="0 0 50 82" fill="none" xmlns="http://www.w3.org/2000/svg">
<path fill-rule="evenodd" clip-rule="evenodd" d="M47.1679 9.79164L46.4464 9.29715L45.9277 9.02791L45.1048 8.74107L44.247 8.59678H43.05L41.8796 8.82202L41.09 9.15285L40.3585 9.61214L39.4425 10.4199L38.6777 11.3895L38.2289 12.162L37.9313 13.0067L37.7185 14.2279L37.6935 15.1711L37.795 16.1056L38.0161 16.9678L38.2289 17.5151L38.6777 18.3228L39.4425 19.3118L39.8747 19.7341L40.5962 20.2726L41.3609 20.6862L41.8796 20.8745L43.05 21.1349L43.6535 21.1613L43.6784 21.1437L44.247 21.1349L44.8338 21.0364L45.9277 20.6862L46.1837 20.5595L46.2436 20.5155L46.2685 20.4961L46.3201 20.4785L46.4464 20.4169L46.5561 20.336L46.616 20.3078L46.6426 20.2726H46.6924L47.3973 19.7341L47.4406 19.6708L47.8395 19.3118L48.187 18.8807L48.2469 18.8349L48.2884 18.754L48.4414 18.5657L48.9085 17.802L48.9684 17.6594L48.985 17.6137L49.1629 17.2635L49.4937 16.1056L49.5037 15.9349L49.5369 15.7906L49.5968 14.5429L49.4937 13.6085L49.1629 12.4506L48.7556 11.6411L48.2469 10.8774L47.1679 9.79164Z" fill="#E50043"/>
<path fill-rule="evenodd" clip-rule="evenodd" d="M38.3548 0L37.7039 0.345464L37.0808 0.708288L36.5991 0.984312L36.1349 1.27596L35.236 1.88703L34.7892 2.19778L34.3617 2.53456L33.9428 2.87135L33.5414 3.22549L32.7665 3.91642L32.0352 4.65075L31.6792 5.02399L31.3406 5.41285L30.6809 6.22009L29.433 7.82416L28.213 9.47162L27.4189 10.5792L26.644 11.7041L25.1728 13.9106L24.6108 14.7873L24.0855 15.6917L23.5863 16.6031L23.1134 17.5336L22.6247 18.5613L22.1779 19.6081L21.759 20.6532L21.3855 21.707L20.9928 22.877L20.6263 24.0453L20.2895 25.2154L19.9771 26.3942L19.4413 28.5555L18.9509 30.7446L18.6838 32.1004L18.4605 33.4909L18.2824 34.8641L18.1498 36.2546L18.0521 37.3188L17.9892 38.3986L17.9456 39.4628L17.9264 40.5443L17.9002 45.195L17.8828 48.2608L17.8636 51.3266L17.8548 54.4184L17.8636 57.5102L17.8828 60.576L17.9002 63.6418V66.6972V69.7647V71.1552L17.9177 72.5631L17.9351 73.9363L17.9805 75.3285L17.998 75.7712L18.0154 75.983L18.0521 76.2052L18.1219 76.6305L18.2388 77.0472L18.2929 77.2416L18.3627 77.4447L18.4343 77.6409L18.5233 77.844L18.7118 78.2242L18.9334 78.6061L19.0853 78.8544L19.2633 79.1113L19.4518 79.3509L19.656 79.5887L19.923 79.8734L20.1115 80.0505L20.307 80.2362L20.6717 80.5279L21.0644 80.8022L21.4658 81.0504L21.8934 81.2726L22.321 81.4584L22.7748 81.6268L23.239 81.7604L23.7294 81.875H23.7818L24.1832 81.9375L24.5933 81.9809H24.7365H24.808H24.8429H24.8604H24.8708L24.8883 81.9896L25.1728 82H25.1902L25.5829 81.9722L25.9756 81.9462L26.3665 81.8837L26.7592 81.8229L27.1345 81.724L27.5254 81.6094L27.9006 81.4775L28.2916 81.3264L28.6494 81.1407L29.0054 80.9532L29.344 80.7501L29.5046 80.6355L29.6738 80.5279L29.8257 80.4046L29.9862 80.29L30.0578 80.2189L30.0927 80.1824L30.1102 80.165L30.1381 80.1564L30.2969 80.0331L30.44 79.8908L30.5116 79.8196L30.5465 79.7849L30.5657 79.7658L30.5919 79.7571L30.735 79.6165L30.8065 79.5453L30.8414 79.5106L30.8589 79.4915L30.8868 79.4828L31.0648 79.271L31.2341 79.0575L31.3947 78.837L31.5465 78.6235L31.6792 78.3926L31.6879 78.3579L31.7053 78.3318L31.742 78.278L31.8136 78.1721L31.8659 78.0471L31.8746 78.0124L31.8938 77.9864L31.9287 77.9325L32.0439 77.7017L32.1329 77.4447L32.2237 77.1965L32.2935 76.9396L32.3563 76.693L32.4017 76.4257L32.4453 76.1601L32.4541 76.0195L32.4715 75.8858L32.4994 75.6202L32.5343 74.379L32.5623 73.1395V72.511L32.571 71.8913V70.6413L32.5169 65.8916L32.4994 62.7911L32.4907 57.821V54.8524L32.4541 51.8839L32.4279 48.8719L32.393 45.8235L32.3651 42.8827L32.3302 39.9141L32.2848 36.8848L32.2237 33.819L32.1958 32.2861L32.1696 30.7706L32.1609 27.7413L32.1783 25.4098L32.2499 23.0975L32.2848 22.0698L32.3476 21.0612L32.4279 20.0508L32.5343 19.0405L32.6408 18.0388L32.7752 17.0475L32.927 16.0545L33.1138 15.0702L33.5693 12.8117L33.8276 11.6868L34.1034 10.5705L34.4245 9.35704L34.798 8.1783L35.154 7.12281L35.5554 6.07774L35.983 5.04135L36.4473 4.01363L37.3827 2.00334L38.3548 0Z" fill="#E50043"/>
<path fill-rule="evenodd" clip-rule="evenodd" d="M16.439 8.00743L16.738 7.11153L17.0628 6.23128L17.4048 5.36148L17.7726 4.50037L18.2728 3.35571L18.8004 2.22844L19.3263 1.09943L19.8797 0L19.2833 0.248764L18.7041 0.541019L18.1336 0.861107L17.5887 1.22469L17.1763 1.49085L16.781 1.7831L16.3857 2.07709L16.0179 2.39718L15.6398 2.71553L15.2892 3.06171L14.9386 3.4079L14.6052 3.79061L13.9813 4.48298L13.3763 5.19274L12.7885 5.90424L12.2351 6.63139L11.8845 7.0576L11.5597 7.4838L11.2435 7.89261L10.953 8.30142L10.6557 8.68239L10.3824 9.06511L10.1195 9.42869L9.88228 9.78357L9.63651 10.1211L9.41824 10.4498L9.20685 10.7595L9.01436 11.0709L8.82187 11.3544L8.65516 11.6397L8.48673 11.9059L8.34752 12.1721L8.04847 12.6783L7.74943 13.2106L7.59131 13.4768L7.44351 13.7603L7.28539 14.0456L7.13587 14.3466L6.96916 14.6406L6.81104 14.9502L6.49481 15.5817L6.16139 16.2288L5.83656 16.9125L5.49455 17.5962L5.16113 18.3146L4.8363 19.0435L4.52007 19.7985L4.20384 20.5709L3.90651 21.3607L3.60746 22.1696L3.31701 22.9942L3.02827 23.7926L2.88734 24.1754L2.76532 24.5563L2.52815 25.2678L2.30816 25.9428L2.10707 26.5638L2.01083 26.8561L1.93177 27.1414L1.78225 27.6737L1.71178 27.9225L1.6585 28.1608L1.44024 28.9958L1.23743 29.8395L1.05354 30.6919L0.886827 31.5444L0.596374 33.2492L0.482943 34.1016L0.386698 34.9714L0.280141 35.9125L0.202802 36.8623L0.123743 37.8035L0.0790582 38.762L0.0360918 39.7031L0.00859329 40.6616L0 41.6028L0.00859329 42.563L0.0171866 43.5042L0.0618717 44.4453L0.175303 46.345L0.245768 47.2861L0.342013 48.2359L0.438258 49.177L0.570594 50.1356L0.728711 51.2907L0.816362 51.8665L0.9212 52.4527L1.14119 53.6078L1.39555 54.7612L1.6671 55.9076L1.96614 57.0609L2.29097 58.1969L2.65017 59.3416L2.95781 60.2566L3.11593 60.7089L3.29123 61.1716L3.45794 61.6153L3.64355 62.0693L4.02853 62.9739L4.42382 63.8524L4.85349 64.7413L5.30206 65.6111L5.77469 66.4809L6.20607 67.2255L6.65292 67.9805L7.11009 68.7181L7.58272 69.4644L8.05707 70.1828L8.5486 70.9117L9.04014 71.6302L9.55917 72.3486L10.4271 73.5298L11.3139 74.7023L12.2093 75.8557L13.1134 77.0021L13.3144 77.2596L13.5344 77.517L13.7527 77.7658L13.9899 78.0232L14.2185 78.2546L14.4642 78.493L14.71 78.7243L14.9729 78.9644L15.3768 79.3019L15.8065 79.6307L16.2465 79.9403L16.7019 80.243L17.0096 80.4291L17.3344 80.6153L17.6592 80.784L17.9926 80.9441L18.326 81.085L18.6681 81.2189L19.0118 81.3337L19.371 81.4503L19.5377 81.5042L19.7749 81.5303L20.1083 81.5738L20.4675 81.6364L21.0295 81.7251L21.6001 81.8052L22.1621 81.8765L22.7413 81.9391L23.1452 82L22.6622 81.8852L22.2051 81.7512L21.7582 81.5825L21.3371 81.3964L20.9161 81.1737L20.5208 80.9249L20.1341 80.6501L19.7749 80.3578L19.5824 80.1717L19.3968 79.9942L19.1338 79.7089L18.9327 79.4706L18.7471 79.2305L18.5718 78.9731L18.4223 78.7243L18.2298 78.4129L18.0545 78.112L17.8878 77.8006L17.7469 77.4892L17.5458 77.0543L17.3258 76.5307L16.8428 75.3408L16.6229 74.8085L16.4304 74.2848L16.2379 73.7525L16.0712 73.2289L15.7635 72.1903L15.5006 71.1605L15.272 70.1115L15.0795 69.0643L14.9128 68.0083L14.7719 66.9506L14.6928 66.347L14.6309 65.7538L14.5691 65.1484L14.5347 64.5552L14.1394 35.0514L14.5862 17.6675L14.7358 16.0688L14.8509 14.9589L15.009 13.8682L15.1929 12.7757L15.4215 11.7006L15.6398 10.7508L15.8856 9.82706L16.1502 8.90506L16.439 8.00743Z" fill="#FFD64D"/>
</svg>
