<svg width="502" height="598" viewBox="0 0 502 598" fill="none" xmlns="http://www.w3.org/2000/svg">
<path d="M268.71 521.03L239.403 508.8L209.514 528.795L175.841 565.969H169.436L165.554 585.382H160.702L158.761 590.235L117.324 598L108.299 590.235L87.9204 595.088L75.596 581.888L78.5072 575.676L95.6837 561.116L97.3335 552.09L110.24 525.883H117.324L134.792 516.856L137.994 503.559H142.264L165.554 477.352L121.206 469.004L83.3594 425.035V463.181L60.4574 451.145L51.3354 436.586L55.6053 400.09L33.2855 363.886L0 334.088L26.4926 287.886L41.34 235.085L16.7883 224.796V213.149L5.14324 190.824L44.9306 138.119L47.4537 122.881L75.9841 93.762L91.802 74.0584L94.7133 48.1428L85.6884 21.6449L78.2161 18.733L62.9805 12.2298L73.364 0L112.181 35.913L131.589 42.9985L168.465 30.0893L204.953 65.517L226.012 68.6229L258.036 80.7557L261.238 76.582L279.288 86.0941L277.735 90.0737L310.438 117.445L313.156 115.601L333.826 126.957L325.48 134.625L321.889 170.732L355.175 172.577L353.622 183.447L340.522 212.178L361.58 234.211L365.17 230.426L381.376 246.344L385.355 241.199L391.081 246.344L388.169 248.479L395.836 255.662L425.045 231.979L443.192 244.694L458.04 231.979L490.452 272.162H494.334L502 278.763L490.452 285.945L494.334 291.963L482.786 306.328L490.452 316.714V322.829H476.187H463.571L392.051 376.213L399.717 400.381V436.197V452.116L404.667 458.716V480.167L416.797 518.118L411.265 533.551L395.35 540.733L378.853 566.552L359.542 553.351H342.462L324.315 533.551L327.13 513.75L319.366 518.118L297.435 501.617L291.903 518.118L287.536 513.75L280.938 518.118L273.174 508.8L268.71 521.03Z" fill="#F3F3F3"/>
<path d="M292 193.176L291.269 193.859L292 194.642L292.731 193.859L292 193.176ZM292 193.176C292.731 193.859 292.731 193.859 292.731 193.859L292.732 193.858L292.733 193.856L292.74 193.85L292.762 193.825C292.782 193.804 292.811 193.772 292.849 193.731C292.924 193.649 293.034 193.529 293.173 193.375C293.451 193.066 293.846 192.621 294.321 192.069C295.268 190.967 296.534 189.437 297.803 187.73C299.068 186.027 300.351 184.126 301.322 182.285C302.276 180.475 303 178.594 303 176.964C303 170.905 298.072 166 292 166C285.928 166 281 170.905 281 176.964C281 178.594 281.724 180.475 282.678 182.285C283.649 184.126 284.932 186.027 286.197 187.73C287.466 189.437 288.732 190.967 289.679 192.069C290.154 192.621 290.549 193.066 290.827 193.375C290.966 193.529 291.076 193.649 291.151 193.731C291.189 193.772 291.218 193.804 291.238 193.825L291.26 193.85L291.267 193.856L291.268 193.858L291.269 193.859C291.269 193.859 291.269 193.859 292 193.176Z" fill="#07689F" stroke="#07689F" stroke-width="2"/>
<ellipse cx="292" cy="175.529" rx="3.82353" ry="3.82353" fill="#F3F3F3"/>
<path d="M173 480.176L172.269 480.859L173 481.642L173.731 480.859L173 480.176ZM173 480.176C173.731 480.859 173.731 480.859 173.731 480.859L173.732 480.858L173.733 480.856L173.74 480.85L173.762 480.825C173.782 480.804 173.811 480.772 173.849 480.731C173.924 480.649 174.034 480.529 174.173 480.375C174.451 480.066 174.846 479.621 175.321 479.069C176.268 477.967 177.534 476.437 178.803 474.73C180.068 473.027 181.351 471.126 182.322 469.285C183.276 467.475 184 465.594 184 463.964C184 457.905 179.072 453 173 453C166.928 453 162 457.905 162 463.964C162 465.594 162.724 467.475 163.678 469.285C164.649 471.126 165.932 473.027 167.197 474.73C168.466 476.437 169.732 477.967 170.679 479.069C171.154 479.621 171.549 480.066 171.827 480.375C171.966 480.529 172.076 480.649 172.151 480.731C172.189 480.772 172.218 480.804 172.238 480.825L172.26 480.85L172.267 480.856L172.268 480.858L172.269 480.859C172.269 480.859 172.269 480.859 173 480.176Z" fill="#07689F" stroke="#07689F" stroke-width="2"/>
<ellipse cx="173" cy="462.529" rx="3.82353" ry="3.82353" fill="#F3F3F3"/>
<path d="M292 394.176L291.269 394.859L292 395.642L292.731 394.859L292 394.176ZM292 394.176C292.731 394.859 292.731 394.859 292.731 394.859L292.732 394.858L292.733 394.856L292.74 394.85L292.762 394.825C292.782 394.804 292.811 394.772 292.849 394.731C292.924 394.649 293.034 394.529 293.173 394.375C293.451 394.066 293.846 393.621 294.321 393.069C295.268 391.967 296.534 390.437 297.803 388.73C299.068 387.027 300.351 385.126 301.322 383.285C302.276 381.475 303 379.594 303 377.964C303 371.905 298.072 367 292 367C285.928 367 281 371.905 281 377.964C281 379.594 281.724 381.475 282.678 383.285C283.649 385.126 284.932 387.027 286.197 388.73C287.466 390.437 288.732 391.967 289.679 393.069C290.154 393.621 290.549 394.066 290.827 394.375C290.966 394.529 291.076 394.649 291.151 394.731C291.189 394.772 291.218 394.804 291.238 394.825L291.26 394.85L291.267 394.856L291.268 394.858L291.269 394.859C291.269 394.859 291.269 394.859 292 394.176Z" fill="#07689F" stroke="#07689F" stroke-width="2"/>
<ellipse cx="292" cy="376.529" rx="3.82353" ry="3.82353" fill="#F3F3F3"/>
<path d="M90 164.176L89.2691 164.859L90 165.642L90.7309 164.859L90 164.176ZM90 164.176C90.7309 164.859 90.731 164.859 90.7312 164.859L90.7317 164.858L90.7334 164.856L90.7395 164.85L90.7624 164.825C90.7823 164.804 90.8113 164.772 90.849 164.731C90.9242 164.649 91.0338 164.529 91.1727 164.375C91.4506 164.066 91.8463 163.621 92.3207 163.069C93.2684 161.967 94.5344 160.437 95.8027 158.73C97.0683 157.027 98.3512 155.126 99.3221 153.285C100.276 151.475 101 149.594 101 147.964C101 141.905 96.0717 137 90 137C83.9283 137 79 141.905 79 147.964C79 149.594 79.7236 151.475 80.6779 153.285C81.6488 155.126 82.9317 157.027 84.1973 158.73C85.4656 160.437 86.7316 161.967 87.6793 163.069C88.1537 163.621 88.5494 164.066 88.8273 164.375C88.9662 164.529 89.0758 164.649 89.151 164.731C89.1887 164.772 89.2177 164.804 89.2376 164.825L89.2605 164.85L89.2666 164.856L89.2683 164.858L89.2688 164.859C89.269 164.859 89.2691 164.859 90 164.176Z" fill="#07689F" stroke="#07689F" stroke-width="2"/>
<ellipse cx="90" cy="146.529" rx="3.82353" ry="3.82353" fill="#F3F3F3"/>
<path d="M120 363.176L119.269 363.859L120 364.642L120.731 363.859L120 363.176ZM120 363.176C120.731 363.859 120.731 363.859 120.731 363.859L120.732 363.858L120.733 363.856L120.74 363.85L120.762 363.825C120.782 363.804 120.811 363.772 120.849 363.731C120.924 363.649 121.034 363.529 121.173 363.375C121.451 363.066 121.846 362.621 122.321 362.069C123.268 360.967 124.534 359.437 125.803 357.73C127.068 356.027 128.351 354.126 129.322 352.285C130.276 350.475 131 348.594 131 346.964C131 340.905 126.072 336 120 336C113.928 336 109 340.905 109 346.964C109 348.594 109.724 350.475 110.678 352.285C111.649 354.126 112.932 356.027 114.197 357.73C115.466 359.437 116.732 360.967 117.679 362.069C118.154 362.621 118.549 363.066 118.827 363.375C118.966 363.529 119.076 363.649 119.151 363.731C119.189 363.772 119.218 363.804 119.238 363.825L119.26 363.85L119.267 363.856L119.268 363.858L119.269 363.859C119.269 363.859 119.269 363.859 120 363.176Z" fill="#07689F" stroke="#07689F" stroke-width="2"/>
<ellipse cx="120" cy="345.529" rx="3.82353" ry="3.82353" fill="#F3F3F3"/>
<path d="M270.83 209.156C270.746 209.216 270.632 209.27 270.488 209.318C270.356 209.366 270.206 209.39 270.038 209.39C269.846 209.39 269.672 209.36 269.516 209.3C269.372 209.24 269.27 209.144 269.21 209.012C268.562 207.668 268.004 206.438 267.536 205.322C267.068 204.206 266.69 203.282 266.402 202.55H266.33C266.294 203.45 266.252 204.29 266.204 205.07C266.168 205.838 266.126 206.594 266.078 207.338C266.03 208.07 265.982 208.814 265.934 209.57C265.886 210.326 265.838 211.136 265.79 212C265.718 212.024 265.622 212.048 265.502 212.072C265.394 212.096 265.274 212.108 265.142 212.108C264.878 212.108 264.692 212.054 264.584 211.946C264.476 211.838 264.422 211.682 264.422 211.478C264.422 211.358 264.428 211.1 264.44 210.704C264.464 210.308 264.494 209.828 264.53 209.264C264.566 208.7 264.602 208.076 264.638 207.392C264.686 206.708 264.734 206.012 264.782 205.304C264.842 204.596 264.896 203.9 264.944 203.216C265.004 202.532 265.058 201.908 265.106 201.344C265.202 201.26 265.34 201.182 265.52 201.11C265.7 201.038 265.904 201.002 266.132 201.002C266.684 201.002 267.068 201.224 267.284 201.668C267.512 202.136 267.74 202.634 267.968 203.162C268.208 203.678 268.442 204.206 268.67 204.746C268.91 205.286 269.138 205.82 269.354 206.348C269.582 206.876 269.798 207.38 270.002 207.86H270.074C270.338 207.224 270.602 206.6 270.866 205.988C271.13 205.364 271.388 204.764 271.64 204.188C271.892 203.612 272.132 203.072 272.36 202.568C272.588 202.064 272.792 201.602 272.972 201.182C273.08 201.122 273.218 201.08 273.386 201.056C273.554 201.02 273.71 201.002 273.854 201.002C274.418 201.002 274.742 201.194 274.826 201.578C274.874 201.794 274.928 202.154 274.988 202.658C275.048 203.15 275.108 203.72 275.168 204.368C275.228 205.016 275.282 205.712 275.33 206.456C275.39 207.2 275.444 207.92 275.492 208.616C275.54 209.3 275.582 209.936 275.618 210.524C275.654 211.1 275.684 211.556 275.708 211.892C275.492 212.036 275.24 212.108 274.952 212.108C274.772 212.108 274.61 212.066 274.466 211.982C274.334 211.886 274.256 211.718 274.232 211.478C274.172 210.602 274.118 209.732 274.07 208.868C274.022 208.004 273.974 207.182 273.926 206.402C273.89 205.622 273.854 204.908 273.818 204.26C273.782 203.6 273.752 203.042 273.728 202.586H273.656C273.524 202.922 273.368 203.3 273.188 203.72C273.02 204.14 272.816 204.614 272.576 205.142C272.348 205.67 272.09 206.27 271.802 206.942C271.514 207.602 271.19 208.34 270.83 209.156ZM281.365 211.064C281.869 211.064 282.283 211.016 282.607 210.92C282.943 210.812 283.183 210.71 283.327 210.614V208.004L281.095 208.238C280.471 208.298 280.009 208.442 279.709 208.67C279.409 208.886 279.259 209.21 279.259 209.642C279.259 210.098 279.433 210.452 279.781 210.704C280.129 210.944 280.657 211.064 281.365 211.064ZM281.347 203.45C282.391 203.45 283.219 203.684 283.831 204.152C284.443 204.62 284.749 205.358 284.749 206.366V210.632C284.749 210.896 284.695 211.1 284.587 211.244C284.491 211.376 284.341 211.502 284.137 211.622C283.849 211.79 283.465 211.934 282.985 212.054C282.517 212.186 281.977 212.252 281.365 212.252C280.237 212.252 279.361 212.03 278.737 211.586C278.125 211.142 277.819 210.5 277.819 209.66C277.819 208.868 278.077 208.274 278.593 207.878C279.109 207.47 279.835 207.218 280.771 207.122L283.327 206.87V206.366C283.327 205.766 283.147 205.328 282.787 205.052C282.427 204.776 281.941 204.638 281.329 204.638C280.825 204.638 280.351 204.71 279.907 204.854C279.463 204.998 279.067 205.16 278.719 205.34C278.623 205.256 278.533 205.16 278.449 205.052C278.377 204.944 278.341 204.824 278.341 204.692C278.341 204.524 278.383 204.386 278.467 204.278C278.551 204.17 278.683 204.068 278.863 203.972C279.187 203.804 279.559 203.678 279.979 203.594C280.399 203.498 280.855 203.45 281.347 203.45ZM293.137 206.582C293.137 205.91 292.945 205.418 292.561 205.106C292.189 204.794 291.685 204.638 291.049 204.638C290.569 204.638 290.143 204.698 289.771 204.818C289.399 204.938 289.081 205.076 288.817 205.232V211.964C288.757 211.988 288.667 212.012 288.547 212.036C288.427 212.072 288.295 212.09 288.151 212.09C287.635 212.09 287.377 211.874 287.377 211.442V205.304C287.377 205.052 287.425 204.848 287.521 204.692C287.629 204.524 287.809 204.362 288.061 204.206C288.373 204.014 288.787 203.84 289.303 203.684C289.819 203.528 290.401 203.45 291.049 203.45C292.141 203.45 292.999 203.696 293.623 204.188C294.259 204.68 294.577 205.454 294.577 206.51V211.964C294.517 211.988 294.421 212.012 294.289 212.036C294.169 212.072 294.043 212.09 293.911 212.09C293.395 212.09 293.137 211.874 293.137 211.442V206.582ZM300.244 211.064C300.748 211.064 301.162 211.016 301.486 210.92C301.822 210.812 302.062 210.71 302.206 210.614V208.004L299.974 208.238C299.35 208.298 298.888 208.442 298.588 208.67C298.288 208.886 298.138 209.21 298.138 209.642C298.138 210.098 298.312 210.452 298.66 210.704C299.008 210.944 299.536 211.064 300.244 211.064ZM300.226 203.45C301.27 203.45 302.098 203.684 302.71 204.152C303.322 204.62 303.628 205.358 303.628 206.366V210.632C303.628 210.896 303.574 211.1 303.466 211.244C303.37 211.376 303.22 211.502 303.016 211.622C302.728 211.79 302.344 211.934 301.864 212.054C301.396 212.186 300.856 212.252 300.244 212.252C299.116 212.252 298.24 212.03 297.616 211.586C297.004 211.142 296.698 210.5 296.698 209.66C296.698 208.868 296.956 208.274 297.472 207.878C297.988 207.47 298.714 207.218 299.65 207.122L302.206 206.87V206.366C302.206 205.766 302.026 205.328 301.666 205.052C301.306 204.776 300.82 204.638 300.208 204.638C299.704 204.638 299.23 204.71 298.786 204.854C298.342 204.998 297.946 205.16 297.598 205.34C297.502 205.256 297.412 205.16 297.328 205.052C297.256 204.944 297.22 204.824 297.22 204.692C297.22 204.524 297.262 204.386 297.346 204.278C297.43 204.17 297.562 204.068 297.742 203.972C298.066 203.804 298.438 203.678 298.858 203.594C299.278 203.498 299.734 203.45 300.226 203.45ZM311.818 211.136C311.614 211.304 311.332 211.448 310.972 211.568C310.624 211.688 310.204 211.748 309.712 211.748C309.184 211.748 308.686 211.676 308.218 211.532C307.75 211.376 307.336 211.136 306.976 210.812C306.628 210.476 306.346 210.044 306.13 209.516C305.926 208.988 305.824 208.346 305.824 207.59C305.824 206.906 305.926 206.306 306.13 205.79C306.334 205.274 306.616 204.842 306.976 204.494C307.348 204.146 307.786 203.888 308.29 203.72C308.794 203.54 309.352 203.45 309.964 203.45C310.516 203.45 311.02 203.522 311.476 203.666C311.944 203.798 312.334 203.966 312.646 204.17C312.826 204.29 312.97 204.428 313.078 204.584C313.198 204.728 313.258 204.908 313.258 205.124V212.36C313.258 212.96 313.156 213.464 312.952 213.872C312.76 214.292 312.484 214.628 312.124 214.88C311.776 215.144 311.362 215.336 310.882 215.456C310.402 215.576 309.886 215.636 309.334 215.636C308.722 215.636 308.2 215.57 307.768 215.438C307.348 215.318 307.06 215.21 306.904 215.114C306.544 214.91 306.364 214.652 306.364 214.34C306.364 214.172 306.4 214.028 306.472 213.908C306.556 213.8 306.658 213.716 306.778 213.656C307.03 213.848 307.384 214.022 307.84 214.178C308.296 214.346 308.794 214.43 309.334 214.43C310.138 214.43 310.75 214.256 311.17 213.908C311.602 213.572 311.818 213.026 311.818 212.27V211.136ZM309.874 210.56C310.354 210.56 310.744 210.488 311.044 210.344C311.356 210.188 311.614 210.014 311.818 209.822V205.142C311.614 205.01 311.356 204.896 311.044 204.8C310.744 204.692 310.384 204.638 309.964 204.638C309.148 204.638 308.494 204.884 308.002 205.376C307.522 205.868 307.282 206.6 307.282 207.572C307.282 208.112 307.348 208.574 307.48 208.958C307.612 209.33 307.792 209.636 308.02 209.876C308.26 210.116 308.536 210.29 308.848 210.398C309.172 210.506 309.514 210.56 309.874 210.56ZM316.95 208.688C317.274 210.26 318.306 211.046 320.046 211.046C320.55 211.046 321.006 210.962 321.414 210.794C321.822 210.626 322.146 210.446 322.386 210.254C322.674 210.422 322.818 210.65 322.818 210.938C322.818 211.106 322.74 211.268 322.584 211.424C322.44 211.58 322.236 211.718 321.972 211.838C321.72 211.958 321.42 212.054 321.072 212.126C320.736 212.198 320.37 212.234 319.974 212.234C318.582 212.234 317.478 211.856 316.662 211.1C315.858 210.344 315.456 209.24 315.456 207.788C315.456 207.104 315.552 206.498 315.744 205.97C315.948 205.43 316.224 204.974 316.572 204.602C316.932 204.23 317.358 203.948 317.85 203.756C318.342 203.552 318.876 203.45 319.452 203.45C319.992 203.45 320.49 203.54 320.946 203.72C321.402 203.9 321.792 204.158 322.116 204.494C322.452 204.818 322.71 205.208 322.89 205.664C323.082 206.108 323.178 206.6 323.178 207.14C323.178 207.404 323.118 207.596 322.998 207.716C322.878 207.824 322.71 207.89 322.494 207.914L316.95 208.688ZM319.434 204.62C318.702 204.62 318.096 204.878 317.616 205.394C317.136 205.898 316.884 206.624 316.86 207.572L321.81 206.888C321.75 206.228 321.516 205.688 321.108 205.268C320.712 204.836 320.154 204.62 319.434 204.62Z" fill="#3B3B3B"/>
<path d="M50.288 177.81C50.288 178.326 50.162 178.806 49.91 179.25C49.67 179.682 49.262 180.018 48.686 180.258C49.37 180.486 49.88 180.846 50.216 181.338C50.552 181.818 50.72 182.364 50.72 182.976C50.72 184.068 50.324 184.878 49.532 185.406C48.752 185.934 47.636 186.198 46.184 186.198C45.68 186.198 45.188 186.174 44.708 186.126C44.24 186.09 43.79 186.012 43.358 185.892C42.854 185.748 42.602 185.472 42.602 185.064V175.848C42.602 175.5 42.8 175.272 43.196 175.164C43.604 175.044 44.036 174.966 44.492 174.93C44.948 174.882 45.446 174.858 45.986 174.858C47.342 174.858 48.398 175.098 49.154 175.578C49.91 176.058 50.288 176.802 50.288 177.81ZM44.042 180.906V184.794C44.33 184.854 44.66 184.902 45.032 184.938C45.416 184.974 45.8 184.992 46.184 184.992C47.18 184.992 47.936 184.83 48.452 184.506C48.968 184.17 49.226 183.648 49.226 182.94C49.226 182.316 48.992 181.824 48.524 181.464C48.068 181.092 47.39 180.906 46.49 180.906H44.042ZM44.042 179.718H46.49C47.246 179.718 47.816 179.55 48.2 179.214C48.596 178.878 48.794 178.422 48.794 177.846C48.794 176.658 47.858 176.064 45.986 176.064C45.566 176.064 45.2 176.082 44.888 176.118C44.588 176.142 44.306 176.178 44.042 176.226V179.718ZM60.7947 181.842C60.7947 182.514 60.6987 183.12 60.5067 183.66C60.3147 184.2 60.0387 184.662 59.6787 185.046C59.3307 185.43 58.9047 185.724 58.4007 185.928C57.8967 186.132 57.3327 186.234 56.7087 186.234C56.0847 186.234 55.5207 186.132 55.0167 185.928C54.5127 185.724 54.0807 185.43 53.7207 185.046C53.3607 184.662 53.0847 184.2 52.8927 183.66C52.7007 183.12 52.6047 182.514 52.6047 181.842C52.6047 181.17 52.7007 180.564 52.8927 180.024C53.0967 179.484 53.3787 179.022 53.7387 178.638C54.0987 178.254 54.5307 177.96 55.0347 177.756C55.5387 177.552 56.0967 177.45 56.7087 177.45C57.3207 177.45 57.8787 177.552 58.3827 177.756C58.8867 177.96 59.3127 178.254 59.6607 178.638C60.0207 179.022 60.2967 179.484 60.4887 180.024C60.6927 180.564 60.7947 181.17 60.7947 181.842ZM56.7087 178.638C55.8927 178.638 55.2507 178.92 54.7827 179.484C54.3147 180.048 54.0807 180.834 54.0807 181.842C54.0807 182.862 54.3087 183.654 54.7647 184.218C55.2327 184.77 55.8807 185.046 56.7087 185.046C57.5367 185.046 58.1787 184.764 58.6347 184.2C59.0907 183.636 59.3187 182.85 59.3187 181.842C59.3187 180.834 59.0847 180.048 58.6167 179.484C58.1607 178.92 57.5247 178.638 56.7087 178.638ZM64.5519 185.964C64.4919 185.988 64.4019 186.012 64.2819 186.036C64.1619 186.072 64.0299 186.09 63.8859 186.09C63.3699 186.09 63.1119 185.874 63.1119 185.442V177.72C63.1719 177.696 63.2619 177.672 63.3819 177.648C63.5139 177.612 63.6519 177.594 63.7959 177.594C64.2999 177.594 64.5519 177.816 64.5519 178.26V185.964ZM62.8959 175.056C62.8959 174.804 62.9799 174.594 63.1479 174.426C63.3279 174.246 63.5559 174.156 63.8319 174.156C64.1079 174.156 64.3299 174.246 64.4979 174.426C64.6659 174.594 64.7499 174.804 64.7499 175.056C64.7499 175.308 64.6659 175.524 64.4979 175.704C64.3299 175.872 64.1079 175.956 63.8319 175.956C63.5559 175.956 63.3279 175.872 63.1479 175.704C62.9799 175.524 62.8959 175.308 62.8959 175.056ZM73.2317 183.786C73.2317 184.554 72.9497 185.154 72.3857 185.586C71.8217 186.018 71.0057 186.234 69.9377 186.234C69.4817 186.234 69.0617 186.192 68.6777 186.108C68.2937 186.036 67.9637 185.94 67.6877 185.82C67.4237 185.688 67.2137 185.544 67.0577 185.388C66.9137 185.22 66.8417 185.052 66.8417 184.884C66.8417 184.74 66.8777 184.602 66.9497 184.47C67.0337 184.338 67.1537 184.224 67.3097 184.128C67.6337 184.368 68.0117 184.584 68.4437 184.776C68.8757 184.956 69.3677 185.046 69.9197 185.046C71.1677 185.046 71.7917 184.626 71.7917 183.786C71.7917 183.102 71.3777 182.658 70.5497 182.454L69.0557 182.058C68.3237 181.866 67.7897 181.59 67.4537 181.23C67.1177 180.858 66.9497 180.384 66.9497 179.808C66.9497 179.496 67.0097 179.196 67.1297 178.908C67.2617 178.62 67.4597 178.368 67.7237 178.152C67.9877 177.936 68.3117 177.768 68.6957 177.648C69.0917 177.516 69.5537 177.45 70.0817 177.45C70.9217 177.45 71.5997 177.576 72.1157 177.828C72.6317 178.068 72.8897 178.35 72.8897 178.674C72.8897 178.83 72.8477 178.968 72.7637 179.088C72.6917 179.208 72.5897 179.298 72.4577 179.358C72.2417 179.214 71.9357 179.058 71.5397 178.89C71.1437 178.722 70.6757 178.638 70.1357 178.638C69.5957 178.638 69.1637 178.74 68.8397 178.944C68.5277 179.148 68.3717 179.436 68.3717 179.808C68.3717 180.084 68.4617 180.318 68.6417 180.51C68.8217 180.702 69.1217 180.846 69.5417 180.942L70.7837 181.248C71.5997 181.452 72.2117 181.758 72.6197 182.166C73.0277 182.562 73.2317 183.102 73.2317 183.786ZM86.128 184.632C86.128 184.872 86.074 185.058 85.966 185.19C85.87 185.322 85.714 185.454 85.498 185.586C85.258 185.742 84.916 185.886 84.472 186.018C84.028 186.162 83.518 186.234 82.942 186.234C82.294 186.234 81.7 186.15 81.16 185.982C80.62 185.814 80.152 185.556 79.756 185.208C79.372 184.848 79.072 184.398 78.856 183.858C78.652 183.306 78.55 182.646 78.55 181.878C78.55 181.098 78.658 180.432 78.874 179.88C79.09 179.316 79.378 178.854 79.738 178.494C80.11 178.134 80.542 177.87 81.034 177.702C81.538 177.534 82.072 177.45 82.636 177.45C83.02 177.45 83.392 177.498 83.752 177.594C84.112 177.69 84.424 177.81 84.688 177.954V174.336C84.748 174.312 84.838 174.288 84.958 174.264C85.09 174.228 85.222 174.21 85.354 174.21C85.87 174.21 86.128 174.426 86.128 174.858V184.632ZM84.688 179.25C84.448 179.082 84.172 178.938 83.86 178.818C83.548 178.698 83.188 178.638 82.78 178.638C82.408 178.638 82.054 178.698 81.718 178.818C81.394 178.926 81.106 179.112 80.854 179.376C80.602 179.628 80.398 179.964 80.242 180.384C80.098 180.804 80.026 181.314 80.026 181.914C80.026 183.018 80.29 183.816 80.818 184.308C81.346 184.8 82.048 185.046 82.924 185.046C83.344 185.046 83.686 185.004 83.95 184.92C84.226 184.824 84.472 184.71 84.688 184.578V179.25ZM88.9337 178.134C88.8497 178.302 88.7597 178.428 88.6637 178.512C88.5677 178.584 88.4357 178.62 88.2677 178.62C88.1597 178.62 88.0517 178.602 87.9437 178.566C87.8477 178.53 87.7637 178.482 87.6917 178.422C87.7277 178.194 87.7697 177.936 87.8177 177.648C87.8777 177.348 87.9257 177.036 87.9617 176.712C88.0097 176.388 88.0517 176.07 88.0877 175.758C88.1237 175.434 88.1537 175.134 88.1777 174.858C88.3937 174.786 88.6217 174.75 88.8617 174.75C89.0657 174.75 89.2277 174.81 89.3477 174.93C89.4797 175.038 89.5457 175.212 89.5457 175.452C89.5457 175.632 89.5217 175.848 89.4737 176.1C89.4377 176.352 89.3837 176.61 89.3117 176.874C89.2517 177.126 89.1857 177.366 89.1137 177.594C89.0417 177.822 88.9817 178.002 88.9337 178.134ZM99.9669 185.964C99.8949 185.988 99.7989 186.012 99.6789 186.036C99.5589 186.072 99.4269 186.09 99.2829 186.09C98.7549 186.09 98.4909 185.868 98.4909 185.424V181.068H92.8749V185.964C92.8029 185.988 92.7069 186.012 92.5869 186.036C92.4669 186.072 92.3349 186.09 92.1909 186.09C91.6629 186.09 91.3989 185.868 91.3989 185.424V175.092C91.4589 175.068 91.5489 175.044 91.6689 175.02C91.8009 174.984 91.9389 174.966 92.0829 174.966C92.6109 174.966 92.8749 175.188 92.8749 175.632V179.844H98.4909V175.092C98.5509 175.068 98.6409 175.044 98.7609 175.02C98.8929 174.984 99.0309 174.966 99.1749 174.966C99.7029 174.966 99.9669 175.188 99.9669 175.632V185.964ZM105.894 185.064C106.398 185.064 106.812 185.016 107.136 184.92C107.472 184.812 107.712 184.71 107.856 184.614V182.004L105.624 182.238C105 182.298 104.538 182.442 104.238 182.67C103.938 182.886 103.788 183.21 103.788 183.642C103.788 184.098 103.962 184.452 104.31 184.704C104.658 184.944 105.186 185.064 105.894 185.064ZM105.876 177.45C106.92 177.45 107.748 177.684 108.36 178.152C108.972 178.62 109.278 179.358 109.278 180.366V184.632C109.278 184.896 109.224 185.1 109.116 185.244C109.02 185.376 108.87 185.502 108.666 185.622C108.378 185.79 107.994 185.934 107.514 186.054C107.046 186.186 106.506 186.252 105.894 186.252C104.766 186.252 103.89 186.03 103.266 185.586C102.654 185.142 102.348 184.5 102.348 183.66C102.348 182.868 102.606 182.274 103.122 181.878C103.638 181.47 104.364 181.218 105.3 181.122L107.856 180.87V180.366C107.856 179.766 107.676 179.328 107.316 179.052C106.956 178.776 106.47 178.638 105.858 178.638C105.354 178.638 104.88 178.71 104.436 178.854C103.992 178.998 103.596 179.16 103.248 179.34C103.152 179.256 103.062 179.16 102.978 179.052C102.906 178.944 102.87 178.824 102.87 178.692C102.87 178.524 102.912 178.386 102.996 178.278C103.08 178.17 103.212 178.068 103.392 177.972C103.716 177.804 104.088 177.678 104.508 177.594C104.928 177.498 105.384 177.45 105.876 177.45ZM113.437 185.964C113.377 185.988 113.287 186.012 113.167 186.036C113.047 186.072 112.915 186.09 112.771 186.09C112.255 186.09 111.997 185.874 111.997 185.442V177.72C112.057 177.696 112.147 177.672 112.267 177.648C112.399 177.612 112.537 177.594 112.681 177.594C113.185 177.594 113.437 177.816 113.437 178.26V185.964ZM111.781 175.056C111.781 174.804 111.865 174.594 112.033 174.426C112.213 174.246 112.441 174.156 112.717 174.156C112.993 174.156 113.215 174.246 113.383 174.426C113.551 174.594 113.635 174.804 113.635 175.056C113.635 175.308 113.551 175.524 113.383 175.704C113.215 175.872 112.993 175.956 112.717 175.956C112.441 175.956 112.213 175.872 112.033 175.704C111.865 175.524 111.781 175.308 111.781 175.056ZM122.008 180.582C122.008 179.91 121.816 179.418 121.432 179.106C121.06 178.794 120.556 178.638 119.92 178.638C119.44 178.638 119.014 178.698 118.642 178.818C118.27 178.938 117.952 179.076 117.688 179.232V185.964C117.628 185.988 117.538 186.012 117.418 186.036C117.298 186.072 117.166 186.09 117.022 186.09C116.506 186.09 116.248 185.874 116.248 185.442V179.304C116.248 179.052 116.296 178.848 116.392 178.692C116.5 178.524 116.68 178.362 116.932 178.206C117.244 178.014 117.658 177.84 118.174 177.684C118.69 177.528 119.272 177.45 119.92 177.45C121.012 177.45 121.87 177.696 122.494 178.188C123.13 178.68 123.448 179.454 123.448 180.51V185.964C123.388 185.988 123.292 186.012 123.16 186.036C123.04 186.072 122.914 186.09 122.782 186.09C122.266 186.09 122.008 185.874 122.008 185.442V180.582ZM127.171 182.688C127.495 184.26 128.527 185.046 130.267 185.046C130.771 185.046 131.227 184.962 131.635 184.794C132.043 184.626 132.367 184.446 132.607 184.254C132.895 184.422 133.039 184.65 133.039 184.938C133.039 185.106 132.961 185.268 132.805 185.424C132.661 185.58 132.457 185.718 132.193 185.838C131.941 185.958 131.641 186.054 131.293 186.126C130.957 186.198 130.591 186.234 130.195 186.234C128.803 186.234 127.699 185.856 126.883 185.1C126.079 184.344 125.677 183.24 125.677 181.788C125.677 181.104 125.773 180.498 125.965 179.97C126.169 179.43 126.445 178.974 126.793 178.602C127.153 178.23 127.579 177.948 128.071 177.756C128.563 177.552 129.097 177.45 129.673 177.45C130.213 177.45 130.711 177.54 131.167 177.72C131.623 177.9 132.013 178.158 132.337 178.494C132.673 178.818 132.931 179.208 133.111 179.664C133.303 180.108 133.399 180.6 133.399 181.14C133.399 181.404 133.339 181.596 133.219 181.716C133.099 181.824 132.931 181.89 132.715 181.914L127.171 182.688ZM129.655 178.62C128.923 178.62 128.317 178.878 127.837 179.394C127.357 179.898 127.105 180.624 127.081 181.572L132.031 180.888C131.971 180.228 131.737 179.688 131.329 179.268C130.933 178.836 130.375 178.62 129.655 178.62Z" fill="#3B3B3B"/>
<path d="M65.37 376.056C65.406 376.116 65.442 376.2 65.478 376.308C65.514 376.404 65.532 376.512 65.532 376.632C65.532 376.836 65.484 376.998 65.388 377.118C65.292 377.238 65.154 377.298 64.974 377.298H60.078V381.042H64.74C64.776 381.102 64.812 381.186 64.848 381.294C64.884 381.39 64.902 381.498 64.902 381.618C64.902 381.822 64.854 381.984 64.758 382.104C64.662 382.224 64.524 382.284 64.344 382.284H60.078V386.982C60.018 387.006 59.922 387.03 59.79 387.054C59.67 387.078 59.544 387.09 59.412 387.09C58.872 387.09 58.602 386.874 58.602 386.442V376.848C58.602 376.608 58.674 376.416 58.818 376.272C58.962 376.128 59.154 376.056 59.394 376.056H65.37ZM70.0739 386.064C70.5779 386.064 70.9919 386.016 71.3159 385.92C71.6519 385.812 71.8919 385.71 72.0359 385.614V383.004L69.8039 383.238C69.1799 383.298 68.7179 383.442 68.4179 383.67C68.1179 383.886 67.9679 384.21 67.9679 384.642C67.9679 385.098 68.1419 385.452 68.4899 385.704C68.8379 385.944 69.3659 386.064 70.0739 386.064ZM70.0559 378.45C71.0999 378.45 71.9279 378.684 72.5399 379.152C73.1519 379.62 73.4579 380.358 73.4579 381.366V385.632C73.4579 385.896 73.4039 386.1 73.2959 386.244C73.1999 386.376 73.0499 386.502 72.8459 386.622C72.5579 386.79 72.1739 386.934 71.6939 387.054C71.2259 387.186 70.6859 387.252 70.0739 387.252C68.9459 387.252 68.0699 387.03 67.4459 386.586C66.8339 386.142 66.5279 385.5 66.5279 384.66C66.5279 383.868 66.7859 383.274 67.3019 382.878C67.8179 382.47 68.5439 382.218 69.4799 382.122L72.0359 381.87V381.366C72.0359 380.766 71.8559 380.328 71.4959 380.052C71.1359 379.776 70.6499 379.638 70.0379 379.638C69.5339 379.638 69.0599 379.71 68.6159 379.854C68.1719 379.998 67.7759 380.16 67.4279 380.34C67.3319 380.256 67.2419 380.16 67.1579 380.052C67.0859 379.944 67.0499 379.824 67.0499 379.692C67.0499 379.524 67.0919 379.386 67.1759 379.278C67.2599 379.17 67.3919 379.068 67.5719 378.972C67.8959 378.804 68.2679 378.678 68.6879 378.594C69.1079 378.498 69.5639 378.45 70.0559 378.45ZM77.5674 385.146C77.4114 384.858 77.2314 384.492 77.0274 384.048C76.8234 383.604 76.6074 383.106 76.3794 382.554C76.1634 382.002 75.9414 381.42 75.7134 380.808C75.4854 380.184 75.2694 379.554 75.0654 378.918C75.1494 378.798 75.2574 378.702 75.3894 378.63C75.5334 378.558 75.6834 378.522 75.8394 378.522C76.0434 378.522 76.2054 378.576 76.3254 378.684C76.4574 378.792 76.5714 378.972 76.6674 379.224C77.0274 380.244 77.3994 381.246 77.7834 382.23C78.1794 383.214 78.6234 384.246 79.1154 385.326H79.1874C79.3794 384.954 79.5774 384.504 79.7814 383.976C79.9854 383.436 80.1834 382.866 80.3754 382.266C80.5794 381.666 80.7654 381.06 80.9334 380.448C81.1134 379.824 81.2694 379.23 81.4014 378.666C81.4854 378.63 81.5754 378.6 81.6714 378.576C81.7674 378.54 81.8814 378.522 82.0134 378.522C82.2174 378.522 82.3854 378.576 82.5174 378.684C82.6494 378.78 82.7154 378.93 82.7154 379.134C82.7154 379.374 82.6314 379.812 82.4634 380.448C82.2954 381.084 82.0734 381.798 81.7974 382.59C81.5334 383.382 81.2274 384.198 80.8794 385.038C80.5314 385.866 80.1774 386.604 79.8174 387.252C79.2534 388.272 78.7434 389.052 78.2874 389.592C77.8434 390.144 77.4294 390.42 77.0454 390.42C76.7694 390.42 76.5534 390.348 76.3974 390.204C76.2534 390.06 76.1634 389.892 76.1274 389.7C76.3194 389.532 76.5354 389.316 76.7754 389.052C77.0154 388.788 77.2554 388.5 77.4954 388.188C77.7354 387.888 77.9634 387.576 78.1794 387.252C78.3954 386.928 78.5754 386.616 78.7194 386.316C78.5154 386.256 78.3234 386.154 78.1434 386.01C77.9754 385.854 77.7834 385.566 77.5674 385.146ZM87.526 387.234C86.686 387.234 86.002 387.048 85.474 386.676C84.958 386.304 84.7 385.686 84.7 384.822V376.272C84.76 376.248 84.85 376.224 84.97 376.2C85.102 376.164 85.24 376.146 85.384 376.146C85.888 376.146 86.14 376.362 86.14 376.794V378.864H89.092C89.128 378.924 89.164 379.008 89.2 379.116C89.236 379.212 89.254 379.32 89.254 379.44C89.254 379.848 89.074 380.052 88.714 380.052H86.14V384.732C86.14 385.212 86.272 385.554 86.536 385.758C86.812 385.95 87.196 386.046 87.688 386.046C87.892 386.046 88.12 386.01 88.372 385.938C88.624 385.866 88.834 385.782 89.002 385.686C89.074 385.758 89.14 385.848 89.2 385.956C89.26 386.064 89.29 386.19 89.29 386.334C89.29 386.598 89.134 386.814 88.822 386.982C88.51 387.15 88.078 387.234 87.526 387.234ZM91.1273 382.896C91.0913 382.812 91.0613 382.728 91.0373 382.644C91.0133 382.548 91.0013 382.44 91.0013 382.32C91.0013 381.912 91.2113 381.708 91.6313 381.708H95.9333C95.9573 381.78 95.9813 381.864 96.0053 381.96C96.0413 382.056 96.0593 382.158 96.0593 382.266C96.0593 382.686 95.8493 382.896 95.4293 382.896H91.1273ZM99.9594 386.964C99.8994 386.988 99.8094 387.012 99.6894 387.036C99.5694 387.072 99.4374 387.09 99.2934 387.09C98.7774 387.09 98.5194 386.874 98.5194 386.442V375.336C98.5794 375.312 98.6694 375.288 98.7894 375.264C98.9214 375.228 99.0534 375.21 99.1854 375.21C99.7014 375.21 99.9594 375.426 99.9594 375.858V386.964ZM103.831 383.688C104.155 385.26 105.187 386.046 106.927 386.046C107.431 386.046 107.887 385.962 108.295 385.794C108.703 385.626 109.027 385.446 109.267 385.254C109.555 385.422 109.699 385.65 109.699 385.938C109.699 386.106 109.621 386.268 109.465 386.424C109.321 386.58 109.117 386.718 108.853 386.838C108.601 386.958 108.301 387.054 107.953 387.126C107.617 387.198 107.251 387.234 106.855 387.234C105.463 387.234 104.359 386.856 103.543 386.1C102.739 385.344 102.337 384.24 102.337 382.788C102.337 382.104 102.433 381.498 102.625 380.97C102.829 380.43 103.105 379.974 103.453 379.602C103.813 379.23 104.239 378.948 104.731 378.756C105.223 378.552 105.757 378.45 106.333 378.45C106.873 378.45 107.371 378.54 107.827 378.72C108.283 378.9 108.673 379.158 108.997 379.494C109.333 379.818 109.591 380.208 109.771 380.664C109.963 381.108 110.059 381.6 110.059 382.14C110.059 382.404 109.999 382.596 109.879 382.716C109.759 382.824 109.591 382.89 109.375 382.914L103.831 383.688ZM106.315 379.62C105.583 379.62 104.977 379.878 104.497 380.394C104.017 380.898 103.765 381.624 103.741 382.572L108.691 381.888C108.631 381.228 108.397 380.688 107.989 380.268C107.593 379.836 107.035 379.62 106.315 379.62ZM111.887 387C111.695 386.844 111.599 386.634 111.599 386.37C111.599 386.226 111.629 386.094 111.689 385.974C111.749 385.842 111.827 385.716 111.923 385.596L116.495 379.872H111.869C111.833 379.812 111.797 379.734 111.761 379.638C111.725 379.53 111.707 379.41 111.707 379.278C111.707 378.882 111.887 378.684 112.247 378.684H118.007C118.211 378.852 118.313 379.068 118.313 379.332C118.313 379.572 118.199 379.824 117.971 380.088L113.399 385.83H118.277C118.313 385.89 118.349 385.968 118.385 386.064C118.421 386.16 118.439 386.274 118.439 386.406C118.439 386.802 118.253 387 117.881 387H111.887ZM120.325 382.896C120.289 382.812 120.259 382.728 120.235 382.644C120.211 382.548 120.199 382.44 120.199 382.32C120.199 381.912 120.409 381.708 120.829 381.708H125.131C125.155 381.78 125.179 381.864 125.203 381.96C125.239 382.056 125.257 382.158 125.257 382.266C125.257 382.686 125.047 382.896 124.627 382.896H120.325ZM134.053 384.156C133.969 384.216 133.855 384.27 133.711 384.318C133.579 384.366 133.429 384.39 133.261 384.39C133.069 384.39 132.895 384.36 132.739 384.3C132.595 384.24 132.493 384.144 132.433 384.012C131.785 382.668 131.227 381.438 130.759 380.322C130.291 379.206 129.913 378.282 129.625 377.55H129.553C129.517 378.45 129.475 379.29 129.427 380.07C129.391 380.838 129.349 381.594 129.301 382.338C129.253 383.07 129.205 383.814 129.157 384.57C129.109 385.326 129.061 386.136 129.013 387C128.941 387.024 128.845 387.048 128.725 387.072C128.617 387.096 128.497 387.108 128.365 387.108C128.101 387.108 127.915 387.054 127.807 386.946C127.699 386.838 127.645 386.682 127.645 386.478C127.645 386.358 127.651 386.1 127.663 385.704C127.687 385.308 127.717 384.828 127.753 384.264C127.789 383.7 127.825 383.076 127.861 382.392C127.909 381.708 127.957 381.012 128.005 380.304C128.065 379.596 128.119 378.9 128.167 378.216C128.227 377.532 128.281 376.908 128.329 376.344C128.425 376.26 128.563 376.182 128.743 376.11C128.923 376.038 129.127 376.002 129.355 376.002C129.907 376.002 130.291 376.224 130.507 376.668C130.735 377.136 130.963 377.634 131.191 378.162C131.431 378.678 131.665 379.206 131.893 379.746C132.133 380.286 132.361 380.82 132.577 381.348C132.805 381.876 133.021 382.38 133.225 382.86H133.297C133.561 382.224 133.825 381.6 134.089 380.988C134.353 380.364 134.611 379.764 134.863 379.188C135.115 378.612 135.355 378.072 135.583 377.568C135.811 377.064 136.015 376.602 136.195 376.182C136.303 376.122 136.441 376.08 136.609 376.056C136.777 376.02 136.933 376.002 137.077 376.002C137.641 376.002 137.965 376.194 138.049 376.578C138.097 376.794 138.151 377.154 138.211 377.658C138.271 378.15 138.331 378.72 138.391 379.368C138.451 380.016 138.505 380.712 138.553 381.456C138.613 382.2 138.667 382.92 138.715 383.616C138.763 384.3 138.805 384.936 138.841 385.524C138.877 386.1 138.907 386.556 138.931 386.892C138.715 387.036 138.463 387.108 138.175 387.108C137.995 387.108 137.833 387.066 137.689 386.982C137.557 386.886 137.479 386.718 137.455 386.478C137.395 385.602 137.341 384.732 137.293 383.868C137.245 383.004 137.197 382.182 137.149 381.402C137.113 380.622 137.077 379.908 137.041 379.26C137.005 378.6 136.975 378.042 136.951 377.586H136.879C136.747 377.922 136.591 378.3 136.411 378.72C136.243 379.14 136.039 379.614 135.799 380.142C135.571 380.67 135.313 381.27 135.025 381.942C134.737 382.602 134.413 383.34 134.053 384.156ZM144.588 386.064C145.092 386.064 145.506 386.016 145.83 385.92C146.166 385.812 146.406 385.71 146.55 385.614V383.004L144.318 383.238C143.694 383.298 143.232 383.442 142.932 383.67C142.632 383.886 142.482 384.21 142.482 384.642C142.482 385.098 142.656 385.452 143.004 385.704C143.352 385.944 143.88 386.064 144.588 386.064ZM144.57 378.45C145.614 378.45 146.442 378.684 147.054 379.152C147.666 379.62 147.972 380.358 147.972 381.366V385.632C147.972 385.896 147.918 386.1 147.81 386.244C147.714 386.376 147.564 386.502 147.36 386.622C147.072 386.79 146.688 386.934 146.208 387.054C145.74 387.186 145.2 387.252 144.588 387.252C143.46 387.252 142.584 387.03 141.96 386.586C141.348 386.142 141.042 385.5 141.042 384.66C141.042 383.868 141.3 383.274 141.816 382.878C142.332 382.47 143.058 382.218 143.994 382.122L146.55 381.87V381.366C146.55 380.766 146.37 380.328 146.01 380.052C145.65 379.776 145.164 379.638 144.552 379.638C144.048 379.638 143.574 379.71 143.13 379.854C142.686 379.998 142.29 380.16 141.942 380.34C141.846 380.256 141.756 380.16 141.672 380.052C141.6 379.944 141.564 379.824 141.564 379.692C141.564 379.524 141.606 379.386 141.69 379.278C141.774 379.17 141.906 379.068 142.086 378.972C142.41 378.804 142.782 378.678 143.202 378.594C143.622 378.498 144.078 378.45 144.57 378.45ZM156.36 381.582C156.36 380.91 156.168 380.418 155.784 380.106C155.412 379.794 154.908 379.638 154.272 379.638C153.792 379.638 153.366 379.698 152.994 379.818C152.622 379.938 152.304 380.076 152.04 380.232V386.964C151.98 386.988 151.89 387.012 151.77 387.036C151.65 387.072 151.518 387.09 151.374 387.09C150.858 387.09 150.6 386.874 150.6 386.442V380.304C150.6 380.052 150.648 379.848 150.744 379.692C150.852 379.524 151.032 379.362 151.284 379.206C151.596 379.014 152.01 378.84 152.526 378.684C153.042 378.528 153.624 378.45 154.272 378.45C155.364 378.45 156.222 378.696 156.846 379.188C157.482 379.68 157.8 380.454 157.8 381.51V386.964C157.74 386.988 157.644 387.012 157.512 387.036C157.392 387.072 157.266 387.09 157.134 387.09C156.618 387.09 156.36 386.874 156.36 386.442V381.582ZM163.466 386.064C163.97 386.064 164.384 386.016 164.708 385.92C165.044 385.812 165.284 385.71 165.428 385.614V383.004L163.196 383.238C162.572 383.298 162.11 383.442 161.81 383.67C161.51 383.886 161.36 384.21 161.36 384.642C161.36 385.098 161.534 385.452 161.882 385.704C162.23 385.944 162.758 386.064 163.466 386.064ZM163.448 378.45C164.492 378.45 165.32 378.684 165.932 379.152C166.544 379.62 166.85 380.358 166.85 381.366V385.632C166.85 385.896 166.796 386.1 166.688 386.244C166.592 386.376 166.442 386.502 166.238 386.622C165.95 386.79 165.566 386.934 165.086 387.054C164.618 387.186 164.078 387.252 163.466 387.252C162.338 387.252 161.462 387.03 160.838 386.586C160.226 386.142 159.92 385.5 159.92 384.66C159.92 383.868 160.178 383.274 160.694 382.878C161.21 382.47 161.936 382.218 162.872 382.122L165.428 381.87V381.366C165.428 380.766 165.248 380.328 164.888 380.052C164.528 379.776 164.042 379.638 163.43 379.638C162.926 379.638 162.452 379.71 162.008 379.854C161.564 379.998 161.168 380.16 160.82 380.34C160.724 380.256 160.634 380.16 160.55 380.052C160.478 379.944 160.442 379.824 160.442 379.692C160.442 379.524 160.484 379.386 160.568 379.278C160.652 379.17 160.784 379.068 160.964 378.972C161.288 378.804 161.66 378.678 162.08 378.594C162.5 378.498 162.956 378.45 163.448 378.45ZM175.041 386.136C174.837 386.304 174.555 386.448 174.195 386.568C173.847 386.688 173.427 386.748 172.935 386.748C172.407 386.748 171.909 386.676 171.441 386.532C170.973 386.376 170.559 386.136 170.199 385.812C169.851 385.476 169.569 385.044 169.353 384.516C169.149 383.988 169.047 383.346 169.047 382.59C169.047 381.906 169.149 381.306 169.353 380.79C169.557 380.274 169.839 379.842 170.199 379.494C170.571 379.146 171.009 378.888 171.513 378.72C172.017 378.54 172.575 378.45 173.187 378.45C173.739 378.45 174.243 378.522 174.699 378.666C175.167 378.798 175.557 378.966 175.869 379.17C176.049 379.29 176.193 379.428 176.301 379.584C176.421 379.728 176.481 379.908 176.481 380.124V387.36C176.481 387.96 176.379 388.464 176.175 388.872C175.983 389.292 175.707 389.628 175.347 389.88C174.999 390.144 174.585 390.336 174.105 390.456C173.625 390.576 173.109 390.636 172.557 390.636C171.945 390.636 171.423 390.57 170.991 390.438C170.571 390.318 170.283 390.21 170.127 390.114C169.767 389.91 169.587 389.652 169.587 389.34C169.587 389.172 169.623 389.028 169.695 388.908C169.779 388.8 169.881 388.716 170.001 388.656C170.253 388.848 170.607 389.022 171.063 389.178C171.519 389.346 172.017 389.43 172.557 389.43C173.361 389.43 173.973 389.256 174.393 388.908C174.825 388.572 175.041 388.026 175.041 387.27V386.136ZM173.097 385.56C173.577 385.56 173.967 385.488 174.267 385.344C174.579 385.188 174.837 385.014 175.041 384.822V380.142C174.837 380.01 174.579 379.896 174.267 379.8C173.967 379.692 173.607 379.638 173.187 379.638C172.371 379.638 171.717 379.884 171.225 380.376C170.745 380.868 170.505 381.6 170.505 382.572C170.505 383.112 170.571 383.574 170.703 383.958C170.835 384.33 171.015 384.636 171.243 384.876C171.483 385.116 171.759 385.29 172.071 385.398C172.395 385.506 172.737 385.56 173.097 385.56ZM180.173 383.688C180.497 385.26 181.529 386.046 183.269 386.046C183.773 386.046 184.229 385.962 184.637 385.794C185.045 385.626 185.369 385.446 185.609 385.254C185.897 385.422 186.041 385.65 186.041 385.938C186.041 386.106 185.963 386.268 185.807 386.424C185.663 386.58 185.459 386.718 185.195 386.838C184.943 386.958 184.643 387.054 184.295 387.126C183.959 387.198 183.593 387.234 183.197 387.234C181.805 387.234 180.701 386.856 179.885 386.1C179.081 385.344 178.679 384.24 178.679 382.788C178.679 382.104 178.775 381.498 178.967 380.97C179.171 380.43 179.447 379.974 179.795 379.602C180.155 379.23 180.581 378.948 181.073 378.756C181.565 378.552 182.099 378.45 182.675 378.45C183.215 378.45 183.713 378.54 184.169 378.72C184.625 378.9 185.015 379.158 185.339 379.494C185.675 379.818 185.933 380.208 186.113 380.664C186.305 381.108 186.401 381.6 186.401 382.14C186.401 382.404 186.341 382.596 186.221 382.716C186.101 382.824 185.933 382.89 185.717 382.914L180.173 383.688ZM182.657 379.62C181.925 379.62 181.319 379.878 180.839 380.394C180.359 380.898 180.107 381.624 180.083 382.572L185.033 381.888C184.973 381.228 184.739 380.688 184.331 380.268C183.935 379.836 183.377 379.62 182.657 379.62Z" fill="#3B3B3B"/>
<path d="M262.288 404.81C262.288 405.326 262.162 405.806 261.91 406.25C261.67 406.682 261.262 407.018 260.686 407.258C261.37 407.486 261.88 407.846 262.216 408.338C262.552 408.818 262.72 409.364 262.72 409.976C262.72 411.068 262.324 411.878 261.532 412.406C260.752 412.934 259.636 413.198 258.184 413.198C257.68 413.198 257.188 413.174 256.708 413.126C256.24 413.09 255.79 413.012 255.358 412.892C254.854 412.748 254.602 412.472 254.602 412.064V402.848C254.602 402.5 254.8 402.272 255.196 402.164C255.604 402.044 256.036 401.966 256.492 401.93C256.948 401.882 257.446 401.858 257.986 401.858C259.342 401.858 260.398 402.098 261.154 402.578C261.91 403.058 262.288 403.802 262.288 404.81ZM256.042 407.906V411.794C256.33 411.854 256.66 411.902 257.032 411.938C257.416 411.974 257.8 411.992 258.184 411.992C259.18 411.992 259.936 411.83 260.452 411.506C260.968 411.17 261.226 410.648 261.226 409.94C261.226 409.316 260.992 408.824 260.524 408.464C260.068 408.092 259.39 407.906 258.49 407.906H256.042ZM256.042 406.718H258.49C259.246 406.718 259.816 406.55 260.2 406.214C260.596 405.878 260.794 405.422 260.794 404.846C260.794 403.658 259.858 403.064 257.986 403.064C257.566 403.064 257.2 403.082 256.888 403.118C256.588 403.142 256.306 403.178 256.042 403.226V406.718ZM266.099 409.688C266.423 411.26 267.455 412.046 269.195 412.046C269.699 412.046 270.155 411.962 270.563 411.794C270.971 411.626 271.295 411.446 271.535 411.254C271.823 411.422 271.967 411.65 271.967 411.938C271.967 412.106 271.889 412.268 271.733 412.424C271.589 412.58 271.385 412.718 271.121 412.838C270.869 412.958 270.569 413.054 270.221 413.126C269.885 413.198 269.519 413.234 269.123 413.234C267.731 413.234 266.627 412.856 265.811 412.1C265.007 411.344 264.605 410.24 264.605 408.788C264.605 408.104 264.701 407.498 264.893 406.97C265.097 406.43 265.373 405.974 265.721 405.602C266.081 405.23 266.507 404.948 266.999 404.756C267.491 404.552 268.025 404.45 268.601 404.45C269.141 404.45 269.639 404.54 270.095 404.72C270.551 404.9 270.941 405.158 271.265 405.494C271.601 405.818 271.859 406.208 272.039 406.664C272.231 407.108 272.327 407.6 272.327 408.14C272.327 408.404 272.267 408.596 272.147 408.716C272.027 408.824 271.859 408.89 271.643 408.914L266.099 409.688ZM268.583 405.62C267.851 405.62 267.245 405.878 266.765 406.394C266.285 406.898 266.033 407.624 266.009 408.572L270.959 407.888C270.899 407.228 270.665 406.688 270.257 406.268C269.861 405.836 269.303 405.62 268.583 405.62ZM275.991 412.964C275.931 412.988 275.841 413.012 275.721 413.036C275.601 413.072 275.469 413.09 275.325 413.09C274.809 413.09 274.551 412.874 274.551 412.442V401.336C274.611 401.312 274.701 401.288 274.821 401.264C274.953 401.228 275.085 401.21 275.217 401.21C275.733 401.21 275.991 401.426 275.991 401.858V412.964ZM280.473 412.964C280.413 412.988 280.323 413.012 280.203 413.036C280.083 413.072 279.951 413.09 279.807 413.09C279.291 413.09 279.033 412.874 279.033 412.442V401.336C279.093 401.312 279.183 401.288 279.303 401.264C279.435 401.228 279.567 401.21 279.699 401.21C280.215 401.21 280.473 401.426 280.473 401.858V412.964ZM284.345 409.688C284.669 411.26 285.701 412.046 287.441 412.046C287.945 412.046 288.401 411.962 288.809 411.794C289.217 411.626 289.541 411.446 289.781 411.254C290.069 411.422 290.213 411.65 290.213 411.938C290.213 412.106 290.135 412.268 289.979 412.424C289.835 412.58 289.631 412.718 289.367 412.838C289.115 412.958 288.815 413.054 288.467 413.126C288.131 413.198 287.765 413.234 287.369 413.234C285.977 413.234 284.873 412.856 284.057 412.1C283.253 411.344 282.851 410.24 282.851 408.788C282.851 408.104 282.947 407.498 283.139 406.97C283.343 406.43 283.619 405.974 283.967 405.602C284.327 405.23 284.753 404.948 285.245 404.756C285.737 404.552 286.271 404.45 286.847 404.45C287.387 404.45 287.885 404.54 288.341 404.72C288.797 404.9 289.187 405.158 289.511 405.494C289.847 405.818 290.105 406.208 290.285 406.664C290.477 407.108 290.573 407.6 290.573 408.14C290.573 408.404 290.513 408.596 290.393 408.716C290.273 408.824 290.105 408.89 289.889 408.914L284.345 409.688ZM286.829 405.62C286.097 405.62 285.491 405.878 285.011 406.394C284.531 406.898 284.279 407.624 284.255 408.572L289.205 407.888C289.145 407.228 288.911 406.688 288.503 406.268C288.107 405.836 287.549 405.62 286.829 405.62ZM296.505 405.656C296.097 405.656 295.719 405.728 295.371 405.872C295.023 406.004 294.723 406.208 294.471 406.484C294.219 406.748 294.021 407.084 293.877 407.492C293.733 407.888 293.661 408.344 293.661 408.86C293.661 409.892 293.919 410.684 294.435 411.236C294.951 411.776 295.641 412.046 296.505 412.046C297.009 412.046 297.429 411.98 297.765 411.848C298.101 411.704 298.401 411.542 298.665 411.362C298.797 411.434 298.905 411.524 298.989 411.632C299.073 411.74 299.115 411.872 299.115 412.028C299.115 412.196 299.049 412.352 298.917 412.496C298.785 412.64 298.599 412.766 298.359 412.874C298.131 412.982 297.855 413.066 297.531 413.126C297.219 413.198 296.877 413.234 296.505 413.234C295.881 413.234 295.305 413.144 294.777 412.964C294.249 412.784 293.793 412.514 293.409 412.154C293.025 411.794 292.725 411.344 292.509 410.804C292.293 410.252 292.185 409.604 292.185 408.86C292.185 408.128 292.299 407.492 292.527 406.952C292.755 406.4 293.061 405.938 293.445 405.566C293.829 405.194 294.279 404.918 294.795 404.738C295.323 404.546 295.881 404.45 296.469 404.45C296.841 404.45 297.183 404.486 297.495 404.558C297.819 404.618 298.095 404.708 298.323 404.828C298.551 404.948 298.725 405.086 298.845 405.242C298.977 405.386 299.043 405.536 299.043 405.692C299.043 405.836 299.001 405.962 298.917 406.07C298.833 406.178 298.725 406.262 298.593 406.322C298.329 406.142 298.041 405.986 297.729 405.854C297.417 405.722 297.009 405.656 296.505 405.656ZM308.76 408.842C308.76 409.514 308.664 410.12 308.472 410.66C308.28 411.2 308.004 411.662 307.644 412.046C307.296 412.43 306.87 412.724 306.366 412.928C305.862 413.132 305.298 413.234 304.674 413.234C304.05 413.234 303.486 413.132 302.982 412.928C302.478 412.724 302.046 412.43 301.686 412.046C301.326 411.662 301.05 411.2 300.858 410.66C300.666 410.12 300.57 409.514 300.57 408.842C300.57 408.17 300.666 407.564 300.858 407.024C301.062 406.484 301.344 406.022 301.704 405.638C302.064 405.254 302.496 404.96 303 404.756C303.504 404.552 304.062 404.45 304.674 404.45C305.286 404.45 305.844 404.552 306.348 404.756C306.852 404.96 307.278 405.254 307.626 405.638C307.986 406.022 308.262 406.484 308.454 407.024C308.658 407.564 308.76 408.17 308.76 408.842ZM304.674 405.638C303.858 405.638 303.216 405.92 302.748 406.484C302.28 407.048 302.046 407.834 302.046 408.842C302.046 409.862 302.274 410.654 302.73 411.218C303.198 411.77 303.846 412.046 304.674 412.046C305.502 412.046 306.144 411.764 306.6 411.2C307.056 410.636 307.284 409.85 307.284 408.842C307.284 407.834 307.05 407.048 306.582 406.484C306.126 405.92 305.49 405.638 304.674 405.638ZM310.987 404.72C311.047 404.696 311.137 404.672 311.257 404.648C311.389 404.612 311.527 404.594 311.671 404.594C312.175 404.594 312.427 404.816 312.427 405.26V409.886C312.427 410.666 312.631 411.224 313.039 411.56C313.447 411.884 314.011 412.046 314.731 412.046C315.211 412.046 315.619 411.998 315.955 411.902C316.291 411.794 316.555 411.686 316.747 411.578V404.72C316.807 404.696 316.897 404.672 317.017 404.648C317.149 404.612 317.281 404.594 317.413 404.594C317.929 404.594 318.187 404.816 318.187 405.26V411.524C318.187 411.776 318.151 411.98 318.079 412.136C318.019 412.28 317.863 412.424 317.611 412.568C317.335 412.724 316.951 412.874 316.459 413.018C315.979 413.162 315.397 413.234 314.713 413.234C313.513 413.234 312.589 412.97 311.941 412.442C311.305 411.914 310.987 411.086 310.987 409.958V404.72ZM322.323 412.964C322.263 412.988 322.173 413.012 322.053 413.036C321.933 413.072 321.801 413.09 321.657 413.09C321.141 413.09 320.883 412.874 320.883 412.442V406.34C320.883 406.064 320.931 405.848 321.027 405.692C321.135 405.524 321.309 405.362 321.549 405.206C321.861 405.002 322.281 404.828 322.809 404.684C323.349 404.528 323.955 404.45 324.627 404.45C325.587 404.45 326.067 404.69 326.067 405.17C326.067 405.29 326.049 405.404 326.013 405.512C325.977 405.608 325.929 405.692 325.869 405.764C325.749 405.74 325.593 405.716 325.401 405.692C325.209 405.668 325.017 405.656 324.825 405.656C324.273 405.656 323.787 405.716 323.367 405.836C322.947 405.944 322.599 406.076 322.323 406.232V412.964ZM330.6 413.234C329.76 413.234 329.076 413.048 328.548 412.676C328.032 412.304 327.774 411.686 327.774 410.822V402.272C327.834 402.248 327.924 402.224 328.044 402.2C328.176 402.164 328.314 402.146 328.458 402.146C328.962 402.146 329.214 402.362 329.214 402.794V404.864H332.166C332.202 404.924 332.238 405.008 332.274 405.116C332.31 405.212 332.328 405.32 332.328 405.44C332.328 405.848 332.148 406.052 331.788 406.052H329.214V410.732C329.214 411.212 329.346 411.554 329.61 411.758C329.886 411.95 330.27 412.046 330.762 412.046C330.966 412.046 331.194 412.01 331.446 411.938C331.698 411.866 331.908 411.782 332.076 411.686C332.148 411.758 332.214 411.848 332.274 411.956C332.334 412.064 332.364 412.19 332.364 412.334C332.364 412.598 332.208 412.814 331.896 412.982C331.584 413.15 331.152 413.234 330.6 413.234Z" fill="#3B3B3B"/>
<path d="M137.394 499C137.166 499 136.974 498.928 136.818 498.784C136.674 498.64 136.602 498.448 136.602 498.208V488.092C136.662 488.068 136.752 488.044 136.872 488.02C137.004 487.984 137.142 487.966 137.286 487.966C137.814 487.966 138.078 488.188 138.078 488.632V497.74H143.244C143.376 497.872 143.442 498.07 143.442 498.334C143.442 498.538 143.388 498.7 143.28 498.82C143.172 498.94 143.028 499 142.848 499H137.394ZM148.338 498.064C148.842 498.064 149.256 498.016 149.58 497.92C149.916 497.812 150.156 497.71 150.3 497.614V495.004L148.068 495.238C147.444 495.298 146.982 495.442 146.682 495.67C146.382 495.886 146.232 496.21 146.232 496.642C146.232 497.098 146.406 497.452 146.754 497.704C147.102 497.944 147.63 498.064 148.338 498.064ZM148.32 490.45C149.364 490.45 150.192 490.684 150.804 491.152C151.416 491.62 151.722 492.358 151.722 493.366V497.632C151.722 497.896 151.668 498.1 151.56 498.244C151.464 498.376 151.314 498.502 151.11 498.622C150.822 498.79 150.438 498.934 149.958 499.054C149.49 499.186 148.95 499.252 148.338 499.252C147.21 499.252 146.334 499.03 145.71 498.586C145.098 498.142 144.792 497.5 144.792 496.66C144.792 495.868 145.05 495.274 145.566 494.878C146.082 494.47 146.808 494.218 147.744 494.122L150.3 493.87V493.366C150.3 492.766 150.12 492.328 149.76 492.052C149.4 491.776 148.914 491.638 148.302 491.638C147.798 491.638 147.324 491.71 146.88 491.854C146.436 491.998 146.04 492.16 145.692 492.34C145.596 492.256 145.506 492.16 145.422 492.052C145.35 491.944 145.314 491.824 145.314 491.692C145.314 491.524 145.356 491.386 145.44 491.278C145.524 491.17 145.656 491.068 145.836 490.972C146.16 490.804 146.532 490.678 146.952 490.594C147.372 490.498 147.828 490.45 148.32 490.45ZM166.774 498.964C166.702 498.988 166.606 499.012 166.486 499.036C166.366 499.072 166.234 499.09 166.09 499.09C165.562 499.09 165.298 498.868 165.298 498.424V494.068H159.682V498.964C159.61 498.988 159.514 499.012 159.394 499.036C159.274 499.072 159.142 499.09 158.998 499.09C158.47 499.09 158.206 498.868 158.206 498.424V488.092C158.266 488.068 158.356 488.044 158.476 488.02C158.608 487.984 158.746 487.966 158.89 487.966C159.418 487.966 159.682 488.188 159.682 488.632V492.844H165.298V488.092C165.358 488.068 165.448 488.044 165.568 488.02C165.7 487.984 165.838 487.966 165.982 487.966C166.51 487.966 166.774 488.188 166.774 488.632V498.964ZM170.757 495.688C171.081 497.26 172.113 498.046 173.853 498.046C174.357 498.046 174.813 497.962 175.221 497.794C175.629 497.626 175.953 497.446 176.193 497.254C176.481 497.422 176.625 497.65 176.625 497.938C176.625 498.106 176.547 498.268 176.391 498.424C176.247 498.58 176.043 498.718 175.779 498.838C175.527 498.958 175.227 499.054 174.879 499.126C174.543 499.198 174.177 499.234 173.781 499.234C172.389 499.234 171.285 498.856 170.469 498.1C169.665 497.344 169.263 496.24 169.263 494.788C169.263 494.104 169.359 493.498 169.551 492.97C169.755 492.43 170.031 491.974 170.379 491.602C170.739 491.23 171.165 490.948 171.657 490.756C172.149 490.552 172.683 490.45 173.259 490.45C173.799 490.45 174.297 490.54 174.753 490.72C175.209 490.9 175.599 491.158 175.923 491.494C176.259 491.818 176.517 492.208 176.697 492.664C176.889 493.108 176.985 493.6 176.985 494.14C176.985 494.404 176.925 494.596 176.805 494.716C176.685 494.824 176.517 494.89 176.301 494.914L170.757 495.688ZM173.241 491.62C172.509 491.62 171.903 491.878 171.423 492.394C170.943 492.898 170.691 493.624 170.667 494.572L175.617 493.888C175.557 493.228 175.323 492.688 174.915 492.268C174.519 491.836 173.961 491.62 173.241 491.62ZM185.038 496.786C185.038 497.554 184.756 498.154 184.192 498.586C183.628 499.018 182.812 499.234 181.744 499.234C181.288 499.234 180.868 499.192 180.484 499.108C180.1 499.036 179.77 498.94 179.494 498.82C179.23 498.688 179.02 498.544 178.864 498.388C178.72 498.22 178.648 498.052 178.648 497.884C178.648 497.74 178.684 497.602 178.756 497.47C178.84 497.338 178.96 497.224 179.116 497.128C179.44 497.368 179.818 497.584 180.25 497.776C180.682 497.956 181.174 498.046 181.726 498.046C182.974 498.046 183.598 497.626 183.598 496.786C183.598 496.102 183.184 495.658 182.356 495.454L180.862 495.058C180.13 494.866 179.596 494.59 179.26 494.23C178.924 493.858 178.756 493.384 178.756 492.808C178.756 492.496 178.816 492.196 178.936 491.908C179.068 491.62 179.266 491.368 179.53 491.152C179.794 490.936 180.118 490.768 180.502 490.648C180.898 490.516 181.36 490.45 181.888 490.45C182.728 490.45 183.406 490.576 183.922 490.828C184.438 491.068 184.696 491.35 184.696 491.674C184.696 491.83 184.654 491.968 184.57 492.088C184.498 492.208 184.396 492.298 184.264 492.358C184.048 492.214 183.742 492.058 183.346 491.89C182.95 491.722 182.482 491.638 181.942 491.638C181.402 491.638 180.97 491.74 180.646 491.944C180.334 492.148 180.178 492.436 180.178 492.808C180.178 493.084 180.268 493.318 180.448 493.51C180.628 493.702 180.928 493.846 181.348 493.942L182.59 494.248C183.406 494.452 184.018 494.758 184.426 495.166C184.834 495.562 185.038 496.102 185.038 496.786ZM190.065 499.234C189.225 499.234 188.541 499.048 188.013 498.676C187.497 498.304 187.239 497.686 187.239 496.822V488.272C187.299 488.248 187.389 488.224 187.509 488.2C187.641 488.164 187.779 488.146 187.923 488.146C188.427 488.146 188.679 488.362 188.679 488.794V490.864H191.631C191.667 490.924 191.703 491.008 191.739 491.116C191.775 491.212 191.793 491.32 191.793 491.44C191.793 491.848 191.613 492.052 191.253 492.052H188.679V496.732C188.679 497.212 188.811 497.554 189.075 497.758C189.351 497.95 189.735 498.046 190.227 498.046C190.431 498.046 190.659 498.01 190.911 497.938C191.163 497.866 191.373 497.782 191.541 497.686C191.613 497.758 191.679 497.848 191.739 497.956C191.799 498.064 191.829 498.19 191.829 498.334C191.829 498.598 191.673 498.814 191.361 498.982C191.049 499.15 190.617 499.234 190.065 499.234ZM195.358 498.964C195.298 498.988 195.208 499.012 195.088 499.036C194.968 499.072 194.836 499.09 194.692 499.09C194.176 499.09 193.918 498.874 193.918 498.442V492.34C193.918 492.064 193.966 491.848 194.062 491.692C194.17 491.524 194.344 491.362 194.584 491.206C194.896 491.002 195.316 490.828 195.844 490.684C196.384 490.528 196.99 490.45 197.662 490.45C198.622 490.45 199.102 490.69 199.102 491.17C199.102 491.29 199.084 491.404 199.048 491.512C199.012 491.608 198.964 491.692 198.904 491.764C198.784 491.74 198.628 491.716 198.436 491.692C198.244 491.668 198.052 491.656 197.86 491.656C197.308 491.656 196.822 491.716 196.402 491.836C195.982 491.944 195.634 492.076 195.358 492.232V498.964ZM201.642 495.688C201.966 497.26 202.998 498.046 204.738 498.046C205.242 498.046 205.698 497.962 206.106 497.794C206.514 497.626 206.838 497.446 207.078 497.254C207.366 497.422 207.51 497.65 207.51 497.938C207.51 498.106 207.432 498.268 207.276 498.424C207.132 498.58 206.928 498.718 206.664 498.838C206.412 498.958 206.112 499.054 205.764 499.126C205.428 499.198 205.062 499.234 204.666 499.234C203.274 499.234 202.17 498.856 201.354 498.1C200.55 497.344 200.148 496.24 200.148 494.788C200.148 494.104 200.244 493.498 200.436 492.97C200.64 492.43 200.916 491.974 201.264 491.602C201.624 491.23 202.05 490.948 202.542 490.756C203.034 490.552 203.568 490.45 204.144 490.45C204.684 490.45 205.182 490.54 205.638 490.72C206.094 490.9 206.484 491.158 206.808 491.494C207.144 491.818 207.402 492.208 207.582 492.664C207.774 493.108 207.87 493.6 207.87 494.14C207.87 494.404 207.81 494.596 207.69 494.716C207.57 494.824 207.402 494.89 207.186 494.914L201.642 495.688ZM204.126 491.62C203.394 491.62 202.788 491.878 202.308 492.394C201.828 492.898 201.576 493.624 201.552 494.572L206.502 493.888C206.442 493.228 206.208 492.688 205.8 492.268C205.404 491.836 204.846 491.62 204.126 491.62Z" fill="#3B3B3B"/>
</svg>
