<svg version="1.2" xmlns="http://www.w3.org/2000/svg" viewBox="0 0 523 79" width="523" height="79">
	<title>Nouveau projet</title>
	<style>
		.s0 { fill: #00b3ef } 
	</style>
	<path id="&lt;Path&gt;" class="s0" d="m1.7 74.9q1.6-0.3 3.3-0.4c0.3 0.7 0.3 1.6 1.9 2l3.1-1.2c4.9 1.9 9.8 0.7 14.7-0.5l-2.3-1.3c-2.8 0.4-3.1 1.2-0.5 1.7-5.9-1.3-11.4-1.3-16.9-0.7l-0.2-0.3c9.5-1.6 19.6-3.9 28.3-6.4 1 0.8 1.5 1.9 1.9 2.9-1.8 0-4.4-0.4-6.1-0.4 1.7 0 4.3 0.4 6.1 0.4-0.4-1-0.9-2.1-1.9-2.9l3.5-1c1.9-0.3 3.8-0.4 5.6-0.4 2.9 0.2 5.9 0.3 9.1 0.3 4.4 0.3 9.1-4 15.7-5.5 1-0.5 1.1 2.4 3.2 1.5 4.7-1.5 8.7-3.4 13.3-4.1 1.9-0.9 5.7 1.7 7.7 0.7 4.8-1.5 16.5-7.5 9.2-6.1-10.9 2.3-18 4.2-27.8 6.2 8.7-2.5 17.7-5 28.4-6.9 6.8-1.1 16-1.4 24.2-3.6 11.1-3.8 22.3-9 35.5-12.3q9.5-2.2 18.6-4.8 4.5-1.3 9-2.6l4.6-1.5 4.7-1.4c12.6-3.6 25-6.7 37.4-9.4 24.7-5.2 49.4-8.6 75-8.9 9.9-0.6 18.6-1.7 26.8-1.5 16.5 0.5 34.1-1.7 51.1-2.4 16.9-0.7 33-0.1 46.2 5.7 9.1 3.7 21.9 5.1 30.2 5.1 8.3 0 11.9-1.6 2.3-3.7 14.1 3.6 23.9 4.3 31.8 5.4 8 1.2 14.1 2.8 20.6 8.6 0.5 0.4 3.4 3.9 3.2 7.7-0.1 3.8-3.1 7.8-14.3 9.3-8.2-0.4-20.4-0.8-32.6-1.3-12.2-0.5-24.5-1.2-33-2.7-22.4-4.1-43.9-5-65.2-4.9-21.4 0.2-42.6 1.4-64.9 1.6-22.4 0.2-45.2 1.7-68.6 5.1-10.8 1.6-21.3 3.6-31.4 5.9q-7.7 1.7-15.1 3.7c-5 1.4-10.1 2.8-15.1 4-20.2 5.2-40.3 9.5-61.5 12.6-6.6 1.1-13 2-19.4 2.9 2-0.9 4.1-2 6.2-2.8l2.4 1c0.7-0.8 1.9-1.5 3.3-2 3.2 0.8 6.8 1.4 10.5-0.6-3.5-0.8-7.5-0.5-10.5 0.6-1.9-0.6-3.6-1.2-5.2-1.5-2.4-1.1-4.3 3.7-7.4 1.5 3.1 2.2 5-2.6 7.4-1.5 1.6 0.3 3.3 0.9 5.2 1.5-1.4 0.5-2.6 1.2-3.3 2l-2.4-1c-2.1 0.8-4.2 1.9-6.2 2.8l-9.7 1.2q-0.4-0.1-1-0.1 0.3 0.1 0.5 0.2l-2.3 0.2c-2.1-1-5.1-0.2-8.2 0.7-0.7 0.2-1.7 0.4-2.6 0.6l-13 1.3 0.9-0.3 3.1-0.8c1.6 0 3.4-0.3 5.4-0.9-1.9 0.1-3.7 0.4-5.4 0.9-1.2-0.1-2.2-0.2-3.1-0.4-0.7-0.4-1.7-0.6-2.1-0.8q0.9 0.4 2.1 0.8c0.7 0.3 1.1 0.7 0 1.1v0.1l-2 0.5-5.6 0.5c-1.1-0.1-2.1-0.3-3.2-0.7-1.4-0.1-2 0.6-2.9 1.3-13 1.2-26.3 2.2-40.5 3.2 0 0-7.5-1.5-9.8-2.8z"/>
</svg>