<svg data-name="Calque 2" xmlns="http://www.w3.org/2000/svg" viewBox="0 0 80.86 98.36"><g data-name="Calque 1"><path fill="#00818f" d="M0 98.36V21.69h11.64l6.9-6.9h15.65l4.36-2.44 3.56 2.96h15.93l9.37 9.36V11.64L74.17 0l6.69 11.89v86.47H0z"/><path d="M54.96 55.7h8.6c.01-2.4.03-9.37 0-12.59-3.02-1.57-6.24-1.58-8.6-.03V55.7Zm9.43 1.67H54.13c-.46 0-.83-.37-.83-.83V42.65c0-.26.12-.51.33-.67 3.02-2.27 7.3-2.31 11.18-.09.26.15.41.42.42.71.05 3.55 0 13.84 0 13.94 0 .46-.37.83-.83.83m-9.43 20.14h8.6c.01-2.4.03-9.37 0-12.59-3.02-1.57-6.25-1.59-8.6-.03v12.62Zm9.43 1.67H54.14c-.46 0-.83-.37-.83-.83V64.46c0-.26.12-.51.33-.67 3.03-2.27 7.31-2.3 11.18-.09.26.15.41.42.42.71.05 3.55 0 13.84 0 13.94 0 .46-.37.83-.83.83M13.5 55.7h8.6c.01-2.4.04-9.37 0-12.59-3.02-1.57-6.24-1.58-8.6-.03V55.7Zm9.43 1.67H12.67c-.46 0-.83-.37-.83-.83V42.65c0-.26.12-.51.33-.67 3.02-2.27 7.31-2.31 11.18-.09.26.15.41.42.42.71.05 3.55 0 13.84 0 13.94 0 .46-.37.83-.83.83m-9.43 20.14h8.6c.01-2.4.04-9.37 0-12.59-3.02-1.57-6.25-1.58-8.6-.03v12.62Zm9.43 1.67H12.68c-.46 0-.83-.37-.83-.83V64.46c0-.26.12-.51.33-.67 3.02-2.27 7.31-2.31 11.18-.09.26.15.41.42.42.71.05 3.55 0 13.84 0 13.94 0 .46-.37.83-.83.83M34.23 47.3h8.6V34.68c-2.44-1.63-5.66-1.69-8.6-.17-.03 3.24 0 10.37 0 12.8Zm9.43 1.67H33.4c-.46 0-.83-.37-.83-.83 0-.11-.05-10.6 0-14.14 0-.29.16-.57.42-.71 3.77-2.15 8.06-2.04 11.18.3.21.16.33.4.33.67v13.89c0 .46-.37.83-.83.83M32.48 63.42a.84.84 0 0 1-.44-1.55c4.18-2.57 8.9-2.57 12.98 0 .39.25.51.76.26 1.15a.83.83 0 0 1-1.15.26c-3.57-2.25-7.55-2.25-11.21 0a.83.83 0 0 1-.44.12m2.44 23.33c-.46 0-.83-.37-.83-.83V64.73c0-.46.37-.83.83-.83s.83.37.83.83V85.9c0 .46-.37.83-.83.83m7.21 0c-.46 0-.83-.37-.83-.83V64.73c0-.46.37-.83.83-.83s.83.37.83.83V85.9c0 .46-.37.83-.83.83M28.02 98.34c-.46 0-.83-.37-.83-.83V24.39c0-.46.37-.83.83-.83.46 0 .83.37.83.83v73.13c0 .46-.37.83-.83.83m21.02 0c-.46 0-.83-.37-.83-.83V24.39c0-.46.37-.83.83-.83.46 0 .83.37.83.83v73.13c0 .46-.37.83-.83.83m2.18-75.73c-.19 0-.38-.06-.53-.19l-12.1-10.09-12.22 9.76c-.36.29-.89.23-1.17-.13a.83.83 0 0 1 .13-1.17l12.75-10.18c.31-.24.75-.24 1.05.01l12.62 10.52c.35.3.4.82.11 1.17-.16.19-.39.3-.64.3M39.5 74.67a.971.971 0 1 1-1.94-.05c.01-.57.45-.96 1.02-.94.55.03.93.44.92.99" fill="#fff"/></g></svg>