<svg id="Calque_2" data-name="Calque 2" xmlns="http://www.w3.org/2000/svg" viewBox="0 0 566.93 156.86"><defs><style>.cls-1{fill:#fff}</style></defs><path class="cls-1" d="M82.06 99.74v-8.41H57.7c-12.76 0-21.17 6.38-21.17 15.95 0 11.6 8.41 17.69 18.85 17.69 15.08 0 26.68-8.7 26.68-25.22m.29 54.51v-10.73c-7.25 8.7-17.98 13.34-33.05 13.34-23.78 0-49.29-16.82-49.29-49.58 0-30.44 24.93-45.52 57.7-45.52h24.36v-8.99c0-13.91-9.57-19.42-20.59-19.42-10.44 0-20.01 5.8-21.17 16.82H3.19C6.96 14.5 35.66 0 61.18 0c27.55 0 57.41 13.63 57.41 51.9v102.35H82.35ZM170.42 11.02C176.22 4.35 184.34 0 195.65 0h11.89v37.11h-17.11c-11.02 0-19.43 6.38-20.01 27.25v89.88h-37.11V2.03h37.11v8.99ZM256.42 11.02C262.22 4.35 270.34 0 281.65 0h11.89v37.11h-17.11c-11.02 0-19.43 6.38-20.01 27.25v89.88h-37.11V2.03h37.11v8.99ZM305.18 2.03h37.11v152.22h-37.11zM411.46 156.86c-33.35 0-57.7-20.59-59.44-54.22h37.11c.58 12.18 7.25 21.46 22.62 21.46s23.2-4.93 23.2-13.92c0-6.96-5.22-10.15-11.6-12.18-8.12-2.61-17.98-5.22-29.87-8.7-19.72-5.8-37.69-19.72-37.69-42.62C355.78 15.08 382.17 0 411.74 0c31.9 0 54.52 16.53 57.71 49.29h-37.41c-.58-11.6-7.54-16.53-20.59-16.53-9.57 0-19.14 4.06-19.14 12.18 0 5.8 4.35 8.41 10.73 10.15 9.86 2.9 18.27 4.93 33.35 9.57 18.56 5.8 35.08 19.14 35.08 41.17 0 35.08-28.42 51.03-60.02 51.03M484.47.63v27.96h34.73l-34.73 34.73v19.77h19.77l34.73-34.73v34.73h27.96V.63h-82.46z"/></svg>