<?xml version="1.0" encoding="UTF-8"?>
<svg id="Calque_2" data-name="Calque 2" xmlns="http://www.w3.org/2000/svg" viewBox="0 0 426.11 419.52">
  <defs>
    <style>
      .cls-1 {
        fill: #fff;
      }

      .cls-2 {
        fill: #fe5919;
      }

      .cls-3 {
        fill: #0bf4ed;
      }
    </style>
  </defs>
  <g id="Calque_1-2" data-name="Calque 1">
    <path class="cls-2" d="m213.06,0C95.39,0,0,93.91,0,209.76s95.39,209.76,213.06,209.76,213.05-93.92,213.05-209.76S330.72,0,213.06,0Z"/>
    <g>
      <g>
        <polygon class="cls-1" points="348.59 222.28 348.59 118.36 243.04 118.36 243.04 153.6 287.5 153.6 243.04 197.37 243.04 222.28 268.35 222.28 312.81 178.51 312.81 222.28 348.59 222.28"/>
        <path class="cls-3" d="m359.96,57.84v-2.05h-2.23c.75.68,1.5,1.36,2.23,2.05Z"/>
      </g>
      <path class="cls-1" d="m152.37,117.58c-32.66,0-69.4,18.27-74.23,63.21h47.51c1.48-13.88,13.73-21.19,27.09-21.19,14.1,0,26.35,6.94,26.35,24.48v11.33h-31.18c-41.94,0-73.86,19-73.86,57.37,0,41.29,32.66,62.48,63.1,62.48,19.3,0,33.03-5.85,42.31-16.81v13.52h46.4v-128.98c0-48.24-38.23-65.41-73.49-65.41Zm26.72,125.69c0,20.83-14.85,31.79-34.15,31.79-13.36,0-24.12-7.68-24.12-22.29,0-12.06,10.76-20.1,27.09-20.1h31.18v10.6Z"/>
    </g>
  </g>
</svg>