<svg xmlns="http://www.w3.org/2000/svg" viewBox="0 0 281.05 346.46"><path d="M212.43,166.6l0-3.79c30.27-8.05,50-34.08,50-71C262.38,25.08,199.8,0,113,0A650.8,650.8,0,0,0,0,9.93V340.76a1216.08,1216.08,0,0,0,125.14,5.68c87.29,0,155.91-26.51,155.91-100.33C281.05,199.73,254.3,177.48,212.43,166.6ZM75.14,62.48A231.3,231.3,0,0,1,115,59.65c43.89,0,70.14,12.3,70.14,41.17,0,26.51-22.2,39.29-59.54,39.29H75.14Zm50,223.85a487.88,487.88,0,0,1-50-2.37l0-84.71h51c47.42,0,76.69,13.25,76.69,43.53s-28.75,43.55-77.7,43.55Z"/></svg>