<svg xmlns="http://www.w3.org/2000/svg" viewBox="0 0 755.65 625.01"><defs><style>.cls-1,.cls-2{fill:none;stroke:#fff;isolation:isolate;}.cls-1{opacity:0.33;}.cls-2{opacity:0.33;}</style></defs><g id="Calque_2" data-name="Calque 2"><g id="Calque_1-2" data-name="Calque 1"><g id="Groupe_375" data-name="Groupe 375"><path id="Tracé_617" data-name="Tracé 617" class="cls-1" d="M405.32,224.59V500.43c28.2,15.68,87.77,23.27,144-10.66-14.54,80.46-76.76,108.44-136.64,122.37,0,0,171.57,63.47,234.32-97.1l.67-.07L755,223.61C720.39,205,666.74,197.5,583.13,197.5c-84.88,0-143,7.74-177.81,27.09"/><ellipse id="Ellipse_34" data-name="Ellipse 34" class="cls-2" cx="472.07" cy="380.39" rx="23.99" ry="45.2"/></g><g id="Groupe_376" data-name="Groupe 376"><path id="Tracé_617-2" data-name="Tracé 617" class="cls-1" d="M350.32,27.59V303.43c-28.2,15.68-87.76,23.27-144-10.66C220.87,373.23,283.1,401.21,343,415.14c0,0-171.57,63.47-234.32-97.1L108,318,.62,26.61C35.25,8,88.9.5,172.51.5c84.88,0,143,7.74,177.81,27.09"/><ellipse id="Ellipse_34-2" data-name="Ellipse 34" class="cls-2" cx="283.57" cy="183.39" rx="23.99" ry="45.2"/></g></g></g></svg>