<svg xmlns="http://www.w3.org/2000/svg" width="12.155" height="18.233"><g data-name="Groupe 570"><g data-name="Groupe 569" fill="#008fd2"><path data-name="Tracé 749" d="M5.54 14.972a.856.856 0 0 0 .055.05l.027.02.033.024.033.02.031.018.035.017.033.015.034.012.036.013.035.009.038.009.04.006h.033a.764.764 0 0 0 .15 0h.033l.04-.006.038-.009.035-.009.036-.013.034-.012.033-.015.035-.017.031-.018.033-.02.033-.024.027-.02a.652.652 0 0 0 .055-.05l5.318-5.318A.76.76 0 1 0 10.86 8.58L6.837 12.6V.76a.76.76 0 0 0-1.519 0V12.6L1.297 8.579A.76.76 0 0 0 .223 9.653Z"/><path data-name="Tracé 750" d="M11.395 16.713H.76a.76.76 0 0 0 0 1.519h10.636a.76.76 0 1 0 0-1.519Z"/></g></g></svg>