<svg xmlns="http://www.w3.org/2000/svg" xmlns:xlink="http://www.w3.org/1999/xlink" width="20.007" height="23" viewBox="0 0 20.007 23">
  <defs>
    <radialGradient id="radial-gradient" cx="0.124" cy="0.763" r="0.894" gradientTransform="translate(-0.111) scale(1.221 1)" gradientUnits="objectBoundingBox">
      <stop offset="0" stop-color="#ffd100"/>
      <stop offset="0.276" stop-color="#ffcc04"/>
      <stop offset="0.584" stop-color="#ffc012"/>
      <stop offset="0.743" stop-color="#ffb81c"/>
    </radialGradient>
  </defs>
  <path id="mascotte" d="M-919.605-8376.168a12.6,12.6,0,0,1-3.926-.637,11.374,11.374,0,0,0,4.4-1.868,6.812,6.812,0,0,0,2.643-4.437,8.467,8.467,0,0,1-4.371,1.232,6.506,6.506,0,0,1-3.048-.685v-14.212c1.714-.952,4.626-1.395,9.162-1.395,4.392,0,7.123.415,8.856,1.347l-5.533,15.011h-.006a.133.133,0,0,0-.028,0A8.229,8.229,0,0,1-919.605-8376.168Zm-.866-14.906c-.681,0-1.235,1.045-1.235,2.329s.554,2.329,1.235,2.329,1.237-1.045,1.237-2.329S-919.789-8391.074-920.471-8391.074Z" transform="translate(925.279 8398.668)" stroke="rgba(0,0,0,0)" stroke-miterlimit="10" stroke-width="1" fill="url(#radial-gradient)"/>
</svg>
