<svg xmlns="http://www.w3.org/2000/svg" width="34.461" height="35.716"><g fill="#fff"><path data-name="Tracé 736" d="M8.284 14.58H6.069a1.046 1.046 0 0 0-1.046 1.05l.015 7.95a1.046 1.046 0 1 0 2.093 0v-2.413h1.152a3.291 3.291 0 1 0 0-6.581Zm0 4.488H7.126v-2.4h1.157a1.2 1.2 0 1 1 0 2.4Z"/><path data-name="Tracé 737" d="M17.184 14.58h-2.186a1.046 1.046 0 0 0-1.046 1.048s.016 7.691.016 7.719a1.046 1.046 0 0 0 1.046 1.043c.066 0 1.625-.006 2.248-.017 2.364-.041 4.08-2.1 4.08-4.888.005-2.934-1.668-4.905-4.158-4.905Zm.046 7.7c-.271 0-.737.009-1.173.011 0-.909-.009-4.674-.01-5.619h1.137c1.921 0 2.07 2.152 2.07 2.812-.002 1.374-.626 2.772-2.024 2.796Z"/><path data-name="Tracé 738" d="M28.243 16.592a1.046 1.046 0 1 0 0-2.093h-3.2a1.046 1.046 0 0 0-1.046 1.046v7.894a1.046 1.046 0 0 0 2.093 0v-2.975h1.9a1.046 1.046 0 0 0 0-2.093h-1.9v-1.779Z"/><path data-name="Tracé 739" d="M31.322 10.115h-.767v-.3a5.211 5.211 0 0 0-1.435-3.6l-4.347-4.583A5.254 5.254 0 0 0 20.976 0H7.046a3.143 3.143 0 0 0-3.139 3.139v6.976H3.14A3.143 3.143 0 0 0 0 13.254v12.557a3.143 3.143 0 0 0 3.139 3.139h.767v3.627a3.143 3.143 0 0 0 3.139 3.139h20.37a3.143 3.143 0 0 0 3.139-3.139V28.95h.767a3.143 3.143 0 0 0 3.139-3.139V13.254a3.143 3.143 0 0 0-3.138-3.139ZM6 3.139a1.048 1.048 0 0 1 1.046-1.046h13.93a3.152 3.152 0 0 1 2.278.979L27.6 7.657a3.127 3.127 0 0 1 .861 2.16v.3H6Zm22.461 29.438a1.048 1.048 0 0 1-1.046 1.046H7.046A1.048 1.048 0 0 1 6 32.577V28.95h22.461Zm3.906-6.767a1.048 1.048 0 0 1-1.046 1.046H3.139a1.048 1.048 0 0 1-1.046-1.046V13.254a1.048 1.048 0 0 1 1.046-1.046h28.183a1.048 1.048 0 0 1 1.046 1.046Z"/></g></svg>