<svg width="227" height="410" viewBox="0 0 227 410" fill="none" xmlns="http://www.w3.org/2000/svg">
<mask id="mask0_295_21" style="mask-type:alpha" maskUnits="userSpaceOnUse" x="0" y="0" width="227" height="410">
<rect width="227" height="410" fill="#D9D9D9"/>
</mask>
<g mask="url(#mask0_295_21)">
<path d="M146.084 175.722H131.247C131.247 162.965 120.915 155.338 110.888 155.338C103.91 155.338 96.7629 157.329 90.9026 169.883L82.3324 155.102C89.3105 145.248 98.6598 140.523 110.855 140.523C128.164 140.523 146.05 153.685 146.05 175.688L146.084 175.722ZM195.066 140.557C176.774 140.557 164.952 151.052 157.805 173.562C151.267 194.114 142.663 195.835 135.109 195.835C126.572 195.835 114.547 189.592 114.547 175.688H99.7099C99.7099 182.1 101.573 188.613 105.028 194.249V194.316C110.888 203.698 121.254 210.65 135.109 210.65C153.198 210.65 164.884 200.29 171.964 178.016C178.265 158.106 186.801 155.372 195.066 155.372C205.059 155.372 215.425 162.999 215.425 175.755H230.262C230.262 153.752 212.376 140.591 195.066 140.591V140.557ZM253.296 318.54C259.597 298.629 268.133 295.895 276.399 295.895C280.531 295.895 284.732 297.211 288.255 299.675L295.707 286.817C289.915 283.105 283.106 281.114 276.399 281.114C258.14 281.114 246.284 291.609 239.137 314.085C232.633 334.671 224.029 336.392 216.441 336.392C207.905 336.392 195.879 330.149 195.879 316.245H181.042C181.042 321.509 182.296 326.774 184.633 331.634L187.072 335.852C193 344.728 203.095 351.207 216.441 351.207C234.53 351.207 246.217 340.847 253.263 318.573L253.296 318.54ZM152.046 225.634C162.039 225.634 172.404 233.227 172.404 245.983H187.241C187.241 223.98 169.356 210.819 152.046 210.819C139.682 210.819 130.299 215.645 123.287 225.701L131.891 240.55C137.785 227.659 145 225.6 152.046 225.6V225.634ZM241.948 173.562C235.445 194.114 226.807 195.835 219.253 195.835C210.716 195.835 198.691 189.592 198.691 175.688H183.854C183.854 192.865 197.099 210.616 219.253 210.616C237.342 210.616 249.028 200.256 256.108 177.983C262.409 158.072 270.911 155.338 279.21 155.338C289.203 155.338 299.569 162.965 299.569 175.722H314.406C314.406 153.718 296.52 140.557 279.244 140.557C260.952 140.557 249.13 151.052 241.982 173.562H241.948ZM29.59 14.815C39.5829 14.815 49.9485 22.4419 49.9485 35.1983H64.7855C64.7855 13.1952 46.8998 0.0337472 29.59 0.0337472C17.3274 0.0337472 7.97812 4.7921 1 14.68L9.57022 29.495C15.4305 16.8398 22.6119 14.815 29.59 14.815ZM212.647 248.278C218.948 228.367 227.484 225.634 235.749 225.634C245.742 225.634 256.074 233.227 256.074 245.983H270.911C270.911 223.98 253.025 210.819 235.716 210.819C217.423 210.819 205.601 221.314 198.454 243.79C191.916 264.342 183.312 266.097 175.758 266.097C167.222 266.097 155.162 259.853 155.162 245.95H140.325C140.325 251.923 141.951 257.963 145 263.329L145.847 264.814C151.707 274.095 162.005 280.912 175.724 280.912C193.813 280.912 205.5 270.551 212.546 248.278H212.647ZM303.397 195.835C294.86 195.835 282.835 189.592 282.835 175.688H267.998C267.998 192.865 281.243 210.616 303.397 210.616C318.2 210.616 328.701 203.664 335.916 188.917L326.431 172.516C326.33 172.853 326.194 173.191 326.092 173.528C319.589 194.08 310.984 195.801 303.43 195.801L303.397 195.835ZM307.834 245.983C307.834 250.877 308.952 255.837 311.018 260.393L319.385 245.983H307.834ZM259.529 280.912C277.618 280.912 289.305 270.551 296.351 248.278C302.651 228.367 311.154 225.634 319.453 225.634C322.942 225.634 326.465 226.579 329.581 228.333L337 215.51C331.614 212.472 325.483 210.852 319.453 210.852C301.161 210.852 289.339 221.348 282.225 243.823C275.721 264.375 267.083 266.13 259.529 266.13C250.993 266.13 238.968 259.887 238.968 245.983H224.131C224.131 263.161 237.375 280.912 259.529 280.912ZM192.255 295.895C202.248 295.895 212.613 303.488 212.613 316.279H227.45C227.45 294.275 209.565 281.114 192.255 281.114C180.06 281.114 170.745 285.805 163.766 295.592L172.337 310.373C178.197 297.92 185.31 295.929 192.255 295.929V295.895ZM237.917 386.507H216.475L227.213 405L237.951 386.507H237.917ZM222.064 55.3116C213.528 55.3116 201.502 49.0684 201.502 35.1646H186.665C186.665 52.3419 199.91 70.0929 222.064 70.0929C236.833 70.0929 247.335 63.1747 254.516 48.5285L245.031 32.1611C244.929 32.4648 244.828 32.7348 244.726 33.0385C238.222 53.5905 229.618 55.3116 222.03 55.3116H222.064ZM232.904 366.157C237.85 366.157 242.829 368.013 246.657 371.422L254.177 358.429C247.978 353.839 240.39 351.376 232.904 351.376C220.743 351.376 211.428 356.033 204.45 365.786L212.986 380.533C218.812 368.114 225.926 366.157 232.87 366.157H232.904ZM160.616 33.0048C154.112 53.5568 145.508 55.2779 137.92 55.2779C129.384 55.2779 117.358 49.0347 117.358 35.1308H102.522C102.522 52.3081 115.766 70.0592 137.92 70.0592C156.009 70.0592 167.696 59.6988 174.776 37.4256C181.076 17.5148 189.613 14.7813 197.878 14.7813C207.871 14.7813 218.203 22.4081 218.203 35.1646H233.04C233.04 13.1614 215.154 0 197.844 0C179.552 0 167.73 10.4616 160.582 32.971L160.616 33.0048ZM76.4721 33.0048C69.9682 53.5568 61.3641 55.2779 53.7763 55.2779C45.2399 55.2779 33.2145 49.0347 33.2145 35.1308H18.3776C18.3776 52.3081 31.6224 70.0592 53.7763 70.0592C71.8652 70.0592 83.5519 59.6988 90.5977 37.4256C96.9322 17.5148 105.435 14.7813 113.7 14.7813C123.693 14.7813 134.059 22.4081 134.059 35.1646H148.896C148.896 13.1614 131.01 0 113.7 0C95.4418 0 83.5857 10.4616 76.4382 32.971L76.4721 33.0048ZM201.231 103.3C194.728 123.852 186.123 125.607 178.569 125.607C170.033 125.607 158.008 119.364 158.008 105.46H143.171C143.171 122.637 156.416 140.388 178.603 140.388C196.658 140.388 208.379 130.028 215.425 107.755C221.725 87.8439 230.262 85.1104 238.527 85.1104C248.52 85.1104 258.886 92.7035 258.886 105.494H273.723C273.723 83.4905 255.837 70.3629 238.527 70.3629C220.235 70.3629 208.413 80.8245 201.265 103.334L201.231 103.3ZM262.713 125.573C254.143 125.573 242.152 119.33 242.152 105.426H227.315C227.315 122.604 240.56 140.355 262.713 140.355C277.483 140.355 288.018 133.403 295.233 118.689L285.748 102.288C285.646 102.625 285.511 102.929 285.409 103.266C278.872 123.818 270.301 125.573 262.713 125.573ZM70.2054 70.2954C57.9767 70.2954 48.6274 75.02 41.6493 84.8742L50.2195 99.6554C56.0797 87.0677 63.2272 85.0767 70.2054 85.0767C80.1983 85.0767 90.53 92.6698 90.53 105.46H105.367C105.367 83.4568 87.4813 70.3291 70.2054 70.3291V70.2954ZM265.186 316.245C265.186 321.813 266.609 327.415 269.217 332.477L278.634 316.245H265.186ZM154.349 70.2954C136.057 70.2954 124.235 80.757 117.088 103.266C110.584 123.818 101.98 125.573 94.3917 125.573C85.8553 125.573 73.8299 119.33 73.8299 105.426H58.9929C58.9929 122.604 72.2378 140.355 94.3917 140.355C112.481 140.355 124.167 129.994 131.247 107.721C137.548 87.8102 146.084 85.0767 154.349 85.0767C164.342 85.0767 174.708 92.6698 174.708 105.46H189.545C189.545 83.4568 171.659 70.3291 154.349 70.3291V70.2954Z" fill="#65B65A"/>
</g>
</svg>
