<svg width="70" height="60" viewBox="0 0 70 60" fill="none" xmlns="http://www.w3.org/2000/svg">
<path d="M50.169 0.019043L25.0371 43.3383L26.3475 45.6046L52.7835 0.019043H50.169Z" fill="#61C3D9"/>
<path d="M22.9853 0.0444336H22.2193L11.1094 19.251L12.4134 21.511L24.8338 0.0444336H22.9853Z" fill="#61C3D9"/>
<path d="M16.6429 0.0444336L8.31836 14.4335L9.62876 16.6935L19.2574 0.0444336H16.6429Z" fill="#61C3D9"/>
<path d="M55.4552 0.0126953L27.8291 48.1558L29.1332 50.4221L58.0697 0.0126953H55.4552Z" fill="#61C3D9"/>
<path d="M44.5098 0.0444336L22.252 38.5209L23.5624 40.7872L47.1243 0.0444336H44.5098Z" fill="#61C3D9"/>
<path d="M34.5642 0.0444336H33.3614L16.6807 28.886L17.9911 31.1459L35.9822 0.0444336H34.5642Z" fill="#61C3D9"/>
<path d="M27.7908 0.0444336L13.8955 24.0685L15.2059 26.3285L30.4053 0.0444336H27.7908Z" fill="#61C3D9"/>
<path d="M11.066 0.0507812L5.5332 9.61609L6.84361 11.8761L13.6868 0.0507812H11.066Z" fill="#61C3D9"/>
<path d="M38.9383 0.0444336L19.4658 33.7034L20.7762 35.9697L41.5528 0.0444336H38.9383Z" fill="#61C3D9"/>
<path d="M61.2473 0.00634766L30.6143 52.9732L31.9183 55.2395L63.8618 0.00634766H61.2473Z" fill="#61C3D9"/>
<path d="M13.6872 0.0444336H11.0727L11.0664 0.0507639H13.6872V0.0444336Z" fill="#61C3D9"/>
<path d="M5.48815 0.0566406L2.74707 4.79815L4.05747 7.05812L8.10896 0.0566406H5.48815Z" fill="#61C3D9"/>
<path d="M33.3994 57.7907L34.6718 60L69.3754 0L66.8242 0.00633059L33.3994 57.7907Z" fill="#61C3D9"/>
<path d="M52.7961 0H50.1753L50.1689 0.0189915H52.7834L52.7961 0Z" fill="#61C3D9"/>
<path d="M1.27242 2.2411L2.53218 0.0570945L0.0253218 0.0634248L2.53218 0.0570945L2.54484 0.0444336H0L1.27242 2.2411Z" fill="#61C3D9"/>
<path d="M8.11542 0.0444336H5.50094L5.48828 0.0570945H8.10909L8.11542 0.0444336Z" fill="#61C3D9"/>
</svg>
