<svg width="66" height="60" viewBox="0 0 66 60" fill="none" xmlns="http://www.w3.org/2000/svg">
<path d="M45.3328 19.0547L38.8314 22.8213L32.3553 19.0547L25.8856 22.8213L19.4159 19.0547L12.9399 22.8213L10.0342 21.1311L12.522 25.4421L12.9399 25.6827L19.4159 21.9097L25.8856 25.6827L32.3553 21.9097L38.8314 25.6827L38.8567 25.6637V25.6827L45.3328 21.9097L51.8088 25.6827L52.6191 25.2079L55.107 20.9032L51.8088 22.8213L45.3328 19.0547Z" fill="#EA5153"/>
<path d="M51.8077 16.4717L45.3317 12.6987L41.1092 15.1423L38.8303 16.4717L32.3542 12.6987L25.8845 16.4717L19.4148 12.6987L12.9388 16.4717L6.4627 12.6987L5.49414 13.2621L6.99446 15.8703L12.9388 19.3267L19.4148 15.5601L25.8845 19.3267L32.3542 15.5601L38.8303 19.3267L38.8556 19.3141V19.3267L45.3317 15.5601L51.8077 19.3267L58.1445 15.6361L59.4486 13.3824L58.2774 12.6987L51.8077 16.4717Z" fill="#EA5153"/>
<path d="M51.8081 10.1162L45.332 6.34326L38.856 10.1162V10.1352L32.3546 6.34326L25.8849 10.1162L19.4151 6.34326L12.9391 10.1162L6.46304 6.34959L2.74707 8.50828L3.98151 10.648L6.46304 9.20463L12.9391 12.9776L19.4151 9.20463L25.8849 12.9776L32.3546 9.20463L38.8306 12.9776L38.856 12.9586V12.9776L45.332 9.20463L51.8081 12.9776L58.2778 9.20463L60.9556 10.7682L62.19 8.62855L58.2778 6.34326L51.8081 10.1162Z" fill="#EA5153"/>
<path d="M64.5389 3.76662L58.0692 0L51.5932 3.76662L45.1234 0L38.6474 3.76662L32.3676 0.00633059H32.3359L25.8852 3.76662L19.4345 0.00633059H19.3902L12.9394 3.76662L6.48238 0.00633059H6.4444L0 3.75396L1.24077 5.89365L6.46339 2.8487L12.9394 6.62165L19.4155 2.85503L25.8852 6.62165L32.3549 2.85503L38.6474 6.62798L45.1234 2.85503L51.5932 6.62798L58.0692 2.85503L63.6463 6.10888L65.229 3.3678L64.5389 3.76662Z" fill="#EA5153"/>
<path d="M32.3548 38.1094L25.885 41.8823L20.0547 38.4829L22.5362 42.7876L25.885 44.7374L32.3548 40.9707L38.8308 44.7374L42.5278 42.585L45.0157 38.274L38.8308 41.8823L32.3548 38.1094Z" fill="#EA5153"/>
<path d="M32.3546 44.4653L25.8849 48.2319L25.5811 48.0547L26.9674 50.4603L32.3546 47.3204L37.9191 50.5616L39.4891 47.8458L38.8307 48.2319L32.3546 44.4653Z" fill="#EA5153"/>
<path d="M38.8308 35.5264L32.3547 31.7598L25.885 35.5264L19.4153 31.7598L16.9844 33.1715L18.2188 35.3111L19.4153 34.6148L25.885 38.3877L32.3547 34.6148L38.8308 38.3877L45.3005 34.6148L46.6679 35.4124L47.9023 33.2727L45.3005 31.7598L38.8308 35.5264Z" fill="#EA5153"/>
<path d="M28.4805 53.0744L29.7149 55.2141L32.3547 53.6758L35.1781 55.3154L36.4125 53.182L32.3547 50.8145L28.4805 53.0744Z" fill="#EA5153"/>
<path d="M38.8306 29.1772L32.3546 25.4043L25.8849 29.1772L19.4151 25.4043L14.2432 28.4176L15.4776 30.5573L19.4151 28.2657L25.8849 32.0323L32.3546 28.2657L38.8306 32.0323L45.3004 28.2657L49.4151 30.6586L49.738 30.0952L50.523 28.8227L45.3004 25.4043L38.8306 29.1772Z" fill="#EA5153"/>
<path d="M31.2217 57.8288L32.4751 60.0001L33.6652 57.9301L32.3548 57.1704L31.2217 57.8288Z" fill="#EA5153"/>
</svg>
