<svg width="68" height="60" viewBox="0 0 68 60" fill="none" xmlns="http://www.w3.org/2000/svg">
<path d="M29.6705 1.33913C28.9032 2.11281 28.4783 3.12115 28.3768 4.20558C28.2754 3.11481 27.8505 2.10647 27.0768 1.33278C26.0621 0.318109 24.6479 -0.100444 23.183 0.0390735C23.0498 1.50401 23.4747 2.91821 24.483 3.92655C25.2567 4.69389 26.2587 5.11879 27.3431 5.22026C26.2587 5.32172 25.2504 5.74662 24.4767 6.52031C23.4683 7.53498 23.0498 8.94918 23.1893 10.4141C24.6542 10.5473 26.0685 10.1224 27.0768 9.10773C27.8441 8.33404 28.269 7.33205 28.3705 6.24761C28.472 7.33205 28.8969 8.34038 29.6705 9.10773C30.6852 10.1161 32.0994 10.541 33.5644 10.4014C33.6975 8.9365 33.279 7.5223 32.2643 6.51397C31.4906 5.74662 30.4886 5.32172 29.3979 5.22026C30.4823 5.11879 31.4906 4.69389 32.2643 3.91386C33.1775 3.00066 33.6024 1.75768 33.577 0.444943L33.3234 0.00736506C31.9409 -0.0623938 30.6218 0.362501 29.6642 1.3201L29.6705 1.33913ZM28.3705 5.23294L28.3768 5.2266C28.3768 5.2266 28.3768 5.2266 28.3768 5.23294H28.3642H28.3705Z" fill="#F7A600"/>
<path d="M33.4443 58.4904C33.3428 57.3996 32.9179 56.3913 32.1379 55.6176C31.6052 55.0849 30.9647 54.7234 30.2607 54.5142L33.4253 59.9997L36.5898 54.5142C35.8922 54.7298 35.258 55.0913 34.7317 55.6176C33.9643 56.3913 33.5394 57.3996 33.4379 58.4841L33.4443 58.4904ZM33.4443 59.5178H33.4379C33.4379 59.5178 33.4379 59.5178 33.4379 59.5114H33.4443V59.5178Z" fill="#F7A600"/>
<path d="M4.00004 9.02536C4.71031 8.26436 5.10984 7.30042 5.20496 6.26038C5.30643 7.34481 5.73133 8.35314 6.50502 9.12049C7.51969 10.1288 8.93389 10.5537 10.3988 10.4142C10.532 8.94926 10.1135 7.53506 9.09878 6.52673C8.32509 5.75938 7.31676 5.33448 6.23866 5.23302C7.3231 5.13155 8.33143 4.70665 9.10512 3.92662C10.1135 2.91195 10.5383 1.49775 10.3988 0.0328101C8.93389 -0.100366 7.51969 0.318187 6.51136 1.3392C5.73767 2.11289 5.31277 3.12123 5.21765 4.20566C5.11618 3.11488 4.69129 2.10655 3.9176 1.33286C2.90292 0.318187 1.48872 -0.100366 0.0237819 0.0391516C-0.109394 1.50409 0.315501 2.91829 1.33018 3.92662C2.10386 4.69397 3.10586 5.11887 4.19029 5.22033C3.47368 5.28375 2.78877 5.49937 2.18631 5.86085L4.01272 9.02536H4.00004ZM5.20496 5.22668H5.21131C5.21131 5.22668 5.21131 5.22668 5.21131 5.23302H5.20496V5.22668Z" fill="#F7A600"/>
<path d="M40.6168 44.767C39.8431 45.5407 39.4182 46.549 39.3231 47.6334C39.2216 46.5426 38.7968 45.5343 38.0231 44.7606C37.0084 43.7523 35.5942 43.3337 34.1293 43.4669C33.9961 44.9319 34.421 46.3461 35.4356 47.3544C36.2093 48.1217 37.2113 48.553 38.2958 48.6481C37.2113 48.7496 36.203 49.1745 35.4356 49.9481C34.4273 50.9628 34.0024 52.377 34.1419 53.842C35.3532 53.9498 36.5264 53.6771 37.465 53.0049L39.3041 49.815C39.3041 49.7706 39.3168 49.7198 39.3231 49.6755C39.3231 49.7072 39.3295 49.7325 39.3358 49.7642L42.9379 43.5303C42.0627 43.7079 41.2637 44.1138 40.6232 44.7543L40.6168 44.767ZM39.3231 48.6608C39.3231 48.6608 39.3231 48.6608 39.3104 48.6608L39.3168 48.6544V48.6671L39.3231 48.6608Z" fill="#F7A600"/>
<path d="M21.9789 0.0391577C20.5076 -0.0940183 19.0998 0.324535 18.0914 1.34555C17.3177 2.11924 16.8929 3.12757 16.7977 4.21201C16.6963 3.12123 16.2714 2.1129 15.4977 1.33921C14.483 0.324535 13.0688 -0.0940182 11.6039 0.0454996C11.4707 1.51044 11.8956 2.92464 12.9103 3.93297C13.6839 4.70032 14.6859 5.12521 15.7704 5.22668C14.6859 5.32815 13.6776 5.75304 12.9103 6.52673C11.9019 7.54141 11.4834 8.95561 11.6165 10.4205C13.0878 10.5537 14.4957 10.1288 15.504 9.11415C16.2714 8.34046 16.6963 7.33847 16.7977 6.25404C16.8992 7.33847 17.3241 8.34681 18.0978 9.11415C19.1125 10.1225 20.5267 10.5474 21.9916 10.4079C22.1248 8.94293 21.6999 7.52872 20.6915 6.52039C19.9178 5.75304 18.9095 5.32815 17.8314 5.22668C18.9159 5.12521 19.9242 4.70032 20.6979 3.92029C21.7062 2.90561 22.1248 1.49141 21.9916 0.0264743L21.9789 0.0391577ZM16.7977 5.23302H16.7914C16.7914 5.23302 16.7914 5.23302 16.7914 5.22668H16.7977V5.23302Z" fill="#F7A600"/>
<path d="M28.1674 10.8898C26.7024 10.7566 25.2882 11.1815 24.2799 12.1898C23.5062 12.9635 23.0877 13.9718 22.9862 15.0563C22.8847 13.9655 22.4598 12.9572 21.6862 12.1835C20.6715 11.1751 19.2573 10.7566 17.7923 10.8898C17.6592 12.3547 18.0841 13.7689 19.0987 14.7772C19.8724 15.5509 20.8744 15.9695 21.9588 16.0709C20.8744 16.1724 19.8661 16.5973 19.0924 17.371C18.0841 18.3857 17.6655 19.7999 17.805 21.2648C19.27 21.398 20.6842 20.9731 21.6925 19.9584C22.4598 19.1847 22.8847 18.1827 22.9862 17.0983C23.0877 18.1827 23.5126 19.1911 24.2863 19.9584C25.3009 20.9668 26.7151 21.3916 28.1801 21.2521C28.3132 19.7872 27.8947 18.373 26.88 17.3647C26.1063 16.5973 25.098 16.1724 24.0136 16.0709C25.1043 15.9695 26.1127 15.5446 26.88 14.7709C27.8883 13.7562 28.3132 12.342 28.1737 10.8771L28.1674 10.8898ZM22.9862 16.09H22.9799C22.9799 16.09 22.9799 16.09 22.9799 16.0836H22.9862V16.09Z" fill="#F7A600"/>
<path d="M34.5731 15.0624C34.4717 13.9716 34.0468 12.9633 33.2731 12.1896C32.2584 11.1813 30.8442 10.7627 29.3793 10.8959C29.2461 12.3608 29.671 13.775 30.6793 14.7834C31.453 15.557 32.455 15.9756 33.5394 16.0771C32.455 16.1785 31.4467 16.6034 30.6793 17.3771C29.671 18.3918 29.2524 19.806 29.3856 21.2709C30.8505 21.4041 32.2647 20.9792 33.2731 19.9645C34.0404 19.1908 34.4653 18.1889 34.5668 17.1044C34.6683 18.1889 35.0931 19.1972 35.8668 19.9645C36.8815 20.9729 38.2957 21.3978 39.7606 21.2582C39.8938 19.7933 39.4689 18.3791 38.4543 17.3708C37.6806 16.6034 36.6786 16.1785 35.5941 16.0771C36.6849 15.9756 37.6869 15.5507 38.4606 14.777C39.4055 13.8258 39.8241 12.532 39.767 11.1686L39.5958 10.8769C38.1816 10.7881 36.8371 11.2066 35.8605 12.1832C35.0868 12.9569 34.6619 13.9653 34.5668 15.0497L34.5731 15.0624ZM34.5731 16.0897H34.5668C34.5668 16.0897 34.5668 16.0897 34.5668 16.0834H34.5731V16.0897Z" fill="#F7A600"/>
<path d="M43.2487 42.9917L46.242 37.8169C45.2146 37.9437 44.2634 38.3623 43.5277 39.0979C42.5194 40.1126 42.1008 41.5268 42.234 42.9917C42.5765 43.0234 42.9189 43.0234 43.2487 42.9917Z" fill="#F7A600"/>
<path d="M27.9205 23.0531C26.9059 22.0384 25.4916 21.6199 24.0267 21.7594C23.8935 23.2243 24.3184 24.6385 25.3331 25.6468C26.1068 26.4142 27.1088 26.8454 28.1932 26.9406C27.1088 27.042 26.1005 27.4669 25.3268 28.2406C24.3184 29.2553 23.8999 30.6695 24.0331 32.1344C25.498 32.2676 26.9122 31.8427 27.9205 30.828C28.6879 30.0543 29.1128 29.0523 29.2142 27.9679C29.3157 29.0523 29.7406 30.0607 30.5143 30.828C31.529 31.8364 32.9432 32.2613 34.4081 32.1217C34.5413 30.6568 34.1164 29.2426 33.108 28.2343C32.3344 27.4669 31.3324 27.042 30.2416 26.9406C31.326 26.8391 32.3344 26.4142 33.108 25.6405C34.1164 24.6258 34.5349 23.2116 34.4018 21.7467C32.9305 21.6135 31.5226 22.0321 30.5143 23.0467C29.7406 23.8204 29.322 24.8288 29.2206 25.9132C29.1191 24.8224 28.6942 23.8141 27.9205 23.0404V23.0531ZM29.2269 26.9342V26.9469C29.2269 26.9469 29.2269 26.9469 29.2206 26.9469V26.9342H29.2269Z" fill="#F7A600"/>
<path d="M46.2549 37.7786L47.2822 35.9965C47.0856 35.2102 46.6988 34.4936 46.1153 33.9038C45.1007 32.8891 43.6865 32.4706 42.2152 32.6101C42.082 34.075 42.5069 35.4892 43.5216 36.4975C44.2636 37.2395 45.2212 37.6581 46.2549 37.7722V37.7786Z" fill="#F7A600"/>
<path d="M10.1012 12.1959C9.08653 11.1876 7.67232 10.769 6.20739 10.9022C6.07421 12.3671 6.49911 13.7813 7.50744 14.7897C8.28113 15.5634 9.28312 15.9819 10.3676 16.0834C9.66996 16.1468 9.01043 16.3497 8.42065 16.6858L10.2344 19.8313C10.9193 19.0767 11.2998 18.1381 11.3949 17.1171C11.4964 18.2015 11.9213 19.2099 12.695 19.9772C13.7096 20.9855 15.1238 21.4104 16.5888 21.2709C16.722 19.806 16.2971 18.3918 15.2824 17.3834C14.5087 16.6161 13.5067 16.1912 12.4223 16.0897C13.5067 15.9883 14.515 15.5634 15.2887 14.7897C16.3034 13.775 16.722 12.3608 16.5824 10.8959C15.1175 10.7627 13.7033 11.1876 12.695 12.1959C11.9213 12.9696 11.4964 13.9779 11.4013 15.0624C11.2998 13.9716 10.8749 12.9633 10.0949 12.1896L10.1012 12.1959ZM11.4076 16.0834V16.0961H11.4013L11.4076 16.0897V16.0834Z" fill="#F7A600"/>
<path d="M13.7474 25.647C14.5211 26.4143 15.5231 26.8455 16.6075 26.9407C15.9226 27.0041 15.2694 27.2007 14.6796 27.5304L16.4934 30.6696C17.1656 29.9213 17.5397 28.9827 17.6349 27.9807C17.7363 29.0651 18.1612 30.0735 18.9349 30.8408C19.9496 31.8492 21.3638 32.274 22.8287 32.1345C22.9619 30.6696 22.537 29.2554 21.5223 28.2471C20.7486 27.4797 19.7467 27.0548 18.6622 26.9533C19.7467 26.8519 20.755 26.427 21.5287 25.6533C22.537 24.6386 22.9619 23.2244 22.8224 21.7595C21.3511 21.6263 19.9432 22.0449 18.9349 23.0595C18.1612 23.8332 17.7427 24.8416 17.6412 25.926C17.5397 24.8352 17.1148 23.8269 16.3412 23.0532C15.3265 22.0385 13.9123 21.62 12.4473 21.7595C12.3649 22.6854 12.4981 23.5859 12.8659 24.3786L13.2337 25.0128C13.3859 25.2347 13.5571 25.4504 13.7537 25.647H13.7474ZM17.6349 26.9407H17.6412C17.6412 26.9407 17.6412 26.947 17.6349 26.9533V26.9407Z" fill="#F7A600"/>
<path d="M35.5629 38.8313C35.6643 39.9157 36.0892 40.9241 36.8629 41.6914C37.8776 42.6997 39.2918 43.1246 40.7567 42.9851C40.8899 41.5202 40.465 40.106 39.4567 39.0976C38.683 38.3303 37.6747 37.9054 36.5902 37.8039C37.6747 37.7025 38.683 37.2776 39.4567 36.5039C40.465 35.4892 40.8836 34.075 40.7504 32.6101C39.2855 32.4769 37.8713 32.9018 36.8629 33.9101C36.0892 34.6838 35.6707 35.6921 35.5692 36.7766C35.4677 35.6858 35.0428 34.6775 34.2692 33.9038C33.2545 32.8891 31.8403 32.4706 30.3753 32.6101C30.2422 34.075 30.6671 35.4892 31.6817 36.4975C32.4554 37.2712 33.4574 37.6898 34.5419 37.7913C33.4574 37.8927 32.4491 38.3176 31.6817 39.0913C30.6734 40.106 30.2548 41.5202 30.388 42.9851C31.853 43.1183 33.2672 42.6934 34.2755 41.6787C35.0428 40.905 35.4677 39.903 35.5692 38.8186L35.5629 38.8313ZM35.5755 37.7976V37.8103C35.5755 37.8103 35.5756 37.8103 35.5692 37.8103L35.5755 37.8039V37.7976Z" fill="#F7A600"/>
<path d="M29.1693 32.6037C27.7044 32.4705 26.2902 32.8954 25.2819 33.9038C24.5082 34.6775 24.0896 35.6858 23.9882 36.7702C23.8867 35.6795 23.4618 34.6711 22.6881 33.8974C21.6734 32.8828 20.2592 32.4642 18.7943 32.6037C18.6611 34.0687 19.086 35.4829 20.1007 36.4912C20.8744 37.2649 21.8764 37.6834 22.9608 37.7849C22.2505 37.8483 21.572 38.0576 20.9758 38.4127L22.7959 41.5709C23.4998 40.8162 23.893 39.8586 23.9882 38.8249C24.0896 39.9094 24.5145 40.9177 25.2882 41.6851C26.3029 42.6934 27.7171 43.1183 29.182 42.9788C29.3152 41.5138 28.8966 40.0996 27.882 39.0913C27.1083 38.324 26.1063 37.8991 25.0219 37.7976C26.1063 37.6961 27.1146 37.2712 27.8883 36.4975C28.8966 35.4829 29.3215 34.0687 29.182 32.6037H29.1693ZM23.9882 37.8039C23.9882 37.8039 23.9882 37.8039 23.9818 37.8039L23.9882 37.7976V37.8039Z" fill="#F7A600"/>
<path d="M32.6705 53.8419C32.8037 52.377 32.3852 50.9628 31.3705 49.9545C30.5968 49.1871 29.5885 48.7622 28.5104 48.6608C29.5948 48.5593 30.6031 48.1344 31.3768 47.3607C32.3852 46.346 32.8101 44.9318 32.6705 43.4669C31.1993 43.3337 29.7914 43.7523 28.7831 44.7733C28.0094 45.547 27.5845 46.5553 27.4894 47.6397C27.3879 46.549 26.963 45.5406 26.1893 44.7669C25.5678 44.1455 24.7941 43.7523 23.957 43.5684L29.449 53.0809C30.3748 53.7024 31.51 53.9497 32.6832 53.8419H32.6705ZM27.4767 48.6608C27.4767 48.6608 27.4767 48.6608 27.464 48.6608L27.4703 48.6544V48.6671L27.4767 48.6608Z" fill="#F7A600"/>
<path d="M42.1017 30.8408C43.1164 31.8492 44.5306 32.274 45.9955 32.1345C46.1287 30.6696 45.7038 29.2554 44.6891 28.2471C43.9154 27.4797 42.9134 27.0548 41.829 26.9533C42.9134 26.8519 43.9218 26.427 44.6955 25.6533C45.6531 24.6894 46.0716 23.3703 45.9955 21.9814L45.8623 21.7531C44.4418 21.6517 43.0783 22.0766 42.0953 23.0595C41.3217 23.8332 40.8968 24.8416 40.8016 25.926C40.7002 24.8352 40.2753 23.8269 39.5016 23.0532C38.4869 22.0385 37.0727 21.62 35.6078 21.7595C35.4746 23.2244 35.8995 24.6386 36.9078 25.647C37.6815 26.4143 38.6835 26.8455 39.7679 26.9407C38.6835 27.0421 37.6752 27.467 36.9078 28.2407C35.8995 29.2554 35.4809 30.6696 35.6141 32.1345C37.0791 32.2677 38.4933 31.8428 39.5016 30.8281C40.2689 30.0544 40.6938 29.0525 40.7953 27.968C40.8968 29.0525 41.3217 30.0608 42.0953 30.8281L42.1017 30.8408ZM40.8016 26.9407H40.808V26.9533C40.808 26.9533 40.808 26.9533 40.8016 26.9533V26.9407Z" fill="#F7A600"/>
<path d="M41.0797 1.33913C40.3124 2.11281 39.8875 3.12115 39.786 4.20558C39.6845 3.11481 39.2597 2.10647 38.486 1.33278C37.4713 0.318109 36.0571 -0.100444 34.5922 0.0390735C34.459 1.50401 34.8839 2.91821 35.8922 3.92655C36.6659 4.69389 37.6679 5.11879 38.7523 5.22026C37.6679 5.32172 36.6596 5.74662 35.8859 6.52031C34.8775 7.53498 34.459 8.94918 34.5985 10.4141C36.0634 10.5473 37.4776 10.1224 38.486 9.10773C39.2533 8.33404 39.6782 7.33205 39.7797 6.24761C39.8811 7.33205 40.306 8.34038 41.0797 9.10773C42.0944 10.1161 43.5086 10.541 44.9735 10.4014C45.1067 8.9365 44.6882 7.5223 43.6735 6.51397C42.8998 5.74662 41.8978 5.32172 40.807 5.22026C41.8915 5.11879 42.8998 4.69389 43.6735 3.91386C44.5867 3.00066 45.0116 1.75768 44.9862 0.444943L44.7326 0.00736506C43.3501 -0.0623938 42.031 0.362501 41.0734 1.3201L41.0797 1.33913ZM39.7797 5.23294L39.786 5.2266C39.786 5.2266 39.786 5.2266 39.786 5.23294H39.7733H39.7797Z" fill="#F7A600"/>
<path d="M50.2128 5.22678C49.1283 5.32825 48.12 5.75314 47.3463 6.52683C46.338 7.54151 45.9194 8.95571 46.0589 10.4206C47.5239 10.5538 48.9381 10.1289 49.9464 9.11425C50.7138 8.34056 51.1387 7.33857 51.2401 6.25414C51.3416 7.33857 51.7665 8.34691 52.5402 9.11425C53.5548 10.1226 54.969 10.5475 56.434 10.408C56.5672 8.94303 56.1486 7.52882 55.1339 6.52049C54.3602 5.75314 53.3583 5.32825 52.2675 5.22678C53.3519 5.12531 54.3602 4.70042 55.1339 3.92039C56.0471 3.00718 56.472 1.7642 56.4467 0.451469L56.193 0.0138906C54.8105 -0.0558683 53.4914 0.369027 52.5338 1.32663C51.7665 2.10032 51.3416 3.10865 51.2401 4.19308C51.1387 3.10231 50.7138 2.09397 49.9401 1.32028C48.9254 0.30561 47.5112 -0.112944 46.0463 0.026574C45.9131 1.49151 46.338 2.90571 47.3463 3.91405C48.12 4.68139 49.122 5.10629 50.2064 5.20776L50.2128 5.22678ZM51.2401 5.22678H51.2465C51.2465 5.22678 51.2465 5.22678 51.2465 5.23312H51.2338L51.2401 5.22678Z" fill="#F7A600"/>
<path d="M67.8676 0.400747L67.652 0.0265859C66.2695 -0.043173 64.9504 0.381722 63.9928 1.33932C63.2255 2.11301 62.8006 3.12134 62.6991 4.20578C62.5976 3.115 62.1727 2.10667 61.3991 1.33298C60.3844 0.318305 58.9702 -0.100248 57.5052 0.0392693C57.3721 1.50421 57.797 2.91841 58.8053 3.92674C59.579 4.69409 60.581 5.11898 61.6654 5.22045C60.581 5.32192 59.5726 5.74681 58.7989 6.5205C57.7906 7.53518 57.3721 8.94938 57.5116 10.4143C58.9765 10.5475 60.3907 10.1226 61.3991 9.10792C62.1664 8.33423 62.5913 7.33224 62.6928 6.24781C62.7562 6.95808 62.9781 7.6303 63.3333 8.22642L64.9124 5.49314C64.5319 5.35997 64.1387 5.2585 63.7201 5.22045C64.2909 5.16972 64.8299 5.01117 65.3309 4.77019M62.6928 5.23313L62.6991 5.22679C62.6991 5.22679 62.6991 5.22679 62.6991 5.23313H62.6864H62.6928Z" fill="#F7A600"/>
<path d="M44.9921 16.0769C43.9076 16.1783 42.8993 16.6032 42.1256 17.3769C41.1173 18.3916 40.6987 19.8058 40.8382 21.2707C42.3032 21.4039 43.7174 20.979 44.7257 19.9644C45.4931 19.1907 45.9179 18.1887 46.0194 17.1042C46.1209 18.1887 46.5458 19.197 47.3195 19.9644C48.3341 20.9727 49.7483 21.3976 51.2133 21.2581C51.3465 19.7931 50.9279 18.3789 49.9132 17.3706C49.1395 16.6032 48.1376 16.1783 47.0468 16.0769C48.1312 15.9754 49.1395 15.5505 49.9132 14.7705C50.8264 13.8573 51.2513 12.6143 51.226 11.3016L50.9723 10.864C49.5898 10.7942 48.2707 11.2191 47.3131 12.1767C46.5458 12.9504 46.1209 13.9587 46.0194 15.0432C45.9179 13.9524 45.4931 12.9441 44.7194 12.1704C43.7047 11.1557 42.2905 10.7372 40.8256 10.8767C40.6924 12.3416 41.1173 13.7558 42.1256 14.7641C42.8993 15.5315 43.9013 15.9564 44.9857 16.0579L44.9921 16.0769ZM46.0194 16.0705H46.0258C46.0258 16.0705 46.0258 16.0705 46.0258 16.0769H46.0131L46.0194 16.0705Z" fill="#F7A600"/>
<path d="M52.2597 25.926C52.1582 24.8352 51.7333 23.8269 50.9596 23.0532C49.9449 22.0385 48.5307 21.62 47.0658 21.7595C46.9326 23.2244 47.3575 24.6386 48.3658 25.647C49.1395 26.4143 50.1415 26.8392 51.2259 26.9407C50.1415 27.0421 49.1332 27.467 48.3595 28.2407C47.3512 29.2554 46.9326 30.6696 47.0721 32.1345C48.0424 32.2233 48.9873 32.0521 49.8117 31.6399L55.4051 21.9561C54.7139 22.1654 54.0797 22.5205 53.5534 23.0469C52.786 23.8205 52.3611 24.8289 52.2597 25.9133V25.926ZM52.2533 26.9533L52.2597 26.947C52.2597 26.947 52.2597 26.947 52.2597 26.9533H52.247H52.2533Z" fill="#F7A600"/>
<path d="M57.4804 15.0564C57.3789 13.9656 56.954 12.9573 56.1803 12.1836C55.1656 11.1689 53.7514 10.7503 52.2865 10.8899C52.1533 12.3548 52.5782 13.769 53.5865 14.7773C54.3602 15.5447 55.3622 15.9696 56.4467 16.071C55.3622 16.1725 54.3539 16.5974 53.5802 17.3711C52.5719 18.3858 52.1533 19.8 52.2928 21.2649C53.7578 21.3981 55.172 20.9732 56.1803 19.9585C56.9476 19.1848 57.3725 18.1828 57.474 17.0984C57.5057 17.4218 57.5818 17.7326 57.6706 18.0306L58.7804 16.1154C58.6916 16.0964 58.6028 16.0774 58.5077 16.071C58.6219 16.0584 58.7297 16.033 58.8438 16.014L61.8181 10.8708C60.6639 10.9406 59.5921 11.3591 58.7804 12.1772C58.0131 12.9509 57.5882 13.9592 57.4867 15.0437L57.4804 15.0564ZM57.474 16.0837L57.4804 16.0774C57.4804 16.0774 57.4804 16.0774 57.4804 16.0837H57.4677H57.474Z" fill="#F7A600"/>
</svg>
