<svg width="142" height="322" viewBox="0 0 142 322" fill="none" xmlns="http://www.w3.org/2000/svg">
<path d="M86.4287 0L0.000411987 148.831V0H86.4287Z" fill="#0F6E61"/>
<mask id="mask0_305_13" style="mask-type:alpha" maskUnits="userSpaceOnUse" x="0" y="66" width="142" height="256">
<rect width="141.655" height="255.853" transform="matrix(-1 0 0 1 141.655 66.1475)" fill="#D9D9D9"/>
</mask>
<g mask="url(#mask0_305_13)">
<path d="M50.4944 175.803H59.7531C59.7531 167.843 66.2004 163.083 72.4574 163.083C76.812 163.083 81.2722 164.326 84.9292 172.16L90.2773 162.936C85.9228 156.787 80.0885 153.838 72.4786 153.838C61.6767 153.838 50.5155 162.051 50.5155 175.782L50.4944 175.803ZM19.9278 153.859C31.3427 153.859 38.7201 160.409 43.1804 174.455C47.2601 187.28 52.6294 188.355 57.3433 188.355C62.6702 188.355 70.1744 184.459 70.1744 175.782H79.4332C79.4332 179.783 78.2706 183.848 76.1144 187.365V187.407C72.4574 193.261 65.989 197.6 57.3433 197.6C46.0552 197.6 38.7624 191.134 34.3444 177.235C30.4126 164.81 25.0857 163.104 19.9278 163.104C13.6919 163.104 7.22351 167.864 7.22351 175.824H-2.03523C-2.03523 162.094 9.12599 153.88 19.9278 153.88V153.859ZM-16.4095 264.926C-20.3413 252.501 -25.6683 250.795 -30.8261 250.795C-33.405 250.795 -36.0262 251.617 -38.2246 253.154L-42.8751 245.13C-39.2604 242.814 -35.0116 241.571 -30.8261 241.571C-19.4324 241.571 -12.0338 248.121 -7.57356 262.146C-3.51494 274.992 1.85428 276.066 6.58935 276.066C11.9163 276.066 19.4205 272.171 19.4205 263.494H28.6793C28.6793 266.779 27.8971 270.065 26.4386 273.097L24.9166 275.73C21.2173 281.268 14.918 285.311 6.58935 285.311C-4.6987 285.311 -11.9915 278.846 -16.3884 264.947L-16.4095 264.926ZM46.7739 206.95C40.538 206.95 34.0696 211.688 34.0696 219.649H24.8109C24.8109 205.918 35.9721 197.705 46.7739 197.705C54.4896 197.705 60.345 200.716 64.7207 206.992L59.3515 216.258C55.6733 208.213 51.1708 206.929 46.7739 206.929V206.95ZM-9.32807 174.455C-5.26945 187.28 0.120918 188.355 4.83484 188.355C10.1618 188.355 17.666 184.459 17.666 175.782H26.9247C26.9247 186.501 18.6595 197.578 4.83484 197.578C-6.45321 197.578 -13.7461 191.113 -18.164 177.214C-22.0958 164.789 -27.4016 163.083 -32.5806 163.083C-38.8165 163.083 -45.2849 167.843 -45.2849 175.803H-54.5437C-54.5437 162.073 -43.3825 153.859 -32.6018 153.859C-21.1869 153.859 -13.8095 160.409 -9.34922 174.455H-9.32807ZM123.19 75.3925C116.954 75.3925 110.486 80.1519 110.486 88.1123H101.227C101.227 74.3816 112.388 66.1685 123.19 66.1685C130.842 66.1685 136.677 69.1379 141.031 75.3083L135.683 84.5533C132.026 76.656 127.545 75.3925 123.19 75.3925ZM8.95687 221.081C5.02508 208.656 -0.301868 206.95 -5.4597 206.95C-11.6956 206.95 -18.1429 211.688 -18.1429 219.649H-27.4016C-27.4016 205.918 -16.2404 197.705 -5.43855 197.705C5.97633 197.705 13.3537 204.254 17.814 218.28C21.8937 231.105 27.263 232.2 31.9769 232.2C37.3038 232.2 44.8292 228.304 44.8292 219.628H54.0879C54.0879 223.355 53.0733 227.125 51.1708 230.473L50.6423 231.4C46.9853 237.191 40.5592 241.445 31.998 241.445C20.71 241.445 13.4171 234.98 9.02029 221.081H8.95687ZM-47.6736 188.355C-42.3467 188.355 -34.8424 184.459 -34.8424 175.782H-25.5837C-25.5837 186.501 -33.8489 197.578 -47.6736 197.578C-56.9112 197.578 -63.4642 193.24 -67.9667 184.037L-62.0479 173.803C-61.9845 174.013 -61.8999 174.224 -61.8365 174.434C-57.7779 187.259 -52.4087 188.333 -47.6948 188.333L-47.6736 188.355ZM-50.4428 219.649C-50.4428 222.702 -51.1404 225.798 -52.4298 228.641L-57.6511 219.649H-50.4428ZM-20.299 241.445C-31.5871 241.445 -38.8799 234.98 -43.2768 221.081C-47.2086 208.656 -52.5144 206.95 -57.6933 206.95C-59.8706 206.95 -62.069 207.54 -64.0138 208.635L-68.6432 200.632C-65.2821 198.737 -61.456 197.726 -57.6933 197.726C-46.2784 197.726 -38.9011 204.275 -34.4619 218.301C-30.4033 231.126 -25.013 232.221 -20.299 232.221C-14.9721 232.221 -7.46787 228.325 -7.46787 219.649H1.79086C1.79086 230.368 -6.47436 241.445 -20.299 241.445ZM21.6824 250.795C15.4465 250.795 8.97802 255.534 8.97802 263.515H-0.280729C-0.280729 249.784 10.8805 241.571 21.6824 241.571C29.2923 241.571 35.1054 244.499 39.46 250.606L34.1119 259.83C30.4549 252.059 26.0158 250.816 21.6824 250.816V250.795ZM-6.81257 307.34H6.56822L-0.13276 318.88L-6.83372 307.34H-6.81257ZM3.08032 100.664C8.40727 100.664 15.9115 96.7677 15.9115 88.0912H25.1702C25.1702 98.8104 16.905 109.888 3.08032 109.888C-6.13613 109.888 -12.6891 105.57 -17.1705 96.4307L-11.2517 86.217C-11.1883 86.4065 -11.1249 86.575 -11.0614 86.7645C-7.00282 99.5896 -1.6336 100.664 3.10146 100.664H3.08032ZM-3.68406 294.641C-6.7703 294.641 -9.87768 295.799 -12.2663 297.926L-16.9591 289.818C-13.0908 286.954 -8.3557 285.417 -3.68406 285.417C3.90472 285.417 9.71787 288.323 14.0724 294.409L8.74549 303.612C5.10964 295.862 0.670506 294.641 -3.66292 294.641H-3.68406ZM41.4259 86.7434C45.4845 99.5686 50.8537 100.643 55.5888 100.643C60.9157 100.643 68.4199 96.7466 68.4199 88.0702H77.6787C77.6787 98.7894 69.4135 109.867 55.5888 109.867C44.3007 109.867 37.0079 103.401 32.5899 89.5022C28.6581 77.0772 23.3312 75.3714 18.1733 75.3714C11.9374 75.3714 5.49013 80.1308 5.49013 88.0912H-3.7686C-3.7686 74.3606 7.39262 66.1475 18.1945 66.1475C29.6094 66.1475 36.9867 72.6758 41.447 86.7224L41.4259 86.7434ZM93.9343 86.7434C97.9929 99.5686 103.362 100.643 108.097 100.643C113.424 100.643 120.928 96.7466 120.928 88.0702H130.187C130.187 98.7894 121.922 109.867 108.097 109.867C96.8092 109.867 89.5163 103.401 85.1195 89.5022C81.1666 77.0772 75.8608 75.3714 70.7029 75.3714C64.467 75.3714 57.9986 80.1308 57.9986 88.0912H48.7398C48.7398 74.3606 59.9011 66.1475 70.7029 66.1475C82.0967 66.1475 89.4952 72.6758 93.9554 86.7224L93.9343 86.7434ZM16.0806 130.61C20.1392 143.435 25.5085 144.53 30.2224 144.53C35.5493 144.53 43.0535 140.634 43.0535 131.958H52.3123C52.3123 142.677 44.0471 153.754 30.2012 153.754C18.9343 153.754 11.6203 147.289 7.22351 133.39C3.29172 120.965 -2.03523 119.259 -7.19307 119.259C-13.429 119.259 -19.8974 123.997 -19.8974 131.979H-29.1561C-29.1561 118.248 -17.9949 110.056 -7.19307 110.056C4.22181 110.056 11.5992 116.584 16.0595 130.631L16.0806 130.61ZM-22.2861 144.509C-16.938 144.509 -9.4549 140.613 -9.4549 131.937H-0.196175C-0.196175 142.656 -8.46138 153.733 -22.2861 153.733C-31.5025 153.733 -38.0766 149.395 -42.5792 140.213L-36.6604 129.978C-36.597 130.189 -36.5124 130.378 -36.449 130.589C-32.3692 143.414 -27.0211 144.509 -22.2861 144.509ZM97.845 110.014C105.476 110.014 111.31 112.962 115.665 119.112L110.317 128.336C106.66 120.48 102.2 119.238 97.845 119.238C91.6091 119.238 85.1618 123.976 85.1618 131.958H75.903C75.903 118.227 87.0642 110.035 97.845 110.035V110.014ZM-23.8292 263.494C-23.8292 266.969 -24.717 270.465 -26.3447 273.624L-32.2213 263.494H-23.8292ZM45.3365 110.014C56.7514 110.014 64.1288 116.542 68.589 130.589C72.6477 143.414 78.0169 144.509 82.752 144.509C88.0789 144.509 95.5831 140.613 95.5831 131.937H104.842C104.842 142.656 96.5766 153.733 82.752 153.733C71.4639 153.733 64.1711 147.268 59.7531 133.369C55.8213 120.944 50.4943 119.238 45.3365 119.238C39.1006 119.238 32.6322 123.976 32.6322 131.958H23.3734C23.3734 118.227 34.5347 110.035 45.3365 110.035V110.014Z" fill="#65B65A"/>
</g>
</svg>
