<svg width="276" height="313" viewBox="0 0 276 313" fill="none" xmlns="http://www.w3.org/2000/svg">
<g clip-path="url(#clip0_292_59)">
<path d="M20.3979 312.024H19.971L0 272.199H10.9656L15.9729 283.048C17.6032 286.697 19.2529 290.248 20.165 293.082C20.7667 291.782 23.2121 285.726 24.4154 283.048L29.4421 272.199H40.3495L20.3979 312.005V312.024ZM45.4732 311.481V272.218H71.2084V280.622H55.449V287.609H68.9182V295.566H55.449V303.097H72.0235V311.5H45.4732V311.481ZM93.9159 272.199C103.29 272.199 109.792 276.721 109.792 285.552C109.792 291.219 106.9 294.984 102.591 296.886L110.51 311.442H100.088L93.7606 298.516H89.3938V311.442H79.6315V272.18H93.9159V272.199ZM89.3744 280.603V290.578H94.4011C97.4094 290.578 99.6995 289.162 99.6995 285.552C99.6995 281.942 97.3511 280.583 94.3623 280.583H89.3938L89.3744 280.603ZM132.13 312.024H131.704L111.752 272.218H122.718L127.725 283.067C129.355 286.716 131.005 290.268 131.917 293.101C132.519 291.801 134.964 285.746 136.167 283.067L141.194 272.218H152.101L132.15 312.024H132.13ZM157.225 311.481V272.218H167.201V311.481H157.225ZM176.963 311.481V272.218H202.698V280.622H186.939V287.609H200.408V295.566H186.939V303.097H203.514V311.5H176.963V311.481ZM225.387 272.199C234.761 272.199 241.262 276.721 241.262 285.552C241.262 291.219 238.371 294.984 234.062 296.886L241.961 311.442H231.539L225.212 298.516H220.845V311.442H211.083V272.18H225.367L225.387 272.199ZM220.864 280.603V290.578H225.872C228.88 290.578 231.17 289.162 231.17 285.552C231.17 281.942 228.822 280.583 225.833 280.583H220.864V280.603ZM247.958 310.103V300.496C250.734 301.971 254.072 303.058 257.235 303.33C258.322 303.446 259.37 303.446 260.341 303.388C263.562 303.174 265.367 302.301 265.367 300.651C265.367 298.575 262.902 297.546 258.109 295.741C251.51 293.237 247.259 290.501 247.259 283.3C247.259 276.1 253.198 271.423 262.146 271.423C266.066 271.423 269.986 272.18 272.606 273.286V282.505C270.258 281.03 266.551 280.059 262.961 280.059C259.37 280.059 257.08 281.321 257.08 283.281C257.08 285.144 259.37 286.386 263.95 288.249C270.549 290.87 275.071 293.645 275.071 300.632C275.071 307.619 269.618 312.238 259.855 312.238C255.391 312.238 250.908 311.364 247.978 310.103H247.958Z" fill="#0F6E61"/>
<path d="M202.135 27.1714L186.454 0H134.673L202.135 116.817L269.579 0H217.817L202.135 27.1714Z" fill="#0F6E61"/>
<path d="M88.6367 101.039H80.1359C80.1359 93.7025 74.2165 89.3163 68.4717 89.3163C64.4736 89.3163 60.3785 90.4614 57.0209 97.6812L52.1106 89.1804C56.1087 83.5132 61.4653 80.7961 68.4523 80.7961C78.3698 80.7961 88.6173 88.3653 88.6173 101.019L88.6367 101.039ZM116.701 80.8155C106.22 80.8155 99.447 86.8514 95.3519 99.7967C91.6061 111.616 86.6765 112.606 82.3485 112.606C77.4576 112.606 70.5677 109.016 70.5677 101.019H62.067C62.067 104.707 63.1344 108.453 65.1141 111.694V111.733C68.4717 117.128 74.4105 121.126 82.3485 121.126C92.7124 121.126 99.4082 115.168 103.465 102.359C107.074 90.9077 111.965 89.3357 116.701 89.3357C122.426 89.3357 128.365 93.7219 128.365 101.058H136.866C136.866 88.4041 126.618 80.8349 116.701 80.8349V80.8155ZM150.063 183.174C153.673 171.723 158.564 170.151 163.3 170.151C165.668 170.151 168.074 170.908 170.093 172.325L174.362 164.93C171.044 162.795 167.143 161.65 163.3 161.65C152.839 161.65 146.046 167.686 141.951 180.612C138.224 192.451 133.295 193.441 128.947 193.441C124.057 193.441 117.167 189.85 117.167 181.854H108.666C108.666 184.882 109.384 187.91 110.723 190.704L112.121 193.13C115.517 198.235 121.301 201.961 128.947 201.961C139.311 201.961 146.007 196.003 150.044 183.193L150.063 183.174ZM92.0525 129.743C97.7779 129.743 103.717 134.11 103.717 141.446H112.218C112.218 128.792 101.97 121.223 92.0525 121.223C84.9686 121.223 79.5925 123.999 75.575 129.782L80.5047 138.322C83.8817 130.908 88.0156 129.724 92.0525 129.724V129.743ZM143.562 99.7967C139.835 111.616 134.886 112.606 130.558 112.606C125.667 112.606 118.778 109.016 118.778 101.019H110.277C110.277 110.898 117.865 121.107 130.558 121.107C140.922 121.107 147.618 115.148 151.674 102.339C155.284 90.8883 160.156 89.3163 164.911 89.3163C170.636 89.3163 176.575 93.7025 176.575 101.039H185.076C185.076 88.3847 174.828 80.8155 164.93 80.8155C154.45 80.8155 147.676 86.8514 143.581 99.7967H143.562ZM21.8922 8.50088C27.6176 8.50088 33.5565 12.8871 33.5565 20.2234H42.0572C42.0572 7.56929 31.8097 0.000121008 21.8922 0.000121008C14.8664 0.000121008 9.50979 2.73667 5.51172 8.42324L10.422 16.9434C13.7796 9.66536 17.8941 8.50088 21.8922 8.50088ZM126.774 142.766C130.384 131.315 135.274 129.743 140.01 129.743C145.735 129.743 151.655 134.11 151.655 141.446H160.156C160.156 128.792 149.908 121.223 139.991 121.223C129.51 121.223 122.737 127.259 118.642 140.185C114.896 152.005 109.966 153.014 105.638 153.014C100.747 153.014 93.8381 149.423 93.8381 141.427H85.3373C85.3373 144.862 86.2689 148.336 88.0156 151.422L88.5008 152.276C91.8584 157.613 97.7585 161.534 105.619 161.534C115.983 161.534 122.679 155.576 126.715 142.766H126.774ZM178.768 112.606C173.877 112.606 166.987 109.016 166.987 101.019H158.487C158.487 110.898 166.075 121.107 178.768 121.107C187.249 121.107 193.266 117.109 197.4 108.627L191.966 99.195C191.907 99.3891 191.83 99.5832 191.771 99.7772C188.045 111.597 183.115 112.587 178.787 112.587L178.768 112.606ZM181.31 141.446C181.31 144.261 181.951 147.114 183.135 149.734L187.929 141.446H181.31ZM153.635 161.534C163.998 161.534 170.694 155.576 174.731 142.766C178.341 131.315 183.212 129.743 187.967 129.743C189.967 129.743 191.985 130.287 193.77 131.296L198.021 123.921C194.935 122.174 191.422 121.243 187.967 121.243C177.487 121.243 170.714 127.279 166.638 140.204C162.912 152.024 157.963 153.033 153.635 153.033C148.744 153.033 141.854 149.443 141.854 141.446H133.353C133.353 151.325 140.942 161.534 153.635 161.534ZM115.09 170.151C120.815 170.151 126.754 174.518 126.754 181.874H135.255C135.255 169.22 125.008 161.65 115.09 161.65C108.103 161.65 102.766 164.348 98.7677 169.976L103.678 178.477C107.036 171.316 111.111 170.171 115.09 170.171V170.151ZM141.252 222.262H128.967L135.119 232.898L141.272 222.262H141.252ZM132.169 31.7906C127.278 31.7906 120.388 28.2001 120.388 20.204H111.888C111.888 30.0827 119.476 40.2914 132.169 40.2914C140.631 40.2914 146.648 36.3127 150.762 27.8896L145.328 18.4767C145.27 18.6513 145.211 18.8066 145.153 18.9813C141.427 30.8008 136.497 31.7906 132.15 31.7906H132.169ZM138.38 210.559C141.213 210.559 144.066 211.626 146.259 213.586L150.568 206.114C147.016 203.475 142.669 202.058 138.38 202.058C131.412 202.058 126.075 204.736 122.077 210.345L126.968 218.827C130.306 211.684 134.382 210.559 138.36 210.559H138.38ZM96.9628 18.9619C93.2364 30.7814 88.3068 31.7712 83.9593 31.7712C79.0685 31.7712 72.1786 28.1807 72.1786 20.1846H63.6779C63.6779 30.0633 71.2664 40.272 83.9593 40.272C94.3233 40.272 101.019 34.3137 105.075 21.5043C108.685 10.0535 113.576 8.48147 118.312 8.48147C124.037 8.48147 129.957 12.8677 129.957 20.204H138.457C138.457 7.54988 128.21 -0.0192871 118.292 -0.0192871C107.812 -0.0192871 101.038 5.99723 96.9434 18.9424L96.9628 18.9619ZM48.753 18.9619C45.0267 30.7814 40.097 31.7712 35.7496 31.7712C30.8587 31.7712 23.9688 28.1807 23.9688 20.1846H15.4681C15.4681 30.0633 23.0567 40.272 35.7496 40.272C46.1135 40.272 52.8093 34.3137 56.8462 21.5043C60.4755 10.0535 65.347 8.48147 70.0825 8.48147C75.8079 8.48147 81.7468 12.8677 81.7468 20.204H90.2476C90.2476 7.54988 80.0001 -0.0192871 70.0825 -0.0192871C59.6216 -0.0192871 52.8287 5.99723 48.7336 18.9424L48.753 18.9619ZM120.233 59.389C116.507 71.2085 111.577 72.2177 107.249 72.2177C102.358 72.2177 95.4684 68.6272 95.4684 60.6311H86.9676C86.9676 70.5098 94.5562 80.7185 107.268 80.7185C117.613 80.7185 124.328 74.7602 128.365 61.9508C131.975 50.5 136.866 48.928 141.601 48.928C147.327 48.928 153.266 53.2948 153.266 60.6505H161.767C161.767 47.9964 151.519 40.4466 141.601 40.4466C131.121 40.4466 124.348 46.4632 120.253 59.4084L120.233 59.389ZM155.459 72.1983C150.549 72.1983 143.678 68.6078 143.678 60.6117H135.177C135.177 70.4904 142.766 80.6991 155.459 80.6991C163.921 80.6991 169.957 76.701 174.091 68.2391L168.656 58.8067C168.598 59.0008 168.521 59.1755 168.462 59.3696C164.717 71.1891 159.806 72.1983 155.459 72.1983ZM45.1625 40.4078C38.1562 40.4078 32.7995 43.125 28.8015 48.7921L33.7117 57.2929C37.0693 50.0537 41.1644 48.9086 45.1625 48.9086C50.8879 48.9086 56.8074 53.2754 56.8074 60.6311H65.3081C65.3081 47.977 55.0607 40.4272 45.1625 40.4272V40.4078ZM156.876 181.854C156.876 185.057 157.691 188.278 159.185 191.189L164.581 181.854H156.876ZM93.3723 40.4078C82.8919 40.4078 76.1185 46.4243 72.0234 59.3696C68.297 71.1891 63.3673 72.1983 59.0199 72.1983C54.1291 72.1983 47.2392 68.6078 47.2392 60.6117H38.7384C38.7384 70.4904 46.327 80.6991 59.0199 80.6991C69.3838 80.6991 76.0796 74.7408 80.1359 61.9314C83.7459 50.4806 88.6367 48.9086 93.3723 48.9086C99.0977 48.9086 105.037 53.2754 105.037 60.6311H113.537C113.537 47.977 103.29 40.4272 93.3723 40.4272V40.4078Z" fill="#65B65A"/>
</g>
<defs>
<clipPath id="clip0_292_59">
<rect width="275.071" height="312.238" fill="white"/>
</clipPath>
</defs>
</svg>
