<svg width="144" height="164" viewBox="0 0 144 164" fill="none" xmlns="http://www.w3.org/2000/svg">
<g clip-path="url(#clip0_119_868)">
<path d="M10.6783 163.345H10.4548L0 142.496H5.74049L8.36181 148.176C9.21527 150.086 10.0789 151.945 10.5564 153.429C10.8714 152.748 12.1516 149.578 12.7815 148.176L15.413 142.496H21.123L10.6783 163.335V163.345ZM23.8053 163.06V142.506H37.2776V146.906H29.0276V150.563H36.0787V154.729H29.0276V158.671H37.7044V163.071H23.8053V163.06ZM49.165 142.496C54.0724 142.496 57.476 144.864 57.476 149.486C57.476 152.453 55.9622 154.424 53.7066 155.42L57.852 163.04H52.396L49.0838 156.273H46.7977V163.04H41.6871V142.486H49.165V142.496ZM46.7876 146.896V152.118H49.419C50.9939 152.118 52.1928 151.376 52.1928 149.486C52.1928 147.597 50.9634 146.885 49.3987 146.885H46.7977L46.7876 146.896ZM69.1704 163.345H68.9469L58.5022 142.506H64.2427L66.864 148.186C67.7175 150.096 68.5811 151.955 69.0586 153.439C69.3736 152.758 70.6538 149.588 71.2837 148.186L73.9152 142.506H79.6252L69.1805 163.345H69.1704ZM82.3075 163.06V142.506H87.5298V163.06H82.3075ZM92.6404 163.06V142.506H106.113V146.906H97.8627V150.563H104.914V154.729H97.8627V158.671H106.539V163.071H92.6404V163.06ZM117.99 142.496C122.897 142.496 126.301 144.864 126.301 149.486C126.301 152.453 124.787 154.424 122.532 155.42L126.667 163.04H121.211L117.899 156.273H115.613V163.04H110.502V142.486H117.98L117.99 142.496ZM115.623 146.896V152.118H118.244C119.819 152.118 121.018 151.376 121.018 149.486C121.018 147.597 119.788 146.885 118.224 146.885H115.623V146.896ZM129.806 162.339V157.31C131.259 158.082 133.007 158.651 134.663 158.793C135.232 158.854 135.78 158.854 136.288 158.824C137.975 158.712 138.92 158.255 138.92 157.391C138.92 156.304 137.63 155.765 135.12 154.821C131.666 153.51 129.44 152.077 129.44 148.308C129.44 144.538 132.549 142.09 137.233 142.09C139.286 142.09 141.338 142.486 142.71 143.065V147.891C141.48 147.119 139.54 146.611 137.66 146.611C135.78 146.611 134.582 147.272 134.582 148.298C134.582 149.273 135.78 149.923 138.178 150.899C141.633 152.27 144 153.723 144 157.381C144 161.039 141.145 163.457 136.034 163.457C133.698 163.457 131.351 162.999 129.816 162.339H129.806Z" fill="white"/>
<path d="M105.818 14.2242L97.6083 0H70.501L105.818 61.154L141.124 0H114.027L105.818 14.2242Z" fill="white"/>
<path d="M46.4017 52.8937H41.9516C41.9516 49.0532 38.8527 46.757 35.8453 46.757C33.7523 46.757 31.6085 47.3564 29.8508 51.136L27.2803 46.6859C29.3733 43.7191 32.1775 42.2967 35.8352 42.2967C41.027 42.2967 46.3916 46.2591 46.3916 52.8835L46.4017 52.8937ZM61.0933 42.3068C55.6068 42.3068 52.0609 45.4666 49.9171 52.2435C47.9562 58.431 45.3755 58.9492 43.1098 58.9492C40.5495 58.9492 36.9426 57.0695 36.9426 52.8835H32.4925C32.4925 54.814 33.0513 56.7749 34.0876 58.4716V58.492C35.8453 61.3165 38.9543 63.4095 43.1098 63.4095C48.5354 63.4095 52.0406 60.2903 54.1641 53.5846C56.0539 47.5901 58.6142 46.7671 61.0933 46.7671C64.0906 46.7671 67.1996 49.0633 67.1996 52.9039H71.6497C71.6497 46.2794 66.2852 42.317 61.0933 42.317V42.3068ZM78.5586 95.8915C80.4484 89.897 83.0088 89.0741 85.4879 89.0741C86.7274 89.0741 87.9873 89.4703 89.0439 90.212L91.2792 86.341C89.5418 85.2234 87.4996 84.6239 85.4879 84.6239C80.0116 84.6239 76.4555 87.7837 74.3117 94.5504C72.3609 100.748 69.7803 101.266 67.5044 101.266C64.944 101.266 61.3372 99.3866 61.3372 95.2006H56.887C56.887 96.7856 57.2629 98.3706 57.964 99.8337L58.6955 101.104C60.4735 103.776 63.5013 105.727 67.5044 105.727C72.9299 105.727 76.4352 102.607 78.5485 95.9017L78.5586 95.8915ZM48.1899 67.9206C51.1872 67.9206 54.2962 70.2066 54.2962 74.0472H58.7463C58.7463 67.4227 53.3818 63.4603 48.1899 63.4603C44.4815 63.4603 41.6671 64.9132 39.5639 67.9409L42.1446 72.4114C43.9125 68.5302 46.0766 67.9104 48.1899 67.9104V67.9206ZM75.155 52.2435C73.2042 58.431 70.6134 58.9492 68.3477 58.9492C65.7873 58.9492 62.1805 57.0695 62.1805 52.8835H57.7303C57.7303 58.0551 61.7029 63.3993 68.3477 63.3993C73.7732 63.3993 77.2785 60.2801 79.4019 53.5744C81.2917 47.5799 83.8419 46.757 86.3312 46.757C89.3284 46.757 92.4374 49.0532 92.4374 52.8937H96.8876C96.8876 46.2693 91.523 42.3068 86.3413 42.3068C80.8548 42.3068 77.3089 45.4666 75.1652 52.2435H75.155ZM11.4609 4.45006C14.4582 4.45006 17.5672 6.74625 17.5672 10.5868H22.0173C22.0173 3.96237 16.6528 -9.37441e-05 11.4609 -9.37441e-05C7.78294 -9.37441e-05 4.97874 1.43249 2.88574 4.40942L5.45626 8.86973C7.21397 5.05967 9.36793 4.45006 11.4609 4.45006ZM66.3664 74.7381C68.2562 68.7436 70.8166 67.9206 73.2957 67.9206C76.2929 67.9206 79.3918 70.2066 79.3918 74.0472H83.8419C83.8419 67.4227 78.4774 63.4603 73.2855 63.4603C67.799 63.4603 64.2531 66.6201 62.1093 73.3868C60.1484 79.5743 57.5677 80.1026 55.302 80.1026C52.7417 80.1026 49.1246 78.223 49.1246 74.037H44.6745C44.6745 75.8354 45.1622 77.654 46.0766 79.2695L46.3306 79.7165C48.0883 82.5106 51.177 84.5629 55.2919 84.5629C60.7174 84.5629 64.2227 81.4438 66.336 74.7381H66.3664ZM93.5855 58.9492C91.0252 58.9492 87.4183 57.0695 87.4183 52.8835H82.9682C82.9682 58.0551 86.9408 63.3993 93.5855 63.3993C98.0255 63.3993 101.175 61.3063 103.339 56.8663L100.494 51.9285C100.464 52.0301 100.423 52.1317 100.393 52.2333C98.4421 58.4208 95.8614 58.939 93.5957 58.939L93.5855 58.9492ZM94.9165 74.0472C94.9165 75.5204 95.2518 77.0139 95.8716 78.3856L98.3811 74.0472H94.9165ZM80.4281 84.5629C85.8536 84.5629 89.3589 81.4438 91.4722 74.7381C93.362 68.7436 95.9122 67.9206 98.4014 67.9206C99.4479 67.9206 100.505 68.2051 101.439 68.7334L103.664 64.8725C102.049 63.9581 100.21 63.4704 98.4014 63.4704C92.915 63.4704 89.3691 66.6302 87.2354 73.3969C85.2847 79.5845 82.6938 80.1128 80.4281 80.1128C77.8678 80.1128 74.2609 78.2332 74.2609 74.0472H69.8107C69.8107 79.2187 73.7834 84.5629 80.4281 84.5629ZM60.25 89.0741C63.2473 89.0741 66.3563 91.3601 66.3563 95.2108H70.8064C70.8064 88.5864 65.4419 84.6239 60.25 84.6239C56.5924 84.6239 53.7983 86.0362 51.7053 88.9826L54.2758 93.4328C56.0336 89.6837 58.1672 89.0842 60.25 89.0842V89.0741ZM73.9459 116.354H67.5145L70.7353 121.922L73.9561 116.354H73.9459ZM69.191 16.6423C66.6306 16.6423 63.0238 14.7626 63.0238 10.5766H58.5736C58.5736 15.7482 62.5462 21.0924 69.191 21.0924C73.6208 21.0924 76.7705 19.0096 78.9244 14.6001L76.0796 9.67238C76.0491 9.76382 76.0186 9.8451 75.9881 9.93655C74.0374 16.1241 71.4567 16.6423 69.1808 16.6423H69.191ZM72.4422 110.228C73.9256 110.228 75.4192 110.786 76.5673 111.812L78.8228 107.901C76.9635 106.519 74.6876 105.777 72.4422 105.777C68.7947 105.777 66.0007 107.179 63.9077 110.116L66.468 114.556C68.2156 110.817 70.3492 110.228 72.4321 110.228H72.4422ZM50.7604 9.92639C48.8097 16.1139 46.229 16.6321 43.9531 16.6321C41.3928 16.6321 37.7859 14.7525 37.7859 10.5665H33.3358C33.3358 15.738 37.3084 21.0822 43.9531 21.0822C49.3787 21.0822 52.8839 17.9631 55.0074 11.2574C56.8972 5.26287 59.4575 4.4399 61.9366 4.4399C64.9339 4.4399 68.0327 6.73609 68.0327 10.5766H72.4829C72.4829 3.95221 67.1183 -0.0102539 61.9265 -0.0102539C56.44 -0.0102539 52.8941 3.1394 50.7503 9.91623L50.7604 9.92639ZM25.5226 9.92639C23.5718 16.1139 20.9912 16.6321 18.7153 16.6321C16.1549 16.6321 12.5481 14.7525 12.5481 10.5665H8.09791C8.09791 15.738 12.0705 21.0822 18.7153 21.0822C24.1408 21.0822 27.6461 17.9631 29.7594 11.2574C31.6593 5.26287 34.2095 4.4399 36.6886 4.4399C39.6859 4.4399 42.7949 6.73609 42.7949 10.5766H47.245C47.245 3.95221 41.8805 -0.0102539 36.6886 -0.0102539C31.2123 -0.0102539 27.6562 3.1394 25.5124 9.91623L25.5226 9.92639ZM62.9425 31.09C60.9917 37.2775 58.411 37.8059 56.1453 37.8059C53.585 37.8059 49.9781 35.9262 49.9781 31.7403H45.528C45.528 36.9118 49.5006 42.256 56.1555 42.256C61.5708 42.256 65.0863 39.1369 67.1996 32.4311C69.0894 26.4366 71.6497 25.6137 74.1288 25.6137C77.1261 25.6137 80.2351 27.8997 80.2351 31.7504H84.6852C84.6852 25.126 79.3207 21.1737 74.1288 21.1737C68.6423 21.1737 65.0964 24.3233 62.9526 31.1002L62.9425 31.09ZM81.3832 37.7957C78.8126 37.7957 75.216 35.9161 75.216 31.7301H70.7658C70.7658 36.9016 74.7384 42.2459 81.3832 42.2459C85.813 42.2459 88.9728 40.1529 91.1369 35.723L88.2921 30.7852C88.2616 30.8868 88.221 30.9782 88.1905 31.0798C86.2296 37.2674 83.659 37.7957 81.3832 37.7957ZM23.643 21.1534C19.9751 21.1534 17.1709 22.5758 15.0779 25.5426L17.6485 29.9927C19.4062 26.203 21.55 25.6035 23.643 25.6035C26.6402 25.6035 29.7391 27.8896 29.7391 31.7403H34.1892C34.1892 25.1158 28.8246 21.1635 23.643 21.1635V21.1534ZM82.1249 95.2006C82.1249 96.8771 82.5516 98.5636 83.3339 100.088L86.1584 95.2006H82.1249ZM48.8808 21.1534C43.3943 21.1534 39.8484 24.303 37.7046 31.0798C35.7539 37.2674 33.1732 37.7957 30.8973 37.7957C28.337 37.7957 24.7301 35.9161 24.7301 31.7301H20.2799C20.2799 36.9016 24.2526 42.2459 30.8973 42.2459C36.3228 42.2459 39.8281 39.1267 41.9516 32.421C43.8414 26.4265 46.4017 25.6035 48.8808 25.6035C51.8781 25.6035 54.9871 27.8896 54.9871 31.7403H59.4372C59.4372 25.1158 54.0726 21.1635 48.8808 21.1635V21.1534Z" fill="white"/>
</g>
<defs>
<clipPath id="clip0_119_868">
<rect width="144" height="163.457" fill="white"/>
</clipPath>
</defs>
</svg>
