<svg id="play-button_2_" data-name="play-button (2)" xmlns="http://www.w3.org/2000/svg" width="78.703" height="78.703" viewBox="0 0 78.703 78.703">
  <g id="Groupe_34" data-name="Groupe 34">
    <g id="Groupe_33" data-name="Groupe 33">
      <path id="Tracé_58" data-name="Tracé 58" d="M39.352,0A39.352,39.352,0,1,0,78.7,39.352,39.4,39.4,0,0,0,39.352,0Zm0,75.424A36.072,36.072,0,1,1,75.424,39.352,36.113,36.113,0,0,1,39.352,75.424Z" fill="#fff"/>
      <path id="Tracé_59" data-name="Tracé 59" d="M217.482,164.349l-22.955-14.757A1.64,1.64,0,0,0,192,150.971v29.514a1.639,1.639,0,0,0,2.527,1.379l22.955-14.757a1.639,1.639,0,0,0,0-2.757Zm-22.2,13.132V153.975l18.283,11.753Z" transform="translate(-162.486 -126.376)" fill="#fff"/>
    </g>
  </g>
</svg>
