<svg width="167" height="75" viewBox="0 0 167 75" fill="none" xmlns="http://www.w3.org/2000/svg">
<path d="M110.12 0H0V27.8388H110.12V0Z" fill="#3FA535"/>
<path d="M166.98 28.1499H0V55.9987H166.98V28.1499Z" fill="#FF98C2"/>
<path d="M103.19 68.1408H98.75V65.4593H103.94V63.5813H96.43V74.8494H103.95V72.9814H98.74V69.9585H103.18V68.1408H103.19ZM88.12 65.4593H89.98C90.6 65.4593 91.06 65.61 91.36 65.9112C91.66 66.2125 91.81 66.6343 91.81 67.1666C91.81 67.6989 91.65 68.1006 91.33 68.3918C91.01 68.6931 90.56 68.8337 89.98 68.8337H88.11V65.4493L88.12 65.4593ZM92.07 74.8494H94.55V74.7389L92.12 70.1292C92.79 69.828 93.3 69.4162 93.63 68.904C93.96 68.3918 94.13 67.7491 94.13 66.9758C94.13 65.8912 93.77 65.0576 93.05 64.455C92.33 63.8625 91.31 63.5612 89.98 63.5612H85.81V74.8293H88.12V70.7017H89.96L92.06 74.8293L92.07 74.8494ZM79.85 60.5383H77.42L79.55 62.9386H81.38L79.85 60.5383ZM83.13 68.1508H78.69V65.4694H83.89V63.5913H76.38V74.8594H83.9V72.9915H78.69V69.9686H83.13V68.1508ZM73.68 63.5813H71.37V74.8494H73.68V63.5813ZM61.96 63.5813H59.39L63.28 74.8494H65.69L69.6 63.5813H67.03L64.49 72.0575L61.96 63.5813ZM55.57 63.5813V71.0833C55.55 72.4592 54.89 73.1421 53.59 73.1421C52.97 73.1421 52.48 72.9714 52.13 72.6299C51.78 72.2884 51.6 71.7562 51.6 71.013V63.5713H49.29V71.0833C49.31 72.2985 49.7 73.2626 50.47 73.9556C51.24 74.6485 52.28 75 53.59 75C54.9 75 55.97 74.6385 56.74 73.9254C57.51 73.2124 57.89 72.2282 57.89 71.003V63.5813H55.57ZM44.82 69.5066C44.82 70.6816 44.6 71.5654 44.19 72.178C43.77 72.7906 43.18 73.0919 42.4 73.0919C41.62 73.0919 41 72.7705 40.58 72.1378C40.16 71.5051 39.95 70.6113 39.95 69.4564V68.904C39.95 67.729 40.17 66.8452 40.59 66.2427C41.01 65.6401 41.61 65.3288 42.39 65.3288C43.17 65.3288 43.77 65.6401 44.19 66.2527C44.61 66.8653 44.82 67.7692 44.82 68.9442V69.4965V69.5066ZM47.16 68.9643C47.16 67.8596 46.96 66.8854 46.56 66.0418C46.16 65.1982 45.6 64.5555 44.87 64.0935C44.14 63.6416 43.31 63.4206 42.38 63.4206C41.45 63.4206 40.61 63.6516 39.89 64.0935C39.16 64.5454 38.6 65.1982 38.2 66.0418C37.8 66.8854 37.6 67.8596 37.6 68.9743V69.5267C37.6 70.6113 37.81 71.5654 38.21 72.3989C38.61 73.2325 39.18 73.8752 39.9 74.3271C40.63 74.7791 41.46 75 42.39 75C43.32 75 44.16 74.7691 44.89 74.3171C45.62 73.8652 46.18 73.2224 46.57 72.3788C46.96 71.5453 47.16 70.5711 47.16 69.4564V68.9542V68.9643ZM31.65 63.5813H29.34V74.8494H36.56V72.9814H31.65V63.5813ZM18.53 66.4335L19.94 70.6515H17.13L18.53 66.4335ZM21.34 74.8594H23.8L19.6 63.5913H17.46L13.28 74.8594H15.74L16.51 72.5395H20.56L21.34 74.8594ZM7.28998 63.5913H4.97998V74.8594H12.2V72.9915H7.28998V63.5913Z" fill="white"/>
<path d="M158.89 41.6478H152.18V37.5905H160.04V34.7484H148.69V51.7911H160.07V48.969H152.19V44.3995H158.9V41.6478H158.89ZM136.1 37.5905H138.91C139.85 37.5905 140.55 37.8215 141 38.2834C141.46 38.7454 141.68 39.3781 141.68 40.1815C141.68 40.985 141.44 41.5875 140.96 42.0395C140.48 42.4914 139.8 42.7123 138.92 42.7123H136.1V37.6005V37.5905ZM142.07 51.7911H145.82V51.6304L142.15 44.6606C143.17 44.1987 143.93 43.576 144.43 42.8027C144.93 42.0294 145.18 41.0553 145.18 39.8903C145.18 38.2533 144.64 36.9779 143.55 36.0841C142.46 35.1902 140.92 34.7383 138.91 34.7383H132.6V51.781H136.1V45.5444H138.89L142.07 51.781V51.7911ZM120.03 37.5905H122.48C123.44 37.5905 124.15 37.7612 124.6 38.1027C125.05 38.4441 125.27 38.9965 125.27 39.7698C125.27 41.1557 124.39 41.8587 122.62 41.8888H120.03V37.5905ZM123.24 44.3694C124.85 44.3895 125.65 45.1829 125.65 46.7495C125.65 47.4425 125.42 47.9848 124.96 48.3865C124.5 48.7782 123.85 48.9791 123.03 48.9791H120.03V44.3794H123.24V44.3694ZM123.14 51.7911C125.07 51.771 126.55 51.3492 127.59 50.5056C128.63 49.662 129.15 48.4267 129.15 46.7797C129.15 45.8156 128.9 45.0021 128.4 44.3393C127.9 43.6764 127.21 43.2346 126.34 43.0136C127.1 42.7123 127.7 42.2504 128.12 41.6177C128.55 40.985 128.76 40.2418 128.76 39.4082C128.76 37.8817 128.23 36.7168 127.16 35.9234C126.09 35.13 124.53 34.7383 122.47 34.7383H116.52V51.781H123.12L123.14 51.7911ZM112.46 34.7484H108.96V51.7911H112.46V34.7484ZM98.4701 34.7484H94.9701V51.7911H105.89V48.969H98.4601V34.7484H98.4701ZM81.6101 48.7481C81.1401 49.0895 80.4901 49.2603 79.6601 49.2603C77.4201 49.2603 76.3001 48.3162 76.3001 46.4382H72.7901C72.7901 47.5429 73.0701 48.507 73.6401 49.3406C74.2001 50.1742 75.0201 50.837 76.0901 51.309C77.1601 51.791 78.3501 52.0321 79.6601 52.0321C81.5401 52.0321 83.0401 51.6103 84.1501 50.7767C85.2601 49.9331 85.8201 48.7782 85.8201 47.3019C85.8201 45.9763 85.3701 44.8715 84.4601 43.9777C83.5501 43.0839 82.1001 42.3407 80.1101 41.7382C79.0301 41.4068 78.2101 41.0553 77.6601 40.6837C77.1001 40.3121 76.8301 39.8501 76.8301 39.2877C76.8301 38.6952 77.0701 38.2131 77.5401 37.8516C78.0101 37.49 78.6801 37.3093 79.5301 37.3093C80.3801 37.3093 81.1001 37.5302 81.5901 37.9621C82.0801 38.3939 82.3201 39.0065 82.3201 39.7798H85.8201C85.8201 38.7554 85.5601 37.8416 85.0301 37.0381C84.5001 36.2347 83.7701 35.612 82.8201 35.1702C81.8701 34.7283 80.7901 34.5073 79.5801 34.5073C78.3701 34.5073 77.2901 34.7082 76.3201 35.1199C75.3501 35.5217 74.6101 36.0941 74.0901 36.8071C73.5701 37.5302 73.3101 38.3537 73.3101 39.2676C73.3101 41.0352 74.2701 42.4512 76.2001 43.4957C76.9101 43.8773 77.8701 44.269 79.0801 44.6606C80.2901 45.0523 81.1301 45.4339 81.6001 45.7854C82.0701 46.1369 82.3001 46.6491 82.3001 47.3119C82.3001 47.9246 82.0701 48.3966 81.6001 48.738M60.7601 37.5905H63.9701C64.8301 37.6005 65.5101 37.8717 66.0001 38.3839C66.4901 38.896 66.7401 39.579 66.7401 40.4125C66.7401 41.2461 66.5001 41.8486 66.0101 42.2905C65.5201 42.7324 64.8201 42.9433 63.8901 42.9433H60.7701V37.5905H60.7601ZM63.8301 45.7854C65.8401 45.7854 67.4201 45.3034 68.5601 44.3393C69.7001 43.3752 70.2701 42.0595 70.2701 40.3924C70.2701 39.2877 70.0101 38.3136 69.4901 37.4499C68.9701 36.5862 68.2301 35.9234 67.2601 35.4514C66.2901 34.9793 65.1701 34.7484 63.9001 34.7484H57.2801V51.7911H60.7801V45.7854H63.8501H63.8301ZM35.5101 34.7484V51.7911H39.0101V47.1312L38.6601 39.0969L43.2301 51.7911H45.6301L50.2101 39.0869L49.8601 47.1312V51.7911H53.3701V34.7484H48.7801L44.4401 47.1111L40.0801 34.7484H35.5101ZM31.4501 41.6578H24.7401V37.6005H32.6001V34.7584H21.2501V51.8011H32.6301V48.9791H24.7501V44.4096H31.4601V41.6578H31.4501ZM18.4101 34.7484H4.58008V37.5905H9.71008V51.7911H13.2101V37.5905H18.4101V34.7484Z" fill="white"/>
<path d="M97.33 5.9656H93.83V23.0083H104.75V20.1863H97.32V5.9656H97.33ZM89.75 5.9656H86.25V23.0083H89.75V5.9656ZM81.97 12.8751H75.25V8.80773H83.11V5.9656H71.76V23.0083H83.14V20.1863H75.26V15.6168H81.98V12.865L81.97 12.8751ZM64.54 5.9656V17.314C64.51 19.3929 63.51 20.4273 61.54 20.4273C60.6 20.4273 59.86 20.1662 59.33 19.664C58.8 19.1519 58.5299 18.3384 58.5299 17.2236V5.97564H55.0299V17.3341C55.0499 19.1719 55.65 20.6281 56.81 21.6726C57.98 22.7271 59.5499 23.2493 61.5299 23.2493C63.5099 23.2493 65.13 22.707 66.29 21.6224C67.45 20.5378 68.0299 19.0615 68.0299 17.1935V5.9656H64.5199H64.54ZM48.57 17.3341C48.49 18.3685 48.19 19.1418 47.65 19.6339C47.12 20.126 46.3099 20.3771 45.2299 20.3771C44.0299 20.3771 43.1599 19.9553 42.5999 19.1016C42.0399 18.248 41.77 16.9023 41.77 15.0644V13.7789C41.79 12.0114 42.08 10.7159 42.66 9.87226C43.24 9.03871 44.1099 8.61691 45.2799 8.61691C46.3499 8.61691 47.15 8.86799 47.68 9.36009C48.2 9.85218 48.5099 10.6556 48.5999 11.7503H52.0999C51.9099 9.84213 51.22 8.36584 50.02 7.31134C48.82 6.25684 47.25 5.73462 45.29 5.73462C43.87 5.73462 42.63 6.06603 41.57 6.7389C40.5 7.40173 39.6799 8.36584 39.0999 9.61116C38.5199 10.8565 38.24 12.3026 38.24 13.9396V14.9841C38.24 17.555 38.86 19.5736 40.11 21.0399C41.36 22.5162 43.07 23.2493 45.25 23.2493C47.24 23.2493 48.84 22.7271 50.06 21.6726C51.28 20.6181 51.95 19.1719 52.08 17.3441H48.58L48.57 17.3341ZM32.11 17.3341C32.03 18.3685 31.7299 19.1418 31.1899 19.6339C30.6599 20.126 29.85 20.3771 28.77 20.3771C27.57 20.3771 26.6999 19.9553 26.1399 19.1016C25.5799 18.248 25.31 16.9023 25.31 15.0644V13.7789C25.33 12.0114 25.62 10.7159 26.2 9.87226C26.78 9.03871 27.65 8.61691 28.82 8.61691C29.89 8.61691 30.69 8.86799 31.22 9.36009C31.74 9.85218 32.05 10.6556 32.13 11.7503H35.63C35.44 9.84213 34.7499 8.36584 33.5499 7.31134C32.3499 6.25684 30.78 5.73462 28.82 5.73462C27.41 5.73462 26.16 6.06603 25.1 6.7389C24.03 7.40173 23.21 8.36584 22.63 9.61116C22.06 10.8565 21.77 12.3026 21.77 13.9396V14.9841C21.77 17.555 22.3899 19.5736 23.6399 21.0399C24.8899 22.5162 26.6 23.2493 28.78 23.2493C30.77 23.2493 32.37 22.7271 33.59 21.6726C34.81 20.6181 35.48 19.1719 35.61 17.3441H32.11V17.3341ZM12.13 10.274L14.26 16.6512H10.02L12.13 10.274ZM16.39 23.0083H20.11L13.76 5.9656H10.52L4.19995 23.0083H7.91995L9.08995 19.4933H15.22L16.4 23.0083H16.39Z" fill="white"/>
</svg>
