<svg width="357" height="278" viewBox="0 0 357 278" fill="none" xmlns="http://www.w3.org/2000/svg">
<path d="M65.8545 89.7847L79.2012 132.694H52.5802L65.8442 89.7847H65.8545ZM93.5817 178.836H125.641L79.8835 55.1187H51.8255L6.40967 178.836H38.3031L45.4469 155.729H86.3553L93.5817 178.836Z" fill="#0085A4"/>
<path d="M135.679 0L130.5 22.4358L166.042 30.6375L143.371 128.748L172.462 135.452L195.124 37.3414L231.339 45.6981L236.518 23.2622L135.679 0Z" fill="#3FA535"/>
<path d="M245.905 97.1394L216.7 103.337L242.452 224.348L322.47 207.356L317.694 184.92L266.871 195.715L245.905 97.1394Z" fill="#FF98C2"/>
<mask id="mask0_678_84" style="mask-type:luminance" maskUnits="userSpaceOnUse" x="0" y="0" width="357" height="278">
<path d="M357 0H0V278H357V0Z" fill="white"/>
</mask>
<g mask="url(#mask0_678_84)">
<path d="M141.22 166.678C144.549 171.946 146.948 177.958 153.13 179.817C155.394 180.499 157.772 180.251 160.108 180.251C166.342 180.251 171.191 180.509 176.701 177.204C182.459 173.743 195.227 166.327 188.321 158.838C183.193 153.27 173.806 157.164 169.175 161.875C166.373 164.715 165.515 168.506 164.595 172.328C163.933 175.086 163.778 178.588 164.13 181.418C164.368 183.309 164.936 186.872 166.001 188.484C166.642 189.465 167.862 189.754 168.679 190.581C169.557 191.479 169.723 192.223 170.912 192.946C173.351 194.423 177.053 195.477 179.803 196.179C186.698 197.956 193.552 196.634 199.642 193.235C205.028 190.229 211.107 185.178 211.251 178.526C211.282 176.997 211.572 175.376 210.683 174.105C209.38 172.225 206.165 171.44 204.097 171.719C197.129 172.638 191.867 178.288 187.081 182.73C183.772 185.798 179.751 191.221 179.637 195.828C179.544 199.258 180.309 200.611 182.201 203.41C183.855 205.848 184 207.273 186.378 208.73C188.104 209.783 188.735 210.982 190.782 211.674C192.105 212.118 193.904 212.252 195.3 212.531C197.75 213.037 200.065 212.986 202.557 212.986" stroke="#FFED00" stroke-width="4.3" stroke-linecap="round"/>
<path d="M297.162 176.977C297.162 169.612 294.681 161.627 300.584 156.617C303.375 154.252 305.67 152.392 309.154 154.055C313.403 156.09 315.812 160.749 318.169 164.364C320.857 168.496 322.573 171.709 323.276 176.698C321.571 172.576 321.343 163.837 323.824 159.747C325.458 157.061 326.44 153.549 329.541 152.403C332.198 151.421 335.858 152.568 337.802 155.13C342.537 161.369 343.178 170.324 346.176 177.421C347.106 179.631 347.272 181.563 347.602 183.929C348.026 186.914 349.856 188.773 350.724 191.407C351.552 193.907 351.738 196.386 352.896 198.886C353.536 200.26 354.477 201.551 354.767 203.028" stroke="#FFED00" stroke-width="4.3" stroke-linecap="round"/>
<path d="M137.571 55.1187C134.273 65.5515 131.585 76.3253 127.553 86.4586C126.416 89.3096 124.597 93.1522 124.958 96.3027" stroke="#FFED00" stroke-width="4.3" stroke-linecap="round"/>
<path d="M121.598 53.4453C119.603 60.614 117.856 67.6691 114.951 74.497C113.648 77.5752 112.956 80.3022 112.325 83.5767C111.787 86.3657 109.327 89.258 109.823 92.1089" stroke="#FFED00" stroke-width="4.3" stroke-linecap="round"/>
<path d="M21.7206 80.3332C16.7479 76.2943 6.50272 70.4891 4.21797 63.341C3.55632 61.2751 2.77061 58.8476 2.34675 56.823C1.67476 53.5176 3.89748 47.9913 7.6606 47.5161C11.0929 47.0926 14.9284 50.7699 17.4923 52.5569C20.6144 54.7261 23.6849 57.6081 26.4659 60.2008C24.8738 60.3144 22.5683 59.0439 21.4725 57.8767C20.8212 57.1846 21.121 56.4202 20.6144 55.7281C19.7977 54.5919 18.4434 53.9618 17.699 52.6189C14.5459 46.9273 14.1944 40.9568 16.293 34.945C17.2752 32.1147 17.0994 30.4929 20.2629 29.2947C22.465 28.4684 25.1322 28.8609 27.3963 30.0591C29.495 31.1747 32.6171 34.0463 34.3539 35.73C34.7881 36.4325 35.119 37.1865 35.3464 37.9922C35.8426 38.3538 36.3906 38.5294 37.0005 38.5294C37.7966 39.4177 38.2618 40.6263 39.0475 41.5972C34.7054 38.9425 33.4752 32.7138 33.4752 28.0655C33.4752 24.6051 33.0513 21.3099 34.5297 18.1284C36.0184 14.9159 38.3445 11.0114 41.2082 8.84215C52.4665 0.309913 63.4871 21.6405 62.9185 30.7512" stroke="#FFED00" stroke-width="4.3" stroke-linecap="round"/>
<path d="M255.116 38.3125C252.749 46.7931 251.157 54.0135 245.254 60.1182C242.163 63.3204 239.009 66.2747 235.877 69.4459C234.212 71.1296 232.465 71.6461 230.47 72.7617C228.754 73.7223 227.379 75.2614 225.683 76.1911C223.337 77.4719 220.566 77.6682 219.119 80.1576C220.711 80.6948 221.3 79.8581 222.479 79.6721C224.133 79.4139 225.797 79.5688 227.472 79.3003C232.486 78.4946 236.745 78.7941 241.821 80.075C244.788 80.829 246.794 82.3165 249.441 83.711C252.521 85.3328 253.969 87.5536 256.667 89.6092C259.19 91.5305 260.286 93.018 262.064 95.652C263.046 97.1085 263.397 98.7612 264.255 100.156C264.007 99.9904 263.759 99.8148 263.511 99.6495" stroke="#FFED00" stroke-width="4.3" stroke-linecap="round"/>
</g>
</svg>
