<svg width="257" height="630" viewBox="0 0 257 630" fill="none" xmlns="http://www.w3.org/2000/svg">
<path fill-rule="evenodd" clip-rule="evenodd" d="M0.0203857 629.141L0.0203856 630C48.7574 603.49 89.5689 564.446 118.225 516.874C147.467 468.329 162.948 412.736 163.008 356.056L163.008 183.276C163.016 143.518 173.575 104.475 193.607 70.1391C209.636 42.6643 231.269 18.9916 257 0.608349L255.682 0.608349C230.234 18.9456 208.819 42.4581 192.9 69.7045C172.765 104.164 162.145 143.359 162.127 183.276L162.127 356.056C162.253 396.855 154.293 437.275 138.706 474.976C123.12 512.678 100.217 546.913 71.3225 575.701C50.2277 596.84 26.2144 614.835 0.0203857 629.141ZM190.836 0.608343L192.168 0.608343C179.103 14.5859 167.518 29.9838 157.651 46.5716C133.053 87.927 120.046 135.15 119.999 183.276L119.999 356.056C120.083 391.304 113.177 426.219 99.6807 458.778C86.1844 491.337 66.3661 520.893 41.3735 545.735C28.7346 558.399 14.8794 569.756 0.02039 579.648L0.0203901 578.578C33.1525 556.476 61.0238 527.189 81.4928 492.776C106.094 451.417 119.092 404.186 119.118 356.056L119.118 183.276C119.021 147.999 125.924 113.055 139.428 80.468C151.656 50.9578 169.077 23.9133 190.836 0.608343ZM135.065 0.608338L136.01 0.608338C121.646 20.3148 109.633 41.7018 100.258 64.3404C84.6453 102.042 76.659 142.466 76.7608 183.276L76.7608 356.056C76.7304 395.932 66.1206 435.084 46.0154 469.513C33.7339 490.545 18.178 509.354 0.0203947 525.276L0.0203948 524.097C17.8956 508.334 33.2213 489.755 45.3461 469.002C65.3694 434.73 75.9455 395.755 75.9948 356.056L75.9948 183.276C75.8902 142.366 83.8957 101.841 99.5479 64.0469C108.876 41.5244 120.808 20.238 135.065 0.608338Z" fill="#24847C"/>
</svg>
