<svg width="258" height="214" viewBox="0 0 258 214" fill="none" xmlns="http://www.w3.org/2000/svg">
<g clip-path="url(#clip0_495_835)">
<path fill-rule="evenodd" clip-rule="evenodd" d="M70.4694 169.754C66.5025 169.653 58.6951 171.65 56.6485 173.471C55.7136 174.709 56.0673 178.249 56.1179 180.373C58.9478 184.216 60.868 199.083 60.8933 205.909C59.2762 206.718 58.7456 207.881 57.1791 208.564V208.033C56.5979 207.275 56.32 205.404 56.1179 204.316H55.5873V204.847C54.7029 207.502 53.8186 210.157 52.9342 212.837C49.978 214.126 48.083 214.101 44.4446 213.899C44.0403 212.711 43.8634 211.446 43.914 210.182C44.8488 208.943 44.9499 205.758 44.9752 203.811C44.1161 203.255 44.1161 202.193 43.3834 201.687C41.1851 200.119 40.7303 201.333 40.7303 197.439C40.1239 196.377 40.7051 196.049 41.261 194.785C39.2396 194.203 39.1385 193.647 39.1385 191.068C40.4271 190.663 40.0481 190.866 40.7303 190.006C38.6079 189.551 38.2289 189.349 38.0773 186.82C38.6585 186.34 39.1891 185.809 39.6691 185.227C37.9763 184.444 37.6983 184.469 37.5467 182.042C38.0521 181.46 37.7489 181.966 38.0773 180.98C39.4165 180.98 40.0734 180.98 40.7303 180.449C38.7343 179.817 38.5827 178.805 38.6079 176.201C39.8207 175.594 40.3766 173.85 40.7303 172.484H40.1997C39.1638 173.85 28.6528 180.272 26.3788 180.449C25.4186 178.654 24.4585 176.606 24.2563 174.077C25.8987 173.066 26.8083 171.979 29.0318 171.423V170.892H26.3788V168.237C28.3243 166.922 28.3243 164.318 30.6236 163.458C34.1104 160.399 37.3446 163.534 41.7916 163.989C43.7118 160.222 46.0364 156.657 48.6894 153.345C49.3969 152.991 50.1044 152.637 50.8118 152.283V150.69C51.6962 149.982 52.5805 149.274 53.4648 148.566C54.9051 146.67 56.32 144.622 58.2403 143.257V142.726C59.8574 141.891 61.904 142.523 63.0157 141.133C65.7193 137.795 61.8787 134.382 68.8524 134.23C69.7367 134.863 72.4908 135.09 73.6278 135.292C75.3207 139.034 77.999 142.751 75.7502 145.937C71.7328 151.272 60.1858 155.368 59.8068 163.484C60.2616 163.661 61.626 164.47 61.9292 164.545C62.8136 164.368 63.6979 164.191 64.5823 164.015C64.7591 164.368 64.936 164.722 65.1129 165.076C67.0332 166.214 68.3723 167.276 70.4189 168.262V169.855L70.4694 169.754Z" fill="#EDEDED"/>
<path fill-rule="evenodd" clip-rule="evenodd" d="M227.175 34.866C227.554 30.3403 230.636 20.8337 234.628 19.974C233.921 18.9627 233.896 19.5442 233.567 17.8502C237.382 15.1196 238.191 8.82399 244.205 8.26775C244.786 8.72285 244.659 8.59643 245.796 8.7987C247.262 6.21978 247.135 5.73939 246.327 2.9582H246.858V2.42725C247.843 2.75593 247.338 2.47781 247.919 2.9582C249.056 3.91898 250.066 5.53712 250.572 5.61297C251.153 4.5005 249.132 3.61557 251.102 2.42725V2.9582C253.073 4.24766 253.326 6.57375 254.286 8.7987H255.347C255.6 7.23112 255.903 5.89109 256.939 5.08202V4.55106H257.47V5.08202C257.95 5.71411 257.899 5.96694 258 7.20584C256.257 9.58249 256.408 13.2739 254.817 15.7264C251.886 20.2016 244.836 27.104 245.771 33.2732C250.218 34.234 253.098 37.6978 253.755 42.3247H252.694C250.193 39.6699 244.533 41.0099 240.996 41.7937V42.8557C239.682 44.8025 241.147 48.6709 240.465 51.3762C240.01 53.1713 238.797 55.6744 238.343 57.2167C238.166 59.1635 237.989 61.1104 237.812 63.0572C236.372 67.5324 231.167 70.4653 228.236 73.7016C227.25 73.3729 227.756 73.651 227.175 73.1706C225.911 72.5891 226.417 72.4121 225.583 71.5778C224.193 72.8419 223.132 72.0834 221.338 72.6397C221.01 71.6536 221.287 72.1593 220.807 71.5778C221.869 69.8079 222.93 68.0381 223.991 66.2682C222.45 66.3188 223.233 66.8245 222.399 66.2682C215.956 60.5541 223.056 47.8365 224.522 41.819H220.807C219.115 43.0832 215.097 42.9315 212.318 42.8809C211.989 41.8949 212.267 42.4005 211.787 41.819C212.04 40.5043 212.267 39.8722 212.318 38.1023C213.682 37.1668 213.177 36.7623 215.501 36.5095C216.689 35.6751 225.355 35.0936 227.2 34.9166L227.175 34.866Z" fill="#EDEDED"/>
<path fill-rule="evenodd" clip-rule="evenodd" d="M32.4174 0C33.6807 0.278119 34.085 0.606805 35.0704 1.06191C34.4135 3.46385 33.3017 3.10988 32.948 5.8405C35.3736 7.05411 37.395 5.9922 40.4017 6.90241C42.4231 7.50921 44.596 9.17793 46.769 10.0881V11.15C43.6359 11.7063 35.5 15.4735 34.0092 17.5215C32.6701 19.3166 32.8722 21.6427 31.8868 23.893C30.6487 26.7247 26.4039 33.5007 23.9277 35.0683C23.8519 33.8294 23.8772 33.5766 23.3971 32.9445C22.6138 34.1581 22.5886 34.2592 20.7441 34.5373C19.026 34.8407 12.9872 34.3856 12.7598 29.7587C13.821 28.5198 14.8822 27.281 15.9434 26.0421C14.5285 24.3228 14.8822 21.8703 12.2292 21.2635C9.87935 23.6907 5.58398 25.9662 1.06121 26.0421C0.682205 24.4239 0.252669 24.1711 0 22.3254C2.24875 20.6061 0.606405 19.2913 2.12242 16.4849C4.01743 12.9957 8.26227 13.198 13.821 13.2991C16.7267 6.80128 19.5566 4.32349 26.0501 1.59286C28.0715 0.758506 30.8003 1.21361 32.4174 0Z" fill="#EDEDED"/>
</g>
<defs>
<clipPath id="clip0_495_835">
<rect width="258" height="214" fill="white"/>
</clipPath>
</defs>
</svg>
