<svg width="95" height="55" viewBox="0 0 95 55" fill="none" xmlns="http://www.w3.org/2000/svg">
<path d="M29.7467 39.4712C29.3222 40.0021 28.7843 40.3039 28.1329 40.3764C27.5008 40.4249 26.9193 40.2368 26.3884 39.8124L1.8823 20.2193C1.35139 19.7948 1.04966 19.2569 0.977086 18.6055C0.904516 17.9541 1.07082 17.375 1.47599 16.8683C1.90046 16.3373 2.43839 16.0356 3.08978 15.963C3.74117 15.8905 4.33232 16.0664 4.86323 16.4909L27.487 34.579L37.9637 21.4753C38.3882 20.9444 38.9261 20.6427 39.5775 20.5701C40.2289 20.4976 40.82 20.6735 41.3509 21.098C41.8818 21.5224 42.1836 22.0604 42.2561 22.7118C42.3287 23.3632 42.1527 23.9543 41.7283 24.4852L29.7467 39.4712Z" fill="white"/>
<path d="M59.7095 9.34243C60.4202 9.34243 60.9918 9.57415 61.4243 10.0376C61.826 10.5011 62.0577 11.0263 62.1195 11.6133C62.1504 12.2313 61.9804 12.772 61.6097 13.2354L38.9468 41.2743L59.2461 41.2743C60.0185 41.2743 60.6055 41.4597 61.0072 41.8305C61.378 42.2321 61.5479 42.7265 61.517 43.3135C61.5479 43.9623 61.3316 44.4876 60.8682 44.8893C60.4047 45.3218 59.8331 45.5381 59.1534 45.5381L35.2392 45.5381C34.5286 45.5381 33.957 45.3218 33.5244 44.8892C33.0919 44.4567 32.8447 43.9314 32.7829 43.3135C32.7211 42.7265 32.8911 42.2012 33.2927 41.7378L56.0483 13.6062L35.2392 13.6062C34.5286 13.6062 33.957 13.3899 33.5244 12.9574C33.0919 12.5557 32.8756 12.0768 32.8756 11.5207C32.8756 10.8409 33.0919 10.3002 33.5244 9.89857C33.957 9.52781 34.5286 9.34242 35.2392 9.34242L59.7095 9.34243Z" fill="white"/>
<path d="M65.366 15.0101C65.7959 14.4836 66.337 14.1875 66.9891 14.1217C67.6216 14.0798 68.2011 14.2738 68.7276 14.7038L93.0289 34.5503C93.5554 34.9803 93.8515 35.5213 93.9173 36.1734C93.9831 36.8255 93.8108 37.4028 93.4004 37.9054C92.9705 38.4319 92.4294 38.728 91.7773 38.7938C91.1252 38.8596 90.5359 38.6775 90.0095 38.2476L67.5747 19.9255L56.9625 32.9197C56.5326 33.4461 55.9916 33.7423 55.3394 33.8081C54.6873 33.8739 54.098 33.6918 53.5716 33.2618C53.0451 32.8319 52.749 32.2908 52.6832 31.6387C52.6174 30.9866 52.7994 30.3973 53.2294 29.8709L65.366 15.0101Z" fill="white"/>
</svg>
