<svg width="395" height="358" viewBox="0 0 395 358" fill="none" xmlns="http://www.w3.org/2000/svg">
<path d="M246.855 333.997V346.436L246.855 358H395L389.995 326.375L368.48 316.826L367.865 308.329L366.899 307.628C367.25 307.628 367.572 307.044 367.689 306.752V305.701C367.127 305.701 366.46 304.65 366.197 304.124H365.757C365.757 304.825 365.113 305.467 364.791 305.701C364.51 306.332 365.318 307.249 365.757 307.628C365.617 307.768 365.289 308.154 365.143 308.329L365.67 315.512L363.738 314.636L363.211 307.891L362.245 307.278C362.666 307.278 362.889 306.577 362.947 306.226V305.263C362.737 305.263 361.864 304.212 361.454 303.686H361.015L360.928 304.299C359.171 305.491 360.254 306.723 361.015 307.19L360.576 307.453V312.972L338.535 287.129L334.671 255.942L346.526 258.132L346.789 255.066H347.58V253.752H346.789L346.175 243.941L322.289 237.633L321.85 229.924L325.538 227.734H326.065L326.328 226.945L320.093 219.149L303.408 189.188V187.524L302.881 186.385L302.618 181.479L303.233 180.603L302.442 179.727L302.267 178.238L304.023 180.34L301.564 176.836V175.785L301.915 176.223L301.828 174.909L299.808 170.179L300.071 172.369L300.159 175.522L301.915 177.712V179.464L301.564 179.99V187.349L301.125 187.787V189.977L275.307 215.294L279.962 151.607L266.175 146L260.379 225.369L263.891 226.507L255.461 233.603L256.251 234.392H254.056V232.552L158.776 211.965L155 232.552L256.251 248.934L254.056 312.709L261.081 313.585V315.6L245.626 328.215V332.77L246.855 333.997Z" fill="#093A5D"/>
<path d="M-688 350H233.839V314.615L240 307.692L141.044 219.055V199.806H126.933V208.482L107.394 194.926L88.1266 216.615V205.5L84.8701 199.806V166.189L79.7139 160.767L78.3571 128.776L75.6434 126.065L74.2865 108.172L78.3571 103.834L53.1195 75.639L21.9115 33.8885V15.7242L28.1531 13.5554V12.1998L21.9115 13.5554V0H20.0119V13.5554L15.3986 15.7242V17.0798L20.0119 15.7242V33.8885L-21.2367 85.3989L-34.5341 92.7188L-28.5638 98.6832V117.39L-31.8203 120.643V155.887L-36.4336 160.767L-34.5341 197.637L-36.4336 199.806V225.833L-73.8831 213.904L-106.448 254.028L-115.674 258.908V293.067L-131.957 273.548L-183.518 258.908L-197.086 242.641L-242.677 231.255V224.748H-249.461V232.881L-256.246 241.015L-308.349 227.459L-309.706 221.224H-321.647V228.815L-344.171 253.215L-514.05 261.89L-511.336 237.49L-532.775 182.727L-688 152.091V350Z" fill="#093A5D"/>
</svg>
