<svg width="421" height="1481" viewBox="0 0 421 1481" fill="none" xmlns="http://www.w3.org/2000/svg">
<path d="M-417.242 1469.41C-467.483 1448.98 -486.357 1382.1 -489.514 1351.21C-492.801 1299.63 -478.548 1185.44 -473.066 1047.71C-468.679 937.521 -420.066 793.112 -396.308 734.681C-345.967 625.999 -260.736 539.354 -247.776 519.821C-237.409 504.195 -179.326 455.546 -151.58 433.176C-108.383 399.619 -21.1914 332.507 -18.0014 332.507C-14.8115 332.507 75.703 264.392 120.561 230.335C162.031 206.696 196.322 172.405 208.285 158.214C207.122 157.046 204.198 146.395 201.805 113.139C193.83 78.2804 198.482 56.8778 201.805 50.5339C263.211 -38.0146 330.399 9.63194 356.318 44.5238L380.741 90.1002C400.279 117.747 414.8 153.039 419.618 167.23C419.618 190.268 426.197 232.138 410.646 215.31C395.095 198.482 382.9 200.285 378.747 203.29C375.956 232.94 354.988 245.027 344.854 247.364H297.005C211.774 246.362 173.893 398.117 149.969 433.176C130.829 461.223 131.693 500.288 134.517 516.315C121.359 564.396 67.8943 610.807 42.8068 628.002C32.0075 637.852 10.8077 663.862 12.4026 689.105C13.9976 714.347 2.43411 808.805 -3.54703 852.879C-35.0476 947.438 -24.3148 1237.52 -15.0109 1370.75C-200.924 1484.94 -354.44 1494.96 -417.242 1469.41Z" fill="#EDEDED"/>
</svg>
